<svg xmlns="http://www.w3.org/2000/svg" width="569.232" height="933.334"><defs><clipPath id="a" clipPathUnits="userSpaceOnUse"><path d="M0 1080h1080V0H0Z"/></clipPath></defs><g clip-path="url(#a)" transform="matrix(1.33333 0 0 -1.33333 -435.384 1186.667)"><path d="m0 0-.962 10.711c-.223 2.735-.443 6.723-.666 9.752h-.22c-1.257-3.029-2.659-6.87-3.989-9.752L-10.713 0Zm-13.889-8.126-5.837-12.928h-11.376l24.304 49.791H6.867l5.765-49.791H1.477L.443-8.126Z" style="fill:#0067b2;fill-opacity:1;fill-rule:nonzero;stroke:none" transform="translate(507.698 860.45)"/><path d="M0 0h29.18l-1.773-9.086H8.939L6.648-20.758H24.01l-1.773-8.939H4.95L1.182-49.79h-10.64z" style="fill:#0067b2;fill-opacity:1;fill-rule:nonzero;stroke:none" transform="translate(535.177 889.187)"/><path d="M0 0c-2.659-1.182-7.091-2.142-13.075-2.142-13.223 0-22.014 7.978-22.014 21.127 0 11.303 5.023 20.02 12.556 25.044 5.174 3.545 11.231 5.244 18.249 5.244 5.393 0 9.454-1.255 10.935-2.068l-2.958-8.643c-1.402.738-4.727 1.625-9.011 1.625s-8.348-1.33-11.378-3.841c-4.136-3.471-6.87-9.16-6.87-16.105 0-7.979 4.507-13.296 13.225-13.296 3.546 0 7.016.59 9.454 1.624z" style="fill:#0067b2;fill-opacity:1;fill-rule:nonzero;stroke:none" transform="translate(600.775 840.727)"/><path d="m0 0-1.92 49.792H8.867V27.627c0-6.057-.148-11.67-.296-16.177h.148c1.772 4.875 3.545 9.973 5.837 16.029l8.938 22.313h11.67l-.148-22.237c-.072-5.985-.219-10.935-.515-15.81h.148a449 449 0 0 0 5.541 15.882l8.568 22.165h11.23L38.047 0H26.449l-.296 20.389c-.075 5.908.072 10.934.368 16.548h-.148c-1.772-5.318-3.545-10.712-5.981-16.768L11.821 0Z" style="fill:#0067b2;fill-opacity:1;fill-rule:nonzero;stroke:none" transform="translate(337.342 190.814)"/><path d="m0 0-9.458-49.792h-10.639L-10.639 0Z" style="fill:#0067b2;fill-opacity:1;fill-rule:nonzero;stroke:none" transform="translate(413.73 240.606)"/><path d="m0 0 3.03 20.536c.814 5.394 1.921 12.265 3.326 19.431h-.224C3.401 33.539.299 26.668-2.436 21.203L-12.632.814h-8.272l-1.773 20.165c-.443 5.466-.814 12.337-1.109 18.988h-.148c-1.402-6.576-2.879-14.113-4.136-19.431L-33.02 0h-9.75l12.484 49.792h14.257l1.553-18.987c.295-4.655.81-10.269.886-15.81h.295c1.921 5.541 4.58 11.378 6.723 15.885l9.235 18.912h14.404L10.344 0Z" style="fill:#0067b2;fill-opacity:1;fill-rule:nonzero;stroke:none" transform="translate(455.686 190.814)"/><path d="M0 0h3.545c5.837 0 9.825 2.436 9.825 6.72 0 3.548-2.882 5.098-6.942 5.098-1.849 0-3.398-.148-4.212-.296zm-4.284-21.869c1.254-.148 2.511-.148 4.061-.148 5.764 0 11.01 2.291 11.01 7.833 0 4.95-4.139 6.427-9.086 6.427h-3.326zm-2.659 40.781c3.546.738 8.197 1.181 13.075 1.181 5.246 0 9.011-.666 12.336-2.586 3.326-1.701 5.762-4.951 5.762-9.159 0-6.28-4.58-10.196-10.046-11.749v-.22c4.8-1.477 7.83-5.393 7.83-10.859 0-5.393-2.882-9.234-6.795-11.821-4.212-2.879-10.492-4.064-18.764-4.064-5.617 0-10.121.371-12.56.89z" style="fill:#0067b2;fill-opacity:1;fill-rule:nonzero;stroke:none" transform="translate(490.926 220.808)"/><path d="M0 0h10.639L2.954-40.486h19.135l-1.773-9.306h-29.77z" style="fill:#0067b2;fill-opacity:1;fill-rule:nonzero;stroke:none" transform="translate(527.197 240.606)"/><path d="M0 0h-17.658l-2.288-12.116h19.87l-1.772-9.087h-30.51l9.458 49.792H6.575l-1.776-9.087h-18.764l-2.068-10.563H1.773Z" style="fill:#0067b2;fill-opacity:1;fill-rule:nonzero;stroke:none" transform="translate(586.075 212.017)"/><path d="M0 0c1.254-.22 2.807-.296 4.651-.296 5.765 0 10.863 1.997 14.113 5.765 3.397 3.841 5.17 9.087 5.17 15.367 0 7.901-4.284 12.188-12.927 12.188-2.068 0-3.621-.148-4.727-.371zm-3.03 40.41c4.284.739 8.791 1.109 13.446 1.109 8.052 0 14.332-1.552 18.393-5.025 4.212-3.322 6.651-8.272 6.651-15.291 0-9.749-4.064-18.541-10.197-23.491-5.761-4.655-13.075-6.651-23.862-6.651-5.984 0-11.154.519-13.665.962z" style="fill:#0067b2;fill-opacity:1;fill-rule:nonzero;stroke:none" transform="translate(604.248 199.382)"/><path d="M0 0c8.568 0 14.405 12.117 14.405 21.498 0 6.205-2.216 12.189-10.045 12.189-8.939 0-14.776-11.969-14.776-21.423C-10.416 5.246-7.238 0-.072 0Zm-1.477-8.867c-12.927 0-20.169 9.162-20.169 20.76 0 8.939 3.325 17.73 9.014 23.419 4.655 4.507 11.079 7.238 18.321 7.238 13.151 0 20.093-8.863 20.093-20.756 0-9.015-3.177-17.878-8.791-23.419C12.412-6.204 6.057-8.867-1.405-8.867Z" style="fill:#0067b2;fill-opacity:1;fill-rule:nonzero;stroke:none" transform="translate(666.005 198.867)"/><path d="m0 0 9.454 49.792h12.484l6.575-18.987c1.996-6.352 3.326-11.523 4.507-16.992h.224c.22 5.098.958 10.564 2.288 17.878l3.397 18.101h9.973L39.448 0H28.441l-6.946 19.873c-2.216 6.795-3.545 11.303-4.875 17.359h-.22c-.518-4.875-1.7-11.893-3.177-19.798L9.897 0Z" style="fill:#0067b2;fill-opacity:1;fill-rule:nonzero;stroke:none" transform="translate(694.299 190.814)"/><path d="M0 0h-402.2L-7.245-.108h-402.2s-54.56-440.054 206.932-563.177h.054C59.033-440.162 0 0 0 0" style="fill:#fff;fill-opacity:1;fill-rule:nonzero;stroke:none" transform="translate(744.231 820.982)"/><path d="M0 0h-402.2L-7.245-.108h-402.2s-54.56-440.054 206.932-563.177h.054C59.033-440.162 0 0 0 0Z" style="fill:none;stroke:#231f20;stroke-width:7.036;stroke-linecap:butt;stroke-linejoin:miter;stroke-miterlimit:4;stroke-dasharray:none;stroke-opacity:1" transform="translate(744.231 820.982)"/><path d="M0 0s-54.862 13.585-44.453-21.772c0 0 5.537 9.157 17.63 3.334s24.624-6.018 40.894-1.166C14.071-19.604 8.97-7.924 0 0" style="fill:#d1392a;fill-opacity:1;fill-rule:nonzero;stroke:none" transform="translate(460.132 769.74)"/><path d="M0 0s-24.329-27.38-38.39-14.631c0 0 1.785-10.033 17.632-12.96 0 0 14.284-4.597 30.801 11.496C10.043-16.095 5.356-3.552 0 0" style="fill:#d1392a;fill-opacity:1;fill-rule:nonzero;stroke:none" transform="translate(477.571 745.319)"/><path d="M0 0s-24.329-27.38-38.39-14.631c0 0 1.785-10.033 17.632-12.96 0 0 14.284-4.597 30.801 11.496C10.043-16.095 5.356-3.552 0 0z" style="fill:none;stroke:#d1392a;stroke-width:.879;stroke-linecap:butt;stroke-linejoin:miter;stroke-miterlimit:4;stroke-dasharray:none;stroke-opacity:1" transform="translate(477.571 745.319)"/><path d="m0 0 35.937-9.31s3.363-.817 4.971.095c0 0-2.542-1.582-7.86-.871L-1.931-3.954z" style="fill:#231f20;fill-opacity:1;fill-rule:nonzero;stroke:none" transform="translate(599.878 749.652)"/><path d="m0 0 35.937-9.31s3.363-.817 4.971.095c0 0-2.542-1.582-7.86-.871L-1.931-3.954z" style="fill:none;stroke:#231f20;stroke-width:.879;stroke-linecap:butt;stroke-linejoin:miter;stroke-miterlimit:4;stroke-dasharray:none;stroke-opacity:1" transform="translate(599.878 749.652)"/><path d="M0 0s54.862 13.173 44.453-21.112c0 0-5.537 8.879-17.63 3.233s-24.624-5.835-40.894-1.129C-14.071-19.008-8.97-7.685 0 0" style="fill:#d1392a;fill-opacity:1;fill-rule:nonzero;stroke:none" transform="translate(616.694 769.62)"/><path d="M0 0s24.329-27.38 38.387-14.631c0 0-1.783-10.033-17.631-12.96 0 0-14.284-4.597-30.798 11.496 0 0 4.687 12.543 10.042 16.095" style="fill:#d1392a;fill-opacity:1;fill-rule:nonzero;stroke:none" transform="translate(599.256 745.896)"/><path d="M0 0s24.329-27.38 38.387-14.631c0 0-1.783-10.033-17.631-12.96 0 0-14.284-4.597-30.798 11.496 0 0 4.687 12.543 10.042 16.095z" style="fill:none;stroke:#d1392a;stroke-width:.879;stroke-linecap:butt;stroke-linejoin:miter;stroke-miterlimit:4;stroke-dasharray:none;stroke-opacity:1" transform="translate(599.256 745.896)"/><path d="m0 0-35.941-9.309s-3.366-.818-4.974.094c0 0 2.542-1.582 7.864-.871L1.931-3.954z" style="fill:#231f20;fill-opacity:1;fill-rule:nonzero;stroke:none" transform="translate(477.245 749.075)"/><path d="m0 0-35.941-9.309s-3.366-.818-4.974.094c0 0 2.542-1.582 7.864-.871L1.931-3.954z" style="fill:none;stroke:#231f20;stroke-width:.879;stroke-linecap:butt;stroke-linejoin:miter;stroke-miterlimit:4;stroke-dasharray:none;stroke-opacity:1" transform="translate(477.245 749.075)"/><path d="m0 0-13.396-10.569S-27.852 14.08-42.902 7.302c0 0-10.007-.907-5.65-9.966 0 0 2.907-4.227 9.846-.15 0 0 8.362 1.349 10.624-4.844 0 0 1.855-4.879 5.244-6.541 0 0-6.431-5.702-18.051.337 0 0-22.191 5.007-23.642-8.283 0 0 .982-5.836 8.083-5.077 0 0 5.574.289 9.446 4.068 0 0 8.6 1.408 11.668-1.161 0 0 3.961-2.567 9.445 0 0 0-26.859-12.563-25.567-19.355 0 0-.613-9.423 9.234-7.915 0 0 5.349 3.226 6.156 8.355 0 0 5.234 11.59 16.902 12.752l7.06.587s-2.613-11.337-10.111-12.855c0 0-8.553-7.716 4.137-11.77 0 0 9.773 3.518 10.859 24.038 0 0 2.171 13.485 7.059 12.897l7.29 3.29L1.965-1.305h-4.517" style="fill:#d1392a;fill-opacity:1;fill-rule:nonzero;stroke:#d1392a;stroke-width:3.518;stroke-linecap:butt;stroke-linejoin:miter;stroke-miterlimit:4;stroke-dasharray:none;stroke-opacity:1" transform="translate(487.843 481.544)"/><path d="M0 0s-13.617 18.618-26.018.564c0 0 7.29 5.19 7.65 1.588 0 0-2.835-8.803 8.387-6.104C1.242-1.242 0 0 0 0" style="fill:#d1392a;fill-opacity:1;fill-rule:nonzero;stroke:none" transform="translate(446.186 485.771)"/><path d="M0 0s-17.728 17.336-27.581-3.611c0 0 6.766 6.624 7.793 2.901 0 0-1.412-9.694 9.956-5.046C1.534-1.11 0 0 0 0" style="fill:#d1392a;fill-opacity:1;fill-rule:nonzero;stroke:none" transform="translate(432.185 465.07)"/><path d="M0 0s-22.253 11.447-25.26-15.373c0 0 4.44 9.99 6.561 6.376 0 0 1.617-11.1 11.064-1.337C1.807-.567 0 0 0 0" style="fill:#d1392a;fill-opacity:1;fill-rule:nonzero;stroke:none" transform="translate(444.072 439.382)"/><path d="M0 0s9.959-15.974-8.332-18.884c0 0 6.515 3.511 3.818 4.971 0 0-7.838.886-1.941 8.056C-.553 1.313 0 0 0 0" style="fill:#d1392a;fill-opacity:1;fill-rule:nonzero;stroke:none" transform="translate(471.487 431.288)"/><path d="m0 0 13.398-10.569S27.85 14.08 42.901 7.302c0 0 10.007-.907 5.651-9.966 0 0-2.907-4.227-9.846-.15 0 0-8.362 1.348-10.626-4.844 0 0-1.855-4.879-5.242-6.541 0 0 6.431-5.702 18.05.337 0 0 22.188 5.007 23.642-8.283 0 0-.983-5.836-8.084-5.077 0 0-5.572.289-9.444 4.068 0 0-8.602 1.408-11.669-1.162 0 0-3.961-2.566-9.444 0 0 0 26.858-12.562 25.566-19.354 0 0 .615-9.423-9.234-7.915 0 0-5.349 3.226-6.157 8.354 0 0-5.232 11.591-16.898 12.752l-7.06.588s2.611-11.337 10.11-12.855c0 0 8.551-7.716-4.136-11.77 0 0-9.773 3.518-10.859 24.037 0 0-2.171 13.486-7.06 12.898l-7.289 3.29 5.163 12.986h4.517" style="fill:#d1392a;fill-opacity:1;fill-rule:nonzero;stroke:#d1392a;stroke-width:3.518;stroke-linecap:butt;stroke-linejoin:miter;stroke-miterlimit:4;stroke-dasharray:none;stroke-opacity:1" transform="translate(587.415 481.077)"/><path d="M0 0s13.618 18.618 26.016.564c0 0-7.29 5.19-7.651 1.588 0 0 2.835-8.803-8.385-6.104C-1.244-1.242 0 0 0 0" style="fill:#d1392a;fill-opacity:1;fill-rule:nonzero;stroke:none" transform="translate(629.072 485.304)"/><path d="M0 0s17.727 17.337 27.579-3.609c0 0-6.764 6.622-7.791 2.9 0 0 1.412-9.695-9.956-5.047C-1.532-1.109 0 0 0 0" style="fill:#d1392a;fill-opacity:1;fill-rule:nonzero;stroke:none" transform="translate(643.07 464.603)"/><path d="M0 0s22.251 11.447 25.26-15.373c0 0-4.442 9.99-6.562 6.376 0 0-1.617-11.1-11.061-1.337C-1.807-.567 0 0 0 0" style="fill:#d1392a;fill-opacity:1;fill-rule:nonzero;stroke:none" transform="translate(631.185 438.915)"/><path d="M0 0s-9.959-15.974 8.331-18.884c0 0-6.514 3.511-3.817 4.971 0 0 7.836.886 1.941 8.056C.553 1.312 0 0 0 0" style="fill:#d1392a;fill-opacity:1;fill-rule:nonzero;stroke:none" transform="translate(603.77 430.821)"/><path d="M0 0c-11.141 63.904 23.477 107.166 23.477 107.166s21.698 47.49 30.492 50.423c0 0 2.927 29.902-51.595 2.344 0 0-7.62-5.277-12.896 4.101 0 0 7.619-15.239 2.342-32.828 0 0-18.313-58.011-18.856-71.5v.055c-.587 13.486-18.779 71.584-18.779 71.584-5.277 17.589 2.344 32.832 2.344 32.832-5.276-9.382-12.898-4.104-12.898-4.104-54.524 27.557-51.595-2.344-51.595-2.344 8.794-2.931 30.488-50.422 30.488-50.422S-42.887 64.023-54.026.115l.002-.101c-7.036 52.767-43.093 75.632-43.093 75.632-79.151 42.214-77.392 94.101-77.392 94.101s-13.092-26.227 1.294-57.394c0 0-23.175 9.191-24.173 70.327 0 0-15.384-25.971 3.597-77.32 0 0-6.595-1.8-18.981 8.79 0 0-1.396-16.782 19.381-45.752 0 0-2.999-5.595-11.589 1.398 0 0-3.398-8.99 14.585-34.764 0 0-1-6.192-11.988 2.798 0 0-2.197-18.58 21.378-28.371 0 0-3.394-9.191-12.386-9.39 0 0 .199-14.583 15.983-17.381 0 0 .201-7.392-12.786-4.995 0 0 7.994-18.185 19.581-19.383 0 0-2.796-6.59-7.791-5.592 0 0 5.993-23.177 25.772-21.978 0 0-.2-7.59-5.794-8.391 0 0 12.589-13.188 25.176-9.992 0 0 3.995-5.395.199-7.592 0 0 6.991-7.59 24.774-2.995 0 0 6.596-1.399 8.992-10.789 0 0 39.359 2.596 48.949 32.764l-3.688-26.333-31.66-30.489 15.83-26.381s17.005 11.139 25.797 32.831l1.759-12.898s-13.485-31.662-29.315-45.145l-1.759-21.107s7.036-4.689 28.142 14.658l3.518-9.382-5.277-14.071s-25.212-9.382-53.94-1.759l-1.171-14.071s9.966-11.137 18.76-9.966c0 0-9.966-16.421-4.103-25.799 0 0 2.934-12.309 43.386 22.282 0 0 11.727 8.79 0-17.006 0 0-13.523-38.403 16.966-56.576h.055c30.485 18.173 17.098 56.436 17.098 56.436-11.725 25.792 0 17.005 0 17.005 40.451-34.594 43.384-22.282 43.384-22.282 5.861 9.378-4.101 25.8-4.101 25.8 8.794-1.175 18.757 9.962 18.757 9.962l-1.168 14.071c-28.73-7.619-53.939 1.759-53.939 1.759l-5.276 14.071 3.517 9.386c21.104-19.348 28.139-14.662 28.139-14.662l-1.759 21.106c-15.826 13.488-29.313 45.151-29.313 45.151l1.759 12.896c8.794-21.691 25.795-32.831 25.795-32.831l15.831 26.38-31.657 30.49-3.69 26.334c9.589-30.17 48.947-32.765 48.947-32.765 2.395 9.391 8.991 10.789 8.991 10.789 17.784-4.595 24.775 2.996 24.775 2.996-3.796 2.196.199 7.592.199 7.592 12.587-3.197 25.175 9.991 25.175 9.991-5.593.801-5.792 8.391-5.792 8.391 19.777-1.199 25.772 21.978 25.772 21.978-4.995-.998-7.792 5.593-7.792 5.593 11.588 1.197 19.582 19.382 19.582 19.382-12.989-2.396-12.786 4.995-12.786 4.995 15.781 2.798 15.981 17.381 15.981 17.381-8.99.199-12.385 9.392-12.385 9.392 23.574 9.791 21.379 28.369 21.379 28.369-10.99-8.99-11.99-2.796-11.99-2.796 17.984 25.772 14.586 34.762 14.586 34.762-8.591-6.991-11.59-1.398-11.59-1.398 20.777 28.97 19.382 45.752 19.382 45.752-12.388-10.588-18.98-8.788-18.98-8.788 18.98 51.345 3.596 77.316 3.596 77.316-.999-61.135-24.174-70.325-24.174-70.325 14.387 31.169 1.295 57.395 1.295 57.395s1.759-51.888-77.392-94.101c0 0-36.057-22.866-43.089-75.633z" style="fill:#231f20;fill-opacity:1;fill-rule:nonzero;stroke:none" transform="translate(565.604 614.19)"/><path d="M0 0c-11.141 63.904 23.477 107.166 23.477 107.166s21.698 47.49 30.492 50.423c0 0 2.927 29.902-51.595 2.344 0 0-7.62-5.277-12.896 4.101 0 0 7.619-15.239 2.342-32.828 0 0-18.313-58.011-18.856-71.5v.055c-.587 13.486-18.779 71.584-18.779 71.584-5.277 17.589 2.344 32.832 2.344 32.832-5.276-9.382-12.898-4.104-12.898-4.104-54.524 27.557-51.595-2.344-51.595-2.344 8.794-2.931 30.488-50.422 30.488-50.422S-42.887 64.023-54.026.115l.002-.101c-7.036 52.767-43.093 75.632-43.093 75.632-79.151 42.214-77.392 94.101-77.392 94.101s-13.092-26.227 1.294-57.394c0 0-23.175 9.191-24.173 70.327 0 0-15.384-25.971 3.597-77.32 0 0-6.595-1.8-18.981 8.79 0 0-1.396-16.782 19.381-45.752 0 0-2.999-5.595-11.589 1.398 0 0-3.398-8.99 14.585-34.764 0 0-1-6.192-11.988 2.798 0 0-2.197-18.58 21.378-28.371 0 0-3.394-9.191-12.386-9.39 0 0 .199-14.583 15.983-17.381 0 0 .201-7.392-12.786-4.995 0 0 7.994-18.185 19.581-19.383 0 0-2.796-6.59-7.791-5.592 0 0 5.993-23.177 25.772-21.978 0 0-.2-7.59-5.794-8.391 0 0 12.589-13.188 25.176-9.992 0 0 3.995-5.395.199-7.592 0 0 6.991-7.59 24.774-2.995 0 0 6.596-1.399 8.992-10.789 0 0 39.359 2.596 48.949 32.764l-3.688-26.333-31.66-30.489 15.83-26.381s17.005 11.139 25.797 32.831l1.759-12.898s-13.485-31.662-29.315-45.145l-1.759-21.107s7.036-4.689 28.142 14.658l3.518-9.382-5.277-14.071s-25.212-9.382-53.94-1.759l-1.171-14.071s9.966-11.137 18.76-9.966c0 0-9.966-16.421-4.103-25.799 0 0 2.934-12.309 43.386 22.282 0 0 11.727 8.79 0-17.006 0 0-13.523-38.403 16.966-56.576h.055c30.485 18.173 17.098 56.436 17.098 56.436-11.725 25.792 0 17.005 0 17.005 40.451-34.594 43.384-22.282 43.384-22.282 5.861 9.378-4.101 25.8-4.101 25.8 8.794-1.175 18.757 9.962 18.757 9.962l-1.168 14.071c-28.73-7.619-53.939 1.759-53.939 1.759l-5.276 14.071 3.517 9.386c21.104-19.348 28.139-14.662 28.139-14.662l-1.759 21.106c-15.826 13.488-29.313 45.151-29.313 45.151l1.759 12.896c8.794-21.691 25.795-32.831 25.795-32.831l15.831 26.38-31.657 30.49-3.69 26.334c9.589-30.17 48.947-32.765 48.947-32.765 2.395 9.391 8.991 10.789 8.991 10.789 17.784-4.595 24.775 2.996 24.775 2.996-3.796 2.196.199 7.592.199 7.592 12.587-3.197 25.175 9.991 25.175 9.991-5.593.801-5.792 8.391-5.792 8.391 19.777-1.199 25.772 21.978 25.772 21.978-4.995-.998-7.792 5.593-7.792 5.593 11.588 1.197 19.582 19.382 19.582 19.382-12.989-2.396-12.786 4.995-12.786 4.995 15.781 2.798 15.981 17.381 15.981 17.381-8.99.199-12.385 9.392-12.385 9.392 23.574 9.791 21.379 28.369 21.379 28.369-10.99-8.99-11.99-2.796-11.99-2.796 17.984 25.772 14.586 34.762 14.586 34.762-8.591-6.991-11.59-1.398-11.59-1.398 20.777 28.97 19.382 45.752 19.382 45.752-12.388-10.588-18.98-8.788-18.98-8.788 18.98 51.345 3.596 77.316 3.596 77.316-.999-61.135-24.174-70.325-24.174-70.325 14.387 31.169 1.295 57.395 1.295 57.395s1.759-51.888-77.392-94.101c0 0-36.057-22.866-43.089-75.633z" style="fill:none;stroke:#231f20;stroke-width:3.518;stroke-linecap:butt;stroke-linejoin:miter;stroke-miterlimit:2;stroke-dasharray:none;stroke-opacity:1" transform="translate(565.604 614.19)"/><path d="m0 0 60.273-82.514" style="fill:none;stroke:#eea434;stroke-width:14.071;stroke-linecap:butt;stroke-linejoin:miter;stroke-miterlimit:4;stroke-dasharray:none;stroke-opacity:1" transform="translate(604.815 652.183)"/><path d="m0 0 59.555 81.08" style="fill:none;stroke:#eea434;stroke-width:14.071;stroke-linecap:butt;stroke-linejoin:miter;stroke-miterlimit:4;stroke-dasharray:none;stroke-opacity:1" transform="translate(604.815 570.387)"/><path d="m0 0-30.856-40.898L0-81.796l30.135 40.898Z" style="fill:none;stroke:#eda536;stroke-width:14.071;stroke-linecap:butt;stroke-linejoin:miter;stroke-miterlimit:4;stroke-dasharray:none;stroke-opacity:1" transform="translate(634.953 652.183)"/><path d="m0 0 24.686 25.03" style="fill:#f3c867;fill-opacity:1;fill-rule:nonzero;stroke:#eea434;stroke-width:7.036;stroke-linecap:butt;stroke-linejoin:miter;stroke-miterlimit:4;stroke-dasharray:none;stroke-opacity:1" transform="translate(457.614 623.405)"/><path d="m0 0-20.033 22.536" style="fill:#f3c867;fill-opacity:1;fill-rule:nonzero;stroke:#eea434;stroke-width:7.036;stroke-linecap:butt;stroke-linejoin:miter;stroke-miterlimit:4;stroke-dasharray:none;stroke-opacity:1" transform="translate(439.236 626.981)"/><path d="m0 0-29.65-9.081s-8.513-4.313-8.918 7.954c0 0-.672 20.446 14.077 31.483 0 0 1.768 2.567 3.963 1.007.735-.52 1.514-1.499 2.29-3.184C-15.131 21.44-.134 4.093-.134 4.093Z" style="fill:#f3c867;fill-opacity:1;fill-rule:nonzero;stroke:none" transform="translate(447.505 612.98)"/><path d="m0 0-29.65-9.081s-8.513-4.313-8.918 7.954c0 0-.672 20.446 14.077 31.483 0 0 1.768 2.567 3.963 1.007.735-.52 1.514-1.499 2.29-3.184C-15.131 21.44-.134 4.093-.134 4.093Z" style="fill:none;stroke:#eea434;stroke-width:7.036;stroke-linecap:round;stroke-linejoin:round;stroke-miterlimit:4;stroke-dasharray:none;stroke-opacity:1" transform="translate(447.505 612.98)"/><path d="m0 0 28.532-10.218s9.295-1.608 1.733-11.406c0 0-12.602-16.331-30.981-16.328 0 0-2.998-.969-3.685 1.53-.23.832-.194 2.05.294 3.817C-2.164-25.536-2.52-3.267-2.52-3.267z" style="fill:#f3c867;fill-opacity:1;fill-rule:nonzero;stroke:none" transform="translate(451.734 610.546)"/><path d="m0 0 28.532-10.218s9.295-1.608 1.733-11.406c0 0-12.602-16.331-30.981-16.328 0 0-2.998-.969-3.685 1.53-.23.832-.194 2.05.294 3.817C-2.164-25.536-2.52-3.267-2.52-3.267z" style="fill:none;stroke:#eea434;stroke-width:7.036;stroke-linecap:round;stroke-linejoin:round;stroke-miterlimit:4;stroke-dasharray:none;stroke-opacity:1" transform="translate(451.734 610.546)"/><path d="m0 0 21.163 23.834s5.19 8.396 11.938-2.528c0 0 11.241-18.207 4.104-35.982 0 0-.204-3.257-2.937-2.996-.914.085-2.101.566-3.655 1.684C24.387-11.502 2.249-3.643 2.249-3.643z" style="fill:#f3c867;fill-opacity:1;fill-rule:nonzero;stroke:none" transform="translate(450.485 615.643)"/><path d="m0 0 21.163 23.834s5.19 8.396 11.938-2.528c0 0 11.241-18.207 4.104-35.982 0 0-.204-3.257-2.937-2.996-.914.085-2.101.566-3.655 1.684C24.387-11.502 2.249-3.643 2.249-3.643z" style="fill:none;stroke:#eea434;stroke-width:7.036;stroke-linecap:round;stroke-linejoin:round;stroke-miterlimit:4;stroke-dasharray:none;stroke-opacity:1" transform="translate(450.485 615.643)"/><path d="m0 0-.546-30.726s1.491-9.538-10.516-4.771c0 0-20.014 7.958-26.05 25.976 0 0-1.931 2.678.273 4.018.735.448 1.927.748 3.803.743 7.505.002 29.032 6.347 29.032 6.347z" style="fill:#f3c867;fill-opacity:1;fill-rule:nonzero;stroke:none" transform="translate(448.094 609.555)"/><path d="m0 0-.546-30.726s1.491-9.538-10.516-4.771c0 0-20.014 7.958-26.05 25.976 0 0-1.931 2.678.273 4.018.735.448 1.927.748 3.803.743 7.505.002 29.032 6.347 29.032 6.347z" style="fill:none;stroke:#eea434;stroke-width:7.036;stroke-linecap:round;stroke-linejoin:round;stroke-miterlimit:4;stroke-dasharray:none;stroke-opacity:1" transform="translate(448.094 609.555)"/><path d="m0 0-1.058-28.574" style="fill:#f3c867;fill-opacity:1;fill-rule:nonzero;stroke:#eea434;stroke-width:7.036;stroke-linecap:butt;stroke-linejoin:miter;stroke-miterlimit:4;stroke-dasharray:none;stroke-opacity:1" transform="translate(448.545 593.992)"/><path d="m0 0-29.58-6.175" style="fill:#f3c867;fill-opacity:1;fill-rule:nonzero;stroke:#eea434;stroke-width:7.036;stroke-linecap:butt;stroke-linejoin:miter;stroke-miterlimit:4;stroke-dasharray:none;stroke-opacity:1" transform="translate(433.046 608.394)"/><path d="m0 0 29.075-11.009" style="fill:#f3c867;fill-opacity:1;fill-rule:nonzero;stroke:#eea434;stroke-width:7.036;stroke-linecap:butt;stroke-linejoin:miter;stroke-miterlimit:4;stroke-dasharray:none;stroke-opacity:1" transform="translate(464.548 606.288)"/><path d="m0 0-21.294 22.914s-7.956 6.036 5.133 10.283c0 0 21.816 7.071 39.453-2.262 0 0 3.454-.726 2.618-3.128-.277-.807-1.033-1.791-2.553-3.002-6.079-4.84-18.99-23.388-18.99-23.388Z" style="fill:#f3c867;fill-opacity:1;fill-rule:nonzero;stroke:none" transform="translate(449.41 616.857)"/><path d="m0 0-21.294 22.914s-7.956 6.036 5.133 10.283c0 0 21.816 7.071 39.453-2.262 0 0 3.454-.726 2.618-3.128-.277-.807-1.033-1.791-2.553-3.002-6.079-4.84-18.99-23.388-18.99-23.388Z" style="fill:none;stroke:#eea434;stroke-width:7.036;stroke-linecap:round;stroke-linejoin:round;stroke-miterlimit:4;stroke-dasharray:none;stroke-opacity:1" transform="translate(449.41 616.857)"/><path d="M0 0c.641-8.731-5.263-16.28-13.183-16.862-7.919-.581-14.858 6.025-15.499 14.758-.642 8.733 5.262 16.282 13.18 16.864S-.644 8.734 0 0" style="fill:#f3c867;fill-opacity:1;fill-rule:nonzero;stroke:none" transform="translate(464.27 613.408)"/><path d="M0 0c.641-8.731-5.263-16.28-13.183-16.862-7.919-.581-14.858 6.025-15.499 14.758-.642 8.733 5.262 16.282 13.18 16.864S-.644 8.734 0 0" style="fill:none;stroke:#eea434;stroke-width:7.036;stroke-linecap:round;stroke-linejoin:round;stroke-miterlimit:4;stroke-dasharray:none;stroke-opacity:1" transform="translate(464.27 613.408)"/><path d="M0 0s.486 11.496 14.248 6.314C14.248 6.314 6.881-7.204 0 0" style="fill:#d1392a;fill-opacity:1;fill-rule:nonzero;stroke:none" transform="translate(473.421 759.203)"/><path d="M0 0s.486 11.496 14.248 6.314C14.248 6.314 6.881-7.204 0 0Z" style="fill:none;stroke:#d1392a;stroke-width:.879;stroke-linecap:butt;stroke-linejoin:miter;stroke-miterlimit:4;stroke-dasharray:none;stroke-opacity:1" transform="translate(473.421 759.203)"/><path d="M0 0s-.488 11.496-14.246 6.314c0 0 7.365-13.518 14.246-6.314" style="fill:#d1392a;fill-opacity:1;fill-rule:nonzero;stroke:none" transform="translate(603.575 759.01)"/><path d="M0 0s-.488 11.496-14.246 6.314c0 0 7.365-13.518 14.246-6.314Z" style="fill:none;stroke:#d1392a;stroke-width:.879;stroke-linecap:butt;stroke-linejoin:miter;stroke-miterlimit:4;stroke-dasharray:none;stroke-opacity:1" transform="translate(603.575 759.01)"/></g></svg>