<?xml version="1.0" encoding="UTF-8" standalone="no"?>
<svg
   xmlns:dc="http://purl.org/dc/elements/1.1/"
   xmlns:cc="http://creativecommons.org/ns#"
   xmlns:rdf="http://www.w3.org/1999/02/22-rdf-syntax-ns#"
   xmlns:svg="http://www.w3.org/2000/svg"
   xmlns="http://www.w3.org/2000/svg"
   viewBox="0 0 447.70667 447.70667"
   height="300"
   width="300"
   xml:space="preserve"
   id="svg2"
   version="1.1"><metadata
     id="metadata8"><rdf:RDF><cc:Work
         rdf:about=""><dc:format>image/svg+xml</dc:format><dc:type
           rdf:resource="http://purl.org/dc/dcmitype/StillImage" /></cc:Work></rdf:RDF></metadata><defs
     id="defs6" /><g
     transform="matrix(1.3333333,0,0,-1.3333333,0,447.70667)"
     id="g10"><g
       transform="scale(0.1)"
       id="g12"><path
         id="path14"
         style="fill:#100f0d;fill-opacity:1;fill-rule:nonzero;stroke:none"
         d="M 3357.81,1678.9 C 3357.81,751.672 2606.14,0 1678.91,0 751.672,0 0,751.672 0,1678.9 c 0,927.24 751.672,1678.91 1678.91,1678.91 927.23,0 1678.9,-751.67 1678.9,-1678.91" /><path
         id="path16"
         style="fill:#ffffff;fill-opacity:1;fill-rule:nonzero;stroke:none"
         d="m 1337.21,3209.71 44.18,-122.71 647.92,4.91 73.62,107.99 c 0,0 -294.51,107.98 -765.72,9.81" /><path
         id="path18"
         style="fill:#ed1d24;fill-opacity:1;fill-rule:nonzero;stroke:none"
         d="m 507.68,2723.78 103.082,-122.71 407.398,9.81 284.69,431.95 -49.08,161.98 c 0,0 -446.676,-107.99 -746.09,-481.03" /><path
         id="path20"
         style="fill:#ed1d24;fill-opacity:1;fill-rule:nonzero;stroke:none"
         d="m 119.918,1904.06 h 98.168 L 561.676,1408.31 453.691,873.289 360.43,814.391 c 0,0 -309.2269,377.939 -240.512,1089.669" /><path
         id="path22"
         style="fill:#ed1d24;fill-opacity:1;fill-rule:nonzero;stroke:none"
         d="m 2186.38,3165.54 -83.45,-112.9 265.06,-451.57 485.94,-88.36 112.89,83.45 c 0,0 -294.51,427.04 -780.44,569.38" /><path
         id="path24"
         style="fill:#ed1d24;fill-opacity:1;fill-rule:nonzero;stroke:none"
         d="m 3251.51,1835.35 -103.08,4.91 -377.95,-431.95 98.17,-554.65 127.62,-34.371 c 0,0 299.41,338.691 255.24,1016.061" /><path
         id="path26"
         style="fill:#ed1d24;fill-opacity:1;fill-rule:nonzero;stroke:none"
         d="M 2250.19,205.738 V 421.711 L 1675.89,598.422 1077.07,353 V 215.551 c 0,0 549.75,-265.051 1173.12,-9.813" /><path
         id="path28"
         style="fill:#ed1d24;fill-opacity:1;fill-rule:nonzero;stroke:none"
         d="m 1214.5,1560.47 181.61,471.22 554.66,4.9 196.34,-495.75 -451.58,-397.58 -481.03,417.21" /><path
         id="path30"
         style="fill:#ffffff;fill-opacity:1;fill-rule:nonzero;stroke:none"
         d="m 453.691,2655.06 107.985,-112.9 -343.59,-549.74 -78.535,-4.91 c 0,0 19.633,382.87 314.14,667.55" /><path
         id="path32"
         style="fill:#ffffff;fill-opacity:1;fill-rule:nonzero;stroke:none"
         d="m 3006.08,2517.63 -88.35,-68.73 245.42,-510.47 68.73,-9.82 c 0,0 -14.73,338.69 -225.8,589.02" /><path
         id="path34"
         style="fill:#ffffff;fill-opacity:1;fill-rule:nonzero;stroke:none"
         d="m 2333.63,239.73 4.91,181.981 490.84,343.59 137.44,-19.629 c 0,0 -171.8,-304.32 -633.19,-505.942" /><path
         id="path36"
         style="fill:#ffffff;fill-opacity:1;fill-rule:nonzero;stroke:none"
         d="m 418.727,738.949 66.664,46.672 513.336,-403.34 -3.336,-146.66 c 0,0 -453.328,250 -576.664,503.328" /><path
         id="path38"
         style="fill:#ffffff;fill-opacity:1;fill-rule:nonzero;stroke:none"
         d="m 1361.01,3002.29 666.67,3.33 279.99,-436.66 -343.33,-446.67 -543.33,-13.33 -326.67,470 266.67,423.33" /><path
         id="path40"
         style="fill:#ffffff;fill-opacity:1;fill-rule:nonzero;stroke:none"
         d="m 2355.39,2505.62 486.67,-60 263.33,-546.66 -386.67,-433.34 -493.33,93.34 -206.66,506.66 336.66,440" /><path
         id="path42"
         style="fill:#ffffff;fill-opacity:1;fill-rule:nonzero;stroke:none"
         d="m 278.727,1952.29 346.664,556.67 389.999,26.66 333.34,-466.66 -206.67,-490 -510.005,-123.34 -353.328,496.67" /><path
         id="path44"
         style="fill:#ffffff;fill-opacity:1;fill-rule:nonzero;stroke:none"
         d="m 628.727,1368.96 526.663,143.33 493.34,-450 -6.67,-400.001 -583.33,-226.668 -533.339,420 103.336,513.339" /><path
         id="path46"
         style="fill:#ffffff;fill-opacity:1;fill-rule:nonzero;stroke:none"
         d="m 1728.73,1058.95 486.66,423.34 476.67,-103.33 103.33,-550.011 -510,-343.328 -563.33,176.668 6.67,396.661" /><path
         id="path48"
         style="fill:#292b6b;fill-opacity:1;fill-rule:nonzero;stroke:none"
         d="m 900,737.949 -84.52,21.121 97.219,389.15 c -40.476,-27.64 -32.527,-20.84 -78.094,-27.15 l 23.415,93.71 c 25.89,3.65 3.558,-9.17 34.933,9.08 31.36,18.25 55.942,42.17 73.742,71.72 L 1035.05,1278.49 900,737.949" /><path
         id="path50"
         style="fill:#292b6b;fill-opacity:1;fill-rule:nonzero;stroke:none"
         d="m 1304.57,1009.28 c 6.91,37.3 5.19,67.26 -5.18,89.89 -10.38,22.61 -24.5,35.58 -42.37,38.89 -17.34,3.23 -33.28,-2.36 -47.85,-16.71 -14.59,-14.36 -25.42,-40.73 -32.54,-79.11 -7.13,-38.39 -6.05,-67.67 3.23,-87.842 9.29,-20.187 23.13,-31.976 41.55,-35.386 17.6,-3.274 34.28,2.437 50.05,17.136 15.75,14.692 26.78,39.071 33.11,73.132 z m -258.24,-209.499 92.85,-4.633 c -3.86,-44.937 9.66,-70.277 40.53,-76 20.86,-3.867 39.96,3.942 57.31,23.481 17.35,19.543 34.16,62.609 50.45,129.23 -14.71,-14.339 -30.16,-24.39 -46.34,-30.058 -16.18,-5.68 -33.21,-6.86 -51.09,-3.539 -37.11,6.879 -66.65,30.679 -88.65,71.437 -22,40.75 -27.55,90.471 -16.65,149.181 11.64,62.77 35.83,109.36 72.57,139.76 36.74,30.42 77.18,41.52 121.34,33.32 49.28,-9.14 85.6,-39.87 108.96,-92.19 23.35,-52.32 25.07,-132.17 5.14,-239.532 -20.27,-109.277 -51.51,-184.746 -93.7,-226.457 -42.2,-41.679 -89.85,-57.609 -142.93,-47.769 -36.83,6.84 -64.98,24.597 -84.45,53.289 -19.48,28.679 -27.92,68.847 -25.34,120.48" /><path
         id="path52"
         style="fill:#292b6b;fill-opacity:1;fill-rule:nonzero;stroke:none"
         d="M 2320.21,802.379 2336.04,702.07 2025.5,653.031 c -2.65,38.418 1.85,76.059 13.49,112.93 11.64,36.871 37.68,86.961 78.1,150.289 31.95,50.43 51.18,84.17 57.69,101.2 9.72,24.89 12.78,48.85 9.14,71.89 -3.88,24.59 -12.34,42.27 -25.33,53.07 -12.99,10.82 -28.47,14.8 -46.4,11.97 -39.2,-6.19 -55.72,-38.87 -49.52,-98.03 l -89.71,-3.13 c -3.67,58.25 5.61,102.91 27.89,133.99 22.27,31.1 55.44,50.12 99.51,57.08 48.42,7.64 87.43,-2.33 116.99,-29.95 29.57,-27.6 47.57,-61.74 54,-102.46 3.64,-23.03 4.01,-45.88 1.15,-68.48 -2.86,-22.63 -9.09,-45.931 -18.7,-69.88 -9.62,-23.938 -26.98,-55.348 -52.09,-94.231 -23.39,-36.48 -38.06,-60.437 -43.99,-71.867 -5.95,-11.442 -10.45,-22.371 -13.53,-32.832 l 176.02,27.789" /><path
         id="path54"
         style="fill:#292b6b;fill-opacity:1;fill-rule:nonzero;stroke:none"
         d="m 2479.82,924.051 c 9.3,-34.442 22.82,-59.031 40.53,-73.789 17.75,-14.742 34.83,-19.903 51.26,-15.461 15.92,4.301 27.16,15.41 33.66,33.39 6.51,17.957 5.12,44.161 -4.18,78.598 -9.63,35.68 -22.36,60.131 -38.23,73.401 -15.86,13.25 -32.25,17.61 -49.18,13.04 -16.44,-4.42 -28.27,-16.01 -35.52,-34.699 -7.24,-18.691 -6.69,-43.519 1.66,-74.48 z m 132.73,280.829 -80.01,-33.56 c -14.88,39.37 -36.66,55.2 -65.28,47.49 -18.68,-5.05 -31.44,-19.41 -38.26,-43.09 -6.84,-23.67 -3.55,-66.84 9.9,-129.52 6.54,18.27 15.34,33.04 26.45,44.3 11.1,11.23 24.61,19 40.53,23.31 35.04,9.44 70.03,1.38 104.92,-24.17 34.91,-25.57 59.63,-65.37 74.22,-119.429 15.52,-57.52 13.9,-106.352 -4.85,-146.52 -18.75,-40.171 -48.51,-65.761 -89.26,-76.75 -44.74,-12.07 -87.57,-0.8 -128.49,33.789 -40.91,34.602 -74.65,101.141 -101.21,199.59 -26.96,99.95 -31.08,176 -12.35,228.15 18.72,52.15 52.07,84.68 100.03,97.62 33.05,8.92 63.96,5.25 92.74,-11.02 28.78,-16.26 52.42,-46.34 70.92,-90.19" /><path
         id="path56"
         style="fill:#292b6b;fill-opacity:1;fill-rule:nonzero;stroke:none"
         d="m 899.859,1995.56 -140.918,226.37 2.778,-273.49 z m 263.471,-202.75 -110.53,-37.68 -87.671,137.58 -202.156,-68.93 1.699,-166.9 -108.379,-36.95 4.797,741.15 107.98,36.82 394.26,-605.09" /><path
         id="path58"
         style="fill:#292b6b;fill-opacity:1;fill-rule:nonzero;stroke:none"
         d="m 1537.71,2189.96 3.62,705.91 331.14,1.86 -0.62,-119.41 -216.26,-1.32 -0.85,-167.09 209.23,1.14 -0.62,-119.41 -209.22,-1.14 -1.54,-299.99 -114.88,-0.55" /><path
         id="path60"
         style="fill:#292b6b;fill-opacity:1;fill-rule:nonzero;stroke:none"
         d="m 2684.87,1864.18 98.95,-40.47 c -18.46,-75.69 -46.61,-131.22 -84.4,-166.54 -37.79,-35.34 -83.34,-53.38 -136.66,-54.13 -67,-0.93 -120.29,26.07 -159.85,81.02 -45.52,63.45 -66.25,149.64 -62.22,258.56 4.26,115.05 31.71,205.44 82.36,271.16 44.05,57.04 101.46,86.06 172.24,87.04 57.65,0.81 105.1,-19.67 142.34,-61.48 26.56,-29.68 45.17,-74.03 55.83,-133.07 l -103.84,-33.65 c -5.24,36.42 -17.25,64.23 -36.09,83.44 -18.86,19.21 -41.56,28.62 -68.12,28.26 -37.98,-0.54 -69.66,-18.77 -94.96,-54.69 -25.3,-35.93 -39.47,-94.85 -42.53,-176.76 -3.14,-85 6.3,-145.27 28.36,-180.85 22.04,-35.55 51.73,-53.08 89.09,-52.56 27.37,0.38 51.47,12.14 72.27,35.28 20.8,23.14 36.54,59.62 47.23,109.44" /></g></g></svg>