<svg xmlns="http://www.w3.org/2000/svg" width="995.816" height="1008"><defs><clipPath id="a" clipPathUnits="userSpaceOnUse"><path d="M0 1080h1080V0H0Z"/></clipPath></defs><g clip-path="url(#a)" transform="matrix(1.33333 0 0 -1.33333 -222.093 1224)"><path d="M0 0c-201.643 0-365.69 166.057-365.69 370.167 0 204.111 164.047 370.165 365.69 370.165 201.644 0 365.693-166.054 365.693-370.165C365.693 166.057 201.644 0 0 0" style="fill:#000b8c;fill-opacity:1;fill-rule:nonzero;stroke:none" transform="translate(539.998 169.834)"/><path d="M0 0c-201.643 0-365.69 166.057-365.69 370.167 0 204.111 164.047 370.165 365.69 370.165 201.644 0 365.693-166.054 365.693-370.165C365.693 166.057 201.644 0 0 0m0 748.166c-205.911 0-373.429-169.569-373.429-377.999S-205.911-7.834 0-7.834c205.912 0 373.433 169.571 373.433 378.001S205.912 748.166 0 748.166" style="fill:#fff;fill-opacity:1;fill-rule:nonzero;stroke:none" transform="translate(539.998 169.834)"/><path d="M0 0c4.359 17.671 4.83 23.703 2.906 35.648C1.113 46.775.402 57.936 5.423 71.809c-12.247 6.624-25.541 18.702-34.658 40.628l-2.497-4.371a264 264 0 0 0-.083 6.606c0-44.784 11.261-86.955 31.067-123.766C-.78-6.647-.617-2.501 0 0" style="fill:#f98e2b;fill-opacity:1;fill-rule:nonzero;stroke:none" transform="translate(315.34 425.329)"/><path d="M0 0c8.517-32.091 25.064-46.405 38.878-52.761C18.981-35.126 7.244-8.026 5.888 24.799 3.939 72.01 21.712 96.808 22.47 97.84l8.62 11.75-.528-14.678c-.725-20.167-.352-39.663 11.606-74.112C48.217 3.37 57.434-8.509 64.816-15.857c-7.187 21.849-12.881 46.851-11.22 55.604 1.501 7.903.483 10.169-4.406 21.059-6.149 13.695-3.386 45.424 11.801 72.803 18.952 34.17 43.39 45.682 44.422 46.156l11.472 5.267-5.596-11.498c-.121-.248-12.039-24.939-14.823-48.372-2.398-20.193.16-35.507 2.416-49.017.416-2.484.821-4.919 1.191-7.327 2.111-13.765 10.891-24.746 26.354-40.194 8.217-8.21 13.837-18.804 17.352-27.084 1.494 1.507 2.953 3.055 4.506 4.497 3.349 3.252 6.869 6.306 10.458 9.272 2.813 2.284 5.636 4.456 8.629 6.552l-5.896 9.64-2.429 3.971 4.483.967 28.252 6.094-5.623 11.021-2.811 5.509 6.061-.749c1.617-.2 3.35-.362 5.032-.49a122 122 0 0 1 5.08-.276q2.537-.076 5.045-.022c.823.036 1.686.051 2.464.115.767.039 1.639.128 2.512.219.694.103 1.483.234 2.211.371.714.221 1.47.331 2.153.627q1.064.351 2.052.86c.595.273 1.152.617 1.704.965.651.411 1.279.859 1.858 1.366a19 19 0 0 1 1.722 1.68c.048.053.085.113.131.166l-3.189.865-4.879 1.322 3.26 3.98c1.293 1.58 2.619 3.431 3.813 5.234a63 63 0 0 1 3.337 5.622 46 46 0 0 1 2.631 5.863c.771 2.001 1.22 4.006 1.543 5.837l.166 1.719.033.342-.001.016-.001.091-.004.183-.009.73c.043.975-.148 1.944-.245 2.916a22.5 22.5 0 0 1-1.859 5.605c-1.797 3.511-4.556 6.683-7.858 8.449-.399.257-.822.419-1.239.596a6 6 0 0 1-1.256.45c-.435.142-.844.249-1.15.27l-.503.102c-.159.043-.53.011-.784.02-1.746.021-3.748-.404-5.516-1.066-3.601-1.321-7.365-4.155-11.823-6.179a39 39 0 0 0-3.433-1.409c-1.346-.484-2.018-.702-3.527-1.075-2.648-.693-5.562-.671-8.227.034-2.677.69-5.1 1.977-7.175 3.564-2.108 1.639-3.83 3.328-5.507 5.666l-2.223 3.097 3.504 1.712a94 94 0 0 1 5.031 2.667c1.653.943 3.271 1.933 4.784 2.983a29 29 0 0 1 2.148 1.617c.326.277.671.552.934.83l.427.412c.094.107.137.171.219.249.06.008.187.194.327.416-.53-.205-1.066-.412-1.681-.66-3.202-1.297-7.414-3.248-11.53-5.433-4.124-2.168-8.143-4.566-11.119-6.426-2.983-1.862-4.893-3.19-4.893-3.19a1.025 1.025 0 0 0-1.442.28 1.08 1.08 0 0 0 .227 1.438s1.881 1.48 4.779 3.538c2.901 2.062 6.827 4.734 10.898 7.194 4.06 2.476 8.264 4.739 11.509 6.285.723.343 1.374.643 1.984.919-.532.145-1.192.175-1.746.159l-.405-.02-.699-.122-.29-.053-.003-.001-.078-.02-.157-.041-.628-.161a39 39 0 0 1-5.107-1.885 55 55 0 0 1-2.531-1.198 52 52 0 0 1-2.428-1.3l-3.858-2.224-.885 4.374c-.2.983-.376 1.972-.46 2.972a30 30 0 0 0-.079 3.851c.127 2.296.55 4.627 1.483 6.907.48 1.133 1.043 2.267 1.855 3.308.753 1.063 1.769 2.001 2.88 2.801.6.359 1.153.704 1.843.998l1.101.393.55.172.36.07.72.14.582.098.309.046c.418.054.826.12 1.208.213 1.588.344 2.806.877 3.892 1.811 1.121.929 2.222 2.404 3.73 4.072.436.482.619.674 1.135 1.187.506.473 1.029.927 1.609 1.298a12.1 12.1 0 0 0 3.64 1.624c1.247.317 2.486.448 3.695.45a17 17 0 0 0 2.391-.176 59 59 0 0 0 4.733 2.333 51 51 0 0 0 6.12 2.214c1.057.299 2.125.575 3.227.781 1.007.215 2.459.417 3.382.477 2.259.181 4.403.112 6.538-.025 8.485-.607 16.333-2.484 23.941-2.137 1.903.038 3.774.301 5.476.58.894.194 2.096.467 2.822.669l2.827.849c1.893.544 3.723 1.262 5.571 1.922 1.816.74 3.639 1.465 5.395 2.327 1.779.814 3.501 1.742 5.187 2.714a59 59 0 0 1 4.906 3.14c1.597 1.101 3.083 2.33 4.53 3.582.698.648 1.398 1.293 2.046 1.969.617.638 1.336 1.438 1.715 1.949l6.819 9.187-1.015-11.29c-.097-1.082-.162-2.155-.399-3.256a17 17 0 0 0-.916-3.253c-.799-2.138-2.04-4.044-3.199-5.609a76 76 0 0 1-1.743-2.427l.318-.46c.999.161 2.039.081 3.061.045.932-.089 1.86-.214 2.776-.441a17 17 0 0 0 2.687-.872c.877-.352 1.716-.802 2.535-1.292.402-.268.806-.521 1.199-.827.417-.314.731-.564 1.265-1.081l2.489-2.414-2.697-2.398-3.774-3.355c-1.198-1.164-2.44-2.296-3.603-3.484-1.13-1.209-2.338-2.371-3.37-3.639-1.105-1.226-2.096-2.511-3.053-3.812-.517-.633-.894-1.327-1.341-1.99-.446-.664-.867-1.337-1.208-2.038-.781-1.368-1.369-2.795-1.893-4.23-.203-.732-.463-1.45-.634-2.188-.127-.746-.298-1.483-.406-2.232l-.177-2.273.039-2.309.241-2.338.423-2.359c.352-1.553.708-3.044 1.256-4.765a20 20 0 0 1 .775-2.251c.285-.719.516-1.466.898-2.134.649-1.399 1.456-2.702 2.333-3.952a26.3 26.3 0 0 1 3.021-3.432c1.123-1.035 2.307-2.017 3.605-2.843 1.268-.867 2.646-1.577 4.043-2.214 1.357-.619 2.966-1.161 4.167-1.433l3.14-.712-.552-3.004-.007-.038c-.235-1.675-.744-3.421-1.638-4.997s-2.13-2.929-3.464-3.967c-1.339-1.047-2.76-1.812-4.163-2.424-1.415-.622-2.782-1.055-4.207-1.426l-1.944-.488a11 11 0 0 1-1.424-.458c-.887-.385-1.655-.88-2.258-1.475-1.204-1.181-1.735-2.863-1.578-4.927.141-1.129.231-1.829.743-3.267.329-.938.894-2.16 1.466-3.263a101 101 0 0 1 3.945-6.779c1.408-2.247 2.905-4.452 4.394-6.67.722-1.128 1.405-2.289 1.975-3.548.581-1.251 1.111-2.545 1.443-4.023-1.366.603-2.51 1.41-3.585 2.274-.555.435-1.075.9-1.572 1.385-6.903-4.66-14.356-1.073-17.881 1.213-1.386-1.294-3.25-3.821-3.079-7.955.35-8.483 2.918-28.17 2.945-28.368l.651-4.967-4.721 1.391c-5.858 1.727-12.439 8.584-15.787 12.447l-.283-.241c5.857-11.167 1.874-20.595-2.785-29.324-4.425-8.29-3.715-23.699-3.708-23.853l.265-5.343-4.783 2.193c-3.574 1.638-7.164 4.895-9.768 7.619-8.357-32.369 15.633-49.975 27.899-56.657 6.229 52.44 27.546 81.459 50.388 104.334 23.316 23.349 50.887 38.746 46.793 94.672S311.61 224.793 311.61 224.793s52.881-11.736 83.63-76.283c29.283-61.468 13.739-111.365 13.739-111.365s12.957 16.199 12.549 50.634c-.35 29.504-4.443 70.567-4.373 69.587 0 0 18.615-16.722 31.729-66.271S445.173 8.03 445.173 8.03c27.505 34.295 21.08 77.511 21.08 77.511 30.722-41.985 20.228-76.976 11.641-93.643-10.039-19.705-7.458-25.376-9.232-40.38-1.787-15.105-9.739-43.036-19.309-64.201-.277-.613-.534-1.17-.802-1.757 2.787 3.811 5.663 7.536 8.492 11.226 3.652 4.799 7.052 9.719 9.773 15.017 2.776 5.251 4.803 10.863 6.572 16.655l5.148 17.617c1.832 5.908 3.855 11.876 6.903 17.536 2.982 5.634 7.265 11.009 13 14.419.905.551 1.851 1.018 2.806 1.461.023 1.409.053 2.816.053 4.231 0 143.151-115.054 259.612-256.476 259.612-137.466 0-250.005-110.042-256.192-247.671l8.573 14.876z" style="fill:#d3dde6;fill-opacity:1;fill-rule:nonzero;stroke:none" transform="translate(295.177 556.279)"/><path d="M0 0c-5.64-10.211-8.202-22.336-12.25-33.996-1.973-5.853-4.29-11.743-7.386-17.206-3.024-5.486-6.733-10.519-10.585-15.283-3.863-4.769-7.912-9.266-11.77-13.918a337 337 0 0 1-4.601-5.659c-5.939-12.231-10.39-20.229-19.686-41.906 9.071 39.729 19.196 49.621 28.77 77.163 9.575 27.542 8.95 29.703 9.346 41.744.395 12.041 3.94 25.634 7.981 31.54 0 0-13.348-5.343-21.282-29.356-7.935-24.013-17.09-44.432-29.457-56.239-12.366-11.807-25.376-21.089-41.42-58.373-6.895 26.498-6.946 40.707 4.988 58.691 11.932 17.983 25.035 29.273 29.158 41.833-18.201-17.514-31.02-22.689-51.367-35.781-20.348-13.093-52.977-48.693-48.484-96.971 0 0-4.825 26.037 3.638 50.254 6.571 18.805 20.493 35.641 35.292 48.234 3.305 20.959-.157 35.795-5.507 51.927-5.812 17.524-4.647 28.231-2.601 37.06-16.178-16.792-17.241-29.954-20.851-52.786s-15.077-36.97-35.532-53.939c-19.915-16.52-35.91-47.349-42.943-66.374.661-4.122.929-8.59.717-13.531-6.476 33.621-24.47 41.35-39.629 60.948s-17.765 44.906-15.298 65.778c2.465 20.872 6.7 29.519-2.551 48.794.389-22.394-12.281-42.574-23.233-62.703s-8.526-39.98-4.439-61.127 23.887-49.3 23.887-49.3-10.697 8.741-23.657 17.771c-12.959 9.03-19.914 8.853-31.781 17.381s-20.029 24.589-33.877 29.21c17.71-20.312 12.192-35.844 15.352-54.024-1.327 1.726-2.241 4.092-3.016 6.935-1.985 2.15-6.644 6.361-16.218 11.401-13.961 7.349-25.913 17.924-32.737 34.04-6.825 16.115-7.817 30.422-23.277 51.374-3.143-8.192 2.978-19.114 1.692-34.502-1.511-18.095-8.548-18.856-.004-56.169 46.505-66.37 123.001-109.766 209.326-109.766 140.023 0 254.178 114.174 256.423 255.378a262 262 0 0 0-.178-6.351C6.335 9.382 2.772 4.98 0 0" style="fill:#e53e30;fill-opacity:1;fill-rule:nonzero;stroke:none" transform="translate(785.291 517.218)"/><path d="M0 0a141 141 0 0 1-7.003-5.044C-5.23 9.329-8.939 27.552-13.87 50.533c-5.637 26.276 1.373 44.603 1.373 44.603s-22.586-10.771-30.895-36.53c-6.559-20.333-3.559-37.042-13.694-55.771s-24.134-20.4-40.956-41.045c-14.771-18.127-22.716-41.438-24.434-46.857-4.221 12.342-12.548 21.505-22.635 31.523-15.322 15.218-26.414 38.536-24.375 59.938 2.039 21.4 16.428 49.087-13.405 77.626 1.685-27.825-5.347-45.606-15.911-62.166s-16.253-26.682-15.739-52.736c.245-12.38 4.47-25.771 8.836-36.452-.222.194-.428.374-.692.601l-4.871 4.624c-1.634 1.53-3.279 3.052-4.705 4.782l-4.453 5.021-1.112 1.257-.995 1.35-1.993 2.698c-1.283 1.829-2.763 3.527-3.889 5.461l-3.482 5.732c-1.251 1.861-2.07 3.959-3.097 5.942-.944 2.025-2.075 3.969-2.78 6.098l-2.388 6.267c-.672 2.131-1.225 4.3-1.847 6.447-.69 2.133-1.036 4.347-1.451 6.544-.407 2.199-.895 4.386-1.031 6.624-.185 2.228-.522 4.447-.589 6.681l-.101 6.707c.093 2.232.29 4.46.425 6.69.104 2.236.603 4.423.881 6.637.247 2.225.869 4.37 1.349 6.545.438 2.21 1.131 4.268 1.801 6.336.35 1.042.611 2.065 1.03 3.125l1.321 3.197.661 1.598.331.799.082.2.005.012c.005.011.009.018.004.007l.024.047.189.371 1.512 2.971c.951 2.01 2.123 3.907 3.266 5.82 1.087 1.946 2.404 3.754 3.645 5.608 2.529 3.68 5.332 7.176 8.237 10.582 1.473 1.686 3.003 3.325 4.519 4.974 1.59 1.58 3.112 3.229 4.756 4.755 3.217 3.125 6.609 6.066 10.061 8.92 3.455 2.812 7.1 5.564 10.691 7.935l2.693 1.778-1.672 2.735-5.115 8.362 27.9 6.018 4.13.891-1.952 3.825-4.862 9.528c1.585-.112 3.173-.205 4.768-.259q2.689-.081 5.407-.023c.917.04 1.797.054 2.756.13.973.056 1.833.146 2.693.235a51 51 0 0 1 2.944.489c.956.277 1.936.449 2.867.832q1.424.477 2.774 1.164c.864.405 1.685.909 2.492 1.424a20.4 20.4 0 0 1 2.417 1.806 25 25 0 0 1 2.296 2.245 25 25 0 0 1 1.9 2.395c.595.897 1.082 1.641 1.647 2.858l1.613 3.473-3.735 1.012-2.94.798c.414.593.832 1.179 1.239 1.791a70 70 0 0 1 3.668 6.182 53 53 0 0 1 2.993 6.681c.873 2.291 1.499 4.782 1.916 7.487l.165 1.719.042.429.015.225v.187l-.002.249-.008.997c.038 1.334-.185 2.645-.341 3.958a29 29 0 0 1-2.462 7.445c-1.165 2.332-2.666 4.469-4.409 6.393a23.4 23.4 0 0 1-6.153 4.87c-.566.349-1.194.612-1.82.876a11 11 0 0 1-1.935.69c-.645.202-1.326.387-2.148.477l-1.173.148c-.398.045-.596.012-.904.021-2.768-.001-5.248-.571-7.712-1.468-2.433-.901-4.565-2.14-6.533-3.275-1.973-1.147-3.824-2.212-5.726-3.087a33 33 0 0 0-2.84-1.17c-.771-.304-2.264-.763-2.948-.906-1.725-.456-3.469-.433-5.176.012-1.706.439-3.383 1.294-4.916 2.472a19 19 0 0 0-1.489 1.27c.537.293 1.074.581 1.612.886 1.776 1.014 3.532 2.085 5.269 3.289a35 35 0 0 1 2.59 1.954c.429.364.857.708 1.285 1.145l.639.625c.239.26.506.586.747.886.581.707.713 1.027 1.001 1.472l.167.307.025.058.049.116.098.233.193.467c.123.316.261.61.344.973a9.2 9.2 0 0 1 .234 4.641c-.346 1.669-1.327 3.271-2.543 4.29-1.21 1.045-2.559 1.656-3.88 2.026-1.346.383-2.603.447-3.959.392l-1.065-.099-.754-.132-.362-.066-.55-.132-.801-.206a45 45 0 0 1-5.972-2.196c-.425-.186-.836-.396-1.254-.593.003.23-.019.463-.009.693.089 1.682.415 3.328.994 4.729.295.69.621 1.358 1.039 1.87.384.564.861.949 1.328 1.318.248.126.533.314.741.401q.144.041.278.111l.141.078.36.07.72.14.158.03.399.058c.552.073 1.11.164 1.679.298 2.23.451 4.734 1.503 6.632 3.166 1.897 1.624 3.147 3.38 4.304 4.621.219.255.723.775.909.954.22.193.432.396.687.55a5.8 5.8 0 0 0 1.707.756 8.8 8.8 0 0 0 2.114.249c.698.013 1.621-.104 2.104-.216l1.314-.304 1.124.654c1.537.894 3.349 1.789 5.086 2.541a44 44 0 0 0 5.356 1.94c.9.255 1.802.489 2.699.655.983.189 1.548.292 2.65.377 1.792.15 3.723.096 5.641-.029 7.721-.509 15.894-2.498 24.598-2.147 2.162.052 4.331.324 6.633.733 1.09.242 1.875.409 3.111.741l3.018.905c2.016.584 3.987 1.35 5.968 2.062 1.957.794 3.918 1.577 5.825 2.512 1.925.882 3.802 1.891 5.649 2.956 1.175.675 2.325 1.4 3.463 2.149-.225-.361-.466-.684-.675-1.067a20.4 20.4 0 0 1-1.36-3.034c-.387-1.053-.635-2.122-.875-3.194l-.406-1.811c-8.286-7.934-9.633-16.825-9.688-17.217l3.178-.469c.012.08 1.13 7.426 7.745 14.331l3.647 1.544c1.231.522 2.469.995 3.721 1.238.625.132 1.248.239 1.869.264.624.086 1.235.018 1.849.01.607-.064 1.211-.138 1.8-.287.491-.119.97-.285 1.441-.467l-.591-.525c-1.273-1.234-2.574-2.423-3.822-3.696-1.225-1.307-2.501-2.539-3.655-3.947-1.204-1.339-2.325-2.785-3.415-4.27-.573-.709-1.041-1.536-1.557-2.308-.516-.774-1.01-1.569-1.436-2.426-.932-1.644-1.686-3.431-2.342-5.255-.274-.939-.593-1.864-.814-2.818-.179-.966-.389-1.93-.526-2.902-.08-.976-.181-1.956-.229-2.933l.05-2.914.294-2.858.496-2.782c.409-1.842.888-3.733 1.399-5.326l.408-1.327.511-1.351c.352-.897.654-1.813 1.124-2.663.817-1.753 1.833-3.408 2.949-4.986a33 33 0 0 1 3.815-4.335c1.406-1.303 2.891-2.52 4.49-3.544 1.573-1.068 3.254-1.941 4.973-2.721a37 37 0 0 1 1.985-.802c-.447-.756-1.034-1.416-1.796-2.014-1.525-1.209-3.749-2.044-6.054-2.725l-1.903-.532a17 17 0 0 1-2.339-.835c-1.538-.699-3.032-1.708-4.255-3.073a11.6 11.6 0 0 1-2.607-4.831 13.35 13.35 0 0 1-.273-5.241c.23-1.55.835-3.481 1.327-4.55.675-1.568 1.355-2.743 2.1-3.99 1.468-2.43 3.102-4.64 4.755-6.819.724-.944 1.485-1.842 2.221-2.769-5.163-2.612-11.498 2.639-11.557 2.689l-1.613 1.381-1.882-.955c-.348-.176-8.503-4.441-8.06-15.169.236-5.719 1.39-15.931 2.196-22.58-4.012 3.126-8.113 7.841-9.796 9.992l-2.05 2.622-9.542-8.135 1.575-2.443c5.988-9.285 2.975-16.563-1.587-25.112-3.328-6.236-4.257-15.152-4.479-21.088-2.94 2.526-5.619 5.654-6.719 7.082l-3.579 4.644-1.966-5.545c-18.433-52.01 37.483-73.335 38.046-73.544 0 0 9.447 57.698 39.418 92.823 29.971 35.126 55.859 44.109 61.298 89.297 7.444 61.848-29.985 112.228-29.985 112.228s44.219-22.406 62.048-84.527c18.777-65.635-3.666-92.825-12.336-122.822 0 0 26.212 11.569 39.352 47.892s5.681 76.878 5.681 76.878 42.054-82.854-14.874-148.243c1.384-1.517 3.141.226 5.002 1.095 10.494 4.902 44.14 22.064 53.663 74.134 0 0 12.182-17.186-2.439-58.912-19.09-7.993-25.31-28.212-34.233-49.571C62.625.946 59.507-1.37 43.602-18.287S18.406-56.632 18.406-56.632C15.856-33.78 23.67-21.979 33.322-9.283c9.652 12.697 22.41 27.981 27.421 55.791C44.757 25.077 19.02 12.81 0 0" style="fill:#f98e2b;fill-opacity:1;fill-rule:nonzero;stroke:none" transform="translate(659.012 471.767)"/><path d="M0 0c5.635-11.776 6.952-22.957 8.873-30.952-3.903 6.385-9.395 8.382-20.908 17.61C-25.329-2.685-33.812 8.169-35.633 19.846c-1.821 11.676-4.553 19.489-12.2 29.558-6.969 9.178-12.719 16.663-15.617 30.241 14.612-7.31 27.288-7.076 28.822-7.013l.152.007 6.895.477 8.504 1.237-13.852 6.18c-29.424 13.37-47.273 44.606-48.907 84.178-.903 21.863 2.761 38.605 6.669 49.906.714-15.288 3.585-32.644 12.153-57.327 12.586-36.258 37.576-50.621 38.633-51.213l11.054-6.205-4.725 11.934c-9.994 25.244-17.618 58.425-16.233 65.721 2.05 10.795-.032 15.43-5.061 26.629-4.443 9.897-2.921 38.548 11.454 64.464 9.404 16.953 20.338 27.907 28.442 34.413-3.722-9.826-8.093-23.552-9.717-37.21-2.556-21.522.119-37.536 2.48-51.663.407-2.443.807-4.837 1.171-7.205 2.748-17.928 14.738-31.14 28.951-45.34 8.493-8.485 13.972-20.29 16.928-28.06-2.489-2.987-4.912-6.038-7.129-9.262-1.316-1.963-2.702-3.875-3.867-5.949-1.217-2.036-2.459-4.056-3.486-6.215l-1.619-3.187-.202-.398-.148-.327-.082-.2-.331-.799-.66-1.598-1.322-3.196c-.428-1.083-.767-2.299-1.152-3.444-.761-2.322-1.527-4.647-1.994-6.98-.519-2.336-1.175-4.646-1.448-7.028-.304-2.372-.825-4.721-.944-7.112-.149-2.388-.355-4.774-.452-7.163l.106-7.176c.075-2.39.425-4.763.628-7.145.154-2.392.666-4.731 1.1-7.081.444-2.348.823-4.712 1.551-6.99.66-2.294 1.257-4.609 1.976-6.882l2.543-6.682c.761-2.268 1.948-4.337 2.955-6.49 1.089-2.11 1.977-4.338 3.293-6.314l3.694-6.078c1.2-2.048 2.748-3.843 4.107-5.775l2.108-2.849 1.055-1.423 1.166-1.325 4.684-5.283c1.507-1.818 3.224-3.413 4.933-5.017l5.103-4.839c2.807-2.423 7.135-5.596 10.618-8.279 2.38-4.751 4.092-7.656 4.092-7.656S58.235-22.465 45.4-16.436 25.566-3.044 15.77 7.21-4.711 23.309-22.713 24.752c0 0 14.506-7.6 22.713-24.752" style="fill:#f98e2b;fill-opacity:1;fill-rule:nonzero;stroke:none" transform="translate(391.884 416.738)"/><path d="M0 0a36 36 0 0 1 2.976.212C-4.695.307-11.953 1.93-18.848 2.384c-1.918.126-3.848.179-5.641.029a17 17 0 0 1-1.684-.202c.526-.02 1.048-.03 1.575-.064C-16.877 1.638-8.703-.351 0 0" style="fill:#fff;fill-opacity:1;fill-rule:nonzero;stroke:none" transform="translate(533.101 714.448)"/><path d="M0 0c18.778-65.635-3.759-93.527-12.429-123.524 0 0 4.226.192 5.844.94C2.331-93.074 24.267-64.484 5.75.237c-17.829 62.121-62.047 84.528-62.047 84.528s1.845-2.488 4.629-7.019C-37.482 67.117-12.382 43.144 0 0" style="fill:#fff;fill-opacity:1;fill-rule:nonzero;stroke:none" transform="translate(686.063 675.94)"/><path d="M0 0s1.599.553 4.267 1.863l-.761.833c56.929 65.389 14.875 148.243 14.875 148.243s1.5-8.19 1.968-20.488C29.065 101.824 34.708 50.093 0 0" style="fill:#fff;fill-opacity:1;fill-rule:nonzero;stroke:none" transform="translate(706.13 527.186)"/><path d="m0 0-.754-.132-.363-.066-.549-.131-.801-.207c-.447-.128-.868-.288-1.304-.428-.066-.476-.155-.944-.181-1.431-.01-.23.012-.462.009-.693.418.198.829.407 1.254.594A45 45 0 0 0 3.283-.299l.734.19C3.039.065 2.075.141 1.064.1Z" style="fill:#fff;fill-opacity:1;fill-rule:nonzero;stroke:none" transform="translate(468.041 694.21)"/><path d="M0 0c-2.768-.001-5.248-.571-7.712-1.469-2.433-.901-4.565-2.139-6.533-3.274-1.972-1.147-3.824-2.212-5.725-3.087A33 33 0 0 0-22.81-9a26 26 0 0 0-2.116-.691c1.625-.382 3.279-.411 4.917.022.685.143 2.178.602 2.949.907.91.317 1.898.735 2.84 1.169 1.901.875 3.753 1.94 5.726 3.087 1.968 1.135 4.1 2.374 6.532 3.275C-.697-.77.574-.4 1.884-.145l-.98.124C.506.024.308-.01 0 0" style="fill:#fff;fill-opacity:1;fill-rule:nonzero;stroke:none" transform="translate(502.575 676.702)"/><path d="m0 0-.59-.525c-1.273-1.234-2.575-2.423-3.823-3.696-1.225-1.306-2.501-2.539-3.655-3.947-1.204-1.339-2.325-2.785-3.415-4.27-.572-.709-1.041-1.536-1.557-2.308-.516-.774-1.01-1.569-1.435-2.426-.933-1.644-1.687-3.431-2.343-5.255-.273-.939-.592-1.864-.814-2.818-.178-.966-.389-1.93-.526-2.902-.08-.976-.181-1.956-.229-2.932l.05-2.915.294-2.858.497-2.782c.409-1.842.887-3.733 1.398-5.326l.408-1.326.511-1.352c.352-.897.655-1.812 1.124-2.663.817-1.753 1.833-3.408 2.949-4.986a33 33 0 0 1 3.815-4.335c1.406-1.303 2.891-2.52 4.49-3.544 1.574-1.068 3.255-1.941 4.973-2.721a37 37 0 0 1 1.985-.802c-.447-.756-1.034-1.415-1.796-2.014-1.525-1.209-3.749-2.044-6.054-2.724l-1.903-.533a17 17 0 0 1-2.339-.835c-1.538-.699-3.031-1.708-4.255-3.073a11.6 11.6 0 0 1-2.607-4.831 13.4 13.4 0 0 1-.273-5.241c.23-1.55.835-3.48 1.327-4.55.675-1.568 1.355-2.743 2.1-3.989 1.468-2.431 3.102-4.641 4.755-6.82.724-.944 1.485-1.842 2.221-2.769-.062-.032-.128-.032-.19-.061 1.881-.551 3.993-.687 5.94.298-.735.927-1.497 1.825-2.221 2.769-1.653 2.18-3.287 4.389-4.754 6.82-.745 1.247-1.426 2.422-2.101 3.989-.492 1.07-1.097 3-1.327 4.55a13.4 13.4 0 0 0 .274 5.242 11.6 11.6 0 0 0 2.607 4.83c1.223 1.366 2.716 2.374 4.254 3.073.773.333 1.553.626 2.339.836l1.903.532c2.306.68 4.529 1.516 6.055 2.724.761.599 1.348 1.259 1.795 2.014a38 38 0 0 0-1.985.802c-1.718.78-3.399 1.654-4.973 2.721-1.599 1.024-3.083 2.241-4.49 3.545a33 33 0 0 0-3.815 4.334c-1.116 1.579-2.131 3.233-2.949 4.987-.469.85-.772 1.766-1.123 2.662l-.512 1.352-.407 1.326c-.511 1.594-.99 3.485-1.399 5.327l-.497 2.781-.294 2.859-.05 2.914c.048.976.149 1.956.229 2.933.137.972.348 1.935.526 2.901.222.955.541 1.879.814 2.818.656 1.825 1.411 3.612 2.343 5.256.426.857.919 1.651 1.435 2.426.517.772.985 1.598 1.557 2.308 1.09 1.484 2.212 2.93 3.415 4.269C-1.164-6.523.112-5.29 1.337-3.983 2.585-2.71 3.887-1.521 5.16-.288l.59.525c-.471.183-.949.349-1.44.467-.589.15-1.193.224-1.801.287-.613.008-1.225.077-1.848-.009C.04.956-.584.849-1.208.717-1.43.674-1.649.592-1.87.535c.143-.028.289-.032.429-.068C-.949.348-.471.182 0 0" style="fill:#fff;fill-opacity:1;fill-rule:nonzero;stroke:none" transform="translate(579.014 716.347)"/><path d="m0 0-1.881-.955c-.349-.177-8.503-4.441-8.06-15.17.168-4.087.806-10.459 1.451-16.196 1.885-2.052 4.197-4.356 6.495-6.146-.807 6.649-1.96 16.861-2.196 22.58C-4.515-8.041-.258-3.681 2.199-1.82c-.333.243-.575.43-.585.439z" style="fill:#fff;fill-opacity:1;fill-rule:nonzero;stroke:none" transform="translate(561.127 616.35)"/><path d="m0 0-1.966-5.545C-20.399-57.555 35.517-78.88 36.08-79.089c0 0 .154.937.481 2.63C22.964-69.6-11.204-47.599 3.785-5.308l.101.287c-.092.115-.23.278-.307.378z" style="fill:#fff;fill-opacity:1;fill-rule:nonzero;stroke:none" transform="translate(517.204 545.207)"/><path d="M0 0c-8.286-7.934-9.633-16.824-9.689-17.217l3.179-.468c.012.08 1.13 7.426 7.745 14.33l1.935.82c.78.927 1.623 1.856 2.58 2.772l.406 1.812c.24 1.072.488 2.141.875 3.193a20 20 0 0 0 1.36 3.034c.209.384.45.706.675 1.068a67 67 0 0 0-3.463-2.15C4.181 6.375 2.719 5.64 1.254 4.919.885 3.894.639 2.854.406 1.812Z" style="fill:#fff;fill-opacity:1;fill-rule:nonzero;stroke:none" transform="translate(563.452 717.4)"/><path d="M0 0a137 137 0 0 0-2.206-9.901C-.255-19.022.299-34.927-8.189-59.15c-19.09-7.992-25.309-28.211-34.233-49.57-9.992-23.916-13.11-26.231-29.015-43.148-8.813-9.374-15.584-20.12-19.88-27.85a72.4 72.4 0 0 1 .434-10.258s9.292 21.427 25.196 38.345 19.023 19.233 29.015 43.148c8.924 21.359 15.143 41.578 34.234 49.571C12.183-17.186 0 0 0 0" style="fill:#fff;fill-opacity:1;fill-rule:nonzero;stroke:none" transform="translate(768.301 605.111)"/><path d="M0 0c-.313-.211-.631-.465-.945-.68-.073-1.398-.144-2.796-.308-4.127A141 141 0 0 0 5.75.238c16.217 10.922 37.298 21.47 53.074 37.62a114 114 0 0 1 1.919 8.65C44.757 25.078 19.02 12.81 0 0" style="fill:#fff;fill-opacity:1;fill-rule:nonzero;stroke:none" transform="translate(653.262 471.53)"/><path d="M0 0c-6.559-20.332-3.559-37.041-13.694-55.77s-24.134-20.4-40.955-41.045c-10.94-13.426-18.126-29.677-21.821-39.415 1.191-2.3 2.27-4.672 3.136-7.205 1.719 5.418 9.664 28.73 24.435 46.857C-32.077-75.933-18.08-74.262-7.944-55.533S-.809-20.095 5.75.237c5.348 16.579 16.586 26.919 23.933 32.206.664 2.62 1.212 4.087 1.212 4.087S8.309 25.76 0 0" style="fill:#fff;fill-opacity:1;fill-rule:nonzero;stroke:none" transform="translate(609.87 530.135)"/><path d="M0 0c-10.564-16.56-16.253-26.682-15.739-52.736.18-9.104 2.518-18.746 5.477-27.464a72 72 0 0 1 3.546-3.526l4.871-4.623.692-.601c-4.366 10.68-8.591 24.071-8.836 36.451C-10.503-26.444-4.813-16.323 5.75.237c9.694 15.197 16.392 31.444 16.132 55.514a76 76 0 0 1-5.971 6.415C17.595 34.341 10.564 16.56 0 0" style="fill:#fff;fill-opacity:1;fill-rule:nonzero;stroke:none" transform="translate(454.46 493.384)"/><path d="m0 0-9.542-8.135 1.575-2.442c5.988-9.286 2.975-16.564-1.587-25.113-2.385-4.468-3.526-10.299-4.07-15.437 1.352-1.573 3.266-3.631 5.341-5.414.222 5.936 1.151 14.852 4.479 21.089C.758-26.904 3.771-19.626-2.217-10.34l-1.575 2.443 5.983 5.1-.141.175Z" style="fill:#fff;fill-opacity:1;fill-rule:nonzero;stroke:none" transform="translate(541.536 590.26)"/><path d="M0 0c.476.027.882.075 1.318.115C.072.108-1.175.094-2.412.131-4.007.185-5.595.278-7.181.39l.256-.502c1.386-.025 2.772-.048 4.169-.017C-1.839-.09-.959-.076 0 0" style="fill:#fff;fill-opacity:1;fill-rule:nonzero;stroke:none" transform="translate(496.924 607.145)"/><path d="M0 0c-3.483 2.684-7.812 5.857-10.618 8.28l-5.103 4.838c-1.709 1.604-3.426 3.2-4.933 5.017l-4.684 5.283-1.166 1.325-1.055 1.423-2.108 2.849c-1.359 1.933-2.907 3.727-4.107 5.776l-3.694 6.077c-1.316 1.976-2.204 4.204-3.293 6.314-1.007 2.153-2.194 4.223-2.955 6.49l-2.543 6.682c-.719 2.273-1.316 4.589-1.976 6.882-.728 2.278-1.107 4.642-1.551 6.991-.435 2.35-.946 4.688-1.1 7.08-.203 2.382-.553 4.756-.628 7.145l-.106 7.176c.097 2.389.303 4.775.452 7.163.119 2.391.639 4.74.944 7.112.273 2.382.929 4.692 1.448 7.028.467 2.333 1.233 4.658 1.994 6.981.385 1.144.723 2.36 1.152 3.443l1.322 3.196.66 1.599.331.799.082.2.148.326.202.398 1.619 3.188c1.027 2.158 2.269 4.178 3.486 6.214 1.165 2.075 2.551 3.987 3.867 5.949 2.217 3.224 4.64 6.275 7.129 9.262-2.956 7.771-8.435 19.575-16.928 28.06-14.213 14.2-26.203 27.412-28.951 45.341-.364 2.367-.764 4.761-1.171 7.204-2.361 14.127-5.036 30.141-2.48 51.663 1.624 13.659 5.995 27.384 9.717 37.21-2.548-2.046-5.392-4.588-8.364-7.561-2.963-8.795-5.851-19.35-7.103-29.887-2.556-21.521.119-37.535 2.48-51.663.407-2.442.807-4.836 1.17-7.204 2.749-17.928 14.739-31.14 28.952-45.34 8.492-8.486 13.972-20.29 16.928-28.06-2.489-2.988-4.912-6.039-7.129-9.262-1.317-1.963-2.702-3.875-3.867-5.949-1.217-2.036-2.459-4.056-3.487-6.215l-1.618-3.187-.202-.398-.148-.327-.082-.2-.331-.799-.661-1.598-1.321-3.196c-.429-1.084-.767-2.3-1.153-3.444-.76-2.322-1.526-4.648-1.993-6.98-.519-2.336-1.175-4.646-1.448-7.028-.305-2.372-.825-4.721-.944-7.113-.15-2.387-.355-4.773-.452-7.162l.106-7.176c.075-2.39.425-4.763.627-7.145.155-2.392.666-4.731 1.101-7.081.443-2.348.823-4.712 1.551-6.99.66-2.294 1.256-4.61 1.976-6.882l2.542-6.682c.762-2.268 1.949-4.337 2.956-6.491 1.089-2.109 1.977-4.338 3.293-6.313l3.693-6.078c1.201-2.048 2.749-3.843 4.108-5.775l2.108-2.849 1.054-1.424 1.167-1.324 4.683-5.283c1.508-1.818 3.225-3.414 4.934-5.017l5.103-4.839C-13.562 5.619-5.524-.684-5.409-.91c5.61-3.722 9.501-6.745 9.501-6.745S2.38-4.751 0 0" style="fill:#fff;fill-opacity:1;fill-rule:nonzero;stroke:none" transform="translate(459.031 391.807)"/><path d="m0 0 11.055-6.205L9.291-1.75 5.75.237C4.693.83-20.296 15.193-32.883 51.451c-8.567 24.683-11.439 42.039-12.152 57.327-1.54-4.453-3.029-9.782-4.229-15.904 1.676-11.629 4.828-24.943 10.631-41.661C-26.046 14.955-1.057.593 0 0" style="fill:#fff;fill-opacity:1;fill-rule:nonzero;stroke:none" transform="translate(361.753 522.577)"/><path d="M0 0c3.978-8.314 5.794-16.305 7.2-23.114 3.201-2.391 5.51-4.47 7.424-7.601C12.702-22.72 11.385-11.539 5.75.237c-6.302 13.171-16.294 20.69-20.605 23.48-2.476.439-5.051.81-7.858 1.035 0 0 14.507-7.6 22.713-24.752" style="fill:#fff;fill-opacity:1;fill-rule:nonzero;stroke:none" transform="translate(386.134 416.5)"/><path d="m0 0 3.416.236c-4.488.14-14.934 1.152-26.64 7.007.232-1.083.511-2.067.777-3.077C-10.752-.224-1.451-.06-.151-.006z" style="fill:#fff;fill-opacity:1;fill-rule:nonzero;stroke:none" transform="translate(351.658 489.139)"/><path d="M0 0c4.358 17.671 4.83 23.702 2.905 35.648C1.113 46.775.402 57.936 5.423 71.809c-13.301 7.194-27.85 20.789-36.927 46.484l-3.495-6.063C-25.881 90.284-12.58 78.198-.327 71.571-5.348 57.699-4.638 46.537-2.845 35.41-.92 23.465-1.392 17.433-5.75-.238c-.617-2.5-.78-6.646-.749-9.094A261 261 0 0 1 5.469-29.348C1.796-22.665-2.623-10.635 0 0" style="fill:#fff;fill-opacity:1;fill-rule:nonzero;stroke:none" transform="translate(321.09 425.567)"/><path d="m0 0 1.003.982c5.114 5.002 5.245 13.384 2.419 18.597L.613 17.997c1.986-3.665 2.108-9.558-.832-13.501-2.586 2.839-3.968 7.225-3.985 7.274l-3.062-.979c.084-.27 2.084-6.649 6.169-9.914z" style="fill:#fff;fill-opacity:1;fill-rule:nonzero;stroke:none" transform="translate(552.673 659.896)"/><path d="m0 0 .809-.491.813.479c6.587 3.871 3.74 17.56 3.393 19.108l-3.129-.725C2.571 15.304 3.693 6.527.787 3.449-2.788 6.63-4.04 14.706-4.221 17.763l-3.205-.189C-7.394 17.02-6.563 3.981 0 0" style="fill:#fff;fill-opacity:1;fill-rule:nonzero;stroke:none" transform="translate(538.261 649.986)"/><path d="M0 0c-2.423.841-5.094 1.77-9.03 2.299l3.449 2.903-2.046 2.529-6.47-5.446a1.66 1.66 0 0 1-.5-1.78 1.615 1.615 0 0 1 1.446-1.121c2.172-.109 4-.341 5.593-.642A4.95 4.95 0 0 1-8.997-4.96c.112-2.727 2.37-4.849 5.042-4.738 2.673.11 4.748 2.41 4.635 5.137-.013.32-.061.63-.131.931 2.45-.807 5.003-1.452 8.645-1.302q.41.018.839.048l-.229 3.268C5.522-1.923 3.092-1.073 0 0" style="fill:#fff;fill-opacity:1;fill-rule:nonzero;stroke:none" transform="translate(513.199 698.805)"/><path d="M0 0c-3.744 2.914-4.611 11.097-4.617 14.224l-3.209.004c-.001-.578.09-14.191 7.34-17.748l.924-.453.791.663C7.885 2.277 5.874 12.279 3.38 16.148L.696 14.351C2.254 11.937 4.096 4.458 0 0" style="fill:#fff;fill-opacity:1;fill-rule:nonzero;stroke:none" transform="translate(556.372 641.452)"/><path d="m0 0 1.035.746c4.807 3.468 6.716 9.522 6.796 9.778l-3.062.991c-.015-.047-1.375-4.309-4.515-7.211-3.973 5.213.514 14.254.565 14.351l-2.852 1.512C-2.295 19.653-8.347 7.508-.953.858Z" style="fill:#fff;fill-opacity:1;fill-rule:nonzero;stroke:none" transform="translate(534.078 621.914)"/><path d="m0 0 1.248.576c8.204 3.78 9.591 13.515 9.645 13.927l-3.182.447c-.009-.077-1.024-7.224-6.475-10.674-2.242 5.246.204 12.587.23 12.667l-3.032 1.083c-.142-.416-3.439-10.266.81-16.856Z" style="fill:#fff;fill-opacity:1;fill-rule:nonzero;stroke:none" transform="translate(550.098 617.966)"/><path d="M0 0c-2.068 2.657-.193 9.788.718 12.294l-3.009 1.146C-2.778 12.105-6.882.279-1.011-3.398l.772-.483.802.422C6.067-.567 9.534 6.897 9.68 7.214L6.77 8.606C6.742 8.544 4.028 2.719 0 0" style="fill:#fff;fill-opacity:1;fill-rule:nonzero;stroke:none" transform="translate(540.05 608.883)"/><path d="m0 0 .859-1.557L2.304-.553c8.354 5.809 11.98 20.758 12.13 21.39l-3.12.777c-.032-.133-3.004-12.404-9.315-18.24-2.296 6.38.923 13.457.959 13.534L.059 18.322C-.131 17.915-4.555 8.264 0 0" style="fill:#fff;fill-opacity:1;fill-rule:nonzero;stroke:none" transform="translate(522.948 579.338)"/><path d="M0 0c3.788.156 6.106 1.194 6.225 1.249l-1.31 2.994c-.026-.012-2.254-.99-5.887-.985 1.82 5.775 8.4 11.163 8.473 11.221l-1.997 2.57c-.37-.3-9.074-7.413-10.055-15.126L-4.768.226l1.672-.15A24 24 0 0 1 0 0" style="fill:#fff;fill-opacity:1;fill-rule:nonzero;stroke:none" transform="translate(514.16 595.242)"/><path d="m0 0-2.849 1.513c-.037-.071-3.563-6.818-11.838-8.606.373 9.825 11.115 19.216 11.23 19.316l-2.073 2.505c-.55-.474-13.464-11.745-12.305-23.894l.16-1.666 1.628.194C-4.855-9.299-.192-.38 0 0" style="fill:#fff;fill-opacity:1;fill-rule:nonzero;stroke:none" transform="translate(514.544 578.92)"/><path d="m0 0-2.695 1.785c-3.093-4.871-8.703-11.927-11.487-12.36-.347-.058-.479.047-.551.109-1.772 1.497 2.131 9.898 6.743 16.5l-2.616 1.905c-2.695-3.856-11.104-16.761-6.173-20.928a3.68 3.68 0 0 1 2.586-.874q.246.01.499.049C-8.495-13.006-1.374-2.165 0 0" style="fill:#fff;fill-opacity:1;fill-rule:nonzero;stroke:none" transform="translate(519.104 558.888)"/><path d="M0 0c-.502.654 1.32 4.21 4.082 7.273L1.719 9.495C.06 7.66-5.147 1.405-2.529-2.015-1.723-3.068-.499-3.427.89-3.37c3.066.127 6.935 2.282 8.889 3.498L8.102 2.927C4.493.678.625-.565 0 0" style="fill:#fff;fill-opacity:1;fill-rule:nonzero;stroke:none" transform="translate(478.776 564.255)"/><path d="m0 0 1.004.982c5.113 5.002 5.244 13.384 2.418 18.597L.613 17.996c1.986-3.664 2.108-9.557-.832-13.5-2.586 2.838-3.968 7.225-3.984 7.274l-3.063-.979c.085-.27 2.084-6.649 6.169-9.914z" style="fill:#e53e30;fill-opacity:1;fill-rule:nonzero;stroke:none" transform="translate(556.011 661.157)"/><path d="m0 0 .809-.491.813.479c6.587 3.872 3.74 17.56 3.393 19.108l-3.129-.725C2.571 15.304 3.693 6.527.787 3.449c-3.576 3.182-4.828 11.257-5.008 14.313l-3.206-.188C-7.394 17.02-6.563 3.981 0 0" style="fill:#e53e30;fill-opacity:1;fill-rule:nonzero;stroke:none" transform="translate(541.6 651.247)"/><path d="M0 0c-2.423.841-5.094 1.77-9.03 2.299l3.449 2.903-2.046 2.529-6.47-5.446a1.66 1.66 0 0 1-.5-1.78 1.615 1.615 0 0 1 1.446-1.121c2.172-.109 4-.341 5.593-.641A4.96 4.96 0 0 1-8.997-4.96c.112-2.728 2.37-4.849 5.042-4.739C-1.282-9.588.793-7.288.68-4.561c-.013.32-.061.63-.131.931 2.45-.807 5.003-1.452 8.644-1.302q.411.018.84.048l-.23 3.268C5.522-1.923 3.092-1.074 0 0" style="fill:#e53e30;fill-opacity:1;fill-rule:nonzero;stroke:none" transform="translate(516.537 700.065)"/><path d="M0 0c-3.744 2.914-4.611 11.097-4.617 14.224l-3.209.003c-.001-.577.09-14.19 7.34-17.747l.924-.453.791.663C7.885 2.277 5.874 12.279 3.38 16.148L.696 14.351C2.254 11.937 4.096 4.458 0 0" style="fill:#e53e30;fill-opacity:1;fill-rule:nonzero;stroke:none" transform="translate(559.71 642.712)"/><path d="m0 0 1.035.746c4.807 3.467 6.716 9.521 6.796 9.778l-3.062.991c-.015-.048-1.375-4.309-4.515-7.211-3.973 5.213.514 14.254.565 14.351l-2.852 1.511C-2.295 19.653-8.347 7.508-.953.857Z" style="fill:#e53e30;fill-opacity:1;fill-rule:nonzero;stroke:none" transform="translate(537.416 623.175)"/><path d="m0 0 1.248.576c8.204 3.78 9.591 13.515 9.645 13.927l-3.182.447c-.009-.077-1.024-7.224-6.475-10.674-2.242 5.246.204 12.587.23 12.667l-3.032 1.083c-.142-.416-3.439-10.265.81-16.856Z" style="fill:#e53e30;fill-opacity:1;fill-rule:nonzero;stroke:none" transform="translate(553.437 619.226)"/><path d="M0 0c-2.068 2.657-.193 9.788.718 12.294l-3.01 1.146C-2.778 12.105-6.882.279-1.01-3.398l.771-.483.802.422C6.067-.567 9.534 6.897 9.68 7.214L6.77 8.606C6.742 8.543 4.028 2.719 0 0" style="fill:#e53e30;fill-opacity:1;fill-rule:nonzero;stroke:none" transform="translate(543.389 610.143)"/><path d="m0 0 .859-1.557L2.304-.553c8.354 5.809 11.98 20.758 12.13 21.391l-3.12.776c-.032-.132-3.004-12.404-9.315-18.24-2.296 6.38.923 13.457.959 13.534L.059 18.323C-.131 17.915-4.555 8.264 0 0" style="fill:#e53e30;fill-opacity:1;fill-rule:nonzero;stroke:none" transform="translate(526.287 580.599)"/><path d="M0 0c3.788.156 6.106 1.194 6.225 1.249l-1.31 2.993c-.026-.011-2.254-.989-5.887-.984 1.82 5.775 8.4 11.163 8.473 11.221l-1.996 2.57c-.371-.3-9.075-7.413-10.056-15.126L-4.768.226l1.672-.15A24 24 0 0 1 0 0" style="fill:#e53e30;fill-opacity:1;fill-rule:nonzero;stroke:none" transform="translate(517.499 596.503)"/><path d="m0 0-2.849 1.514c-.037-.072-3.563-6.819-11.838-8.607.373 9.825 11.115 19.216 11.23 19.316l-2.073 2.505c-.55-.474-13.464-11.745-12.305-23.894l.16-1.666 1.628.194C-4.855-9.299-.192-.379 0 0" style="fill:#e53e30;fill-opacity:1;fill-rule:nonzero;stroke:none" transform="translate(517.882 580.18)"/><path d="m0 0-2.695 1.785c-3.093-4.871-8.703-11.926-11.487-12.359-.347-.059-.479.046-.551.108-1.772 1.497 2.131 9.898 6.743 16.5l-2.615 1.905c-2.696-3.856-11.105-16.761-6.174-20.928a3.7 3.7 0 0 1 2.586-.874q.246.01.499.049C-8.495-13.005-1.374-2.165 0 0" style="fill:#e53e30;fill-opacity:1;fill-rule:nonzero;stroke:none" transform="translate(522.443 560.149)"/><path d="M0 0c-.502.654 1.32 4.21 4.082 7.273L1.719 9.495C.06 7.66-5.147 1.405-2.529-2.015-1.723-3.068-.499-3.427.89-3.37c3.066.127 6.935 2.282 8.889 3.498L8.102 2.927C4.493.678.625-.566 0 0" style="fill:#e53e30;fill-opacity:1;fill-rule:nonzero;stroke:none" transform="translate(482.115 565.516)"/><path d="m0 0 .151.006 6.896.477 8.504 1.238-13.852 6.18C-27.725 21.27-45.574 52.507-47.208 92.078c-.903 21.864 2.761 38.605 6.669 49.907.714-15.288 3.585-32.644 12.153-57.327C-15.8 48.399 9.189 34.037 10.246 33.444l11.055-6.205-4.725 11.935C6.582 64.417-1.042 97.599.343 104.895c2.049 10.794-.032 15.429-5.061 26.628-4.443 9.898-2.921 38.548 11.454 64.465 9.403 16.952 20.337 27.906 28.442 34.412-3.722-9.826-8.093-23.551-9.717-37.21-2.556-21.521.119-37.535 2.48-51.663.407-2.443.807-4.837 1.17-7.204 2.749-17.928 14.739-31.141 28.952-45.34 8.492-8.486 13.972-20.29 16.928-28.061-2.489-2.987-4.912-6.038-7.129-9.261-1.316-1.963-2.702-3.875-3.867-5.949-1.217-2.037-2.459-4.057-3.487-6.215L58.89 36.31l-.202-.399-.148-.326-.082-.2-.331-.799-.661-1.598-1.321-3.197c-.429-1.083-.767-2.299-1.153-3.443-.76-2.323-1.526-4.648-1.993-6.98-.519-2.336-1.175-4.647-1.448-7.028-.305-2.372-.825-4.721-.944-7.113-.15-2.387-.355-4.774-.452-7.162l.106-7.176c.075-2.39.425-4.763.627-7.145.155-2.393.666-4.731 1.101-7.081.443-2.349.823-4.713 1.551-6.991.66-2.293 1.257-4.609 1.976-6.881l2.543-6.682c.761-2.268 1.948-4.337 2.955-6.491 1.089-2.109 1.977-4.338 3.293-6.314L68-62.773c1.201-2.048 2.749-3.843 4.108-5.776l2.108-2.848 1.054-1.424 1.167-1.324 4.683-5.283c1.508-1.818 3.225-3.414 4.934-5.018l5.103-4.838c3.537-3.054 9.516-7.314 13.137-10.261l-2.399 9.553c-3.469 2.835-3.146 2.733-6.536 5.656l-4.871 4.624c-1.634 1.53-3.279 3.052-4.705 4.782l-4.453 5.021-1.112 1.257-.995 1.35-1.993 2.698c-1.283 1.829-2.763 3.526-3.889 5.461l-3.483 5.732c-1.25 1.861-2.069 3.959-3.096 5.942-.944 2.025-2.075 3.969-2.78 6.097l-2.388 6.268c-.672 2.13-1.225 4.3-1.847 6.447-.69 2.132-1.036 4.347-1.451 6.544-.407 2.199-.895 4.386-1.031 6.624-.185 2.228-.522 4.447-.589 6.681l-.101 6.707c.093 2.232.29 4.46.425 6.69.104 2.236.603 4.422.881 6.636.247 2.226.869 4.371 1.348 6.546.439 2.21 1.132 4.267 1.802 6.335.35 1.043.611 2.065 1.03 3.126l1.321 3.196.661 1.598.331.799.082.2.005.013c.005.011.009.018.004.007l.024.046.189.372 1.512 2.971c.951 2.01 2.123 3.907 3.266 5.82 1.087 1.945 2.404 3.754 3.645 5.608 2.529 3.68 5.332 7.176 8.237 10.582 1.473 1.686 3.003 3.325 4.519 4.974 1.59 1.58 3.112 3.228 4.756 4.755 3.217 3.125 6.609 6.065 10.061 8.92 3.455 2.811 7.1 5.564 10.691 7.934l2.693 1.779-1.672 2.735-5.115 8.362 27.9 6.018 4.13.891-1.952 3.824-4.862 9.529c1.585-.112 3.173-.205 4.768-.259q2.689-.081 5.406-.023c.917.039 1.798.054 2.757.129.972.056 1.833.147 2.693.236a51 51 0 0 1 2.944.489c.956.276 1.936.449 2.867.831q1.424.478 2.774 1.165c.863.404 1.683.908 2.489 1.422a20.4 20.4 0 0 1 2.419 1.807 26 26 0 0 1 2.297 2.245 25 25 0 0 1 1.9 2.396c.595.896 1.082 1.641 1.647 2.858l1.613 3.473-3.735 1.012-2.94.797c.413.594.832 1.18 1.239 1.791a70 70 0 0 1 3.668 6.183 53 53 0 0 1 2.993 6.681c.873 2.291 1.499 4.782 1.915 7.487l.166 1.718.042.43.015.225v.187l-.002.249-.008.997c.038 1.334-.185 2.645-.341 3.958a29 29 0 0 1-2.462 7.445c-1.165 2.332-2.666 4.469-4.409 6.392a23.4 23.4 0 0 1-6.153 4.871c-.566.349-1.194.612-1.82.876q-.919.429-1.935.69c-.645.202-1.326.387-2.148.477l-1.173.148c-.398.045-.596.011-.905.021-2.767-.001-5.247-.571-7.711-1.469-2.433-.901-4.565-2.139-6.533-3.274-1.973-1.147-3.824-2.212-5.726-3.087a33 33 0 0 0-2.84-1.17c-.771-.305-2.264-.764-2.948-.906-1.725-.456-3.469-.433-5.176.012-1.706.438-3.383 1.293-4.917 2.472-.501.378-1 .815-1.488 1.27.536.293 1.074.581 1.612.886 1.776 1.014 3.532 2.085 5.269 3.289.869.599 1.73 1.237 2.59 1.954.428.363.856.708 1.285 1.144l.638.626c.24.26.507.586.748.886.581.706.713 1.026 1.001 1.471l.167.307.025.059.049.115.098.233.193.467c.123.316.26.61.344.974a9.2 9.2 0 0 1 .234 4.64c-.346 1.669-1.327 3.271-2.543 4.29-1.21 1.045-2.559 1.657-3.88 2.027-1.346.383-2.603.447-3.959.392l-1.065-.099-.754-.132-.363-.067-.549-.131-.801-.207a45 45 0 0 1-5.973-2.195c-.424-.187-.835-.396-1.253-.593.003.23-.019.463-.009.692.089 1.683.415 3.329.994 4.729.294.691.621 1.359 1.039 1.87.384.565.861.95 1.328 1.318.248.127.533.314.741.402q.144.04.278.111l.141.077.36.071.72.139.157.031.4.058a17 17 0 0 1 1.679.297c2.23.451 4.734 1.504 6.632 3.166 1.897 1.624 3.147 3.381 4.304 4.621.219.256.723.776.908.955.221.193.433.396.688.549a5.7 5.7 0 0 0 1.707.757 8.8 8.8 0 0 0 2.114.248c.698.014 1.621-.103 2.104-.215l1.314-.304 1.124.654c1.537.894 3.349 1.788 5.086 2.541a44 44 0 0 0 5.356 1.94c.9.255 1.802.488 2.699.655.983.189 1.548.291 2.65.376 1.792.15 3.722.097 5.641-.028 7.721-.509 15.894-2.498 24.598-2.147 2.162.052 4.331.324 6.633.733 1.09.241 1.875.409 3.111.741l3.018.905c2.016.583 3.987 1.35 5.968 2.061 1.957.795 3.918 1.578 5.825 2.512 1.925.883 3.802 1.892 5.649 2.956 1.175.675 2.325 1.4 3.463 2.15-.224-.362-.466-.684-.675-1.068a20 20 0 0 1-1.36-3.034c-.387-1.052-.636-2.121-.875-3.193l-.406-1.812c-8.286-7.934-9.633-16.824-9.688-17.216l3.178-.469c.012.08 1.13 7.426 7.745 14.33l3.647 1.545c1.231.521 2.469.995 3.721 1.238.625.132 1.248.239 1.869.264.624.086 1.235.017 1.849.009.607-.063 1.211-.137 1.8-.286.491-.119.97-.285 1.441-.467l-.591-.525c-1.273-1.234-2.575-2.423-3.822-3.696-1.225-1.307-2.501-2.54-3.655-3.947-1.204-1.34-2.325-2.785-3.415-4.27-.573-.709-1.041-1.536-1.557-2.308-.516-.775-1.01-1.569-1.436-2.426-.932-1.644-1.687-3.431-2.342-5.256-.274-.938-.593-1.863-.814-2.818-.179-.966-.389-1.929-.526-2.901-.08-.977-.181-1.957-.229-2.933l.049-2.914.295-2.858.496-2.782c.409-1.842.888-3.733 1.399-5.326l.408-1.327.511-1.351c.352-.897.654-1.813 1.123-2.663.818-1.753 1.834-3.408 2.95-4.986a33 33 0 0 1 3.815-4.335c1.406-1.304 2.891-2.521 4.49-3.544 1.573-1.068 3.254-1.942 4.973-2.722a37 37 0 0 1 1.985-.801c-.447-.756-1.034-1.416-1.796-2.014-1.525-1.209-3.749-2.044-6.055-2.725l-1.902-.532a17 17 0 0 1-2.339-.835c-1.538-.7-3.032-1.708-4.255-3.074a11.6 11.6 0 0 1-2.607-4.83 13.4 13.4 0 0 1-.273-5.242c.229-1.55.835-3.48 1.326-4.549.676-1.568 1.356-2.743 2.101-3.99 1.468-2.431 3.101-4.64 4.755-6.82.724-.943 1.485-1.842 2.221-2.769-5.163-2.611-11.498 2.64-11.557 2.69l-1.613 1.381-1.882-.955c-.348-.177-8.503-4.441-8.06-15.17.236-5.718 1.39-15.93 2.196-22.579-4.012 3.126-8.113 7.841-9.796 9.992l-2.05 2.622-9.542-8.135 1.575-2.443c5.988-9.285 2.975-16.564-1.587-25.112-3.328-6.236-4.257-15.152-4.479-21.089-2.94 2.527-5.619 5.655-6.719 7.083l-3.579 4.643-1.966-5.544c-18.433-52.01 37.483-73.335 38.046-73.544 0 0 9.447 57.698 39.418 92.823 29.971 35.126 55.859 44.109 61.298 89.297 7.444 61.847-29.985 112.228-29.985 112.228s44.219-22.407 62.047-84.528c18.778-65.634-3.665-92.825-12.335-122.821 0 0 26.212 11.568 39.352 47.891s5.681 76.879 5.681 76.879 41.364-81.494-13.488-146.624a19.7 19.7 0 0 0-3.071-2.915l-1.822-1.4.486.02a27.2 27.2 0 0 1 11.786 3.241c12.911 6.946 41.226 27.237 49.9 74.664 0 0 12.882-17.982-3.51-62.021l1.651-5.397s38.126 45.174-5.013 104.127c0 0 6.426-43.216-21.08-77.511 0 0 16.826 33.516 3.712 83.065s-31.729 66.27-31.729 66.27c-.071.98 4.023-40.082 4.372-69.586.409-34.436-12.548-50.635-12.548-50.635s15.543 49.898-13.739 111.365c-30.749 64.547-83.63 76.283-83.63 76.283s39.576-50.515 43.671-106.441-23.478-71.323-46.794-94.672c-22.842-22.874-44.159-51.893-50.387-104.334-12.266 6.682-36.256 24.288-27.9 56.657 2.604-2.724 6.194-5.981 9.768-7.618l4.783-2.194-.264 5.344c-.008.153-.717 15.563 3.708 23.853 4.658 8.729 8.641 18.156 2.785 29.324l.283.241c3.348-3.863 9.928-10.721 15.786-12.447l4.721-1.392-.65 4.967c-.027.199-2.596 19.885-2.946 28.369-.171 4.133 1.694 6.66 3.08 7.955 3.525-2.287 10.977-5.874 17.881-1.214.496-.485 1.016-.95 1.571-1.384 1.076-.865 2.219-1.672 3.585-2.275-.331 1.479-.862 2.773-1.443 4.023-.57 1.26-1.253 2.421-1.974 3.549-1.49 2.218-2.987 4.422-4.394 6.669a101 101 0 0 0-3.946 6.779c-.571 1.104-1.136 2.325-1.466 3.264-.512 1.438-.601 2.137-.743 3.266-.157 2.064.374 3.746 1.578 4.927.603.595 1.371 1.09 2.258 1.475.457.174.922.342 1.424.458l1.945.489c1.424.371 2.791.804 4.207 1.426 1.402.611 2.824 1.377 4.162 2.423 1.335 1.039 2.571 2.392 3.464 3.967.894 1.577 1.404 3.323 1.639 4.998l.007.037.551 3.005-3.139.711c-1.202.272-2.81.815-4.167 1.434-1.398.637-2.775 1.346-4.044 2.214-1.298.826-2.481 1.808-3.604 2.843a26.4 26.4 0 0 0-3.022 3.432c-.877 1.25-1.684 2.553-2.333 3.952-.381.667-.613 1.414-.897 2.134-.304.759-.53 1.364-.775 2.251-.549 1.72-.905 3.212-1.257 4.764l-.422 2.359-.242 2.338-.039 2.309.178 2.273c.108.75.278 1.487.405 2.233.171.737.431 1.456.634 2.187.524 1.436 1.112 2.862 1.894 4.23.34.701.761 1.374 1.207 2.039.447.662.825 1.356 1.341 1.989.958 1.302 1.948 2.587 3.054 3.813 1.031 1.268 2.239 2.429 3.369 3.639 1.163 1.187 2.406 2.32 3.604 3.484l3.773 3.354 2.698 2.399-2.49 2.414c-.533.517-.847.767-1.265 1.081-.392.306-.796.559-1.199.826-.819.491-1.658.94-2.535 1.293-.87.368-1.773.652-2.686.872-.916.227-1.844.352-2.776.441-1.022.036-2.062.115-3.062-.045l-.318.46c.52.761 1.093 1.549 1.744 2.427 1.159 1.565 2.399 3.471 3.198 5.609a17 17 0 0 1 .916 3.253c.237 1.1.302 2.174.4 3.255l1.015 11.29-6.819-9.186c-.38-.512-1.098-1.312-1.716-1.949-.648-.676-1.348-1.322-2.046-1.969-1.447-1.252-2.932-2.481-4.529-3.582a59 59 0 0 0-4.907-3.141c-1.686-.972-3.408-1.899-5.187-2.713-1.755-.863-3.579-1.587-5.395-2.327-1.848-.66-3.678-1.378-5.57-1.923l-2.828-.849a60 60 0 0 0-2.822-.668c-1.702-.279-3.572-.542-5.475-.581-7.608-.347-15.457 1.53-23.941 2.138-2.136.137-4.28.206-6.539.024a28 28 0 0 1-3.382-.476 37 37 0 0 1-3.227-.782 51 51 0 0 1-6.119-2.214 58 58 0 0 1-4.733-2.333c-.816.122-1.559.168-2.391.176a15 15 0 0 1-3.696-.449 12.1 12.1 0 0 1-3.639-1.624c-.58-.372-1.103-.825-1.61-1.299a25 25 0 0 1-1.135-1.186c-1.508-1.669-2.609-3.143-3.729-4.073-1.086-.933-2.304-1.466-3.892-1.811a11 11 0 0 0-1.208-.212l-.31-.046-.581-.099-.72-.14-.36-.07-.55-.171-1.102-.393c-.69-.295-1.243-.64-1.843-.999-1.11-.8-2.126-1.737-2.88-2.8-.811-1.041-1.375-2.176-1.854-3.309-.933-2.28-1.357-4.61-1.484-6.906a30 30 0 0 1 .08-3.852c.083-.999.26-1.989.459-2.972l.886-4.374 3.857 2.225c.736.424 1.606.885 2.429 1.299.836.42 1.68.825 2.53 1.198a39 39 0 0 0 5.107 1.885l.628.162.157.04.079.021h.002l.291.054.698.121.405.021c.554.015 1.215-.014 1.746-.159-.61-.277-1.26-.577-1.983-.919-3.246-1.546-7.45-3.81-11.51-6.285-4.071-2.461-7.997-5.132-10.898-7.195a134 134 0 0 1-4.778-3.537 1.08 1.08 0 0 1-.228-1.439 1.03 1.03 0 0 1 1.443-.28s1.91 1.328 4.892 3.191c2.976 1.859 6.995 4.258 11.119 6.426 4.117 2.185 8.328 4.136 11.53 5.433.615.247 1.151.455 1.682.66-.14-.222-.268-.408-.328-.417-.082-.077-.124-.141-.218-.248l-.427-.412c-.263-.278-.608-.554-.935-.831a29 29 0 0 0-2.148-1.617c-1.512-1.049-3.13-2.039-4.783-2.982a93 93 0 0 0-5.031-2.667l-3.504-1.712 2.222-3.098c1.678-2.337 3.399-4.026 5.508-5.666 2.074-1.587 4.498-2.874 7.175-3.563 2.664-.705 5.578-.727 8.226-.035 1.509.373 2.182.592 3.527 1.076a39 39 0 0 1 3.433 1.409c4.458 2.023 8.223 4.858 11.823 6.179 1.768.662 3.771 1.087 5.516 1.066.255-.01.625.023.785-.021l.502-.101c.307-.021.716-.129 1.15-.271a6 6 0 0 0 1.257-.449c.417-.177.84-.339 1.239-.597 3.301-1.766 6.06-4.938 7.857-8.449a22.4 22.4 0 0 0 1.859-5.605c.098-.972.288-1.941.245-2.916l.01-.73.003-.182.002-.092v-.016l-.033-.342-.166-1.718c-.322-1.831-.772-3.836-1.543-5.837a46 46 0 0 0-2.631-5.864 63 63 0 0 0-3.336-5.622c-1.195-1.802-2.52-3.654-3.814-5.233l-3.259-3.98 4.878-1.323 3.19-.864c-.047-.053-.084-.114-.132-.166a19 19 0 0 0-1.722-1.68 15 15 0 0 0-1.858-1.367c-.551-.348-1.109-.692-1.703-.965a14.5 14.5 0 0 0-2.053-.86c-.683-.296-1.439-.405-2.153-.627a58 58 0 0 0-2.21-.37 49 49 0 0 0-2.512-.22c-.779-.064-1.641-.079-2.464-.115a99 99 0 0 0-5.045.022 126 126 0 0 0-5.08.276c-1.683.128-3.415.29-5.032.49l-6.062.749 2.811-5.508 5.624-11.022-28.252-6.094-4.483-.967 2.428-3.97 5.897-9.64c-2.994-2.097-5.816-4.269-8.63-6.552-3.589-2.966-7.109-6.02-10.458-9.272-1.552-1.443-3.011-2.99-4.505-4.498-3.515 8.28-9.135 18.874-17.353 27.084-15.462 15.448-24.242 26.43-26.354 40.195a550 550 0 0 1-1.19 7.326c-2.257 13.511-4.815 28.824-2.416 49.018 2.783 23.433 14.702 48.124 14.822 48.371l5.597 11.498-11.473-5.267c-1.031-.474-25.469-11.985-44.422-46.155-15.186-27.38-17.95-59.108-11.8-72.804 4.889-10.89 5.906-13.156 4.406-21.059-1.662-8.753 4.033-33.754 11.219-55.603-7.381 7.347-16.598 19.226-22.648 36.656-11.958 34.45-12.331 53.946-11.606 74.113l.528 14.678-8.62-11.75c-.757-1.033-18.53-25.831-16.581-73.042 1.355-32.824 13.093-59.925 32.99-77.559-13.814 6.356-30.362 20.669-38.879 52.761l-2.797 10.538-8.573-14.875c-.178-3.96-.282-7.939-.282-11.942q.001-3.312.083-6.605l5.978 10.464C-48.078-.971-2.984-.123 0 0" style="fill:#e53e30;fill-opacity:1;fill-rule:nonzero;stroke:none" transform="translate(357.257 489.37)"/><path d="M0 0c-5.735-3.41-10.018-8.785-12.999-14.419-3.049-5.659-5.072-11.628-6.904-17.536l-5.148-17.616c-1.769-5.793-3.796-11.405-6.571-16.656-2.722-5.297-6.122-10.218-9.773-15.017-2.829-3.689-5.706-7.415-8.493-11.226.268.587.525 1.144.802 1.757 9.57 21.166 17.522 49.096 19.309 64.201 1.786 15.105-.856 20.735 9.422 40.763-25.088-5.481-31.64-28.015-41.632-51.931s-13.11-26.231-29.015-43.149c-15.904-16.917-25.196-38.344-25.196-38.344-2.55 22.851 5.264 34.652 14.916 47.349s22.411 27.981 27.422 55.79c-15.986-21.43-41.723-33.698-60.743-46.507a141 141 0 0 1-7.004-5.045c1.773 14.373-1.935 32.596-6.866 55.577-5.637 26.277 1.372 44.603 1.372 44.603s-22.585-10.77-30.894-36.53c-6.559-20.332-3.559-37.041-13.695-55.77s-24.133-20.4-40.955-41.045c-14.771-18.128-22.716-41.439-24.435-46.857-4.221 12.341-12.548 21.505-22.634 31.522-15.322 15.219-26.415 38.537-24.376 59.938s16.428 49.087-13.404 77.626c1.684-27.824-5.347-45.605-15.911-62.165s-16.253-26.682-15.739-52.737c.514-26.054 18.652-56.733 18.652-56.733s-13.004 10.121-25.839 16.15c-12.836 6.03-19.834 13.393-29.631 23.647-9.796 10.254-20.481 16.098-38.483 17.541 0 0 14.507-7.6 22.713-24.752 5.635-11.776 6.952-22.957 8.874-30.952-3.904 6.385-9.396 8.383-20.909 17.611-13.294 10.656-21.776 21.511-23.597 33.187s-4.554 19.489-12.2 29.558c-7.646 10.07-13.866 18.012-16.413 34.304-6.335-15.343-5.568-27.286-3.643-39.231s1.453-17.977-2.906-35.648c-2.719-11.022 1.759-22.407 5.512-29.414l.001-.001a262 262 0 0 1 4.069-5.997l.001-.002c-8.544 37.314-1.507 38.075.004 56.17 1.286 15.388-4.835 26.31-1.692 34.502 15.46-20.952 16.452-35.259 23.277-51.375 6.824-16.115 18.776-26.69 32.737-34.039 9.574-5.04 14.234-9.252 16.218-11.401.775-2.843 1.689-5.21 3.017-6.935-3.161 18.179 2.357 33.712-15.353 54.024 13.848-4.621 22.01-20.681 33.877-29.21s18.823-8.351 31.782-17.381 23.657-17.771 23.657-17.771-19.801 28.151-23.888 49.299-6.513 40.998 4.439 61.128c10.952 20.129 23.622 40.309 23.233 62.702 9.251-19.274 5.016-27.921 2.551-48.793-2.466-20.872.139-46.181 15.299-65.778s33.152-27.327 39.628-60.948c.212 4.94-.055 9.409-.717 13.53 7.034 19.025 23.029 49.855 42.943 66.375 20.455 16.968 31.922 31.106 35.532 53.939s4.673 35.994 20.851 52.786c-2.046-8.83-3.21-19.536 2.601-37.06 5.35-16.132 8.812-30.968 5.507-51.927-14.799-12.593-28.721-29.429-35.292-48.235-8.462-24.216-3.638-50.253-3.638-50.253-4.493 48.278 28.136 83.878 48.484 96.97 20.347 13.093 33.166 18.268 51.367 35.782-4.123-12.56-17.225-23.85-29.158-41.834-11.933-17.983-11.882-32.192-4.988-58.69 16.045 37.284 29.054 46.566 41.42 58.372C-66.878-68.4-57.723-47.98-49.788-23.967-41.853.045-28.506 5.388-28.506 5.388c-4.04-5.906-7.586-19.498-7.981-31.539s.229-14.202-9.345-41.744-19.699-37.435-28.771-77.163c9.297 21.677 13.747 29.675 19.686 41.906a337 337 0 0 0 4.602 5.659c3.857 4.651 7.906 9.149 11.769 13.917 3.852 4.765 7.561 9.797 10.585 15.283 3.097 5.464 5.413 11.354 7.386 17.207 4.048 11.659 6.611 23.784 12.25 33.996C-5.553-12.11-1.99-7.708 2.629-4.894q.127 3.168.177 6.354v.001C1.851 1.018.905.551 0 0" style="fill:#000b8c;fill-opacity:1;fill-rule:nonzero;stroke:none" transform="translate(793.616 534.308)"/><path d="M0 0q-.003-.107-.006-.214.003.106.006.211-.052-3.185-.178-6.351l-.002-.001c-5.508-138.26-118.326-249.026-256.243-249.026-86.325 0-162.821 43.396-209.326 109.766l-.001.001a262 262 0 0 0-4.069 5.997l-.001.002a63 63 0 0 0-2.816 5.976 54 54 0 0 1 2.773-5.91 261 261 0 0 0-11.967 20.016c-18.831 34.998-29.93 74.844-30.978 117.172l-.006-.012c-.006.209-.004.419-.008.628a264 264 0 0 0-.075 5.978c0 4.002.103 7.981.281 11.941 6.188 137.629 118.726 247.671 256.193 247.671C-115.001 263.845.053 147.384.053 4.233.053 2.818.022 1.411 0 .001Zm-256.423 271.843c-145.778 0-264.375-120.049-264.375-267.61s118.597-267.612 264.375-267.612S7.954-143.328 7.954 4.233s-118.599 267.61-264.377 267.61" style="fill:#fff;fill-opacity:1;fill-rule:nonzero;stroke:none" transform="translate(796.422 535.768)"/><path d="m0 0-15.156-4.456 15.298-4.3zm15.732 23.114 8.538.138.398-24.855-8.539-.138-.102 6.469-8.646-2.536.208-13.117 8.728-2.552-.107 6.759 8.538.138.359-22.381-8.539-.138-.1 6.25-33.622 9.311.107-6.725-8.54-.133-.528 32.991 8.539.137.109-6.795 33.296 11.145z" style="fill:#fff;fill-opacity:1;fill-rule:nonzero;stroke:none" transform="translate(232.836 539.683)"/><path d="m0 0 13.565-3.814-.125 7.766Zm14.328-4.804L-2.702-.017 14.17 4.944zM-3.731-8.597l34.373-9.519.098-6.156 7.793.126-.348 21.634-7.791-.126.109-6.891-9.478 2.77-.217 13.677 9.389 2.754.104-6.586 7.792.126-.386 24.109-7.791-.126.096-5.933L-4.027 9.868l-.111 6.932-7.793-.125.516-32.245 7.793.122zM30.005-25.03l-.101 6.343-32.872 9.105.105-6.601-9.286-.145-.541 33.737 9.286.15.107-6.659 32.553 10.896-.098 6.133 9.284.15.41-25.603-9.285-.149-.101 6.352-7.902-2.317.199-12.559 7.977-2.332-.104 6.627 9.284.149.371-23.128z" style="fill:#fff;fill-opacity:1;fill-rule:nonzero;stroke:none" transform="translate(219.031 535.235)"/><path d="m0 0-8.412 1.481 1.255 7.121-32.962 5.802-1.256-7.121-8.409 1.481 4.814 27.343 8.41-1.481-1.279-7.266 32.962-5.802 2.59 14.71-15.39 2.71 1.708 9.699 23.799-4.19z" style="fill:#fff;fill-opacity:1;fill-rule:nonzero;stroke:none" transform="translate(258.09 568.881)"/><path d="m0 0 7.676-1.351L15.377 42.4l-23.063 4.061-1.579-8.964 15.39-2.71-2.72-15.446-33.697 5.932 1.279 7.266-7.674 1.352-4.685-26.608 7.674-1.351 1.256 7.121L1.255 7.121zm8.283-2.216L-.865-.606.39 6.515l-32.227 5.673-1.256-7.121-9.144 1.61 4.943 28.078 9.146-1.61-1.28-7.265 32.227-5.674L5.26 34.181l-15.39 2.71 1.837 10.435 24.535-4.32z" style="fill:#fff;fill-opacity:1;fill-rule:nonzero;stroke:none" transform="translate(250.111 570.665)"/><path d="m0 0 1.157 2.941q2.104 5.343 1.947 9.017-.156 3.673-2.911 6.945-2.753 3.27-8.402 5.492-5.376 2.116-9.883 1.682-4.505-.433-7.208-3.139-2.706-2.703-4.689-7.743l-1.156-2.941zm.336-22.47-7.947 3.126 2.808 7.135L-35.948.046l-2.808-7.135-7.948 3.126 8.771 22.286q2.764 7.033 5.319 10.988 2.55 3.956 7.053 6.716 4.505 2.758 10.405 3.169 5.903.41 11.957-1.97 4.902-1.931 8.697-5.336 3.797-3.407 5.553-6.93 1.759-3.523 2.02-7.57.263-4.048-.388-7.092c-.651-3.044-1.437-5.039-3.007-9.03Z" style="fill:#fff;fill-opacity:1;fill-rule:nonzero;stroke:none" transform="translate(266.84 642.107)"/><path d="m0 0 30.451-11.982 1.021 2.594c1.376 3.498 2.023 6.48 1.921 8.865-.099 2.351-1.049 4.612-2.824 6.72-1.786 2.121-4.563 3.933-8.253 5.386-3.513 1.382-6.779 1.937-9.71 1.657-2.902-.279-5.251-1.299-6.981-3.031C3.867 8.452 2.318 5.89 1.02 2.594Zm30.873-12.949L-.968-.422.325 2.867c1.336 3.393 2.941 6.041 4.772 7.87 1.856 1.857 4.358 2.95 7.437 3.246 3.047.297 6.431-.28 10.055-1.705 3.807-1.498 6.684-3.383 8.551-5.6 1.883-2.237 2.892-4.65 2.999-7.17.106-2.489-.558-5.573-1.972-9.168zm-7.338-18.65 7.252-2.853L39.99-11.06c1.556 3.954 2.562 6.973 2.99 8.971.424 1.985.553 4.337.381 6.99-.172 2.636-.838 5.135-1.982 7.427-1.143 2.292-2.983 4.586-5.469 6.819-2.481 2.227-5.37 3.999-8.585 5.266-3.966 1.561-7.928 2.216-11.793 1.946-3.853-.269-7.297-1.317-10.236-3.116-2.941-1.804-5.274-4.024-6.935-6.599-1.68-2.603-3.458-6.277-5.285-10.922l-8.634-21.94 7.253-2.852 2.807 7.135 31.841-12.528zm7.674-3.82-8.643 3.398 2.809 7.136-30.451 11.982-2.807-7.135-8.644 3.399 8.908 22.634c1.845 4.691 3.646 8.41 5.353 11.054 1.721 2.67 4.134 4.968 7.172 6.831 3.042 1.862 6.6 2.947 10.574 3.224 3.979.273 8.049-.395 12.119-1.996 3.298-1.3 6.262-3.118 8.81-5.406 2.557-2.296 4.453-4.665 5.638-7.041 1.189-2.382 1.881-4.976 2.059-7.712.176-2.722.043-5.142-.396-7.195-.436-2.037-1.454-5.095-3.025-9.087z" style="fill:#fff;fill-opacity:1;fill-rule:nonzero;stroke:none" transform="translate(236.178 654.572)"/><path d="m0 0-7.151 4.668 3.318 5.082-28.026 18.297-3.317-5.082-7.15 4.667 24.355 37.308 13.419-8.761-5.285-8.095-6.267 4.093-8.564-13.115 9.769-6.376 6.914 10.588 7.15-4.668-6.913-10.59 11.106-7.251 8.561 13.115-6.328 4.132 5.284 8.094 13.481-8.8z" style="fill:#fff;fill-opacity:1;fill-rule:nonzero;stroke:none" transform="translate(291.94 678.768)"/><path d="m0 0 6.526-4.26 23.948 36.681-12.857 8.391-4.875-7.468 6.328-4.132-8.969-13.74-11.732 7.659 6.913 10.59-6.525 4.259-6.914-10.588-10.393 6.785 8.971 13.74 6.268-4.093 4.876 7.469-12.794 8.354-23.947-36.683 6.525-4.259 3.318 5.082L3.318 5.082Zm6.742-5.293L-1.034-.217l3.318 5.082-27.401 17.889-3.316-5.082-7.776 5.075 24.763 37.934L2.599 51.51l-5.694-8.72-6.267 4.093-8.155-12.49 9.144-5.968 6.913 10.589 7.775-5.076-6.913-10.59 10.482-6.843 8.153 12.49-6.329 4.132 5.693 8.719 14.106-9.209z" style="fill:#fff;fill-opacity:1;fill-rule:nonzero;stroke:none" transform="translate(285.307 683.545)"/><path d="m0 0 3.145 3.227q5.831 5.986 1.566 10.146-2.109 2.053-4.482 1.703-2.372-.353-4.706-2.747L-8.46 8.243Zm38.261 8.228 6.116-5.961L33.63-8.76 9.814-1.488 5.777-5.631l9.732-9.487 4.415 4.53 6.114-5.96-18.439-18.92-6.115 5.959 4.845 4.971-23.97 23.36-4.844-4.971-6.117 5.961 21.283 21.835q6.011 6.167 11.77 5.857 5.76-.313 9.692-4.143 6.167-6.012 2.891-15.046l16.661-4.773Z" style="fill:#fff;fill-opacity:1;fill-rule:nonzero;stroke:none" transform="translate(313.563 758.118)"/><path d="m0 0 7.925-7.721 2.884 2.959c3.749 3.848 4.263 6.995 1.573 9.618-1.312 1.279-2.706 1.813-4.167 1.601-1.492-.223-3.004-1.11-4.494-2.638Zm7.938-8.778L-1.056-.014 3.187 4.34c1.605 1.647 3.261 2.608 4.919 2.856 1.708.249 3.314-.36 4.797-1.805 3.008-2.933 2.483-6.524-1.559-10.674zm2.006-28.974 5.58-5.437 17.918 18.384-5.58 5.439-4.414-4.53L13.18-13.887l4.457 4.573 23.816-7.272L51.78-5.989l-5.581 5.44-4.461-4.579-17.26 4.944.136.376c2.121 5.844 1.178 10.774-2.8 14.652-2.542 2.476-5.722 3.835-9.452 4.038-3.694.196-7.572-1.733-11.482-5.744L-20.142-8.431l5.582-5.439 4.844 4.971 24.505-23.882zm5.593-6.494-6.649 6.481 4.845 4.971L-9.702-9.955l-4.845-4.972-6.651 6.483L.345 13.659c4.067 4.172 8.131 6.177 12.057 5.969 3.916-.214 7.258-1.643 9.933-4.249 4.121-4.018 5.168-9.084 3.114-15.064l16.066-4.602L46.186.507l6.651-6.483L41.67-17.433l-23.816 7.272-3.617-3.713 9.197-8.965 4.414 4.529 6.65-6.481z" style="fill:#fff;fill-opacity:1;fill-rule:nonzero;stroke:none" transform="translate(305.632 766.368)"/><path d="m0 0-10.004 14.02 6.979 4.982q2.861-3.762 6.055-4.229 3.19-.468 5.615 1.262 1.893 1.352 2.257 3.596.361 2.247-.905 4.021-1.351 1.893-3.542 2.272t-6.74-.387q-9.592-1.659-14.025-.841-4.432.816-7.626 5.291-3.847 5.393-2.592 10.761 1.258 5.372 5.548 8.431 4.91 3.504 10.335 1.596l-2.439 3.416 6.952 4.961 8.929-12.513-6.951-4.96q-2.394 2.665-5.194 3.056-2.801.39-5.019-1.194-1.716-1.225-2.246-2.986-.527-1.762.528-3.24.907-1.27 2.697-1.713 1.787-.441 8.018.849 6.01 1.222 9.618 1.32a14.6 14.6 0 0 0 6.897-1.513q3.289-1.607 5.741-5.041 4.352-6.1 2.998-11.712-1.35-5.611-6.202-9.074-5.413-3.864-11.203-1.945l2.502-3.505Z" style="fill:#fff;fill-opacity:1;fill-rule:nonzero;stroke:none" transform="translate(364.212 764.482)"/><path d="m0 0 9.57-13.411 6.374 4.546-2.949 4.133 1.085-.36c3.729-1.236 7.374-.599 10.869 1.894 3.144 2.245 5.181 5.225 6.056 8.858.871 3.614-.118 7.452-2.94 11.407-1.589 2.228-3.473 3.884-5.6 4.923a14.3 14.3 0 0 1-6.724 1.475c-2.367-.064-5.581-.505-9.553-1.312-4.226-.875-6.915-1.159-8.182-.846-1.275.315-2.254.94-2.911 1.859-.771 1.078-.967 2.277-.582 3.564.377 1.251 1.18 2.321 2.386 3.183 1.55 1.106 3.333 1.53 5.288 1.259 1.857-.258 3.603-1.244 5.194-2.93l6.379 4.552-8.495 11.905-6.345-4.527 2.908-4.073-1.114.392c-3.483 1.224-6.833.706-9.994-1.549-2.769-1.975-4.587-4.738-5.401-8.212-.808-3.452.044-6.971 2.533-10.459 2.062-2.889 4.548-4.618 7.389-5.14 2.893-.534 7.582-.251 13.894.841 3.062.517 5.366.648 6.868.387 1.554-.268 2.826-1.084 3.781-2.423.9-1.259 1.226-2.705.97-4.297-.258-1.591-1.068-2.883-2.408-3.84C16.658.595 14.675.147 12.459.471c-2.134.312-4.177 1.686-6.076 4.086Zm9.396-14.453L-1.042.174l7.578 5.409.219-.288c1.839-2.415 3.795-3.79 5.812-4.085 2.022-.295 3.816.105 5.345 1.196 1.188.849 1.877 1.946 2.105 3.353.227 1.409-.048 2.634-.84 3.744-.838 1.173-1.948 1.886-3.302 2.121-1.41.242-3.649.112-6.615-.388-6.409-1.108-11.161-1.391-14.154-.839-3.038.558-5.683 2.388-7.862 5.44-2.619 3.67-3.511 7.393-2.652 11.064.857 3.655 2.773 6.566 5.694 8.65 3.036 2.166 6.262 2.832 9.61 1.969l-2.018 2.826 7.561 5.395 9.363-13.121-7.527-5.371-.223.248c-1.53 1.702-3.202 2.69-4.968 2.935-1.762.245-3.359-.133-4.75-1.127-1.069-.763-1.778-1.702-2.106-2.79-.319-1.068-.164-2.022.474-2.915.55-.77 1.386-1.297 2.483-1.568 1.109-.272 3.799.012 7.853.853 4.015.815 7.273 1.261 9.684 1.327a15.2 15.2 0 0 0 7.071-1.551c2.239-1.094 4.218-2.83 5.88-5.16 2.953-4.14 3.982-8.183 3.058-12.016-.918-3.813-3.054-6.939-6.349-9.29-3.364-2.402-6.885-3.178-10.493-2.296l2.096-2.938z" style="fill:#fff;fill-opacity:1;fill-rule:nonzero;stroke:none" transform="translate(354.729 778.414)"/><path d="m0 0-3.602 7.743 5.735 2.668-14.117 30.346-5.734-2.669-3.602 7.745 22.14 10.3 3.604-7.743-4.81-2.238 4.675-10.049 12.486 5.808-4.673 10.05-4.646-2.162-3.604 7.745 21.979 10.224 3.601-7.743-5.732-2.668L37.817 27.01l5.732 2.666 3.602-7.742-21.977-10.223-3.601 7.742 4.646 2.161-5.826 12.522-12.488-5.809 5.826-12.521 4.81 2.238 3.602-7.744z" style="fill:#fff;fill-opacity:1;fill-rule:nonzero;stroke:none" transform="translate(398.62 789.044)"/><path d="m0 0 3.287-7.066L24.753 2.92l-3.287 7.066-4.811-2.238-6.14 13.198L23.68 27.07l6.14-13.199-4.646-2.161 3.287-7.065 21.299 9.909-3.286 7.065-5.732-2.666L26.31 49.976l5.732 2.667-3.287 7.067-21.301-9.908 3.289-7.069 4.646 2.162 4.988-10.727-13.164-6.123-4.989 10.726 4.81 2.238-3.289 7.066-21.463-9.985 3.287-7.068 5.734 2.669L5.734 2.668Zm2.924-8.058L-.992.362l5.734 2.669L-9.06 32.699l-5.734-2.669-3.916 8.423L4.107 49.067l3.919-8.419-4.81-2.239 4.359-9.372 11.81 5.494-4.359 9.372-4.645-2.161-3.919 8.422 22.656 10.538 3.916-8.42-5.732-2.668 13.802-29.669 5.732 2.666 3.916-8.42L28.099 3.654l-3.916 8.419 4.646 2.161-5.512 11.844-11.81-5.494L17.018 8.74l4.81 2.238 3.916-8.421z" style="fill:#fff;fill-opacity:1;fill-rule:nonzero;stroke:none" transform="translate(395.515 796.606)"/><path d="M0 0q-5.688-1.197-8.756-6.298-3.067-5.105-1.33-13.352 1.534-7.293 6.366-10.841 4.834-3.553 10.629-2.332 5.689 1.198 8.771 6.322 3.081 5.122 1.382 13.195-1.52 7.219-6.267 10.898Q6.047 1.273 0 0m-1.901 9.034q12.803 2.691 21.703-3.158t11.139-16.483q2.244-10.67-3.564-19.597T8.802-41.82q-13.264-2.79-21.975 3.303-8.708 6.097-10.865 16.338-2.23 10.597 3.517 19.549t18.62 11.664" style="fill:#fff;fill-opacity:1;fill-rule:nonzero;stroke:none" transform="translate(473.51 861.206)"/><path d="M0 0c-.948 0-1.94-.107-2.946-.319-3.669-.772-6.533-2.833-8.513-6.126-1.985-3.304-2.417-7.706-1.284-13.082.997-4.745 3.09-8.317 6.221-10.617 2.321-1.706 4.847-2.572 7.507-2.572.916 0 1.865.103 2.823.304 3.671.773 6.541 2.842 8.529 6.149 1.994 3.316 2.445 7.665 1.337 12.926-.99 4.702-3.053 8.295-6.131 10.68C5.269-.894 2.732 0 0 0m.985-33.463c-2.822.001-5.497.915-7.949 2.717-3.283 2.412-5.474 6.135-6.51 11.065-1.173 5.567-.71 10.15 1.375 13.621C-10.007-2.582-6.98-.405-3.1.411 1.023 1.28 4.763.443 8-2.067c3.222-2.496 5.377-6.236 6.404-11.116 1.148-5.452.668-9.982-1.427-13.465-2.1-3.492-5.133-5.677-9.014-6.494a14.5 14.5 0 0 0-2.978-.321M2.758 9.555c-2.394 0-4.953-.283-7.605-.84-8.442-1.779-14.627-5.648-18.383-11.5-3.758-5.855-4.925-12.339-3.466-19.27 1.412-6.701 5.016-12.121 10.714-16.11 5.695-3.983 12.987-5.072 21.684-3.243 8.374 1.763 14.544 5.616 18.339 11.453 3.798 5.838 4.98 12.337 3.512 19.317C26.089-3.684 22.395 1.783 16.574 5.61 12.591 8.228 7.942 9.555 2.758 9.555m-4.862-52.579c-5.464 0-10.277 1.429-14.306 4.247-5.858 4.101-9.565 9.675-11.016 16.567-1.501 7.132-.3 13.802 3.568 19.828C-19.99 3.645-13.645 7.624-5.001 9.445c8.595 1.807 15.995.726 21.985-3.211 5.992-3.939 9.794-9.565 11.3-16.718 1.509-7.181.292-13.869-3.617-19.878-3.907-6.009-10.236-9.972-18.81-11.777-2.791-.587-5.469-.885-7.961-.885" style="fill:#fff;fill-opacity:1;fill-rule:nonzero;stroke:none" transform="translate(476.533 861.16)"/><path d="m0 0 .14 8.538 7.594-.124.55 33.465-7.596.125-.191-11.773-8.685.142.333 20.312 45.822-.751-.338-20.313-8.576.142.199 11.772-7.811.128-.551-33.466 7.589-.123-.137-8.539Z" style="fill:#fff;fill-opacity:1;fill-rule:nonzero;stroke:none" transform="translate(526.135 826.22)"/><path d="m0 0 27.595-.453.126 7.792-7.589.124.563 34.211 8.557-.139-.199-11.772 7.83-.13.325 19.566-45.075.739-.321-19.566 7.939-.129.191 11.773 8.342-.137-.562-34.212-7.594.124Zm28.33-1.212L-.758-.734l.151 9.283 7.595-.124.537 32.72-6.849.112-.19-11.773-9.432.154.345 21.058.373-.005 46.195-.758-.35-21.06-9.322.155.199 11.772-7.066.116-.537-32.719 7.588-.124z" style="fill:#fff;fill-opacity:1;fill-rule:nonzero;stroke:none" transform="translate(526.514 826.587)"/><path d="m0 0 2.2 8.253 7.341-1.955 8.611 32.342-7.338 1.954-3.029-11.376-8.393 2.233 5.225 19.632 44.282-11.795-5.225-19.63-8.29 2.207 3.029 11.379-7.546 2.009-8.616-32.342L29.589.956l-2.196-8.251Z" style="fill:#fff;fill-opacity:1;fill-rule:nonzero;stroke:none" transform="translate(598.345 820.249)"/><path d="m0 0 26.671-7.102L28.674.427l-7.338 1.955.097.361 8.711 32.703 8.269-2.202-3.029-11.379 7.567-2.015 5.033 18.909L4.423 50.362-.608 31.451l7.67-2.041 3.03 11.376 8.059-2.146-.097-.361L9.347 5.577l-7.34 1.954Zm27.2-8.016L-.915-.529l2.392 8.974 7.341-1.954 8.419 31.619-6.616 1.763-3.029-11.377-9.115 2.426.097.361 5.32 19.992 45.005-11.987-.097-.36-5.322-19.991-9.011 2.399 3.029 11.378-6.824 1.818-8.423-31.621L29.587.956z" style="fill:#fff;fill-opacity:1;fill-rule:nonzero;stroke:none" transform="translate(598.803 820.513)"/><path d="M0 0q-5.182 2.638-10.772.591c-3.726-1.363-6.867-4.55-9.414-9.56q-3.385-6.637-1.852-12.435 1.536-5.796 6.814-8.485 5.182-2.64 10.794-.585 5.616 2.057 9.361 9.407 3.346 6.571 1.958 12.418C5.968-4.753 3.669-1.87 0 0m4.188 8.224Q15.847 2.286 19.103-7.855q3.254-10.141-1.675-19.823c-3.302-6.476-8.324-10.816-15.076-13.02-6.747-2.205-14-1.331-21.75 2.615q-12.079 6.155-15.033 16.365-2.955 10.212 1.797 19.538 4.912 9.65 15.007 13.013T4.188 8.224" style="fill:#fff;fill-opacity:1;fill-rule:nonzero;stroke:none" transform="translate(685.895 833.17)"/><path d="M0 0c-1.525 0-3.099-.293-4.678-.872-3.62-1.325-6.718-4.48-9.209-9.378-2.202-4.318-2.816-8.413-1.823-12.171.991-3.74 3.22-6.515 6.621-8.247 1.881-.958 3.831-1.444 5.796-1.444h.001c1.53 0 3.112.295 4.7.876 3.634 1.331 6.715 4.436 9.157 9.227 2.179 4.28 2.827 8.373 1.927 12.162-.891 3.765-3.143 6.591-6.695 8.402C3.913-.486 1.963 0 0 0m-3.292-32.859zc-2.084 0-4.149.513-6.135 1.526-3.599 1.832-5.955 4.766-7.004 8.721-1.042 3.942-.409 8.214 1.88 12.701 2.579 5.071 5.814 8.348 9.618 9.74 3.803 1.394 7.537 1.19 11.07-.608 3.756-1.916 6.139-4.908 7.083-8.896.942-3.966.273-8.23-1.989-12.674-2.53-4.964-5.748-8.19-9.565-9.588-1.67-.612-3.338-.922-4.957-.922m-.887 43.418a23.3 23.3 0 0 1-7.364-1.192c-6.603-2.199-11.579-6.516-14.792-12.829-3.108-6.101-3.705-12.583-1.772-19.265 1.93-6.67 6.924-12.099 14.845-16.135 7.627-3.884 14.846-4.755 21.465-2.593 6.62 2.162 11.619 6.479 14.859 12.834 3.224 6.333 3.779 12.907 1.651 19.54-2.13 6.632-7.085 11.968-14.728 15.86-4.924 2.508-9.689 3.78-14.164 3.78M.873-43.368c-4.6 0-9.47 1.292-14.475 3.84-8.111 4.133-13.233 9.716-15.221 16.594-1.988 6.87-1.375 13.536 1.824 19.811 3.303 6.494 8.425 10.934 15.22 13.198 6.792 2.263 14.233 1.378 22.103-2.63 7.827-3.986 12.907-9.47 15.1-16.298 2.19-6.827 1.619-13.592-1.697-20.107-3.333-6.537-8.478-10.98-15.293-13.205a24.3 24.3 0 0 0-7.561-1.203" style="fill:#fff;fill-opacity:1;fill-rule:nonzero;stroke:none" transform="translate(679.929 834.283)"/><path d="m0 0 16.461 41.587-4.067 3.463 5.536 6.501L35.281 36.78l-5.54-6.501-3.981 3.391-9.487-23.806 21.605 13.487-3.489 2.969 5.539 6.503L53.76 21.042l-5.534-6.5-3.57 3.039-9.429-23.855L57.024 7.049l-3.845 3.275 5.536 6.501L74.127 3.703l-5.536-6.501L64.414.759 26.341-22.43l-7.195 6.126 8.901 22.73L7.36-6.267Z" style="fill:#fff;fill-opacity:1;fill-rule:nonzero;stroke:none" transform="translate(708.452 769.835)"/><path d="m0 0 6.787-5.778 38.074 23.189 4.098-3.491 5.051 5.933-14.844 12.638-5.051-5.932 3.952-3.368L14.879 9.017 24.91 34.395l3.682-3.135 5.052 5.932L20.38 48.489l-5.055-5.935 3.593-3.057-23.004-14.362L6.015 50.484l4.094-3.487 5.055 5.933-16.782 14.287-5.053-5.933 3.987-3.394-.099-.249-16.362-41.338 6.95-5.919L9.209 23.519zm6.714-6.697L-.89-.224l8.593 21.941-19.969-12.253-7.771 6.617.099.248 16.362 41.339-4.147 3.531 6.02 7.07 17.919-15.255-6.023-7.069-3.869 3.295-8.872-22.265 20.205 12.614-3.384 2.881 6.023 7.071 14.4-12.264-6.019-7.07-3.456 2.943-8.827-22.331 20.404 12.472-3.736 3.183 6.019 7.069 15.981-13.606-6.02-7.07-4.254 3.625z" style="fill:#fff;fill-opacity:1;fill-rule:nonzero;stroke:none" transform="translate(728.043 753.643)"/><path d="m0 0 6.935 4.982 3.944-5.491 27.187 19.525-3.944 5.488 6.935 4.983 12.387-17.248-14.755-33.491L57.352-7.845l-3.836 5.341 6.939 4.982L73.683-15.94l-6.94-4.982-4.13 5.754-34.421-24.714-6.571 9.15L39.335 8.832l-23.2-16.66 3.711-5.167-6.936-4.98z" style="fill:#fff;fill-opacity:1;fill-rule:nonzero;stroke:none" transform="translate(752.615 730.312)"/><path d="m0 0 6.229-8.672 34.42 24.714 4.131-5.754 6.333 4.547L38.32 32.646 31.988 28.1l3.836-5.341L15.747 8.336l15.219 34.548-12.044 16.771-6.329-4.547 3.945-5.489-27.794-19.96-3.943 5.491-6.329-4.546 12.475-17.369 6.329 4.545-3.71 5.167 24.627 17.685zm6.058-9.714L-.856-.086 16.38 38.411-5.392 22.776l3.71-5.167-7.542-5.415-13.345 18.581 7.541 5.417 3.943-5.491L15.496 49.79l-3.945 5.489 7.542 5.419 12.73-17.725-.087-.195-14.204-32.239 17.25 12.39-3.835 5.342 7.544 5.417 13.663-19.024-7.545-5.418L40.478 15Z" style="fill:#fff;fill-opacity:1;fill-rule:nonzero;stroke:none" transform="translate(774.664 699.623)"/><path d="m0 0 8.048 2.849 2.414-6.818L42.014 7.199l-2.411 6.817 8.049 2.85 15.094-42.653-14.696-5.2-3.225 9.112 6.648 2.353-5.068 14.319-11.032-3.903 3.648-10.313-8.052-2.848-3.648 10.311-12.467-4.413 2.594-7.331-8.053-2.849z" style="fill:#fff;fill-opacity:1;fill-rule:nonzero;stroke:none" transform="translate(798.695 657.155)"/><path d="m0 0 2.975-8.408 13.994 4.951L2.123 38.492l-7.346-2.601 2.412-6.818-32.255-11.416-2.415 6.818-7.344-2.6 9.147-25.845 7.348 2.6-2.593 7.331 13.17 4.662L-14.105.311l7.349 2.6-3.648 10.313L1.33 17.376 6.648 2.352Zm2.521-9.362L-.952.455l6.648 2.353-4.82 13.615-10.328-3.654 3.648-10.313-8.755-3.098-3.648 10.312-11.763-4.164 2.593-7.331-8.756-3.099-9.645 27.253 8.752 3.1 2.414-6.818 30.849 10.918-2.412 6.816 8.753 3.1L17.921-3.912z" style="fill:#fff;fill-opacity:1;fill-rule:nonzero;stroke:none" transform="translate(843.996 635.053)"/><path d="m0 0 11.847 2.801 2.793-11.81-11.847-2.804Z" style="fill:#fff;fill-opacity:1;fill-rule:nonzero;stroke:none" transform="translate(813.342 612.74)"/><path d="m0 0 2.621-11.086 11.12 2.632L11.12 2.629Zm2.067-11.985L-.898.555l12.572 2.974 2.965-12.537Z" style="fill:#fff;fill-opacity:1;fill-rule:nonzero;stroke:none" transform="translate(813.791 612.462)"/><path d="m0 0 .608-8.517-17.76-1.27-.609 8.515q9.308 4.31 8.669 13.263-.528 7.396-5.842 10.821-5.31 3.427-12.341 2.925-7.36-.53-11.621-4.859-4.26-4.331-3.818-10.531.363-5.072 4.082-8.634 3.713-3.558 9.938-4.461l-4.019-10.268Q-50.68-8.621-52.059 10.626q-.975 13.591 5.854 21.023 6.828 7.428 18.028 8.231c5.313.381 10.053-.482 14.21-2.589q6.237-3.159 9.702-9.015 3.46-5.853 3.978-13.103.649-9.026-3.63-15.455Z" style="fill:#fff;fill-opacity:1;fill-rule:nonzero;stroke:none" transform="translate(873.338 548.226)"/><path d="M0 0a34 34 0 0 1-2.372-.086c-7.333-.527-13.315-3.256-17.781-8.112-4.457-4.852-6.394-11.831-5.757-20.743.894-12.477 7.201-20.291 18.747-23.228l3.729 9.529c-3.996.653-7.251 2.163-9.678 4.49-2.538 2.43-3.95 5.416-4.195 8.876-.303 4.227 1.018 7.868 3.924 10.82 2.895 2.94 6.885 4.612 11.859 4.969 4.76.34 8.981-.665 12.57-2.983 3.63-2.341 5.653-6.078 6.011-11.109.434-6.035-2.476-10.581-8.65-13.518l.565-7.887 17.014 1.216-.554 7.773-4.303-.31.422.634c2.792 4.194 3.992 9.315 3.568 15.221-.34 4.751-1.661 9.104-3.928 12.94-2.264 3.825-5.477 6.81-9.549 8.871C8.191-.887 4.273 0 0 0m-6.707-53.051-.317.078c-12.098 2.959-18.702 11.027-19.629 23.979-.655 9.125 1.348 16.292 5.95 21.301C-16.104-2.692-9.956.118-2.426.658c5.362.385 10.208-.5 14.406-2.629 4.201-2.126 7.516-5.207 9.854-9.156 2.326-3.937 3.682-8.401 4.029-13.268.415-5.782-.69-10.843-3.285-15.055l3.546.255.661-9.263L8.28-49.78l-.654 9.145.233.107c6.024 2.789 8.868 7.128 8.454 12.898-.341 4.784-2.25 8.328-5.671 10.535-3.453 2.229-7.528 3.197-12.112 2.865-4.788-.344-8.617-1.941-11.382-4.748-2.748-2.793-3.997-6.239-3.712-10.243.234-3.269 1.568-6.092 3.969-8.39 2.406-2.307 5.681-3.774 9.732-4.362l.466-.067z" style="fill:#fff;fill-opacity:1;fill-rule:nonzero;stroke:none" transform="translate(847.56 587.82)"/><path d="m0 0 12.138-.929-.93-12.104-12.137.933Z" style="fill:#fff;fill-opacity:1;fill-rule:nonzero;stroke:none" transform="translate(822.098 523.57)"/><path d="m0 0 11.392-.876.873 11.36-11.393.87zm12.08-1.678-12.882.99.986 12.845 12.883-.986z" style="fill:#fff;fill-opacity:1;fill-rule:nonzero;stroke:none" transform="translate(821.57 511.814)"/><path d="m0 0 5.329 6.91 6.147-4.739 20.889 27.086-6.147 4.741-7.348-9.528-7.029 5.421 12.678 16.44L61.606 17.73 48.928 1.29l-6.942 5.352 7.349 9.531-6.323 4.874L22.123-6.039l6.146-4.742-5.329-6.909z" style="fill:#fff;fill-opacity:1;fill-rule:nonzero;stroke:none" transform="translate(325.057 277.875)"/><path d="m0 0 3.988 7.764 5.749-2.956 15.634 30.427-5.749 2.953 3.989 7.761L45.81 34.542l-3.988-7.761-4.824 2.478-5.177-10.075 12.52-6.434 5.177 10.075-4.658 2.393 3.989 7.764L70.883 21.66l-3.989-7.764-5.747 2.953-15.634-30.424 5.747-2.953-3.989-7.764L25.238-12.97l3.988 7.764 4.658-2.393 6.451 12.553-12.521 6.432-6.45-12.551 4.824-2.478-3.989-7.764z" style="fill:#fff;fill-opacity:1;fill-rule:nonzero;stroke:none" transform="translate(364.632 248.3)"/><path d="m0 0 2.503 8.361 5.941-1.778 9.813 32.767-5.941 1.781 2.503 8.361 43.62-13.063-4.698-15.69-9.465 2.834 2.196 7.329-15.336 4.593-3.42-11.423 12.382-3.707-2.503-8.361-12.382 3.707-3.889-12.986L36.66-1.868l2.215 7.403 9.464-2.836-4.719-15.762Z" style="fill:#fff;fill-opacity:1;fill-rule:nonzero;stroke:none" transform="translate(422.845 219.964)"/><path d="m0 0 .427 17.6 8.763-.215q.03-4.828 2.352-7.169 2.32-2.343 5.365-2.418 2.375-.056 4.05 1.555c1.115 1.075 1.694 2.357 1.728 3.842q.059 2.375-1.499 4.028-1.558 1.656-5.746 3.821-8.857 4.533-11.979 7.921Q.341 32.353.478 37.97q.163 6.767 4.486 10.386 4.324 3.614 9.708 3.484c4.109-.098 7.25-1.781 9.425-5.039l.106 4.288 8.724-.212-.382-15.706-8.724.212q-.323 3.648-2.371 5.687-2.05 2.037-4.834 2.104-2.154.052-3.667-1.062-1.514-1.116-1.558-2.971-.039-1.596 1.152-3.057 1.19-1.456 7.074-4.227 5.661-2.686 8.67-4.824a14.94 14.94 0 0 0 4.71-5.469q1.698-3.334 1.594-7.644-.187-7.656-4.736-11.41-4.549-3.757-10.638-3.608-6.794.162-10.348 5.285L8.762-.212Z" style="fill:#fff;fill-opacity:1;fill-rule:nonzero;stroke:none" transform="translate(515.226 200.007)"/><path d="m0 0-1.221 8.642 6.401.905L.395 43.418l-6.4-.905-1.22 8.642 24.714 3.489 1.22-8.642-5.37-.756 1.584-11.216 13.938 1.966-1.584 11.219-5.185-.732-1.22 8.642L45.4 58.587l1.221-8.642-6.4-.902 4.784-33.871 6.4.905 1.22-8.642L28.097 3.97l-1.22 8.642 5.184.732-1.974 13.976-13.938-1.969 1.974-13.976 5.37.759 1.221-8.642z" style="fill:#fff;fill-opacity:1;fill-rule:nonzero;stroke:none" transform="translate(560.42 199.063)"/><path d="M0 0q-5.585-2.033-7.952-7.636-2.371-5.605.575-13.7Q-4.776-28.492.626-31.39q5.399-2.897 11.089-.828 5.585 2.03 7.965 7.658 2.38 5.627-.501 13.551c-1.72 4.723-4.354 8.098-7.91 10.125Q5.933 2.158 0 0m-3.224 8.865q12.566 4.569 22.413-.072 9.848-4.637 13.644-15.074 3.807-10.47-.785-20.341c-3.059-6.58-8.77-11.388-17.123-14.426q-13.02-4.734-22.707.18-9.693 4.911-13.347 14.965-3.782 10.401.743 20.288 4.527 9.883 17.162 14.48" style="fill:#fff;fill-opacity:1;fill-rule:nonzero;stroke:none" transform="translate(638.69 259.871)"/><path d="m0 0-4.479 7.493 6.665 3.98-17.547 29.366-6.662-3.983 6.171-10.33-7.62-4.553-10.648 17.823L6.082 63.817l10.65-17.82-7.525-4.498-6.172 10.33-6.853-4.094 17.544-29.363 6.663 3.98 4.479-7.49z" style="fill:#fff;fill-opacity:1;fill-rule:nonzero;stroke:none" transform="translate(698.01 239.108)"/><path d="m0 0-11.224 13.562 6.753 5.588q3.192-3.626 6.48-3.869 3.287-.245 5.635 1.696 1.83 1.516 2.036 3.831.207 2.315-1.216 4.033-1.515 1.83-3.775 2.057-2.262.227-6.844-.887-9.657-2.39-14.235-1.881t-8.159 4.837q-4.317 5.217-3.429 10.784.892 5.563 5.039 8.998 4.752 3.93 10.42 2.38l-2.733 3.303 6.724 5.567L1.488 47.894l-6.726-5.564q-2.635 2.544-5.516 2.736-2.886.194-5.031-1.582-1.66-1.373-2.07-3.208t.772-3.263c.68-.823 1.637-1.338 2.877-1.553q1.854-.319 8.111 1.452 6.035 1.687 9.709 2.048a14.9 14.9 0 0 0 7.14-1.04q3.47-1.397 6.22-4.72 4.88-5.9 3.914-11.721-.97-5.819-5.663-9.7Q9.986 7.444 3.948 8.977l2.805-3.389Z" style="fill:#fff;fill-opacity:1;fill-rule:nonzero;stroke:none" transform="translate(739.791 265.725)"/></g></svg>