<?xml version="1.0" encoding="UTF-8"?>
<svg id="Layer_2" data-name="Layer 2" xmlns="http://www.w3.org/2000/svg" viewBox="0 0 595.28 595.28">
  <defs>
    <style>
      .cls-1 {
        fill: #a2cee2;
      }

      .cls-1, .cls-2, .cls-3, .cls-4, .cls-5, .cls-6, .cls-7, .cls-8, .cls-9 {
        fill-rule: evenodd;
      }

      .cls-1, .cls-10 {
        stroke: #231f20;
      }

      .cls-1, .cls-10, .cls-11 {
        stroke-miterlimit: 22.93;
        stroke-width: .22px;
      }

      .cls-2 {
        fill: #bcbdb9;
      }

      .cls-2, .cls-3, .cls-4, .cls-5, .cls-6, .cls-12, .cls-7, .cls-8, .cls-9 {
        stroke-width: 0px;
      }

      .cls-3 {
        fill: #b2723f;
      }

      .cls-4 {
        fill: #e63c26;
      }

      .cls-5 {
        fill: #8f8e7f;
      }

      .cls-6 {
        fill: #a88a4b;
      }

      .cls-12, .cls-7 {
        fill: #231f20;
      }

      .cls-8 {
        fill: #f4e469;
      }

      .cls-9 {
        fill: #fff;
      }

      .cls-10, .cls-11 {
        fill: none;
      }

      .cls-11 {
        stroke: #fff200;
      }
    </style>
  </defs>
  <g id="Layer_1-2" data-name="Layer 1">
    <g>
      <polygon class="cls-9" points="0 0 595.28 0 595.28 595.28 0 595.28 0 0 0 0"/>
      <path class="cls-7" d="M425.77,324.14c14.66,7.77,17.22,17.75,21.8,24.43,3.13,4.56,7.84,7.09,14.07,6.94,5.49-.13,11.49-1.41,15.76.96,5.53,3.06,9.99,10.92,20.36,15.09-10.53,6.5-13.65,12.03-23.29,8.01-2-.83-3.85-3.55-6.54-5-.59-.32-3.01-.2-3.11,2.18-.07,1.8,2.45,3.7,3.1,3.86,13.85,3.2,16.15,9.12,25.24,29.17-7.22-1.89-15.93,4.79-26.87-.56-3.74-1.83-7-7.55-8.12-12.66-.38-1.71-1.94-2.07-2.72-1.96-1.35.19-1.18,2.44-1.15,2.82.34,3.78,5.04,5.18,2.48,11.94-2.32,6.13-12.57,8.65-15.53,16.51-6.37-8.05-12.24-15.52-13.22-21.9-1.05-6.79-1.39-9.62,2.32-17.32,3.36-6.98,2.9-9.94.45-17.52-.85-2.64-2.54-8.09-2.17-11.74.51-5,2.68-8.15,1.78-12.57-1.37-6.76-7.55-12.73-10.67-17.66,1.82-.38,4.21-2.64,6.02-3.02h0Z"/>
      <path class="cls-4" d="M440.91,422.2c4.13-6.15,12.23-8.88,14-13.56,2.21-5.82-2.18-6.29-2.6-11.05-.19-2.07.42-4.64,2.86-4.99,2.32-.33,4.46,1.24,4.97,3.51.81,3.66,3.5,9.55,7.04,11.29,8.91,4.35,15.63-.03,22.73-.04-3.03-6.91-7.26-16.47-12.31-20.47-2.93-2.33-6.52-3.5-10.12-4.33-2.18-.5-4.75-3.6-4.66-5.89.12-3.06,3.46-5.26,6.06-3.86,2.23,1.2,4.72,4.23,6.36,4.91,2.29.95,4.68,1.57,7.14.97,2.98-.73,7.64-4.2,11.32-6.8-3.41-1.81-6.37-4.1-9.3-6.81-2.35-2.17-5.21-5.31-7.98-6.85-3.7-2.05-10.57-.81-14.74-.7-6.53.16-12.06-2.41-15.77-7.82-2.59-3.77-4.42-7.99-7.1-11.78-3.56-5.02-7.91-8.67-13.25-11.61-.86.36-1.81,1.06-2.83,1.69,3.7,5.22,8.31,9.81,9.65,16.42,1,4.93-1.27,8.46-1.75,13.17-.32,3.15,1.1,7.88,2.09,10.92,2.54,7.84,3.12,11.38-.55,19-3.25,6.75-3.25,9.01-2.15,16.14.87,5.65,6.68,13.25,10.89,18.55h0Z"/>
      <path class="cls-7" d="M424.62,325.86c4.2,4.55,7.1,8.78,9.85,13.81,2.69,4.9,5.1,11.5,7.07,17.66,1.38,4.31.03,11.32-1.86,15.95-.75,1.82.55,2.33,1.54,1.04,1.26-1.63,2.76-4.6,3.91-6.9.52,3.38.95,8.85.28,12.97-1.73,10.59-4.81,13.55-5.74,20.56-.41,3.14.49,7.9,1.73,11.98.18.6,1.3.35,1.29-.28-.04-3.65-1.51-7.97-.88-11.22,1-5.09,3.31-8.7,5.1-13.81,1.31-3.73,1.96-7.46,2.66-11.18,2.13,3.14,4.68,7.15,7.36,9.58,4.4,3.99,10.4,3.74,15.1,6.96,3.89,2.67,5.28,9.74,9.66,11.97.94.48,1.22-.59.86-.93-3.3-3.15-5.01-9.63-8.86-12.91-5.28-4.49-12.29-2.6-16.74-9.52-2.35-3.66-6.49-12.2-7.6-16.37,2.32.9,5.3.68,7.63.15,3.9-.89,7.89-2.11,11.74-1.56,3.95.57,7.37,2.73,11.96,6.87,1.33,1.2,1.91-.34,1.15-1.08-3.58-3.47-8.13-7.47-13.04-8.08-4.4-.55-9.98,1.43-14.41,1.13-2.32-.15-5.35-1.46-7.18-2.95-2.35-1.92-4.04-7.98-5.72-11.54-3.98-8.43-7.31-16.73-14.86-22.88l-2.01.58h0Z"/>
      <path class="cls-7" d="M165.62,320.98c-14.66,7.77-14.63,20.62-19.22,27.3-3.13,4.56-8.99,5.66-15.21,5.51-5.49-.13-11.49-1.12-15.76,1.24-5.53,3.07-9.99,11.78-20.36,15.95,10.53,6.5,13.65,10.89,23.29,6.86,2-.83,3.85-3.55,6.54-5,.59-.32,3.01-.2,3.11,2.18.07,1.8-2.45,3.7-3.1,3.86-13.85,3.2-21.89,8.84-23.23,31.18,7.22-3.33,17.65-.1,24.86-3.43,3.78-1.75,6.99-6.68,8.12-11.8.38-1.71,1.94-2.07,2.72-1.96,1.35.19,1.19,2.44,1.15,2.82-.34,3.78-4.68,5.05-2.48,11.94,2.32,7.28,14.87,10.38,15.53,19.38,5.8-9.77,7.64-15.52,8.63-21.91,1.05-6.79.53-11.91-3.18-19.62-3.36-6.98,1.98-13.68,4.43-21.25.86-2.65,1.97-6.07,1.6-9.73-.51-5-2.68-10.44-1.78-14.87,1.38-6.76,7.27-11.01,10.38-15.93-1.82-.38-4.21-2.35-6.02-2.73h0Z"/>
      <path class="cls-6" d="M168.6,324.58c-.96-.53-1.87-1.12-2.74-1.44-5.44,3.05-9.1,7.09-11.81,12.77-2.03,4.25-3.38,9.72-5.99,13.51-3.78,5.5-10.72,6.53-16.92,6.38-4.24-.1-10.96-1.1-14.74.99-2.72,1.51-5.68,5-7.93,7.23-2.9,2.89-5.86,5.35-9.33,7.25,3.47,2.35,7.79,5.29,10.77,5.92,2.65.56,5.24-.18,7.67-1.19,1.63-.68,4.13-3.71,6.36-4.91,2.6-1.39,5.94.8,6.06,3.86.09,2.29-2.47,5.39-4.66,5.89-15.74,3.64-20.14,11.33-21.46,26.34,7.26-1.8,15.64.47,21.8-2.37,3.62-1.67,6.18-6.65,7.01-10.41.5-2.28,2.64-3.85,4.96-3.51,2.45.35,3.05,2.92,2.87,4.99-.43,4.77-4.5,5.1-2.57,11.15,1.77,5.55,10.63,8.42,14.18,14.95,2.95-5.44,5.09-10.71,6.09-17.17,1.1-7.14.16-11.87-3.01-18.44-3.83-7.96,1.94-15.37,4.33-22.74.93-2.88,1.82-5.84,1.51-8.91-.51-5-2.77-10.46-1.75-15.47,1.35-6.65,5.74-9.95,9.3-14.66h0Z"/>
      <path class="cls-7" d="M167.5,323.57c-4.21,4.55-7.53,6.63-10.28,11.65-2.68,4.9-4.67,13.66-6.64,19.81-1.38,4.31.26,9.46,2.15,14.08.75,1.82-.55,2.33-1.54,1.04-1.26-1.62-2.9-6.32-4.05-8.62-.52,3.38-1.09,10.72-.42,14.84.66,4.04,3,8.41,4.26,14.76.76,3.82-.37,8.22-.45,12.18-.07,3.49,1.41,6.65.77,8.76-.18.6-1.3.35-1.29-.28.02-2.12-1.75-5.03-1.9-8-.25-4.94.34-10.16-.68-14.19-.66-2.64-1.76-5.77-2.63-8.32-.81,1.46-1.82,3.16-3.27,4.48-.87.79-1.67.04-1.81-.38-.35-1.11,1.48-2.71,2.26-5.12.83-2.56.6-5.97.14-8.41-2.13,3.14-5.11,8.88-7.79,11.31-4.4,3.99-8.83,4.6-13.52,7.83-3.89,2.67-3.13,9.02-7.51,11.25-.94.48-1.22-.59-.86-.93,3.3-3.15,2.86-9.77,6.71-13.05,5.27-4.49,10.42-2.89,14.87-9.8,2.35-3.66,8.64-12.91,9.75-17.08-1.33.43-2.48,1.15-3.59,1.39-2.23.49-5.69,4.2-6.12,7.19-.25,1.75-1.53,1.37-1.53-.49,0-.64.59-4.35,2.6-6.37-3.89-.88-7.38-1.03-11.23-.48-3.95.57-7.73,6.25-12.47,5.79-1.78-.17-1.31-.94-.29-1.22,4.87-1.31,7.99-6.61,12.89-7.22,4.4-.55,9.27.7,13.7.41,4.65-.3,9.62-4.59,10.75-8.96.84-3.23,2.18-7.2,2.86-9.55,2.65-9.09,5.37-14.48,14.15-18.86l2.01.58h0Z"/>
      <path class="cls-7" d="M91.34,247.42c-3.48,10.86-.79,21.77-1.65,31.37-.91,10.16-4.28,17.01-9.25,18.62-6.69,2.18-13.67-1.53-19.51-8.04-3.95,10.86-2.49,23.49,4.21,30.11,1.62,1.61,3.56,2.86,5.8,3.64,9.53,3.34,16.86-2.82,21.4-11.06.12-.21.58-.05.22.38-6.95,8.28-7.84,13.37-8.15,14.81-1.74,7.93,1.29,14.56,1.76,22.18,6.88-4.89,23.26-4.87,24.52-24.14.05-.69.86-.22.67.41-5.19,16.97,7.12,22.13,10.95,28.62,6.5-5.75,10.42-16.09,9.47-22.99,3.63,4.02,8.03,13.22,8.6,21.26,8.08-11.06,8.08-21.5,5.45-31.03,2.95.98,9.55-.33,12.66,1.53,3.76,2.24,6.21,6.39,9.13,11.69,4.27-20.52,2.52-33.97-10.7-37.37-1.01-.26-2.83-.58-4.54-.51-1.93.07-3.78.56-5.27.67-2.02.15-2.93-3.52.43-3.45,4.78.1,8.6-1.01,11.76-2.38,6.96-3.02,10.33-9.05,11.18-16.44-9.86-2.51-17.78-1.85-24.26,3.64-1.81,1.54-4.11,3.52-5.57,5.84-.23.37-1.81,1.58-2.77.34-.52-.68-.16-2.08.33-2.35,1.88-1.03,3.51-2.23,4.91-3.54,6.03-5.7,7.58-13.73,5.56-21.74-5.84.97-10.81,2.7-14.09,6.56-5.46,6.44-7.85,15.04-15.17,13.84-8.43-1.38-8.89-17.15-10.9-30.17l-17.21-.29h0Z"/>
      <path class="cls-4" d="M87.77,315.4c.41-.59.83-1.16,1.26-1.73.56-.83,1.08-1.69,1.56-2.57,1.52-2.75,5.73,0,3.51,2.64-.62.74-1.23,1.5-1.81,2.27-.41.61-.84,1.2-1.29,1.78-2.18,3.14-3.81,6.16-4.63,9.9-1.37,6.24.59,12.3,1.47,18.46,3.7-1.82,8.13-3.02,11.68-5.12,6.15-3.63,8.71-8.81,9.17-15.87.24-3.67,5.65-2.34,4.59,1.13-1.81,5.92-1.75,11.32,1.83,16.51,2.1,3.05,5.2,5.57,7.48,8.42,4.54-5,8.08-13.29,7.2-19.62l-.9-6.46,4.37,4.84c3.69,4.09,6.78,10.94,8.25,17.11,4.27-7.8,4.9-15.87,2.38-25l-1-3.62,3.57,1.19c3.64,1.21,8.88-.78,13.06,1.71,3,1.79,5.26,4.68,7.16,7.74,1.96-11.35,2.7-26.42-10.25-29.75-1.22-.31-2.7-.5-3.96-.45-1.76.07-3.46.53-5.2.66-4.76.35-5.83-7.58.32-7.46,3.85.08,7.4-.69,10.92-2.22,5.75-2.5,8.68-7.24,9.73-13.07-7.32-1.61-14.63-1.51-20.71,3.65-1.84,1.56-3.88,3.33-5.18,5.38-1.3,2.05-4.5,2.49-6.05.49-1.16-1.51-.78-4.38.95-5.33,1.63-.89,3.15-1.97,4.5-3.24,5.07-4.79,6.56-11.35,5.39-17.96-4.09.84-8.26,2.31-11.01,5.54-4.7,5.53-8.15,15.98-17.02,14.52-.98-.16-1.92-.48-2.79-.96-7.31-4.05-8.4-20.51-9.53-29.21l-13.97-.23c-2.69,9.93-.24,19.51-1.14,29.52-.62,6.93-2.98,17.86-10.63,20.35-7.19,2.34-14.01-1.27-19.2-6.13-2.08,8.28-1.43,18.81,4.69,24.87,1.44,1.43,3.14,2.5,5.05,3.18,6.64,2.33,12.05-.61,16.16-5.84h0Z"/>
      <path class="cls-7" d="M96.79,247.13c.42,6.68-.2,13.27.6,19.69.84,6.83,3.05,13.5,1.99,20.54-1.62,10.66-11.39,17.82-18.07,17.53-.86-.04-1.58,1.87-.72,1.87,5.21.01,9.07-1.34,12.14-3.43,3.7-2.52,6.97-8.12,9.37-11.66.47,4.92,3.01,10.6,3.29,15.49.39,6.93-1.18,13.76-4,19.85-.28.6.78,1.12,1.15.57,3.63-5.36,5.13-11.53,5.35-17.85.21-5.93-2.44-12.72-2.06-17.64,7.32,4.09,11.66,14.86,13.43,25.81.86,5.35.68,10.75.77,15.43,0,.47,1.36.47,1.44,0,2.21-14.17-.83-26.45-5.59-36.35,4.57,1.88,9.59,3.53,14.09,5.96,3.97,2.14,7.84,6.53,12.01,8.55.61.29,1.53-.73,1-1.15-3.67-2.9-6.37-5.82-10.28-8.54-6.52-4.52-21.1-7.6-24.28-15.45,3.15,2.59,5.9,3.14,9.73,3.09,3.83-.05,8.75-1.85,11.63-5.1.45-.5-.28-1.34-.86-1-3.14,1.81-5.79,3.46-8.49,3.87-5.94.91-11.04-1.95-14.36-6.61-2.19-3.09-4.15-6.93-5.17-12.14-1.09-5.55-.59-12.64-.09-20.75-1.34-.19-2.68-.38-4.02-.58h0Z"/>
      <path class="cls-7" d="M501.87,248.57c3.48,10.86,3.66,21.48,4.51,31.09.91,10.16,3.42,18.45,8.39,20.06,6.69,2.18,12.81-2.68,17.5-9.2,3.95,10.86,2.25,23.42-4.07,30.4-5.01,5.53-17.24,8.9-24.82-6.29-.14-.29-1.5-1.86-2.53-.89-.8.76.23,2.4.44,2.63,2.94,3.33,7.01,9.03,8.48,15.65,1.14,5.15.54,12.25-4.04,24-3.26-12.7-21.88-10.95-22.76-27.97-.04-.85-1.9-.73-1.76.1,2.25,14.18-6.31,20.5-10.33,27.3-6.5-5.75-9.56-14.66-9.03-24.86-5.64,3.88-6.74,13.51-7.31,21.55-10.66-9.05-14.67-21.79-8.03-31.46-9.56-.58-15.58,5.12-20.94,14.8-2.98-19.94-2.52-33.54,10.7-36.94,1.01-.26,2.83-.58,4.54-.51,1.93.07,3.78.56,5.27.67,2.02.15,2.93-3.52-.43-3.45-4.78.1-9.32,1.14-12.48-.23-6.96-3.02-8.18-7.04-10.03-15.58,9.86-2.51,15.06-5.72,21.53-.24,1.81,1.54,4.11,3.53,5.57,5.84.23.37,1.81,1.58,2.77.34.52-.68.16-2.08-.33-2.35-1.88-1.03-2.94-2.23-4.33-3.54-6.03-5.7-7-13.01-4.99-21.03,5.84,3.41,12.96,4.14,16.24,8,5.46,6.43.69,15.53,13.73,14.27,6.07-.59,13.45-8.04,16.79-17.7,1.8-5.2,1.32-12.61,1.42-17.65l10.33,3.16h0Z"/>
      <path class="cls-6" d="M505.53,350.75c1.97-5.86,3.53-12.67,2.29-18.28-1.2-5.39-4.41-10.65-8.03-14.76-1.24-1.41-1.84-3.96-.31-5.41,1.84-1.75,4.71-.53,5.7,1.44,2.34,4.69,6.13,9.37,11.74,9.81,3.58.28,7.4-1.32,9.8-3.97,5.7-6.3,6.68-16.48,4.73-24.79-4.4,5-10.43,9.07-17.29,6.84-7.43-2.42-9.19-15.26-9.77-21.79-.91-10.16-1.15-19.82-4.12-29.66l-6.74-2.06c0,5.19.13,10.83-1.51,15.6-2.6,7.52-9.77,18.2-18.49,19.04-3.74.36-8.01.16-10.48-3.11-2.61-3.46-1.97-8.31-4.98-11.86-2.11-2.48-8.77-4.43-13.28-6.37-1.07,6.22,0,11.99,4.94,16.64,1.29,1.21,2.34,2.38,3.92,3.24,1.74.96,2.12,3.82.95,5.33-1.54,2-4.75,1.57-6.05-.49-1.3-2.05-3.34-3.82-5.17-5.38-5.4-4.58-11.84-1.7-17.88.13,1.23,5.68,2.35,9.66,8.47,12.32,2.58,1.12,8.67.13,11.64.06,6.15-.13,5.08,7.81.32,7.46-1.74-.13-3.44-.6-5.2-.66-1.26-.05-2.74.13-3.96.45-2.59.67-4.94,1.84-6.73,3.86-4.9,5.53-4.31,16.85-3.26,25.34,4.66-6.72,10.73-11.56,19.85-11l3.54.21-2.01,2.92c-6,8.74-1.86,18.94,4.73,25.99.7-6.93,2.34-15.09,7.83-18.86l3.35-2.3-.21,4.06c-.4,7.77,1.38,15.81,6.68,21.6,2.01-2.9,4.36-5.58,6.12-8.71,2.72-4.84,3.45-9.63,2.58-15.12-.57-3.61,5.57-4.15,5.75-.51.7,13.63,14.54,13.99,20.55,22.79h0Z"/>
      <path class="cls-7" d="M497.35,247.99c1.16,6.11,1.34,10.11.55,16.53-.47,3.84-2.5,9.87-3.49,14.02-.77,3.23-.69,6.61-.22,9.68,1.61,10.66,7.09,18.39,13.77,18.1.85-.04.43,1.63-.43,1.58-9.92-.55-13.83-8.8-16.06-15.37-.47,4.92-.43,11.46-.7,16.36-.23,4.22.11,10.13,2.64,14.73,1.62,2.95,4.03,5.15,7.24,7.13.56.35-.51.73-1.15.57-2.74-.65-6.03-3.3-7.95-6.7-2.79-4.96-3.6-11.51-3.43-15.75.24-5.93.14-13.44-.24-18.36-6.89,5.38-12.38,16.44-14.15,27.39-.86,5.35-.11,7.44-.2,12.12,0,.47-1.36.47-1.44,0-.76-4.87-.35-8.62-.23-11.84.22-6.15,1.26-10.39,4.39-16.89-4.57,1.88-11.6,2.1-16.09,4.52-3.97,2.14-8.99,5.67-13.16,7.69-.6.29-1.53-.73-1-1.15,3.66-2.9,7.52-4.96,11.43-7.68,6.51-4.52,20.81-3,25.43-15.74-4.86,4-17.23,4.61-20.94.43-.44-.5.28-1.34.86-1,3.57,2.06,7.8,2.31,11.63,1.66,4.94-.83,10.87-3.72,14.51-8.86,2.19-3.08,4.01-8.94,5.03-14.15,1.09-5.55,1.88-10.62.38-18.74,1.34-.19,1.67-.1,3.01-.29h0Z"/>
      <path class="cls-7" d="M422.01,247.14c17.44-7.85,26.98-8.78,36.12-3.55,8.06,4.62,17.61,16.22,12.11,33.45,8.04-.94,17.12-4.76,20.57-9.75,3.04-4.4,3.44-10.6,3.62-15.29.08-2.14,2.63-1.08,2.87.34.9,5.29,3.69,8.45,6.96,10.48,4.78,2.98,13.13,3.28,17.3,9.51,4.64-13.3,2.6-20.88-5.2-26.61-.95-.7-2.35-1.07-3.74-1.3-.83-.13-1.67-1-1.54-1.55.17-.71,1.57-1.04,2.68-.17.83.66,7.17,3.5,7.76,3.66,5.84,1.61,10.52-1.61,16.42-.94-4.99-17.41-21.01-19.77-37.64-16.46-.37.07-.95-.52-.99-1.03-.04-.51.77-.94,1.13-.83,2.06.6,4.21.98,6.22.85,7.9-.53,15.89-8.94,17.25-21.18-5.04,3.29-11.56,3.13-16.08,2.37-9.26-1.56-18.16-6.84-27.62-4.86-5.94,1.24-15.91,6.66-24.58,20.4-13.36,5.34-19.69,7.38-33.04,12.72.76,2.48-1.34,7.26-.58,9.74h0Z"/>
      <path class="cls-4" d="M535.13,243.39c-5.63-14.25-20.52-15.24-34.45-12.47-1.68.33-3.26-1.24-3.38-2.85-.13-1.87,1.94-3.41,3.69-2.9,1.75.51,3.7.89,5.53.77,7.72-.52,12.79-8.38,14.69-15.63-4.34,1.54-9.24,1.55-13.71.8-8.65-1.45-18.09-6.71-26.88-4.88-9.56,2-18.35,11.67-23.3,19.51l-.35.55-.6.24c-10.49,4.2-21.12,7.99-31.62,12.15,0,1.79-.52,3.76-.79,5.38,11.35-4.93,23.61-8.83,35.15-2.23,11.94,6.84,16.74,19.79,13.86,32.71,5.83-1.2,13.18-4.08,16.17-8.41,2.7-3.91,3.09-9.63,3.27-14.23.18-4.59,6.2-3.71,6.85.08.68,4,2.6,6.97,6.04,9.11,2.37,1.48,5.88,2.35,8.53,3.36,2.55.97,4.9,2.15,6.87,3.88,2.33-8.13,2.16-15.37-5.55-21.03-.72-.53-2.01-.79-2.88-.94-1.77-.29-3.61-2.09-3.16-3.99.62-2.61,4.01-2.75,5.86-1.29,1.2.84,5.64,2.82,7.06,3.31,4.09,1.13,8.56-.68,13.09-1.03h0Z"/>
      <path class="cls-7" d="M453.01,227.37c4.61-.63,9.32-.02,11.39,3.43,1.25,2.07,1.13,5.39.65,9.43-.09.75,1.49.76,1.58,0,.47-3.91,1.3-8.12-.58-12.21,7.53,1.18,13.55,8.4,15.1,15.25.93,4.11.77,8.76-.19,13.78-.14.71,1.2.83,1.43.14,1.39-4.12,2.03-9.25.86-14.27-1.24-5.35-4.46-10.58-8.39-14.39,5.61,1.71,7.8,5.8,13.16,8.29,5.71,2.64,13.15-2.19,21.04.48.64.21.79-1.18.14-1.36-9.99-2.8-13.92,1.55-20.09-1.13-4.31-1.87-10.84-9.13-15.76-10.79,2.36-1.7,5.99-5.82,10.43-6.55,4.78-.79,10.85,2.83,16.35,2.97,4.27.11,7.66-1.42,10.94-3.1.9-.46.62-1.91-.14-1.51-3.91,2.08-8.1,3.05-12.06,2.4-5.42-.89-10.4-4.36-15.16-3.41-7.5,1.5-12.56,8.35-20.01,9.75-2.23.42-4.47-.87-6.69-.41l-4.02,3.23h0Z"/>
      <path class="cls-7" d="M171.26,241.97c-17.72-6.13-30.71-5.77-39.84-.53-8.07,4.62-15.03,17.38-9.81,33.02-8.04-.94-14.68-5.04-18.13-10.04-3.05-4.4-4.1-10.6-3.76-15.29.06-.85-1.25-.94-1,.48.83,4.72-3.55,9.45-6.81,11.49-4.78,2.98-13.13.98-17.3,7.21-5.21-13.3-2.46-19.73,5.63-25.03.99-.65,2.35-1.07,3.74-1.3.83-.14,1.67-1,1.54-1.55-.17-.71-1.57-1.05-2.68-.17-.88.7-1.63,1.46-2.57,2.07-1.93,1.26-4.22,2.18-6.91,2.45-4.55.46-11.81-2.48-15.99-2.23,4.99-17.41,21.01-19.77,37.64-16.46.37.07.95-.52.99-1.03.04-.51-.77-.94-1.13-.83-2.06.6-4.21.98-6.22.85-7.9-.53-14.75-6.93-16.11-19.16,5.04,3.29,9.83,3.13,14.36,2.37,9.27-1.56,17.01-6.84,26.47-4.86,5.94,1.24,12.47,3.5,21.14,17.24,13.36,5.34,24.85,8.53,38.21,13.87-.76,2.48-.67,4.96-1.43,7.44h0Z"/>
      <path class="cls-6" d="M170.34,235.75c-12.09-4.73-24.54-8.41-36.6-13.24l-.6-.24-.35-.55c-5.15-8.16-10.16-14.32-19.85-16.35-8.7-1.82-17.23,3.45-25.73,4.88-4.34.73-8.22.72-12.02-.72,1.67,6.82,5.88,13.02,13.57,13.54,1.83.12,3.77-.26,5.53-.77,1.75-.51,3.82,1.03,3.69,2.9-.11,1.61-1.7,3.18-3.38,2.85-13.98-2.78-28.93-1.78-34.51,12.62,4.38.56,9.12,2.51,13.04,2.11,2.18-.22,4.19-.94,6.02-2.14.85-.56,1.62-1.33,2.42-1.96,1.85-1.47,5.26-1.34,5.88,1.27.45,1.91-1.39,3.7-3.16,4-.96.16-2.15.46-2.97,1-8.16,5.35-8.64,11.47-5.97,19.59.84-.67,1.78-1.23,2.81-1.68,3.83-1.69,9.7-1.61,12.66-3.46,2.81-1.75,6.53-5.81,5.9-9.44-.77-4.39,5.26-4.49,4.98-.68-.33,4.56.78,10.2,3.41,14.01,3.1,4.48,8.36,7.4,13.69,8.65-2.72-11.83.48-25.86,11.61-32.24,11.83-6.78,26.9-4.37,39.38-.33.2-1.19.32-2.4.54-3.61h0Z"/>
      <path class="cls-7" d="M140.26,224.5c-4.61-.63-10.25-.3-11.25,1.99-.96,2.21-1.27,3.6-.65,7.06.13.74-1.04,1.5-1.29.79-.83-2.33-1.73-5.39.14-9.48-7.94,3.76-15.39,13.25-13.2,24.71.13.71-1.3.85-1.43.14-1.93-10.42-.57-16.35,7.24-23.92-5.61,1.71-9.23,5.66-14.6,8.14-5.71,2.64-13.15-2.19-21.04.48-.64.21-.79-1.18-.14-1.36,9.99-2.8,13.92,1.55,20.09-1.13,4.31-1.87,10.84-9.13,15.76-10.79-2.36-1.7-5.99-5.82-10.43-6.56-4.78-.79-10.85,2.83-16.35,2.97-4.27.11-6.15-.77-9.43-2.45-.9-.46-.62-1.91.14-1.51,3.9,2.08,6.6,2.4,10.55,1.75,5.42-.89,10.4-4.36,15.16-3.41,7.5,1.5,12.56,8.35,20.01,9.75,2.23.42,4.47-.87,6.69-.41l4.02,3.23h0Z"/>
      <path class="cls-7" d="M464.1,121.88c3.68-5.14,8.51-11.21,12.19-24.97,19.02-2.06,13.16-15.89,22.11-25.17-7.69-.82-12.53-1.25-20.79,3.63-.22-7.56-6.68-12.44-10.93-13.85-4.82-1.6-10.96-1.56-15.55-3.31,1.01,5.59-1.96,14.22,5.32,18.67-10.69-.29-14.98,6.38-11.43,17.54,2.88-2.32,3.33-2.67,5.58-3.52,4.84-1.84,9.18,1.06,10.35,9.83.61,4.59.14,9.23-.86,16.95,1.27,1.4,2.73,2.8,4,4.19h0Z"/>
      <path class="cls-4" d="M463.87,118.73c5.12-7.36,7.96-12.93,10.48-22.34l.36-1.33,1.37-.15c15.94-1.73,12.32-12.28,18.51-21.61-4.28-.54-7.63-.33-11.69,1.37-1.35.57-3.56,1.96-5.12,3.28-1.2,1.02-2.38,1.3-2.43-1.42-.03-1.73-.44-4.41-1.19-5.89-1.77-3.51-4.95-6.18-8.1-7.22-4.06-1.34-8.48-1.45-12.68-2.44.09,5.22-.97,11.08,4.13,14.19,1.32.81,3.38,2.83,3.63,4.65.15,1.07.37,1.79-.37,1.86-1.44.15-1.23-.63-1.65-1.35-.42-.73-1.46-1.4-2.71-1.44-9.02-.25-11.7,4.76-10.21,12.08,1.06-.75,2.11-1.34,3.7-1.94,8.19-3.11,12.14,4.61,13.05,11.44.71,5.36-.04,11.16-.74,16.54.55.58,1.11,1.15,1.66,1.72h0Z"/>
      <path class="cls-7" d="M461.01,66.62c1.73,3.74,7.22,3.44,7.9,7.18.94,5.12.93,10.68.87,16,1.5-3.21,3.72-5.79,7.85-3.98,3.88,1.7,9.34-6.06,11.03-8.76.76-1.21,2.07-.6,1.46.37-2.25,3.6-8.01,12.58-13.13,10.33-4.63-2.03-6.07,3.23-7.27,6.62-.13,4.08-1.56,12.8-2.9,16.76l-.17.78-1.76-.34.17-.78c1.26-4,2.4-11.39,2.53-14.84-2.06-5.61-7.73-16.54-14.37-9.59-.79.83-2.15-.08-1.16-1.11,6.53-6.84,12.45-.12,15.62,6.22.09-5.67.3-11.33-.72-16.92-.47-2.58-5.58-3.37-7.4-7.28-.48-1.05.85-1.97,1.45-.68h0Z"/>
      <path class="cls-7" d="M397,175.94c7.84,6.66,9.7,11.38,17.35,13.51,7.02,1.96,9.67-3.3,16.13-.15,4.08,1.99,6.67,5.71,7.8,11.07,2.06,9.85,1.06,24.63-17.41,29.66,0,3.64-.86,3.4-.86,7.04,8.77.71,20.01-2.46,25.3-6.33,15.12-11.06,15.88-19.28,25.47-27.29,13.52-11.29,25.72-5.7,33.84-33.76-3.92,1.96-8.75.93-15.78,4.17-2.69,1.24-5.87,5.68-7.72,8-1.79,2.25-4.47,1.92-5.19.33-1.01-2.23,3.44-6.5,6.49-8.01,3.45-1.71,6.37-2.62,9.29-4.06,3.87-1.9,8.84-8.91,11.76-18.68-4.88.81-10.17-2.2-17.78,1.15-5.26,2.32-10.91,16.04-14.34,13.22-.66-.54-1.19-1.48-.35-2.69,1.84-2.66,6.54-6.04,8.96-12.25,2.37-6.07,3.01-11.16,1.86-20.12-3.3,3.93-12.4,6.32-17.49,14.08-3.83,5.84-1.65,13.38-5.02,18.25-1.06,1.52-3.45,2.73-5.38.86-1.27-1.23-1.94-2.69-1.79-5.46.3-5.43,4.22-9.25,5.64-11.1,3.65-4.74,7.17-6.97,9.42-12.47,3.18-7.78-2.01-14.08,4.16-25.72-3.25.24-10.99.11-15.06,5.75-3.93,5.45-.33,10.82-3.44,11.07-2.9.23-4.74-8.18-3.56-13.8,1.18-5.62,3.54-11.35,8.15-15.51-6.33-2.17-13.42.73-17.99,4.58-4.16,3.51-6.71,8.2-6.96,18.7-3.84-5.05-7.11-6.44-12.33-7.9,3.25,9.77-.76,18.25,4.3,28.02,3.14,6.07,7.66,6.52,12.12,11.93.92,1.12,3.33,4.19,3.65,5.74,1.23,5.82-5.29,5.66-7.17,4.17-2.02-1.61-2.04-2.8-2.69-5.33-.66-2.54-1.7-6.01-3.47-8.46-3.13-4.33-9.08-7.47-14.48-11.06-.21,3.41-1.82,10.74.51,16.48,1.4,3.44,10.18,7.95,8.52,8.81-1.74.89-2.62-4-8.42-6.63-5.69-2.58-11.15-2.14-16.82-.41,5.26,7.81,5.42,12.73,11.9,16.52,4.31,2.52,9.99-.4,9.11,2.95-.34,1.3-1.79-1.84-8.25-2.23-3.73.19-3.87-.55-11.97,3.38h0Z"/>
      <path class="cls-6" d="M410.59,170.7c.46.06.91.14,1.36.23,2.9.27,8.51-.58,7.21,4.37-.17.65-.2,1.11-1.3,1.61-1.46.66-4.55-1.54-6.54-2.01-.49-.05-.97-.13-1.45-.24-.3-.04-.61-.06-.91-.08-4.28.22-5.35.45-8.42,1.89,4.42,4.3,8.4,9.39,14.35,11.05,6.2,1.72,9.29-3.53,16.48-.02,5.06,2.48,7.75,7.07,8.88,12.47,3.14,15.02-2.69,26.97-17.45,31.6-.15,1.27-.44,2.4-.62,3.6,7.04.06,16.73-2.22,21.95-6.04,8.4-6.14,11.79-11.03,17.79-19.03,2.29-3.05,4.65-5.73,7.58-8.18,5.56-4.64,10.69-6.28,16.86-9.46,8.56-4.41,12.41-11.2,15.23-19.71-1.29.25-2.6.41-3.88.61-2.85.45-5.38,1.11-8.01,2.32-2.22,1.02-5.43,5.47-6.99,7.43-2.23,2.79-6.96,3.5-8.59-.09-1.8-3.97,4.28-9.07,7.42-10.63,3.05-1.51,6.26-2.57,9.3-4.06,4.19-2.06,7.84-9.42,9.79-14.68-4.59-.11-8.24-1.8-14.12.79-4.69,2.07-10.76,17.58-16.42,12.93-1.71-1.4-1.99-3.56-.73-5.38,3.07-4.44,6.48-6.05,8.74-11.84,2.15-5.5,2.56-10.04,2.14-15.4-1.79,1.23-3.81,2.32-5.42,3.32-3.42,2.12-6.56,4.47-8.8,7.87-3.52,5.37-1.27,12.83-5.05,18.29-1.96,2.82-5.79,3.71-8.42,1.16-2.03-1.97-2.55-4.23-2.4-7.01.3-5.44,2.99-8.24,6.06-12.21,3.18-4.12,7.13-7.06,9.15-12,.63-1.54.9-3.09.97-4.74.12-2.97-.28-5.95-.15-8.97.14-3.2.79-6.13,1.93-8.98-3.87.38-7.71,1.24-10.17,4.65-2.88,4-.55,8.63-2.65,10.87-.6.64-1.4.95-2.26,1.02-6.05.48-6.55-12.07-5.68-16.21,1.06-5.02,2.95-9.86,6.15-13.82-4.59-.22-9.37,1.99-12.74,4.83-5.26,4.43-6.09,10.65-6.24,17.21l-.14,5.73-3.47-4.56c-2.56-3.37-4.74-4.93-7.92-6.12,1.45,8.22-.74,16.36,3.27,24.1,2.63,5.08,8.15,7.05,11.89,11.58,1.33,1.61,3.65,4.61,4.07,6.6,1.47,6.96-6.32,9.38-10.38,6.15-2.5-1.99-2.64-3.53-3.39-6.39-.66-2.54-1.6-5.64-3.16-7.79-2.41-3.33-7.16-6.27-11.16-8.77-.44,4.11-.95,8.27.67,12.26.42,1.04,2.36,2.63,3.23,3.33,1.67,1.35,6.44,4.14,5.51,6.72-.3.83-.54.98-1.16,1.3-.76.39-.66.38-1.51.32-1.81-.11-2.92-1.96-3.97-3.23-1.34-1.61-2.76-2.81-4.68-3.68-4.33-1.96-8.52-1.99-12.89-1,2.81,4.98,4.89,10.67,9.81,13.55.46.27.95.46,1.47.59h0Z"/>
      <path class="cls-7" d="M422.64,235.03c4.16-1.36,9.49-3.54,14.2-6.49,6.25-3.91,11.63-9.07,13.85-14.43.62-1.5,1.04-3.11,1.31-4.8,2.19-5.51,8.06-11.6,13.27-14.55,5.77-3.26,9.09-2.16,16.56-6.29,1.25-.69.54-1.52-.51-1.09-7.73,3.2-10.63,2.14-15.99,4.5-4.73,2.08-7.6,3.38-9.91,7.52,2.13-9.65,8.45-20.61,17.17-26.01,1.21-.75.12-1.79-.87-1.23-10.4,5.85-14.11,13.53-17.78,22.3l-.78-3.66c-2.29-10.76-4.08-21.79-5.41-32.71-.43-3.51-.44-7.02-.6-10.52-.15-3.43-1.03-3.88,1.79-5.77,7.24-4.86,9.93-9.03,13.49-17.21.46-1.05-.62-1.67-1.18-.35-3.71,8.53-6.34,11.82-14.36,16.61-.56-5.29-2.66-10.2-3.31-15.8-.53-4.64,0-9.84.29-14.23.07-1.14-.76-1.49-1.1-.11-1.57,6.32-1.06,10.37-.96,14.87.12,5.43,2.35,10.02,2.86,15.24-2.01-.98-3.41-1.39-5.04-2.45-5.24-3.4-10.01-6.94-11.27-14.23-.19-1.13-1.39-1.07-1.15.34,1.24,7.17,5.25,11.24,10.04,15.49,2.02,1.79,7.42,3.34,7.61,5.22.06.61.55,11.65.73,13.11,1.49,12.24,3.41,24.58,6.11,36.76-1.48-4.55-4.66-9.65-9.03-13.73-6.18-5.77-13.72-10.21-17.63-14.34-.78-.83-1.82.17-.87,1.23,7.65,8.52,19.6,14.31,23.73,24.44-3.68-5.6-9.56-8.54-13.37-10.4-5.26-2.57-7.55,0-14.7-.62-1.13-.09-1.89.74-.51,1.09,6.61,1.68,9.21-1.43,14.98,1.83,7.7,4.35,13.93,13.55,14.63,22.08.25,3.08.05,5.09-1.38,8.14-4.49,9.56-14.4,14.54-25.81,18.28l-.76.25.93,1.96.76-.25h0Z"/>
      <path class="cls-7" d="M129.72,120.35c-3.68-5.14-7.37-12.92-11.05-26.68-20.16-3.77-15.25-17.79-22.87-27.07,7.88,1.27,15.57-2.78,23.82,4.57.99-6.32,3.26-9.77,7.51-11.18,4.82-1.6,10.96-1.56,15.55-3.31-1.01,5.59,2.34,10.99-2.09,17.53,7.47,1.23,10.61,8.47,11.62,18.3-2.88-2.32-5.41-3.24-7.67-4.09-4.84-1.84-10.12.48-11.3,9.26-.61,4.59.05,10.75,1.05,18.47-1.27,1.4-3.3,2.8-4.57,4.19h0Z"/>
      <path class="cls-6" d="M130.07,117.28c.71-.6,1.44-1.19,2.11-1.83-.74-5.65-1.66-12.53-.92-18.03.99-7.38,5.91-13.94,14-10.87,1.59.61,3,1.18,4.35,1.88-1.05-5.49-3.41-11.26-9.34-12.23l-3.09-.51,1.76-2.6c3.25-4.8,1.61-8.95,1.54-13.64-4.21,1-8.64,1.1-12.71,2.45-4.28,1.42-5.52,5.48-6.16,9.58l-.57,3.64-2.75-2.44c-6.26-5.57-11.95-3.79-18.53-3.78,5.33,9.7,2.2,19.61,19.28,22.8l1.24.23.33,1.22c2.1,7.84,4.98,17.04,9.47,24.13h0Z"/>
      <path class="cls-7" d="M134.69,63.67c-2.45,2.25-6.84,4.11-7.52,7.86-.93,5.12-.84,9.91-.77,15.23-1.69-1.49-2.01-3.01-6.51-3.3-1.3-.09-2.66.1-3.97-.6-3.35-1.8-6.42-5.74-7.63-7.68-.76-1.21-2.07-.6-1.46.37,1.55,2.47,3.81,6.66,7.33,8.92,1.6,1.03,4.08,1.12,5.8,1.42,4.81.81,5.88,5.33,6.13,10.23.23,4.46,1.38,15.78,2.57,19.79.94-.35,1.44-.38,2.14-.54-1.11-3.41-2.88-15.54-2.49-19.95-.08-3.24,2.76-8.94,6.9-12.17.77-.6,3.08-.84,6.22.68,1.03.5,2.15-.08,1.16-1.11-2.99-1.2-3.05-1.79-5.06-1.86-3.34-.12-6.45,2.59-9.03,6.26-.09-5.67-.39-9.32.63-14.91.47-2.57,4.25-5.29,6.73-7.47.86-.76-.12-2.12-1.17-1.16h0Z"/>
      <path class="cls-7" d="M200.22,175.15c-12.28,3.49-11.85,10.94-19.5,13.08-7.03,1.96-9.74-5.46-16.21-2.3-4.08,2-7.1,7.07-8.23,12.44-2.06,9.85-1.06,24.63,17.41,29.66,0,3.64.86,3.4.86,7.04-8.77.71-22.01-1.74-27.3-5.61-15.12-11.06-14.05-20.65-23.46-28.87-13.09-11.43-27.44-9.29-34.85-32.62,3.92,1.96,9.61.06,16.64,3.31,2.69,1.24,6.19,4.97,7.86,7.43.65.96,2.32.91,3.18.04,1.73-1.74-1.43-5.06-4.48-6.57-3.46-1.72-6.37-2.62-9.29-4.06-3.87-1.9-8.84-8.91-11.76-18.68,4.88.81,10.74-2.34,18.35,1.01,5.26,2.32,9.19,13.88,12.62,11.06.66-.54,1.19-1.48.35-2.69-1.84-2.66-5.39-3.74-7.81-9.95-2.37-6.07-2.29-11.45-1.15-20.4,3.3,3.93,10.69,6.02,16.2,13.51,3.26,4.44,2.46,11.15,5.74,14.94.88,1.02,3.16,1.44,4.52.29,1.36-1.16,1.41-3.84,1.22-5.17-.49-3.4-2.78-5.79-4.21-7.65-3.66-4.74-7.31-5.96-9.56-11.46-3.18-7.78,2.01-14.08-4.16-25.72,3.25.24,11.02,1.93,15.06,5.75,3.39,3.21,2.05,8.09,5.16,8.34,2.9.23,4.03-5.44,2.84-11.07-1.18-5.63-4.54-11.2-9.15-15.37,6.33-2.17,14.14-.71,18.71,3.14,4.16,3.51,6.56,7.91,6.81,18.41,4.56-5.05,8.98-7.59,12.76-8.04-3.25,9.77,2.49,18.53-2.58,28.31-3.15,6.07-10.38,9.25-14.85,14.66-.93,1.12-2.18,3.04-2.36,4.44-.77,5.9,4,6.96,5.88,5.46,2.02-1.61,2.75-3.65,3.41-6.19.66-2.54,1.27-6.01,3.04-8.46,3.13-4.33,7.94-6.75,14.2-8.33-1.96,5.46.38,10.92-2.15,15.23,4.83-2.76,13.14-2.7,22.94.29-8.99,6.37-10.53,11.53-16.49,16.09-2.73,2.09-9.8.02-9.32,3.45.42,2.95,5.88-1.48,9.61-1.58,3.73.19,6.02-.77,13.48,3.45h0Z"/>
      <path class="cls-4" d="M179.53,141.07c-3.87,1.29-7.49,3.26-9.95,6.66-1.53,2.12-2.07,5.29-2.73,7.79-.76,2.91-1.67,5.32-4.1,7.25-1.76,1.4-4.37,1.33-6.23.19-2.6-1.6-3.26-4.63-2.88-7.48.24-1.85,1.63-4.03,2.8-5.46,4.14-5.03,11.78-8.85,14.61-14.31,4.04-7.79.36-16.08,1.64-24.58-3.3,1.38-6.36,4.15-8.55,6.59l-3.37,3.74-.12-5.04c-.16-6.57-.85-12.5-6.1-16.92-3.47-2.92-8.77-4.11-13.47-3.53,3.47,3.92,6.1,8.74,7.16,13.81.8,3.79,1.18,13.97-4.97,13.48-4.8-.38-3.57-6.22-6.38-8.88-2.31-2.18-6.57-3.84-10.31-4.66,1.07,2.77,1.69,5.61,1.83,8.71.13,3.01-.27,5.99-.15,8.96.07,1.66.34,3.2.97,4.74,1.93,4.71,6.23,7.02,9.29,11,2.14,2.78,4.08,4.92,4.61,8.59.33,2.3-.03,5.4-1.9,6.98-2.04,1.73-5.59,1.52-7.34-.5-3.79-4.38-2.74-10.86-5.84-15.07-2.34-3.18-5.15-5.44-8.42-7.6-1.45-.96-3.11-1.94-4.63-3.05-.55,5.32-.58,10.37,1.47,15.63,2.21,5.68,4.88,5.62,7.59,9.54,1.26,1.83.98,3.98-.73,5.38-5.56,4.57-10.14-8.77-14.7-10.78-5.94-2.62-9.93-.79-14.69-.66,1.95,5.26,5.6,12.63,9.79,14.69,3.03,1.49,6.25,2.55,9.3,4.06,3.08,1.53,8.5,6.27,5.01,9.78-1.69,1.7-4.85,1.75-6.26-.33-1.45-2.13-4.7-5.65-7.04-6.73-4.27-1.97-8.78-1.66-12.64-2.19,7.35,18.81,19.19,16.1,33.01,28.17,2.83,2.47,4.93,5.22,6.87,8.42,5.43,8.96,7.46,13.76,16.46,20.34,5.07,3.71,16.73,5.46,23.96,5.33-.18-1.2-.47-2.34-.62-3.61-14.76-4.63-20.6-16.58-17.45-31.6,1.12-5.33,4.23-11.35,9.31-13.83,7.51-3.67,10.59,3.83,16.55,2.17,1.56-.44,2.79-1.15,4-2.23,1.87-1.67,3.39-3.72,5.3-5.43,1.77-1.59,3.67-2.81,5.73-3.77-2.69-1.09-4.3-.94-8.48-1.15-2.97.16-10.75,5.74-11.58-.15-.84-5.97,8.02-3.74,10.09-5.32,1.55-1.19,2.89-2.52,4.18-3.99,3.31-3.76,5.66-6.68,9.11-9.62-5.71-1.32-13.2-2.44-17.52.56-3.61,2.5-4.17,7.26-7,8.11-1.43.42-3.91-.72-2.41-4.16.68-1.54,2.43-2.32,3.96-3.56,1.04-.85,2.06-2.21,2.73-3.15,1.75-2.47.85-7.18,1.26-11.36h0Z"/>
      <path class="cls-7" d="M171.59,232.59c-9.77-1.46-23.25-11.37-27.13-20.76-1.39-3.36-1.71-6.35-3.72-9.58-2.26-3.63-5.33-6.84-9-8.91-5.77-3.26-9.09-2.16-16.56-6.29-1.25-.69-.54-1.52.51-1.09,7.73,3.2,10.63,2.14,15.99,4.5,4.73,2.08,8.75,6.25,11.06,10.39.17-11.03-8.47-22.84-17.74-28.6-1.21-.75-.09-1.85.87-1.23,8.4,5.42,13.97,12.38,17.64,21.15l.2-1.36c1.71-10.87,3.22-21.79,4.55-32.71.61-4.99,1.23-9.97,1.78-14.96-8.49-5.01-13.58-11.75-17.47-20.69-.46-1.05.62-1.67,1.18-.35,3.71,8.53,8.49,14.12,16.51,18.91.34-3.24.65-6.5.9-9.76.49-6.29,1.09-13.41.68-19.7-.07-1.15,1.01-1.53,1.1-.11.42,6.38.17,13.49-.32,19.86-.25,3.25-.54,6.49-.86,9.74,8.42-4.12,13.65-8.34,15.3-17.9.2-1.13,1.39-1.07,1.15.34-1.77,10.19-7.6,15.81-16.64,20.2l-.08.04c-.5,4.87-1.06,9.73-1.66,14.58-1.33,10.94-2.84,21.88-4.55,32.76-.2,1.26-.39,2.61-.55,4,3.57-10.98,9.52-19.42,19.34-25.77.96-.62,2.08.48.87,1.23-6.8,4.22-13.15,12.15-17.28,22.29,3.68-5.6,9.13-11.13,12.94-12.99,5.26-2.57,7.55,0,14.7-.62,1.13-.1,1.89.74.51,1.09-6.61,1.68-9.35-1.43-15.12,1.83-4.4,2.48-10.1,9.35-13.82,16.9-2.26,4.58-2.39,8.06-.56,12.48,3.71,8.96,16.45,17.81,25.84,19.45l-.6,1.63h0Z"/>
      <path class="cls-8" d="M234.88,160.7c-3.17.19-6.33.85-9.39,2.45,3.04-9.25,11.48-15.44,22.05-18.27l.68-.15.69-.15.14.22.62.96c2.9,4.53,6.83,8.08,9.75,12.64l.51.8-.29.9c-1.93,5.92-4.11,13.12-8.79,17.63-1.75,1.68-3.67,2.64-5.77,3.81.43-2.21.26-4.65.12-7.32-.14-2.67-.58-5.65-1.79-7.72-1.82,2.87-3.81,7.85-6.07,11.23-1.71,2.55-4.04,4.56-6.64,5.59-2.83,1.12-6.14.64-9.14-.32,2.67-1.87,4.51-3.28,6.24-6.14,3.02-4.99,4.59-10.84,7.1-16.17h0Z"/>
      <path class="cls-7" d="M227.42,167.18c-2.91,1.91-4.73,3.47-6.69,6.4-1.28-5.52.09-10.1.88-12.33.79-2.23,1.71-4.41,2.96-6.39,4.77-7.57,12.96-11.72,21.86-14.1l.08-.02,4.38-.98,2.37,3.71c2.85,4.46,6.85,8.11,9.75,12.64l1.6,2.51-.92,2.83c-1.95,5.99-4.03,12.51-8.08,17.43-3.8,4.62-10.08,8.07-17.43,9.78,1.4-2.78,2.49-5.67,2.75-8.64-2.08,3.19-5.13,5.89-8.7,7.29-1.83.72-3.44.97-5.06,1-4.56.08-12.47-.93-15.44-8.9,7.1,1.03,9.56-.1,12.37-4.75.61-1.01,1.07-1.89,1.45-2.75.65-1.43,1.11-2.82,1.85-4.72h0ZM249.35,148.85c-.64,2.18-1.33,3.9-2.09,5.36-.53,4.45,4.88,9.49,3.79,16.83-.2,1.33-1.74,1.38-1.49-.28.87-5.84-3.19-9.24-4.14-13.61-2.07,2.83-4.51,4.94-7.3,9.04-2.15,3.16-2.91,7.94-5.29,11.54-.74,1.12-1.84.43-.92-.96,2.35-3.56,2.57-8.56,4.8-11.85,4.71-6.93,8.02-8.35,10.57-17.34l.18-.63c-7.72,1.88-15.28,6.97-18.2,12.74,2.51-1.13,5.95-1.13,8.96-1.08-3.37,5.75-4.8,12.22-7.99,18.03-1.06,1.94-2.47,4.08-4.48,5.39,1.12.32,3.12.13,4.46-.51,4-1.91,6.6-6.53,8.41-10.64,1.13-2.57,2.56-5.38,4.91-7.39,2.59,2.28,3.81,6.47,3.73,14.51,5.63-3.56,8.02-11,10.47-18.53-2.79-4.36-5.59-6.81-8.38-10.63h0ZM247.91,146.86l.1.04-.04-.06h-.06Z"/>
      <path class="cls-6" d="M215.32,181.76c2.73,3.47,7.2,4.61,11.83,4.53,1.54-.03,2.92-.29,4.36-.86,1.84-.72,3.52-1.84,4.97-3.21,2.94-2.76,4.11-4.44,6.3-7.79.18,4.3.45,6.86-1.06,11.11,4.68-1.62,9.27-4.21,12.34-7.96,3.86-4.69,5.86-11.07,7.72-16.78l.63-1.93-1.09-1.71c-2.87-4.48-6.87-8.14-9.75-12.64l-1.61-2.53-2.95.66-.07.02c-8.06,2.16-16.09,5.95-20.68,13.23-1.17,1.86-2.03,3.92-2.76,5.99-.79,2.23-1.25,4.48-1.29,6.76,2.73-2.6,7.33-4.89,8.24-4.51-1.13,2.94-1.17,3.82-2.32,6.75-.63,1.6-1.31,3.14-2.3,4.77-2.94,4.85-5.97,6.21-10.52,6.07h0ZM234.88,160.7c-3.17.19-6.33.85-9.39,2.45,3.04-9.25,11.48-15.44,22.05-18.27l.68-.15.69-.15.14.22.62.96c2.9,4.53,6.83,8.08,9.75,12.64l.51.8-.29.9c-1.93,5.92-4.11,13.12-8.79,17.63-1.75,1.68-3.67,2.64-5.77,3.81.43-2.21.26-4.65.12-7.32-.14-2.67-.58-5.65-1.79-7.72-1.82,2.87-3.81,7.85-6.07,11.23-1.71,2.55-4.04,4.56-6.64,5.59-2.83,1.12-6.14.64-9.14-.32,2.67-1.87,4.51-3.28,6.24-6.14,3.02-4.99,4.59-10.84,7.1-16.17h0Z"/>
      <path class="cls-1" d="M172,190.79h68.77l178.81,187.98v50.43c0,37.81-25.62,44.7-33.24,48.14l-214.34-213.2v-73.36h0Z"/>
      <path class="cls-4" d="M172,271.02l200.59,209.76c-26.17,7.26-51.2,9.37-73.37,23.51-27.2-12.7-61.13-17.6-82.75-23.28-23.01-6.04-44.47-7.1-44.47-51.81v-158.18h0Z"/>
      <polygon class="cls-4" points="420.73 191.93 252.24 191.93 420.73 368.45 420.73 191.93 420.73 191.93"/>
      <path class="cls-7" d="M172.7,279.43l-.73-38.83,3.88,6.66c8.03,13.76,18.11,16.6,30.19,24.92,2.01,1.38,3.93,2.88,5.72,4.55,6.54,6.12,10.74,13.55,14.65,21.49,3.43,6.96,6.68,14.49,11.54,20.59.66.83,1.36,1.64,2.09,2.41,3.25,3.46,6.97,6.18,11.04,8.59,12.65,7.45,23.38,10.57,34.33,21.57,3.34,3.36,6.09,7.12,8.55,11.16,7.36,12.1,11.11,23.01,21.65,33.38,3.97,3.91,8.45,7.03,13.16,9.97,10.07,6.26,19.22,10.99,27.47,19.9,15.79,17.07,17.87,37.05,43,46.75l5.91,2.28-35.9,8.98-196.56-204.34h0Z"/>
      <path class="cls-6" d="M174.69,278.6l195.2,202.93,28.63-7.16c-25.67-9.91-29.28-31.61-43.75-47.25-12.91-13.96-28.3-17.74-40.56-29.8-15.33-15.08-17.58-31.85-30.22-44.55-15.56-15.63-32.78-16.77-45.42-30.2-11.53-12.26-14.24-31.35-28.19-44.4-10.89-10.19-26.18-12.64-36.27-29.92l.57,30.34h0Z"/>
      <path class="cls-7" d="M422.29,363.31l-.3,48.65-3.82-10.16c-4.69-12.48-10.4-22.57-19.22-32.5-7.2-8.11-13.51-11.88-22.86-16.86-7.3-3.89-13-7.5-18.78-13.57-4.62-4.85-8-9.89-11.3-15.68-6.65-11.68-11.09-19.28-21.14-28.8-6.58-6.24-12.61-9.65-20.35-14.03-7.72-4.36-13.35-8.56-19.2-15.34-3.02-3.5-5.66-8.26-8.02-12.25-3.1-5.23-6.21-10.46-9.82-15.35-1.76-2.38-3.63-4.68-5.67-6.82-5.28-5.52-11.19-9.76-17.49-14.01-5.6-3.78-11.43-7.55-16.1-12.47-2.61-2.75-4.78-5.79-6.43-9.21l-1.38-2.85,38.4-.29,163.5,171.54h0Z"/>
      <path class="cls-6" d="M420.28,364.11l-162.34-170.33-34.37.26c7.59,15.74,24.98,19.81,39.66,35.18,10.71,11.21,17.72,27.69,23.59,34.49,13.77,15.97,24.14,14.75,39.42,29.22,19.44,18.41,18.89,30.26,32.51,44.55,14.23,14.93,26.19,13.04,41.69,30.49,8.38,9.44,14.34,19.13,19.6,33.13l.23-36.99h0Z"/>
      <path class="cls-7" d="M167.92,187.87h256.99v246.15c0,28.54-11.8,40.12-31.31,47.29-8.87,3.26-19.29,5.96-31.66,8.75-23.37,5.27-48.92,7.47-65.22,22.11l-.3.28-.33-.29c-16.3-14.63-41.85-16.83-65.2-22.1-12.36-2.79-22.79-5.49-31.66-8.75-19.51-7.17-31.31-18.75-31.31-47.29v-246.15h0ZM176.62,196.57v237.46c0,20.82,5.91,31.89,25.62,39.13,9.83,3.61,20.36,6.13,30.57,8.43,20.98,4.73,45.52,7.1,63.62,19.76,18.12-12.65,42.65-15.04,63.61-19.76,10.21-2.3,20.74-4.81,30.57-8.43,19.71-7.24,25.62-18.31,25.62-39.13v-237.46h-239.6Z"/>
      <path class="cls-6" d="M169.93,189.88v244.14c0,23.67,7.59,37.18,30,45.41,10.11,3.72,20.9,6.31,31.41,8.67,21.09,4.75,48.03,7.21,65.08,21.67,17.06-14.46,44-16.92,65.09-21.67,10.5-2.37,21.29-4.96,31.41-8.67,22.41-8.23,30-21.74,30-45.41v-244.14h-252.97ZM174.61,194.56h243.61v239.46c0,21.47-6.26,33.42-26.93,41.01-10,3.67-20.44,6.16-30.82,8.5-20.73,4.67-45.1,7.02-62.9,19.45l-1.15.8-1.15-.8c-17.79-12.44-42.18-14.78-62.91-19.45-10.37-2.34-20.82-4.83-30.82-8.5-20.68-7.59-26.93-19.55-26.93-41.01v-239.46h0Z"/>
      <path class="cls-7" d="M248.84,409.64h20.69s.19.01.19.01h2.32c1.57,0,1.74,2.34.85,2.98l-18.66,13.57,7.05,21.73c.55,1.68-1.62,2.57-2.51,1.93l-1.57-1.13c-.1-.04-.2-.09-.29-.16l-16.73-12.15-18.73,13.71c-1.57,1.15-3.84-.63-3.76-2.23,0-.14.02-.28.07-.43l7.18-22.12-18.8-13.64c-.8-.58-.69-2.05.79-2.05h23.1s5.87-18.04,5.87-18.04l.1-.56,1.29-3.71c.58-1.65,3.6-1.88,4.35.39l7.2,21.91h0Z"/>
      <polygon class="cls-2" points="238.29 390.74 245.08 411.64 267.06 411.65 249.28 424.57 256.07 445.47 238.29 432.56 220.5 445.47 227.29 424.57 209.51 411.65 231.49 411.64 238.29 390.74 238.29 390.74"/>
      <path class="cls-7" d="M237.47,413.5c3.56,0,6.45,2.89,6.45,6.45s-2.89,6.45-6.45,6.45-6.45-2.89-6.45-6.45,2.89-6.45,6.45-6.45h0Z"/>
      <path class="cls-4" d="M237.91,416.67c2.06,0,3.73,1.67,3.73,3.73s-1.67,3.73-3.73,3.73-3.73-1.67-3.73-3.73,1.67-3.73,3.73-3.73h0Z"/>
      <path class="cls-7" d="M385.24,228.44h20.69s.19.01.19.01h2.32c1.57,0,1.74,2.34.85,2.98l-18.66,13.57,7.05,21.73c.55,1.68-1.63,2.57-2.51,1.93l-1.57-1.13c-.1-.04-.2-.09-.29-.16l-16.73-12.15-18.73,13.71c-1.57,1.15-3.84-.63-3.76-2.23,0-.14.02-.28.07-.43l7.18-22.12-18.8-13.64c-.8-.58-.69-2.05.79-2.05h23.1s5.87-18.04,5.87-18.04l.1-.56,1.29-3.71c.58-1.65,3.6-1.88,4.35.39l7.2,21.91h0Z"/>
      <polygon class="cls-2" points="374.69 209.54 381.48 230.44 403.46 230.45 385.68 243.37 392.47 264.27 374.69 251.36 356.9 264.27 363.69 243.37 345.91 230.45 367.89 230.44 374.69 209.54 374.69 209.54"/>
      <path class="cls-7" d="M373.87,232.3c3.56,0,6.45,2.89,6.45,6.45s-2.89,6.45-6.45,6.45-6.45-2.89-6.45-6.45,2.89-6.45,6.45-6.45h0Z"/>
      <path class="cls-4" d="M374.31,235.47c2.06,0,3.73,1.67,3.73,3.73s-1.67,3.73-3.73,3.73-3.73-1.67-3.73-3.73,1.67-3.73,3.73-3.73h0Z"/>
      <polygon class="cls-10" points="290.42 122.13 299.31 122.13 299.31 179.88 290.42 179.88 290.42 122.13 290.42 122.13"/>
      <polygon class="cls-11" points="292.42 124.13 297.3 124.13 297.3 177.88 292.42 177.88 292.42 124.13 292.42 124.13"/>
      <path class="cls-7" d="M337.42,184.83c2.48,1.37,2.87,3.95,1.98,5.76-.77,1.57-2.76,2.66-4.3,2.14-13.58-4.56-25.43-7.24-38.64-7.59-14.06-.37-27.38,1.64-43.35,7.3-2.13.75-4.73-.68-5.3-2.57-.52-1.73.9-3.93,2.99-5.03l.23-.45c8.1-16.1,3.68-31.07-7.48-44.47l-1.09-1.31,1.12-1.29c7.28-8.37,15.46-17.86,19.39-28.3l.48-1.29h1.37c18.89-.2,37.78-.39,56.67-.59l1.7-.02.3,1.67c2.23,12.52,7.71,24.31,9.93,36.89,2.3,13.05,2.48,26.1,4.01,39.14h0Z"/>
      <path class="cls-5" d="M253.56,183.73c6.83-14.95,3.96-30.15-8.48-45.09,7.76-8.92,15.82-18.45,19.75-28.91,18.89-.19,37.78-.38,56.67-.57,2.16,12.13,7.77,24.64,9.93,36.89,2.33,13.21,2.6,26.13,3.88,37.95-11.78-4.2-23.77-6.87-36-7.54v-54.33h-8.89v54.21c-12.03.32-24.29,2.64-36.85,7.4h0Z"/>
      <path class="cls-5" d="M252.13,186.44c-.85.34-2.73,1.8-2.41,2.86.28.92,1.79,1.59,2.71,1.26,14.62-5.18,28.57-7.82,44.07-7.41,13.74.36,26.24,3.32,39.23,7.69.62.21,1.59-.58,1.86-1.12.76-1.54-.31-2.87-1.75-3.4-13.38-4.9-27.27-7.89-41.55-8.02-14.58-.13-28.64,2.73-42.16,8.14h0Z"/>
      <path class="cls-5" d="M292.42,124.13h4.88v56.84c-1-.04-2-.06-3-.07-.63,0-1.25,0-1.88,0v-56.77h0Z"/>
      <path class="cls-7" d="M275.23,123.27c1.46,4.89-1.77,7.83-6.48,7.83h-11.51c3.38-5.08,9.82-10.15,15.13-12.94-2.65-.9-6.45-1.22-8.95-1.25-1.27-1.52-2.55-2.33-3.82-3.85-3.11,7.14-11.88,16.33-20.51,21.12.34,3.21.67,5.84,1,9.05,8.54,7.32,12.17,17.39,11.9,30.46l5.74-4.17,7.89,1.15c-5.85-11.54-9.63-19.5-11.19-28.02l12.76.29c5.26.12,9.66,4.93,11.47,6.9l.72-3.88,4.59-.29-4.45-5.03c1.79-.6,3.8-2.06,4.59-3.3-1.1-2.11-2.92-3.64-4.73-4.46,2.19-4.32.61-7.35-4.16-9.63h0Z"/>
      <path class="cls-5" d="M260.14,116.45c-4.09,7.25-11.97,14.66-18.92,18.83.26,2.33.53,4.65.78,6.98,8.19,7.34,11.5,16.92,11.96,27.54l3.25-2.36,4.87.71c-4.01-7.96-8.04-16.44-9.62-25.11l-.44-2.42,15.22.34c3.93.09,7.29,2.2,10.15,4.79l.31-1.67,2.05-.13-3.74-4.22,2.87-.96c.79-.26,1.91-.9,2.73-1.6-.8-1.04-1.87-1.9-3.05-2.43l-1.92-.86.95-1.88c1.1-2.17.9-3.66-.17-4.86-.77,3.67-4.21,5.98-8.68,5.98l-15.25.02,2.07-3.12c2.65-3.99,6.97-7.9,11.34-10.88-1.23-.13-2.45-.19-3.52-.2h-.92s-.59-.72-.59-.72c-.53-.63-1.13-1.2-1.73-1.76h0Z"/>
      <path class="cls-4" d="M355.82,137.52c2.88-.42,5.85-.4,8.36,1.25,1.31.86,2.41,2,3.75,2.86,2.33,1.5,6.15,1.87,9.59,1.53,3.22-.32,5.92-1.44,8.4-2.66-.85,3.62-1.9,7.03-3.65,10.31-3.4,6.4-7.81,9.61-16.04,10.75,2.05,3.86,2.14,8.99.35,12.76-1.21,2.55-2.6,3.91-2.87,5.41-.24,1.32-.08,2.68,1.16,5.12-5.55.27-10.11.16-12.23-6.07-8.31.67-12.54-2.55-15.55-10.27,3.58-.12,8.14.04,10.86-2.67,1.99-1.99,1.7-6.25-.91-7.56-3.77-1.88-11.52.07-15.99.16-5.31.1-11.6-1.37-15.97-4.48-8.55-6.1-10.14-11.83-14.04-20.78-1.41-3.25-3.01-6.08-5.56-8.58-6.46-6.34-14.48-5.01-20.88-13.91l-2.21-3.07,1.3-1.26,2.48,1.16c13.29-.37,26.58.37,39.87,0h.43s.4.15.4.15c6.89,2.87,12.55,6.84,16.36,13.36,1.71,2.92,3.47,8.28,5.58,10.51.74.78,1.59,1.31,2.61,1.66,1.94.67,3.14.84,4.94-.13,3.26-1.77,3.16-5.57,2.8-8.74,2.96,1.16,4.69,2.23,5.77,5.57.77,2.39.94,5.24.88,7.67h0Z"/>
      <path class="cls-7" d="M372.41,165.14c.61,3.81.13,7.84-1.48,11.24-.66,1.38-1.63,1.64-1.84,2.94-.37,2.23,2.09,3.02,4.82,1.2-.18,6.44-6.54,9-9.02,9.13-5.3.33-10.45-.54-14.15-6-7.99-.32-14.11-4.38-17.56-12.04-1.13-2.5-1.69-4.34-2.25-7.12,4.36.46,6.53.26,9.83-.02.33-.03,1.92-.33,2.87-.72,1.78-.75.59-1.44-.59-1.47-3.42-.09-9.89.91-11.9.95-6.36.12-13.64-1.65-18.86-5.38-9.39-6.7-11.32-12.8-15.66-22.78-1.15-2.64-2.44-5.03-4.52-7.07-1.89-1.85-4.08-2.9-6.48-3.93-6.36-2.73-10.7-4.71-14.93-10.6l-3.35-4.66,61.14-.18c3.52,2.63,6.53,5.87,8.91,9.94.97,1.67,2.31,5.09,3.54,7.47.4.77,1.82,3.45,3.12,2.76,1.33-.72,1.03-8-1-10.98,2.71.22,6.53.99,9.44,2.66,3.34,1.92,5.69,3.8,7.01,7.9.43,1.34.29,3.18.46,4.61,2.99.28,5.87,1.23,7.98,3.1,2.23,1.99,5.77,3.39,9.1,3.06,3.19-.31,12.21-3.95,16.04-5.27-1.69,7.18-3.08,12.61-6.57,19.18-3.43,6.46-7.9,10.16-14.11,12.07h0ZM360.18,161.65c-.19,5.23-2.4,12.5-.26,16.28,1.17,2.07-.52,2.56-1.47.89-1.49-2.63-1.64-5.74-1.45-8.95-.25.31-.51.62-.8.92-2,2.13-4.29,2.81-7.02,2.95-2.37.12-1.93-1.45-.03-1.7,3.46-.47,5.32-2.28,6.78-5.03,3.37-6.34.62-15.84-4.23-21.13-1.3-1.42.36-3.56,1.97-1.81,4.16,4.52,7.03,11.3,6.52,17.58h0ZM313.05,123.35c2.72,4.98,6.8,8.1,11.43,11.29,5.96,4.11,11.93,4.2,17.99,7.32,5.37,2.76,10.39,7.93,10.91,14.22.27,3.27-.96,7.02-3.06,9.81-.26.45-.59.88-.96,1.26-.21.21-.42.4-.65.58l-.29.31-.05-.05c-2.47,1.76-5.91,2.24-8.33,2.32,1.79,4.35,6.19,7.39,14.06,6.18.86,3.59,2.3,6.75,8.18,6.46-1.87-5.16.81-6.05,2.49-9.59,1.69-3.57,1.65-10.14-2.35-13.54,14.22-.88,17.38-7.08,20.65-15.95-5.83,2.25-13.07,1.38-16.23-.65-4.11-2.64-3.97-5.24-13.17-3.38.49-5.5-.18-10.91-2.65-12.57.52,3.34-1.92,6.45-3.7,7.42-1.82.99-3.44,1.35-6.55.27-9.34-3.24-3.87-16.91-24.67-25.58-13.58.38-26.29-.38-39.87,0,6.02,8.38,14.05,7.17,20.65,13.65,7.39,7.25,6.87,16.32,14.14,24.51,12.48,8.73,18.48-4.86,32.98,3.05,2.09,1.14.69,2.4-.99,1.49-10.43-5.69-16.6,1.98-25.38,1,3.62,2.08,8.62,3.32,13.39,3.23,6.12-.12,12.37-2.22,16.92.06,1.17.58,2.04,1.54,2.59,2.68.2-.95.27-1.89.2-2.75-.44-5.33-4.95-9.74-9.47-12.06-6.21-3.19-11.74-3.49-18.07-7.85-4.98-3.43-8.56-6.78-11.48-12.13-1.14-2.09.42-2.68,1.35-1h0Z"/>
      <path class="cls-6" d="M371.07,183.45c-2.43.04-4.48-1.31-3.96-4.45.34-2.07,1.36-2.11,2.01-3.48,1.83-3.84,1.69-7.73,1.04-11.79,6.71-2.06,11.23-5.27,14.59-11.61,2.67-5.03,4.18-9.8,5.5-15.05-4.31,1.65-9.59,3.74-13.01,4.08-3.73.37-7.84-1.09-10.63-3.56-2.37-2.11-5.43-2.47-8.44-2.76-.23-1.86-.02-4.12-.58-5.84-1.12-3.48-3.04-5.02-6.1-6.77-1.54-.89-3.44-1.52-5.34-1.92,1.01,3.8,1.28,8.94-1.16,10.27-2.69,1.42-4.79-1.57-5.85-3.61-1.23-2.37-2.18-5.13-3.49-7.38-2.58-4.41-5.94-7.78-9.92-10.44l-55.64.07,2.22,3.09c3.95,5.49,8.08,7.34,14.1,9.93,2.64,1.13,5.02,2.31,7.09,4.35,2.26,2.22,3.7,4.82,4.95,7.7,4.2,9.64,6.03,15.56,14.99,21.95,4.87,3.47,11.73,5.12,17.66,5,3.93-.07,7.92-1.05,11.98-.95,3.51.09,5.04,3.77,1.32,5.33-3.33,1.39-7.36,1.25-10.88,1.1.64,2.25,1.54,4.47,2.74,6.48,3.16,5.26,8.05,8.21,14.56,8.46l1.01.04.57.84c3.06,4.52,7.23,5.44,12.39,5.13,2.52-.12,5.02-1.88,6.28-4.2h0ZM355.82,137.52c2.88-.42,5.85-.4,8.36,1.25,1.31.86,2.41,2,3.75,2.86,2.33,1.5,6.15,1.87,9.59,1.53,3.22-.32,5.92-1.44,8.4-2.66-.85,3.62-1.9,7.03-3.65,10.31-3.4,6.4-7.81,9.61-16.04,10.75,2.05,3.86,2.14,8.99.35,12.76-1.21,2.55-2.6,3.91-2.87,5.41-.24,1.32-.08,2.68,1.16,5.12-5.55.27-10.11.16-12.23-6.07-8.31.67-12.54-2.55-15.55-10.27,3.58-.12,8.14.04,10.86-2.67,1.99-1.99,1.7-6.25-.91-7.56-3.77-1.88-11.52.07-15.99.16-5.31.1-11.6-1.37-15.97-4.48-8.55-6.1-10.14-11.83-14.04-20.78-1.41-3.25-3.01-6.08-5.56-8.58-6.46-6.34-14.48-5.01-20.88-13.91l46.9-.8c4.81,2.65,8.81,6.15,11.73,11.14,1.71,2.92,3.47,8.28,5.58,10.51.74.78,1.59,1.31,2.61,1.66,1.94.67,3.14.84,4.94-.13,3.26-1.77,3.16-5.57,2.8-8.74,2.96,1.16,4.69,2.23,5.77,5.57.77,2.39.94,5.24.88,7.67h0Z"/>
      <path class="cls-7" d="M301.97,105.04c3.5,0,6.33,1.87,6.33,4.17s-2.84,4.17-6.33,4.17-6.33-1.87-6.33-4.17,2.84-4.17,6.33-4.17h0Z"/>
      <path class="cls-9" d="M301.97,107.04c2.36,0,4.27.97,4.27,2.16s-1.91,2.16-4.27,2.16-4.27-.97-4.27-2.16,1.91-2.16,4.27-2.16h0Z"/>
      <path class="cls-7" d="M312.96,105.04c3.5,0,6.33,1.87,6.33,4.17s-2.84,4.17-6.33,4.17-6.33-1.87-6.33-4.17,2.84-4.17,6.33-4.17h0Z"/>
      <path class="cls-4" d="M312.96,107.04c2.36,0,4.27.97,4.27,2.16s-1.91,2.16-4.27,2.16-4.27-.97-4.27-2.16,1.91-2.16,4.27-2.16h0Z"/>
      <path class="cls-7" d="M324.61,105.04c4.59,0,6.99,1.87,6.99,4.17s-2.25,4.17-6.99,4.17-6.99-1.87-6.99-4.17,2.39-4.17,6.99-4.17h0Z"/>
      <path class="cls-9" d="M324.61,107.04c-1.24,0-4.92.31-4.92,2.16s3.64,2.16,4.92,2.16,4.93-.26,4.93-2.16-3.68-2.16-4.93-2.16h0Z"/>
      <path class="cls-7" d="M291.1,105.18c-3.5,0-6.33,1.87-6.33,4.17s2.84,4.17,6.33,4.17,6.33-1.87,6.33-4.17-2.84-4.17-6.33-4.17h0Z"/>
      <path class="cls-4" d="M291.1,107.18c-1.13,0-4.27.61-4.27,2.16s3.14,2.16,4.27,2.16,4.27-.61,4.27-2.16-3.14-2.16-4.27-2.16h0Z"/>
      <path class="cls-7" d="M279.78,105.04c-4.31,0-6.74,1.87-6.74,4.17s2.43,4.17,6.74,4.17,6.74-1.87,6.74-4.17-2.43-4.17-6.74-4.17h0Z"/>
      <path class="cls-9" d="M279.78,107.04c-1.24,0-4.68.36-4.68,2.16s3.44,2.16,4.68,2.16,4.68-.36,4.68-2.16-3.44-2.16-4.68-2.16h0Z"/>
      <path class="cls-7" d="M267.73,105.04c-4.59,0-6.99,1.87-6.99,4.17s2.25,4.17,6.99,4.17,6.99-1.87,6.99-4.17-2.39-4.17-6.99-4.17h0Z"/>
      <path class="cls-4" d="M267.73,107.04c-1.24,0-4.93.31-4.93,2.16s3.64,2.16,4.93,2.16,4.92-.26,4.92-2.16-3.68-2.16-4.92-2.16h0Z"/>
      <path class="cls-7" d="M252.16,285.16l8.56-8.17s.07-.03.09,0l149.72,156.94c2.19,2.29,2.03,6.03-.35,8.3h0c-2.38,2.27-6.12,2.26-8.31-.04l-149.72-156.94s-.02-.07,0-.09h0Z"/>
      <path class="cls-2" d="M258.51,276.9l-6.34,6.05,150.89,158.16c1.63,1.71,4.35,1.55,6.02-.04,1.66-1.59,1.95-4.3.32-6.01l-150.89-158.16h0Z"/>
      <path class="cls-7" d="M219.17,260.04l18-17.17,13.44,14.08c4.15,4.35,3.9,11.38-.56,15.63l-1.8,1.72c-4.46,4.25-11.49,4.17-15.64-.17l-13.44-14.08h0Z"/>
      <path class="cls-2" d="M221.44,260.09l12.33,12.92c3.61,3.78,9.64,3.68,13.37.12l1.8-1.72c3.73-3.56,4.12-9.58.51-13.36l-12.33-12.92-15.68,14.96h0Z"/>
      <path class="cls-7" d="M239.93,251.95l-3.75-.19-.6,2.56c-.95.35-1.91,1.03-2.73,1.81-.94.88-1.65,1.73-2.14,2.84l-2.58.48.02,3.79c.88-.11,2.22-.06,2.93.54,1.71,1.45,1.51,2.99,3.21,4.68,1.66,1.64,5.7,2.34,10.08-.02,2.36-3.85,2.26-7.6.8-9.76-1.2-1.77-3.64-2.08-4.85-3.84-.57-.82-.43-2.13-.37-2.89h0Z"/>
      <path class="cls-2" d="M243.21,267.23c1.23-2.19,2.1-5.45.62-7.64-.95-1.39-3.47-1.83-4.85-3.83-.48-.7-.65-1.48-.7-2.27l-.85-.04-.49,2.1-.81.3c-.79.29-1.58.9-2.18,1.47-.74.69-1.36,1.39-1.78,2.32l-.34.77-2.1.39v.85c.88.1,1.73.38,2.37.93,1.87,1.58,1.87,3.34,3.31,4.77,1.82,1.8,5.65.93,7.81-.1h0Z"/>
      <path class="cls-7" d="M353.82,403.26l20.11-19.19c1.05-1,2.78-.88,3.87.25h0c1.08,1.13,1.11,2.88.07,3.87l-20.11,19.19c-1.04,1-2.78.88-3.87-.25h0c-1.08-1.13-1.11-2.88-.07-3.87h0Z"/>
      <path class="cls-2" d="M354.92,404.42l20.11-19.19c.41-.39,1.12-.3,1.6.2h0c.47.5.53,1.22.12,1.6l-20.11,19.19c-.41.39-1.12.3-1.6-.2h0c-.47-.5-.53-1.22-.12-1.6h0Z"/>
      <path class="cls-7" d="M387.02,434.71l16.74-15.97c.87-.83,2.39-.66,3.38.38h0c.99,1.04,1.09,2.57.22,3.4l-16.74,15.97c-.87.83-2.39.66-3.38-.38h0c-.99-1.04-1.09-2.57-.22-3.4h0Z"/>
      <path class="cls-2" d="M388.13,435.87l16.74-15.97c.23-.22.73-.07,1.11.33h0c.38.4.51.91.28,1.13l-16.74,15.97c-.23.22-.73.07-1.11-.33h0c-.38-.4-.51-.91-.28-1.13h0Z"/>
      <polygon class="cls-7" points="390.49 436.42 405.3 422.29 405.23 428.32 396.58 436.57 390.49 436.42 390.49 436.42"/>
      <polygon class="cls-2" points="394.4 434.91 395.95 434.95 403.63 427.62 403.65 426.08 394.4 434.91 394.4 434.91"/>
      <path class="cls-7" d="M388.11,435.91l16.74-15.97c-1.49-2.16-3.06-2.64-4.02-1.72l-14.11,13.46c-1.04.99-.22,2.86,1.4,4.23h0Z"/>
      <path class="cls-2" d="M388.18,433.63l14.48-13.81c-.27-.26-.53-.45-.72-.44l-14.09,13.43c-.04.21.11.52.33.82h0Z"/>
      <path class="cls-7" d="M387.83,432.86l14.04-13.4-3.33-3.49c-1.22-1.28-3.32-1.28-4.66,0l-9.16,8.74c-1.34,1.28-1.44,3.37-.22,4.66l3.33,3.49h0Z"/>
      <path class="cls-2" d="M387.89,430.59l11.72-11.18-2.22-2.33c-.65-.68-1.74-.57-2.39.05l-9.16,8.74c-.65.62-.81,1.71-.17,2.39l2.22,2.33h0Z"/>
      <path class="cls-7" d="M382.6,421.83l8.5-8.11c1.03-.98,2.67-.94,3.66.09h0c.98,1.03.94,2.67-.09,3.66l-8.5,8.11c-1.03.98-2.67.94-3.66-.09h0c-.98-1.03-.94-2.67.09-3.66h0Z"/>
      <path class="cls-2" d="M383.71,423l8.5-8.11c.39-.37,1.01-.36,1.39.03h0c.37.39.36,1.01-.03,1.39l-8.5,8.11c-.39.37-1.01.36-1.39-.03h0c-.37-.39-.36-1.01.03-1.39h0Z"/>
      <polygon class="cls-7" points="380.47 419.04 388.16 411.7 391.18 414.86 383.48 422.2 380.47 419.04 380.47 419.04"/>
      <polygon class="cls-7" points="355.53 403.85 374.41 385.83 373.37 385.2 364.7 385.56 355.71 394.14 354.72 402.7 355.53 403.85 355.53 403.85"/>
      <polygon class="cls-2" points="356.58 400.63 370.96 386.9 365.38 387.14 357.24 394.9 356.58 400.63 356.58 400.63"/>
      <polygon class="cls-7" points="366.89 405.58 375.68 397.2 376.83 388.63 376.13 387.63 357.25 405.65 358.23 406.41 366.89 405.58 366.89 405.58"/>
      <polygon class="cls-2" points="366.19 404.04 374.16 396.43 374.88 391.05 360.71 404.56 366.19 404.04 366.19 404.04"/>
      <path class="cls-7" d="M354.39,391.3l7.53-7.19c.92-.87,2.38-.84,3.25.08h0c.87.92.84,2.38-.08,3.25l-7.53,7.19c-.92.87-2.38.84-3.25-.08h0c-.87-.92-.84-2.38.08-3.25h0Z"/>
      <path class="cls-2" d="M355.5,392.46l7.53-7.19c.28-.26.72-.25.98.02h0c.26.28.25.72-.02.98l-7.53,7.19c-.28.26-.72.25-.98-.02h0c-.26-.28-.25-.72.02-.98h0Z"/>
      <path class="cls-7" d="M366.36,403.84l7.53-7.19c.92-.87,2.38-.84,3.25.08h0c.87.92.84,2.38-.08,3.25l-7.53,7.19c-.92.87-2.38.84-3.25-.08h0c-.87-.92-.84-2.38.08-3.25h0Z"/>
      <path class="cls-2" d="M367.47,405l7.53-7.19c.28-.26.72-.25.98.02h0c.26.28.25.72-.02.98l-7.53,7.19c-.28.26-.72.25-.98-.02h0c-.26-.28-.25-.72.02-.98h0Z"/>
      <path class="cls-7" d="M304.87,344.95l12.77-12.19c.74-.71,2.01-.58,2.83.28h0c.82.86.88,2.14.14,2.84l-12.77,12.19c-.74.71-2.01.58-2.83-.28h0c-.82-.86-.88-2.14-.14-2.84h0Z"/>
      <path class="cls-2" d="M306.14,345.95l12.45-11.88c.19-.18.51-.15.72.07h0c.21.22.23.54.04.72l-12.45,11.88c-.19.18-.51.15-.72-.07h0c-.21-.22-.23-.54-.04-.72h0Z"/>
      <polygon class="cls-7" points="304.22 339.75 312.86 331.5 317.8 332.98 318.76 333.94 311.54 340.83 306.31 345.82 305.22 344.66 304.22 339.75 304.22 339.75"/>
      <polygon class="cls-2" points="305.97 340.3 313.3 333.3 316.2 334.17 306.59 343.34 305.97 340.3 305.97 340.3"/>
      <polygon class="cls-7" points="313.01 348.97 321.66 340.72 320.41 335.71 319.78 334.71 307.33 346.59 308.15 347.73 313.01 348.97 313.01 348.97"/>
      <polygon class="cls-2" points="312.54 347.19 309.53 346.43 319.15 337.26 319.88 340.2 312.54 347.19 312.54 347.19"/>
      <polygon class="cls-7" points="302.91 337.82 310.79 330.3 312.78 332.38 304.89 339.9 302.91 337.82 302.91 337.82"/>
      <polygon class="cls-7" points="313.81 349.39 321.7 341.87 320.31 340.41 312.42 347.94 313.81 349.39 313.81 349.39"/>
      <path class="cls-7" d="M273.08,311.47l12.93-12.33c1.03-.98,2.67-.94,3.66.09h0c.98,1.03.94,2.67-.09,3.66l-12.93,12.33c-1.03.98-2.67.94-3.66-.09h0c-.98-1.03-.94-2.67.09-3.66h0Z"/>
      <path class="cls-2" d="M274.19,312.63l12.93-12.33c.39-.37,1.02-.36,1.39.03h0c.37.39.36,1.02-.03,1.39l-12.93,12.33c-.39.37-1.02.36-1.39-.03h0c-.37-.39-.36-1.01.03-1.39h0Z"/>
      <polygon class="cls-7" points="274.14 312.65 287.14 300.24 286.16 299.25 281.59 298.72 272.94 306.97 273.21 311.64 274.14 312.65 274.14 312.65"/>
      <polygon class="cls-2" points="274.72 309.87 284.38 300.66 282.15 300.4 274.59 307.62 274.72 309.87 274.72 309.87"/>
      <polygon class="cls-7" points="275.49 314.07 288.49 301.66 289.44 302.69 289.76 307.28 281.11 315.53 276.45 315.04 275.49 314.07 275.49 314.07"/>
      <polygon class="cls-2" points="278.29 313.62 280.54 313.85 288.1 306.64 287.95 304.4 278.29 313.62 278.29 313.62"/>
      <polygon class="cls-7" points="281.16 314.88 289.11 307.3 291.62 309.93 283.67 317.52 281.16 314.88 281.16 314.88"/>
      <path class="cls-7" d="M245.1,275.22c2.24,4.42,4.58,8.64,6.81,13.06,3.41-1.93,1.85-4.06,2.39-4.77.86-1.13,1.77,2.05,4.11-.15,2.27-2.13-.76-3.48.25-4.31,1.55-1.27,2.31,1.83,5.18-2.16l-12.78-7.37-5.97,5.69h0Z"/>
      <path class="cls-2" d="M252.42,285.75c.57-1.02-.37-1.93.61-3.21,1.53-2,2.93-.15,3.78.01.14-.02.42-.28.52-.36,1.17-1.1-1.96-2.5.33-4.38,2.02-1.66,2.46.04,3.61-.55l-9.96-5.74-4.23,4.04c1.75,3.41,3.58,6.78,5.35,10.19h0Z"/>
      <path class="cls-7" d="M218.12,276.13h3.69c.75-.01,1.44.37,2.02.9,2.53,2.87,5.18,6.15,8.1,8.96,5.5,5.29,9.62,5.98,17.15,6.17,2.29.06,4.56.29,6.67,1.28,2.04.96,2.39,2.9,2.28,5.51-.17,4.09,3.5,3.54,4.77,1.67.81-1.2,1.6-4.87-2.43-9.4-2.94-3.31-7.39-3.09-11.33-5.13-1.05-.54-2.3-1.89-2.08-3.53l-1.95-1.52-1.9,1.15c-.08.28,1.86,1.95-1.14,1.33-.82-.17-1.49-.49-1.58-1.04-.13-.78.28-1.16.99-2.03l-2.69-2.87-2.68.25c-.1.84-.3,1.07-.46,1.45-.55,1.25-1.08,1.03-2.03-.23-1.03-1.38-.93-2.51-2.21-4.07-1.57.3-.19,1.99-.87,2.49-.41.3-1.57-1.23-1.9-1.34-1.82-1.39-2.52-2.55-2.5-3.69l.09-4.44c-2.39-.29-6.4-.82-8.66-.97.22,3.04.44,6.07.66,9.1h0Z"/>
      <path class="cls-2" d="M245.35,283.35l-.16-.12c.21,1.63-1.22,2.36-3.55,1.88-1.29-.27-2.61-.92-2.84-2.36-.15-.92.07-1.57.47-2.18l-1.22-1.3-.78.07c-.07.18-.16.37-.26.6-1.19,2.69-3.29,2.08-4.79.08-.32-.43-.55-.87-.76-1.32-.03.02-.05.04-.08.06-1.48,1.09-2.57-.33-3.58-1.18h-.03s-.21-.17-.21-.17c-1.6-1.22-3.17-2.84-3.13-5l.06-2.99c-1.76-.22-3.53-.46-5.29-.63.14,1.91.28,3.83.41,5.74h2.2c1.19,0,2.25.54,3.11,1.33l.06.06.06.06c2.64,2.98,5.13,6.11,8.01,8.87,5.23,5.03,9.05,5.54,16.08,5.72,2.54.07,4.99.34,7.31,1.43,2.89,1.36,3.32,4.14,3.2,7.03-.08,1.88,1.09,1.8,1.84.7,1.42-2.1-.95-5.92-2.3-7.43-2.46-2.76-7.52-3.04-10.87-4.77-1.57-.81-2.79-2.41-2.95-4.18h0Z"/>
      <path class="cls-7" d="M226.09,264.96c-1.29,4.05-2.09,8.72-2.03,13.55,0,.52.83,2.14,1.68,2.3,1.07.19,1.9-.88,1.95-1.39.42-4.33.75-7.21,2.26-10.4l-3.87-4.05h0Z"/>
      <path class="cls-2" d="M226.87,268.1c-.83,3.36-1.24,6.85-1.21,10.28.06.19.25.53.42.75.01-.01.02-.03.04-.04.33-3.45.66-6.58,1.95-9.75l-1.19-1.25h0Z"/>
      <path class="cls-7" d="M253.26,242.61l-.18,3.69c-.04.74.31,1.45.81,2.06,2.74,2.66,5.9,5.46,8.57,8.51,5.03,5.75,5.52,9.9,5.36,17.42-.05,2.29.08,4.57.97,6.72.86,2.08,2.79,2.52,5.4,2.53,4.1.02,3.38,3.66,1.44,4.84-1.24.75-4.94,1.37-9.28-2.87-3.17-3.1-2.74-7.53-4.59-11.56-.49-1.07-1.78-2.39-3.43-2.24l-1.43-2.02,1.24-1.85c.29-.07,1.86,1.95,1.38-1.08-.13-.83-.42-1.51-.97-1.63-.77-.16-1.17.23-2.08.89l-2.74-2.82.37-2.67c.85-.06,1.08-.25,1.47-.39,1.28-.49,1.08-1.03-.14-2.04-1.33-1.1-2.46-1.04-3.97-2.4.37-1.56,2-.1,2.53-.75.32-.39-1.15-1.63-1.25-1.96-1.3-1.88-2.43-2.64-3.57-2.67l-4.44-.12c-.17-2.4-.52-6.44-.57-8.69,3.02.36,6.04.72,9.06,1.09h0Z"/>
      <path class="cls-2" d="M259.2,270.15l-.12-.16c1.61.29,2.41-1.11,2.04-3.46-.21-1.3-.8-2.65-2.22-2.95-.91-.19-1.57,0-2.2.37l-1.24-1.28.11-.78c.18-.06.38-.14.62-.23,2.74-1.06,2.23-3.19.31-4.78-.41-.34-.85-.6-1.28-.82.02-.03.05-.05.07-.08,1.16-1.43-.21-2.58-1.01-3.63v-.03s-.16-.22-.16-.22c-1.14-1.65-2.69-3.3-4.84-3.36l-2.99-.08c-.14-1.76-.29-3.55-.38-5.31,1.9.23,3.81.46,5.71.68l-.11,2.19c-.06,1.19.44,2.27,1.18,3.17l.05.07.06.06c2.85,2.77,5.86,5.41,8.48,8.41,4.77,5.46,5.11,9.3,4.96,16.33-.05,2.54.11,5,1.09,7.37,1.22,2.95,3.98,3.51,6.88,3.53,1.88,0,1.75,1.18.61,1.87-2.17,1.32-5.87-1.23-7.32-2.65-2.64-2.58-2.68-7.65-4.25-11.08-.74-1.61-2.28-2.9-4.03-3.14h0Z"/>
      <path class="cls-7" d="M241.73,250.04c4.1-1.1,8.81-1.68,13.63-1.39.52.03,2.1.93,2.21,1.79.14,1.08-.97,1.86-1.48,1.89-4.35.22-7.23.41-10.5,1.77l-3.87-4.05h0Z"/>
      <path class="cls-2" d="M244.83,250.97c3.39-.67,6.9-.92,10.33-.72.19.07.52.27.73.45-.01.01-.03.02-.04.03-3.46.17-6.6.35-9.83,1.49l-1.19-1.25h0Z"/>
      <path class="cls-7" d="M255.71,293.09l12.76-12.17c.83-.79,2.15-.76,2.95.07h0c.79.83.76,2.15-.07,2.94l-12.76,12.17c-.83.79-2.15.76-2.95-.07h0c-.79-.83-.76-2.15.07-2.95h0Z"/>
      <path class="cls-2" d="M256.82,294.25l12.76-12.17c.19-.18.49-.17.67.02h0c.18.19.17.49-.02.68l-12.76,12.17c-.19.18-.49.17-.67-.02h0c-.18-.19-.17-.49.02-.68h0Z"/>
      <path class="cls-7" d="M212.17,229.89l11.65,12.21-4.77,4.55-11.65-12.22c-2.97-3.11-7.98-4.6-11.26-.39-4.74,6.09,4.03,11.57,8.86,13.54,3.78,1.54,7.47,1.99,11.53,1.98h2.68s0,5.35,0,5.35h-2.68c-4.76,0-9.11-.56-13.55-2.38-8.43-3.44-18.5-12.22-11.06-21.78,3.02-3.87,4.42-8.33,9.01-7.89-.23-4.61,4.29-5.8,8.3-8.63,9.9-6.99,18.2,3.48,21.24,12.07,1.6,4.52,1.97,8.89,1.74,13.65l-.13,2.67-5.34-.26.13-2.67c.2-4.05-.07-7.76-1.44-11.61-1.74-4.92-6.8-13.94-13.11-9.49-4.37,3.08-3.11,8.16-.14,11.27h0Z"/>
      <path class="cls-2" d="M217.59,253.32v-2.14s-1.07,0-1.07,0c-4.25,0-8.17-.48-12.13-2.1-5.91-2.41-15.12-8.82-9.52-16.01,3.76-4.82,9.83-3.77,13.69.27l10.55,11.05,2.45-2.34-10.55-11.05c-3.86-4.05-4.62-10.16.37-13.69,7.45-5.26,13.42,4.25,15.55,10.26,1.43,4.04,1.73,7.97,1.53,12.22l-.05,1.07,2.14.1.05-1.07c.22-4.53-.13-8.74-1.65-13.04-2.67-7.56-9.95-17.54-18.8-11.29-3.51,2.48-4.45,6.69-4.25,10.77l.09,1.86-1.85-.18c-4.07-.39-8.32.35-10.96,3.74-6.66,8.54,2.98,16.28,10.4,19.31,4.22,1.72,8.41,2.27,12.94,2.26h1.07Z"/>
      <path class="cls-7" d="M206.44,253.94c1.49-1.42,3.85-1.37,5.27.12,1.42,1.49,1.37,3.85-.12,5.27-1.49,1.42-3.85,1.37-5.27-.12-1.42-1.49-1.37-3.85.12-5.27h0Z"/>
      <path class="cls-2" d="M207.54,255.1c.85-.81,2.19-.78,3,.07.81.85.78,2.19-.07,3-.85.81-2.19.78-3-.07-.81-.85-.78-2.19.07-3h0Z"/>
      <path class="cls-7" d="M198.22,251.35c1.49-1.42,3.85-1.37,5.27.12,1.42,1.49,1.37,3.85-.12,5.27-1.49,1.42-3.85,1.37-5.27-.12-1.42-1.49-1.37-3.85.12-5.27h0Z"/>
      <path class="cls-2" d="M199.33,252.52c.85-.81,2.19-.78,3,.07.81.85.78,2.19-.07,3-.85.81-2.19.78-3-.07-.81-.85-.78-2.19.07-3h0Z"/>
      <path class="cls-7" d="M191.26,247.07c1.49-1.42,3.85-1.37,5.27.12,1.42,1.49,1.37,3.85-.12,5.27-1.49,1.42-3.85,1.37-5.27-.12-1.42-1.49-1.37-3.85.12-5.27h0Z"/>
      <path class="cls-2" d="M192.37,248.23c.85-.81,2.19-.78,3,.07.81.85.78,2.19-.07,3-.85.81-2.19.78-3-.07-.81-.85-.78-2.19.07-3h0Z"/>
      <path class="cls-7" d="M185.97,240.8c1.49-1.42,3.85-1.37,5.27.12,1.42,1.49,1.37,3.85-.12,5.27-1.49,1.42-3.85,1.37-5.27-.12-1.42-1.49-1.37-3.85.12-5.27h0Z"/>
      <path class="cls-2" d="M187.08,241.96c.85-.81,2.19-.78,3,.07.81.85.78,2.19-.07,3-.85.81-2.19.78-3-.07-.81-.85-.78-2.19.07-3h0Z"/>
      <path class="cls-7" d="M184.9,232.09c1.49-1.42,3.85-1.37,5.27.12,1.42,1.49,1.37,3.85-.12,5.27-1.49,1.42-3.85,1.37-5.27-.12s-1.37-3.85.12-5.27h0Z"/>
      <path class="cls-2" d="M186,233.25c.85-.81,2.19-.78,3,.07.81.85.78,2.19-.07,3-.85.81-2.19.78-3-.07-.81-.85-.78-2.19.07-3h0Z"/>
      <path class="cls-7" d="M189.38,224.74c1.49-1.42,3.85-1.37,5.27.12,1.42,1.49,1.37,3.85-.12,5.27-1.49,1.42-3.85,1.37-5.27-.12-1.42-1.49-1.37-3.85.12-5.27h0Z"/>
      <path class="cls-2" d="M190.49,225.9c.85-.81,2.19-.78,3,.07.81.85.78,2.19-.07,3-.85.81-2.19.78-3-.07-.81-.85-.78-2.19.07-3h0Z"/>
      <path class="cls-7" d="M198.28,220.11c1.22-1.16,3.15-1.12,4.31.1,1.16,1.22,1.12,3.15-.1,4.31-1.22,1.16-3.15,1.12-4.31-.1-1.16-1.22-1.12-3.15.1-4.31h0Z"/>
      <path class="cls-2" d="M199.39,221.28c.58-.55,1.49-.53,2.04.05.55.58.53,1.49-.05,2.04-.57.55-1.49.53-2.04-.05-.55-.57-.53-1.49.05-2.04h0Z"/>
      <path class="cls-7" d="M194.38,222.55c1.22-1.16,3.15-1.12,4.31.1,1.16,1.22,1.12,3.15-.1,4.31-1.22,1.16-3.15,1.12-4.31-.1-1.16-1.22-1.12-3.15.1-4.31h0Z"/>
      <path class="cls-2" d="M195.48,223.71c.58-.55,1.49-.53,2.04.05.55.58.53,1.49-.05,2.04-.57.55-1.49.53-2.04-.05-.55-.57-.53-1.49.05-2.04h0Z"/>
      <path class="cls-7" d="M231.68,229.86c-1.49,1.42-1.55,3.78-.12,5.27,1.42,1.49,3.78,1.55,5.27.12,1.49-1.42,1.55-3.78.12-5.27-1.42-1.49-3.78-1.55-5.27-.12h0Z"/>
      <path class="cls-2" d="M232.79,231.02c-.85.81-.88,2.15-.07,3,.81.85,2.15.88,3,.07.85-.81.88-2.15.07-3-.81-.85-2.15-.88-3-.07h0Z"/>
      <path class="cls-7" d="M229.48,221.53c-1.49,1.42-1.55,3.78-.12,5.27,1.42,1.49,3.78,1.55,5.27.12,1.49-1.42,1.55-3.78.12-5.27-1.42-1.49-3.78-1.55-5.27-.12h0Z"/>
      <path class="cls-2" d="M230.59,222.69c-.85.81-.88,2.15-.07,3,.81.85,2.15.88,3,.07.85-.81.88-2.15.07-3-.81-.85-2.15-.88-3-.07h0Z"/>
      <path class="cls-7" d="M225.53,214.37c-1.49,1.42-1.55,3.78-.12,5.27,1.42,1.49,3.78,1.55,5.27.12,1.49-1.42,1.55-3.78.12-5.27-1.42-1.49-3.78-1.55-5.27-.12h0Z"/>
      <path class="cls-2" d="M226.64,215.53c-.85.81-.88,2.15-.07,3,.81.85,2.15.88,3,.07.85-.81.88-2.15.07-3-.81-.85-2.15-.88-3-.07h0Z"/>
      <path class="cls-7" d="M219.52,208.79c-1.49,1.42-1.55,3.78-.12,5.27,1.42,1.49,3.78,1.55,5.27.12,1.49-1.42,1.55-3.78.12-5.27-1.42-1.49-3.78-1.55-5.27-.12h0Z"/>
      <path class="cls-2" d="M220.63,209.95c-.85.81-.88,2.15-.07,3,.81.85,2.15.88,3,.07.85-.81.88-2.15.07-3-.81-.85-2.15-.88-3-.07h0Z"/>
      <path class="cls-7" d="M210.87,207.31c-1.49,1.42-1.55,3.78-.12,5.27,1.42,1.49,3.78,1.55,5.27.12,1.49-1.42,1.55-3.78.12-5.27-1.42-1.49-3.78-1.55-5.27-.12h0Z"/>
      <path class="cls-2" d="M211.98,208.47c-.85.81-.88,2.15-.07,3,.81.85,2.15.88,3,.07.85-.81.88-2.15.07-3-.81-.85-2.15-.88-3-.07h0Z"/>
      <path class="cls-7" d="M203.31,211.44c-1.49,1.42-1.55,3.78-.12,5.27,1.42,1.49,3.78,1.55,5.27.12,1.49-1.42,1.55-3.78.12-5.27-1.42-1.49-3.78-1.55-5.27-.12h0Z"/>
      <path class="cls-2" d="M204.42,212.6c-.85.81-.88,2.15-.07,3,.81.85,2.15.88,3,.07.85-.81.88-2.15.07-3-.81-.85-2.15-.88-3-.07h0Z"/>
      <path class="cls-7" d="M216.74,256.7l17.22-16.43c.92-.87,2.54-.66,3.62.47h0c1.08,1.13,1.21,2.77.3,3.64l-17.22,16.43c-.92.87-2.54.66-3.62-.47h0c-1.08-1.13-1.21-2.77-.3-3.64h0Z"/>
      <path class="cls-2" d="M217.85,257.86l17.22-16.43c.28-.26.88-.08,1.35.41h0c.47.49.62,1.11.35,1.37l-17.22,16.43c-.28.26-.88.08-1.35-.41h0c-.47-.49-.62-1.11-.35-1.37h0Z"/>
      <path class="cls-7" d="M213.92,253.74l17.22-16.43c.92-.87,2.54-.66,3.62.47h0c1.08,1.13,1.21,2.77.3,3.64l-17.22,16.43c-.92.87-2.54.66-3.62-.47h0c-1.08-1.13-1.21-2.77-.3-3.64h0Z"/>
      <path class="cls-2" d="M215.02,254.9l17.22-16.43c.28-.26.88-.08,1.35.41h0c.47.49.62,1.11.35,1.37l-17.22,16.43c-.28.26-.88.08-1.35-.41h0c-.47-.49-.62-1.11-.35-1.37h0Z"/>
      <path class="cls-7" d="M200.89,216.33c-1.22,1.16-1.26,3.09-.1,4.31,1.16,1.22,3.09,1.26,4.31.1,1.22-1.16,1.26-3.09.1-4.31-1.16-1.22-3.09-1.26-4.31-.1h0Z"/>
      <path class="cls-2" d="M202,217.5c-.58.55-.6,1.46-.05,2.04.55.58,1.46.6,2.04.05.57-.55.6-1.46.05-2.04-.55-.57-1.46-.6-2.04-.05h0Z"/>
      <polygon class="cls-7" points="212.21 249.4 227.88 234.46 231.95 238.72 216.28 253.66 212.21 249.4 212.21 249.4"/>
      <polygon class="cls-2" points="214.48 249.46 227.83 236.72 229.68 238.66 216.33 251.4 214.48 249.46 214.48 249.46"/>
      <path class="cls-7" d="M212.59,246.36h0c1.14-1.09,2.96-1.04,4.04.1l2.15,2.25c1.09,1.14,1.04,2.96-.1,4.04h0c-1.14,1.09-2.96,1.04-4.04-.1l-2.15-2.25c-1.09-1.14-1.04-2.96.1-4.04h0Z"/>
      <path class="cls-2" d="M213.7,247.52h0c.5-.48,1.3-.46,1.77.04l2.15,2.25c.48.5.46,1.3-.04,1.77h0c-.5.48-1.3.46-1.77-.04l-2.15-2.26c-.48-.5-.46-1.3.04-1.77h0Z"/>
      <path class="cls-7" d="M223.85,235.62h0c1.14-1.09,2.96-1.04,4.04.1l2.15,2.25c1.09,1.14,1.04,2.96-.1,4.04h0c-1.14,1.09-2.96,1.04-4.04-.1l-2.15-2.25c-1.09-1.14-1.04-2.96.1-4.04h0Z"/>
      <path class="cls-2" d="M224.96,236.78h0c.5-.48,1.3-.46,1.77.04l2.15,2.25c.48.5.46,1.3-.04,1.77h0c-.5.48-1.3.46-1.77-.04l-2.15-2.25c-.48-.5-.46-1.3.04-1.77h0Z"/>
      <path class="cls-7" d="M218.21,241h0c1.14-1.09,2.96-1.04,4.04.09l2.15,2.25c1.09,1.14,1.04,2.96-.1,4.04h0c-1.14,1.09-2.96,1.04-4.04-.1l-2.15-2.25c-1.09-1.14-1.04-2.96.1-4.04h0Z"/>
      <path class="cls-2" d="M219.32,242.16h0c.5-.48,1.3-.46,1.77.04l2.15,2.25c.48.5.46,1.3-.04,1.77h0c-.5.48-1.3.46-1.77-.04l-2.15-2.25c-.48-.5-.46-1.3.04-1.77h0Z"/>
      <polygon class="cls-7" points="190.14 211.68 194.46 213.31 198.24 210.48 197.9 215.13 201.66 217.77 197.13 219.02 195.68 223.48 193.22 219.59 188.56 219.71 191.57 216.07 190.14 211.68 190.14 211.68"/>
      <polygon class="cls-2" points="192.7 214.37 193.37 216.41 192.04 218.02 194.09 217.97 195.21 219.74 195.88 217.7 197.95 217.13 196.23 215.93 196.38 213.88 194.71 215.13 192.7 214.37 192.7 214.37"/>
      <path class="cls-7" d="M461.82,487.75l-3.38-22.09c-.27-1.78-.67-3.56-.62-5.38.05-1.63.42-3.2,1.15-4.67,4.03-8.12,18.57-9.91,27.44-10.71l-2.35-18.95,4.54.22c4.31.21,9.69-.64,13.92-1.57,2.48-.55,4.98-1.02,7.5-1.35,5.26-.69,10.09,1.63,12.21,6.58.81,1.91,1.01,3.9,1.33,5.92,2.33,14.84,4.43,29.73,7.08,44.52,2.09,11.65-5.49,18.01-15.81,20.03.87,5.99,2.32,11.89,3.64,17.79,1.76,7.86.21,16.36-4.86,22.72-6.54,8.19-17.14,10.83-27.2,10.55-35.81-1.01-71.32-.53-106.53,6.88-12.12,2.55-23.56,6.35-35.01,11.06-12.98,5.34-24.45,10.09-38.62,11.37-6.25.56-12.65.58-18.91.07-14.58-1.2-26.01-5.94-39.39-11.44-11.45-4.71-22.89-8.5-35.01-11.06-35.21-7.42-70.72-7.9-106.53-6.88-10.06.28-20.66-2.36-27.2-10.55-5.07-6.35-6.62-14.86-4.86-22.72,1.32-5.9,2.76-11.8,3.64-17.79-10.31-2.01-17.89-8.38-15.81-20.03,2.65-14.79,4.75-29.68,7.08-44.53.33-2.02.52-4.01,1.33-5.92,2.12-4.95,6.95-7.28,12.21-6.58,2.52.33,5.02.8,7.5,1.35,4.23.93,9.61,1.78,13.92,1.57l4.5-.22-2.3,18.96c8.87.81,23.4,2.6,27.43,10.71.85,1.71,1.21,3.56,1.14,5.45-.05,1.43-.33,2.82-.55,4.23l-3.44,22.45c14.41-.42,28.84-.07,43.19,1.34,23.41,2.3,49.3,5.74,71.42,13.91,13.89,5.13,29.7,10.93,44.55,11.95,4.58.31,9.46.29,14.03-.13,14.42-1.32,29.46-6.83,42.97-11.82,22.12-8.17,48.01-11.61,71.42-13.91,14.36-1.42,28.79-1.77,43.21-1.34h0ZM468.38,474.02l2.15,14.06c7.26.22,15.35-.47,22.06-3.12,3.35-1.33,8.08-3.93,8.94-7.76.28-1.22.12-2.44-.29-3.61-1.97-5.66-7.87-3.81-12.19-2.34-5.94,2.02-14.12,4.17-20.67,2.77h0ZM516.74,447.69c-1.31.83-2.75,1.46-4.26,1.88-6.72,1.88-13.89,2.83-20.83,3.46-4.84.44-22.7,1.72-25.02,6.39-.55,1.1-.1,2.95.46,3.98,2.94,5.34,14.93,1.19,19.2-.26,5.3-1.8,11.93-3.05,17.06-.09,3.57,2.05,5.04,5.3,6.45,8.99,2.29,6.26,3.18,13.13,3.97,19.77,5.33-1.07,9.6-3.59,8.45-10.03-2.03-11.33-3.74-22.71-5.48-34.09h0ZM88.19,487.75c-.63,4.46-1.04,8.95-1.67,13.42-.9,6.34-2.41,12.56-3.81,18.8-1.19,5.33-.26,11.18,3.2,15.51,4.78,5.98,13.01,7.54,20.27,7.33,36.51-1.03,72.64-.5,108.53,7.07,12.64,2.66,24.57,6.61,36.5,11.51,12.36,5.08,23.18,9.68,36.7,10.81,5.84.49,11.96.47,17.79-.07,13.18-1.23,23.81-5.76,35.92-10.74,11.93-4.9,23.87-8.85,36.5-11.51,35.9-7.56,72.02-8.1,108.53-7.07,7.26.2,15.49-1.35,20.27-7.33,3.45-4.33,4.39-10.18,3.2-15.51-1.4-6.24-2.91-12.46-3.81-18.8-.63-4.46-1.05-8.95-1.67-13.42-8.67,7.75-25.44,9.32-35.99,8.83-16.4-.77-32.86-.57-49.2,1.04-22.64,2.23-47.91,5.53-69.29,13.43-14.24,5.26-29.7,10.85-44.9,12.29-5,.47-10.11.51-15.12.2-15.96-.98-32.56-6.99-47.47-12.49-21.38-7.9-46.66-11.2-69.29-13.43-16.34-1.61-32.8-1.81-49.2-1.04-10.55.49-27.32-1.07-35.99-8.83h0ZM493.77,434.58l1.17,9.52c5.11-.57,10.31-1.39,15.24-2.77,3.3-.92,4.89-3.4,4.52-6.78-.24-2.18-1.37-3.11-3.55-2.82-2.28.3-4.54.73-6.78,1.22-3.42.75-7.05,1.34-10.59,1.62h0ZM122.32,488.08l2.15-14.06c-6.56,1.4-14.75-.75-20.69-2.77-4.32-1.47-10.23-3.33-12.19,2.34-.41,1.17-.56,2.39-.29,3.61.87,3.83,5.59,6.44,8.94,7.77,6.71,2.66,14.81,3.34,22.07,3.12h0ZM97.91,444.1l1.17-9.53c-3.54-.28-7.18-.87-10.6-1.62-2.24-.49-4.5-.92-6.78-1.22-2.19-.29-3.32.63-3.55,2.82-.37,3.38,1.23,5.86,4.52,6.78,4.93,1.38,10.14,2.2,15.25,2.77h0ZM79.06,491.81c.79-6.64,1.68-13.51,3.97-19.78,1.41-3.68,2.87-6.92,6.45-8.98,5.13-2.95,11.76-1.71,17.06.09,4.79,1.63,18.53,6.53,19.86-1.75.11-.66.11-1.36-.19-1.97-2.32-4.67-20.18-5.95-25.02-6.39-6.94-.63-14.11-1.58-20.83-3.46-1.51-.42-2.95-1.05-4.26-1.88-1.74,11.38-3.45,22.76-5.48,34.09-1.15,6.43,3.12,8.95,8.45,10.03h0Z"/>
      <path class="cls-6" d="M290.24,521.93c-15.73-.97-32.83-7.16-47.01-12.4-21.09-7.79-47.33-11.31-69.69-13.52-16.43-1.62-32.95-1.82-49.43-1.04-10.13.47-29.59-1.02-37-10.73-.95,5.6-1.44,11.46-2.18,16.7-.89,6.29-2.4,12.48-3.78,18.67-1.3,5.82-.26,12.14,3.51,16.86,5.12,6.41,13.77,8.15,21.57,7.94,36.55-1.03,72.21-.54,108.16,7.03,12.73,2.68,24.24,6.5,36.22,11.43,13.75,5.65,23.56,9.78,37.18,10.92,5.77.48,12.31.46,18.07-.07,13.21-1.23,22.9-5.31,36.38-10.85,11.99-4.93,23.49-8.75,36.22-11.43,35.94-7.57,71.61-8.06,108.16-7.03,7.8.22,16.46-1.53,21.57-7.94,3.77-4.72,4.81-11.04,3.51-16.86-1.39-6.19-2.89-12.38-3.78-18.67-.74-5.24-1.23-11.1-2.18-16.7-7.41,9.71-26.86,11.2-37,10.73-16.49-.77-33-.57-49.43,1.04-22.36,2.2-48.6,5.72-69.69,13.52-13.42,4.96-29.47,10.77-44.49,12.2-4.87.46-9.98.5-14.87.2h0ZM465.69,464.18c3.54,6.44,15.83,2.29,21.13.49,5.57-1.89,11.42-2.71,15.74-.22,3.21,1.85,4.5,4.9,5.75,8.16,2.37,6.5,3.24,13.94,4.08,21.08,6.89-1.01,12.88-4.05,11.42-12.18-2.19-12.22-4.01-24.49-5.89-36.76-1.54,1.5-3.52,2.63-5.86,3.29-6.51,1.82-13.82,2.8-20.54,3.41-5.49.5-23.52,1.65-26.32,7.27-.8,1.6-.34,3.95.49,5.46h0ZM466.41,471.76l2.74,17.87c7.8.35,16.72-.29,24.04-3.18,3.9-1.55,8.91-4.45,9.92-8.9.34-1.52.17-3.03-.34-4.49-2.32-6.68-8.78-5.18-14.23-3.33-6.34,2.15-15.71,4.6-22.13,2.03h0ZM463.7,489.41l-3.68-24c-.25-1.65-.65-3.42-.6-5.09.04-1.38.35-2.72.98-4,3.8-7.65,18.79-9.19,27.8-9.97l-2.32-18.71,2.64.13c4.23.2,10.23-.7,14.34-1.61,2.44-.54,4.89-1,7.37-1.33,4.83-.64,8.79,1.58,10.52,5.62.74,1.75.93,3.69,1.23,5.55,2.34,14.86,4.43,29.74,7.09,44.55,2.04,11.41-6.01,16.93-16.04,18.43l.17,1.2c.87,6.14,2.35,12.2,3.71,18.26,1.65,7.4.23,15.38-4.55,21.36-6.24,7.81-16.32,10.21-25.9,9.94-36.1-1.02-71.4-.56-106.91,6.92-12.41,2.61-23.61,6.34-35.29,11.14-14.1,5.8-24.29,10-38.16,11.26-6.09.55-12.53.56-18.63.06-14.25-1.17-24.55-5.42-38.91-11.32-11.68-4.8-22.88-8.53-35.29-11.14-35.51-7.48-70.8-7.94-106.91-6.92-9.59.27-19.66-2.13-25.9-9.94-4.78-5.99-6.2-13.96-4.55-21.36,1.35-6.05,2.83-12.11,3.71-18.26l.17-1.2c-10.03-1.5-18.08-7.02-16.03-18.43,2.66-14.81,4.75-29.69,7.09-44.55.3-1.86.48-3.8,1.23-5.55,1.73-4.04,5.69-6.26,10.52-5.62,2.48.33,4.93.79,7.37,1.33,4.11.91,10.11,1.81,14.34,1.61l2.6-.13-2.27,18.71c9.01.78,23.99,2.33,27.79,9.97.74,1.49,1.03,3.07.98,4.69-.04,1.34-.33,2.73-.53,4.04l-3.73,24.36c14.99-.51,29.98-.2,44.92,1.27,22.86,2.25,49.46,5.86,71.02,13.82,13.38,4.94,30.01,11.02,45,12.05,4.5.31,9.84.28,14.29-.13,14.56-1.33,30.48-7.15,43.39-11.92,21.56-7.96,48.16-11.57,71.02-13.82,14.94-1.47,29.94-1.79,44.93-1.27h0ZM491.97,433.09l1.57,12.78c5.68-.59,11.68-1.48,17.07-2.99,4.06-1.14,6.13-4.35,5.68-8.5-.33-3.1-2.29-4.64-5.36-4.24-2.32.31-4.63.74-6.92,1.25-3.47.77-8,1.49-12.05,1.7h0ZM123.7,489.63l2.74-17.88c-6.41,2.58-15.8.13-22.14-2.03-5.45-1.85-11.91-3.34-14.23,3.33-.51,1.46-.68,2.97-.34,4.49,1.01,4.46,6.01,7.36,9.92,8.9,7.32,2.9,16.25,3.54,24.05,3.18h0ZM99.31,445.87l1.57-12.78c-4.05-.21-8.58-.93-12.06-1.7-2.29-.5-4.59-.94-6.92-1.25-3.07-.41-5.02,1.14-5.36,4.24-.45,4.15,1.62,7.36,5.68,8.5,5.39,1.51,11.4,2.4,17.08,2.99h0ZM80.45,493.68c.84-7.14,1.71-14.59,4.08-21.08,1.25-3.25,2.53-6.31,5.75-8.16,4.32-2.49,10.17-1.67,15.74.22,5.88,2,20.37,6.89,21.96-3.01.16-1.01.12-2.02-.34-2.94-2.79-5.62-20.83-6.78-26.32-7.27-6.72-.61-14.03-1.59-20.54-3.41-2.35-.66-4.32-1.79-5.86-3.29-1.88,12.27-3.7,24.54-5.89,36.76-1.46,8.13,4.53,11.17,11.42,12.18h0Z"/>
      <path class="cls-12" d="M98.2,514.51l.56.07c1.12.14,1.96-.05,2.53-.56.57-.52.94-1.4,1.09-2.67.16-1.32.04-2.31-.36-2.95-.41-.64-1.13-1.03-2.18-1.16-.2-.02-.35-.04-.44-.05-.1,0-.2,0-.32.02l-.89,7.29h0ZM96.39,529.29c.09.01.2.03.33.06.12.03.21.05.28.06,1.24.15,2.18-.1,2.82-.76.65-.66,1.07-1.82,1.28-3.46.21-1.7.1-2.96-.34-3.77-.43-.82-1.24-1.3-2.41-1.45-.2-.03-.35-.04-.48-.05s-.23,0-.32,0l-1.15,9.37h0ZM89.73,533.93l4.01-32.63,7.58.93c2.92.36,5.03,1.27,6.32,2.72,1.3,1.46,1.79,3.46,1.47,6.02-.23,1.86-.86,3.37-1.89,4.52-1.03,1.15-2.43,1.9-4.18,2.25,1.88.76,3.18,1.83,3.91,3.19.73,1.36.96,3.16.69,5.39-.4,3.23-1.45,5.56-3.15,6.98-1.71,1.42-4.07,1.94-7.09,1.57l-7.67-.94h0Z"/>
      <path class="cls-12" d="M114.92,524.16l3.46.06-1.48-14.6-1.98,14.54h0ZM108.09,536.49l5.23-32.79,8.43.15,3.66,32.94-5.68-.1-.81-7.05-4.71-.08-.94,7.02-5.18-.09h0Z"/>
      <path class="cls-12" d="M126.62,536.95v-32.87h5.82l3.96,11.55c.51,1.49.88,2.71,1.13,3.67.25.96.43,1.86.56,2.69v-17.91h5.11v32.87h-4.94l-4.52-12.71c-.54-1.51-.97-2.78-1.27-3.8-.3-1.02-.55-1.97-.73-2.86v19.37h-5.11Z"/>
      <path class="cls-12" d="M158.34,534.9c-.85.9-1.74,1.58-2.67,2.03-.93.46-1.89.68-2.87.68-2.69,0-4.73-1.36-6.11-4.07-1.4-2.72-2.1-6.67-2.1-11.87,0-6.16.76-10.75,2.28-13.75,1.53-3,3.86-4.5,6.99-4.5,2.69,0,4.66.91,5.95,2.73,1.28,1.82,1.92,4.62,1.92,8.4,0,.16,0,.39-.02.71-.01.32-.02.57-.02.73h-5.91c0-.18,0-.46.02-.81.01-.37.02-.63.02-.8,0-2.07-.16-3.54-.49-4.4-.33-.85-.88-1.28-1.64-1.28-.92,0-1.54.71-1.88,2.13-.34,1.43-.51,5.11-.51,11.07,0,4.17.19,6.91.58,8.23.39,1.32,1.06,1.98,2.03,1.98.88,0,1.54-.45,1.96-1.35.43-.9.65-2.27.65-4.11h-2.39v-5.48h7.78v15.78h-2.75l-.82-2.05h0Z"/>
      <path class="cls-12" d="M171.63,532.61c.85.04,1.49-.66,1.91-2.12.43-1.46.74-4.16.95-8.13.29-5.46.3-8.99.04-10.56-.26-1.57-.84-2.39-1.73-2.44-.94-.05-1.62.61-2.05,1.98-.43,1.38-.78,4.65-1.05,9.82-.25,4.76-.23,7.84.06,9.25.29,1.41.92,2.14,1.88,2.19h0ZM163.06,520.6c.32-6.02,1.26-10.33,2.85-12.91,1.58-2.59,3.99-3.8,7.22-3.63,3.11.16,5.32,1.63,6.61,4.41,1.29,2.77,1.78,7.14,1.47,13.08-.31,5.96-1.24,10.26-2.8,12.88-1.56,2.62-3.89,3.85-7.01,3.68-3.24-.17-5.52-1.62-6.83-4.37-1.31-2.75-1.81-7.13-1.5-13.14h0Z"/>
      <path class="cls-12" d="M192.7,511.68l-1.24-.17-1.3,9.23.41.06c1.38.2,2.43-.03,3.13-.69.7-.65,1.17-1.8,1.41-3.47.22-1.54.13-2.72-.26-3.52-.39-.81-1.11-1.28-2.14-1.43h0ZM181.27,538.15l4.58-32.55,7.61,1.07c3.18.45,5.42,1.52,6.71,3.22,1.29,1.71,1.72,4.13,1.27,7.26-.25,1.77-.75,3.26-1.51,4.46-.76,1.2-1.81,2.17-3.15,2.92l1.38,15.99-6.01-.85-.93-14.48-1.69-.24-1.98,14.07-6.28-.88h0Z"/>
      <path class="cls-12" d="M224.48,533.43c-1.06,4.3-2.5,7.36-4.35,9.19-1.84,1.83-4.1,2.44-6.78,1.82-2.91-.67-4.75-2.43-5.52-5.3-.77-2.86-.52-7.04.75-12.53,1.34-5.82,3.08-10,5.22-12.55,2.13-2.55,4.68-3.48,7.66-2.8,2.56.59,4.28,2,5.17,4.23.89,2.23.92,5.17.07,8.84l-.17.73-6.07-1.4.34-1.48c.49-2.14.69-3.65.59-4.54-.1-.89-.48-1.41-1.14-1.56-.91-.21-1.73.47-2.47,2.05-.73,1.58-1.71,5.03-2.94,10.35-.93,4.01-1.37,6.72-1.32,8.13.05,1.41.54,2.21,1.47,2.43.79.18,1.5-.24,2.13-1.27.63-1.03,1.22-2.75,1.77-5.15l.1-.45,5.47,1.26h0Z"/>
      <polygon class="cls-12" points="222.98 546.33 232.04 514.73 238.14 516.48 229.08 548.08 222.98 546.33 222.98 546.33"/>
      <polygon class="cls-12" points="238.29 522.57 239.96 517.42 255.63 522.52 253.96 527.66 249.14 526.09 240.65 552.21 234.64 550.26 243.13 524.14 238.29 522.57 238.29 522.57"/>
      <polygon class="cls-12" points="257.44 523.29 263.51 525.14 262.87 537.86 270.05 527.14 274.94 528.64 263.02 545.48 259.14 558.18 253.05 556.32 256.93 543.62 257.44 523.29 257.44 523.29"/>
      <polygon class="cls-12" points="282.96 563.61 285.25 530.82 299.31 531.8 298.93 537.24 291.22 536.7 290.69 544.33 296.49 544.73 296.12 550.11 290.31 549.7 289.31 564.05 282.96 563.61 282.96 563.61"/>
      <path class="cls-12" d="M312.66,557.62c.83-.16,1.28-1,1.34-2.52.06-1.51-.29-4.22-1.05-8.11-1.04-5.37-1.88-8.79-2.51-10.26-.63-1.47-1.39-2.12-2.27-1.95-.92.18-1.43.99-1.51,2.42-.08,1.44.37,4.7,1.36,9.79.91,4.68,1.67,7.66,2.29,8.96.62,1.29,1.4,1.85,2.35,1.67h0ZM301.44,548.04c-1.15-5.92-1.27-10.33-.36-13.22.91-2.9,2.95-4.65,6.12-5.27,3.06-.6,5.56.3,7.48,2.68,1.92,2.38,3.45,6.5,4.59,12.34,1.14,5.86,1.27,10.25.39,13.17-.88,2.91-2.85,4.67-5.91,5.27-3.18.62-5.75-.24-7.69-2.59-1.94-2.35-3.48-6.48-4.63-12.38h0Z"/>
      <path class="cls-12" d="M333.26,552.64c.81-.23,1.19-1.11,1.12-2.63-.07-1.51-.66-4.18-1.75-7.99-1.51-5.26-2.64-8.59-3.4-10-.76-1.4-1.57-1.99-2.43-1.74-.9.26-1.34,1.11-1.3,2.54.04,1.44.78,4.65,2.21,9.63,1.31,4.58,2.33,7.48,3.07,8.73.73,1.23,1.56,1.72,2.49,1.46h0ZM321.24,544.07c-1.66-5.8-2.17-10.18-1.51-13.14.65-2.96,2.54-4.89,5.64-5.78,3-.86,5.57-.19,7.68,2.02,2.13,2.2,4.01,6.17,5.65,11.9,1.65,5.74,2.16,10.1,1.54,13.09-.62,2.98-2.43,4.9-5.43,5.76-3.12.89-5.75.26-7.89-1.91-2.13-2.17-4.03-6.15-5.69-11.93h0Z"/>
      <polygon class="cls-12" points="336.17 527.82 334.59 522.64 350.35 517.83 351.93 523 347.08 524.48 355.11 550.75 349.07 552.59 341.04 526.33 336.17 527.82 336.17 527.82"/>
      <path class="cls-12" d="M362.11,527.37l.55-.15c1.09-.29,1.8-.78,2.14-1.46.34-.69.34-1.65.01-2.88-.35-1.29-.83-2.16-1.44-2.6-.62-.44-1.44-.53-2.46-.26-.2.05-.34.09-.43.12-.09.03-.19.08-.28.14l1.9,7.09h0ZM365.97,541.76c.09-.03.2-.05.33-.07.12-.02.22-.03.28-.05,1.21-.32,1.98-.91,2.33-1.76.35-.86.32-2.09-.11-3.68-.44-1.66-1.02-2.78-1.73-3.37-.71-.6-1.64-.74-2.78-.44-.2.05-.35.09-.46.13-.12.04-.21.08-.3.12l2.44,9.12h0ZM361.53,548.55l-8.51-31.75,7.38-1.98c2.84-.76,5.14-.71,6.88.16,1.75.87,2.95,2.54,3.62,5.03.49,1.81.47,3.45-.06,4.9-.53,1.45-1.54,2.67-3.03,3.65,2.03,0,3.63.51,4.82,1.5,1.19.99,2.08,2.57,2.66,4.73.84,3.15.74,5.7-.31,7.65-1.05,1.95-3.05,3.32-5.98,4.11l-7.47,2h0Z"/>
      <path class="cls-12" d="M381.72,530.42l3.4-.66-4.48-13.97,1.08,14.63h0ZM377.61,543.89l-1.7-33.16,8.28-1.61,10.42,31.46-5.58,1.08-2.25-6.72-4.63.9.54,7.06-5.09.99h0Z"/>
      <polygon class="cls-12" points="396.6 540.44 392.59 507.81 398.88 507.03 402.23 534.29 410.09 533.33 410.75 538.7 396.6 540.44 396.6 540.44"/>
      <polygon class="cls-12" points="413.5 538.21 411.21 505.41 417.53 504.97 419.45 532.37 427.34 531.82 427.72 537.21 413.5 538.21 413.5 538.21"/>
      <path class="cls-12" d="M450.7,524.01c.01,4.43-.65,7.75-2,9.97-1.34,2.22-3.39,3.36-6.13,3.41-2.99.05-5.2-1.21-6.64-3.8-1.43-2.59-2.2-6.71-2.3-12.34-.1-5.97.57-10.45,2.03-13.44,1.45-2.99,3.7-4.51,6.75-4.57,2.62-.05,4.63.91,6.04,2.85,1.41,1.95,2.14,4.8,2.21,8.55v.75s-6.22.11-6.22.11l-.03-1.52c-.04-2.19-.21-3.71-.52-4.55-.31-.84-.81-1.25-1.49-1.24-.94.02-1.57.88-1.9,2.59-.33,1.71-.44,5.29-.35,10.75.07,4.12.3,6.86.69,8.21.39,1.35,1.06,2.01,2.01,2,.81-.01,1.4-.6,1.76-1.75.36-1.15.52-2.96.47-5.43v-.46s5.61-.1,5.61-.1h0Z"/>
      <polygon class="cls-12" points="452.8 536.48 452.8 503.61 459.14 503.61 459.14 531.07 467.06 531.07 467.06 536.48 452.8 536.48 452.8 536.48"/>
      <path class="cls-12" d="M468.64,529.13l-.45-25.55,6.34-.11.44,25.41c.01.88.2,1.54.55,1.98.35.44.86.65,1.55.64.68-.01,1.18-.22,1.48-.64.3-.42.45-1.1.43-2.06l-.44-25.41,5.62-.1.45,25.55c.05,2.64-.56,4.63-1.83,5.98-1.26,1.35-3.18,2.04-5.74,2.09-2.81.05-4.89-.57-6.26-1.85-1.37-1.28-2.08-3.26-2.13-5.94h0Z"/>
      <path class="cls-12" d="M493.71,515.21l.57-.04c1.12-.08,1.92-.42,2.38-1.03.46-.62.65-1.56.56-2.82-.09-1.33-.4-2.28-.91-2.83-.52-.56-1.31-.8-2.36-.72-.2.01-.35.02-.44.04-.1.01-.2.04-.3.08l.51,7.33h0ZM494.75,530.06c.09,0,.2,0,.34,0,.13,0,.22,0,.28,0,1.25-.09,2.12-.51,2.62-1.29.51-.78.71-1.99.59-3.64-.12-1.71-.47-2.92-1.06-3.64-.58-.72-1.47-1.04-2.64-.96-.2.01-.36.03-.48.04-.12.02-.22.04-.32.06l.66,9.41h0ZM489.1,535.88l-2.29-32.79,7.62-.53c2.93-.21,5.18.28,6.72,1.47,1.55,1.18,2.42,3.06,2.59,5.63.13,1.87-.2,3.47-.99,4.8-.8,1.32-2.03,2.33-3.67,3,1.99.39,3.47,1.19,4.45,2.39.98,1.2,1.55,2.92,1.71,5.15.23,3.25-.36,5.74-1.76,7.45-1.4,1.72-3.62,2.68-6.66,2.89l-7.71.54h0Z"/>
      <path class="cls-7" d="M283.87,101.1c10.13-1.58,22.65-10.11,30.62-11.64,1.54-.3,2.73.23,4.2,1.53,1.3,1.15,3.87,2.43,3.54,3.5-.11,1-1.74,2.3-2.55,2.87-1.24.89-3.61,1.02-5.05,1.29-2.67.51-6.65-2.14-9.32-1.65-4.86.9-4.79,5.43-4.3,8.98l3.59-.14,1.15,1.65,1.92-.2,1.02.7,2.72-1.22c2.1.16,4.57-.1,5.45.58,2.36-.31,4.25-.85,7.06-.94,3.28-.11,6,.85,8-.78,3.15-2.57,3.8-5,1.79-12,4.16-3.35,6.15-8.15,5.52-12.71-1.47-10.68-11.26-17.36-16.63-18.1-14.1,6.56-27.85,11.61-41.95,18.18-4.4,5.89-8.8,11.78-13.19,17.67,5.55,4.07,10.87,1.24,16.42,2.44h0Z"/>
      <path class="cls-8" d="M324.2,94.89c-.25,1.55-2.19,3.65-3.79,4.4-1.05.49-3.71,1.01-5.4,1.33-3.35.65-7.2-2.04-9.34-1.65-2.35.43-2.9,2.2-2.9,4.14l.93-.37,2.03-.81.97,2.49,1.9-1.29,1.28,2.22,1.6-.98c1.78,1.26,1.62.77,3.77.81,2.85-.4,5.72-.68,8.59-.78,1.59-.05,5.63.62,6.8-.33,3.39-2.77,2.23-6.06,1.13-9.89-.61-2.13-1.38-4.24-.69-6.36.41-1.27,2.69-1.11,2.11.77-.38,1.25-.24,2-.14,3.11,3.49-3.61,4.64-7.16,4.18-10.52-.93-6.78-7.4-14.96-14.36-16.3-13.5,6.24-27.44,11.45-40.93,17.7-3.85,5.16-7.7,10.31-11.55,15.47,4.19,1.84,8.88.15,13.51,1,10.56-1.78,20.23-9.65,30.2-11.57,2.36-.45,4.17.45,5.91,1.99,1.57,1.38,4.82,2.79,4.18,5.41h0Z"/>
      <path class="cls-7" d="M251.03,41.97c1.82,3.04,4.87,4.85,8.67,4.38,4.76-.59,5.35-4.33,14.06-5.1-2.03-1.58-3.83-1.6-5.88-1.37-3.73.42-6.53,2.73-10.25,3.23-2.16.29-4.47-.07-6.6-1.15h0Z"/>
      <path class="cls-7" d="M273.11,26.13c-5.45-.6-5.08,4.14-8.72,5.53-2.32.89-4.92,1.34-5.93,3.71-1.35,3.15-.42,6.79,1.46,8.32,1.32-3.45,2.88-5.74,5.59-5.82,2.2-.07,2.73.38,4.04,1.11.68.38,3.54-.33,3.35,1.26-.09.76-1.74.46-2.39.98-1.98,1.56-3.23,3.17-6.93,2.4.19,1.7,1.71,4.16,4.52,4.46,3.07.32,6.69-2.19,8.58-1.58.4.31.56-.37.92-.5,1.46-.57,2.97-1.91,3.13-2.63.24-1.1,1.25-.92,2.34-1.83.77-.64.67-1.73,1.52-2.08-5.07-4.79-6.4-8.54-11.47-13.33h0Z"/>
      <path class="cls-8" d="M276.35,44.41c4.14-2.44,6.29-5.86,5.94-6.2-.24-.24-1.26.03-1.5-.2-3.12-2.9-5.6-6.76-8.64-9.67-3.29-.04-3.15,3.72-7.04,5.2-1.45.55-4.16,1.1-4.81,2.63-.36.85-.53,2-.42,3.1,1.26-1.89,3.01-3.31,5.57-3.39,2.26-.07,3.1.26,4.87,1.25,2.07.3,4.96.09,4.56,3.36-.26,2.15-1.95,2-3.27,2.42-1.71,1.35-2.93,2.36-4.51,2.76.92.03,1.79-.53,1.2-.36-.19.05-.19.76.01.78,2.48.26,5.39-1.89,8.05-1.68h0Z"/>
      <path class="cls-7" d="M267.73,78.4l-12.05,12.07c-2.19,2.19,1.24,6.9,4.3,9.34,2.99-3.23,5.83-6.96,8.82-10.19,2.55-2.76,5.26-5.02,7.81-7.77l-8.89-3.45h0Z"/>
      <path class="cls-8" d="M268.23,80.74l-11.12,11.14c-.81.81,1.25,3.41,2.8,5.06,2.38-2.57,4.62-5.64,6.99-8.21,2.03-2.2,4.21-3.89,6.24-6.09l-4.92-1.91h0Z"/>
      <path class="cls-7" d="M272.32,83.57l-12.62,12.78c-3.03,3.07,3.29,10.78,5.17,10.78.81,0,1.63-.45,2.44-.48,2.19-.07,4.22.56,6.4.55,2.18,0,4.5-.65,6.71-.66,1.35,0,3.19.51,5.13.61,1.93.1,3.96-.2,5.69-.39,1.69-.19,3.1-.3,3.87-1.47.94-1.45,1.59-3.15-.34-3.7-.66-1.95,0-4.09-1.22-4.81-1.04-.61-2.73.05-3.59,1.29-2.54-2.49-5.33-2.94-6.6-.29-3.28-1.46-3.23-1.84-5.88.58-.96-.96-2.06-1.12-2.87-1.29,1.41-2.95,2.85-4.74,5.48-6.27,4.87-.61,6.12-4.2,5.13-11.26-4.3,1.15-8.61,2.87-12.91,4.02h0Z"/>
      <path class="cls-8" d="M289.47,100.25c-.79-.28-3.31-3.66-4.29-1.59-.93,1.94-.66,1.84-2.63.97-2.03-.9-2.03-1.3-3.71.23-1.56,1.42-1.28,1.43-2.77-.07-.52-.52-1.17-.32-1.85-.46-2.75-.89-2.65-.5-1.4-3.12,1.56-3.26,3.5-5.52,6.63-7.34,3.93-.49,4.39-3.41,4.09-6.75-3.4,1.04-5.15.71-8.58,1.66-4.61,4.66-9.21,9.32-13.82,13.98-1.02,1.04,1.05,4.47,2.72,6.3.95,1.04,1.22,1.07,2.55,1.03,5.2-.18,10.27-.75,14.08-.68,3.17.06,12.1,2.34,13.46-.95l-.74-.21.17-1.5c-.19-.56-.39-2.09-.79-2.76-.42-.71-2.42,1.51-3.11,1.27h0Z"/>
      <path class="cls-7" d="M347.26,22.12c-6.83,1.41-13.54,2.53-20.99,4.02-5.46,1.1-10.64,2.38-15.65,4.69-3.68,1.69-7.85,5.66-8.08,9.35-.66,10.77,2.98,19.83-10.89,24.55-1.57.53-3.5,1.16-5.55,1.16.1-2.32.63-5.09,1.69-7.67,3.05-7.43,8.45-15.39,4.48-22.93,5.43-2.59,5.57-10.68,2.87-21.12-2.68,6.51-10.38,2.25-8.75,14.51-3.06-3.26-4.72-4.55-7.31-4.89-3.65-.48-7.17,1.96-8.32,3.45,1.35,2.51,2.66,3.99,2.57,5.77-.08,1.61.77,3.25,1.57,4.02,1.31,1.26,3.12,1.28,5.28,1.18.41-.02.84-.04,1.28-.06.26-.01.82-.09,1.09-.1-.03.45-.43.97-.58,1.41-.57,1.55-1.79,2.96-2.37,3.93-.75,1.25-1.92,2.33-2.87,3.32-3.11,3.25-7.37,5.72-13.15,11.33-1.02.99-4.4,4.34-2.44,7.71-.81,1.27-3.67,6.39,0,8.04-.33,5.51.91,9.29,5.16,8.19,2.49,3.16,5.55,3.3,8.89,2.16,2.13.89,4.97,1.3,7.12.74s3.83-2.07,4.43-1.96c.74.14,1.22,2.34,3.14,3.17,1.76.76,4.93-.37,5.96-2.16,8,.92,14.63.88,14.56-4.74,3.73-.19,7.58-2.73,7.82-6.53,3.03-.17,8.06-2.8,9.51-6.46,2.36-.5,5.38-2.78,5.66-4.84,2.07-.91,3.49-1.95,4.52-4.27,2.57-.99,5.47-4.11,7.27-7.49l-5.52.72c3.15-1.72,5.04-4.36,6.2-7.62.49-1.37.85-2.79,4.5-3.29,1.45-.2,2.11-1.67,2.18-1.86.14-.39-2.87-.05-4.84.2l-2.37.14c1.33-1.12,2.08-2.23,2.6-3.47,1.03-2.44,1.3-2.01,4.59-3.37,1.63-.68,1.59-1.87,1.62-2.1.01-.1-7.72,1.3-8.81,1.47,1.9-.9,3.1-2.32,3.85-3.84,1.11-2.27,1.44-2.87,3.1-3.52,2.17-.85,1.41-1.69,1.45-2.06.01-.13-5.96,1.03-6.46,1.14h0Z"/>
      <path class="cls-3" d="M341,52.15c-2.62.58-6.16,1.67-10.08,1.24-.99-.11-.68-1.41-.02-1.54,3.84-.74,4.94-1.42,7.44-2.95,3.13-1.91,5.24-5.57,6.48-8.99-1.81.11-6.19.93-8,1.04-2.31.14-1.89-1.79-.03-1.97,2.4-.24,6.37-1.92,7.24-2.65,1.52-1.28,2.12-2.56,2.47-4.09-3.61,1.07-6.45,1.7-10.54,2.14-1.23.13-2.29-1.71.21-2.23,4.13-.85,10.75-3.49,11.69-8.11-3.02.69-6.11.73-10.68,1.52-3.32.58-7.21,1.88-10.51,2.54-5.22,1.05-10.35,2.3-15.2,4.54-2.61,1.21-6.73,4.57-6.92,7.65-.75,12.23,2.69,21.24-12.25,26.33-2.03.69-4.03,1.27-6.2,1.27h-2.09s.09-2.09.09-2.09c.12-2.81.77-5.75,1.84-8.35,1.98-4.82,5.85-10.98,5.76-16.64-.02-1.58-.36-3.13-1.13-4.59-.62-1.29-1.37-1.95.84-2.75,4.33-2.06,3.75-9.39,2.73-14.71-3.23,2.37-6.85,1.39-5.76,9.65.1.77.22,1.54.31,2.32.17,1.41-1.02,2.23-1.89,1.31-.62-.66-1.25-1.33-1.87-1.99-1.68-1.79-3.54-3.93-6.11-4.27-1.82-.24-4.36.69-5.86,2.03.13.52.27,1.09.44,1.7,1.38-.58,2.74-1.94,5.39-.74,2.29,1.03,3.19,3.35,4.08,5.99.03.1-.11.72-.84.24-.56-.36-1.97-2.29-2.86-2.85-2.06,1.86-2.26,1.77-5.15-.6.7,2.04,1.66,4,2.95,4.77,1.18.71,2.87.74,4.2.71,2.21-.09,2.47,1.09,1.96,2.63-3.16,9.55-11.32,13.19-18.15,19.83-1.27,1.23-3.19,3.39-2.1,5.26l.62,1.06-.66,1.03c-.59.92-2.53,4.38-.86,5.13l1.26.57-.08,1.38c-.12,1.97-.56,6.96,2.66,6.13l1.27-.33.81,1.03c1.85,2.35,3.99,2.42,6.66,1.5l.72-.25.7.29c1.65.69,4.08,1.11,5.83.65,1.69-.45,3.74-2.29,5.32-1.99,2.03.39,2.15,2.69,3.56,3.29.88.38,2.95-.48,3.43-1.32l.66-1.14,1.31.15c2.63.3,12.38,1.93,12.32-2.72l-.02-1.93,1.93-.1c2.55-.13,5.74-1.82,5.92-4.65l.11-1.78,1.78-.1c2.69-.15,6.73-2.61,7.76-5.19l.4-1,1.05-.22c1.2-.25,3.91-1.85,4.08-3.15l.15-1.12,1.03-.45c1.72-.76,2.71-1.49,3.49-3.25l.34-.76.77-.3c1.32-.51,2.67-1.7,3.82-3.05h0ZM329.97,32.13c-5.36.77-13.45,2.82-16.49,7.47-3.2,4.9.72,15.81-2.73,20.55-1.64,2.25-3.46,2.71-5.15,3.69-3.72,2.16-6.39,2.94-16.51,8.38-1.3.7-.91,1.95.93,1.36,5.57-1.77,20.08-7.2,22.73-9.55,5.64-5.03,1.36-16.17,4.3-23.13,1.8-4.25,8.65-5.86,12.91-7.33.59-.2.61-1.52,0-1.44h0Z"/>
      <path class="cls-7" d="M315.81,99.7c-2.22-3.49-2.6-9.38-.18-14.62,5.03-10.9,14.1-15.03,22.37-18.39,3.54-1.85,6.07-6.17,9.96-7.24,5.01-1.38,11.48-.12,16.42-1.52-2.13,4.19-6.19,8.38-9.39,8.76l1.79,1.08c-4.36,3.87-11.83,2.47-16.63,4.45-6.58,2.71-11.02,6.23-13.73,9.28-3.15,3.55-6.52,8.92-3.27,14.66l-7.35,3.54h0Z"/>
      <path class="cls-8" d="M317.16,97.92c1.27-.21,2.79-.9,3.85-1.66-2.93-5.85-.29-11.35,3.92-16.1,3.86-4.35,9.13-7.61,14.46-9.81,3.75-1.54,9.46-1.17,13.45-2.62l-.95-.55-2.1-1.22c4.36-.41,7.38-1.58,10.45-5.39-3.99.23-8.07-.21-11.75.81-3.16.87-6.23,5.34-9.57,7.08l-.09.05-.09.04c-9.31,3.78-16.87,7.77-21.3,17.37-1.59,3.44-2.27,8.46-.29,12.01h0Z"/>
    </g>
  </g>
</svg>