<svg xmlns="http://www.w3.org/2000/svg" viewBox="0 0 564.18 700"><defs><style>.cls-1{fill:#fff}.cls-1,.cls-10,.cls-13,.cls-3,.cls-4,.cls-5,.cls-9{fill-rule:evenodd}.cls-3,.cls-6{fill:#231f20}.cls-4{fill:#ffe836}.cls-5{fill:#643d25}.cls-13,.cls-9{stroke:#231f20}.cls-9{fill:#c04446}.cls-13,.cls-9{stroke-miterlimit:22.93;stroke-width:.56px}.cls-10{fill:#000500}.cls-13{fill:#3f8a3f}</style></defs><g id="Layer_2" data-name="Layer 2"><g id="Layer_1-2" data-name="Layer 1"><path d="M286.61 7.05 20.47 55.92v370.89c0 47.76 28.82 93.09 68.47 132.79 61.92 62 150.1 110.11 197.12 132.72 49.55-23.55 135-72.89 195.59-133.65 40.34-40.44 69.62-85.87 69.62-131.86V55.91Z" class="cls-1"/><path d="M16.37 49.62 286 .11l.63-.11.62.11 268.12 49.51 2.85.53v376.66c0 48.1-30.13 95.13-71.65 136.75-61.9 62.05-149.26 112.26-199 135.74l-1.49.7-1.49-.71c-47-22.51-137.25-71.45-200.53-134.8-40.84-40.88-70.52-87.8-70.52-137.68V50.14l2.86-.52ZM286.61 7.05 20.47 55.92v370.89c0 47.76 28.82 93.09 68.47 132.79 61.92 62 150.1 110.11 197.12 132.72 49.55-23.55 135-72.89 195.59-133.65 40.34-40.44 69.62-85.87 69.62-131.86V55.91Z" style="fill-rule:evenodd;fill:#004789"/><path d="m122.37 635.27 8.07-3.43a7.33 7.33 0 0 0 3.74-2.8 4.22 4.22 0 0 0-.07-3.81 4.37 4.37 0 0 0-2.7-2.78c-1.15-.32-2.71-.05-4.68.78l-8 3.41 3.67 8.63ZM116.31 621l7.78-3.31a6.8 6.8 0 0 0 3.32-2.43 3.44 3.44 0 0 0 0-3.21 3.26 3.26 0 0 0-2.26-2.14 7.26 7.26 0 0 0-4.11.78l-7.71 3.31 3 7Zm2 23-14-33 15.69-6.62c3.39-1.44 6.27-1.82 8.66-1.15a8.16 8.16 0 0 1 5.31 5.08 9 9 0 0 1 .79 4.6 7.07 7.07 0 0 1-1.87 3.85 8.74 8.74 0 0 1 5.1 1.35 9.33 9.33 0 0 1 3.32 4.29 10 10 0 0 1 0 8.78c-1.37 2.64-4 4.78-7.83 6.42ZM154.86 599l-.14 16 9.53-3zm-6.28-5.54 8.16-2.59L180 621.1l-7.42 2.36-4.56-6.3-13.31 4.23v7.75l-7.44 2.36ZM186.43 598.87l8.5-1.94a6.33 6.33 0 0 0 3.82-2 4.49 4.49 0 0 0 .5-3.8 4.6 4.6 0 0 0-2.05-3.16 5.54 5.54 0 0 0-4-.31l-8.83 2 2.11 9.23Zm-2.73 21.34-8-35 17-3.89q5.76-1.32 9.08.49t4.47 6.84a10 10 0 0 1-.13 5.64 6.93 6.93 0 0 1-3.22 3.8 6 6 0 0 1 3.81 1.73 11.9 11.9 0 0 1 2.29 4.92l1.09 4.1v.15c.53 2.08 1.27 3.24 2.24 3.48l.24 1.07-7.91 1.81a6.8 6.8 0 0 1-1-1.68 18 18 0 0 1-.83-2.52l-.94-3.66c-.58-2.16-1.32-3.52-2.24-4.11s-2.33-.67-4.25-.23l-7.58 1.85 3.11 13.61ZM223.38 591.64l8.66-1.08a6.33 6.33 0 0 0 4-1.64 4.5 4.5 0 0 0 .88-3.74 4.57 4.57 0 0 0-1.72-3.34 5.55 5.55 0 0 0-4-.72l-9 1.12 1.17 9.4Zm-4.85 21L214.09 577l17.35-2.17c3.9-.48 6.89 0 9 1.4s3.34 3.85 3.76 7.25a10 10 0 0 1-.7 5.6 6.92 6.92 0 0 1-3.58 3.46 6 6 0 0 1 3.62 2.1 12 12 0 0 1 1.79 5.13L246 604v.15c.31 2.12.94 3.35 1.87 3.69l.14 1.09-8 1a6.8 6.8 0 0 1-.83-1.77 18 18 0 0 1-.58-2.59l-.57-3.74c-.35-2.2-.95-3.63-1.8-4.31s-2.26-.9-4.22-.66l-7.8 1 1.72 13.85ZM259.7 590.34c.14 3.95 1.12 7 3 9.09a8.94 8.94 0 0 0 7.49 3 9.08 9.08 0 0 0 7.34-3.54q2.55-3.36 2.34-9.28t-3-9.09a10 10 0 0 0-14.83.52q-2.52 3.35-2.31 9.28Zm-7.56.27q-.31-8.68 4.27-14t12.64-5.55q8.06-.29 13 4.65t5.27 13.61q.3 8.65-4.3 13.94t-12.66 5.56q-8.07.28-13-4.65t-5.22-13.56M300.84 607.89l-7.57-36.53 7.66.59 4.22 25.68 7.1-24.82 7.9.6 3.26 25.6 8.07-24.74 7.6.58-13.01 34.96-7.05-.54-3.46-27.79-7.68 26.94zM373.65 588.82l-8.2 13.8 9.77 2.18-1.57-16Zm-2.63-8 8.35 1.87 4.86 37.82-7.6-1.7-.78-7.73-13.62-3-3.93 6.68-7.62-1.7ZM388.1 621.62l10.47-34.29 24.05 7.35-1.82 5.96-17.06-5.21-2.37 7.77 14.95 4.57-1.82 5.96-14.95-4.57-4.45 14.59zM450.18 630.24a13.3 13.3 0 0 1-7.94 7.34c-3.54 1.19-7.48.95-11.79-.73q-7.47-2.9-9.79-9.13t.9-14.59c2.21-5.7 5.31-9.5 9.3-11.44s8.61-1.87 13.89.18q6.42 2.49 8.94 7.06t.67 10.41l-6.82-2.64a7.07 7.07 0 0 0-.64-5.23 8.65 8.65 0 0 0-4.53-3.47q-4.56-1.77-8.07.24t-5.69 7.63c-1.41 3.62-1.71 6.74-.91 9.33a9.73 9.73 0 0 0 11.32 6 8 8 0 0 0 4.38-3.57ZM76.21 244.52 127 274.68a1.38 1.38 0 0 1-.84 2.57l-26.2-1.74 105.66 156.2 21.54-.5a1.41 1.41 0 0 1 1.17.61l34.42 50.33a1.39 1.39 0 0 1-.37 1.93 1.42 1.42 0 0 1-1 .23l-21.52-1.95 4.7 6.95a1.39 1.39 0 0 1-.37 1.93 1.34 1.34 0 0 1-1 .22 5.6 5.6 0 0 0-4.07.78 4.4 4.4 0 0 0-1.41 3.15 1.38 1.38 0 0 1-1.53 1.23 1.36 1.36 0 0 1-1-.6l-4.87-7.22-7 21.14a1.34 1.34 0 0 1-.56.73 1.4 1.4 0 0 1-1.92-.41l-32.76-50.43a1.44 1.44 0 0 1-.12-1.28l8.35-20.15L90.18 281.05l-8.81 25.49a1.38 1.38 0 0 1-2.69-.35l-4.6-60.4a1.4 1.4 0 0 1 1.28-1.49 1.38 1.38 0 0 1 .85.22m44.35 29.58-43.5-25.85 3.88 51.06 7.49-21.69a1.4 1.4 0 0 1 .57-.81 1.39 1.39 0 0 1 1.93.38L231 484.86v.07l4.8 7.07a6 6 0 0 1 1.59-1.94 6.8 6.8 0 0 1 3.41-1.34L96 274.72a1.44 1.44 0 0 1-.23-.87 1.39 1.39 0 0 1 1.47-1.3l23.29 1.55Zm86.87 160.34 30.41 45 20.93 1.89L226.43 434zm20.9 51.45-30.17-44.74-7.36 17.78 30.78 47.39Z" class="cls-3"/><path d="M156.85 435c.19 4.46-5.78 5.73-7.27.46-1.15-4.08-2.1-7.85-4.24-11.69-2.31-4.15-2.75-8.92-4-13.62-1.9-7.42-2.39-15.88-4.14-23.19-.6-2.46-2.81-2.55-3.87-1.29-5.5 6.56-9.66 15.36-14.92 21.09-3.35 3.65-6.55 6.09-10 9.28-1.15 1-2.08-.89-1.06-2.6 5.94-10.05 12.77-19.52 19-29.24a55.6 55.6 0 0 1-10.4 9.66c-8.47 5.94-16.31 10.61-25.86 10.86-6.08.16-10.35-1.39-13.25-3.31-2.52-1.68-3.71-3.91-1.68-7.37a20.1 20.1 0 0 1 4.44-4.87c-2.82.21-5.85-.88-8.67-1.18-7.39-.77-13.9-3.49-16.9-8.23-1.7-2.68-2.56-6.18 0-9.46 6.33-8.19 25.75-17.41 39-16.58 4.37.27 8.82-1.25 13.23-1.79 1.91-.26 3.37-1.57 5.61-1.53s2.27-2.1.64-3.49c-3.84-3.29-8-5.58-12.51-6-7.45-.66-15.32-4-17.58-7.18-.83-1.17-.43-2.81 1.84-2 7.1 2.46 14.8 5.61 21.63 6.35 2.51.27 5.81 2.8 7.08-.09a10.5 10.5 0 0 1 3.07-4c.89-.73 3.22-2.44 1.53-3.68a9.4 9.4 0 0 0-5.42-2.3 9 9 0 0 1-3-.92c-1.26-.57-3.78-.27-5.7-.66s-2.94-2.58-1.41-3.14c3-1.08 6.21-.5 9 .14 3.31 1.23 7.71 2.66 11 3.89 1.31-.94 2-1.93 3.45-2.72 1.72-.93 3.7-2.19 5.38-2.44a57 57 0 0 1-.15-6.3 35 35 0 0 1 2.14-8.17c1-3 2.27-3.56 4-5.54 1.08-1.24 2.31-.58 1.77.44-.75 1.42-.95 2.71-1.64 4.16a62 62 0 0 0-2.76 6.07 17 17 0 0 0-.45 6.26 1.41 1.41 0 0 0 1.67 1.13c1.53-.16 3-.54 4.4-.58a16.8 16.8 0 0 1 6.83 1 11.6 11.6 0 0 0-.12-4.37c-.49-2.64-1.22-5.2-1.12-8 .11-3.27.74-6 1-9.06a35 35 0 0 0 .07-7.92c-.19-1.57.49-1.91 1.68-1.19 2 1.17 2 3.86 2.14 7-.46 4.45-.39 8.77-1.1 13.26-.38 2.36.66 4.8.62 7.17-.07 3.45.86 6.72 4 8.61 2.06-5.14 5.46-9.21 8-14.73 4-8.66 8-15.48 13.9-21.89 3.81-4.18 8.62-7.82 12.76-9.28 5.51-1.92 11.81-1.37 13.56 5.59 2.12 8.48 1.42 16.13-1.2 24.3a16.5 16.5 0 0 1 6.58-1.66c5-.45 8.5 2.85 8.69 7 .46 9.51-10.27 18-20.88 24.39-6.25 3.73-14.95 5.7-24.11 7.45.82 1.82 1.43 3.34 2.67 3.23 14.26-1.35 22.58-.94 33.13-3.32 3.24-.73 5.64 0 4.23 1.84-2 2.55-5.6 4.09-8.6 5.39a30.3 30.3 0 0 1-11 2.52 59.8 59.8 0 0 1-12.17-.48c2.8 4.33 11.41 11.35 17 16.87A79.7 79.7 0 0 0 206.6 382c1.37 1 6.42 7.13 8.1 9 3.5 3.91-1.82 5.79-5.34 3.49-3.93-2.57-7.74-7.11-11.59-10.67-2.84-2.63-5.88-5.05-8.83-7.55-3.83-3.23-8.22-6.78-13.44-8.83l8.1 14.56c3.57 6.39 7.42 13.48 7.58 20.1.17 6.83-1.72 11.47-4.13 13-2.78 1.71-10.8 2.17-14.86-.49a87.8 87.8 0 0 1-19.14-17.11c-2.45-2.9-4.16-6.73-7.57-9.82-2.54 4.66.2 7.92.77 9.9 1.61 5.66 2.51 9 4.05 14.41 2.27 7.9 6.19 14.45 6.55 23.01" class="cls-3"/><path d="M122.4 351.75A3 3 0 0 1 125 353c.21.36.67.52.89.87s.22 1.17-.18 1.3a53.6 53.6 0 0 0-8.53 3.53A135 135 0 0 0 86.7 382c-1.59 1.58-3 3.84-5.2 4.18-3.38.05-7.87.29-10.26 0-5.63-.65-10.48-2.45-14.95-8.23-1.36-1.75-2.27-4 .18-6.63C62.58 364.8 71.59 359 88 356.75c2.43-.33 4.93-.15 7.31-.87 2.11-.63 2.07.07 1.11 1.24-1.28 1.55-18.82 9.75-26.23 17.67-1.43 1.53 0 2.69 1.38 1.7 3-2.22 5.66-4.82 9.06-6.72a2.6 2.6 0 0 1 3.18.6 1.59 1.59 0 0 1-.23 2.35c-2.34 1.81-4.65 3.67-7 5.47a1.66 1.66 0 0 0-.19 2.53c.71.61 1.72.19 2.39-.46a206 206 0 0 1 25.49-20.06c1.39-.94.53-1.65-1.12-1.48s-6.88 3.44-13.6 9.14c-.77.65-2.16 1.58-3.17 1.18-.6-.24-1-.59-1.06-1.11a1.81 1.81 0 0 1 .87-1.93c5.19-4.34 13.23-7.4 14.1-8a32.6 32.6 0 0 1 12-5.38 42.1 42.1 0 0 1 10.11-.87" class="cls-1"/><path d="M123.43 359c2.28-1.15 3.6-.77 4.67.63s2 2.84 3.15 4.16a4.63 4.63 0 0 1 1 4.78c-3.55 7-7.9 14.33-13.81 19.78-9.62 8.88-21.43 14.69-35.52 12.7-3.11-.44-7.64-2.76-5.33-6.07 3.62-5.2 8.4-9.74 13.11-14.08 2.68-2.47 4.93-4.78 8.56-6.35 1.36-.59 2.69-.37 2.71 1.15 0 1-5.06 5.4-7.31 8.61-.6.84-.73 2.53.5 2.11 1-.32 2.37-2 3.48-3.28 1.38-1.55 2.83-3.52 4.34-4.54.7-.47.84-1.66 2.4-.51a15.2 15.2 0 0 1 2.57 2.21 2.26 2.26 0 0 1 .28 2.4c-.41.65-1.23 1.21-1.43 1.84a2.55 2.55 0 0 0-.2 1.4c.14.54.62 1.63 1.26 1.49s.93-1.38 1.52-2.11c.36-.44.23-.87.25-1.55a1.33 1.33 0 0 1 1.13-1.26c.59-.08.64-1.09 1.2-1.33a5.6 5.6 0 0 1 2.2-.19c.91 0 1.87.47 2.72.14.49-.19 1-1 .64-1.42-.7-.86-2.25-.61-3-1.43a2.32 2.32 0 0 1-.23-2.16 14.5 14.5 0 0 1 2.12-3.45c.36-.52 1-.84 1.24-1.43a2.48 2.48 0 0 0-.09-1.61c-.13-.39-.47-1.24-.78-1a5.1 5.1 0 0 0-1.2 1.15c-.42.77-1 1.43-1.43 2.21-.77 1.57-1.75 2.6-2.53 4a2.33 2.33 0 0 1-2.39 1.33 2.92 2.92 0 0 1-2.39-2.57 2.34 2.34 0 0 1 1.1-1.94 22.4 22.4 0 0 0 4.1-3c1.61-1.42 3.06-3 4.53-4.58 1.15-1.22 2.08-2.65 3.31-3.77a16 16 0 0 1 3.55-2.46M160.75 322.47c1.49-1.41 2.05-.42 3.18.19 1 .64 1.94 1.27 2.9 1.93 1.62 1.12 1.5 2.23.13 3.4-2.34 2-4.65 4.09-6.94 6.17a4.31 4.31 0 0 1-3.82.83 1.72 1.72 0 0 1-1.73-1.41 3.89 3.89 0 0 1 .35-3.56 50 50 0 0 1 5.93-7.55M168.57 305.63c-1.34 3.62.34 2.1 1.25 1.18 4.18-4.26 8.1-9.28 12.3-13.48 2.16-2.16 2.15 1.71 1.64 2.49-.83 1.29-3.64 3.57-5.73 5.51-.8.75-1.27 2-.74 2.56a4.5 4.5 0 0 1 1.25 1.58c.37 1.09 1.16 2.25 2.09 2.44 2.11.44 4.08-.85 5.68-1.93 3-2.05 3.76-3.32 5.52-4.07s1.71 1.25 1.27 1.93c-1.1 1.69-3.41 2.77-5.2 3.93-1.5 1-2.86 1.49-3 3.36a26 26 0 0 0 0 2.81 1.45 1.45 0 0 0 2.26 1.43 22.5 22.5 0 0 1 6.63-2.83c3-.72 4.22-3.23 5.24-5.48s1.06-5 1.1-7.52c.1-4.76.77-9.7-1-13.07-1.44-2.73-4.46-4.72-7.53-3.79a23.4 23.4 0 0 0-9.63 6.07c-6.97 6.73-12.08 13.33-13.4 16.88" class="cls-1"/><path d="M165.41 314.31c-.92.94.82 1.21 1.33 1 1.65-.71 2.79-1.16 4.4-2a46 46 0 0 0 4.87-2.71c1.33-.88 2.13-2 1.06-3.22a2.16 2.16 0 0 0-3-.55 56.4 56.4 0 0 0-8.66 7.48M179.33 312c1.15-.53 2.83-.68 3.13.82s.23 2 .36 3c.27 2-.71 2.26-1.79 2.85-3.21 1.75-6.07 3.86-8.95 5.82a2 2 0 0 1-2.68-.11 25.6 25.6 0 0 1-5.21-4.51c-.46-.56-.42-1.44.74-1.66a12.4 12.4 0 0 0 4.23-1.19c3.32-1.83 6.73-3.48 10.17-5.02M109 367c.38-.17 1 .29.65.64a24.9 24.9 0 0 1-5.06 5c-.54.34-.94-.67-.84-1.19s.73-1.06 1.06-1.54A24.4 24.4 0 0 1 109 367M169.84 329.54c-2.09 2.18.56 2.33 1.12 2 6.47-3.42 12.75-5.63 19.13-5.35.71 0 1.92 1.29 1.22 1.41-1.63.27-.83 1.26-2.47 1.63a30.7 30.7 0 0 0-6.85 2.21 3.78 3.78 0 0 0-2 3.38c0 .68-.67 1.22-.87 1.87-.43 1.39-.3 1.68.92 2.3 1 .52 2.42.43 2.9 1.48.36.77 3.19 1.14 4.14.68a71.4 71.4 0 0 0 13-8c5.36-4.14 12-8.57 13.06-15.55.47-3-.7-4.85-2.71-5.71a10.12 10.12 0 0 0-7.5.19c-4.59 2-9.31 3.57-13.71 5.89-6.62 3.56-14.68 6.65-19.38 11.57" class="cls-1"/><path d="M176.09 332.06c.72-.18 1.8 0 2.12.64s-.56 1.6-.65 2.44c-.15 1.46-.43 2.52-1.25 3-1.08.58-2.22.54-2.43-.43a7 7 0 0 1-.09-3.86 3.31 3.31 0 0 1 2.3-1.79M164.41 337.41c.63-.13.9-.66 1.45-1a8.7 8.7 0 0 1 2.92-.81c.79-.15 1.93-.1 2.35.69a1.69 1.69 0 0 1-1 2.39 13.3 13.3 0 0 1-3.73.74 3 3 0 0 0-2 .74 3.6 3.6 0 0 1-1.89 1.24c-.6.12-1.43.21-1.82-.25a2.34 2.34 0 0 1-.53-2.07 3 3 0 0 1 2.3-1.57 17 17 0 0 0 1.95-.1M171.27 341a17.2 17.2 0 0 1 4 0 5.15 5.15 0 0 1 2.66.69c.76.67 0 1.83-.72 2.24-1.43.76-3.57.53-5.16.84-.95.19-1.83 1-2.79 1.13a15.7 15.7 0 0 1-4.39 0c-1.36-.21-1-1.43-.83-2 .35-1.06 1.66-1.52 2.94-1.84a37 37 0 0 1 4.29-1.06" class="cls-1"/><path d="M142.74 372.94c-2.68.26-4.3 2-2.25 3.49 4.67 3.44 14 3 19.3-1.79 5.14-4.62 10.29-10.62 7-16.57-.66-1.46-1.7-1.83-2.76-.32-2.79 4-5.79 7.28-9.2 9.3-3.9 2.29-7.67 5.46-12.09 5.89" class="cls-4"/><path d="M162.5 374.91c2.52-2.37 4.56-4 6.1-6.41.92-1.42 1.24-2.66 2.44-1.34a4.43 4.43 0 0 1 1.2 2.21c1 5.1-2 10.74-6.58 13.39a17.47 17.47 0 0 1-15.81 1.17c-1.13-.42-3.2-1.12-3.1-2.39.18-1 3.65-1.49 5.38-1.82a22.7 22.7 0 0 0 7.27-2.57 24.6 24.6 0 0 0 3.1-2.24" class="cls-4"/><path d="M166 385.09a39.2 39.2 0 0 0 8.43-8.17c1.31-1.73 2.8-1.77 3.5.46 2.42 7.64-1.43 12-6.53 15.36-6.49 4.27-12.29 4.56-18.36-.14-.68-.52-1.57-2.17.32-2.8 5.43-2.21 6.72-.36 12.64-4.71M173.55 395.54a26 26 0 0 0 6.65-7.23c.4-.71.63-1.89 2.23-.92s2.16 4 2 6.12c-.35 3.6-3.28 6.46-6.07 8.56a15.68 15.68 0 0 1-9.94 3.5 12.32 12.32 0 0 1-7.09-3.25c-.57-.52-1.19-2.22 1-2.27 3.48-.05 8.05-2.05 11.22-4.51M179.85 404.7c1.94-1.43 3.16-3.74 4.18-5.93.9-1.93 2.5-1.26 2.86-.37 1.72 4.3.73 9.23-3 11.69-3.2 2.08-8 1.59-11.46.18-2.41-1-1.87-2.61.19-3 2.47-.55 5.16-1.04 7.23-2.57" class="cls-4"/><path d="M137.24 341.1c7.85-5.37 13-5 18 .55 8.16 8.93 3.35 14.55-4 19.87-6.13 4.46-13.38 5.77-19.14-2.2-4.4-6.22-1.84-13.45 5.14-18.22M131.49 325.22a6.95 6.95 0 1 0 6.95 6.95 7 7 0 0 0-6.95-6.95M140.4 325.06c-.35-.49-.13-1.88.46-1.75a6.55 6.55 0 0 1 3.81 2.56 4.31 4.31 0 0 1 .43 3.72 2.6 2.6 0 0 1-1.9 1.87c-1.27.11-1.82-.47-1.47-1.15a3.5 3.5 0 0 0 .32-2.35 9 9 0 0 0-1.65-2.9M119.53 337.09c.85.05 1.09 1.31 1.61 2a11 11 0 0 0 1.2 1.7c.55.51 1.4 1.62 2.11 1.85 1.55.48.55 2.13-.27 2.53-2.11 1-3.35-.21-5.11-2a5.73 5.73 0 0 1-1.57-4.23 2.19 2.19 0 0 1 2.03-1.85" class="cls-5"/><path d="M184.51 416 231 484.86v.07l4.8 7.07a6 6 0 0 1 1.59-1.94 6.8 6.8 0 0 1 3.41-1.34l-51.57-76.23a6.5 6.5 0 0 1-2.18 2.52 8.8 8.8 0 0 1-2.54.99M228.33 485.88l-30.17-44.73-7.36 17.78 30.78 47.39zM207.43 434.44l30.41 44.96 20.92 1.89L226.43 434zM125.52 324.52c1-.53 2-1.16 3.08-1.66L96 274.72a1.44 1.44 0 0 1-.23-.87 1.39 1.39 0 0 1 1.47-1.3l23.29 1.55-43.5-25.85 3.88 51.06 7.49-21.69a1.4 1.4 0 0 1 .57-.81 1.39 1.39 0 0 1 1.93.38l32.81 48.64a9.4 9.4 0 0 1 1.81-1.31" class="cls-1"/><path d="M334.27 106.76h1.52v25.9h-1.52z" class="cls-6"/><path d="M333.98 106.79H336v2.58h-2.02zM334 121.35h2.02v10.86H334zM341.93 104.15h.8V133h-.8z" class="cls-6"/><path d="M341.59 104.97h1.45v4.78h-1.45zM341.62 121.63h1.43v11.69h-1.43zM349.92 104.15h.71V133h-.71z" class="cls-6"/><path d="M349.66 104.97h1.33v4.78h-1.33zM349.55 121.63h1.43v11.69h-1.43zM345.23 104.15h.72V133h-.72z" class="cls-6"/><path d="M344.8 104.97h1.53v4.78h-1.53zM344.82 121.63h1.53v11.69h-1.53zM346.7 104.15h.67V133h-.67z" class="cls-6"/><path d="M346.32 104.97h1.33v4.78h-1.33zM346.18 121.63h1.59v11.69h-1.59zM325.69 120.18h1.29v13.16h-1.29zM354.35 120.18h1.29v13.16h-1.29zM328.33 120.18h1.29v13.16h-1.29z" class="cls-6"/><path d="M325.18 120.18h5.11v1.56h-5.11zM354.05 119.75h1.84v1.17h-1.84zM423.75 149.08h.87v4.46h-.87z" class="cls-6"/><path d="M423.43 148.87h1.47v.71h-1.47z" class="cls-6"/><path d="m307.42 131 30.73-.46c1.05 0 2-1.56 3.05-1.56h14.44c3.74 0 5.09 2.25 5.56 5.31l1.43 9.23c.86 5.56 4.16 8.54 9.75 8.56l49.21.11A38.2 38.2 0 0 1 432 153.5l30.56 8.5a7.18 7.18 0 0 1 4.6 3.5l6.44 13.25-375.52.14c-.41 0-.58-1.17-.14-1.43l3.06-1.79a3.3 3.3 0 0 0 1.17-2.49c0-1.35.37-3 1.33-3.31l7-2.21c.74-.23 2.06.11 2.08.61l.08 1.6c.07 1.21.82 1.46 1.94 1.47a3 3 0 0 0 2.76-1.56 4.68 4.68 0 0 0 .87-3l-.32-17.88a2.12 2.12 0 0 1 1.84-2.11l13.25-.1c1.14 0 1.76 1.65 1.84 2.86l.66 10c.07 1.08.82 2.1 2.63 1.41L168 149.54a9.9 9.9 0 0 1 3.86-.87l113.55 1.73c2.08 0 2.94-.48 3.75-1.57L301 133c.84-1.17 3.2-2 6.42-2" class="cls-3"/><path d="m286.9 195.06.18 481.68C339.36 652.25 415 606 469.37 552.94c39.45-38.47 67.72-80.48 67.72-120.25V195.06Zm-253.37-1.39h-.7V437.3c0 37.25 29.37 78.39 69.35 116.43 58.08 55.24 138.6 104 183.92 124.73l.3.13.28-.13c52.41-24.41 128.8-71 183.66-124.52 39.7-38.72 68.14-81.05 68.14-121.25v-239H33.53ZM424.7 541.6a7.4 7.4 0 0 1 .3-2c.82-2.66 3.07-4.51 6.37-5.6a31.6 31.6 0 0 1 9.74-1.23 84 84 0 0 1 23.48 3.94 197 197 0 0 0 25.3 6.07 126 126 0 0 0 22.23 1.87c8.9-.11 17.18-.73 24.06-2.6 6.4-1.73 11.52-4.55 14.68-9.1a3.47 3.47 0 0 1 6.36 2.07c-.91 20.55-11.52 35-22.13 49.48-1.4 1.91-2.81 3.82-4.1 5.62a111 111 0 0 0 13 11.34 106 106 0 0 0 17.5 10.51 3.47 3.47 0 0 1 .44 6c-15.28 10.24-29 14.72-41.82 16.13-11.37 1.25-22 .08-32.5-1.61-.13 5.24-.31 10.38-.49 15.51-.23 6.49-.46 13-.58 19.31v.16a17.85 17.85 0 0 1-1.62 7.1 3 3 0 0 1-.13.31 13.72 13.72 0 0 1-6.6 6.39 19 19 0 0 1-8.78 1.63 30.1 30.1 0 0 1-12.18-3.23 401 401 0 0 0-83.53-30.78 424.4 424.4 0 0 0-88.21-11.94c-30.36-1-59.62 2.77-88.11 9.85s-56.32 17.54-83.72 30c-7.37 3.35-14.75 5.77-20.75 5.84a16.14 16.14 0 0 1-7.5-1.52 11.47 11.47 0 0 1-5.41-5.73 18.1 18.1 0 0 1-1.43-7.39l-.44-35.77c-13.54 2.06-26.37 2.34-38.5.4a88.06 88.06 0 0 1-37.35-15.05 3.47 3.47 0 0 1 .72-6.16 72.2 72.2 0 0 0 18-9.53 74.7 74.7 0 0 0 13.08-12.4c-1.57-2.2-3.13-4.3-4.69-6.41-10.67-14.41-21.49-29-22.25-48.58a3.48 3.48 0 0 1 6.11-2.56 33.9 33.9 0 0 0 17.11 10.73c6.88 2 14.68 2.35 23.05 1.94a186 186 0 0 0 27.95-3.73c9.78-2 20-4.64 30.69-7.72a33 33 0 0 1 8.34-1.18 38 38 0 0 1 11.32 1.38c4 1.2 7 3.28 7.83 6.16a5.7 5.7 0 0 1 .24 1.53v.59l-.09 25.43a383 383 0 0 1 59.87-19 358.4 358.4 0 0 1 86.69-9 386 386 0 0 1 88.78 12 398 398 0 0 1 49.69 16.32V541.6Zm6.93 0c0 1.21 2.2 4 5.15 6.89 3.38 3.33 7.56 6.48 10.79 7.77 2.87 1.15 5.49 2.17 8.07 3.18 15.5 6 29.87 11.61 31.61 19.4a3.3 3.3 0 0 1 .18 1.09l.26 45.51c10.38 1.7 20.78 2.92 31.7 1.73 10.41-1.14 21.44-4.5 33.62-11.78a113 113 0 0 1-13.14-8.39A116.3 116.3 0 0 1 524 592.77a3.46 3.46 0 0 1-.31-4.35c2.08-3 4-5.51 5.82-8.06 8.23-11.22 16.45-22.44 19.56-36.34a39.5 39.5 0 0 1-11.07 4.7c-7.48 2-16.32 2.7-25.78 2.82a132.7 132.7 0 0 1-23.46-2 204 204 0 0 1-26.19-6.28 76.8 76.8 0 0 0-21.47-3.64 25 25 0 0 0-7.54.9c-1.13.38-1.81.73-1.91 1Zm0 11.55v17.09q12.25 5.19 24.15 11.13a34 34 0 0 0 8.58 2.94 47 47 0 0 0 7.32.79 14.1 14.1 0 0 0 6.75-2.14c1.23-.82 2.08-1.71 2.08-2.49 0-3.91-13.12-9-27.36-14.56-2.8-1.09-5.64-2.19-8.16-3.2-4.07-1.64-9.12-5.37-13.06-9.27zm49.16 75.2-.22-38.64a21.5 21.5 0 0 1-8.77 2.32h-.25a54 54 0 0 1-8.52-.9 40.6 40.6 0 0 1-10.34-3.54 399.6 399.6 0 0 0-79.39-29.81A378.6 378.6 0 0 0 286.11 546a351.8 351.8 0 0 0-85.06 8.8A385.3 385.3 0 0 0 118 584.39l-.79.39c-6.86 3.35-13.91 6.79-22.49 6.81A27.8 27.8 0 0 1 84.55 590l.94 78a11.5 11.5 0 0 0 .85 4.59 4.67 4.67 0 0 0 2.2 2.34 9.4 9.4 0 0 0 4.3.79c4.89-.06 11.35-2.23 18-5.25 27.73-12.58 55.9-23.18 84.92-30.38s58.92-11 90-10a431.5 431.5 0 0 1 89.64 12.12 408 408 0 0 1 85 31.29 23.1 23.1 0 0 0 9.32 2.53 12.24 12.24 0 0 0 5.61-1 6.93 6.93 0 0 0 3.31-3.22 1.6 1.6 0 0 1 .12-.22 11.4 11.4 0 0 0 .92-4.33c.13-6.61.35-13 .58-19.43s.46-13 .58-19.39ZM77.5 579.62v-.06c0-8.61 14.42-13.79 25.76-17.87 2.55-.91 4.92-1.76 6.9-2.57 6.78-2.78 13.22-6.19 17.59-9.92 3.05-2.61 5-5.26 5.07-7.75v-.08a8.1 8.1 0 0 0-3.13-1.35 31 31 0 0 0-9.19-1.11 26 26 0 0 0-6.55.9c-10.81 3.13-21.23 5.82-31.26 7.86a193.7 193.7 0 0 1-29 3.87c-9.06.45-17.58 0-25.24-2.19a42.7 42.7 0 0 1-13.22-6.2c3.07 13.36 11.43 24.64 19.69 35.8 2.19 2.95 4.37 5.9 6.32 8.68a3.46 3.46 0 0 1-.11 4.15 82.8 82.8 0 0 1-16.07 15.71 77 77 0 0 1-13.45 7.88 81.3 81.3 0 0 0 29.1 10.45c11.64 1.87 24.09 1.53 37.33-.57l-.54-45v-.67Zm6.93 0v.4a3.86 3.86 0 0 0 2.62 3.56 20.7 20.7 0 0 0 7.64 1.1c6.93 0 13.27-3.11 19.45-6.13l.79-.39q8.79-4.27 17.79-8.16l.05-16-.51.45c-5 4.25-12.07 8-19.47 11.06-2 .82-4.51 1.72-7.19 2.68-9.35 3.36-21.24 7.64-21.17 11.39Zm340.27-38Zm-139.2 95.31a310 310 0 0 0-64.1 4.74c24.36 14.94 46.85 27 64.3 35.08v-39.81ZM149.91 317.48c-.07 3.45.86 6.72 4 8.61 2.06-5.14 5.46-9.21 8-14.73 4-8.66 8-15.48 13.9-21.89 3.81-4.18 8.62-7.82 12.76-9.28 5.51-1.92 11.81-1.37 13.56 5.59 2.12 8.48 1.42 16.13-1.2 24.3a16.5 16.5 0 0 1 6.58-1.66c5-.45 8.5 2.85 8.69 7 .46 9.51-10.27 18-20.88 24.39-6.25 3.73-14.95 5.7-24.11 7.45.82 1.82 1.43 3.34 2.67 3.23 14.26-1.35 22.58-.94 33.13-3.32 3.24-.73 5.64 0 4.23 1.84-2 2.55-5.6 4.09-8.6 5.39a30.3 30.3 0 0 1-11 2.52 59.8 59.8 0 0 1-12.17-.48c2.8 4.33 11.41 11.35 17 16.87A79.7 79.7 0 0 0 206.6 382c1.37 1 6.42 7.13 8.1 9 3.5 3.91-1.82 5.79-5.34 3.49-3.93-2.57-7.74-7.11-11.59-10.67-2.84-2.63-5.88-5.05-8.83-7.55-3.83-3.23-8.22-6.78-13.44-8.83l8.1 14.56c3.57 6.39 7.42 13.48 7.58 20.1a26.2 26.2 0 0 1-.74 7.27l15.15 22.39 21.54-.5a1.41 1.41 0 0 1 1.17.61l34.42 50.33a1.39 1.39 0 0 1-.37 1.93 1.42 1.42 0 0 1-1 .23l-21.52-1.95 4.7 6.95a1.39 1.39 0 0 1-.37 1.93 1.34 1.34 0 0 1-1 .22 5.6 5.6 0 0 0-4.07.78 4.4 4.4 0 0 0-1.41 3.15 1.4 1.4 0 0 1-2.54.63l-4.87-7.22-7 21.14a1.34 1.34 0 0 1-.56.73 1.4 1.4 0 0 1-1.92-.41l-32.76-50.43a1.44 1.44 0 0 1-.12-1.28l8.35-20.15-14.86-22c-3.22.19-6.9-.31-9.25-1.85a87.8 87.8 0 0 1-19.14-17.11c-2.45-2.9-4.16-6.73-7.57-9.82-2.54 4.66.2 7.92.77 9.9 1.61 5.66 2.51 9 4.05 14.41 2.27 8 6.19 14.54 6.55 23.08.19 4.46-5.78 5.73-7.27.46-1.15-4.08-2.1-7.85-4.24-11.69-2.31-4.15-2.75-8.92-4-13.62-1.9-7.42-2.39-15.88-4.14-23.19-.6-2.46-2.81-2.55-3.87-1.29-5.5 6.56-9.66 15.36-14.92 21.09-3.35 3.65-6.55 6.09-10 9.28-1.15 1-2.08-.89-1.06-2.6 5.94-10.05 12.77-19.52 19-29.24a55.6 55.6 0 0 1-10.4 9.66c-8.47 5.94-16.31 10.61-25.86 10.86-6.08.16-10.35-1.39-13.25-3.31-2.52-1.68-3.71-3.91-1.68-7.37a20.1 20.1 0 0 1 4.44-4.87c-2.82.21-5.85-.88-8.67-1.18-7.39-.77-13.9-3.49-16.9-8.23-1.7-2.68-2.56-6.18 0-9.46 6.33-8.19 25.75-17.41 39-16.58 4.37.27 8.82-1.25 13.23-1.79 1.91-.26 3.37-1.57 5.61-1.53s2.27-2.1.64-3.49c-3.84-3.29-8-5.58-12.51-6-7.45-.66-15.32-4-17.58-7.18-.83-1.17-.43-2.81 1.84-2 7.1 2.46 14.8 5.61 21.63 6.35 2.51.27 5.81 2.8 7.08-.09a10.5 10.5 0 0 1 3.07-4c.89-.73 3.22-2.44 1.53-3.68a9.4 9.4 0 0 0-5.42-2.3 9 9 0 0 1-3-.92c-1.26-.57-3.78-.27-5.7-.66s-2.94-2.58-1.41-3.14c3-1.08 6.21-.5 9 .14 3 1.11 6.88 2.39 10 3.53l-30.82-45.97-8.81 25.49a1.38 1.38 0 0 1-2.69-.35l-4.6-60.4a1.4 1.4 0 0 1 1.28-1.49 1.38 1.38 0 0 1 .85.22L127 274.68a1.38 1.38 0 0 1-.84 2.57l-26.2-1.74 30.94 45.75a42 42 0 0 1-.12-5.48 35 35 0 0 1 2.14-8.17c1-3 2.27-3.56 4-5.54 1.08-1.24 2.31-.58 1.77.44-.75 1.42-.95 2.71-1.64 4.16a62 62 0 0 0-2.76 6.07 17 17 0 0 0-.45 6.26 1.41 1.41 0 0 0 1.67 1.13c1.53-.16 3-.54 4.4-.58a16.8 16.8 0 0 1 6.83 1 11.6 11.6 0 0 0-.12-4.37c-.49-2.64-1.22-5.2-1.12-8 .11-3.27.74-6 1-9.06a35 35 0 0 0 .07-7.92c-.19-1.57.49-1.91 1.68-1.19 2 1.17 2 3.86 2.14 7-.46 4.45-.39 8.77-1.1 13.26-.38 2.36.66 4.8.62 7.17ZM120.36 532a38 38 0 0 1 11.32 1.38c4 1.2 7 3.28 7.83 6.16a5.7 5.7 0 0 1 .24 1.53v.59l-.09 25.43a383 383 0 0 1 59.87-19 358.3 358.3 0 0 1 86.12-9l-.14-344H34.22V437.3c0 32.43 22.65 68 55.21 101.81 7.29-1.7 14.83-3.71 22.59-6a33 33 0 0 1 8.34-1.18ZM285.7 676.75l-.19-481.69H34.22V437.3c0 36.82 29.18 77.63 68.92 115.42 57.54 54.74 137.16 103.1 182.56 124Z" style="fill-rule:evenodd;fill:#0a3d81;stroke:#231f20;stroke-miterlimit:10;stroke-width:1.42px"/><path d="m33.27 66.72 252.5-46h.24l252 46 .57.11V180H32.69V66.83zM285.89 22.1 34.08 68v110.6h503.15V68Z" style="fill-rule:evenodd;stroke:#231f20;stroke-miterlimit:10;stroke-width:1.42px;fill:#0f4880"/><path d="M201.05 554.82A385.3 385.3 0 0 0 118 584.39l-.79.39c-6.86 3.35-13.91 6.79-22.49 6.81A27.8 27.8 0 0 1 84.55 590l.94 78a11.5 11.5 0 0 0 .85 4.59 4.67 4.67 0 0 0 2.2 2.34 9.4 9.4 0 0 0 4.3.79c4.89-.06 11.35-2.23 18-5.25 27.73-12.58 55.9-23.18 84.92-30.38s58.92-11 90-10a431.5 431.5 0 0 1 89.64 12.12 408 408 0 0 1 85 31.29 23.1 23.1 0 0 0 9.32 2.53 12.24 12.24 0 0 0 5.61-1 6.93 6.93 0 0 0 3.31-3.22l.12-.22a11.4 11.4 0 0 0 .92-4.33c.13-6.61.35-13 .58-19.43s.46-13 .58-19.39l-.22-38.64a21.5 21.5 0 0 1-8.77 2.32h-.25a54 54 0 0 1-8.52-.9 40.6 40.6 0 0 1-10.34-3.54 399.6 399.6 0 0 0-79.39-29.81A378.6 378.6 0 0 0 286.11 546a351.8 351.8 0 0 0-85.06 8.8Zm-44.31 36L180 621.1l-7.42 2.36-4.56-6.3-13.31 4.23v7.75l-7.44 2.36 1.37-38 8.16-2.59Zm-23.87 25.89a8.74 8.74 0 0 1 5.1 1.35 9.33 9.33 0 0 1 3.32 4.29 10 10 0 0 1 0 8.78c-1.37 2.64-4 4.78-7.83 6.42L118.35 644l-14-33 15.65-6.62c3.39-1.44 6.27-1.82 8.66-1.15a8.16 8.16 0 0 1 5.31 5.08 9 9 0 0 1 .79 4.6 7.07 7.07 0 0 1-1.87 3.85Zm42.84-31.5 17-3.89q5.76-1.32 9.08.49t4.47 6.84a10 10 0 0 1-.13 5.64 6.93 6.93 0 0 1-3.22 3.8 6 6 0 0 1 3.81 1.73 11.9 11.9 0 0 1 2.29 4.92l1.09 4.1v.15c.53 2.08 1.27 3.24 2.24 3.48l.24 1.07-7.91 1.81a6.8 6.8 0 0 1-1-1.68 18 18 0 0 1-.83-2.52l-.94-3.66c-.58-2.16-1.32-3.52-2.24-4.11s-2.33-.67-4.25-.23l-7.59 1.85 3.11 13.61-7.23 1.65-8-35Zm42.82 27.34L214.09 577l17.35-2.17c3.9-.48 6.89 0 9 1.4s3.34 3.85 3.76 7.25a10 10 0 0 1-.7 5.6 6.92 6.92 0 0 1-3.58 3.46 6 6 0 0 1 3.62 2.1 12 12 0 0 1 1.79 5.13L246 604v.15c.31 2.12.94 3.35 1.87 3.69l.14 1.09-8 1a6.8 6.8 0 0 1-.83-1.77 18 18 0 0 1-.58-2.59l-.57-3.74c-.35-2.2-.95-3.63-1.8-4.31s-2.26-.9-4.22-.66l-7.8 1 1.72 13.85-7.35.92Zm38.85-8.38q-4.94-5-5.24-13.61t4.27-14q4.57-5.26 12.64-5.55t13 4.65q5 4.95 5.27 13.61T283 603.31q-4.59 5.28-12.66 5.56t-13-4.65Zm43.46 3.67-7.57-36.53 7.66.59 4.22 25.68 7.1-24.82 7.9.6 3.26 25.64 8.07-24.75 7.6.58-13 35-7-.54-3.48-27.79-7.67 26.94-7-.53Zm49.84 5.17L371 580.87l8.35 1.87 4.86 37.82-7.6-1.7-.78-7.73-13.62-3-3.93 6.68-7.62-1.7Zm37.42 8.56 10.47-34.29 24.05 7.35-1.82 6-17.06-5.21-2.37 7.77 14.95 4.57-1.82 6-14.95-4.57-4.45 14.59-7-2.13Zm42.35 15.23q-7.47-2.9-9.79-9.13t.9-14.59c2.21-5.7 5.31-9.5 9.3-11.44s8.61-1.87 13.89.18q6.42 2.49 8.94 7.06t.67 10.41l-6.82-2.64a7.07 7.07 0 0 0-.64-5.23 8.65 8.65 0 0 0-4.53-3.47q-4.56-1.77-8.07.24t-5.69 7.63c-1.41 3.62-1.71 6.74-.91 9.33a9.73 9.73 0 0 0 11.32 6 8 8 0 0 0 4.38-3.57l6.78 2.63a13.3 13.3 0 0 1-7.94 7.34c-3.54 1.22-7.48.98-11.79-.7Z" class="cls-1"/><path d="M125.17 609.91a7.26 7.26 0 0 0-4.11.78l-7.73 3.31 3 7 7.78-3.31a6.8 6.8 0 0 0 3.32-2.43 3.44 3.44 0 0 0 0-3.21 3.26 3.26 0 0 0-2.26-2.14M126.73 623.23l-8 3.41 3.67 8.63 8.07-3.43a7.33 7.33 0 0 0 3.74-2.8 4.22 4.22 0 0 0-.07-3.81 4.37 4.37 0 0 0-2.7-2.78c-1.18-.32-2.74-.05-4.71.78M154.86 599l-.14 16.05 9.53-3.03zM184.32 589.64l2.11 9.23 8.5-1.94a6.33 6.33 0 0 0 3.82-2 4.49 4.49 0 0 0 .5-3.8 4.6 4.6 0 0 0-2.05-3.16 5.54 5.54 0 0 0-4-.31ZM222.21 582.24l1.17 9.4 8.66-1.08a6.33 6.33 0 0 0 4-1.64 4.5 4.5 0 0 0 .88-3.74 4.57 4.57 0 0 0-1.72-3.34 5.55 5.55 0 0 0-4-.72ZM262 581.06q-2.52 3.35-2.31 9.28c.14 3.95 1.12 7 3 9.09a8.94 8.94 0 0 0 7.49 3 9.08 9.08 0 0 0 7.34-3.54q2.55-3.36 2.34-9.28t-3-9.09a10 10 0 0 0-14.83.52ZM373.65 588.82l-8.2 13.8 9.76 2.18zM77.5 579.56c0-8.61 14.42-13.79 25.76-17.87 2.55-.91 4.92-1.76 6.9-2.57 6.78-2.78 13.22-6.19 17.59-9.92 3.05-2.61 5-5.26 5.07-7.75v-.08a8.1 8.1 0 0 0-3.13-1.35 31 31 0 0 0-9.19-1.11 26 26 0 0 0-6.55.9c-10.81 3.13-21.23 5.82-31.26 7.86a193.7 193.7 0 0 1-29 3.87c-9.06.45-17.58 0-25.24-2.19a42.7 42.7 0 0 1-13.22-6.2c3.07 13.36 11.43 24.64 19.69 35.8 2.19 2.95 4.37 5.9 6.32 8.68a3.46 3.46 0 0 1-.11 4.15 82.8 82.8 0 0 1-16.07 15.71 77 77 0 0 1-13.45 7.88 81.3 81.3 0 0 0 29.1 10.45c11.64 1.87 24.09 1.53 37.33-.57l-.54-45v-.67ZM487.43 579.94l.26 45.51c10.38 1.7 20.78 2.92 31.7 1.73 10.41-1.14 21.44-4.5 33.62-11.78a113 113 0 0 1-13.14-8.4A116.3 116.3 0 0 1 524 592.77a3.48 3.48 0 0 1-.32-4.35c2.08-3 4-5.51 5.82-8.06 8.23-11.22 16.45-22.44 19.56-36.34a39.5 39.5 0 0 1-11.07 4.7c-7.48 2-16.32 2.7-25.78 2.82a132.7 132.7 0 0 1-23.46-2 204 204 0 0 1-26.19-6.28 76.8 76.8 0 0 0-21.47-3.64 25 25 0 0 0-7.54.9c-1.13.38-1.81.73-1.91 1 0 1.21 2.2 4 5.15 6.89 3.38 3.33 7.56 6.48 10.79 7.77 2.87 1.15 5.49 2.17 8.07 3.18 15.5 6 29.87 11.61 31.61 19.4a3.3 3.3 0 0 1 .17 1.18" class="cls-1"/><path d="M464.35 584.31a47 47 0 0 0 7.32.79 14.1 14.1 0 0 0 6.75-2.14c1.23-.82 2.08-1.71 2.08-2.49 0-3.91-13.12-9-27.36-14.56-2.8-1.09-5.64-2.19-8.16-3.2-4.07-1.64-9.12-5.37-13.06-9.27l-.3-.29v17.09q12.25 5.19 24.15 11.13a34 34 0 0 0 8.58 2.94M114.93 578.14q8.79-4.27 17.79-8.16l.05-16-.51.45c-5 4.25-12.07 8-19.47 11.06-2 .82-4.51 1.72-7.19 2.68-9.35 3.36-21.24 7.64-21.17 11.39v.4a3.86 3.86 0 0 0 2.62 3.56 20.7 20.7 0 0 0 7.64 1.1c6.93 0 13.27-3.11 19.45-6.13Z" class="cls-1"/><path d="M378.74 294.73a65 65 0 0 0-4.82-4.42c-4.63-4-9.17-7.85-8.63-13.09a14.52 14.52 0 0 1 4.39-9.16 25.1 25.1 0 0 1 9.08-5.33 46 46 0 0 0 5.63-2.35 16.6 16.6 0 0 0 4.46-3.28l1-1.1c4.19-4.45 8.44-9 15.44-8.33h.06c5.25.78 8.43 3.95 10.55 8.22a43.4 43.4 0 0 1 3.17 9.89 47.6 47.6 0 0 1 4.27-10.27c2.48-4.14 5.72-7 10.22-7.3a16.27 16.27 0 0 1 9.34 2 18.8 18.8 0 0 1 6.91 7.18 21.1 21.1 0 0 0 3.77 5 15.9 15.9 0 0 0 5.18 3.23 24.9 24.9 0 0 1 9.07 5.66 12.3 12.3 0 0 1 3.55 9.34c-.32 7.48-5.88 10.83-11.6 14.16a44.7 44.7 0 0 1 13.52 2.13c4.87 1.8 8.08 4.9 8.39 10.06a20 20 0 0 1-1.23 8.53 25.6 25.6 0 0 1-3.48 6.07 38.3 38.3 0 0 0-3.7 5.83 16.3 16.3 0 0 0-1.62 5.81 28.4 28.4 0 0 1-2.61 10.54 10.44 10.44 0 0 1-7.25 5.73c-7.22 1.58-12.3-2.36-17.7-6.95 1.81 4.8 2.37 8.83 1.83 12.11a11.64 11.64 0 0 1-6.94 8.94h-.08l-.18.09a16 16 0 0 1-6.61 1.51 21.3 21.3 0 0 1-7.11-1.29 22.4 22.4 0 0 0-7.43-1.06 41.3 41.3 0 0 0-9.29 1.27c-2.79.68-5.5 1.3-8.1.92s-5.19-1.82-7.33-5.25a16.07 16.07 0 0 1-2.29-10.65 27.5 27.5 0 0 1 2.8-8.91c-1 .74-2 1.53-3 2.31-4.17 3.28-8.3 6.52-13.51 6.34a11.3 11.3 0 0 1-7.89-4 18.9 18.9 0 0 1-4.46-9.39c-.91-5.52-1.78-10.8-6.37-17.71a26 26 0 0 1-3.27-6.39 13.5 13.5 0 0 1-.25-7.6c1-4 4.1-6.55 8.49-7.92 4.21-1.32 9.65-1.58 15.61-1.11Zm-3.47-6a43 43 0 0 1 6.72 6.62 1 1 0 0 1-.92 1.69c-6.68-.73-12.81-.63-17.32.78-3.69 1.16-6.27 3.22-7.09 6.45a11.44 11.44 0 0 0 .22 6.46 23.9 23.9 0 0 0 3 5.87c4.83 7.28 5.73 12.77 6.69 18.53a16.75 16.75 0 0 0 4 8.32 9.2 9.2 0 0 0 6.41 3.3c4.45.15 8.28-2.85 12.15-5.89a46.6 46.6 0 0 1 6.73-4.67 1.05 1.05 0 0 1 1 0 1 1 0 0 1 .34 1.43 29.2 29.2 0 0 0-4.52 11.66 14.13 14.13 0 0 0 2 9.32c1.76 2.82 3.74 4 5.86 4.29s4.73-.25 7.32-.88a44 44 0 0 1 9.76-1.33 24.5 24.5 0 0 1 8.12 1.17 19.4 19.4 0 0 0 6.42 1.18 14.1 14.1 0 0 0 5.77-1.32l.16-.08h.07a9.65 9.65 0 0 0 5.78-7.39c.59-3.57-.33-8.23-3-14-.08-.18-.22-.48-.43-.91a1 1 0 0 1 .13-1.1 1 1 0 0 1 1.47-.15c.9.75 1.7 1.43 2.49 2.11 5.33 4.54 10.19 8.69 16.8 7.25a8.48 8.48 0 0 0 5.85-4.67 26.4 26.4 0 0 0 2.37-9.75 18.3 18.3 0 0 1 1.82-6.54 40 40 0 0 1 3.9-6.15 23.2 23.2 0 0 0 3.21-5.59 17.85 17.85 0 0 0 1.1-7.65c-.25-4.18-2.94-6.72-7-8.23-4.33-1.6-10.19-2.07-16.42-2.07a1 1 0 0 1-.63-1.92c.94-.59 1.95-1.17 2.95-1.75 5.31-3.09 10.55-6.14 10.83-12.59a10.37 10.37 0 0 0-3-7.84 22.8 22.8 0 0 0-8.32-5.14 17.8 17.8 0 0 1-5.84-3.65 23.4 23.4 0 0 1-4.16-5.45 16.7 16.7 0 0 0-6.13-6.41 14.25 14.25 0 0 0-8.17-1.72c-3.7.26-6.43 2.71-8.57 6.29-2.24 3.74-3.84 8.72-5.2 13.78a1 1 0 0 1-2.05 0c-.94-4.75-1.94-9.68-3.85-13.53-1.83-3.68-4.54-6.42-9-7.08-6-.52-9.85 3.61-13.69 7.68l-1.05 1.12a18.9 18.9 0 0 1-5 3.69 50 50 0 0 1-5.88 2.46 22.9 22.9 0 0 0-8.33 4.85 12.45 12.45 0 0 0-3.78 7.89c-.43 4.12 3.7 7.65 7.91 11.26" class="cls-3"/><path d="M379.47 264.69a22.9 22.9 0 0 0-8.33 4.85 12.45 12.45 0 0 0-3.78 7.89c-.43 4.16 3.7 7.69 7.91 11.3a43 43 0 0 1 6.72 6.62 1 1 0 0 1-.92 1.69c-6.68-.73-12.81-.63-17.32.78-3.69 1.16-6.27 3.22-7.09 6.45a11.44 11.44 0 0 0 .22 6.46 23.9 23.9 0 0 0 3 5.87c4.83 7.28 5.73 12.77 6.69 18.53a16.75 16.75 0 0 0 4 8.32 9.2 9.2 0 0 0 6.41 3.3c4.45.15 8.28-2.85 12.15-5.89a46.6 46.6 0 0 1 6.73-4.67 1.05 1.05 0 0 1 1 0 1 1 0 0 1 .34 1.43 29.2 29.2 0 0 0-4.52 11.66 14.13 14.13 0 0 0 2 9.32c1.76 2.82 3.74 4 5.86 4.29s4.73-.25 7.32-.88a44 44 0 0 1 9.76-1.33 24.5 24.5 0 0 1 8.12 1.17 19.4 19.4 0 0 0 6.42 1.18 14.1 14.1 0 0 0 5.77-1.32l.16-.08h.07a9.65 9.65 0 0 0 5.78-7.39c.59-3.57-.33-8.23-3-14l-.42-.91a1 1 0 0 1 .13-1.1 1 1 0 0 1 1.47-.15c.9.75 1.7 1.43 2.49 2.11 5.33 4.54 10.19 8.69 16.8 7.25a8.48 8.48 0 0 0 5.85-4.67 26.4 26.4 0 0 0 2.37-9.75 18.3 18.3 0 0 1 1.82-6.54 40 40 0 0 1 3.9-6.15 23.2 23.2 0 0 0 3.21-5.59 17.85 17.85 0 0 0 1.1-7.65c-.25-4.18-2.94-6.72-7-8.23-4.33-1.6-10.19-2.07-16.42-2.07a1 1 0 0 1-.63-1.92c.94-.59 1.95-1.17 2.95-1.75 5.31-3.09 10.55-6.14 10.83-12.59a10.37 10.37 0 0 0-3-7.84 22.8 22.8 0 0 0-8.32-5.14 17.8 17.8 0 0 1-5.84-3.65 23.4 23.4 0 0 1-4.16-5.45 16.7 16.7 0 0 0-6.13-6.41 14.25 14.25 0 0 0-8.17-1.72c-3.7.26-6.43 2.71-8.57 6.29-2.24 3.74-3.84 8.72-5.2 13.78a1 1 0 0 1-2.05 0c-.94-4.75-1.94-9.68-3.85-13.53-1.83-3.68-4.54-6.42-9-7.08-6-.52-9.85 3.61-13.69 7.68l-1.05 1.12a18.9 18.9 0 0 1-5 3.69 50 50 0 0 1-5.89 2.42Z" class="cls-9"/><path d="M419.1 297.26a9.44 9.44 0 0 0-6.86 3 10.53 10.53 0 0 0 0 14.43 9.41 9.41 0 0 0 13.72 0 10.53 10.53 0 0 0 0-14.43 9.45 9.45 0 0 0-6.86-3m-8.36 1.52a11.49 11.49 0 0 1 16.72 0 12.59 12.59 0 0 1 0 17.32 11.48 11.48 0 0 1-16.72 0 12.59 12.59 0 0 1 0-17.32" class="cls-3"/><path d="M404.9 289a13 13 0 0 1-.27-2.07 9.68 9.68 0 0 1 1.63-6 11.5 11.5 0 0 1 5.17-4 20.9 20.9 0 0 1 7-1.44 17 17 0 0 1 2.9.09 11.57 11.57 0 0 1 7.75 3.81 13 13 0 0 1 2.88 8v1.83a26 26 0 0 1 2.69-.33 16.3 16.3 0 0 1 9.71 2.05 13.2 13.2 0 0 1 5.86 8.73 24 24 0 0 1 .5 3.48 14.7 14.7 0 0 1-.17 3.49 9.85 9.85 0 0 1-3.72 6.27 12.74 12.74 0 0 1-6.91 2.39h-1.49a16.4 16.4 0 0 1 2.07 2.58 10.73 10.73 0 0 1-.44 12.89 14.8 14.8 0 0 1-3.81 3.47c-.29.19-.6.38-.91.56a14 14 0 0 1-9.88 1.77 13.34 13.34 0 0 1-8.06-5.68 13.6 13.6 0 0 1-3.68 4.33 10.2 10.2 0 0 1-5.31 2 11.84 11.84 0 0 1-5.67-1 19.1 19.1 0 0 1-7.54-6.29c-2.21-3-3.18-5.52-2.65-8.17a14.8 14.8 0 0 1 4.16-7.38 17 17 0 0 1-2.48-.33c-2.52-.82-4.64-1.45-6.21-3.48a12.38 12.38 0 0 1-2.52-7.57 18 18 0 0 1 .92-5.68 17.5 17.5 0 0 1 2.45-5 11.7 11.7 0 0 1 6.21-4.52 12.44 12.44 0 0 1 7.43.21 15.7 15.7 0 0 1 2.39 1Zm1.81-2.16a12.2 12.2 0 0 0 1 4.08 1.08 1.08 0 0 1-.11 1 1.05 1.05 0 0 1-1.46.23 15.1 15.1 0 0 0-4.25-2.2 10.5 10.5 0 0 0-6.21-.2 9.8 9.8 0 0 0-5.11 3.76 15.6 15.6 0 0 0-2.15 4.37 16.1 16.1 0 0 0-.83 5 10.46 10.46 0 0 0 2.12 6.4c1.31 1.69 3.08 2.08 5.21 2.76a14.2 14.2 0 0 0 4.36.43 1 1 0 0 1 .72 1.85 14.88 14.88 0 0 0-5.35 7.82c-.4 2 .42 4.06 2.27 6.52a17.16 17.16 0 0 0 6.69 5.63 9.85 9.85 0 0 0 4.69.85 8.2 8.2 0 0 0 4.23-1.62 12.6 12.6 0 0 0 3.85-5.2 1 1 0 0 1 1.86-.1c.16.27.34.57.54.88a11.52 11.52 0 0 0 7.17 5.39 11.92 11.92 0 0 0 8.41-1.54c.27-.15.54-.32.82-.5a12.9 12.9 0 0 0 3.28-3 8.68 8.68 0 0 0 .34-10.51 17.1 17.1 0 0 0-4.06-4.22 1 1 0 0 1 .82-1.85 17.9 17.9 0 0 0 4.27.26 10.6 10.6 0 0 0 5.78-2 7.75 7.75 0 0 0 2.94-5 12.5 12.5 0 0 0 .14-3 20.6 20.6 0 0 0-.45-3.15 11.2 11.2 0 0 0-4.93-7.42 14.2 14.2 0 0 0-8.47-1.74 24 24 0 0 0-3.71.55.8.8 0 0 1-.38 0 1 1 0 0 1-.92-1.15 19.4 19.4 0 0 0 .11-2.92 10.86 10.86 0 0 0-2.38-6.73 9.47 9.47 0 0 0-6.39-3.1 17 17 0 0 0-2.59-.08 18.5 18.5 0 0 0-6.33 1.29 9.3 9.3 0 0 0-4.25 3.26 7.64 7.64 0 0 0-1.29 4.91Z" class="cls-3"/><path d="M417.5 270.47c-.05-1.43-.14-2.94-.23-4.46-.18-3-.35-6-.3-9.05a10 10 0 0 0-.49-3.86 10.2 10.2 0 0 0-3-4l-.4-.38a8 8 0 0 1-2.81-5.6c-.05-2 .82-4 2.7-6.16l.46-.5a25 25 0 0 0 4.11-5.16 1 1 0 0 1 1.42-.39 1 1 0 0 1 .24.18c.48.51 1 1.14 1.63 1.81a45 45 0 0 0 3.15 3.34 15.3 15.3 0 0 1 2.3 2.6 7.16 7.16 0 0 1 1.41 4.27 6.12 6.12 0 0 1-1.74 4 10.8 10.8 0 0 1-1.91 1.62c-2.08 1.42-2.23 3.31-2.42 5.82 0 .59-.09 1.2-.16 1.89-.37 3.41-.8 6.47-1.23 9.52-.22 1.59-.45 3.18-.64 4.6a1 1 0 0 1-2.07-.09Zm1.55-13.47v2c.11-.9.21-1.82.32-2.77.06-.61.11-1.23.16-1.82.23-3.09.4-5.41 3.33-7.39a9.4 9.4 0 0 0 1.54-1.3 4.15 4.15 0 0 0 1.2-2.66 5.26 5.26 0 0 0-1.06-3 12.4 12.4 0 0 0-2-2.23c-1.09-1-2.25-2.31-3.3-3.5l-.66-.75a30 30 0 0 1-3.68 4.37c-.13.12-.26.27-.41.43a7.06 7.06 0 0 0-2.17 4.73 6 6 0 0 0 2.17 4.15l.35.32a12.2 12.2 0 0 1 3.59 4.82 11.9 11.9 0 0 1 .62 4.6M455.41 295l4-1.52 8.24-3.1h.07l.62-.22c2.4-.88 4.07-1.49 5.55-4.56a8.46 8.46 0 0 1 4.32-4.46 8.67 8.67 0 0 1 6.24.1c.95.33 1.88.7 2.81 1.07a29.3 29.3 0 0 0 5.1 1.7 1 1 0 0 1 .83 1.21 1 1 0 0 1-.25.51 22 22 0 0 0-2.18 3.67c-.4.78-.8 1.57-1.19 2.23-1.58 2.71-3.29 4.56-5.25 5.3s-4.29.34-6.78-1.6c-1.84-1.44-4.34-1-6.83-.55-.85.15-1.71.31-2.64.4-2.69.26-5.41.73-8.12 1.19-1.39.24-2.78.47-4.11.67a1 1 0 0 1-.46-2Zm13-2.66-2.67 1c.72-.1 1.44-.18 2.17-.25.76-.08 1.62-.23 2.48-.38 2.94-.53 5.89-1.06 8.47 1 1.85 1.44 3.4 1.81 4.77 1.29s2.83-2.09 4.18-4.4c.43-.73.79-1.43 1.14-2.13.49-.94 1-1.89 1.52-2.77-1.29-.38-2.62-.91-3.94-1.43-.92-.37-1.84-.74-2.71-1a6.66 6.66 0 0 0-4.78-.14 6.44 6.44 0 0 0-3.24 3.42c-1.84 3.85-3.84 4.58-6.72 5.62l-.6.22ZM442.25 344c-.68-1.38-1.35-2.77-2.14-4.36a1 1 0 0 1 1.71-1.16c1.41 1.58 2.38 2.68 3.35 3.79 2.23 2.54 4.47 5.08 6.69 7.44a10 10 0 0 0 2.31 1.94 4.9 4.9 0 0 0 2.38.58 10 10 0 0 1 1.24.11 6.15 6.15 0 0 1 4.45 3.07 10.06 10.06 0 0 1 1.22 5.17 14.5 14.5 0 0 1-.19 2.11c-.23 1.35-.43 2.42-.62 3.43s-.4 2-.63 3.1a1.05 1.05 0 0 1-1.26.77c-1.14-.28-2.22-.55-3.26-.83s-2.19-.59-3.22-.88a10.3 10.3 0 0 1-4.92-2.74 5.83 5.83 0 0 1-1.29-5.32 9.6 9.6 0 0 0 0-3.85 14 14 0 0 0-1.46-3.74c-1.49-2.76-2.92-5.71-4.35-8.66Zm3.11 1.64c1 2.06 2 4.09 3.07 6a16.1 16.1 0 0 1 1.67 4.36 11.4 11.4 0 0 1 0 4.66 3.91 3.91 0 0 0 .81 3.55 8.3 8.3 0 0 0 3.93 2.11c1.12.32 2.17.61 3.18.88l2.18.56c.14-.69.27-1.34.4-2 .2-1 .39-2.07.61-3.37a12 12 0 0 0 .17-1.8 8 8 0 0 0-.93-4.09 4.17 4.17 0 0 0-3-2.07 7 7 0 0 0-.93-.08 6.8 6.8 0 0 1-3.36-.84 11.8 11.8 0 0 1-2.81-2.34c-1.71-1.88-3.35-3.72-4.99-5.56ZM396.78 338c-.77 1.29-1.6 2.64-2.43 4-1.64 2.64-3.28 5.28-4.62 7.83-.28.53-.58 1-.86 1.52-1 1.66-1.77 3-1.1 5 .8 2.4.8 4.5-.16 6.25s-2.79 3-5.7 3.82c-1 .28-2 .46-2.91.64a24.2 24.2 0 0 0-4.71 1.26 1 1 0 0 1-1.35-.58.94.94 0 0 1-.08-.46 13.8 13.8 0 0 0-.27-3 18 18 0 0 1-.28-2.51v-1.2c0-.85-.06-1.72 0-2.58.06-4.12 1-7.67 6.85-7.59 2.36 0 3.71-1.4 5.3-3.08l.1-.1c2.32-2.46 4.73-4.76 7.13-7.07l3.58-3.46a1 1 0 0 1 1.6 1.3Zm-8.89 10.84c.85-1.61 1.82-3.27 2.84-4.95-1.61 1.56-3.2 3.14-4.76 4.78l-.09.09c-1.93 2-3.57 3.77-6.84 3.72-4 0-4.7 2.54-4.74 5.54 0 .8 0 1.65.05 2.49v1.22a17 17 0 0 0 .26 2.23c.1.63.2 1.26.26 1.94a29 29 0 0 1 3.71-.87c.91-.18 1.82-.35 2.73-.6 2.33-.64 3.77-1.6 4.44-2.82a5.75 5.75 0 0 0 0-4.59c-1-2.93 0-4.63 1.28-6.74.3-.46.58-.92.86-1.46ZM380.44 297.27l-4.13-1.2c-2.71-.8-5.42-1.6-8.34-2.39a9.8 9.8 0 0 0-3.88-.37 7.5 7.5 0 0 0-3.31 1.32 6.39 6.39 0 0 1-6 1.1c-1.84-.65-3.6-2.23-5.4-4.7-.67-.93-1.29-1.95-1.93-3s-1.11-1.83-1.76-2.77a1 1 0 0 1 .26-1.45 1 1 0 0 1 .19-.1c.88-.42 1.72-.78 2.55-1.15a49 49 0 0 0 5-2.39 11.6 11.6 0 0 1 2.17-1 6 6 0 0 1 7.48 2.91 10 10 0 0 1 .88 2.05c.75 2.38 2.51 3.29 4.57 4.36l.53.27h.06c2.73 1.43 5.35 2.89 8 4.35 1.35.75 2.7 1.5 4 2.19a1 1 0 0 1 .41 1.41 1 1 0 0 1-1.24.49Zm-11.93-5.61c1.18.32 2.36.66 3.56 1-1.23-.67-2.47-1.34-3.71-2h-.05l-.52-.27c-2.48-1.28-4.6-2.38-5.61-5.59a8 8 0 0 0-.7-1.64 3.93 3.93 0 0 0-5.05-1.95 9 9 0 0 0-1.75.78 51 51 0 0 1-5.18 2.49l-1.44.63c.4.62.78 1.24 1.15 1.85.59 1 1.17 1.94 1.84 2.86 1.54 2.13 3 3.46 4.4 4a4.48 4.48 0 0 0 4.15-.85 9.65 9.65 0 0 1 4.22-1.68 12.1 12.1 0 0 1 4.69.37" class="cls-10"/><path d="M427.46 298.78a12.59 12.59 0 0 1 0 17.32 11.48 11.48 0 0 1-16.72 0 12.59 12.59 0 0 1 0-17.32 11.49 11.49 0 0 1 16.72 0Zm-21.34-6.58c-7.08-5.14-14.85-3.17-17.72 5.73-1.3 4.05-1.2 8.21 1.29 11.42 1.31 1.69 3.08 2.08 5.21 2.76a14.2 14.2 0 0 0 4.36.43 1 1 0 0 1 .72 1.85 14.88 14.88 0 0 0-5.35 7.82c-.4 2 .42 4.06 2.27 6.52 2.82 3.79 7 6.84 11.38 6.48 3.77-.31 6.48-3.12 8.08-6.81a1 1 0 0 1 1.86-.1c3.85 6.82 10.56 8.34 16.94 4.23 4.78-3.08 6.94-8.33 3.62-13.49a17.1 17.1 0 0 0-4.06-4.22 1 1 0 0 1 .82-1.85c7.13 1.27 13.68-1.47 13.13-9.68-.58-8.5-5.51-12.88-13.85-12.31a24 24 0 0 0-3.71.55 1 1 0 0 1-1.3-1.12c.39-3.53-.09-7.12-2.27-9.65s-5.4-3.34-9-3.18c-5.87.26-12.14 2.78-11.85 9.27.15 3.26 1.56 4.16.87 5.12a1.05 1.05 0 0 1-1.44.23Z" style="fill:#fff;fill-rule:evenodd;stroke:#231f20;stroke-miterlimit:22.93;stroke-width:.56px"/><path d="M428.82 307.44a10.36 10.36 0 0 0-2.86-7.21 9.41 9.41 0 0 0-13.72 0 10.53 10.53 0 0 0 0 14.43 9.41 9.41 0 0 0 13.72 0 10.37 10.37 0 0 0 2.86-7.22Z" style="fill-rule:evenodd;stroke:#231f20;stroke-miterlimit:22.93;stroke-width:.56px;fill:#c14244"/><path d="M387.89 348.82c.85-1.61 1.82-3.27 2.84-4.95l-4.85 4.87c-1.93 2-3.57 3.77-6.84 3.72-5.61-.07-4.75 5.12-4.65 9.25l.52 4.17c4.9-1.55 13.45-1.11 10.88-8.88-1-2.93 0-4.63 1.28-6.74.26-.44.54-.9.82-1.44ZM355.45 293.77a4.48 4.48 0 0 0 4.15-.85 9.65 9.65 0 0 1 4.22-1.68 12.1 12.1 0 0 1 4.69.42c1.18.32 2.36.66 3.56 1-1.23-.67-2.47-1.34-3.71-2h-.05l-.52-.27c-2.48-1.28-4.6-2.38-5.61-5.59a8 8 0 0 0-.7-1.64 3.93 3.93 0 0 0-5.05-1.95 9 9 0 0 0-1.75.78 51 51 0 0 1-5.18 2.49l-1.44.63c.4.62.78 1.24 1.15 1.85.59 1 1.17 1.94 1.84 2.86 1.54 2.12 2.95 3.45 4.4 3.95ZM412.32 243.08a6 6 0 0 0 2.17 4.15l.35.32a12.2 12.2 0 0 1 3.59 4.82 11.9 11.9 0 0 1 .62 4.62v2l.32-2.77c.06-.61.11-1.23.16-1.82.23-3.09.4-5.41 3.33-7.39a9.4 9.4 0 0 0 1.54-1.3 4.15 4.15 0 0 0 1.2-2.66 5.26 5.26 0 0 0-1.06-3 12.4 12.4 0 0 0-2-2.23c-1.09-1-2.25-2.31-3.3-3.5l-.66-.75a30 30 0 0 1-3.68 4.37l-.41.43a7.06 7.06 0 0 0-2.17 4.71ZM475.79 286.49c-1.84 3.85-3.84 4.58-6.72 5.62l-.6.22h-.07l-2.67 1c.72-.1 1.44-.18 2.17-.25.76-.08 1.62-.23 2.48-.38 2.94-.53 5.89-1.06 8.47 1 1.85 1.44 3.4 1.81 4.77 1.29s2.83-2.09 4.18-4.4c.43-.73.79-1.43 1.14-2.13.49-.94 1-1.89 1.52-2.77-1.29-.38-2.62-.91-3.94-1.43-.92-.37-1.84-.74-2.71-1a6.66 6.66 0 0 0-4.78-.14 6.44 6.44 0 0 0-3.24 3.37ZM457.45 354.36a7 7 0 0 0-.93-.08 6.8 6.8 0 0 1-3.36-.84 11.8 11.8 0 0 1-2.81-2.34c-1.71-1.81-3.36-3.65-5-5.49 1 2.06 2 4.09 3.07 6a16.1 16.1 0 0 1 1.68 4.39 11.4 11.4 0 0 1 0 4.66 3.91 3.91 0 0 0 .81 3.55 8.3 8.3 0 0 0 3.93 2.11c1.12.32 2.17.61 3.18.88l2.18.56.4-2c.2-1 .39-2.07.61-3.37a12 12 0 0 0 .17-1.8 8 8 0 0 0-.93-4.09 4.17 4.17 0 0 0-3-2.14Z" class="cls-13"/><path d="M419.1 317.63a9.5 9.5 0 0 0 6.86-3 10.53 10.53 0 0 0 0-14.43 9.41 9.41 0 0 0-13.72 0 10.53 10.53 0 0 0 0 14.43 9.47 9.47 0 0 0 6.86 3Z" class="cls-9"/><path d="M455.76 461.18a92 92 0 0 0 22.24 2m-111.06-47c3.4-2.43 8-3.61 14.05-3.24 9.87-7.58 19.75-19.94 29.61-12.68a17.26 17.26 0 0 1 16.1.83c5.13-8.89 21.24 5.91 29.08 13.76 5.84-.57 11 1.39 16.05 3.78m-61.23-18.31c-9.77 37.47-8.82 69.11-2.36 97.76m18.46-96.93c5.7 38.38 5.07 70.15-.24 97m29.67-54.84a93 93 0 0 0 22.51-6.14m-22.86-22.28q-1.48 9.24-3 18.48 1.65 5 3.31 9.94-.18 8.93-.37 17.85l-4.05 8.65a69.3 69.3 0 0 0 3.55 18.41m-86.29-4c3.5 3.25 7.61 4.18 12 4.15 9.69 5.42 20.31 14.24 27.29 9.71a43 43 0 0 0 18.22-.09c12.33 6.83 19.53-4.59 28.8-9.94 5.94-.56 10.9-1.49 12.85-3.53m-90.65-25.27a153 153 0 0 1-18.4 2.94M381 413a35.15 35.15 0 0 0 1.9 19.06l-5.43 10.21a68.3 68.3 0 0 0 0 17l4.78 9.39c0 7.92-1.28 14.09-1.28 19.7m-22.1-52.19a132 132 0 0 0 18.6 6.12m41.19-54.52a61 61 0 1 0 61.09 61 61 61 0 0 0-61.1-61.02Z" style="fill-rule:evenodd;stroke:#231f20;fill:none;stroke-linecap:round;stroke-linejoin:round;stroke-width:4.17px"/><path d="M240.42 576.26c2.08 1.42 3.34 3.85 3.76 7.25a10 10 0 0 1-.7 5.6 6.92 6.92 0 0 1-3.58 3.46 6 6 0 0 1 3.62 2.1 12 12 0 0 1 1.79 5.13l.69 4.2v.15c.31 2.12.94 3.35 1.87 3.69l.14 1.09-8 1a6.8 6.8 0 0 1-.83-1.77 18 18 0 0 1-.58-2.59l-.57-3.74c-.35-2.2-.95-3.63-1.8-4.31s-2.26-.9-4.22-.66l-7.8 1 1.72 13.85-7.35.92-4.49-35.63 17.35-2.17c3.9-.48 6.89 0 9 1.4ZM203 598.14a6 6 0 0 1 3.81 1.73 11.9 11.9 0 0 1 2.29 4.92l1.09 4.1v.15c.53 2.08 1.27 3.24 2.24 3.48l.24 1.07-7.91 1.81a6.8 6.8 0 0 1-1-1.68 18 18 0 0 1-.83-2.52l-.94-3.66c-.58-2.16-1.32-3.52-2.24-4.11s-2.33-.67-4.25-.23l-7.68 1.8 3.11 13.61-7.23 1.65-8-35 17-3.89q5.76-1.32 9.08.49t4.47 6.84a10 10 0 0 1-.13 5.64 6.93 6.93 0 0 1-3.22 3.8Zm-46.22-7.27L180 621.1l-7.42 2.36-4.56-6.3-13.31 4.23v7.75l-7.44 2.36 1.37-38 8.16-2.59Zm-15.49 31.53a10 10 0 0 1 0 8.78c-1.37 2.64-4 4.78-7.83 6.42l-15.11 6.4-14-33 15.65-6.62c3.39-1.44 6.27-1.82 8.66-1.15a8.16 8.16 0 0 1 5.31 5.08 9 9 0 0 1 .79 4.6 7.07 7.07 0 0 1-1.87 3.85 8.74 8.74 0 0 1 5.1 1.35 9.33 9.33 0 0 1 3.32 4.29ZM300.93 572l4.22 25.68 7.1-24.82 7.9.6 3.26 25.54 8.07-24.75 7.6.58-13 35-7-.54-3.48-27.79-7.67 26.94-7-.53-7.57-36.53 7.66.59Zm-18.86 3.81q5 4.95 5.27 13.61T283 603.31q-4.59 5.28-12.66 5.56t-13-4.65q-4.94-5-5.24-13.61t4.27-14q4.57-5.26 12.64-5.55t13 4.65Zm97.3 7 4.86 37.82-7.6-1.7-.78-7.73-13.62-3-3.93 6.68-7.62-1.7L371 580.87l8.35 1.87Zm19.2 4.59 24.05 7.35-1.82 6-17.06-5.21-2.37 7.77 14.95 4.57-1.82 6-14.95-4.57-4.45 14.59-7-2.13 10.47-34.29Zm51.61 42.91a13.3 13.3 0 0 1-7.94 7.34c-3.54 1.19-7.48.95-11.79-.73q-7.47-2.9-9.79-9.13t.9-14.59c2.21-5.7 5.31-9.5 9.3-11.44s8.61-1.87 13.89.18q6.42 2.49 8.94 7.06t.67 10.41l-6.82-2.64a7.07 7.07 0 0 0-.64-5.23 8.65 8.65 0 0 0-4.53-3.47q-4.56-1.77-8.07.24t-5.69 7.63c-1.41 3.62-1.71 6.74-.91 9.33a9.73 9.73 0 0 0 11.32 6 8 8 0 0 0 4.38-3.57Z" style="fill-rule:evenodd;stroke:#231f20;stroke-miterlimit:22.93;stroke-width:.56px;fill:none"/><path d="M242.36 50v-3.56a23.5 23.5 0 0 0 3.49-.34 4.84 4.84 0 0 0 2.59-1.41 4.64 4.64 0 0 0 1-1.92 4.7 4.7 0 0 0 .2-1.08h4.41v26.88h-5.41V50ZM264.47 44.15a8.42 8.42 0 0 1 6.47-2.68q6.15 0 8.42 5.43a21 21 0 0 1 1.3 8.1 23.3 23.3 0 0 1-1.24 8.14q-2.39 6.21-8.72 6.21a8.9 8.9 0 0 1-5.43-1.79 7 7 0 0 1-2.76-5.22h5.26a3.2 3.2 0 0 0 1 1.93 3.1 3.1 0 0 0 2.16.74c1.75 0 3-1 3.68-2.89a17 17 0 0 0 .72-4.65 5.8 5.8 0 0 1-1.54 1.39 7 7 0 0 1-3.65.89 8.28 8.28 0 0 1-5.69-2.22 8.09 8.09 0 0 1-2.45-6.38 9.82 9.82 0 0 1 2.47-7m8.88 10.67a4.37 4.37 0 0 0 1.8-4 5.67 5.67 0 0 0-1.06-3.62 3.57 3.57 0 0 0-2.92-1.33 3.62 3.62 0 0 0-2.32.76c-1 .79-1.52 2.13-1.52 4a5.6 5.6 0 0 0 1 3.59 4 4 0 0 0 5.05.57ZM299.61 45.12q2.07 3.62 2.07 10.27t-2.07 10.25c-1.37 2.4-3.78 3.6-7.2 3.6s-5.82-1.2-7.2-3.6-2.07-5.81-2.07-10.25.69-7.86 2.07-10.27 3.78-3.61 7.2-3.61 5.83 1.2 7.2 3.61M289.3 62.48a3.18 3.18 0 0 0 6.2 0 26.2 26.2 0 0 0 .73-7.09 25.8 25.8 0 0 0-.73-7.19 3.22 3.22 0 0 0-6.2 0 24.9 24.9 0 0 0-.76 7.19 25.2 25.2 0 0 0 .76 7.09M305.7 50v-3.56a24 24 0 0 0 3.5-.34 4.9 4.9 0 0 0 2.59-1.41 4.6 4.6 0 0 0 1-1.92 4.4 4.4 0 0 0 .21-1.08h4.41v26.88H312V50Z" class="cls-6"/><path d="M424.7 541.6a7.4 7.4 0 0 1 .3-2c.82-2.66 3.07-4.51 6.37-5.6a31.6 31.6 0 0 1 9.74-1.23 84 84 0 0 1 23.48 3.94 197 197 0 0 0 25.3 6.07 126 126 0 0 0 22.23 1.87c8.9-.11 17.18-.73 24.06-2.6 6.4-1.73 11.52-4.55 14.68-9.1a3.47 3.47 0 0 1 6.36 2.07c-.91 20.55-11.52 35-22.13 49.48-1.4 1.91-2.81 3.82-4.1 5.62a111 111 0 0 0 13 11.34 106 106 0 0 0 17.5 10.51 3.47 3.47 0 0 1 .44 6c-15.28 10.24-29 14.72-41.82 16.13-11.37 1.25-22 .08-32.5-1.61-.13 5.24-.31 10.38-.49 15.51-.23 6.49-.46 13-.58 19.31v.16a17.85 17.85 0 0 1-1.62 7.1 3 3 0 0 1-.13.31 13.72 13.72 0 0 1-6.6 6.39 19 19 0 0 1-8.78 1.63 30.1 30.1 0 0 1-12.18-3.23 401 401 0 0 0-83.53-30.78 424.4 424.4 0 0 0-88.21-11.94c-30.36-1-59.62 2.77-88.11 9.85s-56.32 17.54-83.72 30c-7.37 3.35-14.75 5.77-20.75 5.84a16.14 16.14 0 0 1-7.5-1.52 11.47 11.47 0 0 1-5.41-5.73 18.1 18.1 0 0 1-1.43-7.39l-.44-35.77c-13.54 2.06-26.37 2.34-38.5.4a88.06 88.06 0 0 1-37.35-15.05 3.47 3.47 0 0 1 .72-6.16 72.2 72.2 0 0 0 18-9.53 74.7 74.7 0 0 0 13.08-12.4c-1.57-2.2-3.13-4.3-4.69-6.41-10.67-14.41-21.49-29-22.25-48.58a3.48 3.48 0 0 1 6.11-2.56 33.9 33.9 0 0 0 17.11 10.73c6.88 2 14.68 2.35 23.05 1.94a186 186 0 0 0 27.95-3.73c9.78-2 20-4.64 30.69-7.72a33 33 0 0 1 8.34-1.18 38 38 0 0 1 11.32 1.38c4 1.2 7 3.28 7.83 6.16a5.7 5.7 0 0 1 .24 1.53v.59l-.09 25.43a383 383 0 0 1 59.87-19 358.4 358.4 0 0 1 86.69-9 386 386 0 0 1 88.78 12 398 398 0 0 1 49.69 16.32V541.6Zm6.93 0c0 1.21 2.2 4 5.15 6.89 3.38 3.33 7.56 6.48 10.79 7.77 2.87 1.15 5.49 2.17 8.07 3.18 15.5 6 29.87 11.61 31.61 19.4a3.3 3.3 0 0 1 .18 1.09l.26 45.51c10.38 1.7 20.78 2.92 31.7 1.73 10.41-1.14 21.44-4.5 33.62-11.78a113 113 0 0 1-13.14-8.39A116.3 116.3 0 0 1 524 592.77a3.46 3.46 0 0 1-.31-4.35c2.08-3 4-5.51 5.82-8.06 8.23-11.22 16.45-22.44 19.56-36.34a39.5 39.5 0 0 1-11.07 4.7c-7.48 2-16.32 2.7-25.78 2.82a132.7 132.7 0 0 1-23.46-2 204 204 0 0 1-26.19-6.28 76.8 76.8 0 0 0-21.47-3.64 25 25 0 0 0-7.54.9c-1.13.38-1.81.73-1.91 1Zm0 11.55v17.09q12.25 5.19 24.15 11.13a34 34 0 0 0 8.58 2.94 47 47 0 0 0 7.32.79 14.1 14.1 0 0 0 6.75-2.14c1.23-.82 2.08-1.71 2.08-2.49 0-3.91-13.12-9-27.36-14.56-2.8-1.09-5.64-2.19-8.16-3.2-4.07-1.64-9.12-5.37-13.06-9.27zm49.16 75.2-.22-38.64a21.5 21.5 0 0 1-8.77 2.32h-.25a54 54 0 0 1-8.52-.9 40.6 40.6 0 0 1-10.34-3.54 399.6 399.6 0 0 0-79.39-29.81A378.6 378.6 0 0 0 286.11 546a351.8 351.8 0 0 0-85.06 8.8A385.3 385.3 0 0 0 118 584.39l-.79.39c-6.86 3.35-13.91 6.79-22.49 6.81A27.8 27.8 0 0 1 84.55 590l.94 78a11.5 11.5 0 0 0 .85 4.59 4.67 4.67 0 0 0 2.2 2.34 9.4 9.4 0 0 0 4.3.79c4.89-.06 11.35-2.23 18-5.25 27.73-12.58 55.9-23.18 84.92-30.38s58.92-11 90-10a431.5 431.5 0 0 1 89.64 12.12 408 408 0 0 1 85 31.29 23.1 23.1 0 0 0 9.32 2.53 12.24 12.24 0 0 0 5.61-1 6.93 6.93 0 0 0 3.31-3.22 1.6 1.6 0 0 1 .12-.22 11.4 11.4 0 0 0 .92-4.33c.13-6.61.35-13 .58-19.43s.46-13 .58-19.39ZM77.5 579.62v-.06c0-8.61 14.42-13.79 25.76-17.87 2.55-.91 4.92-1.76 6.9-2.57 6.78-2.78 13.22-6.19 17.59-9.92 3.05-2.61 5-5.26 5.07-7.75v-.08a8.1 8.1 0 0 0-3.13-1.35 31 31 0 0 0-9.19-1.11 26 26 0 0 0-6.55.9c-10.81 3.13-21.23 5.82-31.26 7.86a193.7 193.7 0 0 1-29 3.87c-9.06.45-17.58 0-25.24-2.19a42.7 42.7 0 0 1-13.22-6.2c3.07 13.36 11.43 24.64 19.69 35.8 2.19 2.95 4.37 5.9 6.32 8.68a3.46 3.46 0 0 1-.11 4.15 82.8 82.8 0 0 1-16.07 15.71 77 77 0 0 1-13.45 7.88 81.3 81.3 0 0 0 29.1 10.45c11.64 1.87 24.09 1.53 37.33-.57l-.54-45v-.67Zm6.93 0v.4a3.86 3.86 0 0 0 2.62 3.56 20.7 20.7 0 0 0 7.64 1.1c6.93 0 13.27-3.11 19.45-6.13l.79-.39q8.79-4.27 17.79-8.16l.05-16-.51.45c-5 4.25-12.07 8-19.47 11.06-2 .82-4.51 1.72-7.19 2.68-9.35 3.36-21.24 7.64-21.17 11.39Zm340.27-38" style="fill-rule:evenodd;fill:#0a3d81"/><path d="m487.43 579.94.26 45.51c10.38 1.7 20.78 2.92 31.7 1.73 10.41-1.14 21.44-4.5 33.62-11.78a113 113 0 0 1-13.14-8.4A116.3 116.3 0 0 1 524 592.77a3.48 3.48 0 0 1-.32-4.35c2.08-3 4-5.51 5.82-8.06 8.23-11.22 16.45-22.44 19.56-36.34a39.5 39.5 0 0 1-11.07 4.7c-7.48 2-16.32 2.7-25.78 2.82a132.7 132.7 0 0 1-23.46-2 204 204 0 0 1-26.19-6.28 76.8 76.8 0 0 0-21.47-3.64 25 25 0 0 0-7.54.9c-1.13.38-1.81.73-1.91 1 0 1.21 2.2 4 5.15 6.89 3.38 3.33 7.56 6.48 10.79 7.77 2.87 1.15 5.49 2.17 8.07 3.18 15.5 6 29.87 11.61 31.61 19.4a3.3 3.3 0 0 1 .17 1.18" class="cls-1"/></g></g></svg>