<svg xmlns="http://www.w3.org/2000/svg" width="896.676" height="929.943" viewBox="0 0 896.676 929.943"><defs><clipPath id="a" clipPathUnits="userSpaceOnUse"><path d="M201.883 190h676.233v700H201.883Z"/></clipPath><clipPath id="b" clipPathUnits="userSpaceOnUse"><path d="M201.883 190h676.233v700H201.883Z"/></clipPath></defs><path d="M0 0v-94.475h-666.025V0l320.498 222.267z" style="fill:#fff100;fill-opacity:1;fill-rule:nonzero;stroke:none" transform="matrix(1.33333 0 0 -1.33333 892.355 780.951)"/><g clip-path="url(#a)" transform="matrix(1.33333 0 0 -1.33333 -271.985 1184.521)"><path d="M0 0v-94.475h-666.025V0l320.498 222.267z" style="fill:none;stroke:#000;stroke-width:6.481;stroke-linecap:round;stroke-linejoin:miter;stroke-miterlimit:3.864;stroke-dasharray:none;stroke-opacity:1" transform="translate(873.255 302.678)"/></g><path d="M0 0h104.608L62.549 42.056Z" style="fill:#ec1c24;fill-opacity:1;fill-rule:nonzero;stroke:none" transform="matrix(1.33333 0 0 -1.33333 30.721 783.16)"/><path d="M0 0h104.608L62.549 42.056Z" style="fill:none;stroke:#000;stroke-width:3.241;stroke-linecap:round;stroke-linejoin:miter;stroke-miterlimit:3.864;stroke-dasharray:none;stroke-opacity:1" transform="matrix(1.33333 0 0 -1.33333 30.721 783.16)"/><path d="M0 0h-104.608l42.059 42.056z" style="fill:#ec1c24;fill-opacity:1;fill-rule:nonzero;stroke:none" transform="matrix(1.33333 0 0 -1.33333 866.013 783.16)"/><path d="M0 0h-104.608l42.059 42.056z" style="fill:none;stroke:#000;stroke-width:3.241;stroke-linecap:round;stroke-linejoin:miter;stroke-miterlimit:3.864;stroke-dasharray:none;stroke-opacity:1" transform="matrix(1.33333 0 0 -1.33333 866.013 783.16)"/><g clip-path="url(#b)" transform="matrix(1.33333 0 0 -1.33333 -271.985 1184.521)"><path d="M0 0c0 181.174 146.866 328.038 328.038 328.038S656.079 181.174 656.079 0 509.21-328.038 328.038-328.038 0-181.174 0 0" style="fill:#fff100;fill-opacity:1;fill-rule:nonzero;stroke:none" transform="translate(212.204 557.112)"/><path d="M0 0c0 181.174 146.866 328.038 328.038 328.038S656.079 181.174 656.079 0 509.21-328.038 328.038-328.038 0-181.174 0 0" style="fill:none;stroke:#000;stroke-width:6.481;stroke-linecap:round;stroke-linejoin:round;stroke-miterlimit:3.864;stroke-dasharray:none;stroke-opacity:1" transform="translate(212.204 557.112)"/><path d="M0 0c0 174.682 141.604 316.289 316.286 316.289 174.685 0 316.289-141.607 316.289-316.289 0-174.685-141.604-316.289-316.289-316.289C141.604-316.289 0-174.685 0 0" style="fill:#00adee;fill-opacity:1;fill-rule:nonzero;stroke:none" transform="translate(223.956 557.112)"/><path d="M0 0c0 174.682 141.604 316.289 316.286 316.289 174.685 0 316.289-141.607 316.289-316.289 0-174.685-141.604-316.289-316.289-316.289C141.604-316.289 0-174.685 0 0" style="fill:none;stroke:#000;stroke-width:2.16;stroke-linecap:round;stroke-linejoin:round;stroke-miterlimit:3.864;stroke-dasharray:none;stroke-opacity:1" transform="translate(223.956 557.112)"/><path d="M0 0c0 133.148 107.936 241.089 241.086 241.089 133.149 0 241.087-107.941 241.087-241.089 0-133.154-107.938-241.087-241.087-241.087C107.936-241.087 0-133.154 0 0" style="fill:#fff100;fill-opacity:1;fill-rule:nonzero;stroke:none" transform="translate(299.156 557.112)"/><path d="M0 0c0 133.148 107.936 241.089 241.086 241.089 133.149 0 241.087-107.941 241.087-241.089 0-133.154-107.938-241.087-241.087-241.087C107.936-241.087 0-133.154 0 0" style="fill:none;stroke:#000;stroke-width:2.16;stroke-linecap:round;stroke-linejoin:round;stroke-miterlimit:3.864;stroke-dasharray:none;stroke-opacity:1" transform="translate(299.156 557.112)"/><path d="M0 0c0 126.568 102.604 229.169 229.172 229.169S458.344 126.568 458.344 0c0-126.57-102.604-229.172-229.172-229.172S0-126.57 0 0" style="fill:#fff;fill-opacity:1;fill-rule:nonzero;stroke:none" transform="translate(311.07 557.112)"/><path d="M0 0c0 126.568 102.604 229.169 229.172 229.169S458.344 126.568 458.344 0c0-126.57-102.604-229.172-229.172-229.172S0-126.57 0 0" style="fill:none;stroke:#000;stroke-width:8.642;stroke-linecap:round;stroke-linejoin:round;stroke-miterlimit:3.864;stroke-dasharray:none;stroke-opacity:1" transform="translate(311.07 557.112)"/><path d="M0 0c1.472 2.541 3.728 4.486 6.753 5.835q4.686 2.087 8.581.993 2.182-.607 4.646-2.587-.323 4.552 1.882 7.906 2.194 3.387 6.599 5.349 4.544 2.021 9.17 1.34a15.5 15.5 0 0 0 5.649-1.851c1.977-1.086 3.701-2.649 5.163-4.684 1.45-2.014 2.757-4.332 3.923-6.943l10.317-23.175-51.14-22.772L.482-15.743Q-3.561-6.283 0 0m35.622-17.644 13.639 6.072L43.668.985c-1 2.247-2.076 3.856-3.234 4.838q-3.181 2.658-7.897.561c-2.661-1.187-3.999-3.097-4.016-5.739-.007-1.474.468-3.325 1.434-5.555Zm-19.737-8.789 11.275 5.02-5.591 12.56q-1.5 3.363-3.675 4.893c-1.484 1.028-3.299 1.064-5.454.107Q8.87-5.445 8.959-8.731q.268-2.747 1.921-6.458z" style="fill:#fff100;fill-opacity:1;fill-rule:evenodd;stroke:none" transform="translate(258.844 453.444)"/><path d="m0 0-2.628 11.395 44.735 10.33-6.233 27.011 9.802 2.265 8.87-38.41z" style="fill:#fff100;fill-opacity:1;fill-rule:nonzero;stroke:none" transform="translate(245.58 476.034)"/><path d="m0 0 .693 13.197 56.939 16.868-.664-12.67-11.679-2.996L44.209-6.2l11.292-4.468-.642-12.212Zm34.74-2.546.746 14.183-22.36-5.826z" style="fill:#fff100;fill-opacity:1;fill-rule:evenodd;stroke:none" transform="translate(234.847 557.812)"/><path d="M0 0q-5.05 8.301-2.498 18.548 3.42 13.708 13.989 17.805 5.924 2.237 11.073 1.23l-2.829-11.346c-2.788-.089-4.991-.55-6.605-1.367-2.874-1.479-4.813-4.243-5.825-8.297q-1.543-6.19 2.574-11.016c2.726-3.208 7.13-5.571 13.224-7.094q9.14-2.275 14.648.343 5.475 2.666 6.928 8.489c.993 3.98.444 7.339-1.637 10.076q-1.667 2.255-5.583 4.445l2.8 11.238c5.677-2.461 9.862-6.175 12.562-11.154q4.054-7.431 1.697-16.901-2.924-11.72-12.111-16.552c-6.152-3.215-13.61-3.728-22.385-1.544C10.544-10.73 3.867-6.365 0 0" style="fill:#fff100;fill-opacity:1;fill-rule:nonzero;stroke:none" transform="translate(245.673 613.69)"/><path d="m0 0 5.044 10.345L25.762.238l-11.246 29.53 6.626 13.586 10.663-30.725 40.168 7.24-6.595-13.513-29.557-4.812 2.709-7.53 16.827-8.209-5.046-10.344z" style="fill:#fff100;fill-opacity:1;fill-rule:nonzero;stroke:none" transform="translate(259.06 676.466)"/><path d="M0 0c2.922-.264 5.641-1.481 8.141-3.658 2.582-2.244 4.088-4.694 4.529-7.355.249-1.492.117-3.256-.386-5.303q3.994 2.215 7.964 1.635c2.666-.372 5.207-1.611 7.635-3.721q3.755-3.261 5.09-7.746a15.4 15.4 0 0 0 .709-5.902q-.22-3.377-2.061-6.658-1.82-3.248-4.636-6.487L10.342-64.342l-42.251 36.727 17.841 20.521Q-7.2.574 0 0m-.935-39.745 11.265-9.793 9.019 10.38q2.415 2.772 3.018 4.972c.707 2.671-.235 5.135-2.836 7.393-2.194 1.913-4.493 2.316-6.892 1.218q-2.011-.924-4.431-3.653zm-16.309 14.177 9.316-8.095L1.09-23.287q2.417 2.779 2.882 5.393c.305 1.779-.434 3.443-2.208 4.989q-2.952 2.563-5.89 1.096c-1.585-.935-3.27-2.429-5.044-4.471z" style="fill:#fff100;fill-opacity:1;fill-rule:evenodd;stroke:none" transform="translate(327.31 768.364)"/><path d="m0 0 9.496 7.154 20.705-27.479q3.474-4.612 6.167-5.909c3.02-1.659 6.429-1.05 10.234 1.817q5.671 4.272 4.536 9.311-.508 2.948-3.985 7.557L26.447 19.929l9.496 7.154L56.651-.396q5.371-7.128 6.15-12.768 1.357-10.388-10.256-19.14c-7.746-5.835-14.83-7.375-21.258-4.606q-5.206 2.303-10.581 9.432z" style="fill:#fff100;fill-opacity:1;fill-rule:nonzero;stroke:none" transform="translate(343.305 790.872)"/><path d="M0 0a14.14 14.14 0 0 0 6.406-1.831 17.6 17.6 0 0 0 4.325-3.438c1.253-1.379 2.255-3.1 3.011-5.171q1.362-3.747.798-8.077c-.386-2.86-1.851-5.319-4.387-7.372q4.172-.138 6.658-2.308 2.51-2.116 4.521-7.648l1.285-3.534c.877-2.404 1.563-3.998 2.066-4.785.781-1.251 1.808-2.009 3.093-2.268l.477-1.323-12.097-4.404a41 41 0 0 0-1.738 2.561 27 27 0 0 0-2.115 4.365l-1.851 4.86q-1.902 5.005-4.298 6.036c-1.57.693-3.977.451-7.211-.727l-11.349-4.133L-4.9-59.818l-10.74-3.913-19.145 52.603 25.802 9.392C-5.274-.465-2.277.113 0 0m-20.72-16.354 5.145-14.13 12.454 4.533q3.711 1.35 5.255 2.879c1.827 1.798 2.2 4.171 1.129 7.123q-1.744 4.778-5.517 5.267-2.12.275-5.69-1.021z" style="fill:#fff100;fill-opacity:1;fill-rule:evenodd;stroke:none" transform="translate(442.349 844.623)"/><path d="m0 0 12.176 1.494 26.888-36.073L34.301 4.21 45.12 5.535l6.823-55.558-11.61-1.426L12.797-14.77l4.843-39.465-10.817-1.331Z" style="fill:#fff100;fill-opacity:1;fill-rule:nonzero;stroke:none" transform="translate(474.39 856.497)"/><path d="M0 0a14.14 14.14 0 0 0 4.713-4.708 17.4 17.4 0 0 0 2.113-5.1q.646-2.72.129-5.983c-.415-2.626-1.491-5.107-3.215-7.451q-2.59-3.47-7.415-4.325 3.58-2.14 4.709-5.243 1.161-3.07.242-8.882L.69-45.403q-.602-3.792-.515-5.188.111-2.208 1.604-3.484l-.221-1.388-12.715 2.014q-.238 1.92-.281 3.083a27.4 27.4 0 0 0 .266 4.84l.736 5.152q.766 5.3-.831 7.36c-1.041 1.372-3.259 2.323-6.663 2.863l-11.924 1.888-3.438-21.679-11.287 1.787 8.758 55.289 27.119-4.296Q-2.909 1.806 0 0m-26.052-4.255-2.351-14.857 13.089-2.071q3.9-.615 5.993-.026 3.699 1.028 4.438 5.679c.529 3.351-.228 5.775-2.268 7.281-1.151.849-2.973 1.467-5.473 1.865z" style="fill:#fff100;fill-opacity:1;fill-rule:evenodd;stroke:none" transform="translate(603.41 854.417)"/><path d="M0 0q-8.564-3.093-19.346 2.17-10.79 5.26-13.627 13.912-4.133 10.93 2.477 24.481c4.494 9.221 10.416 14.892 17.766 17.026q8.565 3.09 19.354-2.17 10.783-5.262 13.621-13.911 4.231-10.646-2.509-24.465Q11.126 3.488 0 0m-2.857 10.86q5.933 2.812 10.08 11.306 4.128 8.465 2.69 14.873-1.388 6.422-7.635 9.47-6.25 3.05-12.215.254-5.967-2.793-10.114-11.292t-2.673-14.921c.98-4.284 3.557-7.439 7.719-9.47q6.246-3.047 12.148-.22" style="fill:#fff100;fill-opacity:1;fill-rule:evenodd;stroke:none" transform="translate(659.12 781.683)"/><path d="m0 0 9.577-7.482-49.519-32.35-8.705 6.804 19.56 55.755 9.844-7.693-16.587-40.968z" style="fill:#fff100;fill-opacity:1;fill-rule:nonzero;stroke:none" transform="translate(734.583 792.836)"/><path d="m0 0-19.821 22.013-8.832-7.952 18.193-20.21-7.221-6.506-18.195 20.207-10.699-9.63 20.736-23.029-7.479-6.734L-61.703-.316l41.601 37.456L7.37 6.631Z" style="fill:#fff100;fill-opacity:1;fill-rule:nonzero;stroke:none" transform="translate(776.774 735.443)"/><path d="M0 0a14.1 14.1 0 0 0-1.151-6.559 17.4 17.4 0 0 0-2.968-4.663q-1.857-2.086-4.823-3.534-3.585-1.748-7.95-1.635-4.328.124-7.793 3.591.297-4.166-1.597-6.866-1.847-2.714-7.137-5.295l-3.375-1.65q-3.45-1.68-4.546-2.55-1.743-1.36-1.935-3.311l-1.263-.616-5.643 11.571q1.439 1.288 2.363 1.998a27.5 27.5 0 0 0 4.119 2.558l4.641 2.347q4.783 2.418 5.553 4.907.787 2.453-1.475 7.096l-5.293 10.856-19.73-9.624-5.013 10.273L-14.7 33.433-2.661 8.758C-1.012 5.198-.122 2.275 0 0m-18.428 18.901-13.517-6.596L-26.136.393q1.73-3.55 3.417-4.924 2.965-2.441 7.196-.379c3.05 1.486 4.603 3.5 4.663 6.034q.055 2.144-1.609 5.557z" style="fill:#fff100;fill-opacity:1;fill-rule:evenodd;stroke:none" transform="translate(816.397 684.13)"/><path d="M0 0c-2.4-.959-4.083-2.1-5.061-3.414-1.774-2.397-2.105-5.835-.99-10.306.666-2.678 1.503-4.776 2.51-6.302 1.918-2.887 4.416-3.946 7.484-3.18q2.692.668 3.577 3.395c.564 1.81.797 4.493.695 8.041l-.143 6.07Q7.874 3.256 9.316 7.063q2.387 6.425 10.383 8.417 7.298 1.822 13.449-2.283c4.097-2.735 7.005-7.53 8.712-14.381q2.139-8.585-.921-15.77c-2.011-4.804-5.88-8.029-11.603-9.664l-2.721 10.906q4.829 1.518 5.903 6.012.697 2.994-.281 6.936c-.729 2.922-1.904 5.113-3.517 6.559q-2.423 2.18-5.588 1.386-2.916-.724-3.707-3.666-.545-1.894-.484-7.633l.084-9.92q.061-6.522-1.625-10.268c-1.748-3.881-5.042-6.422-9.88-7.631Q.076-35.793-6.286-31.314q-6.312 4.459-8.906 14.847c-1.762 7.074-1.544 13.039.666 17.896q3.347 7.291 11.822 9.407z" style="fill:#fff100;fill-opacity:1;fill-rule:nonzero;stroke:none" transform="translate(794.751 636.824)"/><path d="m0 0-2.767-39.59-9.814.689 1.958 27.993-12.842.901-1.717-24.513-9.695.679 1.712 24.513-23.412 1.64.81 11.591z" style="fill:#fff100;fill-opacity:1;fill-rule:nonzero;stroke:none" transform="translate(845.587 546.588)"/><path d="m0 0-1.999-11.332-11.143 1.966 1.999 11.332z" style="fill:#fff100;fill-opacity:1;fill-rule:nonzero;stroke:none" transform="translate(797.002 512.052)"/><path d="M0 0q3.847-8.924-.106-18.716Q-5.4-31.814-16.436-34.4c-4.117-.927-7.83-.824-11.138.322l4.384 10.843c2.772-.3 5.016-.151 6.73.436 3.049 1.057 5.356 3.527 6.923 7.401q2.39 5.918-1.021 11.267C-12.804-.57-16.841 2.38-22.664 4.734c-5.821 2.355-10.671 2.918-14.55 1.698q-5.796-1.873-8.043-7.439-2.306-5.702.22-10.203 1.334-2.467 4.908-5.181l-4.337-10.74q-7.916 4.836-10.889 12.797-2.982 7.92.674 16.971 4.528 11.199 14.295 14.703 9.811 3.493 22.379-1.587Q-4.415 10.263 0 0" style="fill:#fff100;fill-opacity:1;fill-rule:nonzero;stroke:none" transform="translate(826.178 466.035)"/><path d="m0 0-5.931-9.865-9.697 5.833 5.926 9.865z" style="fill:#fff100;fill-opacity:1;fill-rule:nonzero;stroke:none" transform="translate(769.71 433.098)"/><path d="M0 0h8.13v46.629H2.405c-.741-5.359-5.054-8.315-12.627-8.501v-5.483H0Z" style="fill:#fff100;fill-opacity:1;fill-rule:nonzero;stroke:none" transform="translate(332.29 329.408)"/><path d="M0 0c0 4.186.863 6.161 3.634 6.161C6.652 6.161 7.578 4.31 7.578 0c0-4.25-.986-6.161-3.819-6.161C.863-6.161 0-4.25 0 0m3.759-12.26c3.385 0 4.25-2.646 4.25-8.127 0-5.732-.738-8.074-4.25-8.074-3.39 0-4.191 2.22-4.191 7.396 0 6.159.617 8.805 4.191 8.805m-5.854 3.083C-6.96-10.349-8.87-14.168-8.87-21.312c0-9.427 3.941-13.737 12.567-13.737 8.807 0 12.749 4.493 12.749 14.353 0 6.959-1.971 10.534-6.96 11.519 4.126 1.292 6.097 4.493 6.097 9.791 0 7.64-4.126 11.706-11.764 11.706-7.701 0-11.766-4.003-11.766-11.457 0-5.483 1.973-8.872 5.852-10.04" style="fill:#fff100;fill-opacity:1;fill-rule:nonzero;stroke:none" transform="translate(361.738 363.656)"/><path d="M0 0h8.87c1.048 14.29 4.807 27.471 11.088 39.115v6.653H-5.667V38.13h17.371C4.682 24.084.863 11.21 0 0" style="fill:#fff100;fill-opacity:1;fill-rule:nonzero;stroke:none" transform="translate(706.666 329.353)"/><path d="M0 0v-1.172c0-9.916 3.941-14.595 12.442-14.595 9.364 0 13.243 5.418 13.243 17.246 0 10.225-3.941 15.336-11.766 15.336-2.647 0-4.557-.738-6.343-2.584l.494 9.301h15.522v7.392H1.661L.432 6.65h7.513c.185 2.28 1.91 3.762 4.25 3.762 3.637 0 5.052-3.081 5.052-9.489 0-7.021-1.233-10.349-4.558-10.349-3.083 0-4.684 2.711-4.684 8.194V0Z" style="fill:#fff100;fill-opacity:1;fill-rule:nonzero;stroke:none" transform="translate(731.68 344.197)"/><path d="M207.229 288.648h666.025v-94.474H207.229Z" style="fill:#fff100;fill-opacity:1;fill-rule:nonzero;stroke:#000;stroke-width:6.481;stroke-linecap:round;stroke-linejoin:miter;stroke-miterlimit:3.864;stroke-dasharray:none;stroke-opacity:1"/><path d="M219.514 276.177h641.457V206.64H219.514Z" style="fill:#fff;fill-opacity:1;fill-rule:nonzero;stroke:#000;stroke-width:3.241;stroke-linecap:round;stroke-linejoin:round;stroke-miterlimit:3.864;stroke-dasharray:none;stroke-opacity:1"/><path d="m0 0 8.297 17.747L16.448 0Zm-15.274-16.738h7.415l5.658 12.036h20.778l5.581-12.036h7.782L12.262 23.51h-7.93z" style="fill:#000;fill-opacity:1;fill-rule:nonzero;stroke:none" transform="translate(253.74 239.453)"/><path d="M0 0h12.263c8.004 0 12.116-1.119 12.116-6.55 0-5.427-3.891-7.11-12.116-7.11H0Zm-7.048 4.701v-40.249h7.12v17.242h11.605c9.103 0 11.234-.448 11.747-6.439l.442-5.262c.218-2.407.367-4.253 1.395-5.541h8.297v1.12c-1.69.671-2.201 2.184-2.424 4.701l-.587 6.605c-.367 4.313-1.395 6.497-6.02 7.504 4.773 1.735 7.267 4.813 7.267 9.181 0 4.531-2.422 7.892-6.828 9.741-3.301 1.345-6.974 1.397-11.527 1.397z" style="fill:#000;fill-opacity:1;fill-rule:nonzero;stroke:none" transform="translate(298.125 258.262)"/><path d="M0 0h7.197v35.38h16.668v4.869h-40.532V35.38H0Z" style="fill:#000;fill-opacity:1;fill-rule:nonzero;stroke:none" transform="translate(351.528 222.714)"/><path d="M0 0h38.254v5.039H7.122v13.49H35.32v4.701H7.122v12.04h30.547v4.979H0Z" style="fill:#000;fill-opacity:1;fill-rule:nonzero;stroke:none" transform="translate(381.75 222.714)"/><path d="M0 0h38.259v5.039H7.125v13.49H35.32v4.701H7.125v12.04H37.67v4.979H0Z" style="fill:#000;fill-opacity:1;fill-rule:nonzero;stroke:none" transform="translate(448.776 222.714)"/><path d="M0 0h7.195v35.38h16.671v4.869h-40.535V35.38H0Z" style="fill:#000;fill-opacity:1;fill-rule:nonzero;stroke:none" transform="translate(507.358 222.714)"/><path d="M0 0h33.56v5.097H7.271v35.152H0Z" style="fill:#000;fill-opacity:1;fill-rule:nonzero;stroke:none" transform="translate(557.702 222.714)"/><path d="m0 0 8.295 17.747L16.448 0Zm-15.274-16.738h7.418l5.653 12.036h20.78l5.581-12.036h7.781L12.262 23.51h-7.93z" style="fill:#000;fill-opacity:1;fill-rule:nonzero;stroke:none" transform="translate(606.368 239.453)"/><path d="M0 0h22.396C33.63 0 40.239 4.812 40.239 12.037c0 5.205-3.744 8.789-10.059 9.683 4.991 1.567 7.561 4.535 7.561 8.736 0 6.547-5.504 9.793-16.448 9.793H0Zm7.194 23.343v12.315h13.147c6.9 0 10.206-1.901 10.206-5.991 0-4.421-3.524-6.324-10.796-6.324zm0-18.474v13.996h13.732c8.079 0 11.968-2.014 11.968-6.773 0-4.701-3.819-7.223-11.157-7.223z" style="fill:#000;fill-opacity:1;fill-rule:nonzero;stroke:none" transform="translate(643.704 222.714)"/><path d="M0 0c0 10.472 6.751 16.462 17.621 16.462S35.174 10.472 35.174 0c0-10.467-6.684-16.456-17.553-16.456S0-10.467 0 0m-7.417 0c0-13.433 9.543-21.217 25.038-21.217S42.589-13.433 42.589 0c0 13.439-9.472 21.221-24.968 21.221C2.126 21.221-7.417 13.439-7.417 0" style="fill:#000;fill-opacity:1;fill-rule:nonzero;stroke:none" transform="translate(698.471 242.809)"/><path d="M0 0h12.26c8.003 0 12.119-1.119 12.119-6.55 0-5.427-3.891-7.11-12.119-7.11H0Zm-7.05 4.701v-40.249H.07v17.242h11.603c9.105 0 11.236-.448 11.749-6.439l.441-5.262c.221-2.407.367-4.253 1.396-5.541h8.297v1.12c-1.688.671-2.201 2.184-2.424 4.701l-.587 6.605c-.367 4.313-1.396 6.497-6.02 7.504 4.773 1.735 7.266 4.813 7.266 9.181 0 4.531-2.421 7.892-6.827 9.741-3.304 1.345-6.974 1.397-11.529 1.397Z" style="fill:#000;fill-opacity:1;fill-rule:nonzero;stroke:none" transform="translate(757.144 258.262)"/><path d="M0 0h38.261v5.039H7.125v13.49h28.197v4.701H7.125v12.04h30.547v4.979H0Z" style="fill:#000;fill-opacity:1;fill-rule:nonzero;stroke:none" transform="translate(798.87 222.714)"/><path d="M0 0c11.291-25.498 19.34-53.132 34.565-76.696 3.21 19.536-6.473 38.986-7.561 58.33-3.417 60.77 46.127 55.165 66.977 97.761 22.547-18.514 42.512 4.864 56.172 4.864 5.514 0 9.613-4.72 15.122-4.864.012-20.701-3.239-29.746-10.802-48.608h8.642c29.296-17.299-11.967-39.885-25.927-49.153 2.572-6.374 16.204-2.517 16.204-9.182 0-7.233-6.593-11.763-11.342-16.203-53.387-49.91-77.362-.703-93.441-24.305-3.536-5.19-2.683-11.962-5.939-17.282 2.139-23.81 3.973-48.215 2.798-72.143-12.298 0-24.686-9.71-36.73-12.965 3.11 6.648.178 37.406-1.078 45.369 5.111-.352 10.66-.127 15.664 1.084 3.315 14.466.635 26.313-3.781 40.503-7.247-5.641-9.366-13.022-17.827-18.359C4.31-112.059.254-129.854-7.465-137.5c-.995 7.607-8.077 12.673-8.101 20.524-3.128-21.701-9.544-33.074-30.787-44.828-4.964 2.997-9.205 8.262-12.423 12.963v2.16c-6.446-.026-25.268-9.954-30.276-14.717-12.087 18.617-10.313 29.29-12.425 50.231-.472 4.684-15.079 2.834-18.361 3.778 11.315 9.153 10.615 14.583 27.003 21.605-6.693 3.608-9.424 10.771-13.502 16.745 57.791 0 47.276 38.888 109.104 19.985-6.178 9.292-14.95 12.667-24.305 17.822 6.423 6.115 15.852 5.806 9.722 17.284z" style="fill:#00a551;fill-opacity:1;fill-rule:nonzero;stroke:none" transform="translate(565.486 509.68)"/><path d="M0 0c11.291-25.498 19.34-53.132 34.565-76.696 3.21 19.536-6.473 38.986-7.561 58.33-3.417 60.77 46.127 55.165 66.977 97.761 22.547-18.514 42.512 4.864 56.172 4.864 5.514 0 9.613-4.72 15.122-4.864.012-20.701-3.239-29.746-10.802-48.608h8.642c29.296-17.299-11.967-39.885-25.927-49.153 2.572-6.374 16.204-2.517 16.204-9.182 0-7.233-6.593-11.763-11.342-16.203-53.387-49.91-77.362-.703-93.441-24.305-3.536-5.19-2.683-11.962-5.939-17.282 2.139-23.81 3.973-48.215 2.798-72.143-12.298 0-24.686-9.71-36.73-12.965 3.11 6.648.178 37.406-1.078 45.369 5.111-.352 10.66-.127 15.664 1.084 3.315 14.466.635 26.313-3.781 40.503-7.247-5.641-9.366-13.022-17.827-18.359C4.31-112.059.254-129.854-7.465-137.5c-.995 7.607-8.077 12.673-8.101 20.524-3.128-21.701-9.544-33.074-30.787-44.828-4.964 2.997-9.205 8.262-12.423 12.963v2.16c-6.446-.026-25.268-9.954-30.276-14.717-12.087 18.617-10.313 29.29-12.425 50.231-.472 4.684-15.079 2.834-18.361 3.778 11.315 9.153 10.615 14.583 27.003 21.605-6.693 3.608-9.424 10.771-13.502 16.745 57.791 0 47.276 38.888 109.104 19.985-6.178 9.292-14.95 12.667-24.305 17.822 6.423 6.115 15.852 5.806 9.722 17.284z" style="fill:none;stroke:#000;stroke-width:3.241;stroke-linecap:round;stroke-linejoin:round;stroke-miterlimit:3.864;stroke-dasharray:none;stroke-opacity:1" transform="translate(565.486 509.68)"/><path d="M0 0c-2.153 6.482-16.007 11.761-21.425 9.772-14.024-5.15-67.02 43.209-70.218 43.212-19.719-30.636-51.793-21.19-65.961-30.636 9.249-12.329 20.423-28.128 9.786-40.122 8.839-4.423 28.366-5.348 25.927-31.328 18.484 0 87.333 8.508 97.764 25.927C-18.431-13.66.002-13.514 0 0" style="fill:#00a551;fill-opacity:1;fill-rule:nonzero;stroke:none" transform="translate(535.948 493.906)"/><path d="M0 0c-2.153 6.482-16.007 11.761-21.425 9.772-14.024-5.15-67.02 43.209-70.218 43.212-19.719-30.636-51.793-21.19-65.961-30.636 9.249-12.329 20.423-28.128 9.786-40.122 8.839-4.423 28.366-5.348 25.927-31.328 18.484 0 87.333 8.508 97.764 25.927C-18.431-13.66.002-13.514 0 0" style="fill:none;stroke:#000;stroke-width:3.241;stroke-linecap:round;stroke-linejoin:round;stroke-miterlimit:3.864;stroke-dasharray:none;stroke-opacity:1" transform="translate(535.948 493.906)"/><path d="M0 0c7.496-10.589 64.817-32.946 79.397-32.946C40.232-50.047-1.918-43.322-5.941-43.21c-1.621.046.882-35.538-45.911-56.172 0 0 5.091 31.398-5.399 45.37-23.142-37.293-83.181-37.806-83.181-37.806 45.691 26.524 44.071 45.602 45.691 52.082C-46.312-11.485 0 0 0 0" style="fill:#00a551;fill-opacity:1;fill-rule:nonzero;stroke:none" transform="translate(579.98 577.722)"/><path d="M0 0c7.496-10.589 64.817-32.946 79.397-32.946C40.232-50.047-1.918-43.322-5.941-43.21c-1.621.046.882-35.538-45.911-56.172 0 0 5.091 31.398-5.399 45.37-23.142-37.293-83.181-37.806-83.181-37.806 45.691 26.524 44.071 45.602 45.691 52.082C-46.312-11.485 0 0 0 0Z" style="fill:none;stroke:#000;stroke-width:3.241;stroke-linecap:butt;stroke-linejoin:miter;stroke-miterlimit:3.864;stroke-dasharray:none;stroke-opacity:1" transform="translate(579.98 577.722)"/><path d="M0 0c4.323-.537 4.373-8.82 4.373-13.142 0-16.204-7.432-23.046-13.912-38.168-2.699-7.02-5.401-11.34-9.182-17.28-4.322-7.025-8.101-12.965-16.743-14.586-27.548-5.401-41.05-17.824-65.356-29.708-6.48-3.241-10.263-6.48-16.743-9.181h-30.789c-7.559 0-12.423 1.081-19.984 2.162-5.399.539-9.722 4.32-9.722 9.721 0 6.121.053 10.5 2.433 15.901-12.125-.009-45.182 10.712-51.31 20.522-13.986 22.396-19.581 53.662-18.903 79.4 5.888.928 25.117-7.101 31.897-7.983-.693 4.799-.926 9.688-.926 15.993 0 5.942-2.701 14.583 3.242 14.583 8.1 0 13.398-2.539 20.967-5.239-1.043 3.27-2.412 5.689-3.776 8.875-.137.276-.287.544-.441.808-2.702 5.404-7.732 6.583-7.732 11.985 0 4.461 2.302 8.666 5.852 10.855l-.719 21.379c8.022 2.349 24.233-19.445 35.109-19.445.424 0 25.206 23.942 30.247 27.548 5.107 3.651 12.968-20.334 20.527-30.245 1.479 1.688-2.63 15.739-3.241 18.364 0 0 16.508-10.17 22.686-17.285 10.183 10.361 7.819 25.273 24.256 36.034 6.331 4.141 8.642 12.143 17.827 5.944-.269-16.36 1.754-33.103 5.398-49.156 4.229.854 4.217 3.386 9.721 2.7.008-17.165.991-39.837 17.113-50.023z" style="fill:#ec1c24;fill-opacity:1;fill-rule:nonzero;stroke:none" transform="translate(614.047 660.541)"/><path d="M0 0c4.323-.537 4.373-8.82 4.373-13.142 0-16.204-7.432-23.046-13.912-38.168-2.699-7.02-5.401-11.34-9.182-17.28-4.322-7.025-8.101-12.965-16.743-14.586-27.548-5.401-41.05-17.824-65.356-29.708-6.48-3.241-10.263-6.48-16.743-9.181h-30.789c-7.559 0-12.423 1.081-19.984 2.162-5.399.539-9.722 4.32-9.722 9.721 0 6.121.053 10.5 2.433 15.901-12.125-.009-45.182 10.712-51.31 20.522-13.986 22.396-19.581 53.662-18.903 79.4 5.888.928 25.117-7.101 31.897-7.983-.693 4.799-.926 9.688-.926 15.993 0 5.942-2.701 14.583 3.242 14.583 8.1 0 13.398-2.539 20.967-5.239-1.043 3.27-2.412 5.689-3.776 8.875-.137.276-.287.544-.441.808-2.702 5.404-7.732 6.583-7.732 11.985 0 4.461 2.302 8.666 5.852 10.855l-.719 21.379c8.022 2.349 24.233-19.445 35.109-19.445.424 0 25.206 23.942 30.247 27.548 5.107 3.651 12.968-20.334 20.527-30.245 1.479 1.688-2.63 15.739-3.241 18.364 0 0 16.508-10.17 22.686-17.285 10.183 10.361 7.819 25.273 24.256 36.034 6.331 4.141 8.642 12.143 17.827 5.944-.269-16.36 1.754-33.103 5.398-49.156 4.229.854 4.217 3.386 9.721 2.7.008-17.165.991-39.837 17.113-50.023z" style="fill:none;stroke:#000;stroke-width:3.241;stroke-linecap:butt;stroke-linejoin:miter;stroke-miterlimit:3.864;stroke-dasharray:none;stroke-opacity:1" transform="translate(614.047 660.541)"/><path d="M0 0c-1.081 11.886-4.322 18.366-8.64 29.168-2.164 4.863-5.943 6.483-7.564 11.342-3.241 8.643-5.94 13.505-10.263 21.068" style="fill:none;stroke:#000;stroke-width:4.321;stroke-linecap:butt;stroke-linejoin:miter;stroke-miterlimit:3.864;stroke-dasharray:none;stroke-opacity:1" transform="translate(529.31 653.5)"/><path d="M0 0c54.132-6.103 81.934 25.735 84.799 45.372 0 0 3.536 14.718-1.719 23.511" style="fill:none;stroke:#000;stroke-width:4.321;stroke-linecap:butt;stroke-linejoin:miter;stroke-miterlimit:3.864;stroke-dasharray:none;stroke-opacity:1" transform="translate(453.403 576.55)"/><path d="M0 0c59.96-7.449 90.056 22.71 94.491 36.046 1.93 5.809 6.481 10.793 9.213 16.345 2.585 5.258 7.442 8.76 11.342 12.965 17.688 19.057 22.655 21.03 48.611 18.359" style="fill:none;stroke:#000;stroke-width:4.321;stroke-linecap:butt;stroke-linejoin:miter;stroke-miterlimit:3.864;stroke-dasharray:none;stroke-opacity:1" transform="translate(450.39 576.826)"/><path d="M0 0c-5.401 0-7.561-5.401-9.724-10.263-2.699-5.943-3.78-9.724-3.78-16.204 0-5.401 4.322-9.181 9.721-9.721 7.561-1.081 12.426-2.162 19.984-2.162H46.99c6.48 2.702 10.263 5.94 16.744 9.182C88.04-17.285 101.542-4.862 129.09.539c8.642 1.621 12.421 7.562 16.743 14.586 3.781 5.94 6.482 10.26 9.182 17.28 6.48 15.122 13.912 21.964 13.912 38.168 0 4.322-.051 12.605-4.374 13.142" style="fill:none;stroke:#000;stroke-width:4.321;stroke-linecap:butt;stroke-linejoin:miter;stroke-miterlimit:3.864;stroke-dasharray:none;stroke-opacity:1" transform="translate(449.493 576.826)"/><path d="M0 0c3.783 4.859 4.323 8.642 4.323 14.581 0 13.504-4.86 21.062-4.86 34.567 0 5.94-1.081 10.805 2.699 14.583 3.242 3.243 8.103 3.243 12.961 3.243 15.666 0 24.308-1.62 39.973-5.94 8.1-2.163 11.883-6.483 19.444-9.185 5.941-2.159 16.202 1.621 16.202-4.859 0-2.702-3.781-3.783-5.941-4.322-4.32-1.081-7.022-2.161-11.883-2.161-18.903 0-28.083 12.963-46.991 12.963-5.938 0-5.401-9.182-5.401-15.122l1.62-21.063c0-11.884-.539-19.989-7.023-29.711-3.779-5.94-5.939-10.8-12.961-12.96L0-24.849v1.623" style="fill:none;stroke:#000;stroke-width:4.321;stroke-linecap:butt;stroke-linejoin:miter;stroke-miterlimit:3.864;stroke-dasharray:none;stroke-opacity:1" transform="translate(448.146 602.386)"/><path d="M0 0c2.699 5.401 1.618 8.643 1.618 14.044 0 10.802-2.697 18.361-7.561 27.543-2.7 5.403-7.561 7.021-9.722 12.964-2.699 7.562-2.162 12.965-4.322 21.066-2.699 11.339 0 17.824-3.781 29.168-1.081 4.321-2.699 7.017-4.319 10.801-.137.275-.288.543-.442.807-2.701 5.404-7.731 6.584-7.731 11.985 0 6.482 4.86 12.422 11.342 12.422 8.101 0 11.884-4.319 19.445-7.021 5.94-2.163 9.721-3.783 16.203-4.862 9.18-2.162 14.039-6.482 22.145-9.721 4.32-1.621 8.1-2.16 10.802-5.402 7.564-8.102 5.401-15.664 10.803-27.005" style="fill:none;stroke:#000;stroke-width:4.321;stroke-linecap:butt;stroke-linejoin:miter;stroke-miterlimit:3.864;stroke-dasharray:none;stroke-opacity:1" transform="translate(447.7 576.826)"/><path d="m0 0-1.081 21.605C6.94 23.954 23.151 2.16 34.028 2.16c.424 0 25.206 23.942 30.247 27.548C69.382 33.359 77.243 9.374 84.801-.537c1.48 1.688-2.629 15.739-3.241 18.364 0 0 16.509-10.17 22.686-17.285 6.483-12.965 11.577-16.746 18.601-28.088 1.618-3.241 5.399-4.861 7.022-8.102 6.48-11.884 2.699-21.066 8.098-34.568v-12.423" style="fill:none;stroke:#000;stroke-width:4.321;stroke-linecap:butt;stroke-linejoin:miter;stroke-miterlimit:3.864;stroke-dasharray:none;stroke-opacity:1" transform="translate(417.654 715.833)"/><path d="M0 0c-3.781 12.421-13.504 15.12-24.307 20.521-4.32 2.16-8.1 4.862-13.504 4.862-5.938 0-7.561-7.024-8.64-12.962V3.237c2.16-7.022 1.623-12.421 6.483-17.283" style="fill:none;stroke:#000;stroke-width:4.321;stroke-linecap:butt;stroke-linejoin:miter;stroke-miterlimit:3.864;stroke-dasharray:none;stroke-opacity:1" transform="translate(487.16 666.958)"/><path d="M0 0c-8.642 2.704-12.423 7.022-21.065 7.022-5.943 0-3.242-8.64-3.242-14.583 0-13.502 1.082-20.524 5.401-34.026 2.7-9.181 7.02-12.964 11.343-20.526" style="fill:none;stroke:#000;stroke-width:4.321;stroke-linecap:butt;stroke-linejoin:miter;stroke-miterlimit:3.864;stroke-dasharray:none;stroke-opacity:1" transform="translate(423.486 681.753)"/><path d="M0 0c-4.706-.95-25.927 9.668-32.41 8.645-.678-25.738 4.917-57.004 18.903-79.401 6.128-9.809 39.185-20.53 51.311-20.521" style="fill:none;stroke:#000;stroke-width:4.321;stroke-linecap:butt;stroke-linejoin:miter;stroke-miterlimit:3.864;stroke-dasharray:none;stroke-opacity:1" transform="translate(400.618 657.537)"/><path d="M0 0c-17.326 9.784-18.359 33.17-18.366 50.768-5.505.686-5.492-1.845-9.721-2.699-3.644 16.053-5.668 32.796-5.399 49.155-9.185 6.2-11.496-1.802-17.827-5.943-16.525-10.816-13.933-25.819-24.304-36.188" style="fill:none;stroke:#000;stroke-width:4.321;stroke-linecap:butt;stroke-linejoin:miter;stroke-miterlimit:3.864;stroke-dasharray:none;stroke-opacity:1" transform="translate(597.47 661.128)"/><path d="M0 0c-8.101 3.241-14.041 4.859-22.684 4.859-9.723 0-14.043-9.179-15.666-18.903v-10.802C-30.245-14.581-30.245.542-17.285.542-10.8.542-6.48-1.618 0 0" style="fill:#fff100;fill-opacity:1;fill-rule:nonzero;stroke:none" transform="translate(515.262 633.472)"/><path d="m0 0 14.046-15.127" style="fill:none;stroke:#fff100;stroke-width:6.481;stroke-linecap:round;stroke-linejoin:miter;stroke-miterlimit:3.864;stroke-dasharray:none;stroke-opacity:1" transform="translate(560.631 600.528)"/><path d="m0 0 10.805-12.965" style="fill:none;stroke:#fff100;stroke-width:6.481;stroke-linecap:round;stroke-linejoin:miter;stroke-miterlimit:3.864;stroke-dasharray:none;stroke-opacity:1" transform="translate(551.303 593.451)"/><path d="m0 0 4.323-7.561" style="fill:none;stroke:#fff100;stroke-width:6.481;stroke-linecap:round;stroke-linejoin:miter;stroke-miterlimit:3.864;stroke-dasharray:none;stroke-opacity:1" transform="translate(541.187 585.401)"/><path d="m0 0 19.44-1.079" style="fill:none;stroke:#fff100;stroke-width:6.481;stroke-linecap:round;stroke-linejoin:miter;stroke-miterlimit:3.864;stroke-dasharray:none;stroke-opacity:1" transform="translate(591.962 646.974)"/><path d="m0 0 16.201-2.157" style="fill:none;stroke:#fff100;stroke-width:6.481;stroke-linecap:round;stroke-linejoin:miter;stroke-miterlimit:3.864;stroke-dasharray:none;stroke-opacity:1" transform="translate(589.8 638.332)"/><path d="m0 0-7.957-32.891" style="fill:none;stroke:#fff100;stroke-width:6.481;stroke-linecap:round;stroke-linejoin:miter;stroke-miterlimit:3.864;stroke-dasharray:none;stroke-opacity:1" transform="translate(549.143 529.716)"/><path d="M0 0c-1.079 1.079-1.079 3.781-3.239 3.781-12.423 0-18.366-8.103-30.789-8.103-11.881 0-17.282 8.642-29.166 10.262 5.943-2.701 9.184-4.861 14.046-7.561 3.239-1.62 7.561-2.701 7.561-6.482 0-7.022-8.103-10.263-15.122-10.263-11.886 0-18.906 1.081-30.792 4.32 5.404-3.239 9.724-4.859 16.206-4.859 5.943 0 14.586 1.62 14.586-4.321 0-4.861-4.864-7.024-7.564-10.802-8.642-12.423-16.206-18.906-23.228-32.407 3.242 5.398 6.483 8.1 10.808 11.881 10.8 9.721 14.58 18.364 25.383 28.087 0-2.702-1.082-4.322-1.082-7.024 0-4.86 1.624-7.019 1.624-11.879 0-3.783-.542-5.943-.542-9.723 1.081 1.62 2.699 3.78 3.241 5.401v19.984c1.62 9.721 7.561 12.962 17.282 18.364l-1.618-27.548c3.239 10.805.54 18.905 6.482 27.548C-19.979-2.702-8.64-5.404 0 0" style="fill:#fff100;fill-opacity:1;fill-rule:nonzero;stroke:none" transform="translate(577.844 438.868)"/><path d="M0 0c-1.079 1.079-1.079 3.781-3.239 3.781-12.423 0-18.366-8.103-30.789-8.103-11.881 0-17.282 8.642-29.166 10.262 5.943-2.701 9.184-4.861 14.046-7.561 3.239-1.62 7.561-2.701 7.561-6.482 0-7.022-8.103-10.263-15.122-10.263-11.886 0-18.906 1.081-30.792 4.32 5.404-3.239 9.724-4.859 16.206-4.859 5.943 0 14.586 1.62 14.586-4.321 0-4.861-4.864-7.024-7.564-10.802-8.642-12.423-16.206-18.906-23.228-32.407 3.242 5.398 6.483 8.1 10.808 11.881 10.8 9.721 14.58 18.364 25.383 28.087 0-2.702-1.082-4.322-1.082-7.024 0-4.86 1.624-7.019 1.624-11.879 0-3.783-.542-5.943-.542-9.723 1.081 1.62 2.699 3.78 3.241 5.401v19.984c1.62 9.721 7.561 12.962 17.282 18.364l-1.618-27.548c3.239 10.805.54 18.905 6.482 27.548C-19.979-2.702-8.64-5.404 0 0" style="fill:none;stroke:#000;stroke-width:1.08;stroke-linecap:round;stroke-linejoin:round;stroke-miterlimit:3.864;stroke-dasharray:none;stroke-opacity:1" transform="translate(577.844 438.868)"/><path d="M0 0c0 10.802.537 16.204-1.618 27.006L2.16 11.884V-7.562c1.081 0 1.619-1.081 2.7-1.081 6.482 0 6.482 8.106 10.263 12.966 5.401 7.021 10.262 10.8 14.583 18.363 3.78 6.482 1.081 12.423 2.701 19.984V30.249c8.641 2.697 10.264 10.261 17.283 15.123 11.884 8.098 19.445 12.96 28.627 24.844-5.941-7.022-8.101-12.96-14.583-19.985-8.643-9.721-17.825-12.42-24.844-24.846 4.317-.539 7.019 0 11.342 0 14.583 0 22.686 5.941 37.269 5.941h-6.483c-3.78 0-5.942-2.158-9.184-3.781-10.802-5.401-18.363-8.642-30.786-6.482-6.483 1.081-11.186-6.904-13.349-12.845C24.46.115 22.144-3.781 15.123-8.103c2.16-.54 2.699-1.076 4.861-1.076 10.261 0 15.665 1.617 25.925 5.398h21.605c-16.743-5.398-25.383-4.322-42.129-8.642-12.964-3.241-24.303-5.943-27.003-18.906-1.084-6.477-2.704-10.26-6.485-15.122-1.62-2.158-5.94-4.859-8.101-3.239-2.699 1.619.537 7.02 2.161 10.261C-5.401-25.385 0-16.204 0 0" style="fill:#fff100;fill-opacity:1;fill-rule:evenodd;stroke:none" transform="translate(624.274 496.8)"/><path d="M0 0c0 10.802.537 16.204-1.618 27.006L2.16 11.884V-7.562c1.081 0 1.619-1.081 2.7-1.081 6.482 0 6.482 8.106 10.263 12.966 5.401 7.021 10.262 10.8 14.583 18.363 3.78 6.482 1.081 12.423 2.701 19.984V30.249c8.641 2.697 10.264 10.261 17.283 15.123 11.884 8.098 19.445 12.96 28.627 24.844-5.941-7.022-8.101-12.96-14.583-19.985-8.643-9.721-17.825-12.42-24.844-24.846 4.317-.539 7.019 0 11.342 0 14.583 0 22.686 5.941 37.269 5.941h-6.483c-3.78 0-5.942-2.158-9.184-3.781-10.802-5.401-18.363-8.642-30.786-6.482-6.483 1.081-11.186-6.904-13.349-12.845C24.46.115 22.144-3.781 15.123-8.103c2.16-.54 2.699-1.076 4.861-1.076 10.261 0 15.665 1.617 25.925 5.398h21.605c-16.743-5.398-25.383-4.322-42.129-8.642-12.964-3.241-24.303-5.943-27.003-18.906-1.084-6.477-2.704-10.26-6.485-15.122-1.62-2.158-5.94-4.859-8.101-3.239-2.699 1.619.537 7.02 2.161 10.261C-5.401-25.385 0-16.204 0 0" style="fill:none;stroke:#000;stroke-width:1.08;stroke-linecap:round;stroke-linejoin:round;stroke-miterlimit:3.864;stroke-dasharray:none;stroke-opacity:1" transform="translate(624.274 496.8)"/><path d="M0 0c1.618-1.082 3.779-1.618 5.941-1.618 11.881 0 18.903 2.699 30.784 3.241 14.585 1.079 26.469 3.78 32.947 16.743 1.081 2.16 3.241 4.859 2.162 7.019-2.162 3.783-7.022-2.697-10.802-4.322-7.561-3.778-11.881-5.397-19.445-9.719C27.004 3.241 16.741 0 0 0" style="fill:#000;fill-opacity:1;fill-rule:nonzero;stroke:none" transform="translate(444.29 474.241)"/><path d="M0 0c1.618-1.082 3.779-1.618 5.941-1.618 11.881 0 18.903 2.699 30.784 3.241 14.585 1.079 26.469 3.78 32.947 16.743 1.081 2.16 3.241 4.859 2.162 7.019-2.162 3.783-7.022-2.697-10.802-4.322-7.561-3.778-11.881-5.397-19.445-9.719C27.004 3.241 16.741 0 0 0" style="fill:none;stroke:#000;stroke-width:1.08;stroke-linecap:round;stroke-linejoin:round;stroke-miterlimit:3.864;stroke-dasharray:none;stroke-opacity:1" transform="translate(444.29 474.241)"/></g></svg>