<?xml version="1.0" encoding="UTF-8"?>
<svg id="Layer_2" data-name="Layer 2" xmlns="http://www.w3.org/2000/svg" viewBox="0 0 251.26 425.97">
  <defs>
    <style>
      .cls-1 {
        fill: #000;
      }

      .cls-1, .cls-2, .cls-3 {
        stroke-width: 0px;
      }

      .cls-2 {
        fill: #008b00;
      }

      .cls-3 {
        fill: #fff;
      }
    </style>
  </defs>
  <g id="Layer_1-2" data-name="Layer 1">
    <g>
      <path class="cls-1" d="M142.8,132.34c-9.68,0-18.48-7.48-18.48-13.64,0-1.83,2.48-4.24,4.87-6.14-22.53,1.14-43.65,8.49-59.06,23.88,2.93,1.25,6.67,3.93,6.67,9.54,0,10.56-24.2,12.32-24.2,61.16,0,17.16,5.72,36.08,5.72,58.08,0,28.6-14.08,43.12-14.08,43.12,0,0,17.16-17.16,39.16-17.16,31.68,0,38.28,18.92,81.84,18.92,29.04,0,40.48-11.88,40.48-11.88l-21.56-57.2s-11,8.36-27.28,8.36-27.28-11.88-27.28-25.96c0-16.72,13.64-32.56,29.04-32.56,45.76,0,36.96,57.64,52.36,66.44,0,0,1.32-124.96-68.2-124.96Z"/>
      <path class="cls-1" d="M203.04,154.82s24.61-31.83,48.23-31.83v-10.61c-26.04,0-48.23,42.44-48.23,42.44Z"/>
      <path class="cls-2" d="M251.26,112.38s-33.76-68.48-123.94-68.48S0,122.03,0,185.69c0,33.28,24.11,79.57,24.11,96.45,0,23.63-24.11,37.62-24.11,37.62,0,0,47.74-2.89,47.74-61.73,0-24.6-2.41-31.83-2.41-51.12,0-68.48,42.92-94.53,90.19-94.53s67.52,42.44,67.52,42.44c0,0,22.18-42.44,48.23-42.44Z"/>
      <path class="cls-3" d="M204.91,77.22c-19.37,15.96-22.47,31.44-22.47,31.44-9.14-5.66-20.15-10.25-33.19-12.18,0,0,2.35-14.81,10.18-38.68-9.71-2.1-20.37-3.34-32.1-3.34-4.6,0-9.02.28-13.34.72,0,30.9,2.08,41.72,2.08,41.72-12.17,1.81-24.13,5.4-35.11,11.08,0,0-11.93-24.92-16.23-35.75-14.29,9.45-25.67,22.09-34.2,36.59,13.13,7.8,23.85,19.65,23.85,19.65-7.73,8.67-14.12,19.25-18.63,31.95,0,0-7.03-2.34-22.29-5.21-1.78,9.42-2.73,18.99-2.85,28.47h19.46c-1.06,7.22-1.62,14.96-1.62,23.23,0,16.63,8.52,47.17,8.74,51.12,0-12.61-.65-20.43-1.28-28-.58-7.01-1.13-13.63-1.13-23.12,0-77.48,52.04-105.09,100.75-105.09,31.01,0,51.65,15.7,63.71,29.25,7.1-7.1,22.87-23.78,32.57-28.92-5.97-7.46-14.77-16.62-26.89-24.92Z"/>
      <path class="cls-3" d="M120.36,223.42c0,20.07,15.7,35.2,36.52,35.2l4.06-.15c-.73.03-1.39-.54-1.42-1.27-.03-.73.5-1.34,1.22-1.36l-3.87.14c-19.32,0-33.88-14-33.88-32.56l.03-1.44c-.02.73-.62,1.29-1.35,1.27-.73-.02-1.31-.64-1.29-1.37l-.03,1.53Z"/>
      <path class="cls-3" d="M119.04,136.14v2.43h21.02c37.9,0,53.06,41.17,53.06,41.17,0,0-14.28-43.6-51.08-43.6h-23.01Z"/>
      <path class="cls-3" d="M181.55,251.78s3.17,13.83,6.28,22.9c3.11,9.07,10.43,20.41,10.43,20.41-6.58-20.72-10.29-28.82-16.72-43.3Z"/>
      <g>
        <path class="cls-2" d="M36.32,321.32s-11.78,10.91-11.78,23.65c0,10.55,7.64,16.08,7.64,28.41,0,10.13-3.73,13.3-3.73,13.3h-8.88s4.97-8.18,4.97-14.24c0-10.34-7.76-14.21-7.76-25.48,0-15.36,10.19-25.63,10.19-25.63h9.36Z"/>
        <path class="cls-2" d="M40.41,321.32v65.36h6.65v-11.02s16.52-9.94,16.52-25.09c0-22.02-23.18-29.25-23.18-29.25ZM47.06,367.16v-33.41s9.26,6.22,9.26,16.81c0,9.01-9.26,16.59-9.26,16.59Z"/>
        <path class="cls-2" d="M81.49,321.32c-8.59,0-11,9.14-11,10.64v35.2h-10.16l4.5,7.11h5.66v12.41h6.65v-12.41h8.7v12.41h6.65v-54.71c0-1.5-2.41-10.64-11-10.64ZM77.14,367.16v-31.5c0-.62,1.22-3.7,4.35-3.7s4.35,3.08,4.35,3.7v31.5h-8.7Z"/>
        <path class="cls-2" d="M122.6,367.33v-.17h-1.27c3.59-4.25,6.8-9.91,6.8-16.59,0-22.02-23.18-29.25-23.18-29.25v45.84h-10.57l4.5,7.11h6.07v12.41h6.65v-11.02s.8-.48,2.04-1.39h5.96c1,0,1.87,3.99,1.87,4.83v7.58h6.65v-12.97c0-1.33-2.44-5.51-5.53-6.38ZM111.6,367.16v-33.41s9.27,6.22,9.27,16.81c0,9.01-9.27,16.59-9.27,16.59Z"/>
        <polygon class="cls-2" points="151.18 321.32 143.31 321.32 136.66 321.32 128.78 321.32 128.78 331.96 136.66 331.96 136.66 386.68 143.31 386.68 143.31 331.96 151.18 331.96 151.18 321.32"/>
        <path class="cls-2" d="M168.9,321.32c-8.59,0-11,9.14-11,10.64v35.2h-10.16l4.5,7.11h5.66v12.41h6.65v-12.41h8.7v12.41h6.65v-54.71c0-1.5-2.41-10.64-11-10.64ZM164.55,367.16v-31.5c0-.62,1.22-3.7,4.35-3.7s4.35,3.08,4.35,3.7v31.5h-8.7Z"/>
        <polygon class="cls-2" points="204.88 321.32 204.88 347.39 189.71 321.32 189.71 386.68 196.37 386.68 196.37 347.09 204.88 361.73 204.88 386.68 211.54 386.68 211.54 321.32 204.88 321.32"/>
        <path class="cls-2" d="M237.06,321.32s-11.78,10.91-11.78,23.65c0,10.55,7.64,16.08,7.64,28.41,0,10.13-3.73,13.3-3.73,13.3h-8.88s4.97-8.18,4.97-14.24c0-10.34-7.76-14.21-7.76-25.48,0-15.36,10.19-25.63,10.19-25.63h9.36Z"/>
      </g>
      <g>
        <path class="cls-1" d="M99.88,425.6v-.62c.28-.07.48-.16.61-.28.13-.12.2-.28.2-.48,0-.09-.02-.21-.06-.36-.04-.14-.11-.34-.21-.6l-.89-2.37h-10.29l-.91,2.37c-.05.14-.1.26-.12.38-.03.12-.04.23-.04.34,0,.26.07.47.22.63.14.16.37.28.67.37v.62h-7.55v-.62c.74-.38,1.36-1.27,1.86-2.68.06-.15.1-.26.12-.32l5.84-15.99c.11-.32.2-.59.27-.83.07-.23.1-.4.1-.5,0-.22-.05-.38-.14-.49-.1-.1-.26-.17-.5-.2v-.58h11.03v.58c-.23.03-.4.09-.49.2-.1.1-.14.27-.14.49,0,.08.04.25.11.5.08.25.17.52.28.83l7.05,17.79s0,.03.02.06c.23.59.59.97,1.07,1.14v.62h-8.11ZM90.58,417.18h7.42l-3.84-9.77-3.59,9.77Z"/>
        <path class="cls-1" d="M114.7,425.6v-.62c.45-.1.74-.22.87-.37.13-.15.2-.43.2-.84v-18.55c0-.41-.07-.69-.2-.85-.13-.15-.42-.28-.87-.39v-.58h20.54c.4,0,.68-.07.84-.21.16-.14.29-.44.4-.9h.58v7.42h-.58c-.12-.46-.27-.76-.43-.88-.16-.13-.43-.19-.82-.19h-13.2v3.75h8.63c.41,0,.7-.07.86-.22.16-.14.3-.43.41-.85h.58v6.93l-.6-.02c-.1-.41-.23-.69-.39-.83s-.45-.22-.86-.22h-8.63v6.58c0,.38.07.65.21.81.14.16.44.29.9.4v.62h-8.46Z"/>
        <path class="cls-1" d="M165.05,411.35c.03-.05.05-.11.07-.18.02-.07.03-.13.03-.18,0-.6-.7-1.17-2.1-1.7-1.4-.53-2.95-.8-4.64-.8-2.37,0-4.28.54-5.71,1.63-1.43,1.08-2.14,2.52-2.14,4.3s.68,3.19,2.04,4.23c1.36,1.04,3.22,1.55,5.58,1.55,1.36,0,2.52-.12,3.47-.36.95-.24,1.94-.64,2.95-1.21.28-.15.45-.28.54-.39.08-.11.12-.25.12-.41,0-.08-.01-.18-.03-.29-.02-.11-.04-.23-.07-.35l.5-.29,4.24,6.89-.57.25c-.19-.18-.35-.31-.48-.4-.13-.09-.24-.13-.32-.13-.12,0-.45.12-.99.37-2.93,1.4-6.02,2.1-9.28,2.1-4.37,0-7.84-1.04-10.41-3.13-2.57-2.09-3.86-4.87-3.86-8.35s1.26-6.14,3.77-8.26c2.51-2.12,5.83-3.19,9.95-3.19,2.17,0,4.34.32,6.5.96,2.16.64,3.26.96,3.29.96.19-.01.36-.07.52-.17.15-.1.33-.27.54-.52l.51.21-3.5,7.1-.54-.23Z"/>
      </g>
      <g>
        <path class="cls-1" d="M33.77,60.62l-.4-.7c.45-.41.7-.75.75-1.02.05-.27-.07-.65-.35-1.15l-12.67-22.1c-.28-.49-.55-.79-.81-.88-.26-.09-.68-.06-1.27.11l-.4-.7,18.89-10.83c3.03-1.74,5.73-2.49,8.08-2.26,2.35.23,4.15,1.42,5.38,3.57.75,1.31,1.04,2.64.86,3.98-.18,1.34-.83,2.8-1.96,4.36,2.04-.34,3.79-.24,5.26.3,1.46.54,2.6,1.53,3.42,2.96,1.45,2.53,1.62,4.96.51,7.3-1.11,2.34-3.46,4.55-7.07,6.61l-18.22,10.44ZM38.07,30.21l-7.65,4.38,2.67,4.66,8.27-4.74c1.41-.81,2.35-1.61,2.84-2.41.48-.8.5-1.59.05-2.37-.49-.85-1.18-1.25-2.09-1.19-.9.06-2.26.61-4.08,1.66ZM43.45,39.94l-7.5,4.3,3.41,5.94,7.31-4.19c2.35-1.34,3.82-2.48,4.42-3.39.6-.92.59-1.92-.03-3-.61-1.06-1.51-1.57-2.7-1.52-1.19.05-2.82.67-4.89,1.85Z"/>
        <path class="cls-1" d="M101.46,25.35c.51-.13.85-.31,1.02-.53.17-.23.25-.65.25-1.27l.78-.2,2.44,9.78-.78.2c-.29-.55-.56-.89-.81-1.01-.25-.12-.63-.12-1.17.01l-27.95,6.98-.2-.78c.55-.27.89-.53,1.02-.78.12-.24.12-.64-.02-1.19l-6.18-24.73c-.14-.55-.32-.9-.54-1.06-.22-.16-.65-.24-1.27-.24l-.2-.78,11.18-2.79.2.78c-.56.3-.91.57-1.04.83-.13.26-.13.65,0,1.18l5.04,20.17,18.22-4.55Z"/>
        <path class="cls-1" d="M132.63,3.31c.26-.38.46-.73.62-1.05.16-.31.23-.55.23-.7,0-.19-.08-.34-.24-.46-.15-.12-.35-.18-.6-.18-.04,0-.09.01-.17.03-.07.02-.13.03-.17.03V.2s10.97-.2,10.97-.2v.78c-.56.43-1.11,1.01-1.63,1.76-.11.15-.19.27-.25.35l-9.89,14.68.19,10.64c.01.57.11.95.29,1.16.18.2.58.37,1.18.49l.02.83-11.55.21-.02-.83c.58-.14.97-.32,1.15-.53.18-.21.27-.6.26-1.17l-.17-9.47-10.91-15.1c-.06-.07-.15-.21-.29-.39-.85-1.16-1.64-1.83-2.36-2v-.78s12.83-.23,12.83-.23v.78s-.24,0-.24,0c-.3.02-.53.09-.68.2-.15.11-.22.27-.22.47,0,.11.05.27.15.47.1.2.32.56.67,1.08l5.51,7.7,5.31-7.79Z"/>
        <path class="cls-1" d="M177.52,13.81l-4.7,19.94c-.13.55-.13.95,0,1.19.12.24.47.5,1.02.77l-.19.78-11.26-2.66.19-.78c.64,0,1.07-.1,1.28-.28.22-.18.38-.52.5-1.02l4.7-19.95-8.86-2.09c-.52-.12-.91-.12-1.17.02s-.54.46-.82,1l-.78-.18,2.39-10.15.78.18c0,.63.09,1.07.26,1.3.17.23.52.41,1.05.54l26.2,6.18c.53.13.93.12,1.19,0,.25-.13.52-.48.79-1.05l.78.18-2.39,10.15-.78-.18c0-.6-.08-1.02-.26-1.25-.18-.23-.53-.41-1.04-.54l-8.88-2.09Z"/>
        <path class="cls-1" d="M195.65,43.33l.4-.7c.6.19,1.03.23,1.29.14.26-.09.53-.39.81-.88l12.53-22.22c.28-.49.39-.87.33-1.14-.06-.27-.32-.62-.78-1.05l.4-.7,10.07,5.68-.4.7c-.62-.18-1.07-.22-1.34-.12-.27.1-.54.38-.81.85l-4.15,7.35,13.2,7.44,4.15-7.35c.27-.48.37-.86.31-1.14-.07-.28-.33-.65-.79-1.08l.4-.7,10.07,5.68-.4.7c-.61-.17-1.04-.21-1.3-.12-.26.09-.53.38-.81.87l-12.54,22.23c-.28.5-.39.88-.33,1.15.06.27.32.61.79,1.03l-.4.7-10.06-5.68.4-.7c.61.17,1.06.21,1.34.12.28-.09.55-.37.81-.84l4.92-8.73-13.2-7.44-4.92,8.73c-.26.46-.36.84-.3,1.12.06.28.33.65.8,1.09l-.4.7-10.06-5.68Z"/>
      </g>
    </g>
  </g>
</svg>