<?xml version="1.0" encoding="UTF-8"?>
<svg id="Layer_2" data-name="Layer 2" xmlns="http://www.w3.org/2000/svg" viewBox="0 0 283.46 283.46">
  <defs>
    <style>
      .cls-1 {
        fill: #9f9e9f;
      }

      .cls-1, .cls-2, .cls-3, .cls-4, .cls-5, .cls-6 {
        stroke-width: 0px;
      }

      .cls-2 {
        fill: #d2232a;
      }

      .cls-3 {
        fill: #000;
      }

      .cls-4 {
        fill: #231f20;
      }

      .cls-5 {
        fill: #060707;
      }

      .cls-6 {
        fill: #fff;
      }
    </style>
  </defs>
  <g id="Layer_1-2" data-name="Layer 1">
    <g>
      <path class="cls-2" d="M141.38,138.7h-63.51v24.31c0,3.78.75,7.53,2.2,11.02,3.07,7.38,9.76,20.4,22.62,33.26,18.01,18.01,36.01,24.58,38.69,25.49v-94.09Z"/>
      <g>
        <path class="cls-6" d="M141,201.04l-37.78-62.41c-3.53-.57-4.65,1.48-7.98,0-4.74-.17-10.16.86-15.05-.81l.24,3.46s-.85.65-.87.68c.04,2.5-.01,4.33,0,6.83.01,2.62.39,5.05,1.66,7.16l46.31,74.36c.35-.03,1.12.28,1.47.28,8.58-.03,3,3.35,11.66,5.96-.06-1.2,1.12-21.62,1.11-22.83-.02-1.68-.96-11.13-.75-12.68Z"/>
        <g>
          <line class="cls-6" x1="121.67" y1="222.91" x2="79.56" y2="153.2"/>
          <rect class="cls-5" x="99.88" y="147.33" width="1.45" height="81.44" transform="translate(-82.74 79.11) rotate(-31.13)"/>
        </g>
        <g>
          <line class="cls-6" x1="103.22" y1="138.62" x2="142.25" y2="203.11"/>
          <rect class="cls-5" x="122.01" y="133.18" width="1.45" height="75.38" transform="translate(-70.74 88.25) rotate(-31.19)"/>
        </g>
      </g>
      <path class="cls-2" d="M141.38,138.62h64.22v-57.18c0-4.08-2.84-7.61-6.82-8.48l-52.68-12.18c-1.55-.34-3.14-.49-4.72-.46v78.3Z"/>
      <g>
        <path class="cls-6" d="M204.75,129.74l-37.64-62.31c-3.53-.57-6.89-1.87-10.21-3.34-4.74-.17-7.9-.56-12.79-2.24l-2.29,1.39s-.03.07-.05.11c.04,2.5.1,5,.12,7.49.01,2.62-.21,5.05-.73,7.36l36.63,60.63c.35-.03.69-.05,1.03-.05,8.58-.03,17.19-.51,25.79-.59-.06-1.2-.1-2.41-.12-3.61-.02-1.68.07-3.29.27-4.84Z"/>
        <g>
          <line class="cls-6" x1="177.64" y1="138.63" x2="141.51" y2="78.81"/>
          <rect class="cls-5" x="158.85" y="73.78" width="1.45" height="69.88" transform="translate(-33.23 98.17) rotate(-31.13)"/>
        </g>
        <g>
          <line class="cls-6" x1="166.78" y1="66.9" x2="203.15" y2="127.1"/>
          <rect class="cls-5" x="184.24" y="61.83" width="1.45" height="70.34" transform="translate(-23.51 109.61) rotate(-31.13)"/>
        </g>
      </g>
      <rect class="cls-3" x="140.64" y="60.32" width="2.18" height="172.59"/>
      <rect class="cls-3" x="77.86" y="137.61" width="127.74" height="2.18"/>
      <path class="cls-1" d="M141.73,237.47l-1.3-.41c-.84-.26-20.78-6.64-40.83-26.69-13.63-13.63-20.62-27.57-23.57-34.67-1.68-4.05-2.54-8.32-2.54-12.69v-81.57c0-6.08,4.31-11.44,10.25-12.74l52.64-12.17c3.52-.77,7.18-.77,10.65-.01h.05s52.68,12.19,52.68,12.19c5.89,1.29,10.2,6.65,10.2,12.73v81.57c0,4.37-.85,8.64-2.54,12.69-2.95,7.1-9.93,21.04-23.57,34.67-20.05,20.05-39.99,26.43-40.83,26.69l-1.3.41ZM141.73,64.68c-1.15,0-2.31.12-3.43.37l-52.64,12.17c-2.01.44-3.44,2.22-3.44,4.23v81.57c0,3.22.63,6.36,1.87,9.35,2.7,6.5,9.11,19.28,21.68,31.85,15.71,15.71,31.41,22.37,35.95,24.07,4.54-1.71,20.32-8.43,35.96-24.07,12.57-12.57,18.98-25.35,21.68-31.85,1.24-2.99,1.87-6.13,1.87-9.35v-81.57c0-2.01-1.43-3.79-3.39-4.22l-52.7-12.18c-1.12-.24-2.26-.37-3.41-.37Z"/>
      <g>
        <path class="cls-2" d="M167.61,177.05c-1.2-.62-2.12-1.29-2.79-1.82-1.24.39-2.55,1.21-2.93,3.1-.28,1.39.1,2.25.66,2.67.56.42,1.35.32,1.64.78.29.47.22,1.08-.17,1.84-.39.76-1.37,1.83-2.28,2.08-3.18.87-3.1-2.69-5.14-2.38-.82.13-.98.91-.98.91,0,0,.78-.15,1.13.27.34.42.1,1,.15,1.2s.15.47.73.71c.59.24-2.3-.93-3.21.98-.55,1.16.34,1.64.34,1.64,0,0,.04-.65.81-1.03,1.27-.63,2.87-.34,3.16-.17.29.17.32.39-.1.42-.42.02-1.67-.07-2.25.4-1.75,1.41.7,2.52.7,2.52,0,0-.26-1.23.54-1.35.58-.09,1.2.71,1.72.55.88-.28.72-1.46,1.77-1.27,1.09.19-.02,1.8,1.2,2.19.77.25,1.04-.29,1.11-.51,0,0-1.24.42-.16-2.06.18-.41.2-.71.2-.71,0,0,.91,1.43,2.16.61.86-.57,1.28.29,1.28.29.24-.2.12-.74.17-1.18s.22-.7.56-.93c1.01-.67,1.89.31,1.89.31.2-.32,0-1.23-.39-1.44-.96-.51-1.62.12-1.62.12,0,0-.32-1.06,1.46-1.73,0,0-1.55-.85-2.64.48-.69.85-.93,1.64-1.1,1.52s.29-2.09,2.03-3.7c2.69-2.48,3.91-.94,6.05-2.79.55-.48.77-1.12.83-1.71-1.37.21-4.02.5-6.55-.82Z"/>
        <path class="cls-2" d="M189.13,176.66c-.6-1.44,1.27-2.54.15-4.87,0,0-.14,1.23-1.07,1.24-.6.01-1.37-.88-1.81-1.72-.44-.83-.83-.5-1.43-1.23s.98-1.66.09-2.97c0,0-.18,1.07-1.14,1.09-.24,0-.62-.04-1.06-.77s-.84-1.77-.15-3.15c.52-1.05,1.36-.1,3.04-1.06,1-.57,1.31-2.12.91-2.97,0,0-1.09,1.8-1.47,1.16-.27-.46,1.37-1.28.69-2.87,0,0-.58,1.15-.87.94-.29-.21.93-1.55.38-2.56,0,0-.7,1.13-1.37.48-.49-.48.05-1.35.39-1.62.7-.55,1.57-.37,1.99-1.55.5-1.38-1.42-2.8-1.42-2.8,0,0,.24,1.35-.51,1.95-1.25.99-3.11.08-3.49,1.71-.08.34-.2,1.23,1.01,1.55,1.06.29,1.5,2.22.37,2.54-1.49.42-1.29-2.03-1.29-2.03-.16.03-1.36,1.26-.12,3.41,1.02,1.77-.49,2.79-.47,4.34.02,1.99,1.25,2.84,1.67,3.23.62.57,2.26,1.96,1.13,2.93-.7.6-1.26-.48-1.26-.48-.13.16-.22.51-.11.83.09.25.28.67,1.2.86,2.05.41,6.48,1.72,4.27,4.87-.84,1.2-3.08.56-3.6.43-.97-.23-1.29-.29-1.8-.52-1.33-.61-1.36-2.23-2.44-3.74-1.67-2.32-3.91-2.16-5.48-2.87-.93-.42-1.68-.99-2.26-1.57-.08-.05.17.39.23.56.55,1.36.08,2.52.08,2.52,0,0-1.59-.24-2.64-1.66-.43-.58-.74-.91-.94-1.38,0,.38-.13,3-1.91,3.03-.91.02-1.91-1.86-1.89-2.44,0-.08-.03-.16-.04-.24-.02.13-.05.26-.07.4-.1.68-.5,1.54-1.28,2.02-.89.55-2.52.17-2.52.17,0,0-.19-.91.76-2.65.13-.24.44-.74.76-1.17-.58.48-1.31,1.05-1.65,1.29-1.14.77-2.82-.02-3.05-.26l-.04-.04v-.05s.02-.79.54-1.39c.23-.27.49-.57.98-.97-.19.09-1.03.39-1.69.26-.85-.17-1.31-.71-1.33-.74l-.04-.04v-.05s-.11-.95,1.47-1.72c.43-.21.91-.35,1.22-.39-.77-.45-.51-1.39-.37-1.84l.02-.06h0c-.19-.01-.35-.01-.44-.01-.34,0-1.02-.03-1.3-.31s.07-.89.18-1.41c.65-3.04-1.13-2.91-1.13-2.91.54.86-.38,1.61-.56,1.71-.18.1-.6-.47-.6-.47,0,0-.71-.96-1.4-1.32-1.34-.71-2.3.13-1.97.17.47.05,1.13.9,1.32,1.24.37.65.38,1.17.38,1.17,0,0-1.26-.63-2.22-.05-1.09.66-.5,1.8-.5,1.8,0,0-.15-.43.34-.6.29-.1.63.37.89.81.26.44.63.73.94.76.31.03.6-.13.68.13.08.26-.47.33-.76.6-.68.64-.86,1.5-.4,2.17.55.79,1.32.56,1.45.46,0,0-.27-.11-.31-.62-.05-.54.38-1.29,1.24-1.39.94-.1,1.49,1.02,1.49,1.02,0,0-.91.94-.44,1.07,1.54.43,1.58,2.04,1.84,2.71.22.58.54.71,1.43.89-.01.02.08-.02.07,0-.08.13-.42.53-1.1.55-.37.01-.52-.03-1.09.29-.58.32-1.07,1.04-1.23.96-.16-.08-.01-.6-.03-.86,0-.13-.05-.75-.69-1.25-.88-.69-2.58-.49-2.74-.21,0,0,1.66.74.5,1.52-.31.21-.52-.64-1.69-.44-1.97.32-1.08,2.25-1.03,2.15.05-.1.44-.63.91-.65.48-.02.59.25.8.5.45.53.13,1.42-.39,1.93-1.03.99-.66,1.67-.09,1.98.44.23,1.02.19,1.02.19-.52-.75-.15-1.12.1-1.25.37-.2.84-.08,1.05,0,.21.08.63.05.76-.21.13-.26.42-.57.86-.6.44-.03-.02.67.6,1.42.29.34.69.57,1.05.33,0,0-.61-.6-.14-1.61.19-.42.6-.61.92-.66,1.55-.22,2.09,1.82,2.09,1.82.35-.15.77-.82.85-1.69.05-.49.19-.62.42-.68.35-.08.42.21.68.47.26.26.83.64,1.4.26.32-.21.51-.79.62-1.4.41,1,1.37,2.28,4.76,4.17,2.88,1.61,6.54.89,7.17.73.63-.16.7-.42,1.28.91.57,1.33-1.2,2.61-1.8,3.91-.3.66-.35,1.58-.05,2.42,1.28,3.63,5.18,1.33,5.84.99s1.28-.18,2.03,1.64c.38.92.34,1.64-.25,2.26-.44.47-1.62.88-3.45.47-.52-.11-1.08.07-1.44.51-.52.64-.1,1.08-.1,1.08,0,0,.1-.37.74-.41.39-.03.31.36.9.59.4.16-.78.64-1.26,1.46-.26.45-.41,1.34-.1,1.54,0,0,.34-.91,1.56-.92.99.02.78.92,1.97.51,0,0-.65-.41-.62-.96.02-.37.48-.77,1.06-.69.58.08.86.78,1.1,1.36s.78.87,1.51.45c.2-.12-.58-.02-.65-.74-.03-.27.08-.42.23-.55.16-.13.31-.5.31-.89s-.09-1.1-.16-1.56c-.15-1,1.07-1.12,1.04-.68-.03.44.62.65,1.1.51.39-.11,1.08-.61.92-1.11,0,0-.76.08-1.27-.27-.3-.21-.84-.84-1.05-1.41-.18-.49-.1-1.3.17-1.37.26-.08-.01.71.66,1.24.73.57,1.34.06,1.41,0,0,0-.65-.26-.89-.93-.05-.15-.23-.77.26-1.6.06-.09-.8.17-.83-.97-.02-.57.31-1.23.31-1.23-1.45-.07-.93,1.8-1.31,2.12-.56.46-1.64-1.14-.89-2.32.26-.4,1.09-1.06.46-2.18,0,0-1.87,1.48-2.69-.33-.19-.43-.22-1.22.24-1.64.53-.49,1.61-.4,2.09-.01,1.08.86,1.17,1.39,2.71,1.31.84-.04,1.17-.92,1.51-1.47.34-.55.74-.34,1.07-.29,1.06.19,1.42-.16,1.71-.55,0,0-.83-.04-1.19-.91Z"/>
        <path class="cls-2" d="M173.7,159.51s.92-.59,1.39-.88c2.16-1.3,1.72-3.14,1.49-3.47.09.08-.34.38-.8.57-.45.18-.89.25-1.04-.21-.1-.32.41-.87.13-1.11,0,0-.45.4-.81.04-.33-.33-.01-.68.11-.84s.65-.61.94-1.18.13-1.84-.45-2.06c0,0-.33,1.32-1.2,1.41-.42.05-.81-.18-1.07-.42-.26-.23-.43-.71-.47-.91-.15-.74.19-2.02.19-2.02-.29-.29-.87,0-1.26.48-.19.25-.37.69-.63.81-.39.18-.68-.49-.68-.49-.23-.05-.41.33-.54.62s-.59.59-.88.56c-.68-.05-.42-1.14-.44-1.2,0,0-.59.31-1.12,1.03-.08.1-.2.06-.45.13-1.07.29-1.52,1.28-1.64,1.93-.99,0-2.29.06-2.92.31-1.11.44-.6,1.23-.6,1.23,0,0-1.62.36-2.22,1.11-.6.75.07,1.24.07,1.24l.58.31s.1.54.47.77c.36.23.75.05.75.05,0,0,.3.6.99.54-.09-.08-.27-.34-.3-.53-.05-.34.03-.71.03-.71,0,0,.18-.63.85-.61.67.02,1.54,1.03,1.24,1.87-.12.32-.82,1.52-2.52,1.72-.87.11-1.2.16-1.09.73.12.57.59.79,1.19.76.61-.03.97-.27.97-.27,0,0,.13.47-.16,1.14-.07.16-.15.3-.23.44,0,0,0,0,0,0-.05.09-.1.21-.14.3-.07,0-.15-.03-.22-.08-.09-.06-.15-.13-.22-.21-.13-.14-.28-.23-.6-.3-.74-.19-1.35.16-1.57.26-.11.51-.07,1.22.41,1.62.2.17.46.23.46.23l-.52.02s-.76.08-1.42.41c-1,.49-1.05,1.05-1.08,1.24.15.22.4.4,1.04.49.48.07.96,0,1.23-.09.55-.18,1.93-.81,1.93-.81,0,0-1.67,1.56-2.11,2.06-.38.44-.43,1.02-.45,1.2.28.2,1.4.73,2.36.08.61-.41,2.29-1.69,2.31-1.7l.96-.8-.77.98s-.91,1.53-1.17,1.99c-.65,1.14-.55,1.99-.56,2.08.45.14,1.38-.04,1.72-.23.61-.35.97-.95,1.13-1.61.15-.65.29-1.18.3-1.21l.27-.94v.98s.21,2.41,1.72,2.84c1.84-.14,1.54-4.44,1.54-4.44l.3,1.11s.31,1.01,1.16,1.98c.79.9,1.68.99,2.01,1.05.08-.28.28-.76,0-1.52-.12-.34-.67-1.23-.97-1.55.01,0,1.11.75,1.97,1.12.81.35,1.78.15,1.89.02.19-.21,0-.89-.84-1.74-.71-.7-1.36-1.4-1.37-1.41l-.69-.72.85.52s.37.21.9.53c.89.55,1.71.35,2.02.25.26-.09.42-.2.48-.27-.16-.28-.82-1.39-1.69-1.85-.58-.31-.98-.45-.99-.45l-.95-.33s2.25.67,3.24-.23c.18-.16.23-.35.25-.44-.21-.14-.95-.54-1.87-.78-.33-.09-.89-.25-1.1-.27.42.04.74-.06,1.07-.15.91-.32,1.34-.97,1.28-1.17,0,0-1.26.15-1.53-.27-.26-.41.12-.64.12-.64ZM162.08,154.67c.23-.52.15-.93-.23-1.05.55-.48,1.89-.43,1.89-.43,0,0-.79.44-1.67,1.48ZM169.96,152.98c0,.07-.02.13-.03.19-.01.06-.03.12-.05.18-.02.06-.04.11-.06.17l-.05.1s-.02.04-.03.06v.02s-.05.06-.07.09l-.02.03s-.03.04-.05.06l-.14.14s-.04.03-.07.05l-.13.07s-.08.04-.12.04l-.81.19.74-.4s.03-.02.03-.02c.01,0,.02-.02.03-.02l.05-.04s.01-.02.02-.03c0,0,.02-.02.02-.02l.09-.14s.02-.03.02-.04v-.03s.03-.04.04-.06v-.03s.02-.03.03-.04l.02-.08s.02-.1.03-.15c0-.05.02-.1.02-.16,0,0,0-.01,0-.02-.03-.01-.05-.03-.08-.04-.07-.03-.13-.06-.2-.09h-.03c-.06-.03-.12-.06-.18-.07-.07-.02-.14-.04-.21-.06-.07-.02-.15-.03-.22-.04-.07-.01-.14-.02-.21-.03h-.11s-.04,0-.06,0h-.05s-.1,0-.15,0h-.08s-.03.01-.05.01h-.05s-.02.01-.04.01c-.02,0-.04,0-.05.01l-.11.03s-.03.01-.05.02l-.04.02s-.06.02-.08.04l-.04.02s-.03.02-.05.03c-.06.04-.11.08-.16.12-.02.02-.04.04-.06.05l-.02.02s-.05.05-.07.07c-.05.06-.1.11-.14.17-.09.13-.16.25-.21.37l-.17.38.82.51c.06.04.13.09.19.13.06.05.11.1.17.15.05.05.11.11.15.17.04.04.07.09.1.14l.06.08c.03.05.07.11.09.17l.02.03s.02.05.03.07l.04.11c.02.05.03.11.05.17v.07s.02.06.02.09c0,.06.01.11.01.17v.05c0,.07,0,.13-.02.21l-.02.11s-.02.06-.02.09l-.07.25s-.03.1-.05.15l-.02.07c-.02.08-.05.16-.08.23l-.03.06c-.02.05-.04.11-.07.16-.03.07-.07.15-.12.22-.02.03-.04.07-.07.11-.02.03-.03.04-.04.06-.02.03-.03.04-.06.07l-.52.54.13-.72s.01-.08.02-.12c-.01.02-.03.03-.04.05-.03.04-.07.08-.1.11l-.08.07s-.08.06-.12.09l-.16.1-.15.08s-.07.04-.11.06l-.1.05s-.08.04-.12.06l-.16.07s-.08.03-.12.05l-.04.02c-.06.02-.11.04-.17.06-.11.04-.22.07-.34.09l-.06-.19c.1-.04.21-.09.31-.14.05-.02.1-.05.15-.07l.07-.04s.05-.03.08-.04l.15-.08s.05-.03.08-.05l.07-.04.05-.03s.06-.03.08-.05l.27-.19s.05-.04.07-.06l.06-.06s.05-.05.06-.08c.03-.04.05-.08.08-.12.02-.04.04-.08.05-.12.02-.04.03-.08.03-.13,0-.04.01-.09.01-.13,0-.04,0-.09,0-.11l-.15-.8.54.6s.03.04.05.06c.01.02.03.04.04.06.03.04.06.08.08.12l.02.04.04-.1s.03-.08.05-.13l.08-.26s.01-.04.02-.06l.02-.1s.02-.09.02-.14v-.06s0-.08,0-.12c0-.03,0-.05,0-.08v-.08s-.02-.06-.03-.09l-.03-.1s-.01-.04-.02-.06v-.03s-.04-.08-.06-.12c-.01-.02-.02-.04-.03-.07l-.02-.04s-.04-.08-.07-.12c-.03-.05-.06-.09-.09-.13l-.03-.05c-.09-.12-.18-.22-.27-.3l-.7-.66-.08.17.05-.61c.01-.15.05-.31.12-.47.03-.07.07-.15.11-.22.02-.03.04-.07.07-.11.04-.05.06-.08.08-.1l.02-.03s.04-.04.06-.07l.1-.08s.05-.04.08-.06l.03-.02s.08-.05.12-.08l.04-.02s.06-.03.09-.04l.12-.05s.06-.02.1-.03l.08-.02s.06-.01.1-.02h.07c.06-.02.12-.03.19-.03h.05s.06,0,.08,0h.13c.09,0,.18.02.27.03.09.01.18.03.27.06.08.02.17.05.25.08.08.03.17.06.25.1.08.04.16.07.23.12.08.04.15.09.23.14l.11.08-.02.12Z"/>
      </g>
      <path class="cls-3" d="M167.29,198.54c-.14.74-.11.81.46,1.1-.07.39-.01.46.42.56-.01-.06-.02-.1-.03-.15-.31-1.23-.63-2.46-.93-3.69-.02-.1-.06-.15-.15-.18-.11-.04-.21-.09-.31-.15-.1-.07-.09-.14.02-.19.04-.02.07-.03.11-.04.04-.01.07-.03.13-.05-.02-.29-.05-.57-.07-.86,0-.04-.04-.08-.07-.12-.2-.28-.41-.56-.61-.84-.14-.21-.13-.4.04-.59.23-.25.53-.37.84-.45,1-.26,2-.26,2.99.08.2.07.39.18.56.32.28.23.28.55,0,.76-.22.16-.37.37-.48.61-.15.32-.27.66-.4.98.03.03.05.05.06.06.24.23.23.3-.04.47-.04.02-.07.07-.09.12-.37,1.31-.73,2.63-1.1,3.94.28.01.39-.15.39-.57.13-.06.27-.12.4-.18.08-.04.15-.09.21-.14.17-.14.2-.31.1-.52-.03-.06-.07-.12-.11-.18.17-.1.33-.19.49-.3.09-.06.17-.13.24-.21.13-.15.14-.29.03-.46-.08-.13-.17-.24-.28-.39.08-.02.14-.04.19-.06.07-.03.14-.05.21-.08.45-.21.54-.48.31-.95-.03-.05-.05-.11-.08-.16h3.26s.01.03.02.04c-1.85,2.03-3.7,4.06-5.57,6.11-1.81-2.03-3.61-4.05-5.43-6.09h3.25c-.04.1-.07.17-.1.24-.11.3-.05.55.19.73.17.13.36.22.55.33-.06.07-.13.15-.2.24-.24.33-.19.56.15.74.14.08.29.13.43.2Z"/>
      <path class="cls-3" d="M148.72,150.98c-.14.74-.11.81.46,1.1-.07.39-.01.46.42.56-.01-.06-.02-.1-.03-.15-.31-1.23-.63-2.46-.93-3.69-.02-.1-.06-.15-.15-.18-.11-.04-.21-.09-.31-.15-.1-.07-.09-.14.02-.19.04-.02.07-.03.11-.04.04-.01.07-.03.13-.05-.02-.29-.05-.57-.07-.86,0-.04-.04-.08-.07-.12-.2-.28-.41-.56-.61-.84-.14-.21-.13-.4.04-.59.23-.25.53-.37.84-.45,1-.26,2-.26,2.99.08.2.07.39.18.56.32.28.23.28.55,0,.76-.22.16-.37.37-.48.61-.15.32-.27.66-.4.98.03.03.05.05.06.06.24.23.23.3-.04.47-.04.02-.07.07-.09.12-.37,1.31-.73,2.63-1.1,3.94.28.01.39-.15.39-.57.13-.06.27-.12.4-.18.08-.04.15-.09.21-.14.17-.14.2-.31.1-.52-.03-.06-.07-.12-.11-.18.17-.1.33-.19.49-.3.09-.06.17-.13.24-.21.13-.15.14-.29.03-.46-.08-.13-.17-.24-.28-.39.08-.02.14-.04.19-.06.07-.03.14-.05.21-.08.45-.21.54-.48.31-.95-.03-.05-.05-.11-.08-.16h3.26s.01.03.02.04c-1.85,2.03-3.7,4.06-5.57,6.11-1.81-2.03-3.61-4.05-5.43-6.09h3.25c-.04.1-.07.17-.1.24-.11.3-.05.55.19.73.17.13.36.22.55.33-.06.07-.13.15-.2.24-.24.33-.19.56.15.74.14.08.29.13.43.2Z"/>
      <path class="cls-3" d="M188.81,146.82c-.14.74-.11.81.46,1.1-.07.39-.01.46.42.56-.01-.06-.02-.1-.03-.15-.31-1.23-.63-2.46-.93-3.69-.02-.1-.06-.15-.15-.18-.11-.04-.21-.09-.31-.15-.1-.07-.09-.14.02-.19.04-.02.07-.03.11-.04.04-.01.07-.03.13-.05-.02-.29-.05-.57-.07-.86,0-.04-.04-.08-.07-.12-.2-.28-.41-.56-.61-.84-.14-.21-.13-.4.04-.59.23-.25.53-.37.84-.45,1-.26,2-.26,2.99.08.2.07.39.18.56.32.28.23.28.55,0,.76-.22.16-.37.37-.48.61-.15.32-.27.66-.4.98.03.03.05.05.06.06.24.23.23.3-.04.47-.04.02-.07.07-.09.12-.37,1.31-.73,2.63-1.1,3.94.28.01.39-.15.39-.57.13-.06.27-.12.4-.18.08-.04.15-.09.21-.14.17-.14.2-.31.1-.52-.03-.06-.07-.12-.11-.18.17-.1.33-.19.49-.3.09-.06.17-.13.24-.21.13-.15.14-.29.03-.46-.08-.13-.17-.24-.28-.39.08-.02.14-.04.19-.06.07-.03.14-.05.21-.08.45-.21.54-.48.31-.95-.03-.05-.05-.11-.08-.16h3.26s.01.03.02.04c-1.85,2.03-3.7,4.06-5.57,6.11-1.81-2.03-3.61-4.05-5.43-6.09h3.25c-.04.1-.07.17-.1.24-.11.3-.05.55.19.73.17.13.36.22.55.33-.06.07-.13.15-.2.24-.24.33-.19.56.15.74.14.08.29.13.43.2Z"/>
      <path class="cls-3" d="M108.82,132.09c-.14.74-.11.81.46,1.1-.07.39-.01.46.42.56-.01-.06-.02-.1-.03-.15-.31-1.23-.63-2.46-.93-3.69-.02-.1-.06-.15-.15-.18-.11-.04-.21-.09-.31-.15-.1-.07-.09-.14.02-.19.04-.02.07-.03.11-.04.04-.01.07-.03.13-.05-.02-.29-.05-.57-.07-.86,0-.04-.04-.08-.07-.12-.2-.28-.41-.56-.61-.84-.14-.21-.13-.4.04-.59.23-.25.53-.37.84-.45,1-.26,2-.26,2.99.08.2.07.39.18.56.32.28.23.28.55,0,.76-.22.16-.37.37-.48.61-.15.32-.27.66-.4.98.03.03.05.05.06.06.24.23.23.3-.04.47-.04.02-.07.07-.09.12-.37,1.31-.73,2.63-1.1,3.94.28.01.39-.15.39-.57.13-.06.27-.12.4-.18.08-.04.15-.09.21-.14.17-.14.2-.31.1-.52-.03-.06-.07-.12-.11-.18.17-.1.33-.19.49-.3.09-.06.17-.13.24-.21.13-.15.14-.29.03-.46-.08-.13-.17-.24-.28-.39.08-.02.14-.04.19-.06.07-.03.14-.05.21-.08.45-.21.54-.48.31-.95-.03-.05-.05-.11-.08-.16h3.26s.01.03.02.04c-1.85,2.03-3.7,4.06-5.57,6.11-1.81-2.03-3.61-4.05-5.43-6.09h3.25c-.04.1-.07.17-.1.24-.11.3-.05.55.19.73.17.13.36.22.55.33-.06.07-.13.15-.2.24-.24.33-.19.56.15.74.14.08.29.13.43.2Z"/>
      <path class="cls-3" d="M90.25,84.53c-.14.74-.11.81.46,1.1-.07.39-.01.46.42.56-.01-.06-.02-.1-.03-.15-.31-1.23-.63-2.46-.93-3.69-.02-.1-.06-.15-.15-.18-.11-.04-.21-.09-.31-.15-.1-.07-.09-.14.02-.19.04-.02.07-.03.11-.04.04-.01.07-.03.13-.05-.02-.29-.05-.57-.07-.86,0-.04-.04-.08-.07-.12-.2-.28-.41-.56-.61-.84-.14-.21-.13-.4.04-.59.23-.25.53-.37.84-.45,1-.26,2-.26,2.99.08.2.07.39.18.56.32.28.23.28.55,0,.76-.22.16-.37.37-.48.61-.15.32-.27.66-.4.98.03.03.05.05.06.06.24.23.23.3-.04.47-.04.02-.07.07-.09.12-.37,1.31-.73,2.63-1.1,3.94.28.01.39-.15.39-.57.13-.06.27-.12.4-.18.08-.04.15-.09.21-.14.17-.14.2-.31.1-.52-.03-.06-.07-.12-.11-.18.17-.1.33-.19.49-.3.09-.06.17-.13.24-.21.13-.15.14-.29.03-.46-.08-.13-.17-.24-.28-.39.08-.02.14-.04.19-.06.07-.03.14-.05.21-.08.45-.21.54-.48.31-.95-.03-.05-.05-.11-.08-.16h3.26s.01.03.02.04c-1.85,2.03-3.7,4.06-5.57,6.11-1.81-2.03-3.61-4.05-5.43-6.09h3.25c-.04.1-.07.17-.1.24-.11.3-.05.55.19.73.17.13.36.22.55.33-.06.07-.13.15-.2.24-.24.33-.19.56.15.74.14.08.29.13.43.2Z"/>
      <path class="cls-3" d="M130.34,80.37c-.14.74-.11.81.46,1.1-.07.39-.01.46.42.56-.01-.06-.02-.1-.03-.15-.31-1.23-.63-2.46-.93-3.69-.02-.1-.06-.15-.15-.18-.11-.04-.21-.09-.31-.15-.1-.07-.09-.14.02-.19.04-.02.07-.03.11-.04.04-.01.07-.03.13-.05-.02-.29-.05-.57-.07-.86,0-.04-.04-.08-.07-.12-.2-.28-.41-.56-.61-.84-.14-.21-.13-.4.04-.59.23-.25.53-.37.84-.45,1-.26,2-.26,2.99.08.2.07.39.18.56.32.28.23.28.55,0,.76-.22.16-.37.37-.48.61-.15.32-.27.66-.4.98.03.03.05.05.06.06.24.23.23.3-.04.47-.04.02-.07.07-.09.12-.37,1.31-.73,2.63-1.1,3.94.28.01.39-.15.39-.57.13-.06.27-.12.4-.18.08-.04.15-.09.21-.14.17-.14.2-.31.1-.52-.03-.06-.07-.12-.11-.18.17-.1.33-.19.49-.3.09-.06.17-.13.24-.21.13-.15.14-.29.03-.46-.08-.13-.17-.24-.28-.39.08-.02.14-.04.19-.06.07-.03.14-.05.21-.08.45-.21.54-.48.31-.95-.03-.05-.05-.11-.08-.16h3.26s.01.03.02.04c-1.85,2.03-3.7,4.06-5.57,6.11-1.81-2.03-3.61-4.05-5.43-6.09h3.25c-.04.1-.07.17-.1.24-.11.3-.05.55.19.73.17.13.36.22.55.33-.06.07-.13.15-.2.24-.24.33-.19.56.15.74.14.08.29.13.43.2Z"/>
      <path class="cls-2" d="M141.73,244.75c-56.8,0-103.02-46.21-103.02-103.02s46.21-103.02,103.02-103.02,103.02,46.21,103.02,103.02-46.21,103.02-103.02,103.02ZM141.73,40.89c-55.6,0-100.84,45.24-100.84,100.84s45.24,100.84,100.84,100.84,100.84-45.24,100.84-100.84-45.24-100.84-100.84-100.84Z"/>
      <path class="cls-2" d="M141.73,283.46C63.58,283.46,0,219.88,0,141.73S63.58,0,141.73,0s141.73,63.58,141.73,141.73-63.58,141.73-141.73,141.73ZM141.73,2.18C64.78,2.18,2.18,64.78,2.18,141.73s62.6,139.55,139.55,139.55,139.55-62.6,139.55-139.55S218.68,2.18,141.73,2.18Z"/>
      <g>
        <path class="cls-4" d="M36.75,103.48l-19.05-8.7,4.58-10.03c1.66-3.63,4.82-4.43,7.36-3.27,2.37,1.08,3.32,3.31,2.87,5.28,1.25-1.91,3.95-2.61,6.33-1.53,2.88,1.32,4.31,4.25,2.64,7.9l-4.72,10.34ZM28.46,85.95c-1.17-.54-2.39-.06-3.02,1.31l-2.32,5.08,4,1.83,2.32-5.08c.63-1.37.25-2.58-.98-3.14ZM36.37,89.11c-1.2-.55-2.56-.13-3.28,1.44l-2.4,5.26,4.34,1.98,2.4-5.26c.69-1.51.31-2.79-1.06-3.42Z"/>
        <path class="cls-4" d="M53.32,74.09l-8.44-1.01-1.91,2.65,6.04,4.35-2.61,3.62-17-12.24,5.72-7.95c2.55-3.54,6.45-4.06,9.61-1.79,2.98,2.15,3.24,5.23,2.35,7.38l9.24.81-3.01,4.18ZM42.03,65.42c-1.4-1.01-3.06-.54-4.08.89l-2.75,3.82,4.59,3.3,2.75-3.82c1.03-1.43.95-3.15-.5-4.19Z"/>
        <path class="cls-4" d="M69.88,56.73l-3.38-1.7-6.57,6.12,1.45,3.5-3.7,3.44-8.36-20.83,4.09-3.81,20.18,9.84-3.7,3.44ZM54.4,48.62l3.75,8.82,4.78-4.45-8.53-4.37Z"/>
        <path class="cls-4" d="M69.03,43.81c-3.41-5.5-1.57-11.77,3.79-15.1,3.9-2.41,7.47-1.71,10.12-.25l-2.26,3.62c-1.64-.98-3.95-1.13-5.77,0-3.26,2.02-4.07,5.96-1.98,9.32,2.08,3.36,5.97,4.39,9.23,2.37,1.82-1.12,2.71-3.27,2.56-5.17l4.23-.44c.12,2.99-.81,6.56-4.71,8.97-5.36,3.32-11.82,2.15-15.21-3.32Z"/>
        <path class="cls-4" d="M106.69,36.37l-8.88-5.68-.84,2.42,2.25,6.03-4.18,1.56-7.31-19.64,4.18-1.56,3.25,8.74,3.7-11.33,5.15-1.92-4.37,12.12,12.21,7.32-5.15,1.92Z"/>
        <path class="cls-4" d="M115.01,33.93l-3.76-20.61,4.42-.81,3.05,16.75,8.71-1.59.7,3.86-13.13,2.39Z"/>
        <path class="cls-4" d="M132.48,31.1l-.22-20.95,14.82-.16.04,3.92-10.36.11.05,4.4,10.14-.11.04,3.92-10.14.11.05,4.77,10.36-.11.04,3.93-14.82.16Z"/>
        <path class="cls-4" d="M157.81,32.23l1.45-8.45-5.84-13.55,5.02.86,3.69,9.14,6.52-7.39,4.98.85-9.98,10.84-1.45,8.45-4.4-.75Z"/>
        <path class="cls-4" d="M186.78,40.79l7.32-15.37-5.53-2.63,1.69-3.54,15.08,7.19-1.69,3.54-5.5-2.62-7.32,15.37-4.05-1.93Z"/>
        <path class="cls-4" d="M204.7,37.94c3.77-5.07,10.17-5.94,15.26-2.16,5.07,3.77,6.08,10.15,2.31,15.22-3.76,5.07-10.17,5.94-15.23,2.18-5.09-3.78-6.1-10.17-2.34-15.23ZM218.59,48.26c2.34-3.15,2.11-7-.99-9.3-3.13-2.32-6.88-1.43-9.22,1.72-2.32,3.13-2.11,7,1.01,9.32,3.1,2.3,6.87,1.39,9.19-1.74Z"/>
        <path class="cls-4" d="M228.94,74.05l8.73-12-13.4,6.37-3.02-3.65,12.3-17.98,3.19,3.84-9.31,12.48,14.2-6.58,2.22,2.68-9.13,12.7,14-6.83,3.19,3.85-19.94,8.77-3.02-3.65Z"/>
        <path class="cls-4" d="M243.26,98.3l7.96-14.94-12.3,5.94-1.94-4.02,18.87-9.11,1.99,4.13-7.63,14.46,11.85-5.72,1.94,4.02-18.87,9.11-1.87-3.87Z"/>
      </g>
      <g>
        <path class="cls-4" d="M22.86,196.9l18.47-9.89,7,13.07-3.46,1.85-4.89-9.14-3.87,2.08,4.79,8.94-3.46,1.85-4.79-8.94-7.67,4.11-2.11-3.93Z"/>
        <path class="cls-4" d="M41.54,209.27c4.88-4,11.3-3.3,15.33,1.6,4,4.88,3.43,11.32-1.45,15.32s-11.3,3.3-15.31-1.58c-4.02-4.9-3.45-11.34,1.43-15.34ZM52.52,222.64c3.03-2.49,3.74-6.28,1.29-9.27-2.47-3.01-6.32-3.06-9.36-.57-3.01,2.47-3.74,6.28-1.27,9.29,2.45,2.99,6.33,3.01,9.34.54Z"/>
        <path class="cls-4" d="M59.03,229.7c3.87-4.99,10.29-5.74,15.3-1.85,4.99,3.87,5.87,10.27,2,15.26-3.87,4.99-10.29,5.74-15.27,1.87-5.01-3.89-5.89-10.29-2.03-15.28ZM72.71,240.3c2.4-3.1,2.25-6.96-.8-9.32-3.08-2.38-6.85-1.57-9.25,1.53-2.38,3.08-2.25,6.96.83,9.34,3.05,2.37,6.84,1.53,9.23-1.55Z"/>
        <path class="cls-4" d="M80.55,257.08l7.65-15.21-5.47-2.75,1.76-3.51,14.92,7.51-1.76,3.51-5.44-2.74-7.65,15.21-4.01-2.02Z"/>
        <path class="cls-4" d="M97.01,264.58l5.83-20.12,10.59,3.07c3.83,1.11,5.08,4.12,4.3,6.81-.73,2.5-2.79,3.77-4.81,3.61,2.08.96,3.16,3.53,2.44,6.04-.88,3.05-3.57,4.88-7.43,3.76l-10.92-3.17ZM111.17,262.12c.37-1.27-.24-2.55-1.9-3.04l-5.55-1.61-1.33,4.58,5.55,1.61c1.6.46,2.81-.1,3.23-1.55ZM113.14,253.83c.36-1.24-.29-2.37-1.74-2.79l-5.37-1.56-1.22,4.22,5.37,1.56c1.45.42,2.59-.13,2.96-1.43Z"/>
        <path class="cls-4" d="M136.3,272.13l-1.01-3.65-8.95-.76-1.61,3.42-5.04-.43,9.81-20.19,5.57.47,6.27,21.55-5.04-.43ZM131.9,255.21l-4.02,8.7,6.51.55-2.49-9.26Z"/>
        <path class="cls-4" d="M147.71,272.11l-1.98-20.85,4.47-.42,1.61,16.95,8.82-.84.37,3.91-13.29,1.26Z"/>
        <path class="cls-4" d="M168.01,269.55l-5.22-20.29,4.35-1.12,4.24,16.48,8.58-2.21.98,3.8-12.93,3.33Z"/>
        <path class="cls-4" d="M192.8,250.43c-3.15-5.65-1.03-11.83,4.49-14.91,4-2.23,7.54-1.37,10.12.22l-2.43,3.51c-1.59-1.05-3.9-1.31-5.76-.27-3.35,1.87-4.34,5.76-2.41,9.22,1.93,3.46,5.76,4.66,9.11,2.79,1.86-1.04,2.85-3.14,2.79-5.05l4.25-.25c-.02,3-1.11,6.52-5.12,8.75-5.51,3.08-11.91,1.61-15.04-4.01Z"/>
        <path class="cls-4" d="M220.65,245.59l-13.42-16.09,3.45-2.88,10.91,13.07,6.8-5.67,2.52,3.01-10.25,8.55Z"/>
        <path class="cls-4" d="M229.47,226.94l-9.65-8.04,2.89-3.47,9.55,7.96c2.24,1.87,4.87,1.85,6.94-.63,2.07-2.48,1.59-5.05-.65-6.92l-9.55-7.96,2.91-3.5,9.65,8.04c3.98,3.32,4.76,7.97.68,12.87-4.08,4.9-8.8,4.97-12.78,1.65Z"/>
        <path class="cls-4" d="M253.01,210.14l-18.5-9.83,5.17-9.74c1.87-3.52,5.08-4.13,7.54-2.82,2.3,1.22,3.12,3.51,2.55,5.44,1.37-1.83,4.1-2.37,6.41-1.15,2.8,1.49,4.05,4.5,2.16,8.05l-5.33,10.04ZM245.79,192.14c-1.14-.6-2.38-.2-3.09,1.13l-2.62,4.94,3.88,2.06,2.62-4.94c.71-1.33.4-2.56-.79-3.2ZM253.5,195.78c-1.16-.62-2.55-.29-3.36,1.24l-2.71,5.1,4.22,2.24,2.71-5.1c.78-1.47.48-2.77-.86-3.48Z"/>
      </g>
      <g>
        <path class="cls-2" d="M14.66,148.09v-8.85l-2.03,2.07-1.48-1.56,3.84-3.86h2.27v12.2h-2.6Z"/>
        <path class="cls-2" d="M19.11,144.92c0-1.48,1.15-2.62,2.62-3.13-1.35-.48-2.41-1.35-2.41-2.87,0-2.3,2.43-3.22,4.7-3.22s4.7.91,4.7,3.22c0,1.52-1.08,2.4-2.41,2.87,1.44.51,2.62,1.65,2.62,3.13,0,2.27-2.34,3.38-4.9,3.38s-4.9-1.12-4.9-3.38ZM26.28,144.56c0-1.01-1.52-1.48-2.27-1.59-.77.11-2.27.59-2.27,1.59,0,.88.99,1.45,2.27,1.45s2.27-.57,2.27-1.45ZM26.06,139.36c0-.86-.86-1.35-2.05-1.35s-2.07.49-2.07,1.35,1.32,1.28,2.07,1.41c.75-.13,2.05-.51,2.05-1.41Z"/>
      </g>
      <g>
        <path class="cls-2" d="M252.92,147.35l1.15-1.99c.66.62,1.35.95,2.43.95,2.01,0,3.06-1.7,3.06-3.44v-.27c-.59.82-1.81,1.57-3.15,1.57-2.2,0-4.15-1.37-4.15-3.97,0-2.38,1.88-4.19,4.66-4.19,3.71,0,5.27,2.85,5.27,6.29,0,3.7-2.09,6.31-5.69,6.31-1.48,0-2.73-.49-3.59-1.26ZM259.54,140.78c-.11-1.17-.77-2.47-2.47-2.47-1.41,0-2.18.95-2.18,1.79,0,1.28,1.12,1.83,2.25,1.83.93,0,1.81-.42,2.4-1.15Z"/>
        <path class="cls-2" d="M263.44,142.32c0-3.15,1.55-6.29,5.05-6.29s5.05,3.15,5.05,6.29-1.56,6.31-5.05,6.31-5.05-3.16-5.05-6.31ZM270.88,142.32c0-2.25-.64-3.99-2.4-3.99s-2.4,1.74-2.4,3.99.66,4.01,2.4,4.01,2.4-1.76,2.4-4.01Z"/>
      </g>
      <g>
        <g>
          <path class="cls-2" d="M173.95,126.07c1.45-.3,2.87-.29,4.23.38.26.13.43.41.64.63-.27.26-.51.58-.82.77-.19.12-.5.04-.75.05-.16,0-.33.01-.58.03.77.55,1.3.58,1.94.15.5-.34.97-.73,1.47-1.07.97-.64,2.68-.39,3.31.53-1.22-.05-2.43-.32-3.57.24.73,1.54,1.86,2.23,3.19,1.94.22-.05.46-.04.69-.04.45,0,.76.14.96.62.16.39.54.68.79,1.04.02.03.05.06.07.09,1.76-1.05,3.51-2.1,5.26-3.15-.09-.19-.17-.39-.23-.61-.05-.15-.09-.34-.2-.44-.75-.64-.41-1.27.07-1.81,1.07-1.23.68-2.71-.13-3.8-1.04.71-1.35,1.91-1.95,3.03-.09-.21-.14-.28-.17-.37-.03-.09-.05-.18-.04-.27.14-1.15.5-2.18,1.67-2.71.47-.21.93-.42,1.39-.65.68-.34.79-.94.74-1.61-.24.28-.35.67-.6.88-.29.24-.72.31-1.09.46-.1-.3-.33-.64-.27-.9.26-.95.52-1.93.96-2.8.36-.71.97-1.3,1.47-1.94.03-.04.04-.11.07-.18-.23.01-.43.03-.57.04-.28-.65-.53-1.25-.78-1.85-.06.02-.12.04-.17.06.07.38.15.76.19,1.14.07.68.06,1.36-.5,1.87-.31.28-.58.34-.86-.07-.56-.79-.95-1.62-1.03-2.62-.05-.73-.33-1.45-.51-2.18l-.19.06c.09.52.18,1.04.26,1.56-.06.04-.13.08-.19.12l-3.01-1.53c-.04.07-.07.13-.11.2.62.4,1.25.77,1.84,1.19.57.4,1.29.69,1.44,1.47-.05.06-.1.13-.15.19-.83-.52-1.66-1.03-2.49-1.55.03.2.11.34.22.44.63.51,1.25,1.04,1.91,1.51.65.47,1.35.95,1.47,1.78.2,1.43.05,2.85-.4,4.3-.33-.2-.59-.35-.85-.51,1.23,1.31-.36,1.98-.51,3.08-.42-.42-.71-.7-1-.98,0,.18.05.31.13.41.5.6.5,1.28.46,2.03-.08,1.29-1.5.93-1.97,1.72-.07.12-.42.16-.62.12-.82-.17-1.57-.46-1.91-1.34-.05-.12-.16-.22-.24-.33-.02.02-.05.04-.07.06.1.35.19.7.32,1.18-1.06-.36-2.45.67-2.98-1.04.02.31.05.62.08,1.09-.91-.34-1.7-.66-2.5-.94-1.58-.56-2.26-1.7-2.33-3.35-.04-.91-.32-1.8-.48-2.7-.06,0-.13.02-.19.03.06,1.04.12,2.09.18,3.13-.11.01-.21.03-.32.04-.83-1.28-.39-2.84-.74-4.22-.06,0-.12,0-.18,0-.04,1.16-.07,2.31-.11,3.47-.08.02-.15.05-.23.07-.41-.34-.83-.68-1.24-1.02-.05.05-.09.11-.14.16.56.51,1.05,1.12,1.68,1.52.84.55,1.39,1.27,1.81,2.15.23.49.05.69-.39.81-.82.24-1.44-.17-2.05-.62-.26-.19-.51-.39-.8-.62.12.91,1.25,1.18,1.07,2.17.39-.08.8-.15,1.21-.23Z"/>
          <path class="cls-2" d="M189.04,126.13c.14,0,.28,0,.43,0-.79,0-1.57.09-2.34.24-.48.21-.94.44-1.4.68-.28.16-.55.32-.81.51-.03.04-.06.08-.09.13-.26.46-.52.92-.86,1.31.51.93.93,1.73.98,1.83.62,1.27,1.38,2.42,2.65,3.16.31.18.64.43.83.73.51.78,1.16,1.24,2.11,1.21.04,0,.08.02.11.02.83.14,1.53-.28,1.8-1.08.07-.21.12-.42.22-.61.25-.46.15-.89-.02-1.36-.21-.61-.35-1.25-.5-1.88-.1-.45-.13-.91-.27-1.35-.18-.56-1.22-2.13-2.22-3.57-.21.02-.43.03-.64.03Z"/>
          <g>
            <path class="cls-6" d="M191.12,134.79c-.51-.04-.91-.06-1.3-.13-.11-.02-.26-.2-.26-.3,0-.1.16-.23.28-.29.43-.2.81,0,1.28.71Z"/>
            <path class="cls-6" d="M191.64,134.41c-.51-.63-.56-1.11-.21-1.44.09-.09.26-.15.38-.13.07.01.18.22.16.31-.08.4-.2.8-.33,1.27Z"/>
          </g>
          <path class="cls-6" d="M187.44,131.65c.98.18,1.82,1.18,2.38,1.84.15-.09-.21.12.05-.03-.37-.66-.91-1.12-1.48-1.54-.41-.31-.81-.64-1.19-.99-.47-.43-1.12-.66-1.83-.61,0,0-.17.75.6,1.26.64.43.78.05,1.47.08Z"/>
          <path class="cls-6" d="M190.3,128.45c-.23-.9-.99-.98-.99-.98-.28.65-.28,1.35-.02,1.93.21.47.39.96.54,1.45.21.68.46,1.34.97,1.91.23-.2-.09.07.05-.04-.44-.74-1.11-1.87-.95-2.85.19-.66.6-.67.41-1.42Z"/>
        </g>
        <g>
          <path class="cls-2" d="M162.68,106.66c1.45-.3,2.87-.29,4.23.38.26.13.43.41.64.63-.27.26-.51.58-.82.77-.19.12-.5.04-.75.05-.16,0-.33.01-.58.03.77.55,1.3.58,1.94.15.5-.34.97-.73,1.47-1.07.97-.64,2.68-.39,3.31.53-1.22-.05-2.43-.32-3.57.24.73,1.54,1.86,2.23,3.19,1.94.22-.05.46-.04.69-.04.45,0,.76.14.96.62.16.39.54.68.79,1.04.02.03.05.06.07.09,1.76-1.05,3.51-2.1,5.26-3.15-.09-.19-.17-.39-.23-.61-.05-.15-.09-.34-.2-.44-.75-.64-.41-1.27.07-1.81,1.07-1.23.68-2.71-.13-3.8-1.04.71-1.35,1.91-1.95,3.03-.09-.21-.14-.28-.17-.37-.03-.09-.05-.18-.04-.27.14-1.15.5-2.18,1.67-2.71.47-.21.93-.42,1.39-.65.68-.34.79-.94.74-1.61-.24.28-.35.67-.6.88-.29.24-.72.31-1.09.46-.1-.3-.33-.64-.27-.9.26-.95.52-1.93.96-2.8.36-.71.97-1.3,1.47-1.94.03-.04.04-.11.07-.18-.23.01-.43.03-.57.04-.28-.65-.53-1.25-.78-1.85-.06.02-.12.04-.17.06.07.38.15.76.19,1.14.07.68.06,1.36-.5,1.87-.31.28-.58.34-.86-.07-.56-.79-.95-1.62-1.03-2.62-.05-.73-.33-1.45-.51-2.18l-.19.06c.09.52.18,1.04.26,1.56-.06.04-.13.08-.19.12l-3.01-1.53c-.04.07-.07.13-.11.2.62.4,1.25.77,1.84,1.19.57.4,1.29.69,1.44,1.47-.05.06-.1.13-.15.19-.83-.52-1.66-1.03-2.49-1.55.03.2.11.34.22.44.63.51,1.25,1.04,1.91,1.51.65.47,1.35.95,1.47,1.78.2,1.43.05,2.85-.4,4.3-.33-.2-.59-.35-.85-.51,1.23,1.31-.36,1.98-.51,3.08-.42-.42-.71-.7-1-.98,0,.18.05.31.13.41.5.6.5,1.28.46,2.03-.08,1.29-1.5.93-1.97,1.72-.07.12-.42.16-.62.12-.82-.17-1.57-.46-1.91-1.34-.05-.12-.16-.22-.24-.33-.02.02-.05.04-.07.06.1.35.19.7.32,1.18-1.06-.36-2.45.67-2.98-1.04.02.31.05.62.08,1.09-.91-.34-1.7-.66-2.5-.94-1.58-.56-2.26-1.7-2.33-3.35-.04-.91-.32-1.8-.48-2.7-.06,0-.13.02-.19.03.06,1.04.12,2.09.18,3.13-.11.01-.21.03-.32.04-.83-1.28-.39-2.84-.74-4.22-.06,0-.12,0-.18,0-.04,1.16-.07,2.31-.11,3.47-.08.02-.15.05-.23.07-.41-.34-.83-.68-1.24-1.02-.05.05-.09.11-.14.16.56.51,1.05,1.12,1.68,1.52.84.55,1.39,1.27,1.81,2.15.23.49.05.69-.39.81-.82.24-1.44-.17-2.05-.62-.26-.19-.51-.39-.8-.62.12.91,1.25,1.18,1.07,2.17.39-.08.8-.15,1.21-.23Z"/>
          <path class="cls-2" d="M177.77,106.72c.14,0,.28,0,.43,0-.79,0-1.57.09-2.34.24-.48.21-.94.44-1.4.68-.28.16-.55.32-.81.51-.03.04-.06.08-.09.13-.26.46-.52.92-.86,1.31.51.93.93,1.73.98,1.83.62,1.27,1.38,2.42,2.65,3.16.31.18.64.43.83.73.51.78,1.16,1.24,2.11,1.21.04,0,.08.02.11.02.83.14,1.53-.28,1.8-1.08.07-.21.12-.42.22-.61.25-.46.15-.89-.02-1.36-.21-.61-.35-1.25-.5-1.88-.1-.45-.13-.91-.27-1.35-.18-.56-1.22-2.13-2.22-3.57-.21.02-.43.03-.64.03Z"/>
          <g>
            <path class="cls-6" d="M179.85,115.38c-.51-.04-.91-.06-1.3-.13-.11-.02-.26-.2-.26-.3,0-.1.16-.23.28-.29.43-.2.81,0,1.28.71Z"/>
            <path class="cls-6" d="M180.37,115c-.51-.63-.56-1.11-.21-1.44.09-.09.26-.15.38-.13.07.01.18.22.16.31-.08.4-.2.8-.33,1.27Z"/>
          </g>
          <path class="cls-6" d="M176.18,112.24c.98.18,1.82,1.18,2.38,1.84.15-.09-.21.12.05-.03-.37-.66-.91-1.12-1.48-1.54-.41-.31-.81-.64-1.19-.99-.47-.43-1.12-.66-1.83-.61,0,0-.17.75.6,1.26.64.43.78.05,1.47.08Z"/>
          <path class="cls-6" d="M179.03,109.04c-.23-.9-.99-.98-.99-.98-.28.65-.28,1.35-.02,1.93.21.47.39.96.54,1.45.21.68.46,1.34.97,1.91.23-.2-.09.07.05-.04-.44-.74-1.11-1.87-.95-2.85.19-.66.6-.67.41-1.42Z"/>
        </g>
        <g>
          <path class="cls-2" d="M149.79,85.37c1.45-.3,2.87-.29,4.23.38.26.13.43.41.64.63-.27.26-.51.58-.82.77-.19.12-.5.04-.75.05-.16,0-.33.01-.58.03.77.55,1.3.58,1.94.15.5-.34.97-.73,1.47-1.07.97-.64,2.68-.39,3.31.53-1.22-.05-2.43-.32-3.57.24.73,1.54,1.86,2.23,3.19,1.94.22-.05.46-.04.69-.04.45,0,.76.14.96.62.16.39.54.68.79,1.04.02.03.05.06.07.09,1.76-1.05,3.51-2.1,5.26-3.15-.09-.19-.17-.39-.23-.61-.05-.15-.09-.34-.2-.44-.75-.64-.41-1.27.07-1.81,1.07-1.23.68-2.71-.13-3.8-1.04.71-1.35,1.91-1.95,3.03-.09-.21-.14-.28-.17-.37-.03-.09-.05-.18-.04-.27.14-1.15.5-2.18,1.67-2.71.47-.21.93-.42,1.39-.65.68-.34.79-.94.74-1.61-.24.28-.35.67-.6.88-.29.24-.72.31-1.09.46-.1-.3-.33-.64-.27-.9.26-.95.52-1.93.96-2.8.36-.71.97-1.3,1.47-1.94.03-.04.04-.11.07-.18-.23.01-.43.03-.57.04-.28-.65-.53-1.25-.78-1.85-.06.02-.12.04-.17.06.07.38.15.76.19,1.14.07.68.06,1.36-.5,1.87-.31.28-.58.34-.86-.07-.56-.79-.95-1.62-1.03-2.62-.05-.73-.33-1.45-.51-2.18l-.19.06c.09.52.18,1.04.26,1.56-.06.04-.13.08-.19.12l-3.01-1.53c-.04.07-.07.13-.11.2.62.4,1.25.77,1.84,1.19.57.4,1.29.69,1.44,1.47-.05.06-.1.13-.15.19-.83-.52-1.66-1.03-2.49-1.55.03.2.11.34.22.44.63.51,1.25,1.04,1.91,1.51.65.47,1.35.95,1.47,1.78.2,1.43.05,2.85-.4,4.3-.33-.2-.59-.35-.85-.51,1.23,1.31-.36,1.98-.51,3.08-.42-.42-.71-.7-1-.98,0,.18.05.31.13.41.5.6.5,1.28.46,2.03-.08,1.29-1.5.93-1.97,1.72-.07.12-.42.16-.62.12-.82-.17-1.57-.46-1.91-1.34-.05-.12-.16-.22-.24-.33-.02.02-.05.04-.07.06.1.35.19.7.32,1.18-1.06-.36-2.45.67-2.98-1.04.02.31.05.62.08,1.09-.91-.34-1.7-.66-2.5-.94-1.58-.56-2.26-1.7-2.33-3.35-.04-.91-.32-1.8-.48-2.7-.06,0-.13.02-.19.03.06,1.04.12,2.09.18,3.13-.11.01-.21.03-.32.04-.83-1.28-.39-2.84-.74-4.22-.06,0-.12,0-.18,0-.04,1.16-.07,2.31-.11,3.47-.08.02-.15.05-.23.07-.41-.34-.83-.68-1.24-1.02-.05.05-.09.11-.14.16.56.51,1.05,1.12,1.68,1.52.84.55,1.39,1.27,1.81,2.15.23.49.05.69-.39.81-.82.24-1.44-.17-2.05-.62-.26-.19-.51-.39-.8-.62.12.91,1.25,1.18,1.07,2.17.39-.08.8-.15,1.21-.23Z"/>
          <path class="cls-2" d="M164.87,85.43c.14,0,.28,0,.43,0-.79,0-1.57.09-2.34.24-.48.21-.94.44-1.4.68-.28.16-.55.32-.81.51-.03.04-.06.08-.09.13-.26.46-.52.92-.86,1.31.51.93.93,1.73.98,1.83.62,1.27,1.38,2.42,2.65,3.16.31.18.64.43.83.73.51.78,1.16,1.24,2.11,1.21.04,0,.08.02.11.02.83.14,1.53-.28,1.8-1.08.07-.21.12-.42.22-.61.25-.46.15-.89-.02-1.36-.21-.61-.35-1.25-.5-1.88-.1-.45-.13-.91-.27-1.35-.18-.56-1.22-2.13-2.22-3.57-.21.02-.43.03-.64.03Z"/>
          <g>
            <path class="cls-6" d="M166.96,94.09c-.51-.04-.91-.06-1.3-.13-.11-.02-.26-.2-.26-.3,0-.1.16-.23.28-.29.43-.2.81,0,1.28.71Z"/>
            <path class="cls-6" d="M167.48,93.71c-.51-.63-.56-1.11-.21-1.44.09-.09.26-.15.38-.13.07.01.18.22.16.31-.08.4-.2.8-.33,1.27Z"/>
          </g>
          <path class="cls-6" d="M163.28,90.95c.98.18,1.82,1.18,2.38,1.84.15-.09-.21.12.05-.03-.37-.66-.91-1.12-1.48-1.54-.41-.31-.81-.64-1.19-.99-.47-.43-1.12-.66-1.83-.61,0,0-.17.75.6,1.26.64.43.78.05,1.47.08Z"/>
          <path class="cls-6" d="M166.14,87.75c-.23-.9-.99-.98-.99-.98-.28.65-.28,1.35-.02,1.93.21.47.39.96.54,1.45.21.68.46,1.34.97,1.91.23-.2-.09.07.05-.04-.44-.74-1.11-1.87-.95-2.85.19-.66.6-.67.41-1.42Z"/>
        </g>
      </g>
      <g>
        <g>
          <path class="cls-2" d="M113.49,202.41c1.45-.3,2.87-.29,4.23.38.26.13.43.41.64.63-.27.26-.51.58-.82.77-.19.12-.5.04-.75.05-.16,0-.33.01-.58.03.77.55,1.3.58,1.94.15.5-.34.97-.73,1.47-1.07.97-.64,2.68-.39,3.31.53-1.22-.05-2.43-.32-3.57.24.73,1.54,1.86,2.23,3.19,1.94.22-.05.46-.04.69-.04.45,0,.76.14.96.62.16.39.54.68.79,1.04.02.03.05.06.07.09,1.76-1.05,3.51-2.1,5.26-3.15-.09-.19-.17-.39-.23-.61-.05-.15-.09-.34-.2-.44-.75-.64-.41-1.27.07-1.81,1.07-1.23.68-2.71-.13-3.8-1.04.71-1.35,1.91-1.95,3.03-.09-.21-.14-.28-.17-.37-.03-.09-.05-.18-.04-.27.14-1.15.5-2.18,1.67-2.71.47-.21.93-.42,1.39-.65.68-.34.79-.94.74-1.61-.24.28-.35.67-.6.88-.29.24-.72.31-1.09.46-.1-.3-.33-.64-.27-.9.26-.95.52-1.93.96-2.8.36-.71.97-1.3,1.47-1.94.03-.04.04-.11.07-.18-.23.01-.43.03-.57.04-.28-.65-.53-1.25-.78-1.85-.06.02-.12.04-.17.06.07.38.15.76.19,1.14.07.68.06,1.36-.5,1.87-.31.28-.58.34-.86-.07-.56-.79-.95-1.62-1.03-2.62-.05-.73-.33-1.45-.51-2.18l-.19.06c.09.52.18,1.04.26,1.56-.06.04-.13.08-.19.12l-3.01-1.53c-.04.07-.07.13-.11.2.62.4,1.25.77,1.84,1.19.57.4,1.29.69,1.44,1.47-.05.06-.1.13-.15.19-.83-.52-1.66-1.03-2.49-1.55.03.2.11.34.22.44.63.51,1.25,1.04,1.91,1.51.65.47,1.35.95,1.47,1.78.2,1.43.05,2.85-.4,4.3-.33-.2-.59-.35-.85-.51,1.23,1.31-.36,1.98-.51,3.08-.42-.42-.71-.7-1-.98,0,.18.05.31.13.41.5.6.5,1.28.46,2.03-.08,1.29-1.5.93-1.97,1.72-.07.12-.42.16-.62.12-.82-.17-1.57-.46-1.91-1.34-.05-.12-.16-.22-.24-.33-.02.02-.05.04-.07.06.1.35.19.7.32,1.18-1.06-.36-2.45.67-2.98-1.04.02.31.05.62.08,1.09-.91-.34-1.7-.66-2.5-.94-1.58-.56-2.26-1.7-2.33-3.35-.04-.91-.32-1.8-.48-2.7-.06,0-.13.02-.19.03.06,1.04.12,2.09.18,3.13-.11.01-.21.03-.32.04-.83-1.28-.39-2.84-.74-4.22-.06,0-.12,0-.18,0-.04,1.16-.07,2.31-.11,3.47-.08.02-.15.05-.23.07-.41-.34-.83-.68-1.24-1.02-.05.05-.09.11-.14.16.56.51,1.05,1.12,1.68,1.52.84.55,1.39,1.27,1.81,2.15.23.49.05.69-.39.81-.82.24-1.44-.17-2.05-.62-.26-.19-.51-.39-.8-.62.12.91,1.25,1.18,1.07,2.17.39-.08.8-.15,1.21-.23Z"/>
          <path class="cls-2" d="M128.58,202.47c.14,0,.28,0,.43,0-.79,0-1.57.09-2.34.24-.48.21-.94.44-1.4.68-.28.16-.55.32-.81.51-.03.04-.06.08-.09.13-.26.46-.52.92-.86,1.31.51.93.93,1.73.98,1.83.62,1.27,1.38,2.42,2.65,3.16.31.18.64.43.83.73.51.78,1.16,1.24,2.11,1.21.04,0,.08.02.11.02.83.14,1.53-.28,1.8-1.08.07-.21.12-.42.22-.61.25-.46.15-.89-.02-1.36-.21-.61-.35-1.25-.5-1.88-.1-.45-.13-.91-.27-1.35-.18-.56-1.22-2.13-2.22-3.57-.21.02-.43.03-.64.03Z"/>
          <g>
            <path class="cls-6" d="M130.66,211.13c-.51-.04-.91-.06-1.3-.13-.11-.02-.26-.2-.26-.3,0-.1.16-.23.28-.29.43-.2.81,0,1.28.71Z"/>
            <path class="cls-6" d="M131.18,210.75c-.51-.63-.56-1.11-.21-1.44.09-.09.26-.15.38-.13.07.01.18.22.16.31-.08.4-.2.8-.33,1.27Z"/>
          </g>
          <path class="cls-6" d="M126.98,207.99c.98.18,1.82,1.18,2.38,1.84.15-.09-.21.12.05-.03-.37-.66-.91-1.12-1.48-1.54-.41-.31-.81-.64-1.19-.99-.47-.43-1.12-.66-1.83-.61,0,0-.17.75.6,1.26.64.43.78.05,1.47.08Z"/>
          <path class="cls-6" d="M129.84,204.79c-.23-.9-.99-.98-.99-.98-.28.65-.28,1.35-.02,1.93.21.47.39.96.54,1.45.21.68.46,1.34.97,1.91.23-.2-.09.07.05-.04-.44-.74-1.11-1.87-.95-2.85.19-.66.6-.67.41-1.42Z"/>
        </g>
        <g>
          <path class="cls-2" d="M102.22,183c1.45-.3,2.87-.29,4.23.38.26.13.43.41.64.63-.27.26-.51.58-.82.77-.19.12-.5.04-.75.05-.16,0-.33.01-.58.03.77.55,1.3.58,1.94.15.5-.34.97-.73,1.47-1.07.97-.64,2.68-.39,3.31.53-1.22-.05-2.43-.32-3.57.24.73,1.54,1.86,2.23,3.19,1.94.22-.05.46-.04.69-.04.45,0,.76.14.96.62.16.39.54.68.79,1.04.02.03.05.06.07.09,1.76-1.05,3.51-2.1,5.26-3.15-.09-.19-.17-.39-.23-.61-.05-.15-.09-.34-.2-.44-.75-.64-.41-1.27.07-1.81,1.07-1.23.68-2.71-.13-3.8-1.04.71-1.35,1.91-1.95,3.03-.09-.21-.14-.28-.17-.37-.03-.09-.05-.18-.04-.27.14-1.15.5-2.18,1.67-2.71.47-.21.93-.42,1.39-.65.68-.34.79-.94.74-1.61-.24.28-.35.67-.6.88-.29.24-.72.31-1.09.46-.1-.3-.33-.64-.27-.9.26-.95.52-1.93.96-2.8.36-.71.97-1.3,1.47-1.94.03-.04.04-.11.07-.18-.23.01-.43.03-.57.04-.28-.65-.53-1.25-.78-1.85-.06.02-.12.04-.17.06.07.38.15.76.19,1.14.07.68.06,1.36-.5,1.87-.31.28-.58.34-.86-.07-.56-.79-.95-1.62-1.03-2.62-.05-.73-.33-1.45-.51-2.18l-.19.06c.09.52.18,1.04.26,1.56-.06.04-.13.08-.19.12l-3.01-1.53c-.04.07-.07.13-.11.2.62.4,1.25.77,1.84,1.19.57.4,1.29.69,1.44,1.47-.05.06-.1.13-.15.19-.83-.52-1.66-1.03-2.49-1.55.03.2.11.34.22.44.63.51,1.25,1.04,1.91,1.51.65.47,1.35.95,1.47,1.78.2,1.43.05,2.85-.4,4.3-.33-.2-.59-.35-.85-.51,1.23,1.31-.36,1.98-.51,3.08-.42-.42-.71-.7-1-.98,0,.18.05.31.13.41.5.6.5,1.28.46,2.03-.08,1.29-1.5.93-1.97,1.72-.07.12-.42.16-.62.12-.82-.17-1.57-.46-1.91-1.34-.05-.12-.16-.22-.24-.33-.02.02-.05.04-.07.06.1.35.19.7.32,1.18-1.06-.36-2.45.67-2.98-1.04.02.31.05.62.08,1.09-.91-.34-1.7-.66-2.5-.94-1.58-.56-2.26-1.7-2.33-3.35-.04-.91-.32-1.8-.48-2.7-.06,0-.13.02-.19.03.06,1.04.12,2.09.18,3.13-.11.01-.21.03-.32.04-.83-1.28-.39-2.84-.74-4.22-.06,0-.12,0-.18,0-.04,1.16-.07,2.31-.11,3.47-.08.02-.15.05-.23.07-.41-.34-.83-.68-1.24-1.02-.05.05-.09.11-.14.16.56.51,1.05,1.12,1.68,1.52.84.55,1.39,1.27,1.81,2.15.23.49.05.69-.39.81-.82.24-1.44-.17-2.05-.62-.26-.19-.51-.39-.8-.62.12.91,1.25,1.18,1.07,2.17.39-.08.8-.15,1.21-.23Z"/>
          <path class="cls-2" d="M117.31,183.06c.14,0,.28,0,.43,0-.79,0-1.57.09-2.34.24-.48.21-.94.44-1.4.68-.28.16-.55.32-.81.51-.03.04-.06.08-.09.13-.26.46-.52.92-.86,1.31.51.93.93,1.73.98,1.83.62,1.27,1.38,2.42,2.65,3.16.31.18.64.43.83.73.51.78,1.16,1.24,2.11,1.21.04,0,.08.02.11.02.83.14,1.53-.28,1.8-1.08.07-.21.12-.42.22-.61.25-.46.15-.89-.02-1.36-.21-.61-.35-1.25-.5-1.88-.1-.45-.13-.91-.27-1.35-.18-.56-1.22-2.13-2.22-3.57-.21.02-.43.03-.64.03Z"/>
          <g>
            <path class="cls-6" d="M119.39,191.72c-.51-.04-.91-.06-1.3-.13-.11-.02-.26-.2-.26-.3,0-.1.16-.23.28-.29.43-.2.81,0,1.28.71Z"/>
            <path class="cls-6" d="M119.91,191.34c-.51-.63-.56-1.11-.21-1.44.09-.09.26-.15.38-.13.07.01.18.22.16.31-.08.4-.2.8-.33,1.27Z"/>
          </g>
          <path class="cls-6" d="M115.72,188.58c.98.18,1.82,1.18,2.38,1.84.15-.09-.21.12.05-.03-.37-.66-.91-1.12-1.48-1.54-.41-.31-.81-.64-1.19-.99-.47-.43-1.12-.66-1.83-.61,0,0-.17.75.6,1.26.64.43.78.05,1.47.08Z"/>
          <path class="cls-6" d="M118.57,185.38c-.23-.9-.99-.98-.99-.98-.28.65-.28,1.35-.02,1.93.21.47.39.96.54,1.45.21.68.46,1.34.97,1.91.23-.2-.09.07.05-.04-.44-.74-1.11-1.87-.95-2.85.19-.66.6-.67.41-1.42Z"/>
        </g>
        <g>
          <path class="cls-2" d="M89.33,161.71c1.45-.3,2.87-.29,4.23.38.26.13.43.41.64.63-.27.26-.51.58-.82.77-.19.12-.5.04-.75.05-.16,0-.33.01-.58.03.77.55,1.3.58,1.94.15.5-.34.97-.73,1.47-1.07.97-.64,2.68-.39,3.31.53-1.22-.05-2.43-.32-3.57.24.73,1.54,1.86,2.23,3.19,1.94.22-.05.46-.04.69-.04.45,0,.76.14.96.62.16.39.54.68.79,1.04.02.03.05.06.07.09,1.76-1.05,3.51-2.1,5.26-3.15-.09-.19-.17-.39-.23-.61-.05-.15-.09-.34-.2-.44-.75-.64-.41-1.27.07-1.81,1.07-1.23.68-2.71-.13-3.8-1.04.71-1.35,1.91-1.95,3.03-.09-.21-.14-.28-.17-.37-.03-.09-.05-.18-.04-.27.14-1.15.5-2.18,1.67-2.71.47-.21.93-.42,1.39-.65.68-.34.79-.94.74-1.61-.24.28-.35.67-.6.88-.29.24-.72.31-1.09.46-.1-.3-.33-.64-.27-.9.26-.95.52-1.93.96-2.8.36-.71.97-1.3,1.47-1.94.03-.04.04-.11.07-.18-.23.01-.43.03-.57.04-.28-.65-.53-1.25-.78-1.85-.06.02-.12.04-.17.06.07.38.15.76.19,1.14.07.68.06,1.36-.5,1.87-.31.28-.58.34-.86-.07-.56-.79-.95-1.62-1.03-2.62-.05-.73-.33-1.45-.51-2.18l-.19.06c.09.52.18,1.04.26,1.56-.06.04-.13.08-.19.12l-3.01-1.53c-.04.07-.07.13-.11.2.62.4,1.25.77,1.84,1.19.57.4,1.29.69,1.44,1.47-.05.06-.1.13-.15.19-.83-.52-1.66-1.03-2.49-1.55.03.2.11.34.22.44.63.51,1.25,1.04,1.91,1.51.65.47,1.35.95,1.47,1.78.2,1.43.05,2.85-.4,4.3-.33-.2-.59-.35-.85-.51,1.23,1.31-.36,1.98-.51,3.08-.42-.42-.71-.7-1-.98,0,.18.05.31.13.41.5.6.5,1.28.46,2.03-.08,1.29-1.5.93-1.97,1.72-.07.12-.42.16-.62.12-.82-.17-1.57-.46-1.91-1.34-.05-.12-.16-.22-.24-.33-.02.02-.05.04-.07.06.1.35.19.7.32,1.18-1.06-.36-2.45.67-2.98-1.04.02.31.05.62.08,1.09-.91-.34-1.7-.66-2.5-.94-1.58-.56-2.26-1.7-2.33-3.35-.04-.91-.32-1.8-.48-2.7-.06,0-.13.02-.19.03.06,1.04.12,2.09.18,3.13-.11.01-.21.03-.32.04-.83-1.28-.39-2.84-.74-4.22-.06,0-.12,0-.18,0-.04,1.16-.07,2.31-.11,3.47-.08.02-.15.05-.23.07-.41-.34-.83-.68-1.24-1.02-.05.05-.09.11-.14.16.56.51,1.05,1.12,1.68,1.52.84.55,1.39,1.27,1.81,2.15.23.49.05.69-.39.81-.82.24-1.44-.17-2.05-.62-.26-.19-.51-.39-.8-.62.12.91,1.25,1.18,1.07,2.17.39-.08.8-.15,1.21-.23Z"/>
          <path class="cls-2" d="M104.41,161.77c.14,0,.28,0,.43,0-.79,0-1.57.09-2.34.24-.48.21-.94.44-1.4.68-.28.16-.55.32-.81.51-.03.04-.06.08-.09.13-.26.46-.52.92-.86,1.31.51.93.93,1.73.98,1.83.62,1.27,1.38,2.42,2.65,3.16.31.18.64.43.83.73.51.78,1.16,1.24,2.11,1.21.04,0,.08.02.11.02.83.14,1.53-.28,1.8-1.08.07-.21.12-.42.22-.61.25-.46.15-.89-.02-1.36-.21-.61-.35-1.25-.5-1.88-.1-.45-.13-.91-.27-1.35-.18-.56-1.22-2.13-2.22-3.57-.21.02-.43.03-.64.03Z"/>
          <g>
            <path class="cls-6" d="M106.49,170.43c-.51-.04-.91-.06-1.3-.13-.11-.02-.26-.2-.26-.3,0-.1.16-.23.28-.29.43-.2.81,0,1.28.71Z"/>
            <path class="cls-6" d="M107.02,170.05c-.51-.63-.56-1.11-.21-1.44.09-.09.26-.15.38-.13.07.01.18.22.16.31-.08.4-.2.8-.33,1.27Z"/>
          </g>
          <path class="cls-6" d="M102.82,167.29c.98.18,1.82,1.18,2.38,1.84.15-.09-.21.12.05-.03-.37-.66-.91-1.12-1.48-1.54-.41-.31-.81-.64-1.19-.99-.47-.43-1.12-.66-1.83-.61,0,0-.17.75.6,1.26.64.43.78.05,1.47.08Z"/>
          <path class="cls-6" d="M105.68,164.09c-.23-.9-.99-.98-.99-.98-.28.65-.28,1.35-.02,1.93.21.47.39.96.54,1.45.21.68.46,1.34.97,1.91.23-.2-.09.07.05-.04-.44-.74-1.11-1.87-.95-2.85.19-.66.6-.67.41-1.42Z"/>
        </g>
      </g>
      <path class="cls-6" d="M141.73,233.29l-.11-.03c-.2-.06-19.83-6.34-39.19-25.7-13.15-13.15-19.87-26.56-22.7-33.38-1.48-3.56-2.23-7.32-2.23-11.16v-81.57c0-4.22,2.99-7.93,7.11-8.83l52.68-12.18c2.91-.64,5.98-.64,8.89,0h0s52.68,12.18,52.68,12.18c4.11.9,7.1,4.62,7.1,8.83v81.57c0,3.84-.75,7.6-2.23,11.16-2.84,6.82-9.56,20.23-22.7,33.38-19.36,19.36-38.99,25.64-39.19,25.7l-.11.03ZM141.73,60.68c-1.44,0-2.89.15-4.29.46l-52.68,12.18c-3.79.83-6.54,4.25-6.54,8.13v81.57c0,3.74.73,7.41,2.18,10.88,2.82,6.77,9.49,20.09,22.54,33.14,18.49,18.49,37.19,24.96,38.78,25.48,1.59-.53,20.3-7,38.78-25.48,13.06-13.06,19.73-26.37,22.54-33.14,1.44-3.48,2.18-7.14,2.18-10.88v-81.57c0-3.88-2.75-7.29-6.53-8.12l-52.68-12.18c-1.4-.31-2.84-.46-4.29-.46Z"/>
      <g>
        <path class="cls-2" d="M109.11,110.72c-1.2-.62-2.12-1.29-2.79-1.82-1.24.39-2.55,1.21-2.93,3.1-.28,1.39.1,2.25.66,2.67.56.42,1.35.32,1.64.78.29.47.22,1.08-.17,1.84-.39.76-1.37,1.83-2.28,2.08-3.18.87-3.1-2.69-5.14-2.38-.82.13-.98.91-.98.91,0,0,.78-.15,1.13.27.34.42.1,1,.15,1.2s.15.47.73.71c.59.24-2.3-.93-3.21.98-.55,1.16.34,1.64.34,1.64,0,0,.04-.65.81-1.03,1.27-.63,2.87-.34,3.16-.17.29.17.32.39-.1.42-.42.02-1.67-.07-2.25.4-1.75,1.41.7,2.52.7,2.52,0,0-.26-1.23.54-1.35.58-.09,1.2.71,1.72.55.88-.28.72-1.46,1.77-1.27,1.09.19-.02,1.8,1.2,2.19.77.25,1.04-.29,1.11-.51,0,0-1.24.42-.16-2.06.18-.41.2-.71.2-.71,0,0,.91,1.43,2.16.61.86-.57,1.28.29,1.28.29.24-.2.12-.74.17-1.18s.22-.7.56-.93c1.01-.67,1.89.31,1.89.31.2-.32,0-1.23-.39-1.44-.96-.51-1.62.12-1.62.12,0,0-.32-1.06,1.46-1.73,0,0-1.55-.85-2.64.48-.69.85-.93,1.64-1.1,1.52s.29-2.09,2.03-3.7c2.69-2.48,3.91-.94,6.05-2.79.55-.48.77-1.12.83-1.71-1.37.21-4.02.5-6.55-.82Z"/>
        <path class="cls-2" d="M130.63,110.32c-.6-1.44,1.27-2.54.15-4.87,0,0-.14,1.23-1.07,1.24-.6.01-1.37-.88-1.81-1.72-.44-.83-.83-.5-1.43-1.23s.98-1.66.09-2.97c0,0-.18,1.07-1.14,1.09-.24,0-.62-.04-1.06-.77s-.84-1.77-.15-3.15c.52-1.05,1.36-.1,3.04-1.06,1-.57,1.31-2.12.91-2.97,0,0-1.09,1.8-1.47,1.16-.27-.46,1.37-1.28.69-2.87,0,0-.58,1.15-.87.94-.29-.21.93-1.55.38-2.56,0,0-.7,1.13-1.37.48-.49-.48.05-1.35.39-1.62.7-.55,1.57-.37,1.99-1.55.5-1.38-1.42-2.8-1.42-2.8,0,0,.24,1.35-.51,1.95-1.25.99-3.11.08-3.49,1.71-.08.34-.2,1.23,1.01,1.55,1.06.29,1.5,2.22.37,2.54-1.49.42-1.29-2.03-1.29-2.03-.16.03-1.36,1.26-.12,3.41,1.02,1.77-.49,2.79-.47,4.34.02,1.99,1.25,2.84,1.67,3.23.62.57,2.26,1.96,1.13,2.93-.7.6-1.26-.48-1.26-.48-.13.16-.22.51-.11.83.09.25.28.67,1.2.86,2.05.41,6.48,1.72,4.27,4.87-.84,1.2-3.08.56-3.6.43-.97-.23-1.29-.29-1.8-.52-1.33-.61-1.36-2.23-2.44-3.74-1.67-2.32-3.91-2.16-5.48-2.87-.93-.42-1.68-.99-2.26-1.57-.08-.05.17.39.23.56.55,1.36.08,2.52.08,2.52,0,0-1.59-.24-2.64-1.66-.43-.58-.74-.91-.94-1.38,0,.38-.13,3-1.91,3.03-.91.02-1.91-1.86-1.89-2.44,0-.08-.03-.16-.04-.24-.02.13-.05.26-.07.4-.1.68-.5,1.54-1.28,2.02-.89.55-2.52.17-2.52.17,0,0-.19-.91.76-2.65.13-.24.44-.74.76-1.17-.58.48-1.31,1.05-1.65,1.29-1.14.77-2.82-.02-3.05-.26l-.04-.04v-.05s.02-.79.54-1.39c.23-.27.49-.57.98-.97-.19.09-1.03.39-1.69.26-.85-.17-1.31-.71-1.33-.74l-.04-.04v-.05s-.11-.95,1.47-1.72c.43-.21.91-.35,1.22-.39-.77-.45-.51-1.39-.37-1.84l.02-.06h0c-.19-.01-.35-.01-.44-.01-.34,0-1.02-.03-1.3-.31s.07-.89.18-1.41c.65-3.04-1.13-2.91-1.13-2.91.54.86-.38,1.61-.56,1.71-.18.1-.6-.47-.6-.47,0,0-.71-.96-1.4-1.32-1.34-.71-2.3.13-1.97.17.47.05,1.13.9,1.32,1.24.37.65.38,1.17.38,1.17,0,0-1.26-.63-2.22-.05-1.09.66-.5,1.8-.5,1.8,0,0-.15-.43.34-.6.29-.1.63.37.89.81.26.44.63.73.94.76.31.03.6-.13.68.13.08.26-.47.33-.76.6-.68.64-.86,1.5-.4,2.17.55.79,1.32.56,1.45.46,0,0-.27-.11-.31-.62-.05-.54.38-1.29,1.24-1.39.94-.1,1.49,1.02,1.49,1.02,0,0-.91.94-.44,1.07,1.54.43,1.58,2.04,1.84,2.71.22.58.54.71,1.43.89-.01.02.08-.02.07,0-.08.13-.42.53-1.1.55-.37.01-.52-.03-1.09.29-.58.32-1.07,1.04-1.23.96-.16-.08-.01-.6-.03-.86,0-.13-.05-.75-.69-1.25-.88-.69-2.58-.49-2.74-.21,0,0,1.66.74.5,1.52-.31.21-.52-.64-1.69-.44-1.97.32-1.08,2.25-1.03,2.15.05-.1.44-.63.91-.65.48-.02.59.25.8.5.45.53.13,1.42-.39,1.93-1.03.99-.66,1.67-.09,1.98.44.23,1.02.19,1.02.19-.52-.75-.15-1.12.1-1.25.37-.2.84-.08,1.05,0,.21.08.63.05.76-.21.13-.26.42-.57.86-.6.44-.03-.02.67.6,1.42.29.34.69.57,1.05.33,0,0-.61-.6-.14-1.61.19-.42.6-.61.92-.66,1.55-.22,2.09,1.82,2.09,1.82.35-.15.77-.82.85-1.69.05-.49.19-.62.42-.68.35-.08.42.21.68.47.26.26.83.64,1.4.26.32-.21.51-.79.62-1.4.41,1,1.37,2.28,4.76,4.17,2.88,1.61,6.54.89,7.17.73.63-.16.7-.42,1.28.91.57,1.33-1.2,2.61-1.8,3.91-.3.66-.35,1.58-.05,2.42,1.28,3.63,5.18,1.33,5.84.99s1.28-.18,2.03,1.64c.38.92.34,1.64-.25,2.26-.44.47-1.62.88-3.45.47-.52-.11-1.08.07-1.44.51-.52.64-.1,1.08-.1,1.08,0,0,.1-.37.74-.41.39-.03.31.36.9.59.4.16-.78.64-1.26,1.46-.26.45-.41,1.34-.1,1.54,0,0,.34-.91,1.56-.92.99.02.78.92,1.97.51,0,0-.65-.41-.62-.96.02-.37.48-.77,1.06-.69.58.08.86.78,1.1,1.36s.78.87,1.51.45c.2-.12-.58-.02-.65-.74-.03-.27.08-.42.23-.55.16-.13.31-.5.31-.89s-.09-1.1-.16-1.56c-.15-1,1.07-1.12,1.04-.68-.03.44.62.65,1.1.51.39-.11,1.08-.61.92-1.11,0,0-.76.08-1.27-.27-.3-.21-.84-.84-1.05-1.41-.18-.49-.1-1.3.17-1.37.26-.08-.01.71.66,1.24.73.57,1.34.06,1.41,0,0,0-.65-.26-.89-.93-.05-.15-.23-.77.26-1.6.06-.09-.8.17-.83-.97-.02-.57.31-1.23.31-1.23-1.45-.07-.93,1.8-1.31,2.12-.56.46-1.64-1.14-.89-2.32.26-.4,1.09-1.06.46-2.18,0,0-1.87,1.48-2.69-.33-.19-.43-.22-1.22.24-1.64.53-.49,1.61-.4,2.09-.01,1.08.86,1.17,1.39,2.71,1.31.84-.04,1.17-.92,1.51-1.47.34-.55.74-.34,1.07-.29,1.06.19,1.42-.16,1.71-.55,0,0-.83-.04-1.19-.91Z"/>
        <path class="cls-2" d="M115.2,93.17s.92-.59,1.39-.88c2.16-1.3,1.72-3.14,1.49-3.47.09.08-.34.38-.8.57-.45.18-.89.25-1.04-.21-.1-.32.41-.87.13-1.11,0,0-.45.4-.81.04-.33-.33-.01-.68.11-.84s.65-.61.94-1.18.13-1.84-.45-2.06c0,0-.33,1.32-1.2,1.41-.42.05-.81-.18-1.07-.42-.26-.23-.43-.71-.47-.91-.15-.74.19-2.02.19-2.02-.29-.29-.87,0-1.26.48-.19.25-.37.69-.63.81-.39.18-.68-.49-.68-.49-.23-.05-.41.33-.54.62s-.59.59-.88.56c-.68-.05-.42-1.14-.44-1.2,0,0-.59.31-1.12,1.03-.08.1-.2.06-.45.13-1.07.29-1.52,1.28-1.64,1.93-.99,0-2.29.06-2.92.31-1.11.44-.6,1.23-.6,1.23,0,0-1.62.36-2.22,1.11-.6.75.07,1.24.07,1.24l.58.31s.1.54.47.77c.36.23.75.05.75.05,0,0,.3.6.99.54-.09-.08-.27-.34-.3-.53-.05-.34.03-.71.03-.71,0,0,.18-.63.85-.61.67.02,1.54,1.03,1.24,1.87-.12.32-.82,1.52-2.52,1.72-.87.11-1.2.16-1.09.73.12.57.59.79,1.19.76.61-.03.97-.27.97-.27,0,0,.13.47-.16,1.14-.07.16-.15.3-.23.44,0,0,0,0,0,0-.05.09-.1.21-.14.3-.07,0-.15-.03-.22-.08-.09-.06-.15-.13-.22-.21-.13-.14-.28-.23-.6-.3-.74-.19-1.35.16-1.57.26-.11.51-.07,1.22.41,1.62.2.17.46.23.46.23l-.52.02s-.76.08-1.42.41c-1,.49-1.05,1.05-1.08,1.24.15.22.4.4,1.04.49.48.07.96,0,1.23-.09.55-.18,1.93-.81,1.93-.81,0,0-1.67,1.56-2.11,2.06-.38.44-.43,1.02-.45,1.2.28.2,1.4.73,2.36.08.61-.41,2.29-1.69,2.31-1.7l.96-.8-.77.98s-.91,1.53-1.17,1.99c-.65,1.14-.55,1.99-.56,2.08.45.14,1.38-.04,1.72-.23.61-.35.97-.95,1.13-1.61.15-.65.29-1.18.3-1.21l.27-.94v.98s.21,2.41,1.72,2.84c1.84-.14,1.54-4.44,1.54-4.44l.3,1.11s.31,1.01,1.16,1.98c.79.9,1.68.99,2.01,1.05.08-.28.28-.76,0-1.52-.12-.34-.67-1.23-.97-1.55.01,0,1.11.75,1.97,1.12.81.35,1.78.15,1.89.02.19-.21,0-.89-.84-1.74-.71-.7-1.36-1.4-1.37-1.41l-.69-.72.85.52s.37.21.9.53c.89.55,1.71.35,2.02.25.26-.09.42-.2.48-.27-.16-.28-.82-1.39-1.69-1.85-.58-.31-.98-.45-.99-.45l-.95-.33s2.25.67,3.24-.23c.18-.16.23-.35.25-.44-.21-.14-.95-.54-1.87-.78-.33-.09-.89-.25-1.1-.27.42.04.74-.06,1.07-.15.91-.32,1.34-.97,1.28-1.17,0,0-1.26.15-1.53-.27-.26-.41.12-.64.12-.64ZM103.58,88.34c.23-.52.15-.93-.23-1.05.55-.48,1.89-.43,1.89-.43,0,0-.79.44-1.67,1.48ZM111.46,86.65c0,.07-.02.13-.03.19-.01.06-.03.12-.05.18-.02.06-.04.11-.06.17l-.05.1s-.02.04-.03.06v.02s-.05.06-.07.09l-.02.03s-.03.04-.05.06l-.14.14s-.04.03-.07.05l-.13.07s-.08.04-.12.04l-.81.19.74-.4s.03-.02.03-.02c.01,0,.02-.02.03-.02l.05-.04s.01-.02.02-.03c0,0,.02-.02.02-.02l.09-.14s.02-.03.02-.04v-.03s.03-.04.04-.06v-.03s.02-.03.03-.04l.02-.08s.02-.1.03-.15c0-.05.02-.1.02-.16,0,0,0-.01,0-.02-.03-.01-.05-.03-.08-.04-.07-.03-.13-.06-.2-.09h-.03c-.06-.03-.12-.06-.18-.07-.07-.02-.14-.04-.21-.06-.07-.02-.15-.03-.22-.04-.07-.01-.14-.02-.21-.03h-.11s-.04,0-.06,0h-.05s-.1,0-.15,0h-.08s-.03.01-.05.01h-.05s-.02.01-.04.01c-.02,0-.04,0-.05.01l-.11.03s-.03.01-.05.02l-.04.02s-.06.02-.08.04l-.04.02s-.03.02-.05.03c-.06.04-.11.08-.16.12-.02.02-.04.04-.06.05l-.02.02s-.05.05-.07.07c-.05.06-.1.11-.14.17-.09.13-.16.25-.21.37l-.17.38.82.51c.06.04.13.09.19.13.06.05.11.1.17.15.05.05.11.11.15.17.04.04.07.09.1.14l.06.08c.03.05.07.11.09.17l.02.03s.02.05.03.07l.04.11c.02.05.03.11.05.17v.07s.02.06.02.09c0,.06.01.11.01.17v.05c0,.07,0,.13-.02.21l-.02.11s-.02.06-.02.09l-.07.25s-.03.1-.05.15l-.02.07c-.02.08-.05.16-.08.23l-.03.06c-.02.05-.04.11-.07.16-.03.07-.07.15-.12.22-.02.03-.04.07-.07.11-.02.03-.03.04-.04.06-.02.03-.03.04-.06.07l-.52.54.13-.72s.01-.08.02-.12c-.01.02-.03.03-.04.05-.03.04-.07.08-.1.11l-.08.07s-.08.06-.12.09l-.16.1-.15.08s-.07.04-.11.06l-.1.05s-.08.04-.12.06l-.16.07s-.08.03-.12.05l-.04.02c-.06.02-.11.04-.17.06-.11.04-.22.07-.34.09l-.06-.19c.1-.04.21-.09.31-.14.05-.02.1-.05.15-.07l.07-.04s.05-.03.08-.04l.15-.08s.05-.03.08-.05l.07-.04.05-.03s.06-.03.08-.05l.27-.19s.05-.04.07-.06l.06-.06s.05-.05.06-.08c.03-.04.05-.08.08-.12.02-.04.04-.08.05-.12.02-.04.03-.08.03-.13,0-.04.01-.09.01-.13,0-.04,0-.09,0-.11l-.15-.8.54.6s.03.04.05.06c.01.02.03.04.04.06.03.04.06.08.08.12l.02.04.04-.1s.03-.08.05-.13l.08-.26s.01-.04.02-.06l.02-.1s.02-.09.02-.14v-.06s0-.08,0-.12c0-.03,0-.05,0-.08v-.08s-.02-.06-.03-.09l-.03-.1s-.01-.04-.02-.06v-.03s-.04-.08-.06-.12c-.01-.02-.02-.04-.03-.07l-.02-.04s-.04-.08-.07-.12c-.03-.05-.06-.09-.09-.13l-.03-.05c-.09-.12-.18-.22-.27-.3l-.7-.66-.08.17.05-.61c.01-.15.05-.31.12-.47.03-.07.07-.15.11-.22.02-.03.04-.07.07-.11.04-.05.06-.08.08-.1l.02-.03s.04-.04.06-.07l.1-.08s.05-.04.08-.06l.03-.02s.08-.05.12-.08l.04-.02s.06-.03.09-.04l.12-.05s.06-.02.1-.03l.08-.02s.06-.01.1-.02h.07c.06-.02.12-.03.19-.03h.05s.06,0,.08,0h.13c.09,0,.18.02.27.03.09.01.18.03.27.06.08.02.17.05.25.08.08.03.17.06.25.1.08.04.16.07.23.12.08.04.15.09.23.14l.11.08-.02.12Z"/>
      </g>
    </g>
  </g>
</svg>