<svg xmlns="http://www.w3.org/2000/svg" viewBox="0 0 488.08 700"><defs><style>.cls-1{fill:#fff}.cls-1,.cls-10,.cls-11,.cls-2,.cls-3,.cls-4,.cls-6,.cls-7,.cls-8,.cls-9{fill-rule:evenodd}.cls-2{fill:#fcb850}.cls-3{fill:#231f20}.cls-4{fill:#84424a}.cls-6{fill:#edf4f7}.cls-7{fill:#63717a}.cls-8{fill:#ffc10e}.cls-9{fill:#5f6b72}.cls-10{fill:#5a646a}.cls-11{fill:#555e63}</style></defs><g id="Layer_2" data-name="Layer 2"><g id="Layer_2-2" data-name="Layer 2"><path d="M214 249c-3.54-4.13 0-8.54 2.36-9.72-4.12 1.18-3.72-1.39-7.16 1.81-.5-5.64-.16-6.82 5.26-7.7s15.45-2.07 19.58-1.48 5.86.59 7.36 1.18l-1.76-10c.88-5-1.18-24.76-1.18-24.76-8.55-2.06-18.56-10.31-23.28-16.79s0-3.24-9.72-5-20.33-.88-31.82-7.07-20.92-10.61-21.21-35.65.88-30 4.12-33.29c.3-10.9 4.71-26.22 6.48-29.17s5.89-7.36 9.14-10.9c-7.66 1.77-17.39 1.18-16.8-6.77s2.65-13.26 7.07-16.21c-5.59-1.18-9-1.86-12.66.59.78-4.32 4.12-8.74 6.87-9.52.39-4.72 3.14-9.83 7.07-11.4-3.14-4.32-5.11-11.78.39-13.36s3.64-1.37 6.58.1 5.22 1.53 6.89.47a4.74 4.74 0 0 1 4.6-.47c1.48.59 2.86-.13 5-1.47 10.9-6.77 11.2 2.36 10.61 6.78 5 1.18 5.3 5 5 8.54 5 5 2.36 11.49-2.07 7.37-.88 1.77-2.35 3.83-.58 6.48 3.53 5.3 4.12 21.21 3.83 30.35s7.21 24.89 11.78 29.46c6.48 6.48 20.92 7.36 32.11 6.77s20.92-3.83 28.29-15.31 11.78-18 15.61-24.46 17.84-25.19 25.93-30.64c14.43-9.72 44.69-10.5 64.18 13.9-2.31 0-1.43 1.12-5.85-1.23.89 5.89-2.35 10.31-7.36 8.54s-9.4-2.53-7.06 4c-10-3.45-16.22-4.33-12.68 2.74 3.13 6.26 4.42 8.84 3.83 14.43 28.25 18.6 27.1 52.49 2.65 67.86-3.83-4.13-6.92-5.66-9.2 1-4.06-2.18-6-2-8.11-1.22 2.87 10.53-4.07 20.15-11.35 24.33-.8-5.85-4.44-7.06-6.89-8.52a46.6 46.6 0 0 1-11 12.1c-2.94 2.36-5 5.19-3.24 8.84-4.71-3.24-4.71-4.12-5.6-5.6-4.71 2.36-9.06 3.83-10.57 7.37-2.1-.3-3 1.54-6.08-.41-4 5.12-6.35 6.23-9.73 7.3L270 180.7c-3.56 5.57-7.68 8.8-16.22 10 1.17 10.9 1.47 24.16.88 28.88 4.12-3.24 7.07-5.3 10.31-2.95-3.53 3.53-11.68 13.51-14.73 20.62-.88 2.07-3.83 2.07-6.77 2.07s-11.2 3.83-19.74 2.65c-2.66 2.36-5 3.53-8 5.3s-1.73.57-1.73 1.73" class="cls-1"/><path d="M244 650.55c124.86 0 162.15-20.28 173.5-24.33 5.68-5.67-4.05-9.73-12.16-14.59v-46.22c0-18.64 50.27-8.91 80.27-27.56 0 0-12.16 19.46-25.95 29.19 10.54 9.73 25.95 31.62 28.38 36.48 0 0-31.62-17-44.59-13 8.15 3.27 19.55 11.38 19.55 17.87V653c-31.67 28.35-118.42 47-219 47S56.75 681.35 25.13 653v-44.61c0-6.49 11.35-14.6 19.46-17.84-13-4.06-44.59 13-44.59 13 2.43-4.86 17.84-26.75 28.38-36.48-13.79-9.73-25.95-29.19-25.95-29.19 30 18.65 80.27 8.92 80.27 27.56v46.22c-8.11 4.86-17.84 8.92-12.17 14.59 11.36 4 48.65 24.33 173.51 24.33Z" class="cls-2"/><path d="M82.7 611.63c-8.11 4.86-17.84 8.92-12.17 14.59l3.65 1.62c-18.64-6.48-44.59-15.4-49.05-19.45 0-6.49 11.35-14.6 19.46-17.84 9.73-4.87 38.11-15.81 38.11-27.55v48.65ZM405.38 611.63c8.11 4.86 17.84 8.92 12.16 14.59l-3.65 1.62c18.65-6.48 44.6-15.4 49.06-19.45 0-6.49-11.35-14.6-19.46-17.84-9.73-4.87-38.11-15.81-38.11-27.57zM86.25 671.37l-5.56-1.61 6.36-21.89-8.03-2.34 1.36-4.7 21.63 6.28-1.36 4.71-8.04-2.34zM113.94 665.35l-2.4 12.19-5.68-1.12 5.35-27.18 5.68 1.12-2.03 10.29 10.61 2.09 2.02-10.3 5.68 1.12-5.35 27.18-5.68-1.12 2.4-12.19zM164.65 662.89 150.07 661l-.75 5.77 13.39 1.74-.63 4.86-13.39-1.73-.92 7.11 15.23 1.98-.63 4.85-20.85-2.7 3.56-27.47 20.2 2.63zM192.78 688.26l1.44-27.66 5.3 5.06-.32 6.05 6.78.35c2.28.12 4.13-.67 4.25-2.87s-1.47-3.05-4.09-3.18l-6.62-.35-5.3-5.06 13.44.69c6.78.36 8.3 4.68 8.15 7.53-.21 4-2.5 5-3.68 5.49 3.32 1.44 4.06 4.19 3.93 6.92a8.07 8.07 0 0 1-2.69 5.58c-1.66 1.46-3.21 2.35-8.87 2.05zl5.8-4.5 7.09.37c2.81.15 4.49-1 4.64-3.81.12-2.43-1.91-3.46-4-3.57l-7.36-.38-.38 7.39-5.8 4.5ZM235.77 679.34l7.06.04-3.36-10.98h-.08zl-1.57 4.77-1.97 5.69-6.09-.04 10.05-27.63 6.67.05 9.58 27.76-6.28-.05-1.74-5.72-10.22-.06zM279.73 661.38l5.4-.2 1.06 27.67-5.78.22-12.05-19.3h-.08l.76 19.74-5.4.21-1.06-27.68 6.09-.23 11.73 18.85.08-.01zM311.21 687.01l-5.76.49-1.91-22.72-8.35.7-.41-4.88 22.45-1.88.41 4.88-8.34.69zM336.71 673.69l6.99-.96-4.89-10.39-.07.01zl-.89 4.95-1.13 5.91-6.04.83 6.03-28.78 6.61-.9 13.43 26.12-6.23.85-2.53-5.42-10.14 1.39zM392.47 674.27l-5.28 1.13-4.84-22.63-.07.02-.22 23.71-5.54 1.19-9.78-21.58-.08.02 4.84 22.63-5.28 1.13-5.79-27.09 8.26-1.76 9.47 20.3.07-.02.27-22.38 8.18-1.75zM407.74 661c.52 1.45 2.18 4 7 2.4 2.6-.87 5.29-2.45 4.36-5.23-.68-2.05-2.84-1.94-5.84-1.68l-3 .28c-4.57.42-9 .83-10.91-4.95-1-2.93-1.11-8.61 7.42-11.45 8.05-2.67 12 1.88 13.07 5.09l-5.27 1.75c-.54-1.12-1.9-3.76-6.7-2.16-2.09.69-4.32 2.29-3.53 4.66.68 2 2.51 1.93 3.7 1.83l6.93-.56c3.87-.31 7.65.06 9.23 4.78 2.62 7.91-5.2 11.27-7.51 12-9.59 3.19-13.07-1.79-14.15-5.05l5.27-1.75ZM325.12 258.13l91.61 73.79c-21.07 25.13-38.1 55.94-38.1 97.29a144 144 0 0 0 40.54 100.53l-32.44 60c-31.62 0-95.67 20.27-142.69 69.72C197 610 133 589.74 101.34 589.74l-32.43-60a144 144 0 0 0 40.54-100.53c0-41.35-17-72.16-38.1-97.29L163 258.13Z" class="cls-3"/><path d="M167.78 278.32 97 336.13c18 24.07 32.45 57.26 32.45 93.19s-16.35 77.76-36.66 101.27L113 570.37c29 0 91.63 21.31 131 62 38.79-40.67 102-62 131-62l20.26-39.78c-20.31-23.51-36.66-65.33-36.66-101.27s14.5-69.12 32.45-93.19l-70.8-57.81Z" class="cls-1"/><path d="M351 429.37c0-33.87 13.54-68 30.29-91.64L318.43 286H169.62l-62.87 51.72C123.51 361.4 137 395.5 137 429.37s-16 78.33-35.14 101.55L117.48 563c28 0 90.09 21.72 126.54 59 35.66-37.3 98.5-59 126.54-59l15.62-32.07C367.09 507.7 351 463.24 351 429.37" class="cls-2"/><path d="M386.18 530.92C367.09 507.7 351 463.24 351 429.37s13.54-68 30.29-91.64l-50.09-41.21v274.16c15.58-5 29.6-7.69 39.36-7.69zM214.83 286v312.4A175.3 175.3 0 0 1 244 622a167.6 167.6 0 0 1 29-23.64V286ZM106.75 337.73C123.51 361.4 137 395.5 137 429.37s-16 78.33-35.14 101.55L117.48 563c9.73 0 23.6 2.67 39 7.64V296.8l-49.76 40.93Z" class="cls-4"/><path d="M210.8 409.75c17.83-8.92 33.24-17 33.24-45.41 0-41.34-34-45.4-52.7-45.4h-48.65v5.68h12.16v183.23h-12.16v4.86h48.65c25.13 0 55.13-16.21 55.13-52.69 0-27.57-17-42.16-35.67-50.27m-4.06 89.18c0 7.7-4.05 8.92-15.4 8.92v-93.24c11.35 0 15.4 1.22 15.4 8.92zm0-99.72c0 7.7-4.05 8.92-15.4 8.92v-83.51c11.35 0 15.4 1.21 15.4 8.92zM294.31 326.24c0-3.24 2.43-4.67 5.27-4.67 18.13 0 30.95 29.67 35.41 69.9h6.34V316.1h-6.08l-11.49 13.08c-7-9.4-15.33-14.82-24.18-14.82-30 0-46.44 45.43-46.44 101.47s16.47 101.47 46.44 101.47c27 0 41-36.73 43.93-85h-7.28c-2.67 44.14-14.12 77.83-36.65 77.83-2.84 0-5.27-2.23-5.27-5.88v-178Z" class="cls-1"/><path d="M344.57 567.03v-42.26H143.5v42.26z" class="cls-3"/><path d="M200.26 529.66h-7.8L180.93 562h7.12l2.25-6.67h11.94l2.07 6.67h7.35l-11.4-32.35Zm-8.16 20.09 4.15-12.75h.09l4 12.79Z" style="fill-rule:evenodd;fill:#e6eef2"/><path d="M244.37 562.01h-6.76v-32.35h23.02v5.72h-16.26v7.3h14.24v5.72h-14.24zM307.4 540.25c-.54-1.94-1.58-5.59-7.16-5.59-3.25 0-8 2.16-8 11.31 0 5.82 2.3 11 8 11 3.74 0 6.35-2.12 7.16-6.08h6.76c-1.35 7-6 11.94-14.06 11.94-8.6 0-14.78-5.82-14.78-17s6.54-17.07 14.87-17.07c9.69 0 13.61 6.66 14 11.44Z" class="cls-6"/><path d="M161.75 19.36c2.43-2.43 7.29-3.24 14.18-3.24 9.74 0 28.38 7.7 28.38 38.1 0 9.73-3.65 20.68 13.78 41-1.21 2.43-7.29-.41-12.56-7.7-1.22 5.27-1.62 10.54 3.65 15.4-5.27 0-11-.4-14.19-5.68-3.25 2.84-8.92 3.66-12.57.41-2.43 2-8.92 11.76-9.32-.81-.41-8.11-11.76-5.27-11.76-15.81 0-15.4 17-21.08 17-30 0-2-3.25-3.24-3.25-5.27 0-8.92 7.71-3.24 7.71-14.19 0-8.92-7.3-9.32-19.87-10.13-1.62 0-2.84-.81-1.21-2Z" class="cls-3"/><path d="M165.39 33.14s-1.62-4.45-6.07-4.45c-3.66.81-7.71 2-8.11 8.1 3.85-4 8.91.41 14.18-3.65M172.29 31.67a2.58 2.58 0 1 0-2.58-2.58 2.59 2.59 0 0 0 2.58 2.58M166.21 36.79c-3.65 0-9.73 5.68-9.73 16.63 0 4.45 3.64 7.29 7.7 1.21 3.24-6.08 9.32-17.84 2-17.84Z" class="cls-3"/><path d="M155.66 102.47c-3.24 6.89-2.83 19.86-2.83 34.86 0 42.56 54.32 35.67 60.81 41.35 5.27 5.67 10.54 16.21 22.29 17-4.46-6.09-13.37-22.71-23.92-24.33-27.16-4-53.1-13-53.1-34.46 0-6.89-.81-22.29.81-33.64.81-4.46-2.84-2.43-4.06-.81Z" class="cls-7"/><path d="M224.34 100.21a10.9 10.9 0 0 0-.57-3.42c15.4 2 35.27 4.06 43.38-3.24 23.1-19.46 33.24-71.76 71.75-71.76 13.78 0 29.59 4.46 43 19.87-7.3 0-24.32-14.6-42.57-14.6-34.05 0-49.45 62.43-69.72 71.35-7.3 3.65-31.22 7.3-41.35 4.46l-3.89-2.66Z" class="cls-3"/><path d="M162.56 5.58c8.92-4.87 8.1 1.62 15-1.22 5.27-2 4.05 2.43 11.75-2.43C193-.1 199-1.72 197.42 10c4.46-.41 5.27 3.24 5.27 8.51C205.53 21 206.74 29.9 199 23c-4.46-4.46-8.1-11.35-33.65-11.35-3.24 0-6.89-3.65-2.83-6.08ZM164.58 99.22c-1.62 11.35-2 33.25-.81 38.51 6.49 22.3 30 18.65 34.87 24.73 2 3.25 11.35 5.27 8.51-1.22-8.92-17.43-24.73-4.05-32-23.91-4.05-11.35.41-18.65.41-25.54s-6.89 0-6.89-10.94c-1.22-1.22-4.06-3.66-4.06-1.63ZM223.35 102.52c-1.21 1-3 .77-2.82 2.38 2.43 6.08 14.19 5.27 17 16.62 2 4.86 8.51 12.57 13.38 9.32-4.05-6.48-2.84-14.59 6.49-14.59 4.05 0 13 8.92 12.56 2-.4-5.68 9.73 2 9.33-4.06-.41-7.3 8.11-2.83 8.91-8.51s8.92-10.13 14.6-9.73c-8.92-9.73-28.78 12.16-53.51 12.16-6.08 0-14.69-1-19.42-4 0 0-4.56-.37-6.54-1.66ZM287.82 90.31c8.51-17 28-55.14 46.62-58 2.43 4.45-.41 7.29-8.51 12.16-10.54 6.89-23.52 22.7-33.65 42.56 0 0-2 1.62-4.46 3.25Z" class="cls-8"/><path d="M304.44 75.3C313 61.12 334 27.87 376.19 43.68c-.81 4.06-2.43 7.71-11.35 4.06-2.83-1.22-5.27 2-3.24 5.27-2 .81-15.81-6.9-13.78.41 2 4.45 7.29 13.37 2.84 21.88-9.73-6.89-15-6.48-27.57-6.48-5.68 0-12.57 6.48-18.65 6.48M202.69 135.3c.41 11.35 8.51 13.78 14.19 16.22 8.92 4.45 32 14.59 32 23.51 0 4.46.82 14.19.82 15.4 1.62.81 13.37.81 20.26-9.73l3.65 2.44s7.3-2.44 9.73-7.3l6.08.41c.81-2.84 7.7-7.71 11.35-7.3 0 0 .41 2.43 3.65 3.65 0-6.49 13.78-13.79 15.41-19.06 2.83.81 9.32 4.46 6.89 8.52 3.24-2 15-12.16 11.35-24.33 0 0 6.49-2.43 8.11 1.22 0 0 2-4 3.24-4.46 0 0 5.67.41 5.27 3.24 5.27-3.24 6.49-10.94 6.49-23.51 0-11.35-10.14-31.21-45.41-30-.81 2.43 2 4.46 6.49 4.87s13.78 4 17.83 10.94c-10.94-5.67-34.45-6.89-38.51 3.25 2.84-.41 13.38.81 17.84 7.7 0 0-7.7-1.22-9.32-2.43a8.8 8.8 0 0 0 2.83 7.7c-3.65-.41-6.89-2.84-11.75-5.68-1.22-.81-2.84 2.84 0 5.27 4.46 3.65 11.75 11.76 14.19 19.46 0 0-1.62 4.87-4.87 0-.4-1.62-10.54-13.37-15-16.62s-7.3 1.62-2.83 5.27c2 1.62 12.16 11 11.75 16.62 0 0-.41 7.3-5.68.41-4.43-6.08-11.74-11.76-15.74-13.78-6.08-3.25-5.27 1.62-2 4.86 0 0 8.92 10.13 10.54 15 1.22 2.43-2.84 4.46-6.08.81-4.06-5.27-15.41-15.81-21.08-19.46-6.08-3.65-8.11.41-3.65 4.86 4 4.46 13 15.41 13 18.65 0 2.84-7.7 4.87-13 4.87-15 0-36.89-9.33-50.67-19.06a14.3 14.3 0 0 0-7.3-2.43ZM361.2 77.74c-4.46 2.43-3.65 5.67-.82 8.91 3.65 4.46 10.54 17 6.09 40.14 9.32-8.92 10.13-35.68-5.27-49.05M239.17 199c0 4.86 2.44 17 1.63 21.48-1.63 2.43-1.22 5.27 4.46 3.65 0 0 .8-14.59-1.22-26l-4.87.82Z" class="cls-3"/><path d="M246.88 197.73s2.43 26 1.21 31.62l-5.27 4.06c-9.32-2-19.46 0-28.38 0-4.05 0-7.29 3.64-5.26 7.7 0 0 4.46-3.65 8.1-1.62-1.62.8-6.48 4-3.24 8.91 1.22-2.84 4.46-1.62 8.52-6.48 7.7 0 18.24-3.25 23.91-2.84 2.84 0 5.27-5.27 5.68-7.3 0 0 6.48-10.54 10.54-13.37 4.46-2.44-2-2-4.46-.82l-4.46 3.65c.81-4.86 0-17.43-1.22-24.32 0 0-6.89-2.84-5.67.81M405.38 611.63c8.11 4.86 17.84 8.92 12.16 14.59l-3.65 1.62c18.65-6.48 44.6-15.4 49.06-19.45 0-6.49-11.35-14.6-19.46-17.84-9.73-4.87-38.11-15.81-38.11-27.57z" class="cls-3"/><path d="M213.64 178.68c-6.49-5.68-60.81 1.21-60.81-41.35 0-15-.41-28 2.83-34.86 1.22-1.62 4.87-3.65 4.06.81-1.62 11.35-.81 26.75-.81 33.64 0 21.49 25.94 30.41 53.1 34.46 10.55 1.62 19.46 18.24 23.92 24.33-11.75-.82-17-11.36-22.29-17Z" class="cls-7"/><path d="M212 171.38c-27.16-4-53.1-13-53.1-34.46 0-6.89-.81-22.29.81-33.64.81-4.46-2.84-2.43-4.06-.81-3.24 6.89-2.83 19.86-2.83 34.86 0 42.56 54.32 35.67 60.81 41.35 5.27 5.67 10.54 16.21 22.29 17-4.46-6.09-13.37-22.71-23.92-24.33Z" class="cls-7"/><path d="M213.64 178.68c-6.49-5.68-60.81 1.21-60.81-41.35 0-15-.41-28 2.83-34.86 1.22-1.62 4.87-3.65 4.06.81-1.62 11.35-.81 26.75-.81 33.64 0 21.49 25.94 30.41 53.1 34.46 10.55 1.62 19.46 18.24 23.92 24.33-11.75-.82-17-11.36-22.29-17Z" class="cls-9"/><path d="M212 171.38c-27.16-4-53.1-13-53.1-34.46 0-6.89-.81-22.29.81-33.64.81-4.46-2.84-2.43-4.06-.81-3.24 6.89-2.83 19.86-2.83 34.86 0 42.56 54.32 35.67 60.81 41.35 5.27 5.67 10.54 16.21 22.29 17-4.46-6.09-13.37-22.71-23.92-24.33Z" class="cls-9"/><path d="M213.64 178.68c-6.49-5.68-60.81 1.21-60.81-41.35 0-15-.41-28 2.83-34.86 1.22-1.62 4.87-3.65 4.06.81-1.62 11.35-.81 26.75-.81 33.64 0 21.49 25.94 30.41 53.1 34.46 10.55 1.62 19.46 18.24 23.92 24.33-11.75-.82-17-11.36-22.29-17Z" class="cls-10"/><path d="M212 171.38c-27.16-4-53.1-13-53.1-34.46 0-6.89-.81-22.29.81-33.64.81-4.46-2.84-2.43-4.06-.81-3.24 6.89-2.83 19.86-2.83 34.86 0 42.56 54.32 35.67 60.81 41.35 5.27 5.67 10.54 16.21 22.29 17-4.46-6.09-13.37-22.71-23.92-24.33Z" class="cls-10"/><path d="M213.64 178.68c-6.49-5.68-60.81 1.21-60.81-41.35 0-15-.41-28 2.83-34.86 1.22-1.62 4.87-3.65 4.06.81-1.62 11.35-.81 26.75-.81 33.64 0 21.49 25.94 30.41 53.1 34.46 10.55 1.62 19.46 18.24 23.92 24.33-11.75-.82-17-11.36-22.29-17Z" class="cls-11"/><path d="M212 171.38c-27.16-4-53.1-13-53.1-34.46 0-6.89-.81-22.29.81-33.64.81-4.46-2.84-2.43-4.06-.81-3.24 6.89-2.83 19.86-2.83 34.86 0 42.56 54.32 35.67 60.81 41.35 5.27 5.67 10.54 16.21 22.29 17-4.46-6.09-13.37-22.71-23.92-24.33Z" class="cls-11"/><path d="M212 171.38c10.55 1.62 19.46 18.24 23.92 24.33-11.75-.82-17-11.36-22.29-17-6.49-5.68-60.81 1.21-60.81-41.35 0-15-.41-28 2.83-34.86 1.22-1.62 4.87-3.65 4.06.81-1.62 11.35-.81 26.75-.81 33.64 0 21.49 25.94 30.41 53.1 34.46Z" style="fill-rule:evenodd;fill:#4f565b"/><path d="M158.91 136.92c0-6.89-.81-22.29.81-33.64.81-4.46-2.84-2.43-4.06-.81-3.24 6.89-2.83 19.86-2.83 34.86 0 42.56 54.32 35.67 60.81 41.35 5.27 5.67 10.54 16.21 22.29 17-4.46-6.09-13.37-22.71-23.92-24.33-27.16-4-53.1-13-53.1-34.46Z" class="cls-3"/><path d="M158.91 136.92c0-6.89-.81-22.29.81-33.64.81-4.46-2.84-2.43-4.06-.81-3.24 6.89-2.83 19.86-2.83 34.86 0 29.45 26 35.22 44.16 37.86 2.15-1.86 4.28-3.59 6.4-5.3-23.77-4.62-44.48-13.78-44.48-33Z" style="fill-rule:evenodd;fill:#404347"/><path d="M158.91 136.92c0-6.89-.81-22.29.81-33.64.81-4.46-2.84-2.43-4.06-.81-3.24 6.89-2.83 19.86-2.83 34.86 0 17.68 9.4 26.76 20.83 31.82q3.26-3 6.54-6.08c-12.58-5.51-21.29-13.71-21.29-26.15" style="fill-rule:evenodd;fill:#38393c"/><path d="M159.72 103.28c.81-4.46-2.84-2.43-4.06-.81-3.24 6.89-2.83 19.86-2.83 34.86a34.8 34.8 0 0 0 4.55 18.14c1.88-1.73 3.76-3.49 5.65-5.25a22.9 22.9 0 0 1-4.12-13.3c0-6.89-.81-22.29.81-33.64" style="fill-rule:evenodd;fill:#2d2d2f"/><path d="M159.72 103.28c.81-4.46-2.84-2.43-4.06-.81-2.7 5.74-2.86 15.73-2.84 27.56 2-1.91 3.94-3.84 5.9-5.77a150 150 0 0 1 1-21Z" class="cls-3"/><path d="M253.77 221.24c.81-4.86 0-17.43-1.22-24.32z" class="cls-11"/></g></g></svg>