<svg xmlns="http://www.w3.org/2000/svg" width="933.333" height="933.333" viewBox="0 0 933.333 933.333"><defs><clipPath id="a" clipPathUnits="userSpaceOnUse"><path d="M0 1080h1080V0H0Z"/></clipPath></defs><g clip-path="url(#a)" transform="matrix(1.33333 0 0 -1.33333 -253.333 1186.667)"><path d="M0 0c192.773 0 350 157.227 350 350S192.773 700 0 700s-350-157.227-350-350S-192.773 0 0 0" style="fill:#000;fill-opacity:1;fill-rule:evenodd;stroke:none" transform="translate(540 190)"/><path d="M0 0c184.495 0 334.97 150.475 334.97 334.97S184.495 669.939 0 669.939-334.97 519.465-334.97 334.97-184.495 0 0 0" style="fill:#fff;fill-opacity:1;fill-rule:evenodd;stroke:none" transform="translate(540 205.03)"/><path d="M0 0c176.61 0 320.655 144.045 320.655 320.655C320.655 497.266 176.61 641.31 0 641.31c-176.611 0-320.655-144.044-320.655-320.655S-176.611 0 0 0" style="fill:#e1061b;fill-opacity:1;fill-rule:evenodd;stroke:none" transform="translate(540 219.345)"/><path d="M0 0c121.421 0 220.453 99.032 220.453 220.453S121.421 440.906 0 440.906s-220.453-99.031-220.453-220.453S-121.421 0 0 0" style="fill:#fff;fill-opacity:1;fill-rule:evenodd;stroke:none" transform="translate(540 319.547)"/><path d="M0 0a205 205 0 0 1 18.204-6.12 62 62 0 0 0-.312 6.208c0 17.557 7.384 33.39 19.212 44.569L25.362 58.17C9.765 43.702-.001 23.035-.001.088Zm-68.069 62.874c7.897 10.202 15.034 21.387 21.529 32.441 8.776 14.935 16.745 30.468 23.818 46.281 10.309 23.045 20.459 46.11 29.535 69.676 8.387 21.778 15.881 44.018 22.249 66.471 3.528 12.441 6.391 24.814 11.643 36.696 6.295 14.243 15.741 26.939 29.35 34.956 9.291 5.473 18.416 8.02 29.06 8.863 24.678 1.957 48.665-9.573 63.606-29.117l2.3-3.008c9.825-1.225 20.166-3.542 29.658-5.222-16.352-8.232-26.715-14.951-33.506-28.474-5.161-10.279-3.044-19.419 1.721-29.376 4.513-9.43 8.759-18.989 11.534-29.094 5.657-20.603 4.211-44.01-5.744-63.102-23.424-44.92-75.38-65.204-122.578-75.779L59.73 76.885a79.3 79.3 0 0 0 19.483 2.417c42.54 0 77.254-33.552 79.129-75.629a205 205 0 0 0-17.902-6.961 62 62 0 0 1 .094 3.376c0 33.861-27.46 61.321-61.321 61.321a61 61 0 0 1-25.945-5.751l-36.977 49.403 9.188 4.91c25.78 13.778 49.961 32.106 66.769 56.317 11.484 16.545 17.339 34.188 12.886 54.189-1.571 7.053-4.476 13.593-7.445 20.144-5.009 11.049-9.323 20.96-10.654 33.218-2.283 21.025 12.065 38.982 30.595 47.086 7.213 3.155 15.054 4.942 23.058 5.704-10.954 9.6-25.396 14.963-40.158 13.792-7.93-.629-14.454-2.356-21.393-6.443-10.293-6.063-17.317-16.028-22.067-26.773-4.85-10.975-7.53-22.836-10.794-34.344-6.516-22.977-14.182-45.734-22.765-68.02-9.191-23.862-19.461-47.218-29.899-70.553-7.342-16.413-15.615-32.534-24.725-48.038-4.621-7.863-9.542-15.764-14.809-23.376Z" style="fill:#000;fill-opacity:1;fill-rule:evenodd;stroke:none" transform="translate(465.242 347.468)"/><path d="M0 0c-8.916.02-17.894-1.256-25.654-4.649-11.201-4.899-21.395-15.697-19.977-28.761 1.095-10.082 5.035-18.657 9.163-27.764 3.513-7.751 6.753-15.287 8.613-23.64 5.544-24.901-1.31-47.62-15.653-68.283-8.988-12.947-19.818-24.369-31.837-34.428 31.796 10.81 62.424 28.171 77.709 57.483 7.856 15.066 8.81 33.865 4.355 50.09C4.238-70.917.334-62.275-3.7-53.844c-7.213 15.072-9.319 29.703-1.571 45.131A63 63 0 0 0 0 0" style="fill:#e1061b;fill-opacity:1;fill-rule:evenodd;stroke:none" transform="translate(615.696 656.648)"/><path d="m0 0 13.453 3.198 13.431-56.503-13.453-3.198Z" style="fill:#fff;fill-opacity:1;fill-rule:evenodd;stroke:none" transform="translate(461.224 827.696)"/><path d="m0 0 13.702-1.86L5.89-59.409-7.812-57.55Z" style="fill:#fff;fill-opacity:1;fill-rule:evenodd;stroke:none" transform="translate(503.993 300.788)"/><path d="m0 0-2.67-12.23-16.64 3.629-9.702-44.496-13.509 2.948 9.702 44.494-16.406 3.578 2.667 12.231z" style="fill:#fff;fill-opacity:1;fill-rule:evenodd;stroke:none" transform="translate(629.999 825.695)"/><path d="m0 0 1.457-12.431-16.916-1.984 5.307-45.232-13.736-1.611-5.304 45.232-16.676-1.957-1.459 12.431z" style="fill:#fff;fill-opacity:1;fill-rule:evenodd;stroke:none" transform="translate(591.874 301.73)"/><path d="m0 0 25.08-25.393 8.91 8.791L18.635-1.039l32.29 31.861-9.712 9.843z" style="fill:#fff;fill-opacity:1;fill-rule:evenodd;stroke:none" transform="translate(700.823 720.91)"/><path d="M0 0c-1.894 2.078-4.715 2.49-8.102-.595l-5.206-4.744 6.838-7.505 5.937 5.409C2.156-4.984 1.894-2.079 0 0m15.56-14.953c-1.866 2.049-5.568 2.945-8.604.179L.581-20.583l8.291-9.099 6.228 5.675c4.094 3.73 2.326 7.007.46 9.054m-47.532 9.567 17.677 16.055c4.488 4.077 7.795 5.504 12.276 5.343 3.486-.125 7.455-1.497 10.197-5.253 3.285-4.502 4.243-8.817 2.299-13.431C16.079-.897 22.352-2 26.386-6.082c4.202-4.251 5.564-9.16 5.196-13.329-.487-5.534-4.037-10.158-8.198-13.981L7.143-48.316Z" style="fill:#fff;fill-opacity:1;fill-rule:evenodd;stroke:none" transform="translate(355.805 751.764)"/><path d="M0 0c-1.165 2.332-4.401 4.363-8.386 2.373l-7.158-3.575 5.351-10.716 6.981 3.486C1.41-6.125 1.164-2.332 0 0m-33.595 3.997 20.303 10.137c3.624 1.696 8.406 3.274 13.137 2.441 4.445-.782 9.587-4.107 12.007-9.816C14.516.474 14.229-6.353 9.015-12.089l24.841-15.15-14.613-7.296-20.839 13.519-3.246-1.62L4.72-41.787l-12.371-6.177z" style="fill:#fff;fill-opacity:1;fill-rule:evenodd;stroke:none" transform="translate(421.35 793.042)"/><path d="M0 0c-7.845 4.535-18.147 1.396-23.006-7.009-4.857-8.405-2.435-18.898 5.409-23.433 7.845-4.536 18.148-1.397 23.006 7.008S7.846-4.535 0 0m6.327 10.945c14.449-8.353 19.394-26.843 11.041-41.293C9.016-44.796-9.476-49.741-23.924-41.389S-43.317-14.545-34.965-.096-8.122 19.297 6.327 10.945" style="fill:#fff;fill-opacity:1;fill-rule:evenodd;stroke:none" transform="translate(680.644 790.632)"/><path d="M0 0c-3.539 2.903-7.868 5.391-12.367 4.766-2.546-.354-4.793-1.286-5.683-3.635-.807-2.131.215-4.23 2.314-5.335 1.79-.942 3.685-1.402 5.666-1.765 4.393-.805 8.592-1.833 12.535-3.984 1.694-.924 3.274-2.038 4.547-3.432 3.062-3.355 4.304-7.893 3.557-13.511-.701-5.268-3.923-9.525-8.013-12.231-3.964-2.623-9.266-3.983-13.99-3.896-8.38.152-14.85 3.864-20.9 9.222l8.57 10.476c3.901-3.289 8.544-6.435 13.669-6.41 2.112.011 3.948.44 5.413 1.604 1.349 1.072 1.744 2.603 1.474 3.873-.829 3.899-6.171 4.337-9.315 4.913-3.577.833-7.044 1.902-10.291 3.612-5.274 2.779-8.998 7.001-9.21 13.113-.371 10.716 7.478 18.698 17.812 20.139 8.68 1.211 16.968-1.964 22.759-7.815z" style="fill:#fff;fill-opacity:1;fill-rule:evenodd;stroke:none" transform="translate(542.827 821.573)"/><path d="M0 0c10.167-3.665 17.236-11.486 19.065-22.166L6.488-24.794C5.673-18.78 1.615-14.21-4.18-12.121c-8.524 3.073-18.276-1.78-21.569-10.913s1.241-18.756 9.765-21.828c6.819-2.459 14.118.174 18.195 5.08l8.88-8.491c-7.971-8.948-19.692-13.072-31.653-8.76-5.887 2.123-11.001 5.61-14.434 10.311-5.721 7.836-7.285 18.559-3.748 28.372C-33.083-2.649-15.7 5.66 0 0" style="fill:#fff;fill-opacity:1;fill-rule:evenodd;stroke:none" transform="translate(455.42 314.809)"/><path d="m0 0 9.819-22.376-12.662-5.557-9.743 22.202-33.21 22.567 14.875 6.527 18.773-13.017 3.171 22.648 14.849 6.517z" style="fill:#fff;fill-opacity:1;fill-rule:evenodd;stroke:none" transform="translate(658.253 289.515)"/><path d="M0 0c-1.136 0-2.229-.569-2.229-1.822 0-1.226 1.121-1.823 2.229-1.823s2.229.597 2.229 1.823C2.229-.569 1.135 0 0 0m0-9.305c-1.455 0-2.822-.739-2.822-2.327 0-1.451 1.5-2.328 2.822-2.328 1.321 0 2.821.877 2.821 2.328 0 1.588-1.367 2.327-2.821 2.327m-5.719 3.422c-1.287 1.212-2.029 2.839-2.029 4.657C-7.748 3.28-4.241 5.56 0 5.56s7.747-2.28 7.747-6.786c0-1.817-.742-3.444-2.028-4.656 1.934-1.327 2.862-3.401 2.862-5.807 0-4.74-4.205-7.327-8.58-7.327-4.376 0-8.581 2.587-8.581 7.327 0 2.405.928 4.479 2.861 5.806M-21.185-.65h-2.426v5.432h8.457v-23.174h-6.031zm46.224-10.036c2.738-.084 5.554 1.79 5.554 4.709 0 3.387-2.134 5.24-5.446 5.24-2.807 0-5.292-1.955-5.292-4.885 0-2.875 2.394-4.977 5.184-5.064m5.535-4.068c-2.294-1.983-5.262-2.671-8.369-2.249-5.827.792-9.685 5.129-9.685 11.023 0 7.087 5.667 12.221 12.627 12.221 9.371 0 14.219-7.635 13.538-16.374-.936-12.017-7.594-18.134-19.728-18.863l-.567-.034-.027 6.228.495.041c5.73.477 10.455 2.45 11.716 8.007m18.838-.015h7.771v10.588zm7.771-6.642H41.919l-.031 5.92L57.446 5.955h6.737v-20.724h5.672v-6.642h-5.672v-7.685h-7zm-80.597-1.654H8.278v-5.277h-31.692z" style="fill:#e1061b;fill-opacity:1;fill-rule:evenodd;stroke:none" transform="translate(383.84 603.591)"/></g></svg>