<svg xmlns="http://www.w3.org/2000/svg" width="933.334" height="1104.784"><defs><clipPath id="a" clipPathUnits="userSpaceOnUse"><path d="M0 1080h1080V0H0Z"/></clipPath><clipPath id="b" clipPathUnits="userSpaceOnUse"><path d="M233.523 854.178C96.93 307.231 475.659 130.99 551.895 95.871c464.494 201.094 348.224 723.432 313.964 760.978-106.364 50.604-211.304 67.61-304.295 67.61-175.858-.002-308.965-60.828-328.041-70.281"/></clipPath><clipPath id="c" clipPathUnits="userSpaceOnUse"><path d="M252.069 834.249C123.351 318.937 480.244 152.936 551.981 119.814 989.663 309.28 880.075 801.427 847.813 836.801c-100.202 47.674-199.035 63.693-286.646 63.688-165.683-.009-291.133-57.326-309.098-66.24"/></clipPath><clipPath id="d" clipPathUnits="userSpaceOnUse"><path d="M0 1080h1080V0H0Z"/></clipPath></defs><g clip-path="url(#a)" transform="matrix(1.33333 0 0 -1.33333 -272.106 1232.612)"><path d="M0 0c-76.236 35.119-454.965 211.36-318.373 758.307 29.163 14.451 324.825 148.972 632.336 2.672C348.229 723.432 464.493 201.094 0 0" style="fill:#231f20;fill-opacity:1;fill-rule:nonzero;stroke:none" transform="translate(551.895 95.871)"/></g><g clip-path="url(#b)" transform="matrix(1.33333 0 0 -1.33333 -272.106 1232.612)"><path d="M0 0c515.434 290.799 282.55 762.123 281.308 764.635 0 0-279.503 84.735-558.12 3.53C-328.595 712.228-425.208 207.921 0 0" style="fill:#fff200;fill-opacity:1;fill-rule:nonzero;stroke:none" transform="translate(551.708 116.698)"/><path d="M0 0c223.927 99.163 306.942 273.114 330.978 429.131 12.115 78.642 8.913 152.564.624 208.792-4.145 28.115-9.509 51.791-14.825 69.285-4.784 15.746-10.102 26.094-11.548 28.558-149.766 70.32-296.584 73.247-409.937 56.489-106.625-15.763-181.543-48.058-202.082-57.738-65.08-266.868-6.003-441.058 78.336-554.125C-146.317 70.277-41.385 19.182 0 0m-.156-29.181-5.306 2.496C-43.656-9.089-160.234 44.932-249.521 164.631c-89.285 119.698-150.684 305.639-81.612 582.214l1.404 5.93 5.462 2.653c15.881 7.869 97.963 45.464 215.814 62.887 117.85 17.422 271.388 14.449 428.039-60.079l2.341-1.092 1.717-1.873c8.161-8.943 12.47-21.373 18.256-40.416 5.787-19.043 11.446-43.753 15.762-73.03 8.632-58.554 11.973-134.978-.625-216.751C331.843 261.528 241.739 75.52 5.306-26.84Z" style="fill:#231f20;fill-opacity:1;fill-rule:nonzero;stroke:none" transform="translate(551.895 110.54)"/><path d="M0 0c-71.737 33.127-428.629 199.127-299.912 714.435 27.465 13.627 306.049 140.383 595.744 2.551C328.095 681.612 437.683 189.465 0 0" style="fill:#231f20;fill-opacity:1;fill-rule:nonzero;stroke:none" transform="translate(551.98 119.814)"/></g><g clip-path="url(#c)" transform="matrix(1.33333 0 0 -1.33333 -272.106 1232.612)"><path d="M0 0c206.436 135.637 262.736 311.432 267.622 454.723 4.75 139.338-38.825 245.6-41.977 253.11-7.514 2.57-226.82 76.397-447.857 3.121-4.122-5.674-9.689-17.554-14.825-34.643-5.423-18.045-10.583-41.412-14.512-68.661-7.858-54.497-10.85-124.503-1.717-198.805C-235.12 261.226-169.364 97.041 0 0m.312-14.669-3.277 1.717c-175.983 99.085-244.052 269.116-262.628 420.237-9.289 75.56-6.293 146.537 1.716 202.082 4.004 27.772 9.332 51.737 14.981 70.533 5.649 18.797 11.364 32.263 17.789 40.261l1.092 1.404 1.717.624c230.398 77.334 460.809-3.433 460.809-3.433l2.497-.936 1.093-2.497c.788-1.829 49.017-113.889 44.004-260.912C275.094 307.389 216.137 125.433 3.589-12.64Z" style="fill:#fff;fill-opacity:1;fill-rule:nonzero;stroke:none" transform="translate(552.29 146.935)"/><path d="m0 0 5.362-.056v-24.325H-.056L0 .001Zm-50.681.057h5.305v-8.466h-5.361zM-2.427 7.45l-5.812-5.361-.114-28.445 5.871-5.418H7.732l5.814 5.361.112 28.445L7.789 7.45zm-30.532.057-.113-16.82 5.813-5.361 7.224-.056-.057-9.538-5.643.056v5.7h-7.958l-.056-7.788 5.812-5.418h10.216l5.869 5.362.057 13.714-5.87 5.475h-7.788V.057L-14.504 0v7.507zm-20.148.055-5.871-5.361-.055-12.698 5.869-5.418h7.788v-8.354h-5.644l.057 5.306h-8.071v-7.28l5.813-5.362 10.272-.056 5.87 5.361V2.145l-5.814 5.417zm-21.786.057-7.054-1.693V.169h4.74l-.112-31.774h8.239l.057 39.224zm-44.529.113V.226h5.756l-.056-31.718 8.24-.057.113 31.775h5.813v7.45zm-18.907.056-5.756-5.418V-9.538l6.264-5.814 7.28-.62V-24.1l-5.417.057v5.192h-8.184l-.056-7.223 5.813-5.363 10.271-.055 5.757 5.418.113 12.021-6.321 5.813-7.337.621V.282h5.361v-5.305h7.45v7.336l-5.756 5.418zm-26.695.057-.113-39.225 17.383-.057v7.394h-9.143v9.764h7.675v7.393h-7.619V.339h9.2v7.449zm-79.013 503.426c2.187-6.736 3.282-10.087 5.475-16.819-4.575-1.473-6.815-2.249-11.345-3.837-2.347 6.676-3.528 10.029-5.869 16.705 4.698 1.648 7.025 2.418 11.739 3.951m-9.933 30.759c2.132-6.587 3.168-9.894 5.305-16.48-4.859-1.583-7.244-2.418-12.078-4.12-2.297 6.531-3.469 9.784-5.757 16.31 4.989 1.763 7.511 2.656 12.53 4.29m281.907 15.351c5.133-1.074 7.704-1.68 12.812-2.879-1.623-6.841-2.441-10.203-4.064-17.044-4.944 1.164-7.401 1.666-12.36 2.709 1.453 6.871 2.149 10.337 3.612 17.214m-222.478.395c1.383-6.812 2.054-10.234 3.442-17.045-4.978-1.018-7.462-1.57-12.416-2.709-1.543 6.767-2.29 10.161-3.838 16.932 5.114 1.178 7.679 1.763 12.812 2.822m-59.429.395c-14.931-4.729-22.316-7.358-36.967-13.15 9.832-25.033 19.65-50.05 29.517-75.063 12.908 5.044 19.417 7.321 32.565 11.401 3.395 5.717 5.154 8.559 8.804 14.222-2.402 8.459-3.575 12.7-5.983 21.164-5.263 1.763-7.936 2.61-13.319 4.233 2.926 4.274 4.45 6.376 7.506 10.61-2.332 8.135-3.537 12.24-5.869 20.374-6.412 2.592-9.673 3.817-16.254 6.209m339.813.169c-6.902-2.557-10.333-3.847-17.045-6.603-2.766-9.528-4.119-14.294-6.885-23.817 4.349-6.282 6.433-9.431 10.497-15.802 6.202-2.537 9.291-3.868 15.407-6.604-2.296-6.436-3.459-9.648-5.755-16.085a406 406 0 0 1-11.345 3.895c1.379 4.164 2.064 6.225 3.443 10.384-7.061 2.332-10.606 3.469-17.722 5.531-1.703-5.843-2.54-8.775-4.233-14.617 3.586-5.788 5.357-8.709 8.691-14.561 8.395-2.682 12.538-4.148 20.827-7.225 6.231 2.522 9.39 3.774 15.802 6.096 3.76 9.458 5.655 14.143 9.425 23.591-3.675 6.696-5.558 10.023-9.538 16.649-6.287 2.856-9.431 4.239-15.803 6.886 2.063 6.227 3.023 9.35 5.08 15.576a455 455 0 0 0 12.529-4.289c-1.478-4.13-2.19-6.193-3.668-10.328 6.741-2.392 10.091-3.638 16.762-6.265 2.257 5.713 3.391 8.567 5.644 14.279-3.716 6.322-5.677 9.494-9.651 15.746-8.939 3.241-13.429 4.712-22.462 7.563m-278.409 15.577c-15.325-3.021-22.96-4.828-38.096-8.917 6.961-26.062 13.887-52.116 20.883-78.167 6.786 1.798 10.213 2.629 17.044 4.177a15051 15051 0 0 0-7.393 32.339c4.813 1.103 7.187 1.669 12.021 2.652 2.641-13.013 4.003-19.556 6.659-32.564 6.857 1.378 10.272 2.031 17.157 3.16-2.187 13.108-3.245 19.677-5.417 32.79-4.974 2.367-7.549 3.52-12.643 5.757 3.406 3.94 5.151 5.884 8.692 9.764-1.408 8.374-2.091 12.564-3.499 20.938-6.072 3.316-9.146 4.93-15.408 8.071m203.684 2.54c-4.703-26.886-9.368-53.76-14.053-80.65 6.872-1.208 10.322-1.877 17.158-3.33 2.776 13.123 4.16 19.652 6.942 32.791 4.823-1.019 7.222-1.519 12.021-2.653-3.096-13.073-4.646-19.61-7.732-32.678 6.816-1.618 10.236-2.529 16.987-4.402 3.566 12.964 5.347 19.489 8.917 32.452-3.53 4.274-5.334 6.406-9.029 10.61a392 392 0 0 0 12.021 5.305l5.644 20.713c-4.135 5.613-6.241 8.412-10.61 13.94-15.216 3.695-22.885 5.27-38.266 7.902m-51.527 6.377c-2.172-27.145-4.385-54.29-6.547-81.44 14.661-1.183 21.959-2.034 36.516-4.346.973 6.153 1.448 9.195 2.426 15.351-7.92 1.254-11.855 1.842-19.809 2.766.938 7.965 1.385 11.958 2.313 19.923 6.921-.794 10.369-1.276 17.271-2.314.924 6.167 1.436 9.24 2.37 15.407-7.106 1.064-10.698 1.552-17.834 2.371.704 5.957 1.045 8.937 1.749 14.899 8.764-.998 13.118-1.633 21.842-2.991.973 6.162 1.448 9.246 2.426 15.408-17.028 2.636-25.571 3.648-42.723 4.966m-86.52.057c-17.152-1.319-25.695-2.34-42.723-4.967 4.04-26.76 8.074-53.499 12.134-80.255 14.581 2.178 21.906 3 36.572 4.064-.454 6.182-.679 9.221-1.129 15.408-7.98-.59-11.978-.959-19.923-1.863-.913 7.92-1.353 11.89-2.257 19.81 6.916.799 10.39 1.134 17.326 1.693-.499 6.182-.742 9.282-1.241 15.464-7.141-.589-10.699-.921-17.834-1.75-.664 5.922-1.01 8.865-1.694 14.787 8.759 1.024 13.105 1.475 21.898 2.145-.464 6.181-.674 9.277-1.129 15.464m38.435 1.58c-2.762-17.208-3.994-25.778-6.321-43.006-3.046 17.128-4.673 25.656-8.184 42.723-8.149-.279-12.245-.498-20.374-1.072 7.785-26.58 14.704-53.404 20.826-80.424 4.564.16 6.888.233 11.456.283 2.457 19.09 3.819 28.609 6.829 47.69 2.922-19.086 4.217-28.627 6.604-47.747 4.564-.08 6.842-.154 11.4-.338 6.207 27.079 13.315 53.947 21.164 80.593-8.014.549-12.01.746-20.035 1.015-3.596-17.497-5.278-26.258-8.409-43.795-2.277 17.662-3.528 26.461-6.265 44.078-3.466.025-5.231.025-8.691 0" style="fill:#231f20;fill-opacity:1;fill-rule:nonzero;stroke:none" transform="translate(636.745 286.577)"/><path d="M0 0c0-112.345-90.952-203.392-203.307-203.392-112.304 0-203.296 91.047-203.296 203.392 0 112.274 90.992 203.271 203.296 203.271C-90.952 203.271 0 112.274 0 0" style="fill:#fde92b;fill-opacity:1;fill-rule:nonzero;stroke:none" transform="translate(764.99 541.134)"/><path d="M0 0c110.017 0 198.961 89.107 198.961 199.117 0 109.938-88.942 198.961-198.961 198.961-109.967 0-198.961-89.024-198.961-198.961C-198.961 89.109-109.966 0 0 0m0-8.583c-114.643 0-207.543 93.02-207.543 207.7 0 114.612 92.901 207.544 207.543 207.544 114.69 0 207.699-92.932 207.699-207.544 0-114.679-93.007-207.7-207.699-207.7" style="fill:#231f20;fill-opacity:1;fill-rule:nonzero;stroke:none" transform="translate(561.66 342.017)"/><path d="m0 0 35.724 2.966s4.699 15.186 11.589 13.503c5.863 1.038 12.869-5.073 12.869-5.073s15.22-2.632 10.122-15.451c0-9.457-5.353-13.472-9.033-14.855-2.747-3.635-10.427-1.354-10.427-1.354s-19.155-7.115-22.92-8.089c-2.233-.564-12.539-1.363-12.539-1.363z" style="fill:#fde92b;fill-opacity:1;fill-rule:nonzero;stroke:none" transform="translate(591.095 639.9)"/><path d="m0 0 35.724 2.966s4.699 15.186 11.589 13.503c5.863 1.038 12.869-5.073 12.869-5.073s15.22-2.632 10.122-15.451c0-9.457-5.353-13.472-9.033-14.855-2.747-3.635-10.427-1.354-10.427-1.354s-19.155-7.115-22.92-8.089c-2.233-.564-12.539-1.363-12.539-1.363z" style="fill:none;stroke:#231f20;stroke-width:1.828;stroke-linecap:butt;stroke-linejoin:miter;stroke-miterlimit:4;stroke-dasharray:none;stroke-opacity:1" transform="translate(591.095 639.9)"/><path d="m0 0-33.032 44.008S5.803 67.547 23.095 68.811C84.236 72.956 68.871 6.232 68.871 6.232s50.045-3.695 74.093-44.902c27.81-40.118-.049-83.552-.049-83.552l1.788-3.675s14.91 4.27 19.245 5.538c60.471-42.08 97.424-12.389 97.424-12.389s24.113 3.755 32.836 19.62c5.564-3.142 9.179-5.204 9.179-5.204s-2.452-22.556-18.566-35.424c1.568-5.098 3.83-6.816 3.83-6.816s-7.904-9.528-12.918-15.281c-6.002 0-15.57 5.503-15.57 5.503s-61.925-25.051-91.352-6.256c-2.98-2.952-8.648-10.801-8.648-10.801l-47.614.364s-23.889-45.061-27.105-48.926c-71.193-11.67-62.379-84.845-62.379-84.845s3.286-7.665 14.991-14.386c2.491-4.056 1.488-13.883-6.632-15.92C16.903-355.52.275-328.454.275-328.454l-5.598-1.833-11.076 13.707s8.814 9.264 10.971 13.812c.105 4.315 5.208 65.935 30.376 74.359 5.757 1.318 5.757-.06 10.342 2.222 11.989 21.997 11.524 43.734 11.524 43.734s-21.082 34.275 4.055 64.6c2.217 3.991 0 30.197 0 30.197l-23.4 33.326-19.135 9.188s-20.323-7.445-1.882-59.722c24.972-4.699 22.985-26.201 11.066-34.656-11.066-8.343-27.59-7.355-31.425 17.893-26.595 27.424-28.078 43.398-27.554 60.501C-40.977-24.284 0 0 0 0" style="fill:#fde92b;fill-opacity:1;fill-rule:nonzero;stroke:none" transform="translate(451.276 675.435)"/><path d="m0 0-33.032 44.008S5.803 67.547 23.095 68.811C84.236 72.956 68.871 6.232 68.871 6.232s50.045-3.695 74.093-44.902c27.81-40.118-.049-83.552-.049-83.552l1.788-3.675s14.91 4.27 19.245 5.538c60.471-42.08 97.424-12.389 97.424-12.389s24.113 3.755 32.836 19.62c5.564-3.142 9.179-5.204 9.179-5.204s-2.452-22.556-18.566-35.424c1.568-5.098 3.83-6.816 3.83-6.816s-7.904-9.528-12.918-15.281c-6.002 0-15.57 5.503-15.57 5.503s-61.925-25.051-91.352-6.256c-2.98-2.952-8.648-10.801-8.648-10.801l-47.614.364s-23.889-45.061-27.105-48.926c-71.193-11.67-62.379-84.845-62.379-84.845s3.286-7.665 14.991-14.386c2.491-4.056 1.488-13.883-6.632-15.92C16.903-355.52.275-328.454.275-328.454l-5.598-1.833-11.076 13.707s8.814 9.264 10.971 13.812c.105 4.315 5.208 65.935 30.376 74.359 5.757 1.318 5.757-.06 10.342 2.222 11.989 21.997 11.524 43.734 11.524 43.734s-21.082 34.275 4.055 64.6c2.217 3.991 0 30.197 0 30.197l-23.4 33.326-19.135 9.188s-20.323-7.445-1.882-59.722c24.972-4.699 22.985-26.201 11.066-34.656-11.066-8.343-27.59-7.355-31.425 17.893-26.595 27.424-28.078 43.398-27.554 60.501C-40.977-24.284 0 0 0 0Z" style="fill:none;stroke:#231f20;stroke-width:5.119;stroke-linecap:butt;stroke-linejoin:miter;stroke-miterlimit:4;stroke-dasharray:none;stroke-opacity:1" transform="translate(451.276 675.435)"/><path d="m0 0-11.68 5.527S18.911 61.25-4.129 135.11c-16.619 67.272-68.397 129.906-68.397 129.906s27.424 24.958 58.295 2.802c19.245-20.349-4.165-56.322-4.165-56.322l1.663-3.181s68.696.819 84.645-36.808c17.338-30.2-18.481-76.545-18.481-76.545S81.52 75.871 112.35 74.508c0-6.647.588-6.132-1.858-12.948-29.512-.564-67.303 22.876-67.303 22.876S24.668 63.478 18.346 57.325C15.495 23.954 0 0 0 0" style="fill:#231f20;fill-opacity:1;fill-rule:nonzero;stroke:none" transform="translate(516.042 453.308)"/><path d="m0 0-11.68 5.527S18.911 61.25-4.129 135.11c-16.619 67.272-68.397 129.906-68.397 129.906s27.424 24.958 58.295 2.802c19.245-20.349-4.165-56.322-4.165-56.322l1.663-3.181s68.696.819 84.645-36.808c17.338-30.2-18.481-76.545-18.481-76.545S81.52 75.871 112.35 74.508c0-6.647.588-6.132-1.858-12.948-29.512-.564-67.303 22.876-67.303 22.876S24.668 63.478 18.346 57.325C15.495 23.954 0 0 0 0Z" style="fill:none;stroke:#231f20;stroke-width:.73;stroke-linecap:butt;stroke-linejoin:miter;stroke-miterlimit:4;stroke-dasharray:none;stroke-opacity:1" transform="translate(516.042 453.308)"/><path d="m0 0 1.976-29.292 13.093 15.295zm-30.476 89.567c-.13-.404 2.538-5.38 21.728-54.801 0 0 18.278-30.59 32.001-37.531 6.891 8.778 25.066 34.311 18.85 57.736-3.286 11.814-20.796 32.868-72.579 34.596m-22.914 68.29c-4.297-.089-9.658-1.041-16.254-3.161 1.777-3.216 25.227-39.111 25.227-39.111s21.105 42.899-8.973 42.272" style="fill:#fde92b;fill-opacity:1;fill-rule:nonzero;stroke:none" transform="translate(532.392 559.341)"/><path d="M0 0c52.771 16.958 25.212-39.12 25.212-39.12S1.778-3.216 0 0Z" style="fill:none;stroke:#231f20;stroke-width:.182;stroke-linecap:butt;stroke-linejoin:miter;stroke-miterlimit:4;stroke-dasharray:none;stroke-opacity:1" transform="translate(462.751 714.03)"/><path d="M0 0c0-26.896-21.802-48.747-48.672-48.747-27.04 0-48.832 21.851-48.832 48.747 0 26.96 21.792 48.822 48.832 48.822C-21.802 48.822 0 26.96 0 0" style="fill:#fde92b;fill-opacity:1;fill-rule:nonzero;stroke:none" transform="translate(755.252 702.82)"/><path d="M0 0c25.5 0 46.189 20.661 46.189 46.19 0 25.598-20.69 46.347-46.189 46.347-25.679 0-46.347-20.748-46.347-46.347C-46.347 20.66-25.679 0 0 0m0-5.149c-28.401 0-51.34 23.079-51.34 51.339 0 28.322 22.938 51.34 51.34 51.34 28.24 0 51.184-23.017 51.184-51.34C51.184 17.93 28.239-5.149 0-5.149" style="fill:#231f20;fill-opacity:1;fill-rule:nonzero;stroke:none" transform="translate(706.565 656.629)"/><path d="M0 0s-11.574-16.889-12.867-20.938c0-4.56.766-47.225 51.471-49.497 1.138 5.498 2.437 10.836 1.863 11.74-24.274 1.073-29.066 11.852-29.066 11.852l10.046 13.206-10.837 8.409-7.337-8.86-2.201 10.779L10.61-6.603zm29.349 14.674C.32 2.24 27.81-42.155 53.616-39.394c9.923.974 15.634 7.789 15.634 7.789s-2.495 3.297-7.789 9.594c-6.331-7.265-14.73-3.048-14.73-3.048S36.418-20.94 30.815-9.425c-3.934 6.666 3.274 12.698 3.274 12.698s-2.429 7.611-4.74 11.401" style="fill:#231f20;fill-opacity:1;fill-rule:nonzero;stroke:none" transform="translate(679.694 730.913)"/><path d="M0 0c3.726 0 7.36-.959 10.921-2.872 3.551-1.917 6.322-4.649 8.309-8.214 1.978-3.565 2.971-7.28 2.971-11.15 0-3.826-.973-7.506-2.93-11.036-1.949-3.536-4.69-6.288-8.215-8.24C7.53-43.469 3.845-44.438 0-44.438c-3.85 0-7.535.969-11.065 2.926-3.521 1.952-6.267 4.704-8.225 8.24-1.968 3.53-2.946 7.21-2.946 11.036 0 3.87.999 7.585 2.986 11.15 1.997 3.565 4.769 6.297 8.324 8.214C-7.381-.959-3.735 0 0 0m0-3.681c-3.126 0-6.162-.798-9.123-2.402-2.946-1.598-5.269-3.89-6.937-6.86-1.667-2.977-2.496-6.073-2.496-9.293 0-3.197.814-6.268 2.457-9.203 1.643-2.937 3.93-5.219 6.876-6.862 2.941-1.633 6.017-2.457 9.223-2.457 3.196 0 6.271.824 9.218 2.457 2.941 1.643 5.228 3.925 6.856 6.862 1.628 2.935 2.447 6.006 2.447 9.203q.001 4.829-2.492 9.293c-1.658 2.97-3.969 5.262-6.93 6.86C6.132-4.479 3.101-3.681 0-3.681m-9.747-30.84v23.919h8.209c2.811 0 4.839-.214 6.102-.664 1.248-.439 2.248-1.213 3.006-2.312.74-1.099 1.114-2.262 1.114-3.505 0-1.748-.624-3.266-1.872-4.564-1.245-1.293-2.892-2.018-4.964-2.177.843-.355 1.528-.78 2.037-1.269.959-.944 2.137-2.516 3.53-4.739l2.917-4.689H5.623l-2.128 3.77C1.828-27.784.489-25.922-.529-25.178q-1.07.824-3.091.824h-2.273v-10.167zm3.854 13.462h4.679c2.237 0 3.771.335 4.585 1.004q1.22.997 1.218 2.647c0 .715-.194 1.344-.589 1.897-.39.565-.934.98-1.638 1.254-.689.275-1.982.414-3.865.414h-4.39z" style="fill:#fff;fill-opacity:1;fill-rule:nonzero;stroke:none" transform="translate(664.78 103.806)"/><path d="M0 0c211.013 93.427 289.297 257.475 311.939 404.476 11.414 74.095 8.28 143.642.468 196.62-3.905 26.489-8.88 48.9-13.887 65.384-4.531 14.911-9.756 24.595-11.08 26.84-141.043 66.19-279.298 69.002-386.062 53.213-100.511-14.866-171.091-45.517-190.378-54.617-61.262-251.333-5.636-415.328 73.81-521.824C-137.8 66.353-38.967 18.098 0 0m-.156-27.309-4.993 2.341C-41.07-8.381-150.883 42.5-235.008 155.268c-84.124 112.767-142.021 287.931-76.931 548.507l1.404 5.462 5.149 2.653c14.976 7.431 92.139 42.721 203.175 59.142 111.035 16.422 255.807 13.725 403.383-56.489l2.185-1.092 1.716-1.873c7.686-8.426 11.715-19.978 17.165-37.92 5.451-17.941 10.758-41.388 14.825-68.973 8.134-55.169 11.244-126.908-.624-203.955C312.704 246.639 227.78 71.316 4.993-25.124Z" style="fill:#fff200;fill-opacity:1;fill-rule:nonzero;stroke:none" transform="translate(551.98 133.547)"/></g><g clip-path="url(#d)" transform="matrix(1.33333 0 0 -1.33333 -272.106 1232.612)"><path d="M0 0c-1.203 9.632-6.02 18.06-6.02 18.06-8.427 9.632-187.825 71.037-296.186 62.608-108.36-8.427-249.832-39.732-294.38-61.404 0 0-24.08-83.679-23.109-117.948.026-.92 1.162-1.206 1.428-.324l33.119 109.844s20.896 6.082 52.417 14.258c-42.61-89.046-97.094-526.603 233.121-712.526C92.831-432.499-44.775-30.416-66.671 26.268-35.264 16.697-13.238 8.02-9.632 3.612c10.836-13.244 13.244-30.1 13.244-30.1S1.204-9.632 0 0" style="fill:#fff200;fill-opacity:1;fill-rule:nonzero;stroke:none" transform="translate(852.056 826.876)"/><path d="M0 0c2.187-6.736 3.282-10.087 5.475-16.819C.9-18.292-1.34-19.068-5.87-20.656c-2.347 6.676-3.527 10.029-5.869 16.705C-7.041-2.303-4.714-1.533 0 0m-9.933 30.759c2.132-6.587 3.168-9.894 5.305-16.48-4.859-1.583-7.244-2.418-12.078-4.12-2.297 6.531-3.469 9.784-5.756 16.31 4.988 1.763 7.51 2.656 12.529 4.29M271.975 46.11c5.132-1.074 7.703-1.68 12.811-2.879-1.623-6.841-2.441-10.203-4.064-17.044-4.944 1.164-7.401 1.666-12.36 2.709 1.453 6.871 2.149 10.337 3.613 17.214m-222.479.395c1.383-6.812 2.054-10.234 3.442-17.045-4.978-1.018-7.462-1.57-12.416-2.709-1.543 6.767-2.29 10.161-3.837 16.932 5.113 1.178 7.678 1.763 12.811 2.822m-59.429.395c-14.931-4.729-22.316-7.358-36.967-13.15 9.832-25.033 19.65-50.05 29.517-75.063 12.908 5.044 19.417 7.321 32.565 11.401 3.395 5.717 5.154 8.559 8.804 14.222-2.402 8.459-3.575 12.7-5.983 21.164-5.263 1.763-7.936 2.61-13.319 4.233 2.926 4.274 4.45 6.376 7.506 10.61-2.332 8.135-3.537 12.24-5.869 20.374-6.412 2.592-9.673 3.817-16.254 6.209m339.813.169c-6.901-2.557-10.333-3.847-17.045-6.603-2.766-9.528-4.119-14.294-6.885-23.817 4.349-6.282 6.433-9.431 10.497-15.802 6.202-2.537 9.291-3.868 15.407-6.604-2.296-6.436-3.458-9.648-5.755-16.085a405 405 0 0 1-11.345 3.895c1.379 4.164 2.064 6.225 3.443 10.384-7.061 2.332-10.606 3.469-17.721 5.531-1.704-5.843-2.54-8.775-4.234-14.617 3.586-5.788 5.357-8.709 8.692-14.561 8.394-2.682 12.537-4.148 20.826-7.225 6.231 2.522 9.39 3.774 15.802 6.096 3.76 9.458 5.655 14.143 9.425 23.591-3.675 6.696-5.558 10.023-9.538 16.649-6.287 2.856-9.43 4.239-15.803 6.886 2.063 6.227 3.023 9.35 5.081 15.576a456 456 0 0 0 12.528-4.289c-1.478-4.13-2.19-6.193-3.668-10.328 6.741-2.392 10.091-3.638 16.762-6.265 2.257 5.713 3.391 8.567 5.644 14.279-3.716 6.322-5.677 9.494-9.651 15.746-8.939 3.241-13.429 4.712-22.462 7.563M51.471 62.646c-15.325-3.021-22.96-4.828-38.096-8.917 6.961-26.062 13.887-52.116 20.883-78.166 6.786 1.797 10.213 2.628 17.044 4.176a15051 15051 0 0 0-7.393 32.339c4.813 1.103 7.187 1.669 12.021 2.652 2.641-13.013 4.003-19.556 6.659-32.564 6.857 1.378 10.272 2.031 17.158 3.16-2.187 13.108-3.246 19.677-5.418 32.79-4.974 2.367-7.549 3.52-12.642 5.757 3.405 3.94 5.15 5.884 8.691 9.764-1.408 8.374-2.091 12.564-3.499 20.938-6.072 3.316-9.146 4.93-15.408 8.071m203.684 2.54c-4.703-26.886-9.368-53.76-14.052-80.65 6.871-1.208 10.321-1.877 17.157-3.33 2.776 13.123 4.16 19.652 6.942 32.791 4.823-1.019 7.222-1.519 12.021-2.653-3.096-13.073-4.646-19.61-7.732-32.677 6.816-1.619 10.237-2.53 16.988-4.403 3.565 12.964 5.346 19.489 8.917 32.452-3.531 4.274-5.334 6.406-9.03 10.61a392 392 0 0 0 12.021 5.305l5.644 20.713c-4.135 5.613-6.241 8.412-10.61 13.94-15.216 3.695-22.885 5.27-38.266 7.902m-51.527 6.377c-2.172-27.145-4.385-54.29-6.547-81.44 14.661-1.183 21.959-2.034 36.516-4.346.973 6.153 1.448 9.195 2.426 15.351-7.919 1.254-11.855 1.842-19.809 2.766.938 7.965 1.385 11.958 2.313 19.923 6.921-.794 10.369-1.275 17.271-2.314.924 6.167 1.436 9.24 2.37 15.407-7.106 1.064-10.698 1.552-17.834 2.371.704 5.957 1.045 8.937 1.749 14.899 8.764-.998 13.118-1.633 21.842-2.991.973 6.162 1.448 9.246 2.427 15.408-17.029 2.636-25.572 3.648-42.724 4.966m-86.52.057c-17.152-1.319-25.695-2.34-42.723-4.967 4.04-26.76 8.074-53.499 12.134-80.255 14.581 2.178 21.906 3 36.572 4.064-.454 6.182-.679 9.221-1.129 15.408-7.98-.59-11.978-.959-19.922-1.863-.914 7.92-1.354 11.89-2.258 19.81 6.916.799 10.39 1.134 17.326 1.693-.499 6.182-.742 9.282-1.241 15.464-7.141-.589-10.699-.921-17.834-1.75-.664 5.922-1.01 8.865-1.694 14.787 8.759 1.024 13.105 1.475 21.898 2.145-.464 6.181-.674 9.277-1.129 15.464m38.435 1.58c-2.762-17.208-3.994-25.778-6.321-43.006-3.046 17.128-4.673 25.656-8.184 42.723-8.149-.279-12.245-.498-20.374-1.072 7.785-26.58 14.704-53.404 20.826-80.424 4.564.16 6.888.233 11.456.283 2.457 19.09 3.819 28.609 6.829 47.69 2.922-19.086 4.217-28.627 6.604-47.747 4.564-.08 6.842-.154 11.4-.338 6.207 27.079 13.315 53.947 21.164 80.593-8.014.549-12.01.746-20.035 1.015-3.596-17.497-5.278-26.258-8.409-43.795-2.277 17.662-3.528 26.461-6.265 44.078-3.465.025-5.231.025-8.691 0" style="fill:#231f20;fill-opacity:1;fill-rule:nonzero;stroke:none" transform="translate(392.708 797.848)"/><path d="M0 0c0-112.345-90.952-203.392-203.307-203.392-112.304 0-203.296 91.047-203.296 203.392 0 112.274 90.992 203.271 203.296 203.271C-90.952 203.271 0 112.274 0 0" style="fill:#fde92b;fill-opacity:1;fill-rule:nonzero;stroke:none" transform="translate(764.99 541.134)"/><path d="M0 0c110.017 0 198.961 89.107 198.961 199.117 0 109.938-88.942 198.961-198.961 198.961-109.967 0-198.961-89.024-198.961-198.961C-198.961 89.109-109.966 0 0 0m0-8.583c-114.643 0-207.543 93.02-207.543 207.7 0 114.612 92.901 207.544 207.543 207.544 114.69 0 207.699-92.932 207.699-207.544 0-114.679-93.007-207.7-207.699-207.7" style="fill:#231f20;fill-opacity:1;fill-rule:nonzero;stroke:none" transform="translate(561.66 342.017)"/><path d="m0 0 35.724 2.966s4.699 15.186 11.589 13.503c5.863 1.038 12.869-5.073 12.869-5.073s15.22-2.632 10.122-15.451c0-9.457-5.353-13.472-9.033-14.855-2.747-3.635-10.427-1.354-10.427-1.354s-19.155-7.115-22.92-8.089c-2.233-.564-12.539-1.363-12.539-1.363z" style="fill:#fde92b;fill-opacity:1;fill-rule:nonzero;stroke:none" transform="translate(591.095 639.9)"/><path d="m0 0 35.724 2.966s4.699 15.186 11.589 13.503c5.863 1.038 12.869-5.073 12.869-5.073s15.22-2.632 10.122-15.451c0-9.457-5.353-13.472-9.033-14.855-2.747-3.635-10.427-1.354-10.427-1.354s-19.155-7.115-22.92-8.089c-2.233-.564-12.539-1.363-12.539-1.363z" style="fill:none;stroke:#231f20;stroke-width:1.828;stroke-linecap:butt;stroke-linejoin:miter;stroke-miterlimit:4;stroke-dasharray:none;stroke-opacity:1" transform="translate(591.095 639.9)"/><path d="m0 0-33.032 44.008S5.803 67.547 23.095 68.811C84.236 72.956 68.871 6.232 68.871 6.232s50.045-3.695 74.093-44.902c27.81-40.118-.049-83.552-.049-83.552l1.788-3.675s14.91 4.27 19.245 5.538c60.471-42.08 97.424-12.389 97.424-12.389s24.113 3.755 32.836 19.62c5.564-3.142 9.179-5.204 9.179-5.204s-2.452-22.556-18.566-35.424c1.568-5.098 3.83-6.816 3.83-6.816s-7.904-9.528-12.918-15.281c-6.002 0-15.57 5.503-15.57 5.503s-61.925-25.051-91.352-6.256c-2.98-2.952-8.648-10.801-8.648-10.801l-47.614.364s-23.889-45.061-27.105-48.926c-71.193-11.67-62.379-84.845-62.379-84.845s3.286-7.665 14.991-14.386c2.491-4.056 1.488-13.883-6.632-15.92C16.903-355.52.275-328.454.275-328.454l-5.598-1.833-11.076 13.707s8.814 9.264 10.971 13.812c.105 4.315 5.208 65.935 30.376 74.359 5.757 1.318 5.757-.06 10.342 2.222 11.989 21.997 11.524 43.734 11.524 43.734s-21.082 34.275 4.055 64.6c2.217 3.991 0 30.197 0 30.197l-23.4 33.326-19.135 9.188s-20.323-7.445-1.882-59.722c24.972-4.699 22.985-26.201 11.066-34.656-11.066-8.343-27.59-7.355-31.425 17.893-26.595 27.424-28.078 43.398-27.554 60.501C-40.977-24.284 0 0 0 0" style="fill:#fde92b;fill-opacity:1;fill-rule:nonzero;stroke:none" transform="translate(451.276 675.435)"/><path d="m0 0-33.032 44.008S5.803 67.547 23.095 68.811C84.236 72.956 68.871 6.232 68.871 6.232s50.045-3.695 74.093-44.902c27.81-40.118-.049-83.552-.049-83.552l1.788-3.675s14.91 4.27 19.245 5.538c60.471-42.08 97.424-12.389 97.424-12.389s24.113 3.755 32.836 19.62c5.564-3.142 9.179-5.204 9.179-5.204s-2.452-22.556-18.566-35.424c1.568-5.098 3.83-6.816 3.83-6.816s-7.904-9.528-12.918-15.281c-6.002 0-15.57 5.503-15.57 5.503s-61.925-25.051-91.352-6.256c-2.98-2.952-8.648-10.801-8.648-10.801l-47.614.364s-23.889-45.061-27.105-48.926c-71.193-11.67-62.379-84.845-62.379-84.845s3.286-7.665 14.991-14.386c2.491-4.056 1.488-13.883-6.632-15.92C16.903-355.52.275-328.454.275-328.454l-5.598-1.833-11.076 13.707s8.814 9.264 10.971 13.812c.105 4.315 5.208 65.935 30.376 74.359 5.757 1.318 5.757-.06 10.342 2.222 11.989 21.997 11.524 43.734 11.524 43.734s-21.082 34.275 4.055 64.6c2.217 3.991 0 30.197 0 30.197l-23.4 33.326-19.135 9.188s-20.323-7.445-1.882-59.722c24.972-4.699 22.985-26.201 11.066-34.656-11.066-8.343-27.59-7.355-31.425 17.893-26.595 27.424-28.078 43.398-27.554 60.501C-40.977-24.284 0 0 0 0Z" style="fill:none;stroke:#231f20;stroke-width:5.119;stroke-linecap:butt;stroke-linejoin:miter;stroke-miterlimit:4;stroke-dasharray:none;stroke-opacity:1" transform="translate(451.276 675.435)"/><path d="m0 0-11.68 5.527S18.911 61.25-4.129 135.11c-16.619 67.272-68.397 129.906-68.397 129.906s27.424 24.958 58.295 2.802c19.245-20.349-4.165-56.322-4.165-56.322l1.663-3.181s68.696.819 84.645-36.808c17.338-30.2-18.481-76.545-18.481-76.545S81.52 75.871 112.35 74.508c0-6.647.588-6.132-1.858-12.948-29.512-.564-67.303 22.876-67.303 22.876S24.668 63.478 18.346 57.325C15.495 23.954 0 0 0 0" style="fill:#231f20;fill-opacity:1;fill-rule:nonzero;stroke:none" transform="translate(516.042 453.308)"/><path d="m0 0-11.68 5.527S18.911 61.25-4.129 135.11c-16.619 67.272-68.397 129.906-68.397 129.906s27.424 24.958 58.295 2.802c19.245-20.349-4.165-56.322-4.165-56.322l1.663-3.181s68.696.819 84.645-36.808c17.338-30.2-18.481-76.545-18.481-76.545S81.52 75.871 112.35 74.508c0-6.647.588-6.132-1.858-12.948-29.512-.564-67.303 22.876-67.303 22.876S24.668 63.478 18.346 57.325C15.495 23.954 0 0 0 0Z" style="fill:none;stroke:#231f20;stroke-width:.73;stroke-linecap:butt;stroke-linejoin:miter;stroke-miterlimit:4;stroke-dasharray:none;stroke-opacity:1" transform="translate(516.042 453.308)"/><path d="m0 0 1.976-29.292 13.093 15.295zm-30.476 89.567c-.13-.404 2.538-5.38 21.728-54.801 0 0 18.278-30.59 32.001-37.531 6.891 8.778 25.066 34.311 18.85 57.736-3.286 11.814-20.796 32.868-72.579 34.596m-22.914 68.29c-4.297-.089-9.658-1.041-16.254-3.161 1.777-3.216 25.227-39.111 25.227-39.111s21.105 42.899-8.973 42.272" style="fill:#fde92b;fill-opacity:1;fill-rule:nonzero;stroke:none" transform="translate(532.392 559.341)"/><path d="M0 0c52.771 16.958 25.212-39.12 25.212-39.12S1.778-3.216 0 0Z" style="fill:none;stroke:#231f20;stroke-width:.182;stroke-linecap:butt;stroke-linejoin:miter;stroke-miterlimit:4;stroke-dasharray:none;stroke-opacity:1" transform="translate(462.751 714.03)"/><path d="M0 0c0-26.896-21.802-48.747-48.672-48.747-27.04 0-48.832 21.851-48.832 48.747 0 26.96 21.792 48.822 48.832 48.822C-21.802 48.822 0 26.96 0 0" style="fill:#fde92b;fill-opacity:1;fill-rule:nonzero;stroke:none" transform="translate(755.252 702.82)"/><path d="M0 0c25.5 0 46.189 20.661 46.189 46.19 0 25.598-20.69 46.347-46.189 46.347-25.679 0-46.347-20.748-46.347-46.347C-46.347 20.66-25.679 0 0 0m0-5.149c-28.401 0-51.34 23.079-51.34 51.339 0 28.322 22.938 51.34 51.34 51.34 28.24 0 51.184-23.017 51.184-51.34C51.184 17.93 28.239-5.149 0-5.149" style="fill:#231f20;fill-opacity:1;fill-rule:nonzero;stroke:none" transform="translate(706.565 656.629)"/><path d="M0 0s-11.574-16.889-12.867-20.938c0-4.56.766-47.225 51.471-49.497 1.138 5.498 2.437 10.836 1.863 11.74-24.274 1.073-29.066 11.852-29.066 11.852l10.046 13.206-10.837 8.409-7.337-8.86-2.201 10.779L10.61-6.603zm29.349 14.674C.32 2.24 27.81-42.155 53.616-39.394c9.923.974 15.634 7.789 15.634 7.789s-2.495 3.297-7.789 9.594c-6.331-7.265-14.73-3.048-14.73-3.048S36.418-20.94 30.815-9.425c-3.934 6.666 3.274 12.698 3.274 12.698s-2.429 7.611-4.74 11.401" style="fill:#231f20;fill-opacity:1;fill-rule:nonzero;stroke:none" transform="translate(679.694 730.913)"/><path d="m0 0 5.398-.057v-24.495H-.057zm-51.036.057h5.343v-8.526h-5.4zm48.592 7.445-5.854-5.399-.113-28.644 5.91-5.456H7.786l5.854 5.399.113 28.644-5.91 5.456zm-30.746.057-.114-16.937 5.854-5.398 7.274-.058-.056-9.604-5.684.056v5.74h-8.013l-.057-7.842 5.854-5.456h10.286l5.911 5.399.057 13.811-5.911 5.512h-7.843V.057L-14.606 0v7.559zm-20.289.056-5.911-5.399-.057-12.787 5.911-5.456h7.843v-8.411h-5.684l.057 5.341h-8.127v-7.331l5.854-5.399 10.343-.057 5.911 5.4V2.159l-5.854 5.456zm-21.938.057-7.104-1.705V.17h4.774l-.113-31.997h8.297l.056 39.499zm-44.841.113V.227h5.797l-.057-31.94 8.298-.057.114 31.997h5.854v7.502zm-19.038.057-5.797-5.455V-9.605l6.308-5.854 7.331-.625v-8.185l-5.456.057v5.23h-8.24l-.057-7.276 5.853-5.398 10.344-.057 5.797 5.456.114 12.105-6.365 5.854-7.389.625V.283h5.399v-5.342h7.502v7.388l-5.797 5.456zm-26.882.056-.114-39.498 17.504-.056v7.445h-9.207v9.832h7.73v7.444h-7.672V.34h9.263v7.502z" style="fill:#231f20;fill-opacity:1;fill-rule:nonzero;stroke:none" transform="translate(633.113 293.653)"/></g></svg>