<?xml version="1.0" encoding="UTF-8"?>
<svg id="Layer_2" data-name="Layer 2" xmlns="http://www.w3.org/2000/svg" viewBox="0 0 40.25 40.04">
  <defs>
    <style>
      .cls-1, .cls-2, .cls-3, .cls-4, .cls-5, .cls-6, .cls-7, .cls-8, .cls-9, .cls-10 {
        stroke-width: 0px;
      }

      .cls-1, .cls-3 {
        fill: #fff200;
      }

      .cls-2 {
        fill: #4e628a;
      }

      .cls-2, .cls-3, .cls-5, .cls-7, .cls-8, .cls-9 {
        fill-rule: evenodd;
      }

      .cls-4, .cls-5 {
        fill: #231f20;
      }

      .cls-6 {
        fill: #fff9ae;
      }

      .cls-7 {
        fill: #fff333;
      }

      .cls-8 {
        fill: #2d2a2b;
      }

      .cls-9, .cls-10 {
        fill: #fff;
      }
    </style>
  </defs>
  <g id="Layer_1-2" data-name="Layer 1">
    <g>
      <path class="cls-4" d="M11.23,13.8h17.24c.12,0,.23.05.31.13h0c.08.08.13.19.13.31h0v15.27h0c0,.23-.19.32-.38.41h0l-.04.02-8.47,4.21h0s0,0,0,0h0s0,0,0,0c-.02,0-.05.02-.07.02-.02,0-.03,0-.05,0-.09.01-.18,0-.27-.03h0s0,0,0,0l-8.4-4.21-.05-.02c-.19-.09-.38-.19-.38-.41v-15.27h0c0-.12.05-.23.13-.31.08-.08.19-.13.31-.13h0ZM28.47,13.88H11.23s0,0,0,0h0c-.1,0-.19.04-.26.11-.07.07-.11.16-.11.26h0v15.27c0,.18.16.26.33.35.01,0,.02.01.05.02l8.39,4.21c.08.03.16.04.24.03.02,0,.03,0,.05,0,.02,0,.04-.01.06-.02h0s8.47-4.21,8.47-4.21l.04-.02h0c.17-.09.34-.17.34-.35h0v-15.27h0c0-.1-.04-.19-.11-.26h0c-.07-.07-.16-.11-.26-.11h0s0,0,0,0h0Z"/>
      <path class="cls-2" d="M11.23,13.84h17.24c.22,0,.4.18.4.4v15.27c0,.22-.2.3-.4.4l-8.47,4.21c-.12.05-.25.05-.38,0l-8.4-4.21c-.2-.1-.4-.18-.4-.4v-15.27c0-.22.18-.4.4-.4h0Z"/>
      <polygon class="cls-4" points="19.1 22.23 11.23 22.23 11.23 22.5 19.1 22.5 19.1 22.23 19.1 22.23"/>
      <polygon class="cls-4" points="19.52 22.65 19.25 22.65 19.25 22.92 19.52 22.92 19.52 22.65 19.52 22.65"/>
      <polygon class="cls-4" points="20.35 21.81 20.08 21.81 20.08 22.08 20.35 22.08 20.35 21.81 20.35 21.81"/>
      <polygon class="cls-4" points="19.93 22.23 19.66 22.23 19.66 22.5 19.93 22.5 19.93 22.23 19.93 22.23"/>
      <polygon class="cls-4" points="20.35 22.65 20.08 22.65 20.08 22.92 20.35 22.92 20.35 22.65 20.35 22.65"/>
      <polygon class="cls-4" points="19.52 23.07 19.25 23.07 19.25 23.34 19.52 23.34 19.52 23.07 19.52 23.07"/>
      <polygon class="cls-4" points="19.93 23.07 19.66 23.07 19.66 23.34 19.93 23.34 19.93 23.07 19.93 23.07"/>
      <polygon class="cls-4" points="20.77 22.65 20.5 22.65 20.5 22.92 20.77 22.92 20.77 22.65 20.77 22.65"/>
      <polygon class="cls-4" points="20.77 22.23 20.5 22.23 20.5 22.5 20.77 22.5 20.77 22.23 20.77 22.23"/>
      <polygon class="cls-4" points="20.77 21.81 20.5 21.81 20.5 22.08 20.77 22.08 20.77 21.81 20.77 21.81"/>
      <polygon class="cls-4" points="20.43 21.66 20.84 21.66 20.92 21.66 20.92 21.73 20.92 22.15 20.92 22.23 20.84 22.23 20.43 22.23 20.35 22.23 20.35 22.15 20.35 21.73 20.35 21.66 20.43 21.66 20.43 21.66"/>
      <polygon class="cls-4" points="19.24 23.49 19.24 33.5 19.52 33.64 19.52 23.49 19.24 23.49 19.24 23.49"/>
      <polygon class="cls-4" points="19.66 14.23 19.66 21.66 19.93 21.66 19.93 14.23 19.66 14.23 19.66 14.23"/>
      <path class="cls-4" d="M19.52,21.73v-7.65h.57v7.57h.27v.15h.15v.27h.27v-.27h.15v-.15h7.7v.57h-7.7v.28h7.7v.57h-8.53v.27h.42v10.28l-.04.02-.42.21-.11.05v-10.42h-.27v10.39l-.11-.05-.42-.21-.04-.02v-10.11h-8.04v-.57h8.04v-.27h-8.01v-.57h8.16v.42h.27v-.42h.42v-.27h-.42v-.07h0ZM19.66,22.92h.27v-.27h-.27v.27h0ZM20.08,22.5h.27v-.28h-.27v.28h0Z"/>
      <path class="cls-4" d="M20.97,23.34h7.44c.06,0,.11.02.14.06.04.04.06.09.06.14h0v5.86h0s0,.06-.02.08h0s-.01.02-.02.03h0s-.08.09-.13.11l-.15.08c-.06.04-.14.07-.21.11l-7.1,3.52s-.04.02-.06.02c-.03,0-.06,0-.08-.03-.02-.02-.03-.04-.05-.06h0s-.02-.07-.02-.1v-9.62h0c0-.06.02-.11.06-.14.04-.04.09-.06.14-.06h0s0,0,0,0h0Z"/>
      <polygon class="cls-4" points="20.5 14.23 20.5 21.66 20.77 21.66 20.77 14.23 20.5 14.23 20.5 14.23"/>
      <polygon class="cls-4" points="20.35 21.73 20.35 14.16 20.35 14.09 20.43 14.09 20.84 14.09 20.92 14.09 20.92 14.16 20.92 21.73 20.92 21.81 20.84 21.81 20.43 21.81 20.35 21.81 20.35 21.73 20.35 21.73"/>
      <polygon class="cls-4" points="20.08 23.49 20.08 33.67 20.35 33.53 20.35 23.49 20.08 23.49 20.08 23.49"/>
      <polygon class="cls-4" points="19.1 23.07 11.21 23.07 11.21 23.34 19.1 23.34 19.1 23.07 19.1 23.07"/>
      <polygon class="cls-4" points="28.47 22.65 20.92 22.65 20.92 22.92 28.47 22.92 28.47 22.65 28.47 22.65"/>
      <polygon class="cls-4" points="28.47 21.81 20.92 21.81 20.92 22.08 28.47 22.08 28.47 21.81 28.47 21.81"/>
      <polygon class="cls-9" points="19.1 22.23 11.23 22.23 11.23 22.5 19.1 22.5 19.1 22.23 19.1 22.23"/>
      <polygon class="cls-9" points="19.52 22.65 19.25 22.65 19.25 22.92 19.52 22.92 19.52 22.65 19.52 22.65"/>
      <polygon class="cls-9" points="20.35 21.81 20.08 21.81 20.08 22.08 20.35 22.08 20.35 21.81 20.35 21.81"/>
      <polygon class="cls-9" points="19.93 22.23 19.66 22.23 19.66 22.5 19.93 22.5 19.93 22.23 19.93 22.23"/>
      <polygon class="cls-9" points="20.35 22.65 20.08 22.65 20.08 22.92 20.35 22.92 20.35 22.65 20.35 22.65"/>
      <polygon class="cls-9" points="19.52 23.07 19.25 23.07 19.25 23.34 19.52 23.34 19.52 23.07 19.52 23.07"/>
      <polygon class="cls-9" points="19.93 23.07 19.66 23.07 19.66 23.34 19.93 23.34 19.93 23.07 19.93 23.07"/>
      <polygon class="cls-9" points="20.77 22.65 20.5 22.65 20.5 22.92 20.77 22.92 20.77 22.65 20.77 22.65"/>
      <polygon class="cls-9" points="20.77 22.23 20.5 22.23 20.5 22.5 20.77 22.5 20.77 22.23 20.77 22.23"/>
      <polygon class="cls-9" points="20.77 21.81 20.5 21.81 20.5 22.08 20.77 22.08 20.77 21.81 20.77 21.81"/>
      <polygon class="cls-9" points="19.24 23.49 19.24 33.5 19.52 33.64 19.52 23.49 19.24 23.49 19.24 23.49"/>
      <polygon class="cls-9" points="19.66 14.23 19.66 21.66 19.93 21.66 19.93 14.23 19.66 14.23 19.66 14.23"/>
      <polygon class="cls-9" points="20.5 14.23 20.5 21.66 20.77 21.66 20.77 14.23 20.5 14.23 20.5 14.23"/>
      <polygon class="cls-9" points="20.08 23.49 20.08 33.67 20.35 33.53 20.35 23.49 20.08 23.49 20.08 23.49"/>
      <polygon class="cls-9" points="19.1 23.07 11.21 23.07 11.21 23.34 19.1 23.34 19.1 23.07 19.1 23.07"/>
      <polygon class="cls-9" points="28.47 22.65 20.92 22.65 20.92 22.92 28.47 22.92 28.47 22.65 28.47 22.65"/>
      <polygon class="cls-9" points="28.47 21.81 20.92 21.81 20.92 22.08 28.47 22.08 28.47 21.81 28.47 21.81"/>
      <path class="cls-9" d="M28.39,29.5l-.45-.32-.5-.04-.35.06v-.15s-.43.08-.43.08l-.07-.22-.22.07c-.06-.04-.17-.14-.21-.14-.19,0-.2.04-.36.07-.05-.03-.23-.12-.22-.21-.07.03-.13.06-.2.08l.85-3.21h0s.29-.35.37-.29c.11.1-.26.35-.24.36.05.02.09.04.14.05.29.07.51.1.76-.08.13-.1.23-.29.24-.45,0-.09-.09-.1-.15-.12-.06-.02-.05,0-.12,0-.07,0-.1,0-.21-.03-.12-.03-.11-.04-.18-.11-.07-.06-.08-.04-.16-.06-.08-.02-.14-.04-.25-.05-.11-.01-.08-.02-.15-.02-.14,0-.19-.19-.19-.3,0-.14.18-.34.32-.34.06,0,.09,0,.14-.02.13-.07-.13-.15-.18-.14-.35.06-.57.32-.61.66-.03.28.11.61.32.84l-.89,3.36h.02c-.08.02-.16.03-.22.04l-.41-3.33s.07-.02.1-.04c.05-.02-.01.02.03,0,.03-.02-.2-.27-.13-.39,0,0,.01,0,.02,0,.01,0,.04,0,.07,0,.09.09.22.33.23.31.25-.25.55-.64.41-1.11-.09-.32-.34-.56-.69-.57-.06,0-.3.12-.16.17.05.02.09,0,.15,0,.14-.01.35.15.37.29.01.11-.05.45-.18.5-.27.11-.55.12-.88.11-.04,0-.36-.05-.35.03.03.16.18.51.33.59.19.11.36.15.55.12l.4,3.3c-.13,0-.23-.01-.31.07l-1.51-2.96c.18-.11.31-.23.36-.47.04-.16,0-.37-.11-.5-.05-.07-.13-.02-.2,0-.06.03-.04.03-.09.07-.05.04-.07.06-.18.12-.11.05-.11.04-.21.04s-.09.02-.16.05c-.08.04-.13.06-.22.12-.09.06-.07.04-.13.08-.11.09-.26-.02-.34-.11-.09-.11-.08-.37.03-.47.04-.04.08-.05.1-.11.05-.13-.2-.03-.23,0-.23.27-.23.61-.04.89.19.28.61.46.96.44.03,0,0-.46.1-.46.15,0,.02.44.05.43.05-.01.09-.03.14-.05l.03-.02,1.55,3.02c-.03.05-.06.12-.09.21h-.5s0,.14,0,.14l-.5-.07-.07.36h-.28s-.17.27-.17.27l-.33.02-.09.42h-.34s0,.22,0,.22c0,.23-.13.21-.36.21l.09.49h-.16s0,.29,0,.29c0,.23-.14.15-.14.28,0,.11.2.16.29.21,0,.38-.16.65-.24.78l-.64.32h0s0-.03,0-.04v-9.62h0s0-.03.02-.04c.01,0,.02-.02.04-.02h7.44s.03,0,.04.02c.01.01.02.02.02.04h0v5.86h0s0,.01,0,.02h0s0,0,0,.01h0s-.04.04-.07.06h0ZM22.92,24.55s.09.05.09.1-.04.1-.09.1-.09-.05-.09-.1.04-.1.09-.1h0ZM23.05,24.71c.05,0,.1.04.1.09s-.04.09-.1.09-.1-.04-.1-.09.04-.09.1-.09h0ZM22.63,24.46s.09.05.09.11-.04.11-.09.11-.09-.05-.09-.11.04-.11.09-.11h0ZM27.42,24.54c-.06,0-.11.05-.11.1s.05.1.11.1.11-.05.11-.1-.05-.1-.11-.1h0ZM23.73,24.49c.06,0,.11.05.11.1s-.05.1-.11.1-.11-.05-.11-.1.05-.1.11-.1h0ZM27.16,24.08c-.05-.01-.11.03-.13.09-.02.07.01.13.07.15.06.01.11-.03.13-.09.02-.07-.01-.13-.07-.15h0ZM23.98,24.03c.06-.01.11.03.13.09.02.07-.01.13-.07.15-.05.01-.11-.03-.13-.09-.02-.07.01-.13.07-.15h0ZM27.38,24.32s-.09.01-.13.07c-.03.06-.02.12.02.14.04.02.1-.01.13-.07.03-.06.02-.12-.02-.14h0ZM23.77,24.27s.1.01.13.07c.03.06.02.12-.02.14-.04.02-.09-.01-.13-.07-.03-.06-.02-.12.02-.14h0ZM26.95,23.89c-.06-.02-.13.02-.16.09-.03.07,0,.15.06.17.06.02.13-.02.16-.09.02-.07,0-.15-.06-.17h0ZM24.2,23.84c.06-.02.13.02.16.09.03.07,0,.15-.06.17-.06.02-.13-.02-.16-.09-.03-.07,0-.15.06-.17h0ZM22.33,24.45s.09.05.09.11-.04.11-.09.11-.09-.05-.09-.11.04-.11.09-.11h0ZM22,24.52s.1.02.13.08c.02.06,0,.12-.05.14-.05.02-.1-.02-.13-.08-.02-.06,0-.12.05-.14h0Z"/>
      <polygon class="cls-4" points="24.04 15.43 24.04 15.43 24.04 15.43 24.04 15.43"/>
      <path class="cls-4" d="M21.98,18.44l-.28-.22h0s0,0,0,0l-.21-.37h0s0-.02,0-.02l.06-.59v-.03s.03,0,.03,0c.62-.15.8-.37,1.03-.67.09-.12.19-.24.33-.38.12-.12.33-.29.51-.42.04-.03.07-.05.1-.07h0s.06-.04.09-.06h0c.28-.17.37-.16.41-.16,0,0,.01-.02.02-.05.03-.06.08-.18.19-.4v-.02s.03,0,.03,0h.15c.14,0,.19.01.26.04.02,0,.05.02.08.02v-.02c.01-.19.02-.27.25-.27h.07c.25,0,.32.38.38.67.01.05.02.1.03.15.42.1.72.26.98.48.26.22.47.49.7.8.08.11.37.72.52,1.25.06.2.1.4.1.56,0,.17-.04.29-.14.34-.03.01-.06.02-.1.02h-.27s.09.62.09.62h0s0,.01,0,.01c-.07.29-.14.35-.23.41-.05.04-.1.08-.16.17-.09.14-.09.2-.1.25,0,.09-.01.13-.33.3h-.02s-.02,0-.02,0c-.11-.05-.18-.06-.22-.06-.09-.01-.11-.01-.16-.22-.08,0-.15.02-.22.04-.07.02-.13.03-.19.03-.12,0-.19-.05-.19-.25v-.15s0,0,0,0h0c.03-.07.15-.33.22-.53.02-.04.03-.08.04-.11,0-.03.02-.06.02-.08,0,0,0-.01,0-.01,0,0-.14-.18-.27-.34-.08-.1-.15-.2-.17-.23-.12-.17-.19-.31-.27-.47-.03-.05-.06-.11-.09-.17h-.13s-.37,0-.37,0c-.24,0-.34.42-.44.82-.05.21-.1.41-.17.55h0s0,.15,0,.15c0,.09-.08.4-.14.61-.01.04-.03.08-.04.12-.01.03-.02.06-.03.08h0s0,.01,0,.02v.02s-.02,0-.02,0l-.28.07h-.03s-.01-.02-.01-.02l-.09-.22h0s0-.16,0-.16v-.15c0-.21.03-.31.07-.42.04-.1.07-.2.07-.39v-.15s0-.14,0-.14l-.06-.18s-.03,0-.04,0c-.09.02-.12.03-.12.17v1.03s.01.15.01.15h0s0,.02,0,.02l-.15.29v.02h-.18c-.09,0-.16-.01-.2-.05-.04-.04-.06-.1-.06-.2h0s.02-.15.02-.15l-.09-.92h-.34s-.03,0-.03,0v-.03s-.17-.71-.17-.71h0Z"/>
      <path class="cls-6" d="M21.76,18.16l.28.23h0s0,.02,0,.02l.16.7h.34s.03,0,.03,0v.03s.1.96.1.96h0s-.02.16-.02.16c0,.07.01.12.04.14.03.03.07.04.15.04h.13s.13-.27.13-.27v-.14s0,0,0,0v-1.03c0-.2.04-.21.17-.24.02,0,.05-.01.07-.02h.03s.01.02.01.02l.07.22h0s0,.01,0,.01v.15s0,0,0,0v.15c0,.21-.03.31-.07.42-.04.1-.07.2-.07.39v.15s0,.14,0,.14l.07.18.23-.06s.02-.04.03-.07c.01-.03.02-.07.04-.12.06-.21.14-.51.14-.59v-.15s0,0,0,0h0s0-.02,0-.02h0c.06-.13.11-.33.16-.53.11-.43.22-.88.51-.88h.37s.15,0,.15,0h.02v.02c.05.07.08.13.11.19.08.16.15.3.27.46.02.03.09.12.17.22.13.17.28.36.28.38h0s0,.02,0,.03c0,.02-.01.05-.02.09-.01.03-.02.07-.04.11-.07.19-.19.45-.22.52v.14c0,.14.05.18.12.18.05,0,.11-.01.17-.03.08-.02.17-.04.26-.04h.03s0,.03,0,.03c.05.19.06.19.11.2.04,0,.11.01.23.06.27-.15.27-.17.28-.23,0-.05.01-.13.11-.29.07-.11.13-.15.18-.19.08-.06.14-.1.2-.37l-.1-.65v-.04s.04,0,.04,0h.31s0,0,0,0c.03,0,.05,0,.07-.01.07-.04.1-.13.1-.27,0-.15-.04-.34-.1-.54-.15-.53-.43-1.12-.51-1.23-.22-.31-.43-.57-.69-.79-.25-.21-.56-.37-.97-.47h-.02s0-.03,0-.03v-.02h0s-.02-.1-.03-.15c-.05-.26-.11-.61-.3-.61h-.07c-.17,0-.17.06-.18.2h0s0,.04,0,.06v.04s-.04,0-.04,0c-.06-.01-.1-.03-.13-.04-.06-.02-.11-.03-.23-.03h-.13c-.11.21-.15.32-.18.38-.02.04-.03.06-.04.08-.02.02-.03.02-.05.02-.03,0-.1,0-.36.15h0s-.06.04-.09.06h0s-.07.05-.1.07c-.18.13-.39.3-.5.42-.13.13-.23.26-.32.37-.24.31-.42.54-1.05.69l-.05.56.2.35h0Z"/>
      <path class="cls-5" d="M22.92,24.55s.09.05.09.1-.04.1-.09.1-.09-.05-.09-.1.04-.1.09-.1h0ZM23.05,24.71c.05,0,.1.04.1.09s-.04.09-.1.09-.1-.04-.1-.09.04-.09.1-.09h0ZM22.63,24.46s.09.05.09.11-.04.11-.09.11-.09-.05-.09-.11.04-.11.09-.11h0ZM27.42,24.54c-.06,0-.11.05-.11.1s.05.1.11.1.11-.05.11-.1-.05-.1-.11-.1h0ZM23.73,24.49c.06,0,.11.05.11.1s-.05.1-.11.1-.11-.05-.11-.1.05-.1.11-.1h0ZM27.16,24.08c-.05-.01-.11.03-.13.09-.02.07.01.13.07.15.06.01.11-.03.13-.09.02-.07-.01-.13-.07-.15h0ZM23.98,24.03c.06-.01.11.03.13.09.02.07-.01.13-.07.15-.05.01-.11-.03-.13-.09-.02-.07.01-.13.07-.15h0ZM27.38,24.32s-.09.01-.13.07c-.03.06-.02.12.02.14.04.02.1-.01.13-.07.03-.06.02-.12-.02-.14h0ZM23.77,24.27s.1.01.13.07c.03.06.02.12-.02.14-.04.02-.09-.01-.13-.07-.03-.06-.02-.12.02-.14h0ZM26.95,23.89c-.06-.02-.13.02-.16.09-.03.07,0,.15.06.17.06.02.13-.02.16-.09.02-.07,0-.15-.06-.17h0ZM24.2,23.84c.06-.02.13.02.16.09.03.07,0,.15-.06.17-.06.02-.13-.02-.16-.09-.03-.07,0-.15.06-.17h0ZM22.33,24.45s.09.05.09.11-.04.11-.09.11-.09-.05-.09-.11.04-.11.09-.11h0ZM22,24.52s.1.02.13.08c.02.06,0,.12-.05.14-.05.02-.1-.02-.13-.08-.02-.06,0-.12.05-.14h0Z"/>
      <path class="cls-4" d="M11.28,14.09h7.74c.06,0,.12.03.16.07.04.04.06.1.06.16h0v7.27h0c0,.06-.02.12-.07.16-.04.04-.1.07-.16.07h0s0,0,0,0h-7.74c-.06,0-.12-.03-.16-.07-.04-.04-.06-.1-.06-.16h0v-7.27h0s0,0,0,0c0-.06.02-.12.06-.16.04-.04.1-.07.16-.07h0Z"/>
      <path class="cls-10" d="M19.02,14.23h-7.74s-.04,0-.05.02c-.01.01-.02.03-.02.05h0v7.27h0s0,.04.02.06c.01.01.03.02.05.02h0s0,0,0,0h7.74s.04,0,.05-.02c.01-.01.02-.03.02-.06h0v-7.27h0s0-.04-.02-.06c-.01-.01-.03-.02-.05-.02h0Z"/>
      <path class="cls-4" d="M12.51,28.93l1.95-1.94-1.95-1.94s-.06-.07-.08-.11c-.04-.07-.05-.14-.05-.21,0-.06.01-.12.03-.17.02-.05.06-.11.1-.15.04-.04.08-.06.12-.09.06-.03.13-.05.2-.05.06,0,.12.01.17.03.06.02.11.05.15.1l1.95,1.94,1.95-1.94s.08-.06.12-.08c.03-.01.06-.02.09-.03.03,0,.06-.01.09-.01.12,0,.25.04.35.13.03.03.06.07.08.11.04.07.05.14.05.21,0,.06-.01.12-.03.17-.02.05-.06.11-.1.15l-1.95,1.94,1.95,1.94s.06.07.08.11c.01.03.03.06.04.09,0,.03.01.06.02.09.01.13-.03.26-.13.36-.03.03-.07.06-.11.08-.03.01-.06.03-.09.04-.03,0-.06.01-.09.02-.13.01-.26-.03-.36-.13l-1.95-1.94-1.95,1.94s-.07.06-.12.09h0c-.06.03-.13.05-.2.05s-.14-.02-.2-.05h0s-.08-.05-.12-.08c-.03-.03-.06-.08-.08-.12-.03-.06-.05-.13-.05-.2,0-.06.01-.12.03-.17.02-.05.05-.11.1-.15h0Z"/>
      <path class="cls-3" d="M14.53,27.01l-1.97,1.97s-.07.08-.08.13c-.02.05-.03.09-.03.14,0,.06.01.12.04.17.02.04.04.07.07.1.03.03.06.05.1.07h0c.05.03.11.04.17.04s.12-.01.17-.04h0s.07-.04.1-.07l1.97-1.97.03-.03.03.03,1.65,1.65.55-.53-1.66-1.66-.03-.03.03-.03,1.97-1.97s.06-.08.08-.13c.02-.05.03-.09.03-.14,0-.06-.02-.12-.04-.18-.02-.03-.04-.06-.07-.09-.08-.08-.19-.12-.29-.11-.03,0-.05,0-.08.01-.02,0-.05.02-.07.03-.04.02-.07.04-.1.07l-1.97,1.97-.03.03-.03-.03-1.68-1.68-.55.53,1.69,1.69.03.03-.03.03h0ZM16.83,29.25l.27.27c.08.08.19.12.3.11.03,0,.05,0,.08-.01.02,0,.05-.02.07-.03.03-.02.06-.04.09-.07.08-.08.12-.19.11-.3,0-.03,0-.05-.01-.08,0-.02-.02-.05-.03-.07-.02-.03-.04-.06-.07-.09l-.26-.26-.55.53h0ZM13.34,24.7l-.24-.24s-.08-.06-.13-.08c-.05-.02-.09-.03-.14-.03-.06,0-.12.01-.17.04-.04.02-.07.04-.1.07-.04.04-.07.08-.08.13-.02.05-.03.09-.03.14,0,.06.02.12.05.18.02.03.04.06.07.09l.23.23.55-.53h0Z"/>
      <path class="cls-8" d="M16.14,16.09h.96s0,.29,0,.29c0,.33-.56.59-.95.6v-.89h0ZM13.19,16.71c0,.23.53.35.74.36,0,.61-.42,1.21-.95,1.26v1.18c.01.23.08.3.16.44h.15s3.69-.03,3.69-.03c.03-.36.14-.46.14-.89v-.74c-.48-.04-1-.69-1.05-1.17.74-.02,1.24-.37,1.25-1.12-.17-.04-.17-.07-.37-.07l-3.76.03v.74h0Z"/>
      <path class="cls-5" d="M33,15.67c.24-.1.51-.28.49-.55,0-.05,0-.04-.02-.09-.08-.22-.32-.32-.52-.41-.05-.02-.25-.11-.27-.18.02-.04.06-.08.09-.11.05-.04.11-.08.18-.08.21-.01.4.04.6.11.18.06.41.17.58.05.05-.03.08-.08.1-.13.01-.03.02-.06.02-.09.06.02.13.04.19.06.06.02.11.04.17.06.08.02.16.01.24,0,.13-.02.28-.02.39-.11.08-.06.13-.16.15-.26,0,0,0,0,0,0,.02.06.03.12.05.16.03.11.06.22.08.33,0,.05.02.11.04.15.11.28.39.31.57.06.42-.6.51-1.98-.37-2.23-.01,0-.03,0-.05-.01t0,0c.06-.05.1-.11.11-.19.02-.22-.23-.36-.41-.42-.21-.07-.5-.04-.69-.16-.05-.03-.09-.08-.08-.15l.03-.15-.14-.08c-.15-.09-.36-.03-.5.05h-.02s-.02.02-.02.02c-.5.42-1.15.56-1.72.85-.53.27-.9.62-1.15,1.16-.24.51-.38,1.14-.39,1.7-.02.87.26,1.68.85,2.33.11.12.27.21.43.13.03-.02.05-.04.07-.06.05.09.11.17.18.25-.17,0-.32.04-.49.17-.24.17-.31.39-.39.66-.11.41-.12.88-.13,1.31,0,.04,0,.08,0,.13,0,.16.01.36.19.43.09.04.19.01.27-.05.19-.14.3-.55.35-.77,0-.02.03-.06.06-.09.25.65.51,1.27.89,1.86.48.76,1.11,1.39,1.92,1.8.18.09.41.48.4.69-.01.17-.09.42-.25.5-.14.08-.28.09-.42.01-.01,0-.02-.01-.03-.02-.04-.05-.06-.17-.06-.23-.02-.21,0-.51-.19-.64-.04-.03-.08-.04-.13-.05-.06-.01-.13,0-.19.01-.21.07-.32.28-.36.49-.04.21-.03.46.04.66.04.11.09.21.15.3.16.22.39.34.65.36.35.03.71-.11,1.01-.27.24-.13.4-.34.52-.58.05-.09.09-.18.13-.27,0-.02.02-.04.03-.07.03.04.06.08.1.12l.05.05h.07c.21.05.45-.05.5-.28.02-.07.02-.14.03-.21,0-.02,0-.06.01-.09.04.03.08.07.11.1.13.12.32.26.5.15.13-.08.17-.23.17-.37.05.04.09.09.11.11.08.1.2.18.34.15.15-.03.22-.16.26-.29.04-.17.04-.42-.03-.58-.03-.06-.04-.11-.04-.17,0-.08,0-.14-.02-.22-.06-.19-.26-.25-.44-.31-.04-.01-.07-.01-.11-.02,0-.05.02-.09.04-.14.04-.11.09-.2.04-.32-.09-.19-.34-.17-.52-.16-.05,0-.2-.07-.24-.11-.1-.19-.3-.44-.53-.44-.08,0-.16.03-.22.08-.08.07-.09.15-.12.25,0,0,0,.01,0,.02,0,0-.01,0-.02.01-.04.02-.08.04-.12.07-.07.05-.13.1-.19.16-.11.13-.28.31-.31.48,0,.04-.03.16-.07.17-.03.01-.06.02-.09.04-.02-.11-.05-.21-.07-.32-.03-.14-.07-.3-.23-.35-.22-.07-.39.17-.51.32,0,0-.01.02-.02.03-.42-.16-.98-.68-1.08-1.12-.03-.14-.05-.28-.07-.42-.01-.08-.04-.31-.02-.41,0,0,.02-.02.03-.02.17.19.01.52.28.71.01.01.03.04.04.06.06.12.12.24.26.29.08.02.15.01.22-.02.07-.04.15-.08.22-.13.11-.07.22-.13.32-.2.15-.1.4-.26.51-.4.02-.03.06-.09.09-.14.01.07.04.14.12.19.09.05.19.04.27-.01.36-.23.54-.64.58-1.05.02.04.04.09.06.13.25.45.65.61,1.15.42.06-.02.13-.05.19-.08.13-.05.26-.12.38-.19.05-.03.11-.07.15-.12.07-.07.11-.16.09-.26,0-.05-.03-.1-.07-.14-.08-.08-.16-.08-.26-.08-.01-.15,0-.4.07-.51.24-.32.52-.62.77-.92.3-.36.58-.74.8-1.16.62-1.2.57-2.47.2-3.74-.1-.36-.4-.79-.66-1.09.11,0,.22-.07.28-.16.06-.09.1-.19.11-.3,0-.04,0-.09,0-.13,0-.01.02-.04.02-.05.03-.07.05-.14.04-.21-.01-.14-.11-.23-.23-.28-.12-.05-.41-.17-.49-.25-.1-.1-.1-.25-.2-.36-.09-.1-.21-.14-.35-.14-.07,0-.21-.07-.28-.12,0-.12.01-.22-.1-.3-.1-.08-.22-.05-.32,0-.07.05-.21.14-.3.12-.07-.01-.32-.05-.37-.11-.01-.08-.05-.27-.03-.36.06-.04.15-.09.22-.13.06-.04.12-.08.17-.12.09-.08.15-.19.14-.31,0-.07-.03-.14-.07-.2,0,0,0,0,0,0,.19-.08.54-.12.66-.31.09-.15,0-.3-.1-.41-.08-.08-.18-.14-.28-.2-.06-.03-.12-.06-.19-.09-.02,0-.04-.02-.06-.04-.15-.19.06-.8.19-.97.09-.12.25-.05.36,0,.1.05.22.09.34.1.13,0,.26-.05.32-.17,0,0,0-.02.01-.03.03.11.03.28.04.35,0,.13,0,.27,0,.4,0,.12,0,.28.11.37.04.03.08.05.13.06.11.02.21-.03.28-.11.05-.06.09-.13.12-.2.08-.17.12-.37.13-.56.04-.59-.19-1.12-.72-1.42-.14-.08-.28-.13-.44-.16-.89-.17-1.9.45-2.59.96-.16.12-.32.26-.48.4-.28.26-.54.53-.81.8-.08.08-.16.17-.24.25.11-.2.21-.41.3-.62.09-.23.22-.45.12-.7-.05-.13-.19-.24-.3-.32-.01,0-.03-.02-.05-.04.04-.03.09-.06.13-.09.11-.09.21-.21.18-.36-.03-.15-.17-.21-.3-.24-.14-.03-.29-.03-.43-.03-.05,0-.1,0-.15.02-.15.05-.18.1-.36.08-.12-.02-.16-.1-.28-.14-.14-.05-.27.01-.38.1-.12.09-.26.19-.27.34-.26-.16-.56-.26-.89-.26-.09,0-.17.04-.22.12,0,.01-.01.03-.02.04-.15-.05-.3-.09-.44-.09-.28,0-.64.3-.8.52-.14.2-.28.41-.41.62l-.17.28.32.05c.09.02.2.03.3.03,0,0,0,0-.01,0-.13.1-.23.23-.32.37-.1.16-.16.36-.19.55-.03.19-.05.38-.04.57,0,.07,0,.14.02.2.02.12.08.24.23.25.03,0,.05,0,.08-.01.11-.04.22-.09.34-.13.14-.05.28-.07.43-.07.32,0,.51.06.69.32.08.11.15.23.21.35.05.11.11.23.14.34,0,.04.03.14.02.17-.03.08-.06.12-.1.19-.02.03-.03.07-.05.1-.05-.06-.11-.11-.18-.15-.18-.11-.49-.22-.63.01-.02.02-.03.05-.04.08-.07.15-.05.32-.03.47.01.08.06.44,0,.51-.04.01-.18-.03-.22-.04-.16-.06-.08-.11-.21-.2-.07-.05-.16-.05-.24-.03-.13.04-.2.13-.26.23,0,0-.01.02-.02.04-.02-.02-.05-.05-.07-.07-.11-.12-.19-.28-.37-.3-.06,0-.11,0-.16.02-.09.03-.17.08-.25.12-.01,0-.04.02-.06.03,0-.02,0-.04,0-.05.01-.18.05-.45-.15-.54-.05-.02-.07-.03-.12-.02-.11,0-.21.02-.31.02,0-.01,0-.03,0-.03,0-.07.1-.2.13-.26.01-.02.04-.05.05-.07.03-.04.07-.08.1-.12.06-.08.12-.17.14-.27.1-.4-.28-.68-.57-.32-.05.06-.24.32-.3.36-.17.04-.35.08-.52.09-.04,0-.18,0-.22-.02,0-.05.05-.18.07-.22.07-.14.14-.31.03-.45-.07-.09-.18-.11-.29-.1-.02-.02-.04-.04-.07-.06-.1-.06-.21-.06-.31-.04-.11.02-.22.05-.31.11-.05.03-.07.06-.11.09-.09.02-.42-.01-.51-.02-.06,0-.13-.02-.2-.03-.11-.03-.22-.1-.31-.17.02-.01.04-.02.05-.02h.02s.02-.01.02-.01c.06-.03.1-.08.12-.14.05-.15-.06-.26-.17-.33-.08-.06-.17-.1-.26-.15-.25-.13-.51-.24-.76-.35-.22-.1-.44-.19-.65-.28-.13-.05-.27-.11-.39-.18-.28-.15-1.28-.42-1.55-.47-.11-.23-.21-.37-.28-.45-.44-.49,1.12-.13,1.37-.14.09,0,.05-.19.03-.31-.04-.2-.13-.32,0-.47.13-.14.27-.3.13-.59-.14-.29-.29-.18-.27-.36.02-.18.23-.91.39-1.43.16-.52.27-.83.41-.83s.3.04.32.16c.02.13.03.22-.13.4-.16.18-.41.16-.41.32s.12.23.19.34c.11.16-.18.54,0,.61.1.04.34-.38.57-.38s.43-.13.59-.07c.16.05.21.07.29-.05.07-.13-.14-.25-.34-.48-.2-.23-.2-.22-.26-.43-.06-.21.01-.34-.26-.61-.27-.27-.38-.11-.36-.29.02-.18-.05-.3.13-.29.18.02.25.09.48.07.23-.02.32-.02.3-.25-.02-.23,0-.45.11-.47.11-.02.2-.12.2-.12,0,0,0-.18-.27-.16-.27.02-.23-.05-.47.11-.23.16-.22.29-.36.27-.14-.02-.16.02-.52-.11-.36-.13-.41-.07-.66-.07s-.4-.11-.49-.04c-.09.07-.39.21-.39.21,0,0-.17.21,0,.3.14.08.32.48.15.58-.2.13-.13,0-.3-.06-.18-.07-.38-.13-.73-.1-.34.03-.43-.04-.19-.21.17-.12.34-.42-.02-.22-.16.09-.37.32-.37.22s-.04-.4-.04-.4l-.17.13-.15.1-.3-.23c-.03.12.06.47-.07.44-.2-.05-.34-.16-.56-.22-.22-.05-.13.09-.13.09l.32.13s.13.14.04.16-.5,0-.68.1c-.18.09-.39.23-.39.23,0,0-.25,0-.11-.17.14-.16.23-.29.23-.38s-.02-.32-.29-.39c-.27-.07-.61-.11-.7-.09-.09.02-.48-.02-.65.04-.16.05-.23.14-.39.14s-.32-.04-.41-.13c-.09-.09-.05-.25-.27-.23-.22.02-.43-.07-.38.29.03.25.26.41.26.56s.09.18.23.18.27-.09.36-.07c.09.02.47.18.27.3-.2.13-.45.14-.57.57-.13.43.05.47-.07.54-.12.07-.41.27-.56.45-.31.38.33.36.49.36.23,0,.28.07.49.14.22.07.48.35.46.22-.02-.13-.13-.15,0-.35.13-.2.11-.2.16-.38.05-.18-.05-.36-.25-.43-.2-.07-.4-.2-.28-.45.13-.25.15-.27.39-.2.23.07.29.59.34.7.05.11.23.84.34,1.15.11.3.18.41.07.5-.11.09-.09.14-.32.16-.23.02-.37-.03-.37.13s-.06.4.03.51c.09.11.13.29.13.29-.08.52.54.49.79.36.34-.18.41-.02.41-.02,0,0-.2.36-.43.74-.05.08-.09.15-.12.21-.06.02-.12.04-.17.07-.12.07-.27.12-.39.18-.22.1-.43.19-.65.28-.25.11-.51.23-.76.35-.09.04-.18.09-.26.15-.11.08-.21.18-.17.33.02.06.06.11.12.14h.02s.02.01.02.01c.01,0,.03.01.05.02-.09.07-.21.14-.31.17-.06.02-.13.02-.2.03-.09,0-.42.04-.51.02-.04-.03-.06-.06-.11-.09-.09-.06-.2-.09-.31-.11-.11-.02-.22-.02-.31.04-.03.02-.05.04-.07.06-.11-.02-.22,0-.29.1-.11.14-.04.32.03.45.02.04.08.17.07.22-.05.02-.18.02-.22.02-.17-.01-.35-.05-.52-.09-.06-.04-.25-.3-.3-.36-.3-.36-.67-.08-.57.32.03.1.08.19.14.27.03.04.07.08.1.12.02.02.04.05.05.07.03.06.13.19.13.26,0,0,0,.02,0,.03-.11,0-.21-.01-.32-.02-.05,0-.07,0-.12.02-.2.1-.16.36-.15.54,0,.01,0,.03,0,.05-.03-.01-.05-.03-.06-.03-.08-.05-.17-.09-.25-.12-.05-.02-.11-.03-.16-.02-.18.03-.27.18-.37.3-.02.02-.04.05-.07.07,0-.01-.02-.03-.02-.04-.07-.1-.14-.2-.26-.23-.08-.02-.16-.02-.24.03-.13.09-.05.14-.21.2-.04.01-.17.06-.22.04-.05-.07,0-.43,0-.51.02-.16.04-.33-.03-.47-.01-.03-.03-.05-.04-.08-.14-.23-.45-.12-.63-.01-.06.04-.13.09-.18.15-.01-.03-.03-.07-.05-.1-.04-.07-.07-.11-.1-.19-.01-.04.01-.14.02-.17.03-.12.08-.24.14-.34.06-.12.13-.24.21-.35.18-.26.37-.32.69-.32.15,0,.29.02.43.07.11.04.22.09.33.13.03,0,.05.01.08.01.15,0,.21-.12.23-.25,0-.07.01-.14.02-.2,0-.19,0-.39-.04-.57-.03-.19-.09-.39-.19-.55-.09-.14-.19-.26-.32-.37,0,0,0,0-.01,0,.1,0,.2-.02.3-.03l.32-.05-.17-.28c-.13-.21-.26-.42-.41-.62-.16-.22-.52-.51-.8-.52-.14,0-.3.03-.44.09,0-.01-.01-.03-.02-.04-.05-.08-.13-.12-.22-.12-.33,0-.63.1-.89.26-.01-.15-.16-.26-.27-.34-.11-.08-.24-.14-.38-.1-.12.04-.16.13-.28.14-.18.02-.21-.04-.36-.08-.05-.02-.1-.02-.16-.02-.14,0-.3,0-.43.03-.14.03-.27.09-.3.24-.04.15.07.27.18.36.04.03.08.06.12.09-.02.01-.04.03-.05.04-.11.08-.25.18-.3.32-.1.25.02.47.12.7.09.21.19.42.3.62-.08-.08-.16-.17-.24-.25-.26-.27-.53-.55-.81-.8-.15-.14-.31-.27-.48-.4-.69-.52-1.69-1.13-2.59-.96-.15.03-.3.08-.44.16-.53.29-.77.83-.72,1.42.01.19.06.39.13.56.03.07.07.14.12.2.07.08.17.13.28.11.05,0,.09-.03.13-.06.1-.09.1-.25.11-.37,0-.13,0-.27,0-.4,0-.08,0-.24.04-.35,0,0,0,.02.01.03.06.12.19.17.32.17.12,0,.23-.05.34-.1.11-.05.27-.12.36,0,.13.17.34.78.19.97-.02.02-.04.03-.06.04-.06.03-.13.06-.19.09-.1.05-.2.12-.28.2-.11.11-.19.26-.1.41.11.19.46.23.66.31,0,0,0,0,0,0-.04.05-.06.12-.07.2,0,.12.05.23.14.31.05.05.11.09.17.12.06.04.15.08.22.13.01.09-.02.28-.03.36-.06.05-.31.09-.37.11-.09.02-.23-.07-.3-.12-.1-.06-.22-.08-.32,0-.11.08-.1.19-.1.3-.06.05-.21.12-.28.12-.13,0-.26.03-.35.14-.1.12-.1.27-.2.36-.09.09-.38.2-.49.25-.12.06-.22.14-.23.28,0,.08.01.14.04.21,0,.01.02.04.02.05,0,.04-.01.09,0,.13,0,.11.05.21.11.3.07.09.17.17.28.16-.26.3-.56.73-.66,1.09-.37,1.27-.42,2.54.2,3.74.22.42.5.8.8,1.16.26.3.53.6.77.92.08.1.09.36.07.51-.09,0-.17,0-.26.08-.04.04-.06.09-.07.14-.02.1.02.19.09.26.04.05.1.08.15.12.12.07.25.14.38.19.06.03.12.05.19.08.5.19.9.03,1.15-.42.02-.04.04-.08.06-.13.04.42.21.82.58,1.05.08.05.18.06.27.01.08-.05.11-.11.12-.19.04.06.07.11.09.14.11.14.36.3.51.4.11.07.21.14.32.2.07.04.15.09.22.13.07.03.15.04.22.02.14-.04.2-.17.26-.29,0-.01.02-.05.04-.06.26-.19.11-.52.28-.71,0,0,.02.01.03.02.01.1-.01.33-.02.41-.02.14-.04.28-.07.42-.09.44-.65.96-1.08,1.12,0,0-.01-.02-.02-.03-.11-.15-.29-.39-.51-.32-.15.05-.2.21-.23.35-.02.11-.04.21-.07.32-.03-.01-.06-.03-.09-.04-.04-.01-.06-.14-.07-.17-.03-.17-.2-.36-.31-.48-.06-.06-.12-.12-.19-.16-.04-.03-.08-.04-.12-.07,0,0-.01,0-.02-.01,0,0,0-.01,0-.02-.03-.1-.04-.17-.12-.25-.06-.06-.14-.08-.22-.08-.23,0-.43.25-.54.44-.05.04-.19.1-.24.11-.18,0-.43-.03-.52.16-.05.12,0,.22.04.32.02.05.03.09.04.14-.04,0-.07,0-.11.02-.17.05-.37.12-.44.31-.03.08-.02.14-.02.22,0,.06-.02.12-.04.17-.07.16-.07.41-.03.58.03.14.11.26.26.29.14.03.25-.05.34-.15.02-.02.07-.07.11-.11,0,.15.05.3.17.37.18.11.37-.03.5-.15.04-.03.08-.07.12-.1,0,.03,0,.07.01.09,0,.07.02.14.03.21.05.23.28.33.5.29h.07s.05-.07.05-.07c.04-.04.07-.08.1-.12,0,.02.02.05.03.07.04.09.08.18.13.27.12.23.29.45.52.58.3.16.66.31,1.01.27.27-.02.49-.15.65-.36.07-.09.12-.19.15-.3.07-.21.09-.45.04-.66-.04-.2-.15-.42-.36-.49-.06-.02-.12-.02-.19-.01-.05,0-.09.03-.13.05-.19.14-.17.43-.19.64,0,.07-.02.18-.06.23,0,0-.02.02-.03.02-.14.08-.28.06-.42-.01-.16-.09-.24-.33-.25-.5-.01-.21.22-.6.4-.69.81-.41,1.43-1.04,1.92-1.8.38-.59.64-1.21.89-1.86.03.03.05.07.06.09.06.22.17.63.35.77.08.06.17.08.27.05.17-.07.19-.27.19-.43,0-.04,0-.08,0-.13-.01-.43-.02-.89-.13-1.31-.07-.27-.15-.48-.39-.66-.17-.12-.31-.16-.49-.17.07-.08.13-.16.18-.25.02.02.04.04.07.06.16.09.32,0,.43-.13.6-.65.87-1.45.85-2.33-.01-.56-.15-1.19-.39-1.7-.25-.54-.62-.89-1.15-1.16-.57-.29-1.22-.43-1.72-.85h-.02s-.02-.02-.02-.02c-.14-.08-.35-.14-.5-.05l-.14.08.03.15c0,.06-.03.12-.08.15-.19.12-.48.09-.69.16-.18.06-.43.19-.41.42,0,.08.05.14.11.19,0,0,0,0,0,0-.02,0-.04.01-.05.01-.88.25-.79,1.63-.37,2.23.17.25.46.22.57-.06.02-.05.03-.1.04-.15.03-.11.05-.22.08-.33.01-.04.03-.1.04-.16,0,0,0,0,0,0,.02.1.06.19.15.26.11.09.25.09.39.11.08.01.16.02.24,0,.06-.01.11-.04.17-.06.06-.02.13-.04.19-.06,0,.03,0,.06.02.09.02.05.06.1.1.13.17.12.41.01.58-.05.19-.07.39-.12.6-.11.07,0,.13.04.18.08.02.02.07.07.09.11-.02.07-.23.16-.27.18-.2.09-.44.19-.52.41-.02.05-.02.04-.02.09-.02.26.24.44.49.55l-.02.07c-.03.1-.05.2-.08.31-.02.1-.06.23-.06.33,0,.01,0,.03,0,.04-.04.06-.22.08-.28.09-.13.01-.25.01-.38.01-.08,0-.37,0-.44-.05,0-.04.03-.13.04-.16.04-.08.09-.17.15-.24.17-.2.04-.44-.16-.55-.06-.03-.13-.05-.2-.05-.42-.02-.8.15-1.17.34-.11.06-.4.22-.56.22.04-.05.09-.12.12-.17.07-.07.11-.14.11-.25,0-.18-.15-.29-.3-.35,0,0,0,0,0,0,0-.03,0-.06,0-.09,0-.02,0-.04,0-.05-.01-.11-.09-.21-.22-.21-.08,0-.36-.02-.43-.09-.02-.1-.07-.2-.11-.3-.02-.05-.06-.14-.06-.19,0-.07-.03-.13-.08-.18-.09-.07-.19-.06-.28,0-.03.02-.06.04-.1.06-.07.05-.14.09-.21.13-.04.02-.12.05-.17.04,0,0,0,0,0,0-.1-.07-.31-.32-.36-.42-.03-.06-.14-.26-.13-.33.03-.04.04-.08.04-.12,0,0,0,0,.01,0,.12-.03.23-.1.28-.22.06-.15-.02-.3-.09-.44,0,0-.01-.02-.02-.03.05,0,.11,0,.16,0,.02,0,.04,0,.06.01.09.02.18,0,.24-.07.08-.1.05-.19,0-.29-.02-.05-.05-.09-.07-.14-.09-.21-.15-.43-.21-.66,0,0,0,0,0,0,.09.03.3.18.35.24.17.17.5.15.63-.05.05-.07.07-.15.06-.23-.01-.12-.07-.22-.14-.32,0,0,.01,0,.02,0,.25.02.38-.14.4-.37,0-.02,0-.05,0-.08.07-.12.38-.51.48-.56.26-.13.45-.22.74-.27.03,0,.13-.02.21,0-.07.05-.14.1-.18.13-.15.12-.17.22-.17.4,0,.04,0,.08.02.12.07.16.24.2.39.21.14.01.3,0,.44,0,.07,0,.31-.02.41-.02.13.36.51.46.86.48.13,0,.27,0,.4,0,.03,0,.08,0,.13,0,.01.13.07.25.18.33.23.16.56.06.8-.02.12-.04.32-.12.44-.13.04,0,.09,0,.13,0,.03,0,.06.01.09.02.07.01.14.03.21.04.09.01.19.05.27.08.13.05.27.1.4.15.15.06.3.12.46.19.1.04.2.09.3.13.17.06.34.08.52.09.08,0,.22.02.28.06.08.05.08.21.08.29,0,.03,0,.06-.02.08-.07.09-.31.09-.41.08-.13,0-.35-.05-.46-.11-.29-.17-.57.08-.45.38.26.66,1.36.59,1.93.51.15-.02.24-.06.36-.14.02-.01.03-.02.04-.03.02.03.05.05.09.07.07.04.14.06.22.05.09-.01.16-.06.23-.12.01-.01.03-.02.04-.03,0,0,0,0,0,0,.14.25.45.3.62.05.07-.1.13-.15.25-.15.03,0,.06,0,.08.01.02.01.04.04.06.06.04.04.08.08.13.12.13.1.28.23.45.16.16-.07.17-.24.16-.39,0-.04-.01-.09-.02-.14.01,0,.03,0,.04,0,.11-.02.2-.06.28-.13.24-.23.22-.66.19-.95,0-.05,0-.1,0-.15,0-.05.03-.16.06-.23.13.04.27.04.39-.05.15-.12.17-.32.17-.5,0-.17,0-.34.02-.51.01-.09.03-.19.07-.28.04-.09.1-.16.19-.21.09-.06.28-.02.42.02-.02.06-.03.12-.02.19.03.17.17.26.33.3.03,0,.06.01.09.02-.41.31-.83.78-1.02,1.28-.1.28-.14.71.07.93.21.22.25.74.22.91-.04.18-.05.43.16.81.22.38.41.7.93.65.52-.05,1.24-.45,1.34-.61.11-.16.41-.48.68-.5.27-.02,1.17-.13,1.4-.23.23-.11.65-.38.81-.45.16-.07.63-.09.97-.02.34.07.61.45.9.47.29.02.09.02.23-.23.14-.25.36-.91.36-1.06s0-.7-.36-.88c-.36-.18-.75-.47-.88-.61-.08-.09-.26-.29-.41-.46.05,0,.1.01.15.02.2,0,.46.02.66-.03.16-.04.3-.12.33-.3.01-.07,0-.13-.02-.19.14-.04.32-.08.42-.02.08.05.14.12.19.21.04.09.06.18.07.28.02.17.01.34.02.51,0,.18.02.38.17.5.12.09.26.09.39.05.03.07.05.18.06.23,0,.05,0,.1,0,.15-.03.3-.05.73.19.95.08.07.17.12.28.13.01,0,.03,0,.04,0,0,.05-.01.1-.02.14-.02.15,0,.32.16.39.17.08.33-.06.45-.16.05-.04.09-.08.13-.12.02-.02.04-.04.06-.06.02-.02.06-.02.08-.01.12,0,.18.06.25.15.17.26.48.2.62-.05,0,0,0,0,0,0,.01.01.03.02.04.03.07.06.14.11.23.12.08,0,.15,0,.22-.05.04-.02.07-.05.09-.07.01,0,.02.02.04.03.12.09.21.12.36.14.57.08,1.67.15,1.93-.51.12-.3-.16-.54-.45-.38-.11.06-.34.1-.46.11-.1,0-.33,0-.41-.08-.02-.02-.02-.05-.02-.08,0-.08,0-.24.08-.29.06-.04.2-.05.28-.06.18-.02.35-.03.52-.09.1-.04.2-.08.3-.13.15-.06.3-.13.46-.19.13-.05.26-.11.4-.15.08-.03.18-.07.27-.08.07-.01.14-.03.21-.04.03,0,.06-.01.09-.02.04,0,.09,0,.13,0,.12.01.32.09.43.13.24.08.58.18.8.02.11-.08.16-.2.18-.33.05,0,.1,0,.13,0,.13,0,.27,0,.4,0,.36-.02.74-.12.87-.48.1,0,.34.01.41.02.15,0,.3.01.44,0,.15-.01.32-.06.39-.21.02-.04.02-.08.02-.12,0-.18-.02-.28-.17-.4-.04-.03-.11-.08-.18-.13.08,0,.18,0,.21,0,.29.04.48.14.74.27.1.05.41.44.48.56,0,.02,0,.06,0,.08.02.23.15.39.4.37,0,0,.01,0,.02,0-.07.1-.13.19-.14.32,0,.08.01.17.06.23.14.2.47.22.63.05.06-.06.26-.2.35-.24,0,0,0,0,0,0-.05.22-.12.45-.21.66-.02.05-.04.09-.07.14-.05.09-.07.19,0,.29.06.08.15.09.24.07.02,0,.04,0,.06-.01.05,0,.1,0,.16,0,0,.01-.01.02-.02.03-.07.13-.14.28-.09.44.04.12.15.19.28.22,0,0,0,0,.01,0,0,.04.02.08.04.12.01.07-.09.27-.12.33-.06.1-.26.36-.36.42,0,0,0,0,0,0-.05,0-.13-.02-.17-.04-.07-.04-.14-.08-.21-.13-.03-.02-.06-.04-.1-.06-.09-.05-.2-.06-.28,0-.05.04-.08.11-.08.18,0,.06-.03.14-.06.19-.04.1-.09.2-.11.3-.07.07-.35.09-.43.09-.12,0-.2.1-.22.21,0,.02,0,.04,0,.05,0,.03,0,.06-.01.09,0,0,0,0,0,0-.15.06-.29.17-.3.35,0,.1.05.18.11.25.03.05.09.11.12.17-.16,0-.45-.16-.56-.22-.37-.19-.75-.36-1.17-.34-.07,0-.14.02-.2.05-.21.1-.33.35-.16.55.06.07.11.16.15.24.01.03.05.12.04.16-.07.06-.36.05-.44.05-.13,0-.25,0-.38-.01-.07,0-.24-.03-.28-.09,0-.01,0-.02,0-.04,0-.1-.03-.23-.06-.33-.02-.1-.05-.2-.08-.31l-.02-.07h0ZM16.71,5c.12.21.34-.05.56-.04.16,0,.44.04.64-.13.2-.17.1-.11.27-.14.16-.03.28.03.4.03s.21-.02.3-.09c.09-.07.24-.17.39-.17s.26-.01.36.03c.11.04.22.1.37.09.14,0,.28-.1.51-.09.22,0,.17-.01.39.1.22.11.38.02.51.03.13,0,.24.08.34.12.1.04.46.03.56.04s.26.07.3,0c.04-.06.16-.27.09-.37-.06-.1-.1-.19-.3-.11-.21.08-.03-.15-.24-.16-.22,0-.12.04-.2.08-.08.04-.23.06-.27-.04-.04-.1-.1-.13-.21-.06-.12.07-.24.1-.31.04-.07-.06-.03-.12-.16-.12-.13,0-.2.26-.31.21-.12-.04-.09-.24-.28-.2-.2.05-.12.13-.26.16-.14.04-.14-.05-.26-.09-.12-.04-.19-.03-.23.04-.16.26-.23-.07-.35-.06-.14,0-.09.2-.26.2s-.14-.17-.29-.13c-.14.05-.11.08-.21.12-.1.05-.21.03-.26,0-.05-.02-.11,0-.18.04-.07.05-.17.1-.22.06-.05-.04-.21-.12-.23-.06-.02.05,0,.17-.13.15-.14-.02-.23-.05-.31,0-.08.05-.02.12-.16.12-.35,0-.45.16-.32.38h0ZM20.26,2.75c.04.08.22.19.4.35.18.16.22.34.29.49.06.15.1.39.19.4.09.02.21-.06.3-.1.09-.04.15-.18.26-.06.11.12.19.19.26.12.07-.07.23-.78.42-1.33.19-.55.36-1.16.45-1.27.09-.11.16-.31.2-.39.04-.08.07-.23,0-.27-.06-.04-.15-.04-.19.04-.04.07-.08.4-.13.51-.05.11-.38.11-.47.12-.1,0-.3,0-.34.08-.04.09-.03.41-.08.5-.05.09-.26.23-.26.3,0,.45-.13.69-.94.56-.01,0-.45-.24-.36-.04h0ZM19.42,2.79c-.06.14-.22.19-.4.35-.18.16-.39.42-.45.57-.06.15,0,.33-.09.35-.09.02-.12.08-.21.04-.09-.04-.15-.18-.26-.06-.11.12-.19.19-.26.12-.07-.07-.23-.78-.42-1.33-.19-.55-.36-1.16-.45-1.27-.09-.11-.16-.31-.2-.39-.04-.08-.07-.23,0-.27.06-.04.15-.04.19.04.04.07.08.4.13.51.05.11.38.11.47.12.1,0,.3,0,.34.08.05.09.03.41.08.5.05.09.11.22.11.29,0,.4.12.64.71.59.07,0,.25-.18.34-.19,0,0,.42-.18.36-.04h0Z"/>
      <path class="cls-5" d="M5.34,27.85c.23.23.41.58.51.81.16.37.37,1.1.01,1.42-.1.09-.23.13-.36.13-.34,0-.7-.2-.81-.54-.04-.11-.05-.23-.02-.35.03-.15.11-.27.19-.39.05-.07.19-.24.19-.33,0-.03-.01-.05-.03-.07-.04-.05-.09-.1-.14-.15-.07-.07-.14-.13-.21-.2-.09-.09-.1-.19-.07-.29-.17-.02-.34-.06-.5-.13-.3-.14-.72-.37-.84-.69-.09-.24,0-.48.21-.62.06-.04.13-.07.21-.08.19-.03.37.03.53.11.16.08.32.18.48.25,3.21.76,1.73-3.25,1.8-3.07.04.09,1.07,2.27.34,3.25-.27.41-.75.71-1.21.86-.09.03-.18.06-.28.08h0Z"/>
      <path class="cls-2" d="M5.84,11.43c.09-.05.29.05.29.05.93.78,2.2.61,2.82,1.94.29.61.84,2.42-.43,3.78-.19.2-.23.02-.22-.11.09-.64,0-1.34-.79-1.56-.32-.09-.57-.27-.52-.41.1-.28.81-.32.81-.68,0-.11-.2-.38-.47-.39-.57-.04-1.02.35-1.09.16-.04-.09.18-.32-.22-.23-.39.09-.36.16-.57.13-.21-.04-.32-.02-.36-.2-.04-.18-.09-.38-.09-.38,0,0-.2.09-.27.2-.07.11-.2.66-.2.66,0,0-.05.36-.22.13-.34-.49-.45-1.7.25-1.9.25-.07.99-.29.75-.36-.23-.07-.54.04-.63-.04-.09-.07.07-.18.23-.23.16-.05.5-.04.74-.18.23-.14.18-.38.18-.38h0Z"/>
      <path class="cls-2" d="M6.04,23.56c.55-.09.55,2.13-1.24,1.15-.42-.23-.56-.83-.64-.92-.18-.22-.24,0-.4.17,0,0-.22.04-.25-.13-.04-.16-.04-.47-.13-.48-.09-.02-.11-.05-.22.02-.11.07-.33.32-.42.27-.09-.05-.06-.31-.06-.31-.07-.32-.38-.06-.5.09-.09.11-.18.11-.22-.05-.04-.16-.02-.35.02-.45.17-.38-.13-.43.36-.57.1-.03.26.07.27-.15.01-.41-.35-.5.21-.48.09,0,.39-.13.43-.22.04-.09.21-.34.35-.34s.1.19.19.28c.09.09.19.08.33.24.14.16.24.29.26.38.02.09.05.28.22.34.16.05.3.17.35-.03.15-.54.07-.85.44-.36.08.11.07.17.23.12.48-.16,1.14-.75,1.25-1.29.05-.25.15-.88.07-.98-.07-.11-.23-.19-.32-.12-.31.25-.14.61-.31.73-.13.09-.15.38-.3.31-.14-.07-.83-.49-.98-.67-.05-.06-.33-.6-.46-.23-.03.08.02.27-.08.21-.25-.16-.48-.49-.48-1.04,0-.41.11-.54.02-.68-.09-.14-.17-.25-.22-.16-.05.09-.02.47-.09.65-.15.36-.35.96-1.05.7-.31-.12-.7-.3-.68-.4.02-.11.29.05.32-.18.04-.23,0-.56-.11-.72-.89-1.2-2.67-2.39-1.74-5.63.15-.53,1.02-1.72,1.79-1.72.23,0,.29-.04.22-.14-.07-.11-.11-.18-.34-.18-.47,0-.84.41-1.22.67-.04.05-.21-.15-.17-.33.04-.18-.19-.29.04-.39.23-.11.45-.19.56-.3.21-.21.1-.44.39-.44.18,0,.45-.16.48-.25.04-.09-.05-.29.09-.2.14.09.3.18.47.14.16-.04.5-.07.54-.27.04-.2.08-.48-.01-.56-.09-.07-.29-.16-.41-.26-.13-.11-.06-.28.14-.31.2-.04.67-.31.84-.13.17.18.52.24.48.12-.04-.13-.18-.29-.39-.36-.22-.07-.57-.06-.71,0-.14.07-.31.21-.49.13-.18-.08-.5-.13-.56-.22-.05-.09.23-.29.46-.39.48-.19.14-1.1-.03-1.34-.14-.2-.38-.19-.63-.07-.25.13-.4.08-.37-.03.14-.43.76-.35,1.15-.32.43.04,1.69.68.92.12-.13-.1-.74-.37-1.23-.41-.5-.05-.98.14-1.21.55-.15.26-.06,1.08-.13,1.15-.18.16-.72-1.31.31-1.87.88-.48,2.05.23,2.79.79.78.59,1.57,1.57,1.74,1.65.11.05.4.09.22-.25-.18-.34-.32-.61-.41-.83-.09-.21-.18-.37-.12-.53.07-.19.6-.4.47-.48-.46-.3-.66-.45.12-.45.16,0,.23.14.54.11.31-.04.26-.27.51-.09.25.18.22.2.07.34-.14.14-.39.45-.36.56.04.11.07.16.23-.04.33-.41.78-.74,1.35-.74.19,0-.49.52.1.23.15-.07.39-.17.57-.16.18,0,.48.23.63.43.14.2.4.61.4.61,0,0-.13.02-.42.04-.29.02-.45-.09-.31.11.15.2.38.21.61.59.25.4.21,1.26.16,1.24-.2-.07-.43-.21-.84-.21s-.65.11-.87.42c-.21.3-.48.84-.39,1.07.09.23.13.18.17.42.02.14-.08,1.18.22,1.21.16.02.14-.04.07-.2-.13-.29-.18-.81.05-1.08.13-.15.41-.27.47-.17.05.09.08.12.04.41-.06.46-.11.93.5.7.29-.11.18-.26.31-.22.13.04.18.29.32.29.27,0,.37-.45.56-.38.2.07.52.33.59.2.07-.13-.06-.65.06-.65.12,0,.22.02.36.02.14,0,.18-.11.18-.25s-.11-.28-.17-.37c-.05-.09-.23-.26-.27-.4-.04-.14.03-.32.19-.13.16.2.29.41.4.43.67.16,1.25.2.92-.45-.07-.14-.12-.28.07-.23.18.05.09-.17.34-.11.53.11.04.28.99.18.25-.04.33-.04.65-.27.32-.23-.15-.38-.15-.38-.18-.09,1.62-.81,2.06-1.03,0,.03,0,.04,0,.04-.41.1-1.24.66-1.29,1.11-.04.38.4.67.76.82.28.2.61.36.78.41.08.02.15.05.22.08.41.32.14.65-.24.85-.02,0-.03.02-.05.03-.94,0-.24-.39-.51-.48-.16-.05-.5-.17-.72-.04-.76.45,0,1.83-.77,1.47-.16.04-.26.38-.23.65.12,1.16-.49.73-.5.93,0,.11-.02.02,0,.3.03.28-.1.17-.26.04-.16-.13-.2-.25-.43-.23-.23.02-.34.14-.41.25-.07.11-.18.09-.25-.04-.07-.13.05-.32-.18-.18-.23.14-.27.27-.39.2-.13-.07.04-.18-.18-.13-.22.05-.18.16-.45.2-.41.05-1.49.16-1.7-.38-.04-.09.02-.18.14-.11.26.15,1.22.31,1.22-.23,0-.74-.55-.47-1.02-.65-.2-.07-1.15-.5-1.47-.56-.32-.05-.27-.07-.48-.05-.37.03-1.22.56-1.18-.09.02-.26-1.26.15-1.41-.49-.03-.14-.27-.1-.61-.09-.34.02-.63.02-.63-.11s0-.16.09-.23c.09-.07.38-.23.34-.34-.04-.11-.16-.22-.54-.16-.38.05-.63.2-.81.29-.18.09-.56.59-.59.68-.04.09.04.32-.18.3-.22-.02-.38-.02-.34.13.04.14.21.27.23.43.02.16-.23.2-.32.11-.09-.09-.43-.34-.54-.3-.11.04-.25-.01-.22.16.32,1.42.6.89-.09,1-.41.07.32.59-.09.68-.27.06-.13.11-.2.23-.07.13.02.34.13.54.11.2.38.48.47.52.3.12.72-.34.72-.25,0,.18.14.39.17.55.02.11.2.24.63.25.02,0-.01.28.11.33.34.13.14.26.13.28-.05.1-.37.39-.08.49.44.16,1.06-.57,1.86-.54.13,0,.29.13.2.24-.09.11-.31.44-.22.64.09.2.51.17.64.17.27,0,.89.03.89-.36,0-.12.13-.58.13-.58.58.29.97,1.11.34,1.77-.15.16-.16.31.01.31.18,0,.36-.02.56.13.2.14.25.34.3.54.1.38.11.86.13,1.26,0,.16.02.42-.1.33-.12-.09-.22-.46-.27-.66-.05-.2-.35-.44-.46-.16-.39,1.01-1.06,2.75-2.72,3.58-.25.13-.54.59-.52.9.02.31.16.57.36.68.2.11.42.13.64,0,.34-.2.1-.88.33-.92h0Z"/>
      <path class="cls-2" d="M5.88,26.99c.88-.41.81-.26.77-.2-.45.67-1.66,1.13-2.45.77-.92-.42-.82-.79-.61-.93.49-.32,1.19.87,2.29.36h0Z"/>
      <path class="cls-2" d="M4.95,27.86c.54.12,1.35,2.13.55,2.13-.16,0-.5-.08-.61-.39-.17-.48.6-.79.31-1.2-.08-.11-.3-.3-.37-.37-.07-.07.04-.2.12-.18h0Z"/>
      <path class="cls-5" d="M34.92,27.85c-.23.23-.41.58-.51.81-.16.37-.37,1.1-.01,1.42.1.09.23.13.36.13.35,0,.7-.2.81-.54.04-.11.05-.23.02-.35-.03-.15-.11-.27-.19-.39-.05-.07-.19-.24-.19-.33,0-.03.01-.05.03-.07.04-.05.09-.1.14-.15.07-.07.14-.13.21-.2.09-.09.1-.19.07-.29.17-.02.34-.06.5-.13.3-.14.72-.37.84-.69.09-.24,0-.48-.21-.62-.06-.04-.13-.07-.21-.08-.19-.03-.37.03-.53.11-.16.08-.32.18-.48.25-2.96.88-1.71-3.25-1.78-3.07-.04.09-1.02,1.59-.35,3.25.27.41.75.71,1.21.86.09.03.18.06.28.08h0Z"/>
      <path class="cls-2" d="M34.41,11.43c-.09-.05-.29.05-.29.05-.93.78-2.2.61-2.82,1.94-.29.61-.83,2.42.43,3.78.19.2.23.02.22-.11-.09-.64,0-1.34.79-1.56.32-.09.57-.27.52-.41-.1-.28-.81-.32-.81-.68,0-.11.2-.38.47-.39.57-.04,1.02.35,1.09.16.04-.09-.18-.32.21-.23.39.09.36.16.57.13.22-.04.32-.02.36-.2.04-.18.09-.38.09-.38,0,0,.2.09.27.2.07.11.2.66.2.66,0,0,.05.36.22.13.34-.49.45-1.7-.25-1.9-.25-.07-.99-.29-.75-.36.23-.07.54.04.63-.04.09-.07-.07-.18-.23-.23-.16-.05-.5-.04-.73-.18-.23-.14-.18-.38-.18-.38h0Z"/>
      <path class="cls-2" d="M34.22,23.56c-.55-.09-.55,2.13,1.24,1.15.42-.23.56-.83.64-.92.18-.22.23,0,.4.17,0,0,.22.04.25-.13.04-.16.04-.47.13-.48.09-.02.11-.05.21.02.11.07.33.32.42.27.09-.05.06-.31.06-.31.07-.32.38-.06.5.09.09.11.18.11.21-.05.04-.16.02-.35-.02-.45-.17-.38.13-.43-.36-.57-.1-.03-.26.07-.27-.15-.01-.41.35-.5-.21-.48-.09,0-.39-.13-.43-.22-.05-.09-.21-.34-.35-.34s-.1.19-.19.28c-.09.09-.19.08-.33.24-.14.16-.24.29-.26.38-.02.09-.05.28-.22.34-.16.05-.3.17-.35-.03-.15-.54-.07-.85-.44-.36-.08.11-.07.17-.23.12-.48-.16-1.14-.75-1.25-1.29-.05-.25-.15-.88-.07-.98.07-.11.23-.19.32-.12.31.25.14.61.3.73.13.09.15.38.3.31.14-.07.83-.49.98-.67.05-.06.33-.6.46-.23.03.08-.02.27.08.21.25-.16.48-.49.48-1.04,0-.41-.11-.54-.02-.68.09-.14.17-.25.22-.16.05.09.02.47.09.65.15.36.35.96,1.05.7.31-.12.7-.3.68-.4-.02-.11-.29.05-.32-.18-.04-.23,0-.56.11-.72.89-1.2,2.67-2.39,1.74-5.63-.15-.53-1.02-1.72-1.79-1.72-.23,0-.29-.04-.22-.14.07-.11.11-.18.34-.18.47,0,.84.41,1.22.67.04.05.21-.15.17-.33-.04-.18.19-.29-.04-.39-.23-.11-.45-.19-.56-.3-.21-.21-.1-.44-.39-.44-.18,0-.45-.16-.48-.25-.04-.09.05-.29-.09-.2-.14.09-.3.18-.47.14-.16-.04-.5-.07-.54-.27-.04-.2-.08-.48.01-.56.09-.07.29-.16.41-.26.13-.11.06-.28-.14-.31-.2-.04-.67-.31-.84-.13-.17.18-.52.24-.48.12.04-.13.18-.29.39-.36.22-.07.57-.06.71,0,.14.07.31.21.49.13.18-.08.5-.13.56-.22.05-.09-.23-.29-.46-.39-.48-.19-.14-1.1.03-1.34.14-.2.38-.19.63-.07.25.13.4.08.37-.03-.14-.43-.76-.35-1.15-.32-.43.04-1.69.68-.92.12.13-.1.74-.37,1.23-.41.5-.05.98.14,1.21.55.15.26.06,1.08.13,1.15.18.16.72-1.31-.31-1.87-.88-.48-2.05.23-2.79.79-.79.59-1.57,1.57-1.74,1.65-.11.05-.4.09-.22-.25.18-.34.32-.61.41-.83.09-.21.18-.37.12-.53-.07-.19-.6-.4-.47-.48.46-.3.66-.45-.12-.45-.16,0-.23.14-.54.11-.3-.04-.25-.27-.51-.09-.25.18-.21.2-.07.34.14.14.39.45.36.56-.04.11-.07.16-.23-.04-.33-.41-.78-.74-1.35-.74-.19,0,.49.52-.1.23-.15-.07-.39-.17-.57-.16-.18,0-.48.23-.63.43-.14.2-.4.61-.4.61,0,0,.13.02.42.04.29.02.45-.09.3.11-.15.2-.38.21-.61.59-.25.4-.21,1.26-.16,1.24.2-.07.43-.21.84-.21s.65.11.87.42c.21.3.48.84.39,1.07-.09.23-.13.18-.17.42-.02.14.08,1.18-.21,1.21-.16.02-.14-.04-.07-.2.13-.29.18-.81-.04-1.08-.13-.15-.41-.27-.47-.17-.05.09-.08.12-.04.41.06.46.11.93-.5.7-.29-.11-.18-.26-.31-.22-.13.04-.18.29-.32.29-.27,0-.37-.45-.56-.38-.2.07-.52.33-.59.2-.07-.13.06-.65-.06-.65-.12,0-.22.02-.36.02-.14,0-.18-.11-.18-.25s.11-.28.17-.37c.05-.09.23-.26.27-.4.04-.14-.03-.32-.19-.13-.16.2-.29.41-.4.43-.67.16-1.25.2-.92-.45.07-.14.12-.28-.07-.23-.18.05-.09-.17-.34-.11-.53.11-.04.28-.99.18-.25-.04-.33-.04-.65-.27-.32-.23.15-.38.15-.38.19-.1-1.81-.88-2.12-1.05-.3-.17-1.4-.52-1.18-.39.11.06.17.79.17.97,0,1.02.02.89-.32,1.67-.16.38.64,1.12.95,1.13,1.31.06.47-.38.77-.47.16-.05.5-.17.72-.04.76.45,0,1.83.77,1.47.16.04.26.38.23.65-.12,1.16.49.73.5.93,0,.11.02.02,0,.3-.03.28.1.17.26.04.16-.13.2-.25.43-.23.23.02.34.14.41.25.07.11.18.09.25-.04.07-.13-.05-.32.18-.18.23.14.27.27.39.2.13-.07-.04-.18.18-.13.22.05.18.16.45.2.41.05,1.49.16,1.7-.38.04-.09-.02-.18-.14-.11-.26.15-1.22.31-1.22-.23,0-.74.55-.47,1.02-.65.2-.07,1.15-.5,1.47-.56.32-.05.27-.07.48-.05.37.03,1.22.56,1.18-.09-.02-.26,1.26.15,1.41-.49.03-.14.27-.1.62-.09.34.02.63.02.63-.11s0-.16-.09-.23c-.09-.07-.38-.23-.34-.34.04-.11.16-.22.54-.16.38.05.63.2.81.29.18.09.56.59.59.68.04.09-.04.32.18.3.21-.02.38-.02.34.13-.04.14-.21.27-.23.43-.02.16.23.2.32.11.09-.09.43-.34.54-.3.11.04.25-.01.21.16-.32,1.42-.6.89.09,1,.41.07-.32.59.09.68.27.06.13.11.2.23.07.13-.02.34-.13.54-.11.2-.38.48-.47.52-.3.12-.72-.34-.72-.25,0,.18-.14.39-.18.55-.02.11-.2.24-.63.25-.02,0,.01.28-.11.33-.34.13-.14.26-.13.28.05.1.37.39.09.49-.44.16-1.06-.57-1.86-.54-.12,0-.29.13-.2.24.09.11.31.44.22.64-.09.2-.51.17-.64.17-.27,0-.89.03-.89-.36,0-.12-.13-.58-.13-.58-.58.29-.97,1.11-.34,1.77.15.16.16.31-.01.31-.18,0-.36-.02-.56.13-.2.14-.25.34-.3.54-.1.38-.12.86-.13,1.26,0,.16-.02.42.1.33.12-.09.22-.46.27-.66.05-.2.35-.44.46-.16.39,1.01,1.06,2.75,2.72,3.58.25.13.54.59.52.9-.02.31-.16.57-.36.68-.2.11-.42.13-.64,0-.34-.2-.1-.88-.33-.92h0Z"/>
      <path class="cls-2" d="M34.38,26.99c-.88-.41-.81-.26-.77-.2.45.67,1.66,1.13,2.45.77.92-.42.82-.79.61-.93-.49-.32-1.19.87-2.29.36h0Z"/>
      <path class="cls-2" d="M35.31,27.86c-.54.12-1.35,2.13-.55,2.13.16,0,.5-.08.61-.39.17-.48-.6-.79-.3-1.2.08-.11.3-.3.37-.37.07-.07-.04-.2-.12-.18h0Z"/>
      <path class="cls-5" d="M22.14,39.81c1.31-.29,2.71-.79,4.59-1.99,1.88-1.2,2.73-1.43,3.3-1.61.28-.09,2.14-.67,2.08-.08-.03.25-.08.69-.46.98-.38.29-.34.25-.59.39-.25.14-.41.26-.39.59.02.32.09.43.32.54.23.11.59.14,1.08.07.48-.07.45-.09.88-.09s.72.07.97.13c.25.05.29,0,.3-.07.02-.06-.11-.25-.18-.35-.07-.1-.63-.55-.28-.66.63-.19,1.17-.47,1.17-1.16,0-.8-.3-.58-1.26-1.48-.97-.9-1.03-1.03-1.1-1.14-.07-.11-.23-.52-.38-.68-.14-.16-.31-.18-.65-.11-.34.07-2.74.56-4.77,1.47-2.14.96-4.47,2.69-6.9,2.65h-.02c-2.43.04-4.77-1.68-6.9-2.65-2.03-.91-4.43-1.4-4.77-1.47-.34-.07-.5-.05-.65.11-.14.16-.3.57-.38.68-.07.11-.13.24-1.1,1.14-.97.9-1.27.68-1.26,1.48,0,.69.54.97,1.17,1.16.36.11-.21.56-.28.66-.07.1-.2.29-.18.35.02.06.05.13.3.07.25-.05.54-.13.97-.13s.39.02.88.09c.48.07.84.04,1.08-.07.23-.11.3-.22.32-.54.02-.32-.14-.44-.39-.59-.25-.14-.22-.11-.59-.39-.38-.29-.44-.74-.46-.98-.06-.58,1.79,0,2.08.08.57.18,1.42.41,3.3,1.61,1.88,1.2,3.28,1.7,4.59,1.99,1.41.31,3.16.31,4.57,0h0Z"/>
      <path class="cls-2" d="M34.09,38.63c-.02-.07-.13-.22-.16-.27-.02-.02-.06-.06-.08-.08-.05-.05-.1-.1-.15-.15-.09-.11-.22-.27-.18-.42,0,0,0,0,0,0h0s0,0,0,0h0,0s0,0,0,0c0,0-.02-.02-.05-.04-.05-.03-.12-.05-.2-.08-.33-.09-.87-.16-1.27-.16-.63,0-.96.21-.96.21h0c-.17.1-.26.19-.25.43.01.24.03.34.25.45.29.13.71.11,1.01.06.16-.02.32-.06.48-.07.14-.02.28-.02.41-.02.19,0,.38.01.57.04.14.02.28.05.42.08.03,0,.13.02.17.02h0ZM33.59,37.6s.08-.05.13-.07c.52-.16,1.06-.38,1.09-.99-.14-.6-1.03-.84-1.57-.83-.47.01-.85.03-1.26.07.08.03.15.07.19.14.04.06.05.13.04.2-.05.42-.16.79-.51,1.06-.07.05-.14.11-.21.16.14-.03.3-.05.49-.05.41,0,.97.07,1.31.16.09.03.17.06.23.09.03.01.05.03.07.05h0ZM34.8,36.24c-.01-.09-.04-.17-.08-.24-.08-.12-.25-.22-.37-.3-.27-.19-.52-.38-.77-.61-.3-.28-.62-.57-.89-.87-.09-.1-.15-.18-.23-.29-.03-.05-.06-.11-.09-.17-.04-.08-.07-.15-.11-.22-.04-.09-.1-.2-.17-.28-.03-.03-.06-.06-.1-.08-.12-.06-.32-.02-.44,0-1.43.3-2.88.69-4.24,1.25-.17.07-.34.14-.51.22-2.18.98-4.48,2.7-6.95,2.65h-.01c-2.47.04-4.77-1.67-6.95-2.65-.17-.08-.34-.15-.51-.22-1.36-.55-2.81-.94-4.24-1.25-.12-.03-.32-.07-.44,0-.04.02-.07.05-.1.08-.06.07-.12.19-.17.28-.04.07-.07.15-.11.22-.03.05-.06.12-.09.17-.07.11-.14.19-.23.29-.28.3-.59.59-.89.87-.24.23-.49.42-.77.61-.11.08-.29.19-.37.3-.05.07-.07.15-.08.24.31-.5,1.06-.67,1.59-.64.72.03,1.15.05,1.86.17.14.02.28.05.36.06.33.07.67.16.99.26.17.05.33.1.5.16.23.08.45.17.67.27.75.33,1.47.76,2.15,1.2.79.51,1.62.97,2.49,1.33.67.28,1.35.49,2.06.65,1.41.31,3.12.31,4.52,0,.71-.16,1.39-.37,2.06-.65.87-.36,1.7-.82,2.49-1.33.69-.44,1.41-.87,2.16-1.2.22-.1.45-.19.67-.27.16-.06.33-.11.5-.16.33-.1.66-.19.99-.26.08-.02.2-.04.33-.06.73-.12,1.17-.14,1.89-.17.53-.02,1.27.14,1.59.64h0ZM4.9,36.55c.03.6.57.83,1.09.99.05.01.09.04.13.07.02-.02.04-.03.07-.05.06-.03.14-.06.23-.09.34-.1.89-.16,1.31-.16.19,0,.35.02.49.05-.07-.05-.15-.11-.21-.16-.35-.27-.46-.64-.51-1.06,0-.07,0-.14.04-.2.04-.06.11-.11.19-.14-.41-.04-.78-.06-1.25-.07-.54-.01-1.43.23-1.57.83h0ZM6.18,37.7c.04.15-.09.32-.18.43-.05.05-.1.1-.15.15-.02.02-.06.06-.08.08-.03.05-.14.2-.16.27.04,0,.14-.01.17-.02.14-.03.28-.06.42-.08.19-.03.38-.04.57-.04.14,0,.28,0,.41.02.16.02.32.05.48.07.3.04.72.07,1.01-.06.22-.1.24-.21.25-.45.01-.23-.08-.33-.25-.43h0s-.33-.21-.96-.21c-.4,0-.94.06-1.27.16-.09.02-.16.05-.2.08-.03.02-.05.03-.05.04,0,0,0,0,0,0h0s0,0,0,0h-.01Z"/>
      <path class="cls-10" d="M9.14,34.22v.03s-.08,0-.11.01c-.04.02-.07.05-.11.1l-.62.84h-.03s-.18-1.06-.18-1.06c0-.05-.02-.09-.02-.1,0-.02-.02-.04-.04-.05-.02-.01-.04-.03-.08-.04v-.03s.46.11.46.11v.03c-.06,0-.09,0-.11,0-.02,0-.03.02-.03.04,0,.03,0,.07,0,.14l.12.71.42-.57c.04-.06.06-.1.07-.12,0-.02,0-.03-.01-.05-.01-.02-.04-.03-.07-.05,0,0,0,0-.01,0v-.03s.35.09.35.09h0ZM9.49,35.43v.03s-.48-.13-.48-.13v-.03s.05.01.05.01c.04.01.08,0,.11-.01.02-.01.04-.05.06-.12l.2-.7c.02-.05.02-.09.02-.11,0-.02,0-.03-.02-.04-.02-.02-.04-.03-.07-.04h-.04s0-.04,0-.04l.47.13v.03s-.05-.01-.05-.01c-.04-.01-.08,0-.11.01-.02.01-.04.05-.06.12l-.2.7c-.02.06-.02.09-.02.11,0,.02,0,.03.02.04.02.02.04.03.07.04h.04ZM9.96,34.39l.29.1.38,1.03.21-.62c.02-.07.03-.11.02-.13-.01-.03-.04-.05-.08-.06h-.04s.01-.04.01-.04l.37.13v.03s-.05-.01-.05-.01c-.05-.02-.08-.01-.11,0-.02.01-.04.05-.06.11l-.31.9h-.03s-.41-1.12-.41-1.12l-.23.66c-.02.07-.03.11-.02.13.01.03.04.05.08.07h.04s-.01.04-.01.04l-.37-.13v-.03s.05.01.05.01c.05.02.08.01.11,0,.02-.01.04-.05.06-.11l.26-.75s-.03-.08-.05-.1c-.01-.02-.03-.04-.06-.06-.01-.01-.04-.02-.07-.03v-.03h0ZM12.23,35.14l-.11.37h-.02c0-.13-.01-.22-.05-.29-.04-.07-.11-.12-.19-.15-.07-.03-.14-.03-.21-.02-.07.02-.14.06-.2.12-.06.07-.11.16-.16.27-.03.1-.05.19-.04.27,0,.08.03.15.08.21.05.06.11.1.19.13.07.03.14.03.2.02.06-.01.14-.05.24-.11l.02.03c-.09.08-.18.12-.26.14-.09.02-.18,0-.28-.03-.18-.06-.29-.18-.34-.34-.04-.12-.03-.25.02-.38.04-.11.1-.2.18-.27.08-.07.17-.12.27-.13.1-.02.2,0,.3.03.08.03.15.07.21.14.02.02.03.03.04.04.01,0,.03,0,.04,0,.02,0,.04-.02.05-.05h.03ZM12.52,36.49v.03s-.46-.2-.46-.2v-.03s.05.02.05.02c.04.02.08.02.11,0,.02-.01.04-.05.07-.11l.3-.67c.02-.05.04-.09.04-.11,0-.02,0-.03-.02-.05-.02-.02-.04-.04-.06-.05l-.04-.02v-.03s.46.2.46.2v.03s-.05-.02-.05-.02c-.04-.02-.08-.02-.11,0-.02.01-.04.05-.07.11l-.3.67c-.02.05-.03.09-.04.11,0,.01,0,.03.02.05.02.02.04.04.06.05l.04.02h0ZM14.01,36.02l-.11.24h-.03c.02-.06.02-.09.02-.12,0-.04-.01-.07-.03-.09-.02-.03-.05-.05-.09-.07l-.14-.07-.39.77c-.03.06-.04.1-.04.13,0,.03.03.06.07.08l.04.02v.03s-.44-.22-.44-.22v-.03s.05.02.05.02c.04.02.08.02.11,0,.02-.01.04-.04.07-.1l.39-.77-.12-.06s-.08-.04-.11-.04c-.03,0-.06,0-.09.02-.03.02-.06.05-.09.09h-.03s.13-.24.13-.24l.82.42h0ZM14.33,36.97l.38.2-.06.11-.38-.2.06-.11h0ZM16.16,37.1c.13.06.22.17.27.32.05.15.03.3-.04.45-.08.16-.19.26-.33.31-.15.05-.29.05-.43-.02-.14-.07-.23-.18-.28-.32-.05-.15-.03-.3.05-.46.08-.16.2-.27.36-.32.14-.04.28-.03.41.03h0ZM16.12,37.14c-.09-.04-.18-.05-.27,0-.11.05-.2.16-.28.32-.08.17-.11.31-.08.44.02.09.08.16.17.21.1.05.19.05.29,0,.1-.04.19-.15.27-.31.08-.17.11-.32.09-.44-.02-.1-.08-.17-.18-.21h0ZM16.93,38.68l-.09-1.05-.26.71c-.02.07-.03.11-.02.13.01.03.04.05.08.07h.04s-.01.04-.01.04l-.37-.14v-.03s.05.01.05.01c.05.02.08.01.11,0,.02-.01.04-.05.06-.11l.25-.7s.02-.08.02-.11c0-.02-.01-.04-.03-.05-.02-.02-.05-.03-.09-.05v-.03s.31.11.31.11l.08.97.68-.7.3.11v.03s-.05-.01-.05-.01c-.05-.02-.08-.01-.11,0-.02.01-.04.05-.06.11l-.25.7c-.02.07-.03.11-.02.13.01.03.04.05.08.07h.04s-.01.04-.01.04l-.45-.16v-.03s.05.01.05.01c.05.02.08.01.11,0,.02-.01.04-.05.06-.11l.26-.71-.74.75h-.03ZM17.97,37.86l.3.05.53.96.11-.64c.01-.07.01-.11,0-.13-.02-.03-.05-.04-.09-.05h-.04s0-.04,0-.04l.39.07v.03s-.05,0-.05,0c-.05,0-.08,0-.11.02-.01.02-.03.05-.04.12l-.17.94h-.03s-.58-1.03-.58-1.03l-.12.69c-.01.07-.01.11,0,.13.02.03.05.04.09.05h.04s0,.04,0,.04l-.39-.07v-.03s.04,0,.04,0c.05,0,.08,0,.11-.03.02-.01.03-.05.04-.12l.14-.78s-.05-.07-.06-.09c-.02-.02-.04-.03-.07-.05-.02,0-.04-.01-.07-.02v-.03h0ZM19.63,39.22v.03s-.49-.07-.49-.07v-.03s.04,0,.04,0c.05,0,.08,0,.11-.03.02-.02.03-.06.04-.12l.1-.72c0-.06,0-.09,0-.11,0-.02-.01-.03-.03-.04-.02-.02-.05-.03-.07-.03h-.04s0-.04,0-.04l.48.07v.03s-.04,0-.04,0c-.05,0-.08,0-.11.03-.02.02-.03.06-.04.12l-.1.73c0,.06,0,.1,0,.11,0,.01.01.03.03.04.02.02.05.03.07.03h.04ZM20.49,38.78l-.44.05-.05.19s-.02.08-.02.1c0,.02.01.03.03.04.02.01.05.02.11.01v.03s-.35.04-.35.04v-.03s.07-.03.08-.04c.03-.03.05-.09.07-.17l.28-.97h.03s.51.88.51.88c.04.07.07.12.1.14.03.02.07.03.11.02v.03s-.44.05-.44.05v-.03s.07-.02.08-.03c.01-.01.02-.03.02-.05,0-.02-.02-.06-.05-.11l-.09-.15h0ZM20.46,38.72l-.25-.43-.14.48.39-.05h0ZM21.41,38.56l.42-.12.03.12-.42.12-.03-.12h0ZM23.07,38.43v.03s-.44.19-.44.19v-.03s.03-.02.03-.02c.04-.02.07-.04.08-.08,0-.02,0-.06-.03-.13l-.29-.67c-.02-.05-.04-.09-.05-.1-.01-.01-.03-.02-.05-.02-.03,0-.05,0-.08.01l-.04.02v-.03s.43-.19.43-.19v.03s-.02.02-.02.02c-.04.02-.07.04-.08.08,0,.02,0,.06.03.13l.29.67c.02.05.04.09.05.1.01.01.03.02.05.02.03,0,.05,0,.08-.01l.04-.02h0ZM22.69,37.42l.28-.14,1,.46-.29-.59c-.03-.06-.06-.1-.08-.11-.03-.01-.06,0-.1.01l-.04.02v-.03s.34-.17.34-.17v.03s-.02.02-.02.02c-.04.02-.07.05-.07.08,0,.02,0,.06.04.12l.42.86h-.03s-1.07-.48-1.07-.48l.31.63c.03.06.06.1.08.11.03.01.06,0,.1-.01l.04-.02v.03s-.34.17-.34.17v-.03s.02-.02.02-.02c.04-.02.07-.05.07-.08,0-.02,0-.06-.04-.12l-.35-.71s-.08-.03-.1-.04c-.02,0-.05,0-.08,0-.02,0-.04.01-.07.03v-.03h-.01ZM24.43,37.85v-.03s.02-.02.02-.02c.04-.02.06-.05.07-.09,0-.02-.01-.06-.04-.12l-.36-.64c-.03-.06-.06-.1-.08-.1-.03-.01-.07,0-.1.02l-.04.02-.02-.03.4-.22c.15-.08.27-.13.37-.14.1,0,.19.01.28.06.09.05.16.13.22.23.08.14.1.28.07.42-.04.16-.15.29-.34.39l-.44.25h0ZM24.67,37.62c.07-.02.13-.04.17-.07.11-.06.19-.15.22-.28.03-.12,0-.25-.07-.39-.08-.14-.17-.22-.29-.26-.12-.04-.24-.02-.35.04-.04.02-.09.06-.14.1l.47.84h0ZM25.78,35.86v-.03s.34-.18.34-.18v.03s-.02.02-.02.02c-.04.02-.06.05-.07.1,0,.02.01.06.04.12l.21.41c.05.1.08.19.09.25,0,.07,0,.13-.05.2-.04.07-.11.13-.21.18-.11.06-.2.08-.28.07-.08,0-.14-.04-.2-.09-.04-.04-.09-.12-.15-.24l-.2-.39c-.03-.06-.06-.1-.09-.11-.03-.01-.06,0-.1.01l-.04.02v-.03s.42-.22.42-.22v.03s-.02.02-.02.02c-.04.02-.07.05-.07.08,0,.02,0,.06.04.12l.22.44s.05.08.08.13c.03.05.07.08.1.1.03.02.07.03.12.03.05,0,.09-.01.15-.04.07-.03.12-.08.16-.13.04-.06.05-.11.05-.16,0-.05-.03-.14-.09-.24l-.21-.41c-.03-.06-.06-.1-.08-.11-.03-.01-.06,0-.1.01l-.04.02h0ZM26.96,35.25l.17.36h-.03c-.04-.05-.08-.1-.12-.13-.04-.03-.09-.05-.15-.05-.05,0-.1,0-.15.03-.05.03-.09.06-.11.11-.02.05-.02.09,0,.13.01.03.04.05.07.07.05.02.15.04.29.05.12,0,.2.02.25.03.05.01.09.03.13.06.04.03.06.06.08.1.04.08.04.16,0,.24-.03.08-.1.15-.19.19-.03.01-.06.02-.09.03-.02,0-.05.01-.11.02-.06,0-.09.01-.11.02-.01,0-.02.01-.02.03,0,.01,0,.03,0,.05h-.03s-.16-.34-.16-.34h.03c.05.06.09.1.13.13.04.03.09.04.14.04.06,0,.11,0,.17-.03.06-.03.11-.07.13-.12.02-.05.02-.1,0-.14-.01-.03-.03-.05-.06-.07-.03-.02-.06-.03-.1-.04-.03,0-.1-.01-.21-.02-.11,0-.19-.02-.24-.03-.05-.01-.09-.03-.13-.06-.04-.03-.06-.06-.08-.1-.03-.07-.04-.15,0-.23.03-.08.09-.14.18-.18.05-.03.12-.04.19-.04.03,0,.06,0,.07,0,.01,0,.02-.02.03-.03,0-.01,0-.03,0-.06h.03ZM28.22,34.8l.1.25h-.03s-.04-.06-.06-.07c-.03-.02-.06-.04-.09-.04-.03,0-.07,0-.11.02l-.15.05.3.81c.02.07.05.1.07.11.03.02.06.01.1,0h.04s.01.02.01.02l-.45.16v-.03s.03-.01.03-.01c.04-.02.07-.04.08-.08,0-.02,0-.06-.02-.12l-.3-.81-.13.05s-.08.03-.1.05c-.02.02-.04.05-.05.08,0,.04,0,.08,0,.13h-.03s-.08-.24-.08-.24l.87-.32h0ZM29.86,35.47l-.29.09-.53-.38s-.05.02-.07.02c0,0-.01,0-.02,0,0,0-.02,0-.02,0l.1.31c.02.07.04.11.06.12.03.02.06.02.1,0h.04s0,.02,0,.02l-.46.15v-.03s.03-.01.03-.01c.05-.01.07-.04.08-.08,0-.02,0-.06-.02-.12l-.23-.7c-.02-.07-.04-.11-.06-.12-.03-.02-.06-.02-.1,0h-.04s0-.02,0-.02l.39-.13c.11-.04.2-.06.26-.06.06,0,.12.01.17.05.05.03.09.08.11.14.02.07.02.13,0,.19-.03.06-.08.12-.17.17l.32.24c.07.05.13.09.18.1.04.01.1.01.16,0v.03h0ZM28.91,35.16s.02,0,.03,0c0,0,.01,0,.02,0,.1-.03.17-.08.21-.14.04-.06.05-.13.02-.2-.02-.07-.06-.12-.12-.14-.06-.03-.12-.03-.19,0-.03.01-.07.03-.12.06l.15.45h0ZM30.42,35.31v.03s-.46.12-.46.12v-.03s.03,0,.03,0c.05-.01.07-.03.09-.06,0-.02,0-.06-.01-.13l-.18-.71c-.01-.06-.03-.09-.04-.11,0-.01-.02-.02-.04-.03-.03,0-.05,0-.08,0h-.04s0-.02,0-.02l.47-.12v.03s-.03,0-.03,0c-.04.01-.07.03-.09.06,0,.02,0,.06.01.13l.18.71c.01.06.03.09.04.11,0,.01.02.02.04.03.03,0,.05,0,.08,0h.04ZM31.22,34.76l-.43.11-.03.19s0,.08,0,.1c0,.02.02.03.03.04.02,0,.06,0,.11,0v.03s-.34.09-.34.09v-.03s.06-.04.07-.05c.02-.03.04-.09.05-.18l.16-1h.03s.61.81.61.81c.05.07.09.11.12.12.03.02.07.02.11.01v.03s-.43.11-.43.11v-.03s.06-.03.08-.04c.01-.02.02-.03.01-.05,0-.02-.03-.06-.06-.1l-.11-.14h0ZM31.18,34.7l-.3-.4-.08.49.38-.09h0Z"/>
      <path class="cls-7" d="M16.77,10.87c-.2.3-.59.64-.58,1.11,0,.63.3.92.31,1.55v.22c0,.4.45,1.18.75,1.18h.22c.21,0,.14-.03.22-.15l.27-.05.68-.33.81-.68.74.07h.15c.48-.26,1.09-.61,1.41-1.03.32-.42,1.16-1.01,1.23-1.28-.22.02-.37.13-.44.3-.49.04-.76.58-1.1.82-.31.47-.68.97-1.47.97h-.66c-.19,0-.53.52-.88.68-.29.14-.73.34-1.11.38-.18-.12-.58-.67-.6-.88l-.1-1.77v-.15c.12-.21.55-1.03.59-1.19-.34.03-.2.06-.44.22h0Z"/>
      <path class="cls-7" d="M17.73,11.01l-.33.53-.18.51v.15s.08,1.18.08,1.18v.22s0,.15,0,.15c.05.1.16.37.3.37.04,0,.15-.1.22-.15-.11-.15-.12-.1-.15-.29l-.08-.66.02-.08-.09-.82.2.16.09.66v.15c0,.28-.02.03.08.22l.44-.07c-.11.42-.26.13-.29.59.5-.04.46-.33.81-.38-.08.31-1.06.82-1.32.82-.25,0-.36-.27-.45-.44l.02-.15-.11-1.55c-.05-.65.54-.86.58-1.33h-.15c-.25.38-.66.63-.66,1.26v.3c0,.4.15.41.16.81v.37c0,.37.17.64.31.88h.15s.15,0,.15,0h.15c.29-.16.56-.23.84-.42.29-.2.37-.37.63-.55v-.3s.51-.07.51-.07v.3s.15,0,.15,0c.99,0,1.02-.39,1.54-.75l.29-.53-.44.3.08-.3-.29.08c.14-.27.22-.25.27-.47l-.5.33c.1-.46.19-.13.29-.59,0,0-.14-.07-.15-.07-.47,0-.48.34-.76.5-.07.04-.91.4-.93.4.07-.26.27-.31.54-.42.35-.14.33-.17.58-.38.2-.18.98-.74,1.23-.76.07-.2.28-.34.44-.45v-.15s-.15,0-.15,0c-.67.36-1.19.71-1.78,1.18-.46.37-1.13,1.06-1.89,1.07-.17,0-.3-.51-.3-.74,0-.22.1-.38.14-.59h-.3Z"/>
      <path class="cls-7" d="M19.4,6.86c.94-.62,1.44.28.82,1.1-.34.52-1.09.63-1.1,1.26h.21s.09.96.09.96h-.37c0,.49.02.33-.14.45,0,.31.01.36-.22.44,0-.48.01-.32-.15-.44.03.36-.02.51-.07.89.41-.11.42-.37,1.03-.38-.09.35-.74.63-1.19.68l-.06-.3h-.15c0,.49,0,.23.08.61.5-.13,2.07-.76,2.12-1.43h-.22c-.01-1.34-.05-1.45.51-1.33,0-.39-.05-.63.36-.67-.03-3.84-1.4-2.17-1.43-3.16.3-.07.22-.02.29-.22h-.44c-.37.97.13.99-.14,1.48l-.23.29v.16s.02.22.02.22v.15s.18.43.18.43l-1.72.18h-.3s-.81.09-.81.09c.05.17.14.27.37.27.14,0,.05-.15.29-.15.17,0,.19.02.3.07.12-.06.11-.07.3-.08h.07c.22,0,.2.08.22.29-.54,0-.7-.25-.74.23l.44.3h.15c.22-.35.5-.26.59-.6-.21-.07-.2-.07-.22-.37h.3c.22,0,.2.08.22.29.81-.07.99-.42,1.47-.75.09-.13.15-.13.14-.3v-.29c0-.17-.13-.29-.3-.29h-.15c-.17,0-.37.2-.37.37v.07c0,.12.05.22.15.22.04,0,.16-.11.22-.15v-.3s.15,0,.15,0v.37c0,.14-.13.3-.22.3-.26,0-.59-.1-.59-.37v-.15c0-.11.16-.33.22-.44h0Z"/>
      <path class="cls-7" d="M20.87,5.82l.41.52.18.5v.15s.08.74.08.74v1.03c.14-.09.14-.01.15-.22l.07-1.11v-.3c0-.2-.04-.2-.08-.37-.18-.34-.22-.55-.45-.88-.16-.24-.37-.41-.74-.44l.37.37h0Z"/>
      <path class="cls-7" d="M18.59,7.9v-.22c-.46,0-.29-.15-.81-.14l-.09.37h.9Z"/>
      <path class="cls-7" d="M16.6,7.62c-.27.02-.27.03-.29.3h.3s0-.3,0-.3h0Z"/>
      <path class="cls-7" d="M16.89,7.4c0,.11.09.11.15.15v.3s.24,0,.24,0l-.09-.29c.04-.06.15-.18.15-.22,0-.07-.08-.15-.15-.15-.14,0-.29.13-.29.22h0Z"/>
      <path class="cls-7" d="M18.73,5.98l.15.52h-.22c-.03-.36-.15-.27-.15-.59v-.3c-.45.04-1.09.91-1.1,1.41.21-.02.3,0,.29-.22v-.15c0-.17.19-.37.37-.37.17,0,.37.19.37.37,0,.2-.06.18-.22.22,0-.35.07-.29-.22-.37l-.07.74c.3.07.35.22.52.22h.37s0-.22,0-.22c0-.34.29-.61.29-.67,0-.13-.1-.28-.15-.37v-.15s0-.22,0-.22c0-.2.03-.2.07-.37-.3.08-.21.17-.29.52h0Z"/>
      <path class="cls-7" d="M20.43,6.04h.15c.24.35.27.17.44.67.13.39.1.52.15.95l.1.66h.17s-.1-1.26-.1-1.26v-.15c-.25-.47-.18-.67-.6-1.03-.21-.11-.27-.21-.59-.22.11.38.07.06.3.37h0Z"/>
      <path class="cls-7" d="M16.88,5.55h.3c.2,0,.2-.04.37-.08-.02-.21,0-.3-.22-.29h-.15c-.24,0-.28.15-.29.37h0Z"/>
      <polygon class="cls-7" points="21.24 5.22 20.86 5.23 20.86 5.38 21.78 5.35 21.52 4.78 21.38 4.78 21.14 4.79 21.24 5.22 21.24 5.22"/>
      <path class="cls-7" d="M18.06,5.25c.29-.03.22.04.29-.22-.21.02-.29,0-.29.22h0Z"/>
      <path class="cls-7" d="M18.94,4.8c0,.23.22.29.44.29h.28s.09-.22.09-.22c-.08-.11-.1-.22-.3-.22h-.3c-.12,0-.22.05-.22.15h0Z"/>
      <path class="cls-7" d="M18.02,1.84c-.06-.19.21-.63,1.18-.49.13.13.09.33.05.33-.97,0-1.05.68-1.23.15h0Z"/>
      <path class="cls-7" d="M20.76,3.99c.32-.26-.21-.93-.53-.96-.16-.02-.31.21-.41.12-.53-.42-1.22.45-.98.84.02.06.16.04.33-.08.11-.07.28.03.35.07.12-.06.07-.11.26-.11.12,0,.2.13.3.12.12-.01.26-.16.39-.16.14,0,.08.16.28.16h0Z"/>
      <path class="cls-7" d="M21.39,2.3l.02-.11-.06-.14c-.13-.11-.59-.38-.88-.26-.14.11-.2.34-.09.64.32.16.93.35,1-.13h0Z"/>
      <path class="cls-7" d="M18.23,2.43l-.02-.11.05-.14c.13-.11.59-.38.88-.26.14.11.2.34.09.64-.32.16-.93.35-1-.13h0Z"/>
      <path class="cls-7" d="M21.68,1.75c.06-.19-.21-.63-1.18-.49-.13.13-.09.33-.05.33.97,0,1.05.68,1.23.15h0Z"/>
      <path class="cls-7" d="M19.82,1.48c.2,0,.36.06.36.14s-.16.14-.36.14-.36-.06-.36-.14.16-.14.36-.14h0Z"/>
      <path class="cls-7" d="M19.82.96c.16,0,.28.08.28.18s-.13.18-.28.18-.28-.08-.28-.18.13-.18.28-.18h0Z"/>
      <path class="cls-7" d="M19.82,1.92c.2,0,.36.11.36.25s-.16.25-.36.25-.36-.11-.36-.25.16-.25.36-.25h0Z"/>
      <path class="cls-7" d="M19.82,2.49c.17,0,.3.1.3.22s-.13.21-.3.21-.3-.1-.3-.21.13-.22.3-.22h0Z"/>
      <path class="cls-7" d="M23.75.64c-.02-.19.09-.2.25-.35.16-.15.29-.24.37-.24s.17-.05.17.04-.06.16-.11.26c-.04.1-.14.23-.13.32,0,.09.07.11.03.14-.17.14-.55,0-.57-.18h0Z"/>
      <path class="cls-7" d="M23.2.95c.04.09.07.15.14.14.07,0,.37-.36.32-.46-.12-.23-.56.07-.47.31h0Z"/>
      <path class="cls-7" d="M22.98,1.37c.11.09.2.25-.06.25-.13,0-.17.19-.03.18.21-.02.34-.23.57-.23,0,0,.21.05.26.15.05.1.08.21.07.28,0,.07-.12.22-.12.22-.06.07-.51.42-.36.5.09.05.08.09.1.2.01.08,0,.46.21.3.07-.05.12-.18.12-.27s0-.14-.05-.2c-.04-.05-.1-.15-.08-.21.03-.1.65-.01.59.19,0,.02-.31-.05-.31.17,0,.06.06.12.14.12s.39-.06.49-.05c.1,0,.27.11.23,0-.04-.11-.58-.6-.64-.69-.05-.09-.09-.34-.13-.44-.04-.1-.13-.35-.3-.43-.17-.08-.19-.18-.29-.19-.06,0-.57.02-.43.13h0Z"/>
      <path class="cls-7" d="M21.76.53s.09.21.11.27c.02.06.04.21.11.29.07.09.13.13.18.05.04-.07.12-.39.06-.43-.19-.13-.44-.44-.45-.19h0Z"/>
      <path class="cls-7" d="M22.14.28c-.3,0-.17.27.11.2.06-.02.31-.05.3.05,0,.08-.04.14-.1.2-.06.05-.1.07-.1.17s-.02.21.04.21.16-.06.21-.15c.05-.09.13-.26.13-.35s0-.22-.08-.26c-.15-.07-.35-.06-.52-.06h0Z"/>
      <path class="cls-7" d="M22.69,2.05c-.08.15.17.24.22.12.11-.26-.11-.33-.22-.12h0Z"/>
      <path class="cls-7" d="M22.52,2.56s-.03.15.03.15c.2,0,.33-.16.26-.38-.07-.22-.27.15-.29.22h0Z"/>
      <path class="cls-7" d="M16,.91c.02-.19-.09-.2-.25-.35-.16-.15-.29-.24-.37-.24s-.17-.04-.17.04.06.16.11.26c.04.1.14.23.13.32,0,.09-.07.11-.03.14.17.13.55,0,.57-.18h0Z"/>
      <path class="cls-7" d="M16.56,1.21c-.04.09-.07.15-.14.14-.07,0-.37-.36-.32-.46.12-.23.56.07.47.31h0Z"/>
      <path class="cls-7" d="M16.77,1.63c-.11.09-.2.25.06.25.13,0,.17.19.03.18-.21-.02-.34-.23-.57-.23,0,0-.21.05-.26.15-.05.1-.08.21-.07.28,0,.07.12.22.12.22.06.07.51.42.36.5-.09.05-.08.09-.1.2-.01.08,0,.46-.21.3-.07-.05-.12-.18-.12-.27s0-.14.05-.2c.04-.05.1-.15.08-.21-.03-.1-.65-.01-.59.19,0,.03.31-.05.31.17,0,.06-.06.12-.14.12s-.39-.06-.49-.05c-.1,0-.27.11-.23,0,.04-.11.58-.6.64-.69.05-.09.09-.34.13-.44.04-.1.13-.35.3-.43.17-.08.19-.18.29-.19.06,0,.57.02.43.13h0Z"/>
      <path class="cls-7" d="M17.99.8s-.09.21-.11.27c-.02.06-.04.21-.11.3-.07.09-.13.12-.18.05-.04-.07-.12-.39-.06-.43.19-.13.44-.43.45-.19h0Z"/>
      <path class="cls-7" d="M17.62.55c.3,0,.17.27-.11.2-.06-.02-.31-.05-.3.05,0,.08.04.14.1.2.06.05.1.07.1.17s.02.21-.04.21-.16-.06-.21-.15c-.05-.09-.13-.26-.13-.35s0-.22.08-.26c.15-.07.35-.06.52-.06h0Z"/>
      <path class="cls-7" d="M17.07,2.32c.08.15-.17.24-.22.12-.11-.26.11-.33.22-.12h0Z"/>
      <path class="cls-7" d="M17.23,2.83s.03.15-.03.15c-.2,0-.33-.16-.26-.38.07-.22.27.15.29.22h0Z"/>
      <path class="cls-1" d="M.49,14.84s-.01-.08.02-.1c.03-.02.08-.01.1.02h0s0,0,0,0c.17.28.47.63.8,1.01.64.74,1.39,1.6,1.61,2.47,0,.04-.01.08-.05.09-.04,0-.08-.01-.09-.05-.21-.84-.95-1.69-1.58-2.41-.33-.38-.63-.73-.81-1.02H.49ZM4.81,13.2s-.07.03-.1,0c-.03-.03-.03-.07,0-.1.13-.14.28-.25.44-.34.48-.28,1.03-.34,1.57-.24.53.1,1.04.36,1.42.73.15.15.28.31.39.49.21.37.32.82.38,1.27.05.45.05.88.03,1.22,0,.04-.04.07-.08.07-.04,0-.07-.04-.07-.08.02-.33.02-.76-.03-1.2-.05-.43-.16-.87-.36-1.22-.1-.17-.22-.32-.36-.46-.36-.35-.84-.6-1.34-.69-.5-.09-1.02-.04-1.47.22-.14.08-.28.19-.4.32h0ZM6.63,13.68s-.06.06-.1.04c-.04-.02-.06-.06-.04-.1,0,0,.12-.3.51-.44.4-.14.51-.04.51-.04.03.03.03.08,0,.1-.03.03-.08.03-.1,0,0,0-.04-.04-.35.07-.33.11-.42.35-.42.35h0ZM3.81,9.55s-.07.04-.1.02c-.03-.02-.04-.07-.02-.1,0,0,.27-.42,1.15-.48.86-.06,1.74.36,1.74.37.04.02.05.06.04.1-.02.04-.06.05-.1.04,0,0-.84-.4-1.67-.35-.81.05-1.04.42-1.04.42h0ZM14.28,10.11s0-.08.05-.09c.04-.01.08,0,.09.05,0,0,.09.25-.32,1.03-.43.82-.6.7-.6.7-.04-.02-.05-.07-.03-.1.02-.03.07-.05.1-.03,0,0,.04.03.39-.64.38-.72.31-.91.31-.91h0ZM4.05,6.96s-.03-.08,0-.1c.03-.03.08-.03.1,0,0,0,.53.55,1.3.9.81.37,1.91,1.85,1.91,1.85.02.03.02.08-.02.1-.03.02-.08.02-.1-.01,0,0-1.08-1.46-1.85-1.81-.8-.36-1.35-.93-1.35-.93h0ZM15.23,8.88s.36-.36.39-.33c.03.03.03.07,0,.1,0,0-.23.38-1.03.75-.77.35-1.78,1.66-1.78,1.66-.02.03-.07.04-.1.01-.03-.02-.04-.07-.01-.1,0,0,1.03-1.34,1.84-1.71.77-.35.69-.38.69-.39h0ZM7.7,6.06s.08-.02.1.02c.02.03.02.08-.02.1,0,0-.36.26-.75,1.12-.37.83-.07,1.1-.07,1.1.03.03.03.07,0,.1-.03.03-.07.03-.1,0,0,0-.38-.34.04-1.27.4-.9.79-1.18.79-1.18h0ZM9.12,6.51s.05.06.04.1c-.02.04-.06.05-.1.04-.19-.08-.32.2-.32.2-.02.04-.06.05-.1.04-.04-.02-.05-.06-.04-.1,0,0,.19-.41.51-.27h0ZM8.07,10.36s-.03.07-.07.08c-.04,0-.07-.03-.08-.07,0-.22-.24-.28-.24-.28-.04-.01-.06-.05-.05-.09.01-.04.05-.06.09-.05,0,0,.34.09.35.42h0ZM10.28,7.72s-.03.07-.07.07c-.04,0-.07-.03-.07-.07,0-.43-.67-.42-.67-.42-.04,0-.07-.03-.07-.07,0-.04.03-.07.07-.07,0,0,.81-.02.82.57h0ZM12.33,11.73s-.03.07-.08.07c-.04,0-.07-.03-.07-.07,0-.33.35-.42.35-.42.04-.01.08.01.09.05.01.04-.01.08-.05.09,0,0-.23.06-.24.28h0ZM4.1,16.79s-.08-.01-.09-.05c-.01-.04.01-.08.05-.09,0,0,.32-.09.68-.21.29-.1.28-.12.28-.12-.01-.04,0-.08.05-.09.04-.01.08,0,.09.05,0,0,.06.16-.37.31-.36.13-.69.22-.69.22h0ZM6.45,17.54s-.08-.01-.09-.05c-.01-.04.01-.08.05-.09,0,0,.32-.09.68-.21.04-.01.08,0,.09.05.01.04,0,.08-.05.09-.36.13-.69.22-.69.22h0ZM5.58,19.47s-.02.08-.06.08c-.04,0-.08-.02-.08-.06,0,0-.04-.34-.19-.68-.15-.33-.34-.47-.34-.47-.03-.02-.04-.07-.01-.1.02-.03.07-.04.1-.01,0,0,.23.16.39.53.16.36.2.72.2.72h0ZM.95,12.14s.05-.06.09-.06c.04,0,.07.05.06.09,0,0-.69,3.21,1.94,4.71h0c.68.39,1.58.69,2.38.95,1.07.35,1.96.64,1.89,1.05,0,.04-.05.07-.09.06-.04,0-.07-.04-.06-.09.05-.28-.78-.55-1.79-.88-.8-.26-1.72-.56-2.41-.96h0C.24,15.46.95,12.15.95,12.14h0Z"/>
      <path class="cls-1" d="M39.96,14.84s.01-.08-.02-.1c-.03-.02-.08-.01-.1.02h0s0,0,0,0c-.17.28-.47.63-.8,1.01-.64.74-1.39,1.6-1.61,2.47,0,.04.01.08.05.09.04,0,.08-.01.09-.05.21-.84.95-1.69,1.58-2.41.33-.38.63-.73.81-1.02h0ZM35.64,13.2s.08.03.1,0c.03-.03.03-.07,0-.1-.13-.14-.28-.25-.44-.34-.48-.28-1.03-.34-1.57-.24-.53.1-1.04.36-1.42.73-.15.15-.28.31-.39.49-.21.37-.32.82-.38,1.27-.05.45-.05.88-.03,1.22,0,.04.04.07.08.07.04,0,.07-.04.07-.08-.02-.33-.02-.76.03-1.2.05-.43.15-.87.36-1.22.1-.17.22-.32.36-.46.36-.35.84-.6,1.34-.69.5-.09,1.02-.04,1.47.22.14.08.28.19.4.32h0ZM33.83,13.68s.06.06.1.04c.04-.02.06-.06.04-.1,0,0-.12-.3-.51-.44-.4-.14-.51-.04-.51-.04-.03.03-.03.08,0,.1.03.03.08.03.1,0,0,0,.04-.04.35.07.33.11.42.35.42.35h0ZM36.65,9.55s.07.04.1.02c.03-.02.04-.07.02-.1,0,0-.27-.42-1.15-.48-.86-.06-1.74.36-1.74.37-.04.02-.05.06-.03.1.02.04.06.05.1.04,0,0,.84-.4,1.67-.35.81.05,1.04.42,1.04.42h0ZM26.18,10.11s0-.08-.05-.09c-.04-.01-.08,0-.09.05,0,0-.09.25.32,1.03.43.82.6.7.6.7.03-.02.05-.07.03-.1-.02-.03-.07-.05-.1-.03,0,0-.04.03-.39-.64-.38-.72-.31-.91-.31-.91h0ZM36.4,6.96s.03-.08,0-.1c-.03-.03-.08-.03-.1,0,0,0-.53.55-1.3.9-.81.37-1.91,1.85-1.91,1.85-.02.03-.02.08.01.1.03.02.08.02.1-.01,0,0,1.08-1.46,1.85-1.81.8-.36,1.35-.93,1.35-.93h0ZM24.55,8.22s-.07-.03-.1,0c-.03.03-.03.07,0,.1,0,0,.62.71,1.42,1.08.77.35,1.78,1.66,1.78,1.66.02.03.07.04.1.01.03-.02.04-.07.01-.1,0,0-1.03-1.34-1.84-1.71-.77-.35-1.37-1.04-1.37-1.04h0ZM32.75,6.06s-.08-.02-.1.02c-.02.03-.02.08.02.1,0,0,.36.26.75,1.12.37.83.07,1.1.07,1.1-.03.03-.03.07,0,.1.03.03.07.03.1,0,0,0,.38-.34-.04-1.27-.4-.9-.79-1.18-.79-1.18h0ZM31.33,6.51s-.06.06-.04.1c.02.04.06.05.1.04.19-.08.32.2.32.2.02.04.06.05.1.04.04-.02.05-.06.04-.1,0,0-.19-.41-.51-.27h0ZM32.39,10.36s.03.07.07.08c.04,0,.07-.03.08-.07,0-.22.24-.28.24-.28.04-.01.06-.05.05-.09-.01-.04-.05-.06-.09-.05,0,0-.34.09-.35.42h0ZM30.18,7.72s.03.07.07.07c.04,0,.07-.03.07-.07,0-.43.67-.42.67-.42.04,0,.07-.03.07-.07,0-.04-.03-.07-.07-.07,0,0-.81-.02-.82.57h0ZM28.12,11.73s.03.07.08.07c.04,0,.07-.03.07-.07,0-.33-.35-.42-.35-.42-.04-.01-.08.01-.09.05-.01.04.01.08.05.09,0,0,.23.06.24.28h0ZM36.35,16.79s.08-.01.09-.05c.01-.04-.01-.08-.05-.09,0,0-.32-.09-.68-.21-.29-.1-.28-.12-.28-.12.01-.04,0-.08-.05-.09-.04-.01-.08,0-.09.05,0,0-.06.16.37.31.36.13.69.22.69.22h0ZM34,17.54s.08-.01.09-.05c0-.04-.01-.08-.05-.09,0,0-.32-.09-.68-.21-.04-.01-.08,0-.09.05-.01.04,0,.08.04.09.36.13.69.22.69.22h0ZM34.87,19.47s.02.08.06.08c.04,0,.08-.02.08-.06,0,0,.04-.34.19-.68.15-.33.34-.47.34-.47.03-.02.04-.07.01-.1-.02-.03-.07-.04-.1-.01,0,0-.23.16-.39.53-.16.36-.2.72-.2.72h0ZM39.5,12.14s-.05-.06-.09-.06c-.04,0-.07.05-.06.09,0,0,.69,3.21-1.94,4.71h0c-.68.39-1.58.69-2.38.95-1.07.35-1.96.64-1.89,1.05,0,.04.05.07.09.06.04,0,.07-.04.06-.09-.05-.28.78-.55,1.79-.88.8-.26,1.72-.56,2.41-.96h0c2.73-1.55,2.01-4.86,2.01-4.87h0Z"/>
    </g>
  </g>
</svg>