<svg xmlns="http://www.w3.org/2000/svg" width="712.584" height="933.333"><defs><clipPath id="a" clipPathUnits="userSpaceOnUse"><path d="M0 1080h1080V0H0Z"/></clipPath></defs><g clip-path="url(#a)" transform="matrix(1.33333 0 0 -1.33333 -363.708 1186.666)"><path d="m0 0-.292.145-.32.041c-22.33 2.925-42.498 4.092-60.955 4.092-23.811-.007-44.764-1.952-63.854-4.564C-29.24 40.152 38.3 135.252 38.302 246.14c-.002 75.544-31.36 143.756-81.757 192.359l-53.55 108.199v65.096h-64.109v-59.861h-25.256v59.86h-85.096v-59.86h-25.252v59.861h-64.113v-65.088l-53.549-108.204c-50.398-48.603-81.755-116.817-81.756-192.362.002-110.888 67.535-205.984 163.718-246.426-19.09 2.612-40.039 4.557-63.846 4.564-18.459 0-38.629-1.167-60.955-4.092l-.324-.041-.285-.145c-13.851-6.935-18.122-16.463-18.057-24.526.03-7.641 3.479-13.821 4.932-16.105-3.564-7.996-4.922-14.395-4.922-19.637-.021-7.873 3.146-13.025 5.806-16.538 3.14-4.296 10.803-11.479 30.585-11.399 10.686.075 20.689 7.901 28.238 15.447 6.295 6.343 10.833 12.639 12.176 14.569 2.57.622 6.539.945 11.328.937 20.58.01 56.5-5.558 76.116-10.46 26.103-6.51 49.678-13.958 82.712-13.958 33.029 0 56.607 7.448 82.708 13.958 19.615 4.902 55.534 10.47 76.115 10.46 4.789.008 8.757-.311 11.33-.937 1.344-1.928 5.879-8.224 12.175-14.569 7.549-7.546 17.551-15.372 28.24-15.447h.319c19.545 0 27.143 7.125 30.266 11.397 2.658 3.514 5.823 8.663 5.803 16.54 0 5.242-1.359 11.643-4.92 19.637 1.45 2.282 4.898 8.462 4.93 16.105C18.117-16.463 13.845-6.933 0 0" style="fill:#000;fill-opacity:1;fill-rule:nonzero;stroke:none" transform="translate(768.917 278.206)"/><path d="M621.416 876.384h36.882v-46.243h-36.882z" style="fill:#fff;fill-opacity:1;fill-rule:nonzero;stroke:none"/><path d="M0 0h57.866v-46.244L0-46.247Z" style="fill:#fff;fill-opacity:1;fill-rule:nonzero;stroke:none" transform="translate(511.066 876.386)"/><path d="M421.699 876.384h36.885V830.14h-36.885z" style="fill:#fff;fill-opacity:1;fill-rule:nonzero;stroke:none"/><path d="m0 0 241.744-.001 38.407-77.606c-44.48 33.072-99.589 52.647-159.278 52.649C61.184-24.96 6.075-44.535-38.404-77.605Z" style="fill:#fff;fill-opacity:1;fill-rule:nonzero;stroke:none" transform="translate(419.126 816.525)"/><path d="m0 0-45.679-54.991v137.82l21.33-6.52A208.6 208.6 0 0 0 0 0" style="fill:#fff;fill-opacity:1;fill-rule:nonzero;stroke:none" transform="translate(748.575 548.932)"/><path d="M0 0a105.6 105.6 0 0 1-19.225 25.59v3.852L0 56.052Z" style="fill:#fff;fill-opacity:1;fill-rule:nonzero;stroke:none" transform="translate(632.723 573.847)"/><path d="M0 0v-21.903c.021-10.004-.928-18.936-2.932-24.611-.977-2.844-2.195-4.781-3.265-5.782-1.108-.988-1.849-1.32-3.414-1.368-1.568.048-2.309.38-3.415 1.368-1.63 1.463-3.485 5.199-4.572 10.615-.939 4.492-1.442 10.042-1.58 16.12A105.4 105.4 0 0 1 0 0" style="fill:#fff;fill-opacity:1;fill-rule:nonzero;stroke:none" transform="translate(632.723 474.848)"/><path d="M0 0c21.659 0 42.685-2.685 62.781-7.715L27.379-42.642A219 219 0 0 1 .004-40.926c-9.277 0-18.416-.586-27.388-1.717L-62.786-7.716A258.3 258.3 0 0 0 0 0" style="fill:#fff;fill-opacity:1;fill-rule:nonzero;stroke:none" transform="translate(540 782.108)"/><path d="M0 0a105.4 105.4 0 0 1 19.184-25.589c-.192-8.499-1.136-15.964-2.894-20.934-.978-2.846-2.195-4.78-3.263-5.781-1.107-.988-1.848-1.319-3.415-1.368-1.57.049-2.31.38-3.417 1.368-1.625 1.464-3.484 5.198-4.57 10.613C.498-36.308-.005-29.423 0-21.911z" style="fill:#fff;fill-opacity:1;fill-rule:nonzero;stroke:none" transform="translate(447.276 474.856)"/><path d="M0 0v11.883c-.023 10.006.925 18.938 2.933 24.612.977 2.845 2.195 4.781 3.262 5.782 1.107.986 1.847 1.318 3.417 1.369 1.567-.051 2.308-.383 3.415-1.369 1.626-1.464 3.484-5.199 4.569-10.612.425-2.023.759-4.256 1.012-6.656A105.4 105.4 0 0 1 0 0" style="fill:#fff;fill-opacity:1;fill-rule:nonzero;stroke:none" transform="translate(447.276 573.86)"/><path d="m0 0 23.387 7.149c-1.397-7.805-2.052-16.257-2.055-25.1v-114.036l-45.749 55.074A208.6 208.6 0 0 0 0 0" style="fill:#fff;fill-opacity:1;fill-rule:nonzero;stroke:none" transform="translate(355.77 625.239)"/><path d="M0 0c.067 55.499 17.656 106.867 47.548 148.899l19.255-46.408a215.3 215.3 0 0 1-23.879-73.335Z" style="fill:#fff;fill-opacity:1;fill-rule:nonzero;stroke:none" transform="translate(282.246 524.657)"/><path d="M0 0c-36.522 12.947-69.262 33.879-96.113 60.726a259 259 0 0 0-30.855 37.257l42.895 10.687c22.426-28.382 51.796-51.022 85.552-65.353Z" style="fill:#fff;fill-opacity:1;fill-rule:nonzero;stroke:none" transform="translate(453.85 281.356)"/><path d="M0 0c-25.634 10.64-48.707 26.204-68.034 45.528a211 211 0 0 0-16.427 18.478l2.692 22.354c1.073-11.695 3.529-22.333 7.815-31.11 3.029-6.161 7.033-11.444 12.271-15.224 5.215-3.787 11.656-5.905 18.743-5.881h80.712c7.04 0 13.439 2.113 18.63 5.881 7.862 5.705 12.92 14.645 16.136 25.136.196.647.365 1.318.549 1.978V30.625Z" style="fill:#fff;fill-opacity:1;fill-rule:nonzero;stroke:none" transform="translate(459.528 330.311)"/><path d="M0 0c-1.627 0-3.244-.05-4.853-.122C-6.179 8.7-8.42 16.76-11.796 23.67c-3.027 6.16-7.033 11.446-12.27 15.226-5.219 3.788-11.66 5.904-18.744 5.881h-36.569l52.59 58.438a212 212 0 0 0 26.797 1.694c9.072 0 18.012-.577 26.781-1.692L92.727 29.96v-6.269L73.502-2.922V44.78H3.33V-.067C2.224-.032 1.116 0 0 0" style="fill:#fff;fill-opacity:1;fill-rule:nonzero;stroke:none" transform="translate(539.996 629.456)"/><path d="M0 0c1.333-5.967 3.159-11.498 5.568-16.433 3.026-6.161 7.033-11.444 12.268-15.224 5.219-3.787 11.66-5.903 18.744-5.882h80.716c7.038 0 13.439 2.114 18.629 5.882 7.862 5.705 12.921 14.644 16.135 25.135 1.755 5.762 2.948 12.062 3.689 18.723l2.471-20.474a212 212 0 0 0-15.947-17.883c-23.994-23.988-53.757-42.19-87.027-52.358L0-42.627Z" style="fill:#fff;fill-opacity:1;fill-rule:nonzero;stroke:none" transform="translate(546.23 401.995)"/><path d="M0 0c-33.339-33.332-75.745-57.564-123.209-68.688l6.309 44.156c41.826 13.208 78.169 38.747 104.764 72.361l42.909-10.694A259.3 259.3 0 0 0 0 0" style="fill:#fff;fill-opacity:1;fill-rule:nonzero;stroke:none" transform="translate(722.262 342.082)"/><path d="M0 0a215.4 215.4 0 0 1-23.936 73.764l19.252 46.411C25.264 78.064 42.867 26.585 42.87-29.036l-.001-.079z" style="fill:#fff;fill-opacity:1;fill-rule:nonzero;stroke:none" transform="translate(754.888 553.381)"/><path d="M0 0s41.416 63.552 116.31 77.726c0 0-53.329-17.022-116.31-77.726" style="fill:#fff;fill-opacity:1;fill-rule:nonzero;stroke:none" transform="translate(348.233 672.987)"/><path d="M0 0s-41.416 63.552-116.311 77.726c0 0 53.323-17.022 116.311-77.726" style="fill:#fff;fill-opacity:1;fill-rule:nonzero;stroke:none" transform="translate(731.762 672.987)"/><path d="m0 0 7.27 61.499-38.322 50.206-24.858-19.569-2.805 3.562 28.474 22.414 42.226-55.321L4.503-.533Z" style="fill:#fff;fill-opacity:1;fill-rule:nonzero;stroke:none" transform="translate(357.323 413.411)"/><path d="m0 0 42.234 55.323 28.472-22.417h.004l-2.808-3.559-24.856 19.568L4.716-1.289l7.275-61.501-4.502-.53Z" style="fill:#fff;fill-opacity:1;fill-rule:nonzero;stroke:none" transform="translate(710.114 476.202)"/><path d="m0 0 .595 29.365 68.94 24.74 44.642-30.735-2.57-3.733-42.729 29.417L5.066 26.153 4.533-.093Z" style="fill:#fff;fill-opacity:1;fill-rule:nonzero;stroke:none" transform="translate(470.215 293.486)"/><path d="M0 0c-6.161-5.117-13.21-9.018-19.731-8.988-18.975.078-24.84 6.375-27.556 9.885-1.059 1.424-2.12 3.006-3.004 4.867C-28.663 17.137-11.385 19.956.475 19.958c5.998 0 10.618-.721 13.713-1.434a38 38 0 0 0 2.327-.606 107 107 0 0 0-1.898-2.518C11.425 11.281 6.163 5.088 0 0" style="fill:#fff;fill-opacity:1;fill-rule:nonzero;stroke:none" transform="translate(349.163 202.776)"/><path d="M0 0c-2.716-3.51-8.58-9.807-27.556-9.885-8.697-.075-18.322 6.988-25.551 14.327-3.622 3.647-6.666 7.316-8.799 10.061-.756.976-1.387 1.824-1.895 2.52 2.827.831 8.273 2.04 16.039 2.04 11.859-.003 29.133-2.825 50.766-14.194C2.122 3.005 1.059 1.422 0 0" style="fill:#fff;fill-opacity:1;fill-rule:nonzero;stroke:none" transform="translate(778.127 203.673)"/><path d="M0 0a23 23 0 0 0-.74-5.805C-22.666 5.635-40.432 8.59-52.806 8.586c-10.584 0-17.199-2.131-19.171-2.872-3.138.785-7.324 1.088-12.367 1.092-21.179-.01-57.037-5.594-77.029-10.574-26.276-6.559-49.358-13.844-81.794-13.844-32.441 0-55.523 7.285-81.797 13.844-19.997 4.98-55.852 10.564-77.032 10.574-5.044-.004-9.23-.311-12.364-1.092-1.968.739-8.585 2.872-19.173 2.872-12.376.002-30.144-2.951-52.067-14.391A23 23 0 0 0-486.341 0c0 4.744 1.278 10.881 4.968 18.926 2.3 4.282 6.441 8.758 9.998 12.082a92 92 0 0 0 4.597 4.027c1.183.968 1.896 1.501 1.896 1.504l-2.267 3.029-.002.003c-.072-.088-10.048-7.452-15.893-16.121-1.428 2.69-3.32 7.253-3.306 12.292.066 6.707 3.033 14.418 15.693 21.002 22.036 2.871 41.926 4.019 60.139 4.019 72.592.019 118.535-18.267 167.351-18.306 48.81.039 94.752 18.325 167.346 18.306 18.209 0 38.101-1.148 60.137-4.019C-3.025 50.16-.055 42.449.01 35.742c.004-4.052-1.201-7.792-2.426-10.508-.3-.659-.6-1.258-.879-1.784-5.846 8.669-15.819 16.032-15.894 16.121l-2.265-3.035c.048-.037.752-.565 1.894-1.501 3.537-2.875 11.111-9.631 14.573-16.068C-1.28 10.903 0 4.756 0 0" style="fill:#fff;fill-opacity:1;fill-rule:nonzero;stroke:none" transform="translate(783.17 217.935)"/><path d="M0 0c-.551 2.769-3.787 4.248-6.785 3.883-7.225-.914-7.719-7.684-7.074-12.841.764-6.035 3.314-11.514 9.673-10.71 3.127.392 5.761 2.296 5.857 5.473l4.254.535c.213-4.949-4.323-8.827-10.036-9.541-8.634-1.101-12.971 5.52-13.995 13.692-.914 7.185 1.196 15.942 11.04 16.898C-1.41 7.925 3.148 5.711 4.248.537z" style="fill:#000;fill-opacity:1;fill-rule:nonzero;stroke:none" transform="translate(344.287 257.048)"/><path d="m0 0 10.985.377-5.843 14.064Zm-8.386-11.494 11.39 29.902 4.358.158L20.32-10.491l-4.455-.159-3.457 7.562-13.673-.481-2.916-7.782z" style="fill:#000;fill-opacity:1;fill-rule:nonzero;stroke:none" transform="translate(357.672 247.239)"/><path d="M0 0h-.083l-10.786-26.025-3.829.19L-22.76 1.17h-.09l-1.347-26.508-4.084.213 1.506 29.45 7.307-.38 7.231-24.705.091-.021 9.569 23.852 6.818-.337-1.527-29.468-4.082.214z" style="fill:#000;fill-opacity:1;fill-rule:nonzero;stroke:none" transform="translate(406.609 261.873)"/><path d="m0 0 6.771-.831c3.121-.386 5.884.674 6.317 4.277.453 3.607-1.98 5.306-5.093 5.69l-6.771.831zm1.643 13.453 5.024-.618c3.85-.591 6.648-.234 7.116 3.621.474 3.844-2.159 4.868-6.029 5.218l-5.025.626ZM-4.496-3.003l3.595 29.284 10.456-1.277c5.025-.619 9.225-3.115 8.518-8.785-.379-3.042-2.743-5.268-5.714-5.722l-.013-.081c3.698-1.046 5.348-4.648 4.915-8.304-.426-3.41-2.976-5.693-6.201-6.448-1.56-.387-3.346-.199-5.079.054Z" style="fill:#000;fill-opacity:1;fill-rule:nonzero;stroke:none" transform="translate(417.635 237.592)"/><path d="m0 0 6.634-1.167c4.503-.57 5.871 1.256 6.262 3.552.412 2.288-.233 4.49-4.674 5.47L1.581 9.011zm-.53-3.457L-2.825-16.58l-4.028.699 5.108 29.064 10.378-1.834c4.868-.86 9.631-3.265 8.615-9.026-.619-3.503-3.184-5.823-6.704-6.035l-.013-.081c3.355-1.451 3.506-3.398 3.382-6.731-.068-2.978-.296-6.126.268-9.053l-4.296.755c-.069 1.801-.213 3.774-.11 5.535.137 2.672.564 5.051-.523 6.728-.928 1.534-2.564 1.707-4.139 2.097z" style="fill:#000;fill-opacity:1;fill-rule:nonzero;stroke:none" transform="translate(443.055 247.54)"/><path d="m0 0 6.055 28.857 3.994-.831L4.001-.833Z" style="fill:#000;fill-opacity:1;fill-rule:nonzero;stroke:none" transform="translate(459.67 227.344)"/><path d="m0 0 5.795-1.42c4.001-.985 6.55.124 8.057 1.476 2.308 2.043 3.402 4.462 4.055 7.121.66 2.661.797 5.328-.309 8.196-.708 1.903-2.454 4.042-6.469 5.024l-5.78 1.424zm2.206 26.2 9.534-2.324c2.633-.727 5.403-1.614 7.349-3.657 3.505-3.679 4.317-8.62 2.983-14.053C20.745.73 17.735-3.29 12.923-4.926c-2.661-.916-5.52-.408-8.194.151l-9.534 2.323z" style="fill:#000;fill-opacity:1;fill-rule:nonzero;stroke:none" transform="translate(472.133 228.27)"/><path d="M0 0c-.199 3.588-3.1 4.972-6.207 5.432C-13.363 6.503-16.883.636-17.528-4.852c-.798-7.519.858-11.941 9.197-13.35a19.2 19.2 0 0 1 5.953.057l1.237 8.247-6.627.989.516 3.479L3.423-7.024l-2.171-14.43c-3.507-.508-6.951-.692-10.264-.199-4.125.619-7.403 1.65-10.16 4.943-2.818 3.32-3.211 8.379-2.604 12.505.46 3.024 1.971 6.18 3.856 8.584 3.209 4.069 7.753 5.212 12.724 4.461C-.268 8.112 4.846 5.026 4.255-.632z" style="fill:#000;fill-opacity:1;fill-rule:nonzero;stroke:none" transform="translate(517.742 236.829)"/><path d="m0 0 .701 29.483 18.498-.453-.081-3.505-14.416.35-.227-9.19 13.727-.323-.083-3.519-13.726.336-.228-9.767 14.739-.359-.083-3.499Z" style="fill:#000;fill-opacity:1;fill-rule:nonzero;stroke:none" transform="translate(525.023 213.994)"/><path d="M0 0c1.245-7.494-2.041-12.723-9.954-13.913-7.925-1.16-12.566 2.889-13.569 10.421l-2.605 17.612 4.043.603 2.756-18.578c.858-5 4.255-7.266 8.861-6.58 4.598.696 7.19 3.834 6.572 8.862l-2.759 18.594 4.036.605z" style="fill:#000;fill-opacity:1;fill-rule:nonzero;stroke:none" transform="translate(580.895 229.2)"/><path d="m0 0 6.687-28.736-4.942-1.141L-18.444-8.87l-.082-.014 5.669-24.388-3.531-.826-6.689 28.718 5.452 1.267L1.896-24.598l.089.016L-3.534-.835z" style="fill:#000;fill-opacity:1;fill-rule:nonzero;stroke:none" transform="translate(605.114 253.811)"/><path d="m0 0-5.788 28.919 4 .803L3.994.804z" style="fill:#000;fill-opacity:1;fill-rule:nonzero;stroke:none" transform="translate(615.925 225.805)"/><path d="m0 0-9.727-1.718-.618 3.465 23.494 4.139.619-3.465L4.027.709l4.502-25.585-4.026-.703Z" style="fill:#000;fill-opacity:1;fill-rule:nonzero;stroke:none" transform="translate(625.894 254.159)"/><path d="m0 0-4.055 29.214 18.321 2.544.494-3.477L.468 26.3l1.266-9.109 13.602 1.883.475-3.478-13.583-1.882 1.334-9.671 14.613 2.024.482-3.476Z" style="fill:#000;fill-opacity:1;fill-rule:nonzero;stroke:none" transform="translate(644.219 230.974)"/><path d="m0 0 5.94.543c4.11.385 6.151 2.255 7.142 4.016 1.52 2.686 1.759 5.333 1.505 8.062-.242 2.722-.976 5.281-2.957 7.652-1.285 1.559-3.649 3.024-7.747 2.646l-5.938-.551zm-6.448 25.504 9.768.893c2.735.164 5.651.234 8.139-1.059 4.517-2.336 6.902-6.758 7.403-12.317.509-5.577-1.024-10.346-5.038-13.475-2.208-1.718-5.08-2.199-7.817-2.522l-9.753-.9z" style="fill:#000;fill-opacity:1;fill-rule:nonzero;stroke:none" transform="translate(669.648 237.847)"/><path d="m0 0-.37 29.497 17.488.206.04-3.52-13.404-.149.131-9.282 12.613.159.042-3.506-12.613-.158L4.084.054Z" style="fill:#000;fill-opacity:1;fill-rule:nonzero;stroke:none" transform="translate(699.185 236.548)"/><path d="m0 0 .173 4.901 4.743-.173-.188-4.892Z" style="fill:#000;fill-opacity:1;fill-rule:nonzero;stroke:none" transform="translate(718.372 236.59)"/><path d="M0 0c.095 2.826-2.715 5.011-5.711 5.333-7.241.758-9.281-5.72-9.831-10.867-.632-6.055.576-11.981 6.969-12.654 3.13-.325 6.125.912 6.944 3.979l4.262-.448c-.929-4.872-6.221-7.587-11.954-6.982-8.641.914-11.341 8.346-10.484 16.552.77 7.184 4.826 15.219 14.622 13.901C.438 8.05 4.378 4.839 4.268-.452z" style="fill:#000;fill-opacity:1;fill-rule:nonzero;stroke:none" transform="translate(746.542 256.373)"/><path d="m0 0 .969 4.798 4.634-.927-.964-4.814Z" style="fill:#000;fill-opacity:1;fill-rule:nonzero;stroke:none" transform="translate(749.332 233.606)"/><path d="M0 0c.026-16.387-2.443-31.009-7.309-40.836-2.42-4.924-5.366-8.607-8.724-11.023-3.377-2.409-7.172-3.717-12.107-3.741h-80.6c-4.934.024-8.729 1.332-12.107 3.741-5.027 3.593-9.163 10.181-11.92 19.248-2.762 9.024-4.117 20.323-4.113 32.611v231.49h47.479l.003-209.945c.021-10.686.854-20.472 3.561-28.341 1.378-3.929 3.249-7.471 6.143-10.255 2.859-2.801 6.961-4.563 11.255-4.513 4.292-.05 8.395 1.712 11.253 4.513 4.319 4.214 6.438 9.967 7.841 16.502 1.359 6.563 1.86 14.088 1.863 22.094V231.49H0Z" style="fill:#fabf56;fill-opacity:1;fill-rule:nonzero;stroke:none" transform="translate(691.55 431.4)"/><path d="M0 0c-3.355-2.418-6.3-6.101-8.72-11.025-4.869-9.825-7.335-24.449-7.309-40.835v-175.888c-.009-12.288 1.345-23.587 4.112-32.611 2.754-9.067 6.89-15.657 11.917-19.248 3.375-2.409 7.175-3.717 12.109-3.741h80.598c4.936.024 8.732 1.332 12.108 3.741 3.358 2.416 6.302 6.099 8.722 11.026 4.866 9.824 7.336 24.446 7.31 40.833v54.137H73.368v-32.592c-.006-8.006-.503-15.533-1.866-22.094-1.4-6.535-3.52-12.288-7.841-16.504-2.859-2.799-6.957-4.559-11.251-4.511-4.297-.048-8.396 1.712-11.253 4.511-2.897 2.786-4.77 6.328-6.144 10.257-2.708 7.869-3.54 17.655-3.563 28.341v132.797c.005 8.008.503 15.532 1.866 22.096 1.4 6.535 3.518 12.289 7.841 16.504 2.857 2.799 6.956 4.558 11.253 4.51 4.294.048 8.392-1.711 11.251-4.51 2.895-2.785 4.768-6.329 6.143-10.259 2.707-7.868 3.541-17.654 3.564-28.341v-32.588h47.479v54.134c.005 12.288-1.35 23.588-4.112 32.613-2.756 9.065-6.891 15.653-11.92 19.247-3.376 2.408-7.172 3.719-12.108 3.739H12.109C7.175 3.719 3.375 2.408 0 0" style="fill:#fabf56;fill-opacity:1;fill-rule:nonzero;stroke:none" transform="translate(404.48 659.148)"/></g></svg>