<svg xmlns="http://www.w3.org/2000/svg" xml:space="preserve" id="Layer_1" x="0" y="0" version="1.1" viewBox="0 0 300 300"><style>.st0{fill:#dba111}.st1{fill:#034694}.st2{fill:#fff}.st4{fill:#ed1c24}</style><path d="M299.995 149.963c0 82.778-67.167 149.945-149.945 149.945S.105 232.741.105 149.963C-.038 67.186 67.129.018 150.05.018c82.778 0 149.945 67.168 149.945 149.945" class="st0"/><path d="M294.983 149.963c0 80.057-64.876 144.933-144.933 144.933S5.117 230.02 5.117 149.963 69.85 5.031 150.05 5.031c80.057 0 144.933 64.876 144.933 144.932" class="st1"/><path d="M253.307 149.963c0 57-46.258 103.258-103.4 103.258-57 0-103.4-46.258-103.4-103.258.142-56.999 46.4-103.257 103.543-103.257 57 0 103.257 46.258 103.257 103.257" class="st0"/><path d="M250.157 149.963c0 55.281-44.826 100.25-100.25 100.25-55.28 0-100.25-44.826-100.25-100.25s44.826-100.25 100.25-100.25c55.424.144 100.25 44.97 100.25 100.25" class="st2"/><path d="M64.122 236.465c1.145 1.002 3.866 3.723 3.866 3.723l2.578-2.72-7.733-7.448-1.003 1.002-10.454 11.028 4.01 3.724s3.293-3.58 4.582-4.87c1.003 1.003 3.437 3.294 3.437 3.294l2.578-2.72s-2.434-2.292-3.437-3.295c.573-.716 1.003-1.002 1.576-1.718M82.883 248.924c-.287-2.148-1.576-4.01-3.294-5.299-1.719-1.289-3.867-1.718-6.015-1.432-2.292.43-4.297 1.719-5.729 3.724s-2.005 4.44-1.575 6.588c.286 2.148 1.575 4.01 3.294 5.155 1.718 1.29 3.866 1.719 6.015 1.432 2.291-.43 4.296-1.718 5.728-3.723a9 9 0 0 0 1.719-5.299c0-.143 0-.573-.143-1.146m-11.171 5.872c-1.862-1.289-.287-4.01.716-5.442s3.15-3.867 4.87-2.578c1.861 1.289.142 4.296-.717 5.442-.716 1.29-2.864 4.01-4.87 2.578M95.199 253.077c-4.153-2.148-9.022-.43-11.314 4.01-1.146 2.149-1.289 4.583-.573 6.875.716 2.005 2.148 3.723 4.01 4.726 2.005 1.002 4.153 1.145 6.158.43 2.149-.717 4.01-2.292 5.156-4.583 2.292-4.297.716-9.31-3.437-11.458m-4.583 12.317c-.43.143-1.002.143-1.432-.143-.86-.43-1.146-1.146-1.146-2.005 0-1.146.573-2.578 1.003-3.437.86-1.576 2.578-4.154 4.44-3.151.572.286.859.573 1.002 1.146.286 1.002 0 2.72-.86 4.44-.859 1.575-2.004 2.863-3.007 3.15M103.935 259.236l-.716 2.148s2.005.716 2.578.86c-.716 2.147-4.297 12.172-4.297 12.172l5.156 1.862s3.437-9.882 4.297-12.03c.572.143 2.577.86 2.577.86l1.29-3.58-10.312-3.581zM125.417 263.962l-7.017-1.432-.287 1.432-3.15 14.894 7.16 1.575c2.292.43 3.724-.143 4.583-.573 1.146-.716 1.862-1.861 2.148-3.293.144-.43.144-.717.144-1.146 0-1.003-.287-1.862-.86-2.721.86-.573 1.432-1.576 1.576-2.721 0-.287.143-.573.143-1.003-.143-1.862-1.146-4.296-4.44-5.012m-2.005 11.457c-.143.286-.143.86-.43 1.002q-.43.216-1.288 0s-.287 0-.573-.143c.286-1.002.43-1.718.573-2.864.286.143.716.143.716.143.859.143 1.145.86 1.145 1.432 0 .143-.143.287-.143.43m-.43-8.02c.573.143 1.003.43 1.29.573.143.143.143.286.143.43v.429c-.144.43-.287 1.002-1.432.86 0 0-.144 0-.287-.144 0-.716 0-1.289.287-2.148M138.306 266.396l-7.59 15.61 4.296.287s1.146-2.435 1.576-3.437c.86.143 1.862.143 2.72.143.287 1.003 1.147 3.724 1.147 3.724l5.728.43-6.444-20.05zM155.349 278.856c-.143-2.291-.573-12.603-.573-12.603l-5.442.287.716 16.612 11.027-.43-.143-4.01c0-.142-4.01.144-5.585.144M170.386 277.28c-.286-2.29-2.005-12.459-2.005-12.459l-1.432.286-4.01.573 2.578 16.47 10.884-1.719-.573-4.01s-3.866.573-5.442.86M201.893 266.253c0 1.432-.859 2.721-2.148 3.15a2.8 2.8 0 0 1-2.148 0c-1.002-.429-2.005-1.575-2.578-3.15-.716-1.718-.86-3.294-.43-4.296.287-.716.86-1.29 1.862-1.719s2.005 0 3.294.716l1.29.716 2.004-3.15-1.146-.86c-2.148-1.432-4.869-1.718-7.303-.859-2.149.86-3.867 2.578-4.727 4.583-.859 2.148-.859 4.583 0 6.874 1.719 4.297 6.732 6.445 11.028 4.726q4.726-1.933 5.156-6.874l.143-1.432-4.01-.287zM214.64 261.67c-1.146-2.005-6.159-11.027-6.159-11.027l-1.289.716-3.58 2.005 8.163 14.464 9.596-5.298-2.005-3.438c.143-.143-3.294 1.862-4.727 2.578M225.38 239.329l-1.145.86-2.005 1.575 6.73 9.165c.287.43.287.716.287.86 0 .43-.573 1.002-1.002 1.288-.143.144-.716.287-1.146.287-.286 0-.573-.287-.86-.573l-6.587-9.022-4.44 3.293 6.588 9.023c1.003 1.289 2.148 2.148 3.58 2.291 1.576.287 3.438-.286 5.156-1.575 3.437-2.578 3.437-5.872 1.862-8.02zM245.574 236.035c-1.003-1.003-2.292-1.575-3.58-1.432-.144-1.003-.43-2.005-1.29-2.864-1.432-1.433-4.44-2.578-7.303.286l-5.156 5.012 11.6 11.887 5.156-5.012c1.718-1.576 2.005-3.151 2.005-4.153 0-1.433-.43-2.722-1.432-3.724m-8.736-.43c.143.144.43.43.43.716 0 .287-.144.573-.574.86l-.286.286c-.716-.716-1.002-1.002-1.575-1.718 1.145-1.003 1.575-.573 2.005-.144m2.72 4.01c1.003-.859 1.862-.143 2.149.144.286.286.573.572.573.859 0 .286-.287.716-.716 1.146l-.43.43c-.716-.717-1.289-1.29-2.005-2.149z" class="st0"/><path d="M64.122 234.89c.43.429 3.866 3.723 3.866 3.723l1.146-1.146-6.158-5.872-.287.287-9.738 10.168 2.435 2.291s4.153-4.296 4.582-4.869c.43.43 3.437 3.294 3.437 3.294l1.146-1.146s-3.007-2.864-3.437-3.294c.286-.572 2.578-3.007 3.008-3.437M79.016 244.628c-1.576-1.146-3.437-1.576-5.156-1.29-2.005.287-3.723 1.576-5.012 3.295-1.29 1.718-1.719 3.867-1.433 5.872.287 1.861 1.29 3.437 2.865 4.582s3.437 1.576 5.155 1.29c2.005-.287 3.724-1.433 5.013-3.295 1.002-1.432 1.575-3.007 1.575-4.582 0-.43 0-.86-.143-1.146-.286-2.005-1.289-3.58-2.864-4.726m-1.432 8.306c-1.003 1.432-3.724 4.726-6.445 2.721-2.721-1.861-.573-5.585.43-7.017s3.723-4.726 6.444-2.721.573 5.585-.43 7.017M94.77 254.08c-3.581-1.862-7.877-.286-9.882 3.58-1.003 2.005-1.146 4.01-.573 6.015.573 1.719 1.862 3.151 3.58 4.01 1.719.86 3.58 1.003 5.299.43 1.862-.573 3.437-2.005 4.44-4.01 2.005-3.867.716-8.163-2.865-10.025m-6.158 12.173c-3.007-1.432-1.432-5.442-.573-7.017.86-1.576 3.008-5.156 6.015-3.724.716.43 1.29 1.003 1.576 1.719.572 1.718-.43 4.01-1.003 5.299-.573 1.145-1.862 3.293-3.723 3.866-.716.287-1.576.287-2.292-.143M104.938 259.522l-.43 1.146s2.005.716 2.578.86c-.287.715-4.297 12.03-4.297 12.03l3.151 1.145s4.01-11.457 4.296-12.03c.573.143 2.578.86 2.578.86l.573-1.576-8.306-2.865zM125.13 265.107l-5.871-1.288-.143.43-2.865 13.748 6.015 1.289q2.364.43 3.867-.43 1.29-.86 1.719-2.578c0-.286.143-.573.143-.86 0-1.145-.573-2.29-1.719-3.007 1.29-.286 2.149-1.289 2.435-2.578 0-.143.143-.43.143-.716-.143-1.432-.859-3.437-3.723-4.01m-2.005 1.146c1.002.143 1.718.573 2.005 1.146.143.286.286.716.286 1.146 0 .143 0 .43-.143.716-.43 1.861-1.862 1.861-2.721 1.575 0 0-.86-.143-1.432-.286.143-.573.859-3.867.859-4.44.573.143 1.146.143 1.146.143m-.573 6.158c1.718.287 2.005 1.719 2.005 2.435v.573c-.143.86-.43 1.289-1.003 1.575-.43.287-1.145.43-2.148.143 0 0-1.146-.286-1.718-.286.143-.573 1.002-4.44 1.002-5.013.716.287 1.862.573 1.862.573M139.309 266.97l-6.874 14.177 2.005.144s1.432-3.008 1.718-3.438c.43 0 3.867.287 4.153.287.144.43 1.146 3.723 1.146 3.723l3.437.287-5.155-15.897zm-.86 5.585c.287 1.002 1.003 3.15 1.146 3.723-.716 0-2.291-.143-2.864-.286.286-.43 1.289-2.435 1.719-3.437M154.346 280.002c0-.716-.572-12.603-.572-12.603h-.287l-3.007.143.572 14.465 8.88-.43-.143-1.862s-4.87.287-5.443.287M169.527 278.57c-.143-.717-2.005-12.46-2.005-12.46h-.286l-2.865.43 2.292 14.321 8.736-1.432-.287-1.719c-.143 0-5.012.716-5.585.86M202.896 266.253c0 1.862-1.146 3.437-2.864 4.153q-1.504.645-3.008 0c-1.289-.573-2.578-1.861-3.294-3.723q-1.289-3.008-.43-5.156c.43-1.002 1.29-1.718 2.435-2.291 1.576-.573 3.008.143 4.297.859l.286.143.86-1.432-.287-.143c-1.862-1.29-4.296-1.576-6.301-.716-1.862.716-3.438 2.148-4.154 4.01-.859 1.862-.859 4.01 0 6.015 1.576 3.866 5.872 5.728 9.596 4.153 2.72-1.146 4.153-3.008 4.44-5.872v-.43l-1.72-.143zM214.21 263.102c-.287-.572-6.158-11.027-6.158-11.027l-.287.143-2.578 1.432 7.018 12.603 7.733-4.296-.859-1.576c0 .144-4.296 2.435-4.87 2.721M225.094 240.761l-.286.286-1.146.86 6.158 8.306q.645.86.43 1.719c-.143 1.002-1.003 1.718-1.432 2.005s-1.29.573-2.005.43c-.573-.144-1.146-.43-1.576-1.003l-6.015-8.163-2.72 2.005 6.014 8.163c.86 1.146 1.719 1.718 2.865 1.862 1.718.286 3.437-.716 4.296-1.29 2.864-2.147 2.864-4.725 1.719-6.444zM244.714 236.751c-1.145-1.146-2.577-1.432-4.01-.86.144-.286.144-.715.144-1.002 0-.859-.287-1.718-1.003-2.434-.86-1.003-3.294-2.149-5.728.286l-4.297 4.153 10.025 10.312 4.44-4.297q1.718-1.718 1.718-3.437c0-1.002-.43-1.862-1.289-2.72m-6.444-.43c0 .715-.43 1.288-.86 1.718l-1.002 1.002c-.43-.43-2.721-2.864-3.15-3.293l.715-.717c1.29-1.288 2.578-1.432 3.58-.286.574.573.717 1.003.717 1.575m2.72 7.447c-.429-.43-3.15-3.294-3.58-3.724l1.29-1.289c1.718-1.719 3.58.143 3.58.143q.86.86.86 1.719c0 .573-.287 1.289-1.003 1.862.143.143-.717 1.002-1.146 1.289" class="st2"/><path d="m83.312 51.146-6.015 1.718.716 2.148c.86 2.578.144 5.443-2.005 7.161-1.145 1.003-2.434 1.432-3.866 1.432-2.149-.143-4.727-1.575-6.732-3.866-2.29-2.722-3.437-5.156-3.293-7.304.143-1.576.859-3.008 2.291-4.297 1.575-1.432 3.724-1.432 6.445-.86l2.005.43 1.289-5.871-1.862-.43c-4.44-1.146-9.166 0-12.46 2.864C53.237 50 52.808 59.31 58.536 66.04c5.442 6.158 14.894 6.874 20.91 1.575 4.44-3.866 6.014-8.736 4.44-14.321zM99.782 20.784l-6.158 2.865s3.437 7.304 4.582 9.881c-1.718.86-3.437 1.576-5.298 2.435-1.146-2.578-4.583-9.882-4.583-9.882l-8.163 3.867 12.46 26.351 8.162-3.866s-3.866-8.164-5.155-10.741c1.718-.86 3.437-1.576 5.299-2.435C102.216 41.837 106.083 50 106.083 50l8.163-3.867-12.46-26.351zM127.422 37.11c-.43-2.004-.86-4.01-1.146-5.871 2.578-.573 9.166-1.862 9.166-1.862l-1.146-5.872s-6.73 1.29-9.165 1.862a65 65 0 0 1-1.003-5.156c2.578-.572 9.739-2.005 9.739-2.005l-1.146-5.871-2.148.43-16.47 3.293 5.729 28.5 18.76-3.58-1.145-5.872c-.143 0-7.447 1.432-10.025 2.005M154.06 11.762l-9.023-.143v2.148l-.572 26.924 18.904.43.143-6.302s-7.304-.143-9.882-.143c0-3.723.43-22.914.43-22.914M183.276 26.37c-2.292-1.719-3.008-2.435-2.721-3.294.143-.43.716-2.005 2.291-1.576 1.002.287 2.005.86 2.435 3.008l.43 2.435 6.014-2.005-.43-1.862c-.715-3.724-3.866-6.875-7.733-7.734-2.864-.716-5.585-.286-7.877 1.003a9.02 9.02 0 0 0-4.153 5.585c-1.432 6.015 2.578 8.88 5.156 10.741 2.72 2.005 3.437 2.721 3.007 4.297-.143.572-.43.859-.859 1.145-.573.287-1.289.43-1.719.287-1.432-.287-2.005-1.003-2.72-2.865l-.717-2.291-6.015 2.435.573 1.861c1.146 3.724 3.867 6.015 8.163 7.161 4.87 1.289 10.885-1.002 12.317-6.874 1.575-6.158-2.578-9.31-5.442-11.457M204.9 41.98c2.292 1.146 8.45 4.296 8.45 4.296l2.578-5.442s-6.158-3.15-8.45-4.296a68 68 0 0 0 2.292-4.583c2.435 1.146 8.88 4.44 8.88 4.44l2.72-5.3-16.899-8.592-1.002 2.005-12.03 24.06 17.042 8.593 2.721-5.3s-6.588-3.293-9.022-4.582c.86-1.719 1.718-3.58 2.72-5.299M238.556 44.701l-27.21 14.035 5.155 4.583s4.44-2.435 6.158-3.294c1.146 1.002 3.008 2.578 4.154 3.58-.573 1.719-2.292 6.588-2.292 6.588l7.16 6.158 11.601-34.228z" class="st0"/><path d="m82.31 53.007-3.151.86.286.716c1.003 3.15.144 6.588-2.434 8.736-1.432 1.289-3.15 1.862-5.013 1.718-2.578-.143-5.442-1.718-7.733-4.296-2.578-3.007-3.867-5.872-3.724-8.45.143-2.005 1.146-3.723 2.864-5.298 2.292-2.005 5.156-1.576 7.734-1.146l.716.143.716-3.007-.716-.144c-4.01-1.002-8.163 0-11.17 2.578-5.872 5.156-6.445 13.605-1.146 19.764 4.869 5.585 13.319 6.158 18.904 1.432 4.01-3.58 5.299-7.877 4.01-12.746zM100.498 22.073l-4.87 2.292s4.154 8.736 4.583 9.881c-1.002.43-6.874 3.294-7.876 3.724-.573-1.146-4.583-9.882-4.583-9.882l-5.585 2.578 11.17 23.774 5.586-2.578s-4.583-9.596-5.156-10.741c1.002-.43 6.874-3.151 7.877-3.724.572 1.146 5.155 10.741 5.155 10.741l5.586-2.578-11.171-23.773zM126.276 38.83c-.286-1.146-1.575-7.591-1.718-8.737 1.146-.286 9.166-1.862 9.166-1.862l-.573-3.007s-8.02 1.575-9.166 1.862c-.286-1.146-1.432-6.875-1.575-7.877 1.289-.286 9.738-2.005 9.738-2.005l-.716-3.008-15.753 3.151 5.155 25.636 16.04-3.151-.716-3.008s-8.593 1.719-9.882 2.005M152.628 13.194l-6.158-.143v.716l-.573 25.492 16.04.286.143-3.437s-8.736-.143-9.882-.143c0-1.289.43-22.771.43-22.771M183.276 20.068c2.005.43 3.007 1.719 3.58 4.153l.143.86 3.15-1.146-.142-.573c-.573-3.15-3.294-5.872-6.731-6.73-2.435-.574-4.87-.287-6.875.858-1.718 1.003-3.007 2.721-3.58 4.726-1.289 5.013 2.005 7.304 4.583 9.166s4.296 3.15 3.58 5.872c-.286 1.146-1.002 1.719-1.575 2.148-.86.573-2.005.716-2.864.43-1.862-.43-2.865-1.576-3.724-3.867l-.286-.716-3.294 1.289.143.573c1.002 3.15 3.294 5.155 7.16 6.158 4.297 1.002 9.31-.86 10.598-5.872 1.29-5.299-2.148-7.877-5.012-9.882-2.435-1.718-3.867-2.864-3.294-4.869.716-1.718 2.148-3.15 4.44-2.578M209.197 30.093l8.88 4.44 1.432-2.721-14.322-7.304-.286.716-11.457 22.771 14.464 7.304 1.433-2.721s-7.877-4.01-9.023-4.583c.573-1.002 3.437-6.874 4.01-8.02 1.146.573 8.45 4.296 8.45 4.296l1.432-2.72s-7.304-3.724-8.45-4.297c.287-1.003 3.008-6.158 3.437-7.16M239.272 45.99l-25.205 13.032 2.864 2.435s5.299-2.864 6.158-3.294c.573.573 5.013 4.44 5.729 5.013-.287.859-2.292 6.588-2.292 6.588l4.726 4.153 9.739-28.786zm-13.319 10.741c1.146-.573 4.297-2.148 6.159-3.15-.716 2.004-1.862 5.298-2.292 6.444-1.002-.716-3.007-2.435-3.867-3.294" class="st2"/><path d="M64 67.1c-1.4-3.8-6.4-5.5-11.1-3.7-2 .7-3.6 2-4.7 3.4C51.3 57.9 64 56 64 47.8c0-13.8-19.6-10-16.8 0 0-4.5 7.2-5.3 7.2 0s-12.5 8.9-12.5 17.9c0 10 10 10.9 9 20-.2 1.6-1.9 3.6-4.3 3.6-15.3 0-9.8-18.8-15.1-24.5l.3-3.9c3.1 1.9 11.3-2.5 5.9-9.3 0 3.3-6.9 3.1-6.9-3.1 0-8.5 7.9-4.1 8.3-2.2-.4-3.1-.5-5.1 0-6.8-4.3 1.4-4.7-1.1-4.1-2.1.6-1.1 1.4-2.4 3.1-2.4.9 0 1.4.1 1.8.3.5.4.9-.5.8.3.5-.7.3.2.7-.5s1.1-1.5 2.1-2.5V31l1.2.5 1.2-1.9c-1.3-2.7-3-1.4-4.3-4.7-1.1-.3-17.9 1.5-17.4-5.2-1.4 0-4.6.8-2.6 3.5-1.6.2-2.7-1.6-5 3.2 2.9-.6 1.4 2.7 1.4 3.7 0 6.1-8.1 6-8.1 3.1-1.9 1.9-.8 6 2.1 7.1 0 0-1.1 4.4-3.9 7.2C4 47.3-2.6 46.6-6.4 43c-1.6-1.5-2.9-2.4-4-2.8v-2c1.6-.8 3.4-2.2 5.2-4.5 1.4-1.8 2.2-4 2-6.4 0-.3-.1-.6-.1-.8 0-.1 0-.2-.1-.3 0-.2-.1-.4-.1-.6 0-.1-.1-.2-.1-.3-.3-.1-.4-.3-.4-.5 0-.1-.1-.2-.1-.2-.1-.2-.2-.5-.3-.7-.1-.1-.1-.2-.2-.3s-.2-.3-.3-.4-.1-.2-.2-.3-.2-.2-.2-.3l-.3-.3-.2-.2c-.2-.3-.5-.5-.8-.7 0 0-.1 0-.1-.1-.2-.1-.3-.3-.5-.4l-.1-.1c-.2-.1-.3-.2-.5-.3-1.7-1.1-3.8-1.6-6-1.4-5.3.4-9.3 4.9-8.8 9.9.3 3.9 3.2 7.1 7 8.1-1.3.7-2.4 1.2-2.7 1.2 0 0 .1.1.2.1h.1c.1 0 .1.1.2.1s.2.1.3.1.2.1.3.1h.1c.2.1.5.2.8.3h.1c.1 0 .2.1.4.1h.1c.2 0 .3.1.5.1v1.1h-.2c-1.7.3-2.8.8-3.4 2.4-.5 1.5 0 2.1.8 3.2-.7 1.2-2.5 1.7-.1 4.4-.2 1 0 2.6 1.5 3.1.5.2.9.3 1.3.3v20.2c-1.5.8-2.2 1.8-2.6 2.7 0 0-1.2-2.6-1.1 2.6 1.3-1 .8 1.2.8 1.2-1.8 2.4.5 2.3.5 2.3 1.6-1.6 1.3.7 1.3.7 0 2.8 1.1 3.9 1.1 3.9v15.4h-1.3v4.3h2.3c-1.3.5-2.2 1.8-2.1 3.3.2 1.8 1.8 3.2 3.7 3s3.3-1.7 3.2-3.6c-.1-1.3-.9-2.3-2.1-2.8h2.2v-4.3h-1.3V88.9l.9.3h.6c-.3-1.8.7-3 .7-3 .6-.8 1.3-1.5 2.3-1.9 2.7-1.4 6.4-1 7.5 1.2 7-1.8 13-8.9 13-8.9l3.5 5.9C10.4 85-5.5 98.9 5.5 103.7c0 1.4-.2 11.8-6.8 10.9-9.6-1.2-12 2.8-10.1 7.2-.9 3.8 2 5.1 2 5.1-.4-2.2.6-4 4.6-3.9 0 4 2.5 4.7 2.5 4.7 0-3.4 2.4-4.6 4.5-4.6 0 2.8 3.2 3.9 3.2 3.9s-.8-3.2 2.8-3.9c9.3-1.6.6-11.2 14.7-13.8 0 0-7-1.1-7-4.9 0-3.5 6.4-5.9 8.6-5.9 4.5 8.6 9.4 8.7 10.7 8.7 2 2.2 1.3 9.7-1.5 9.6-10.5-.6-10.1 5.8-9 7.1-.1 2.5 1.8 3.9 1.8 3.9 0-2.7 2.5-3.4 5.8-3.2-.2 3.3 1.9 3.7 1.9 3.7.1-3.3 2.5-3.8 4.2-3.7-.1 2.3 2.1 3 2.1 3s-.2-2.9 2.8-2.9c5.8 0-2.6-12.5 8.7-24.8-10 4.6-15.3-6.9-15.3-9.1 5.1 6 21.7 7.2 21.7-3 0-9.8-10.7-13.4-5.7-17.2 2.9-2.2 8.7 2.2 5.4 6.8 4.7-1.9 7.3-6.5 5.9-10.3m-63.7.3c-3.8 2.2-6.3 5-9.7 6.2-.5.2-.9.2-1.3.2V54.7c.9.1 3.3.4 6 1.5 2.7 1.5 2.7 4.6-.7 5.3 2.2 4.2 9.7 2.1 11.3-1.3.8-.1 1.5 1.4 2.2 2.7-1 .7-3.2 1.8-7.8 4.5m42.1-31.7c-.4.6-.8 1.1-1.2 1.6 1 1.6 2.7 2.6 4.7 2.4 2.7-.3 4.7-2.7 4.5-5.4V34c-.3 1.4-1.9 2.6-4.1 2.8-1.6.2-3.1-.3-3.9-1.1" style="fill:#d1d3d4" transform="translate(130 50)scale(1.43214)"/><path d="M103.792 84.801c0-.143.143-.286.143-.43-.143.144-.143.287-.143.43m.143 114.571s.143 0 0 0c.143 0 0 0 0 0m-2.148-.715h3.294c-.43.142-.716.429-1.146.715.286-.143.716-.143 1.003-.143 1.718 0 3.007 1.432 3.007 3.007 0 1.72-1.432 3.008-3.007 3.008-1.433 0-2.578-.86-2.865-2.148v.286c.287 2.578 2.578 4.583 5.3 4.297 2.72-.144 4.725-2.435 4.582-5.156-.143-1.719-1.289-3.294-3.007-3.867h3.15v-6.158h-1.862V173.02c-1.861-1.003-2.864-3.008-2.434-5.156 1.146 0 2.148.287 2.864.716-1.002 2.292 1.575 4.87 1.575 4.87-.43-2.578 1.003-4.297 1.003-4.297.86-1.146 2.005-2.148 3.294-2.721 3.867-2.005 9.166-1.432 10.74 1.719 10.026-2.578 18.619-12.746 18.619-12.746l5.012 8.45c11.6 0 7.59-8.737 6.731-9.453 2.721 0 6.445 2.005 6.445 6.301 0 10.741-31.078 12.174-31.078 25.206 0 5.442 5.443 7.447 5.443 7.447 0 11.744-8.164 18.904-13.606 18.904-8.879 0-15.61-1.861-15.61 7.877h3.15c-3.007 3.008-.143 7.304-.143 7.304-.572-3.15.86-5.728 6.588-5.585h3.58c-2.29 2.291-1.002 5.585.144 6.73 0-4.868 3.437-6.587 6.445-6.587h2.577c-.716.716.43 3.867 2.005 5.585 0 0-1.145-4.582 4.01-5.585 13.32-2.291.86-16.04 21.053-19.764 0 0-10.025-1.575-10.025-7.017 0-5.012 9.166-8.45 12.173-8.45 2.435-.286 4.87-.286 6.874.144.86 7.876 9.882 7.59 11.887 7.59 7.734 7.733-2.005 20.193-2.005 20.193-11.887 0-16.613 1.575-16.613 8.593h2.292c-1.29 1.289-.573 4.726.286 5.585 0-3.866 3.58-4.869 8.306-4.583h2.435c-1.146 1.146-1.002 4.154.287 5.3 0-4.727 3.58-5.443 6.015-5.3h2.005c-.717.717 0 3.151 1.002 4.297 0 0-.286-4.153 4.01-4.153 8.306 0-3.724-17.902 12.46-35.517-14.322 6.587-21.912-9.882-21.912-13.033 7.304 8.593 31.077 10.312 31.077-4.296 0-11.887-11.027-17.33-10.025-22.055.287-3.58 3.294-6.445 7.018-6.445 3.867 0 7.017 3.15 7.017 7.018 0 3.007-1.861 5.442-4.44 6.444 6.732-2.434 10.455-9.022 8.45-14.464-2.148-5.443-9.165-7.877-15.896-5.3-2.865 1.003-5.156 2.865-6.731 4.87 4.44-12.746 22.627-15.467 22.627-27.21 0-19.764-28.07-14.322-24.06 0v-.574c.716-8.02 15.181-9.738 15.181.86 0 9.022-18.475 13.891-18.475 26.065 0 12.46 13.606 15.467 13.606 28.642 0 1.576-.86 8.307-9.882 8.307-8.736 0-12.89-4.87-15.324-11.314-4.44-8.593-2.864-22.055-7.877-27.354l.43-5.585c4.44 2.72 16.183-3.58 8.45-13.32 0 4.727-9.882 4.44-9.882-4.439 0-12.173 11.314-5.872 11.887-3.15-.573-4.44-.716-7.304 0-9.739-6.159 2.005-6.731-1.575-5.872-3.008.86-1.575 2.148-3.437 4.44-3.437 3.437 0 3.293 1.29 3.007 3.008 1.289-2.005 1.719-3.437 4.726-6.445v-2.291l1.719.716 1.718-2.721c-1.862-3.867-4.296-2.005-6.158-6.731-1.575-.43-21.769-2.292-21.052-11.887-1.72 0-6.732 6.158-3.438 9.452h-4.153c-2.291.287-7.447-1.289-10.884 5.585 8.306-8.306 13.605 11.458-1.575 11.458-2.292 0-4.154-1.003-4.297-2.578-1.575 6.73 8.163 8.736 8.163 8.736 0 2.005-4.869 12.746-7.16 15.037 1.575 1.576 2.005 11.17-5.156 11.17 2.578-7.16-5.156-13.175-12.603-17.185-1.289-.573-2.721-1.145-3.867-1.862-4.583-2.148-8.306-3.293-8.306-3.293v-5.586c2.291-1.146 4.87-3.15 7.447-6.444 2.005-2.578 3.15-5.729 2.864-9.166 0-.43-.143-.86-.143-1.146 0-.143 0-.286-.143-.43 0-.286-.143-.572-.143-.859 0-.143-.144-.286-.144-.43-.143-.286-.143-.572-.286-.859 0-.143-.143-.286-.143-.286-.143-.287-.287-.716-.43-1.003 0-.143-.143-.286-.286-.43-.143-.142-.287-.429-.43-.572-.143-.716-.286-.86-.286-1.003-.144-.143-.287-.286-.287-.43l-.43-.429c-.143-.143-.286-.286-.429-.286-.286-.43-.716-.716-1.146-1.003l-.143-.143c-.286-.143-.43-.43-.716-.573l-.143-.143c-.287-.143-.43-.287-.716-.43-2.435-1.575-5.442-2.291-8.593-2.005-.716 0-1.29.143-2.005.287-4.44 1.718-7.59 6.73-7.59 12.889 0 5.728 2.864 10.598 6.874 12.603h.143c-1.862 1.002-3.437 1.718-3.867 1.718 0 0 .143.144.287.144.143 0 .143.143.286.143h.143c.143 0 .287.143.43.143s.286.143.43.143h.143c.286.143.716.287 1.145.43h.144c.143 0 .286.143.43.143h.143c.286 0 .43.143.716.143 1.432.143 3.15-.286 3.15-.286v3.294c-.286 0-2.578-.716-3.15-1.29h-.287c-2.434.43-4.01 1.147-4.87 3.438-.715 2.148 0 3.007 1.147 4.583-1.003 1.718-3.58 2.434-.144 6.301-.286 1.432 0 3.724 2.149 4.44.716.286 1.289.286 1.861.43 1.29 0 3.151 1.002 3.151 3.723v24.92c1.146 0 2.435.286 3.58.286v-27.497c1.29.143 4.727.572 8.593 2.148 0 0 .144 0 .144.143.43 0 .716.143 1.145.286 2.578.86 4.297 3.151 3.58 5.156-.572 2.005-3.293 3.008-5.871 2.148 3.15 6.015 13.892 3.008 16.183-1.861 1.146-.144 2.148 2.005 3.15 3.866 0 0 2.722 1.003 9.453 1.003 0 0-27.068 17.329-34.944 17.329-3.294 0-10.741 0-10.741 2.578-2.005 0-5.013 3.437-5.013 5.442 1.862-1.576 3.437-1.576 3.437-1.576 1.576 0 2.578.43 2.578.43-.573.573-3.294 3.58-3.294 6.015 2.292-2.291 3.294-2.291 3.294-2.291s2.435-.287 3.15.572c-.572.573-1.575 2.578-1.575 5.013 0 0 1.433-2.721 3.151-2.721v26.065c0 .86-3.58 1.575-5.012 1.575m1.289-75.33c-.717 0-1.003-.86-1.003-1.146s.286-1.146.86-1.289c1.575 0 4.725.716 4.725 1.003s-3.007 1.288-4.582 1.432m-1.146-4.297c-.86 0-1.29-1.289-1.146-1.718 0-.43.573-1.576 1.432-1.576 2.148.144 6.445 1.719 6.445 2.149s-4.44 1.288-6.731 1.145m-.287-5.585c-1.002-.287-1.002-1.719-1.002-2.148.143-.43.86-1.576 1.862-1.432 2.291.572 6.588 3.15 6.444 3.58 0 .573-5.012.716-7.304 0m7.161-15.467c.43-1.003.287-2.292 0-3.58h-.143c-2.864 0-5.013-2.292-5.013-5.013 0-.43 0-1.003.144-1.432.572-2.148 2.577-3.724 4.869-3.724 2.721 0 5.012 2.292 5.012 5.013.144 3.437-2.148 6.444-4.869 8.736" class="st1"/><path d="M184.565 99.122c1.288 2.292 3.866 3.724 6.73 3.438 3.867-.43 6.732-3.867 6.445-7.734v-.43c-.43 2.005-2.864 3.724-5.872 4.01-2.291.287-4.296-.43-5.585-1.575-.573.86-1.146 1.575-1.718 2.291" class="st4"/><path d="m175.112 85.947 2.435.143-1.289 1.718c.143 0-1.432.573-1.146-1.861m-5.728 0h3.58s-.143 2.864 2.435 3.15l-.573.86s-7.018-1.719-5.442-4.01" class="st2"/><path d="M-14.8 42.1c.1-.3-2.9-2.1-4.5-2.5-.7-.2-1.2.6-1.3 1-.1.3 0 1.3.7 1.5 1.6.4 5.1.3 5.1 0m-.2 3c0-.3-2.9-1.4-4.5-1.5-.6 0-1 .8-1 1.1s.2 1.2.8 1.2c1.6.1 4.7-.5 4.7-.8m-3.4-9v1.1c.4.4 2 .9 2.2.9v-2.3c0 .1-1.2.4-2.2.3m-.6 11.1c-.5 0-.6.6-.6.9 0 .2.2.8.7.8 1.1 0 3.3-.7 3.3-1-.1-.2-2.3-.7-3.4-.7m-2.3 30.1c-1.8 2.4-.5 4.5-.5 4.5 0-1.7 1.9-3.8 2.3-4.2 0 .1-.6-.3-1.8-.3m5.9 5.1c-.3 1.5.4 2.9 1.7 3.6l.9.3c.1 0 .3 0 .4.1h.2s-1.9-1.7-1.1-3.4q-.9-.6-2.1-.6m-3.4-48.6c-2.8-1.4-4.8-4.8-4.8-8.8 0-4.2 2.2-7.8 5.3-9-4.6 1-7.8 5.1-7.4 9.7.4 4 3.2 7.1 6.9 8.1m29.5-9.7c3-.6 4 2.1 4 3 0 3.6-2.8 5-5.1 5 10.7 0 6.9-13.8 1.1-8M3.6 54.7c5.1 0 4.8-6.7 3.7-7.8 1.6-1.6 5-9.1 5-10.5 0 0-6.7-1.4-5.7-6.1h-.1c-1.8 1.9-.7 6 2.2 7 0 0-1.1 4.4-3.9 7.2-2.8-.1-6.6-.5-10-1.8 5.3 2.8 10.7 7 8.8 12m-19.9-31.9c1.3-.1 2.5.8 2.6 2.1s-.9 2.4-2.2 2.5-2.5-.8-2.6-2.1c0 1.9 1.6 3.5 3.5 3.5h.1c.2.9.2 1.8 0 2.5 1.9-1.7 3.5-3.7 3.5-6 0-2-1.6-3.5-3.5-3.5-1.6 0-3 1.1-3.4 2.6.3-.9 1.1-1.6 2-1.6m37.6-2.6c-2.3-2.3 1.1-6.6 2.4-6.6-1.4 0-7.3 3.9-5.3 6.6zM-8.4 58.5c1.8.6 3.7-.1 4.1-1.5s-.7-3-2.5-3.6c-.3-.1-.5-.1-.8-.2 2.6 1.6 2.6 4.6-.8 5.3m-5.3-19.4s2.6.8 5.8 2.3c-.6-.4-1.2-.8-1.8-1.4-1.6-1.5-2.9-2.4-4-2.8zm1 33.7c5.5 0 24.4-12.1 24.4-12.1-4.7 0-6.6-.7-6.6-.7-1.1.6-3.2 1.6-7.8 4.4-3.8 2.2-6.3 5-9.7 6.2-.5.2-.9.2-1.3.2-.8-.1-1.7-.2-2.5-.2V53.2c0-1.8-1.3-2.6-2.2-2.6v20.2c-1.5.8-2.2 1.8-2.6 2.7 0 0-2.8-.4-2.7 4.8 0-1.4 2.1-3.8 3.5-3.8-.1-1.7 5.1-1.7 7.5-1.7m47.2 28c-1.4 0-7.7.3-8.3-5.3-1.4-.3-3-.4-4.8-.1 4.5 8.6 9.4 8.7 10.7 8.7 2 2.2 1.3 9.7-1.6 9.6-10.5-.6-10.1 5.8-9 7.1 0-4.8 3.3-6 11.6-6 0 0 6.8-8.6 1.4-14m2.2 20.7h-1.4c-.1 2.3 2.2 3 2.2 3-.8-.8-1.4-2.5-.8-3m-13.4 3.2c-.6-.6-1.1-3-.2-3.9h-1.6c-.1 2.5 1.8 3.9 1.8 3.9m31.4-79.8c0-7.3-10.1-6.2-10.6-.6.4-4.1 7.2-4.7 7.2.4 0 5.3-12.5 8.9-12.5 17.9 0 10 10 10.9 9 20-.2 1.6-1.9 3.6-4.3 3.6-5.2 0-8.1-2.2-9.7-5.4 1.7 4.5 4.6 7.9 10.7 7.9 6.3 0 6.9-4.7 6.9-5.8 0-9.1-9.5-11.3-9.5-20-.1-8.3 12.8-11.8 12.8-18m-74.2 35.4c0 2.8 1.1 3.9 1.1 3.9 0-1.7.7-3.1 1.1-3.5-.6-.6-2.2-.4-2.2-.4m72.7-15.6c-2.6 0-4.6 2-4.9 4.5.1-.6.5-1.2 1.3-1.8 2.9-2.2 8.7 2.2 5.4 6.7 1.8-.7 3.1-2.5 3.1-4.5 0-2.7-2.2-4.9-4.9-4.9m-22.4 56.8h-1.7c-.2 3.2 1.9 3.7 1.9 3.7-.8-.9-1-2.9-.2-3.7m-48.2-17.3c-.3 0-.5.1-.7.1-.8.6-1.3 1.6-1.3 2.6.3.9 1.1 1.5 2 1.5 1.2 0 2.1-1 2.1-2.1 0-1.2-.9-2.1-2.1-2.1m12 15.7h-2.5c0 4 2.5 4.7 2.5 4.7-.7-.7-1.6-3.1 0-4.7m7.6-25c0-9 21.7-10.1 21.7-17.6 0-3-2.6-4.4-4.5-4.4.5.5 3.3 6.6-4.7 6.6C7.4 82-8.6 95.8 2.5 100.6c0 1.4-.2 11.8-6.8 10.9-9.6-1.2-12 2.8-10.1 7.2 0-6.8 4.7-5.5 10.9-5.5 3.9 0 9.5-4.9 9.5-13.2 0 .2-3.8-1.3-3.8-5.1m-18.4 5.6V82.3c-1.2 0-2.2 1.9-2.2 1.9v15.5-.1h-1.3v2c1 0 3.5-.6 3.5-1.1m3.8 23.4s-1.9-3 .1-5.1h-2.2c-.8 3.8 2.1 5.1 2.1 5.1M.9 120H-.9c0 2.8 3.2 3.8 3.2 3.8-1.1-1.1-1.9-3.3-1.4-3.8" style="fill:#6a7ab5" transform="translate(130 50)scale(1.43214)"/><path d="m45.074 178.606-.143-.573-.143-.573c-.287-1.861-.716-5.298-3.437-6.015-.717-.143-1.433-.143-2.292.287.287-.86.143-1.575 0-2.292-1.002-2.577-4.44-2.577-6.445-2.577h-.572l-.573-.144c-1.862-.286-5.3-1.002-6.731 1.433-.43.572-.573 1.432-.43 2.148-.716-.43-1.432-.716-2.148-.573-2.721.143-3.867 3.437-4.44 5.299l-.143.573-.286.43c-.86 1.718-2.578 4.725-.716 6.874.43.572 1.145 1.002 2.005 1.145-.717.573-1.146 1.146-1.29 1.862-.715 2.721 2.149 4.726 3.724 5.729l.43.286.43.43c1.288 1.432 3.723 3.866 6.3 2.864.717-.286 1.29-.86 1.72-1.575.286.859.715 1.432 1.432 1.718 2.291 1.432 5.155-.573 6.587-1.718l.43-.287.43-.286c1.718-.86 4.869-2.292 4.583-5.013 0-.716-.43-1.432-.86-2.005.86 0 1.576-.286 2.148-.716 2.149-1.575 1.003-4.869.43-6.73" class="st2"/><path d="M32.9 180.898c15.468 9.165 10.742-.86 10.312-2.435-.286-1.432-.43-12.603-10.311 2.435M31.898 183.189c-3.866 17.472 4.154 9.882 5.443 9.166 1.432-.86 11.886-4.44-5.443-9.166M29.464 182.903c-17.902 1.718-8.163 7.017-7.018 8.02s7.877 9.881 7.018-8.02M28.89 180.468c-7.16-16.47-9.165-5.585-9.738-4.153-.572 1.432-7.017 10.454 9.739 4.153" class="st4"/><path d="m284.098 176.172-.286-.43-.143-.573c-.573-1.862-1.576-5.156-4.44-5.299-.716 0-1.432.143-2.148.573q0-1.29-.43-2.148c-1.432-2.435-4.87-1.719-6.73-1.432l-.574.143h-.573c-1.861 0-5.442 0-6.444 2.578-.287.716-.287 1.432-.143 2.291-.717-.286-1.576-.43-2.292-.286-2.721.573-3.15 4.153-3.437 6.015l-.143.573-.143.572c-.573 1.719-1.719 5.156.43 6.875.572.43 1.288.716 2.147.716-.572.716-.859 1.289-.859 2.005-.286 2.72 2.864 4.296 4.583 5.012l.43.287.43.286c1.575 1.146 4.296 3.15 6.587 1.719.573-.43 1.146-1.003 1.432-1.862.43.716 1.003 1.289 1.719 1.575 2.578 1.146 5.012-1.432 6.301-2.864l.43-.43.43-.286c1.575-1.146 4.44-3.15 3.723-5.729-.143-.716-.573-1.289-1.289-1.861.86-.144 1.432-.573 2.005-1.146 2.005-2.148.287-5.156-.573-6.874" class="st2"/><path d="M270.493 179.179c-13.462-11.887-2.435-10.455-.86-10.598 1.433-.143 12.03-3.437.86 10.598M268.631 180.898c-15.467 9.165-10.74-.86-10.311-2.435.286-1.432.43-12.603 10.311 2.435M269.49 183.189c3.867 17.472-4.153 9.882-5.442 9.166-1.289-.86-11.743-4.44 5.442-9.166M272.068 182.903c17.902 1.718 8.163 7.017 7.018 8.02-1.29 1.002-7.877 9.881-7.018-8.02M272.641 180.468c7.16-16.47 9.166-5.585 9.739-4.153s7.017 10.454-9.739 4.153" class="st4"/><path d="M276.078 181.04c0-.142 0-.286-.143-.429a239 239 0 0 0 3.008-2.148l-.144-.286s-1.861.286-3.58.572c-.86-1.432-2.291-2.434-4.01-2.577-.573-1.576-1.146-3.294-1.146-3.294h-.43s-.286 1.718-.429 3.437c-1.002.286-2.005.859-2.721 1.718-.43.43-.716 1.003-.86 1.576h-3.58l-.143.43s1.719.859 3.294 1.575v.43c.143 1.431.716 2.72 1.862 3.58-.573 1.718-1.146 3.723-1.146 3.723l.287.143s1.432-1.432 2.72-2.864c.717.287 1.433.287 2.149.287s1.432-.287 2.005-.573c1.432 1.145 3.15 2.291 3.15 2.291l.287-.286s-1.003-1.862-1.862-3.437c1.146-1.146 1.575-2.435 1.432-3.867" class="st2"/><path d="M270.493 178.32c-.86 0-1.575.43-2.148 1.145-.573.717-.86 1.433-.716 2.292.143 1.718 1.718 3.007 3.437 2.864.86-.143 1.575-.43 2.148-1.146s.86-1.432.716-2.291c-.143-1.719-1.718-3.007-3.437-2.864M31.04 179.179c13.461-11.887 2.434-10.455.858-10.598-1.432-.143-12.03-3.437-.859 10.598" class="st4"/><path d="M36.195 181.47a115 115 0 0 0 3.294-1.575l-.143-.43h-3.58c-.144-.572-.43-1.002-.86-1.575-.716-.86-1.719-1.432-2.721-1.718-.287-1.719-.43-3.438-.43-3.438h-.43s-.572 1.719-1.002 3.294c-1.719.144-3.15 1.146-4.01 2.578-1.719-.286-3.58-.573-3.58-.573l-.144.287s1.576 1.145 3.008 2.148c0 .143 0 .286-.143.43-.143 1.432.286 2.72 1.145 3.866-.859 1.576-1.861 3.438-1.861 3.438l.286.286s1.719-1.289 3.15-2.291c.574.286 1.29.572 2.006.572s1.432 0 2.148-.286c1.289 1.289 2.721 2.864 2.721 2.864l.287-.143s-.573-2.005-1.146-3.724a5.48 5.48 0 0 0 1.862-3.58c.143-.143.143-.286.143-.43" class="st2"/><path d="M33.187 179.465c-.573-.716-1.289-1.002-2.148-1.145-1.718-.143-3.294 1.145-3.437 2.864-.143.86.143 1.719.716 2.291.573.717 1.289 1.003 2.148 1.146 1.719.143 3.294-1.146 3.437-2.864a2.64 2.64 0 0 0-.716-2.292" class="st4"/><path d="M33.044 104.565c-7.59-1.29-14.75 3.723-16.04 11.17-1.289 7.59 3.724 14.751 11.17 16.04 7.591 1.29 14.752-3.723 16.04-11.314 1.433-7.447-3.723-14.608-11.17-15.896" class="st2"/><path d="M36.195 115.02c-.143-.144-.287-.144-.573-.43-1.146-.717-3.294-2.292-3.437-2.292-.287-.143-.573-.43-.86-.573-1.002-.716-1.861-1.289-2.72-1.718-.287-.144-.573-.287-1.003-.573-1.289-.716-2.578-1.003-4.153-1.146a15 15 0 0 0-3.008 3.008c3.437 1.289 6.875 3.294 13.749 7.59.573-.86 1.862-3.724 2.005-3.867M32.9 122.466c.144-.286.717-1.861 1.003-2.578-7.16-4.44-10.454-6.444-14.035-7.59-.572 1.003-1.002 2.005-1.145 3.15 2.005 2.722 7.304 5.3 14.178 7.018M32.185 111.152c2.72-1.575 5.728-1.145 8.163-.286-.86-1.146-2.005-2.148-3.15-2.864-2.292-.43-5.3-.573-7.734 1.432.716.43 1.718 1.002 2.72 1.718" class="st4"/><path d="M21.444 124.042c.43.286.716.43 1.146.716.859.43 1.718.859 2.577 1.145.43.144.716.287 1.146.43 1.289.43 4.44 1.289 4.726 1.289 0-.143 1.146-3.008 1.575-4.01-5.298-1.289-11.17-3.724-14.034-6.731-.144 1.432-.144 2.721.143 4.153.573 1.146 1.575 2.148 2.72 3.008M31.04 128.624l-1.147-.286a107 107 0 0 0-3.294-.86 7.9 7.9 0 0 0 2.435 2.865 16.2 16.2 0 0 0 3.724 0c-1.003-.86-1.719-1.719-1.719-1.719M42.21 114.733a17.5 17.5 0 0 0-1.003-2.435c-2.148-1.002-5.299-1.862-8.163-.43l3.867 2.578c.86-.143 1.575-.143 2.291-.143h1.003c.86.143 1.432.287 2.005.43M40.205 115.306c-.143 6.301-3.15 11.313-5.729 14.321 4.01-1.432 7.304-4.87 8.02-9.452.287-1.575.287-3.008 0-4.44a23 23 0 0 0-2.291-.43M28.318 108.718a9.05 9.05 0 0 1 5.872-2.148c-.43-.144-1.003-.287-1.576-.43-2.864-.43-5.585 0-7.876 1.289 1.289.286 2.434.716 3.58 1.289" class="st4"/><path d="M37.197 115.449c-.859 1.862-1.432 3.15-1.861 4.153a7 7 0 0 0-.43 1.003c-.287.572-.86 2.148-.86 2.148l-.429 1.002-1.719 4.297a8.2 8.2 0 0 0 1.576 1.575c2.578-2.864 5.728-7.734 5.728-14.178-.573-.143-1.289-.143-2.005 0M25.31 127.05c-.859-.287-1.718-.574-2.577-1.003.286.859.716 1.718 1.145 2.434.86.573 1.862 1.003 3.008 1.432-.573-.859-1.146-1.718-1.575-2.864M21.587 125.33a6.4 6.4 0 0 1-1.575-1.145c.573 1.002 1.289 1.862 2.148 2.72a7 7 0 0 1-.573-1.574" class="st4"/><path d="M255.742 120.605c1.289 7.59 8.593 12.602 16.04 11.313 7.59-1.289 12.603-8.592 11.314-16.04-1.29-7.59-8.593-12.602-16.04-11.313-7.59 1.288-12.603 8.45-11.314 16.04" class="st2"/><path d="M263.905 115.02c.143-.144.287-.144.573-.43 1.146-.717 3.294-2.292 3.437-2.292.287-.143.573-.43.86-.573 1.002-.716 1.861-1.289 2.72-1.718.287-.144.573-.287 1.003-.573 1.289-.716 2.578-1.003 4.153-1.146a15 15 0 0 1 3.008 3.008c-3.438 1.289-6.731 3.294-13.749 7.59-.573-.86-2.005-3.724-2.005-3.867M267.056 122.466c-.143-.286-.716-1.861-1.003-2.578 7.161-4.44 10.455-6.444 13.892-7.59.573 1.003 1.003 2.005 1.146 3.15-1.862 2.722-7.16 5.3-14.035 7.018M267.915 111.152c-2.721-1.575-5.728-1.145-8.163-.286.86-1.146 2.005-2.148 3.15-2.864 2.292-.43 5.3-.573 7.734 1.432-.86.43-1.718 1.002-2.72 1.718" class="st4"/><path d="M278.513 124.042c-.287.286-.716.43-1.146.716-.86.43-1.575.859-2.578 1.145-.43.144-.716.287-1.145.43-1.29.43-4.44 1.289-4.726 1.289 0-.143-1.146-3.008-1.576-4.01 5.3-1.289 11.17-3.724 14.035-6.731.143 1.432.143 2.721-.143 4.153-.573 1.146-1.432 2.148-2.721 3.008M268.918 128.624l1.145-.286a107 107 0 0 1 3.294-.86 7.9 7.9 0 0 1-2.434 2.865 16.2 16.2 0 0 1-3.724 0c1.003-.86 1.719-1.719 1.719-1.719M257.747 114.733a17.5 17.5 0 0 1 1.002-2.435c2.149-1.002 5.3-1.862 8.164-.43l-3.867 2.578c-.86-.143-1.576-.143-2.292-.143h-1.002a47 47 0 0 0-2.005.43M259.752 115.306c.143 6.301 3.15 11.313 5.728 14.321-4.01-1.432-7.303-4.87-8.02-9.452a10.85 10.85 0 0 1 0-4.297c.573-.286 1.433-.43 2.292-.572M271.639 108.718a9.05 9.05 0 0 0-5.872-2.148c.43-.144 1.002-.287 1.575-.43 2.865-.43 5.586 0 7.877 1.289a15.2 15.2 0 0 0-3.58 1.289" class="st4"/><path d="M262.903 115.449c.859 1.862 1.432 3.15 1.861 4.153.144.286.287.573.43 1.003.286.572.86 2.148.86 2.148l.429 1.002 1.719 4.297a8.2 8.2 0 0 1-1.576 1.575c-2.578-2.864-5.728-7.734-5.728-14.178.572-.143 1.145-.143 2.005 0M274.646 127.05c.86-.287 1.719-.574 2.578-1.003-.286.859-.716 1.718-1.146 2.434-.859.573-1.862 1.003-3.007 1.432.573-.859 1.289-1.718 1.575-2.864M278.37 125.33a6.4 6.4 0 0 0 1.575-1.145c-.573 1.002-1.289 1.862-2.148 2.72.286-.572.43-1.002.573-1.574" class="st4"/></svg>