<?xml version="1.0" encoding="UTF-8"?>
<svg id="Layer_2" data-name="Layer 2" xmlns="http://www.w3.org/2000/svg" viewBox="0 0 295.79 298.47">
  <defs>
    <style>
      .cls-1 {
        fill: #f4c021;
      }

      .cls-1, .cls-2, .cls-3, .cls-4, .cls-5, .cls-6, .cls-7, .cls-8 {
        fill-rule: evenodd;
        stroke-width: 0px;
      }

      .cls-2 {
        fill: #19539f;
      }

      .cls-3 {
        fill: #ea3e2e;
      }

      .cls-4 {
        fill: #e92e2f;
      }

      .cls-5 {
        fill: #231f20;
      }

      .cls-6 {
        fill: #c6312c;
      }

      .cls-7 {
        fill: #995d28;
      }

      .cls-9 {
        fill: none;
        stroke: #231f20;
        stroke-width: 1.06px;
      }

      .cls-8 {
        fill: #fff;
      }
    </style>
  </defs>
  <g id="Layer_1-2" data-name="Layer 1">
    <g>
      <path class="cls-5" d="M147.89,293.39s7.18,5.08,21.71,5.08c8.75,0,11.55-3.67,11.55-3.67,0,0,15.22.7,20.83-10.5,0,0,23.1.18,29.92-15.57,0,0,.35-2.98,4.9-4.2,4.55-1.23,18.9-5.6,21.53-21.35,0,0,19.78-12.6,19.07-30.44,0,0,1.41-4.55,5.78-8.57,4.37-4.02,8.4-10.68,8.4-17.85,0-7.17-3.33-10.5-3.33-10.5,0,0,7.53-9.27,7.53-22.04,0-7.53-4.55-13.47-4.55-13.47,0,0,3.33-8.74,2.27-20.47-1.05-11.72-8.93-15.57-8.93-15.57,0,0,1.93-10.15-2.27-19.94-4.2-9.8-12.43-13.3-12.43-13.3,0,0-.69-10.84-7.87-18.55-7.18-7.7-14.53-8.22-14.53-8.22,0,0-1.92-6.48-9.8-13.83-7.88-7.34-17.67-7.87-17.67-7.87,0,0-4.55-7.17-14.35-11.89-9.8-4.72-18.38-1.75-18.38-1.75C187.27,8.92,175.2,0,163.82,0c-8.93,0-15.94,3.85-15.94,3.85C147.89,3.85,140.89,0,131.97,0c-11.38,0-23.46,8.92-23.46,8.92,0,0-8.57-2.97-18.37,1.75-9.81,4.72-14.35,11.89-14.35,11.89,0,0-9.8.53-17.69,7.87-7.87,7.35-9.8,13.83-9.8,13.83,0,0-7.35.52-14.52,8.22-7.18,7.7-7.88,18.55-7.88,18.55,0,0-8.23,3.5-12.42,13.3-4.2,9.8-2.28,19.94-2.28,19.94,0,0-7.88,3.85-8.93,15.57-1.05,11.73,2.28,20.47,2.28,20.47,0,0-4.55,5.95-4.55,13.47,0,12.78,7.52,22.04,7.52,22.04,0,0-3.33,3.33-3.33,10.5s4.03,13.83,8.4,17.85c4.37,4.02,5.78,8.57,5.78,8.57-.7,17.84,19.07,30.44,19.07,30.44,2.63,15.75,16.98,20.12,21.53,21.35,4.55,1.22,4.9,4.2,4.9,4.2,6.83,15.75,29.93,15.57,29.93,15.57,5.6,11.2,20.83,10.5,20.83,10.5,0,0,2.8,3.67,11.55,3.67,14.53,0,21.7-5.08,21.7-5.08h0Z"/>
      <path class="cls-3" d="M147.89,258.75s-9.53-4.98-17.4-4.98c-3.77,0-6.92,1.31-6.92,1.31,0,0-5.25-2.97-16.1-2.45,0,0-8.73-9-18.73-12.07-4.56-1.4-5.08-1.4-5.08-1.4,0,0-3.33-7.35-10.14-12.25-6.83-4.9-10.68-7.88-10.68-7.88,0,0-1.05-6.82-5.61-12.94-4.55-6.13-9.1-9.98-9.1-9.98,0,0,.35-8.39-1.93-14.7-2.28-6.3-6.3-11.72-6.3-11.72,0,0,1.75-4.2,1.22-12.6-.53-8.4-2.45-16.1-2.45-16.1,0,0,3.15-2.97,4.2-11.72,1.05-8.75.35-15.4.35-15.4,0,0,4.2-3.85,7.35-11.02,3.15-7.18,4.2-14.7,4.2-14.7,0,0,4.73-1.4,10.68-9.62,5.95-8.22,7.35-12.59,7.35-12.59,0,0,5.25-.35,11.9-5.6,6.65-5.25,9.81-10.32,9.81-10.32,0,0,8.22.52,15.05-3.67,6.82-4.2,9.45-6.47,9.45-6.47,0,0,3.33,2.28,12.08,2.28s12.25-3.33,14.18-4.02c1.92-.7,2.62-.69,2.62-.69v221.29h0Z"/>
      <path class="cls-2" d="M147.89,258.65s9.55-4.88,17.43-4.88c3.75,0,6.91,1.31,6.91,1.31,0,0,5.25-2.97,16.1-2.45,0,0,8.73-9,18.73-12.07,4.55-1.4,5.08-1.4,5.08-1.4,0,0,3.32-7.35,10.15-12.25,6.82-4.9,10.67-7.88,10.67-7.88,0,0,1.06-6.82,5.6-12.94,4.56-6.13,9.1-9.98,9.1-9.98,0,0-.35-8.39,1.93-14.7,2.27-6.3,6.3-11.72,6.3-11.72,0,0-1.75-4.2-1.22-12.6.53-8.4,2.45-16.1,2.45-16.1,0,0-3.15-2.97-4.2-11.72-1.05-8.75-.35-15.4-.35-15.4,0,0-4.21-3.85-7.35-11.02-3.16-7.18-4.2-14.7-4.2-14.7,0,0-4.73-1.4-10.68-9.62-5.95-8.22-7.35-12.59-7.35-12.59,0,0-5.25-.35-11.9-5.6-6.66-5.25-9.8-10.32-9.8-10.32,0,0-8.23.52-15.06-3.67-6.82-4.2-9.45-6.47-9.45-6.47,0,0-3.33,2.28-12.08,2.28s-12.25-3.33-14.18-4.02c-1.92-.7-2.63-.69-2.63-.69v221.2h0Z"/>
      <path class="cls-5" d="M147.89,245.63c33.62,0,53.2-1.78,67.21-5.59,5.78-1.59,8.63-5.85,5.6-9.62-2.1-2.62-4.03-3.5-4.03-3.5l4.91-25.89,11.02-38.14s2.95-8.15-3.85-10.15c-2.98-.88-8.75.7-9.45,8.22,0,0-8.4-.7-8.92,4.9-.53,5.6,2.97,7.34,6.12,7.34s3.16.18,3.16.18c0,0,.7,8.22-5.95,7.52,0,0,2.63-8.74-2.98-9.97-5.59-1.23-7.35,3.14-8.22,6.47,0,0-8.58-3.15-10.15,2.97-1.57,6.13,2.45,7.7,7.7,8.57,0,0-2.27,6.83,4.55,8.04,6.83,1.23,7.35-7.17,7.35-7.17,0,0,4.63-1.47,2.8,5.25-.53,1.92-1.41,4.55-1.41,4.55,0,0-2.97.35-4.9,2.8-1.92,2.45-3.15,3.86-7.35,3.86s-6.47-3.16-6.47-3.16v-15.75s-2.28-.52-2.46-5.77c0,0-10.51-2.93-14.53,12.07-2.62,9.8-6.3,14.34-11.03,14.34s-7.7-2.63-7.7-6.65-2.11-6.12-5.42-7.17c0,0-.87-6.12,2.63-6.12,0,0,1.4.18,1.4,3.68s2.1,5.77,6.12,5.77,5.95-4.03,5.95-7.53c0,0,9.45,1.76,9.45-6.29,0-7-8.92-6.12-8.92-6.12,0,0,1.22-8.04-6.48-8.04-6.3,0-6.12,5.42-6.12,7s-.52,2.8-1.22,2.8-2.98,1.57-2.98-8.21c0,0,1.39-.53,2.8.17,1.4.7,7.52,1.04,7.52-7.35,0-6.48-8.93-6.31-8.93-6.31,0,0,.7-2.62.7-5.59s-2.27-5.95-7.53-5.95c-1.03,0-1.95.11-2.75.32-3.3.85-4.76,3.24-4.76,5.63,0,2.97.7,5.59.7,5.59,0,0-8.93-.17-8.93,6.31,0,8.39,6.13,8.04,7.53,7.35,1.4-.71,2.8-.17,2.8-.17,0,9.79-2.28,8.21-2.98,8.21s-1.23-1.22-1.23-2.8c0-1.58.18-7-6.13-7-7.7,0-6.47,8.04-6.47,8.04,0,0-8.93-.88-8.93,6.12,0,8.05,9.45,6.29,9.45,6.29,0,3.5,1.93,7.53,5.95,7.53s6.13-2.28,6.13-5.77c0-3.5,1.41-3.68,1.41-3.68,3.5,0,2.62,6.12,2.62,6.12-3.33,1.05-5.42,3.15-5.42,7.17,0,4.03-2.98,6.65-7.71,6.65s-8.4-4.54-11.03-14.34c-4.02-15-14.52-12.07-14.52-12.07-.17,5.25-2.45,5.77-2.45,5.77v15.75s-2.28,3.16-6.48,3.16-5.43-1.41-7.35-3.86c-1.93-2.45-4.9-2.8-4.9-2.8,0,0-.88-2.63-1.41-4.55-1.83-6.72,2.81-5.25,2.81-5.25,0,0,.52,8.4,7.34,7.17,6.83-1.22,4.56-8.04,4.56-8.04,5.25-.87,9.28-2.45,7.7-8.57-1.57-6.12-10.15-2.97-10.15-2.97-.87-3.33-2.62-7.7-8.23-6.47-5.59,1.23-2.97,9.97-2.97,9.97-6.65.7-5.95-7.52-5.95-7.52,0,0,0-.18,3.15-.18s6.65-1.74,6.13-7.34c-.52-5.6-8.93-4.9-8.93-4.9-.7-7.53-6.48-9.1-9.46-8.22-6.8,2-3.85,10.15-3.85,10.15l11.03,38.14,4.9,25.89s-1.92.88-4.02,3.5c-3.03,3.78-.18,8.04,5.6,9.62,14.01,3.81,33.6,5.59,67.2,5.59h0Z"/>
      <path class="cls-5" d="M219.3,161.01s-8.4-.7-8.92,4.89c-.53,5.6,2.97,7.35,6.12,7.35s3.16.18,3.16.18c0,0,.7,8.22-5.95,7.52,0,0,2.63-8.75-2.98-9.97-5.59-1.22-7.35,3.15-8.22,6.47,0,0-8.58-3.15-10.15,2.98-1.57,6.12,2.45,7.7,7.7,8.57,0,0-2.27,6.83,4.55,8.05,6.83,1.22,7.35-7.17,7.35-7.17,0,0,4.63-1.48,2.8,5.24-.53,1.93-1.41,4.55-1.41,4.55,0,0-2.97.35-4.9,2.8-1.92,2.45-3.15,3.85-7.35,3.85s-6.47-3.15-6.47-3.15v-15.75s-2.28-.52-2.46-5.77c0,0-10.51-2.93-14.53,12.07-2.62,9.8-6.3,14.35-11.03,14.35s-7.7-2.62-7.7-6.65-2.11-6.12-5.42-7.17c0,0-.87-6.12,2.63-6.12,0,0,1.4.17,1.4,3.67s2.1,5.77,6.12,5.77,5.95-4.02,5.95-7.52c0,0,9.45,1.75,9.45-6.3,0-7-8.92-6.12-8.92-6.12,0,0,1.22-8.05-6.48-8.05-6.3,0-6.12,5.42-6.12,7s-.52,2.8-1.22,2.8-2.98,1.57-2.98-8.23c0,0,1.39-.52,2.8.18,1.4.7,7.52,1.05,7.52-7.35,0-6.47-8.93-6.29-8.93-6.29,0,0,.7-2.63.7-5.6s-2.27-5.94-7.53-5.94-7.52,2.96-7.52,5.94.7,5.6.7,5.6c0,0-8.93-.18-8.93,6.29,0,8.4,6.13,8.05,7.53,7.35,1.4-.7,2.8-.18,2.8-.18,0,9.8-2.28,8.23-2.98,8.23s-1.23-1.23-1.23-2.8c0-1.57.18-7-6.13-7-7.7,0-6.47,8.05-6.47,8.05,0,0-8.93-.88-8.93,6.12,0,8.04,9.45,6.3,9.45,6.3,0,3.5,1.93,7.52,5.95,7.52s6.13-2.27,6.13-5.77c0-3.5,1.41-3.67,1.41-3.67,3.5,0,2.62,6.12,2.62,6.12-3.33,1.05-5.42,3.14-5.42,7.17,0,4.03-2.98,6.65-7.71,6.65s-8.4-4.55-11.03-14.35c-4.02-14.99-14.52-12.07-14.52-12.07-.17,5.25-2.45,5.77-2.45,5.77v15.75s-2.28,3.15-6.48,3.15-5.43-1.4-7.35-3.85c-1.93-2.45-4.9-2.8-4.9-2.8,0,0-.88-2.62-1.41-4.55-1.83-6.73,2.81-5.24,2.81-5.24,0,0,.52,8.39,7.34,7.17,6.83-1.22,4.56-8.05,4.56-8.05,5.25-.87,9.28-2.46,7.7-8.57-.9-3.5-4.09-3.97-6.65-3.74,0,0,2.1-1.63,3.04-4.07,0,0-2.34-.94-4.32-5.25,0,0,.23-1.52,4.43-1.98,4.2-.47,7.82-1.4,11.79-6.06,0,0-.93-1.63-4.9-2.11-3.97-.46-4.32-1.86-4.32-1.86,0,0,9.57-3.26,12.6-10.96,0,0-2.33-1.05-4.78-3.5,0,0-2.22,3.15-5.48,3.97-3.26.82-4.54,3.62-4.54,3.62l-2.69-4.44s-1.17,3.5-6.18,4.09c0,0-.59-5.02-3.38-7.47,0,0-3.04,1.17-4.44,2.91-1.4,1.75-3.73,1.29-3.73,1.29,0,0-2.22-12.13,4.55-16.57,0,0-.58-1.28-7.23-1.28s-14.59-5.72-14.59-14c0-3.96,1.17-9.8,7.01-12.83,0,0,1.04,1.99.93,3.38-.12,1.41.11,12.25,8.75,12.25s6.77-.11,13.88-2.33l-2.68-3.5s-12.14-.35-15.98-11.2c0,0-1.16-2.69,1.98-3.73,3.15-1.05,11.9-4.67,22.52-10.96,10.62-6.31,16.57-10.62,20.3-13.42,3.73-2.8,4.43-2.44,8.75-2.44s9.43-1.21,12.83-3.04c1.51-.82,4.67-1.28,4.67-1.28,0,0,1.63-10.84,12.02-15.28,0,0,2.22,2.1,2.8,5.36,0,0,3.03-4.2,8.75-5.83,0,0,2.56,3.85,3.74,8.52,0,0,5.37-.58,8.75,1.05,0,0,5.72-1.52,9.81-2.8,4.08-1.28,7.35-1.75,5.48,4.79-1.87,6.53-2.57,9.21-2.57,9.21,0,0,3.62.12,5.14,0,0,0-.12,2.1.82,8.98.93,6.88,1.87,11.55,1.87,11.55,0,0,4.2,4.2,7.46,8.51,3.26,4.32,3.35,14.31,2.1,15.98-.69.93-1.28.11-1.28.11,0,0,4.2,8.86,5.72,16.45,1.51,7.58-.47,11.9-2.81,12.48,0,0,.82,1.63.82,2.92l-2.57-.12s-.7,1.87,2.22,4.78c2.92,2.91,6.41,6.41,6.41,6.41l-.93,4.03h0Z"/>
      <path class="cls-1" d="M99.07,283.94s5.42-1.92,10.33-4.89c4.9-2.97,9.62-4.89,14.35-5.95,4.73-1.05,8.05-.88,10.85-.35,2.8.52,2.46.52,2.46.52l-5.6,6.3s-2.63.52-8.75,1.57c-6.12,1.06-8.4,2.63-8.4,2.63,0,0,2.1.87,5.6.7,3.5-.18,6.48-.35,6.48-.35,0,0-2.27,3.15-4.55,4.21-2.27,1.04-5.6,2.97-11.21,2.1-5.6-.87-8.75-2.45-11.54-6.48h0Z"/>
      <path class="cls-1" d="M126.88,269.25s-3.84.35-7,1.58c0,0-4.55-1.4-8.05-4.72-3.5-3.33-4.38-7.18-4.38-10.32,0,0,4.2-.18,9.1.87,4.89,1.04,9.45,2.8,11.72,4.55,2.28,1.75,4.38,5.25,4.38,5.25,0,0-.17,1.05-1.58.35-1.4-.7-4.54-2.45-7.88-3.32-3.33-.87-6.3-1.22-6.3-1.22,0,0,1.4,1.92,4.54,3.49,3.16,1.58,5.43,3.5,5.43,3.5h0Z"/>
      <path class="cls-1" d="M105.54,276.94s-5.25,4.2-14.53,2.98c-9.28-1.23-14.53-1.39-22.76-11.89,0,0,9.98-4.91,24.68-4.91s20.82,9.28,20.82,9.28l-3.32,1.05s-6.66-1.05-13.13-1.92c-6.48-.87-8.93-.7-11.9-.87-2.98-.18-3.33.7-1.23,1.22,2.1.52,10.68,1.75,14.36,2.28,3.68.52,8.05,1.92,8.05,1.92l-1.05.87h0Z"/>
      <path class="cls-1" d="M98.71,260.68s-3.32-.7-7.36-.52c0,0-5.42-2.1-7.7-9.62-2.27-7.53-.7-8.75-.7-8.75,0,0,10.15,1.58,20.65,11.55,0,0-.17,3.32.53,5.94,0,0-2.97-1.92-5.77-3.85-2.8-1.92-5.42-3.85-6.48-4.2-1.05-.35-.35.88.7,1.93,1.05,1.05,8.05,7.7,8.05,7.7l-1.92-.18h0Z"/>
      <path class="cls-1" d="M86.28,260.5s-1.39.35-5.6-1.23c-4.2-1.57-10.5-3.67-15.06-5.59-4.54-1.93-6.82-2.97-8.4-3.32-1.57-.35-2.45.52-.52,1.4,1.92.88,20.12,9.8,20.12,9.8,0,0-5.08,1.05-8.23,2.27,0,0-9.1-1.4-16.81-6.65-8.06-5.49-8.22-5.95-9.63-12.95,0,0,10.68-1.57,21.71.7,11.03,2.28,15.92,7.53,18.91,11.2,2.97,3.67,3.5,4.37,3.5,4.37h0Z"/>
      <path class="cls-1" d="M72.63,244.06s-3.33-1.22-5.77-1.75c0,0-9.8-8.39-4.73-19.59,0,0,7.88,4.37,11.91,9.45,0,0-1.06,2.63,1.22,4.54,2.28,1.93,4.02,2.98,4.02,2.98,0,0-.52,2.27-.17,4.54,0,0-5.07-5.24-7.18-7.17-2.09-1.92-4.55-4.55-4.55-4.55,0,0-1.05.53.36,2.28,1.4,1.74,6.3,8.39,7.17,9.62.88,1.22-2.28-.35-2.28-.35h0Z"/>
      <path class="cls-1" d="M51.28,241.08s-12.44,2.8-22.05-10.84c-5.43-7.7-7-10.33-6.3-15.4,0,0,14.17.52,23.45,7.34,9.28,6.83,11.9,10.85,12.6,13.13.7,2.27.53,4.19.53,4.19l-.88.53s-10.33-6.66-15.92-10.33c-5.6-3.67-6.48-4.37-7.88-5.07-1.4-.7-2.46.53,0,2.1,2.45,1.58,10.15,7.7,14,10.14,3.85,2.45,5.95,4.2,5.95,4.2h-3.5Z"/>
      <path class="cls-1" d="M32.2,212.74s-6.3-1.23-9.8-1.58c0,0-1.4-4.38-5.43-8.92-4.02-4.55-11.2-10.85-7.52-22.75,0,0,7.17,5.43,12.95,8.05,5.78,2.63,11.78,6.27,15.4,13.82,2.11,4.38,2.8,5.95,2.8,5.95,0,0-.52,4.2.18,7.35,0,0-17.33-17.32-19.78-19.78-2.45-2.45-3.85-2.97-2.45-1.04,1.4,1.93,10.85,14.87,12.6,16.79,1.75,1.93,2.46,2.45,2.46,2.45l-1.41-.35h0Z"/>
      <path class="cls-1" d="M57.93,225.34s-4.55-9.45-6.47-13.12c-1.93-3.67-3.33-4.2-2.46-1.92.87,2.27,4.9,13.47,4.9,13.47,0,0-3.33-2.5-7.18-5.07-2.1-1.4-2.8-1.92-2.8-1.92,0,0-2.79-10.32,2.45-18.54,0,0,4.72,2.97,8.58,9.97,3.85,6.99,4.72,10.32,4.72,10.32,0,0-1.4,3.85-1.74,6.82h0Z"/>
      <path class="cls-1" d="M45.51,194.36s-2.8,4.03-3.5,7c0,0-1.22,2.11-1.76-4.37-.52-6.47-1.57-12.77-1.74-14-.18-1.22-1.23-.17-1.05,1.75.18,1.93.18,10.32.18,10.32,0,0-2.62-3.14-5.6-5.59,0,0-3.33-9.45,5.6-18.55,0,0,8.06,9.8,7.88,23.44h0Z"/>
      <path class="cls-1" d="M26.08,185.1s-10.5-21.17-12.07-23.62c-1.57-2.45-2.46-2.28-1.57-.17.87,2.1,9.62,22.39,9.62,22.39,0,0-11.02-5.07-16.28-16.97-5.25-11.9-.52-20.3.7-23.1,0,0,5.43,7.7,9.45,10.5,4.03,2.8,8.05,7.7,10.85,14,2.8,6.3,2.97,7.35,2.97,7.35,0,0-1.92,5.07-1.22,11.2l-2.45-1.57h0Z"/>
      <path class="cls-1" d="M20.65,153.25s-5.08-22.04-6.13-25.54c-1.05-3.51-1.75-2.11-1.05,1.57.7,3.67,3.49,20.64,3.49,20.64,0,0-6.82-4.9-9.1-10.32-3.07-7.31-4.9-26.42,3.67-31.49,0,0,3.3,7.71,8.75,14.52,2.1,2.62,4.79,10.31,5.6,16.97.7,5.77.53,6.64.53,6.64,0,0-2.45,5.43-2.97,10.68l-2.8-3.67h0Z"/>
      <path class="cls-1" d="M30.1,168.3s-1.75-5.07-4.2-8.21c0,0-1.22-12.95,9.98-16.98,0,0,4.2,10.32,2.28,23.8,0,0-4.03,2.79-5.07,4.54,0,0-.18-12.77-.36-15.75-.17-2.97-1.05-.87-1.22,2.1-.17,2.98-.7,11.9-.7,11.9l-.7-1.4h0Z"/>
      <path class="cls-1" d="M29.05,140.31s-.17-4.55-2.1-11.02c0,0,1.39-12.08,13.29-14.52,0,0,2.63,11.9-3.15,23.09l-.7,1.05-4.2,1.75s1.76-9.45,2.28-12.77c.53-3.33-1.22-1.4-1.92,1.22-.7,2.62-3.15,12.94-3.15,12.94l-.35-1.75h0Z"/>
      <path class="cls-1" d="M20.83,117.92s-5.43-6.12-6.65-12.77c-1.23-6.65-.88-15.4,3.15-22.04,4.02-6.65,8.75-9.1,8.75-9.1,0,0,.35,8.58,2.8,13.65,2.45,5.07,3.32,8.92,3.32,16.79s-.87,9.62-.87,9.62c0,0-4.73,4.37-5.95,9.97l-1.58-2.8s-.17-23.1-.34-27.64c-.17-4.54-1.58-1.23-1.58,2.63s-1.05,21.69-1.05,21.69h0Z"/>
      <path class="cls-1" d="M32.03,87.3s-6.83-14.52-.36-25.89c6.48-11.38,15.58-14.18,15.58-14.18,0,0-.88,7.7,0,12.95.87,5.25,1.4,13.12-3.33,24.32,0,0-6.65,3.85-9.62,9.79l-.35-2.62s5.42-22.92,6.13-25.54c.7-2.63.52-4.89-1.58,1.23-2.1,6.12-5.95,20.65-5.95,20.65l-.53-.7h0Z"/>
      <path class="cls-1" d="M34.48,113.54s7-11.02,8.75-13.82c1.75-2.8-.7-1.4-2.45.7-1.75,2.1-5.78,7.35-5.78,7.35,0,0,.7-5.95-.35-10.32,0,0,7.7-11.9,17.33-8.57,0,0-1.75,12.42-8.93,21.52,0,0-4.37.88-8.57,3.15h0Z"/>
      <path class="cls-1" d="M47.78,81.35s2.8-4.73,2.8-11.2c0,0,9.97-7.52,18.56-4.19,0,0-2.11,11.02-14.7,19.94,0,0-3.68-1.22-7.18-.35,0,0,8.58-8.05,10.33-10.15,1.75-2.1,1.93-3.49-1.92,0-3.86,3.5-8.23,7-8.23,7l.35-1.04h0Z"/>
      <path class="cls-1" d="M50.23,60s-1.75-6.82.35-12.94c2.1-6.13,10.09-19.15,22.05-20.65,1.4-.18,1.4-.53,1.4-.53,0,0-2.11,4.72-2.28,8.92-.17,4.2-.7,9.8-4.38,16.97-3.67,7.18-6.47,9.63-6.47,9.63,0,0-5.95,2.27-9.81,4.72,0,0,11.73-23.27,12.61-25.36.87-2.1.17-2.8-2.1,1.22-2.27,4.03-11.2,19.07-11.2,19.07l-.17-1.05h0Z"/>
      <path class="cls-1" d="M66.51,57.91s3.33-3.68,5.08-8.4c0,0,11.2-6.65,20.12-.53,0,0-5.77,10.32-18.55,14.35,0,0-2.45-.7-8.22-.52,0,0,9.8-5.95,12.08-7.18,2.27-1.22,3.32-2.97.53-1.57-2.8,1.4-11.91,5.42-11.91,5.42l.88-1.57h0Z"/>
      <path class="cls-1" d="M74.21,38.84s.17-10.15,3.5-14.34c4.64-5.87,11.92-11.57,16.63-13.3,5.25-1.92,13.13-.35,13.13-.35,0,0-4.55,5.42-6.66,12.6-2.09,7.17-7.7,12.95-12.42,16.45-4.73,3.5-5.25,3.5-5.25,3.5,0,0-4.03-.88-8.76,1.05l-1.04.52s16.8-19.24,18.9-21.52c2.1-2.27,2.28-4.2.17-2.45-2.1,1.75-18.2,17.84-18.2,17.84h0Z"/>
      <path class="cls-1" d="M89.96,41.64s8.41-5.25,10.34-10.67c0,0,11.89-.18,16.28,6.82,0,0-8.23,9.27-21.01,9.8,0,0-2.8-2.62-5.77-3.15,0,0,12.25-4.2,14.53-4.89,2.28-.71,1.57-1.4-2.63-.35-4.2,1.05-11.73,2.45-11.73,2.45h0Z"/>
      <path class="cls-1" d="M104.84,22.22s1.05-4.38,3.33-7.88c2.28-3.5,8.4-7.35,10.15-8.05,1.74-.7,2.1-.87,2.1-.87l4.55,5.25-20.13,11.55h0Z"/>
      <path class="cls-1" d="M125.84,11.9s3.86,3.5,5.08,5.42c0,0-6.83,6.47-9.98,9.1-3.15,2.62-8.58,4.02-8.58,4.02,0,0-3.15-2.62-9.62-2.27l23.1-16.27h0Z"/>
      <path class="cls-1" d="M122.16,28.86s4.9-3.5,6.65-5.59c1.75-2.1,3.32-3.15,3.32-3.15l3.16,2.45s-1.05,4.37-3.85,8.92l-9.28-2.62h0Z"/>
      <path class="cls-1" d="M129.87,33.24s-.87,4.37-6.82,4.37c-2.28,0-2.46.18-2.46.18,0,0-1.22-3.15-4.72-5.24l3.5-1.4,10.5,2.1h0Z"/>
      <path class="cls-1" d="M196.73,283.94s-5.43-1.92-10.33-4.89c-4.9-2.97-9.63-4.89-14.35-5.95-4.73-1.05-8.05-.88-10.85-.35-2.8.52-2.45.52-2.45.52l5.61,6.3s2.62.52,8.76,1.57c6.12,1.06,8.4,2.63,8.4,2.63,0,0-2.11.87-5.6.7-3.5-.18-6.48-.35-6.48-.35,0,0,2.27,3.15,4.55,4.21,2.27,1.04,5.6,2.97,11.2,2.1,5.6-.87,8.75-2.45,11.55-6.48h0Z"/>
      <path class="cls-1" d="M168.9,269.25s3.85.35,7,1.58c0,0,4.55-1.4,8.05-4.72,3.5-3.33,4.37-7.18,4.37-10.32,0,0-4.2-.18-9.1.87-4.89,1.04-9.45,2.8-11.72,4.55-2.28,1.75-4.37,5.25-4.37,5.25,0,0,.17,1.05,1.57.35,1.4-.7,4.56-2.45,7.88-3.32,3.32-.87,6.3-1.22,6.3-1.22,0,0-1.4,1.92-4.55,3.49-3.15,1.58-5.43,3.5-5.43,3.5h0Z"/>
      <path class="cls-1" d="M190.25,276.94s5.25,4.2,14.53,2.98c9.27-1.23,14.53-1.39,22.75-11.89,0,0-9.97-4.91-24.68-4.91s-20.83,9.28-20.83,9.28l3.32,1.05s6.65-1.05,13.13-1.92c6.47-.87,8.93-.7,11.9-.87,2.97-.18,3.33.7,1.22,1.22-2.1.52-10.68,1.75-14.35,2.28-3.68.52-8.06,1.92-8.06,1.92l1.06.87h0Z"/>
      <path class="cls-1" d="M197.08,260.68s3.32-.7,7.34-.52c0,0,5.43-2.1,7.71-9.62,2.27-7.53.7-8.75.7-8.75,0,0-10.15,1.58-20.66,11.55,0,0,.18,3.32-.52,5.94,0,0,2.98-1.92,5.77-3.85,2.8-1.92,5.43-3.85,6.47-4.2,1.05-.35.35.88-.7,1.93-1.05,1.05-8.05,7.7-8.05,7.7l1.93-.18h0Z"/>
      <path class="cls-1" d="M209.5,260.5s1.4.35,5.6-1.23c4.2-1.57,10.5-3.67,15.06-5.59,4.55-1.93,6.82-2.97,8.39-3.32,1.58-.35,2.45.52.53,1.4-1.93.88-20.13,9.8-20.13,9.8,0,0,5.08,1.05,8.23,2.27,0,0,9.1-1.4,16.8-6.65,8.07-5.49,8.23-5.95,9.63-12.95,0,0-10.67-1.57-21.7.7-11.02,2.28-15.93,7.53-18.9,11.2-2.98,3.67-3.5,4.37-3.5,4.37h0Z"/>
      <path class="cls-1" d="M223.15,244.06s3.33-1.22,5.78-1.75c0,0,9.81-8.39,4.73-19.59,0,0-7.88,4.37-11.9,9.45,0,0,1.05,2.63-1.23,4.54-2.27,1.93-4.03,2.98-4.03,2.98,0,0,.53,2.27.18,4.54,0,0,5.08-5.24,7.18-7.17,2.1-1.92,4.55-4.55,4.55-4.55,0,0,1.05.53-.35,2.28-1.4,1.74-6.3,8.39-7.17,9.62-.88,1.22,2.27-.35,2.27-.35h0Z"/>
      <path class="cls-1" d="M244.5,241.08s12.44,2.8,22.06-10.84c5.42-7.7,7-10.33,6.3-15.4,0,0-14.18.52-23.45,7.34-9.28,6.83-11.9,10.85-12.6,13.13-.71,2.27-.53,4.19-.53,4.19l.87.53s10.33-6.66,15.93-10.33c5.6-3.67,6.48-4.37,7.88-5.07,1.4-.7,2.45.53,0,2.1-2.45,1.58-10.16,7.7-14.01,10.14-3.85,2.45-5.95,4.2-5.95,4.2h3.5Z"/>
      <path class="cls-1" d="M263.59,212.74s6.29-1.23,9.8-1.58c0,0,1.4-4.38,5.42-8.92,4.02-4.55,11.2-10.85,7.53-22.75,0,0-7.18,5.43-12.95,8.05-5.78,2.63-11.78,6.27-15.41,13.82-2.1,4.38-2.8,5.95-2.8,5.95,0,0,.52,4.2-.17,7.35,0,0,17.33-17.32,19.78-19.78,2.45-2.45,3.85-2.97,2.45-1.04-1.39,1.93-10.84,14.87-12.6,16.79-1.75,1.93-2.45,2.45-2.45,2.45l1.41-.35h0Z"/>
      <path class="cls-1" d="M237.85,225.34s4.55-9.45,6.48-13.12c1.92-3.67,3.32-4.2,2.44-1.92-.88,2.27-4.89,13.47-4.89,13.47,0,0,3.32-2.5,7.17-5.07,2.1-1.4,2.8-1.92,2.8-1.92,0,0,2.8-10.32-2.45-18.54,0,0-4.72,2.97-8.57,9.97-3.85,6.99-4.73,10.32-4.73,10.32,0,0,1.41,3.85,1.75,6.82h0Z"/>
      <path class="cls-1" d="M250.29,194.36s2.8,4.03,3.5,7c0,0,1.23,2.11,1.75-4.37.52-6.47,1.57-12.77,1.74-14,.18-1.22,1.23-.17,1.06,1.75-.18,1.93-.18,10.32-.18,10.32,0,0,2.63-3.14,5.61-5.59,0,0,3.32-9.45-5.61-18.55,0,0-8.05,9.8-7.87,23.44h0Z"/>
      <path class="cls-1" d="M269.72,185.1s10.5-21.17,12.07-23.62c1.57-2.45,2.45-2.28,1.57-.17-.87,2.1-9.63,22.39-9.63,22.39,0,0,11.03-5.07,16.28-16.97,5.24-11.9.52-20.3-.7-23.1,0,0-5.42,7.7-9.45,10.5-4.02,2.8-8.05,7.7-10.85,14-2.8,6.3-2.97,7.35-2.97,7.35,0,0,1.92,5.07,1.23,11.2l2.45-1.57h0Z"/>
      <path class="cls-1" d="M275.13,153.25s5.08-22.04,6.12-25.54c1.05-3.51,1.76-2.11,1.05,1.57-.7,3.67-3.5,20.64-3.5,20.64,0,0,6.83-4.9,9.1-10.32,3.07-7.31,4.9-26.42-3.67-31.49,0,0-3.3,7.71-8.75,14.52-2.09,2.62-4.79,10.31-5.6,16.97-.69,5.77-.52,6.64-.52,6.64,0,0,2.45,5.43,2.98,10.68l2.8-3.67h0Z"/>
      <path class="cls-1" d="M265.68,168.3s1.74-5.07,4.2-8.21c0,0,1.23-12.95-9.97-16.98,0,0-4.2,10.32-2.27,23.8,0,0,4.02,2.79,5.07,4.54,0,0,.17-12.77.35-15.75.18-2.97,1.05-.87,1.23,2.1.17,2.98.69,11.9.69,11.9l.7-1.4h0Z"/>
      <path class="cls-1" d="M266.73,140.31s.17-4.55,2.1-11.02c0,0-1.41-12.08-13.3-14.52,0,0-2.63,11.9,3.15,23.09l.7,1.05,4.21,1.75s-1.75-9.45-2.28-12.77c-.52-3.33,1.23-1.4,1.93,1.22.7,2.62,3.16,12.94,3.16,12.94l.34-1.75h0Z"/>
      <path class="cls-1" d="M274.96,117.92s5.42-6.12,6.65-12.77c1.22-6.65.88-15.4-3.16-22.04-4.03-6.65-8.74-9.1-8.74-9.1,0,0-.36,8.58-2.81,13.65-2.45,5.07-3.32,8.92-3.32,16.79s.87,9.62.87,9.62c0,0,4.73,4.37,5.95,9.97l1.58-2.8s.17-23.1.35-27.64c.17-4.54,1.57-1.23,1.57,2.63,0,3.85,1.06,21.69,1.06,21.69h0Z"/>
      <path class="cls-1" d="M263.76,87.3s6.82-14.52.34-25.89c-6.47-11.38-15.57-14.18-15.57-14.18,0,0,.87,7.7,0,12.95-.88,5.25-1.41,13.12,3.32,24.32,0,0,6.65,3.85,9.63,9.79l.36-2.62s-5.43-22.92-6.13-25.54c-.7-2.63-.52-4.89,1.57,1.23,2.1,6.12,5.96,20.65,5.96,20.65l.53-.7h0Z"/>
      <path class="cls-1" d="M261.31,113.54s-7-11.02-8.75-13.82c-1.75-2.8.7-1.4,2.45.7,1.75,2.1,5.77,7.35,5.77,7.35,0,0-.69-5.95.35-10.32,0,0-7.71-11.9-17.33-8.57,0,0,1.75,12.42,8.93,21.52,0,0,4.38.88,8.57,3.15h0Z"/>
      <path class="cls-1" d="M248,81.35s-2.8-4.73-2.8-11.2c0,0-9.98-7.52-18.55-4.19,0,0,2.1,11.02,14.71,19.94,0,0,3.67-1.22,7.18-.35,0,0-8.57-8.05-10.33-10.15-1.75-2.1-1.93-3.49,1.92,0,3.85,3.5,8.22,7,8.22,7l-.35-1.04h0Z"/>
      <path class="cls-1" d="M245.56,60s1.74-6.82-.35-12.94c-2.1-6.13-10.09-19.15-22.06-20.65-1.4-.18-1.4-.53-1.4-.53,0,0,2.1,4.72,2.28,8.92.17,4.2.7,9.8,4.37,16.97,3.68,7.18,6.48,9.63,6.48,9.63,0,0,5.96,2.27,9.81,4.72,0,0-11.73-23.27-12.61-25.36-.88-2.1-.18-2.8,2.1,1.22,2.28,4.03,11.21,19.07,11.21,19.07l.17-1.05h0Z"/>
      <path class="cls-1" d="M229.28,57.91s-3.32-3.68-5.07-8.4c0,0-11.2-6.65-20.13-.53,0,0,5.77,10.32,18.56,14.35,0,0,2.44-.7,8.22-.52,0,0-9.8-5.95-12.07-7.18-2.28-1.22-3.33-2.97-.53-1.57,2.8,1.4,11.9,5.42,11.9,5.42l-.88-1.57h0Z"/>
      <path class="cls-1" d="M221.58,38.84s-.18-10.15-3.5-14.34c-4.64-5.87-11.92-11.57-16.63-13.3-5.25-1.92-13.12-.35-13.12-.35,0,0,4.55,5.42,6.65,12.6,2.11,7.17,7.71,12.95,12.43,16.45,4.73,3.5,5.25,3.5,5.25,3.5,0,0,4.02-.88,8.75,1.05l1.05.52s-16.8-19.24-18.91-21.52c-2.1-2.27-2.27-4.2-.18-2.45,2.1,1.75,18.21,17.84,18.21,17.84h0Z"/>
      <path class="cls-1" d="M205.82,41.64s-8.4-5.25-10.32-10.67c0,0-11.9-.18-16.29,6.82,0,0,8.23,9.27,21,9.8,0,0,2.81-2.62,5.78-3.15,0,0-12.26-4.2-14.53-4.89-2.28-.71-1.57-1.4,2.63-.35,4.21,1.05,11.72,2.45,11.72,2.45h0Z"/>
      <path class="cls-1" d="M190.95,22.22s-1.05-4.38-3.33-7.88c-2.28-3.5-8.4-7.35-10.15-8.05-1.75-.7-2.1-.87-2.1-.87l-4.56,5.25,20.13,11.55h0Z"/>
      <path class="cls-1" d="M169.95,11.9s-3.85,3.5-5.07,5.42c0,0,6.82,6.47,9.97,9.1,3.15,2.62,8.58,4.02,8.58,4.02,0,0,3.15-2.62,9.63-2.27l-23.1-16.27h0Z"/>
      <path class="cls-1" d="M173.63,28.86s-4.9-3.5-6.66-5.59c-1.75-2.1-3.33-3.15-3.33-3.15l-3.15,2.45s1.06,4.37,3.85,8.92l9.28-2.62h0Z"/>
      <path class="cls-1" d="M165.92,33.24s.88,4.37,6.83,4.37c2.27,0,2.45.18,2.45.18,0,0,1.23-3.15,4.72-5.24l-3.49-1.4-10.51,2.1h0Z"/>
      <path class="cls-1" d="M118.66,293.74s8.05-2.27,15.05-11.37c7-9.1,11.02-16.63,14.88-19.6,3.85-2.97,11.9-8.04,20.83-5.77,0,0-6.82,2.62-10.16,10.5-3.32,7.88-8.92,18.55-13.29,22.4-5.42,4.77-18.38,8.22-27.31,3.85h0Z"/>
      <path class="cls-1" d="M138.91,270.47s-5.13-9.56-12.13-13.53c0,0,8.05-3.04,19.49,3.85,0,0-4.2,3.03-7.36,9.68h0Z"/>
      <path class="cls-1" d="M152.33,287.04s3.38-3.96,5.48-10.15c0,0,7.2,8.44,13.42,13.07,4.55,3.38,7,3.14,7,3.14,0,0-.35,2.57-8.99,2.57s-11.79-.59-19.37-5.02l2.45-3.61h0Z"/>
      <path class="cls-1" d="M126.42,39.19s4.79.35,8.05-7.58c3.27-7.93,7.33-18.58,13.77-24.5,1.4-1.28,5.83-3.96,12.02-4.9,5.48-.82,12.36,1.87,12.36,1.87,0,0-4.79,6.88-10.61,13.18-5.84,6.3-12.13,13.41-18.09,17.61-5.95,4.2-9.22,6.42-17.5,4.32h0Z"/>
      <path class="cls-1" d="M136.81,19.83l-13.77-15.4s2.79-2.33,9.1-2.33,13.42,3.73,13.42,3.73c0,0-3.61,3.38-5.6,7.11-2.29,4.3-3.14,6.88-3.14,6.88h0Z"/>
      <path class="cls-1" d="M147.89,34.64s7.24-5.49,10.51-9.79c0,0,2.8,12.24,11.2,14.46,0,0-.58.93-4.31.93s-7.01-.35-17.4-5.59h0Z"/>
      <path class="cls-1" d="M147.89,243.71s50.94-.17,50.94-4.37-50.94-4.02-50.94-4.02c0,0-50.92-.18-50.92,4.02s50.92,4.37,50.92,4.37h0Z"/>
      <path class="cls-1" d="M147.89,232.86c37.64,0,57.07,2.59,63.19,3.33,0,0,2.62.52,4.72.17,2.1-.36,3.74-2.82,3.15-4.38-1.05-2.79-4.02-3.49-4.02-3.49,0,0-13.3-2.1-67.04-2.1s-67.02,2.1-67.02,2.1c0,0-2.98.7-4.03,3.49-.59,1.56,1.05,4.02,3.15,4.38,2.1.35,4.72-.17,4.72-.17,6.13-.73,25.56-3.33,63.18-3.33h0Z"/>
      <path class="cls-1" d="M147.89,224.64s35.71.18,66.87,1.93l3.85-22.04s-14.18,12.25-34.48,3.85c0,0-4.73,5.07-17.51,5.07s-18.73-5.77-18.73-5.77c0,0-5.94,5.77-18.72,5.77s-17.5-5.07-17.5-5.07c-20.3,8.39-34.48-3.85-34.48-3.85l3.85,22.04c31.15-1.75,66.85-1.93,66.85-1.93h0Z"/>
      <path class="cls-1" d="M147.89,205.51c9.11,7,18.91,6.3,18.91,6.3,12.49,0,16.92-5.49,16.92-5.49,0,0,5.95,3.5,14.12,3.5,12.37,0,21.59-8.04,21.59-8.04l11.67-39.66s1.64-6.65-2.8-8.16c-4.44-1.52-7.94,5.95-7.7,9.22,0,0-6.88-2.41-8.4,3.14-1.05,3.85,4.31,5.36,6.42,5.36l2.1-.7s3.03,12.95-8.05,11.55l-.93-.47s3.27-7.93-1.52-9.8c-4.79-1.86-6.77,6.88-6.77,6.88,0,0-8.28-3.5-9.33,2.09-1.05,5.6,5.25,5.95,7.58,6.07,0,0-1.75,6.88,3.04,7.7,4.78.82,6.07-4.89,5.95-7.12,0,0,8.27-1.17,6.08,6.54-1.41,4.9-1.98,6.41-1.98,6.41,0,0-2.45-.23-4.67,2.22-2.22,2.45-3.26,4.78-8.99,4.78s-7.58-3.15-8.39-4.55v-18.08s-.36-.59-.59-1.98c0,0-5.48-.93-8.63,2.92-3.14,3.84-4.09,7.7-5.6,12.59-1.52,4.9-4.67,10.85-11.55,10.85s-9.23-4.43-9.23-8.4-3.49-5.02-5.02-5.72v-4.31c0-1.87.71-5.25,4.32-5.25,1.75,0,2.8,4.08,2.8,5.48s.24,4.31,4.08,4.31,4.79-3.85,4.79-7.46h4.08c2.1,0,5.14-1.05,5.14-4.67s-3.16-4.43-4.78-4.43h-3.86s.82-8.05-4.78-8.05-4.67,5.59-4.67,6.99-1.05,2.91-2.57,2.91-5.25,1.17-5.25-11.78c0,0,.69-.58,2.68-.58s2.57,1.16,4.32,1.16,3.38-1.86,3.38-5.48-3.15-5.37-8.17-4.55c0,0-1.05-.23-.58-2.09.46-1.87,2.68-9.92-5.15-9.92s-5.59,8.05-5.13,9.92c.47,1.86-.58,2.09-.58,2.09-5.02-.82-8.16.93-8.16,4.55s1.63,5.48,3.37,5.48,2.34-1.16,4.32-1.16,2.68.58,2.68.58c0,12.95-3.73,11.78-5.25,11.78s-2.57-1.51-2.57-2.91.94-6.99-4.67-6.99-4.79,8.05-4.79,8.05h-3.85c-1.63,0-4.78.81-4.78,4.43s3.03,4.67,5.13,4.67h4.08c0,3.61.93,7.46,4.79,7.46s4.08-2.91,4.08-4.31,1.05-5.48,2.8-5.48c3.62,0,4.32,3.39,4.32,5.25v4.31c-1.51.7-5.02,1.75-5.02,5.72s-2.33,8.4-9.21,8.4-10.04-5.95-11.56-10.85c-1.52-4.89-2.45-8.75-5.6-12.59-3.16-3.85-8.64-2.92-8.64-2.92-.23,1.4-.58,1.98-.58,1.98v18.08c-.81,1.4-2.69,4.55-8.4,4.55s-6.77-2.33-8.99-4.78c-2.22-2.45-4.67-2.22-4.67-2.22,0,0-.59-1.51-1.98-6.41-2.2-7.71,6.07-6.54,6.07-6.54-.12,2.22,1.17,7.94,5.95,7.12,4.78-.82,3.03-7.7,3.03-7.7,2.33-.12,8.64-.47,7.58-6.07-1.05-5.59-9.34-2.09-9.34-2.09,0,0-1.98-8.75-6.76-6.88-4.78,1.87-1.52,9.8-1.52,9.8l-.93.47c-11.09,1.4-8.05-11.55-8.05-11.55l2.09.7c2.1,0,7.47-1.51,6.42-5.36-1.51-5.56-8.4-3.14-8.4-3.14.24-3.27-3.27-10.73-7.7-9.22-4.43,1.52-2.8,8.16-2.8,8.16l11.67,39.66s9.22,8.04,21.58,8.04c8.17,0,14.12-3.5,14.12-3.5,0,0,4.44,5.49,16.92,5.49,0,0,9.8.7,18.89-6.3h0Z"/>
      <polygon class="cls-5" points="176.66 223.27 177.01 214.06 193.8 214.7 193.45 223.9 176.66 223.27 176.66 223.27"/>
      <polygon class="cls-5" points="119.13 223.27 118.77 214.06 101.98 214.7 102.34 223.9 119.13 223.27 119.13 223.27"/>
      <polygon class="cls-5" points="147.89 223.35 137.51 217.52 147.89 210.99 158.27 217.52 147.89 223.35 147.89 223.35"/>
      <polygon class="cls-4" points="147.89 221.25 140.98 217.47 147.89 213.09 154.81 217.47 147.89 221.25 147.89 221.25"/>
      <polygon class="cls-5" points="83.84 237.06 88.74 226.74 86.81 226.74 81.91 237.06 83.84 237.06 83.84 237.06"/>
      <polygon class="cls-5" points="77.88 236.19 81.87 227.43 79.94 227.43 75.96 236.19 77.88 236.19 77.88 236.19"/>
      <polygon class="cls-5" points="90.23 237.06 95.12 226.74 93.2 226.74 88.3 237.06 90.23 237.06 90.23 237.06"/>
      <polygon class="cls-5" points="96.43 237.06 101.33 226.74 99.41 226.74 94.52 237.06 96.43 237.06 96.43 237.06"/>
      <polygon class="cls-5" points="102.74 236.36 107.64 226.04 105.71 226.04 100.81 236.36 102.74 236.36 102.74 236.36"/>
      <polygon class="cls-5" points="110 234.61 114.2 226.04 112.28 226.04 108.08 234.61 110 234.61 110 234.61"/>
      <polygon class="cls-5" points="115.69 234.44 119.71 226.04 117.79 226.04 113.77 234.44 115.69 234.44 115.69 234.44"/>
      <polygon class="cls-5" points="121.82 234.44 125.84 226.04 123.91 226.04 119.89 234.44 121.82 234.44 121.82 234.44"/>
      <polygon class="cls-5" points="128.2 234.44 132.23 226.04 130.31 226.04 126.28 234.44 128.2 234.44 128.2 234.44"/>
      <polygon class="cls-5" points="134.68 234.44 138.7 226.04 136.78 226.04 132.75 234.44 134.68 234.44 134.68 234.44"/>
      <polygon class="cls-5" points="141.15 234.44 145.18 226.04 143.26 226.04 139.23 234.44 141.15 234.44 141.15 234.44"/>
      <polygon class="cls-5" points="147.28 234.44 151.31 226.04 149.38 226.04 145.36 234.44 147.28 234.44 147.28 234.44"/>
      <polygon class="cls-5" points="153.62 234.44 157.66 226.04 155.73 226.04 151.7 234.44 153.62 234.44 153.62 234.44"/>
      <polygon class="cls-5" points="160.06 234.44 164.08 226.04 162.16 226.04 158.13 234.44 160.06 234.44 160.06 234.44"/>
      <polygon class="cls-5" points="166.4 234.44 170.43 226.04 168.5 226.04 164.47 234.44 166.4 234.44 166.4 234.44"/>
      <polygon class="cls-5" points="172.88 234.44 176.9 226.04 174.98 226.04 170.95 234.44 172.88 234.44 172.88 234.44"/>
      <polygon class="cls-5" points="179.35 234.44 183.38 226.04 181.46 226.04 177.43 234.44 179.35 234.44 179.35 234.44"/>
      <polygon class="cls-5" points="185.53 234.44 189.54 226.04 187.62 226.04 183.6 234.44 185.53 234.44 185.53 234.44"/>
      <polygon class="cls-5" points="191.91 234.44 195.94 226.04 194.01 226.04 189.98 234.44 191.91 234.44 191.91 234.44"/>
      <polygon class="cls-5" points="197.52 235.13 201.54 226.74 199.61 226.74 195.59 235.13 197.52 235.13 197.52 235.13"/>
      <polygon class="cls-5" points="203.07 236.53 207.8 226.74 205.87 226.74 201.15 236.53 203.07 236.53 203.07 236.53"/>
      <polygon class="cls-5" points="209.06 236.53 213.79 226.74 211.87 226.74 207.14 236.53 209.06 236.53 209.06 236.53"/>
      <polygon class="cls-5" points="214.4 237.58 218.6 228.84 216.67 228.84 212.48 237.58 214.4 237.58 214.4 237.58"/>
      <polygon class="cls-2" points="178.4 221.86 178.63 215.64 191.98 216.15 191.75 222.36 178.4 221.86 178.4 221.86"/>
      <polygon class="cls-2" points="117.39 221.86 117.16 215.64 103.81 216.15 104.05 222.36 117.39 221.86 117.39 221.86"/>
      <path class="cls-7" d="M140.37,152.07c0,2.98.7,5.6.7,5.6,0,0-8.93-.18-8.93,6.29,0,8.4,6.13,8.05,7.53,7.36,1.4-.7,2.8-.18,2.8-.18,0,9.8-2.28,8.22-2.98,8.22s-1.23-1.23-1.23-2.79c0-1.58.18-7-6.13-7-7.7,0-6.47,8.05-6.47,8.05,0,0-8.93-.88-8.93,6.12,0,8.05,9.45,6.3,9.45,6.3,0,3.49,1.93,7.53,5.95,7.53s6.13-2.28,6.13-5.78c0-3.5,1.41-3.67,1.41-3.67,3.5,0,2.62,6.12,2.62,6.12-3.33,1.05-5.42,3.15-5.42,7.17,0,4.03-2.98,6.65-7.71,6.65s-8.4-4.55-11.03-14.35c-4.02-15-14.52-12.07-14.52-12.07-.17,5.26-2.45,5.78-2.45,5.78v15.74s-2.28,3.15-6.48,3.15-5.43-1.41-7.35-3.85c-1.93-2.45-4.9-2.8-4.9-2.8,0,0-.88-2.62-1.41-4.55-1.83-6.72,2.81-5.24,2.81-5.24,0,0,.52,8.4,7.34,7.17,6.83-1.22,4.56-8.04,4.56-8.04,5.25-.87,9.28-2.45,7.7-8.58,0,0-.52-2.4-2.71-3.28,0,0,2.97-1.92,3.23-6.29,0,0-1.93,0-3.32-2.46,0,0,4.63.27,9.28-3.67,4.64-3.94,8.22-7.01,8.22-7.01,0,0-2.01-1.66-4.81-1.84-2.8-.17-3.85-.26-4.72-.96,0,0,5.95-2.45,7.78-7,0,0,1.66,1.49,3.67-1.58,2.02-3.06,2.55-4.98,2.55-4.98,0,0,1.92.87,2.27.96.35.09,2.27-.79,2.98-2.27.7-1.49,1.93-3.07,2.27-5.95.35-2.89-1.4-4.2-1.4-4.2,0,0-1.93.88-1.75,2.28.17,1.39,0,4.89-2.1,6.21,0,0-1.57.27-2.63-2.36,0,0-.96,1.84-2.88.17,0,0-1.4,3.85-2.89,4.91,0,0-3.64.6-6.47-5.08,0,0-.96,2.98-3.5,4.2-2.54,1.22-4.29,1.31-5.25,3.15l-3.15-5.95s-.53,4.55-4.63,6.56c0,0,0-3.59-4.73-7.08,0,0-3.07.6-4.2,2.09-1.14,1.49-2.01,1.66-2.01,1.66,0,0-.44-6.21,3.06-8.84,3.5-2.62,4.02-1.14,6.74-1.66,2.71-.53,4.46-2.01,12.33-3.32,7.88-1.32,14.44-1.49,20.04-3.5,5.61-2.01,12.43-3.5,12.43-11.2s-5.08-11.89-7.09-13.21c-2.01-1.31-7.96-1.75-13.91.79-5.95,2.54-11.38,4.97-16.1,6.91-1.49.61-2.54,1.49-5.25,1.57-2.71.1-9.36-.78-13.57-4.98-1.14-1.14-2.54-2.71-3.15-4.11-.61-1.4.18-2.19,2.19-2.71,0,0,1.75,4.2,3.67,5.77,1.93,1.57,3.32.35,4.38-1.84,1.05-2.19,2.1-5.16,2.1-7.97,0,0,10.59-5.59,17.94-10.41,7.35-4.81,11.11-6.82,16.54-8.66,5.43-1.83,6.13-1.93,10.76-3.15,4.64-1.22,3.85-1.31,7.61-2.62,3.76-1.31,6.3-2.36,11.46-2.36s6.74,2.1,6.74,2.1c0,0-3.06,5.07-2.44,13.73.61,8.66.87,14.18.87,14.18,0,0-1.75,1.05-3.85-.88,0,0-1.23,3.59-.44,7.18,0,0-1.84.79-3.76-.53,0,0-1.57,3.24-.52,8.23,0,0-1.84,1.22-4.12-.09,0,0-.79,2.89-.08,5.68,0,0-2.81.53-4.99-1.84,0,0-2.26,1.77-3.24,10.59-.18,1.57-.96,1.66-2.45,4.46-1.5,2.8-3.41,5.16-3.85,11.02-.44,5.86,0,6.65,0,6.65,0,0,5.6-.09,8.23-5.25,0,0,2.42.73,4.63,5.86,0,0-5.07,1.26-5.07,5.82h0Z"/>
      <path class="cls-7" d="M171.61,177.59c-.89-.04-1.49.03-1.49.03,0,0,1.22-8.05-6.48-8.05-6.3,0-6.12,5.42-6.12,7s-.52,2.79-1.22,2.79-2.98,1.58-2.98-8.22c0,0,1.39-.52,2.8.18,1.4.69,7.52,1.05,7.52-7.36,0-6.47-8.93-6.29-8.93-6.29,0,0,.7-2.63.7-5.6,0-.69-.12-1.38-.37-2.04,0,0,4.52-.85,7.32-6.34,0,0,.94,3.15,3.16,4.31,0,0-1.41,12.6,2.22,17.61,0,0,2.1.7,4.43-1.17,0,0-.47,4.31,1.75,8.74l-2.31,4.4h0Z"/>
      <path class="cls-7" d="M196.55,176.73s-3.62.21-4.2,3.69c-1.04,6.24,2.45,7.71,7.7,8.58,0,0-2.27,6.82,4.55,8.04,6.83,1.23,7.35-7.17,7.35-7.17,0,0,4.63-1.48,2.8,5.24-.53,1.93-1.41,4.55-1.41,4.55,0,0-2.97.36-4.9,2.8-1.92,2.45-3.15,3.85-7.35,3.85s-6.47-3.15-6.47-3.15v-15.74s-2.28-.52-2.46-5.78c0,0-10.51-2.93-14.53,12.07-2.62,9.8-6.3,14.35-11.03,14.35s-7.7-2.63-7.7-6.65-2.11-6.13-5.42-7.17c0,0-.87-6.12,2.63-6.12,0,0,1.4.17,1.4,3.67s2.1,5.78,6.12,5.78,5.95-4.03,5.95-7.53c0,0,9.45,1.75,9.45-6.3,0-2.59-1.22-4.11-2.77-4.98l.43-3.69s6.07-1.16,12.61-8.75c0,0,.6,4.85,7.23,10.41h0Z"/>
      <path class="cls-7" d="M219.3,161s-8.4-.7-8.92,4.9c-.53,5.6,2.97,7.35,6.12,7.35s3.16.17,3.16.17c0,0,.7,8.22-5.95,7.53,0,0,2.63-8.75-2.98-9.98-5.59-1.22-7.35,3.15-8.22,6.48,0,0-1.49-.55-3.33-.75l-1.22-2.33s8.52-10.15,11.2-23.8l10.15,10.43h0Z"/>
      <path class="cls-7" d="M176.37,172.38s-2.22-2.91-1.75-9.21c0,0,2.23-.82,3.39-3.39,0,0,.35,5.71,4.91,7.81,0,0-1.06,3.04-6.54,4.78h0Z"/>
      <path class="cls-7" d="M196.08,171.45s-3.5-1.51-4.2-7.23c0,0,3.85-2.79,4.79-7.93,0,0,1.75,3.73,5.02,5.48,0,0-1.28,6.07-5.6,9.68h0Z"/>
      <path class="cls-7" d="M168.43,145.91s-1.4,10.73.59,16.56c0,0,5.95-1.16,8.62-6.65,2.69-5.48,1.87-6.41,1.87-6.41,0,0,.35,8.51,2.45,12.02,2.1,3.49,3.27,3.85,3.27,3.85,0,0,3.96.46,6.19-7.47,2.22-7.93,1.63-12.12.58-19.01,0,0,2.68,2.57,3.73,8.28,1.05,5.72,4.09,9.33,7.12,10.62,0,0,2.57-3.27,1.28-10.38-1.28-7.12-2.45-11.32-3.97-14.93-1.52-3.61-.7-4.43-.7-4.43,0,0,1.04.7,3.96,5.48,2.92,4.78,7.47,7.35,7.47,7.35,0,0,3.62-1.64,2.22-8.98-1.4-7.35-4.55-14.71-8.17-19.95-3.62-5.25-4.44-6.41-4.44-6.41,0,0,1.28-.81,3.16.7,1.86,1.52,3.27,3.38,5.83,3.73,0,0,.58-6.77-3.74-12.02-4.32-5.25-6.88-7.12-10.97-8.39,0,0-1.05-1.99,1.06-1.63,2.1.35,3.03.12,3.03.12,0,0-1.17-4.55-1.75-9.92-.58-5.36-.47-6.41-.47-6.41h-3.39s-3.03,13.36-4.77,24.72c-1.64,10.62-2.91,12.6-4.33,13.07,0,0,1.51,2.68,1.51,8.86s-1.16,8.51-1.98,9.56c0,0-1.87.7-4.32-2.33,0,0,.24,9.1-4.66,13.53,0,0-2.45-.12-3.38-1.98,0,0-1.05,1.05-1.63,3.73-.59,2.68-1.28,5.13-1.28,5.13h0Z"/>
      <path class="cls-7" d="M135.53,141.13s-1.17-6.06,2.57-10.5c3.74-4.44,3.15-4.9,3.15-4.9,0,0,.46-6.19,1.63-8.4,0,0,2.46,1.75,6.66.58,0,0,.7-.82.47-2.21-.24-1.41-.24-3.5-.24-3.5,0,0,3.04,1.4,5.13-.94,0,0-2.09-2.8-1.16-6.77,0,0,3.61.71,5.59-.82,0,0-1.4-1.16-1.05-5.36,0,0,2.81,1.63,5.26-.58,0,0-1.76-8.63-1.76-18.2s2.68-13.29,5.13-15.75c2.45-2.45,6.31-4.54,9.46-4.31,3.15.24,3.15.58,3.15.58,0,0-6.19,2.33-8.64,10.38-2.45,8.05-3.38,14.46-2.56,21.81.81,7.34,1.75,7.24,1.75,7.24,0,0,.58-.82.22-6.77-.34-5.95-.55-12.24,2.46-21.46,1.86-5.72,6.65-9.57,12.48-11.67,5.84-2.1,8.17-3.15,8.98-3.27.82-.12.47.58-.81,6.42-1.28,5.83-4.79,16.56-6.42,27.18-1.64,10.61-1.64,13.64-3.03,15.05-1.4,1.39-1.75,2.33-3.61,1.27,0,0,1.16,3.04,1.74,6.19.58,3.15,1.4,7.47.7,11.43,0,0-4.54-1.51-5.36-7.47,0,0-.93,5.25-.82,9.45.11,4.2-2.69,8.98-2.69,8.98,0,0-1.87-1.4-2.92-5.95-1.05-4.55-1.75-6.53-3.16-7.7,0,0-1.17,2.56-.7,6.88.47,4.31.24,7.58-.35,10.85-.58,3.27-.93,4.2-.93,4.2,0,0-2.11-.82-3.62-4.9,0,0-2.22,1.52-2.92,3.62-.7,2.09-1.98,4.08-3.61,4.42,0,0-2.33-2.09-2.22-5.82,0,0-3.15,1.63-5.48,3.96,0,0-.58-2.45-2.57-4.2-1.98-1.75-2.33-2.92-3.26-4.9,0,0-.82.12-2.45,2.34-1.31,1.78-2.34,3.15-4.2,3.5h0Z"/>
      <path class="cls-7" d="M149.64,62.75s.58-6.88,6.66-9.8c0,0,1.75,2.34,2.44,5.95,0,0,5.26-5.36,8.4-6.88,0,0,1.76,1.63,2.46,5.48,0,0-5.25,2.8-6.65,6.41,0,0-1.88-1.06-5.49-1.4-3.73-.35-7.82.24-7.82.24h0Z"/>
      <path class="cls-5" d="M128.87,87.24c-3.5-1.99-3.97-2.1-3.61-4.55.35-2.45.47-3.38.23-4.32-.23-.93.59-1.52,3.62-1.05,3.03.46,10.38,1.17,15.75.82,0,0,1.16,1.75-.7,2.21-1.87.47-5.72,2.1-7.47,2.8-1.76.7-1.4,2.22-1.87,3.62-.47,1.4-1.63,2.92-1.63,2.92l-4.32-2.45h0Z"/>
      <path class="cls-6" d="M67.86,105.08s0,3.15,1.4,6.19c1.39,3.03,3.38,7.23,10.97,7.23s10.96-.81,14.35-2.68c0,0,2.8,2.92,3.38,3.26.59.35,1.67,1.16,2.11-2.21.34-2.68.24-3.04.24-3.04,0,0,8.75-5.25,16.8-5.25s15.05,2.22,16.22,3.5c1.16,1.28,1.16,2.33-.82,4.31-1.98,1.98-6.07,4.32-9.92,4.32s-3.61-1.52-12.25,0c-8.63,1.51-10.85,2.57-14.7,3.03,0,0-3.15-3.85-3.62-4.31-.47-.47-1.13-.3-2.45,2.21-1.28,2.45-1.87,3.04-1.87,3.04,0,0-3.38.7-9.8-.47-6.42-1.17-12.72-3.74-12.72-11.66,0-4.31,1.64-6.3,2.69-7.47h0Z"/>
      <path class="cls-3" d="M101.69,108.94s6.89-3.03,11.44-5.13c4.54-2.1,8.75-3.15,11.43-3.15s7.82,1.64,8.87,8.05c0,0-4.2-1.99-10.04-2.57-5.83-.58-9.82-.01-13.77,1.17-4.32,1.28-6.07,2.1-7.94,1.64h0Z"/>
      <path class="cls-8" d="M98.54,109.99s-3.03,1.05-4.55.46c0,0,2.45,3.38,3.96,5.25l.59-5.72h0Z"/>
      <path class="cls-8" d="M89.55,125.85l1.98-3.5,1.63,2.1s.71,1.05-.34,1.99c-1.05.93-1.87.93-2.45.47-.58-.47-.81-1.05-.81-1.05h0Z"/>
      <path class="cls-9" d="M147.89,245.63c33.62,0,53.2-1.78,67.21-5.59,5.78-1.59,8.63-5.85,5.6-9.62-2.1-2.62-4.03-3.5-4.03-3.5l4.91-25.89,11.02-38.14s2.95-8.15-3.85-10.15c-2.98-.88-8.75.7-9.45,8.22,0,0-8.4-.7-8.92,4.9-.53,5.6,2.97,7.34,6.12,7.34s3.16.18,3.16.18c0,0,.7,8.22-5.95,7.52,0,0,2.63-8.74-2.98-9.97-5.59-1.23-7.35,3.14-8.22,6.47,0,0-8.58-3.15-10.15,2.97-1.57,6.13,2.45,7.7,7.7,8.57,0,0-2.27,6.83,4.55,8.04,6.83,1.23,7.35-7.17,7.35-7.17,0,0,4.63-1.47,2.8,5.25-.53,1.92-1.41,4.55-1.41,4.55,0,0-2.97.35-4.9,2.8-1.92,2.45-3.15,3.86-7.35,3.86s-6.47-3.16-6.47-3.16v-15.75s-2.28-.52-2.46-5.77c0,0-10.51-2.93-14.53,12.07-2.62,9.8-6.3,14.34-11.03,14.34s-7.7-2.63-7.7-6.65-2.11-6.12-5.42-7.17c0,0-.87-6.12,2.63-6.12,0,0,1.4.18,1.4,3.68s2.1,5.77,6.12,5.77,5.95-4.03,5.95-7.53c0,0,9.45,1.76,9.45-6.29,0-7-8.92-6.12-8.92-6.12,0,0,1.22-8.04-6.48-8.04-6.3,0-6.12,5.42-6.12,7s-.52,2.8-1.22,2.8-2.98,1.57-2.98-8.21c0,0,1.39-.53,2.8.17,1.4.7,7.52,1.04,7.52-7.35,0-6.48-8.93-6.31-8.93-6.31,0,0,.7-2.62.7-5.59s-2.27-5.95-7.53-5.95c-1.03,0-1.95.11-2.75.32-3.3.85-4.76,3.24-4.76,5.63,0,2.97.7,5.59.7,5.59,0,0-8.93-.17-8.93,6.31,0,8.39,6.13,8.04,7.53,7.35,1.4-.71,2.8-.17,2.8-.17,0,9.79-2.28,8.21-2.98,8.21s-1.23-1.22-1.23-2.8.18-7-6.13-7c-7.7,0-6.47,8.04-6.47,8.04,0,0-8.93-.88-8.93,6.12,0,8.05,9.45,6.29,9.45,6.29,0,3.5,1.93,7.53,5.95,7.53s6.13-2.28,6.13-5.77,1.41-3.68,1.41-3.68c3.5,0,2.62,6.12,2.62,6.12-3.33,1.05-5.42,3.15-5.42,7.17s-2.98,6.65-7.71,6.65-8.4-4.54-11.03-14.34c-4.02-15-14.52-12.07-14.52-12.07-.17,5.25-2.45,5.77-2.45,5.77v15.75s-2.28,3.16-6.48,3.16-5.43-1.41-7.35-3.86c-1.93-2.45-4.9-2.8-4.9-2.8,0,0-.88-2.63-1.41-4.55-1.83-6.72,2.81-5.25,2.81-5.25,0,0,.52,8.4,7.34,7.17,6.83-1.22,4.56-8.04,4.56-8.04,5.25-.87,9.28-2.45,7.7-8.57-1.57-6.12-10.15-2.97-10.15-2.97-.87-3.33-2.62-7.7-8.23-6.47-5.59,1.23-2.97,9.97-2.97,9.97-6.65.7-5.95-7.52-5.95-7.52,0,0,0-.18,3.15-.18s6.65-1.74,6.13-7.34c-.52-5.6-8.93-4.9-8.93-4.9-.7-7.53-6.48-9.1-9.46-8.22-6.8,2-3.85,10.15-3.85,10.15l11.03,38.14,4.9,25.89s-1.92.88-4.02,3.5c-3.03,3.78-.18,8.04,5.6,9.62,14.01,3.81,33.6,5.59,67.2,5.59h0Z"/>
    </g>
  </g>
</svg>