<svg xmlns="http://www.w3.org/2000/svg" width="786.903" height="933.334"><defs><clipPath id="a" clipPathUnits="userSpaceOnUse"><path d="M0 1080h1080V0H0Z"/></clipPath></defs><g clip-path="url(#a)" transform="matrix(1.33333 0 0 -1.33333 -326.548 1186.667)"><path d="M0 0s254.801 129.115 532.454-2.285c0 0 54.845-181.674 10.283-333.64-63.986-220.523-276.51-307.362-276.51-307.362S81.125-572.445-3.429-359.92C-65.129-182.817 0 0 0 0" style="fill:#00488e;fill-opacity:1;fill-rule:nonzero;stroke:none" transform="translate(274.9 833.287)"/><path d="M0 0s247.945 125.686 511.887-1.143c58.273-195.385 5.713-329.07 5.713-329.07s-46.846-181.674-260.514-284.509c-17.139 2.286-193.1 93.694-258.229 269.655C-2.285-333.641-61.701-197.671 0 0" style="fill:#fff;fill-opacity:1;fill-rule:nonzero;stroke:none" transform="translate(284.041 821.861)"/><path d="M0 0s246.802 119.974 489.035-4.571c54.845-177.103 6.856-314.216 6.856-314.216S443.33-502.746 244.517-591.87C44.562-499.318-7.998-319.93-7.998-319.93S-55.987-167.963 0 0" style="fill:#00488e;fill-opacity:1;fill-rule:nonzero;stroke:none" transform="translate(295.467 812.72)"/><path d="M0 0s156.538 73.127 300.505 51.417c54.845-253.658-167.963-466.183-167.963-466.183S-52.56-273.082 0 0" style="fill:#fff;fill-opacity:1;fill-rule:nonzero;stroke:none" transform="translate(295.467 729.31)"/><path d="M0 0s87.135-7.438 179.583-45.693C235.902-298.597 88.198-429.3 88.198-429.3S98.824-180.646 0 0" style="fill:#fff;fill-opacity:1;fill-rule:nonzero;stroke:none" transform="translate(600.394 780.647)"/><path d="M0 0s57.382-223.859-141.683-459.053c62.34 21.252 99.887 65.175 99.887 65.175S61.632-257.862 0 0" style="fill:#aa0634;fill-opacity:1;fill-rule:nonzero;stroke:none" transform="translate(601.103 772.499)"/><path d="M0 0s58.106-154.714-1.4-345.831c-7-28.702 7.701-39.203 7.701-39.203s14.001-14 16.101-1.4C24.503-373.832 73.507-196.717 0 0" style="fill:#ee3e40;fill-opacity:1;fill-rule:nonzero;stroke:none" transform="translate(601.371 771.522)"/><path d="M0 0s44.104-107.11 48.305-193.917c8.4-90.309-11.201-197.418-11.201-197.418s-2.102-13.3 7.699-19.601 21.003-14.001 21.003-14.001 4.9 173.614-2.801 218.419C49.004-105.01 0 0 0 0" style="fill:#ee3e40;fill-opacity:1;fill-rule:nonzero;stroke:none" transform="translate(601.37 772.225)"/><path d="M0 0q.213-.627.325-1.077.111-.452.142-.79a2.2 2.2 0 0 0-.017-.607 2.8 2.8 0 0 0-.226-.65Q.046-3.506-.59-4.225t-1.635-1.52A18 18 0 0 0-4.597-7.32a18 18 0 0 0-3.075-1.353q-3.332-1.133-6.362-1.017t-5.603 1.52q-2.574 1.402-4.614 4.118-2.042 2.716-3.421 6.775-1.406 4.134-1.393 7.715.01 3.582 1.25 6.435a13.6 13.6 0 0 0 3.623 4.921q2.386 2.069 5.718 3.201 1.352.46 2.682.66t2.517.199a12.3 12.3 0 0 0 2.203-.188q1.013-.186 1.466-.409t.656-.406a2.3 2.3 0 0 0 .396-.509 7 7 0 0 0 .394-.788q.2-.463.437-1.165.256-.752.385-1.294.128-.543.114-.912-.015-.368-.139-.578a.64.64 0 0 0-.35-.287q-.375-.128-1.101.115a17 17 0 0 1-1.823.47q-1.098.228-2.511.237-1.415.008-3.169-.588-1.928-.657-3.176-1.961t-1.814-3.131q-.567-1.828-.411-4.095.156-2.268 1.041-4.872.972-2.857 2.272-4.748 1.298-1.893 2.849-2.875a7.2 7.2 0 0 1 3.316-1.122q1.767-.141 3.696.516 1.753.595 2.891 1.444 1.137.847 1.881 1.659.744.811 1.197 1.413.452.6.778.712a.77.77 0 0 0 .435.036q.184-.05.387-.316.202-.267.435-.788Q-.306.902 0 0" style="fill:#fff;fill-opacity:1;fill-rule:nonzero;stroke:none" transform="translate(364.988 783.178)"/><path d="M0 0a.74.74 0 0 0-.038-.505q-.11-.25-.457-.483-.347-.235-.963-.487a14 14 0 0 0-1.586-.522 15 15 0 0 0-1.666-.379q-.67-.104-1.076-.079-.405.025-.628.184a.73.73 0 0 0-.293.412l-3.695 13.338-12.343-3.42 3.696-13.337a.77.77 0 0 0-.026-.502q-.096-.247-.443-.48a5.5 5.5 0 0 0-.964-.486 15 15 0 0 0-1.611-.529 15 15 0 0 0-1.641-.372q-.67-.104-1.089-.082-.417.021-.64.179a.74.74 0 0 0-.293.413l-8.634 31.163a.74.74 0 0 0 .038.505q.11.249.457.483t.976.49q.629.257 1.598.525.994.276 1.654.376.658.1 1.076.079t.628-.184a.78.78 0 0 0 .28-.416l3.356-12.113 12.342 3.42-3.356 12.113a.73.73 0 0 0 .039.504q.109.25.443.48t.964.487q.628.257 1.624.532.968.268 1.627.369t1.077.079q.418-.023.64-.18a.74.74 0 0 0 .293-.413z" style="fill:#fff;fill-opacity:1;fill-rule:nonzero;stroke:none" transform="translate(397.865 788.066)"/><path d="M0 0q.167-.75.215-1.267a3.4 3.4 0 0 0-.012-.857q-.06-.338-.222-.524a.73.73 0 0 0-.395-.237l-16.787-3.746q-.852-.19-1.545.183-.694.373-.948 1.511l-6.502 29.131q-.253 1.137.215 1.77.47.634 1.321.824l16.684 3.724a.7.7 0 0 0 .442-.037q.21-.09.411-.383t.378-.783.35-1.265q.16-.722.209-1.241a3.3 3.3 0 0 0-.012-.856q-.06-.34-.209-.521a.67.67 0 0 0-.381-.235l-11.932-2.663 1.821-8.161 10.098 2.254a.73.73 0 0 0 .458-.047 1.07 1.07 0 0 0 .421-.367q.196-.269.372-.757.177-.49.339-1.213.167-.748.212-1.254t-.018-.831q-.063-.326-.228-.498a.77.77 0 0 0-.397-.224L-15.74 9.176l2.104-9.427 12.035 2.687a.73.73 0 0 0 .458-.048q.225-.099.423-.38.2-.281.376-.769Q-.168.749 0 0" style="fill:#fff;fill-opacity:1;fill-rule:nonzero;stroke:none" transform="translate(425.566 796.179)"/><path d="M0 0q.477-2.657-.154-4.839a9.8 9.8 0 0 0-2.082-3.829q-1.453-1.645-3.597-2.728t-4.724-1.546a17.6 17.6 0 0 0-3.294-.295 19 19 0 0 0-2.767.217q-1.22.197-2.067.503-.848.304-1.247.583t-.657.89-.472 1.811q-.144.807-.191 1.363c-.047.556-.027.676.01.917q.057.359.227.537a.77.77 0 0 0 .43.226q.365.065 1.106-.246a19 19 0 0 1 1.876-.645q1.136-.334 2.658-.505t3.424.171q1.25.224 2.187.701.935.476 1.528 1.148.591.67.812 1.543.22.873.042 1.863-.205 1.146-.977 1.854T-9.819.861q-1.117.457-2.494.789-1.376.332-2.843.714t-2.885.948a10.8 10.8 0 0 0-2.62 1.493q-1.201.927-2.097 2.326-.896 1.398-1.274 3.508-.435 2.422.135 4.42.568 1.997 1.876 3.481 1.307 1.485 3.269 2.455a16 16 0 0 0 4.282 1.386q1.199.214 2.429.247t2.329-.093 1.975-.372q.877-.246 1.185-.46.306-.213.431-.379a2.2 2.2 0 0 0 .242-.454q.119-.29.227-.739.108-.451.229-1.128.135-.756.19-1.284t.024-.883-.172-.541q-.141-.187-.428-.238-.286-.053-.977.201-.69.252-1.679.519-.989.266-2.25.403-1.261.136-2.693-.12-1.121-.201-1.905-.624t-1.258-1.005a3 3 0 0 1-.626-1.308 3.9 3.9 0 0 1-.017-1.482q.2-1.12.961-1.831.759-.71 1.902-1.164 1.142-.455 2.546-.78 1.402-.327 2.869-.709a27 27 0 0 0 2.912-.943q1.444-.562 2.659-1.486a9 9 0 0 0 2.107-2.311Q-.364 2.032 0 0" style="fill:#fff;fill-opacity:1;fill-rule:nonzero;stroke:none" transform="translate(450.89 808.49)"/><path d="M0 0q.103-.76.111-1.307a3.6 3.6 0 0 0-.08-.892q-.087-.345-.262-.529a.68.68 0 0 0-.411-.216l-8.497-1.151 3.705-27.35a.73.73 0 0 0-.106-.495q-.143-.234-.518-.417-.375-.185-1.033-.354a15 15 0 0 0-1.655-.304 15 15 0 0 0-1.676-.147q-.68-.012-1.09.066-.41.077-.61.264a.74.74 0 0 0-.235.449l-3.704 27.35-8.496-1.151a.67.67 0 0 0-.468.097q-.204.132-.38.443a3.6 3.6 0 0 0-.314.838q-.138.529-.241 1.29-.107.785-.116 1.346-.009.559.078.905.086.345.251.515.164.168.426.204l23.915 3.239a.72.72 0 0 0 .452-.085q.216-.118.392-.428.175-.31.316-.851Q-.107.787 0 0" style="fill:#fff;fill-opacity:1;fill-rule:nonzero;stroke:none" transform="translate(476.881 833.424)"/><path d="M0 0q.069-.764.049-1.284a3.3 3.3 0 0 0-.123-.848q-.103-.329-.288-.491a.72.72 0 0 0-.422-.184l-17.131-1.54q-.87-.078-1.509.382-.639.461-.744 1.621l-2.672 29.729q-.105 1.159.442 1.727.547.567 1.417.645l17.026 1.531a.7.7 0 0 0 .433-.094q.196-.116.358-.433.161-.318.273-.825.112-.508.184-1.299.066-.74.046-1.258a3.3 3.3 0 0 0-.123-.848q-.104-.329-.275-.49a.67.67 0 0 0-.408-.183l-12.177-1.094.749-8.329 10.305.927a.73.73 0 0 0 .448-.106q.211-.127.37-.418.159-.292.271-.799.111-.509.178-1.247.069-.764.048-1.271A3 3 0 0 0-3.4 12.7q-.105-.316-.291-.465a.76.76 0 0 0-.423-.17l-10.305-.927.865-9.62 12.282 1.104a.73.73 0 0 0 .448-.105q.21-.128.37-.432t.273-.813Q-.069.764 0 0" style="fill:#fff;fill-opacity:1;fill-rule:nonzero;stroke:none" transform="translate(506.154 807.35)"/><path d="M0 0q-.069 1.691-.883 2.824t-2.578 1.538a10 10 0 0 1-1.211.163q-.678.052-1.867.004l-3.12-.127.393-9.703 3.542.143q1.481.06 2.577.462t1.81 1.08 1.048 1.591Q.045-1.11 0 0m9.903-22.852a1 1 0 0 0-.086-.493q-.098-.203-.489-.351t-1.156-.232a32 32 0 0 0-2.086-.138 23 23 0 0 0-1.774-.018q-.664.026-1.052.156-.39.129-.558.348a2.1 2.1 0 0 0-.286.531L-.96-15.532a32 32 0 0 1-1.178 2.256q-.569.984-1.244 1.632a4.3 4.3 0 0 1-1.535.958q-.86.309-1.971.264l-2.168-.088.528-13.035a.74.74 0 0 0-.152-.483q-.164-.219-.555-.367a5.6 5.6 0 0 0-1.049-.254 15 15 0 0 0-1.689-.148 15 15 0 0 0-1.682.012q-.678.051-1.079.168-.403.116-.57.321a.8.8 0 0 0-.178.469l-1.257 31.068q-.048 1.163.527 1.703.574.54 1.446.575l8.858.359q1.347.054 2.223.036a32 32 0 0 0 1.591-.068q2.075-.207 3.756-.854c1.681-.647 2.08-1.015 2.878-1.75a7.8 7.8 0 0 0 1.869-2.653q.671-1.548.754-3.584.069-1.719-.309-3.151a8 8 0 0 0-1.181-2.577 8.4 8.4 0 0 0-2.01-2.014A11.3 11.3 0 0 0 .887-8.174a7.6 7.6 0 0 0 2.798-2.072 12.4 12.4 0 0 0 1.194-1.673q.567-.944 1.119-2.139l3.155-6.626q.437-.989.588-1.446.152-.458.162-.722" style="fill:#fff;fill-opacity:1;fill-rule:nonzero;stroke:none" transform="translate(528.997 829.9)"/><path d="M0 0a12 12 0 0 0-.078-1.336q-.072-.541-.22-.858a1.4 1.4 0 0 0-.335-.473.63.63 0 0 0-.424-.155l-11.193.1-.082-9.209 10.504-.093a.7.7 0 0 0 .423-.137q.183-.134.327-.452.142-.32.204-.849.06-.53.054-1.323-.008-.795-.078-1.323a3.3 3.3 0 0 0-.22-.871q-.147-.343-.335-.487a.67.67 0 0 0-.424-.142l-10.505.094-.113-12.754a.8.8 0 0 0-.164-.501q-.16-.211-.572-.353a5 5 0 0 0-1.074-.215 15 15 0 0 0-1.694-.064q-1.005.009-1.68.094-.674.085-1.068.235-.397.149-.567.362a.77.77 0 0 0-.167.504l.276 31.039q.011 1.163.61 1.675.601.51 1.474.502l16.114-.143a.68.68 0 0 0 .423-.149q.182-.148.326-.48.142-.331.204-.888Q.006.794 0 0" style="fill:#fff;fill-opacity:1;fill-rule:nonzero;stroke:none" transform="translate(564.55 837.335)"/><path d="M0 0a.74.74 0 0 0-.194-.468q-.182-.204-.584-.318a5.6 5.6 0 0 0-1.067-.163 15 15 0 0 0-1.696-.002 15 15 0 0 0-1.675.156q-.67.11-1.06.261-.39.15-.553.369a.74.74 0 0 0-.15.484l1.477 32.303a.74.74 0 0 0 .194.467q.182.203.597.318a6 6 0 0 0 1.08.162q.664.05 1.669.003 1.031-.047 1.688-.156.658-.11 1.048-.26t.552-.37a.74.74 0 0 0 .151-.483z" style="fill:#fff;fill-opacity:1;fill-rule:nonzero;stroke:none" transform="translate(578.113 806.27)"/><path d="M0 0a11 11 0 0 0-.174-1.273 3.4 3.4 0 0 0-.268-.814q-.16-.305-.37-.433a.7.7 0 0 0-.447-.108l-17.139 1.454q-.87.073-1.419.639-.55.564-.451 1.724l2.524 29.742q.097 1.16.736 1.624.637.464 1.507.39l17.033-1.446a.7.7 0 0 0 .411-.167q.172-.148.277-.488.103-.342.125-.861t-.044-1.311q-.063-.738-.173-1.247a3.3 3.3 0 0 0-.267-.813q-.16-.306-.356-.435a.67.67 0 0 0-.434-.109l-12.182 1.034-.708-8.332 10.31-.875a.73.73 0 0 0 .424-.182 1.07 1.07 0 0 0 .29-.476q.106-.315.129-.834.022-.521-.041-1.258-.063-.766-.173-1.26a3 3 0 0 0-.266-.788q-.158-.292-.366-.407a.77.77 0 0 0-.446-.095l-10.31.875-.817-9.624L-.798 2.803a.7.7 0 0 0 .423-.182q.185-.162.291-.489.104-.327.127-.847Q.065.765 0 0" style="fill:#fff;fill-opacity:1;fill-rule:nonzero;stroke:none" transform="translate(607.077 805.879)"/><path d="M0 0q-.104-.788-.242-1.316a4 4 0 0 0-.315-.866q-.179-.336-.397-.468a.72.72 0 0 0-.479-.096L-16.987-.675q-.866.115-1.389.705-.521.59-.368 1.744l4.104 30.821a.74.74 0 0 0 .232.449q.2.188.61.267.412.078 1.09.068a15 15 0 0 0 1.676-.143 15 15 0 0 0 1.669-.303q.645-.166 1.021-.349.376-.184.519-.416a.74.74 0 0 0 .107-.495l-3.636-27.306L-.676 2.946a.76.76 0 0 0 .44-.205q.178-.171.265-.516.087-.346.082-.892A11 11 0 0 0 0 0" style="fill:#fff;fill-opacity:1;fill-rule:nonzero;stroke:none" transform="translate(633.022 802.716)"/><path d="M0 0q.456 2.391.289 4.551Q.12 6.711-.826 8.454q-.948 1.744-2.722 2.958-1.777 1.214-4.921 1.814l-3.458.659-4.362-22.874 3.561-.679q2.807-.535 4.869-.175 2.063.361 3.63 1.584t2.619 3.286Q-.556-2.912 0 0m7.115-1.115q-.883-4.626-2.719-7.684t-4.494-4.706-6.08-2.005q-3.423-.359-7.892.495l-8.032 1.531q-.858.164-1.346.783-.489.618-.271 1.762l5.592 29.32q.218 1.143.9 1.539.681.396 1.54.232l8.63-1.646q4.495-.857 7.427-2.508 2.932-1.65 4.683-4.126 1.75-2.475 2.287-5.729t-.225-7.258" style="fill:#fff;fill-opacity:1;fill-rule:nonzero;stroke:none" transform="translate(661.761 812.187)"/><path d="M0 0q-.215-.764-.425-1.269-.212-.504-.437-.77a1.4 1.4 0 0 0-.448-.369.63.63 0 0 0-.45-.038L-12.535.588l-2.495-8.864 10.112-2.847a.7.7 0 0 0 .372-.243q.14-.177.196-.522.053-.345-.026-.873a11 11 0 0 0-.295-1.291q-.215-.765-.422-1.256a3.4 3.4 0 0 0-.44-.783q-.233-.291-.452-.382a.67.67 0 0 0-.447-.025l-10.111 2.847L-20-25.928a.8.8 0 0 0-.289-.441q-.21-.161-.645-.19a5.2 5.2 0 0 0-1.093.074q-.658.103-1.652.383-.968.272-1.595.532-.629.259-.971.506-.343.248-.45.499a.76.76 0 0 0-.029.53l8.411 29.878q.316 1.121 1.029 1.456.713.336 1.553.099L-.218 3.031a.67.67 0 0 0 .367-.255q.14-.19.19-.549.05-.357-.036-.91A12 12 0 0 0 0 0" style="fill:#fff;fill-opacity:1;fill-rule:nonzero;stroke:none" transform="translate(712.108 813.887)"/><path d="M0 0a13 13 0 0 0-.401-1.052 5.4 5.4 0 0 0-.369-.712 2.2 2.2 0 0 0-.384-.47 2.8 2.8 0 0 0-.576-.377q-.374-.193-1.317-.375c-.943-.182-1.369-.19-2.223-.206q-1.28-.024-2.84.2-1.558.225-3.261.807-3.332 1.137-5.66 3.079-2.33 1.941-3.511 4.623-1.18 2.682-1.14 6.08.041 3.396 1.427 7.454 1.41 4.13 3.607 6.961 2.196 2.829 4.918 4.332a13.6 13.6 0 0 0 5.874 1.686q3.152.182 6.483-.955a15.6 15.6 0 0 0 2.528-1.114 17 17 0 0 0 2.115-1.38 12.3 12.3 0 0 0 1.629-1.493q.69-.767.912-1.22t.271-.721.004-.645a7 7 0 0 0-.17-.865 16 16 0 0 0-.364-1.19 15 15 0 0 0-.486-1.26 3.6 3.6 0 0 0-.466-.792q-.237-.282-.463-.373a.63.63 0 0 0-.452-.013q-.375.128-.802.763-.427.634-1.156 1.486-.73.85-1.847 1.72-1.114.87-2.867 1.468-1.93.659-3.713.387-1.785-.272-3.348-1.373-1.565-1.102-2.826-2.992t-2.149-4.495q-.975-2.855-1.1-5.147t.502-4.016a7.2 7.2 0 0 1 1.942-2.914q1.312-1.19 3.241-1.848 1.752-.598 3.171-.621t2.504.166a20 20 0 0 1 1.809.389q.726.2 1.052.088a.75.75 0 0 0 .366-.237q.116-.151.114-.486t-.137-.89A17 17 0 0 0 0 0" style="fill:#fff;fill-opacity:1;fill-rule:nonzero;stroke:none" transform="translate(733.654 779.082)"/><path d="M0 0c0-41.097 33.434-74.531 74.521-74.531 25.146 0 48.42 12.588 62.271 33.654l.966 1.453-19.882 20.109-1.364-2.606c-8.238-15.723-24.329-25.484-41.991-25.484C48.38-47.405 27.116-26.14 27.116 0c0 26.131 21.264 47.395 47.405 47.395 17.662 0 33.753-9.761 41.991-25.484l1.364-2.607 19.882 20.111-.966 1.453c-13.861 21.066-37.136 33.643-62.271 33.643C33.434 74.511 0 41.087 0 0" style="fill:#eb2124;fill-opacity:1;fill-rule:nonzero;stroke:none" transform="translate(331.599 592.83)"/><path d="M0 0c-8.289-15.812-24.847-26.638-43.903-26.638-27.324 0-49.553 22.24-49.553 49.564s22.229 49.555 49.553 49.555c19.056 0 35.614-10.827 43.903-26.638L16.569 62.61C3.633 82.272-18.598 95.288-43.903 95.288c-39.962 0-72.361-32.399-72.361-72.362 0-39.971 32.399-72.361 72.361-72.361 25.305 0 47.536 12.995 60.472 32.668z" style="fill:#00488e;fill-opacity:1;fill-rule:nonzero;stroke:none" transform="translate(450.022 569.904)"/><path d="M0 0c0-41.097 33.435-74.531 74.521-74.531 25.146 0 48.42 12.588 62.271 33.654l.966 1.453-19.872 20.109-1.373-2.606c-8.239-15.723-24.329-25.484-41.992-25.484C48.38-47.405 27.126-26.14 27.126 0c0 26.131 21.254 47.395 47.395 47.395 17.663 0 33.753-9.761 41.992-25.484l1.373-2.607 19.872 20.111-.966 1.453c-13.851 21.066-37.135 33.643-62.271 33.643C33.435 74.511 0 41.087 0 0" style="fill:#eb2124;fill-opacity:1;fill-rule:nonzero;stroke:none" transform="translate(407.602 592.83)"/><path d="M0 0c-8.289-15.812-24.847-26.638-43.902-26.638-27.325 0-49.555 22.24-49.555 49.564s22.23 49.555 49.555 49.555c19.055 0 35.613-10.827 43.902-26.638L16.568 62.61C3.632 82.272-18.598 95.288-43.902 95.288c-39.963 0-72.362-32.399-72.362-72.362 0-39.971 32.399-72.361 72.362-72.361 25.304 0 47.544 12.995 60.47 32.668z" style="fill:#00488e;fill-opacity:1;fill-rule:nonzero;stroke:none" transform="translate(526.025 569.904)"/><path d="M0 0v-98.492h-8.229v-27.116H0v-118.124h27.116v118.124h83.924v27.116H27.116v71.376h102.293V-.01Z" style="fill:#eb2124;fill-opacity:1;fill-rule:nonzero;stroke:none" transform="translate(370.237 708.835)"/><path d="M0 0v22.807h-125.091v-98.492h-8.239v-22.797h8.239v-118.125h22.798v118.125h83.913v22.797h-83.913V0Z" style="fill:#00488e;fill-opacity:1;fill-rule:nonzero;stroke:none" transform="translate(497.487 683.87)"/><path d="m0 0 .965 1.453-19.881 20.11-1.364-2.607C-27.677 4.84-41.405-4.466-56.915-6.221c-.213-9.397.65-18.87 5.475-26.638C-30.554-29.804-11.836-18.001 0 0" style="fill:#eb2124;fill-opacity:1;fill-rule:nonzero;stroke:none" transform="translate(468.391 551.953)"/><path d="m0 0-16.569 16.767c-7.55-14.402-21.962-24.664-38.872-26.38-3.267-8.68-2.41-16.4 4.746-22.394C-29.5-29.141-11.24-17.094 0 0" style="fill:#00488e;fill-opacity:1;fill-rule:nonzero;stroke:none" transform="translate(466.59 553.136)"/></g></svg>