<?xml version="1.0" encoding="UTF-8"?>
<!DOCTYPE svg PUBLIC "-//W3C//DTD SVG 1.1//EN" "http://www.w3.org/Graphics/SVG/1.1/DTD/svg11.dtd">
<svg xmlns="http://www.w3.org/2000/svg" version="1.1" width="6122px" height="5858px" style="shape-rendering:geometricPrecision; text-rendering:geometricPrecision; image-rendering:optimizeQuality; fill-rule:evenodd; clip-rule:evenodd" xmlns:xlink="http://www.w3.org/1999/xlink">
<g><path style="opacity:0.998" fill="#231f20" d="M 2598.5,-0.5 C 2911.17,-0.5 3223.83,-0.5 3536.5,-0.5C 3538.8,75.6801 3556.63,148.013 3590,216.5C 3633.9,304.749 3695.07,378.915 3773.5,439C 3870.36,513.637 3980.03,556.304 4102.5,567C 4119.16,567.5 4135.83,567.667 4152.5,567.5C 4152.17,598.507 4152.5,629.507 4153.5,660.5C 4517.87,840.319 4821.04,1093.99 5063,1421.5C 5152.2,1543.23 5229.87,1672.56 5296,1809.5C 5296.81,1811.44 5297.31,1813.44 5297.5,1815.5C 5572.17,1815.5 5846.83,1815.5 6121.5,1815.5C 6121.5,2172.17 6121.5,2528.83 6121.5,2885.5C 5964.83,2885.5 5808.17,2885.5 5651.5,2885.5C 5651.5,2686.17 5651.5,2486.83 5651.5,2287.5C 5590.17,2287.33 5528.83,2287.5 5467.5,2288C 5510.71,2461.15 5534.54,2636.98 5539,2815.5C 5546.72,3107.12 5504.55,3391.29 5412.5,3668C 5412.64,3668.77 5412.98,3669.44 5413.5,3670C 5573.07,3757.52 5743.07,3814.52 5923.5,3841C 5989.18,3850.58 6055.18,3856.75 6121.5,3859.5C 6121.5,3983.83 6121.5,4108.17 6121.5,4232.5C 5853.13,4233.05 5593.8,4185.22 5343.5,4089C 5311.57,4076.47 5280.07,4062.97 5249,4048.5C 5044.67,4424.51 4762.84,4729.34 4403.5,4963C 4288.3,5036.86 4167.46,5101.03 4041,5155.5C 4030.26,5254.05 4001.59,5347.05 3955,5434.5C 3916.15,5506.34 3869.15,5572.34 3814,5632.5C 3732.55,5718.01 3634.72,5777.18 3520.5,5810C 3440.33,5832.63 3358.67,5846.63 3275.5,5852C 3237.04,5854.59 3198.71,5856.42 3160.5,5857.5C 2940.83,5857.5 2721.17,5857.5 2501.5,5857.5C 2501.5,5725.5 2501.5,5593.5 2501.5,5461.5C 2694.17,5461.67 2886.83,5461.5 3079.5,5461C 3149.15,5460.88 3218.15,5454.21 3286.5,5441C 3337.81,5431.02 3385.15,5411.68 3428.5,5383C 3452.82,5364.35 3474.15,5342.68 3492.5,5318C 3095.25,5385.08 2704.25,5358.74 2319.5,5239C 1923.83,5111.28 1581.66,4899.45 1293,4603.5C 1103.73,4407.42 950.234,4186.08 832.5,3939.5C 613.323,3806.82 435.157,3632.16 298,3415.5C 134.453,3151.85 41.1194,2864.85 18,2554.5C 7.39511,2411.53 1.22845,2268.53 -0.5,2125.5C -0.5,2046.5 -0.5,1967.5 -0.5,1888.5C 0.352484,1864.33 1.01915,1840 1.5,1815.5C 160.833,1815.5 320.167,1815.5 479.5,1815.5C 470.517,2071.56 489.351,2325.56 536,2577.5C 551.761,2660.88 571.761,2743.21 596,2824.5C 610.253,2333.52 754.92,1885.86 1030,1481.5C 1238.45,1180.69 1499.61,937.195 1813.5,751C 1869,718.832 1925.5,688.332 1983,659.5C 1983.5,628.835 1983.67,598.168 1983.5,567.5C 2085.93,568.976 2182.26,545.476 2272.5,497C 2378.45,439.381 2462.62,358.881 2525,255.5C 2563.99,188.205 2587.99,115.872 2597,38.5C 2598.24,25.5299 2598.74,12.5299 2598.5,-0.5 Z"/></g>
<g><path style="opacity:1" fill="#b72521" d="M 3067.5,60.5 C 3067.5,60.8333 3067.5,61.1667 3067.5,61.5C 2930.5,61.5 2793.5,61.5 2656.5,61.5C 2656.74,62.791 2656.4,63.791 2655.5,64.5C 2655.5,63.1667 2655.5,61.8333 2655.5,60.5C 2792.83,60.5 2930.17,60.5 3067.5,60.5 Z"/></g>
<g><path style="opacity:1" fill="#ed2722" d="M 3067.5,61.5 C 3067.5,198.167 3067.5,334.833 3067.5,471.5C 2851.67,471.833 2636,471.5 2420.5,470.5C 2535.51,376.214 2611.01,256.547 2647,111.5C 2650.06,95.8206 2652.89,80.154 2655.5,64.5C 2656.4,63.791 2656.74,62.791 2656.5,61.5C 2793.5,61.5 2930.5,61.5 3067.5,61.5 Z"/></g>
<g><path style="opacity:1" fill="#2056ad" d="M 3479.5,61.5 C 3499.75,191.978 3554.25,305.645 3643,402.5C 3720.93,486.41 3813.43,548.91 3920.5,590C 3975.45,610.224 4032.12,622.724 4090.5,627.5C 4090.5,807.833 4090.5,988.167 4090.5,1168.5C 4041.47,1175.93 3994.8,1191.1 3950.5,1214C 3916.84,1232.6 3887.67,1256.77 3863,1286.5C 3844.58,1309 3828.42,1333 3814.5,1358.5C 3795.64,1391.9 3781.14,1427.23 3771,1464.5C 3753.18,1534.77 3741.84,1606.1 3737,1678.5C 3731.67,1765.42 3728.34,1852.42 3727,1939.5C 3724.2,2031.69 3715.87,2123.35 3702,2214.5C 3672.04,2398.41 3606.71,2568.41 3506,2724.5C 3467.96,2785.22 3425.29,2842.55 3378,2896.5C 3300.19,2982.09 3211.02,3052.92 3110.5,3109C 3096.6,3116.12 3082.6,3122.95 3068.5,3129.5C 3068.5,2106.83 3068.5,1084.17 3068.5,61.5C 3205.5,61.5 3342.5,61.5 3479.5,61.5 Z"/></g>
<g><path style="opacity:1" fill="#3d4e89" d="M 3067.5,60.5 C 3205,60.1671 3342.33,60.5004 3479.5,61.5C 3342.5,61.5 3205.5,61.5 3068.5,61.5C 3068.5,1084.17 3068.5,2106.83 3068.5,3129.5C 3068.17,3129.5 3067.83,3129.5 3067.5,3129.5C 3067.5,2934.5 3067.5,2739.5 3067.5,2544.5C 3067.5,2379.17 3067.5,2213.83 3067.5,2048.5C 3067.5,1868.5 3067.5,1688.5 3067.5,1508.5C 3067.5,1343.17 3067.5,1177.83 3067.5,1012.5C 3067.5,832.5 3067.5,652.5 3067.5,472.5C 3067.5,472.167 3067.5,471.833 3067.5,471.5C 3067.5,334.833 3067.5,198.167 3067.5,61.5C 3067.5,61.1667 3067.5,60.8333 3067.5,60.5 Z"/></g>
<g><path style="opacity:1" fill="#c1923d" d="M 3329.5,412.5 C 3428.05,412.917 3495.22,458.917 3531,550.5C 3546.84,597.846 3553.67,646.513 3551.5,696.5C 3553.25,768.853 3545.75,840.187 3529,910.5C 3516.57,948.691 3503.57,986.691 3490,1024.5C 3483.1,1047.81 3477.94,1071.48 3474.5,1095.5C 3482.92,1096.42 3489.42,1100.42 3494,1107.5C 3499.53,1117.09 3502.86,1127.42 3504,1138.5C 3504.67,1149.83 3504.67,1161.17 3504,1172.5C 3503.12,1183.81 3499.12,1193.81 3492,1202.5C 3488.55,1205.47 3484.72,1207.81 3480.5,1209.5C 3480.17,1210.17 3479.83,1210.83 3479.5,1211.5C 3486.8,1274.63 3491.64,1337.96 3494,1401.5C 3499.13,1588.47 3502.8,1775.47 3505,1962.5C 3536.56,1974.72 3561.56,1995.05 3580,2023.5C 3600.18,2057.36 3611.51,2094.03 3614,2133.5C 3618.38,2180.61 3610.04,2225.28 3589,2267.5C 3562.85,2311.64 3525.68,2342.8 3477.5,2361C 3414.21,2383.86 3350.88,2384.19 3287.5,2362C 3229.9,2340.07 3188.07,2301.24 3162,2245.5C 3148.24,2211.11 3143.58,2175.44 3148,2138.5C 3151.22,2100.82 3163.89,2066.82 3186,2036.5C 3189.61,2032.27 3193.45,2028.27 3197.5,2024.5C 3197.66,1844.17 3197.83,1663.84 3198,1483.5C 3197.03,1398.88 3201.36,1314.55 3211,1230.5C 3212.01,1224.14 3213.17,1217.8 3214.5,1211.5C 3204.5,1203.53 3198,1193.2 3195,1180.5C 3190.96,1161.87 3190.63,1143.2 3194,1124.5C 3195.39,1120.71 3197.06,1117.05 3199,1113.5C 3204.82,1108.59 3210.82,1103.93 3217,1099.5C 3219.09,1092.9 3221.75,1086.57 3225,1080.5C 3229.32,1075.67 3234.66,1072.67 3241,1071.5C 3248.29,1056.59 3249.29,1041.25 3244,1025.5C 3227.5,989.321 3212.16,952.654 3198,915.5C 3175.43,850.414 3162.43,783.414 3159,714.5C 3155.25,676.221 3154.58,637.888 3157,599.5C 3162.45,538.803 3188.61,489.303 3235.5,451C 3263.34,429.576 3294.68,416.743 3329.5,412.5 Z"/></g>
<g><path style="opacity:1" fill="#f47c79" d="M 2420.5,470.5 C 2636,471.5 2851.67,471.833 3067.5,471.5C 3067.5,471.833 3067.5,472.167 3067.5,472.5C 2851.17,472.5 2634.83,472.5 2418.5,472.5C 2418.83,471.5 2419.5,470.833 2420.5,470.5 Z"/></g>
<g><path style="opacity:1" fill="#fefefe" d="M 2418.5,472.5 C 2634.83,472.5 2851.17,472.5 3067.5,472.5C 3067.5,652.5 3067.5,832.5 3067.5,1012.5C 2726.5,1012.5 2385.5,1012.5 2044.5,1012.5C 2044.5,907.833 2044.5,803.167 2044.5,698.5C 2044.17,674.824 2044.5,651.157 2045.5,627.5C 2185.94,613.411 2310.28,561.745 2418.5,472.5 Z"/></g>
<g><path style="opacity:1" fill="#5d3d5f" d="M 4090.5,627.5 C 4091.18,651.069 4091.84,674.736 4092.5,698.5C 4091.5,828.332 4091.17,958.332 4091.5,1088.5C 4091.83,1115.34 4091.5,1142.01 4090.5,1168.5C 4090.5,988.167 4090.5,807.833 4090.5,627.5 Z"/></g>
<g><path style="opacity:1" fill="#ed2722" d="M 4092.5,698.5 C 4402.02,845.241 4669.19,1048.24 4894,1307.5C 5027.54,1461.78 5139.7,1630.78 5230.5,1814.5C 5099.67,1815.5 4968.67,1815.83 4837.5,1815.5C 4663.28,1529.11 4433.61,1297.61 4148.5,1121C 4129.77,1109.64 4110.77,1098.8 4091.5,1088.5C 4091.17,958.332 4091.5,828.332 4092.5,698.5 Z"/></g>
<g><path style="opacity:1" fill="#ed2722" d="M 2044.5,698.5 C 2044.5,803.167 2044.5,907.833 2044.5,1012.5C 2385.5,1012.5 2726.5,1012.5 3067.5,1012.5C 3067.5,1177.83 3067.5,1343.17 3067.5,1508.5C 2836.83,1508.5 2606.17,1508.5 2375.5,1508.5C 2365.17,1456.18 2347.51,1406.51 2322.5,1359.5C 2301.38,1320.86 2275.04,1286.02 2243.5,1255C 2213.34,1228.57 2179.34,1208.24 2141.5,1194C 2111.27,1182.86 2080.27,1174.69 2048.5,1169.5C 2047.79,1168.6 2046.79,1168.26 2045.5,1168.5C 2045.83,1141.49 2045.5,1114.49 2044.5,1087.5C 2043.89,1087.62 2043.56,1087.96 2043.5,1088.5C 1799.56,1227.88 1592.06,1409.88 1421,1634.5C 1160.44,1982.1 1021.11,2374.1 1003,2810.5C 996.147,3020.16 1020.15,3226.16 1075,3428.5C 1088.47,3474.73 1102.63,3520.73 1117.5,3566.5C 992.955,3476.46 885.121,3369.46 794,3245.5C 740.894,3170.33 696.227,3089.99 660,3004.5C 641.567,2625.62 707.567,2262.29 858,1914.5C 1016.04,1559.62 1245.21,1258.79 1545.5,1012C 1691.51,892.845 1849.84,791.845 2020.5,709C 2028.4,705.213 2036.4,701.713 2044.5,698.5 Z"/></g>
<g><path style="opacity:1" fill="#fefefe" d="M 3479.5,726.5 C 3483.66,726.143 3486.83,727.81 3489,731.5C 3494.82,742.785 3498.16,754.785 3499,767.5C 3499.95,789.551 3499.28,811.551 3497,833.5C 3491.98,865.205 3485.32,896.539 3477,927.5C 3464.28,970.76 3451.95,1014.09 3440,1057.5C 3437.94,1065.06 3435.28,1072.39 3432,1079.5C 3429.9,1082.47 3427.07,1084.3 3423.5,1085C 3407.03,1087.54 3398.86,1080.37 3399,1063.5C 3397.88,1030.55 3401.88,998.212 3411,966.5C 3417.21,948.202 3423.21,929.869 3429,911.5C 3432.96,897.749 3434.3,883.749 3433,869.5C 3431.52,865.52 3428.69,863.854 3424.5,864.5C 3422.04,864.478 3419.7,864.978 3417.5,866C 3412.85,869.642 3409.35,874.142 3407,879.5C 3381.97,939.638 3370.3,1002.3 3372,1067.5C 3370.71,1080.12 3363.88,1087.62 3351.5,1090C 3332.54,1092.04 3313.54,1093.04 3294.5,1093C 3290.33,1091.5 3287.5,1088.67 3286,1084.5C 3284.42,1081.34 3283.42,1078.01 3283,1074.5C 3281.07,1033.87 3275.07,993.875 3265,954.5C 3253,919.167 3241,883.833 3229,848.5C 3224.14,830.702 3220.14,812.702 3217,794.5C 3216.33,786.5 3216.33,778.5 3217,770.5C 3222.6,760.189 3230.76,757.689 3241.5,763C 3255.97,770.065 3269.63,778.398 3282.5,788C 3310.01,801.63 3339.01,805.963 3369.5,801C 3393.87,798.779 3415.2,789.779 3433.5,774C 3444.04,763.133 3454.2,751.966 3464,740.5C 3468.76,735.228 3473.93,730.561 3479.5,726.5 Z"/></g>
<g><path style="opacity:1" fill="#8a888e" d="M 2043.5,1088.5 C 2044.5,1115.33 2044.83,1142.33 2044.5,1169.5C 2045.83,1169.5 2047.17,1169.5 2048.5,1169.5C 2080.27,1174.69 2111.27,1182.86 2141.5,1194C 2179.34,1208.24 2213.34,1228.57 2243.5,1255C 2275.04,1286.02 2301.38,1320.86 2322.5,1359.5C 2299.64,1369.6 2277.31,1380.76 2255.5,1393C 2059.31,1500.63 1890.65,1641.8 1749.5,1816.5C 1635.17,1816.5 1520.83,1816.5 1406.5,1816.5C 1406.5,2058.83 1406.5,2301.17 1406.5,2543.5C 1405.63,2546 1404.96,2548.67 1404.5,2551.5C 1377.25,2688.49 1367.09,2826.82 1374,2966.5C 1378.21,3049.59 1388.38,3131.92 1404.5,3213.5C 1404.8,3216.37 1405.47,3219.04 1406.5,3221.5C 1406.83,3393.17 1406.5,3564.83 1405.5,3736.5C 1303.64,3688.93 1207.64,3632.27 1117.5,3566.5C 1102.63,3520.73 1088.47,3474.73 1075,3428.5C 1020.15,3226.16 996.147,3020.16 1003,2810.5C 1021.11,2374.1 1160.44,1982.1 1421,1634.5C 1592.06,1409.88 1799.56,1227.88 2043.5,1088.5 Z"/></g>
<g><path style="opacity:1" fill="#bf2c29" d="M 2043.5,1088.5 C 2043.56,1087.96 2043.89,1087.62 2044.5,1087.5C 2045.5,1114.49 2045.83,1141.49 2045.5,1168.5C 2046.79,1168.26 2047.79,1168.6 2048.5,1169.5C 2047.17,1169.5 2045.83,1169.5 2044.5,1169.5C 2044.83,1142.33 2044.5,1115.33 2043.5,1088.5 Z"/></g>
<g><path style="opacity:1" fill="#89888e" d="M 4091.5,1088.5 C 4110.77,1098.8 4129.77,1109.64 4148.5,1121C 4433.61,1297.61 4663.28,1529.11 4837.5,1815.5C 4837.5,1815.83 4837.5,1816.17 4837.5,1816.5C 4686.83,1816.5 4536.17,1816.5 4385.5,1816.5C 4383.98,1812.8 4381.81,1809.46 4379,1806.5C 4221.96,1617.22 4033.79,1467.89 3814.5,1358.5C 3828.42,1333 3844.58,1309 3863,1286.5C 3887.67,1256.77 3916.84,1232.6 3950.5,1214C 3994.8,1191.1 4041.47,1175.93 4090.5,1168.5C 4091.5,1142.01 4091.83,1115.34 4091.5,1088.5 Z"/></g>
<g><path style="opacity:1" fill="#fefefd" d="M 3405.5,1118.5 C 3419.17,1117 3432.17,1119.17 3444.5,1125C 3450.82,1130.81 3454.65,1137.97 3456,1146.5C 3456.67,1156.5 3456.67,1166.5 3456,1176.5C 3454.73,1187.77 3448.56,1194.6 3437.5,1197C 3406.97,1201.22 3376.31,1202.55 3345.5,1201C 3316.81,1199.27 3288.15,1197.27 3259.5,1195C 3244.01,1193.18 3237.01,1184.52 3238.5,1169C 3238.88,1161.16 3239.38,1153.33 3240,1145.5C 3240.94,1138.77 3244.44,1133.94 3250.5,1131C 3302.41,1128.4 3354.08,1124.23 3405.5,1118.5 Z"/></g>
<g><path style="opacity:1" fill="#8a898e" d="M 3367.5,1234.5 C 3390.53,1235.04 3413.53,1236.21 3436.5,1238C 3441.11,1240.62 3444.28,1244.45 3446,1249.5C 3447.41,1274.49 3447.74,1299.49 3447,1324.5C 3446.05,1327.2 3444.22,1328.03 3441.5,1327C 3417.74,1298.57 3393.24,1270.74 3368,1243.5C 3365.23,1240.47 3365.06,1237.47 3367.5,1234.5 Z"/></g>
<g><path style="opacity:1" fill="#ed2722" d="M 3253.5,1255.5 C 3257.06,1255.41 3260.39,1256.24 3263.5,1258C 3272.74,1263.9 3281.4,1270.57 3289.5,1278C 3357.77,1343.89 3414.93,1418.06 3461,1500.5C 3465.56,1513.77 3467.9,1527.44 3468,1541.5C 3468.67,1599.5 3468.67,1657.5 3468,1715.5C 3467.46,1720.6 3464.96,1721.77 3460.5,1719C 3457.33,1715.17 3454.17,1711.33 3451,1707.5C 3396.74,1621.58 3339.74,1537.58 3280,1455.5C 3268.06,1439.62 3258.73,1422.29 3252,1403.5C 3248.69,1388.35 3247.02,1373.02 3247,1357.5C 3246.33,1331.17 3246.33,1304.83 3247,1278.5C 3247.34,1273.45 3248,1268.45 3249,1263.5C 3249.74,1260.35 3251.24,1257.68 3253.5,1255.5 Z"/></g>
<g><path style="opacity:1" fill="#c1923d" d="M 3814.5,1358.5 C 4033.79,1467.89 4221.96,1617.22 4379,1806.5C 4381.81,1809.46 4383.98,1812.8 4385.5,1816.5C 4324.5,1816.5 4263.5,1816.5 4202.5,1816.5C 4201.58,2005.32 4206.41,2193.99 4217,2382.5C 4224.97,2508.83 4240.64,2634.17 4264,2758.5C 4307.37,2981.99 4387.71,3190.99 4505,3385.5C 4541.11,3446.08 4579.95,3504.75 4621.5,3561.5C 4502.7,3829.55 4327.03,4053.05 4094.5,4232C 3966.16,4329.54 3826.16,4407.54 3674.5,4466C 3669.66,4468.09 3664.66,4469.59 3659.5,4470.5C 3623.54,4446.51 3587.2,4423.01 3550.5,4400C 3473.5,4353.83 3396.16,4308.16 3318.5,4263C 3255.41,4225.13 3194.74,4183.8 3136.5,4139C 3102.17,4112.35 3070.67,4082.51 3042,4049.5C 3027.01,4030.86 3014.01,4010.86 3003,3989.5C 2966.8,3905.45 2986.97,3838.95 3063.5,3790C 3105.26,3766.08 3149.93,3750.08 3197.5,3742C 3236.52,3735.03 3275.86,3731.03 3315.5,3730C 3500.83,3729.5 3686.17,3729.33 3871.5,3729.5C 3871.5,3601.17 3871.5,3472.83 3871.5,3344.5C 3675.5,3344.07 3479.5,3344.57 3283.5,3346C 3208.79,3347.88 3134.45,3354.22 3060.5,3365C 2935.07,3382.01 2821.4,3427.34 2719.5,3501C 2683.98,3526.51 2650.81,3555.01 2620,3586.5C 2532.17,3686.11 2488.33,3802.78 2488.5,3936.5C 2485.45,4039.67 2511.95,4134.34 2568,4220.5C 2595.62,4261.47 2626.29,4300.14 2660,4336.5C 2721.12,4399.71 2786.28,4457.88 2855.5,4511C 2883.4,4531.75 2911.4,4552.25 2939.5,4572.5C 2587.43,4544.04 2274.43,4419.87 2000.5,4200C 1963.44,4169.45 1927.44,4137.61 1892.5,4104.5C 1892.5,3341.83 1892.5,2579.17 1892.5,1816.5C 1844.83,1816.5 1797.17,1816.5 1749.5,1816.5C 1890.65,1641.8 2059.31,1500.63 2255.5,1393C 2277.31,1380.76 2299.64,1369.6 2322.5,1359.5C 2347.51,1406.51 2365.17,1456.18 2375.5,1508.5C 2388.69,1574.24 2397.19,1640.57 2401,1707.5C 2404.29,1793.15 2407.29,1878.82 2410,1964.5C 2410.69,1993.06 2412.52,2021.4 2415.5,2049.5C 2422.77,2197.7 2452.61,2341.03 2505,2479.5C 2513.67,2501.49 2522.83,2523.15 2532.5,2544.5C 2586.76,2662.44 2654.59,2771.44 2736,2871.5C 2817.91,2967.79 2913.74,3046.62 3023.5,3108C 3038.07,3115.45 3052.73,3122.62 3067.5,3129.5C 3067.83,3129.5 3068.17,3129.5 3068.5,3129.5C 3082.6,3122.95 3096.6,3116.12 3110.5,3109C 3211.02,3052.92 3300.19,2982.09 3378,2896.5C 3425.29,2842.55 3467.96,2785.22 3506,2724.5C 3606.71,2568.41 3672.04,2398.41 3702,2214.5C 3715.87,2123.35 3724.2,2031.69 3727,1939.5C 3728.34,1852.42 3731.67,1765.42 3737,1678.5C 3741.84,1606.1 3753.18,1534.77 3771,1464.5C 3781.14,1427.23 3795.64,1391.9 3814.5,1358.5 Z"/></g>
<g><path style="opacity:1" fill="#fefefe" d="M 2375.5,1508.5 C 2606.17,1508.5 2836.83,1508.5 3067.5,1508.5C 3067.5,1688.5 3067.5,1868.5 3067.5,2048.5C 2850.18,2049.49 2632.85,2049.83 2415.5,2049.5C 2412.52,2021.4 2410.69,1993.06 2410,1964.5C 2407.29,1878.82 2404.29,1793.15 2401,1707.5C 2397.19,1640.57 2388.69,1574.24 2375.5,1508.5 Z"/></g>
<g><path style="opacity:1" fill="#8a898e" d="M 3246.5,1561.5 C 3249.56,1561.14 3252.23,1561.98 3254.5,1564C 3270.37,1580.87 3285.87,1598.03 3301,1615.5C 3344.29,1669.12 3387.96,1722.46 3432,1775.5C 3444.1,1790.27 3455.44,1805.6 3466,1821.5C 3468.11,1826.28 3469.45,1831.28 3470,1836.5C 3471.02,1849.48 3471.52,1862.48 3471.5,1875.5C 3470.29,1911.49 3469.45,1947.49 3469,1983.5C 3469.9,1992.98 3466.4,1995.48 3458.5,1991C 3397.9,1928.07 3338.4,1864.24 3280,1799.5C 3270.6,1788.37 3261.94,1776.7 3254,1764.5C 3249,1755.49 3246.33,1745.82 3246,1735.5C 3244.37,1679.17 3243.7,1622.84 3244,1566.5C 3244.37,1564.55 3245.2,1562.88 3246.5,1561.5 Z"/></g>
<g><path style="opacity:1" fill="#9c2321" d="M 5230.5,1814.5 C 5231.04,1814.56 5231.38,1814.89 5231.5,1815.5C 5100.17,1816.5 4968.84,1816.83 4837.5,1816.5C 4837.5,1816.17 4837.5,1815.83 4837.5,1815.5C 4968.67,1815.83 5099.67,1815.5 5230.5,1814.5 Z"/></g>
<g><path style="opacity:1" fill="#5d5a5a" d="M 61.5,1877.5 C 179.665,1876.5 297.999,1876.17 416.5,1876.5C 416.823,1882.69 416.49,1888.69 415.5,1894.5C 415.5,1888.83 415.5,1883.17 415.5,1877.5C 297.5,1877.5 179.5,1877.5 61.5,1877.5 Z"/></g>
<g><path style="opacity:1" fill="#fefefe" d="M 61.5,1877.5 C 179.5,1877.5 297.5,1877.5 415.5,1877.5C 415.5,1883.17 415.5,1888.83 415.5,1894.5C 412.795,2144.31 435.961,2391.64 485,2636.5C 512.627,2772.38 552.96,2904.38 606,3032.5C 681.804,3208.64 789.97,3361.81 930.5,3492C 1075.62,3624.97 1238.96,3730.97 1420.5,3810C 1435.33,3816.33 1450.33,3822.16 1465.5,3827.5C 1465.56,3828.04 1465.89,3828.38 1466.5,3828.5C 1467.5,3178.17 1467.83,2527.83 1467.5,1877.5C 1588.83,1877.5 1710.17,1877.5 1831.5,1877.5C 1831.5,2636.83 1831.5,3396.17 1831.5,4155.5C 1814.83,4155.5 1798.17,4155.5 1781.5,4155.5C 1542.68,4145.84 1313.02,4095 1092.5,4003C 668.469,3822.3 371.302,3517.8 201,3089.5C 135.34,2922.52 95.34,2749.52 81,2570.5C 68.8255,2415.74 62.1588,2260.74 61,2105.5C 60.1678,2029.33 60.3344,1953.33 61.5,1877.5 Z"/></g>
<g><path style="opacity:1" fill="#979596" d="M 1467.5,1877.5 C 1589,1876.5 1710.67,1876.17 1832.5,1876.5C 1832.5,2636.5 1832.5,3396.5 1832.5,4156.5C 1815.33,4156.83 1798.33,4156.5 1781.5,4155.5C 1798.17,4155.5 1814.83,4155.5 1831.5,4155.5C 1831.5,3396.17 1831.5,2636.83 1831.5,1877.5C 1710.17,1877.5 1588.83,1877.5 1467.5,1877.5 Z"/></g>
<g><path style="opacity:1" fill="#fefefe" d="M 4263.5,1877.5 C 4862.17,1877.5 5460.83,1877.5 6059.5,1877.5C 6059.5,2193.17 6059.5,2508.83 6059.5,2824.5C 5943.83,2824.5 5828.17,2824.5 5712.5,2824.5C 5712.5,2625.17 5712.5,2425.83 5712.5,2226.5C 5362.67,2225.5 5012.67,2225.17 4662.5,2225.5C 4662.17,2258.67 4662.5,2291.67 4663.5,2324.5C 4662.66,2485.42 4679.49,2644.42 4714,2801.5C 4771.5,3046.2 4882.83,3261.86 5048,3448.5C 5184.66,3605.1 5349.49,3722.27 5542.5,3800C 5708.75,3866.15 5881.08,3905.32 6059.5,3917.5C 6059.5,4001.5 6059.5,4085.5 6059.5,4169.5C 6054.5,4169.5 6049.5,4169.5 6044.5,4169.5C 5769.17,4161.17 5506.51,4099.67 5256.5,3985C 5074.23,3900.36 4912.73,3786.53 4772,3643.5C 4725.56,3595.09 4682.9,3543.75 4644,3489.5C 4559.66,3368.88 4488.66,3240.21 4431,3103.5C 4369.97,2953.38 4327.97,2798.05 4305,2637.5C 4289.29,2526.66 4278.62,2415.33 4273,2303.5C 4266.59,2161.58 4263.42,2019.58 4263.5,1877.5 Z"/></g>
<g><path style="opacity:1" fill="#918f90" d="M 4263.5,1877.5 C 4862.33,1876.5 5461.33,1876.17 6060.5,1876.5C 6060.83,2192.67 6060.5,2508.67 6059.5,2824.5C 6059.5,2508.83 6059.5,2193.17 6059.5,1877.5C 5460.83,1877.5 4862.17,1877.5 4263.5,1877.5 Z"/></g>
<g><path style="opacity:1" fill="#ed2722" d="M 3257.5,1946.5 C 3265.19,1946.84 3271.86,1949.68 3277.5,1955C 3303.95,1977.06 3330.95,1998.39 3358.5,2019C 3367.81,2026.59 3376.64,2034.75 3385,2043.5C 3393.4,2054.36 3398.07,2066.7 3399,2080.5C 3399.63,2091.76 3398.3,2102.76 3395,2113.5C 3387.55,2120.37 3378.72,2123.37 3368.5,2122.5C 3350.3,2121.87 3333.3,2117.03 3317.5,2108C 3297.54,2096.77 3278.71,2083.94 3261,2069.5C 3257.48,2061.21 3255.48,2052.55 3255,2043.5C 3253.49,2013.85 3252.82,1984.18 3253,1954.5C 3253.74,1951.35 3255.24,1948.68 3257.5,1946.5 Z"/></g>
<g><path style="opacity:1" fill="#ed2722" d="M 3067.5,2048.5 C 3067.5,2213.83 3067.5,2379.17 3067.5,2544.5C 2889.17,2544.5 2710.83,2544.5 2532.5,2544.5C 2522.83,2523.15 2513.67,2501.49 2505,2479.5C 2452.61,2341.03 2422.77,2197.7 2415.5,2049.5C 2632.85,2049.83 2850.18,2049.49 3067.5,2048.5 Z"/></g>
<g><path style="opacity:1" fill="#fefefe" d="M 3500.5,2078.5 C 3527.44,2078.05 3548.28,2089.05 3563,2111.5C 3569.42,2124.92 3572.25,2139.09 3571.5,2154C 3571.76,2169.04 3570.26,2183.87 3567,2198.5C 3563.07,2213.43 3553.9,2223.6 3539.5,2229C 3534.6,2229.94 3529.93,2229.27 3525.5,2227C 3521.03,2223.53 3516.87,2219.7 3513,2215.5C 3491.67,2183.84 3477.84,2149.17 3471.5,2111.5C 3471.88,2101.58 3475.88,2093.41 3483.5,2087C 3488.73,2083.1 3494.4,2080.27 3500.5,2078.5 Z"/></g>
<g><path style="opacity:1" fill="#fefefd" d="M 3227.5,2081.5 C 3240.96,2080.13 3248.8,2086.13 3251,2099.5C 3252.22,2119.81 3252.88,2140.14 3253,2160.5C 3253.88,2171.48 3256.22,2182.15 3260,2192.5C 3265.73,2204.29 3271.73,2215.96 3278,2227.5C 3282.61,2240.91 3283.61,2254.58 3281,2268.5C 3277.68,2278.81 3270.51,2283.14 3259.5,2281.5C 3252.29,2281.23 3245.96,2278.73 3240.5,2274C 3221.17,2255.51 3209,2233.01 3204,2206.5C 3198.5,2179.38 3196.84,2152.05 3199,2124.5C 3201.53,2109.27 3208.36,2096.44 3219.5,2086C 3222.1,2084.2 3224.77,2082.7 3227.5,2081.5 Z"/></g>
<g><path style="opacity:1" fill="#fefefe" d="M 3413.5,2136.5 C 3420.67,2136.01 3427.67,2136.84 3434.5,2139C 3437.1,2139.88 3439.27,2141.38 3441,2143.5C 3444.51,2148.51 3447.51,2153.84 3450,2159.5C 3457.6,2185.72 3470.6,2208.72 3489,2228.5C 3501.21,2250.38 3498.38,2270.21 3480.5,2288C 3470.51,2294.88 3459.51,2297.21 3447.5,2295C 3438.25,2292.45 3430.75,2287.29 3425,2279.5C 3406.27,2251.7 3393.27,2221.36 3386,2188.5C 3378.18,2161.8 3387.34,2144.47 3413.5,2136.5 Z"/></g>
<g><path style="opacity:1" fill="#fefefd" d="M 3315.5,2139.5 C 3333.86,2137.69 3344.03,2146.02 3346,2164.5C 3345.43,2192.45 3353.1,2217.79 3369,2240.5C 3375.71,2247.54 3382.04,2254.87 3388,2262.5C 3400.38,2280.58 3397.55,2295.75 3379.5,2308C 3368.22,2313.99 3356.22,2316.33 3343.5,2315C 3335.41,2312.87 3328.91,2308.37 3324,2301.5C 3312.4,2283.63 3304.07,2264.3 3299,2243.5C 3292.28,2218.59 3288.95,2193.25 3289,2167.5C 3292.25,2152.76 3301.08,2143.42 3315.5,2139.5 Z"/></g>
<g><path style="opacity:1" fill="#7b7979" d="M 5712.5,2226.5 C 5362.83,2226.5 5013.17,2226.5 4663.5,2226.5C 4663.5,2259.17 4663.5,2291.83 4663.5,2324.5C 4662.5,2291.67 4662.17,2258.67 4662.5,2225.5C 5012.67,2225.17 5362.67,2225.5 5712.5,2226.5 Z"/></g>
<g><path style="opacity:1" fill="#717074" d="M 5046.5,2286.5 C 5046.5,2286.83 5046.5,2287.17 5046.5,2287.5C 4939.17,2287.5 4831.83,2287.5 4724.5,2287.5C 4724.5,2309.5 4724.5,2331.5 4724.5,2353.5C 4723.5,2331.34 4723.17,2309.01 4723.5,2286.5C 4831.17,2286.5 4938.83,2286.5 5046.5,2286.5 Z"/></g>
<g><path style="opacity:1" fill="#c42521" d="M 5046.5,2286.5 C 5165.67,2286.17 5284.67,2286.5 5403.5,2287.5C 5284.5,2286.84 5165.83,2287.5 5047.5,2289.5C 5046.66,2289.16 5046.33,2288.49 5046.5,2287.5C 5046.5,2287.17 5046.5,2286.83 5046.5,2286.5 Z"/></g>
<g><path style="opacity:1" fill="#89888e" d="M 5046.5,2287.5 C 5046.33,2288.49 5046.66,2289.16 5047.5,2289.5C 5147.06,2629.71 5160.23,2973.38 5087,3320.5C 5082.16,3341.18 5077.33,3361.85 5072.5,3382.5C 4928.48,3213.48 4829.98,3020.14 4777,2802.5C 4742.94,2654.83 4725.44,2505.17 4724.5,2353.5C 4724.5,2331.5 4724.5,2309.5 4724.5,2287.5C 4831.83,2287.5 4939.17,2287.5 5046.5,2287.5 Z"/></g>
<g><path style="opacity:1" fill="#ed2722" d="M 5403.5,2287.5 C 5405.23,2289.09 5406.4,2291.09 5407,2293.5C 5491.57,2639.39 5501.24,2987.39 5436,3337.5C 5416.59,3438.48 5390.92,3537.81 5359,3635.5C 5358.59,3635.96 5358.09,3636.29 5357.5,3636.5C 5248.93,3567.63 5153.93,3482.96 5072.5,3382.5C 5077.33,3361.85 5082.16,3341.18 5087,3320.5C 5160.23,2973.38 5147.06,2629.71 5047.5,2289.5C 5165.83,2287.5 5284.5,2286.84 5403.5,2287.5 Z"/></g>
<g><path style="opacity:1" fill="#fefefe" d="M 2532.5,2544.5 C 2710.83,2544.5 2889.17,2544.5 3067.5,2544.5C 3067.5,2739.5 3067.5,2934.5 3067.5,3129.5C 3052.73,3122.62 3038.07,3115.45 3023.5,3108C 2913.74,3046.62 2817.91,2967.79 2736,2871.5C 2654.59,2771.44 2586.76,2662.44 2532.5,2544.5 Z"/></g>
<g><path style="opacity:1" fill="#c1923d" d="M 1404.5,2551.5 C 1405.83,2772.17 1405.83,2992.83 1404.5,3213.5C 1388.38,3131.92 1378.21,3049.59 1374,2966.5C 1367.09,2826.82 1377.25,2688.49 1404.5,2551.5 Z"/></g>
<g><path style="opacity:1" fill="#b58a3a" d="M 1406.5,2543.5 C 1406.5,2769.5 1406.5,2995.5 1406.5,3221.5C 1405.47,3219.04 1404.8,3216.37 1404.5,3213.5C 1405.83,2992.83 1405.83,2772.17 1404.5,2551.5C 1404.96,2548.67 1405.63,2546 1406.5,2543.5 Z"/></g>
<g><path style="opacity:1" fill="#fefefe" d="M 3351.5,3405.5 C 3504.5,3405.5 3657.5,3405.5 3810.5,3405.5C 3810.5,3493.17 3810.5,3580.83 3810.5,3668.5C 3646.33,3668.17 3482.33,3668.5 3318.5,3669.5C 3251.08,3670.4 3185.08,3680.23 3120.5,3699C 3072.79,3713.18 3030.13,3736.18 2992.5,3768C 2931.98,3824.83 2912.15,3893.66 2933,3974.5C 2944.37,4011.92 2962.04,4045.92 2986,4076.5C 3006.69,4102.53 3029.53,4126.7 3054.5,4149C 3110.45,4197.63 3169.78,4241.63 3232.5,4281C 3253.5,4294 3274.5,4307 3295.5,4320C 3389.66,4373.91 3482.66,4429.57 3574.5,4487C 3648.42,4533.9 3718.09,4586.57 3783.5,4645C 3829.01,4687.14 3868.51,4733.98 3902,4785.5C 3932.13,4834.78 3953.13,4887.78 3965,4944.5C 3996.08,5082.42 3984.08,5216.42 3929,5346.5C 3882.85,5451.3 3818.68,5543.47 3736.5,5623C 3683.44,5671.3 3623.11,5708.3 3555.5,5734C 3484.65,5760.03 3411.65,5777.03 3336.5,5785C 3278.33,5791.23 3219.99,5794.73 3161.5,5795.5C 2962.17,5795.5 2762.83,5795.5 2563.5,5795.5C 2563.5,5704.5 2563.5,5613.5 2563.5,5522.5C 2751.51,5522.94 2939.51,5522.44 3127.5,5521C 3196.82,5518.74 3265.16,5509.41 3332.5,5493C 3458.44,5459.39 3544.94,5381.89 3592,5260.5C 3630.64,5159.44 3621.31,5063.1 3564,4971.5C 3536.01,4928.82 3502.84,4890.32 3464.5,4856C 3411.52,4810.68 3355.85,4769.02 3297.5,4731C 3217.17,4679.17 3136.51,4627.83 3055.5,4577C 2970.23,4522.4 2888.89,4462.4 2811.5,4397C 2761.98,4353.81 2715.48,4307.64 2672,4258.5C 2636.76,4217.55 2607.43,4172.55 2584,4123.5C 2567.89,4086.74 2557.56,4048.41 2553,4008.5C 2541.64,3923.42 2550.97,3840.75 2581,3760.5C 2605.76,3700.09 2641.93,3647.59 2689.5,3603C 2744.48,3553.65 2805.48,3512.98 2872.5,3481C 2929.59,3455.86 2988.92,3438.19 3050.5,3428C 3116.39,3417.19 3182.73,3410.52 3249.5,3408C 3283.48,3406.32 3317.48,3405.49 3351.5,3405.5 Z"/></g>
<g><path style="opacity:1" fill="#a7a6a6" d="M 3351.5,3405.5 C 3504.67,3404.5 3658,3404.17 3811.5,3404.5C 3811.5,3492.83 3811.5,3581.17 3811.5,3669.5C 3647.17,3669.5 3482.83,3669.5 3318.5,3669.5C 3482.33,3668.5 3646.33,3668.17 3810.5,3668.5C 3810.5,3580.83 3810.5,3493.17 3810.5,3405.5C 3657.5,3405.5 3504.5,3405.5 3351.5,3405.5 Z"/></g>
<g><path style="opacity:1" fill="#5f5c5c" d="M 1467.5,1877.5 C 1467.83,2527.83 1467.5,3178.17 1466.5,3828.5C 1465.89,3828.38 1465.56,3828.04 1465.5,3827.5C 1466.17,3177.5 1466.83,2527.5 1467.5,1877.5 Z"/></g>
<g><path style="opacity:1" fill="#89888e" d="M 4621.5,3561.5 C 4702.17,3665.5 4794.5,3757.83 4898.5,3838.5C 4737.4,4144.81 4513.73,4395.97 4227.5,4592C 4141.74,4650.24 4051.74,4701.91 3957.5,4747C 3955.56,4747.81 3953.56,4748.31 3951.5,4748.5C 3906.07,4681.54 3852.07,4621.7 3789.5,4569C 3747.69,4534 3704.35,4501.17 3659.5,4470.5C 3664.66,4469.59 3669.66,4468.09 3674.5,4466C 3826.16,4407.54 3966.16,4329.54 4094.5,4232C 4327.03,4053.05 4502.7,3829.55 4621.5,3561.5 Z"/></g>
<g><path style="opacity:1" fill="#ed2722" d="M 4898.5,3838.5 C 4990.61,3908.76 5088.95,3969.76 5193.5,4021.5C 5006.14,4366.06 4750.81,4650.23 4427.5,4874C 4314.03,4951.6 4194.36,5019.26 4068.5,5077C 4059.91,5080.8 4051.25,5084.3 4042.5,5087.5C 4041.82,4994.24 4023.65,4904.58 3988,4818.5C 3976.57,4794.63 3964.4,4771.3 3951.5,4748.5C 3953.56,4748.31 3955.56,4747.81 3957.5,4747C 4051.74,4701.91 4141.74,4650.24 4227.5,4592C 4513.73,4395.97 4737.4,4144.81 4898.5,3838.5 Z"/></g>
<g><path style="opacity:1" fill="#827f80" d="M 6059.5,3917.5 C 6060.5,4001.67 6060.83,4086 6060.5,4170.5C 6054.97,4170.82 6049.64,4170.49 6044.5,4169.5C 6049.5,4169.5 6054.5,4169.5 6059.5,4169.5C 6059.5,4085.5 6059.5,4001.5 6059.5,3917.5 Z"/></g>
<g><path style="opacity:1" fill="#ed2722" d="M 1461.5,4180.5 C 1700.87,4474.08 1998.2,4687.58 2353.5,4821C 2706.37,4948.66 3067.7,4979.83 3437.5,4914.5C 3477.01,4950.53 3508.51,4992.53 3532,5040.5C 3561.95,5109.5 3561.79,5178.5 3531.5,5247.5C 3527.94,5248.97 3524.27,5250.13 3520.5,5251C 3169.52,5316.02 2820.85,5305.69 2474.5,5220C 2087.91,5120.26 1747.58,4937.93 1453.5,4673C 1242.68,4482.23 1070.51,4262.07 937,4012.5C 933.318,4005.48 929.985,3998.48 927,3991.5C 1093.21,4078.57 1268.38,4140.4 1452.5,4177C 1455.83,4177.49 1458.83,4178.66 1461.5,4180.5 Z"/></g>
<g><path style="opacity:1" fill="#89888e" d="M 1892.5,4104.5 C 1927.44,4137.61 1963.44,4169.45 2000.5,4200C 2274.43,4419.87 2587.43,4544.04 2939.5,4572.5C 3026.76,4630.81 3115.09,4687.64 3204.5,4743C 3268.71,4783.22 3330.71,4826.55 3390.5,4873C 3406.95,4885.95 3422.62,4899.79 3437.5,4914.5C 3067.7,4979.83 2706.37,4948.66 2353.5,4821C 1998.2,4687.58 1700.87,4474.08 1461.5,4180.5C 1462.1,4179.86 1462.93,4179.53 1464,4179.5C 1560.9,4198.98 1658.73,4211.14 1757.5,4216C 1802.52,4216.8 1847.52,4216.3 1892.5,4214.5C 1892.5,4177.83 1892.5,4141.17 1892.5,4104.5 Z"/></g>
<g><path style="opacity:1" fill="#8f8d8d" d="M 2563.5,5522.5 C 2563.5,5613.5 2563.5,5704.5 2563.5,5795.5C 2762.83,5795.5 2962.17,5795.5 3161.5,5795.5C 2962,5796.5 2762.33,5796.83 2562.5,5796.5C 2562.17,5705 2562.5,5613.67 2563.5,5522.5 Z"/></g>
</svg>
