<svg xmlns="http://www.w3.org/2000/svg" width="754.225" height="961.56"><defs><clipPath id="a" clipPathUnits="userSpaceOnUse"><path d="M0 1080h1080V0H0Z"/></clipPath></defs><g clip-path="url(#a)" transform="matrix(1.33333 0 0 -1.33333 -342.888 1200.046)"><path d="M0 0c100.416 0 92.242-89.324 92.242-89.324v-385.32c0-8.757-5.256-75.899-44.954-122.602C.656-652.108-60.717-659.132-97.502-668.47c-36.776-9.342-82.905-31.53-82.905-31.53s-46.118 22.188-82.88 31.53c-36.776 9.338-98.152 16.362-144.782 71.224-39.701 46.703-44.955 113.845-44.955 122.602v385.32S-461.197 0-360.782 0z" style="fill:#fff;fill-opacity:1;fill-rule:nonzero;stroke:none" transform="translate(720.39 890)"/><path d="M0 0c100.416 0 92.242-89.324 92.242-89.324v-385.32c0-8.757-5.256-75.899-44.954-122.602C.656-652.108-60.717-659.132-97.502-668.47c-36.776-9.342-82.905-31.53-82.905-31.53s-46.118 22.188-82.88 31.53c-36.776 9.338-98.152 16.362-144.782 71.224-39.701 46.703-44.955 113.845-44.955 122.602v385.32S-461.197 0-360.782 0z" style="fill:none;stroke:#06002b;stroke-width:20.069;stroke-linecap:butt;stroke-linejoin:miter;stroke-miterlimit:4;stroke-dasharray:none;stroke-opacity:1" transform="translate(720.39 890)"/><path d="M0 0s4.815-.874 15.906 12.116" style="fill:none;stroke:#e60000;stroke-width:3.041;stroke-linecap:butt;stroke-linejoin:miter;stroke-miterlimit:4;stroke-dasharray:none;stroke-opacity:1" transform="translate(564.802 467.605)"/><path d="M0 0s1.169 17.806-3.066 29.774" style="fill:none;stroke:#e60000;stroke-width:3.041;stroke-linecap:butt;stroke-linejoin:miter;stroke-miterlimit:4;stroke-dasharray:none;stroke-opacity:1" transform="translate(564.945 451.696)"/><path d="M0 0s14.642 11.961 29.503 11.961S59.002 0 59.002 0" style="fill:none;stroke:#e60000;stroke-width:3.041;stroke-linecap:butt;stroke-linejoin:miter;stroke-miterlimit:4;stroke-dasharray:none;stroke-opacity:1" transform="translate(510.466 491.107)"/><path d="M0 0c.585-4.669 10.512-14.885 10.512-14.885 7.387 6.908 21.895 6.894 21.895 6.894h.028s14.503.014 21.895-6.894c0 0 9.928 10.216 10.512 14.885" style="fill:none;stroke:#e60000;stroke-width:3.041;stroke-linecap:butt;stroke-linejoin:miter;stroke-miterlimit:4;stroke-dasharray:none;stroke-opacity:1" transform="translate(507.549 496.505)"/><path d="M0 0s4.015-15.181 3.574-28.754" style="fill:none;stroke:#e60000;stroke-width:3.041;stroke-linecap:butt;stroke-linejoin:miter;stroke-miterlimit:4;stroke-dasharray:none;stroke-opacity:1" transform="translate(547.041 487.895)"/><path d="M0 0s-4.815-.874-15.906 12.116" style="fill:none;stroke:#e60000;stroke-width:3.041;stroke-linecap:butt;stroke-linejoin:miter;stroke-miterlimit:4;stroke-dasharray:none;stroke-opacity:1" transform="translate(515.138 467.605)"/><path d="M0 0s-1.169 17.806 3.066 29.774" style="fill:none;stroke:#e60000;stroke-width:3.041;stroke-linecap:butt;stroke-linejoin:miter;stroke-miterlimit:4;stroke-dasharray:none;stroke-opacity:1" transform="translate(514.994 451.696)"/><path d="M0 0s-4.015-15.181-3.579-28.754" style="fill:none;stroke:#e60000;stroke-width:3.041;stroke-linecap:butt;stroke-linejoin:miter;stroke-miterlimit:4;stroke-dasharray:none;stroke-opacity:1" transform="translate(532.898 487.895)"/><path d="M0 0c-23.323 0-42.237-18.91-42.237-42.24 0-23.328 18.914-42.238 42.237-42.238 23.333 0 42.243 18.91 42.243 42.238C42.243-18.91 23.333 0 0 0Z" style="fill:none;stroke:#e60000;stroke-width:3.041;stroke-linecap:butt;stroke-linejoin:miter;stroke-miterlimit:4;stroke-dasharray:none;stroke-opacity:1" transform="translate(539.984 512.902)"/><path d="m0 0 3.739 8.123q6.828-2.828 9.695-7.785 2.865-4.951 1.995-11.903-1.078-8.607-7.65-13.409-6.572-4.804-16.764-3.523-10.788 1.348-16.055 7.666-5.27 6.315-4.135 15.393.996 7.924 6.3 12.287 3.14 2.597 8.509 3.423l.98-8.892q-3.453-.345-5.701-2.532c-1.5-1.459-2.396-3.344-2.686-5.663q-.602-4.807 2.47-8.226 3.074-3.424 10.792-4.389 8.192-1.026 12.037 1.483 3.848 2.511 4.437 7.224c.292 2.319-.197 4.406-1.459 6.26Q4.607-1.683 0 0" style="fill:#06002b;fill-opacity:1;fill-rule:nonzero;stroke:none" transform="translate(332.544 603.572)"/><path d="m0 0 .594 1.677q1.012 2.855 1.942 4.008.925 1.15 2.59 1.885 1.664.733 7.577 2.228l11.053 2.824 3.512 9.908-9.781-2.173q-5.837-1.271-8.331-2.352-2.497-1.088-5.017-3.217c.755 3.787.451 6.937-.915 9.46Q1.18 28.031-3.44 29.666q-3.639 1.29-7.101.501-3.459-.788-5.622-3.375-2.165-2.593-4.494-9.168L-26.839.189l41.03-14.547 2.937 8.283zm-14.671 12.476c1.194 3.359 1.953 5.359 2.286 5.996q1.049 1.896 2.717 2.551 1.663.651 3.734-.081 1.847-.654 2.781-1.931.933-1.276.913-2.937-.024-1.664-2.137-7.625l-2.173-6.13-10.411 3.694Z" style="fill:#06002b;fill-opacity:1;fill-rule:nonzero;stroke:none" transform="translate(336.708 629.77)"/><path d="m0 0-17.336-28.208-37.09 22.796 16.903 27.496 6.274-3.854-12.299-20.012 8.222-5.053 11.443 18.621 6.25-3.84-11.446-18.621 10.097-6.204L-6.25 3.84Z" style="fill:#06002b;fill-opacity:1;fill-rule:nonzero;stroke:none" transform="translate(383.317 683.279)"/><path d="m0 0-6.801-6.681-37.921 23.771 6.42 6.305 25.634-16.731-15.276 26.907 7.455 7.326L6.264 24.554-10.28 50.927l6.313 6.202 22.966-38.463-6.651-6.535-28.992 17.14z" style="fill:#06002b;fill-opacity:1;fill-rule:nonzero;stroke:none" transform="translate(397.686 699.613)"/><path d="m0 0-28.387-17.032-22.398 37.327 27.68 16.608 3.788-6.314-20.142-12.086 4.966-8.274 18.742 11.242 3.771-6.288-18.74-11.244 6.096-10.16L-3.768 6.291z" style="fill:#06002b;fill-opacity:1;fill-rule:nonzero;stroke:none" transform="translate(454.939 742.622)"/><path d="m0 0-5.608-46.382 9.027 2.317 1.025 10.47 16.848 4.324 6.137-8.633 9.261 2.374L8.998 2.309Zm6.921-8.71 9.816-14.157-11.498-2.949z" style="fill:#06002b;fill-opacity:1;fill-rule:nonzero;stroke:none" transform="translate(475.904 796.17)"/><path d="m0 0-30.595-1.662-2.343 43.11 8.772.476 1.95-35.789L-.393 7.321z" style="fill:#06002b;fill-opacity:1;fill-rule:nonzero;stroke:none" transform="translate(545.978 761.945)"/><path d="m0 0-32.818 4.386 5.768 43.148 31.995-4.278-.978-7.299-23.28 3.114-1.279-9.568 21.665-2.894-.972-7.272-21.665 2.898-1.572-11.745L.973 7.268Z" style="fill:#06002b;fill-opacity:1;fill-rule:nonzero;stroke:none" transform="translate(583.094 757.317)"/><path d="m0 0-9.966 3.431 21.459 16.641L5.509 44.14l9.722-3.341 3.703-16.065 12.639 10.444 9.63-3.312-19.682-15.588 6.784-26.013-10.023 3.449-4.23 17.375Z" style="fill:#06002b;fill-opacity:1;fill-rule:nonzero;stroke:none" transform="translate(594.027 753.97)"/><path d="m0 0-37.504-27.851 7.896-4.958 8.298 6.463L-6.573-35.6l-2.036-10.394 8.097-5.086L7.877-4.944zm-1.552-11.017-3.507-16.869-10.061 6.314z" style="fill:#06002b;fill-opacity:1;fill-rule:nonzero;stroke:none" transform="translate(662.122 771.21)"/><path d="m0 0-5.845 5.704 30.409 31.153 6.118-5.972-7.556-33.247 20.305 20.803 5.845-5.702-30.404-31.156-6.31 6.159 7.268 32.574z" style="fill:#06002b;fill-opacity:1;fill-rule:nonzero;stroke:none" transform="translate(669.098 712.55)"/><path d="M0 0c1.797-2.702 3.493-4.691 5.078-5.962 2.132-1.699 4.24-2.767 6.32-3.213 2.755-.591 5.744-.462 8.988.388 2.649.699 5.461 2.041 8.446 4.03q5.087 3.394 7.766 6.894 2.682 3.5 3.565 7.371a14.6 14.6 0 0 1-.306 7.685c-.595 1.887-1.893 4.34-3.905 7.354l-8.916 13.364L-9.18 13.76Zm31.635 16.994c.618-1.565.8-3.074.556-4.523q-.375-2.172-2.122-4.412-1.757-2.242-5.956-5.043C21.31 1.15 18.939-.079 16.984-.666c-1.95-.587-3.545-.726-4.767-.417-1.236.312-2.391.961-3.483 1.948Q7.483 1.992 5.443 5.057l-3.646 5.459L25.79 26.514l2.19-3.287q2.981-4.471 3.655-6.233" style="fill:#06002b;fill-opacity:1;fill-rule:nonzero;stroke:none" transform="translate(701.26 675.505)"/><path d="m0 0 .656-1.655c.748-1.878 1.136-3.308 1.174-4.296q.059-1.474-.709-3.123-.768-1.646-4.245-6.665l-6.463-9.395 3.871-9.774L.22-26.837c2.377 3.198 3.948 5.617 4.729 7.254.781 1.638 1.332 3.545 1.662 5.722q2.882-5.023 6.914-6.523 4.024-1.505 8.581.302c2.391.947 4.288 2.379 5.682 4.293q2.086 2.871 2.007 6.245-.071 3.372-2.644 9.857l-6.813 17.2-40.47-16.035 3.234-8.174zm19.26.252q1.963-4.969 2.223-6.018c.302-1.414.182-2.647-.369-3.709q-.825-1.585-2.865-2.395-1.825-.721-3.363-.376c-1.035.233-1.902.769-2.626 1.615-.714.845-1.849 3.224-3.401 7.145L6.458 2.558l10.272 4.07Z" style="fill:#06002b;fill-opacity:1;fill-rule:nonzero;stroke:none" transform="translate(734.457 653.306)"/><path d="m0 0-45.467 10.729 1.294-9.234 10.296-2.183 2.424-17.228-9.261-5.143 1.327-9.468L1.294-9.204zm-9.424-5.915-15.159-8.187-1.652 11.761z" style="fill:#06002b;fill-opacity:1;fill-rule:nonzero;stroke:none" transform="translate(774.88 605.271)"/><path d="m0 0-4.159 7.745 38.353 20.594L48.313 2.048l-6.49-3.485-9.96 18.551-9.077-4.877L31.384-3.77l-6.487-3.488-8.598 16.014Z" style="fill:#06002b;fill-opacity:1;fill-rule:nonzero;stroke:none" transform="translate(328.096 459.348)"/><path d="M0 0q-.927-8.195 5.251-15.684 6.097-7.401 14.342-8.039 8.238-.634 16.371 6.07c5.469 4.509 8.514 9.51 9.134 15.016q.933 8.25-5.186 15.678c-2.254 2.731-4.688 4.782-7.297 6.144q-2.932 1.546-6.604 1.848a20.4 20.4 0 0 1-7.185-.669q-4.746-1.334-9.881-5.565Q.925 8.185 0 0m25.723 12.581q4.993-.195 8.447-4.391c2.307-2.793 3.205-5.816 2.704-9.067-.505-3.248-2.678-6.46-6.527-9.632-3.898-3.21-7.532-4.753-10.91-4.624s-6.178 1.543-8.408 4.25q-3.342 4.052-2.57 9.117t6.477 9.762q5.796 4.781 10.787 4.585" style="fill:#06002b;fill-opacity:1;fill-rule:nonzero;stroke:none" transform="translate(350.903 431.007)"/><path d="M0 0c.553-5.467 3.375-10.2 8.457-14.21q7.534-5.938 15.719-4.811 8.188 1.127 14.716 9.405c4.386 5.563 6.299 11.106 5.739 16.611q-.841 8.263-8.396 14.22-4.175 3.29-8.435 4.46c-2.13.589-4.41.728-6.846.402a20.6 20.6 0 0 1-6.878-2.175q-4.358-2.32-8.475-7.536Q-.835 8.2 0 0m22.468 17.755c3.279.58 6.341-.249 9.187-2.496q4.264-3.364 4.563-8.288.297-4.923-4.336-10.794c-3.124-3.967-6.351-6.243-9.675-6.837-3.33-.59-6.37.196-9.12 2.366Q8.958-5.038 8.639.072c-.214 3.411 1.207 7.047 4.258 10.918 3.101 3.934 6.291 6.186 9.571 6.765" style="fill:#06002b;fill-opacity:1;fill-rule:nonzero;stroke:none" transform="translate(384.242 393.82)"/><path d="m0 0-7.819 4.015L8.705 36.192l-11.491 5.902 3.363 6.545 30.769-15.801-3.362-6.55-11.459 5.889Z" style="fill:#06002b;fill-opacity:1;fill-rule:nonzero;stroke:none" transform="translate(435.551 353.48)"/><path d="M0 0q1.565-1.084 2.115-2.649c.364-1.05.379-2.199.029-3.459-.412-1.486-1.138-2.568-2.172-3.235-1.041-.665-2.219-.943-3.541-.823q-1.304.084-5.879 1.355l-7.835 2.171 3.109 11.22 6.832-1.897Q-1.561 1.086 0 0m-13.434-15.317c5.402-1.456 8.837-2.304 10.286-2.544q3.479-.563 6.231.412 2.751.98 4.827 3.316c1.389 1.557 2.348 3.286 2.875 5.198q1.007 3.63-.307 6.894C9.602.13 7.987 1.945 5.641 3.397q3.053.482 5.326 2.501 2.271 2.013 3.09 4.968c.503 1.811.522 3.565.072 5.261q-.682 2.552-2.247 4.398-1.566 1.854-3.9 2.946C6.43 24.2 3.993 25.029.676 25.944l-16.762 4.652-11.623-41.955zM2.504 17.765q2.049-.848 2.783-2.357.738-1.517.196-3.459c-.373-1.361-1.092-2.333-2.151-2.937q-1.59-.897-3.835-.551c-.829.125-2.894.652-6.187 1.562l-5.551 1.543 2.688 9.697 4.865-1.347q5.977-1.66 7.192-2.151" style="fill:#06002b;fill-opacity:1;fill-rule:nonzero;stroke:none" transform="translate(487.268 354.026)"/><path d="m0 0-20.137-42.156 9.3-.69 4.316 9.591 17.354-1.288 3.056-10.143 9.534-.709L9.266-.69Zm3.775-10.464 4.787-16.557-11.849.881z" style="fill:#06002b;fill-opacity:1;fill-rule:nonzero;stroke:none" transform="translate(520.418 373.823)"/><path d="m0 0-30.505-2.913-4.101 42.981 8.749.833 3.406-35.679L-.695 7.297z" style="fill:#06002b;fill-opacity:1;fill-rule:nonzero;stroke:none" transform="translate(579.453 332.055)"/><path d="m0 0-29.618-7.862-11.077 41.73 8.494 2.252 9.194-34.64 21.124 5.606z" style="fill:#06002b;fill-opacity:1;fill-rule:nonzero;stroke:none" transform="translate(617.25 341.613)"/><path d="m0 0 8.792 1.624c1.082-4.805.828-8.945-.772-12.403q-2.393-5.203-8.576-8.5-7.653-4.076-15.365-1.475-7.718 2.6-12.547 11.671c-3.407 6.391-4.403 12.241-2.99 17.535 1.418 5.299 4.815 9.38 10.2 12.25q7.042 3.76 13.669 1.936c2.621-.709 5.188-2.367 7.704-4.983l-6.703-5.922q-2.275 2.625-5.356 3.201c-2.06.383-4.115.024-6.18-1.073q-4.268-2.277-5.294-6.761c-.686-2.989.196-6.769 2.635-11.35 2.591-4.858 5.308-7.847 8.149-8.978 2.846-1.13 5.668-.953 8.466.542C-2.108-11.59-.685-9.989.101-7.891Q1.279-4.736 0 0" style="fill:#06002b;fill-opacity:1;fill-rule:nonzero;stroke:none" transform="translate(653.177 376.166)"/><path d="m0 0-23.979-19.082-26.878 33.786 6.875 5.476 22.317-28.052L-4.566 5.74Z" style="fill:#06002b;fill-opacity:1;fill-rule:nonzero;stroke:none" transform="translate(700.896 391.377)"/><path d="m0 0-17.243 15.552 5.888 6.53L6.152 6.286c2.774-2.506 4.652-4.049 5.62-4.628C13.348.738 15.01.45 16.759.776q2.623.49 5.088 3.229 2.508 2.772 2.645 5.213c.091 1.619-.326 3.028-1.256 4.216q-1.401 1.776-5.231 5.234L.125 34.802l5.883 6.528 16.979-15.317c3.881-3.503 6.463-6.149 7.747-7.949q1.926-2.7 2.3-5.612.366-2.915-.8-6.176c-.776-2.18-2.319-4.547-4.628-7.11-2.784-3.085-5.256-5.102-7.403-6.056q-3.234-1.429-6.189-1.269c-1.979.095-3.723.565-5.237 1.399Q5.42-4.893 0 0" style="fill:#06002b;fill-opacity:1;fill-rule:nonzero;stroke:none" transform="translate(689.551 408.395)"/><path d="M0 0c.973.817 2.008 1.265 3.114 1.346 1.107.077 2.218-.213 3.344-.881Q8.447-.717 9.012-2.482q.552-1.764-.139-3.634-.423-1.237-2.85-5.316l-4.154-6.997-10.004 5.944 3.617 6.103C-2.472-2.947-.972-.819 0 0m11.254-16.992q4.241 7.254 5.156 9.271 1.457 3.202 1.24 6.121c-.148 1.938-.795 3.785-1.935 5.529q-1.704 2.621-4.264 4.136c-2.156 1.282-4.403 1.79-6.732 1.512-2.323-.278-4.498-1.353-6.52-3.241q.345 3.078-1.006 5.795a10.16 10.16 0 0 1-3.986 4.283q-2.428 1.444-5.065 1.452c-1.758.005-3.363-.331-4.829-1.016q-2.2-1.026-3.866-2.989c-1.112-1.308-2.545-3.446-4.303-6.401l-8.887-14.968L3.689-29.733Zm-27.74 24.071c.901 1.164 1.907 1.854 3.009 2.067 1.102.208 2.232-.034 3.387-.718 1.213-.719 1.965-1.668 2.266-2.851.297-1.176.144-2.463-.469-3.845q-.51-1.147-3.134-5.565l-2.941-4.954-8.653 5.141 2.573 4.338q3.17 5.337 3.962 6.387" style="fill:#06002b;fill-opacity:1;fill-rule:nonzero;stroke:none" transform="translate(731.75 460.478)"/><path d="M0 0s-18.129-14.079-35.789-13.856c-17.66.221-27.932 7.211-29.671 8.691-1.729 1.481-8.246 6.087-8.246 6.087s6.626 4.444 8.399 5.881c1.768 1.437 12.217 8.166 29.877 7.946C-17.775 14.529 0 0 0 0" style="fill:#f2d41a;fill-opacity:1;fill-rule:nonzero;stroke:none" transform="translate(613.69 694.336)"/><path d="M0 0s-18.129-14.079-35.789-13.856c-17.66.221-27.932 7.211-29.671 8.691-1.729 1.481-8.246 6.087-8.246 6.087s6.626 4.444 8.399 5.881c1.768 1.437 12.217 8.166 29.877 7.946C-17.775 14.529 0 0 0 0Z" style="fill:none;stroke:#06002b;stroke-width:1.703;stroke-linecap:butt;stroke-linejoin:miter;stroke-miterlimit:4;stroke-dasharray:none;stroke-opacity:1" transform="translate(613.69 694.336)"/><path d="M0 0s-22.954-.186-36.857 10.708c-13.899 10.893-17.828 22.683-18.302 24.911-.48 2.231-2.861 9.843-2.861 9.843s7.963-.488 10.239-.421c2.28.069 14.67-.923 28.569-11.817C-5.309 22.331 0 0 0 0" style="fill:#f2d41a;fill-opacity:1;fill-rule:nonzero;stroke:none" transform="translate(615.185 694.566)"/><path d="M0 0s-22.954-.186-36.857 10.708c-13.899 10.893-17.828 22.683-18.302 24.911-.48 2.231-2.861 9.843-2.861 9.843s7.963-.488 10.239-.421c2.28.069 14.67-.923 28.569-11.817C-5.309 22.331 0 0 0 0Z" style="fill:none;stroke:#06002b;stroke-width:1.703;stroke-linecap:butt;stroke-linejoin:miter;stroke-miterlimit:4;stroke-dasharray:none;stroke-opacity:1" transform="translate(615.185 694.566)"/><path d="M0 0s-21.469-8.114-38.281-2.705-24.573 15.114-25.795 17.042c-1.221 1.924-6.084 8.243-6.084 8.243s7.637 2.297 9.75 3.15c2.117.851 14.08 4.207 30.892-1.205C-12.706 19.116 0 0 0 0" style="fill:#f2d41a;fill-opacity:1;fill-rule:nonzero;stroke:none" transform="translate(649.79 666.896)"/><path d="M0 0s-21.469-8.114-38.281-2.705-24.573 15.114-25.795 17.042c-1.221 1.924-6.084 8.243-6.084 8.243s7.637 2.297 9.75 3.15c2.117.851 14.08 4.207 30.892-1.205C-12.706 19.116 0 0 0 0Z" style="fill:none;stroke:#06002b;stroke-width:1.703;stroke-linecap:butt;stroke-linejoin:miter;stroke-miterlimit:4;stroke-dasharray:none;stroke-opacity:1" transform="translate(649.79 666.896)"/><path d="M0 0s-21.761 7.304-31.357 22.13c-9.592 14.828-9.463 27.256-9.19 29.52s.503 10.236.503 10.236 7.369-3.059 9.549-3.735c2.175-.677 13.563-5.653 23.16-20.479C2.252 22.844 0 0 0 0" style="fill:#f2d41a;fill-opacity:1;fill-rule:nonzero;stroke:none" transform="translate(650.197 665.46)"/><path d="M0 0s-21.761 7.304-31.357 22.13c-9.592 14.828-9.463 27.256-9.19 29.52s.503 10.236.503 10.236 7.369-3.059 9.549-3.735c2.175-.677 13.563-5.653 23.16-20.479C2.252 22.844 0 0 0 0Z" style="fill:none;stroke:#06002b;stroke-width:1.703;stroke-linecap:butt;stroke-linejoin:miter;stroke-miterlimit:4;stroke-dasharray:none;stroke-opacity:1" transform="translate(650.197 665.46)"/><path d="M0 0s-22.925-1.027-37.222 9.345c-14.287 10.378-18.646 22.017-19.207 24.226s-3.215 9.731-3.215 9.731 7.972-.197 10.248-.046c2.271.151 14.689-.386 28.981-10.758C-6.123 22.123 0 0 0 0" style="fill:#f2d41a;fill-opacity:1;fill-rule:nonzero;stroke:none" transform="translate(674.57 629.255)"/><path d="M0 0s-22.925-1.027-37.222 9.345c-14.287 10.378-18.646 22.017-19.207 24.226s-3.215 9.731-3.215 9.731 7.972-.197 10.248-.046c2.271.151 14.689-.386 28.981-10.758C-6.123 22.123 0 0 0 0Z" style="fill:none;stroke:#06002b;stroke-width:1.703;stroke-linecap:butt;stroke-linejoin:miter;stroke-miterlimit:4;stroke-dasharray:none;stroke-opacity:1" transform="translate(674.57 629.255)"/><path d="M0 0s-18.767 13.216-23.725 30.169c-4.954 16.951-1.28 28.823-.369 30.914.91 2.091 3.411 9.666 3.411 9.666s6.185-5.035 8.078-6.307S-1.222 55.15 3.737 38.196C8.691 21.246 0 0 0 0" style="fill:#f2d41a;fill-opacity:1;fill-rule:nonzero;stroke:none" transform="translate(675.95 628.364)"/><path d="M0 0s-18.767 13.216-23.725 30.169c-4.954 16.951-1.28 28.823-.369 30.914.91 2.091 3.411 9.666 3.411 9.666s6.185-5.035 8.078-6.307S-1.222 55.15 3.737 38.196C8.691 21.246 0 0 0 0Z" style="fill:none;stroke:#06002b;stroke-width:1.703;stroke-linecap:butt;stroke-linejoin:miter;stroke-miterlimit:4;stroke-dasharray:none;stroke-opacity:1" transform="translate(675.95 628.364)"/><path d="M0 0s-22.211 5.788-32.804 19.921c-10.588 14.134-11.312 26.54-11.197 28.816.115 2.278-.201 10.248-.201 10.248s7.56-2.542 9.778-3.069c2.218-.526 13.923-4.704 24.516-18.84C.68 22.942 0 0 0 0" style="fill:#f2d41a;fill-opacity:1;fill-rule:nonzero;stroke:none" transform="translate(688.114 586.205)"/><path d="M0 0s-22.211 5.788-32.804 19.921c-10.588 14.134-11.312 26.54-11.197 28.816.115 2.278-.201 10.248-.201 10.248s7.56-2.542 9.778-3.069c2.218-.526 13.923-4.704 24.516-18.84C.68 22.942 0 0 0 0Z" style="fill:none;stroke:#06002b;stroke-width:1.703;stroke-linecap:butt;stroke-linejoin:miter;stroke-miterlimit:4;stroke-dasharray:none;stroke-opacity:1" transform="translate(688.114 586.205)"/><path d="M0 0s-13.837 18.314-13.377 35.969c.455 17.657 7.58 27.838 9.079 29.551 1.509 1.715 6.2 8.161 6.2 8.161S6.252 67 7.67 65.211c1.413-1.787 8.006-12.325 7.551-29.978C14.761 17.576 0 0 0 0" style="fill:#f2d41a;fill-opacity:1;fill-rule:nonzero;stroke:none" transform="translate(688.837 584.48)"/><path d="M0 0s-13.837 18.314-13.377 35.969c.455 17.657 7.58 27.838 9.079 29.551 1.509 1.715 6.2 8.161 6.2 8.161S6.252 67 7.67 65.211c1.413-1.787 8.006-12.325 7.551-29.978C14.761 17.576 0 0 0 0Z" style="fill:none;stroke:#06002b;stroke-width:1.703;stroke-linecap:butt;stroke-linejoin:miter;stroke-miterlimit:4;stroke-dasharray:none;stroke-opacity:1" transform="translate(688.837 584.48)"/><path d="M0 0s-19.265 12.483-24.875 29.228c-5.606 16.747-2.391 28.75-1.562 30.88.824 2.12 3.033 9.788 3.033 9.788s6.377-4.793 8.312-5.989c1.945-1.197 11.743-8.849 17.348-25.593C7.867 21.567 0 0 0 0" style="fill:#f2d41a;fill-opacity:1;fill-rule:nonzero;stroke:none" transform="translate(687.386 540.022)"/><path d="M0 0s-19.265 12.483-24.875 29.228c-5.606 16.747-2.391 28.75-1.562 30.88.824 2.12 3.033 9.788 3.033 9.788s6.377-4.793 8.312-5.989c1.945-1.197 11.743-8.849 17.348-25.593C7.867 21.567 0 0 0 0Z" style="fill:none;stroke:#06002b;stroke-width:1.703;stroke-linecap:butt;stroke-linejoin:miter;stroke-miterlimit:4;stroke-dasharray:none;stroke-opacity:1" transform="translate(687.386 540.022)"/><path d="M0 0s-7.393 21.735-1.418 38.355c5.969 16.62 15.93 24.053 17.899 25.205 1.964 1.155 8.447 5.807 8.447 5.807s2.036-7.709 2.817-9.855c.781-2.141 3.727-14.213-2.242-30.833C19.533 12.059 0 0 0 0" style="fill:#f2d41a;fill-opacity:1;fill-rule:nonzero;stroke:none" transform="translate(686.897 539.13)"/><path d="M0 0s-7.393 21.735-1.418 38.355c5.969 16.62 15.93 24.053 17.899 25.205 1.964 1.155 8.447 5.807 8.447 5.807s2.036-7.709 2.817-9.855c.781-2.141 3.727-14.213-2.242-30.833C19.533 12.059 0 0 0 0Z" style="fill:none;stroke:#06002b;stroke-width:1.703;stroke-linecap:butt;stroke-linejoin:miter;stroke-miterlimit:4;stroke-dasharray:none;stroke-opacity:1" transform="translate(686.897 539.13)"/><path d="M0 0s-14.766 17.578-15.221 35.231c-.46 17.652 6.132 28.193 7.55 29.98 1.409 1.789 5.764 8.475 5.764 8.475s4.695-6.451 6.195-8.166c1.509-1.713 8.634-11.894 9.088-29.551C13.832 18.316 0 0 0 0" style="fill:#f2d41a;fill-opacity:1;fill-rule:nonzero;stroke:none" transform="translate(671.968 497.312)"/><path d="M0 0s-14.766 17.578-15.221 35.231c-.46 17.652 6.132 28.193 7.55 29.98 1.409 1.789 5.764 8.475 5.764 8.475s4.695-6.451 6.195-8.166c1.509-1.713 8.634-11.894 9.088-29.551C13.832 18.316 0 0 0 0Z" style="fill:none;stroke:#06002b;stroke-width:1.703;stroke-linecap:butt;stroke-linejoin:miter;stroke-miterlimit:4;stroke-dasharray:none;stroke-opacity:1" transform="translate(671.968 497.312)"/><path d="M0 0s.316 22.954 11.508 36.618C22.7 50.275 34.577 53.942 36.814 54.373c2.243.429 9.899 2.643 9.899 2.643s-.662-7.951-.643-10.229c.02-2.281-1.24-14.642-12.432-28.301C22.441 4.822 0 0 0 0" style="fill:#f2d41a;fill-opacity:1;fill-rule:nonzero;stroke:none" transform="translate(669.16 497.358)"/><path d="M0 0s.316 22.954 11.508 36.618C22.7 50.275 34.577 53.942 36.814 54.373c2.243.429 9.899 2.643 9.899 2.643s-.662-7.951-.643-10.229c.02-2.281-1.24-14.642-12.432-28.301C22.441 4.822 0 0 0 0Z" style="fill:none;stroke:#06002b;stroke-width:1.703;stroke-linecap:butt;stroke-linejoin:miter;stroke-miterlimit:4;stroke-dasharray:none;stroke-opacity:1" transform="translate(669.16 497.358)"/><path d="M0 0s-8.36 21.375-3.148 38.247c5.213 16.876 14.828 24.75 16.74 25.991 1.912 1.244 8.179 6.183 8.179 6.183s2.38-7.611 3.257-9.714c.877-2.106 4.369-14.033-.843-30.904C18.972 12.926 0 0 0 0" style="fill:#f2d41a;fill-opacity:1;fill-rule:nonzero;stroke:none" transform="translate(642.618 460.843)"/><path d="M0 0s-8.36 21.375-3.148 38.247c5.213 16.876 14.828 24.75 16.74 25.991 1.912 1.244 8.179 6.183 8.179 6.183s2.38-7.611 3.257-9.714c.877-2.106 4.369-14.033-.843-30.904C18.972 12.926 0 0 0 0Z" style="fill:none;stroke:#06002b;stroke-width:1.703;stroke-linecap:butt;stroke-linejoin:miter;stroke-miterlimit:4;stroke-dasharray:none;stroke-opacity:1" transform="translate(642.618 460.843)"/><path d="M0 0s6.975 21.869 21.665 31.676c14.68 9.815 27.108 9.87 29.374 9.628 2.266-.24 10.243-.35 10.243-.35s-2.946-7.411-3.593-9.597c-.642-2.191-5.453-13.649-20.132-23.464C22.872-1.919 0 0 0 0" style="fill:#f2d41a;fill-opacity:1;fill-rule:nonzero;stroke:none" transform="translate(641.823 461.12)"/><path d="M0 0s6.975 21.869 21.665 31.676c14.68 9.815 27.108 9.87 29.374 9.628 2.266-.24 10.243-.35 10.243-.35s-2.946-7.411-3.593-9.597c-.642-2.191-5.453-13.649-20.132-23.464C22.872-1.919 0 0 0 0Z" style="fill:none;stroke:#06002b;stroke-width:1.703;stroke-linecap:butt;stroke-linejoin:miter;stroke-miterlimit:4;stroke-dasharray:none;stroke-opacity:1" transform="translate(641.823 461.12)"/><path d="M0 0s-1.663 22.892 8.312 37.466S29.8 56.717 31.995 57.337c2.194.62 9.639 3.488 9.639 3.488s.019-7.977.239-10.248c.211-2.269.02-14.694-9.955-29.269C21.948 6.734 0 0 0 0" style="fill:#f2d41a;fill-opacity:1;fill-rule:nonzero;stroke:none" transform="translate(604.51 435.776)"/><path d="M0 0s-1.663 22.892 8.312 37.466S29.8 56.717 31.995 57.337c2.194.62 9.639 3.488 9.639 3.488s.019-7.977.239-10.248c.211-2.269.02-14.694-9.955-29.269C21.948 6.734 0 0 0 0Z" style="fill:none;stroke:#06002b;stroke-width:1.703;stroke-linecap:butt;stroke-linejoin:miter;stroke-miterlimit:4;stroke-dasharray:none;stroke-opacity:1" transform="translate(604.51 435.776)"/><path d="M0 0s13.319 18.692 30.299 23.555c16.979 4.858 28.832 1.116 30.916.195 2.089-.923 9.644-3.46 9.644-3.46s-5.069-6.161-6.353-8.044C63.227 10.359 55.154.913 38.175-3.948 21.195-8.813 0 0 0 0" style="fill:#f2d41a;fill-opacity:1;fill-rule:nonzero;stroke:none" transform="translate(602.445 435.16)"/><path d="M0 0s13.319 18.692 30.299 23.555c16.979 4.858 28.832 1.116 30.916.195 2.089-.923 9.644-3.46 9.644-3.46s-5.069-6.161-6.353-8.044C63.227 10.359 55.154.913 38.175-3.948 21.195-8.813 0 0 0 0Z" style="fill:none;stroke:#06002b;stroke-width:1.703;stroke-linecap:butt;stroke-linejoin:miter;stroke-miterlimit:4;stroke-dasharray:none;stroke-opacity:1" transform="translate(602.445 435.16)"/><path d="M0 0s5.62 22.257 19.667 32.955c14.057 10.696 26.456 11.518 28.732 11.418 2.281-.099 10.248.282 10.248.282s-2.486-7.582-2.994-9.805c-.513-2.221-4.604-13.956-18.657-24.655C22.949-.503 0 0 0 0" style="fill:#f2d41a;fill-opacity:1;fill-rule:nonzero;stroke:none" transform="translate(560.739 422.96)"/><path d="M0 0s5.62 22.257 19.667 32.955c14.057 10.696 26.456 11.518 28.732 11.418 2.281-.099 10.248.282 10.248.282s-2.486-7.582-2.994-9.805c-.513-2.221-4.604-13.956-18.657-24.655C22.949-.503 0 0 0 0Z" style="fill:none;stroke:#06002b;stroke-width:1.703;stroke-linecap:butt;stroke-linejoin:miter;stroke-miterlimit:4;stroke-dasharray:none;stroke-opacity:1" transform="translate(560.739 422.96)"/><path d="M0 0s18.69 13.331 36.321 12.392c17.641-.939 27.621-8.344 29.293-9.893 1.672-1.553 7.991-6.42 7.991-6.42s-6.803-4.169-8.629-5.534c-1.825-1.361-12.538-7.661-30.174-6.722C17.167-15.233 0 0 0 0" style="fill:#f2d41a;fill-opacity:1;fill-rule:nonzero;stroke:none" transform="translate(559.565 425.108)"/><path d="M0 0s18.69 13.331 36.321 12.392c17.641-.939 27.621-8.344 29.293-9.893 1.672-1.553 7.991-6.42 7.991-6.42s-6.803-4.169-8.629-5.534c-1.825-1.361-12.538-7.661-30.174-6.722C17.167-15.233 0 0 0 0Z" style="fill:none;stroke:#06002b;stroke-width:1.703;stroke-linecap:butt;stroke-linejoin:miter;stroke-miterlimit:4;stroke-dasharray:none;stroke-opacity:1" transform="translate(559.565 425.108)"/><path d="M0 0s.642 22.949 12.026 36.45c11.383 13.499 23.313 16.999 25.555 17.399 2.247.397 9.937 2.501 9.937 2.501s-.776-7.939-.791-10.217c-.009-2.283-1.442-14.625-12.83-28.123C22.508 4.504 0 0 0 0" style="fill:#f2d41a;fill-opacity:1;fill-rule:nonzero;stroke:none" transform="translate(539.984 403.384)"/><path d="M0 0s.642 22.949 12.026 36.45c11.383 13.499 23.313 16.999 25.555 17.399 2.247.397 9.937 2.501 9.937 2.501s-.776-7.939-.791-10.217c-.009-2.283-1.442-14.625-12.83-28.123C22.508 4.504 0 0 0 0Z" style="fill:none;stroke:#06002b;stroke-width:1.703;stroke-linecap:butt;stroke-linejoin:miter;stroke-miterlimit:4;stroke-dasharray:none;stroke-opacity:1" transform="translate(539.984 403.384)"/><path d="M0 0s18.119-14.079 35.775-13.856c17.659.221 27.936 7.211 29.665 8.691C67.175-3.684 73.691.922 73.691.922s-6.626 4.444-8.399 5.881c-1.768 1.437-12.217 8.166-29.877 7.946C17.76 14.529 0 0 0 0" style="fill:#f2d41a;fill-opacity:1;fill-rule:nonzero;stroke:none" transform="translate(466.265 694.336)"/><path d="M0 0s18.119-14.079 35.775-13.856c17.659.221 27.936 7.211 29.665 8.691C67.175-3.684 73.691.922 73.691.922s-6.626 4.444-8.399 5.881c-1.768 1.437-12.217 8.166-29.877 7.946C17.76 14.529 0 0 0 0Z" style="fill:none;stroke:#06002b;stroke-width:1.703;stroke-linecap:butt;stroke-linejoin:miter;stroke-miterlimit:4;stroke-dasharray:none;stroke-opacity:1" transform="translate(466.265 694.336)"/><path d="M0 0s22.944-.186 36.843 10.708 17.823 22.683 18.302 24.911C55.624 37.85 58 45.462 58 45.462s-7.958-.488-10.238-.421c-2.276.069-14.665-.923-28.564-11.817C5.306 22.331 0 0 0 0" style="fill:#f2d41a;fill-opacity:1;fill-rule:nonzero;stroke:none" transform="translate(464.77 694.566)"/><path d="M0 0s22.944-.186 36.843 10.708 17.823 22.683 18.302 24.911C55.624 37.85 58 45.462 58 45.462s-7.958-.488-10.238-.421c-2.276.069-14.665-.923-28.564-11.817C5.306 22.331 0 0 0 0Z" style="fill:none;stroke:#06002b;stroke-width:1.703;stroke-linecap:butt;stroke-linejoin:miter;stroke-miterlimit:4;stroke-dasharray:none;stroke-opacity:1" transform="translate(464.77 694.566)"/><path d="M0 0s21.471-8.114 38.276-2.705c16.802 5.41 24.566 15.114 25.78 17.042 1.222 1.924 6.085 8.243 6.085 8.243s-7.634 2.297-9.747 3.15c-2.118.851-14.074 4.207-30.878-1.205C12.709 19.116 0 0 0 0" style="fill:#f2d41a;fill-opacity:1;fill-rule:nonzero;stroke:none" transform="translate(430.169 666.896)"/><path d="M0 0s21.471-8.114 38.276-2.705c16.802 5.41 24.566 15.114 25.78 17.042 1.222 1.924 6.085 8.243 6.085 8.243s-7.634 2.297-9.747 3.15c-2.118.851-14.074 4.207-30.878-1.205C12.709 19.116 0 0 0 0Z" style="fill:none;stroke:#06002b;stroke-width:1.703;stroke-linecap:butt;stroke-linejoin:miter;stroke-miterlimit:4;stroke-dasharray:none;stroke-opacity:1" transform="translate(430.169 666.896)"/><path d="M0 0s21.759 7.304 31.35 22.13c9.587 14.828 9.458 27.256 9.185 29.52-.278 2.264-.508 10.236-.508 10.236s-7.359-3.059-9.535-3.735c-2.177-.677-13.563-5.653-23.157-20.479C-2.259 22.844 0 0 0 0" style="fill:#f2d41a;fill-opacity:1;fill-rule:nonzero;stroke:none" transform="translate(429.766 665.46)"/><path d="M0 0s21.759 7.304 31.35 22.13c9.587 14.828 9.458 27.256 9.185 29.52-.278 2.264-.508 10.236-.508 10.236s-7.359-3.059-9.535-3.735c-2.177-.677-13.563-5.653-23.157-20.479C-2.259 22.844 0 0 0 0Z" style="fill:none;stroke:#06002b;stroke-width:1.703;stroke-linecap:butt;stroke-linejoin:miter;stroke-miterlimit:4;stroke-dasharray:none;stroke-opacity:1" transform="translate(429.766 665.46)"/><path d="M0 0s22.932-1.027 37.224 9.345c14.289 10.378 18.642 22.017 19.202 24.226s3.213 9.731 3.213 9.731-7.968-.197-10.244-.046c-2.268.151-14.686-.386-28.978-10.758C6.125 22.123 0 0 0 0" style="fill:#f2d41a;fill-opacity:1;fill-rule:nonzero;stroke:none" transform="translate(405.39 629.255)"/><path d="M0 0s22.932-1.027 37.224 9.345c14.289 10.378 18.642 22.017 19.202 24.226s3.213 9.731 3.213 9.731-7.968-.197-10.244-.046c-2.268.151-14.686-.386-28.978-10.758C6.125 22.123 0 0 0 0Z" style="fill:none;stroke:#06002b;stroke-width:1.703;stroke-linecap:butt;stroke-linejoin:miter;stroke-miterlimit:4;stroke-dasharray:none;stroke-opacity:1" transform="translate(405.39 629.255)"/><path d="M0 0s18.767 13.216 23.721 30.169c4.956 16.951 1.281 28.823.371 30.914-.908 2.091-3.409 9.666-3.409 9.666s-6.188-5.035-8.08-6.307C10.713 63.17 1.219 55.15-3.734 38.196-8.693 21.246 0 0 0 0" style="fill:#f2d41a;fill-opacity:1;fill-rule:nonzero;stroke:none" transform="translate(404.015 628.364)"/><path d="M0 0s18.767 13.216 23.721 30.169c4.956 16.951 1.281 28.823.371 30.914-.908 2.091-3.409 9.666-3.409 9.666s-6.188-5.035-8.08-6.307C10.713 63.17 1.219 55.15-3.734 38.196-8.693 21.246 0 0 0 0Z" style="fill:none;stroke:#06002b;stroke-width:1.703;stroke-linecap:butt;stroke-linejoin:miter;stroke-miterlimit:4;stroke-dasharray:none;stroke-opacity:1" transform="translate(404.015 628.364)"/><path d="M0 0s22.214 5.788 32.804 19.921c10.588 14.134 11.317 26.54 11.197 28.816-.118 2.278.201 10.248.201 10.248s-7.56-2.542-9.778-3.069c-2.218-.526-13.923-4.704-24.514-18.84C-.68 22.942 0 0 0 0" style="fill:#f2d41a;fill-opacity:1;fill-rule:nonzero;stroke:none" transform="translate(391.848 586.205)"/><path d="M0 0s22.214 5.788 32.804 19.921c10.588 14.134 11.317 26.54 11.197 28.816-.118 2.278.201 10.248.201 10.248s-7.56-2.542-9.778-3.069c-2.218-.526-13.923-4.704-24.514-18.84C-.68 22.942 0 0 0 0Z" style="fill:none;stroke:#06002b;stroke-width:1.703;stroke-linecap:butt;stroke-linejoin:miter;stroke-miterlimit:4;stroke-dasharray:none;stroke-opacity:1" transform="translate(391.848 586.205)"/><path d="M0 0s13.836 18.314 13.381 35.969c-.455 17.657-7.579 27.838-9.084 29.551C2.793 67.235-1.9 73.681-1.9 73.681S-6.255 67-7.666 65.211c-1.416-1.787-8.006-12.325-7.553-29.978C-14.761 17.576 0 0 0 0" style="fill:#f2d41a;fill-opacity:1;fill-rule:nonzero;stroke:none" transform="translate(391.122 584.48)"/><path d="M0 0s13.836 18.314 13.381 35.969c-.455 17.657-7.579 27.838-9.084 29.551C2.793 67.235-1.9 73.681-1.9 73.681S-6.255 67-7.666 65.211c-1.416-1.787-8.006-12.325-7.553-29.978C-14.761 17.576 0 0 0 0Z" style="fill:none;stroke:#06002b;stroke-width:1.703;stroke-linecap:butt;stroke-linejoin:miter;stroke-miterlimit:4;stroke-dasharray:none;stroke-opacity:1" transform="translate(391.122 584.48)"/><path d="M0 0s19.264 12.483 24.873 29.228c5.61 16.747 2.395 28.75 1.566 30.88-.826 2.12-3.032 9.788-3.032 9.788s-6.377-4.793-8.318-5.989c-1.94-1.197-11.735-8.849-17.343-25.593C-7.862 21.567 0 0 0 0" style="fill:#f2d41a;fill-opacity:1;fill-rule:nonzero;stroke:none" transform="translate(392.574 540.022)"/><path d="M0 0s19.264 12.483 24.873 29.228c5.61 16.747 2.395 28.75 1.566 30.88-.826 2.12-3.032 9.788-3.032 9.788s-6.377-4.793-8.318-5.989c-1.94-1.197-11.735-8.849-17.343-25.593C-7.862 21.567 0 0 0 0Z" style="fill:none;stroke:#06002b;stroke-width:1.703;stroke-linecap:butt;stroke-linejoin:miter;stroke-miterlimit:4;stroke-dasharray:none;stroke-opacity:1" transform="translate(392.574 540.022)"/><path d="M0 0s7.39 21.735 1.416 38.355c-5.972 16.62-15.932 24.053-17.897 25.205-1.967 1.155-8.446 5.807-8.446 5.807s-2.037-7.709-2.818-9.855c-.781-2.141-3.734-14.213 2.24-30.833C-19.533 12.059 0 0 0 0" style="fill:#f2d41a;fill-opacity:1;fill-rule:nonzero;stroke:none" transform="translate(393.067 539.13)"/><path d="M0 0s7.39 21.735 1.416 38.355c-5.972 16.62-15.932 24.053-17.897 25.205-1.967 1.155-8.446 5.807-8.446 5.807s-2.037-7.709-2.818-9.855c-.781-2.141-3.734-14.213 2.24-30.833C-19.533 12.059 0 0 0 0Z" style="fill:none;stroke:#06002b;stroke-width:1.703;stroke-linecap:butt;stroke-linejoin:miter;stroke-miterlimit:4;stroke-dasharray:none;stroke-opacity:1" transform="translate(393.067 539.13)"/><path d="M0 0s14.764 17.578 15.219 35.231c.455 17.652-6.133 28.193-7.548 29.98C6.257 67 1.905 73.686 1.905 73.686s-4.696-6.451-6.2-8.166c-1.502-1.713-8.629-11.894-9.084-29.551C-13.836 18.316 0 0 0 0" style="fill:#f2d41a;fill-opacity:1;fill-rule:nonzero;stroke:none" transform="translate(407.996 497.312)"/><path d="M0 0s14.764 17.578 15.219 35.231c.455 17.652-6.133 28.193-7.548 29.98C6.257 67 1.905 73.686 1.905 73.686s-4.696-6.451-6.2-8.166c-1.502-1.713-8.629-11.894-9.084-29.551C-13.836 18.316 0 0 0 0Z" style="fill:none;stroke:#06002b;stroke-width:1.703;stroke-linecap:butt;stroke-linejoin:miter;stroke-miterlimit:4;stroke-dasharray:none;stroke-opacity:1" transform="translate(407.996 497.312)"/><path d="M0 0s-.316 22.954-11.508 36.618C-22.7 50.275-34.575 53.942-36.814 54.373c-2.238.429-9.901 2.643-9.901 2.643s.661-7.951.644-10.229c-.019-2.281 1.244-14.642 12.435-28.301C-22.441 4.822 0 0 0 0" style="fill:#f2d41a;fill-opacity:1;fill-rule:nonzero;stroke:none" transform="translate(410.801 497.358)"/><path d="M0 0s-.316 22.954-11.508 36.618C-22.7 50.275-34.575 53.942-36.814 54.373c-2.238.429-9.901 2.643-9.901 2.643s.661-7.951.644-10.229c-.019-2.281 1.244-14.642 12.435-28.301C-22.441 4.822 0 0 0 0Z" style="fill:none;stroke:#06002b;stroke-width:1.703;stroke-linecap:butt;stroke-linejoin:miter;stroke-miterlimit:4;stroke-dasharray:none;stroke-opacity:1" transform="translate(410.801 497.358)"/><path d="M0 0s8.363 21.375 3.148 38.247c-5.213 16.876-14.829 24.75-16.74 25.991-1.912 1.244-8.174 6.183-8.174 6.183s-2.383-7.611-3.26-9.714c-.877-2.106-4.372-14.033.843-30.904C-18.968 12.926 0 0 0 0" style="fill:#f2d41a;fill-opacity:1;fill-rule:nonzero;stroke:none" transform="translate(437.341 460.843)"/><path d="M0 0s8.363 21.375 3.148 38.247c-5.213 16.876-14.829 24.75-16.74 25.991-1.912 1.244-8.174 6.183-8.174 6.183s-2.383-7.611-3.26-9.714c-.877-2.106-4.372-14.033.843-30.904C-18.968 12.926 0 0 0 0Z" style="fill:none;stroke:#06002b;stroke-width:1.703;stroke-linecap:butt;stroke-linejoin:miter;stroke-miterlimit:4;stroke-dasharray:none;stroke-opacity:1" transform="translate(437.341 460.843)"/><path d="M0 0s-6.98 21.869-21.663 31.676c-14.684 9.815-27.112 9.87-29.378 9.628-2.269-.24-10.244-.35-10.244-.35s2.947-7.411 3.594-9.597c.644-2.191 5.45-13.649 20.132-23.464C-22.874-1.919 0 0 0 0" style="fill:#f2d41a;fill-opacity:1;fill-rule:nonzero;stroke:none" transform="translate(438.14 461.12)"/><path d="M0 0s-6.98 21.869-21.663 31.676c-14.684 9.815-27.112 9.87-29.378 9.628-2.269-.24-10.244-.35-10.244-.35s2.947-7.411 3.594-9.597c.644-2.191 5.45-13.649 20.132-23.464C-22.874-1.919 0 0 0 0Z" style="fill:none;stroke:#06002b;stroke-width:1.703;stroke-linecap:butt;stroke-linejoin:miter;stroke-miterlimit:4;stroke-dasharray:none;stroke-opacity:1" transform="translate(438.14 461.12)"/><path d="M0 0s1.668 22.892-8.303 37.466-21.481 19.251-23.675 19.871-9.639 3.488-9.639 3.488-.022-7.977-.237-10.248c-.216-2.269-.024-14.694 9.951-29.269C-21.931 6.734 0 0 0 0" style="fill:#f2d41a;fill-opacity:1;fill-rule:nonzero;stroke:none" transform="translate(475.435 435.776)"/><path d="M0 0s1.668 22.892-8.303 37.466-21.481 19.251-23.675 19.871-9.639 3.488-9.639 3.488-.022-7.977-.237-10.248c-.216-2.269-.024-14.694 9.951-29.269C-21.931 6.734 0 0 0 0Z" style="fill:none;stroke:#06002b;stroke-width:1.703;stroke-linecap:butt;stroke-linejoin:miter;stroke-miterlimit:4;stroke-dasharray:none;stroke-opacity:1" transform="translate(475.435 435.776)"/><path d="M0 0s-13.319 18.692-30.289 23.555c-16.98 4.858-28.83 1.116-30.914.195-2.084-.923-9.644-3.46-9.644-3.46s5.068-6.161 6.35-8.044C-63.216 10.359-55.14.913-38.163-3.948-21.186-8.813 0 0 0 0" style="fill:#f2d41a;fill-opacity:1;fill-rule:nonzero;stroke:none" transform="translate(477.504 435.16)"/><path d="M0 0s-13.319 18.692-30.289 23.555c-16.98 4.858-28.83 1.116-30.914.195-2.084-.923-9.644-3.46-9.644-3.46s5.068-6.161 6.35-8.044C-63.216 10.359-55.14.913-38.163-3.948-21.186-8.813 0 0 0 0Z" style="fill:none;stroke:#06002b;stroke-width:1.703;stroke-linecap:butt;stroke-linejoin:miter;stroke-miterlimit:4;stroke-dasharray:none;stroke-opacity:1" transform="translate(477.504 435.16)"/><path d="M0 0s-5.62 22.257-19.672 32.955c-14.047 10.696-26.439 11.518-28.715 11.418-2.278-.099-10.243.282-10.243.282s2.486-7.582 2.994-9.805c.51-2.221 4.602-13.956 18.642-24.655C-22.949-.503 0 0 0 0" style="fill:#f2d41a;fill-opacity:1;fill-rule:nonzero;stroke:none" transform="translate(519.2 422.96)"/><path d="M0 0s-5.62 22.257-19.672 32.955c-14.047 10.696-26.439 11.518-28.715 11.418-2.278-.099-10.243.282-10.243.282s2.486-7.582 2.994-9.805c.51-2.221 4.602-13.956 18.642-24.655C-22.949-.503 0 0 0 0Z" style="fill:none;stroke:#06002b;stroke-width:1.703;stroke-linecap:butt;stroke-linejoin:miter;stroke-miterlimit:4;stroke-dasharray:none;stroke-opacity:1" transform="translate(519.2 422.96)"/><path d="M0 0s-18.69 13.331-36.321 12.392c-17.626-.939-27.601-8.344-29.273-9.893-1.67-1.553-7.99-6.42-7.99-6.42s6.804-4.169 8.627-5.534c1.825-1.361 12.533-7.661 30.16-6.722C-17.167-15.233 0 0 0 0" style="fill:#f2d41a;fill-opacity:1;fill-rule:nonzero;stroke:none" transform="translate(520.375 425.108)"/><path d="M0 0s-18.69 13.331-36.321 12.392c-17.626-.939-27.601-8.344-29.273-9.893-1.67-1.553-7.99-6.42-7.99-6.42s6.804-4.169 8.627-5.534c1.825-1.361 12.533-7.661 30.16-6.722C-17.167-15.233 0 0 0 0Z" style="fill:none;stroke:#06002b;stroke-width:1.703;stroke-linecap:butt;stroke-linejoin:miter;stroke-miterlimit:4;stroke-dasharray:none;stroke-opacity:1" transform="translate(520.375 425.108)"/><path d="M0 0s-.642 22.949-12.026 36.45c-11.388 13.499-23.313 16.999-25.555 17.399-2.247.397-9.934 2.501-9.934 2.501s.771-7.939.786-10.217c.014-2.283 1.449-14.625 12.832-28.123C-22.513 4.504 0 0 0 0" style="fill:#f2d41a;fill-opacity:1;fill-rule:nonzero;stroke:none" transform="translate(539.956 403.384)"/><path d="M0 0s-.642 22.949-12.026 36.45c-11.388 13.499-23.313 16.999-25.555 17.399-2.247.397-9.934 2.501-9.934 2.501s.771-7.939.786-10.217c.014-2.283 1.449-14.625 12.832-28.123C-22.513 4.504 0 0 0 0Z" style="fill:none;stroke:#06002b;stroke-width:1.703;stroke-linecap:butt;stroke-linejoin:miter;stroke-miterlimit:4;stroke-dasharray:none;stroke-opacity:1" transform="translate(539.956 403.384)"/><path d="M0 0s-14.301 17.957-14.301 35.619c0 17.657 6.861 28.02 8.322 29.771S0 73.71 0 73.71s4.528-6.569 5.989-8.32c1.456-1.751 8.317-12.114 8.317-29.771C14.306 17.957 0 0 0 0" style="fill:#f2d41a;fill-opacity:1;fill-rule:nonzero;stroke:none" transform="translate(539.984 403.384)"/><path d="M0 0s-14.301 17.957-14.301 35.619c0 17.657 6.861 28.02 8.322 29.771S0 73.71 0 73.71s4.528-6.569 5.989-8.32c1.456-1.751 8.317-12.114 8.317-29.771C14.306 17.957 0 0 0 0Z" style="fill:none;stroke:#06002b;stroke-width:1.703;stroke-linecap:butt;stroke-linejoin:miter;stroke-miterlimit:4;stroke-dasharray:none;stroke-opacity:1" transform="translate(539.984 403.384)"/><path d="M0 0s4.087-1.169 6.274-5.112c1.145-2.056 1.461-5.4 1.461-5.4s-4.837.307-7.876-2.335c-5.623-4.873-1.605-11.822-1.605-11.822S2.918-20.288 4.379-20c1.459.292 3.356.292 4.084.146.729-.146 1.752-1.603 1.752-1.603s-2.772-3.794-2.044-6.568c.729-2.774 4.377-8.318 4.377-8.318s-.292 4.521 1.169 7.151c1.456 2.628 2.189 3.062 3.354 3.208 1.169.146 3.899-1.351 6.281-4.085 3.938-4.527 7.881-4.527 7.881-4.527l-.441-5.251s8.466 1.605 11.676 6.274c3.21 4.673 4.269 9.869 6.568 11.532 4.236 3.064 7.005 1.602 7.005 1.602s-5.543 8.615-4.959 13.432c.58 4.815 3.062 8.756 3.062 8.756s-17.406 8.636-24.808-5.108c-3.067-5.692 1.897-13.575 1.897-13.575s-4.159-1.972-6.277-.141a55 55 0 0 1-5.399 4.081s-.33 7.97-6.281 11.971C5.69 4.084 0 0 0 0" style="fill:#e60000;fill-opacity:1;fill-rule:nonzero;stroke:none" transform="translate(483.507 548.322)"/><path d="M0 0s5.981 1.898 8.755 1.023c2.775-.877 7.106-2.496 9.779-2.192 5.107.585 10.947 7.445 10.947 7.445s-14.157-.73-17.951 1.459c-3.8 2.19-5.112 4.087-5.692 5.549-.585 1.458-.149 10.652-1.169 12.695-1.026 2.044-3.359 6.253-8.028 6.423-8.169.292-10.65-4.087-10.65-4.087s5.837.439 8.027-3.212c-14.586.876-14.002-8.612-14.002-8.612s3.194 2.228 4.813 2.046c2.623-.292 3.643-2.772 3.643-2.772s-8.168-.584-8.896-11.388c2.331-.436 5.253 3.943 9.189 4.525C-8.813 9.264-3.359 8.028 0 0" style="fill:#e60000;fill-opacity:1;fill-rule:nonzero;stroke:none" transform="translate(492.556 585.1)"/><path d="m0 0 5.84 9.927s3.939-3.066 6.713-2.774 7.004 5.11 7.004 15.324c0 20.873-13.132 23.062-13.132 44.954 0 22.039 5.984 30.213 5.251 35.03 4.963-2.917 1.327-14.6 2.189-26.71 2.468-34.852 14.743-26.271 14.743-60.132C28.608-4.23 11.676-5.4 9.779-5.4 3.066-5.4 0 0 0 0" style="fill:#e60000;fill-opacity:1;fill-rule:nonzero;stroke:none" transform="translate(569.324 543.648)"/><path d="M0 0s3.238.242 4.599-4.892c.59-2.196.388-7.275-.119-14.279 2.917 1.025 6.611 7.691 6.611 13.966 0 6.276-4.374 12.262-8.025 14.887-3.651 2.629-6.281 6.862-6.281 6.862l-.292-.585s1.073-2.846.733-4.377C-4.379 4.283-9.635.74-10.363-4.767c-1.557-11.678 5.84-16.541 5.84-16.541s.633 4.961 2.382 10.506C-.388-5.253 0-2.333 0 0" style="fill:#e60000;fill-opacity:1;fill-rule:nonzero;stroke:none" transform="translate(579.98 647.518)"/><path d="M0 0s1.183 2.747 3.651 3.138c2.113.333 4.015-.728 4.015-.728S4.963-2.187 0 0m-12.557-7.515c-.685 0-1.236.553-1.236 1.234 0 .685.551 1.238 1.236 1.238a1.237 1.237 0 0 0 0-2.472M63.198-103.7c-1.897-1.169-4.814-2.187-6.127-2.041 3.21 2.482 3.502 4.23 3.502 7.149-1.025-.693-2.625-2.629-5.692-1.606-2.692.896-2.481 3.361-3.358 4.672-.877 1.315-3.066 2.481-3.066 2.481l9.199 15.181s2.15 9.235-4.672 18.536c-8.466 11.53-8.466 22.037-8.466 22.037s2.19-1.749 5.256 0c-4.087 5.253-7.881 9.634-7.593 15.472 1.173-.292 4.235-.876 5.547.437-3.636 2.641-7.296 10.657-6.86 15.034 1.59-.728 4.235-.728 6.132.73-2.141 1.589-5.404 6.276-6.276 9.925-.877 3.648-4.528 10.799-9.05 12.114-4.523 1.313-7.005 1.459-7.005 1.459s4.523 4.379 1.164 9.343c-3.21-5.984-7.732-7.736-7.732-7.736s.148 6.276-1.749 7.736c-1.461-3.941-5.256-8.613-7.446-10.072-1.312 1.459-3.358 3.795-.733 8.902-2.155-.395-7.588-2.771-8.024-7.589-.283-3.083.584-6.568 0-7.443-.585-.876-6.861-4.671-7.446-5.984-.584-1.315-.397-3.686-1.02-4.379-1.313-1.461-3.359-2.481-4.964-3.066-1.605-.582-4.23-2.479-3.794-3.794.436-1.313 1.461-2.336 1.461-2.336s-.584-3.502.584-5.253c1.165-1.751 3.647-3.357 5.4-2.92 1.749.438 6.569 3.504 7.881 3.358s3.795-.876 3.795-2.189-.455-4.434-4.087-4.087c-3.066.292-5.84.728-6.42-1.167-.326-1.061-.149-4.089 1.021-4.671 1.164-.587 4.671-.879 4.671-.879s-.585-3.062 1.605-3.062S.292-25.905.292-25.905s5.112-.583 9.779.584c4.671 1.167 6.961 3.939 7.642 7.685.809 4.46 1.408 7.982 3.598 8.662.498 0 .44-.584.44-.584s-1.945-1.989-1.945-7.247c0-3.212-2.424-6.858-3.794-8.516-3.503-4.233-5.793-14.452-9.587-17.662-2.697-2.276-10.219-8.32-15.035-9.34-4.814-1.021-6.568 4.233-12.844 3.356-6.274-.874-8.897-5.4-8.897-5.4s5.541 1.316 8.02-1.897c2.482-3.21 5.107-2.776 5.107-2.776s-3.938-2.916-5.979-2.77c-2.043.147-5.979 1.459-5.979 1.459s.793-5.706 3.208-7.006c5.397-2.921 10.211 0 10.211 0s.293-2.921-.579-4.669c-.882-1.751-3.215-4.09-3.215-4.09s6.276-1.312 9.343 1.754c3.066 3.064 3.358 7.589 3.358 7.589s9.194-.728 22.182 4.672c12.994 5.399 16.788 12.26 16.788 12.26s.149-2.942-2.774-6.423C22.479-64.44 8.466-67.065 8.466-67.065s3.21-6.42 7.445-8.612c4.231-2.187 10.948-3.938 10.948-3.938s-8.466-6.715-7.59-13.722c.873-7.004 6.861-11.824 6.861-11.824s13.578.467 16.635-3.208c1.72-2.062 2.482-3.356.589-8.176-1.107-2.793-5.404-3.792-7.158-2.189-2.05 1.883-3.631 5.878-6.276 7.009-3.061 1.313-11.968 3.646-17.219-6.571 0 0 5.548 4.379 9.194 0-8.466-1.605-6.425-11.822-6.425-11.822s1.754 3.797 5.405 4.377c3.646.587 5.399-1.02 5.399-1.02s-3.766-1.759-3.943-4.379c-.436-6.569 5.697-9.923 5.697-9.923s-1.461 4.523.58 5.838c2.045 1.313 5.547.582 7.588-1.166 2.046-1.754 7.302 1.604 9.348 5.107 2.041 3.502 4.522 1.166 7.44 1.459 2.918.292 3.354 3.94 3.066 6.858-.292 2.922-.876 7.153-.876 7.153s2.045.439 2.338 1.461c.287 1.021-.149 2.188-.149 2.188s5.835 2.773 5.835 8.465" style="fill:#e60000;fill-opacity:1;fill-rule:nonzero;stroke:none" transform="translate(517.217 633.483)"/></g></svg>