<svg xmlns="http://www.w3.org/2000/svg" width="787.23" height="933.333"><defs><clipPath id="a" clipPathUnits="userSpaceOnUse"><path d="M0 1080h1080V0H0Z"/></clipPath></defs><g clip-path="url(#a)" transform="matrix(1.33333 0 0 -1.33333 -326.385 1186.667)"><path d="M0 0h570.585c7.637-65.274 10.962-126.675 9.478-184.01-2.669-103.056-19.241-193.147-50.109-268.835-26.226-64.305-62.018-119.43-107.583-162.463-38.961-36.796-81.502-63.58-137.133-84.692-57.446 20.937-111.848 56.465-153.259 101.22-35.927 38.827-65.966 85.996-88.032 138.016C20.181-404.736 5.47-343.019-2.691-278.514-13.197-195.472-12.484-115.504 0 0" style="fill:#1e1e53;fill-opacity:1;fill-rule:evenodd;stroke:none" transform="translate(254.803 890)"/><path d="M0 0c10.069-13.837 20.906-27.091 32.492-39.613 40.447-43.713 93.332-78.378 149.178-99.077 34.834 13.379 67.287 30.222 97.334 52.506 12.626 9.364 24.625 19.515 36.052 30.307 18.052 17.049 34.243 35.742 48.726 55.674L181.793 188.689Z" style="fill:#e20613;fill-opacity:1;fill-rule:evenodd;stroke:none" transform="translate(358.334 334.576)"/><path d="m0 0 281.6 292.281h-563.2Z" style="fill:#e20613;fill-opacity:1;fill-rule:evenodd;stroke:none" transform="translate(540.127 531.207)"/><path d="M0 0c-5.48 1.584-10.404 1.846-14.786 1.405-5.266-.53-9.941-2.151-14.235-4.868-8.197-5.187-15.013-13.517-21.926-19.882-11.907-10.963-31.516-13.332-45.121-4.159-9.404 6.341-17.559 17.53-27.534 24.039-11.201 7.308-28.187 6.804-39.123-.786-8.597-5.967-15.884-15.446-24.329-21.885-4.935-3.763-11.092-6.321-17.411-7.03l79.913 82.944c1.908-.562 3.747-1.316 5.431-2.316 8.475-5.032 14.417-13.099 21.597-19.599 6.336-5.734 13.674-10.249 24.056-10.381 9.048-.115 17.537 2.35 24.753 7.871 9.356 7.158 16.305 19.088 29.065 24.825 6.554 2.947 14.01 3.399 22.931 1.288C2.618 34.372 1.548 17.189 0 0" style="fill:#fff;fill-opacity:1;fill-rule:evenodd;stroke:none" transform="translate(825.618 640.528)"/><path d="M0 0a135 135 0 0 0-3.946-3.812c-11.908-10.964-31.517-13.332-45.121-4.159-9.404 6.34-17.559 17.53-27.534 24.038-8.302 5.416-19.779 6.541-29.617 3.671l-30.763 31.93c12.735.131 18.113 8.875 24.8 13.727 12.317 8.936 27.81 9.513 40.871 1.762 8.47-5.026 13.772-12.778 20.949-19.275 6.332-5.731 14.161-10.089 24.542-10.219 11.789-.148 20.867 3.551 29.167 11.68 7.102 6.955 13.635 15.706 24.003 20.368q1.54.693 3.151 1.201a553 553 0 0 0-9.896-26.168C14.401 29.53 7.546 14.576 0 0" style="fill:#fff;fill-opacity:1;fill-rule:evenodd;stroke:none" transform="translate(759.048 394.492)"/><path d="M0 0a37.7 37.7 0 0 1-7.325-.026c-5.267-.53-9.78-2.151-14.073-4.868-8.197-5.187-14.853-13.52-21.764-19.882-11.905-10.961-31.843-11.385-45.445-2.214-9.402 6.338-17.559 15.585-27.534 22.093-11.201 7.309-28.187 6.805-39.123-.785-8.597-5.967-15.884-15.446-24.33-21.885-11.715-8.933-27.577-9.336-40.059-1.832-9.032 5.428-15.676 13.95-22.683 20.206-5.927 5.291-13.27 9.376-21.099 8.402l33.767 35.048c4.432-4.327 9.198-8.848 13.85-11.697 12.72-7.79 26.346-8.062 39.063-.496 5.281 3.141 9.242 7.237 13.124 11.113 4.99 4.985 9.432 9.455 11.911 11.254 12.315 8.935 27.81 9.512 40.87 1.762 8.469-5.026 13.774-11.969 20.949-18.464 6.331-5.73 14.164-10.091 24.542-10.22 11.788-.145 20.867 2.742 29.167 10.87 7.101 6.955 13.635 15.707 24.003 20.368 6.364 2.862 13.58 3.37 22.161 1.465C7.215 33.352 3.913 16.588 0 0" style="fill:#fff;fill-opacity:1;fill-rule:evenodd;stroke:none" transform="translate(807.893 528.55)"/><path d="M0 0c-3.207.44-6.195.442-8.965.163-5.267-.53-9.942-2.151-14.235-4.868-8.198-5.187-15.013-13.517-21.927-19.882-11.907-10.963-31.516-13.332-45.12-4.159q-1.078.728-2.136 1.535l89.354 92.743C-1.467 43.716-.422 21.855 0 0" style="fill:#fff;fill-opacity:1;fill-rule:evenodd;stroke:none" transform="translate(829.494 754.931)"/><path d="M0 0c5.408 1.537 10.272 1.789 14.605 1.353 5.267-.53 9.942-2.151 14.235-4.868 8.198-5.187 15.013-13.517 21.926-19.882 11.908-10.963 31.517-13.332 45.121-4.159 9.404 6.341 17.559 17.531 27.534 24.039 11.202 7.308 28.188 6.804 39.123-.786 8.597-5.967 15.884-15.445 24.33-21.885 5.05-3.851 11.379-6.439 17.852-7.076l-68.68 71.286-11.364 11.794c-2.019-.571-3.966-1.352-5.741-2.405-8.475-5.032-14.417-13.1-21.598-19.599-6.335-5.735-13.673-10.25-24.055-10.382-9.048-.115-17.537 2.351-24.753 7.871-9.357 7.158-16.305 19.088-29.066 24.825-6.541 2.942-13.983 3.397-22.883 1.3l.032-.804.023-.607.008-.197.056-1.369.009-.218.001-.02.007-.177.06-1.431.007-.155.029-.648.036-.804.015-.332.021-.472.037-.803.024-.508.003-.053.05-1.046.033-.684.006-.12.01-.191.057-1.15.014-.267.003-.054.038-.749.042-.803.013-.231.03-.573.044-.804.022-.407.022-.396.045-.803.006-.116.04-.688.046-.804.044-.758.003-.045.019-.31.07-1.177.007-.12.008-.131.042-.672.049-.804.05-.783.001-.021.051-.803.031-.482.021-.321.053-.804.009-.128.065-.975.071-1.054.018-.253.002-.031.054-.773.056-.803.05-.706.007-.097.058-.804.006-.083.049-.672.004-.048.059-.803.041-.559.019-.245.061-.804.009-.121.111-1.432.004-.053.063-.804.008-.106.026-.333.094-1.167.023-.283.042-.521.066-.804.038-.458.029-.345.067-.804.018-.214.05-.589.069-.803.07-.804v-.006l.07-.798.071-.803.016-.182.056-.621.073-.804.009-.103.064-.701.074-.803.05-.534.025-.27.125-1.328.018-.185z" style="fill:#fff;fill-opacity:1;fill-rule:evenodd;stroke:none" transform="translate(254.421 640.58)"/><path d="M0 0c1.011-.998 2.018-1.97 3.029-2.9C14.937-13.864 34.545-16.233 48.15-7.06c9.404 6.341 17.559 17.531 27.533 24.039 8.389 5.473 20.021 6.565 29.927 3.58l30.848 32.018c-13.02-.048-18.439 8.827-25.195 13.729-12.317 8.937-27.81 9.514-40.87 1.763-8.47-5.027-13.772-12.779-20.95-19.275-6.332-5.731-14.161-10.09-24.541-10.22-11.79-.147-20.867 3.552-29.167 11.681-7.103 6.955-13.636 15.706-24.003 20.368q-1.312.59-2.674 1.045l.186-.535.544-1.548.02-.058.189-.535.19-.535.546-1.532.412-1.145.53-1.467.519-1.421.464-1.26.539-1.452.464-1.243.652-1.729.331-.87q.365-.959.734-1.918l.249-.643q.434-1.125.875-2.249l.155-.397q.459-1.167.922-2.331l.136-.34q.482-1.212.971-2.419l.108-.266q.504-1.248 1.017-2.492l.034-.084.066-.16q.519-1.261 1.044-2.519l.008-.019.033-.08q.547-1.308 1.1-2.613l.616-1.447.029-.066.123-.286.515-1.199.012-.028.636-1.465.029-.069.626-1.43.024-.055.018-.04.632-1.432.029-.066.62-1.392.037-.082.588-1.31.086-.194.091-.201.27-.595.27-.595.049-.11.222-.485.271-.594.048-.103.225-.491.547-1.187.063-.137.211-.456.391-.839.248-.532.453-.967.287-.61.007-.013.279-.591.037-.079.243-.512.281-.591.282-.59.236-.494.046-.096.284-.589.042-.088.442-.916.085-.175.285-.588.287-.589.287-.588.026-.052.502-1.023.048-.1.29-.587.29-.586.292-.586.584-1.172.293-.585.294-.585.296-.584.021-.041.551-1.088.058-.114q.724-1.421 1.456-2.839l.302-.581.301-.581.303-.581.028-.054Z" style="fill:#fff;fill-opacity:1;fill-rule:evenodd;stroke:none" transform="translate(321.728 393.58)"/><path d="M0 0c2.407.194 4.682.147 6.828-.069 5.267-.53 9.78-2.152 14.073-4.868 8.197-5.187 14.851-13.518 21.764-19.882 11.907-10.963 31.841-13.332 45.445-4.16 9.403 6.341 17.559 17.531 27.533 24.039 11.202 7.308 28.188 6.805 39.124-.786 8.597-5.967 15.884-15.446 24.329-21.885 11.716-8.932 27.578-9.335 40.06-1.832 9.031 5.429 15.675 13.951 22.683 20.207 6.042 5.394 13.556 9.534 21.556 8.339l-34.02 35.31c-4.489-4.387-9.33-9.004-14.054-11.896-12.72-7.791-26.346-8.062-39.064-.496-5.28 3.141-9.242 7.237-13.123 11.113-4.99 4.985-9.432 9.455-11.911 11.253-12.315 8.935-27.81 9.514-40.87 1.763-8.47-5.027-13.772-12.779-20.949-19.275-6.333-5.731-14.162-10.09-24.542-10.219-11.79-.148-20.867 3.551-29.168 11.68-7.101 6.954-13.635 15.706-24.002 20.368-6.254 2.812-13.331 3.352-21.719 1.561l.033-.201.343-2.051.02-.116.134-.789.017-.102.311-1.818.22-1.271.252-1.444.017-.097.139-.789.14-.788.257-1.435.025-.142.142-.787.054-.298.233-1.278.144-.788.146-.787.006-.034.261-1.401.334-1.779.137-.722.151-.787.221-1.149.269-1.39.315-1.603.194-.984.381-1.908.229-1.134.368-1.804.169-.822q.224-1.086.452-2.172l.13-.619q.237-1.13.479-2.26l.123-.576q.235-1.091.472-2.181l.183-.838q.239-1.093.482-2.187l.109-.492q.266-1.189.534-2.377l.096-.424q.284-1.247.57-2.492l.112-.48q.278-1.203.561-2.404l.035-.152z" style="fill:#fff;fill-opacity:1;fill-rule:evenodd;stroke:none" transform="translate(272.462 528.593)"/><path d="M0 0c3.108.404 6.007.399 8.701.128 5.267-.531 9.941-2.151 14.235-4.868 8.198-5.187 15.013-13.517 21.926-19.882 11.908-10.964 31.517-13.332 45.121-4.159a47 47 0 0 1 2.363 1.709L3.286 65.367l-.075-1.021-.001-.028-.073-.991-.004-.058-.069-.963-.006-.087-.067-.934-.008-.115-.063-.906-.01-.143-.062-.877-.012-.173-.058-.847-.014-.202-.056-.819-.016-.23-.07-1.05-.052-.762-.019-.288-.048-.732-.021-.317-.047-.704-.022-.346-.044-.675-.024-.375-.042-.646-.026-.403-.039-.618-.027-.432-.037-.589-.029-.46-.035-.561-.03-.49-.033-.531-.031-.519-.031-.502-.033-.548-.029-.474-.034-.576-.026-.445-.036-.604-.024-.417-.037-.633-.023-.388-.037-.662-.021-.359-.039-.691-.019-.331-.04-.72-.017-.301-.041-.749-.015-.272-.043-.777-.013-.244-.043-.807-.011-.215-.044-.835-.01-.186-.045-.864-.008-.158-.046-.893-.007-.128-.046-.922-.005-.1-.047-.95-.004-.071-.048-.979-.002-.043-.049-1.008-.001-.013-.048-1.022-.001-.015-.047-1.006-.002-.044-.045-.978-.003-.073-.043-.949-.004-.101-.041-.92-.005-.13-.04-.892-.006-.159-.037-.863-.008-.187-.035-.834-.009-.217-.033-.805-.01-.246-.031-.776-.011-.274-.029-.748-.012-.303-.028-.718-.012-.332-.026-.69-.038-1.022-.014-.39-.023-.632-.035-.983-.001-.038-.016-.447-.019-.575-.016-.476-.019-.546-.016-.505-.017-.517-.017-.533-.016-.489-.062-2.044-.019-.62-.011-.401-.019-.649-.01-.374-.019-.677-.01-.344-.018-.706-.009-.316-.019-.735-.007-.287-.02-.764Z" style="fill:#fff;fill-opacity:1;fill-rule:evenodd;stroke:none" transform="translate(250.628 754.967)"/><path d="M0 0a2.323 2.323 0 1 1 .001-4.645A2.323 2.323 0 0 1 0 0m0 3.89a6.214 6.214 0 0 1-6.213-6.212A6.213 6.213 0 1 1 0 3.89m-16.038-16.351C-20.992-6.69-25.622-.919-29.118 4.852c4.951.938 9.382.793 15.228-.162 6.968 6.384 17.686 6.747 24.215 3.557C17.143 4.916 24.374-2.46 25.657-21l1.095-.622a5.3 5.3 0 0 1-2.069-2.155c-3.563-6.754-4.888-15.989-2.407-23.325 3.028-8.954 10.951-13.857 19.891-15.499 13.492-2.478 28.095.168 41.458 2.472 2.741.473 5.474.936 8.205 1.38 9.579-9.829 27.732-18.949 48.413-16.684-6.821-12.577-20.928-11.487-31.471-9.68 1.23-11.088 5.707-18.806 10.278-24.645-8.342-1.274-17.651 10.05-31.6 18.217-8.434 4.938-17.974 7.1-25.781 7.769-7.198.617-13.848.795-22.2-1.861-.794-9.027 1.824-17.589 3.506-20.759.847-1.595.643-3.961-2.108-2.692-3.69 1.703-6.725 2.144-11.059.018-2.112-1.037-4.028.279-3.104 2.17 3.024 6.192 4.049 13.296 3.751 20.837-3.818.315-8.284.63-12.101 1.432-.985-8.005 1.805-15.463 3.674-20.473.495-1.327-.311-2.756-2.064-1.693-3.908 2.37-8.851 2.031-13.136.111-1.517-.679-1.844.509-1.531 1.247 2.882 6.792 4.58 14.823 3.684 23.381-17.769 7.581-27.161 20.365-29.628 34.27-1.919 10.812-.649 24.414 4.609 35.323" style="fill:#e20613;fill-opacity:1;fill-rule:evenodd;stroke:none" transform="translate(336.366 588.31)"/><path d="M0 0c-3.888-7.372-3.772-15.506-2.163-20.265 2.594-7.667 9.517-11.561 16.909-12.919 12.455-2.288 26.16.077 40.094 2.48 12.686 2.187 25.209 4.254 39.307 5.053-9.375 6.861-24.418 10.106-35.766 11.601-10.994 1.449-23.245 2.031-33.886 4.317C15.348-7.77 8.272-4.538 2.912.246 2.048 1.018.559 1.062 0 0" style="fill:#e20613;fill-opacity:1;fill-rule:evenodd;stroke:none" transform="translate(364.49 562.72)"/><path d="M0 0c1.217 3.742 1.742 7.698 1.823 11.642-1.514.131-3.032.278-4.54.469C-2.535 7.965-1.388 3.938 0 0m-39.817 110.087c7.436 5.706 18.674 7.044 27.07 2.942 11.86-5.794 16.142-18.045 17.331-30.375 11.137-11.534 22.905-12.842 34.148-14.34 5.297-.705 12.312-1.338 23.502-2.811 9.961-1.312 22.124-3.839 31.691-8.741 5.245-2.688 12.052-7.328 15.269-10.797-5.686.272-10.058.324-14.755-.016l-.356-.026-.206-.015-.149-.012-.356-.027-.056-.005-.299-.023-.262-.021-.094-.007-.355-.029-.112-.01-.243-.02-.318-.027-.037-.003-.354-.031-.169-.015-.186-.016-.354-.032-.02-.002-.335-.03-.225-.021-.129-.012-.354-.034-.076-.007-.057-.005-.502-.049-.073-.007-.354-.034-.132-.014-.558-.056-.017-.002-.353-.037-.189-.019-.165-.017-.353-.038-.039-.004-.314-.034-.244-.026-.109-.012-.353-.039-.095-.01-.257-.029-.3-.034-.053-.006-.353-.04-.151-.017-.201-.024-.353-.041h-.003l-.349-.041-.207-.025-.145-.017-.353-.043-.059-.007-.293-.035-.263-.033-.089-.011-.352-.044-.114-.014-.238-.03-.318-.04-.033-.004-.352-.045-.171-.022-.181-.024-.351-.045-.023-.003-.329-.043-.226-.03-.125-.017-.352-.047-.078-.01-.273-.037-.282-.038-.069-.009-.352-.049-.134-.018-.217-.03-.338-.047-.013-.002-.352-.049-.19-.027-.161-.022-.351-.05-.042-.006-.309-.044-.246-.036-.105-.015-.351-.05-.098-.015-.253-.036-.302-.045-.049-.007-.351-.052-.154-.022-.197-.03-.351-.052-.006-.001-.344-.051-.21-.032-.141-.022-.351-.053-.062-.009-.289-.045c4.729-4.243 10.548-7.62 16.35-9.903 6.383-2.511 13.137-3.882 19.955-3.993 4.669-.076 9.46.134 14.085.64-1.93-4.112-4.309-8.455-7.535-11.72-6.753-6.833-16.386-7.777-26.03-6.741C90.042 5.636 92.563.384 96.259-4.656c1.661-2.264 3.445-4.445 5.176-6.655a25 25 0 0 0-9.401-1.113c-5.034.357-9.781 3.509-13.739 6.367-5.877 4.244-11.293 8.759-17.591 12.446-7.221 4.228-15.841 6.538-24.147 7.25-6.51.558-11.981.603-18.122-.958-.036-2.953.288-5.941.887-8.808.463-2.218 1.24-5.139 2.31-7.155 2.78-5.237-1.271-10.771-7.175-8.048-2.943 1.359-4.73 1.523-7.715.058-2.754-1.351-6.28-.952-8.065 1.758a5 5 0 0 0-.173.282c-1.507-.746-3.442-.75-5.337.4-2.874 1.743-6.602 1.198-9.528-.113-4.499-2.015-8.501 2.078-6.703 6.317 2.585 6.091 3.89 12.655 3.566 19.253-15.139 7.078-26.748 19.227-29.759 36.198-2.013 11.342-.675 24.549 3.881 35.354-4.267 5.042-8.44 10.319-11.849 15.947l-2.904 4.794 5.508 1.043c5.117.969 9.788.833 14.804.126" style="fill:#1e1e53;fill-opacity:1;fill-rule:evenodd;stroke:none" transform="translate(672.518 487.024)"/><path d="M0 0a2.323 2.323 0 1 1 .001-4.645A2.323 2.323 0 0 1 0 0m0 3.89a6.214 6.214 0 0 1-6.213-6.212A6.213 6.213 0 1 1 0 3.89m-16.038-16.351C-20.992-6.69-25.622-.919-29.118 4.852c4.951.938 9.382.793 15.227-.162 6.969 6.384 17.687 6.747 24.215 3.557C17.048 4.962 24.174-2.256 25.6-20.234c.055-.704.16-1.068.017-1.566-.161-.565-.595-1.257-.934-1.977-3.563-6.754-4.888-15.989-2.407-23.325 3.028-8.954 10.95-13.857 19.891-15.499 13.492-2.478 28.095.168 41.457 2.472 2.742.473 5.475.936 8.206 1.38 9.579-9.829 27.732-18.949 48.413-16.684-6.821-12.577-20.928-11.487-31.471-9.68 1.23-11.088 5.707-18.806 10.278-24.645-8.342-1.274-17.651 10.05-31.6 18.217-8.435 4.938-17.974 7.1-25.781 7.769-7.198.617-13.848.795-22.2-1.861-.794-9.027 1.824-17.589 3.506-20.759.847-1.595.642-3.961-2.108-2.692-3.69 1.703-6.725 2.144-11.059.018-2.112-1.037-4.028.279-3.104 2.17 3.024 6.192 4.049 13.296 3.751 20.837-3.818.315-8.284.63-12.101 1.432-.985-8.005 1.804-15.463 3.674-20.473.495-1.327-.311-2.756-2.064-1.693-3.908 2.37-8.851 2.031-13.136.111-1.517-.679-1.844.509-1.531 1.247 2.882 6.792 4.58 14.823 3.684 23.381-17.769 7.581-27.161 20.365-29.628 34.27-1.919 10.812-.649 24.414 4.609 35.323" style="fill:#e20613;fill-opacity:1;fill-rule:evenodd;stroke:none" transform="translate(647.739 588.31)"/><path d="M0 0c-3.888-7.372-3.772-15.506-2.163-20.265 2.594-7.667 9.517-11.561 16.909-12.919 12.455-2.288 26.16.077 40.094 2.48 12.686 2.187 25.209 4.254 39.307 5.053-9.375 6.861-24.418 10.106-35.766 11.601-10.994 1.449-23.245 2.031-33.886 4.317C15.348-7.77 8.272-4.538 2.912.246 2.048 1.018.559 1.062 0 0" style="fill:#e20613;fill-opacity:1;fill-rule:evenodd;stroke:none" transform="translate(675.863 562.72)"/><path d="M0 0c1.217 3.742 1.742 7.698 1.823 11.642-1.514.131-3.032.278-4.54.469C-2.535 7.965-1.387 3.938 0 0m-39.817 110.087c7.436 5.706 18.674 7.044 27.07 2.942 11.86-5.794 16.142-18.045 17.332-30.375C15.721 71.12 27.49 69.812 38.732 68.314c5.297-.705 12.312-1.338 23.502-2.811 9.961-1.312 22.124-3.839 31.691-8.741 5.245-2.688 12.052-7.328 15.269-10.797-5.686.272-10.058.324-14.754-.016l-.356-.026-.206-.015-.15-.012-.355-.027-.057-.005-.299-.023-.262-.021-.094-.007-.355-.029-.112-.01-.243-.02-.318-.027-.037-.003-.354-.031-.169-.015-.186-.016-.354-.032-.02-.002-.335-.03-.225-.021-.129-.012-.354-.034-.076-.007-.057-.005-.502-.049-.073-.007-.354-.034-.132-.014-.558-.056-.017-.002-.353-.037-.188-.019-.166-.017-.353-.038-.039-.004-.314-.034-.244-.026-.109-.012-.353-.039-.095-.01-.257-.029-.3-.034-.053-.006-.353-.04-.151-.017-.201-.024-.353-.041h-.003l-.349-.041-.207-.025-.146-.017-.352-.043-.058-.007-.294-.035-.263-.033-.088-.011-.352-.044-.115-.014-.237-.03-.319-.04-.033-.004-.352-.045-.171-.022-.181-.024-.351-.045-.023-.003-.329-.043-.226-.03-.125-.017-.352-.047-.078-.01-.273-.037-.282-.038-.069-.009-.352-.049-.134-.018-.217-.03-.338-.047-.013-.002-.351-.049-.191-.027-.161-.022-.351-.05-.042-.006-.309-.044-.246-.036-.105-.015-.351-.05-.098-.015-.253-.036-.301-.045-.05-.007-.351-.052-.153-.022-.198-.03-.351-.052-.006-.001-.344-.051-.21-.032-.141-.022-.351-.053-.062-.009-.289-.045c4.729-4.243 10.548-7.62 16.351-9.903 6.382-2.511 13.136-3.882 19.954-3.993 4.669-.076 9.46.134 14.086.64-1.931-4.112-4.31-8.455-7.536-11.72-6.753-6.833-16.386-7.777-26.03-6.741C90.042 5.636 92.563.384 96.259-4.656c1.661-2.264 3.445-4.445 5.176-6.655a25 25 0 0 0-9.401-1.113c-5.034.357-9.781 3.509-13.739 6.367-5.877 4.244-11.293 8.759-17.591 12.446-7.221 4.228-15.841 6.538-24.147 7.25-6.51.558-11.981.603-18.122-.958-.036-2.953.288-5.941.887-8.808.463-2.218 1.24-5.139 2.31-7.155 2.78-5.237-1.271-10.771-7.175-8.048-2.943 1.359-4.73 1.523-7.715.058-2.754-1.351-6.28-.952-8.065 1.758a5 5 0 0 0-.173.282c-1.507-.746-3.442-.75-5.337.4-2.874 1.743-6.602 1.198-9.528-.113-4.499-2.015-8.501 2.078-6.703 6.317 2.585 6.091 3.89 12.655 3.566 19.253-15.138 7.078-26.748 19.227-29.759 36.198-2.013 11.342-.675 24.549 3.881 35.354-4.267 5.042-8.44 10.319-11.849 15.947l-2.904 4.794 5.508 1.043c5.117.969 9.788.833 14.804.126" style="fill:#1e1e53;fill-opacity:1;fill-rule:evenodd;stroke:none" transform="translate(361.146 487.024)"/><path d="M0 0a2.323 2.323 0 1 1 .001-4.645A2.323 2.323 0 0 1 0 0m0 3.89a6.214 6.214 0 0 1-6.213-6.212A6.213 6.213 0 1 1 0 3.89m-16.038-16.351C-20.992-6.69-25.622-.919-29.118 4.852c4.951.938 9.382.793 15.228-.162 6.968 6.384 17.686 6.747 24.215 3.557C17.048 4.962 24.174-2.256 25.6-20.234c.056-.704.16-1.068.018-1.566-.161-.565-.596-1.257-.935-1.977-3.563-6.754-4.888-15.989-2.407-23.325 3.028-8.954 10.951-13.857 19.891-15.499 13.492-2.478 28.095.168 41.458 2.472 2.741.473 5.474.936 8.205 1.38 9.579-9.829 27.732-18.949 48.413-16.684-6.821-12.577-20.928-11.487-31.471-9.68 1.23-11.088 5.707-18.806 10.278-24.645-8.342-1.274-17.651 10.05-31.6 18.217-8.434 4.938-17.974 7.1-25.781 7.769-7.198.617-13.848.795-22.2-1.861-.794-9.027 1.824-17.589 3.506-20.759.847-1.595.643-3.961-2.108-2.692-3.69 1.703-6.725 2.144-11.059.018-2.112-1.037-4.028.279-3.104 2.17 3.024 6.192 4.049 13.296 3.751 20.837-3.818.315-8.284.63-12.101 1.432-.985-8.005 1.805-15.463 3.674-20.473.495-1.327-.311-2.756-2.064-1.693-3.908 2.37-8.851 2.031-13.136.111-1.517-.679-1.844.509-1.531 1.247 2.882 6.792 4.58 14.823 3.684 23.381-17.769 7.581-27.161 20.365-29.628 34.27-1.919 10.812-.649 24.414 4.609 35.323" style="fill:#e20613;fill-opacity:1;fill-rule:evenodd;stroke:none" transform="translate(336.366 588.31)"/><path d="M0 0c-3.888-7.372-3.772-15.506-2.163-20.265 2.594-7.667 9.517-11.561 16.909-12.919 12.455-2.288 26.16.077 40.094 2.48 12.686 2.187 25.209 4.254 39.307 5.053-9.375 6.861-24.418 10.106-35.766 11.601-10.994 1.449-23.245 2.031-33.886 4.317C15.348-7.77 8.272-4.538 2.912.246 2.048 1.018.559 1.062 0 0" style="fill:#e20613;fill-opacity:1;fill-rule:evenodd;stroke:none" transform="translate(364.49 562.72)"/><path d="M0 0c10.206-5.725 16.81-16.622 16.81-28.709 0-13.989-8.813-26.197-21.501-30.877a29.4 29.4 0 0 0 1.23-8.396c0-9.814-3.759-18.781-11.401-25.02-5.44-4.442-12.294-6.976-19.218-7.845-11.329-1.424-23.158.468-33.917 4.547v-28.026h38.781c3.08 0 3.078-5.349 0-5.349h-112.043c-3.077 0-3.08 5.349 0 5.349h39.24v28.139c-10.775-4.094-22.626-6-33.973-4.594-8.222 1.018-16.472 4.347-22.302 10.372-5.936 6.133-8.445 14.146-8.326 22.57.038 2.687.439 5.33 1.172 7.882-12.887 4.566-21.897 16.871-21.897 31.019 0 12.412 6.96 23.535 17.572 29.125a32.8 32.8 0 0 0-4.424 16.489c0 18.169 14.737 32.906 32.906 32.906q.94 0 1.877-.052c3.084 15.004 16.376 26.246 32.23 26.246a32.84 32.84 0 0 0 21.946-8.387 32.85 32.85 0 0 0 22.163 8.583c16.055 0 29.43-11.507 32.326-26.721q1.112.075 2.228.075c18.169 0 32.906-14.737 32.906-32.907A32.8 32.8 0 0 0 0 0" style="fill:#1e1e53;fill-opacity:1;fill-rule:evenodd;stroke:none" transform="translate(625.393 375.413)"/><path d="M0 0c8.975 0 16.949-4.294 21.981-10.938C27.004-4.182 35.045.196 44.109.196c15.212 0 27.55-12.333 27.557-27.544 2.235.585 4.579.898 6.997.898 15.217 0 27.557-12.341 27.557-27.558a27.46 27.46 0 0 0-7.317-18.697c11.411-3.37 19.742-13.929 19.742-26.431 0-13.822-10.181-25.27-23.452-27.253 2.015-3.633 3.181-7.711 3.181-12.02 0-8.798-3.462-16-9.435-20.877-4.36-3.559-10.134-5.881-16.502-6.681-13.387-1.682-27.287 1.742-38.599 7.425v-36.219H10.514v36.337c-11.322-5.696-25.25-9.137-38.666-7.476-7.655.948-14.518 4.034-19.115 8.784s-6.929 11.166-6.821 18.774c.059 4.173 1.179 8.128 3.086 11.673-13.445 1.83-23.81 13.358-23.81 27.304 0 12.84 8.787 23.633 20.675 26.69a27.46 27.46 0 0 0-7.528 18.924c0 15.217 12.341 27.558 27.558 27.558 2.259 0 4.455-.274 6.557-.788C-27.243-12.03-15.024 0 0 0" style="fill:#846c33;fill-opacity:1;fill-rule:evenodd;stroke:none" transform="translate(518.209 445.84)"/><path d="M0 0h-22.694l15.723 18.977c1.577 1.902-1.729 4.644-3.306 2.74L-31.83-4.295H0C2.47-4.295 2.472 0 0 0" style="fill:#1e1e53;fill-opacity:1;fill-rule:evenodd;stroke:none" transform="translate(585.058 309.304)"/><path d="m0 0-15.128-18.696V6.901c0 2.472-4.295 2.47-4.295 0V-30.83l4.295 5.307L3.338-2.702C4.892-.781 1.555 1.922 0 0" style="fill:#1e1e53;fill-opacity:1;fill-rule:evenodd;stroke:none" transform="translate(565.388 340.017)"/><path d="M0 0h22.694L6.971 18.977c-1.576 1.902 1.729 4.644 3.306 2.74L31.83-4.295H0C-2.47-4.295-2.472 0 0 0" style="fill:#1e1e53;fill-opacity:1;fill-rule:evenodd;stroke:none" transform="translate(495.788 309.304)"/><path d="m0 0 15.128-18.696V6.901c0 2.472 4.295 2.47 4.295 0V-30.83l-4.295 5.307L-3.339-2.702C-4.892-.781-1.555 1.922 0 0" style="fill:#1e1e53;fill-opacity:1;fill-rule:evenodd;stroke:none" transform="translate(515.458 340.017)"/><path d="M0 0c-3.592 4.483-11.279 3.503-17.64-1.594s-8.893-12.512-5.402-16.869c2.596-3.24 8.998-2.972 13.314-2.28 1.329.08 1.978-.464 1.581-1.956-1.594-4.077-3.455-10.04-.807-13.346 3.49-4.357 11.278-3.503 17.64 1.594s8.892 12.512 5.402 16.868c-2.68 3.346-8.99 3.224-13.232 2.47-1.039-.153-1.641.587-1.411 1.631C1.119-9.625 2.684-3.35 0 0m91.545 0c-2.684-3.35-1.119-9.625.555-13.482.231-1.044-.372-1.784-1.411-1.631-4.241.754-10.551.876-13.232-2.47-3.491-4.356-.96-11.771 5.402-16.868s14.149-5.951 17.64-1.594c2.649 3.306.787 9.269-.807 13.346-.397 1.492.252 2.036 1.581 1.956 4.316-.692 10.718-.96 13.315 2.28 3.49 4.357.959 11.772-5.402 16.869C102.824 3.503 95.137 4.483 91.545 0m-30.64 44.189 25.419 20.367-.47.127c-7.2 1.931-16.218 3.652-24.769 3.802-.034-8.291-.093-16.363-.18-24.296M5.332 64.468l25.18-20.176c-.168 8.053-.314 16.127-.438 24.177-8.48-.132-17.642-1.695-23.866-3.717Zm155.27 59.603 9.909-12.366-11.875-9.514 28.707-35.829-42.959-34.42-28.707 35.828-55.075-44.128-.065-3.408 10.492-8.406c13.73 12.014 33.517 13.663 47.244 2.663 8.75-7.01 12.364-17.278 13.544-28.036 1.133-10.317.333-21.773-.143-32.896-8.297-2.157-21.788-5.857-34.019-6.868-10.6-.876-19.41-.726-28.471 6.535-4.796 3.842-8.236 8.755-10.309 14.206-1.804-41.893-4.698-81.722-12.117-103.416-.22-.644-1.823-.643-2.046 0C36.708-113 34.621-75.478 32.862-32.054c-2.051-5.655-5.555-10.757-10.501-14.72-9.061-7.261-17.87-7.411-28.471-6.535-12.231 1.011-25.722 4.711-34.019 6.868-.476 11.123-1.275 22.579-.143 32.896 1.181 10.758 4.794 21.026 13.544 28.036 13.728 11 33.514 9.351 47.244-2.663l10.566 8.466-.087 3.306-55.127 44.17-28.707-35.828-42.959 34.42 28.707 35.829-11.874 9.514 9.908 12.366L.056 68.695v8.879l3.675.822c9.929 2.219 19.987 3.594 30.114 4.197-2.137 8.926-3.118 16.476-1.71 23.773.365 1.892 1.271 3.619 2.254 4.955a14.7 14.7 0 0 0-3.347 9.36c0 8.154 6.612 14.766 14.766 14.766s14.766-6.612 14.766-14.766c0-3.521-1.234-6.754-3.291-9.291 1.042-1.403 1.949-3.334 2.41-5.706 1.19-6.122.439-14.131-1.777-23.087 10.147-.599 20.229-1.976 30.181-4.201l3.675-.822v-8.652z" style="fill:#1e1e53;fill-opacity:1;fill-rule:evenodd;stroke:none" transform="translate(494.54 683.79)"/><path d="M0 0c1.008 4.61.8 9.535-1.894 12.898a12 12 0 0 1-2.968 2.648c-6.758 4.246-15.581 1.054-21.28-3.513-5.849-4.686-10.983-13.093-7.781-20.704.42-.997.974-1.928 1.65-2.772 2.842-3.547 7.743-4.578 12.567-4.482-1.22-4.568-1.469-9.369 1.521-13.1a11.6 11.6 0 0 1 2.345-2.214C-9.111-36.025.214-32.847 6.063-28.16c5.849 4.686 10.983 13.094 7.78 20.704a11.7 11.7 0 0 1-1.649 2.772C9.441-1.249 4.71-.015 0 0m154.311 127.423 4.03-5.03L18.641 10.46c6.22-9.479 8.175-21.665 3.708-32.32-1.859-4.433-4.736-8.28-8.489-11.287-7.883-6.316-15.532-6.313-25.146-5.518-10.067.831-20.072 3.319-29.869 5.86-.458 9.501-1.035 19.339-.007 28.706 1.043 9.512 4.107 18.709 11.811 24.881 13.687 10.967 32.679 6.843 44.008-5.256z" style="fill:#846c33;fill-opacity:1;fill-rule:evenodd;stroke:none" transform="translate(500.103 673.83)"/><path d="m0 0-35.623-28.543 16.841-21.017 9.19 7.363 2.939-3.668-9.19-7.363 5.976-7.459L6.237-47.784-6.351-32.073l-8.64-6.922-2.939 3.668L3.017-18.543l2.94-3.668-8.64-6.922L9.905-44.844l15.85 12.699-5.975 7.459-9.306-7.456-2.939 3.668 9.305 7.456z" style="fill:#846c33;fill-opacity:1;fill-rule:evenodd;stroke:none" transform="translate(649.52 783.026)"/><path d="M0 0c-1.008 4.61-.8 9.535 1.894 12.898a12 12 0 0 0 2.968 2.648c6.758 4.246 15.581 1.053 21.28-3.513 5.849-4.686 10.983-13.094 7.78-20.704a11.7 11.7 0 0 0-1.649-2.772c-2.842-3.547-7.743-4.578-12.567-4.482 1.22-4.568 1.469-9.369-1.521-13.1a11.6 11.6 0 0 0-2.345-2.214C9.111-36.025-.214-32.847-6.063-28.16c-5.848 4.686-10.983 13.094-7.78 20.704.419.996.973 1.928 1.649 2.771C-9.441-1.25-4.71-.015 0 0m-25.766 16.169 7.125-5.709c-6.22-9.479-8.175-21.665-3.708-32.32 1.859-4.433 4.736-8.28 8.489-11.287 7.883-6.316 15.532-6.313 25.145-5.518 10.068.831 20.073 3.319 29.87 5.86.458 9.502 1.035 19.34.007 28.706-1.044 9.512-4.107 18.709-11.811 24.881-13.686 10.967-32.679 6.843-44.008-5.256l-10.914 8.744q-.09-4.054-.195-8.101m-128.545 111.254-4.03-5.03 103.199-82.687a3804 3804 0 0 0-.196 8.415z" style="fill:#846c33;fill-opacity:1;fill-rule:evenodd;stroke:none" transform="translate(580.523 673.83)"/><path d="m0 0 35.623-28.543-16.84-21.017-9.19 7.363-2.94-3.668 9.19-7.363-5.976-7.459-16.104 12.903L6.351-32.073l8.64-6.922 2.939 3.668-20.947 16.784-2.94-3.668 8.64-6.922-12.588-15.711-15.85 12.699 5.976 7.459 9.305-7.456 2.939 3.668-9.305 7.456z" style="fill:#846c33;fill-opacity:1;fill-rule:evenodd;stroke:none" transform="translate(431.105 783.026)"/><path d="M0 0c13.525 3.024 26.934 4.376 40.229 4.438C54.382 4.503 68.409 3.109 82.315 0v-4.585C69.035-1.023 52.706 1.122 40.8-2.478 30.205.911 11.788-.757 0-4.585Z" style="fill:#846c33;fill-opacity:1;fill-rule:evenodd;stroke:none" transform="translate(499.297 757.598)"/><path d="M0 0c.118 9.337.192 18.675.232 28.016-2.972-.172-5.83-.579-8.469-1.283V-6.6Zm-8.237-152.331c1.61 10.339 2.382 20.226 3.296 30.652 1.673 19.061 2.558 38.267 3.317 57.368.579 14.581.997 29.158 1.289 43.737l-7.902-6.33zM-19.903-36.253q.42-13.448.948-26.891c.849-21.565 1.627-43.29 3.579-64.785.745-8.2 1.673-16.429 3.024-24.558v122.284zm-1.472 64.257c.227-14.801.523-29.604.905-44.405l8.118 6.504v36.47c-2.612.794-5.702 1.249-9.023 1.431" style="fill:#846c33;fill-opacity:1;fill-rule:evenodd;stroke:none" transform="translate(550.692 724.17)"/><path d="M0 0c5.558 0 10.065-4.508 10.065-10.065 0-5.558-4.507-10.066-10.065-10.066s-10.065 4.508-10.065 10.066C-10.065-4.508-5.558 0 0 0" style="fill:#846c33;fill-opacity:1;fill-rule:evenodd;stroke:none" transform="translate(540.349 814.536)"/><path d="M0 0c1.885 7.317 3.194 15.578 1.952 21.964-.162.834-.647 2.347-1.314 3.454a14.7 14.7 0 0 0-7.956-2.326c-2.897 0-5.598.835-7.878 2.277-.576-.906-1.033-1.955-1.18-2.716-1.367-7.085-.011-15.149 1.846-22.658q3.18.113 6.367.128A204 204 0 0 0 0 0" style="fill:#846c33;fill-opacity:1;fill-rule:evenodd;stroke:none" transform="translate(547.667 766.612)"/><path d="M0 0c0-2.499-.867-5-2.613-6.898-1.447-1.573-3.552-2.785-5.809-2.785h-3.695v28.571h4.182c2.483 0 4.815-1.339 6.299-3.691C-.62 13.589 0 11.59 0 8.881Zm4.462 8.435c0 2.863-.598 6.309-2.252 9.043C.214 20.779-3.249 23.12-8.084 23.12h-8.545v-37.035h8.059c4.689 0 8.31 2.45 10.48 5.7C3.708-5.523 4.462-2.277 4.462.581z" style="fill:#fff;fill-opacity:1;fill-rule:evenodd;stroke:none" transform="translate(291.297 852.273)"/><path d="M0 0c0-2.499-.867-5-2.613-6.898-1.447-1.573-3.551-2.785-5.809-2.785h-3.695v28.571h4.182c2.483 0 4.815-1.339 6.299-3.691C-.62 13.589 0 11.59 0 8.881Zm4.462 8.435c0 2.863-.598 6.309-2.252 9.043C.214 20.779-3.249 23.12-8.084 23.12h-8.545v-37.035h8.059c4.689 0 8.31 2.45 10.48 5.7C3.708-5.523 4.462-2.277 4.462.581z" style="fill:#fff;fill-opacity:1;fill-rule:evenodd;stroke:none" transform="translate(641.085 852.273)"/><path d="M0 0c0-2.499-.866-5-2.613-6.898-1.447-1.573-3.551-2.785-5.808-2.785h-3.696v28.571h4.182c2.483 0 4.815-1.339 6.3-3.691C-.62 13.589 0 11.59 0 8.881Zm4.463 8.435c0 2.863-.599 6.309-2.253 9.043C.214 20.779-3.248 23.12-8.084 23.12h-8.545v-37.035h8.059c4.689 0 8.31 2.45 10.481 5.7C3.708-5.523 4.463-2.277 4.463.581z" style="fill:#fff;fill-opacity:1;fill-rule:evenodd;stroke:none" transform="translate(744.66 852.273)"/><path d="m0 0 4.726-17.146H-4.75Zm13.025-30.625L2.264 6.409h-4.553L-13.05-30.625h4.587l2.577 9.292H5.862l2.577-9.292z" style="fill:#fff;fill-opacity:1;fill-rule:evenodd;stroke:none" transform="translate(313.364 868.983)"/><path d="M0 0h6.537v-4.489c0-3.761-2.486-6.425-6.15-6.425-4.218 0-7.486 4.232-7.486 8.748v12.717c0 3.869 2.455 8.261 6.676 8.261 3.644 0 6.238-2.286 6.424-7.199h4.487c-.206 7.396-4.916 11.483-10.952 11.483-6.524 0-11.147-5.972-11.147-12.281V-2.368c0-7.091 5.177-12.83 11.674-12.83 6.15 0 10.961 4.391 10.961 10.871v8.25H0Z" style="fill:#fff;fill-opacity:1;fill-rule:evenodd;stroke:none" transform="translate(769.019 852.913)"/><path d="M0 0h6.537v-4.489c0-3.761-2.485-6.425-6.149-6.425-4.219 0-7.487 4.232-7.487 8.748v12.717c0 3.869 2.456 8.261 6.676 8.261 3.644 0 6.238-2.286 6.424-7.199h4.487c-.205 7.396-4.915 11.483-10.952 11.483-6.524 0-11.147-5.972-11.147-12.281V-2.368c0-7.091 5.177-12.83 11.675-12.83 6.149 0 10.96 4.391 10.96 10.871v8.25H0Z" style="fill:#fff;fill-opacity:1;fill-rule:evenodd;stroke:none" transform="translate(342.725 852.913)"/><path d="M0 0v4.232h-18.628v-37.035H0v4.232h-14.116v12.535h12.117v4.285h-12.117V0Z" style="fill:#fff;fill-opacity:1;fill-rule:evenodd;stroke:none" transform="translate(381.341 871.16)"/><path d="M0 0v4.232h-18.628v-37.035H0v4.232h-14.116v12.535h12.117v4.285h-12.117V0Z" style="fill:#fff;fill-opacity:1;fill-rule:evenodd;stroke:none" transform="translate(615.397 871.16)"/><path d="M0 0v4.232h-18.627v-37.035H0v4.232h-14.116v12.535h12.117v4.285h-12.117V0Z" style="fill:#fff;fill-opacity:1;fill-rule:evenodd;stroke:none" transform="translate(808.12 871.16)"/><path d="M0 0v-28.182L-14.003 0h-4.511v-37.034h4.511v28.007L-.324-37.034h4.811V0Z" style="fill:#fff;fill-opacity:1;fill-rule:evenodd;stroke:none" transform="translate(407.357 875.393)"/><path d="M0 0h-13.813v15.886h-4.289v-37.034h4.289v16.916H0v-16.916h4.536v37.034H0Z" style="fill:#fff;fill-opacity:1;fill-rule:evenodd;stroke:none" transform="translate(439.367 859.507)"/><path d="m0 0 4.726-17.146h-9.477Zm13.025-30.625L2.264 6.409h-4.553L-13.05-30.625h4.586l2.577 9.292H5.862l2.577-9.292z" style="fill:#fff;fill-opacity:1;fill-rule:evenodd;stroke:none" transform="translate(463.381 868.983)"/><path d="M0 0h-5.122l-9.703-29.291L-24.426 0h-4.952v-37.034h4.339l-.099 26.737 8.774-26.737h3.063l8.891 26.737.113-26.737H0Z" style="fill:#fff;fill-opacity:1;fill-rule:evenodd;stroke:none" transform="translate(511.394 875.393)"/><path d="M0 0c4.25 0 6.498-2.803 6.498-6.939 0-3.971-2.365-6.733-6.336-6.733h-5.187V0Zm12.766-32.803L5.36-16.883c3.599 1.764 5.471 5.797 5.477 9.944C10.847-.589 6.722 4.232.076 4.232h-9.613v-37.035h4.512v15.17H.887l6.925-15.17z" style="fill:#fff;fill-opacity:1;fill-rule:evenodd;stroke:none" transform="translate(577.839 871.16)"/><path d="M0 0c4.25 0 6.498-2.803 6.498-6.939 0-3.971-2.365-6.733-6.336-6.733h-5.187V0Zm12.766-32.803L5.36-16.883c3.599 1.764 5.472 5.797 5.478 9.944C10.847-.589 6.722 4.232.076 4.232h-9.612v-37.035h4.511v15.17H.887l6.925-15.17z" style="fill:#fff;fill-opacity:1;fill-rule:evenodd;stroke:none" transform="translate(693.246 871.16)"/><path d="M0 0v13.039h5.218c3.853 0 6.237-2.802 6.237-6.552C11.455 2.772 9.065 0 5.218 0Zm4.617 28.571c3.209 0 5.787-2.286 5.787-5.61 0-3.262-2.552-6.096-5.787-6.096H0v11.706Zm6.211-13.461c2.647 1.537 4.225 5.037 4.063 8.103-.308 5.832-4.362 9.59-10.085 9.59h-9.318V-4.232h10.13c6.22 0 10.275 4.253 10.275 10.313 0 4.067-1.776 7.346-5.065 9.029" style="fill:#fff;fill-opacity:1;fill-rule:evenodd;stroke:none" transform="translate(658.851 842.59)"/><path d="M712.817 838.358h4.512v37.034h-4.512z" style="fill:#fff;fill-opacity:1;fill-rule:evenodd;stroke:none"/><path d="M0 0c2.082 1.698 4.335 3.687 4.648 6.26.272 2.234-.898 4.421-3.324 4.554-2.318.127-3.727-2.149-3.777-4.231C-2.491 5.026-1.372 2.497 0 0m5.949-16.106C3.738-13.219 1.294-9.872-.84-6.551c-1.987-2.201-4.145-4.898-3.612-8.041.471-2.781 2.967-4.567 5.746-4.253 1.683.189 3.382 1.263 4.655 2.739m2.458-3.357c-1.858-1.92-4.122-3.287-6.642-3.57-5.006-.564-9.528 2.756-10.373 7.738-.775 4.579 1.558 8.339 4.505 11.599q.409.451.844.877C-5.325.85-6.725 4.254-6.667 6.685c.109 4.511 3.504 8.595 8.222 8.337 4.869-.266 7.845-4.594 7.277-9.27-.545-4.484-3.642-6.85-6.679-9.38 1.868-2.958 4.087-5.844 6.185-8.638.703 1.578.974 3.183 1.063 4.497l.14 2.103 4.205-.282-.14-2.102c-.168-2.512-1.091-5.374-2.579-7.922 1.397-1.78 3.896-4.987 5.319-6.747l-5.228-.052c-1.2 1.483-1.525 1.815-2.711 3.308" style="fill:#fff;fill-opacity:1;fill-rule:evenodd;stroke:none" transform="translate(538.208 861.067)"/><path d="M0 0c3.209 0 4.783 3.339 4.783 6.14 0 2.723-1.762 5.771-4.783 5.771-3.097 0-4.745-3.212-4.745-5.95C-4.745 3.237-3.086 0 0 0m0 26.576c-2.908 0-4.28-2.9-4.28-5.446 0-2.394 1.61-5.247 4.28-5.247 2.846 0 4.28 3.033 4.28 5.517 0 2.49-1.51 5.176-4.28 5.176m5.48-12.641c2.53-1.946 3.807-4.787 3.807-7.974C9.287.335 5.851-3.948 0-3.948c-5.914 0-9.271 4.354-9.271 9.999 0 3.15 1.295 5.965 3.794 7.886-2.128 1.798-3.119 4.437-3.119 7.193 0 5.178 3.161 9.378 8.596 9.378 5.318 0 8.642-4.061 8.642-9.198 0-2.843-.945-5.537-3.162-7.375M-27.717 0c3.208 0 4.783 3.339 4.783 6.14 0 2.723-1.762 5.771-4.783 5.771-3.098 0-4.745-3.212-4.745-5.95 0-2.724 1.659-5.961 4.745-5.961m0 26.576c-2.908 0-4.28-2.9-4.28-5.446 0-2.394 1.61-5.247 4.28-5.247 2.846 0 4.279 3.033 4.279 5.517 0 2.49-1.51 5.176-4.279 5.176m5.48-12.641c2.53-1.946 3.806-4.787 3.806-7.974 0-5.626-3.435-9.909-9.286-9.909-5.914 0-9.271 4.354-9.271 9.999 0 3.15 1.294 5.965 3.793 7.886-2.127 1.798-3.118 4.437-3.118 7.193 0 5.178 3.161 9.378 8.596 9.378 5.317 0 8.642-4.061 8.642-9.198 0-2.843-.945-5.537-3.162-7.375m44.305 10.279-4.937-2.121v4.347l5.735 3.141h3.912V-3.228h-4.71zm-75.209 0-4.937-2.121v4.347l5.735 3.141h3.912V-3.228h-4.71z" style="fill:#1e1e53;fill-opacity:1;fill-rule:evenodd;stroke:none" transform="translate(554.097 370.48)"/><path d="M0 0h-19.224v-36.044h4.65v15.429h12.412v4.119h-12.412v12.378H0Z" style="fill:#1e1e53;fill-opacity:1;fill-rule:evenodd;stroke:none" transform="translate(507.562 811.817)"/><path d="M0 0c-4.124 0-7.464 4.12-7.464 8.54v11.851c0 4.67 2.833 9.027 7.464 9.027 3.7 0 6.781-2.526 7.037-8.173h4.514c-.327 7.963-5.543 12.343-11.602 12.343-7.188 0-12.115-5.817-12.115-12.939V8.291c0-6.851 5.78-12.461 12.115-12.461 6.052 0 11.206 4.384 11.602 12.206H7.037C6.856 2.913 3.683 0 0 0" style="fill:#1e1e53;fill-opacity:1;fill-rule:evenodd;stroke:none" transform="translate(587.39 778.83)"/></g></svg>