<svg xmlns="http://www.w3.org/2000/svg" width="1320.115" height="933.333"><defs><clipPath id="a" clipPathUnits="userSpaceOnUse"><path d="M0 1080h1080V0H0Z"/></clipPath></defs><g clip-path="url(#a)" transform="matrix(1.33333 0 0 -1.33333 -59.942 1186.667)"><path d="M0 0c-16.756 0-140.835 126.605-184.93 170.705-44.095 44.099-173.23 125.658-206.741 125.658v4.268c1.581 0 3.792 3.478 3.792 7.586 0 16.6-23.567 20.486-36.144 30.084 45.862 50.531 86.419 95.21 100.985 111.257 40.32 44.423 26.203 67.298 26.203 67.298s-25.607 9.167-66.701-31.927c-14.447-14.448-55.042-54.653-101.607-100.71-3.756 5.883-6.191 11.066-6.191 14.566 0 23.439-3.66 45.871-9.645 65.943 4.486.539 9.053.916 13.753.916 65.751 0 67.256 68.284 65.123 78.715-39.205-17.861-78.198-15.519-108.025-20.348-12.304 15.767-25.861 25.089-38.023 25.089-30.821 0-90.093-70.179-90.093-113.802 0-10.903-12.329-14.227-12.329-21.813 0-5.22 11.854-7.587 11.854-12.803v-22.761s-4.268-5.215-4.268-8.061 8.062-9.957 8.062-9.957v-7.113c0-2.608 1.185-4.268 3.793-4.268v-30.821c0-8.772 4.979-14.7 11.381-14.7h18.966c5.453 0 15.175-4.03 15.175-9.957v-3.794c-33.034 0-143.864-71.549-184.931-111.907-41.066-40.358-108.901-106.527-137.037-134.668C-935.715 14.543-954.362 0-966.851 0c-5.69 0-10.432-2.135-10.432-5.691 0-5.927 13.752-12.803 28.451-12.803 83.611 0 61.799-40.305 123.76-40.305 83.456 0 39.832-44.099 142.729-44.099 42.52 0 49.47-11.381 70.652-11.381 19.71 0 46.149 7.144 70.075 15.368 17.615-13.086 36.467-28.133 55.762-47.433l4.562-4.556 4.562 4.556c18.381 18.381 36.352 32.896 53.24 45.543 21.778-7.623 47.193-13.951 71.65-13.951 23.39 0 30.028 11.381 75.868 11.381 92.938 0 62.91 45.519 137.037 45.519 70.972 0 36.513 38.884 122.813 38.884 21.178 0 28.925 6.008 28.925 11.855C12.803-3.794 7.587 0 0 0" style="fill:#000;fill-opacity:1;fill-rule:nonzero;stroke:none" transform="translate(1022.24 340.9)"/><path d="M0 0c-53.857 37.234-118.115 72.638-137.931 72.638 0 0-12.329 2.186-23.235 2.186-7.587 0-14.7-2.371-14.7-6.639 0-5.216 22.76-3.318 53.582-39.356C-92.884 25.983 0 0 0 0" style="fill:#ecd981;fill-opacity:1;fill-rule:nonzero;stroke:none" transform="translate(768.499 558.171)"/><path d="M0 0c-8.535 0-16.694 3.015-20.13 5.356.645.103 1.233.229 2.112.229 13.866 0 31.764 12.5 63.834 44.565 0 0 62.771 61.467 103.551 87.072L20.39 8.245S13.277 0 0 0" style="fill:#ecd981;fill-opacity:1;fill-rule:nonzero;stroke:none" transform="translate(73.407 328.86)"/><path d="M0 0c-8.85 0-10.432 7.586-29.084 7.586-9.483 0-17.385-7.903-17.385-24.342v-6.487C-28.742-13.22.011 1.392 33.822 1.392c19.204 0 34.089 6.309 44.24 18.751C89.59 34.267 92.68 53.102 92.995 64.226 66.89 54.11 41.472 51.84 18.792 49.883c-41.93-3.618-69.818-6.065-74.098-55.24-.146-2.702-.686-14.876 1.565-14.876 2.53 0 4.11 6.009 4.11 16.439 0 25.604 11.064 44.887 64.171 44.887 38.883 0 67.968 15.808 70.813 15.808 0-18.65-10.117-30.981-11.7-30.981-6.003 0-15.803 11.38-27.501 11.38-2.842 0-7.587-.946-7.587-3.476s18.338-11.695 18.338-14.857-22.128 12.011-27.504 12.011c-2.53 0-6.954-.633-6.954-2.845 0-2.211 25.607-21.496 21.497-21.496-4.111 0-23.396 19.283-29.085 19.283-5.688 0-4.425-2.213-4.425-4.425s13.829-12.092 12.96-12.96C11.381 8.535.315 22.76-8.535 22.76c-9.484 0-15.174-.316-15.174-2.213 0-3.479 28.451-10.117 28.451-18.651C2.841-.002 4.742 0 0 0" style="fill:#ecd981;fill-opacity:1;fill-rule:nonzero;stroke:none" transform="translate(521.192 811.604)"/><path d="M0 0c0-6.083 4.95-11.031 11.032-11.031 6.083 0 11.031 4.948 11.031 11.031s-4.948 11.03-11.031 11.03C4.95 11.03 0 6.083 0 0" style="fill:#ecd981;fill-opacity:1;fill-rule:nonzero;stroke:none" transform="translate(452.784 776.671)"/><path d="M0 0a15 15 0 0 0 1.291-6.046c0-1.633-.324-3.176-.796-4.65 18.402-.71 34.144-1.405 40.487-1.691C40.631-3.498 38.72 6.487 35.8 16.55 21.484 11.675 9.293 5.257 0 0" style="fill:#ecd981;fill-opacity:1;fill-rule:nonzero;stroke:none" transform="translate(477.856 782.717)"/><path d="M0 0c0 3.103.937 5.979 2.522 8.394l5.112 72.999C.883 76.015-7.115 67.848-14.909 57.412c-15.426-20.655-24.5-42.342-25.382-60.118 10.955-.057 25.619-.423 40.763-.904C.19-2.447 0-1.25 0 0" style="fill:#ecd981;fill-opacity:1;fill-rule:nonzero;stroke:none" transform="translate(448.484 776.671)"/><path d="M0 0c3.61-12.292 5.755-24.156 5.755-33.606v-2.98l-2.977.137c-.412.022-21.407.993-46.523 1.946-2.806-3.113-6.829-5.11-11.352-5.11-4.912 0-9.234 2.353-12.04 5.942-17.585.577-34.795 1.014-46.601 1.014h-2.844v2.844c0 19.46 9.726 43.644 26.684 66.35 10.195 13.652 23.752 27.392 34.367 31.954l-5.509-78.636c.319.133.668.194.997.307-.059 28.92 5.791 46.364 15.959 57.168l1.495 21.352c4.558-1.899 9.165-5.709 13.631-10.827 4.601 2.05 9.617 3.579 14.997 4.756-10.507 12.692-21.52 19.986-30.864 19.986-26.627 0-83.642-67.394-83.642-107.35 0-8.603-5.127-13.767-8.87-17.538-1.108-1.115-2.209-8.317-1.375-8.661 4.031-1.66 11.381 7.468 14.699 7.468 129.926 0 149.462-11.369 149.462-11.369-.606 21.024-4.16 40.868-9.541 58.611A137 137 0 0 1 0 0" style="fill:#ecd981;fill-opacity:1;fill-rule:nonzero;stroke:none" transform="translate(518.913 800.951)"/><path d="M0 0c-1.896 0-3.556 1.423-3.556 5.453 0 15.174-7.824 2.37-7.824 17.545 0 7.586 5.216 15.173 6.875 13.513 1.661-1.659-1.896-5.927-1.896-9.483 0-8.535 9.721-9.01 9.721-17.782C3.32 3.556 1.897 0 0 0m-17.307 38.409c0 5.452 3.082 7.112 3.082 12.328 0 2.133 4.418 2.693 5.927 1.185 4.268-4.267-5.216-5.927-5.216-14.936-2.619 0-3.793-.949-3.793 1.423M45.759 69.23c-1.897 0-3.319-1.66-3.319-3.319s11.38-13.989 11.38-13.989-.237-3.082-3.082-3.082c-6.639 0-15.885 25.369-19.679 25.369s-6.401-2.134-6.401-3.794c0-4.979 14.462-25.368 14.462-27.739s-1.423-4.979-2.845-4.979-9.721 22.049-18.493 26.08c-1.541 1.541-2.133 1.659-4.742 1.659-2.607 0-8.534.237-8.534-4.504 0-4.742-3.083-7.468-7.47-7.468-4.385 0-12.446 10.313-12.446 15.529 0 3.319-.238 6.164-3.082 6.164-2.845 0-4.268-3.793-4.268-5.927 0-3.794-1.659-4.623-4.623-4.623h-9.129s-1.422-3.912-1.422-6.046c0-3.557 11.854-9.009 11.854-11.854 0-2.846-8.061-3.794-8.061-18.73 0-3.083-1.659-3.913-3.911-3.913-2.253 0-3.319 1.779-3.319 3.32 0 10.313 8.179 12.921 8.179 20.271 0 5.59-1.897 6.401-3.793 6.401-7.588 0-10.67-24.183-12.804-24.183-2.133 0-4.978.237-4.978 1.659 0 9.247 11.855 25.843 11.855 38.647 0 5.689-7.825 12.802-15.886 12.802-12.329 0-11.854-4.268-17.307-4.268-3.556 0-2.845 4.032-7.824 4.032l-6.559.124c0-2.296.789-6.182 3.512-8.156 0 0 11.187.144 11.187-3.698s-15.016-3.366-15.016-3.366c-3.164 0-5.403-1.579-5.403-3.635V52.711s-7.229-4.826-6.129-7.668c1.1-2.841 8.515 1.441 13.148 2.182l2.495-5.971s-9.959-6.009-7.984-11.458c1.03-1.031 11.619-.397 11.619-.397V18.623s-6.798-16.097-6.798-23.839c0-5.216 3.309-8.246 6.165-8.246h18.967c3.836 0 19.601 2.237 19.601 8.561s-15.37 22.245-11.223 26.395c2.136 2.133 22.129-14.382 22.129-27.817 0-3.398-3.478-5.295-3.478-9.563 0-4.266 1.896-7.586 9.482-7.586 10.907 0 13.277 4.504 13.277 15.648 0 8.772-7.586 9.72-7.586 19.915 0 5.216 2.845 9.484 2.845 9.484h4.979V11.143c0-9.247 7.112-11.618 7.112-16.359s-2.607-1.897-2.607-10.67c0-.918.13-1.807.345-2.663C-1.402-10.199 7.219-1.678 15.9 6.905a40 40 0 0 0-.251 4.238c0 9.957-8.061 15.173-8.061 15.173s.236 4.031 2.134 4.031c1.896 0 13.277-8.535 13.277-11.143 0-2.537.903-2.715 2.589-2.723 14.905 14.733 29.841 29.503 44.231 43.736-9.798 3.753-20.254 9.013-24.06 9.013" style="fill:#ecd981;fill-opacity:1;fill-rule:nonzero;stroke:none" transform="translate(486.18 663.817)"/><path d="M0 0c-5.408 2.631-11.001 5.353-15.544 8.917q-.004.005-.015.011-4.318-4.763-8.686-9.576v-1.601c0-5.808 5.808-9.009 9.009-9.009 11.262 0 14.107-14.106 14.107-14.106s-6.639 7.349-14.936 7.349c-4.505 0-8.417 4.268-8.417 7.942s-4.15 4.15-4.15 4.15l-.347.063c-5.931-6.539-11.906-13.118-17.883-19.701 5.788-3.689 13.577-7.39 21.549-7.39 14.937 0 3.082 3.793 23.235 3.793 22.76 0 20.58 12.803 20.58 12.803C18.502-9.498 11.511-5.601 0 0" style="fill:#ecd981;fill-opacity:1;fill-rule:nonzero;stroke:none" transform="translate(609.41 665.472)"/><path d="m0 0 9.659 9.543-3.062 8.227h11.394c17.041 16.834 39.567 39.087 64.372 63.6C16.266 71.493-84.274 2.371-122.797-35.486c0 0 28.17 16.207 75.516 27.384-.28 2.431-.426 5.097-.426 8.039 0 12.243 6.914 25.421 22.099 25.421C-9.862 25.358-1.06 9.117-.482-.055z" style="fill:#ecd981;fill-opacity:1;fill-rule:nonzero;stroke:none" transform="translate(379.018 549.129)"/><path d="m0 0 206.861 227.895c22.665 24.968 26.866 42.163 26.866 51.478 0 .591-.021 1.141-.052 1.664L-34.43 0Z" style="fill:#ecd981;fill-opacity:1;fill-rule:nonzero;stroke:none" transform="translate(487.56 566.899)"/><path d="m0 0 272 285.116c-9.332-.588-27.733-5.537-52.946-30.748C187.899 223.217 33.506 70.66-38.027 0Z" style="fill:#ecd981;fill-opacity:1;fill-rule:nonzero;stroke:none" transform="translate(444.214 566.899)"/><path d="M0 0c-2.041 13.714-5.419 25.809-7.609 32.803l-16.729-16.521 20.639-20.16Z" style="fill:#ecd981;fill-opacity:1;fill-rule:nonzero;stroke:none" transform="translate(398.574 519.059)"/><path d="M0 0c-15.183 16.207-43.891 46.818-46.755 49.682-3.912 3.911-5.216 8.298-5.216 12.802 0 2.846 3.082 9.959 5.69 9.959s3.912-1.66 3.912-3.912c0-5.335-3.437.118-3.437-7.468 0-6.639 4.267-10.195 4.267-10.195L.626 6.524c.137 2.212.224 4.49.224 6.883 0 1.186-.046 2.371-.082 3.56l-35.194 34.374s.561.553 1.629 1.612l-1.629-.189s7.113 3.082 7.113 11.381c0 6.4-6.877 19.915-18.731 19.915s-15.648-10.906-15.648-18.967c0-9.247 1.541-15.53 4.268-18.256 2.235-2.238 41.294-43.369 55.277-58.096A97 97 0 0 1 0 0" style="fill:#ecd981;fill-opacity:1;fill-rule:nonzero;stroke:none" transform="translate(399.454 483.973)"/><path d="M0 0v2.086c0 4.268-28.926 42.202-57.85 42.202-33.667 0-43.625-26.554-43.625-37.46V.004Z" style="fill:#ecd981;fill-opacity:1;fill-rule:nonzero;stroke:none" transform="translate(648.587 566.895)"/><path d="M0 0c-9.206 1.952-18.179 3.096-26.659 3.096-5.482 0-6.626-2.622-6.871-9.513h30.706z" style="fill:#ecd981;fill-opacity:1;fill-rule:nonzero;stroke:none" transform="translate(689.47 573.312)"/><path d="M0 0c15.097 0 18.983 5.238 16.122 6.061-60.221 17.36-192.517 208.456-323.764 236.728a72 72 0 0 1-2.197-4.279l-3.237-8.702c-.115-.307-11.452-31.102-11.452-60.813 0-20.4 5.305-33.572 10.921-47.523 6.217-15.441 13.264-32.949 13.264-61.539 0-71.068-37.28-97.853-84.479-131.763-5.253-3.771-10.643-7.684-10.643-11.751 0 0 35.563-8.698 57.849-8.698 11.381 0 18.968 3.793 18.968 7.587 0 6.164-22.286 42.676-17.07 42.676 5.215 0 19.915-40.305 27.975-40.305 5.217 0 10.671 3.793 10.671 10.669 0 10.195-21.103 49.551-16.835 49.551s26.554-56.901 37.462-56.901c7.111 0 10.432 3.793 10.432 11.855 0 17.069-40.544 63.54-36.513 71.6 7.113 7.113 52.159-78.713 67.333-78.713 7.588 0 14.699 3.794 14.699 10.431 0 8.536-69.704 99.578-64.487 99.578 5.215 0 73.497-102.423 83.929-102.423 3.557 3.556-63.777 107.403-68.756 117.122 7.587 0 78.714-102.896 85.827-102.896 5.215 0 9.246 1.897 9.246 9.246s-91.754 108.35-102.186 131.11c6.164 0 106.217-128.501 113.33-128.501 3.319 0 5.215 1.422 5.215 6.164 0 8.06-129.446 151.27-125.658 155.055 11.377-3.792 129.452-153.159 139.884-153.159 5.215 0 7.113 2.372 7.113 7.113 0 8.06-67.785 86.166-72.549 95.785 6.637 0 89.145-104.794 97.205-104.794 3.794 0 6.164 0 6.164 6.164 0 11.381-146.519 153.159-151.263 166.912 7.587 0 155.531-163.593 166.438-163.593 3.571 0 5.215 1.898 5.215 4.741 0 5.691-174.971 174.975-181.609 186.355 9.956 0 181.136-183.034 192.99-183.034 4.268 0 8.773 3.792 8.773 8.772 0 8.773-151.263 156.954-199.393 194.652C-219.545 172.315-71.967-2.185-55.478-2.185c2.736 0 5.69 1.897 5.69 9.483 0 16.596-138.671 143.453-150.315 156.481C-181.609 159.038-43.624 6.825-26.079 3.03-20.642 1.852-15.095 0 0 0" style="fill:#ecd981;fill-opacity:1;fill-rule:nonzero;stroke:none" transform="translate(1006.117 328.385)"/><path d="M0 0c2.087 5.186 4.128 10.268 5.874 15.647a55088 55088 0 0 1-35.116 36.966c-5.025.508-10.254.915-14.081.915-12.643 0-34.141-24.975-34.141-34.138 0-9.485-13.591-12.019-13.591-24.659 0-4.43 2.53-5.69 8.85-5.69 6.638 0 18.337-18.656 30.032-18.656 6.324 0 14.541-15.804 33.824-15.804 2.025 0 4.023.186 5.961.489C-10.325-25.71-4.911-12.196 0 0" style="fill:#ecd981;fill-opacity:1;fill-rule:nonzero;stroke:none" transform="translate(389.383 449.857)"/><path d="M0 0c-2.057 2.053 4.108 7.588 4.108 15.805 0 3.281-1.16 5.866-2.793 7.904-5.149 3.468-11.179 6.009-17.122 6.009-12.329 0-18.334-8.852-18.334-15.173 0-7.386 4.554-14.522 12.165-18.929 3.007.013 2.695 7.548 4.906 7.548 1.318 0 1.35-5.341 1.996-10.483 3.243-.97 6.802-1.534 10.647-1.534 12.013 0 19.6 4.43 19.6 15.492 0 1.778-1.165 4.268-3.121 6.957C8.22 13.596 5.056-2.059 0 0" style="fill:#ecd981;fill-opacity:1;fill-rule:nonzero;stroke:none" transform="translate(315.399 401.593)"/><path d="M0 0c-47.199 33.91-84.479 60.695-84.479 131.763 0 3.496.108 6.83.305 10.008a45 45 0 0 0-5.392-.34c-14.57 0-23.744 7.527-29.814 12.505-1.563 1.289-3.686 3.023-4.525 3.35-.388.007-.76.103-1.143.133.924-2.052 1.471-4.015 1.471-5.742 0-6.601-2.538-21.946-26.052-21.946-22.639 0-36.166 15.183-36.166 29.852 0 9.083 7.231 18.795 19.262 21.108-1.447 1.883-2.191 4.327-2.191 7.342 0 9.462 5.453 14.87 9.433 18.819 2.891 2.868 4.158 4.283 4.158 5.839 0 12.408 23.589 40.592 40.593 40.592 2.147 0 4.69-.122 7.369-.311-8.696 9.139-15.13 15.889-15.961 16.718-1.013 1.011-1.892 2.231-2.651 3.642-.854.126-1.696.211-2.508.211-55.005 0-221.916-180.189-221.916-192.519 0-6.638 1.897-6.874 6.876-6.874 12.091 0 141.068 153.398 204.608 186.59C-209.85 194.827-331.24 78.654-331.24 68.223c0-4.744 5.691-7.114 11.38-7.114 9.484 0 132.533 136.327 135.142 133.718 2.607-2.608-119.968-132.295-119.968-139.408 0-11.381 10.432-12.804 15.648-12.804 9.958 0 91.991 104.795 94.361 102.423 4.268-4.266-67.807-89.619-67.807-94.836 0-5.215 3.794-7.111 7.113-7.111 8.535 0 55.479 75.395 60.694 75.395 0-7.113-47.417-64.49-47.417-77.767 0-3.319 2.37-4.741 6.165-4.741 8.06 0 56.663 78.476 60.22 74.919 3.556-3.556-45.522-65.436-45.522-74.446 0-6.637 5.216-9.009 7.588-9.009 7.112 0 64.725 87.96 68.281 84.404-22.76-35.09-55.004-96.732-52.16-99.577 5.691-5.691 80.611 103.845 82.508 101.949 1.896-1.898-64.963-94.836-64.963-103.372 0-8.535 9.958-10.432 14.7-10.432 9.009 0 65.199 85.115 68.756 81.559 3.556-3.555-37.461-63.54-37.461-74.921 0-7.587 4.268-10.432 8.536-10.432 14.699 0 36.037 60.222 40.305 60.222S-103.16 11.32-103.16 2.311c0-6.638 5.216-9.483 9.484-9.483 7.112 0 26.553 42.676 30.347 42.676S-80.4-1.482-80.4-7.648c0-8.534 14.7-10.905 31.77-10.905 22.287 0 54.531 4.741 54.531 11.854 0 .63.064 1.454.15 2.341A1855 1855 0 0 1 0 0" style="fill:#ecd981;fill-opacity:1;fill-rule:nonzero;stroke:none" transform="translate(460.6 256.555)"/><path d="M0 0a36.8 36.8 0 0 0 4.027-8.469 36.7 36.7 0 0 0 1.797-11.343c0-9.387-3.783-18.301-10.266-25.08 8.525-6.104 17.501-12.543 17.501-12.543l-21.293.133c.229-1.518.388-3.038.388-4.564 0-11.514-5.397-22.767-15.185-29.873-11.083-8.054-25.416-8.98-37.301-3.357l-6.472-20.374-6.479 20.382c-11.886-5.631-26.22-4.713-37.304 3.349-9.785 7.106-15.185 18.359-15.185 29.873 0 1.526.159 3.046.389 4.564-10.413-.067-21.29-.141-21.29-.141l17.506 12.551c-6.486 6.787-10.271 15.701-10.271 25.088 0 3.771.581 7.594 1.797 11.335A36.8 36.8 0 0 0-133.616 0h-90.961c6.974-86.835 78.497-95.569 157.77-174.846C12.466-95.569 83.99-86.835 90.965 0Z" style="fill:#d82127;fill-opacity:1;fill-rule:nonzero;stroke:none" transform="translate(607.755 373.966)"/><path d="M0 0h-278.151c-7.063-22.67-19.3-39.237-19.3-76.689 0-3.105.073-6.113.215-9.04h95.52a37.1 37.1 0 0 0 19.97 10.987c-3.277 9.861-6.693 20.154-6.695 20.154l17.197-12.662c6.312 11.535 18.467 19.204 32.17 19.204 13.701 0 25.851-7.669 32.164-19.197l17.19 12.655-6.691-20.154a37.16 37.16 0 0 0 19.976-10.987h95.521c.139 2.927.214 5.935.214 9.04C19.3-39.237 7.063-22.67 0 0" style="fill:#fff;fill-opacity:1;fill-rule:nonzero;stroke:none" transform="translate(680.024 465.007)"/><path d="M0 0h275.12c-2.03 7.818-3.367 16.51-3.367 27.06 0 31.296 11.855 63.066 11.855 63.066H-8.487S3.368 58.356 3.368 27.06C3.368 16.51 2.033 7.818 0 0" style="fill:#fff;fill-opacity:1;fill-rule:nonzero;stroke:none" transform="translate(403.388 470.32)"/><path d="M0 0c.16-.733.256-1.482.256-2.244q0-.992-.157-1.993a12.52 12.52 0 0 0-5.037-8.225c-4.071-2.956-9.179-2.874-13.279-.54l-1.978-6.231-1.981 6.231c-4.1-2.334-9.21-2.416-13.28.54-3.388 2.46-5.188 6.306-5.188 10.203 0 .756.091 1.51.25 2.251l-6.214-.036 5.151 3.689c-2.501 2.349-4.046 5.557-4.046 9.032 0 1.289.201 2.594.619 3.883 1.547 4.756 5.681 7.882 10.341 8.484L-36.523 31l5.151-3.793c1.982 4.274 6.157 7.289 11.175 7.289s9.19-3.015 11.176-7.283L-3.878 31l-1.979-5.956c4.66-.602 8.798-3.72 10.342-8.484.421-1.282.627-2.601.627-3.905 0-1.963-.462-3.911-1.381-5.712-.664-1.304-1.6-2.371-2.667-3.298L6.212-.044Zm12.666 44.766-7.165-.867-1.392 7.082C1.828 62.54-8.398 70.934-20.195 70.934c-11.8 0-22.021-8.394-24.303-19.953l-1.395-7.082-7.167.867c-11.697 1.407-22.834-5.719-26.479-16.944-3.646-11.211 1.178-23.531 11.466-29.281l6.298-3.519-3.032-6.542c-4.953-10.692-1.619-23.488 7.93-30.421 9.544-6.943 22.748-6.159 31.39 1.852l5.288 4.904 5.289-4.904c8.643-8.011 21.842-8.788 31.384-1.852 9.551 6.933 12.889 19.729 7.936 30.421l-3.031 6.549 6.302 3.512c10.287 5.742 15.11 18.055 11.465 29.281-3.646 11.217-14.782 18.343-26.48 16.944" style="fill:#fff;fill-opacity:1;fill-rule:nonzero;stroke:none" transform="translate(561.145 333.942)"/><path d="M0 0s-2.794-1.554-4.149-2.311c.651-1.415 1.993-4.311 1.993-4.311A27.2 27.2 0 0 0 .37-18.078c0-8.572-4.023-16.943-11.306-22.234-10.566-7.683-25.183-6.816-34.752 2.052 0 0-2.345 2.179-3.485 3.231a2250 2250 0 0 1-3.484-3.231c-9.569-8.868-24.186-9.735-34.754-2.052-7.284 5.291-11.302 13.662-11.302 22.227 0 3.868.817 7.779 2.524 11.463l1.996 4.304C-95.549-1.562-98.341 0-98.341 0c-8.84 4.942-14.036 14.262-14.036 23.984 0 2.807.434 5.652 1.338 8.438 4.037 12.426 16.369 20.316 29.325 18.76 0 0 3.174-.384 4.717-.569l.921 4.659c2.526 12.803 13.842 22.093 26.907 22.093s24.377-9.29 26.904-22.093c0 0 .622-3.134.922-4.659 1.543.185 4.717.569 4.717.569 12.954 1.548 25.288-6.342 29.324-18.76a27.3 27.3 0 0 0 1.337-8.446C14.035 14.249 8.839 4.934 0 0m17.574 34.001c-4.891 15.04-19.682 24.08-34.808 22.264-2.948 14.952-16.122 26.227-31.935 26.227-15.814 0-28.986-11.275-31.934-26.227-15.128 1.823-29.924-7.224-34.81-22.264-4.888-15.033 1.767-31.051 15.074-38.475-6.403-13.825-2.377-30.688 10.417-39.986 12.793-9.3 30.077-7.913 41.249 2.444 11.171-10.357 28.456-11.736 41.248-2.444C4.871-35.162 8.899-18.299 2.496-4.474 15.803 2.95 22.456 18.96 17.574 34.001" style="fill:#fff;fill-opacity:1;fill-rule:nonzero;stroke:none" transform="translate(590.119 330.163)"/><path d="M0 0a5.096 5.096 0 1 0 0 10.193A5.097 5.097 0 1 0 0 0m20.594 11.793c-1.414 4.358-6.099 6.743-10.454 5.328-.848-.281-1.593-.703-2.278-1.199.259.8.437 1.644.437 2.534A8.297 8.297 0 0 1 0 26.753a8.296 8.296 0 0 1-8.298-8.297c0-.89.178-1.734.437-2.542-.685.497-1.432.926-2.28 1.207a8.3 8.3 0 0 1-10.455-5.328c-1.416-4.363.97-9.045 5.328-10.46.848-.275 1.706-.363 2.554-.363-.687-.504-1.326-1.083-1.852-1.801a8.3 8.3 0 0 1 1.836-11.594 8.303 8.303 0 0 1 11.591 1.837c.524.717.876 1.504 1.139 2.312.264-.8.614-1.587 1.138-2.312a8.296 8.296 0 0 1 11.591-1.83A8.29 8.29 0 0 1 14.562-.831C14.041-.113 13.399.466 12.718.97c.845 0 1.705.088 2.549.363a8.297 8.297 0 0 1 5.327 10.46" style="fill:#fff;fill-opacity:1;fill-rule:nonzero;stroke:none" transform="translate(540.948 337.38)"/><path d="M0 0v-25.428h4.262q6.834 0 10.384 3.224 3.55 3.222 3.551 9.49 0 6.268-3.551 9.492Q11.096 0 4.262 0Zm-12.15 8.891H4.439q6.159.002 10.2-.682 4.043-.68 6.827-2.162 4.855-2.55 7.372-7.35 2.518-4.803 2.518-11.47 0-6.637-2.518-11.41t-7.372-7.349q-2.844-1.482-6.871-2.164t-10.156-.682H-12.15Z" style="fill:#000;fill-opacity:1;fill-rule:nonzero;stroke:none" transform="translate(431.664 522.904)"/><path d="M470.073 500.085h11.262v-11.558h-11.262z" style="fill:#000;fill-opacity:1;fill-rule:nonzero;stroke:none"/><path d="M0 0v-8.713h8.215q3.316 0 5.05 1.122 1.73 1.121 1.732 3.249c.002 2.128-.579 2.493-1.732 3.234Q11.531 0 8.215 0Zm-11.854 8.772H5.742q5.098 0 8.137-.281 3.04-.283 5.264-.934 3.645-1.038 5.705-3.749 2.062-2.711 2.062-6.505 0-4.18-2.173-6.876-2.17-2.695-5.799-3.022v-.297q3.882-.682 5.364-2.608 1.481-1.928 1.482-7.706v-3.348q0-3.35.524-5.098.527-1.75 1.758-2.845H14.813c-.364.552-.622 1.256-.774 2.104q-.228 1.274-.228 4.031v2.134q0 1.6-.03 2.445-.03.843-.087 1.615-.178 2.607-1.564 3.705-1.382 1.095-4.591 1.096H0v-17.13h-11.854z" style="fill:#000;fill-opacity:1;fill-rule:nonzero;stroke:none" transform="translate(502.02 523.023)"/><path d="M537.081 500.085h11.26v-11.558h-11.26z" style="fill:#000;fill-opacity:1;fill-rule:nonzero;stroke:none"/><path d="M0 0h32.067v-8.891H11.973v-7.527h17.308v-8.891H11.973v-17.959H0Z" style="fill:#000;fill-opacity:1;fill-rule:nonzero;stroke:none" transform="translate(557.173 531.795)"/><path d="M581.862 500.085h11.261v-11.558h-11.261z" style="fill:#000;fill-opacity:1;fill-rule:nonzero;stroke:none"/><path d="M0 0h-13.099c-.575 2.103-1.501 3.667-2.79 4.69-1.289 1.022-2.964 1.533-5.009 1.533q-4.753 0-7.608-3.779-2.848-3.778-2.849-10.12 0-6.285 2.989-10.091 2.99-3.808 7.838-3.809 3.348 0 5.55 1.927c1.468 1.285 2.335 3.012 2.591 5.186H.651q-1.394-7.483-7.29-11.832t-14.61-4.349c-3.338 0-6.376.492-9.113 1.485-2.738.986-5.213 2.483-7.424 4.479q-3.44 3.084-5.112 7.257-1.674 4.169-1.675 9.688c0 7.083 2.175 12.68 6.516 16.796s10.218 6.172 17.619 6.172q8.234 0 13.609-4.001Q-1.449 7.227 0 0" style="fill:#000;fill-opacity:1;fill-rule:nonzero;stroke:none" transform="translate(644.571 517.866)"/><path d="M651.535 500.085h11.262v-11.558h-11.262z" style="fill:#000;fill-opacity:1;fill-rule:nonzero;stroke:none"/></g></svg>