<svg xmlns="http://www.w3.org/2000/svg" width="1037.197" height="933.333"><defs><clipPath id="a" clipPathUnits="userSpaceOnUse"><path d="M0 1080h1080V0H0Z"/></clipPath></defs><g clip-path="url(#a)" transform="matrix(1.33333 0 0 -1.33333 -201.402 1186.667)"><path d="M0 0c159.508 0 294.115-106.767 336.279-252.714 11.771-3.129 24.02-6.736 30.993-10.358 7.314-3.798 13.1-9.47 16.855-16.479 3.105-5.794 5.691-12.647 5.178-21.783-.834-14.83-6.441-22.901-13.016-29.254-2.837-2.743-6.157-5.018-9.591-6.968-3.211-1.823-11.411-5.086-16.764-7.229.026-1.738.066-3.472.066-5.215 0-193.267-156.733-350-350-350s-350 156.733-350 350c0 1.846.041 3.683.07 5.522-4.562 1.858-12.096 4.847-15.743 6.918-6.094 3.46-10.929 7.266-14.618 12.304-5.408 7.384-8.009 16.023-8.224 24.611-.219 8.754 2.41 17.461 7.511 24.746 4.793 6.845 11.746 12.648 21.317 15.851 8.192 2.855 15.303 5.182 23.316 7.027C-294.313-106.914-159.62 0 0 0" style="fill:#252678;fill-opacity:1;fill-rule:evenodd;stroke:none" transform="translate(539.579 890)"/><path d="M0 0c.003-.461.018-.919.018-1.38 0-185.341-150.31-335.646-335.656-335.646S-671.293-186.721-671.293-1.38c0 .489.016.976.018 1.465l10.529-4.253c1.501-178.251 146.499-322.346 325.108-322.346 178.583 0 323.564 144.053 325.107 322.267A169 169 0 0 1 0 0m-335.638 334.265c150.541 0 277.966-99.155 320.516-235.703-3.934.745-7.736 1.232-11.615 1.728-42.7 129.754-164.869 223.463-308.901 223.463-144.075 0-266.275-93.766-308.939-223.581-3.881-.531-7.917-1.071-11.582-1.625 42.541 136.557 169.975 235.718 320.521 235.718" style="fill:#fff;fill-opacity:1;fill-rule:evenodd;stroke:none" transform="translate(875.475 541.649)"/><path d="M0 0c-62.16-7.914-115.77-43.244-148.326-93.48h-7.959C-121.938-38.073-63.118.581 5.073 7.348A62 62 0 0 1 0 0m-56.032-405.057c-69.011 28.751-119.832 92.437-130.357 168.964a878 878 0 0 1 6.999-1.469c10.877-72.803 59.454-133.3 125.225-160.989a62 62 0 0 1-1.867-6.506m295.489 168.77C228.879-312.676 178.148-376.245 109.267-405a60 60 0 0 1-1.929 6.481c65.676 27.681 114.193 88.08 125.121 160.771q3.501.715 6.998 1.461M50.528 7.079C117.652-.377 175.454-38.753 209.38-93.48h-7.96C169.247-43.835 116.513-8.751 55.285-.294c-1.111 2.299-2.73 4.768-4.757 7.373" style="fill:#fff;fill-opacity:1;fill-rule:evenodd;stroke:none" transform="translate(513.064 741.342)"/><path d="M0 0c20.155-7.537 40.368-14.152 59.988-19.723 28.807-8.18 57.238-14.486 84.807-19.32v28.126L122.39-6.029a40.2 40.2 0 0 0-25.461-9.04c-15.877 0-29.615 9.168-36.213 22.497L1.886 20.264Zm124.744-3.96 22.574-4.926v-30.596c30.657-5.278 56.598-7.602 82.261-9.092v92.871h-96.996a40.2 40.2 0 0 0 4.732-18.98c0-11.522-4.828-21.919-12.571-29.277M-49.424 44.297c-.624-2.808-.819-5.719-.52-8.477.793-7.312 3.506-12.133 7.54-16.031 1.962-1.897 4.064-3.445 6.588-4.878 3.689-2.094 8.315-4.03 11.061-5.167A772 772 0 0 1-2.449.92l2.087 22.417L59.435 10.29a40.3 40.3 0 0 0-2.892 15.027c0 6.86 1.713 13.321 4.733 18.98zM645.43-.195c-19.982-7.457-40.015-14.005-59.465-19.528-28.999-8.234-57.617-14.57-85.358-19.417v28.224l23.824 5.215a40.22 40.22 0 0 1 25.735-9.263c16.023 0 29.87 9.336 36.396 22.864l56.954 12.468zm-123.317-3.43-24.029-5.261v-30.69c-30.763-5.271-56.786-7.569-82.58-9.048l-.138-.008v92.647h98.943a40.2 40.2 0 0 1-4.529-18.593c0-11.404 4.73-21.703 12.333-29.048zm173.324 47.641c.575-2.721.749-5.53.459-8.196-.793-7.312-3.506-12.133-7.539-16.031-1.963-1.897-4.065-3.445-6.588-4.878-3.69-2.094-8.315-4.03-11.062-5.167A774 774 0 0 0 647.878.723l-2.114 22.719-57.961-12.687a40.3 40.3 0 0 1 2.749 14.667 40.2 40.2 0 0 1-4.529 18.594zM362.219 82.161h215.017c16.095 0 46.057-3.868 68.138-9.097 12.905-3.059 24.048-6.581 31.681-9.163 8.361-2.827 13.484-8.263 15.978-13.082a26.3 26.3 0 0 0 1.747-4.28H584.594c-7.105 11.559-19.868 19.269-34.428 19.269s-27.323-7.71-34.428-19.269H412.843v-95.314a2170 2170 0 0 0-29.595-1.445c-7.496-.314-13.883-3.084-18.729-7.852-3.769-3.707-6.611-8.923-8.322-14.391l-4.721-.023 10.743 56.51zm-64.458 51.725-3.346-3.837V82.198l3.346 3.837zm50.314-1.397 3.346-2.644V82.204l-3.346 2.644zM330.736 49.15h-17.47V2.22h17.47zM302.897-2.662l-.501 4.405v41.416l8.13 5.009V1.859Zm38.895-2.846-7.416-29.951-23.502-.044-7.485 29.964 8.645 5.124h19.706zm1.023 49.015V1.161l-.484-3.893-8.855 4.487v46.55zm-4.864 25.329c2.727-2.81 4.864-9.128 4.864-13.159v-9.156l-9.342 4.748zm-29.269.135 13.992 7.324 12.691-6.575-4.573-17.935h-17.728zm-6.286-12.605c0 3.454 2.012 8.574 3.799 11.334l4.186-16.42-7.985-4.92zM414.1 155.33h-61.696c-.001 3.823-.211 7.681-.734 11.504l49.244-5.422c4.356-1.65 9.877-4.394 13.186-6.082m-181.637-.022h61.697c0 3.823.21 7.681.733 11.504l-49.243-5.422c-4.356-1.65-9.877-4.394-13.187-6.082m76.118 12.027c2.039 1.025 3.998 1.612 6.221 1.612h16.685c1.58 0 4.022-.487 5.398-1.136-1.887 8.929-6.602 15.198-13.978 19.488-7.015-3.905-11.969-10.148-14.326-19.964m-7.452-12.201c3.717 2.58 8.176 4.446 12.144 4.446h20.258c4.233 0 9.044-2.112 12.293-4.692.712 27.702-15.678 39.597-22.22 42.915-7.839-3.725-22.971-16.688-22.475-42.669m22.474-198.415h-1.8v-110.396l-5.11-39.362v-27.744c-16.672.427-33.858 5.227-47.197 11.419l-.012 19.056c7.923 5.795 28.182 11.013 43.344 11.592l.032 26.524-21.72 137.878v143.063c0 7.225 3.711 14.816 10.072 19.497 4.074 2.999 9.579 4.694 15.571 4.694h13.299c6.113 0 10.989-1.889 15.303-5.283 5.548-4.364 9.405-11.186 9.405-19.328V-14.315l-21.836-137.877-.043-27.083c17.864-1.099 34.825-5.372 42.896-11.454l-.012-18.951c-13.336-6.191-30.517-10.89-47.186-11.312v28.068l-5.006 39.131zm-4.387-204.718 3.517-1.893 3.353 1.893v54.915l-3.402 26.593-3.468-26.712zm59.112 55.281c8.597-6.89 14.502-16.943 16.344-27.994-16.528-7.572-33.326-13.845-57.969-16.323l-8.036 6.941v6.58h.006c16.198.41 33.535 4.745 48.184 11.546l1.459.678zm-111.366.499c-9.704-7.903-14.719-17.473-16.579-28.178 16.529-7.572 32.641-13.95 57.864-16.427l8.562 6.73v6.68l-.181.004c-16.2.414-33.543 4.745-48.194 11.547l-1.459.677zM96.929 45.73c11.272 0 20.414-9.141 20.414-20.413S108.201 4.904 96.929 4.904s-20.413 9.141-20.413 20.413S85.657 45.73 96.929 45.73m453.237.106c11.272 0 20.413-9.142 20.413-20.414s-9.141-20.413-20.413-20.413-20.413 9.141-20.413 20.413 9.141 20.414 20.413 20.414M283.734 82.161H68.716c-16.094 0-46.056-3.868-68.138-9.097-12.905-3.059-24.047-6.581-31.68-9.163-8.361-2.827-13.485-8.263-15.979-13.082a26 26 0 0 1-1.658-4H62.742c7.151 11.344 19.79 18.884 34.187 18.884 14.398 0 27.037-7.54 34.188-18.884h100.984v-95.537a2161 2161 0 0 1 30.603-1.502c7.496-.314 13.883-3.084 18.729-7.852 3.769-3.707 6.611-8.923 8.322-14.391l4.721-.023-10.742 56.51z" style="fill:#fff;fill-opacity:1;fill-rule:evenodd;stroke:none" transform="translate(217.077 551.58)"/><path d="m0 0 8.035-.126-.685-43.595 15.299-.24.13 8.299 8.035-.126-.255-16.287-31.369.493z" style="fill:#fff;fill-opacity:1;fill-rule:evenodd;stroke:none" transform="translate(528.917 834.05)"/><path d="m0 0 30.313-7.547-1.942-7.798L5.856-9.739 2.563-22.965l10.624-2.646-1.942-7.798L.621-30.763-2.738-44.25l22.613-5.631-1.942-7.798-30.399 7.62z" style="fill:#fff;fill-opacity:1;fill-rule:evenodd;stroke:none" transform="translate(597.309 828.604)"/><path d="m0 0 18.815 24.937 6.415-4.841L11.254 1.575l10.881-8.21 6.594 8.74 6.415-4.841-6.595-8.74 11.095-8.371L53.68-1.246l6.415-4.84L41.18-31.074z" style="fill:#fff;fill-opacity:1;fill-rule:evenodd;stroke:none" transform="translate(289.345 701.084)"/><path d="m0 0-16.231-31.645 10.259-5.262-3.667-7.151-27.81 14.264 3.668 7.15 10.4-5.334 16.23 31.645-10.441 5.356 3.668 7.15L13.93 1.887l-3.667-7.151Z" style="fill:#fff;fill-opacity:1;fill-rule:evenodd;stroke:none" transform="translate(676.534 791.693)"/><path d="m0 0 9.159-42.579-7.857-1.69L-7.857-1.69l-11.368-2.445-1.69 7.856 30.604 6.583 1.69-7.856z" style="fill:#fff;fill-opacity:1;fill-rule:evenodd;stroke:none" transform="translate(482.142 820.106)"/><path d="m0 0 4.822-6.429L-12.5-19.42l9.117-12.156 17.322 12.991 4.821-6.429-41.27-30.953-4.822 6.429 17.52 13.14-9.117 12.156-17.52-13.139-4.822 6.428z" style="fill:#fff;fill-opacity:1;fill-rule:evenodd;stroke:none" transform="translate(771.003 725.578)"/><path d="m0 0 20.461-17.328-5.194-6.132L-2.438-8.464l-22.986-27.14 11.596-9.82 8.914 10.525-5.127 4.343 5.194 6.132 7.89-6.682c1.765-1.495 2.422-3.954.255-6.532l-12.856-15.29c-2.054-2.442-4.727-2.64-7.037-.684l-16.298 13.803c-2.381 2.017-2.638 4.705-.422 7.322L-6.499-.825C-4.477 1.562-1.733 1.468 0 0" style="fill:#fff;fill-opacity:1;fill-rule:evenodd;stroke:none" transform="translate(725.043 770.002)"/><path d="m0 0-16.06 11.129 7.038-18.464zm-26.992 18.855 5.866 4.768 44.25-30.51-6.154-5.003L6.206-4.348-6.32-14.531l4.687-12.484-6.236-5.069z" style="fill:#fff;fill-opacity:1;fill-rule:evenodd;stroke:none" transform="translate(374.575 745.722)"/><path d="m0 0 19.918 9.434c2.336 1.106 5.154.098 6.26-2.236l4.96-10.473-7.315-3.464-3.553 7.5L6.487-5.767l5.914-12.486 16.334 7.737c1.549.733 3.017.86 4.291.312 1.125-.484 1.922-1.115 2.671-2.697l8.595-18.148c1.106-2.333.098-5.154-2.235-6.259l-19.918-9.434a4.716 4.716 0 0 0-6.26 2.236l-5.001 10.558 7.315 3.465 3.593-7.586 13.783 6.528-5.942 12.546-16.173-7.66c-1.934-.916-5.249-1.648-7.25 2.578L-2.236-6.26A4.715 4.715 0 0 0 0 0" style="fill:#fff;fill-opacity:1;fill-rule:evenodd;stroke:none" transform="translate(401.567 800.55)"/><path d="m0 0 4.209 4.9 26.587-22.835 8.014 9.33-5.062 4.347L37.957.643l9.933-8.532L31.458-27.02z" style="fill:#fff;fill-opacity:1;fill-rule:evenodd;stroke:none" transform="translate(722.22 361.612)"/><path d="m0 0 6.226 1.721 9.34-33.78 11.854 3.278-1.778 6.431 6.226 1.721 3.49-12.62-24.307-6.72z" style="fill:#fff;fill-opacity:1;fill-rule:evenodd;stroke:none" transform="translate(595.51 289.599)"/><path d="m0 0 6.46.003.012-35.048 12.299.004-.002 6.672 6.46.003.004-13.093-25.219-.01L-.001 0Z" style="fill:#fff;fill-opacity:1;fill-rule:evenodd;stroke:none" transform="translate(540.025 284.076)"/><path d="m0 0-20.863-28.141-5.192 3.85 20.863 28.14-7.514 5.571 3.849 5.192L11.37-.383 7.521-5.576Z" style="fill:#fff;fill-opacity:1;fill-rule:evenodd;stroke:none" transform="translate(388.978 326.06)"/><path d="m0 0-25.226-13.555 5.784-10.764L5.784-10.764zm4.352 5.425L12.71-10.13a3.78 3.78 0 0 0-1.535-5.099l-29.869-16.05a3.78 3.78 0 0 0-5.1 1.535l-8.358 15.555a3.776 3.776 0 0 0 1.535 5.099L-.748 6.96a3.777 3.777 0 0 0 5.1-1.535" style="fill:#fff;fill-opacity:1;fill-rule:evenodd;stroke:none" transform="translate(309.56 419.066)"/><path d="m0 0-21.647-18.749 8.001-9.237L8-9.237Zm3.058 6.246L14.619-7.101a3.78 3.78 0 0 0-.381-5.312l-25.63-22.2a3.78 3.78 0 0 0-5.313.381l-11.561 13.348a3.78 3.78 0 0 0 .381 5.312l25.631 22.2a3.777 3.777 0 0 0 5.312-.382" style="fill:#fff;fill-opacity:1;fill-rule:evenodd;stroke:none" transform="translate(340.65 371.427)"/><path d="m0 0-1.567 15.542L-9.143 1.68Zm-2.542 26.2 5.944-1.092 4.411-42.745-6.237 1.146-1 10.46-12.693 2.333-5.159-9.329-6.319 1.161z" style="fill:#fff;fill-opacity:1;fill-rule:evenodd;stroke:none" transform="translate(494.636 261.762)"/><path d="m0 0 6.723-24.223-6.231-1.729L-4.501-7.96l-10.568-2.933 2.356-8.49-6.231-1.73-2.356 8.491-16.971-4.71-1.73 6.231z" style="fill:#fff;fill-opacity:1;fill-rule:evenodd;stroke:none" transform="translate(294.232 480.495)"/><path d="m0 0-11.137 4.944-4.497-10.132 11.137-4.943zm-8.491 10.903L2.645 5.959l4.443 10.008-11.136 4.944ZM-7.3 29.338l19.456-8.637a3.77 3.77 0 0 0 1.909-4.955L8.976 4.283c-.774-1.744-1.769-2.624-4.314-2.562 2.208-1.866 1.45-3.891.913-5.1L.347-15.157a3.775 3.775 0 0 0-4.956-1.909l-19.446 8.633z" style="fill:#fff;fill-opacity:1;fill-rule:evenodd;stroke:none" transform="translate(434.078 280.872)"/><path d="m0 0-3.213-11.753L7.48-14.676l3.212 11.753zm-9.502-10.034 3.213 11.753-10.563 2.887-3.213-11.753zm-18.405-1.595 5.613 20.534a3.77 3.77 0 0 0 4.612 2.632L-5.584 8.23c1.84-.503 2.86-1.354 3.182-3.88C-.89 6.814 1.226 6.369 2.502 6.02l12.43-3.398a3.773 3.773 0 0 0 2.632-4.612l-5.61-20.524z" style="fill:#fff;fill-opacity:1;fill-rule:evenodd;stroke:none" transform="translate(807.038 468.042)"/><path d="m0 0 33.263-17.709a3.774 3.774 0 0 0 1.551-5.08l-8.278-15.548a3.77 3.77 0 0 0-5.08-1.551l-33.264 17.709 3.04 5.71 30.943-16.473 5.728 10.758L-3.04-5.71Z" style="fill:#fff;fill-opacity:1;fill-rule:evenodd;stroke:none" transform="translate(767.797 427.989)"/><path d="m0 0 17.252 12.821 3.82-5.14L6.004-3.518l17.09-22.995 15.068 11.198 3.82-5.14L24.73-33.276a3.78 3.78 0 0 0-5.271.776L-.777-5.272A3.78 3.78 0 0 0 0 0" style="fill:#fff;fill-opacity:1;fill-rule:evenodd;stroke:none" transform="translate(682.8 327.966)"/><path d="M420.942 573.477h-8.117v-7.57h8.117zm-9.747 3.945h11.378c1.323 0 2.299-.998 2.299-2.339v-22.22c0-1.34-.981-2.34-2.299-2.34h-13.69l.013 3.928 12.046.017v7.539l-9.655-.008c-1.402-.002-2.391.761-2.391 2.559v10.525c0 1.345.976 2.34 2.299 2.34zm272.617-22.954h8.117v7.57h-8.117zm9.748-3.945h-11.379c-1.322 0-2.299.999-2.299 2.34v22.22c0 1.339.981 2.339 2.299 2.339h13.69l-.012-3.927-12.047-.018v-7.539l9.656.01c1.402.001 2.391-.762 2.391-2.559v-10.526c0-1.344-.977-2.339-2.299-2.339z" style="fill:#042394;fill-opacity:1;fill-rule:evenodd;stroke:none"/><path d="M0 0v-26.643h-3.93v11.32l-9.761-.009c-1.399-.001-2.391.762-2.391 2.559V0h3.93v-11.423h8.222V0Z" style="fill:#042394;fill-opacity:1;fill-rule:evenodd;stroke:none" transform="translate(670.432 577.33)"/><path d="M0 0h6.108v-3.974H-9.954V0h5.98v18.937h-6.004v3.973H.013L-.001 0Z" style="fill:#042394;fill-opacity:1;fill-rule:evenodd;stroke:none" transform="translate(395.672 554.524)"/></g></svg>