<svg xmlns="http://www.w3.org/2000/svg" width="941.433" height="941.435"><defs><clipPath id="a" clipPathUnits="userSpaceOnUse"><path d="M0 1080h1080V0H0Z"/></clipPath></defs><g clip-path="url(#a)" transform="matrix(1.33333 0 0 -1.33333 -249.283 1190.717)"><path d="M0 0c0 169.367-137.299 306.666-306.666 306.666S-613.332 169.367-613.332 0s137.299-306.666 306.666-306.666S0-169.367 0 0" style="fill:#fff;fill-opacity:1;fill-rule:nonzero;stroke:none" transform="translate(847.65 543.016)"/><path d="M0 0c-142.288 0-257.638 115.349-257.638 257.639 0 142.289 115.35 257.639 257.638 257.639 142.289 0 257.639-115.35 257.639-257.639S142.289 0 0 0m0 607.639c-193.299 0-349.999-156.7-349.999-350 0-193.299 156.7-350 349.999-350s350 156.701 350 350c0 193.3-156.7 350-350 350" style="fill:#1f3856;fill-opacity:1;fill-rule:nonzero;stroke:none" transform="translate(540 282.361)"/><path d="M0 0c-142.288 0-257.638 115.349-257.638 257.639 0 142.289 115.35 257.639 257.638 257.639 142.289 0 257.639-115.35 257.639-257.639S142.289 0 0 0Zm0 607.639c-193.299 0-349.999-156.7-349.999-350 0-193.299 156.7-350 349.999-350s350 156.701 350 350c0 193.3-156.7 350-350 350z" style="fill:none;stroke:#c0940a;stroke-width:6.076;stroke-linecap:butt;stroke-linejoin:miter;stroke-miterlimit:10;stroke-dasharray:none;stroke-opacity:1" transform="translate(540 282.361)"/><path d="m0 0 27.886-25.641-6.74-7.332-9.356 8.604-20.557-22.359-9.175 8.435L2.616-15.935l-9.358 8.604z" style="fill:#fff;fill-opacity:1;fill-rule:nonzero;stroke:none" transform="translate(341.265 339.319)"/><path d="m0 0 10.385-6.891L2.582-18.65l11.347-7.529 7.803 11.76 10.43-6.921L9.863-54.946l-10.43 6.92 9.021 13.594-11.349 7.53-9.019-13.595-10.384 6.891z" style="fill:#fff;fill-opacity:1;fill-rule:nonzero;stroke:none" transform="translate(373.194 310.482)"/><path d="m0 0 30.369-13.9-3.583-7.829-19.012 8.701-2.668-5.829 17.637-8.071-3.425-7.48-17.635 8.072-3.309-7.23 19.563-8.953-3.802-8.306-30.92 14.152z" style="fill:#fff;fill-opacity:1;fill-rule:nonzero;stroke:none" transform="translate(412.218 285.583)"/><path d="m0 0 11.754-1.728q-.222-2.906.622-4.631 1.377-2.796 4.876-3.535 2.612-.553 4.284.374 1.67.925 2.014 2.539.325 1.534-.765 3.03t-5.76 3.61Q9.385 3.16 6.601 6.87q-2.815 3.717-1.834 8.347.643 3.041 2.979 5.373 2.336 2.331 6.204 3.131 3.864.798 10.03-.506 7.563-1.602 10.937-5.254 3.375-3.654 2.83-9.949L26.111 9.771q.107 2.762-1.103 4.283-1.213 1.523-3.795 2.069-2.127.45-3.394-.224-1.268-.672-1.54-1.966-.201-.942.528-1.884.696-.962 3.785-2.319 7.628-3.414 10.713-5.909 3.087-2.495 4.108-5.439t.338-6.173q-.803-3.796-3.581-6.554t-6.895-3.616q-4.119-.859-9.852.355-10.067 2.132-13.122 6.828T0 0" style="fill:#fff;fill-opacity:1;fill-rule:nonzero;stroke:none" transform="translate(460.015 237.528)"/><path d="m0 0 12.447-.615-.695-14.097 13.601-.67.696 14.094 12.502-.616-1.988-40.283-12.502.617.804 16.295-13.602.671-.804-16.294-12.447.615z" style="fill:#fff;fill-opacity:1;fill-rule:nonzero;stroke:none" transform="translate(507.112 255.531)"/><path d="m0 0-6.075 13.897-2.724-14.906Zm3.563-8.369-14.057-1.613-1.195-6.839-12.642-1.45 10.463 41.797 13.506 1.549 19.653-38.341-12.965-1.487z" style="fill:#fff;fill-opacity:1;fill-rule:nonzero;stroke:none" transform="translate(578.225 231.747)"/><path d="m0 0 13.395 3.494L24.691-7.622 29.136 7.6l13.324 3.475-9.258-26.639 4.264-16.345-12.088-3.152-4.263 16.345z" style="fill:#fff;fill-opacity:1;fill-rule:nonzero;stroke:none" transform="translate(587.822 257.614)"/><path d="m0 0 14.905 6.817L30.861-12.87l-4.5 24.927 14.895 6.813 16.776-36.676-9.281-4.246L35.956 5.919l5.643-31.243-8.401-3.843L13.266-4.462l12.794-27.97-9.282-4.245z" style="fill:#fff;fill-opacity:1;fill-rule:nonzero;stroke:none" transform="translate(633.232 269.684)"/><path d="m0 0 27.589 18.823 4.854-7.113L15.171-.075l3.611-5.294 16.023 10.93 4.637-6.795-16.023-10.931 4.481-6.567L45.673-6.608l5.147-7.545-28.091-19.164Z" style="fill:#fff;fill-opacity:1;fill-rule:nonzero;stroke:none" transform="translate(680.5 292.576)"/><path d="m0 0 8.446 8.004 26.371-5.753L19.471 18.45l8.527 8.08L55.739-2.747l-8.528-8.08-26.195 5.686 15.231-16.075-8.508-8.06z" style="fill:#fff;fill-opacity:1;fill-rule:nonzero;stroke:none" transform="translate(713.518 315.56)"/><path d="m0 0 11.454 41.653 11.715-3.222L16.368 13.7l9.521-2.618 5.809 21.124 11.008-3.027-5.809-21.124 22.277-6.127-4.653-16.921Z" style="fill:#fff;fill-opacity:1;fill-rule:nonzero;stroke:none" transform="translate(209.662 607.994)"/><path d="m0 0 10.994 11.619q5.07-4.263 7.447-9.164 2.378-4.9 2.142-10.281t-3.639-12.176q-4.128-8.244-9.139-12.269T-5.138-37.07q-7.93-.774-17.341 3.938-12.545 6.282-15.941 16.33t2.717 22.257q4.784 9.552 11.384 13.085t15.931 2.181l-3.838-15.332q-2.674.432-4.141.175-2.449-.414-4.365-1.826-1.915-1.414-3.089-3.759-2.66-5.311.195-10.278 2.1-3.726 8.885-7.123 8.404-4.21 12.801-3.218 4.395.99 6.709 5.613 2.246 4.482.876 8.037Q4.276-3.435 0 0" style="fill:#fff;fill-opacity:1;fill-rule:nonzero;stroke:none" transform="translate(273.977 684.95)"/><path d="m0 0 12.165 12.543L26.368-1.234l13.293 13.705-14.204 13.777 12.219 12.597L78.266-.523 66.047-13.12 49.628 2.804 36.335-10.901l16.419-15.924L40.59-39.368Z" style="fill:#fff;fill-opacity:1;fill-rule:nonzero;stroke:none" transform="translate(278.773 752.482)"/><path d="m0 0-16.42 13.509 6.064-20.36zm9.769-8.197L-6.775-19.142l2.852-9.306-14.878-9.843-13.476 58.884 15.896 10.517L32.538-4.325 17.279-14.421z" style="fill:#fff;fill-opacity:1;fill-rule:nonzero;stroke:none" transform="translate(377.894 792.457)"/><path d="m0 0 16.165 6.632 16.177-39.431 25.229 10.35 5.285-12.882-41.394-16.982z" style="fill:#fff;fill-opacity:1;fill-rule:nonzero;stroke:none" transform="translate(391.93 840.875)"/><path d="m0 0 16.983 4.268 13.78-54.84L13.78-54.84Z" style="fill:#fff;fill-opacity:1;fill-rule:nonzero;stroke:none" transform="translate(447.534 861.38)"/><path d="m0 0 42.968 4.471 1.257-12.085-25.512-2.655 1.022-9.82 21.79 2.267 1.182-11.356-21.79-2.267 2.39-22.98-17.455-1.817z" style="fill:#fff;fill-opacity:1;fill-rule:nonzero;stroke:none" transform="translate(482.613 869.697)"/><path d="m0 0-4.941 20.681L-12.393.786Zm2.842-12.432-19.797 1.257-3.342-9.141-17.804 1.13 24.792 55.085 19.021-1.208 17.623-57.777-18.26 1.159z" style="fill:#fff;fill-opacity:1;fill-rule:nonzero;stroke:none" transform="translate(563.433 837.641)"/><path d="m0 0 18.532-5.198 4.94-19.451L37.547-10.53l18.346-5.145-24.341-21.616 10.669-33.276-18.903 5.301-5.846 20.507L1.815-59.235l-18.792 5.27L9.76-30.859z" style="fill:#fff;fill-opacity:1;fill-rule:nonzero;stroke:none" transform="translate(600.833 868.993)"/><path d="m0 0 44.819-28.497-7.491-11.783-15.038 9.562L-.557-66.652l-14.744 9.374L7.546-21.343l-15.038 9.56z" style="fill:#fff;fill-opacity:1;fill-rule:nonzero;stroke:none" transform="translate(694.892 835.851)"/><path d="M0 0q-5.935-6.172-6.237-11.074-.3-4.902 3.649-8.699 4.057-3.903 8.822-3.401 4.764.501 11.341 7.34 5.535 5.754 5.768 10.642.232 4.887-3.743 8.711-3.81 3.663-8.71 3.185T0 0m-12.54 12.168q9.599 9.98 20.507 10.192 10.906.213 20.832-9.333Q38.972 3.241 39.224-7.515q.249-10.758-9.216-20.598-6.871-7.145-13.674-9.405-6.804-2.26-13.795-.432c-6.991 1.828-9.253 4.003-13.774 8.352q-6.896 6.631-9.3 13.172t-.641 13.995 8.636 14.599" style="fill:#fff;fill-opacity:1;fill-rule:nonzero;stroke:none" transform="translate(741.855 767.89)"/><path d="m0 0 8.862-14.031-23.573-21.956 31.433 9.51 8.831-13.981L3.506-64.751l29.921 11.824 8.817-13.958-54.464-19.657-9.149 14.486L3.435-44.66-31.94-55.318l-9.15 14.487z" style="fill:#fff;fill-opacity:1;fill-rule:nonzero;stroke:none" transform="translate(800.141 750.814)"/><path d="m0 0 5.057-15.513-23.145-29.937 29.742 9.695 5.105-15.659-53.761-17.524-5.104 15.659 22.956 29.755-29.518-9.622-5.093 15.622z" style="fill:#fff;fill-opacity:1;fill-rule:nonzero;stroke:none" transform="translate(848.021 668.3)"/><path d="M0 0s20.66 8.912 85.475 18.229c1.62-55.903 0-279.919 0-279.919S25.521-213.889-.405-145.834C-2.025-132.06 0 0 0 0" style="fill:#1e5896;fill-opacity:1;fill-rule:nonzero;stroke:none" transform="translate(367.154 611.296)"/><path d="M0 0s-20.66 8.912-85.474 18.229c-1.62-55.903 0-279.919 0-279.919s59.953 47.801 85.88 115.856C2.026-132.06 0 0 0 0" style="fill:#1e5896;fill-opacity:1;fill-rule:nonzero;stroke:none" transform="translate(706.915 611.296)"/><path d="m0 0 7.636-23.5h24.709l-19.99-14.524 7.635-23.499L0-47l-19.99-14.523 7.635 23.499-19.99 14.524h24.709z" style="fill:#b89c50;fill-opacity:1;fill-rule:nonzero;stroke:none" transform="translate(405.334 699.092)"/><path d="m0 0 7.636-23.5h24.709l-19.99-14.524 7.635-23.499L0-47l-19.99-14.523 7.636 23.499L-32.345-23.5h24.709z" style="fill:#b89c50;fill-opacity:1;fill-rule:nonzero;stroke:none" transform="translate(470.655 711.245)"/><path d="m0 0 7.636-23.5h24.709L12.354-38.024l7.636-23.499L0-47l-19.99-14.523 7.636 23.499L-32.345-23.5h24.709z" style="fill:#b89c50;fill-opacity:1;fill-rule:nonzero;stroke:none" transform="translate(536.584 717.018)"/><path d="m0 0 7.636-23.5h24.709L12.354-38.024l7.636-23.499L0-47l-19.99-14.523 7.636 23.499L-32.345-23.5h24.709z" style="fill:#b89c50;fill-opacity:1;fill-rule:nonzero;stroke:none" transform="translate(603.424 712.157)"/><path d="m0 0 7.636-23.5h24.709L12.354-38.024l7.636-23.499L0-47l-19.99-14.523 7.635 23.499-19.99 14.524h24.709z" style="fill:#b89c50;fill-opacity:1;fill-rule:nonzero;stroke:none" transform="translate(669.86 699.598)"/><path d="M0 0h59.314l-3.122-14.7H14.246L10.16-33.943h36.724l-3.065-14.53H7.095L-.341-83.55h-17.368z" style="fill:#838689;fill-opacity:1;fill-rule:nonzero;stroke:none" transform="translate(478.305 570.842)"/><path d="M0 0q12.429 10.33 28.21 10.33 21.115 0 27.927-13.849 3.745-7.776 2.44-15.609H41.095q-.4 6.016-2.44 9.082-3.576 5.448-12.943 5.448-9.536 0-16.686-7.691-7.153-7.69-10.105-21.767Q-4.088-48.133.228-55.142q4.311-7.01 13.28-7.01 9.196 0 15.326 6.015 3.348 3.236 6.472 9.707h17.311q-5.164-13.68-16.319-22.25-11.153-8.571-25.739-8.571-18.052 0-25.941 11.58-7.832 11.635-3.519 31.898Q-14.248-11.863 0 0" style="fill:#838689;fill-opacity:1;fill-rule:nonzero;stroke:none" transform="translate(533.127 562.214)"/><path d="m0 0 17.226 81.12h16.785l-6.604-30.93h31.699l6.605 30.93H82.55L65.325 0h-16.84l7.65 36.211h-31.7L16.785 0Z" style="fill:#1e5896;fill-opacity:1;fill-rule:nonzero;stroke:none" transform="translate(473.341 419.932)"/><path d="m0 0-3.081-14.363h-24.27L-41.495-81.12h-17.06l14.143 66.757h-24.379L-65.71 0Z" style="fill:#1e5896;fill-opacity:1;fill-rule:nonzero;stroke:none" transform="translate(614.615 500.252)"/><path d="M0 0s156.709 59.02 336.484.679c4.07-65.126 0-232.011 0-232.011s-36.633-118.72-168.242-159.424C38.668-352.088-2.035-231.332-2.035-231.332z" style="fill:none;stroke:#939598;stroke-width:3.646;stroke-linecap:butt;stroke-linejoin:miter;stroke-miterlimit:10;stroke-dasharray:none;stroke-opacity:1" transform="translate(368.855 697.09)"/><path d="M0 0c1.313.089 5.674-.283 5.934-1.086.263-.807-3.048-3.667-4.161-4.366l-8.552-26.313c.49-1.22 1.489-5.48.799-5.978-.685-.499-4.426 1.764-5.43 2.61h-27.676c-1.004-.846-4.751-3.109-5.436-2.61-.687.498.309 4.758.801 5.978L-52.273-5.45c-1.112.697-4.423 3.557-4.16 4.364.262.811 4.624 1.175 5.931 1.086l22.392 16.265c.316 1.275 2.013 5.305 2.863 5.305.847 0 2.544-4.03 2.865-5.305z" style="fill:#1f3856;fill-opacity:1;fill-rule:evenodd;stroke:none" transform="translate(262.816 513.859)"/><path d="m0 0-10.082-14.113c-1.483-2.758.265-9.603 13.85-9.603 13.579 0 15.331 6.845 13.847 9.603L7.533 0Z" style="fill:#fff;fill-opacity:1;fill-rule:evenodd;stroke:none" transform="translate(233.8 496.858)"/><path d="m0 0-10.082-14.111-1.147.818L-1.149.819z" style="fill:#1f3856;fill-opacity:1;fill-rule:nonzero;stroke:none" transform="translate(234.375 496.448)"/><path d="M0 0c-.221-.412-.351-.939-.351-1.54 0-.785.229-1.676.788-2.551.581-.907 1.505-1.791 2.882-2.53 2.128-1.149 5.307-1.942 9.908-1.942 4.592 0 7.772.793 9.9 1.938 1.381.74 2.307 1.627 2.883 2.534.564.875.794 1.766.794 2.553 0 .599-.133 1.126-.352 1.538l1.245.668c.328-.609.52-1.371.52-2.206 0-1.036-.298-2.194-1.01-3.316-.698-1.088-1.797-2.147-3.408-3.013-2.317-1.245-5.726-2.109-10.572-2.109-4.856 0-8.261.864-10.577 2.112-1.613.865-2.709 1.925-3.405 3.011-.717 1.121-1.013 2.279-1.013 3.313 0 .837.199 1.599.523 2.208z" style="fill:#1f3856;fill-opacity:1;fill-rule:nonzero;stroke:none" transform="translate(224.341 482.412)"/><path d="m0 0-10.081 14.111 1.15.819L1.15.818Z" style="fill:#1f3856;fill-opacity:1;fill-rule:nonzero;stroke:none" transform="translate(250.84 482.337)"/><path d="m0 0 10.307-13.948c2.165-2.264 9.215-2.712 13.411 10.203 4.198 12.918-1.769 16.7-4.851 16.136L2.326 7.164Z" style="fill:#fff;fill-opacity:1;fill-rule:evenodd;stroke:none" transform="translate(241.903 497.27)"/><path d="m0 0 10.308-13.948-1.134-.837L-1.135-.836Z" style="fill:#1f3856;fill-opacity:1;fill-rule:nonzero;stroke:none" transform="translate(242.469 497.69)"/><path d="M0 0c.322-.338.788-.628 1.356-.812.75-.243 1.67-.301 2.672-.036 1.034.269 2.163.875 3.297 1.959 1.749 1.67 3.488 4.45 4.905 8.819 1.425 4.383 1.652 7.66 1.216 10.038-.281 1.538-.836 2.689-1.518 3.514-.655.8-1.429 1.29-2.177 1.536-.569.184-1.116.222-1.572.137l-.258 1.389c.682.126 1.472.074 2.268-.184.981-.319 1.987-.959 2.826-1.982.824-.996 1.49-2.364 1.82-4.153.471-2.59.244-6.106-1.262-10.731C12.073 4.879 10.2 1.91 8.297.087c-1.318-1.262-2.66-1.976-3.914-2.3-1.286-.337-2.482-.26-3.463.06-.795.257-1.465.679-1.941 1.18z" style="fill:#1f3856;fill-opacity:1;fill-rule:nonzero;stroke:none" transform="translate(252.718 483.811)"/><path d="m0 0-16.54-5.227-.426 1.35L-.428 1.349z" style="fill:#1f3856;fill-opacity:1;fill-rule:nonzero;stroke:none" transform="translate(260.983 508.987)"/><path d="m0 0 16.448 5.491c2.824 1.36 5.428 7.926-5.555 15.911-10.988 7.982-16.429 3.474-16.848.367l-.142-17.34Z" style="fill:#fff;fill-opacity:1;fill-rule:evenodd;stroke:none" transform="translate(244.014 505.106)"/><path d="m0 0 16.451 5.489.449-1.334L.447-1.339Z" style="fill:#1f3856;fill-opacity:1;fill-rule:nonzero;stroke:none" transform="translate(243.79 505.775)"/><path d="M0 0c.423.198.842.553 1.192 1.037.462.634.795 1.49.858 2.529.062 1.073-.165 2.331-.842 3.739-1.051 2.185-3.157 4.693-6.871 7.396-3.719 2.703-6.762 3.927-9.161 4.252-1.548.211-2.821.038-3.822-.354-.965-.379-1.674-.962-2.134-1.602-.351-.484-.557-.988-.617-1.45l-1.402.19c.094.683.384 1.416.874 2.09.61.838 1.529 1.601 2.77 2.087 1.201.472 2.707.684 4.521.441 2.609-.356 5.874-1.659 9.8-4.513 3.925-2.852 6.172-5.553 7.314-7.924.793-1.649 1.061-3.147.985-4.436-.081-1.327-.519-2.435-1.131-3.273C1.844-.47 1.235-.976.615-1.272Z" style="fill:#1f3856;fill-opacity:1;fill-rule:nonzero;stroke:none" transform="translate(260.157 511.235)"/><path d="m0 0-.138-17.339-1.415.011.138 17.342z" style="fill:#1f3856;fill-opacity:1;fill-rule:nonzero;stroke:none" transform="translate(238.765 526.87)"/><path d="m0 0-.141 17.34c-.419 3.107-5.861 7.615-16.849-.368s-8.379-14.546-5.556-15.907l16.449-5.494z" style="fill:#fff;fill-opacity:1;fill-rule:evenodd;stroke:none" transform="translate(237.217 509.535)"/><path d="m0 0-.141 17.339 1.416.014L1.413.011Z" style="fill:#1f3856;fill-opacity:1;fill-rule:nonzero;stroke:none" transform="translate(236.507 509.53)"/><path d="M0 0c-.063.462-.271.966-.62 1.45-.462.64-1.175 1.223-2.139 1.602-.998.392-2.268.565-3.819.354-2.397-.325-5.437-1.549-9.155-4.252-3.72-2.703-5.829-5.215-6.877-7.396-.677-1.405-.905-2.666-.84-3.739.063-1.035.395-1.891.856-2.526.352-.485.771-.837 1.194-1.04l-.615-1.269c-.62.298-1.228.801-1.719 1.478-.609.84-1.05 1.95-1.128 3.273-.079 1.289.188 2.787.982 4.436 1.14 2.372 3.387 5.072 7.318 7.925 3.925 2.853 7.187 4.156 9.797 4.512 1.811.243 3.318.031 4.521-.441C-1.007 3.881-.084 3.118.522 2.28c.49-.674.783-1.406.875-2.09Z" style="fill:#1f3856;fill-opacity:1;fill-rule:nonzero;stroke:none" transform="translate(236.378 526.781)"/><path d="m0 0 16.448-5.495-.446-1.339L-.449-1.338Z" style="fill:#1f3856;fill-opacity:1;fill-rule:nonzero;stroke:none" transform="translate(214.894 511.27)"/><path d="m0 0-16.539 5.225c-3.082.564-9.05-3.216-4.853-16.134 4.196-12.917 11.248-12.468 13.411-10.202L2.328-7.166Z" style="fill:#fff;fill-opacity:1;fill-rule:evenodd;stroke:none" transform="translate(230.904 504.437)"/><path d="m0 0-16.54 5.223.424 1.349L.424 1.351z" style="fill:#1f3856;fill-opacity:1;fill-rule:nonzero;stroke:none" transform="translate(230.693 503.764)"/><path d="M0 0c-.458.084-1.007.046-1.575-.138-.748-.245-1.523-.736-2.18-1.535-.679-.825-1.234-1.976-1.513-3.515-.436-2.378-.209-5.655 1.213-10.03 1.421-4.376 3.159-7.157 4.905-8.826 1.134-1.084 2.264-1.69 3.297-1.957 1.005-.265 1.923-.207 2.67.034.568.187 1.034.476 1.356.812l1.023-.973c-.479-.497-1.145-.921-1.941-1.178-.982-.32-2.173-.397-3.46-.063-1.253.324-2.599 1.039-3.914 2.3-1.906 1.821-3.779 4.793-5.279 9.412-1.5 4.626-1.732 8.136-1.259 10.727.327 1.789.993 3.157 1.814 4.153C-3.998.246-2.992.885-2.012 1.205c.796.257 1.587.309 2.266.183z" style="fill:#1f3856;fill-opacity:1;fill-rule:nonzero;stroke:none" transform="translate(214.238 508.966)"/><path d="m0 0 10.306 13.947 1.132-.835L1.132-.838Z" style="fill:#1f3856;fill-opacity:1;fill-rule:nonzero;stroke:none" transform="translate(222.357 483.744)"/><path d="M0 0c-.84-.232-1.681-.156-2.493-.081-.769.068-1.511.134-1.971-.096-.607-.298-1.039-1.017-1.446-1.705-.381-.633-.749-1.244-1.291-1.671-.723-.563-1.568-.849-2.36-1.118-.699-.232-1.346-.451-1.634-.801v.007c-.671-.811-.622-1.24-.567-1.714.065-.565.135-1.17-.282-2.117l-1.291.565c.262.595.213 1.01.17 1.395-.092.784-.173 1.496.882 2.772.537.646 1.373.928 2.275 1.234.682.229 1.411.473 1.938.888.336.263.639.766.948 1.286.513.862 1.056 1.762 2.031 2.243.832.415 1.756.332 2.72.247.701-.064 1.426-.127 2.008.027z" style="fill:#1f3856;fill-opacity:1;fill-rule:nonzero;stroke:none" transform="translate(230.305 525.53)"/><path d="M0 0c.804-.31 1.445-.87 2.068-1.412.574-.502 1.131-.984 1.65-1.078.667-.113 1.439.217 2.175.531.683.293 1.341.573 2.022.597h.003c.907.033 1.762-.234 2.563-.484.707-.22 1.363-.423 1.795-.315 1.019.26 1.227.636 1.462 1.044v.006c.282.493.582 1.026 1.473 1.549l.712-1.219c-.561-.327-.766-.691-.956-1.029v.004c-.387-.689-.741-1.316-2.347-1.725-.814-.209-1.651.054-2.558.338-.687.212-1.418.442-2.095.416h-.004.004-.004C7.53-2.794 7-3.019 6.442-3.255c-.917-.396-1.887-.81-2.961-.625-.904.155-1.608.769-2.342 1.407-.523.459-1.069.931-1.64 1.151Z" style="fill:#1f3856;fill-opacity:1;fill-rule:nonzero;stroke:none" transform="translate(229.978 480.158)"/><path d="M0 0a6.9 6.9 0 0 1 6.898 6.902A6.9 6.9 0 0 1 0 13.805 6.903 6.903 0 1 1 0 0" style="fill:#fff;fill-opacity:1;fill-rule:evenodd;stroke:none" transform="translate(237.569 495.738)"/><path d="M0 0a7.59 7.59 0 0 0-5.38 2.228 7.57 7.57 0 0 0-2.233 5.379c0 2.1.851 4.005 2.229 5.378A7.59 7.59 0 0 0 0 15.218a7.58 7.58 0 0 0 5.377-2.231 7.58 7.58 0 0 0 2.23-5.38 7.58 7.58 0 0 0-2.23-5.379A7.6 7.6 0 0 0 0 0m0 1.412c1.711 0 3.26.693 4.38 1.815a6.16 6.16 0 0 1 1.814 4.38 6.18 6.18 0 0 1-1.814 4.386A6.17 6.17 0 0 1 0 13.804a6.17 6.17 0 0 1-4.383-1.811 6.18 6.18 0 0 1-1.816-4.386 6.17 6.17 0 0 1 1.814-4.38A6.17 6.17 0 0 1 0 1.412" style="fill:#1f3856;fill-opacity:1;fill-rule:nonzero;stroke:none" transform="translate(237.569 495.034)"/><path d="M0 0c-.044-.854-.38-1.64-.704-2.402-.301-.703-.591-1.381-.512-1.899v-.006c.094-.668.646-1.296 1.172-1.901.487-.557.959-1.095 1.194-1.742.311-.864.322-1.756.333-2.589.008-.743.016-1.429.251-1.802.561-.886.983-.972 1.449-1.064l.002-.004c.561-.113 1.159-.234 1.931-.923l-.942-1.051c-.49.435-.894.516-1.269.594l.001-.002c-.776.157-1.478.299-2.365 1.7-.45.712-.463 1.592-.471 2.542C.062-9.83.048-9.058-.177-8.43c-.146.4-.53.839-.929 1.296-.66.756-1.35 1.55-1.513 2.63v-.003c-.132.91.236 1.767.615 2.659.276.641.558 1.3.585 1.916z" style="fill:#1f3856;fill-opacity:1;fill-rule:nonzero;stroke:none" transform="translate(214.153 503.555)"/><path d="M0 0c-.471.724-.661 1.552-.848 2.353-.167.746-.333 1.467-.701 1.84-.468.483-1.288.673-2.067.852-.727.164-1.423.324-1.99.705-.751.509-1.287 1.228-1.79 1.9-.442.593-.85 1.142-1.267 1.307-.98.388-1.367.208-1.8.017-.518-.238-1.075-.491-2.101-.391l.138 1.403c.649-.061 1.029.106 1.378.267.722.33 1.378.627 2.905.019.785-.312 1.31-1.019 1.881-1.779.428-.577.885-1.191 1.446-1.572.355-.237.923-.369 1.508-.503h.006c.976-.224 2.003-.457 2.766-1.241C.106 4.52.311 3.613.53 2.667c.158-.682.317-1.389.65-1.899Z" style="fill:#1f3856;fill-opacity:1;fill-rule:nonzero;stroke:none" transform="translate(257.77 516.132)"/><path d="M0 0c.541.668 1.269 1.106 1.978 1.529.656.394 1.286.769 1.531 1.234l.005.002c.309.595.233 1.43.162 2.235-.065.73-.129 1.435.062 2.105.252.876.771 1.605 1.254 2.291.428.602.823 1.158.852 1.606.068 1.052-.222 1.369-.538 1.716-.39.422-.804.872-1.024 1.88l1.378.301c.139-.635.42-.939.68-1.222.536-.585 1.023-1.116.92-2.766-.054-.835-.566-1.556-1.118-2.333-.414-.584-.858-1.209-1.042-1.86-.116-.4-.063-.988-.011-1.599.087-.991.184-2.037-.327-3.011l.002.003C4.337 1.296 3.535.817 2.702.318 2.104-.04 1.481-.412 1.101-.885Z" style="fill:#1f3856;fill-opacity:1;fill-rule:nonzero;stroke:none" transform="translate(257.19 488.022)"/><path d="m0 0-1.936 2.118 1.751 3.869 2.026-4.145Z" style="fill:#fff;fill-opacity:1;fill-rule:nonzero;stroke:none" transform="translate(237.615 528.235)"/><path d="m0 0 1.789 2.241 4.096-1.123-3.777-2.651Z" style="fill:#fff;fill-opacity:1;fill-rule:nonzero;stroke:none" transform="translate(261.796 511.092)"/><path d="m0 0-1.79 2.243-4.095-1.121 3.777-2.653Z" style="fill:#fff;fill-opacity:1;fill-rule:nonzero;stroke:none" transform="translate(213.324 510.998)"/><path d="m0 0-2.766-.761-.581-4.207 3.924 2.43z" style="fill:#fff;fill-opacity:1;fill-rule:nonzero;stroke:none" transform="translate(222.169 481.7)"/><path d="m0 0-.603-2.803 3.463-2.46-.342 4.602Z" style="fill:#fff;fill-opacity:1;fill-rule:nonzero;stroke:none" transform="translate(253.229 481.822)"/><path d="M0 0c1.313.089 5.674-.283 5.934-1.086.263-.807-3.048-3.667-4.161-4.366l-8.552-26.313c.489-1.22 1.488-5.48.799-5.978-.685-.499-4.426 1.764-5.43 2.61h-27.676c-1.004-.846-4.752-3.109-5.435-2.61-.689.498.308 4.758.799 5.978L-52.274-5.45c-1.11.697-4.422 3.557-4.159 4.364.262.811 4.623 1.175 5.93 1.086l22.393 16.265c.315 1.275 2.012 5.305 2.862 5.305.848 0 2.545-4.03 2.865-5.305z" style="fill:#1f3856;fill-opacity:1;fill-rule:evenodd;stroke:none" transform="translate(865.56 513.859)"/><path d="m0 0-10.083-14.113c-1.482-2.758.266-9.603 13.85-9.603 13.579 0 15.331 6.845 13.847 9.603L7.533 0Z" style="fill:#fff;fill-opacity:1;fill-rule:evenodd;stroke:none" transform="translate(836.546 496.858)"/><path d="m0 0-10.083-14.111-1.146.818L-1.149.819z" style="fill:#1f3856;fill-opacity:1;fill-rule:nonzero;stroke:none" transform="translate(837.12 496.448)"/><path d="M0 0c-.222-.412-.351-.939-.351-1.54 0-.785.229-1.676.788-2.551.581-.907 1.505-1.791 2.882-2.53 2.128-1.149 5.307-1.942 9.908-1.942 4.593 0 7.772.793 9.9 1.938 1.381.74 2.307 1.627 2.884 2.534.562.875.793 1.766.793 2.553 0 .599-.133 1.126-.352 1.538l1.244.668c.329-.609.521-1.371.521-2.206 0-1.036-.298-2.194-1.01-3.316-.698-1.088-1.797-2.147-3.408-3.013-2.317-1.245-5.725-2.109-10.572-2.109-4.857 0-8.262.864-10.577 2.112-1.613.865-2.709 1.925-3.405 3.011-.717 1.121-1.012 2.279-1.012 3.313 0 .837.198 1.599.522 2.208z" style="fill:#1f3856;fill-opacity:1;fill-rule:nonzero;stroke:none" transform="translate(827.086 482.412)"/><path d="m0 0-10.081 14.111 1.152.819L1.151.818Z" style="fill:#1f3856;fill-opacity:1;fill-rule:nonzero;stroke:none" transform="translate(853.584 482.337)"/><path d="m0 0 10.307-13.948c2.166-2.264 9.216-2.712 13.412 10.203 4.198 12.918-1.769 16.7-4.851 16.136L2.326 7.164Z" style="fill:#fff;fill-opacity:1;fill-rule:evenodd;stroke:none" transform="translate(844.647 497.27)"/><path d="m0 0 10.308-13.948-1.134-.837L-1.136-.836Z" style="fill:#1f3856;fill-opacity:1;fill-rule:nonzero;stroke:none" transform="translate(845.215 497.69)"/><path d="M0 0c.322-.338.788-.628 1.355-.812.75-.243 1.67-.301 2.673-.036 1.034.269 2.162.875 3.297 1.959 1.749 1.67 3.487 4.45 4.904 8.819 1.425 4.383 1.652 7.66 1.217 10.038-.282 1.538-.836 2.689-1.519 3.514-.655.8-1.429 1.29-2.176 1.536-.57.184-1.116.222-1.573.137l-.257 1.389c.681.126 1.471.074 2.268-.184.98-.319 1.988-.959 2.825-1.982.824-.996 1.491-2.364 1.821-4.153.47-2.59.243-6.106-1.263-10.731-1.5-4.615-3.373-7.584-5.275-9.407-1.319-1.262-2.661-1.976-3.915-2.3-1.286-.337-2.482-.26-3.462.06-.797.257-1.466.679-1.941 1.18z" style="fill:#1f3856;fill-opacity:1;fill-rule:nonzero;stroke:none" transform="translate(855.464 483.811)"/><path d="m0 0-16.542-5.227-.424 1.35L-.428 1.349z" style="fill:#1f3856;fill-opacity:1;fill-rule:nonzero;stroke:none" transform="translate(863.729 508.987)"/><path d="m0 0 16.449 5.491c2.822 1.36 5.427 7.926-5.557 15.911-10.987 7.982-16.428 3.474-16.847.367l-.143-17.34Z" style="fill:#fff;fill-opacity:1;fill-rule:evenodd;stroke:none" transform="translate(846.76 505.106)"/><path d="m0 0 16.451 5.489.45-1.334L.448-1.339Z" style="fill:#1f3856;fill-opacity:1;fill-rule:nonzero;stroke:none" transform="translate(846.534 505.775)"/><path d="M0 0c.422.198.841.553 1.191 1.037.463.634.796 1.49.857 2.529.063 1.073-.163 2.331-.84 3.739C.157 9.49-1.95 11.998-5.663 14.701c-3.72 2.703-6.763 3.927-9.162 4.252-1.548.211-2.82.038-3.822-.354-.964-.379-1.673-.962-2.134-1.602-.351-.484-.558-.988-.617-1.45l-1.403.19c.095.683.385 1.416.876 2.09.609.838 1.529 1.601 2.77 2.087 1.201.472 2.706.684 4.519.441 2.611-.356 5.875-1.659 9.801-4.513 3.926-2.852 6.173-5.553 7.314-7.924.794-1.649 1.061-3.147.986-4.436-.081-1.327-.519-2.435-1.132-3.273C1.844-.47 1.234-.976.615-1.272Z" style="fill:#1f3856;fill-opacity:1;fill-rule:nonzero;stroke:none" transform="translate(862.903 511.235)"/><path d="m0 0-.138-17.339-1.414.011.137 17.342z" style="fill:#1f3856;fill-opacity:1;fill-rule:nonzero;stroke:none" transform="translate(841.51 526.87)"/><path d="m0 0-.14 17.34c-.42 3.107-5.863 7.615-16.85-.368s-8.379-14.546-5.555-15.907l16.448-5.494z" style="fill:#fff;fill-opacity:1;fill-rule:evenodd;stroke:none" transform="translate(839.962 509.535)"/><path d="m0 0-.14 17.339 1.415.014L1.413.011Z" style="fill:#1f3856;fill-opacity:1;fill-rule:nonzero;stroke:none" transform="translate(839.252 509.53)"/><path d="M0 0c-.063.462-.272.966-.621 1.45-.461.64-1.175 1.223-2.138 1.602-.998.392-2.268.565-3.819.354-2.397-.325-5.437-1.549-9.155-4.252-3.72-2.703-5.83-5.215-6.877-7.396-.677-1.405-.904-2.666-.84-3.739.063-1.035.395-1.891.857-2.526.351-.485.77-.837 1.193-1.04l-.615-1.269c-.621.298-1.228.801-1.719 1.478-.608.84-1.05 1.95-1.128 3.273-.079 1.289.189 2.787.983 4.436 1.139 2.372 3.387 5.072 7.317 7.925 3.925 2.853 7.187 4.156 9.796 4.512 1.811.243 3.32.031 4.522-.441C-1.008 3.881-.084 3.118.522 2.28c.49-.674.782-1.406.875-2.09Z" style="fill:#1f3856;fill-opacity:1;fill-rule:nonzero;stroke:none" transform="translate(839.123 526.781)"/><path d="m0 0 16.449-5.495-.446-1.339L-.449-1.338Z" style="fill:#1f3856;fill-opacity:1;fill-rule:nonzero;stroke:none" transform="translate(817.638 511.27)"/><path d="m0 0-16.538 5.225c-3.082.564-9.049-3.216-4.853-16.134 4.197-12.917 11.247-12.468 13.411-10.202L2.328-7.166Z" style="fill:#fff;fill-opacity:1;fill-rule:evenodd;stroke:none" transform="translate(833.648 504.437)"/><path d="m0 0-16.54 5.223.424 1.349L.424 1.351z" style="fill:#1f3856;fill-opacity:1;fill-rule:nonzero;stroke:none" transform="translate(833.438 503.764)"/><path d="M0 0c-.457.084-1.006.046-1.575-.138-.746-.245-1.523-.736-2.18-1.535-.679-.825-1.234-1.976-1.512-3.515-.437-2.378-.209-5.655 1.213-10.03 1.42-4.376 3.159-7.157 4.904-8.826 1.134-1.084 2.264-1.69 3.298-1.957 1.005-.265 1.922-.207 2.669.034.568.187 1.035.476 1.356.812l1.023-.973c-.478-.497-1.145-.921-1.94-1.178-.983-.32-2.174-.397-3.461-.063-1.253.324-2.599 1.039-3.914 2.3-1.906 1.821-3.778 4.793-5.279 9.412-1.5 4.626-1.732 8.136-1.258 10.727.327 1.789.993 3.157 1.814 4.153C-3.997.246-2.991.885-2.01 1.205c.795.257 1.585.309 2.264.183z" style="fill:#1f3856;fill-opacity:1;fill-rule:nonzero;stroke:none" transform="translate(816.983 508.966)"/><path d="m0 0 10.306 13.947 1.132-.835L1.132-.838Z" style="fill:#1f3856;fill-opacity:1;fill-rule:nonzero;stroke:none" transform="translate(825.102 483.744)"/><path d="M0 0c-.839-.232-1.68-.156-2.492-.081-.769.068-1.511.134-1.97-.096-.608-.298-1.04-1.017-1.447-1.705-.381-.633-.749-1.244-1.292-1.671-.722-.563-1.567-.849-2.36-1.118-.698-.232-1.346-.451-1.633-.801v.007c-.671-.811-.622-1.24-.567-1.714.064-.565.135-1.17-.282-2.117l-1.292.565c.263.595.214 1.01.171 1.395-.092.784-.173 1.496.882 2.772.536.646 1.373.928 2.275 1.234.681.229 1.41.473 1.938.888.336.263.639.766.948 1.286.513.862 1.055 1.762 2.03 2.243.833.415 1.756.332 2.72.247.701-.064 1.426-.127 2.008.027z" style="fill:#1f3856;fill-opacity:1;fill-rule:nonzero;stroke:none" transform="translate(833.05 525.53)"/><path d="M0 0c.803-.31 1.444-.87 2.069-1.412.573-.502 1.129-.984 1.649-1.078.667-.113 1.439.217 2.174.531.684.293 1.341.573 2.023.597h.003c.907.033 1.763-.234 2.563-.484.707-.22 1.362-.423 1.795-.315 1.018.26 1.227.636 1.461 1.044v.006c.283.493.584 1.026 1.474 1.549l.712-1.219c-.561-.327-.766-.691-.956-1.029v.004c-.387-.689-.741-1.316-2.347-1.725-.815-.209-1.651.054-2.557.338-.689.212-1.42.442-2.096.416h-.004.004-.004c-.433-.017-.962-.242-1.521-.478-.917-.396-1.887-.81-2.961-.625-.904.155-1.608.769-2.343 1.407-.522.459-1.068.931-1.639 1.151Z" style="fill:#1f3856;fill-opacity:1;fill-rule:nonzero;stroke:none" transform="translate(832.723 480.158)"/><path d="M0 0a6.9 6.9 0 0 1 6.898 6.902A6.9 6.9 0 0 1 0 13.805 6.903 6.903 0 1 1 0 0" style="fill:#fff;fill-opacity:1;fill-rule:evenodd;stroke:none" transform="translate(840.313 495.738)"/><path d="M0 0a7.58 7.58 0 0 0-5.379 2.228 7.56 7.56 0 0 0-2.233 5.379c0 2.1.85 4.005 2.229 5.378A7.58 7.58 0 0 0 0 15.218a7.57 7.57 0 0 0 5.377-2.231 7.58 7.58 0 0 0 2.23-5.38 7.58 7.58 0 0 0-2.23-5.379A7.6 7.6 0 0 0 0 0m0 1.412c1.711 0 3.26.693 4.38 1.815a6.16 6.16 0 0 1 1.815 4.38 6.18 6.18 0 0 1-1.815 4.386A6.17 6.17 0 0 1 0 13.804a6.17 6.17 0 0 1-4.382-1.811 6.17 6.17 0 0 1-1.817-4.386c0-1.712.693-3.26 1.815-4.38A6.17 6.17 0 0 1 0 1.412" style="fill:#1f3856;fill-opacity:1;fill-rule:nonzero;stroke:none" transform="translate(840.313 495.034)"/><path d="M0 0c-.044-.854-.38-1.64-.705-2.402-.3-.703-.59-1.381-.51-1.899v-.006c.094-.668.645-1.296 1.171-1.901.488-.557.959-1.095 1.194-1.742.311-.864.322-1.756.333-2.589.008-.743.016-1.429.252-1.802.56-.886.983-.972 1.448-1.064l.002-.004c.56-.113 1.159-.234 1.931-.923l-.942-1.051c-.49.435-.894.516-1.269.594l.001-.002c-.777.157-1.477.299-2.365 1.7-.451.712-.463 1.592-.471 2.542C.062-9.83.047-9.058-.177-8.43c-.146.4-.53.839-.929 1.296-.66.756-1.351 1.55-1.512 2.63v-.003c-.133.91.235 1.767.615 2.659.275.641.558 1.3.584 1.916z" style="fill:#1f3856;fill-opacity:1;fill-rule:nonzero;stroke:none" transform="translate(816.898 503.555)"/><path d="M0 0c-.471.724-.66 1.552-.847 2.353-.168.746-.334 1.467-.702 1.84-.469.483-1.287.673-2.067.852-.726.164-1.423.324-1.99.705-.75.509-1.287 1.228-1.79 1.9-.442.593-.85 1.142-1.268 1.307-.98.388-1.367.208-1.799.017-.517-.238-1.075-.491-2.1-.391l.137 1.403c.649-.061 1.028.106 1.378.267.723.33 1.378.627 2.904.019.786-.312 1.31-1.019 1.882-1.779.428-.577.886-1.191 1.446-1.572.355-.237.923-.369 1.507-.503h.007c.976-.224 2.003-.457 2.766-1.241.642-.657.847-1.564 1.065-2.51.159-.682.318-1.389.651-1.899Z" style="fill:#1f3856;fill-opacity:1;fill-rule:nonzero;stroke:none" transform="translate(860.515 516.132)"/><path d="M0 0c.541.668 1.27 1.106 1.978 1.529.657.394 1.286.769 1.53 1.234l.006.002c.309.595.233 1.43.163 2.235-.066.73-.131 1.435.061 2.105.252.876.772 1.605 1.254 2.291.427.602.823 1.158.852 1.606.069 1.052-.221 1.369-.539 1.716-.389.422-.803.872-1.023 1.88l1.378.301c.139-.635.42-.939.68-1.222.536-.585 1.023-1.116.921-2.766-.055-.835-.567-1.556-1.118-2.333-.416-.584-.859-1.209-1.043-1.86-.116-.4-.063-.988-.011-1.599.087-.991.184-2.037-.328-3.011l.003.003C4.336 1.296 3.534.817 2.701.318c-.598-.358-1.22-.73-1.6-1.203Z" style="fill:#1f3856;fill-opacity:1;fill-rule:nonzero;stroke:none" transform="translate(859.936 488.022)"/><path d="m0 0-1.937 2.118 1.752 3.869 2.026-4.145Z" style="fill:#fff;fill-opacity:1;fill-rule:nonzero;stroke:none" transform="translate(840.36 528.235)"/><path d="m0 0 1.789 2.241 4.096-1.123-3.776-2.651Z" style="fill:#fff;fill-opacity:1;fill-rule:nonzero;stroke:none" transform="translate(864.541 511.092)"/><path d="m0 0-1.79 2.243-4.095-1.121 3.777-2.653Z" style="fill:#fff;fill-opacity:1;fill-rule:nonzero;stroke:none" transform="translate(816.07 510.998)"/><path d="m0 0-2.765-.761-.582-4.207 3.924 2.43z" style="fill:#fff;fill-opacity:1;fill-rule:nonzero;stroke:none" transform="translate(824.913 481.7)"/><path d="m0 0-.603-2.803 3.463-2.46-.342 4.602Z" style="fill:#fff;fill-opacity:1;fill-rule:nonzero;stroke:none" transform="translate(855.974 481.822)"/></g></svg>