<svg xmlns="http://www.w3.org/2000/svg" width="933.333" height="933.333"><defs><clipPath id="a" clipPathUnits="userSpaceOnUse"><path d="M0 1080h1080V0H0Z"/></clipPath></defs><g clip-path="url(#a)" transform="matrix(1.33333 0 0 -1.33333 -253.333 1186.667)"><path d="M0 0c0-193.3-156.7-350-350-350S-700-193.3-700 0s156.7 350 350 350S0 193.3 0 0" style="fill:#000;fill-opacity:1;fill-rule:nonzero;stroke:none" transform="translate(890 540)"/><path d="M0 0c0-185.544-150.413-335.958-335.958-335.958-185.544 0-335.957 150.414-335.957 335.958s150.413 335.958 335.957 335.958C-150.413 335.958 0 185.544 0 0" style="fill:#fff;fill-opacity:1;fill-rule:nonzero;stroke:none" transform="translate(875.957 540)"/><path d="M0 0c0-170.772-138.438-309.21-309.21-309.21S-618.42-170.772-618.42 0s138.438 309.21 309.21 309.21S0 170.772 0 0" style="fill:#e50000;fill-opacity:1;fill-rule:nonzero;stroke:none" transform="translate(849.21 540)"/><path d="M0 0a9.427 9.427 0 1 0-18.855.001A9.427 9.427 0 0 0 0 0Z" style="fill:none;stroke:#00a651;stroke-width:.253;stroke-linecap:butt;stroke-linejoin:miter;stroke-miterlimit:10;stroke-dasharray:none;stroke-opacity:1" transform="translate(550.096 720.546)"/><path d="M0 0c-41.114 0-66.892 17.072-75.428 23.772l12.257 16.61c2.227-1.514 5.978-3.811 11.876-6.108 10.1-3.922 26.5-7.854 52.298-7.854 52.158 0 71.888 27.744 71.888 49.149l4.082 167.196 24.003-2.368.601-.01L96.291.672S95.8-.873 94.305-3.3L78.738 3.681l-17.924 9.088C50.413 7.152 31.054 0 0 0" style="fill:#000;fill-opacity:1;fill-rule:nonzero;stroke:none" transform="translate(444.712 358.782)"/><path d="M0 0c-48.556 0-69.722 12.533-78.5 21.051-4.519 4.385-15.991 11.593-15.991 11.593 4.138.501 9.905 1.128 9.905 1.128l5.286 239.716 2.096 94.997a27.1 27.1 0 0 1 9.88 5.286l2.147-87.906 4.333-177.196c0-21.405 16.881-46.31 69.039-46.31 0 0 26.801-.111 50.142 6.57l3.35 1.263-4.845 28.276 48.647-61.687 35.939 56.501-84.586 5.186 84.927-5.186V55.508L102.982-.662 80.915 29.429S55.508 0 0 0" style="fill:#000;fill-opacity:1;fill-rule:nonzero;stroke:none" transform="translate(625.589 325.681)"/><path d="M0 0c-55.498 0-80.915 29.429-80.915 29.429L-102.982-.662l-38.777 56.17v37.774l85.589 6.019-85.258-6.019 41.124-53.823 12.839 17.413c8.536-6.7 34.314-23.772 75.429-23.772 31.054 0 50.412 7.152 60.814 12.769l17.924-9.088 4.435-1.989s8.855-6.286 9.458-7.469C73.355 17.526 52.983 0 0 0" style="fill:#fff;fill-opacity:1;fill-rule:nonzero;stroke:none" transform="translate(456.748 325.681)"/><path d="m0 0-2.096-94.997-.602.01V-56.2l-23.15-1.465 1.514 62.159A27.35 27.35 0 0 1-7.713-1.103C-5.035-1.103-2.447-.722 0 0" style="fill:#000;fill-opacity:1;fill-rule:nonzero;stroke:none" transform="translate(548.385 694.167)"/><path d="M0 0v-38.787l-24.003 2.367.853 34.956z" style="fill:#000;fill-opacity:1;fill-rule:nonzero;stroke:none" transform="translate(545.687 637.966)"/><path d="m0 0-.853-34.956-67.444 6.991-3.51 23.411z" style="fill:#000;fill-opacity:1;fill-rule:nonzero;stroke:none" transform="translate(522.537 636.502)"/><path d="m0 0-6.018-31.756-1.144-.171c-5.898 2.297-9.649 4.594-11.876 6.109z" style="fill:#fff;fill-opacity:1;fill-rule:nonzero;stroke:none" transform="translate(400.578 424.982)"/><path d="m0 0-19.038-25.818c-1.675 1.123-2.477 1.815-2.698 1.745L-34.434-39.78s1.053-1.023 3.139-2.648l-12.839-17.413-41.124 53.823z" style="fill:#000;fill-opacity:1;fill-rule:nonzero;stroke:none" transform="translate(400.578 424.982)"/><path d="m0 0-12.257-16.61c-2.086 1.625-3.14 2.648-3.14 2.648L-2.698 1.745C-2.477 1.815-1.675 1.123 0 0" style="fill:#000;fill-opacity:1;fill-rule:nonzero;stroke:none" transform="translate(381.54 399.164)"/><path d="M0 0c-6.6 5.015-10.863 12.949-10.863 21.886 0 15.176 12.297 27.483 27.483 27.483 15.176 0 27.483-12.307 27.483-27.483A27.35 27.35 0 0 0 34.214.792a27.15 27.15 0 0 0-9.88-5.286 27.2 27.2 0 0 0-7.714-1.103A27.35 27.35 0 0 0 0 0" style="fill:#000;fill-opacity:1;fill-rule:nonzero;stroke:none" transform="translate(524.052 698.66)"/><path d="m0 0-.311-14.012-2.096-94.998-5.286-239.715s-.492-1.545-1.986-3.972c-5.457-8.917-24.434-29.801-82.269-29.801-55.498 0-80.915 29.43-80.915 29.43l-22.067-30.092-38.777 56.17v37.775l85.589 6.018-6.018-31.756" style="fill:none;stroke:#000;stroke-width:2.843;stroke-linecap:butt;stroke-linejoin:miter;stroke-miterlimit:10;stroke-dasharray:none;stroke-opacity:1" transform="translate(548.696 708.179)"/><path d="M0 0h16.721l.21-8.726 2.147-87.906 4.333-177.197c0-21.404 16.881-46.31 69.039-46.31 0 0 26.801-.11 50.141 6.57l3.351 1.264-4.845 28.275 84.927-5.185v-37.775l-38.787-56.17-22.067 30.092s-25.407-29.43-80.915-29.43c-46.743 0-68.103 11.614-77.464 20.081C1.422-357.561-1.083-357-1.083-357l-3.26 2.507-13.541 8.777-17.924 9.087c-10.402-5.617-29.76-12.768-60.814-12.768-41.115 0-66.893 17.071-75.429 23.772-2.086 1.625-3.139 2.648-3.139 2.648l12.698 15.707c.221.07 1.023-.622 2.698-1.745 2.227-1.515 5.979-3.812 11.876-6.109 10.101-3.922 26.501-7.853 52.299-7.853 52.157 0 71.887 27.744 71.887 49.148l4.083 167.196.852 34.956 1.515 62.158.23 9.519H0" style="fill:none;stroke:#000;stroke-width:2.843;stroke-linecap:butt;stroke-linejoin:miter;stroke-miterlimit:10;stroke-dasharray:none;stroke-opacity:1" transform="translate(541.334 708.179)"/><path d="M0 0h.02l68.858 2.347" style="fill:none;stroke:#00a651;stroke-width:.253;stroke-linecap:butt;stroke-linejoin:miter;stroke-miterlimit:10;stroke-dasharray:none;stroke-opacity:1" transform="translate(560.392 611.547)"/><path d="m0 0 92.781 9.358 3.009 22.238-96.793 9.027Z" style="fill:#000;fill-opacity:1;fill-rule:nonzero;stroke:none" transform="translate(535.486 599.18)"/><path d="m0 0-84.586 5.186 17.828-22.608c-8.868-6.702-29.163-14.505-65.974-14.505-78.738 0-70.463 54.917-70.463 54.917l-3.761 169.763 66.952 2.006 2.006 15.046-70.463 7.021-1.003 60.684-9.027-.251s-5.768-225.181-5.768-271.321 38.366-63.693 84.005-63.693c37.012 0 72.703 18.801 84.873 25.908l19.442-24.654z" style="fill:#fff;fill-opacity:1;fill-rule:nonzero;stroke:none" transform="translate(767.017 418.964)"/><path d="m0 0-.752-9.403c-1.051-11.408-22.066-21.292-31.596-25.202-9.78-4.012-26.58-18.807-26.58-38.115 0-14.276 10.001-22.103 15.217-25.217.152 6.539-.423 13.682 2.336 22.333 1.308 7.431 7.907 19.819 30.342 25.703 30.592 8.024 30.592 27.583 30.592 27.583C19.559-7.025 8.246-1.812 0 0" style="fill:#fff;fill-opacity:1;fill-rule:nonzero;stroke:none" transform="translate(562.067 602.69)"/><path d="m0 0-.752-9.403c-1.051-11.408-22.066-21.292-31.596-25.202-9.78-4.012-26.58-18.807-26.58-38.115 0-14.276 10.001-22.103 15.217-25.217.152 6.539-.423 13.682 2.336 22.333 1.308 7.431 7.907 19.819 30.342 25.703 30.592 8.024 30.592 27.583 30.592 27.583C19.559-7.025 8.246-1.812 0 0Z" style="fill:none;stroke:#000;stroke-width:2.132;stroke-linecap:butt;stroke-linejoin:miter;stroke-miterlimit:10;stroke-dasharray:none;stroke-opacity:1" transform="translate(562.067 602.69)"/><path d="M0 0c-12.637 2.946-31.219 11.056-31.219 32.975 0 16.199 21.138 21.565 32.728 23.289 0 3.291.373 15.578.373 21.97-12.293-1.627-52.661-9.606-52.661-44.256 0-34.029 28.116-50.527 50.654-54.916z" style="fill:#fff;fill-opacity:1;fill-rule:nonzero;stroke:none" transform="translate(521.068 608.833)"/><path d="M0 0c-12.637 2.946-31.219 11.056-31.219 32.975 0 16.199 21.138 21.565 32.728 23.289 0 3.291.373 15.578.373 21.97-12.293-1.627-52.661-9.606-52.661-44.256 0-34.029 28.116-50.527 50.654-54.916z" style="fill:none;stroke:#000;stroke-width:2.132;stroke-linecap:butt;stroke-linejoin:miter;stroke-miterlimit:10;stroke-dasharray:none;stroke-opacity:1" transform="translate(521.068 608.833)"/><path d="M0 0a9.427 9.427 0 0 1-18.854 0s-1.021-14.544 6.501-21.064S8.46-32.348 8.46-34.605s.753-18.681.753-18.681 18.054-.126 18.054 19.935c0 13.04-11.033 16.801-13.541 17.804C11.219-14.544 0-11.786 0 0" style="fill:#fff;fill-opacity:1;fill-rule:nonzero;stroke:none" transform="translate(550.096 720.546)"/><path d="M0 0a9.427 9.427 0 0 1-18.854 0s-1.021-14.544 6.501-21.064S8.46-32.348 8.46-34.605s.753-18.681.753-18.681 18.054-.126 18.054 19.935c0 13.04-11.033 16.801-13.541 17.804C11.219-14.544 0-11.786 0 0Z" style="fill:none;stroke:#000;stroke-width:2.132;stroke-linecap:butt;stroke-linejoin:miter;stroke-miterlimit:10;stroke-dasharray:none;stroke-opacity:1" transform="translate(550.096 720.546)"/><path d="M0 0s2.758-5.642-6.269-8.4-99.3 14.794-92.279 99.049c9.278 74.225 89.521 86.261 89.521 86.261s15.296 2.257 14.794-13.791-10.782-15.297-17.803-16.3-64.195-19.81-62.69-71.967c0-41.626 71.215-74.1 72.469-74.1C-.878.251 0 0 0 0" style="fill:#fff;fill-opacity:1;fill-rule:nonzero;stroke:none" transform="translate(572.85 332.246)"/><path d="M0 0s2.758-5.642-6.269-8.4-99.3 14.794-92.279 99.049c9.278 74.225 89.521 86.261 89.521 86.261s15.296 2.257 14.794-13.791-10.782-15.297-17.803-16.3-64.195-19.81-62.69-71.967c0-41.626 71.215-74.1 72.469-74.1C-.878.251 0 0 0 0Z" style="fill:none;stroke:#000;stroke-width:2.132;stroke-linecap:butt;stroke-linejoin:miter;stroke-miterlimit:10;stroke-dasharray:none;stroke-opacity:1" transform="translate(572.85 332.246)"/><path d="M0 0c1.943-1.067 5.77-2.416 10.862-.549 4.207 1.542 6.453 3.869 7.616 5.621" style="fill:none;stroke:#000;stroke-width:1.848;stroke-linecap:butt;stroke-linejoin:miter;stroke-miterlimit:10;stroke-dasharray:none;stroke-opacity:1" transform="translate(531.897 712.57)"/><path d="M0 0c4.023 1.045 12.266 4.211 13.849 12.827" style="fill:none;stroke:#000;stroke-width:1.848;stroke-linecap:butt;stroke-linejoin:miter;stroke-miterlimit:10;stroke-dasharray:none;stroke-opacity:1" transform="translate(543.216 695.43)"/><path d="M0 0s7.021.502 11.284 5.266c2.93 3.274 3.372 6.549 3.363 8.276" style="fill:none;stroke:#000;stroke-width:1.848;stroke-linecap:butt;stroke-linejoin:miter;stroke-miterlimit:10;stroke-dasharray:none;stroke-opacity:1" transform="translate(556.8 686.945)"/><path d="M0 0s7.272-6.52 16.801-3.009" style="fill:none;stroke:#000;stroke-width:1.848;stroke-linecap:butt;stroke-linejoin:miter;stroke-miterlimit:10;stroke-dasharray:none;stroke-opacity:1" transform="translate(558.305 679.673)"/><path d="M0 0s10.975-9 10.951-19.811" style="fill:none;stroke:#000;stroke-width:1.848;stroke-linecap:butt;stroke-linejoin:miter;stroke-miterlimit:10;stroke-dasharray:none;stroke-opacity:1" transform="translate(515.676 685.69)"/><path d="M0 0s13.039-4.514 11.033-18.305" style="fill:none;stroke:#000;stroke-width:1.848;stroke-linecap:butt;stroke-linejoin:miter;stroke-miterlimit:10;stroke-dasharray:none;stroke-opacity:1" transform="translate(499.628 680.676)"/><path d="M0 0s8.526.502 12.538-4.764 3.26-9.278 3.26-9.278" style="fill:none;stroke:#000;stroke-width:1.848;stroke-linecap:butt;stroke-linejoin:miter;stroke-miterlimit:10;stroke-dasharray:none;stroke-opacity:1" transform="translate(483.329 671.147)"/><path d="M0 0s7.021 3.26 12.538.251 6.77-8.275 6.77-8.275" style="fill:none;stroke:#000;stroke-width:1.848;stroke-linecap:butt;stroke-linejoin:miter;stroke-miterlimit:10;stroke-dasharray:none;stroke-opacity:1" transform="translate(472.546 657.104)"/><path d="M0 0s4.764 4.764 10.532 3.26 9.529-4.765 9.529-4.765" style="fill:none;stroke:#000;stroke-width:1.848;stroke-linecap:butt;stroke-linejoin:miter;stroke-miterlimit:10;stroke-dasharray:none;stroke-opacity:1" transform="translate(470.038 641.808)"/><path d="M0 0c1.581 2.707 7.12 10.188 18.448 6.492" style="fill:none;stroke:#000;stroke-width:1.848;stroke-linecap:butt;stroke-linejoin:miter;stroke-miterlimit:10;stroke-dasharray:none;stroke-opacity:1" transform="translate(473.035 624.429)"/><path d="M0 0c2.15 4.133 7.112 11.037 16.233 10.911" style="fill:none;stroke:#000;stroke-width:1.848;stroke-linecap:butt;stroke-linejoin:miter;stroke-miterlimit:10;stroke-dasharray:none;stroke-opacity:1" transform="translate(481.139 610.471)"/><path d="M0 0c-.642 4.154-.573 13.102 10.845 16.486" style="fill:none;stroke:#000;stroke-width:1.848;stroke-linecap:butt;stroke-linejoin:miter;stroke-miterlimit:10;stroke-dasharray:none;stroke-opacity:1" transform="translate(495.63 597.593)"/><path d="M0 0c-.49 4.294-.366 13.995 9.86 17.684" style="fill:none;stroke:#000;stroke-width:1.848;stroke-linecap:butt;stroke-linejoin:miter;stroke-miterlimit:10;stroke-dasharray:none;stroke-opacity:1" transform="translate(510.56 590.995)"/><path d="M0 0c4.651 1.651 15.411 4.143 21.563-3.758" style="fill:none;stroke:#000;stroke-width:1.848;stroke-linecap:butt;stroke-linejoin:miter;stroke-miterlimit:10;stroke-dasharray:none;stroke-opacity:1" transform="translate(559.775 588.577)"/><path d="M0 0c4.029.616 20.154 2.143 25.395-11.75" style="fill:none;stroke:#000;stroke-width:1.848;stroke-linecap:butt;stroke-linejoin:miter;stroke-miterlimit:10;stroke-dasharray:none;stroke-opacity:1" transform="translate(551.702 580.031)"/><path d="M0 0c4.952-1.308 18.659-5.947 20.395-17.537" style="fill:none;stroke:#000;stroke-width:1.848;stroke-linecap:butt;stroke-linejoin:miter;stroke-miterlimit:10;stroke-dasharray:none;stroke-opacity:1" transform="translate(543.03 574.688)"/><path d="M0 0c4.112-1.61 13.109-6.44 13.107-17.885" style="fill:none;stroke:#000;stroke-width:1.848;stroke-linecap:butt;stroke-linejoin:miter;stroke-miterlimit:10;stroke-dasharray:none;stroke-opacity:1" transform="translate(532.98 569.17)"/><path d="M0 0c3.764-.497 13.129-2.881 16.279-14.332" style="fill:none;stroke:#000;stroke-width:1.848;stroke-linecap:butt;stroke-linejoin:miter;stroke-miterlimit:10;stroke-dasharray:none;stroke-opacity:1" transform="translate(516.015 558.175)"/><path d="M0 0c3.82 1.131 13.709 3.087 20.019-4.435" style="fill:none;stroke:#000;stroke-width:1.848;stroke-linecap:butt;stroke-linejoin:miter;stroke-miterlimit:10;stroke-dasharray:none;stroke-opacity:1" transform="translate(504.467 539.28)"/><path d="M0 0c1.88 3.74 6.172 11.688 14.198 11.603" style="fill:none;stroke:#000;stroke-width:1.848;stroke-linecap:butt;stroke-linejoin:miter;stroke-miterlimit:10;stroke-dasharray:none;stroke-opacity:1" transform="translate(507.12 515.358)"/><path d="M0 0c3.611-1.79 15.252-9.06 10.256-26.513" style="fill:none;stroke:#000;stroke-width:1.848;stroke-linecap:butt;stroke-linejoin:miter;stroke-miterlimit:10;stroke-dasharray:none;stroke-opacity:1" transform="translate(551.056 505.937)"/><path d="M0 0c4.367-2.196 18.096-10.416 13.494-25.08" style="fill:none;stroke:#000;stroke-width:1.848;stroke-linecap:butt;stroke-linejoin:miter;stroke-miterlimit:10;stroke-dasharray:none;stroke-opacity:1" transform="translate(532.26 498.774)"/><path d="M0 0c4.294-1.051 20.512-6.141 17.665-22.588" style="fill:none;stroke:#000;stroke-width:1.848;stroke-linecap:butt;stroke-linejoin:miter;stroke-miterlimit:10;stroke-dasharray:none;stroke-opacity:1" transform="translate(514.191 488.871)"/><path d="M0 0c3.903.174 19.291-.292 20.833-18.287" style="fill:none;stroke:#000;stroke-width:1.848;stroke-linecap:butt;stroke-linejoin:miter;stroke-miterlimit:10;stroke-dasharray:none;stroke-opacity:1" transform="translate(499.521 475.87)"/><path d="M0 0c4.663.739 19.491 1.841 24.127-12.904" style="fill:none;stroke:#000;stroke-width:1.848;stroke-linecap:butt;stroke-linejoin:miter;stroke-miterlimit:10;stroke-dasharray:none;stroke-opacity:1" transform="translate(487.254 460.53)"/><path d="M0 0c4.073 1.766 16.743 5.885 25.049-6.652" style="fill:none;stroke:#000;stroke-width:1.848;stroke-linecap:butt;stroke-linejoin:miter;stroke-miterlimit:10;stroke-dasharray:none;stroke-opacity:1" transform="translate(478.369 441.325)"/><path d="M0 0c3.556 2.779 14.812 9.965 24.886-1.023" style="fill:none;stroke:#000;stroke-width:1.848;stroke-linecap:butt;stroke-linejoin:miter;stroke-miterlimit:10;stroke-dasharray:none;stroke-opacity:1" transform="translate(473.936 418.338)"/><path d="M0 0c3.072 3.122 11.87 10.197 23.444 3.43" style="fill:none;stroke:#000;stroke-width:1.848;stroke-linecap:butt;stroke-linejoin:miter;stroke-miterlimit:10;stroke-dasharray:none;stroke-opacity:1" transform="translate(475.235 397.888)"/><path d="M0 0c1.986 3.248 9.239 12.48 22.943 8.462" style="fill:none;stroke:#000;stroke-width:1.848;stroke-linecap:butt;stroke-linejoin:miter;stroke-miterlimit:10;stroke-dasharray:none;stroke-opacity:1" transform="translate(481.636 377.303)"/><path d="M0 0c1.289 3.81 6.418 15.618 20.298 14.88" style="fill:none;stroke:#000;stroke-width:1.848;stroke-linecap:butt;stroke-linejoin:miter;stroke-miterlimit:10;stroke-dasharray:none;stroke-opacity:1" transform="translate(492.96 359.114)"/><path d="M0 0c.451 4.522 2.931 17.734 16.537 17.515" style="fill:none;stroke:#000;stroke-width:1.848;stroke-linecap:butt;stroke-linejoin:miter;stroke-miterlimit:10;stroke-dasharray:none;stroke-opacity:1" transform="translate(507.5 345.652)"/><path d="M0 0c4.592 2.429 14.282 8.509 16.121 16.705" style="fill:none;stroke:#000;stroke-width:1.848;stroke-linecap:butt;stroke-linejoin:miter;stroke-miterlimit:10;stroke-dasharray:none;stroke-opacity:1" transform="translate(516.565 339.795)"/><path d="M0 0c3.274 1.25 11.966 5.607 11.668 16.553" style="fill:none;stroke:#000;stroke-width:1.848;stroke-linecap:butt;stroke-linejoin:miter;stroke-miterlimit:10;stroke-dasharray:none;stroke-opacity:1" transform="translate(533.701 331.028)"/><path d="M0 0c3.881 1.482 12.163 5.606 10.928 13.473" style="fill:none;stroke:#000;stroke-width:1.848;stroke-linecap:butt;stroke-linejoin:miter;stroke-miterlimit:10;stroke-dasharray:none;stroke-opacity:1" transform="translate(549.702 325.75)"/><path d="M0 0c0-4.554-1.264-8.807-3.45-12.448l-3.662 3.039A19.35 19.35 0 0 1-4.674 0c0 10.742-8.717 19.459-19.459 19.459a19.36 19.36 0 0 1-12.418-4.484l-3.661 3.029c4.273 3.812 9.9 6.139 16.079 6.139C-10.803 24.143 0 13.33 0 0" style="fill:#fff;fill-opacity:1;fill-rule:nonzero;stroke:none" transform="translate(564.805 720.546)"/><path d="M0 0h101.399v-29.082H40.002v-23.636h45.485v-31.778H40.002v-50.854H0Z" style="fill:#000;fill-opacity:1;fill-rule:nonzero;stroke:none" transform="translate(340.502 744.526)"/><path d="M0 0h101.399v-29.082H40.002v-23.636h45.485v-31.778H40.002v-50.854H0Z" style="fill:#fff;fill-opacity:1;fill-rule:nonzero;stroke:none" transform="translate(369.255 582.703)"/><path d="M0 0h101.399v-29.082H40.002v-23.636h45.485v-31.778H40.002v-50.854H0Z" style="fill:none;stroke:#000;stroke-width:4.265;stroke-linecap:butt;stroke-linejoin:miter;stroke-miterlimit:10;stroke-dasharray:none;stroke-opacity:1" transform="translate(369.255 582.703)"/><path d="M0 0h98.966v-33.421H69.943V-135.35H28.119v101.929H0Z" style="fill:#fff;fill-opacity:1;fill-rule:nonzero;stroke:none" transform="translate(638.632 744.526)"/><path d="M0 0h98.966v-33.421H69.943V-135.35H28.119v101.929H0Z" style="fill:none;stroke:#000;stroke-width:4.265;stroke-linecap:butt;stroke-linejoin:miter;stroke-miterlimit:10;stroke-dasharray:none;stroke-opacity:1" transform="translate(638.632 744.526)"/><path d="m0 0-38.784-1.337s2.675 25.41-17.386 25.41c0 0-20.729 3.414-20.729-40.086q0-22.502 6.484-30.846c4.323-5.564 7.383-8.345 15.212-8.345 7.594 0 17.756 5.721 18.425 23.107l38.115-2.006c0-13.374-6.018-24.734-11.041-31.627q-7.536-10.341-18.708-15.603c-7.448-3.508-13.004-5.263-24.513-5.263q-20.943.001-34.218 6.413-13.274 6.41-22.914 22.558-9.639 16.146-9.639 41.335 0 33.584 16.956 51.623c11.304 12.025 28.663 19.403 49.341 19.403C-53.399 54.736 0 54.833 0 0" style="fill:#000;fill-opacity:1;fill-rule:nonzero;stroke:none" transform="translate(722.218 530.973)"/></g></svg>