<svg xmlns="http://www.w3.org/2000/svg" viewBox="0 0 700 700"><defs><style>.cls-1,.cls-4{fill:#231f20}.cls-5,.cls-6{fill:#fff}.cls-4,.cls-5,.cls-6{fill-rule:evenodd}.cls-6{stroke:#231f20;stroke-miterlimit:22.93;stroke-width:0}</style></defs><g id="Layer_2" data-name="Layer 2"><g id="Layer_1-2" data-name="Layer 1"><circle cx="350" cy="350" r="350" class="cls-1" transform="rotate(-45 350.002 349.994)"/><circle cx="350" cy="350" r="338.25" style="fill:#d7d936" transform="rotate(-45 350.002 349.994)"/><circle cx="350" cy="350" r="273.58" class="cls-1" transform="rotate(-45 350.002 349.994)"/><circle cx="350" cy="350" r="268.77" style="fill:#fff" transform="rotate(-45 350.002 349.994)"/><path d="m171.91 221.64-.29-1.83a17 17 0 0 1-9.28-6.87c-3.81-6.26-3-14.16-.05-17.55 2.07-2.37 6.26-4.46 14.52-3h.7c-1.89-2.66-.17-4.94 1.65-5.9a7.8 7.8 0 0 1 4.15-.61c1.43.25 3.07 1.22 4.33 4.2 1.85-6.43 9.81-8.38 15-7.75a9.81 9.81 0 0 1 8.56 7.68c.81 3.27.8 8.31-1 15.29a19.1 19.1 0 0 1 10.27-4.58c2.95 1.55 3.82 3.46 3.8 5.64 0 2.72-1.72 5.75-4.71 9.1 6.57 5.8 11.72 15.17 17.08 24.64l-2-.83c.8 3.6 1.76 7.26 2.21 10.8 10 10.08 17.87 23.37 19.42 45.54l-.66 7.19v12.06c11 9.13 16.61 21.5 19.33 34l-.56 7.82-6.08-2.5-.64 6.54-3.27-3.52-2.76 5.41c-1.69-6.7-4-8.16-6.12-10.94a8.5 8.5 0 0 1-1.7-6.46c-2.25-.5-2.23 1.72-2.69 3.14-1.5-2.63-1.44-4.84-1.38-9.39l-2.74-4.34-11.06 19a15.9 15.9 0 0 1-4.2 5.15c-1.19.86-3.18 1.24-6.83 1.93l-3.42 2.53-1.89 6.7-2-5.23-4 6.25c-5.73 6.08-9.59 10.44-9.58 12.85 0 1.42 5.18 2.24 10.63 1.83 2.06-.15 3.81-.53 6.06-.63 4.69-.21 13.52 0 18.87 4.17 6.41 5 7.5 11.63 5.58 19.43-.82 3.34-.49 7.93 2.24 9.49-1.62 1.76-2.94 1-4.16-2.12-1.24 2.51-.14 4.54 2.43 5.9a3.29 3.29 0 0 1-4.42-.64c-3.57 8.95-7 15.89-6.15 28.71a75.4 75.4 0 0 1 14.36.44 22.4 22.4 0 0 1 7.26 1.67c6.64 3.33 5.69 10.46 1.58 9.36a8.7 8.7 0 0 0-2.31-1.6c2.12 3.16.74 5.75-4.59 6.81l-2.84-3a2.41 2.41 0 0 0-1.28 3.14c-1.68-.38-3.31-1.8-4.81-3.26-1.67.3-2.26 1.28-2.05 2.94a11.23 11.23 0 0 1-4.94-3.78l-1.85 2.89c-3.09-.41-3.1-3.76-5.36-3.73a22.13 22.13 0 0 0-10.79 3.66c1.41-2.54 2.55-3.68 2.92-5.2s-2.07-1.63-5.36-.31c1-2.78 2-6.07 1.73-8.33 2-7.1 2.82-18.35.71-29.51-2.95-5.6-13.46-6.73-26.41-3.17-.72 6.95-5.32 13.17-8.87 17.93-2.09 2.81-3.95 4.62-4.53 6.37a2.75 2.75 0 0 0 .29 2.55 6.76 6.76 0 0 0 2.28 2c-1.74 1.45-3.88 1-6-1.22-2.65 3-4.14 6.26-1.54 9.61-2.08.26-3.45-.77-4.5-2.56l-9.41 9.59c-3.33 5.67-4.48 10.73-3.35 15.15s4.36 8 9.87 11l5 4.41 1.73 4.36-8-.07-8.69-1.66c.83 1.79 1.6 3.46 1.47 5.19-3-.69-5.8-1.52-8.68-2.2-1.12-.27-2.37-.45-3.5-.68-3.68-.75-4.46-2.57-5.44-5.59a62 62 0 0 1-2.44-10.88l-8.14-1 4.87-3.72 3.85-5.58-9.34-2.21 6.41-4.8 6.4-7.5h-5.06l10.77-6.92c3-4.94 6.3-9.74 6.86-15.9-.06-2.24-.5-5.91-.58-10.37-.09-4.89.27-10.85.57-17.7-2 7.06-6.76 8.59-12 9a16.11 16.11 0 0 1-14.46-2.73 14.58 14.58 0 0 1-5.08-12.23c.42-10 7.1-17.71 13.85-25.51 2-2.37 4.14-5 6.1-7.55 8.46-11.15 14.81-25.65 14-37.46A38.94 38.94 0 0 0 148.9 310c-3.9-5.6-9.64-10.84-17-15.44a53 53 0 0 0-7.1-3.6c-.8-.33-1.63-.45-2.09.33a3.74 3.74 0 0 1-2.86 1.94 2 2 0 0 0-.13-1 5.68 5.68 0 0 1-5 2.32c.45-.45 1.82-1.23 1-1.73a6.8 6.8 0 0 1-7.62.82c-1.69-1.18-3.55-3.95-.24-8.08.12 2 .74 4.13 1.52 4.15 1.69.05 3.18-3.48 5.42-5.6a6 6 0 0 1 4.49-1.55 8.37 8.37 0 0 1 5 2.38c1.18 1.14 1.33 2.23 2.38 2.66 9.3 3.79 19.63 11.2 25.62 20.65 6.2 9.77 9.28 20.93 7.83 31.19a46.6 46.6 0 0 1-2.76 10.83 71.3 71.3 0 0 1-6.36 11.67c-4.42 6.66-10.38 13.4-14.92 18.86-3.43 4.12-6 7.51-6.92 9.61-2.6 5.75-4.46 11.58.14 16.89 3.33 3.84 12.94 5.36 19.95-2.11a27.6 27.6 0 0 0 3-4.79c1.23-2.22 2.63-4.78 3.66-7a122 122 0 0 1 7.77-18.68c1.21-2.46 2.59-4.79 3.92-7.1 3.28-5.69 6.35-10 8.43-17.88 5.62-21.25 5.09-32.93 5.39-50.23-3-1.82-5-6-5.26-13.65l-1.34 2.44c.26-3.09.44-10.29-1.25-10.95-.39-.15-1 .38-1.57 1a18.6 18.6 0 0 1 .06-6l-3.43 1.93 1.54-12.47-3.11 3.85a14.5 14.5 0 0 1 .13-6l.3-5.46 1.34-2.67.77-8.42-2.41-9.1c-4-1.12-8.31-2.89-9.4-5.37-1.49-3.4.56-7.49 4.61-8.69 2.5-.75 5.66-.18 9.51 1.69" class="cls-4"/><path d="M161 437.44a77 77 0 0 1 .28 9.7c-.13 1.94-.61 3.53-1.5 4.27 0 .86.47.94 1 .91.8 0 1.5-1.12 1.79-2.07a9 9 0 0 0 .32-2.24c.11-2.22-.54-7.85-1.89-10.57M157 442.06a89 89 0 0 1 0 10 5.86 5.86 0 0 1-1.28 3.45c0 .83.24.92.72.94.85 0 1.61-1 1.89-2a9.3 9.3 0 0 0 .3-2.17c.09-2.07-.42-7.58-1.63-10.22M153.32 446.56a71 71 0 0 1 .31 10.58 6.76 6.76 0 0 1-1.15 3.68c-.24.29-.36.31-.27.73s.53.55.94.53c.8 0 1.55-1.18 1.84-2.17a8.6 8.6 0 0 0 .3-2.25c.12-2.32-.65-8.26-1.97-11.1M228.51 443.93a69.5 69.5 0 0 1 .1 10.42 6.7 6.7 0 0 1-1 3.42c-.21.31-.35.31-.26.73s.53.55.94.53c.8 0 1.55-1.18 1.84-2.17a9 9 0 0 0 .3-2.25 29.8 29.8 0 0 0-1.92-10.68M224.71 440.57a68 68 0 0 1 .1 10.42 6.85 6.85 0 0 1-1 3.42c-.22.3-.36.31-.27.72s.53.56.94.54c.8-.05 1.55-1.18 1.84-2.17a9.2 9.2 0 0 0 .3-2.26 29.7 29.7 0 0 0-1.91-10.67M221.49 436.1a68 68 0 0 1 .1 10.42 6.67 6.67 0 0 1-1 3.42c-.21.31-.35.31-.26.73s.53.55.94.53c.8 0 1.55-1.18 1.84-2.17a9 9 0 0 0 .3-2.25 29.8 29.8 0 0 0-1.92-10.68M174.73 388.67c8.56 2.3 12.71 6.6 14.65 11.32 2.7 6.59 1.06 14-1.61 21.91 4-7.38 5.74-16.58 3.08-23.1-2.14-5.24-6.8-9.03-16.12-10.13M198.44 400.8c-1.72-1.83-2.43-3.17-2.64-4.9-.37-3.09 1-6.81 5.46-13.78-3 3.3-7.67 9.57-7.16 14 .24 2.14 1.52 3.88 4.34 4.68M224.55 228a.39.39 0 0 0-.31-.28.65.65 0 0 0-.64.41c-.38 1.91 1.48 4.1 2 4.79 1.79 2.44 3.82 3.64 5.65 6.58a12.05 12.05 0 0 1 1.56 6 34 34 0 0 1-.91 5.9c-.14.61.36.63.53.17 1-2.88 2.76-8.77-.22-13.67-1.87-3.08-5.18-4.66-7-7.41a3.7 3.7 0 0 1-.63-1.32c-.1-.32.07-.59-.03-1.17" class="cls-5"/><path d="M257.68 303.19v11.07c4.09 2.67 8.26 7.07 12 14l17.28 9.79-.9-5.95 5.44 1.28-1.15-5.19 5.32 1.41a10.78 10.78 0 0 0-4.52-9.17 38.5 38.5 0 0 0-11.51-5.71c-7.29-2.33-13.64-2.72-21.96-11.53" class="cls-4"/><path d="M164.73 205.15c.9 1.84 3.14 3.36 5.19 4.24l35.29-12.19.14-6a14.4 14.4 0 0 1-2.56 3.31 19.7 19.7 0 0 0-1.1-3 4.3 4.3 0 0 1 1.58-.49.91.91 0 0 0 .91-.81c0-.44-.48-.89-1.26-.79a7.6 7.6 0 0 0-1.85.61 10 10 0 0 1-.39-1.21c-.16-.59-.46-.9-1.12-.74s-.64.7-.49 1.22a12 12 0 0 0 .51 1.27 7.3 7.3 0 0 1-1.78.41c-.7 0-.91.51-.84.89s.22.62.94.68a7.8 7.8 0 0 0 2.3-.53c.34.77.52 1.59.91 2.33a5 5 0 0 1 .22 1.42 13.8 13.8 0 0 1-3.58 1.79 20.66 20.66 0 0 1-10.11.56l-1.78.58c-.25-.65-.53-1.27-.82-1.91a11 11 0 0 1 1.67-.52c.62-.14.79-.5.79-.83s-.3-.76-1.08-.71a7.6 7.6 0 0 0-2 .7c-.19-.45-.36-1-.51-1.43s-.49-1-1.17-.81c-.51.13-.56.71-.4 1.23a15 15 0 0 0 .55 1.48 3.2 3.2 0 0 1-1.65.33.89.89 0 0 0-.95 1c.11.38.4.62 1.12.66a5.7 5.7 0 0 0 2.12-.43c.28.61.56 1.13.79 1.7l-1.49.48a13.27 13.27 0 0 1-7.08 5.18 21.5 21.5 0 0 1-5.81.84 14.5 14.5 0 0 0-1.19-3.2 12 12 0 0 1 1.71-.53c.62-.13.75-.5.75-.82s-.44-.91-1.21-.74a13 13 0 0 0-1.9.66c-.19-.45-.3-.93-.45-1.4s-.48-1-1.17-.78c-.5.13-.62.72-.46 1.24s.31 1.06.51 1.54a6.8 6.8 0 0 1-1.71.3.82.82 0 0 0-.79 1c.08.37.24.65 1 .65a5.8 5.8 0 0 0 2.29-.58 17.4 17.4 0 0 1 .93 2.62 23 23 0 0 1-3.52-.47" class="cls-5"/><path d="M196.82 206.53a11.5 11.5 0 0 0 3.62-1.06 4.3 4.3 0 0 0 .12-2.5 2.64 2.64 0 0 0-2.8-1.43c-.7.1-1.67.23-1.75 1.13l-.22 2.57ZM203 204.42a11.8 11.8 0 0 0 3.62-1 4.3 4.3 0 0 0 .11-2.5 2.64 2.64 0 0 0-2.8-1.44c-.69.11-1.66.24-1.74 1.14l-.22 2.56Z" class="cls-6"/><path d="M191.91 305.13c3.1 3.12 7.89 7.72 14.31 7-3.71-2.08-6.39-5.39-5.31-10.85 3.51 6.11 9.73 10.52 21.52 9.13-4.09-.76-5.27-3.64-2.78-7.47 3.9 2.05 9.46 4.13 18 2.21a9.7 9.7 0 0 1-2.15-4.23 34.9 34.9 0 0 0 14.64 1.32c-4.58-4.37-10-9-12.56-14 1.43 4.31 4.79 8.94 8.07 12.27a62 62 0 0 1-11.82-1c.44 1.62.66 2.94 1.25 4.52-5.7.91-10.54-.09-15.82-2.6-2.81 2.53-3.15 5-1.95 7.15-2.41.73-5.62 0-7.68-1-3.79-2-6.3-4.8-9-8.88-2.06 5.09-.59 8.9 1.18 11.85a49 49 0 0 1-9.9-5.42M240.34 260c-2.24.19-4.36 1.64-4.29 3.65.08 2.39 2.78 4.61 5.38 6.43 3.17 2.2 5.87 4.36 7.61 7.87 2.81 5.69.7 13.87.71 16.6 0 .71.44.69.57.11 1-4.43 2.12-11 .58-16.2a16.1 16.1 0 0 0-4.24-7.23c-2.93-2.69-6.1-4.14-7.94-6.6-.6-.81-1.16-1.6-.55-2.61a4 4 0 0 1 2-1.47c.43-.18.64-.55.17-.55" class="cls-5"/><path d="M191.82 297.85a17.3 17.3 0 0 0 1.65 2.66l3.9 5a7.65 7.65 0 0 1-4.23-2.86 6 6 0 0 1-1.32-4.8M178.3 285.09V276a7.74 7.74 0 0 0-1.64 4.35 7.2 7.2 0 0 0 1.64 4.74M175.48 276.42v-9.15a7.62 7.62 0 0 0-1.61 4.55 6.84 6.84 0 0 0 1.61 4.6M186.4 258.75l-4-5.95a6.44 6.44 0 0 0 .91 3.73 5 5 0 0 0 3.09 2.22M171.42 215.51c1.24.13 2.69-.66 3.59-1a4.5 4.5 0 0 0 .14-2.58 2.63 2.63 0 0 0-2.8-1.43c-.69.11-1.66.24-1.74 1.13l-.22 2.57ZM177.86 213.43a11.4 11.4 0 0 0 3.6-1 4.47 4.47 0 0 0 .13-2.55 2.62 2.62 0 0 0-2.79-1.43c-.7.1-1.67.23-1.75 1.13l-.22 2.57ZM184.28 211.05a11 11 0 0 0 3.57-1 4.33 4.33 0 0 0 .16-2.52 2.64 2.64 0 0 0-2.8-1.44c-.69.11-1.66.24-1.74 1.14l-.22 2.56ZM190.67 208.89a11.8 11.8 0 0 0 3.62-1 4.3 4.3 0 0 0 .11-2.5 2.63 2.63 0 0 0-2.79-1.44c-.7.11-1.67.24-1.75 1.14l-.22 2.56ZM227 244.57a51.4 51.4 0 0 0-1.47-6.92 5 5 0 0 1 2.16 3.21 4.52 4.52 0 0 1-.69 3.71M172.58 269.55c.3-1.89.52-3.87.86-5.76a27 27 0 0 1 .76-3.28 6.46 6.46 0 0 0-2.48 4.28 6.3 6.3 0 0 0 .86 4.76M169.08 259.83c.57-.73.95-3.06 1.63-5.4a32 32 0 0 1 1.1-3.31 6.83 6.83 0 0 0-2.91 4.18c-.41 1.62-.42 3.75.18 4.53M181.84 288.88a27.6 27.6 0 0 0 2 3.44c2 3.15 4.23 6.28 6.44 9.31a17.5 17.5 0 0 1-6.13-5.52c-1.4-2.11-2.55-4.25-2.31-7.23M203.53 296.82l5.57 7.42a7.92 7.92 0 0 1-4.16-2.78 6.25 6.25 0 0 1-1.41-4.64M209.13 298.23a20 20 0 0 0 1.27 1.89l4.3 5.6a8 8 0 0 1-4.16-2.79 5.92 5.92 0 0 1-1.41-4.7M223.74 298.92a9.4 9.4 0 0 0 2 .93l6.92 2.5a8.7 8.7 0 0 1-5-.13 6.4 6.4 0 0 1-3.92-3.3M233.6 295.34l8.7 3.23a7.86 7.86 0 0 1-4.85-.1c-1.57-.57-3.31-1.75-3.85-3.13M179.47 237.09c4.79-1.05 7.8-2.47 11-2 3.37.51 5.37 2 9.47 5-1.15-2.09-4.68-6.53-8.51-7-2.3-.27-8.63 2.53-11.96 4M218.9 223l-7.9 4.28a7.9 7.9 0 0 0-2.39 1.8 6.7 6.7 0 0 0-1.46 2.79c-.57 2.23-.3 4.67-1.13 6.1-.6-2.31-1.42-8.56 1-10.26Z" class="cls-5"/><path d="M185.66 237.82a21.3 21.3 0 0 0 9.33 1.64c.35 0 .52-.42.12-.73a9.7 9.7 0 0 0-4.51-1.82 14.7 14.7 0 0 0-4.87.21c-.47.15-.39.54-.07.7M213.33 227.77c-.51 2-3.53 6.48-4.91 7.31-.27.16-.67.07-.63-.39a9.8 9.8 0 0 1 1.8-4.46 12 12 0 0 1 3.1-2.85c.4-.21.72.07.64.39M200.11 240.6l.67 1.54c-.43 3.4-.69 6.83-1 10.24l-.13.23a95 95 0 0 1 .46-12.01M206.33 238.47l.08 1.34 8.9 6.9.26-.14zM199.92 252.91l-.04.25 9.74 1.07 5.59-7.18-.19-.06-6.24 5.52z" class="cls-5"/><path d="M195.27 262.25c.45 2.68 1.76 3.87 3.6 3.83 3.06-.08 8-3.31 12.54-7.11 6 .13 10.65 0 13.71-.89 2.09-.6 3.22-1.6 3.23-2.89a4.78 4.78 0 0 0-2.17-3.34c-.18-.11-.4 0-.21.16 1 1.21 1.61 1.92 1.6 3.16 0 1.69-2.43 2.51-5.82 2.77a50.7 50.7 0 0 1-9.35-.4 27.6 27.6 0 0 1-3.25-4.37l.93 2.87a3.12 3.12 0 0 1 .1 2.56c-3.79 3.48-8.72 6.72-11.47 6.54-1.3-.08-2.27-.81-2.92-2.76Z" class="cls-5"/><path d="m204.4 264.31-.06.05a16 16 0 0 0 4.11 4.63 20.7 20.7 0 0 0 7.94-1.28c2.22-.83 4.88-2.62 5-3.61a12.2 12.2 0 0 0-.29-4.35c-.1-.24-.35-.39-.49-.6a20 20 0 0 1-.14 4.22c-.14 1-2.36 2.57-5.31 3.54a19.8 19.8 0 0 1-6.34 1 40 40 0 0 1-4.42-3.6M221.46 206.47c-2.21.45-4.17 1.11-5 1.9-1.32 1.28-2.2 4.14-3 7.12-.4 1.44-.37 4.19-.77 6.33-.44.55-1 1.3-1.42 1.84 2.3-.11 3.4-2.69 3.59-4.53.37-3.5.46-5.65 1.27-7.82.72-1.96 2.5-3.37 5.33-4.84M164 224.35a13.4 13.4 0 0 1 7.31 1.36c2.63 1.42 2.94 3.25 4.2 4.36a27.1 27.1 0 0 0 6.33 4.37c-1.79.88-6-1.23-7.3-2.54-1.84-1.87-1.41-2.63-2.58-3.65-1.36-1.15-3.75-2.12-7.96-3.9M177 238.38c0-.22.27-.12.4 0a2.07 2.07 0 0 1 .41 1.39c-.05 2.61-2.54 4.69-3.41 7.57a7.16 7.16 0 0 0 .6 5.87c.13.28-.1.46-.23.26a8.9 8.9 0 0 1-1.58-6.81c.58-3.4 4.16-5.41 3.81-8.28M176.41 251a.34.34 0 0 1-.1-.38.46.46 0 0 1 .57-.22c1.42.59 2.33 3.62 2.56 4.37.82 2.69.93 5.06 2.1 8a11 11 0 0 0 3.31 4.53 23.7 23.7 0 0 0 4.3 2.5c.51.27.23.62-.2.49-2.72-.82-7.11-3.18-8.89-7.54-1.27-3.1-1.23-6.95-2.16-9.61a4.4 4.4 0 0 0-1.49-2.14M226.2 325.38c-1.19 2.91-2.5 5.76-3.87 8.58a8 8 0 0 0 3.43-3.65 6.63 6.63 0 0 0 .44-4.93M229.42 328c-1.19 2.91-2.5 5.76-3.87 8.58A7.94 7.94 0 0 0 229 333a6.66 6.66 0 0 0 .42-5M232.25 331.41c-1.19 2.91-2.5 5.76-3.87 8.58a7.9 7.9 0 0 0 3.43-3.65 6.63 6.63 0 0 0 .44-4.93M234 348c-3 .86-6.07 1.6-9.13 2.27a6.4 6.4 0 0 0 4.79.47c1.61-.39 3.59-1.37 4.34-2.74M233 352c-3 .87-6.07 1.61-9.13 2.28a6.63 6.63 0 0 0 4.69.46c1.64-.45 3.72-1.44 4.44-2.74M267.79 337.83c.86 3.18 3.06 10.25 3.92 12.43a11.7 11.7 0 0 0-.66-6.36 18.3 18.3 0 0 0-3.26-6.07M263.87 340c.85 3.17 2.5 9.72 3.36 11.9a11.53 11.53 0 0 0-.37-6.46 15.1 15.1 0 0 0-2.99-5.44M259.27 342.71c.76 4 2 13 2.81 15.75a15.5 15.5 0 0 0-.05-8.22 25.6 25.6 0 0 0-2.76-7.53M284.43 334.18l-9.82-5.94a18.8 18.8 0 0 1 6.9 2.28 5.93 5.93 0 0 1 2.92 3.66M293.23 326.93l-9.2-6.52a13.5 13.5 0 0 1 6.22 2.27c1.35 1 2.75 2.78 2.98 4.25M289.15 330.06l-8.93-5.18a9.85 9.85 0 0 1 5.62 1.25 7.4 7.4 0 0 1 3.31 3.93" class="cls-5"/><path d="m225.87 315.36-.04 7.35 2.14-1.41.16 6.31 4.21-5.65-.4 8.57 3.38-3.71-.65 5.91 5.81-3.87-4.2 1.28v-5.88l-2.79 3.02-.37-7.03-3.81 3.84-.39-4.72-1.94 1.47z" class="cls-5"/><path d="M512.08 248.49c-1.26.87-3.93 1.57-6.24 2.39a22.3 22.3 0 0 1-4.33 1.39 173 173 0 0 0-15.65 11 71.45 71.45 0 0 0-15.47 25.8 82 82 0 0 0-4.27 18.63 60 60 0 0 1-.73 6.46 39.8 39.8 0 0 1-4.48 10.87 73 73 0 0 1-17.31 20.87c2.88 7.47-.4 28.75-5.51 47.23 2.8 4.8 7.46 2 10.9-2.31-.4-6.14.95-13.07 3.21-19.8a80.5 80.5 0 0 1 10.5-20.64c5-2.56 11-9.55 16.79-15.38 6.33 11.44 10.94 17.42 16.47 22.3l10.51 7.7 3.91 4q-16.14 2.63-26.91 10.64c.34 8.29-2.34 17.44-8.66 27.62 2.06-1.33 4.43-3.36 6.54-4.94a33.1 33.1 0 0 1-8.17 13.19 42.3 42.3 0 0 1-8.49 6.72c-3.66 2.21-7.76 4-12.21 7.32-7.51 5.66-13 11.38-17.59 20.45l1.34 1.67-2.75 13.14a14 14 0 0 1 1.6 2.3 43 43 0 0 1 1.47 4.55l3.34-2.43c3.82-12.21 10.64-22.41 21.86-30.27l16.08-7.67c4.75-3.94 10-7 15.4-10.28 9-4.36 15.13-9.35 15.87-15.87l9.1-2.69c.87 9 1.37 18 4 26.47l28.84 20.12a35.53 35.53 0 0 1 3.74 18.69c-.76 12.62-4.28 19.32-5.92 28.73l1.41 7.63 8-1.92a15.7 15.7 0 0 0 2.94-3.87c.92-1.84 1-3.84 1.61-6.13-1.18-2.37-1.15-5.87-.27-9.33 2.33-9.13 6.7-13.77 7.61-20.5.69-5.05.88-9.88-.29-14.58-5.3-8.57-11-17.1-16.92-25.51 4.62-7.86 7.85-16.07 11.6-28.58 4.83 6.68 13.1 12.14 20.31 8.33 5.79-3.05 9.42-7.37 9.14-13.5-.25-5.14-3-10.24-6.32-15.86-.92-1.56-3-4.07-4.66-6.55a77 77 0 0 1-9.28-17.66 45.2 45.2 0 0 1-2.13-12.25 28.4 28.4 0 0 1 1.65-10.39c2.36-6.09 7.31-11.79 12.69-14.43a16.8 16.8 0 0 1 4.05-1.46c1.9-.36 3.49-.2 5.22-.72 2.53-.77 4.84-2.48 4.66-5.8l-.9.8c.14-1.13.92-1.75 1.11-3.06a3.58 3.58 0 0 0-.5-2.58l-.83 1.12c.2-1.23.6-2.29.68-3.21.15-1.7-.42-2.75-.9-3.07a8.43 8.43 0 0 1-2.14 4.53c-.91.94-1.24.43-2.25 1.24-2.41 1.93-3.18 4.64-5.68 5.77-2.82-.11-5.94 2.07-9.51 5.33a44.1 44.1 0 0 0-7.76 9.38 30.93 30.93 0 0 0-4.53 15.6 47.2 47.2 0 0 0 4.1 18.87c3.72 9 9.79 17.33 14.26 24.83 2.68 4.48 3.54 9.51 2.56 12.5-1.22 3.72-6.7 5.56-10.39 3.93-5.24-2.31-8.5-9-8.91-12.06a41 41 0 0 1 0-8.37 27.3 27.3 0 0 0 .16-5 63 63 0 0 0-.92-6.35c-3.7-16.11-19.58-32.33-30.37-42.5-6.95-11-4.3-17.66-4.34-24.47 1.33-4.37 5.12-10.4 8.6-15.24a24.8 24.8 0 0 1 3.32-4.15c1.41-1.26 3 .83 4.11.09a4.28 4.28 0 0 0 1.06-2.66c.24-1.58.23-3.33 1-3.73 1.24-.68 3.89-.95 4.11-1.77.17-.63-.18-1.39-.84-2.31-.92-1.3-2.18-2.66-1.85-3.52s2.45-1 3.74-1.51c.6-.25 1-.46 1.23-1 .32-.78-.21-1.64-1-2.43-1.39-1.45-3.3-2.53-2.95-3.67s4.06-3.14 4.33-5.2a4.81 4.81 0 0 0-1.57-3.71c-1.46-1.43-3.28-1.67-3.07-3.06.17-1.13 1.72-2.12 2.7-3.28a4.18 4.18 0 0 0 1.11-2.57 3.75 3.75 0 0 0-2.16-3c-1.16-.66-2.32-.45-3.86-1.44a2.23 2.23 0 0 1-1.14-1.77c0-2 1.39-2.8 2.38-3.71s1.57-1.36 1.51-2c-.12-1.23-2.76-2.57-5.56-4.1a3 3 0 0 1-1.54-2.43c0-1.72 1.87-4.88 2-6.46a1.36 1.36 0 0 0-.63-1.34c-.71-.37-2.37-.17-4.28-.31-1.3-.09-2-.47-2.35-1.06a1.9 1.9 0 0 1-.22-1.28c.16-.63.68-1.18 1.74-1.69.45-.21.29-.82-.45-.89a8.8 8.8 0 0 0-2.86.17c-1.46.32-2.6.64-3.89 1a1.27 1.27 0 0 1-1.07-.13c-.67-.87.76-2.4 1.36-3 .4-.4.44-.83-.27-.92a12.6 12.6 0 0 0-4.11.47c-1.27.35-2.25 1-2.84.95-.38 0-.68-.19-.76-.54-.18-.82.87-1.61 2.76-2.6 1-.51.49-1.32-.15-1.28-3.28.22-6.24.91-8.23 2.4a13 13 0 0 0-2.19 2.12c-.89 1.12-1.33 2.14-2 2.11-1.75-.09-4-2.47-4.92-3.33l-22.43-20.26a10.3 10.3 0 0 0-2.42-1.67 3.3 3.3 0 0 0-2.27-.37c-.59.22 0 1.28.3 1.69 1.19 1.45 2.06 2.49 3.31 3.81l14.54 17.86a20 20 0 0 1 3.11 4.65 26.2 26.2 0 0 1-6.1 3.55c-1.65.61-2.77.38-4 1.68a7.8 7.8 0 0 0-1.56 3.7c-.4 1.67-.81 3.36-2.13 4.33-1.93 1.41-3.34 1.35-4.71 1.78-2.92.89-4.94 2.28-8.33 4.11-.36.2-.62-.1-1.14-.2a4.4 4.4 0 0 0-1.65-.15c-1.37.22-2.78.77-2.85 3.78-.78 1.15-2.86 4-2.76 4.91a11.23 11.23 0 0 0 2.15 5.28c.34.32 1.07-.09 1.6-.38l.4.93a26 26 0 0 0-3.05 2.37 15.2 15.2 0 0 1-3.15 2.66c-2.19 1.21-5.47 1.12-6.76 2.69.23.53.9.54 1.5.46 1.24-.17 2.35-.46 3.69-.63a19.5 19.5 0 0 0 2.84-.16c1-.27 2-1.16 3-1.35a36 36 0 0 1 4.75-.17c1.06-.06 2.29-.85 3.15-.94-.67.82-2.06 1.52-2.57 2.47 0 1.37 1.25 3.09 3.89 3.88a.44.44 0 0 1 .32.6 6.6 6.6 0 0 0-.61 2.54c0 1.27.39 2.29 1.14 2.35.17 0 .49 0 .53-.54.16-2.23 1.3-3.45 3.75-4.72 1.23-.64 1.65-2.79 2.76-3.65 1.3-1 3.72-.42 5.85-1.42a8.73 8.73 0 0 0 3.71-2.79 6.88 6.88 0 0 0 4.37 3.12 22 22 0 0 0 6.79-.14" class="cls-4"/><path d="M472.52 277.4c-8.13 6.66-18.48 15.07-25.43 24.52-3.73 5.06-4.6 10.16-7.32 14.26a42.1 42.1 0 0 1-16.19 14.26c-1.43 5.5-4 11.08-4.3 16.52l4.55 6.54c2.4-6.73 7.54-19 12.56-20.37a16.6 16.6 0 0 0 5.32-1.58c5.41-2.29 14-7.13 17.51-10.75 3-3.12 4-7.29 4.63-12.67.39-3.34.4-5.23.68-7.88.68-6.39 5.37-17.15 7.99-22.85" class="cls-4"/><path d="M519.55 246c-.28.67-1 1.85-1.86 1.93-1.52.14-1.44-.42-2.22-.53a2.57 2.57 0 0 0-2 .58 3.63 3.63 0 0 0-1.26 2.32c8.79 3.4 28.29 11.43 36.79 19.2 1-1.29 1.74-2.62 1.55-3.77-.22-1.4-1.71-1.78-2.5-2.29a1.59 1.59 0 0 1-.58-1.72 5.74 5.74 0 0 1 1.45-2.29l-1.92-1.07a20 20 0 0 0 1-3.07 4.7 4.7 0 0 1 1.55.58.9.9 0 0 0 1.21-.09c.28-.35.17-1-.51-1.4a8.5 8.5 0 0 0-1.85-.64 9 9 0 0 1 .44-1.19c.23-.57.17-1-.45-1.27s-.93.17-1.13.67a12 12 0 0 0-.36 1.32 7.8 7.8 0 0 1-1.67-.76c-.59-.38-1-.15-1.21.2s-.2.72.34 1.2a7 7 0 0 0 2.12 1 22 22 0 0 1-.83 2.66v.07l-2-1.12c-.71 1.92-1.27 2.22-1.87 2.58s-2.15-.11-2.82-.38a3.87 3.87 0 0 1-2.21-1.53c-.44-.77-.45-2 .25-4.18l-1.27-.47c.22-.72.38-1.45.53-2.19a12 12 0 0 1 1.66.58.84.84 0 0 0 1.13-.19c.26-.36.21-.79-.45-1.21a7 7 0 0 0-1.92-.59 7.4 7.4 0 0 1 .34-1.29c.2-.58.2-1.09-.45-1.35-.49-.2-.88.24-1.06.75a13 13 0 0 0-.42 1.32 3.06 3.06 0 0 1-1.51-.73.9.9 0 0 0-1.38.27c-.14.36-.09.79.51 1.19a7.7 7.7 0 0 0 2.05.84c-.15.7-.3 1.37-.5 2.05l-2.86-1.07a4 4 0 0 1-5.53 1.73c-1.21-.55-3.77-1.8-1.92-4.87L522 247a12.5 12.5 0 0 0 .53-2 12 12 0 0 1 1.67.62.8.8 0 0 0 1.11-.19c.27-.35.2-1-.51-1.32a13 13 0 0 0-1.91-.64c.12-.47.24-.79.4-1.25s.2-1.06-.45-1.34c-.48-.2-.93.19-1.12.7s-.3.9-.44 1.41a6.7 6.7 0 0 1-1.53-.82.82.82 0 0 0-1.24.32c-.17.34-.21.66.36 1.1a5.8 5.8 0 0 0 2.16.93 13.6 13.6 0 0 1-.56 1.87ZM477.47 233a.69.69 0 0 1-.69.15.68.68 0 0 1-.27-.92 2.17 2.17 0 0 1 2.06-1.57c1 0 3.05 1.13 2.9 2.88a.76.76 0 0 1-.74.68 1 1 0 0 1-1-.87c-.2-1.13-.37-1.3-1-1.37s-.87.48-1.26 1.02M499.87 221.81c.73-2.66 2.06-3.9 3.87-4.32s2.61.71 4.11 1a1.93 1.93 0 0 0 1.55-.44 7.34 7.34 0 0 1-3.86 3.87 5.6 5.6 0 0 1-3.56-.06 4.4 4.4 0 0 0-2.11-.05M501.31 215.92a5.85 5.85 0 0 1 6.78 0 4.27 4.27 0 0 0-3.45-2.37c-1.29.01-2.64 1.29-3.33 2.37M506.69 203.91a15 15 0 0 1 1.64.37c1.72.06 2.91-.13 3.68.23a1.3 1.3 0 0 1-.92.61 20 20 0 0 1-3 .25 2.7 2.7 0 0 1-1.34-.9.8.8 0 0 1-.06-.56M504 200.43a2.4 2.4 0 0 0 1.4.43c1.73.06 3.27-.08 3.86.41-.46.19-.66.48-1 .53-.77.13-2.35.2-3 .25a4.3 4.3 0 0 1-1.18-.9c-.28-.23-.18-.4-.08-.72M500.93 197.12c.39 0 1.14.33 1.56.33 1.29 0 2 0 2.78.07a1.54 1.54 0 0 1 1 .35c-.14.11-.58.18-.74.3s-.18.23-.42.26c-.81.1-2.22.1-3 .11a1.62 1.62 0 0 1-1-.79 1.4 1.4 0 0 1-.18-.63M497.73 193.7a6.3 6.3 0 0 0 1.64.49c1.32.05 1.94 0 2.69 0 .39 0 .89.16.89.49a4 4 0 0 0-.73.23 1.2 1.2 0 0 1-.52.21c-.88.06-1.9.11-2.67.12a4.3 4.3 0 0 1-1.14-.84c-.14-.1-.14-.47-.16-.7M535.27 212.56a3.3 3.3 0 0 0 1.58.1c.75-.11 1.28-.35 1.67-.34a2.46 2.46 0 0 1 1.63.66c1.29 1 1.84 3.17 4.05 3.21-.2-.23-.73-.83-1.36-1.58-1-1.17-1.87-2.3-2.08-2.51a3 3 0 0 0-2.52-1.06c-.65.08-2.72.71-2.97 1.52M542 224.76a3.35 3.35 0 0 1 1.35-.2c.75 0 1.63.82 1.92 1 1 .65 2.18 2.34 3.6 1-1.18 0-1.95-.78-3-1.66s-1.67-1.25-2.39-1.23c-.48.01-1.02.03-1.48 1.09M541.82 230.47a5.4 5.4 0 0 1 1.28-.09 3.28 3.28 0 0 1 1.79 1c.79.7 2 1.94 3.16.65-1.07 0-1.66-.58-2.6-1.4a3.9 3.9 0 0 0-2.1-1.19 1.46 1.46 0 0 0-1.53 1.03M537 218.46a3.7 3.7 0 0 1 1.32.11c.64.2.81.51 1.68 1.11s2.24 2 4.23.79c-1.39.16-2.35-.67-3.27-1.6a3.45 3.45 0 0 0-2.39-1.37 1.69 1.69 0 0 0-1.57.96M547.89 245.32c1.64.33 2 1.07 2.9 2s2.15 2.19 4.18 1.37a3.63 3.63 0 0 1-3-2c-.69-1.07-1.37-1.78-2.18-1.92a2.11 2.11 0 0 0-1.9.55M544 239.22c1.64.33 2 1.07 2.91 2a3.65 3.65 0 0 0 4.23 1.26 3.43 3.43 0 0 1-2.93-1.91c-.69-1.07-1.39-1.83-2.2-2a2.1 2.1 0 0 0-2.01.65M546.42 236.06c1.4-.21 1.69-.56 2.33.11s1.7 2.66 3.65 1.35c-1.73-.18-2.59-2.91-4.1-3-.78-.01-1.43.6-1.88 1.54M530.34 226.34a17 17 0 0 1-5.82 6.75 19.1 19.1 0 0 1-7.44 2.62 44 44 0 0 0 7.86-.81c.77-.08 3.81-2.9 5.4-8.56M499.37 391.08c-1-.72-1.27 0-.72.63a18.8 18.8 0 0 1 3.4 5.37 15.87 15.87 0 0 1 .69 9.2 11.68 11.68 0 0 0 1-9.1 12.35 12.35 0 0 0-4.37-6.1M497.91 396.75c-.85-.9-1.17-.3-.75.44a16.9 16.9 0 0 1 2.21 5.95 15.74 15.74 0 0 1-1.44 9.11 11.62 11.62 0 0 0 3-8.61 11.86 11.86 0 0 0-3.02-6.89M495.38 402.21c-.61-1.08-1.06-.57-.84.25a16.9 16.9 0 0 1 .72 6.31 15.84 15.84 0 0 1-3.6 8.49 11.6 11.6 0 0 0 5-7.63 11.9 11.9 0 0 0-1.28-7.42M529.91 418.21c1.18.38 1.13-.4.41-.85a16.7 16.7 0 0 1-4.82-4.1 15.8 15.8 0 0 1-3.15-8.67 11.58 11.58 0 0 0 1.53 9 12.1 12.1 0 0 0 6.03 4.62M531.55 424.29c1.24.09 1-.66.2-.92a16.9 16.9 0 0 1-5.65-2.86 15.8 15.8 0 0 1-5.1-7.68 11.6 11.6 0 0 0 3.61 8.37 12.08 12.08 0 0 0 6.94 3.09M537.17 431.4c1.23-.16.85-.84 0-.94a16.7 16.7 0 0 1-6.1-1.66 15.9 15.9 0 0 1-6.54-6.51 11.62 11.62 0 0 0 5.21 7.48 12.1 12.1 0 0 0 7.43 1.63M517.63 373.42a171 171 0 0 0-.1 27c-2.73.38-5.16.66-8.35 1.17a53 53 0 0 1 6.2-2.28 117.8 117.8 0 0 1 2.25-25.89M508.57 315l-7.57-5.78a7.13 7.13 0 0 0 3 4.42c1.58 1.14 3.42 1.72 4.57 1.36M505.87 318.85l-6-7.34a7.2 7.2 0 0 0 1.9 5 5.77 5.77 0 0 0 4.1 2.34M500.36 343.19c1.23-.16.95-.85.1-.95a19 19 0 0 1-6.13-1.66 15.9 15.9 0 0 1-6.73-6.31 11.68 11.68 0 0 0 5.4 7.38 12.33 12.33 0 0 0 7.36 1.54M506.34 347.92c1.16-.45.72-1.05-.12-.95a19 19 0 0 1-6.36-.12 15.87 15.87 0 0 1-8.05-4.5 11.64 11.64 0 0 0 7 5.86 12.28 12.28 0 0 0 7.53-.29M512.12 351c1-.67.5-1.17-.31-.91a18.6 18.6 0 0 1-6.25 1.13 15.9 15.9 0 0 1-8.78-2.83 11.63 11.63 0 0 0 8 4.36 12.28 12.28 0 0 0 7.34-1.75M518.85 354.2c1-.78.37-1.22-.4-.87a18.9 18.9 0 0 1-6.1 1.78 15.87 15.87 0 0 1-9-1.88 11.67 11.67 0 0 0 8.46 3.49 12.36 12.36 0 0 0 7.04-2.52M500.41 275.73a8.2 8.2 0 0 1-.52 3 .81.81 0 1 1-1.48-.62 6.7 6.7 0 0 0 .4-2.3.8.8 0 1 1 1.6-.08M487.14 269.63a9.3 9.3 0 0 1 .61 3.42c-.09 1.15-1.67 1.07-1.64-.22a6.4 6.4 0 0 0-.57-2.6c-.45-1.11 1.16-1.6 1.6-.6M506.66 270.33a7.1 7.1 0 0 1 1.75-2.49c.88-.76 2 .27 1.08 1.14a7.2 7.2 0 0 0-1.33 1.9.8.8 0 1 1-1.5-.55M519.5 279.05a9.2 9.2 0 0 0 3.12-1.48.83.83 0 1 0-1.08-1.25 8.4 8.4 0 0 1-2.34 1.17.8.8 0 1 0 .3 1.56M515.54 274.32a9 9 0 0 0 2.58-2.31.83.83 0 1 0-1.39-.89 8.3 8.3 0 0 1-1.91 1.79.79.79 0 1 0 .72 1.41M521.78 284.68a10.8 10.8 0 0 0 3.87-.36c1.09-.39.66-2.14-.54-1.68a10.7 10.7 0 0 1-3.11.3.88.88 0 0 0-.22 1.74M493.82 279.89a11.2 11.2 0 0 0-.24-4.06.86.86 0 0 0-1.65.49 14 14 0 0 1 .18 3.32.87.87 0 0 0 1.71.25M502.46 270a11.5 11.5 0 0 0 .8-4 .84.84 0 1 0-1.67.08 14 14 0 0 1-.71 3.26.87.87 0 0 0 1.58.66M494.72 271.33a19 19 0 0 0-.21-5.11.86.86 0 0 0-1.66.45A24 24 0 0 1 493 271c-.1 1.12 1.56 1.41 1.72.33M504.22 277a4.9 4.9 0 0 0-1.33 1.9c-.45 1.07.93 1.77 1.43.58a3.3 3.3 0 0 1 .89-1.26.79.79 0 1 0-.99-1.22M516 294.43h1.93a.79.79 0 1 0-.1-1.57h-1.75a.79.79 0 1 0-.08 1.57M523.48 290H526a.79.79 0 1 0-.1-1.57h-2.3a.78.78 0 1 0-.12 1.57M488.45 281.27a7.15 7.15 0 0 0-.61-2.86c-.55-1-1.95-.41-1.4.75a6.8 6.8 0 0 1 .43 2.06.79.79 0 1 0 1.58.05M512.9 286.06a7.1 7.1 0 0 0 2.62-1.29c.86-.78-.07-2-1.07-1.18a6.5 6.5 0 0 1-1.89.92.8.8 0 1 0 .34 1.55M514.5 290.34a8.8 8.8 0 0 0 3.22-.25c1.09-.37.72-1.86-.52-1.5a8.3 8.3 0 0 1-2.4.19.8.8 0 1 0-.3 1.56M509.88 282.37a7 7 0 0 0 2.11-1.94c.66-.95-.5-1.9-1.29-.88a7 7 0 0 1-1.5 1.39c-1.01.64-.28 1.95.68 1.43M482.52 331.98l.52 1.51 15.11-15.44.2-8.14-2.17 6.83z" class="cls-5"/><path d="M350.61 318a86 86 0 1 1-86 86 86 86 0 0 1 86-86m37.05 153.18a67.12 67.12 0 0 1-49.18-17.72l-7.36 5.36a38.4 38.4 0 0 0 .62 14.84c5.19 4 12.36 6 18.28 7h.59a76.35 76.35 0 0 0 37.05-9.53ZM343 448.72c15.9 14.39 36.09 18.91 56.66 14.25a77 77 0 0 0 18.66-22.86c-6.43 2.15-13.82 2.68-19.8 2.66-15.6 0-32.2-3.6-47.12-8.09l-8.4 14Zm10.37-20.22c14.28 4.29 30.26 7.73 45.17 7.78 7 0 18-.81 24-5.53a76.4 76.4 0 0 0 4.8-24.94l-2.93-2.62a38.7 38.7 0 0 1-7.8 1l-8.11 6.8-28.25-14.39-25.8 20.21-1.12 11.69Zm-59.27 27.27c9.07-40.19 30.73-73 59.63-102.13a49.9 49.9 0 0 0-10.61-8.74c-38 17.13-57.06 47.43-63.69 87.6a76.5 76.5 0 0 0 14.67 23.27m65-98.33c-29.4 29.42-51.25 62.56-59.56 103.74a76.6 76.6 0 0 0 23.74 14.47l2-1.2a44.7 44.7 0 0 1-.32-18.14l.24-1.25 11.35-8.26 10.13-16.94 1.57-16.44 28.55-22.36a99.6 99.6 0 0 0-7.49-29c-2.73-2.27-6.72-3.76-10.25-4.62Zm-83.66 61.86c8.59-35.78 28.27-63.19 63.31-79.55L337 335.9a131.4 131.4 0 0 0-24.18 1.5 131.4 131.4 0 0 0-21.25 23.3l-.27.37-8 6.21a76.93 76.93 0 0 0-7.78 52Zm105.25-85.93A86.5 86.5 0 0 1 399 350.65a97.9 97.9 0 0 1 20.1 46.85 29.7 29.7 0 0 0 5.18-1l1.74-.51.93.83a76.78 76.78 0 0 0-46.3-63.44Zm32.09 65.5a91.1 91.1 0 0 0-18.57-44.18c-11.12-14-25.34-23.61-42.35-27.7a89 89 0 0 0-19.09 2.35c2.81 0 5.22.25 8 .4l4.66 9A56.3 56.3 0 0 1 360 351c5 1.15 10.45 3.26 14.2 6.72l.49.45.28.61a106 106 0 0 1 8.34 32.1l24.28 12.36ZM299.29 595.16v-89.33h-32v80.48a249 249 0 0 0 32 8.85M367.21 599.7v-93.87h-31.95v94c4.88.28 9.79.44 14.74.44 5.79.03 11.52-.18 17.21-.57M435 585.48v-79.65h-31.93v88.82a249 249 0 0 0 31.93-9.17M299.29 99.55v79h-32V108.4a249 249 0 0 1 32-8.85M367.21 95v83.59h-31.95V94.85c4.88-.29 9.79-.45 14.74-.45 5.79 0 11.52.22 17.21.6M435 109.23v69.36h-31.93v-78.53a249 249 0 0 1 31.93 9.17M288.89 240.31h5.46v11.92h-25.77v-11.92h5.74v-34.66h-5.74v-12.28h45.11v19.28h-14.33v-6.32h-10.47v11.08h13.65v11.17h-13.65zM378.36 218.64v33h-11.61v-6.35a20.6 20.6 0 0 1-7.52 5.73 26.4 26.4 0 0 1-10.23 1.79c-17.16 0-30.69-14.52-30.5-31a30.66 30.66 0 0 1 30.5-30.2c5.68 0 12.21 1.73 16.37 5.84v-4.87h11.76V212h-15.92a14.38 14.38 0 0 0-11.83-6c-9.19 0-16.21 6.7-16.21 15.85 0 8.59 6.78 16.44 15.9 16.44 6.07 0 11-3 13.31-7.93H345.5v-11.72ZM412.39 223.27h4.41c5.7 0 10-2.57 10-9 0-6.19-4.24-8.31-9.1-8.31h-5.33v17.34Zm0 16.59h3.54v12h-23.74v-12h5.74v-34.54h-5.74v-12.18h26.54a30.4 30.4 0 0 1 9.8 1.35 19 19 0 0 1 13 18c.22 7.83-2.7 16.35-12.49 18.7l7.39 8.75h5.92v11.92h-15.3l-14.66-21.26ZM307.7 300.16h4.3v8.27h-18.41v-8.27h4.38V275.4h-4.85v-7.47h14.58zM328.71 295.94a4.9 4.9 0 0 0 5.07 4.95 5 5 0 0 0 5-5.21 5.07 5.07 0 0 0-5-4.81 4.91 4.91 0 0 0-5 5.07Zm4.79-20.49a3.86 3.86 0 0 0-3.9 4 4 4 0 0 0 4 3.86 3.86 3.86 0 0 0 4-4 4 4 0 0 0-4.08-3.8Zm-7.82 11.21a8.72 8.72 0 0 1-4.8-8.19c.11-6.82 6.13-11.36 12.84-11.36s12.82 4.76 12.82 11.25a8.64 8.64 0 0 1-4.71 8.3c4.16 2.06 6.45 5.35 6.49 9.87.06 8-6.78 12.59-14.52 12.59s-14.86-4.37-14.79-12.57a10.73 10.73 0 0 1 6.67-9.89M363.28 295.94a5 5 0 1 0 10-.26 5.07 5.07 0 0 0-5-4.81 4.91 4.91 0 0 0-5 5.07m4.79-20.49a3.86 3.86 0 0 0-3.89 4 4 4 0 0 0 4 3.86 3.85 3.85 0 0 0 4-4 4 4 0 0 0-4.08-3.8Zm-7.82 11.21a8.7 8.7 0 0 1-4.79-8.19c.11-6.82 6.13-11.36 12.84-11.36s12.81 4.76 12.81 11.25a8.64 8.64 0 0 1-4.71 8.3c4.16 2.06 6.46 5.35 6.49 9.87.07 8-6.77 12.59-14.52 12.59s-14.85-4.37-14.79-12.57a10.74 10.74 0 0 1 6.67-9.89M408.86 282.7a6 6 0 0 0-11.91.06 5.7 5.7 0 0 0 5.76 5.83 5.93 5.93 0 0 0 6.15-5.89m-3.55 25.73h-12l9.28-11.75a8.2 8.2 0 0 1-2.41.31c-7.59 0-12.86-6.55-12.92-13.83a15.53 15.53 0 0 1 2-8.06 16 16 0 0 1 13.51-7.94c8.59 0 15.48 6.59 15.74 16.09.15 5.37-3.24 10-5.61 13.59ZM310.32 46.19l2.91-.35c3.75-.44 6.39-2.47 5.89-6.71-.48-4.08-3.44-5.14-6.64-4.77l-3.51.42zm1.29 10.91 2.33-.27.94 7.92-15.62 1.84-.94-7.91 3.78-.45-2.69-22.73-3.77.45-.95-8 17.46-2.06a20.3 20.3 0 0 1 6.56.12 12.57 12.57 0 0 1 9.94 10.86c.76 5.13-.5 11-6.76 13.28l5.54 5.18 3.9-.46.93 7.84-10.06 1.17L310.89 51ZM120.78 147.23l1.94-2.18c2.51-2.82 3.15-6.09 0-8.93s-6-1.57-8.12.83l-2.35 2.64 8.58 7.64Zm8.21 7.32 1.56-1.76 5.95 5.31-10.5 11.74-6-5.3 2.52-2.84-17.09-15.22-2.43 2.84-6-5.32 11.7-13.13a20.1 20.1 0 0 1 5-4.26 12.58 12.58 0 0 1 14.64 1.53c4 3.34 6.91 8.54 3.75 14.42l7.59.2 2.61-2.93 5.9 5.25-6.74 7.56-17-2.13ZM492.31 78.14l2.58 1.37c3.34 1.77 6.66 1.6 8.67-2.18 1.92-3.62.1-6.18-2.75-7.69L497.69 68l-5.38 10.15Zm-5.15 9.71 2.07 1.1-3.74 7-13.89-7.33 3.73-7 3.36 1.78 10.73-20.22-3.36-1.78 3.78-7.13 15.53 8.24a20.2 20.2 0 0 1 5.32 3.84 12.55 12.55 0 0 1 2 14.58c-2.3 4.65-6.66 8.73-13.12 7.07l1.61 7.41 3.47 1.84-3.7 7-8.95-4.8-2-17ZM608.2 183.23l1.56 2.47c2 3.19 5 4.69 8.61 2.4s3.14-5.33 1.42-8l-1.9-3-9.69 6.16Zm-9.28 5.9 1.25 2-6.73 4.27-8.44-13.3 6.73-4.27 2 3.21 19.32-12.27-2-3.21 6.81-4.32 9.43 14.84a20.4 20.4 0 0 1 2.73 6 12.56 12.56 0 0 1-5.48 13.66c-4.3 2.91-10.1 4.3-14.9-.34l-2.26 7.25 2.1 3.31-6.67 4.23-5.43-8.55 6.7-15.76ZM289.47 46.32l5.64 21.24-7.47 2-1.08-4.08a13.9 13.9 0 0 1-3.85 5 17.7 17.7 0 0 1-6.27 2.87A20.36 20.36 0 0 1 266 34c3.66-1 8.15-1 11.53 1l-.83-3.13 7.56-2 3.32 12.48L277.3 45a9.62 9.62 0 0 0-8.63-1.81 10.41 10.41 0 0 0-7.71 13A10.81 10.81 0 0 0 274 64a9.46 9.46 0 0 0 7.21-7.37l-10.86 2.88-2-7.55ZM86.09 218.46l1.62-3.24 7.09 3.53-7.64 15.32-7.09-3.53 1.7-3.41-20.6-10.28-1.7 3.41-7.3-3.65 13.38-26.81 11.46 5.72-4.25 8.52-3.76-1.88-3.11 6.22 6.59 3.29 4.05-8.11 6.64 3.31-4.05 8.11zM138.31 582.42l2.67 2.45-5.35 5.84L123 579.15l5.35-5.84 2.81 2.57 15.55-16.98-2.82-2.57 5.51-6.03 22.11 20.23-8.65 9.46-7.02-6.43 2.84-3.1-5.13-4.7-4.98 5.44 6.69 6.12-5 5.47-6.69-6.12zM155.17 127.56l5.08-4.42-2.75-3.1 7.13-6.22 8.37 9.6-22.35 19.49-5.21-5.97 2.88-2.51-15.13-17.35-2.88 2.51-5.36-6.15 22.33-19.48 8.5 9.74-7.26 6.33-2.77-3.17-4.9 4.28 4.55 5.21 6.66-5.81 4.88 5.59-6.67 5.81zM349.35 54.02l6.73-.04-.06-4.15 9.45-.07.1 12.74-29.65.22-.06-7.92 3.81-.03-.17-23.02-3.81.02-.06-8.16 29.63-.22.1 12.93-9.64.07-.03-4.2-6.5.04.05 6.92 8.84-.07.05 7.42-8.84.07zM383.14 55.68l6.69.77.44-4.12 9.39 1.07-1.44 12.65-29.46-3.36.9-7.88 3.78.44 2.62-22.87-3.79-.44.93-8.11 29.44 3.37-1.47 12.84-9.57-1.09.48-4.18-6.46-.74-.79 6.87 8.79 1.01-.85 7.37-8.78-1.01zM579.46 161.52l4.24 5.24 3.2-2.63 5.95 7.35-9.9 8.01-18.65-23.06 6.16-4.98 2.39 2.96 17.9-14.47-2.4-2.97 6.35-5.13 18.64 23.04-10.05 8.13-6.06-7.49 3.27-2.65-4.1-5.06-5.37 4.35 5.56 6.88-5.77 4.67-5.56-6.88zM364.59 642.43l3.62-.16-.34-7.91-17.1.73.34 7.92 3.81-.17.98 22.89-3.81.16.34 8.05 29.94-1.28-.54-12.69-9.51.4.18 4.21-6.95.29zM397.33 639.35l3.59-.57-1.24-7.82-16.91 2.67 1.24 7.83 3.76-.6 3.59 22.63-3.77.59 1.26 7.96 29.6-4.69-1.99-12.55-9.4 1.49.66 4.15-6.87 1.09zM497.08 604.9l3.15-1.8-3.96-6.87-14.83 8.54 3.95 6.87 3.3-1.9 11.44 19.85-3.31 1.9 4.02 6.98 25.97-14.96-6.34-11-8.25 4.75 2.1 3.64-6.02 3.47zM213.6 88.33l3.18-1.73 3.78 6.96-15.04 8.17-3.78-6.96 3.35-1.82-10.83-19.93-3.54 1.92 2.42 4.41-6.51 3.54L180.17 71l28.59-15.53 6.49 11.94-6.5 3.53-2.38-4.38-3.55 1.93zM254.99 650.55l3.44 1.16-2.54 7.5-16.21-5.47 2.53-7.51 3.61 1.22 7.26-21.49-3.81-1.29-1.6 4.78-7.02-2.38 4.33-12.82 30.83 10.41-4.35 12.89-7.01-2.37 1.6-4.72-3.83-1.3zM79.19 167a20.37 20.37 0 1 1 6.13 28.15A20.36 20.36 0 0 1 79.19 167m8.19 5.27a10.63 10.63 0 1 0 14.69-3.2 10.62 10.62 0 0 0-14.69 3.21ZM189.46 582.76a20.37 20.37 0 1 1-28.38 5 20.37 20.37 0 0 1 28.38-5m-5.6 8a10.63 10.63 0 1 0 2.59 14.81 10.64 10.64 0 0 0-2.59-14.85ZM225.51 604.15a20.37 20.37 0 1 1-27.13 9.68 20.37 20.37 0 0 1 27.13-9.68m-4.17 8.8a10.63 10.63 0 1 0 5 14.16 10.63 10.63 0 0 0-5-14.11ZM543.13 85.06a20.37 20.37 0 1 1-28.42 4.72 20.36 20.36 0 0 1 28.42-4.72M537.46 93a10.63 10.63 0 1 0 2.47 14.83A10.62 10.62 0 0 0 537.46 93M461.29 612.48a15.2 15.2 0 0 1 11.31.12l-1.34-3.24 7.33-3 5.46 13.24-8.53 3.53a10.46 10.46 0 0 0-16.24 12.23 11 11 0 0 0 13.6 5.89 9.56 9.56 0 0 0 6.33-8.56l9.72-4c1.2 7.54-3.16 17.72-12.31 21.5-9.57 4-22.09-.69-26.39-11.08a20.37 20.37 0 0 1 11.06-26.63M180.5 115.76l1.11 1.59-6.09 4.25-7.18-10.29 7.17-5c1.54 2.22 3.8 3.28 6.55 1.71a3.61 3.61 0 0 0 1.19-5.21 3.84 3.84 0 0 0-3.32-1.52c-2.17.13-4.59 1.18-6.7 1.59-3.41.66-5.85.71-7.94.13a11.2 11.2 0 0 1-5.83-4.09 11.94 11.94 0 0 1 3.11-16.83 8.86 8.86 0 0 1 6.54-1.57l-.89-1.27 5.94-4.15 6.44 9.22-7 4.88c-1.46-1.5-3.27-2.53-5.68-.84a3.43 3.43 0 0 0-.87 4.62 3.56 3.56 0 0 0 3.49 1.51c2.78-.36 5.53-1.65 8.3-2.12a13.06 13.06 0 0 1 7 .41 10.4 10.4 0 0 1 4.8 4c4.17 6 2.66 13.3-3.32 17.45a9.15 9.15 0 0 1-6.82 1.53M609 218.85l-1.75.84-3.2-6.69 11.31-5.44 3.79 7.89c-2.44 1.16-3.85 3.22-2.74 6.19a3.6 3.6 0 0 0 5 2 3.82 3.82 0 0 0 2-3c.22-2.16-.42-4.72-.48-6.87-.11-3.47.23-5.89 1.15-7.86a11.2 11.2 0 0 1 5-5.1 12 12 0 0 1 16.11 5.78 8.88 8.88 0 0 1 .49 6.72l1.4-.68 3.14 6.53L640 224l-3.69-7.68c1.72-1.2 3-2.82 1.75-5.47a3.44 3.44 0 0 0-4.42-1.61 3.59 3.59 0 0 0-2.06 3.21c-.08 2.8.75 5.72.76 8.53a13 13 0 0 1-1.54 6.88 10.4 10.4 0 0 1-4.71 4.09c-6.58 3.16-13.56.49-16.68-6.08a9.16 9.16 0 0 1-.41-7.02M416.17 61.7l3.58.89-1.93 7.79-16.51-4.1 1.94-7.79 3.65.91 5.53-22.28-3.65-.9 1.92-7.74 12 2.97 9.54 25.07 3.39-13.64-3.71-.92 1.93-7.74 16.55 4.11-1.92 7.75-3.72-.93-7.46 30.07-8.35-2.07-9.56-24.44zM553.36 145.62l-7.64-7.33 14.59-28.86-2.72-2.61 5.5-5.73 12.07 11.58-5.49 5.73-2.14-2.05-8.75 16.53 16.62-8.98-2.26-2.17 5.5-5.73 11.71 11.23-5.49 5.73-2.68-2.56zM284.19 657.88l3.08.65c2.81.59 5.49.49 6.21-2.94.67-3.19-2-4.23-4.8-4.83l-2.86-.61zm3.21-15.22 2.65.56c2.16.45 5.28.91 6-2.25.6-2.55-1.29-3.87-3.76-4.39l-3.47-.73-1.43 6.81Zm-17.87 20.63 1.65-7.82 3.71.78 4.73-22.45-3.71-.78 1.66-7.88 18.16 3.86c5.85 1.23 10.76 5 9.29 11.93-.69 3.28-2.68 6.32-6.85 7.14a9.47 9.47 0 0 1 4.54 10.31c-2.23 9.66-9.41 9.95-15.95 8.57ZM570.72 578.45l2.27-2.19c2.07-2 3.49-4.26 1.06-6.79-2.26-2.34-4.6-.76-6.69 1.25l-2.12 2 5.48 5.69Zm-10.79-11.22-4.82-5 2.55-2.45c1.82-1.75 4-2.57 5.75-.64 2.2 2.38.07 4.7-1.53 6.23l-2 1.88Zm7 26.38-5.54-5.76 2.73-2.63-15.9-16.54-2.74 2.63-5.58-5.8 13.38-12.86c4.31-4.15 10.16-6.11 15.09-1 2.33 2.42 3.72 5.77 2.05 9.68a9.47 9.47 0 0 1 11.08 2c6.73 7.27 2.94 13.37-1.88 18ZM330.45 654.94l-2.27-10-4 9.49 6.3.51Zm-9.16 6.71-1.4 3.55 3.7.3-.55 6.85L306 671l.65-8.08 3.78.3 11.21-22.11-3.64-.31.64-7.92 14.76 1.19 10 31.79 3.79.3-.66 8.08-17.6-1.42.56-6.85 3.63.29-.92-3.74ZM532.36 581.67l-2.36 1.76-4.82-6.43 13-9.69 4.82 6.45-3 2.24 10.4 13.91q3.64 4.88 3.44 9.43c-.19 4-2.49 7.73-6.53 10.74-4.94 3.7-9.57 4.46-13.4 3-2.63-1-4.73-3-6.92-5.93l-10.32-13.75-3 2.26-4.83-6.45 12.94-9.68 4.82 6.47-2.3 1.71 10.05 13.44c1.93 2.57 4.6 4.09 7.69 1.75 2.54-1.92 2.56-4.85.37-7.78Z" class="cls-4"/></g></g></svg>