<?xml version="1.0" encoding="UTF-8" standalone="no"?>
<!-- Generator: Adobe Illustrator 14.0.0, SVG Export Plug-In . SVG Version: 6.00 Build 43363)  -->

<svg
   xmlns:dc="http://purl.org/dc/elements/1.1/"
   xmlns:cc="http://creativecommons.org/ns#"
   xmlns:rdf="http://www.w3.org/1999/02/22-rdf-syntax-ns#"
   xmlns:svg="http://www.w3.org/2000/svg"
   xmlns="http://www.w3.org/2000/svg"
   xmlns:xlink="http://www.w3.org/1999/xlink"
   xmlns:sodipodi="http://sodipodi.sourceforge.net/DTD/sodipodi-0.dtd"
   xmlns:inkscape="http://www.inkscape.org/namespaces/inkscape"
   version="1.1"
   id="svg2526"
   x="0px"
   y="0px"
   width="316"
   height="316"
   viewBox="0 0 361.75 361.75"
   enable-background="new 0 0 707.5 707.5"
   xml:space="preserve"
   inkscape:version="0.47 r22583"
   sodipodi:docname="Gateshead_FC_2.svg"><metadata
   id="metadata217"><rdf:RDF><cc:Work
       rdf:about=""><dc:format>image/svg+xml</dc:format><dc:type
         rdf:resource="http://purl.org/dc/dcmitype/StillImage" /><dc:title /></cc:Work></rdf:RDF></metadata><defs
   id="defs215"><inkscape:perspective
     sodipodi:type="inkscape:persp3d"
     inkscape:vp_x="0 : 361.75 : 1"
     inkscape:vp_y="0 : 1000 : 0"
     inkscape:vp_z="707.5 : 361.75 : 1"
     inkscape:persp3d-origin="361.75 : 261.83333 : 1"
     id="perspective219" /><inkscape:perspective
     id="perspective3026"
     inkscape:persp3d-origin="0.5 : 0.33333333 : 1"
     inkscape:vp_z="1 : 0.5 : 1"
     inkscape:vp_y="0 : 1000 : 0"
     inkscape:vp_x="0 : 0.5 : 1"
     sodipodi:type="inkscape:persp3d" /></defs><sodipodi:namedview
   pagecolor="#ffffff"
   bordercolor="#666666"
   borderopacity="1"
   objecttolerance="10"
   gridtolerance="10"
   guidetolerance="10"
   inkscape:pageopacity="0"
   inkscape:pageshadow="2"
   inkscape:window-width="1920"
   inkscape:window-height="1087"
   id="namedview213"
   showgrid="false"
   inkscape:zoom="2.0149342"
   inkscape:cx="243.89142"
   inkscape:cy="153.59303"
   inkscape:window-x="0"
   inkscape:window-y="0"
   inkscape:window-maximized="1"
   inkscape:current-layer="svg2526"
   inkscape:snap-object-midpoints="true" />
<path
   id="path2547-7"
   d="M 0,180.87531 C 0.0011934,80.977992 80.977671,0.0028683 180.87564,3.125e-4 280.77296,0.0023015 361.74808,80.979266 361.75,180.87531 361.748,280.77199 280.77296,361.74776 180.87564,361.75031 80.977671,361.74833 0.001278,280.77199 0,180.87531"
   style="fill:#ffffff" /><g
   id="g2535"
   transform="matrix(0.625,0,0,-0.625,-5.686875,444.3125)">
	<g
   id="g2537">
		<g
   id="g5">
			<defs
   id="defs7">
				<rect
   id="SVGID_1_"
   x="-74.408997"
   y="-105.237"
   width="744.09497"
   height="1052.363" />
			</defs>
			<clipPath
   id="SVGID_2_">
				<use
   xlink:href="#SVGID_1_"
   overflow="visible"
   id="use11"
   style="overflow:visible"
   x="0"
   y="0"
   width="707.5"
   height="707.5" />
			</clipPath>
			<g
   id="g2539"
   clip-path="url(#SVGID_2_)">
				<g
   id="g2545"
   transform="translate(15.499,421.5)">
					<path
   id="path2547"
   d="M 0,0 C 0.002,156.301 126.699,282.996 283.001,283 439.302,282.996 565.997,156.299 566,0 565.997,-156.3 439.302,-282.996 283.001,-283 126.699,-282.996 0.002,-156.3 0,0" />
				</g>
				<g
   id="g2549"
   transform="translate(25.7905,421.5)">
					<path
   id="path2551"
   d="m 0,0 c 0.002,-75.325 30.514,-143.468 79.874,-192.836 49.366,-49.358 117.511,-79.87 192.835,-79.873 75.323,0.003 143.468,30.516 192.836,79.873 49.358,49.368 79.87,117.511 79.874,192.836 -0.004,75.325 -30.516,143.469 -79.873,192.835 C 416.178,242.193 348.033,272.707 272.71,272.709 197.386,272.707 129.241,242.193 79.875,192.835 30.514,143.469 0.002,75.325 0,0"
   style="fill:#ffffff" />
				</g>
				<g
   id="g2553"
   transform="translate(118.819,421.501)">
					<path
   id="path2555"
   d="M 0,0 C 0,99.236 80.442,179.679 179.679,179.68 278.917,179.679 359.359,99.236 359.361,0 359.359,-99.238 278.917,-179.679 179.679,-179.681 80.442,-179.679 0,-99.238 0,0" />
				</g>
				<g
   id="g2557"
   transform="translate(123.963,421.501)">
					<path
   id="path2559"
   d="m 0,0 c 0.002,-48.207 19.531,-91.824 51.121,-123.416 31.592,-31.588 75.209,-51.12 123.414,-51.121 48.206,0.002 91.823,19.533 123.416,51.121 31.59,31.592 51.121,75.209 51.121,123.416 0,48.204 -19.531,91.824 -51.121,123.416 -31.593,31.587 -75.21,51.118 -123.416,51.118 -48.205,0 -91.822,-19.531 -123.414,-51.118 C 19.531,91.824 0.002,48.204 0,0"
   style="fill:#d3d3d3" />
				</g>
				<g
   id="g2561"
   transform="translate(70.8657,451.031)">
					<path
   id="path2563"
   d="m 0,0 18.07,-1.579 c 0.306,-1.81 0.693,-4.479 0.404,-7.785 -0.276,-3.152 -1.323,-8.018 -4.502,-11.614 -5.069,-5.678 -13.727,-5.463 -16.88,-5.187 -13.532,1.184 -18.155,10.344 -17.334,19.723 0.35,3.999 1.693,7.832 3.775,11.291 0.273,0.443 1.754,2.325 1.774,2.557 0.014,0.154 0.014,0.154 -0.113,0.474 l -0.718,1.535 c -0.19,0.483 -0.351,0.418 -0.734,0.453 l -4.942,0.199 c -0.929,0.004 -1.237,0.03 -1.618,-0.789 -0.181,-0.294 -2.656,-6.43 -3.307,-13.887 -1.561,-17.839 7.779,-31.516 23.542,-32.894 8.228,-0.722 24.799,1.859 26.906,25.923 0.598,6.843 0.183,13.622 -0.928,20.381 L 0.942,10.766 0,0 z" />
				</g>
				<g
   id="g2565"
   transform="translate(83.2725,488.866)">
					<path
   id="path2567"
   d="M 0,0 -15.076,13.109 4.674,13.573 0,0 z m -25.142,14.696 38.655,-38.042 3.065,8.902 -11.883,10.296 6.182,17.954 15.552,0.359 3.844,11.165 -52.827,-3.117 -2.588,-7.517 z" />
				</g>
				<g
   id="g2569"
   transform="translate(71.2788,537.519)">
					<path
   id="path2571"
   d="m 0,0 5.437,-3.532 10.424,16.053 35.603,-23.119 5.884,9.061 -35.601,23.12 10.466,16.118 -5.436,3.53 L 0,0 z" />
				</g>
				<g
   id="g2573"
   transform="translate(109.137,590.907)">
					<path
   id="path2575"
   d="M 0,0 33.993,-35.2 60.144,-9.947 55.64,-5.282 37.208,-23.083 25.947,-11.424 41.937,4.018 37.701,8.403 21.712,-7.039 11.9,3.122 29.722,20.332 25.54,24.664 0,0 z" />
				</g>
				<g
   id="g2577"
   transform="translate(174.902,641.001)">
					<path
   id="path2579"
   d="m 0,0 c -0.509,0.499 -0.677,0.758 -1.428,0.639 -0.816,-0.162 -5.824,-1.943 -10.29,-4.844 -9.516,-6.179 -13.713,-15.162 -8.795,-22.736 4.834,-7.444 12.943,-6.042 21.052,-4.643 7.058,1.18 10.255,1.784 12.399,-1.517 1.765,-2.72 1.716,-6.893 -3.786,-10.467 -1.361,-0.882 -4.639,-2.918 -11.238,-3.525 -0.452,-0.015 -2.85,-0.008 -2.977,-0.092 -0.13,-0.084 -0.283,-0.275 -0.329,-0.488 l -1.006,-1.852 c -0.287,-0.553 -0.243,-0.618 0.326,-1.351 l 3.483,-4.088 c 0.526,-0.67 0.717,-0.822 1.858,-0.452 3.565,1.029 9.229,3.787 12.529,5.93 9.839,6.39 12.658,16.502 8.119,23.492 -4.457,6.862 -11.147,5.83 -19.962,4.523 -8.75,-1.265 -11.237,-1.685 -13.383,1.617 -2.016,3.106 -0.837,6.817 3.628,9.718 3.109,2.017 6.541,2.683 8.663,2.957 0.451,0.015 2.59,-0.16 2.977,0.091 0.13,0.086 0.152,0.192 0.392,0.532 l 0.984,1.742 c 0.285,0.554 0.285,0.554 -0.282,1.29 L 0,0 z" />
				</g>
				<g
   id="g2581"
   transform="translate(211.794,638.585)">
					<path
   id="path2583"
   d="M 0,0 -6.433,18.681 -16.577,15.188 -0.646,-31.079 9.5,-27.587 2.035,-5.912 24.293,1.751 31.756,-19.923 41.901,-16.43 25.968,29.839 15.825,26.345 22.258,7.664 0,0 z" />
				</g>
				<g
   id="g2585"
   transform="translate(262.391,672.597)">
					<path
   id="path2587"
   d="m 0,0 4.265,-48.746 36.215,3.168 -0.564,6.458 -25.527,-2.234 -1.413,16.148 22.143,1.937 -0.533,6.074 -22.142,-1.937 -1.23,14.071 24.68,2.159 L 35.37,3.096 0,0 z" />
				</g>
				<g
   id="g2589"
   transform="translate(326.421,644.792)">
					<path
   id="path2591"
   d="M 0,0 10.293,17.123 14.178,-2.246 0,0 z m 10.107,27.311 -30.752,-44.671 9.302,-1.472 8.075,13.488 18.753,-2.971 3.055,-15.252 11.663,-1.847 -12.242,51.481 -7.854,1.244 z" />
				</g>
				<g
   id="g2593"
   transform="translate(391.567,651.523)">
					<path
   id="path2595"
   d="m 0,0 c 3.182,-1.398 5.593,-2.437 8.111,-3.61 13.921,-6.493 14.276,-14.495 9.448,-24.847 -7.076,-15.179 -16.282,-13.186 -25.796,-8.751 l -7.485,3.491 L 0,0 z m -28.021,-34.708 14.271,-6.654 c 3.636,-1.698 14.409,-6.72 22.432,-5.95 6.855,0.637 14.855,4.826 19.684,15.179 9.849,21.125 -9.665,30.226 -16.73,33.521 L 8.766,2.725 C 3.45,5.206 -3.005,7.618 -7.34,9.641 l -20.681,-44.349 z" />
				</g>
				<g
   id="g2597"
   transform="translate(253.386,214.939)">
					<path
   id="path2599"
   d="m 0,0 -5.103,-32.219 7.065,-1.12 2.261,14.28 14.229,-2.252 0.677,4.269 -14.23,2.252 1.489,9.402 16.873,-2.673 0.676,4.27 L 0,0 z" />
				</g>
				<g
   id="g2601"
   transform="translate(297.811,206.925)">
					<path
   id="path2603"
   d="M 0,0 C 6.173,-0.107 11.643,-5.143 11.494,-13.682 11.326,-23.355 4.54,-25.912 0.475,-25.843 -5.75,-25.734 -11.22,-20.696 -11.072,-12.26 -10.958,-5.728 -7.255,0.126 0,0 m 1.716,3.985 c -4.579,0.08 -9.22,-0.509 -13.811,-4.032 -3.807,-2.917 -6.398,-6.936 -6.501,-12.751 -0.134,-7.72 4.699,-16.859 17.869,-17.088 9.825,-0.173 19.493,5.216 19.696,16.897 0.123,7.098 -3.307,11.07 -5.437,12.855 C 9.17,3.599 2.949,3.963 1.716,3.985" />
				</g>
				<g
   id="g2605"
   transform="translate(340.98,211.254)">
					<path
   id="path2607"
   d="m 0,0 c 6.063,1.18 12.459,-2.609 14.089,-10.994 1.845,-9.497 -4.261,-13.408 -8.25,-14.185 -6.112,-1.189 -12.51,2.603 -14.12,10.884 C -9.527,-7.878 -7.12,-1.384 0,0 M 0.852,4.254 C -3.646,3.38 -8.063,1.839 -11.821,-2.56 c -3.116,-3.645 -4.813,-8.117 -3.705,-13.823 1.472,-7.577 8.098,-15.514 21.029,-13.003 9.647,1.878 17.981,9.159 15.754,20.622 C 19.9,-1.791 15.721,1.38 13.266,2.684 8.224,5.425 2.063,4.49 0.852,4.254" />
				</g>
				<g
   id="g2609"
   transform="translate(361.398,219.11)">
					<path
   id="path2611"
   d="m 0,0 1.618,-4.007 11.831,4.78 10.603,-26.24 6.68,2.698 L 20.13,3.473 32.009,8.271 30.391,12.279 0,0 z" />
				</g>
				<g
   id="g2613"
   transform="translate(410.195,222.845)">
					<path
   id="path2615"
   d="m 0,0 2.115,1.27 c 3.884,2.332 8.109,4.691 11.128,-0.336 1.22,-2.032 1.432,-4.182 -0.251,-6.273 -1.033,-1.282 -2.709,-2.289 -6.925,-4.762 L 0,0 z m -6.864,11.421 c 1.718,1.035 2.884,1.795 3.763,2.324 3.706,2.227 5.659,0.877 6.93,-1.239 C 6.399,8.229 3.095,6.24 0.136,4.465 l -2.073,-1.244 -4.927,8.2 z m 8.905,-28.504 10.894,6.545 c 3.969,2.385 6.32,5.362 7.001,7.03 0.686,1.553 1.664,5.02 -0.483,8.595 -0.767,1.276 -2.014,2.752 -4.044,3.631 -3.038,1.357 -5.623,0.464 -6.972,0.014 0.875,1.244 3.429,4.879 1.126,8.719 -1.088,1.809 -2.968,2.839 -4.759,3.025 -3.073,0.314 -6.116,-1.214 -9.291,-3.122 -2.867,-1.722 -7.409,-4.752 -10.276,-6.477 l 16.804,-27.96 z" />
				</g>
				<g
   id="g2617"
   transform="translate(442.276,241.879)">
					<path
   id="path2619"
   d="M 0,0 -4.115,12.666 7.332,6.15 0,0 z m -9.32,17.029 9.027,-35.01 4.808,4.034 -3.256,9.965 9.698,8.134 9.009,-5.132 6.03,5.059 -31.257,16.357 -4.059,-3.407 z" />
				</g>
				<g
   id="g2621"
   transform="translate(450.684,275.164)">
					<path
   id="path2623"
   d="M 0,0 24.242,-21.83 39.15,-5.274 35.94,-2.383 25.817,-13.623 4.786,5.313 0,0 z" />
				</g>
				<g
   id="g2625"
   transform="translate(467.853,295.645)">
					<path
   id="path2627"
   d="M 0,0 26.722,-18.712 39.5,-0.462 35.96,2.018 27.285,-10.373 4.103,5.856 0,0 z" />
				</g>
				<g
   id="g2629"
   transform="translate(501.522,356.98)">
					<path
   id="path2631"
   d="m 0,0 c -0.63,0.364 -0.849,0.234 -1.148,-0.093 -0.276,-0.274 -2.859,-3.504 -4.922,-8.61 -5.241,-12.977 0.252,-21.909 8.6,-25.282 6.727,-2.716 16.896,-1.998 22.137,10.979 1.852,4.58 2.47,9.269 2.51,10.195 0.05,0.536 -0.009,0.67 -0.541,0.995 l -2.832,1.646 c -0.391,0.269 -0.487,0.305 -0.658,0.152 -0.155,-0.102 -0.805,-0.616 -0.865,-0.759 -0.019,-0.048 0.204,-1.968 0.232,-2.315 0.132,-2.827 -0.508,-5.787 -1.317,-7.792 -2.41,-5.964 -8.697,-9.027 -17.094,-5.635 -4.246,1.717 -10.652,5.913 -7.162,14.547 1.252,3.103 3.354,5.97 4.995,7.693 0.173,0.154 1.168,0.973 1.263,1.213 0.077,0.191 -0.023,0.896 -0.044,1.127 -0.036,0.181 -0.064,0.246 -0.333,0.412 L 0,0 z" />
				</g>
				<g
   id="g2633"
   transform="translate(501.359,363.875)">
					<path
   id="path2635"
   d="M 0,0 31.652,-7.895 37.043,13.723 32.85,14.771 29.188,0.093 1.729,6.939 0,0 z" />
				</g>
				<g
   id="g2637"
   transform="translate(507.034,389.932)">
					<path
   id="path2639"
   d="m 0,0 19.686,-1.722 c 4.816,-0.422 7.813,-0.424 10.447,1.928 2.911,2.584 3.805,6.33 4.138,10.125 0.18,2.048 0.688,7.841 -2.691,12.32 -2.587,3.481 -6.251,4.111 -12.133,4.779 L 2.565,29.32 2.113,24.145 19.183,22.65 c 4.204,-0.369 6.613,-0.58 8.263,-2.377 1.653,-1.745 2.387,-4.598 2.109,-7.777 C 29.28,9.37 28.17,7.299 26.841,6.278 25.128,4.981 23.639,5.112 20.002,5.432 L 0.623,7.127 0,0 z" />
				</g>
				<g
   id="g2641"
   transform="translate(525.352,437.017)">
					<path
   id="path2643"
   d="m 0,0 -0.212,2.459 c -0.395,4.511 -0.664,9.343 5.178,9.854 2.359,0.207 4.387,-0.546 5.53,-2.977 0.698,-1.489 0.868,-3.436 1.243,-8.31 L 0,0 z m -13.276,-1.162 c -0.175,1.998 -0.349,3.378 -0.437,4.403 -0.377,4.306 1.692,5.468 4.15,5.684 4.973,0.435 5.309,-3.409 5.612,-6.843 l 0.211,-2.41 -9.536,-0.834 z M 16.248,-5.656 15.141,7.006 c -0.403,4.613 -2.046,8.032 -3.247,9.373 -1.095,1.299 -3.784,3.699 -7.936,3.336 -1.488,-0.131 -3.357,-0.603 -5.041,-2.043 -2.55,-2.134 -2.879,-4.85 -3.065,-6.259 -0.737,1.328 -2.886,5.222 -7.346,4.833 -2.1,-0.185 -3.852,-1.423 -4.804,-2.952 -1.628,-2.621 -1.591,-6.028 -1.265,-9.719 0.29,-3.332 1.021,-8.743 1.313,-12.075 l 32.498,2.844 z" />
				</g>
				<g
   id="g2645"
   transform="translate(545.815,530.761)">
					<path
   id="path2647"
   d="m 0,0 c -0.084,2.085 -0.729,14.774 -1.364,27.446 -0.315,6.321 -0.627,12.605 -0.857,17.472 -0.117,2.431 -0.213,4.51 -0.28,6.05 -0.032,0.772 -0.059,1.407 -0.074,1.871 -0.005,0.13 -0.01,0.245 -0.013,0.346 0.051,0.329 0.145,0.903 0.254,1.515 0.259,1.473 0.623,3.419 0.928,5.111 0.152,0.85 0.289,1.635 0.399,2.321 0.055,0.346 0.105,0.662 0.147,1 0.039,0.381 0.094,0.596 0.11,1.513 -0.007,0.67 -0.042,0.881 -0.067,1.162 -0.096,0.894 -0.24,1.792 -0.429,2.999 -0.281,1.756 -0.646,3.924 -0.936,5.718 -0.145,0.893 -0.271,1.697 -0.354,2.259 -0.028,0.205 -0.054,0.381 -0.07,0.499 -0.116,2.838 -1.51,5.212 -2.772,6.532 -2.406,2.478 -4.481,3.222 -6.505,4.026 -6.011,2.073 -12.502,2.65 -16.481,2.727 -2.005,-0.075 -2.384,-0.38 -2.881,-0.502 -0.798,-0.295 -1.039,-0.441 -1.358,-0.598 -1.054,-0.554 -2.074,-1.183 -3.69,-2.183 -11.672,-7.263 -48.779,-31.826 -84.567,-55.659 -32.338,-21.54 -63.354,-42.327 -73.174,-48.998 -1.58,-0.049 -3.332,-0.249 -5.484,-1.208 l -2.1,-0.969 -1.307,-1.91 c -2.167,-3.211 -5.814,-6.161 -10.213,-8.997 -3.739,-2.453 -7.905,-4.735 -11.885,-7.599 -1.203,-0.254 -2.298,-0.636 -3.287,-1.064 -3.076,-1.365 -5.379,-3.175 -7.543,-4.992 -3.19,-2.732 -6.029,-5.642 -8.334,-7.576 -0.758,-0.647 -1.452,-1.173 -1.99,-1.538 -0.787,0.19 -1.602,0.291 -2.331,0.28 -1.771,-0.032 -2.684,-0.436 -3.33,-0.69 -1.223,-0.56 -1.553,-0.893 -1.882,-1.127 -0.559,-0.452 -0.688,-0.612 -0.837,-0.758 -0.444,-0.469 -0.45,-0.503 -0.598,-0.669 -0.396,-0.471 -1.006,-1.207 -1.954,-2.203 -1.396,-1.47 -3.445,-3.35 -5.618,-4.727 -2.188,-1.402 -4.375,-2.194 -6.09,-2.235 l -3.084,-0.116 -2.273,-2.085 c -2.499,-2.285 -4.184,-4.175 -5.589,-5.742 -0.577,-0.642 -1.112,-1.238 -1.69,-1.851 -1.645,-0.02 -3.623,-0.398 -5.377,-1.341 -1.375,-0.72 -2.487,-1.702 -3.262,-2.584 -1.169,-1.345 -1.73,-2.421 -2.202,-3.254 -0.071,-0.128 -0.138,-0.251 -0.203,-0.371 -0.135,0.007 -0.273,0.013 -0.417,0.017 -2.206,-0.019 -3.862,-0.579 -5.283,-1.234 -2.115,-1.018 -3.775,-2.334 -5.261,-4.098 -0.612,-0.773 -1.241,-1.651 -1.762,-2.703 -1.259,-0.199 -2.863,-0.506 -4.957,-1.512 -1.085,-0.543 -2.364,-1.398 -3.482,-2.672 -0.429,3.708 -1.633,7.736 -4.111,11.775 -1.589,2.519 -3.786,5.013 -6.79,6.909 -2.75,1.754 -6.188,2.882 -9.835,3.033 -0.671,0.164 -1.856,0.412 -3.324,0.415 -6.568,-0.016 -12.201,-2.981 -16.112,-7.022 -3.907,-4.072 -6.499,-9.383 -6.549,-15.442 10e-4,-0.075 0,-0.144 0,-0.208 -0.319,-0.705 -0.687,-1.684 -0.844,-2.551 -0.276,-1.35 -0.341,-2.558 -0.345,-3.981 0.031,-3.568 1.044,-6.689 2.544,-9.726 1.015,-2.015 2.285,-3.978 3.809,-5.85 l 0,-3.814 c -0.068,-0.055 -0.137,-0.111 -0.207,-0.168 -1.159,-0.95 -2.688,-2.058 -3.906,-2.915 -0.617,-0.431 -1.153,-0.8 -1.584,-1.099 -0.221,-0.155 -0.404,-0.283 -0.633,-0.452 -0.125,-0.091 -0.242,-0.175 -0.507,-0.391 -0.141,-0.12 -0.304,-0.247 -0.675,-0.62 -0.191,-0.204 -0.435,-0.443 -0.858,-1.027 -0.21,-0.301 -0.475,-0.691 -0.792,-1.37 -0.06,-0.142 -0.127,-0.3 -0.196,-0.473 -0.405,-0.269 -0.975,-0.621 -1.646,-0.981 -2.083,-1.17 -5.031,-2.552 -8.005,-4.415 -1.491,-0.95 -3.023,-2.026 -4.527,-3.527 -0.153,-0.155 -0.307,-0.314 -0.46,-0.481 -0.25,-0.081 -0.515,-0.178 -0.795,-0.295 -0.218,-0.034 -0.441,-0.073 -0.67,-0.119 -1.996,-0.367 -4.94,-1.56 -6.976,-4.186 -0.518,-0.663 -0.94,-1.352 -1.282,-2.052 -3.236,-1.464 -6.173,-3.273 -8.777,-4.932 -1.894,-1.229 -3.521,-2.377 -4.724,-3.266 -0.604,-0.448 -1.095,-0.823 -1.497,-1.141 -0.207,-0.162 -0.379,-0.304 -0.605,-0.495 -0.081,-0.07 -0.162,-0.141 -0.284,-0.255 -0.428,-0.306 -1.333,-0.935 -2.349,-1.619 -4.205,-2.845 -11.363,-7.531 -13.643,-9.061 l -0.041,-0.027 -0.08,-0.057 c -9.157,-6.402 -16.838,-10.512 -27.813,-18.575 -6.775,-4.802 -12.511,-8.144 -17.584,-11.12 -3.803,-2.238 -7.261,-4.262 -10.509,-6.659 -4.853,-3.517 -9.293,-8.365 -11.775,-14.845 -2.516,-6.459 -3.383,-13.94 -3.4,-23.938 0.006,-0.654 0.038,-1.481 0.371,-2.636 -0.139,-0.664 -0.298,-1.41 -0.462,-2.166 -0.451,-2.09 -0.957,-4.409 -1.334,-6.346 l -0.812,-4.198 0.768,-0.823 c -0.025,-0.28 -0.053,-0.584 -0.083,-0.907 l -0.034,-0.375 0,-0.38 c 0.086,-4.013 1.926,-6.671 3.94,-8.652 l 3.645,-3.473 4.781,1.583 c 0.317,0.105 0.648,0.221 0.993,0.346 -1.01964,-8.45573 3.20977,-12.97267 10.967,-14.834 -2.419,-5.443 -3.773,-11.462 -3.773,-17.801 0,-24.249 19.655,-43.904 43.903,-43.904 7.286,0 14.151,1.785 20.199,4.926 2.80206,-5.83521 5.55555,-11.61634 16.879,-10.879 -0.434,-0.983 -0.768,-1.86 -1.058,-2.575 -0.078,-0.198 -0.149,-0.38 -0.213,-0.542 -1.062,-1.356 -1.689,-3.019 -1.771,-4.772 -0.112,-2.365 0.773,-4.654 2.446,-6.328 1.394,-1.498 3.882,-2.465 5.72,-2.465 0.075,0 0.15,0.002 0.222,0.005 0.402,-10e-4 0.792,0.029 1.165,0.081 1.025,0.088 4.681,0.385 9.403,0.793 7.955,0.691 19.281,1.727 28.759,2.855 4.75,0.57 9.009,1.152 12.347,1.774 1.692,0.323 3.106,0.624 4.571,1.089 0.756,0.258 1.5,0.496 2.666,1.171 0.588,0.365 1.326,0.82 2.264,1.868 0.889,0.987 2.16,2.985 2.168,5.72 0.019,2.062 -0.819,3.973 -1.668,5.094 -1.551,1.991 -2.751,2.455 -3.578,2.895 -0.577,0.259 -1.06,0.437 -1.497,0.573 0.104,5.067 2.234,11.546 4.843,18.58 2.615,7.342 5.784,15.237 5.859,24.245 -0.008,1.026 -0.106,1.603 -0.2,2.228 -0.362,2.177 -1.015,4.64 -1.85,7.795 -1.244,4.652 -2.871,10.424 -4.165,15.578 -0.646,2.57 -1.204,4.984 -1.581,6.938 -0.257,1.277 -0.414,2.409 -0.486,3.091 0.379,1.657 1.301,5.465 2.448,10.128 2.017,8.199 4.803,19.373 7.082,28.504 1.14,4.566 2.152,8.624 2.882,11.549 0.364,1.462 0.658,2.643 0.862,3.465 0.102,0.412 0.181,0.735 0.24,0.97 0.029,0.118 0.052,0.212 0.073,0.302 0.011,0.046 0.02,0.087 0.037,0.164 0.008,0.04 0.019,0.083 0.04,0.187 0.013,0.057 0.025,0.121 0.05,0.267 0.012,0.078 0.029,0.171 0.052,0.34 0.017,0.193 0.061,0.371 0.069,1.068 -0.019,1.282 -0.123,1.986 -0.242,3.109 -0.144,1.237 -0.331,2.657 -0.506,3.962 0.015,0.005 0.031,0.01 0.045,0.016 1.238,0.403 2.543,1.114 3.594,2.045 0.812,0.71 1.432,1.473 1.905,2.209 1.522,0.226 3.17,0.827 4.459,1.79 1.525,1.1 2.458,2.422 3.019,3.443 0.113,0.215 0.215,0.418 0.309,0.614 0.08,-0.001 0.16,-0.002 0.241,-0.002 2.081,-0.034 4.648,0.631 6.602,2.094 1.471,1.068 2.492,2.402 3.136,3.569 0.301,0.552 0.538,1.07 0.729,1.554 0.632,-0.08 1.128,-0.084 1.411,-0.083 0.291,0.002 0.412,0.005 0.415,0.004 2.214,0.084 2.788,0.518 3.339,0.695 0.93,0.423 1.113,0.595 1.35,0.738 0.678,0.471 0.678,0.51 0.884,0.668 0.537,0.451 1.204,1.041 2.169,1.883 1.414,1.239 3.325,2.899 5.198,4.458 0.315,0.263 0.632,0.524 0.945,0.78 0.434,-0.059 0.893,-0.095 1.378,-0.104 1.775,0.048 2.384,0.366 2.899,0.518 0.914,0.354 1.135,0.525 1.381,0.655 0.73,0.453 0.705,0.476 0.88,0.595 0.409,0.314 0.706,0.559 1.234,0.989 1.746,1.425 5.155,4.24 8.241,6.659 0.834,0.655 1.646,1.28 2.373,1.826 0.521,-0.091 1.066,-0.145 1.626,-0.137 1.686,-0.031 3.62,0.476 4.834,1.094 1.24,0.615 1.769,1.048 1.859,1.086 l 2.532,1.614 0.934,2.852 c -0.03,0.037 0.552,1.12 1.944,2.327 2.029,1.852 5.455,3.878 8.313,5.22 0.736,0.351 1.438,0.664 2.068,0.93 0.904,-0.288 1.913,-0.474 2.893,-0.455 2.094,0.052 3.015,0.54 3.738,0.827 1.27,0.605 1.792,1.041 2.367,1.462 1.792,1.409 3.284,2.948 4.783,4.47 0.726,0.745 1.393,1.445 1.924,2.007 0.018,0.019 0.036,0.039 0.055,0.058 5.666,2.806 11.682,6.43 17.445,10.069 0.649,-0.147 1.38,-0.244 2.201,-0.258 1.83,0.031 2.891,0.409 3.911,0.803 1.482,0.634 2.756,1.434 4.084,2.838 0.704,0.759 1.479,1.817 2.029,3.168 1.101,0.864 3.248,2.352 5.728,3.873 4.765,2.963 11.04,6.475 16.523,9.489 2.747,1.506 5.299,2.895 7.412,4.053 0.29,0.16 0.57,0.314 0.841,0.464 0.484,-0.075 0.984,-0.114 1.498,-0.109 1.386,0.029 1.888,0.224 2.318,0.327 0.77,0.231 0.983,0.354 1.204,0.448 0.677,0.325 0.673,0.354 0.844,0.444 0.419,0.25 0.738,0.458 1.301,0.818 3.639,2.345 14.357,9.434 20.781,13.991 2.272,1.158 5.035,2.749 8.173,4.601 5.125,3.031 11.082,6.7 15.867,9.586 2.033,1.227 3.861,2.314 5.262,3.119 0.277,-0.019 0.528,-0.026 0.753,-0.03 1.003,-0.034 2.173,0.176 3.099,0.437 l 1.521,0.035 2.198,1.716 c 3.367,2.682 10.924,6.851 19.809,11.164 13.411,6.552 30.118,13.847 43.69,20.581 6.806,3.385 12.809,6.596 17.529,9.769 2.368,1.611 4.427,3.175 6.263,5.105 0.915,0.979 1.794,2.058 2.57,3.477 0.759,1.404 1.455,3.257 1.465,5.547 -0.002,0.3 0.075,3.633 0.148,6.967 0.077,3.41 0.154,6.971 0.156,8.715 C 0.011,-0.186 0.006,-0.186 0,0"
   style="fill:#ffffff"
   sodipodi:nodetypes="csssssssssssssscccccsccccccccccscscssssccccsccssssccccccccccsscccccsssssssscccscsssccssssscccccccccscccccccccccssccscscssssccccsccccccscsscsssssssssssssssccssscscsscsssscccssssccsccccscsccssccccsccsscssssscsscscccccccssssc" />
				</g>
				<g
   id="g2649"
   transform="translate(148.107,201.019)">
					<path
   id="path2651"
   d="m 0,0 c -15.018,-17.38 -41.267,-19.315 -58.631,-4.319 -17.362,14.997 -19.264,41.242 -4.248,58.623 15.017,17.381 41.266,19.316 58.63,4.32 C 13.113,43.626 15.015,17.382 0,0" />
				</g>
				<g
   id="g2653"
   transform="translate(107.002,190.643)">
					<path
   id="path2655"
   d="m 0,0 c 3.084,-0.889 6.096,-1.158 8.599,-1.158 1.538,0 2.879,0.1 3.927,0.219 C 10.519,-0.585 7.624,0.035 5.171,0.988 4.123,0.705 3.518,0.442 0,0"
   style="fill:#ffffff" />
				</g>
				<g
   id="g2657"
   transform="translate(102.991,233.089)">
					<path
   id="path2659"
   d="m 0,0 c 1.764,-1.798 5.144,-4.671 5.813,-5.236 0.772,0.048 4.399,0.302 8.248,1.097 3.875,0.8 8.205,2.533 9.06,2.884 0.266,0.684 1.388,3.6 2.391,6.795 0.999,3.175 1.785,6.72 1.971,7.584 -0.447,0.466 -1.903,2 -3.676,3.912 -1.924,2.076 -6.306,5.757 -7.031,6.363 -0.119,0.002 -0.318,0.005 -0.584,0.005 -1.296,0 -4.162,-0.072 -6.9,-0.605 C 5.953,22.15 1.833,20.492 1.071,20.178 0.74,19.551 -0.806,16.603 -2.233,13.369 -3.652,10.162 -4.177,5.811 -4.268,4.947 -3.803,4.357 -1.736,1.762 0,0"
   style="fill:#ffffff" />
				</g>
				<g
   id="g2661"
   transform="translate(102.947,210.852)">
					<path
   id="path2663"
   d="m 0,0 c -1.217,0.097 -7.897,0.683 -13.347,2.287 -1.692,-2.061 -2.78,-5.059 -3.025,-5.78 0.474,-0.809 2.882,-4.881 6.517,-9.874 3.751,-2.684 6.587,-4.127 8.479,-4.897 1.638,-0.668 2.536,-0.828 2.753,-0.859 0.476,0.089 3.821,0.714 7.888,1.466 1.281,1.759 1.488,4.875 1.478,6.309 0,0.262 -0.005,0.465 -0.011,0.598 C 3.7,-5.43 0.594,-0.922 0,0"
   style="fill:#ffffff" />
				</g>
				<g
   id="g2665"
   transform="translate(97.5884,259.774)">
					<path
   id="path2667"
   d="M 0,0 C 0.613,0.68 1.341,1.323 3.864,4.072 0.919,2.798 -2.037,0.787 -3.805,-0.515 c 1.046,0.266 2.348,0.518 3.53,0.521 C -0.183,0.006 -0.091,0.004 0,0"
   style="fill:#ffffff" />
				</g>
				<g
   id="g2669"
   transform="translate(126.334,265.989)">
					<path
   id="path2671"
   d="m 0,0 c -3.825,0.89 -7.229,1.072 -9.385,1.072 -0.127,0 -0.25,-0.001 -0.368,-0.002 l 5.549,-1.86 C -3.74,-0.694 -1.766,-0.294 0,0"
   style="fill:#ffffff" />
				</g>
				<g
   id="g2673"
   transform="translate(85.019,229.062)">
					<path
   id="path2675"
   d="m 0,0 c 0,0.288 0.006,0.571 0.016,0.853 -2.075,2.224 -4.43,5.353 -5.745,8.514 -0.886,-3.233 -1.427,-6.458 -1.427,-10.044 0,-2.46 0.255,-5.091 0.833,-8.014 0.843,-4.255 2.12,-7.422 3.185,-9.522 0.8,-1.577 1.469,-2.539 1.752,-2.922 0.307,0.068 0.878,0.169 1.689,0.216 0.968,2.604 2.668,5.273 3.135,5.987 C 1.212,-10.15 0.002,-4.57 0,0"
   style="fill:#ffffff" />
				</g>
				<g
   id="g2677"
   transform="translate(97.2437,238.312)">
					<path
   id="path2679"
   d="m 0,0 c 0.843,5.954 2.228,9.877 5.46,15.464 -2.2,2.773 -4.439,4.316 -4.876,4.603 -0.095,0.008 -0.275,0.02 -0.543,0.02 -1.066,0 -3.424,-0.178 -6.577,-1.474 -3.638,-3.578 -8.185,-8.32 -10.727,-16.404 0.444,-1.884 1.957,-4.228 3.373,-6.076 1.097,-1.434 2.126,-2.577 2.557,-3.043 C -10.206,-6.207 -5.66,-3.376 0,0"
   style="fill:#ffffff" />
				</g>
				<g
   id="g2681"
   transform="translate(131.508,247.186)">
					<path
   id="path2683"
   d="m 0,0 c 4.778,-0.509 11.367,-1.886 12.966,-2.229 l 2.141,8.032 c -0.195,0.299 -0.755,1.115 -1.897,2.307 -1.462,1.529 -3.862,3.652 -7.573,5.988 -4.429,2.491 -7.386,3.563 -7.878,3.736 -1.318,-0.139 -5.023,-0.896 -6.385,-1.13 -1.222,-1.88 -1.699,-3.889 -2.142,-6.128 C -7.981,8.382 -4.133,4.75 0,0"
   style="fill:#ffffff" />
				</g>
				<g
   id="g2685"
   transform="translate(137.985,219.185)">
					<path
   id="path2687"
   d="m 0,0 c -0.919,-7.725 -3.048,-11.798 -5.319,-15.735 1.548,-1.865 3.293,-3.314 5.156,-4.983 2.204,0.32 4.073,0.88 4.431,0.993 0.19,0.148 0.958,0.753 2.103,1.959 1.332,1.402 3.161,3.598 5.134,6.77 2.259,3.637 3.586,6.902 4.349,9.257 0.584,1.809 0.833,3.066 0.917,3.552 L 10.555,6.362 C 9.61,5.377 5.934,1.848 0,0"
   style="fill:#ffffff" />
				</g>
				<g
   id="g2689"
   transform="translate(136.644,195.263)">
					<path
   id="path2691"
   d="M 0,0 C 1.421,0.805 2.489,1.525 3.208,2.048 L 1.266,1.768 C 0.771,1.361 -1.789,-0.677 -6.127,-2.876 -3.646,-1.923 -1.602,-0.909 0,0"
   style="fill:#ffffff" />
				</g>
				<g
   id="g2693"
   transform="translate(154.35,238.038)">
					<path
   id="path2695"
   d="m 0,0 c -1.082,4.476 -2.845,8.01 -4.336,10.423 -0.93,1.504 -1.746,2.564 -2.23,3.15 l -2.041,-7.67 c 0.267,-0.739 1.764,-4.916 2.52,-8.423 0.737,-3.417 0.869,-7.668 0.889,-8.631 l 5.983,-4.158 c 0.148,0.897 0.4,2.8 0.399,5.411 C 1.184,-7.218 0.917,-3.801 0,0"
   style="fill:#ffffff" />
				</g>
				<g
   id="g2697"
   transform="translate(132.742,224.034)">
					<path
   id="path2699"
   d="m 0,0 c -1.826,1.778 -5.47,5.3 -6.31,6.11 -1.148,-0.432 -6.322,-2.361 -9.187,-2.986 -2.816,-0.612 -7.09,-1.003 -8.113,-1.093 -0.306,-0.666 -1.357,-3.024 -2.862,-7.234 -1.54,-4.309 -1.93,-6.598 -2.012,-7.168 0.461,-0.625 2.627,-3.53 4.764,-5.638 2.188,-2.164 5.457,-4.646 6.033,-5.08 0.241,-0.018 0.883,-0.059 1.811,-0.059 1.555,0 3.894,0.121 6.375,0.672 3.983,0.885 7.438,2.547 8.049,2.851 0.35,0.593 2.273,3.876 3.624,7.447 1.321,3.49 1.625,7.08 1.676,7.827 C 3.458,-3.851 1.793,-1.74 0,0"
   style="fill:#ffffff" />
				</g>
				<g
   id="g2701"
   transform="translate(538.45,533.873)">
					<path
   id="path2703"
   d="m 0,0 -3.444,22.354 c 0.296,1.172 0.819,2.912 0.849,3.984 -0.02,0.331 -0.037,0.252 -0.042,0.316 -0.101,0.375 -1.012,3.086 -1.95,6.013 -0.463,1.444 -0.923,2.907 -1.262,4.061 -0.17,0.576 -0.31,1.078 -0.403,1.448 -0.048,0.185 -0.081,0.337 -0.102,0.441 -0.011,0.052 -0.016,0.092 -0.019,0.111 l -10e-4,-0.001 c -0.029,1.437 -0.855,6.997 -1.789,13.201 -0.939,6.21 -1.983,12.868 -2.4,15.723 -0.386,2.627 -1.65,5.628 -3.558,8.082 -1.899,2.431 -4.521,4.395 -7.699,4.41 -0.665,-0.013 -1.192,-0.196 -1.714,-0.338 -0.496,-0.149 -0.987,-0.258 -1.047,-0.243 -0.758,-0.052 -1.115,-0.287 -1.886,-0.632 C -31.755,76.334 -49.148,65.038 -67.732,52.702 -85.767,40.729 -104.809,27.832 -114.5,21.214 l -0.603,0.594 -0.825,-0.581 c -8.528,-6.013 -19.82,-15.909 -30.139,-21.022 -7.898,-3.94 -16.078,-10.745 -24.217,-16.904 -17.388,-8.181 -29.612,-19.341 -45.209,-29.351 -0.418,0.091 -0.845,0.131 -1.275,0.131 -2.195,-0.014 -4.565,-1.028 -6.116,-2.967 l -0.046,-0.059 -0.039,-0.065 c -3.25,-5.471 -10.151,-8.177 -16.376,-12.644 -0.392,0.06 -0.789,0.089 -1.183,0.089 -3.343,0.031 -7.011,-2.19 -7.459,-6.188 -4.012,-2.438 -5.997,-3.714 -9.848,-6.088 -0.241,0.041 -0.483,0.059 -0.723,0.059 -1.612,-0.017 -3.36,-0.74 -4.938,-1.925 -1.561,-1.188 -2.943,-2.893 -3.413,-5.034 -0.114,-0.61 -0.735,-1.256 -1.82,-1.834 -1.058,-0.572 -2.422,-1.017 -3.587,-1.424 -1.684,-0.605 -3.892,-1.315 -5.759,-2.222 -0.936,-0.458 -1.794,-0.96 -2.489,-1.596 -0.68,-0.623 -1.27,-1.474 -1.273,-2.55 0,-0.056 10e-4,-0.112 0.004,-0.169 -0.726,-0.757 -1.616,-1.005 -2.769,-1.131 -1.311,-0.145 -2.759,0.033 -4.182,-0.33 -2.621,-0.689 -3.532,-2.951 -4.044,-4.465 -0.269,-0.784 -0.5,-1.46 -0.712,-1.79 -0.254,-0.336 -0.181,-0.273 -0.412,-0.307 -0.054,-0.014 -0.489,0.086 -0.951,0.238 -0.483,0.139 -0.991,0.331 -1.663,0.343 -0.864,-0.066 -1.206,-0.377 -1.888,-0.759 -2.179,-1.372 -6.046,-4.55 -9.829,-7.418 -1.884,-1.428 -3.734,-2.772 -5.272,-3.736 -0.101,-0.066 -0.201,-0.129 -0.301,-0.191 0.293,0.722 0.523,1.481 0.728,2.233 0.565,2.221 0.77,4.423 0.773,5.609 -0.003,4.87 -1.348,9.95 -4.399,13.89 -3.04,3.946 -7.869,6.66 -14.391,6.643 -7.442,0.042 -12.184,-3.53 -14.721,-8.327 -2.564,-4.782 -3.192,-10.687 -3.198,-15.838 0.001,-1.96 0.11,-4.77 0.968,-7.384 0.748,-2.33 2.242,-4.639 4.871,-5.651 v -0.238 c -0.006,-6.613 0.278,-7.259 0.263,-7.65 0.024,-0.734 -0.57,-1.85 -1.79,-3.045 -1.798,-1.792 -4.731,-3.662 -7.43,-5.286 -2.132,-1.303 -4.059,-2.378 -5.368,-3.389 -0.197,0.09 -0.421,0.149 -0.655,0.14 -0.214,-0.004 -0.303,-0.047 -0.306,-0.037 l -0.243,-0.062 -0.202,-0.155 c -6.069,-4.681 -13.05,-9.373 -18.402,-15.147 h -3.678 c -0.021,0.001 -0.041,0.001 -0.058,0 h -0.004 c -1.145,0.016 -2.15,-0.429 -2.814,-1.075 -1.001,-0.966 -1.415,-2.141 -1.906,-3.063 -0.46,-0.894 -0.884,-1.484 -1.503,-1.783 -1.372,-0.217 -3.157,-0.725 -4.739,-1.546 -1.43,-0.766 -2.906,-1.83 -3.236,-3.571 -1.963,-1.222 -3.273,-1.751 -4.712,-2.482 -1.553,-0.788 -3.161,-1.812 -5.415,-4 -2.052,-1.987 -4.367,-2.375 -6.741,-2.984 -2.202,-0.506 -4.723,-1.599 -5.687,-4.71 -8.415,-5.714 -20.052,-9.707 -26.622,-17.387 -4.705,-2.617 -12.877,-7.981 -16.237,-10.091 l -0.056,-0.033 -0.05,-0.04 c -3.7,-2.924 -7.615,-4.566 -10.808,-6.812 -3.199,-2.207 -5.638,-5.378 -5.586,-10.639 0.005,-3.06 -0.784,-8.407 -1.581,-12.984 -0.398,-2.293 -0.795,-4.405 -1.095,-5.98 -0.15,-0.789 -0.275,-1.443 -0.362,-1.922 -0.09,-0.53 -0.14,-0.668 -0.158,-1.055 -0.015,-0.705 0.354,-1.273 0.493,-1.469 0.046,-0.067 0.071,-0.108 0.083,-0.129 -0.07,-0.663 -0.723,-4.303 -1.346,-7.75 -0.317,-1.759 -0.629,-3.494 -0.862,-4.839 -0.235,-1.403 -0.385,-2.167 -0.404,-2.664 0.013,-0.931 0.279,-2.31 0.978,-3.681 0.669,-1.32 1.982,-2.755 4.011,-2.761 0.337,0.018 0.304,0.046 0.391,0.059 0.639,0.191 3.511,1.311 7.761,2.982 6.324,2.487 15.419,6.108 22.945,9.106 3.763,1.498 7.132,2.843 9.565,3.809 1.218,0.486 2.2,0.875 2.881,1.144 0.322,0.128 0.576,0.228 0.755,0.299 0.06,-0.025 0.148,-0.064 0.275,-0.129 0.281,-0.135 0.782,-0.414 1.486,-0.416 0.859,0.045 1.375,0.375 2.166,0.777 2.238,1.232 5.755,3.708 8.846,5.077 0.089,0.044 0.257,0.084 0.528,0.084 0.589,0.01 1.492,-0.211 2.51,-0.223 0.509,0.003 1.088,0.062 1.663,0.347 3.521,1.795 5.586,3.41 7.728,4.734 0.711,-0.423 1.504,-0.602 2.274,-0.627 2.539,-0.01 3.815,1.786 4.706,2.93 1.004,1.216 1.591,1.967 3.416,2.01 0.263,-0.072 1.225,-0.83 2.63,-0.872 1.435,-0.006 2.52,0.311 3.258,1.016 1.054,1.107 1.014,2.225 1.299,2.597 0.221,0.316 0.321,0.685 2.416,0.748 0.081,0.012 0.723,-0.111 1.32,-0.26 0.637,-0.143 1.232,-0.31 1.875,-0.323 1.053,0.005 1.821,0.111 2.506,0.507 1.059,0.688 1.176,1.548 1.484,2.018 0.237,0.408 0.549,0.873 1.388,1.463 0.811,-0.676 1.815,-0.845 2.404,-0.794 0.187,0 0.356,0.003 0.501,0.003 1.751,-0.028 2.862,1.152 3.466,2.062 0.487,0.71 0.882,1.345 1.339,1.796 0.986,-0.475 2.015,-0.913 3.041,-0.953 1.231,0 2.462,0.454 3.439,1.275 v -27.036 l 2.796,-20.058 c -0.001,-1.727 -0.037,-4.495 -0.037,-6.436 0.033,-8.475 3.249,-12.261 3.199,-16.04 l -1.09,-14.273 v -0.054 c 0,-0.44 -0.033,-1.48 -0.033,-4.164 0,-1.348 0.007,-3.111 0.033,-5.441 v -0.052 l 1.961,-21.652 c 0.011,-2 -1.144,-4.615 -1.386,-7.468 -2.222,-0.498 -7.461,-1.306 -12.303,-2.504 -2.818,-0.7 -5.546,-1.538 -7.671,-2.61 -2.063,-1.065 -3.848,-2.404 -3.921,-4.632 0.091,-1.333 0.714,-2.099 0.624,-2.214 l 0.065,-1.025 1.021,-0.104 0.007,-0.008 c 0.133,-0.041 0.718,-0.332 1.487,-0.332 0.014,0 0.027,0 0.041,0.001 h 0.063 l 44.323,3.777 c 0.393,-0.005 1.093,-0.053 1.862,-0.055 0.99,0.007 2.128,0.066 3.204,0.546 1.085,0.437 2.078,1.664 2.028,3.189 l 0.003,0.006 c 0.022,0.177 0.09,0.6 0.153,0.984 0.064,0.425 0.123,0.674 0.135,1.045 -0.012,0.621 -0.168,1.328 -0.313,2.114 -0.147,0.74 -0.28,1.555 -0.268,1.661 -0.014,6.232 2.613,13.809 5.305,21.395 2.681,7.603 5.432,15.212 5.447,21.902 -0.027,4.022 -2.162,10.839 -4.263,18.088 -2.088,7.127 -4.139,14.606 -4.164,19.262 0.213,0.839 1.725,6.642 3.201,12.9 1.588,6.779 3.172,14.05 3.19,17.2 v 3.704 c 0.054,4.368 1.516,5.392 3.507,7.888 2.013,2.433 4.086,5.984 4.048,13.795 -0.006,0.545 -0.22,2.943 -0.439,5.484 -0.217,2.47 -0.437,5.087 -0.431,5.269 -0.004,0.002 0.006,0.074 0.073,0.252 0.114,0.337 0.359,0.822 0.625,1.348 0.363,-0.108 0.733,-0.162 1.096,-0.159 1.965,0.034 3.393,1.341 4.421,2.694 0.648,0.883 1.154,1.81 1.476,2.697 0.673,-0.241 1.431,-0.462 2.141,-0.486 1.738,-0.013 3.091,0.51 3.962,1.4 1.291,1.339 1.468,2.98 1.838,3.993 0.171,0.521 0.356,0.857 0.525,1.01 0.13,0.112 0.258,0.21 0.583,0.254 0.057,-0.073 0.119,-0.144 0.187,-0.208 l 0.349,-0.337 h 5.501 l 0.36,0.398 c 1.481,1.641 2.308,3.342 3.171,4.66 0.724,1.095 1.399,1.918 2.484,2.509 0.349,-0.306 0.866,-0.604 1.552,-0.599 h 0.008 3.99 l 0.352,0.334 c 0.384,0.379 0.909,1.044 1.711,1.995 1.173,1.401 2.805,3.291 4.434,4.795 1.598,1.527 3.327,2.533 4.006,2.462 0.054,0.013 0.489,-0.086 0.951,-0.237 0.484,-0.141 0.99,-0.334 1.665,-0.346 0.832,0.052 1.207,0.379 1.763,0.734 1.798,1.28 4.549,4.098 7.427,6.637 1.428,1.263 2.87,2.445 4.146,3.279 1.265,0.848 2.402,1.287 2.934,1.264 0.063,0.013 0.553,-0.094 1.049,-0.243 0.522,-0.143 1.046,-0.325 1.712,-0.338 0.146,0 0.339,-0.004 0.556,-0.004 0.371,0.002 0.799,0.009 1.263,0.102 0.446,0.097 1.039,0.266 1.489,0.902 1.919,2.916 6.716,6.671 11.094,9.543 2.191,1.448 4.283,2.699 5.873,3.58 0.793,0.441 1.463,0.789 1.941,1.019 0.241,0.114 0.432,0.199 0.553,0.245 0.002,0.001 0.005,0.002 0.008,0.002 0.168,-0.03 0.495,-0.114 0.839,-0.226 0.483,-0.14 0.99,-0.333 1.662,-0.346 2.485,-0.009 4.84,1.928 5.266,4.89 4.164,2.322 10.192,5.825 15.352,8.8 2.695,1.558 5.156,2.969 6.978,3.986 0.911,0.509 1.663,0.92 2.194,1.195 0.245,0.13 0.445,0.229 0.58,0.288 0.136,-0.034 0.352,-0.098 0.601,-0.197 0.404,-0.137 0.891,-0.353 1.578,-0.364 0.429,0.027 0.446,0.102 0.529,0.122 0.299,0.166 0.227,0.147 0.361,0.239 1.289,0.992 9.88,8.002 14.176,10.5 9.168,5.363 21.045,13.862 30.283,15.329 l 0.517,0.084 0.293,0.434 c 3.575,5.42 13.249,9.073 20.231,13.106 11.57,6.832 24.521,13.072 35.532,19.162 17.605,9.731 35.343,21.579 51.827,31.215 4.885,2.987 13.743,7.48 21.413,13.41 7.647,5.928 14.315,13.374 14.347,22.559 -0.007,0.309 0.123,1.198 0.126,2.137 C 0.146,-0.994 0.116,-0.503 0,0" />
				</g>
				<g
   id="g2705"
   transform="translate(452.993,561.527)">
					<path
   id="path2707"
   d="M 0,0 0.16,0.173 C 0.563,0.575 1.037,0.669 1.469,0.699 V 0.963 1.57 H 4.64 V -0.771 L 4.287,-0.935 C 3.688,-1.213 3.518,-1.085 3.083,-1.847 L 2.915,-2.176 H 0 V 0 z m 25.611,-27.804 c 0.258,0.38 0.743,0.64 1.259,0.63 0,-0.001 0.026,0.001 0.067,-0.002 h 2.409 v -2.186 l -0.161,-0.174 c -0.439,-0.456 -1.027,-0.739 -1.251,-0.972 l -0.176,-0.168 h -1.773 l -0.175,0.174 c -0.127,0.134 -0.298,0.235 -0.441,0.543 -0.12,0.301 -0.107,0.524 -0.112,0.894 -0.001,0.442 0.09,0.883 0.354,1.261 M -3.904,-2.076 -1.026,-2.663 -1.62,-5.075 h -1.834 v -0.787 c -0.063,-0.918 -0.732,-1.411 -0.87,-1.583 l 4.055,-25.943 c 0.267,-2.953 0.795,-5.94 0.896,-8.848 h 0.816 c 2.695,1.932 12.966,7.624 13.795,8.03 0.1,0.02 -0.088,0.023 0.306,0.079 0.863,0.075 1.382,-0.563 1.434,-0.634 l 0.201,-0.178 v -0.273 -1.092 l -0.285,-0.179 C 10.246,-40.602 4.902,-42.871 0.882,-46.698 V -62.223 L -0.85,-89.501 c -0.063,-0.594 -0.38,-0.698 -0.442,-0.823 -0.098,-0.122 -0.128,-0.147 -0.139,-0.343 0.003,-0.069 0.006,-0.118 0.009,-0.154 22.357,12.962 45.073,24.969 66.597,38.138 8.357,5.099 14.72,14.239 14.708,23.472 0.014,3.924 -3.472,18.934 -6.956,33.41 -3.49,14.555 -6.969,28.514 -6.991,31.242 0.018,0.287 -0.316,1.238 -0.682,2.105 -0.359,0.914 -0.745,1.704 -0.774,2.399 0.016,1.727 -0.842,3.611 -0.87,5.087 -0.045,1.003 -0.17,1.088 -0.6,1.342 -0.478,0.245 -1.456,0.397 -2.796,0.772 l -0.44,0.128 v 0.455 0.11 l -0.356,-0.465 -0.325,0.429 c -0.187,-0.362 -0.398,-0.613 -0.517,-0.762 -0.06,-0.073 -0.072,-0.087 -0.071,-0.089 l -0.442,-0.931 -0.59,0.827 C 52.663,43.255 43.42,37.419 38.21,34.355 c 0.025,-0.083 0.05,-0.193 0.071,-0.339 0.005,-0.189 -0.082,-0.42 -0.212,-0.563 l -0.321,-0.382 -0.435,0.243 c -0.077,0.045 -0.286,0.103 -0.455,0.1 -0.1,10e-4 -0.185,-0.019 -0.225,-0.035 -0.035,-0.313 -0.126,-0.32 -0.147,-0.373 -0.035,-0.039 -0.053,-0.054 -0.07,-0.068 -0.03,-0.027 -0.05,-0.042 -0.072,-0.059 -0.043,-0.031 -0.09,-0.062 -0.147,-0.099 -0.113,-0.075 -0.267,-0.171 -0.455,-0.287 -0.37,-0.23 -0.866,-0.534 -1.375,-0.846 -0.748,-0.456 -1.556,-0.955 -1.985,-1.232 0.034,-0.073 0.058,-0.159 0.061,-0.261 -0.072,-0.464 -0.178,-0.383 -0.189,-0.447 -0.03,-0.031 -0.052,-0.054 -0.089,-0.092 l -0.073,-0.072 -0.091,-0.046 c -1.021,-0.508 -2.516,-1.259 -3.928,-1.873 0.049,-0.101 0.103,-0.239 0.159,-0.429 l 0.084,-0.559 -0.551,-0.122 c -0.763,-0.167 -1.41,-0.368 -2.018,-0.488 0.005,-0.035 0.01,-0.075 0.016,-0.117 0.008,-0.216 -0.112,-0.495 -0.277,-0.648 l -0.088,-0.09 -0.114,-0.048 c -3.373,-1.385 -9.301,-6.206 -13.808,-8.525 0.018,-0.075 0.035,-0.167 0.05,-0.284 0.008,-0.217 -0.11,-0.484 -0.268,-0.635 L 11.145,15.563 10.991,15.517 C 7.977,14.685 6.525,12.103 3.228,11.225 3.215,10.924 3.161,10.546 2.84,10.165 L 2.692,10.011 2.482,9.984 C 1.564,9.889 1.073,9.383 -0.56,8.381 L -0.032,7.852 -0.98,7.551 C -1.43,7.415 -1.938,7.386 -2.423,7.367 -2.42,7.347 -2.417,7.325 -2.414,7.304 -2.407,7.087 -2.523,6.83 -2.673,6.683 L -2.838,6.51 -3.075,6.495 C -4.099,6.445 -4.93,5.862 -5.21,5.594 -5.239,4.877 -5.467,4.147 -6.013,3.387 c 0.569,-1.882 1.082,-4.423 1.097,-5.283 0,-0.093 -0.003,-0.183 -0.003,-0.271 0.003,-0.412 -0.011,-0.922 -0.192,-1.444 0.292,-0.025 0.591,-0.076 0.884,-0.152 l 0.207,1.084 0.116,0.603 z"
   style="fill:#ffffff" />
				</g>
				<g
   id="g2709"
   transform="translate(396.922,456.577)">
					<path
   id="path2711"
   d="m 0,0 -1.566,-18.163 51.223,28.959 1.739,22.077 0.002,10.498 0.722,12.759 C 35.513,45.847 16.334,35.487 0.002,24.776 L 0,0 z"
   style="fill:#ffffff" />
				</g>
				<g
   id="g2713"
   transform="translate(442.852,560.219)">
					<path
   id="path2715"
   d="M 0,0 C -0.127,1.5 -0.077,3.1 -0.566,4.229 -6.729,-2.156 -16.092,-7.489 -25.595,-13.265 l 0.368,-0.388 -0.641,-0.389 c -3.008,-1.832 -6.116,-4.081 -9.842,-6.142 0.023,-0.227 0.056,-0.526 0.059,-0.83 -0.004,-0.332 -0.029,-0.697 -0.245,-1.064 -0.209,-0.379 -0.698,-0.637 -1.182,-0.619 -0.261,0.002 -0.443,0.017 -0.641,0.086 -0.124,0.028 -0.32,0.169 -0.424,0.37 -1.409,-1.066 -3.075,-1.773 -4.099,-2.263 0.195,-0.414 0.354,-0.731 0.405,-1.128 l 0.015,-0.278 -0.198,-0.192 c -0.566,-0.536 -1.275,-1.224 -2.323,-1.242 -0.312,-0.005 -0.573,0.079 -0.778,0.184 -0.013,-0.124 -0.029,-0.255 -0.05,-0.388 -0.031,-0.53 -0.614,-1.312 -1.496,-1.25 -0.184,0.004 -0.357,0.012 -0.576,0.14 -0.154,0.082 -0.265,0.258 -0.316,0.415 -0.152,-0.037 -0.243,-0.107 -0.443,-0.18 -0.309,-1.177 -0.6,-1.743 -0.895,-2.109 -0.376,-0.437 -0.374,-0.338 -0.419,-0.509 -0.045,-0.147 -0.089,-0.516 -0.087,-1.22 -0.016,-0.529 0.514,-2.54 0.577,-3.504 4.273,2.149 8.758,5.57 12.678,7.249 6.536,4.998 24.157,16.541 29.47,19.404 0.814,0.412 1.175,0.655 1.708,0.702 0.182,0 0.309,0.004 0.422,0.004 0.028,0.008 0.06,0.01 0.093,0.01 0.286,0 0.729,-0.25 0.777,-0.366 l 0.198,-0.181 v -2.22 l -31.923,-20.776 -0.045,-0.021 c -0.934,-0.408 -8.034,-4.355 -11.374,-7.427 -1.132,-1 -1.761,-1.987 -1.714,-2.26 l 2.62,-27.371 c 0,-0.666 0,-1.083 0.056,-4.886 9.232,5.494 30.758,18.742 42.671,25.188 4.168,2.222 6.946,3.637 8.245,3.695 0.177,0 0.316,0.004 0.442,0.004 0.231,0.034 0.584,-0.057 0.822,-0.209 l 0.022,0.377 0.006,0.037 c 0.177,0.915 0.795,1.534 1.548,2.095 -5.23,10.116 -6.764,35.887 -6.789,37.043 0.02,1.004 0.52,1.706 1.155,2.237 C 1.664,-3.25 1.19,-2.938 0.848,-2.515 0.264,-1.792 0.093,-0.897 0,0"
   style="fill:#ffffff" />
				</g>
				<g
   id="g2717"
   transform="translate(456.42,561.888)">
					<path
   id="path2719"
   d="M 0,0 H -0.747 V -0.771 C -0.481,-0.548 -0.211,-0.415 0,-0.33 V 0 z"
   style="fill:#ffffff" />
				</g>
				<g
   id="g2721"
   transform="translate(454.734,561.027)">
					<path
   id="path2723"
   d="m 0,0 c -0.2,0.009 -0.397,-0.03 -0.529,-0.071 v -0.395 h 0.978 c 0.101,0.154 0.209,0.286 0.321,0.4 L 0.268,-0.013 C 0.188,-0.005 0.097,0 0,0"
   style="fill:#ffffff" />
				</g>
				<g
   id="g2725"
   transform="translate(449.979,557.661)">
					<path
   id="path2727"
   d="M 0,0 H 0.442 L 0.508,0.268 0.069,0.356 0,0 z"
   style="fill:#ffffff" />
				</g>
				<g
   id="g2729"
   transform="translate(479.863,533.142)">
					<path
   id="path2731"
   d="m 0,0 0,0 c -0.272,-0.013 -0.351,-0.098 -0.404,-0.68 0,-0.195 0.005,-0.326 0.012,-0.385 l -0.007,-0.011 h 0.002 c 0.001,-0.002 0.002,-0.003 0.003,-0.004 h 0.816 c 0.307,0.245 0.635,0.444 0.842,0.603 V 0 H 0.044 0.005 0 z"
   style="fill:#ffffff" />
				</g>
				<g
   id="g2733"
   transform="translate(358.588,506.229)">
					<path
   id="path2735"
   d="M 0,0 -0.345,0.425 C -0.359,0.442 -0.373,0.46 -0.387,0.479 -0.398,0.108 -0.434,-0.354 -0.805,-0.778 -1.103,-1.104 -1.564,-1.255 -2.068,-1.25 c -0.149,0 -0.246,-0.002 -0.323,-0.002 -0.081,0.002 -0.139,-0.003 -0.278,0.026 -0.393,-0.559 -0.934,-1.2 -1.648,-1.601 v -4.304 c 5.179,3.024 13.363,8.148 20.575,12.774 7.284,4.668 13.677,8.91 14.776,9.798 0.006,0.36 0.023,0.632 0.021,0.86 0,0.645 -0.099,1.145 -1.212,3.38 L 0,0 z"
   style="fill:#ffffff" />
				</g>
				<g
   id="g2737"
   transform="translate(389.037,516.418)">
					<path
   id="path2739"
   d="m 0,0 -33.464,-21.7 v -32.53 c 11.636,6.655 31.561,18.437 34.73,19.961 0.268,0.106 0.282,0.176 0.652,0.214 0.139,0 0.24,0.003 0.337,0.003 0.064,0.002 0.15,10e-4 0.243,-0.013 0.198,0.445 0.454,0.841 0.62,1.217 -1.266,1.804 -0.92,4.359 -1.08,5.564 L 0,0 z"
   style="fill:#ffffff" />
				</g>
				<g
   id="g2741"
   transform="translate(334.85,490.435)">
					<path
   id="path2743"
   d="m 0,0 -0.196,0.011 c -0.402,0.031 -0.552,0.355 -0.568,0.418 -0.033,0.094 -0.038,0.134 -0.046,0.165 -0.01,0.001 -0.022,0.001 -0.039,0.001 0,-0.008 -0.023,0 -0.106,-0.034 -0.084,-0.033 -0.202,-0.09 -0.34,-0.167 -0.271,-0.152 -0.612,-0.376 -0.975,-0.616 -0.601,-0.39 -1.24,-0.828 -1.879,-1.1 -0.039,-0.646 -0.247,-1.722 -1.317,-2.361 l -0.441,-0.256 -0.328,0.392 c -0.052,0.067 -0.146,0.157 -0.249,0.28 -0.865,-0.798 -1.16,-1.178 -1.147,-1.727 0,-0.048 0.004,-0.11 0.012,-0.182 l 0.078,-0.75 -0.75,0.087 c -0.006,0.001 -0.009,0.002 -0.013,0.002 -0.013,-0.008 -0.038,-0.022 -0.078,-0.046 -0.173,-0.106 -0.496,-0.214 -0.894,-0.203 -0.141,-0.006 -0.277,0.008 -0.409,0.038 -0.282,-1.827 -0.893,-3.753 -1.354,-5.423 8.507,5.028 15.893,11.505 24.892,15.207 0.189,0.732 0.584,1.069 0.526,1.388 0.013,0.445 -0.389,2.314 -0.743,3.805 L 0,0 z"
   style="fill:#ffffff" />
				</g>
				<g
   id="g2745"
   transform="translate(349.812,461.46)">
					<path
   id="path2747"
   d="m 0,0 -1.201,28.509 c -3.93,-3.523 -9.862,-6.059 -14.948,-8.988 -5.559,-3.195 -9.934,-6.73 -9.916,-12.104 0,-1.042 0.16,-2.166 0.518,-3.387 l 0.023,-0.088 -0.212,-21.838 c 8.005,4.328 17.05,11.075 25.773,14.013 0.125,0.517 0.411,0.987 0.791,1.374 -0.946,1.035 -0.573,2.118 -0.785,2.409 L 0,0 z"
   style="fill:#ffffff" />
				</g>
				<g
   id="g2749"
   transform="translate(317.471,478.265)">
					<path
   id="path2751"
   d="M 0,0 C 0.004,0.476 -0.053,0.83 -0.168,0.998 -0.225,1.083 -0.297,1.167 -0.446,1.237 -0.534,0.692 -0.737,0.111 -1.061,-0.362 l -0.198,-0.273 -0.333,0.022 c -0.391,0.05 -0.728,0.216 -1.073,0.46 -4.717,-3.027 -9.104,-6.035 -13.287,-8.887 0.088,-0.258 0.108,-0.486 0.122,-0.622 0.007,-0.077 0.009,-0.091 0.011,-0.091 l 0.252,-0.927 -0.945,0.172 -0.011,0.002 c -0.005,0.002 -0.029,0.002 -0.212,-0.099 -0.173,-0.096 -0.491,-0.246 -0.89,-0.241 -0.15,0 -0.308,0.018 -0.477,0.055 v -3.786 L 0.565,-2.952 C 0.05,-2.28 -0.022,-1.445 -0.012,-0.792 -0.012,-0.503 0,-0.237 0,0"
   style="fill:#ffffff" />
				</g>
				<g
   id="g2753"
   transform="translate(353.472,414.271)">
					<path
   id="path2755"
   d="m 0,0 35.562,19.974 2.189,43.927 C 33.197,60.763 24.731,57.332 17.125,53.123 8.867,48.585 1.848,43.142 1.909,36.8 L 0,0 z"
   style="fill:#ffffff" />
				</g>
				<g
   id="g2757"
   transform="translate(317.215,469.929)">
					<path
   id="path2759"
   d="m 0,0 c -4.133,-2.497 -11.453,-6.907 -15.283,-9.826 -1.366,-1.012 -2.301,-1.972 -2.343,-2.196 l -0.287,-28.781 c 6.109,3.512 13.157,7.723 19.227,11.294 -0.386,0.378 -0.68,0.867 -0.682,1.514 L 0,0 z"
   style="fill:#ffffff" />
				</g>
				<g
   id="g2761"
   transform="translate(293.266,459.663)">
					<path
   id="path2763"
   d="M 0,0 C -0.555,1.164 -0.625,2.639 -0.69,3.72 -2.223,2.911 -5.546,0.963 -6.015,0.638 -6.019,0.633 -6.023,0.63 -6.028,0.627 -6.036,0.618 -6.043,0.609 -6.05,0.601 -6.078,0.571 -6.1,0.545 -6.13,0.517 -6.186,0.458 -6.261,0.387 -6.354,0.299 -6.54,0.121 -6.801,-0.123 -7.113,-0.419 c -0.624,-0.594 -1.453,-1.393 -2.278,-2.248 -1.66,-1.647 -3.271,-3.797 -3.172,-4.296 -0.007,-0.336 0.089,-0.67 0.189,-1.068 C -8.67,-5.875 -3.256,-2.563 0,0"
   style="fill:#ffffff" />
				</g>
				<g
   id="g2765"
   transform="translate(281.58,446.763)">
					<path
   id="path2767"
   d="m 0,0 -1.354,-28.839 c 3.375,1.598 11.17,6.479 12.628,7.472 L 10.924,7.139 C 6.93,4.538 3.487,2.175 0,0"
   style="fill:#ffffff" />
				</g>
				<g
   id="g2769"
   transform="translate(323.416,424.917)">
					<path
   id="path2771"
   d="m 0,0 c -0.129,-1.566 -0.902,-3.583 -0.87,-4.036 -0.002,-0.409 0.095,-1.203 0.095,-2.865 0,-0.833 -0.022,-1.893 -0.097,-3.259 -0.321,-6.18 -1.113,-8.624 -1.625,-19.381 l 25.42,14.18 c 0.32,2.974 0.863,7.583 0.857,8.166 l 0.002,5.533 1.452,15.37 0.753,15.082 C 22.434,26.997 10.47,20.794 4.283,15.65 1.941,13.744 0.521,11.888 0.583,10.931 0.581,10.169 0.438,5.25 0,0"
   style="fill:#ffffff" />
				</g>
				<g
   id="g2773"
   transform="translate(269.743,444.253)">
					<path
   id="path2775"
   d="M 0,0 C 2.345,1.363 4.766,3.045 5.077,3.651 L 5.099,3.653 C 5.121,4.1 4.664,5.447 4.515,6.528 4.415,6.593 4.354,6.65 4.354,6.651 4.336,6.651 4.401,6.666 4.138,6.678 4.118,6.67 4.083,6.658 4.037,6.637 3.933,6.588 3.78,6.506 3.605,6.397 3.249,6.182 2.792,5.87 2.294,5.52 1.297,4.817 0.146,3.961 -0.763,3.359 -1.185,3.092 -1.503,2.874 -1.82,2.729 -2.031,0.921 -3.114,-0.578 -3.867,-2.173 -2.844,-1.627 -1.415,-0.838 0,0"
   style="fill:#ffffff" />
				</g>
				<g
   id="g2777"
   transform="translate(273.973,436.035)">
					<path
   id="path2779"
   d="M 0,0 C 0.107,1.13 0.149,2.056 0.149,2.821 0.147,4.466 -0.034,5.337 -0.185,6.01 -2.676,4.228 -5.215,2.672 -7.485,1.055 -8.49,-2.885 -8.066,-7.545 -8.67,-11.41 l -0.204,-15.593 c 3.377,1.938 5.698,2.995 8.602,4.993 -0.409,0.605 -0.609,1.247 -0.602,1.918 C -0.882,-1.931 -0.204,-2.139 0,0"
   style="fill:#ffffff" />
				</g>
				<g
   id="g2781"
   transform="translate(258.825,437.445)">
					<path
   id="path2783"
   d="M 0,0 C 0.516,0.395 0.86,0.815 0.908,0.91 0.904,1.34 0.502,2.556 0.039,3.393 -2.399,1.921 -4.917,-0.336 -4.856,-2.471 -4.853,-2.788 -4.844,-2.988 -4.822,-3.126 -3.825,-2.575 -1.342,-1.105 0,0"
   style="fill:#ffffff" />
				</g>
				<g
   id="g2785"
   transform="translate(297.839,411.374)">
					<path
   id="path2787"
   d="m 0,0 c 0.503,-2.847 0.7,-4.826 0.7,-6.264 0.018,-2.22 -0.524,-3.243 -1.067,-3.872 -0.522,-0.654 -0.749,-0.661 -0.787,-1.821 v -6.757 c -0.01,-0.809 -0.993,-7.542 -1.32,-12.093 5.877,3.307 12.104,7.092 18.035,10.677 1,7.348 2.419,20.948 2.412,21.537 v 6.03 c 0.007,0.842 1.417,11.055 1.41,11.946 v 0.041 3.454 C 16.175,20.437 11.532,18.792 7.568,16.364 3.16,13.649 -0.337,10.182 -0.354,3.721 -0.354,2.581 -0.242,1.346 0,0"
   style="fill:#ffffff" />
				</g>
				<g
   id="g2789"
   transform="translate(244.281,428.046)">
					<path
   id="path2791"
   d="m 0,0 c 0.635,0.245 1.272,0.433 1.807,0.674 0.948,0.45 1.42,0.805 1.44,1.751 C 3.263,2.771 2.97,3.755 2.659,4.622 1.59,3.363 0.742,2.033 0,0"
   style="fill:#ffffff" />
				</g>
				<g
   id="g2793"
   transform="translate(257.698,409.274)">
					<path
   id="path2795"
   d="M 0,-0.001 0.477,22.19 c -1.276,-0.833 -2.587,-1.542 -3.906,-2.416 -0.08,-2.94 -0.107,-4.714 -0.107,-5.784 -0.002,-0.97 0.026,-1.377 0.041,-1.488 0.053,-0.116 0.074,-0.287 0.066,-0.362 0,-0.15 -0.013,-0.366 -0.046,-0.858 -1.074,-13.922 -0.181,-13.887 -1.589,-18.976 1.869,0.973 3.812,2.203 5.673,3.223 -0.574,1.087 -0.611,2.385 -0.621,3.395 0,0.418 0.012,0.789 0.012,1.075"
   style="fill:#ffffff" />
				</g>
				<g
   id="g2797"
   transform="translate(236.697,425.123)">
					<path
   id="path2799"
   d="m 0,0 c -0.08,-0.017 -0.155,-0.03 -0.223,-0.042 -0.162,-0.883 -0.22,-1.674 -0.312,-2.579 0.559,0.314 1.026,0.545 1.46,0.806 C 0.491,-1.296 0.113,-0.695 0,0"
   style="fill:#ffffff" />
				</g>
				<g
   id="g2801"
   transform="translate(244.906,396.356)">
					<path
   id="path2803"
   d="M 0,0 C 0.069,0.228 0.216,0.473 0.402,0.583 0.601,0.728 0.81,0.835 1.113,0.99 V 26.204 C 0.787,25.478 0.439,24.611 0.147,23.76 -0.562,21.808 -1.128,19.679 -1.108,19.265 L -2.136,-0.664 C -1.368,-0.281 -0.657,-0.086 0,0"
   style="fill:#ffffff" />
				</g>
				<g
   id="g2805"
   transform="translate(291.139,419.522)">
					<path
   id="path2807"
   d="m 0,0 c -3.703,-2.52 -7.342,-4.491 -11.008,-6.751 v -3.53 l -2.624,-24.694 c -0.268,-6.945 -0.778,-11.2 -1.031,-15.291 2.789,1.575 5.692,2.78 7.929,4.144 2.52,1.551 4.09,3.162 4.095,5.675 v 4.286 c 0.006,3.889 2.733,24.497 2.901,25.9 l 0.005,-0.002 c 0,0.656 0,7.798 -0.027,10.262 H 0 z"
   style="fill:#ffffff" />
				</g>
				<g
   id="g2809"
   transform="translate(236.628,413.588)">
					<path
   id="path2811"
   d="m 0,0 c -0.026,0.469 -0.036,1.042 -0.044,1.628 -0.001,0.58 -0.018,1.208 -0.043,1.701 v -4.502 c -0.001,-0.034 -0.001,-0.07 -0.002,-0.106 0.058,0.161 0.121,0.319 0.186,0.473 -0.012,0.06 -0.02,0.119 -0.036,0.184 C 0.032,-0.441 0.014,-0.233 0,0"
   style="fill:#ffffff" />
				</g>
				<g
   id="g2813"
   transform="translate(235.082,393.572)">
					<path
   id="path2815"
   d="m 0,0 c -0.096,-1.002 -0.649,-1.361 -0.582,-1.749 0,-0.345 0.087,-0.616 0.256,-0.945 0.261,0.228 0.412,0.381 0.473,0.476 0.083,0.134 0.092,0.144 0.1,0.534 0,0.169 -0.006,0.386 -0.006,0.663 0.002,0.427 -0.097,1.534 -0.097,3.32 0,0.898 0.023,1.973 0.099,3.247 C 0.539,10.285 0.804,12.405 1.04,15.94 0.698,14.279 0.274,12.612 0.29,12.201 0.29,11.459 0.253,8.123 0,0"
   style="fill:#ffffff" />
				</g>
				<g
   id="g2817"
   transform="translate(262.395,380.162)">
					<path
   id="path2819"
   d="m 0,0 -1.317,-19.729 c 1.095,0.5 2.762,1.248 4.338,2.143 2.184,1.187 4.011,2.802 3.907,3.712 v 5.738 c 0.008,0.514 0.368,2.946 0.73,5.5 0.363,2.495 0.731,5.113 0.72,5.327 v 4.284 c 0.021,0.92 0.892,4.154 0.873,4.702 L 9.723,27.85 C 8.51,27.202 7.021,26.603 5.685,25.912 3.944,25.032 2.587,23.989 2.387,22.894 1.75,19.986 -0.004,4.984 0,0"
   style="fill:#ffffff" />
				</g>
				<g
   id="g2821"
   transform="translate(250.189,364.153)">
					<path
   id="path2823"
   d="m 0,0 -0.014,-0.059 c -0.792,-3.165 -1.438,-6.387 -1.438,-9.462 -0.005,-0.37 0.109,-0.796 0.22,-1.277 0.402,0.134 0.752,0.166 0.899,0.203 0.043,0.837 0.75,1.275 1.302,1.495 0.544,0.239 1.156,0.451 1.782,0.83 0.101,1.611 0.474,3.675 0.83,5.479 0.381,1.885 0.748,3.609 0.731,3.767 L 4.314,5.925 6.778,34.648 C 5.337,33.963 3.984,33.232 2.674,32.278 2.277,29.069 1.446,23.575 1.454,22.986 L 0,0 z"
   style="fill:#ffffff" />
				</g>
				<g
   id="g2825"
   transform="translate(242.054,381.326)">
					<path
   id="path2827"
   d="M 0,0 C -0.012,-0.549 -0.238,-1.316 -0.456,-2.151 -0.674,-2.95 -0.884,-3.816 -0.872,-3.994 v -4.721 c -0.006,-4.754 -2.044,-15.18 -2.033,-17.979 0,-0.771 -0.291,-6.291 -0.289,-6.975 0.007,-0.223 0.009,-0.392 0.025,-0.537 1.545,4.241 1.98,8.491 3.126,12.249 L 2.4,10.304 C 1.51,9.723 0.914,9.353 0.589,9.004 0.173,8.554 0.013,8.126 0,6.757 V 0 z"
   style="fill:#ffffff" />
				</g>
				<g
   id="g2829"
   transform="translate(176.205,383.332)">
					<path
   id="path2831"
   d="M 0,0 C 0.087,0.036 0.172,0.07 0.257,0.104 0.212,0.26 0.168,0.414 0.125,0.569 0.071,0.374 0.029,0.183 0,0"
   style="fill:#ffffff" />
				</g>
				<g
   id="g2833"
   transform="translate(232.556,366.366)">
					<path
   id="path2835"
   d="M 0,0 0.367,5.388 C 0.141,3.71 -0.092,1.939 -0.09,1.049 -0.093,0.886 -0.049,0.534 0,0"
   style="fill:#ffffff" />
				</g>
				<g
   id="g2837"
   transform="translate(231.065,344.492)">
					<path
   id="path2839"
   d="M 0,0 0.683,10.023 C 0.304,7.493 -0.061,5.227 -0.053,4.91 -0.053,4.396 -0.052,2.103 0,0"
   style="fill:#ffffff" />
				</g>
				<g
   id="g2841"
   transform="translate(169.714,380.88)">
					<path
   id="path2843"
   d="m 0,0 c -0.394,-0.25 -0.816,-0.598 -1.44,-0.781 -0.017,-0.588 -0.03,-1.155 -0.074,-1.71 0.915,0.498 1.698,0.772 2.315,1.405 C 0.379,-0.752 0.129,-0.358 0,0"
   style="fill:#ffffff" />
				</g>
				<g
   id="g2845"
   transform="translate(175.447,355.986)">
					<path
   id="path2847"
   d="M 0,0 -0.122,4.558 C -0.187,3.912 -0.227,3.294 -0.225,2.713 -0.229,2.184 -0.339,1.297 -0.339,0.401 c 0,-0.232 0.008,-0.463 0.026,-0.679 C -0.204,-0.189 -0.095,-0.091 0,0"
   style="fill:#ffffff" />
				</g>
				<g
   id="g2849"
   transform="translate(159.146,375.394)">
					<path
   id="path2851"
   d="M 0,0 C 0.437,-0.351 0.897,-0.761 0.966,-1.584 0.962,-1.891 0.924,-2.175 0.883,-2.436 c 0.435,0.219 0.909,0.399 1.351,0.643 0.985,0.496 1.615,1.008 1.588,1.662 C 3.829,0.307 3.668,1.02 3.428,1.74 2.342,1.129 1.275,0.567 0,0"
   style="fill:#ffffff" />
				</g>
				<g
   id="g2853"
   transform="translate(168.538,372.339)">
					<path
   id="path2855"
   d="m 0,0 c -0.289,-8.13 -0.878,-12.459 -0.872,-13.059 0.017,-0.192 0.013,-0.148 0.159,-0.346 0.145,-0.166 0.439,-0.571 0.422,-1.107 -0.016,-0.904 -0.597,-2.94 -0.581,-3.486 -0.002,-0.505 -0.106,-1.509 -0.104,-2.477 -0.002,-0.284 0.01,-0.565 0.032,-0.813 0.359,0.219 0.734,0.494 1.051,0.788 -0.168,0.486 -0.148,1.148 -0.158,2.606 0,0.525 0.002,1.157 0.004,1.951 0.287,7.208 0.578,9.583 0.869,11.906 L 0.531,1.172 C 0.196,0.666 -0.033,0.086 0,0"
   style="fill:#ffffff" />
				</g>
				<g
   id="g2857"
   transform="translate(150.155,366.58)">
					<path
   id="path2859"
   d="M 0,0 C 0.531,0.283 1.378,0.706 2.304,1.226 3.529,1.881 4.84,2.802 4.969,3.07 4.955,3.481 4.625,4.468 4.306,5.31 3.563,4.812 2.735,4.181 1.678,4.065 1.664,3.511 1.378,3.101 1.166,2.882 L 0.946,2.648 0.672,2.69 C -0.021,2.686 -0.582,2.478 -1.004,2.283 -1.002,2.233 -1.001,2.184 -1,2.132 -1.002,1.704 -1.083,1.204 -1.258,0.697 -0.928,0.506 -0.455,0.398 0,0"
   style="fill:#ffffff" />
				</g>
				<g
   id="g2861"
   transform="translate(159.531,359.898)">
					<path
   id="path2863"
   d="m 0,0 v -4.432 c 0,-0.359 0.016,-0.845 0.016,-1.387 -0.011,-1.273 -0.066,-2.859 -0.782,-4.116 0.101,-0.255 0.153,-0.584 0.135,-0.963 0,-0.564 -0.051,-1.437 -0.138,-2.966 0.75,0.239 1.745,0.62 2.207,1.017 0.232,0.188 0.259,0.31 0.257,0.327 L 2.165,9.027 C 0.383,6.297 -0.058,0.214 0,0"
   style="fill:#ffffff" />
				</g>
				<g
   id="g2865"
   transform="translate(139.49,359.478)">
					<path
   id="path2867"
   d="M 0,0 C 2.742,1.825 3.082,1.965 6.153,4.3 5.811,4.979 5.603,5.68 5.492,6.36 3.385,5.509 2.687,4.271 0.866,4.182 0.611,4.182 0.348,4.213 0.071,4.279 -0.093,3.583 -0.589,3.101 -0.973,2.662 -1.39,2.239 -1.685,1.833 -1.746,1.636 -1.719,1.588 -1.677,1.52 -1.625,1.445 -1.494,1.258 -1.299,1.016 -1.079,0.783 -0.729,0.396 -0.266,0.085 0,0"
   style="fill:#ffffff" />
				</g>
				<g
   id="g2869"
   transform="translate(149.045,356.299)">
					<path
   id="path2871"
   d="m 0,0 c 0,-1.104 0.047,-2.204 0.047,-3.225 0,-0.371 -0.006,-0.733 -0.023,-1.086 -0.034,-0.624 -0.046,-1.17 -0.046,-1.682 -0.003,-1.62 0.126,-2.92 0.128,-5.167 0,-0.92 -0.021,-1.993 -0.082,-3.287 -0.003,-0.509 -0.251,-0.846 -0.379,-1.063 -0.141,-0.231 -0.2,-0.347 -0.202,-0.541 v -0.038 c 1.54,0.956 3.007,1.707 4.503,2.481 -0.248,1.145 -0.478,2.322 -0.482,3.076 0,1.01 -0.002,1.377 0.007,1.557 0.032,0.095 -0.06,0.048 0.12,0.393 0.004,0.008 0.01,0.016 0.016,0.024 0.005,0.033 0.011,0.069 0.017,0.109 0.044,0.334 0.107,0.98 0.189,2.152 C 3.971,-4.021 4.207,0.248 4.548,8.185 2.567,7.781 1.537,6.801 0.876,5.473 0.153,3.984 -0.002,1.988 0,0"
   style="fill:#ffffff" />
				</g>
				<g
   id="g2873"
   transform="translate(130.444,354.267)">
					<path
   id="path2875"
   d="M 0,0 0.181,0.255 H 0.495 1.517 L 1.696,0.064 C 1.735,0.018 1.77,-0.026 1.8,-0.066 2.344,0.73 3.173,1.132 3.77,1.326 3.912,2.063 4.351,2.534 4.716,2.831 4.636,3.033 4.597,3.24 4.6,3.436 4.607,3.844 4.743,4.195 4.886,4.462 4.621,4.621 4.398,4.845 4.239,5.109 2.125,3.854 0.125,2.631 -1.759,1.769 -2.02,0.752 -2.853,0.134 -3.459,-0.216 c -0.079,-0.896 -0.213,-1.65 -0.452,-2.612 0.44,0.251 0.885,0.438 1.445,0.459 0.138,0 0.257,0.004 0.368,0.004 0.098,0.006 0.2,0.003 0.303,-0.01 C -1.479,-0.991 -0.179,-0.365 0,0"
   style="fill:#ffffff" />
				</g>
				<g
   id="g2877"
   transform="translate(139.492,355.522)">
					<path
   id="path2879"
   d="m 0,0 v -3.843 c 0.006,-0.691 -0.446,-1.125 -0.603,-1.268 -0.274,-3.703 -1.69,-14.093 -1.733,-16.861 2.488,1.582 3.763,2.208 6.002,3.603 -0.163,1.574 -0.232,2.695 -0.232,3.676 0.008,3.457 0.824,4.86 1.329,17.743 C 3.257,2.08 1.659,0.979 0,0"
   style="fill:#ffffff" />
				</g>
				<g
   id="g2881"
   transform="translate(129.53,350.065)">
					<path
   id="path2883"
   d="m 0,0 c -0.714,-1.121 -1.513,-1.764 -2.07,-2.335 -0.649,-0.693 -1.034,-1.2 -1.056,-2.688 -0.004,-2.408 -1.244,-15.256 -1.612,-18.788 2.827,0.771 5.134,2.621 7.8,4.712 -0.141,0.452 -0.13,1.038 -0.136,2.116 0,0.414 0.002,0.901 0.002,1.491 v 0.041 l 0.004,0.031 c 0.854,7.106 1.432,13.65 1.43,14.461 v 0.041 3.231 H 3.55 C 3.383,1.607 2.829,1.11 2.266,0.82 1.663,0.503 0.993,0.349 0.391,0.312 L 0.488,-0.332 0,0 z"
   style="fill:#ffffff" />
				</g>
				<g
   id="g2885"
   transform="translate(129.53,350.065)">
					<path
   id="path2887"
   d="M 0,0 0.488,-0.332 0.391,0.312 C 0.322,0.307 0.25,0.297 0.184,0.296 0.124,0.191 0.062,0.098 0,0"
   style="fill:#ffffff" />
				</g>
				<g
   id="g2889"
   transform="translate(109.508,301.675)">
					<path
   id="path2891"
   d="m 0,0 c 0.097,-0.058 0.188,-0.123 0.273,-0.207 0.352,-0.377 0.371,-0.815 0.374,-1.165 0,-0.29 -0.024,-0.575 -0.022,-0.882 -0.015,-1.834 -1.465,-8.241 -1.455,-10.17 0.015,-0.28 0.015,-0.161 0.231,-0.582 0.149,-0.282 0.286,-0.676 0.36,-1.319 2.846,0.987 5.588,1.99 8.172,3.048 -0.23,0.613 -0.334,1.129 -0.336,1.588 -0.013,0.949 0.509,1.566 0.872,1.925 0.385,0.4 0.532,0.548 0.532,0.863 0.021,0.526 -0.559,2.271 -0.58,3.196 0.019,0.593 0.319,1.457 0.607,2.43 0.292,0.916 0.575,1.939 0.555,2.085 l 0.242,17.438 c -0.529,0.12 -0.935,0.347 -1.214,0.594 l -0.202,0.18 v 0.272 1.07 l 0.247,0.18 c 0.905,0.666 1.623,1.159 2.313,1.81 -0.053,0.043 -0.108,0.091 -0.163,0.147 -0.282,0.298 -0.358,0.71 -0.35,1.106 -0.029,0.534 0.317,0.963 0.467,1.083 0.14,0.171 0.084,0.034 0.113,0.227 0,2.266 -0.01,3.734 -0.01,4.805 0,3.778 0.131,2.618 1.245,13.102 -0.226,-0.119 -0.436,-0.19 -0.665,-0.22 l -0.272,-0.02 -0.89,0.869 v 1.599 l 0.23,0.18 c 1.176,0.926 1.979,1.704 3.015,2.367 -0.556,0.905 -0.728,1.546 -0.985,2.259 C 11.001,48.783 8.889,47.781 7.15,46.629 5.169,45.325 3.803,43.904 3.82,42.204 3.807,41.792 3.964,41.459 4.072,40.938 4.543,40.913 5.007,40.875 5.515,40.659 L 5.823,40.525 5.44,43.029 8.221,42.606 8.736,42.53 V 42.007 40.743 L 8.573,40.568 C 8.121,40.106 7.399,39.759 6.555,39.742 6.51,39.742 6.48,39.745 6.461,39.745 H 5.941 L 5.877,40.168 V 40.103 38.914 L 5.418,38.8 C 3.061,38.17 2.995,36.789 2.935,35.124 c 0,-0.356 0.013,-0.711 0.013,-1.061 -0.074,-7.196 -0.659,-8.288 -0.87,-13.665 -0.062,-1.37 -0.91,-3.463 -0.873,-3.91 0,-0.042 10e-4,-0.078 0.003,-0.109 0.072,0.008 0.165,0.017 0.274,0.018 0.229,0.015 0.665,-0.094 0.894,-0.441 C 2.6,15.625 2.653,15.254 2.658,14.746 2.602,14.207 0.409,4.053 -0.49,2.374 -0.527,2.339 -0.554,2.287 -0.588,2.232 H 0 V 0 z"
   style="fill:#ffffff" />
				</g>
				<g
   id="g2893"
   transform="translate(95.75,312.096)">
					<path
   id="path2895"
   d="m 0,0 -0.171,-0.316 h -2.308 v 2.574 0.605 h 2.314 L 0.006,2.544 C 0.221,2.149 0.332,1.716 0.332,1.277 0.332,0.839 0.217,0.402 0,0 m 0.132,-9.535 v -0.241 l -0.168,-0.177 c -0.655,-0.594 -1.315,-0.525 -2.534,-0.827 l -0.442,-0.098 -0.219,0.395 c -0.445,0.8 -0.451,1.587 -0.454,2.314 0,0.213 -0.002,0.429 -0.002,0.645 -0.022,1.12 0.138,2.438 1.469,3.559 l 0.171,0.149 H 0.089 L 0.105,-4.404 C 0.13,-5.251 0.138,-6.17 0.138,-7.37 0.138,-8.001 0.136,-8.712 0.132,-9.535 M 3.581,19.987 C 3.63,19.789 3.628,19.632 3.63,19.435 3.64,18.433 3.238,17.843 2.974,17.349 2.709,16.84 2.453,16.275 2.424,14.818 L 2.419,14.257 1.855,14.223 C 1.789,14.221 1.72,14.205 1.652,14.196 1.789,14.166 1.933,14.11 2.083,13.998 2.402,13.738 2.472,13.357 2.467,13.043 2.455,12.128 1.87,9.571 1.529,8.009 L 1.423,7.535 h -3.051 v 3.905 c 0.002,0 -0.003,0.009 -0.003,0.065 0.11,1.207 1.046,1.608 1.548,2.345 L -0.214,13.795 -0.5,14.067 c -0.572,0.582 -0.556,1.297 -0.567,2.026 -0.007,1.24 0.426,2.886 1.763,4.047 -0.096,0.044 -0.19,0.096 -0.279,0.167 -0.331,0.282 -0.393,0.65 -0.426,0.896 -0.049,0.387 -0.048,0.734 -0.232,1.184 -2.102,-1.133 -7.901,-4.27 -10.786,-6.861 -1.034,-0.894 -1.611,-1.774 -1.617,-2.147 l 0.002,-0.007 c 0.015,-0.049 0.046,-0.179 0.046,-0.312 -0.007,-0.293 -0.089,-0.577 -0.309,-1.13 l -0.153,-0.379 h -0.409 -1.289 l -0.179,0.186 c -0.331,0.33 -0.499,0.685 -0.589,0.995 -1.078,-0.509 -2.545,-1.335 -3.838,-2.108 -1.337,-0.791 -2.587,-1.605 -2.942,-1.852 -0.234,-0.723 -0.907,-0.989 -1.598,-1.425 -0.838,-0.467 -1.897,-1.002 -2.942,-1.749 -2.084,-1.509 -4.09,-3.75 -4.104,-8.064 v -3.852 c -0.014,-0.559 -0.66,-4.085 -1.317,-7.787 -0.652,-3.618 -1.314,-7.411 -1.3,-7.576 -0.001,-0.741 -0.223,-1.593 -0.687,-2.489 0.321,-0.364 0.445,-0.852 0.399,-1.197 0,-0.12 -0.002,-0.246 -0.002,-0.38 -0.016,-0.23 -0.037,-0.237 -0.088,-0.523 -0.052,-0.243 -0.121,-0.579 -0.208,-0.983 -0.171,-0.809 -0.401,-1.882 -0.638,-2.987 -0.475,-2.207 -0.979,-4.545 -1.088,-5.091 l -0.012,-0.006 c 0,-0.784 -0.293,-4.56 -0.29,-5.23 -0.003,-0.417 0.068,-1.309 0.429,-2.064 0.353,-0.712 0.864,-1.299 1.902,-1.507 2.095,1.498 5.099,2.763 7.746,3.753 2.391,0.888 4.582,1.597 5.277,1.891 0.004,0.327 0.019,0.691 0.198,1.075 0.203,0.482 0.794,0.827 1.423,0.798 0.765,-0.009 1.238,-0.418 1.541,-0.73 6.863,3.66 13.493,7.371 14.491,7.875 -0.465,0.039 -0.921,0.104 -1.352,0.124 l -0.721,0.036 0.472,2.074 0.101,0.453 0.464,0.019 c 0.045,0.001 0.098,0.003 0.16,0.003 1.012,-0.007 1.63,-0.29 2.137,-0.307 l 0.567,-0.037 V -29.1 l -0.321,-0.172 c -0.161,-0.085 -0.327,-0.134 -0.491,-0.17 0.135,-0.043 0.251,-0.093 0.331,-0.136 l 0.554,0.111 v -0.74 -0.866 h 0.814 c 2.436,1.605 6.564,2.955 9.284,4.193 0.356,2.916 1.374,7.532 1.437,8.316 -0.095,0.04 -0.226,0.109 -0.339,0.238 -0.192,0.216 -0.247,0.49 -0.249,0.751 v 6.328 l 0.276,0.179 c 0.407,0.262 0.817,0.464 1.226,0.614 v 1.658 0.608 h 0.381 c -0.461,0.263 -0.803,0.647 -1.118,0.945 l -0.185,0.179 v 4.143 l 0.13,0.164 c 0.264,0.298 0.784,0.755 1.396,1.08 -0.15,0.295 -0.343,0.667 -0.526,1.033 -0.333,0.713 -0.667,1.304 -0.699,1.92 0.067,0.757 0.515,2.229 1.421,3.104 v 4.11 c -0.123,0.072 -0.239,0.17 -0.327,0.31 -0.208,0.337 -0.216,0.644 -0.222,1.045 -0.011,0.646 0.452,1.038 0.652,1.195 0.236,0.208 0.21,0.182 0.218,0.26 -0.014,0.191 -0.012,0.148 -0.156,0.348 -0.147,0.164 -0.44,0.572 -0.424,1.104 0.002,0.866 0.302,4.289 0.819,7.838 0.485,3.168 1.03,6.274 1.883,7.878 -0.592,0.518 -0.921,1.127 -0.96,1.718 0.004,0.432 0.071,0.789 0.09,1.065 C 10.601,29.417 7.73,27.608 4.795,25.964 4.729,25.259 4.461,24.055 4.033,22.856 3.71,22.066 3.392,21.242 2.881,20.679 2.898,20.673 2.917,20.668 2.935,20.663 3.147,20.62 3.531,20.313 3.581,19.987"
   style="fill:#ffffff" />
				</g>
				<g
   id="g2897"
   transform="translate(166.796,342.862)">
					<path
   id="path2899"
   d="m 0,0 c 0,-0.755 -0.074,-2.767 -0.291,-12.644 -0.039,-2.675 -0.884,-7.568 -0.874,-8.132 0.017,-0.191 0.013,-0.15 0.16,-0.348 0.143,-0.164 0.438,-0.57 0.422,-1.105 -0.047,-1.013 -0.647,-1.805 -0.582,-2.036 0.006,-4.935 -0.604,-6.355 -0.579,-6.825 -0.036,-0.345 0.336,-1.017 0.525,-1.879 0.101,0.03 0.214,0.064 0.334,0.095 0.348,1.768 0.849,3.906 0.836,4.417 L 1.005,3.311 C 0.754,2.944 0.544,2.487 0.395,2.008 0.088,1.082 -0.006,0.095 0,0"
   style="fill:#ffffff" />
				</g>
				<g
   id="g2901"
   transform="translate(117.033,342.935)">
					<path
   id="path2903"
   d="m 0,0 v 0.229 l -0.64,0.096 0.088,-0.572 C -0.341,-0.188 -0.14,-0.093 0,0"
   style="fill:#ffffff" />
				</g>
				<g
   id="g2905"
   transform="translate(157.582,328.081)">
					<path
   id="path2907"
   d="m 0,0 c -0.115,-0.133 -0.055,0.013 -0.086,-0.184 0.029,-0.193 -0.029,-0.052 0.113,-0.225 0.149,-0.12 0.497,-0.549 0.469,-1.081 0.071,-0.486 -0.382,-0.969 -0.582,-1.038 -0.007,-4.987 -1.167,-11.187 -1.163,-15.962 -0.021,-0.493 0.242,-2.213 0.633,-3.139 0.356,0.158 0.718,0.305 1.135,0.381 0.285,1.047 0.536,2.026 0.8,2.837 l 0.29,11.891 0.011,0.05 c 0.301,1.455 0.88,3.454 0.862,3.97 L 2.684,14.278 C 2.16,13.968 1.649,13.675 1.095,13.437 1.033,11.387 0.734,9.136 0.496,0.985 0.522,0.461 0.11,0.074 0,0"
   style="fill:#ffffff" />
				</g>
				<g
   id="g2909"
   transform="translate(148.503,331.988)">
					<path
   id="path2911"
   d="m 0,0 c -0.737,-2.652 -0.887,-5.441 -0.887,-6.668 v -4.433 c 0.016,-0.249 -0.035,-0.526 -0.155,-0.746 0.166,-0.264 0.143,-0.53 0.155,-0.815 -0.004,-0.817 -1.456,-15.346 -1.452,-15.981 -0.038,-0.283 0.248,-0.523 0.636,-1.077 2.473,0.399 3.693,2.355 3.706,4.169 0,0.159 -0.008,0.316 -0.028,0.469 L 1.969,-25.026 3.318,5.48 C 1.69,4.414 0.626,2.288 0,0"
   style="fill:#ffffff" />
				</g>
				<g
   id="g2913"
   transform="translate(135.994,311.017)">
					<path
   id="path2915"
   d="m 0,0 c -0.25,-4.389 -0.007,-6.317 -0.551,-12.578 0.147,-0.136 0.291,-0.245 0.372,-0.28 3.098,0.946 5.393,2.488 5.362,4.918 L 6.247,21.308 C 5.378,20.92 4.356,20.417 3.447,19.916 2.335,19.33 1.332,18.599 1.159,18.386 L 0.58,1.772 C 0.504,0.819 -0.076,0.246 0,0"
   style="fill:#ffffff" />
				</g>
				<g
   id="g2917"
   transform="translate(95.9795,327.228)">
					<path
   id="path2919"
   d="m 0,0 c 0.278,0.046 0.606,0.148 1.004,0.224 0.076,1.268 0.379,2.023 0.67,2.559 0.327,0.623 0.507,0.816 0.515,1.518 0,0.046 0,0.086 -10e-4,0.12 C 2.178,4.425 2.167,4.427 2.156,4.43 2.073,4.453 1.965,4.482 1.833,4.521 0.355,3.673 -0.08,2.148 -0.086,0.96 -0.094,0.5 -0.055,0.186 0,0"
   style="fill:#ffffff" />
				</g>
				<g
   id="g2921"
   transform="translate(124.941,318.939)">
					<path
   id="path2923"
   d="m 0,0 c -1.282,-4.563 -1.735,-10.009 -1.733,-13.27 v -8.572 c -0.008,-0.726 -0.302,-1.288 -0.558,-1.836 v -2.176 c 0.076,-0.037 0.143,-0.073 0.203,-0.11 0.557,0.191 2.028,0.729 3.431,1.328 1.718,0.697 3.59,1.698 3.85,2.045 v 5.07 c 0.012,2.268 1.485,6.733 1.452,7.448 0.012,0.574 -0.568,3.188 -0.581,4.066 0.002,0.792 0.282,4.114 0.815,13.983 C 6.669,8.008 6.465,8.021 6.268,8.021 3.415,8.094 1.278,4.618 0,0"
   style="fill:#ffffff" />
				</g>
				<g
   id="g2925"
   transform="translate(95.1089,323.601)">
					<path
   id="path2927"
   d="M 0,0 0.223,-0.024 V -2.758 H 1.095 C 1.433,-1.233 1.899,0.999 1.899,1.52 H 1.864 C 1.756,1.52 1.607,1.513 1.425,1.505 0.748,0.672 0.151,0.18 0.214,0.014 H 0.223 L 0.22,0 H 0 z"
   style="fill:#ffffff" />
				</g>
				<g
   id="g2929"
   transform="translate(94.4819,313.747)">
					<path
   id="path2931"
   d="m 0,0 v -0.757 h 0.335 c 0.036,0.129 0.054,0.257 0.054,0.383 0,0.126 -0.017,0.25 -0.051,0.374 H 0 z"
   style="fill:#ffffff" />
				</g>
				<g
   id="g2933"
   transform="translate(94.167,307.07)">
					<path
   id="path2935"
   d="m 0,0 c -0.848,-0.827 -0.874,-1.462 -0.893,-2.498 0,-0.202 0.002,-0.418 0.002,-0.646 0,-0.536 0.014,-0.95 0.132,-1.33 0.63,0.13 1.05,0.225 1.265,0.295 0.003,0.687 0.004,1.29 0.004,1.834 0,0.922 -0.005,1.669 -0.017,2.345 H 0 z"
   style="fill:#ffffff" />
				</g>
				<path
   id="path2937"
   d="m 108.14,302.249 h 0.158 v 0.447 h -0.158 v -0.447 z"
   style="fill:#ffffff" />
				<g
   id="g2939"
   transform="translate(93.1963,283.809)">
					<path
   id="path2941"
   d="M 0,0 V 0.08 C -0.404,0.157 -0.749,0.257 -1.148,0.294 L -1.197,0.079 c 0.385,-0.045 0.726,-0.092 0.996,-0.089 0.074,0 0.141,0.004 0.201,0.01"
   style="fill:#ffffff" />
				</g>
			</g>
		</g>
	</g>
</g>
</svg>