<svg xmlns="http://www.w3.org/2000/svg" xml:space="preserve" id="Layer_2" x="0" y="0" version="1.1" viewBox="0 0 593.32 700"><style>.st0{fill:#fff}.st1{fill:#231f20}.st2{fill:#fb2929}</style><path d="m532.42 1.67 46.16 88.78.54 1.04-.7.96-50.25 68.95 59.87 105.29 2.95 5.2-5.42-2.53-99.32-46.28 19.79 72.35 84.32 50.07.94.56v6.6c.17 1.52.34 3.18.51 4.95.18 1.89.33 3.58.45 5.1 3.42 42.88-1.61 84.69-13.82 123.51-12.55 39.91-32.7 76.65-59.05 108.12-27.49 32.83-61.42 59.6-99.85 77.97-36.81 17.6-77.74 27.5-121.1 27.66-43.46.16-84.5-9.45-121.38-26.83-38.48-18.12-72.43-44.69-99.91-77.4-26.39-31.42-46.51-68.16-58.99-108.12C6.02 448.75 1.11 406.8 4.68 363.75c.18-2.17.39-4.44.64-6.83.25-2.37.5-4.61.76-6.71v-.88l.82-.57 73.5-51.38 18.84-73.78-90.27 53.47-2.88 1.71v-4.19l.16-.38 48.81-111.57L.9 107.34l-.9-.92.51-1.18 41.48-95.4.77-1.78 1.76.81c36.3 16.63 74.57 29.52 114.35 38.19 38.69 8.43 78.81 12.87 119.94 12.87 44.33 0 87.5-5.15 128.96-14.91 42.67-10.04 83.57-24.97 122.1-44.17l1.69-.85z" class="st0"/><path d="m122.48 199.83-5.8 22.72-18.74 73.39h382.47l-22.31-96.11H329.87l-34.12-30.11-38.32 30.11zM574.65 91.17 529.9 5.09C491.6 24.02 451 38.76 408.65 48.73c-41.76 9.83-85.21 15.02-129.83 15.02-41.39 0-81.78-4.47-120.75-12.96C118.69 42.2 80.76 29.5 44.71 13.14L4.52 105.58l54.16 55.31.9.92-.52 1.18-47.21 107.94 89.42-52.96 3.96-2.34-1.14 4.46L83.94 299l-.17.68-.59.41-73.39 51.3c-.25 2.07-.48 4.04-.67 5.92-.22 2.13-.43 4.38-.63 6.76-3.53 42.56 1.33 84.02 13.33 122.45 12.33 39.47 32.2 75.77 58.27 106.8 27.12 32.29 60.64 58.52 98.61 76.41 36.39 17.14 76.88 26.63 119.75 26.47 42.77-.16 83.15-9.93 119.46-27.3 37.92-18.13 71.41-44.56 98.56-76.99 26.03-31.09 45.93-67.39 58.33-106.81 12.07-38.36 17.04-79.7 13.66-122.08-.15-1.87-.29-3.56-.43-5.03-.15-1.55-.32-3.23-.52-5.03l-.24-2.12h.22v-2.6l-84.04-49.9-.66-.39-.2-.75-21.08-77.07-1.09-3.97 3.73 1.74 97.63 45.49-57.52-101.16-.61-1.07.73-1zm-42.23-89.5 46.16 88.78.54 1.04-.7.96-50.25 68.95 59.87 105.29 2.95 5.2-5.42-2.53-99.32-46.28 19.79 72.35 84.32 50.07.94.56v6.6c.17 1.52.34 3.18.51 4.95.18 1.89.33 3.58.45 5.1 3.42 42.88-1.61 84.69-13.82 123.51-12.55 39.91-32.7 76.65-59.05 108.12-27.49 32.83-61.42 59.6-99.85 77.97-36.81 17.6-77.74 27.5-121.1 27.66-43.46.16-84.5-9.45-121.38-26.83-38.48-18.12-72.43-44.69-99.91-77.4-26.39-31.42-46.51-68.16-58.99-108.12C6.02 448.75 1.11 406.8 4.68 363.75c.18-2.17.39-4.44.64-6.83.25-2.37.5-4.61.76-6.71v-.88l.82-.57 73.5-51.38 18.84-73.78-90.27 53.47-2.88 1.71v-4.19l.16-.38 48.81-111.57L.9 107.34l-.9-.92.51-1.18 41.48-95.4.77-1.78 1.76.81c36.3 16.63 74.57 29.52 114.35 38.19 38.69 8.43 78.81 12.87 119.94 12.87 44.33 0 87.5-5.15 128.96-14.91 42.67-10.04 83.57-24.97 122.1-44.17l1.69-.85zm26.12 87.44a659 659 0 0 1-112.75 40.87c-53.92 14.16-109.88 21.68-166.97 21.68s-113.05-7.52-166.97-21.68a658 658 0 0 1-92.37-31.72L50.59 26.7c70.27 30.32 147.37 47.07 228.23 47.07 86.83 0 169.31-19.31 243.67-54.01zM54.85 332.08v206.65a302 302 0 0 1-23.46-55.2c-3.04-9.73-5.6-19.66-7.68-29.77v-99.91zm83.9-26.72v329.12c-13.71-9.95-26.53-21.17-38.31-33.47V305.36zm74.18 0v367.28c-10.26-3.4-20.26-7.4-29.96-11.97-2.81-1.33-5.6-2.7-8.36-4.12V305.36zm74.18 0V686c-13.04-.49-25.83-1.91-38.31-4.19V305.36zm66.54 180.67V680.3c-11.26 2.4-22.77 4.09-34.49 5.03v-215.8zm141.82-180.67v154.85l-.03.02v.94h-1.97l-87.16 41.68-87.15-41.68V305.36h176.31m-68.58 196.01v151.7c-4.37 2.39-8.79 4.66-13.29 6.81-7.06 3.37-14.28 6.45-21.64 9.22V504.35l14.32 6.85.01.02.02-.01.02.01.01-.02zm68.58-32.8v131.77a289 289 0 0 1-29.62 26.91V482.74zm75.24-118.65v112.55c-1.61 6.63-3.44 13.19-5.47 19.65-7.77 24.72-18.59 48.16-32.1 69.78V327.61zM29.49 247.93l42.67-75.21 26.72 25.64zm2.81-131.24 74.56 70.9-7.97-49.99zm450.62 87.77 74.63 40.57-45.12-73.97zm-2.17-21.91 6.94-47.51 63.99-31.02z" class="st1"/><path d="M126.4 189.14h114.68l26.48-17.53-151.86-23.15z" class="st1"/><path d="M134.3 181.98h99.75l10.55-6.99-116.82-17.81z" class="st0"/><path d="M459.46 189.14H349.34l-27.33-18.1 148.15-22.58z" class="st1"/><path d="M451.56 181.98h-99.75l-10.55-6.99 116.82-17.81zM503.6 63.29c-.35-.44-.77-.95-1.26-1.54-.49-.58-1.12-1.07-1.87-1.46s-1.64-.62-2.66-.7-2.21.15-3.55.7c-.79.32-1.58.83-2.35 1.52-.78.7-1.38 1.64-1.82 2.84-.43 1.2-.6 2.66-.49 4.41.11 1.74.64 3.8 1.6 6.18.61 1.5 1.34 2.89 2.2 4.16s1.81 2.32 2.87 3.13 2.21 1.33 3.44 1.56q1.845.345 3.96-.51c1.85-.75 3.15-1.9 3.92-3.47.76-1.57.94-3.46.51-5.69l6.59-2.66c.42 1.98.58 3.87.46 5.69-.12 1.81-.53 3.5-1.23 5.06s-1.71 2.95-3.01 4.19c-1.31 1.24-2.94 2.25-4.91 3.05-2.11.85-4.19 1.26-6.26 1.22-2.06-.04-4.03-.55-5.91-1.52s-3.62-2.42-5.23-4.33c-1.61-1.92-3-4.33-4.18-7.24-1.19-2.94-1.86-5.68-2.01-8.2s.13-4.79.83-6.81c.7-2.01 1.79-3.75 3.26-5.22s3.21-2.61 5.23-3.43c2.37-.96 4.55-1.38 6.54-1.28q2.985.165 5.34 1.26c1.57.73 2.91 1.68 4.02 2.86 1.11 1.17 1.96 2.37 2.55 3.59zM484.44 96.7l-6.72 2.32-2.41-6.99 6.72-2.32zm-24.08 7.77-6.8 2.08-10.63-34.77 23.16-7.08 1.88 6.15-16.37 5 2.4 7.84 14.33-4.38 1.88 6.15-14.32 4.38zm-42.69-26.13 6.47-1.49 8.18 35.42-6.93 1.6-19.36-22.13-.09.02 5.83 25.26-6.47 1.49-8.18-35.42 7.3-1.68 18.86 21.63.1-.02zm-66.58 12.57 7.47-1.32c1.29 3.13 2.4 5.84 3.34 8.13.93 2.29 1.73 4.25 2.39 5.9s1.21 3.03 1.65 4.16c.44 1.12.81 2.09 1.12 2.91s.57 1.55.8 2.2c.22.65.44 1.29.66 1.94l.09-.02c-.01-.96-.02-1.99-.04-3.1s-.03-2.63-.03-4.54v-7.48c.01-3.07.05-7.02.12-11.87l7.42-1.31c1.23 3.18 2.29 5.89 3.17 8.16q1.32 3.39 2.25 5.82c.63 1.62 1.15 2.99 1.57 4.09.42 1.11.78 2.07 1.09 2.89s.57 1.56.8 2.22.47 1.36.73 2.11l.09-.02q-.015-.87 0-1.8c0-.62.01-1.36.01-2.24.01-.87.03-1.93.07-3.17s.09-2.77.16-4.58.15-3.97.25-6.47c.11-2.5.22-5.46.36-8.88l7.09-1.25-3.11 37.46-6.72 1.19c-1.11-2.82-2.06-5.29-2.87-7.41s-1.52-4-2.15-5.64-1.17-3.08-1.63-4.31q-.69-1.86-1.26-3.45c-.38-1.06-.74-2.08-1.09-3.05q-.525-1.455-1.11-3.15l-.09.02c.05 1.19.07 2.28.07 3.28s.01 2.03.02 3.11.01 2.25-.01 3.52-.04 2.78-.07 4.54c-.03 1.75-.07 3.8-.12 6.14q-.075 3.51-.15 8.25l-6.54 1.15zm-30.51 20.67c-.3-2.82-.25-5.28.13-7.4.38-2.11.98-3.92 1.79-5.43s1.77-2.76 2.87-3.74 2.24-1.77 3.39-2.37c1.16-.6 2.27-1.03 3.35-1.29 1.07-.27 1.98-.44 2.73-.52.76-.08 1.68-.1 2.78-.06q1.65.06 3.54.57c1.26.34 2.53.88 3.82 1.61 1.28.73 2.48 1.75 3.59 3.06s2.06 2.96 2.88 4.94c.81 1.98 1.37 4.39 1.66 7.21.3 2.82.25 5.28-.13 7.4-.38 2.11-.98 3.92-1.79 5.43s-1.77 2.76-2.87 3.74c-1.11.98-2.24 1.77-3.4 2.37s-2.27 1.03-3.35 1.29c-1.07.26-1.98.44-2.73.52s-1.68.1-2.78.06q-1.65-.06-3.54-.57c-1.26-.34-2.53-.88-3.82-1.61-1.28-.73-2.48-1.75-3.59-3.06s-2.06-2.96-2.88-4.94c-.8-1.98-1.35-4.39-1.65-7.21m7.07-.74c.26 2.52.78 4.57 1.55 6.15s1.66 2.8 2.67 3.64 2.08 1.39 3.2 1.65 2.16.33 3.1.23 1.94-.39 2.98-.87q1.575-.72 2.79-2.28c.81-1.04 1.43-2.41 1.86-4.12.42-1.71.5-3.82.24-6.34s-.78-4.57-1.55-6.15-1.66-2.79-2.67-3.64c-1.01-.84-2.08-1.39-3.2-1.65s-2.16-.33-3.1-.23-1.94.39-2.98.87q-1.575.72-2.79 2.28c-.81 1.04-1.43 2.41-1.85 4.12-.43 1.71-.51 3.82-.25 6.34m-18.21 19.61-7.1.37-1.57-29.88-10.27.54-.34-6.42 27.64-1.45.34 6.42-10.27.54zm-40.08.62-7.11-.25.48-13.71-10.96-23.03 8.39.29 6.51 16.03 7.28-15.55 8.05.28-12.16 22.32zm-48.87-39.12 16.48 1.44q3.12.27 5.07 1.38c1.3.74 2.29 1.61 2.99 2.6.69.99 1.15 2.04 1.37 3.14s.29 2.13.21 3.07c-.12 1.31-.36 2.38-.73 3.21s-.8 1.51-1.27 2.02c-.47.52-.97.91-1.48 1.17s-.95.48-1.32.65c1 .49 1.82 1.09 2.44 1.79s1.09 1.45 1.42 2.26c.32.81.53 1.65.61 2.52q.12 1.305 0 2.67c-.13 1.45-.51 2.79-1.14 4.04a10.4 10.4 0 0 1-2.44 3.17c-.52.46-1.06.87-1.63 1.23s-1.26.64-2.07.86-1.8.35-2.96.4-2.61 0-4.34-.15l-14.36-1.26zm4.18 30.56 8.69.76c1.73.15 3.11-.15 4.12-.91 1.02-.76 1.61-2.06 1.77-3.91.07-.81-.02-1.5-.27-2.08a4.1 4.1 0 0 0-1.04-1.46q-.66-.585-1.56-.9c-.6-.2-1.22-.34-1.84-.39l-9.02-.79zm1.38-15.79 8.31.73c1.42.12 2.63-.08 3.65-.62 1.01-.54 1.59-1.53 1.71-2.98.13-1.51-.24-2.58-1.12-3.2s-2.12-1-3.73-1.14l-8.12-.71zm-35.15 6.7c-.07.5-.07 1.1.01 1.79s.33 1.37.74 2.05c.42.67 1.06 1.28 1.95 1.83.88.55 2.09.93 3.62 1.15.85.12 1.69.17 2.54.15s1.63-.14 2.35-.39a4.4 4.4 0 0 0 1.84-1.17c.51-.54.83-1.3.96-2.27.1-.7.03-1.31-.2-1.82s-.6-.96-1.1-1.36c-.5-.39-1.11-.76-1.83-1.1q-1.08-.51-2.34-1.05l-3.49-1.41c-1.33-.53-2.61-1.08-3.83-1.66-1.23-.58-2.28-1.32-3.16-2.21s-1.54-1.99-1.98-3.29c-.44-1.31-.52-2.94-.24-4.92.09-.67.27-1.39.52-2.18.25-.78.61-1.56 1.07-2.33s1.05-1.51 1.77-2.21 1.61-1.27 2.66-1.72 2.28-.76 3.67-.94c1.4-.18 3-.14 4.82.12q3.855.54 6.21 2.1c1.58 1.04 2.78 2.21 3.62 3.53.84 1.31 1.36 2.67 1.58 4.08s.25 2.67.09 3.77l-6.76-.95c-.01-.41-.04-.94-.09-1.57-.05-.64-.28-1.27-.66-1.91q-.585-.945-1.83-1.77c-.83-.54-2.02-.92-3.55-1.14q-.99-.135-2.07-.06c-.72.05-1.39.2-2 .46s-1.13.63-1.57 1.13-.71 1.15-.83 1.95c-.1.7-.06 1.3.11 1.78s.42.89.74 1.2c.32.32.69.57 1.09.77.4.19.77.36 1.1.51l7.91 3.31c1.11.46 2.17.99 3.18 1.57 1 .58 1.86 1.3 2.57 2.15q1.065 1.275 1.56 3.03c.33 1.17.38 2.56.16 4.16-.25 1.8-.73 3.31-1.43 4.53-.7 1.21-1.52 2.2-2.47 2.95s-1.96 1.32-3.04 1.7c-1.07.38-2.12.63-3.15.76-1.02.13-1.96.18-2.82.14-.86-.03-1.53-.09-2.04-.16-3.07-.43-5.49-1.2-7.26-2.3-1.78-1.1-3.09-2.34-3.96-3.7-.86-1.36-1.37-2.77-1.51-4.23-.15-1.45-.14-2.73.01-3.83zm-15.3 9.2-6.52-1.27 5.8-29.82-.09-.02-12.03 28.61-6.84-1.33-.3-31.01-.09-.02-5.8 29.82-6.51-1.27 6.94-35.69 10.19 1.98.58 29.31.09.02 11.42-26.97 10.1 1.96zm-40.21-8.01-6.9-1.72 8.79-35.27 6.9 1.72zm-31-46.02 16.54 4.74c2.19.63 3.84 1.51 4.96 2.63 1.12 1.13 1.9 2.33 2.35 3.6q.66 1.905.57 3.69t-.42 2.91c-.56 1.95-1.49 3.55-2.78 4.81-1.3 1.26-2.85 1.95-4.66 2.06.58.52 1.07 1.02 1.49 1.51s.71 1.1.88 1.83.2 1.63.09 2.69-.39 2.4-.86 4.02c-.36 1.27-.66 2.32-.88 3.17q-.345 1.275-.42 2.07c-.05.53-.02.96.1 1.29s.34.62.67.85l-.26.92-7.56-2.17c0-.91.09-1.9.26-2.96s.52-2.49 1.04-4.31c.34-1.2.6-2.22.76-3.08.16-.85.14-1.59-.05-2.23-.2-.64-.62-1.18-1.26-1.63s-1.6-.86-2.88-1.22l-7.06-2.03-3.92 13.68-6.7-1.92zm10.31 19.6c1.79.51 3.22.54 4.29.07s1.86-1.57 2.36-3.33c.13-.45.21-.97.24-1.54s-.06-1.13-.28-1.69c-.22-.55-.6-1.07-1.13-1.56-.54-.49-1.3-.87-2.31-1.16l-8.52-2.44-2.68 9.35zm-35.62-9.96 13.45 4.63-6.38 18.53-4.48-1.54.81-4.54c-.6.4-1.29.81-2.05 1.22-.76.42-1.62.74-2.57.99-.95.24-2.03.35-3.22.34-1.2-.02-2.53-.28-3.99-.79-1.94-.67-3.67-1.68-5.19-3.05q-2.28-2.04-3.57-4.98c-.86-1.96-1.31-4.2-1.34-6.73s.47-5.31 1.52-8.34c.8-2.33 1.89-4.48 3.25-6.46 1.37-1.98 2.98-3.59 4.85-4.84s3.96-2.05 6.29-2.39c2.32-.34 4.83-.05 7.52.88l.09.03c2.45.84 4.42 1.95 5.9 3.32s2.6 2.82 3.34 4.36 1.15 3.08 1.24 4.63-.03 2.93-.35 4.14l-6.72-2.31c.11-.32.13-.85.07-1.58-.07-.73-.28-1.52-.65-2.34s-.91-1.62-1.64-2.38q-1.08-1.155-2.88-1.77c-1.2-.41-2.43-.58-3.71-.5s-2.52.46-3.71 1.16-2.31 1.74-3.36 3.13-1.95 3.18-2.71 5.39c-.81 2.36-1.21 4.4-1.17 6.1.03 1.71.33 3.16.91 4.36.57 1.2 1.36 2.16 2.36 2.9s2.07 1.3 3.2 1.69c.36.12.93.24 1.71.35s1.66.04 2.62-.19c.97-.24 1.98-.74 3.05-1.5 1.06-.76 2.07-1.94 3.02-3.54l-7.49-2.58z" class="st0"/><path d="M445.05 445.74c-11.92-4.76-26.6-7.57-42.51-7.57-15.92 0-30.6 2.81-42.51 7.57 11.91 4.77 26.59 7.58 42.51 7.58 15.91 0 30.59-2.81 42.51-7.58m31.2-12.01c-3.2 4.41-7.53 8.45-12.79 12.01 5.37 3.64 9.77 7.78 13 12.3l-7.81 3.87c-3.24-4.17-7.86-7.99-13.53-11.3-14.01 7.03-32.44 11.3-52.58 11.3s-38.58-4.28-52.58-11.3l-8.35-4.87 8.35-4.87c14-7.03 32.44-11.31 52.58-11.31s38.57 4.28 52.58 11.31c5.55-3.23 10.08-6.96 13.31-11.02zM445.22 393.05c-11.91-4.77-26.59-7.58-42.51-7.58s-30.6 2.81-42.51 7.58c11.91 4.76 26.6 7.57 42.51 7.57s30.59-2.81 42.51-7.57m31.2-12.01c-3.2 4.41-7.54 8.45-12.79 12.01 5.37 3.64 9.77 7.78 12.99 12.3l-7.81 3.87c-3.24-4.17-7.86-7.99-13.53-11.3-14.01 7.03-32.44 11.31-52.58 11.31s-38.58-4.28-52.58-11.31l-8.35-4.87 8.35-4.87c14.01-7.03 32.45-11.3 52.58-11.3 20.14 0 38.57 4.28 52.58 11.3 5.55-3.23 10.08-6.96 13.31-11.02zM445.19 341.83c-11.92-4.77-26.59-7.57-42.51-7.57s-30.6 2.81-42.51 7.57c11.91 4.77 26.59 7.57 42.51 7.57s30.59-2.8 42.51-7.57m31.21-12.01c-3.2 4.41-7.53 8.45-12.79 12.01 5.37 3.64 9.77 7.78 13 12.3L468.8 358c-3.24-4.17-7.86-7.99-13.53-11.3-14.01 7.03-32.44 11.31-52.58 11.31s-38.58-4.28-52.58-11.31l-8.35-4.87 8.35-4.87c14-7.03 32.44-11.3 52.58-11.3s38.57 4.28 52.58 11.3c5.55-3.23 10.08-6.96 13.31-11.02z" class="st2"/><path d="m178.22 260.42 42.48-42.24 4.66-4.63 3.49 5.58 32.34 51.68 24.8 1.65v-28.83l4.78-.42 28.14-2.47 2.24-5.61 1.53-3.83 4.08.58 31.35 4.48 3.55.51.82 3.5 7.31 31.12 87.08-1.05 7.17-.09-2.1 6.86-5.76 18.76h-10.96l4.6-14.98-77.58.94-6.54.08-74.42.9-5.3.07h-.26l-17.68-1.17-10.22-.68-44.79-2.97-.28-.02-.41-.08-33.93-6.88-9.12-1.85-24.35-4.93 16.62 31.58h-11.85l-19.19-36.46-5.14-9.76 10.81 2.19 42.03 8.47zm12.35 2.5 23.42 4.75 2.4.16 1.95-32.52-27.77 27.61zm36.28 5.6 21.42 1.42-19.63-31.36-1.79 29.94zm69.62 3.82 62.58-.76-5.96-25.37-23.72-3.39-1.92 4.79-1.2 3-3.21.28-26.57 2.34v19.11z" style="fill:#fb2929;stroke:#231f20;stroke-width:.3641;stroke-miterlimit:22.9256"/></svg>