<svg xmlns="http://www.w3.org/2000/svg" width="734.799" height="933.334" viewBox="0 0 734.799 933.334"><defs><clipPath id="a" clipPathUnits="userSpaceOnUse"><path d="M0 1080h1080V0H0Z"/></clipPath></defs><g clip-path="url(#a)" transform="matrix(1.33333 0 0 -1.33333 -352.601 1186.667)"><path d="M0 0c79.282 36.94 171.64 50.815 256.521 51.154C344.967 51.506 441.659 36.94 520.445 0c19.867-128.483 20.282-249.629 1.91-341.865-5.87-29.479-13.235-56.005-23.161-78.877-15.072-34.706-44.439-73.87-81.562-110.237-45.197-44.276-102.964-85.793-157.152-117.861-54.775 32.609-119.047 76.716-168.609 128.8-22.5 23.639-43.239 49.375-58.648 75.925-8.648 14.894-14.914 29.696-20.596 45.386-4.215 11.627-7.842 24.974-11.175 39.776C-18.115-272.056-23.054-139.904 0 0" style="fill:#1b2e33;fill-opacity:1;fill-rule:evenodd;stroke:none" transform="translate(279.797 838.84)"/><path d="M0 0c50.652 30.78 101.309 66.728 143.366 107.931 29.217 28.62 60.872 66.22 77.285 104.019 10.278 23.672 16.881 49.624 21.911 74.883 14.339 71.99 15.791 152.149 10.085 229.425-74.56 42.264-168.687 58.687-254.721 58.35-81.896-.318-174.519-14.866-251.37-58.031-2.131-30.27-3.039-60.618-2.642-90.82.67-51.356 4.929-105.345 16.229-155.534 2.831-12.56 6.087-25.283 10.475-37.399 5.306-14.637 11.281-28.717 19.114-42.211 15.189-26.156 35.064-50.358 55.886-72.24C-110.284 72.037-54.935 33.404 0 0" style="fill:#f28900;fill-opacity:1;fill-rule:evenodd;stroke:none" transform="translate(540.297 213.985)"/><path d="M0 0v5.035c4.283.83 8.074 2.952 10.047 6.898h5.676v-59.161H6.29V0Z" style="fill:#1b2e33;fill-opacity:1;fill-rule:evenodd;stroke:none" transform="translate(478.152 333.481)"/><path d="M0 0c0 .473.03 1.1.103 1.905q.135 1.21.524 2.657a13.5 13.5 0 0 0 1.211 2.924c.535.954 1.264 1.827 2.156 2.628.888.806 2.022 1.451 3.376 1.934 1.356.483 3.015.738 4.949.752 1.895-.014 3.511-.269 4.881-.752q2.031-.725 3.405-1.934c.916-.801 1.645-1.674 2.199-2.628a13.4 13.4 0 0 0 1.211-2.924q.391-1.448.521-2.657c.072-.805.115-1.432.101-1.905v-33.646a27 27 0 0 0-.087-2.538 17.5 17.5 0 0 0-.463-2.975 12.3 12.3 0 0 0-1.195-3.019c-.541-1.008-1.27-1.92-2.158-2.735q-1.35-1.25-3.403-1.972-2.058-.746-5.012-.767c-1.964.014-3.636.27-5.007.767q-2.052.722-3.409 1.972c-.888.815-1.616 1.727-2.152 2.735-.54.98-.95 1.987-1.195 3.019a18 18 0 0 0-.468 2.975A27 27 0 0 0 0-33.646v3.705h9.439c0-1.959.029-3.609.087-4.925.058-1.326.174-2.363.348-3.125.173-.753.453-1.303.829-1.626.396-.319.935-.482 1.616-.468.569 0 1.052.121 1.442.377.395.24.698.632.916 1.152q.267.791.396 2.002c.087.815.13 1.78.13 2.908v11.108c-.815-.443-1.601-.806-2.358-1.062a7.5 7.5 0 0 0-2.359-.385c-1.616.014-3.015.242-4.176.695-1.154.458-2.113 1.075-2.885 1.827a9.6 9.6 0 0 0-1.852 2.469 13.3 13.3 0 0 0-1.032 2.765 20 20 0 0 0-.438 2.652C.03-12.742 0-12.057 0-11.508Zm15.203 2.575c0 .256-.086.603-.261 1.009-.173.414-.483.79-.901 1.124-.425.322-.994.511-1.722.524-.671-.013-1.207-.202-1.645-.524a3.3 3.3 0 0 1-.931-1.124c-.202-.406-.304-.753-.304-1.009v-17.146c0-.25.102-.603.304-1.002q.303-.623.931-1.129c.438-.323.974-.511 1.645-.521.67.01 1.211.16 1.616.43.423.264.727.587.935.964.189.377.305.709.333 1.017z" style="fill:#1b2e33;fill-opacity:1;fill-rule:evenodd;stroke:none" transform="translate(504.302 333.26)"/><path d="M0 0c0-1.212-.202-2.351-.468-3.436a14 14 0 0 0-1.103-3.003 12.2 12.2 0 0 0-1.516-2.326c-.622-.738-1.379-1.408-2.242-2.026a10.2 10.2 0 0 0-3.102-1.485c-1.196-.352-2.748-.526-4.321-.526s-3.144.174-4.365.526a10.2 10.2 0 0 0-3.145 1.485c-.868.618-1.606 1.288-2.199 2.026a12.6 12.6 0 0 0-1.471 2.326c-.472.93-.849 1.928-1.109 3.003-.261 1.085-.463 2.224-.463 3.436v34.851c0 1.167.202 2.296.463 3.367.26 1.06.642 2.059 1.109 2.995.406.809.872 1.596 1.471 2.358.593.767 1.321 1.45 2.199 2.069q1.309.919 3.145 1.462c1.221.361 2.793.548 4.365.548s3.125-.187 4.321-.548q1.794-.543 3.102-1.462a11.2 11.2 0 0 0 2.242-2.069 13 13 0 0 0 1.516-2.358 14.4 14.4 0 0 0 1.103-2.995c.266-1.071.468-2.2.468-3.367Zm-9.434 34.851c0 .805-.095 1.5-.295 2.092-.197.604-.481 1.154-.93 1.612-.207.212-.496.356-.828.467-.339.117-.873.174-1.265.174-.555 0-1.177-.126-1.559-.333a2.6 2.6 0 0 1-.901-.804 4.5 4.5 0 0 1-.511-1.033 5.3 5.3 0 0 1-.275-1.022 9 9 0 0 1-.071-1.153V0c0-.835.119-1.559.332-2.147.221-.603.535-1.124.978-1.558.213-.207.484-.357.787-.468.309-.116.825-.179 1.22-.174.814.005 1.63.223 2.064.627.439.415.709.937.902 1.544.098.294.227.603.28.964q.072.544.072 1.212z" style="fill:#1b2e33;fill-opacity:1;fill-rule:evenodd;stroke:none" transform="translate(564.094 298.41)"/><path d="M0 0h-14.59v7.645L-.786 46.282h9.438V7.645h4.366V0H8.652v-12.878H0Zm-6.55 7.645H0v20.286h-.521l-.526-1.771Z" style="fill:#1b2e33;fill-opacity:1;fill-rule:evenodd;stroke:none" transform="translate(587.79 299.132)"/><path d="m0 0 11.687-1.466L2.94-71.024l-11.684 1.465Z" style="fill:#fff;fill-opacity:1;fill-rule:evenodd;stroke:none" transform="translate(632.394 868.309)"/><path d="m0 0-2.238-11.561-11.961 2.311-11.069-57.27-11.56 2.233L-25.76-7.012l-12.178 2.353L-35.7 6.902z" style="fill:#fff;fill-opacity:1;fill-rule:evenodd;stroke:none" transform="translate(694.22 857.948)"/><path d="M0 0c13.485-1.008 18.549-9.882 18.062-16.398l-.478-6.376-11.744.878.333 4.475c.386 5.108-2.672 6.898-7.698 7.284-4.775.37-8.069-1.212-8.391-5.543l-2.856-38.112c-.324-4.326 2.702-6.38 7.476-6.728 5.025-.366 8.315.95 8.696 6.058l.337 4.476 11.744-.878-.477-6.376c-.491-6.521-6.815-14.541-20.305-13.529-15.776 1.182-19.756 10.635-19.216 17.86l2.856 38.107C-21.121-7.571-15.608 1.168 0 0" style="fill:#fff;fill-opacity:1;fill-rule:evenodd;stroke:none" transform="translate(596.27 872.297)"/><path d="M0 0c13.949 2.74 17.411 12.053 16.147 18.468L5.47 72.825l-11.557-2.267L4.23 18.062c.983-5.02-1.838-7.167-6.782-8.145-4.692-.936-8.155.241-8.99 4.504l-10.427 53.055-11.59-2.099 10.461-53.228C-21.699 5.04-15.525-3.052 0 0" style="fill:#fff;fill-opacity:1;fill-rule:evenodd;stroke:none" transform="translate(422.074 792.566)"/><path d="m0 0 11.368 3.067 7.563-28.031 14.788 3.989-7.563 28.032 11.373 3.067 18.255-67.687-11.367-3.068-7.786 28.856-14.786-3.988 7.783-28.857-11.373-3.067z" style="fill:#fff;fill-opacity:1;fill-rule:evenodd;stroke:none" transform="translate(335.369 844.343)"/><path d="m0 0 32.393 3.55-1.139 10.384-20.686-2.267-6.464 58.962-11.705-1.283Z" style="fill:#fff;fill-opacity:1;fill-rule:evenodd;stroke:none" transform="translate(453.076 798.606)"/><path d="m0 0 32.565 1.283-.414 10.442-20.797-.825-2.339 59.271-11.768-.468Z" style="fill:#fff;fill-opacity:1;fill-rule:evenodd;stroke:none" transform="translate(496.238 803.101)"/><path d="m0 0-8.151-28.967-11.334 3.188 8.084 28.735-4.766 42.984 11.334-3.193 2.354-29.643 17.32 24.106 11.334-3.188z" style="fill:#fff;fill-opacity:1;fill-rule:evenodd;stroke:none" transform="translate(721.226 809.148)"/><path d="M0 0c-1.987 1.559-3.854 3.135-4.668 5.03-2.224 5.166-2.103 17.9.829 30.483.497 2.141.565 4.283 1.225 6.376 1.037 3.275 2.035 6.444 3.603 9.366C3 55.013 5.735 58.36 8.33 60.989c7.929 8.035 18.704 21.863 29.981 31.397 8.522 7.211 17.608 13.028 27.004 18.54 4.75 2.793 9.587 5.114 14.468 7.592 3.618 1.838 7.004 3.791 10.399 5.441 3.294 1.596 6.603 2.903 10.163 4.19 10.215 3.7 21.317 5.832 30.78 5.238 9.232 2.378 26.151.516 37.659-.053 12.303-.603 23.517-.829 41.179-5.57 15.406-2.952 31.868-10.153 40.794-14.388 2.47-1.171 4.018-2.743 6.184-4.2 1.687-1.129 3.621-1.847 5.681-2.591 1.447-.52 3.68.488 5.118-.106 11.395-4.711 22.745-10.007 35.368-16.851 8.236 3.564 19.798 7.177 30.052 9.858 8.232 2.152 14.926 3.371 20.291-1.114 4.513-3.777 7.349-7.327 8.402-13.433 2.502-14.459-1.64-34.542-1.544-43.108 3.781-5.918 11.257-17.339 15.66-28.548 2.267-5.763 1.64-9.487 1.095-15.679-1.085-12.29-4.428-18.463-9.424-23.141-.469-4.197-1.582-9.237-2.847-11.861-1.421-2.956-4.214-6.685-6.993-9.554-.689-2.899-1.967-8.504-5.01-12.077-4.688-1.018-8.971-2.335-12.907-3.276-2.064-12.173-4.427-27.143-8.46-41.603a186 186 0 0 0-2.131-7.057c-.931-2.889-.892-5.743-1.925-8.551-2.021-5.513-1.351-11.107-3.468-15.612-2.112-4.505-6.781-10.021-8.957-12.814-1.576-2.389-2.121-5.061-3.439-7.915-2.705-5.846-5.918-12.463-8.666-18.951-2.985-7.046-6.738-13.976-10.409-19.557-1.925-2.923-3.868-4.939-6.53-7.1-3.014-2.449-6.854-5.445-10.818-9.819-5.161-5.696-7.929-13.698-10.23-15.241-2.811.295-4.658-.368-6.627-1.732-1.557 1.853-2.696 3.184-3.891 5.316-3.14-8.913-7.057-12.01-9.763-13.293-2.879-1.365-9.284 1.611-13.089 7.071-6.95 3.53-15.699 6.95-22.172 8.797-15.444 11.975-35.864 24.179-53.802 28.388-17.272-11.936-34.548-21.743-51.819-33.68-4.992-1.759-10.196-2.077-15.419-2.208-17.065-.434-34.355 6.072-45.207 12.535-4.992 2.976-9.767 8.401-12.28 14.773-4.187 10.625-3.631 23.883 1.385 32.835-3.859 8.754-.425 15.647 4.813 17.615 2.045.771 4.374.641 6.646-.207 4.645 7.494 5.576 15.916 3.888 23.064-1.799 7.605-7.611 14.266-13.534 19.171-4.833.491-7.162-1.244-8.035-5.002-.873-3.762 1.857-9.366 4.258-16.61 1.004-3.035.256-3.666-.747-3.652-5.677.069-9.849 2.442-13.158 4.582-8.079 5.239-7.022 8.378-8.469 15.488-.328 1.606-2.975 2.155-3.983 3.246-1.014 1.094-1.148 2.189-2.34 3.236-2.006 1.523-7.866 3.097-9.733 1.717-5.865-4.939-11.455-15.772-15.313-21.232 3.009 10.601 8.248 18.27 12.317 24.077-.761 1.143-2.319 3.964-3.081 5.108-2.073 2.446-13.321-11.267-21.173-22.784 3.501 10.528 11.846 18.873 17.706 25.952 1.263 1.53-2.046 5.514-3.729 4.473-11.793-7.285-22.886-23.133-31.943-36.199 3.897 10.394 19.664 29.769 29.415 38.658 3.049 2.773 2.601 6.004 1.935 8.773-1.274 5.29-1.447 11.079-3.536 17.136-18.65 4.66-32.222 6.824-52.268 10.293 16.916-.299 35.895-2.137 51.347-4.5.382 2.546 1.93 6.289-.907 7.543-14.565 6.449-32.029 10.558-56.536 11.672 22.245 2.556 38.638-1.857 55.016-7.302 3.411-1.129 3.502 1.774 3.276 5.054-.131 1.915-2.499 4.935-4.351 4.915-4.142-.043-12.631-.979-21.939-1.471 7.644 1.596 11.497 3.044 16.557 4.027 1.5.29 1.554 1.201-.516 1.669-16.881 3.849-39.713 2.633-55.281 3.048 22.609 2.658 34.334 1.982 49.879 1.36.791-.033 5.561-.322.752 2.291C-51.8-16.426-69.785-10.977-84.375-5.209c23.793-5.16 42.699-13.947 64.099-18.776 3.42-.772 3.246 2.624 1.929 3.873-7.909 7.495-15.737 11.132-26.55 18.096 11.238-.993 20.941-7.505 28.721-16.148C-10.842-13.769-.747-8.185 0 0" style="fill:#e27005;fill-opacity:1;fill-rule:evenodd;stroke:none" transform="translate(387.892 613.485)"/><path d="M0 0c-2.798-3.12-9.053-6.033-15.415-8.188l-3.588-.02c-2.894-1.896-5.875-3.285-8.504-4.119l-.727.376c.226.815.274 1.63.154 2.445l2.296 3.593 3.342-.145c-.033 3.232-.275 5.35 1.939 5.972.511.144.829.058 1.679.086l.8 1.124 2.194.26-2.546-3.033c-.25-1.36-.435-2.734.271-4.066 2.782.974 4.914 3.4 7.576 4.356C-7.104-.129-3.81.159 0 0m-58.519 45.246c.149.964.329 1.923.627 2.875 1.038 3.274 2.035 6.443 3.603 9.366 2.012 3.757 4.747 7.104 7.341 9.733 7.929 8.035 18.704 21.863 29.981 31.398 8.522 7.21 17.608 13.027 27.004 18.54 4.75 2.793 9.588 5.113 14.468 7.591 3.618 1.838 7.004 3.792 10.399 5.441 3.294 1.597 6.603 2.903 10.163 4.191 7.51 2.72 15.497 4.592 22.958 5.156-5.99-1.731-12.01-3.684-12.825-7.515-2.195-.93-4.215-3.906-3.815-4.837 2.754-2.634 14.151-3.757 24.361-3.188l1.062-1.63c-6.049-1.659-13.361-3.507-19.413-4.306-4.322 1.595-5.653 4.934-12.565 3.935C17.079 115.87.028 107.029-7.037 101.704c-2.59-1.958-5.841-4.686-8.518-7.479-3.438-3.594-6.168-7.289-7.732-9.565-1.098-1.596-1.769-2.812-.63-4.9 1.89-3.454 4.817-6.912 6.708-10.369q.898.793 1.794 1.596l4.389-.203c1.462-4.388 3.236-6.926 6.69-8.122l-2.87-7.688c-2.036-5.44-7.673 2.72-10.418 6.313-3.105 4.071-12.105 7.76-17.339 6.705-11.02-2.219-16.76-10.495-23.556-22.746m280.284-186.307-9.111-29.122 2.075-12.153 2.107-4.818 5.726-6.565 4.789 22.143v7.38l-3.193.597-.598 22.939zm26.184 31.717c-1.262-1.325-1.953-2.459-1.943-3.989l.092-13.162c-1.177-4.996-3.747-8.878-18.376-8.899.632-6.712.458-12.911.024-19.628 2.454-6.464 4.292-11.765 4.278-17.702-.009-3.111-.598-6.231-1.462-9.361-.587-2.143-3.458-3.671-2.488-6.623 2.484.01 6.14 1.872 6.43 5.133.688 3.732.438 7.996.959 11.879.351 2.657 1.514 5.058 2.874 6.8.203 2.663-.916 8.31.382 10.471 2.329.916 4.489.222 6.819-.994l4.805-.192c.78 4.447-1.526 9.293-.45 12.544.455 1.366 1.548 2.464 2.977 2.654 1.547.202 2.763-.149 3.814.883 1.636 1.594 1.539 2.805 1.333 5.969-2.814 3.092-8.78 7.872-8.78 12.912v4.326l1.154 1.693c-.627 2.436-1.284 4.187-2.442 5.286m55.509 140.723 1.212-11.551c.129-1.22.304-2.401.636-3.476 1.239-4.048 3.284-6.498 6.024-10.545.131-6.482-.434-12.188-1.399-19.972l-1.225 1.341c-1.307 3.887-2.976 12.352-4.992 15.602-1.533 2.479-2.999 3.59-3.984 5.442-1.538 2.892-1.919 5.946-1.094 8.271zm-23.131-51.046c2.316-2.398 3.353-4.486 5.334-7.289 1.187-1.673 2.87-3.366 4.043-4.987 2.387-4.596 3.877-8.296 6.761-12.294.43-.593.559-3.154.902-3.81l-5.388-.453c-4.456 2.691-6.799 4.336-8.657 8.03-.973 1.933-1.147 4.838-1.75 6.897-1.148 3.912-2.885 8.469-3.613 12.834-.197 1.201.944 2.542 2.368 1.072m-13.283 26.42 4.833-13.365 13.321-9.574 8.749-10.996 3.816-14.363 2.593 3.337-7.581 21.231-16.551 13.355-8.842 10.351zm27.728 15.279c.117-3.554-.969-8.064-1.153-12.375-.154-3.57.425-7.004 1.844-9.632l10.851-20.122.107-1.703-37.529 34.658c6.183-.352 11.85-.284 16.205 1.318 4.095 1.509 7.447 4.949 9.675 7.856M-17.966-157.975c1.842-4.114 4.552-7.948 7.649-10.664 1.563-1.369 3.859-2.531 6.251-4.147 1.64-1.11 3.608-2.614 4.332-3.82-.025-4.646-2.808-7.819-1.549-11.031 1.471-3.738 5.98-6.979 5.904-10.499-.068-2.972-1.467-6.304-4.871-8.802l7.277-7.226c3.954-2.532 5.334-3.666 9.338-3.863 1.881-.092 2.523-.897 6.057 2.248-.756 1.012-2.001 2.315-3.303 3.048L7.5-206.205c.834 2.392 1.973 5.749 3.651 6.468 1.678.713 5.748-2.619 7.186-1.511.733.569 1.115 1.616 1.115 2.996-6.477 2.585-12.608 6.611-15.323 11.319-2.552 4.423.385 11.956-1.925 15.955zm8.435-52.654a98 98 0 0 0-2.686 1.529c-4.992 2.976-9.767 8.402-12.28 14.774-4.187 10.625-3.631 23.883 1.385 32.835-3.859 8.754-.425 15.646 4.813 17.614a8 8 0 0 0 2.585.501v.005h.559l.058-.005h.078l.081-.005h.034l.045-.005h.023l.058-.004h.005l.063-.005h.01l.081-.004.034-.005.043-.005h.02l.126-.015h.013l.048-.005.035-.005.081-.008h.015l.125-.02h.019l.044-.005.035-.005.028-.005.053-.009h.015l.061-.009h.005l.058-.01.02-.005.043-.011.039-.004.024-.005.058-.01.009-.004.063-.01h.01l.053-.014.025-.005.043-.005.038-.01c.56-.12 1.124-.284 1.683-.496 4.645 7.499 5.581 15.921 3.888 23.069-1.799 7.606-7.61 14.266-13.533 19.171-4.833.487-7.163-1.244-8.036-5.007-.873-3.756 1.857-9.361 4.258-16.61 1.009-3.034.256-3.661-.747-3.646-5.677.063-9.849 2.441-13.158 4.582-8.079 5.238-7.017 8.378-8.469 15.487-.328 1.606-2.975 2.15-3.983 3.246-1.014 1.095-1.148 2.189-2.339 3.236-2.007 1.519-7.867 3.097-9.729 1.712-5.865-4.938-11.459-15.766-15.318-21.226 3.009 10.595 8.248 18.269 12.318 24.077-.762 1.142-2.32 3.964-3.082 5.107-2.073 2.445-13.316-11.271-21.173-22.789 3.502 10.533 11.846 18.873 17.706 25.957 1.263 1.526-2.046 5.514-3.729 4.472-11.793-7.283-22.886-23.132-31.938-36.197 3.897 10.393 19.659 29.767 29.41 38.652 3.049 2.778 2.601 6.005 1.935 8.778-1.274 5.285-1.447 11.074-3.536 17.132-18.65 4.663-32.222 6.829-52.268 10.297 16.916-.299 35.895-2.141 51.347-4.5.382 2.546 1.93 6.284-.906 7.543-14.566 6.448-32.03 10.559-56.536 11.672 22.244 2.551 38.637-1.862 55.016-7.302 3.41-1.133 3.502 1.775 3.276 5.05-.131 1.919-2.5 4.939-4.352 4.919-4.142-.043-12.63-.979-21.934-1.47 7.644 1.596 11.497 3.043 16.557 4.021 1.496.295 1.549 1.201-.521 1.674-16.876 3.844-39.713 2.629-55.281 3.049 22.614 2.657 34.334 1.982 49.879 1.354.797-.028 5.562-.317.752 2.297-11.199 6.086-29.184 11.536-43.774 17.304 23.793-5.159 42.699-13.948 64.099-18.781 3.42-.771 3.251 2.624 1.929 3.874-7.909 7.494-15.732 11.136-26.55 18.1 11.238-.992 20.946-7.504 28.721-16.147 5.334 4.389 15.429 9.979 16.176 18.158-1.981 1.564-3.853 3.136-4.668 5.031-1.533 3.565-1.949 10.722-1.1 18.95 1.722 8.218 4.997 16.519 8.918 22.08.526.811 1.351-.014 2.151.521 1.631 1.095 1.9 1.785 4.066 2.784 2.436 1.118 6.829 2.492 9.607 2.705 4.22.328 18.265-3.492 23.768-8.358 1.543-2.813 2.586-8.764 2.196-12.294-2.422-5.73-6.778-10.765-14.49-15.588 2.928-.199 5.851.255 8.779 3.245-.617-6.299-2.176-9.289-8.498-15.839 2.281.453 5.092 1.548 7.074 3.289l3.02 4.511c.309 1.065.261 2.623.289 3.993.034 1.215 0 2.198.092 3.058.149 1.437.82 2.546 2.537 3.863 4.066 3.125 8.716 7.09 12.734 10.292l4.731-.772c-2.591-2.526-7.312-5.58-9.902-8.107 4.002.627 9.482 3.559 14.358 6.405 1.293.757 3.675 1.466 6.569.115 2.899-1.349 6.304-4.832 9.67-5.058 4.423-.3 7.433 4.07 17.262 4.345-5.546-5.673-13.032-10.066-20.359-13.736-4.701-2.359-9.867-2.499-15.014-4.143-5.835-1.862-13.6-5.769-17.131-8.942 2.102 5.069 5.58 7.837 8.913 10.909 2.214 2.041 3.921 4.202 6.646 5.779 2.908 1.679 6.878 3.091 10.722 4.23-4.674-.059-9.309-1.134-13.895-3.763-5.899-3.381-11.031-9.328-16.736-18.978-6.001-.439-13.939-2.619-14.253-9.574-3.438-3.661-7.818-5.754-3.443-11.479-1.597-1.997-3.439-4.679-5.832-6.675 7.023.357 12.016 4.818 17.918 8.397 2.31 1.399 5.056 2.378 7.679 3.356C1.466-4.591 14.465-1.061 28.234 2.866c-.665 1.263-1.133 2.783-2.489 2.917-8.777.893-23.242.671-35.116-3.815-.111.449-.03 1.65.458 2.05 3.304 2.677 13.085 8.518 19.963 9.642 3.453.569 6.342.766 9.791.182 3.173-.534 6.139-1.399 8.613-1.345 2.914.063 4.63 1.563 6.198 2.86l.14 6.01c3.694.637 5.387 1.649 7.335 4.466 3.995 5.768 6.623 14.965 11.947 18.404 1.293.835 2.591 1.323 4.008.797 1.25-.469 2.426-1.91 3.96-1.872 3.912.101 7.625 5.074 12.521 5.026 1.5-.01 3.13-.497 4.929-1.737.951-.621.458-2.835.554-3.887.088-.873.411-.911 1.004-1.171 2.956-1.303 10.061-4.515 18.878-8.605 8.243 1.466 14.078 8.218 15.241 14.315.337 1.764-5.263 4.258-4.385 7.302.792 2.748 3.502 2.657 6.912 3.217-4.355 7.283-9.511 15.063-10.375 21.647 8.619-1.164 16.751-1.868 21.642-1.698-.136-6.695-2.775-13.467-2.306-15.497.371-1.602 1.332-5.528 3.15-8.74.598 2.653.497 4.9 1.047 5.778 4.47 7.147 8.299 11.339 13.817 17.817.695.82 4.442-.15 4.785-1.172 1.225-3.651 2.044-6.622 3-9.506.579-2.991-1.625-11.562 1.645-10.621l9.28 2.667c3.35-.125 8.281.189 11.806.637 1.553.202 1.89 1.712-.651 2.214-4.172.825-9.872.367-15.014.781l-10.046 27.212c3.877 3.887 7.629 4.606 13.465 2.45 2.113-.782 4.876-2.287 7.852-3.661 1.158-.54 1.5-.608 2.827-1.235 1.456-.689 3.327-2.252 5.016-3.038 2.657 1.292 6.096 3.733 9.617 7.822l-3.565 2.933-7.35.116c-2.401.284 2.079 10.746-.916 15.921-5.678 9.796-15.867 17.672-25.172 24.182q1.2-.304 2.436-.631c15.405-2.957 31.867-10.152 40.793-14.388 2.47-1.171 4.018-2.748 6.189-4.2 1.687-1.128 3.616-1.847 5.681-2.59 1.442-.521 3.675.482 5.113-.112a363 363 0 0 0 32.55-15.336c-10.87 2.242-21.342 3.814-30.771 4.33 12.091-5.729 25.182-7.533 33.815-6.08l6.907 3.052c7.118 2.59 15.376 5.074 22.924 7.046 8.232 2.147 14.922 3.372 20.286-1.114 4.514-3.776 7.349-7.326 8.407-13.432 2.497-14.465-1.644-34.542-1.544-43.113 3.781-5.914 11.252-17.334 15.66-28.543 1.495-3.811 1.731-6.728 1.558-10.057a89 89 0 0 1-3.439 9.073c.294.386.628.819 1.018 1.331a19 19 0 0 1-1.244-.825c-2.007 4.48-4.438 9.029-7.303 13.645.633-2.759 3.034-9.488 4.964-15.675-.869-.941-1.495-1.915-1.905-2.937a20 20 0 0 1-.734-2.258l-.062.328c-1.82 9.449-8.041 21.911-10.64 27.925-6.411-9.453-13.298-17.377-21.612-20.656-1.862-.734-4.51-1.491-6.589-1.476-1.417.009-2.247.641-3.636.833-1.336.189-2.292-.41-3.671.252-1.263.613-1.659 3.873-.101 4.659l-10.316 8.614-11.522 19.263-10.737-.038-8.378 5.782-4.721-.477-7.78 5.985-8.677.397-3.936-3.864c-5.521.135-8.565-.092-9.83-1.023l5.369-1.173c1.624-.351-4.253-8.666-4.437-12.158l-.633-12 1.227-3.891-8.345 8.053-10.075 3.864c-2.229 1.297-4.037 2.499-7.404 3.294-2.43.579-7.915.294-12.207-.149 9.39-4.871 15.574-6.154 23.392-10.225 5.017-2.61 10.206-7.216 15.163-9.825l-.8-5.904 6.179-3.558c3.019-3.782 4.177-5.865 7.259-9.647 3.385-4.148 8.705-9.999 12.158-14.151-.535-4.572-.274-10.538-1.61-13.717-4.988 4.023-17.109 13.433-23.295 11.551-2.356-.713-2.933-3.062-2.524-5.874.246-1.684 1.072-3.54 1.461-5.305.463-2.079-1.022-2.504-.906-4.665.111-2.155 1.437-4.263 1.215-6.12-.178-1.461-1.321-2.783-2.184-3.848-1.66-2.055-3.367-2.972-5.103-2.229-1.915.819-5.204 4.254-7.494 7.013-2.288 2.758-3.585 4.852-4.959 2.995-.883-1.196-1.384-2.026-1.607-2.711-.681-2.127 1.526-4.322 3.135-5.324 1.225-.757 2.624-1.457 3.714-2.614 3.241-3.434 6.487-8.228 10.25-9.675 2.088-.806 5.787 1.953 7.876 4.539l2.966 28.952 21.515-14.247c-6.231-13.645-15.607-23.971-29.628-30.236-1.431-.642-.743-1.795.671-2.474l15.78-7.583-1.055-1.108-22.047-4.395 17.353-3.39c2.195-13.1 7.182-32.97 11.971-45.872l-5.306 42.476c1.419 1.514 4.289 5.074 6.044 8.393 1.751 3.317 2.581 6.95 1.602 7.485l-14.639 8.025 3.325 2.031c.413-.159.732-.472 1.252-.381 5.451.96 13.351 2.576 17.195.154l-.096-1.567 10.668-8.774c1.1-.685 1.317-1.558.255-4.331l-12.119-31.577c8.16 7.125 14.126 13.458 22.085 21.98l-3.937 32.077-30.317-2.994 17.175 13.866c-2.267 8.628-1.944 14.88 2.174 17.653 2.229-3.54 3.904-5.228 6.695-5.561 3.165-.382 6.677.984 9.662 3.367 1.996-5.219 5.184-9.444 4.986-13.467s-5.783-4.851-7.582-8.474l6.584-30.723c1.143 8.642 1.789 22.678 3.987 27.53 3.228-3.785 2.9-13.886 4.367-22.992.622-3.843 2.054-7.678 3.414-10.518-.067 4.851-.53 8.507-.795 12.766.1 1.36 2.391 2.923 2.492 4.288.097 1.36-2.594 3.322-2.492 4.688.265 2.325.332 4.056.598 6.381 2.233.053 3.92-2.707 5.377-7.476 2.276-7.437 5.2-19.308 6.589-25.036-1.264-4.057-6.213-2.089-6.58-6.184-.39-4.326 2.393-4.655 3.391-6.983l-8.18-32.316c-1.514 1.134-2.754 2.195-3.766 3.203-1.366 1.36-1.973 3.657-2.623 4.847-1.438 2.628-1.792 3.921-1.685 6.372.136 3.101 1.047 4.952 2.185 8.262l-.028 17.676-3.974-5.121-.878-7.313-4.694 5.721-.8 2.695-1.953-.26c-1.24-10.182-4.076-16.885-3.718-29.86l-1.805-6.004-5.382 13.745-.204-7.659c-4.595-4.013-8.049-4.658-14.044-7.075-2.18-5.918-1.09-10.784-3.617-18.386-2.224-6.703-7.274-12.149-7.105-21.11.213-11.213 6.425-13.177 7.785-20.605 1.36-7.423-1.852-11.343-3.618-18.437-3.887-2.012-5.391-3.348-5.555-6.421l-.97-.043c-3.781 4.167-5.219 16.861-7.514 24.593l-.81 29.744-7.476 5.396c1.177-13.63 2.869-27.949 5.599-41.585-5.055 9.314-11.715 23.61-15.771 35.114l3.111-30.015c5.016-8.03 8.04-10.963 13.857-17.001l-4.091-11.117c-.993-2.706-3.433-3.695-5.127-3.512-2.821.304-5.426 3.863-9.376 8.156-5.936 6.449-12.694 14.527-14.893 16.384.251 5.851.945 11.701 1.861 17.552-2.47-.126-3.978.878-4.856 2.628-1.327 2.642-1.92 7.35-1.564 12.15.488 6.573 1.829 12.259 1.534 17.218-2.55 5.401-5.812 12.516-9.742 16.876l-1.485.058c1.191-9.347 1.803-17.364.916-26.195-1.784-1.505-1.49-4.48-.184-7.297l4.346-9.386c-.858-4.866-1.771-12.449-4.948-13.322-.926-.255-2.126 2.191-3.516 4.482l-.285 3.092c-2.103 3.356-4.549 4.827-7.847 6.39l.348-3.068 12.356-18.622 1.924.01 4.673 12.005.724-.754-1.292-16.359c2.364-5.406 7.534-10.808 16.813-16.21l-18.988 6.584-9.85 7.055-6.067 3.931c-.926 1.361-1.161 5.48-1.814 7.1-1.596 3.806-4.456 10.259-7.335 15.102-2.469 4.152-6.487 8.497-10.389 11.396-3.033 2.252-6.019 3.006-8.112 6.082-5.315 7.814-1.703 11.821-4.905 16.621-1.506 2.257-5.046 4.137-8.006 5.71-1.346.709-2.026 1.36-3.3 1.953.227-1.172.525-2.349.632-3.526.246-2.589.255-5.189 1.38-7.793 2.103-4.872 5.107-5.566 7.046-14.566.671-3.112.024-6.647-.27-9.946-.298-3.299-.298-6.376-.584-8.599l-1.47.111-.502 10.953c-1.226 3.14-8.668 5.088-9.887 8.223-1.574 4.038.53 7.982 2.348 12.618-1.143 2.927-4.129 4.191-5.377 7.264-1.409 3.458.727 6.848-3.053 11.594-.44.55-.329 4.244.332 7.683l-9.974-18.549-33.51-35.113-29.344 2.904-27.704 18.844.517 12.535c-1.457-.342-2.775-1.022-3.99-2.242-.718-.719-1.311-1.548-1.814-2.325-1.138-1.776-1.543-4.192-1.379-6.626.281-4.255 3.338-8.972 9.617-16.004l-5.083-8.026c-.67-1.061-1.148-1.948-.395-3.526l4.582-9.592c.559-4.114 1.818-7.51 3.004-11.615a86 86 0 0 0 1.659-6.791zm-6.482 26.764 6.781-6.66c.478-.873 1.197-3.024 1.587-5.741.26-1.837.3-3.592.541-5.739.352-3.135.936-6.709 1.664-9.351 1.962-1.592 4.07-2.538 6.53-3.334-3.149 4.023-4.882 7.419-5.204 10.852-.198 2.06.656 3.921.468 6.56-.096 1.345-.68 2.657-.897 3.993-.588 3.618-.319 7.968-.681 11.61-.221 2.184-.8 3.448-1.412 6.014l-8.407-3.816c-.927-1.33-1.365-2.792-.97-4.388m92.242 38.136c3.255-4.119 6.183-12.4 7.823-19.943 2.059-2.228 5.238-2.904 7.504-4.89 2.305-2.022 3.125-5.326 2.518-8.287-.66-3.231-2.431-6.679-1.717-8.542-2.86-1.196-4.576-1.741-7.037-3.936l1.201 5.986-8.045-11.233-5.666-6.27c3.824 9.445 8.729 20.17 9.848 25.509 1.148 5.494-4.698 5.291-4.861 7.554.438-7.992-1.144-11.051-6.637-13.192.467-10.841.762-23.436-8.017-29.551l-15.323-6.329c3.059 2.196 6.257 4.718 9.18 6.927 3.66 2.774 7.716 7.63 8.569 11.981 1.053 5.353-1.918 8.34-1.774 12.251.144 3.917 3.26 6.843 3.598 10.05.415 3.99-2.388 4.207-3.289 6.237-.705 1.573.477 3.044 1.668 4.215 5.649 5.556 8.792 13.288 10.457 21.463m32.512-25.023c1.776-2.613 2.629-4.046 3.087-7.06.453-3.01.511-7.427.169-10.843l12.631-6.009c-4.625 10.524-9.8 19.51-15.887 23.912M9.255-183.229c5.523-.795 11.383-2.112 16.905-2.912 3.724-2.923 7.616-6.368 11.344-9.295 0-1.263.343-2.006.343-3.269 5.517 2.937 5.449 6.322 7.572 9.66 1.432 2.247 5.817 3.4 7.423 5.527 1.253 1.649-.088 4.5 1.162 6.155 2.127.8 4.428 2.459 6.555 5.054-.612-9.994-3.995-9.477-4.804-14.282-.714-4.233.935-9.472.217-13.711-2.127-1.196-4.602-2.914-6.728-4.109l2.286-4.939c-1.225-4.505-7.867-9.092-12.284-10.808-4.192-.29-6.999-.238-11.191.164 3.845 2.15 6.58 3.968 7.375 5.69 1.023 2.214-1.639 4.345-5.681 6.42l-8.088 13.871c.549 1.62-.329 2.557-1.824 3.169-1.876.767-5.03.588-7.181 1.187-2.986.834-3.955 3.491-3.401 6.428m112.678 308.273 24.342-7.712c1.076-.338 2.652-.898 3.081-3.613-1.626-1.235-4.374-2.58-6.255-3.954-1.514-1.105-2.465-2.166-1.823-3.671l4.485-10.572c3.704-.695 7.756.211 11.466 2.71l-3.74 3.525c-.375.353-.149 1.217 1.096.971 4.346-.859 9.457-2.601 15.352-3.883.39-.087 2.165.005 2.556-.077-2.561 1.741-3.684 2.619-4.453 4.335-1.817 4.061-1.852 10.9-3.54 13.22-1.05 1.452-2.054 2.818-4.721 4.385l-10.625-.309-.199 4.442-15.799 2.749c-2.069.343-2.817.154-4.814-.477zm124.541-88.625c-13.177 2.967-24.95 6.107-30.376 8.779l-.347-4.669c4.195-2.364 8.769-3.911 13.476-5.204a160 160 0 0 1 8.468-2.089c3.691-.79 7.241-1.486 9.801-2.855.999-5.546-.053-13.678-1.022-19.027l-1.361-.111-11.98 10.471c-9.096-.338-16.712-2.025-19.958-5.026l.063-1.876c6.053-1.292 11.449-2.576 18.501-5.783.936-2.31 2.252-3.82 3.747-5.705 2.857-3.603 6.208-6.194 9.044-10.505l-1.476-6.902c-3.135 4.866-6.786 10.075-10.437 14.599 2.137-6.65 4.64-10.697 5.908-16.008.665-2.781.829-5.296-.63-7.08-9.271 1.008-6.469 15.189-14.253 23.465-1.983 2.112-4.82 3.838-8.06 4.861-5.079 3.858-9.728 9.309-14.99 16.36 1.056 4.761-3.989 8.035-2.932 14.99 1.07 7.047 8.223 14.209 10.567 20.17h2.392c9.372-4.142 28.042-7.663 33.902-15.077 1.35-1.707 2.204-3.365 1.953-5.778m5.585-1.036-3.718-54.134-.604-.126-.096-1.099c3.874-5.138 9.786-9.589 17.382-13.665l-1.794-7.282-.574-8.976c4.587-4.418 8.845-12.077 12.366-26.873l-.795 29.27 1.345-.819-.066-.729 5.594-1.447c-1.727 15.912-5.195 24.178-7.914 29.314l-.913-.033c-3.462 5.594-7.557 10.528-12.082 15.593-.438 5.913 1.327 11.821 3.555 17.734-5.889 6.96-7.793 15.515-11.686 23.272M89.858 108.221 49.219 89.136c6.42 1.172 12.231 1.761 17.263 1.23 3.915-.415 7.359-1.573 10.263-3.222l17.619-.102c2.483-.347 3.467-2.792 4.079-5.759.589-2.845.117-5.569.57-7.152.351-1.235 1.732-2.976 4.288-1.152l-1.389 12.259c-1.24 2.234-1.447 4.636-1.655 6.864 1.91-2.493 3.477-4.987 8.102-7.481 3.294-.916 7.38-1.524 9.878 1.949l-10.958 7.48c-2.662 2.045-8.295 4.592-10.908 5.61-2.205.858-4.883.043-6.209 1.505-1.384 1.519-1.108 3.588-.304 7.056M7.398 62.445C6.033 58.023 3.419 54.569.477 52.123c-.97-.81-1.779-1.374-3.029-1.683-1.592-.386-2.575.487-1.91 2.986.723 2.715 1.915 5.02 3.584 7.312 2.599-1.733 5.412-.357 8.276 1.707m51.097 4.548C53.941 63 50.401 58.914 47.709 54.651c-.848-1.346-2.619-1.963-4.287-1.708-2.142.328-4.678 1.718-6.145.936-2.594-1.384-2.479-3.613-4.673-5.657-3.666-3.415-11.107-8.026-13.905-8.711-.251-.058-.502.255-.429.502 2.488 8.469 7.895 13.952 10.152 16.36 1.37 1.461 3.101 2.7 5.026 3.434 3 1.148 6.478 1.316 9.82 1.113.656-.038 2.469 1.048 3.115 1.516 2.624 1.9 6.955 5.521 12.112 4.557M-4.543 40.861l9.472 9.073 1.1 2.401c2.392 1.144 4.08 2.678 4.34 3.097.686 1.095.478 2.783.85 5.079l1.596 3.689 8.976.599c3.655 1.663 6.443 3.525 11.696 4.987 1.394-3.757-.339-5.971-3.421-7.081-3.327-1.195-10.918-3.072-12.775-4.538-1.693-1.336-.531-6.034-1.173-8.836-.704-3.073-5.088-5.836-8.194-6.574l-12.169-2.889c-.835-.203-.921.396-.298.993m-1.293 41.596c.222-3.937.111-6.884.478-9.098.703-4.258 2.899-7.803 4.706-8.758l5.142 9.274c1.76-1.991 3.767-5.618 4.732-10.272l1.099 2.193.599 11.133c.072 1.331.694 2.667 1.992 3.529l.202 5.986c-7.939-.009-13.409-.858-18.95-3.987m57.549 33.21-1.297-1.1c-3.059-.862-7.191-1.658-10.732-2.416-3.535-.757-7.182-2.073-10.645-2.778-2.507-.506-5.27-.578-7.35-1.258-2.677-1.148-4.727-2.46-7.224-5.06-1.67-1.731-2.669-3.844-2.557-6.54l.207-4.982-8.281.197-1.293 2.596H.246l-.863-2.036-4.096-2.802-4.316-.55-2.893-6.086 2.295-1.896 2.392-7.38-8.677-1.297-2.691 7.385c-1.041 2.849-.439 5.512 1.722 7.939 1.673 1.89 4.529 3.641 6.753 5.223l1.996 5.088 8.874 3.091c2.297 1.997 4.82 4.828 8.079 6.386 2.575 1.225 7.568 2.383 11.648 3.743 7.042 2.353 14.667 5.31 17.778 5.131zm38.17 7.953c2.263-2.43 2.725-5.261 3.193-7.292-3.391-3.786-6.82-4.982-11.942-5.247l-4.587-3.502-8.769-1.288c-5.918-3.057-14.883-8.459-22.895-11.729-1.403-.575-2.966-.53-4.364.067-3.454-7.644-7.018-9.535-16.925-10.798-1.915 4.856-2.184 9.535-2.503 14.391 4.279 4.192 9.453 1.886 14.898 3.112 3.487.79 6.093 1.852 9.719 3.762.493 1.056 3.304 4.509 5.194 5.367 6.753 3.063 14.503 3.338 21.256 6.401 1.596 1.129 2.846 2.262 4.268 3.39 5.002-1.92 9.541.945 13.457 3.366m3.965-54.524C89.29 77.01 76.446 82.46 64.175 85.056L42.568 80.16l-1.809 6.583c-8.686-3.925-16.595-5.45-24.192-11.199-1.732-1.307-2.671-5.174.044-7.071 6.505 1.525 13.123 6.049 18.231 10.573l1.336-.26 6.853-11.991q6.686 4.89 17.359 8.18c8.045.063 18.627-2.753 33.458-5.879m6.834-5.888c-15.381 2.396-20.262 2.729-28.186 1.644-4.625-.632-11.769-2.378-12.501-7.143-.243-1.583 1.852-3.174 3.641-5.383 7.317 3.863 17.618 6.935 24.385 4.607 4.939-1.698 8.609-11.827 10.427-15.725.734-1.566 3.873-1.181 6.414.131 2.543 1.312 4.482 3.555 4.198 4.312-2.798 7.461-4.919 12.236-8.378 17.557m-21.883 77c9.574 1.437 24.338-.13 34.707-.643 2.668-.129 5.287-.24 7.929-.39 10.105-2.315 19.929-5.893 25.524-6.555l4.293-2.845c-4.119-1.176-11.513 1.385-17.19 2.243-4.413.67-8.532.627-11.807.197-6.202-.81-10.263-3.082-14.618-7.171 6.26-3.459 14.898-5.754 23.367-8.658 2.195-2.262 4.939-5.561 5.981-7.818l-22.129 2.113-1.065-1.534 25.19-9.237c2.46-4.524 5.268-10.186 4.269-13.909.931-.599 4.129-2.99 3.14-4.948-.825-1.635-3.414.111-5.131.617-1.303.385-2.605.106-3.839.67-6.483 2.976-14.48 9.448-20.982 16.37-9.969-1.384-17.506 4.476-17.497 8.806.009 4.433.038 7.742-.521 10.264-1.428 6.458-4.799 7.847-8.093 10.095a12.7 12.7 0 0 1-7.828 2.156c-3.97-.237-7.23-2.33-11.171-2.798-4.843-.574-11.093.815-14.531 3.193l7.123 5.397c5.667.652 10.186 2.358 14.879 4.385M-25.283 19.867c-2.021-2.678-2.571-3.179-3.684-5.904-2.133-5.209-1.621-12.177-5.489-16.982C-33.159.969-32.552 9.67-30.771 14.07c.848 2.102 2.594 3.997 5.488 5.797m342.044-4.51c1.046-3.468 1.876-6.627 2.068-8.624C317.513.956 315-6.419 313.882-10.002c.559 7.697.848 12.139.448 16.716.486 2.533.911 5.045 1.814 7.249.221.54.423.995.617 1.394M180.345 118.952l22.866-36.318 12.593-9.564-.222 2.436c-.203 2.151 2.117 2.667 3.752 2.483 2.547-.284 5.263-2.748 9.556-2.966 1.103-.058 4.582.853 5.994 1.693l12.415 7.35c-9.299-2.932-17.865-3.163-25.694.681-7.833 3.848-14.935 11.262-21.303 21.893l-6.068 2.984-2.478 4.837zm-33.386-81.506 11.31-6.288 1.51-.483C170.555 18.839 181.67 5.624 192.44-6.212c-7.446.131-16.103.266-23.55.4-.665-11.107-.203-15.626-2.662-19.553-2.924-.795-8.961-1.591-10.09-3.188.063-2.527 7.032-2.261 9.091-5.787 1.93-11.271 9.685-24.154 19.061-33.829-1.124-2.657-5.715-2.73-8.546-3.184-2.947-.476-2.315-1.452-1.217-3.337l9.324-14.194 3.931-16.268 1.071-1.4 1.084-27.51c-1.813 5.075-3.028 12.139-4.841 17.209-3.57 9.974-6.724 20.343-10.452 29.778-1.245 3.139-3.087 5.296-4.317 8.478a580 580 0 0 0-5.267 14.083l-3.545 2.447-3.631.438.472-3.626c.342-.908 1.028-1.124 1.37-2.032 5.127-13.586 11.247-29.443 15.159-42.838-10.658 17.199-13.669 18.154-18.396 25.577-2.064 3.246-.323 6.444-1.431 10.46-2.528 2.128-3.377 3.912.279 6.04-.13.796-.381.902-.517 1.702-14.56 12.067-29.122 22.452-38.699 26.676l-3.15 5.141-1.318-.008c-8.111-7.046-13.63-7.183-24.934-1.998-.603-7.287 5.841-8.831 13.832-11.84 1.366-.516 3.395-1.351 3.122-3.106-.175-1.119-.961-2.475-1.173-4.196-.343-2.749.771-6.429 2.638-7.394 24.559-12.709 32.325-16.698 44.614-27.718.931-1.948 2.242-4.316 1.746-5.899 3.216-7.066 6.897-12.472 10.621-21.232l-1.115-.724c-.593-.384-9.67 8.688-14.324 12.175-3.792-6.115-2.711-11.315-3.112-17.035-.819-3.975-7.648 6.232-9.703 2.864-.966-1.587-1.583-5.657-.709-10.288 1.355-7.223 2.84-13.233 3.882-18.51-2.325-1.862-3.018-5.663-4.147-9.521-2.127 15.564-5.373 24.772-9.87 25.027-2.864.163-5.159-.111-8.082-1.032-.159-6.516-.145-12.342.385-18.858l-1.673.684c-4.688 8.253-8.898 18.941-11.966 28.771-.916 10.331-1.64 19.254-3.424 26.396-1.895 7.607-4.554 12.488-9.149 15.839 2.677-.52 8.691.038 11.358-5.556 1.359-2.851 2.131-7.837 3.264-13.114 1.558-7.225 3.169-14.995 3.932-18.54 3.24-3.54 7.727-7.818 11.927-7.388 2.142.215 5.011 1.321 6.781 4.119 2.281 3.592 2.557 8.179 4.91 10.06 2.268 1.814 5.61.276 8.696-2.228.241 4.674-.488 17.975-1.418 23.127-2.412 4.306-6.569 10.716-8.358 11.633-1.245.641-2.904-.483-3.097-2.249-.246-2.266 1.123-5.594.526-7.586-.723-2.42-3.959-.323-4.968-2.036-2.18-3.717-4.736-7.417-6.371-10.72-2.634 1.505-2.715 4.6-2.185 8.271.772 5.363 2.89 11.952 2.726 16.596-.17 4.687-3.507 7.264-6.826 6.747-9.076-1.407-19.668-2.994-23.26-.183-1.733 1.356-.054 4.785 1.08 5.861 1.456 1.383 5.121-.638 6.472.858 1.991 1.529 4.09 5.581 4.385 7.982.149 1.211-5.326 3.555-10.409 6.285-6.545 3.501-13.577 7.653-19.114 10.866-.13 6.25 1.462 11.986 1.327 18.236 7.128 1.756 13.301 3.709 29.054.761 2.088 1.163 2.869 2.104 5.301 2.214 3.588-1.731 6.317-2.593 9.905-4.325 2.98 2.339 7.65 6.989 7.616 10.398-.028 2.653-1.639 4.968-5.218 7.018 1.119 3.091 3.121 8.589 2.459 12.217-2.729-1.264-7.205-3.164-11.527-1.833-.134.531-.269 1.409-.399 1.938 3.655 1.915 7.085 3.835 10.543 6.439-.038.966.071 4.043.688 5.523 2.717 3.309 7.36 6.414 9.633 8.223 1.36 1.08 1.591 2.103.525 2.209-5.913.599-12.299.521-18.014 0 8.112 3.752 16.051 5.918 24.164 6.849 2.001-10.182 3.372-26.257 1.37-25.798-4.872 1.119-7.752 1.036-10.679 1.398-1.794-4.919-1.654-8.806 1.737-13.726-2.59-8.643-3.362-13.018-3.762-22.857L146.8-35.218l-20.295 4.153c-.131-8.512 5.363-7.437 12.41-8.768 4.456-4.784 20.241-20.508 20.305-12.637l.106 13.447c.015 1.422.526 2.672-1.887 3.477-2.146.719-5.44.926-9.038 3.502-1.47 1.052-2.97 2.701-4.422 4.693-1.129 1.553-1.192 4.182-3.256 5.18.945.535 2.301.699 3.849.077 1.365-.554 2.879-1.833 4.383-2.378 2.105-.762 4.979-1.162 6.566-.463 3.924 1.718-10.698 20.494-12.497 23.802l5.131 1.302 16.361-11.965L156.871-.4c-.667 2.527 3.303 4.192 21.79-2.262l2.359-.033-18.501 15.631c-4.655 7.717-10.905 16.798-15.56 24.51M120.22-29.059c-11.725 8.509-34.557 7.105-40.485 5.176-3.964-1.293-1.075-3.68.203-4.389 5.527-3.072 12.091-5.561 18.496-5.865 1.11-.053 3.931 1.017 6.053 2.113 2.123 1.098 3.545 2.223 5.306 2.271 4.635.13 5.83-2.026 8.193-1.799 1.014.096 4.82.613 2.234 2.493" style="fill:#1b2e33;fill-opacity:1;fill-rule:evenodd;stroke:none" transform="translate(443.17 607.254)"/><path d="M0 0c1.791 0 3.931-1.698 3.931-3.96 0-2.793-1.452-4.139-3.588-4.139-1.963 0-3.584 2.388-3.584 4.481S-1.446 0 0 0m126.491 96.249c-7.911-4.278-12.651-5.007-17.576-4.934-7.677.111-13.345 4.851-12.414 12.621-.796 1.168-1.79 1.597-3.352 1.794-2.156-3.188-6.31-13.355 3.598-18.862 2.17-1.205 5.19-1.534 8.889-2.257l-8.932-2.533c-10.062 1.544-13.789 2.118-23.421-4.248 3.134.554 7.696 1.933 11.286 1.857 7.012-.155 13.992-1.612 20.681-1.969 5.542-.299 10.861.276 15.906 1.413 6.381 1.438 14.735 4.592 19.095 13.432-2.258 3.373-5.238 3.792-8.71 2.012-2.451-1.254-4.799-3.333-6.902-5.094-2.132-1.784-4.432-3.597-7.924-4.494-2.895-.748-4.197.626-4.187 1.992 4.655 1.862 9.907 3.78 13.963 9.27m-10.644 19.355c-1.781-1.809-3.801-3.372-6.912-4.389-.092-2.411-1.018-4.62-.126-6.131.869-1.47 4.978-5.222 6.001-5.594 1.91-.695 5.69 4.674 3.757 9.878 1.292.564 4.205.071 7.1.106-2.272 2.474-5.673 5.589-9.82 6.13m-95.903.926c.689-2.074.593-2.532.284-4.167-.4-2.117-2.098-5.348-4.562-8.084-1.007-1.119-3.072-2.026-4.673-3.337.217-7.766-3.912-7.891-8.552-8.268l-.179-3.428c-1.253-.564-2.368-1.366-3.409-2.547-2.142-2.422-3.319-4.08-6.16-8.242l-.453 1.905c1.123 1.587 1.963 2.695 2.798 4.33.646 1.274 1.085 2.697 1.113 5.079-2.633.092-5.589 1.853-7.798 4.737-2.504 3.264-4.615 7.972-4.602 13.33.015 3.647 1.606 7.746 3.478 11.509.42 1.085.381 1.89.699 2.512.314.627.994 1.076 1.457 1.447 1.668 1.331 3.525 2.281 5.729 2.735-1.562-1.563-3.704-3.188-4.466-5.151 3.555-1.23 9.203 2.098 14.296 2.171 1.945.023 6.299-3.922 7.562-7.409-1.394-2.398-5.271-4.784-5.397-4.192-.212 1.028-.018 1.684-.385 2.601-1.095 2.763-3.144 4.798-5.705 4.489-5.88-.708-7.4-8.493-5.085-12.621 2.224-3.965 9.111-5.393 12.666-4.268 2.213.698 1.804 2.672 3.787 4.369 1.041.887 2.165 1.698 3.193 2.296 1.234 1.35 3.606 5.03 4.364 8.204m-29.098-4.616c-.965-4.322-.959-11.821 1.525-13.519 1.804-1.235 9.916-1.202 14.005-.372-5.416.083-9.578 1.124-12.14 3.469-2.56 2.343-3.491 5.72-3.39 10.422M132.076-19.54c1.528-8.377.395-18.886-3.391-31.518-7.476-9.111-13.871-24.892-23.363-38.499-7.616-10.927-18.192-21.655-28.302-24.018-9.83-2.295-21.043 1.293-31.784 6.352-6.467 3.044-12.815 6.564-17.787 10.443-3.102 2.416-6.723 5.57-8.296 9.428-1.099 2.697-1.235 6.217.245 8.793 1.376 2.387 4.096 4.248 7.819 3.617-2.349-2.392-3.092-3.839-2.999-5.894.192-4.326 4.938-8.695 11.309-12.399 6.275-3.647 14.074-6.84 21.873-8.875 7.331-1.91 14.701-3.141 19.592-1.891-6.217 7.963-8.542 13.293-5.185 18.599 4.056-2.905 6.636-5.123 8.99-6.257 6.014-2.903 7.543-.496 7.567 1.269l.077 6.222c17.402 1.447 19.259 8.497 18.502 16.355l4.177 2.682c3.13 4.533 8.272 13.678 10.398 18.587 1.211 2.788 1.717 5.596 1.008 8.398 4.124 4.918 4.631 11.691 9.55 18.606M37.403-33.304c9.791-2.986 19.973-5.435 27.366-5.759-4.62-6.849-5.883-14.619-5.185-20.706.044-.385-.028-1.427-1.543-.544-6.641 3.873-9.501 13.47-10.996 21.279-.275 1.436-4.615 1.457-6.974 2.301-1.621.573-2.552 1.48-2.668 3.429M-5.021-35.47c-1.287-2.581-.901-5.276 1.52-8.329 2.58-3.256 7.534-6.835 11.142-7.977.245-.078.723-.069.627.173-1.437 3.511-3.305 7.829-3.656 12.168-.387 4.751-6.869 4.303-9.633 3.965m-.144 58.219c6.617-2.725 13.451-3.723 20.599-2.194 7.876 10.616 11.021 20.793 18.945 26.686 9.569 7.114 22.837 10.563 35.831 9.936l-4.905-11.103-2.151-.212c-2.421-1.375-3.641.212-6.656 2.513-2.933.348-5.87-.168-8.807-1.028-12.622-8.14-24.573-20.96-30.279-30.636.839-7.678.169-13.905-2.239-19.186C12.618-8.099 7.992-12.59.623-15.95l.145-4.081c25.282-5.566 53.835-13.384 71.507-13.104 4.948.076 10.04 1.007 13.152 3.057 3.11 2.055 4.244 5.234 3.362 8.435l-8.523-.346-.4 3.448c6.472 3.231 11.638 6.034 16.061 9.43 2.652 2.04 4.003 4.639 7.278 6.978V.858c-8.262 2.31-5.127 8.093-7.606 12.395 4.056-.082 10.533-5.232 11.995-9.574 1.196 1.862 1.953 5.551 3.101 8.064 1.144 2.518 3.743 4.428 5.807 3.623l10.022-3.892 2.556.395-8.175 6.69c-3.193.862-6.756.226-9.058 2.594-1.224 1.259-1.596 4.814 1.384 4.071 2.422-.608 3.937-2.86 7.395-4.722l5.465-.174c-8.417 8.721-11.253 22.626-14.479 28.552-4.757 6.232-10.133 10.429-15.044 12.767H86.396c-3.453-6.25-9.063-11.29-15.877-13.286l3.492 10.316c.39 1.158-.352 1.938-1.563 1.996-16.143.806-29.31-2.705-38.396-8.339-11.32-7.012-17.599-17.584-23.793-28.789Zm112.493 24.762c1.635-.019-1.923 3.165-5.584 4.66-3.927-.058-6.826-.111-10.482-.169-2.338-.035-2.728-.435-4.47-2.036-3.169-2.913-6.42-5.865-10.944-8.14-.212-.107.14-.638.372-.701 5.146-1.306 10.282 3.864 15.332 6.859 5.721.097 10.959-.42 15.776-.473M71.532 41c-.898.42-1.766.299-2.826.054-2.422-.564-4.853-1.616-7.206-2.73-3.231-1.53-6.333-3.338-9.116-5.581v-3.709c-2.541-2.792-4.456-5.426-5.937-7.953 1.726-2.759 3.178-3.583 5.04-2.821q2.443 1.003 5.04 6.052c1.375 2.677 4.393 2.378 7.529 3.768l6.772 8.121c.833 1.901.772 3.102.704 4.799M43.563 18.164c-3.815-2.234-3.448-6.628-1.78-7.284 1.331-.526 3.092.554 3.694 1.847 1.423 3.073-.4 6.318-1.914 5.437m-5.489-6.859c-1.557-.878-2.43-1.756-2.797-3.107-.285-1.055-.26-2.536-.02-3.656.339-1.562 3.897.695 4.506 2.176.592 1.447-.329 5.358-1.689 4.587M35.527-4.352c1.066 1.989 6.618.599 5.316-2.325-.367-.814-2.441-1.397-3.908-.906-1.779.593-1.981 2.156-1.408 3.231m38.672 15.111c.564 1.057 2.392 3.387 4.693 3.85 1.799.362 3.322-.141 3.241-1.636-.164-3.009-3.125-5.094-4.659-5.296-2.972-.4-3.849 2.011-3.275 3.082m14.618 6.439c-.323 1.052.598 2.18 1.756 2.856 1.157.67 2.541.887 3.15-.564.342-.82-.387-2.07-1.717-2.846-1.62-.946-2.832-.608-3.189.554M83.859-4.019c-.327 1.051.569 4.148 2.325 5.518 1.057.824 4.939 1.143 5.541-.309.344-.815.984-4.186-.944-5.261-1.635-.916-6.565-1.111-6.922.052m-16.133-6.26c.275 2.054 1.833 4.321 3.001 4.973 2.647 1.471 6.674.714 7.085-.237.346-.814-1.731-4.162-3.064-4.943-1.615-.946-7.181-.993-7.022.207m.231-15.756c-.211 1.08.569 2.971 2.267 3.545 1.269.428 2.721.887 3.324-.56.342-.82.4-2.73-.994-3.39-.574-.276-1.668-.29-2.642-.266-.979.023-1.844.092-1.955.671M40.191-13.529c.787 1.397 3.618 1.751 5.498.714 1.283-.709 2.234-2.176 2.05-3.444-.269-1.829-3.573-2.527-5.512-1.891-2.398.781-2.914 3.058-2.036 4.621m14.89 2.03c1.437.435 3.573.237 4.991.043 1.278-.173 2.127-1.582 1.249-2.869-1.279-1.876-4.08-3.737-6.174-3.054-3.077.999-2.826 5.04-.066 5.88m-8.982 6.922C45.526-3.236 47.387-.301 50.19.805c1.981.786 3.443.217 4.071-.964.675-1.265.405-3.213-1.158-4.202-.912-.578-3.01-1.389-4.442-1.504-1.429-.116-2.209.463-2.562 1.288m13.592 6.655c-.531 1.356-.931 3.906 1.872 5.011 1.977.782 6.748.815 7.109-.478C69.844 2.421 67.491.539 65.06.149c-1.539-.251-4.578-.083-5.369 1.929m258.069 137.11a356 356 0 0 0-8.311-6.429c-3.1-2.33-6.245-4.461-9.351-6.728-3.111-2.261-6.189-4.485-9.16-7.003.243-6.381 2.234-11.904 4.202-18.285l8.484-9.177q3.188-1.295 6.386-2.591c5.777.608 11.044 4.076 15.515 9.02a48.9 48.9 0 0 1 7.115 10.297c5.247 10.104 6.775 24.756 6.973 36.048.184 10.89-2.118 19.957-7.467 24.539-3.858 3.3-7.894 3.565-12.65 2.04-6.343-2.035-14.098-7.563-21.241-14.131-7.254-6.675-13.88-14.748-17.769-19.741-1.599-3.193-2.217-6.077-.771-8.204.835-.853 3.536-.892 7.925.569 4.457 2.194 8.99 9.458 14.044 11.454 7.046.898 13.283 1.149 16.076-1.678M-13.142 27.336c-6.353 4.293-8.021 5.721-8.6 8.503-1.316 6.348 6.728 13.057 6.55 18.999-.087 2.865-3.694 2.025-4.857.395-2.204-3.091-4.611-5.629-6.993-8.006-1.982-1.973-4.003-3.695-4.659-6.444-.604-2.512-1.196-6.212-2.011-9.351-.922-3.56-2.032-6.609-1.964-9.984.077-3.821 3.93-6.932 3.358-10.216-.951-5.378-.865-7.51.463-11.932.516-1.727 1.195-3.56 1.751-5.18.708-2.088 1.32-4.288 2.3-6.308 1.268-2.634 2.908-4.834 4.741-7.514 1.827-2.688 3.854-5.683 6.584-8.87 1.427-1.665 6.24-1.053 8.656.786 1.877 1.422 2.365 3.429 1.833 5.054-1.74 5.349-8.989 13.376-11.344 16.558-.901 1.22-.163 2.093.599 2.392 1.857.733 4.132-1.129 6.386.101 1.87 1.023 1.923 2.73 1.195 3.888-.926 1.476-2.604 2.189-4.639 1.597-1.322-.387-2.32-2.06-3.261-3.165-.728-.853-1.427-1.297-2.218-.95-4.095 1.78-7.679 6.473-8.522 11.999-.84 5.528.11 12.666 2.98 17.997 1.708 3.158 6.685 1.48 11.672-.349" style="fill:#fff;fill-opacity:1;fill-rule:evenodd;stroke:none" transform="translate(404.397 538.198)"/></g></svg>