<svg xmlns="http://www.w3.org/2000/svg" width="706.749" height="924.184"><defs><clipPath id="a" clipPathUnits="userSpaceOnUse"><path d="M0 1080h1080V0H0Z"/></clipPath></defs><path d="M0 0h.394L33.79 54.787h60.991L47.783-10.6l51.395-74.212H35.186L.394-25.595H0v-59.217h-53.585V54.787H0Z" style="fill:#ee4427;fill-opacity:1;fill-rule:evenodd;stroke:none" transform="matrix(1.33333 0 0 -1.33333 112.052 631.117)"/><path d="M0 0h53.587v-139.599H0v50.219h-35.797v-50.219h-53.599V0h53.599v-48.185H0Z" style="fill:#ee4427;fill-opacity:1;fill-rule:evenodd;stroke:none" transform="matrix(1.33333 0 0 -1.33333 614.12 558.068)"/><path d="M0 0h63.682l35.574-13.378V-27.89H44.483v-18.764h53.111v-27.887H44.483v-41.325H0Z" style="fill:#ee4427;fill-opacity:1;fill-rule:evenodd;stroke:none" transform="matrix(1.33333 0 0 -1.33333 220.044 767.02)"/><g clip-path="url(#a)" transform="matrix(1.33333 0 0 -1.33333 -362.045 1186.667)"><path d="M0 0c-8.292-2.333-20.569-4.67-31.853-4.67-38.518 0-69.394 20.27-69.394 61.593 0 38.845 32.206 58.268 69.394 58.268 12.274 0 19.579-1.505 31.538-3.65V81.002c-7.305 2.305-14.766 4.31-22.259 4.31-18.92 0-33.187-10.141-33.187-29.048 0-19.91 13.277-30.052 31.697-30.052 8.136 0 15.944 1.678 24.064 4.485z" style="fill:#ee4427;fill-opacity:1;fill-rule:evenodd;stroke:none" transform="translate(648.142 201.532)"/><path d="M0 0c9.883-56.031-27.53-109.504-83.593-119.4-56.051-9.87-109.514 27.559-119.382 83.622 0 0 33.882-84.583 117.491-68.61C-7.006-89.377 0 0 0 0" style="fill:#231f20;fill-opacity:1;fill-rule:evenodd;stroke:none" transform="translate(644.233 416.745)"/><path d="m0 0 21.164.328 9.84-34.333L5.179-57.667-14.989-44.49S-11.995-21.502 0 0" style="fill:#231f20;fill-opacity:1;fill-rule:evenodd;stroke:none" transform="translate(455.251 454.362)"/><path d="m0 0 5.163 13.837h38.645l15.328-35.994-14.74-11.017S15.483-28.504 0 0" style="fill:#231f20;fill-opacity:1;fill-rule:evenodd;stroke:none" transform="translate(461.269 348.866)"/><path d="m0 0-21.17.328-9.823-34.333 25.824-23.662L14.999-44.49S12.003-21.502 0 0" style="fill:#231f20;fill-opacity:1;fill-rule:evenodd;stroke:none" transform="translate(630.237 454.362)"/><path d="m0 0-5.156 13.837h-38.662l-15.339-35.994 14.753-11.017S-15.498-28.504 0 0" style="fill:#231f20;fill-opacity:1;fill-rule:evenodd;stroke:none" transform="translate(624.237 348.866)"/><path d="M0 0s13.496.414 20.486-2.079l15.183-19.824L0-43.773l-35.655 21.87 15.147 19.824C-13.495.414 0 0 0 0" style="fill:#231f20;fill-opacity:1;fill-rule:evenodd;stroke:none" transform="translate(542.745 501.917)"/><path d="M0 0h19.671l13.837 39.047L0 61.551l-33.484-22.504L-19.669 0Z" style="fill:#231f20;fill-opacity:1;fill-rule:evenodd;stroke:none" transform="translate(542.745 375.308)"/><path d="M0 0c-.337-5.688-6.998-12.678-6.998-12.678s-8.329 2.664-10.663 10.663c0 0-6.332-5.994-19.008-5.004-12.655 1.016-15.986-11.974-15.986-11.974-9.331 0-12.66-9.012-12.66-9.012s-6.01 10.657-17.011.99c0 0-11.401-11.274-15.67.688-1.654 4.654-5.98 6.331-15.326 4.997 0-.012-4.326 7.649 11 15.642 0 0-4.662 17.683 16.666 18.679l9.002 1.339c-12.655-3.008-7.671 4.326-7.671 4.326-26.326-.996-12.991 9.325-12.991 9.325-23.663-1.333-17.324 8.014-17.324 8.014-22.001 0-14.668 7.991-14.668 7.991s26.664-6.338 52.991 6.676c26.334 12.992 41.001 17.654 55.647 15.986L-6.998 51.98s-3.329-15.985 9.332-25.99c0 0-5.192-8.438-1.675-12.333C6.996 6.659 0 0 0 0" style="fill:#ee4427;fill-opacity:1;fill-rule:evenodd;stroke:none" transform="translate(509.08 530.02)"/><path d="M0 0c-23.992-6.653 0-10.319 0-10.319 34.328-4.348 36.992 1.331 36.992 1.331s-.659-.338-.996 1.991C35.66-4.663 47.656 0 56.665 3.666c8.989 3.668 6.332 11.002 6.332 11.002s-.337-.674-5.673-2.672C44.003 6.998 30.969 9.331 30.675 11c-.68 3.668 8.987 7.334 18.656 11.659 9.662 4.348 6.998 12.34 6.998 12.34-5.007-2.333-9.991-2.993-19.337-3.667-9.325-.658-17.661-.323-17.661 2.327 0 2.674 7.333 4.334 19.996 9.333 12.655 5 9.324 12.992 9.324 12.992S35.66 54.653 28.663 54.33c-6.998-.337-17.998.996-17.998 4.325 0 3.346 11.136 2.894 20.332 6.676 13.006 5.32 11 12.998 11 12.998s1.011.337-7.669-1.002c-8.924-1.376-29.321 0-29.321 1.661 0 1.668 1.669 5.334 20.648 8.329 19.007 3.009 17.353 12.669 17.353 12.669s-14.009-.336-23.012-.336c-8.995.001-18.978.336-18.978 2.672 0 2.334 3.323 2.994 23.977 6.996 20.67 4.005 18.013 15.328 18.013 15.328s-19.667-1.334-29.335-1.334c-9.669.001-17.003 1.669-17.339 3.667-.337 2.007 3.666 4.34 18.334 5.995 14.667 1.677 21.328 4.348 30.331 8.336 8.995 4.005 8.659 7.334 9.668 17.676 2.378 24.652 5.665 37.986 5.665 37.986 8.665 37.329 25.331 52.992 27.323 55.327 1.998 2.327 15.005 11.659 7.993 11.996-7.027.336-19.037-6.569-24.315-12.333-11.001-12.003-13.672-22.324-13.672-22.324.995 26.664 19.989 43.651 30.667 50.326 10.65 6.654 12.003 10.321 8.336 11.331-3.666 1.002-17.675-1.333-34.677-15.342-16.988-13.993-25.654-35.651-25.654-35.651 2.671 22.002 9.332 38.66 21.328 49.66 9.419 8.609 13.994 13 7.655 13-6.323 0-20.654-.338-36.317-24.336-15.663-24-14.331-43.666-14.331-43.666-5.335 25.008-5.393 36.833 7.333 54.666 9.992 13.995 8.996 14.989-1.331 11.996-10.342-3.007-26.327-20.999-27.666-41.99-1.333-21.006 4.669-35.995 4.669-35.995s-6.998 2.993-15.011 20.669c-5.336 11.803-4.985 31.312-8.652 29.657-1.833-.823-11.996-10.328-8.33-30.338 3.654-19.988 23.657-36.325 23.657-36.325-17.998 11.997-56.658 31.663-61.657 25.325-5.035-6.374 14.324-23.32 14.324-23.32-50.978 8.997-9.647-16.994-9.647-16.994-45.664 6.996-10.005-15.335-10.005-15.335-35.996 6.325-9.003-11.996-9.003-11.996-30.337 1.998-3.667-12.332-3.667-12.332-8.771-2.102-11.581-4.504-11.582-6.716-.001-3.945 8.925-7.294 8.925-7.294-21.005-5.664 1.991-11.32 1.991-11.32-24.329-7.672 3.331-11.997 3.331-11.997-22.002-7.672 2.993-11.001 2.993-11.001s-21.987-5.33 6.016-10.665c0 0-21.68-8.672 2.994-12.339 0 0-16.007-8.989 7.669-14.332 0 0-16.679-6.652 7.657-11.324 0 0-12.999-6.329 11.001-9.66 0 0-16.329-9.331 11.001-11.659 0 0-22.325-11.001 11.995-11.682.001 0-20.325-9.661 11.674-12.99 0 0-16.336-7.334 8.996-9.669z" style="fill:#ee4427;fill-opacity:1;fill-rule:evenodd;stroke:none" transform="translate(373.434 587)"/><path d="M0 0c.315-5.688 6.99-12.678 6.99-12.678s8.336 2.664 10.67 10.663c0 0 6.331-5.994 18.993-5.004 12.649 1.016 16.001-11.974 16.001-11.974 9.311 0 12.662-9.012 12.662-9.012s5.988 10.657 16.988.99c0 0 11.402-11.274 15.67.688 1.675 4.654 6.004 6.331 15.34 4.997 0-.012 4.325 7.649-11.014 15.642 0 0 4.67 17.683-16.66 18.679l-8.995 1.339c12.665-3.008 7.677 4.326 7.677 4.326 26.327-.996 12.994 9.325 12.994 9.325 23.662-1.333 17.315 8.014 17.315 8.014 22.002 0 14.668 7.991 14.668 7.991s-26.642-6.338-52.982 6.676C49.99 63.654 35.322 68.316 20.668 66.648L6.99 51.98s3.336-15.985-9.339-25.99c0 0 5.198-8.438 1.674-12.333C-7.019 6.659 0 0 0 0" style="fill:#ee4427;fill-opacity:1;fill-rule:evenodd;stroke:none" transform="translate(564.049 530.02)"/><path d="M0 0c23.991-6.653 0-10.319 0-10.319-34.336-4.348-37.013 1.331-37.013 1.331s.672-.338 1.016 1.991C-35.682-4.663-47.669 0-56.665 3.666c-8.995 3.668-6.331 11.002-6.331 11.002s.328-.674 5.656-2.672C-43.99 6.998-30.968 9.331-30.669 11c.675 3.668-8.995 7.334-18.662 11.659-9.67 4.348-6.99 12.34-6.99 12.34 4.997-2.333 9.985-2.993 19.308-3.667 9.34-.658 17.676-.323 17.676 2.327 0 2.674-7.334 4.334-20.012 9.333-12.646 5-9.323 12.992-9.323 12.992s12.99-1.331 19.996-1.654c7.003-.337 18.003.996 18.003 4.325 0 3.346-11.128 2.894-20.324 6.676-12.993 5.32-11 12.998-11 12.998s-1.019.337 7.661-1.002c8.91-1.376 29.336 0 29.336 1.661 0 1.668-1.675 5.334-20.668 8.329-18.993 3.009-17.348 12.669-17.348 12.669s14.025-.336 23.02-.336c8.995.001 18.977.336 18.977 2.672 0 2.334-3.323 2.994-23.978 6.996-20.667 4.005-18.019 15.328-18.019 15.328s19.697-1.334 29.335-1.334c9.683.001 17.004 1.669 17.348 3.667.315 2.007-3.667 4.34-18.335 5.995-14.667 1.677-21.329 4.348-30.337 8.336-8.995 4.005-8.664 7.334-9.654 17.676-2.394 24.652-5.673 37.986-5.673 37.986-8.651 37.329-25.324 52.992-27.329 55.327-2.006 2.327-14.999 11.659-7.993 11.996 7.031.336 19.035-6.569 24.322-12.333 11-12.003 13.665-22.324 13.665-22.324-1.003 26.664-19.996 43.651-30.669 50.326-10.657 6.654-11.988 10.321-8.308 11.331 3.654 1.002 17.647-1.333 34.651-15.342 16.988-13.993 25.652-35.651 25.652-35.651-2.661 22.002-9.323 38.66-21.326 49.66-9.413 8.609-13.996 13-7.665 13s20.671-.338 36.341-24.336c15.654-24 14.323-43.666 14.323-43.666 5.313 25.008 5.399 36.833-7.333 54.666-10.014 13.995-8.996 14.989 1.33 11.996 10.342-3.007 26.327-20.999 27.661-41.99 1.331-21.006-4.657-35.995-4.657-35.995s6.99 2.993 14.983 20.669c5.357 11.803 5 31.312 8.667 29.657 1.818-.823 12.004-10.328 8.337-30.338-3.667-19.988-23.663-36.325-23.663-36.325 18.003 11.997 56.665 31.663 61.649 25.325 5.042-6.374-14.323-23.32-14.323-23.32 50.992 8.997 9.667-16.994 9.667-16.994 45.651 6.996 9.998-15.335 9.998-15.335 35.997 6.325 8.982-11.996 8.982-11.996 30.338 1.998 3.68-12.332 3.68-12.332 24.423-5.851 2.664-14.01 2.664-14.01 20.998-5.664-1.989-11.32-1.989-11.32 24.321-7.672-3.336-11.997-3.336-11.997 22.001-7.672-3.012-11.001-3.012-11.001s22.002-5.33-6-10.665c0 0 21.687-8.672-2.995-12.339 0 0 16.001-8.989-7.661-14.332 0 0 16.656-6.652-7.665-11.324 0 0 13.006-6.329-11.001-9.66 0 0 16.332-9.331-11.001-11.659 0 0 22.333-11.001-11.987-11.682 0 0 20.324-9.661-11.66-12.99 0 0 16.314-7.334-9.011-9.669z" style="fill:#ee4427;fill-opacity:1;fill-rule:evenodd;stroke:none" transform="translate(699.695 587)"/><path d="M0 0s-5.324 1.999-4.006 6.661c0 0-11.323 0-9.325 9.667 0 0-7.334.676-6.003 10.008 0 0-9.668-2.337-7.333 9.996 0 0-7.657 1.662-3.99 10.987 0 0-7.01 3.008-3.667 11.002 0 0-7.333 6.996-3.007 14.667 0 0-8.988 1.331-6.338 15.998 0 0-8.05-3.208-6.317 20.992 0 0-5.343 4.662-1.339 12.34 0 0-4.34-1.675-8.667 2.007 0 0-.994 8.993 54.668 34.985 0 0 2.312-3.332 13.32-2.336 11.001.996 18.277-.451 20.327-7.334 1.003-3.329-2.652-7.992-2.652-7.992s7.334.659 9.671-4.004c2.333-4.669 0-6.996 2.664-7.334 2.648-.32 2.32 6.998 12.662 6.998-5.914 0-1.362 4.032 9.323-6.66 5.001-5.007 3.352-7.993-.315-13.337 0 0 .659 11.339-11.344 11.339 0 0-3.667-2.328-2.992-5.336.658-2.994 2.664-9.99 2.664-9.99s-2.996-.675-5.673 2.333c-2.651 2.994-8.323 3.667-8.323 3.667s-3.336-4.003-3.336-9.346c0-5.336 2.333-4.002 2.648-8.665 0 0-4.325-3.317-12.331-1.34-7.993 2.013-13.652 4.01-21.314-7.319-7.671-11.316-7.349-14.002-17.34-18.672 0 0 14.653.337 20.995 11.338 6.343 10.986 8.005 12.34 16.341 10.663 8.337-1.668 9.983-2.327 12.994.666 0 0 .34-7.663-5.332-12.998-3.696-3.472-1.346-11.996-1.346-11.996l-2.649 1.669s-.331-8.666 1.331-13.329c1.661-4.668.662-9.668.662-9.668l-3.667 3.331s3.005-8.652.672-16.666c-2.337-7.994-3.998-8.652-3.998-8.652l-3.008 5.988s1.677-6.998-.659-15.993c-2.333-9.002-1.675-8.665-1.675-8.665L10.991 13s-1.719-2.98-2.995-6.003C5.332.665 0 0 0 0" style="fill:#ee4427;fill-opacity:1;fill-rule:evenodd;stroke:none" transform="translate(542.745 535.677)"/><path d="M0 0s7.238-32.236 26.749-80.729c19.494-48.493 26.241-64.994 26.241-64.994s-5 1.246-12.992-.243c-8-1.511-23.004-6.762-23.004-6.762s-17.44 23.362-30.488 83.751c-4.011 18.494-2.012 49.733-2.012 49.733 0 .001 5.357 1.26 8.508 5.751 3.488 5.005 3.989 26.241 3.989 26.241z" style="fill:#231f20;fill-opacity:1;fill-rule:evenodd;stroke:none" transform="translate(435.013 745.305)"/><path d="M0 0s7.749-20.257 29.249-20.257c0 0-11.753 10.256-7.757 16.001 0 0 12.247 8.509 3.502 21.744 0 0-4.756 8.336-12.626 8.336C4.505 25.824-4.506 15.998 0 0" style="fill:#231f20;fill-opacity:1;fill-rule:evenodd;stroke:none" transform="translate(422.014 476.85)"/><path d="M0 0s3.437-21.412-15.163-32.171c0 0 5.027 14.753-1.325 17.733 0 0-14.839 1.219-13.915 17.061 0 0-.057 9.581 6.746 13.534C-16.838 20.098-4.119 16.1 0 0" style="fill:#231f20;fill-opacity:1;fill-rule:evenodd;stroke:none" transform="translate(489.91 501.185)"/><path d="M0 0s-7.261-32.236-26.757-80.729c-19.493-48.493-26.238-64.994-26.238-64.994s4.998 1.246 12.99-.243c8.022-1.511 23.001-6.762 23.001-6.762.003 0 17.434 23.362 30.497 83.751 4.011 18.494 2.005 49.733 2.005 49.733 0 .001-5.357 1.26-8.508 5.751-3.479 5.005-3.982 26.241-3.982 26.241z" style="fill:#231f20;fill-opacity:1;fill-rule:evenodd;stroke:none" transform="translate(638.115 745.305)"/><path d="M0 0s-7.735-20.257-29.249-20.257c0 0 11.758 10.256 7.748 16.001 0 0-12.246 8.509-3.496 21.744 0 0 4.743 8.336 12.634 8.336C-4.497 25.824 4.51 15.998 0 0" style="fill:#231f20;fill-opacity:1;fill-rule:evenodd;stroke:none" transform="translate(651.109 476.85)"/><path d="M0 0s-3.454-21.412 15.183-32.171c0 0-5.029 14.753 1.289 17.733 0 0 14.868 1.219 13.936 17.061 0 0 .057 9.581-6.745 13.534C16.845 20.098 4.125 16.1 0 0" style="fill:#231f20;fill-opacity:1;fill-rule:evenodd;stroke:none" transform="translate(583.214 501.185)"/><path d="M0 0s15.683 3.668 27.002 1.998C38.343.323 46.995-4.339 51.68-12.334c4.657-8.007 1.646-13.671 1.646-13.671l3.352-11.001s-3.352 6.675-7.347 9.346c0 0 1.789 6.976-5.328 12.655-3.323 2.671-10.329-.336-13.665 5-3.336 5.328-1.993 6.996-10.014 8.013C12.334-.996 5.001-5 0 0" style="fill:#231f20;fill-opacity:1;fill-rule:evenodd;stroke:none" transform="translate(548.407 703.989)"/><path d="M0 0c2.295 0 4.154 1.848 4.154 4.133A4.144 4.144 0 0 1 0 8.273a4.13 4.13 0 0 1-4.125-4.14A4.13 4.13 0 0 1 0 0" style="fill:#231f20;fill-opacity:1;fill-rule:evenodd;stroke:none" transform="translate(589.816 676.93)"/></g></svg>