<svg xmlns="http://www.w3.org/2000/svg" width="933.32" height="933.333" viewBox="0 0 933.32 933.333"><defs><clipPath id="a" clipPathUnits="userSpaceOnUse"><path d="M0 1080h1080V0H0Z"/></clipPath></defs><g clip-path="url(#a)" transform="matrix(1.33333 0 0 -1.33333 -253.34 1186.667)"><path d="M0 0c193.292 0 349.995 156.716 349.995 350.005C349.995 543.302 193.292 700 0 700c-193.295 0-349.995-156.698-349.995-349.995C-349.995 156.716-193.295 0 0 0" style="fill:#fff;fill-opacity:1;fill-rule:nonzero;stroke:none" transform="translate(540 190)"/><path d="M0 0c186.374 0 337.483 151.099 337.483 337.491 0 186.38-151.109 337.478-337.483 337.478-186.393 0-337.486-151.098-337.486-337.478C-337.486 151.099-186.393 0 0 0" style="fill:#003090;fill-opacity:1;fill-rule:nonzero;stroke:none" transform="translate(540 202.513)"/><path d="M0 0v-.007Z" style="fill:#003090;fill-opacity:1;fill-rule:nonzero;stroke:none" transform="translate(539.998 198.12)"/><path d="M0 0c174.385 0 315.744 141.381 315.744 315.762 0 174.383-141.359 315.754-315.744 315.754-174.384 0-315.746-141.371-315.746-315.754C-315.746 141.381-174.384 0 0 0" style="fill:#fff;fill-opacity:1;fill-rule:nonzero;stroke:none" transform="translate(540 224.243)"/><path d="M0 0c.004 170.302 138.055 308.361 308.357 308.365C478.66 308.361 616.71 170.302 616.71 0c0-170.299-138.047-308.371-308.353-308.371v3.691c84.137 0 160.293 34.099 215.43 89.242C578.923-160.293 613.02-84.138 613.02 0s-34.097 160.294-89.233 215.434-131.293 89.24-215.43 89.24-160.294-34.101-215.43-89.24C37.788 160.294 3.694 84.138 3.694 0s34.094-160.293 89.233-215.438c55.136-55.143 131.293-89.242 215.43-89.242v-3.691C138.055-308.371.004-170.299 0 0m308.357-308.371v-.005z" style="fill:#003090;fill-opacity:1;fill-rule:nonzero;stroke:none" transform="translate(231.641 540.006)"/><path d="M0 0c120.955 0 219.009 98.053 219.009 219.011 0 120.945-98.054 218.987-219.009 218.987-120.957 0-218.983-98.042-218.983-218.987C-218.983 98.053-120.957 0 0 0" style="fill:#fff;fill-opacity:1;fill-rule:nonzero;stroke:none" transform="translate(540 320.994)"/><path d="M0 0c-4.583-24.82-34.332-24.756-50.9-37.928-9.481-7.672-14.394-16.846-16.827-27.289-15.66 7.968-30.821 19.705-47.071 26.135C-82.615-14.255-42.145.16 0 0" style="fill:#003090;fill-opacity:1;fill-rule:nonzero;stroke:none" transform="translate(534.246 742.927)"/><path d="m0 0-39.487-25.978C-44.062 2.224-75.338 10.5-96.788 19.379c-4.287 4.602-10.749 10.342-8.291 16.788C-66.137 34.024-31.332 22.14 0 0" style="fill:#003090;fill-opacity:1;fill-rule:nonzero;stroke:none" transform="translate(656.79 706.76)"/><path d="M0 0c20.223-10.739 52.092-14.724 56.39-43.549-.927-3.062-4.595-4.285-6.452-5.813C48.12-11.357 3.35-18.705-11.057 10.108c-15.009-29.124-63.146-23.62-62.514-63.761-3.394 1.53-9.53 5.195-6.132 11.022 8.261 32.201 46.587 30.057 64.979 52.123l2.773 11.658C-10.436 13.788-7.05 5.804 0 0" style="fill:#003090;fill-opacity:1;fill-rule:nonzero;stroke:none" transform="translate(554.19 719.723)"/><path d="M0 0c-.305-.938.588-2.462-.598-3.068-1.247-.314-1.539 1.212-2.466 1.542C-3.064.612-.598 3.055 0 0" style="fill:#003090;fill-opacity:1;fill-rule:nonzero;stroke:none" transform="translate(543.754 707.149)"/><path d="M0 0c.634-1.221-.613-2.157-1.211-3.074h-.924v4.59C-.906 1.83-.613.605 0 0" style="fill:#003090;fill-opacity:1;fill-rule:nonzero;stroke:none" transform="translate(551.71 699.793)"/><path d="M0 0c-.293-.943.635-2.466-.589-3.074h-1.54V.605C-1.516.605-.293.914 0 0" style="fill:#003090;fill-opacity:1;fill-rule:nonzero;stroke:none" transform="translate(536.375 699.793)"/><path d="M0 0c-19.327-11.028-24.678-41.536-49.188-39.079 10.41 29.422 29.093 56.708 54.215 78.776C-2.007 28.656-.941 13.49 0 0" style="fill:#003090;fill-opacity:1;fill-rule:nonzero;stroke:none" transform="translate(398.156 650.43)"/><path d="M0 0h-8.894l6.122 22.077C-3.995 13.797-.928 7.363 0 0" style="fill:#003090;fill-opacity:1;fill-rule:nonzero;stroke:none" transform="translate(545.904 666.674)"/><path d="M0 0c-21.15 1.528-28.199 27.286-46.897 36.796 2.728 9.49 4.431 20.839 2.89 30.962C-23.464 47.509-8.589 25.149 0 0" style="fill:#003090;fill-opacity:1;fill-rule:nonzero;stroke:none" transform="translate(728.295 615.789)"/><path d="m0 0 .613-.914c-29.434-19.947 1.218-64.687-30.656-83.08-8.895-6.148-20.248-6.148-31.898-5.839 1.862 7.061 13.191 4.306 19.325 7.99C-6.437-70.808-25.141-26.994-6.732-3.687c-17.802 4.906-31.899 20.552-46.287 32.193l.91 5.204C-35.238 21.75-22.68-2.173 0 0" style="fill:#003090;fill-opacity:1;fill-rule:nonzero;stroke:none" transform="translate(731.359 609.365)"/><path d="M0 0c-13.808-15.626-27.898-32.793-47.806-36.789 2.13-5.826 7.336-10.41 9.489-16.239 6.435-24.841 7.051-59.162 38.914-66.224 4.607-1.843 10.748.928 14.112-3.669-15.638-3.072-30.341.616-41.078 11.04-22.069 21.451-.619 62.521-32.501 77.86C-32.185-39.843-21.766-7.979-3.069 3.68z" style="fill:#003090;fill-opacity:1;fill-rule:nonzero;stroke:none" transform="translate(403.974 638.783)"/><path d="M0 0c-.294-.92.609-2.443-.622-3.059h-.917v4.577C-.622 1.835.306.915 0 0" style="fill:#003090;fill-opacity:1;fill-rule:nonzero;stroke:none" transform="translate(687.215 607.82)"/><path d="M0 0c.294-.633-.331-.918-.632-1.232-1.53-.606-2.141.599-3.046 1.232C-4.616 3.357.893 3.357 0 0" style="fill:#003090;fill-opacity:1;fill-rule:nonzero;stroke:none" transform="translate(400.317 604.762)"/><path d="M0 0c-.613-.607-.917-1.836-2.137-1.527-1.835.92-1.835 3.682 0 4.276C-.303 3.08-.613.942 0 0" style="fill:#003090;fill-opacity:1;fill-rule:nonzero;stroke:none" transform="translate(680.47 598.316)"/><path d="M0 0c0-1.213.615-2.758-.622-3.656-.928-.312-1.524 1.216-2.149 1.531C-2.146-.594-2.146.622 0 0" style="fill:#003090;fill-opacity:1;fill-rule:nonzero;stroke:none" transform="translate(695.193 601.065)"/><path d="M0 0c-.598-.33-.894-1.535-2.151-1.241L-3.69 0l2.468 3.063C-.316 2.122-.316 1.216 0 0" style="fill:#003090;fill-opacity:1;fill-rule:nonzero;stroke:none" transform="translate(408.26 597.409)"/><path d="m0 0-13.933-12.955C-17.918 17.084 17.028 36.083 8.758 68.57c-4.303 17.162-23.01 30.959-38.312 36.786-.324 21.146 22.975 5.826 34.009 10.433 13.187 2.442 27.59 10.713 33.108 24.208 11.655 19.935-4.747 46.665 12.409 64.445C72.959 132.109 53.338 52.414 0 0" style="fill:#003090;fill-opacity:1;fill-rule:nonzero;stroke:none" transform="translate(684.289 396.399)"/><path d="M0 0c.609-1.241-.612-1.866-1.538-2.772h-.599v4.304C-1.245 1.85-.612.59 0 0" style="fill:#003090;fill-opacity:1;fill-rule:nonzero;stroke:none" transform="translate(392.937 597.409)"/><path d="M0 0c7.355-13.513 20.857-20.549 34.653-23.611 9.493-.621 18.998.914 26.979 1.505l2.431-5.804c-15.934-5.805-33.091-19.01-37.696-36.156-7.649-31.869 21.165-52.435 26.661-80.947l-2.293-7.203C-12.778-101.717-40.371-28.141-24.754 53.032l4.057 13.168C5.665 55.166-13.173 19.906 0 0" style="fill:#003090;fill-opacity:1;fill-rule:nonzero;stroke:none" transform="translate(365.032 530.589)"/><path d="M0 0c-4.287 1.541-5.206-3.679-6.745-5.831C-7.664-3.994-7.664-1.526-9.508 0l-4.581-.943 8.883 28.229C-5.5 17.153-1.844 8.898 0 0" style="fill:#003090;fill-opacity:1;fill-rule:nonzero;stroke:none" transform="translate(692.421 561.54)"/><path d="M0 0c-3.993.9-5.509-2.469-6.721-5.223v-1.524c-.953 3.064-3.396 9.493-7.992 6.13 2.455 9.197 6.416 18.09 7.992 27.888C-7.051 17.164-3.671 8.58 0 0" style="fill:#003090;fill-opacity:1;fill-rule:nonzero;stroke:none" transform="translate(407.038 560.014)"/><path d="M0 0v-2.76c-12.247-5.821-26.678-16.536-26.678-31.594-1.834-27.863 24.832-43.49 22.079-71.387 4.288-3.381 8.271 2.757 13.184 2.149 16.107 1.224 62.253-3.683 72.945 9.507 2.754.585 4.607-.947 6.757-2.16-4.003-8.898-14.413-15.326-24.519-16.238-25.136-2.474-53.956 18.692-74.196-4.312C4.899-80.91-47.816-57.641-30.356-19.622-25.421-8.263-13.175 1.224-1.552 4.589z" style="fill:#003090;fill-opacity:1;fill-rule:nonzero;stroke:none" transform="translate(432.787 490.719)"/><path d="M0 0c3.678-31.599-33.093-48.754-22.973-80.315-30.962 17.776-71.429-24.831-97.8 11.938 0 2.455 2.771 4.312 4.597 5.204 5.525-1.513 7.368-6.719 12.273-9.792 23.905-17.177 49.337 5.208 75.087-1.249 1.544 3.069 0 9.202 1.544 13.202 9.821 22.363 34.017 50.877 11.039 75.102-6.121 5.206-13.182 9.192-20.534 11.651-2.15 3.366 1.229 5.8 2.128 8.867C-20.529 29.417-1.528 16.844 0 0" style="fill:#003090;fill-opacity:1;fill-rule:nonzero;stroke:none" transform="translate(685.054 460.7)"/><path d="M0 0c-1.834-.923-1.834 1.21-2.737 2.136.903.919.903 3.061 2.737 2.147Z" style="fill:#003090;fill-opacity:1;fill-rule:nonzero;stroke:none" transform="translate(626.809 454.874)"/><path d="M0 0c-.32-.926.605-2.474-.626-3.059-1.221-.301-1.516 1.214-2.445 1.505C-4.608 1.215 0 2.761 0 0" style="fill:#003090;fill-opacity:1;fill-rule:nonzero;stroke:none" transform="translate(462.831 457.01)"/><path d="M0 0c-.908.308-1.22-.307-1.534-.624-.917.932-1.834 4.274.626 4.274C.604 3.052-.294 1.205 0 0" style="fill:#003090;fill-opacity:1;fill-rule:nonzero;stroke:none" transform="translate(635.098 448.125)"/><path d="M0 0c.293-.92-.303-1.227-.613-1.543h-1.525v3.675C0 3.057-.613.598 0 0" style="fill:#003090;fill-opacity:1;fill-rule:nonzero;stroke:none" transform="translate(470.796 449.044)"/><path d="M0 0c-.317-1.227.6-2.46-.612-3.072-1.222-.311-1.54.907-2.467 1.529C-3.679 0 0 3.057 0 0" style="fill:#003090;fill-opacity:1;fill-rule:nonzero;stroke:none" transform="translate(455.474 449.044)"/><path d="M619.465 446.585h-2.163v3.686h2.163z" style="fill:#003090;fill-opacity:1;fill-rule:nonzero;stroke:none"/><path d="M0 0c-3.066 2.14-6.437-3.074-6.756-5.23 0 3.991-4.911 6.133-7.345 5.23 4.572 8.273 6.123 18.078 8.261 27.263C-4.921 17.757-2.48 8.882 0 0" style="fill:#003090;fill-opacity:1;fill-rule:nonzero;stroke:none" transform="translate(468.045 411.343)"/><path d="M0 0c-.306 1.213-1.827.3-2.772.611L-6.43-5.231C-7.05-3.062-7.354-.924-9.493.611L-13.182 0l7.343 27.874C-4.902 18.077-1.827 9.192 0 0" style="fill:#003090;fill-opacity:1;fill-rule:nonzero;stroke:none" transform="translate(632.647 410.732)"/><path d="M0 0c20.232-1.22 38.313 13.117 57.939 3.925C1.46-37.164-84.749-43.92-145.756-13.575L-169.364.391c3.985 5.821 13.034 8.198 20.698 8.486 25.132-3.967 61.913-16.835 79.392 11.052C-60.987 15.925-49.65 17.471-42 21.45-32.797 7.356-17.163-.308 0 0" style="fill:#003090;fill-opacity:1;fill-rule:nonzero;stroke:none" transform="translate(598.315 368.719)"/><path d="M0 0c-12.876 0-27.59 1.536-36.777 10.419-.623 3.986 3.359 5.513 6.426 5.831C-19.011 14.106-7.355 9.191 0 0" style="fill:#fff;fill-opacity:1;fill-rule:nonzero;stroke:none" transform="translate(716.027 487.045)"/><path d="M0 0c.623-7.642-8.271-8.567-13.173-11.034-6.122-1.839-13.779-2.438-19.912-2.136C-24.499-4.606-13.77 3.684-1.526 2.153z" style="fill:#fff;fill-opacity:1;fill-rule:nonzero;stroke:none" transform="translate(398.741 495.927)"/><path d="M0 0c-.295-9.518-1.836-18.714-5.233-26.977-2.433 9.189-10.703 23.58-1.186 32.156C-3.362 5.179-.91 3.06 0 0" style="fill:#fff;fill-opacity:1;fill-rule:nonzero;stroke:none" transform="translate(549.575 380.384)"/><path d="M0 0c.589-2.515 1.563-4.656 3.208-6.83L-5.41-4.013c-2.25.705-3.88 2.408-4.427 4.745l-4.833 20.662-12.577-2.942c-4.582-1.073-7.574-3.668-8.049-6.906l-5.233 22.369c2.083-2.829 5.363-3.482 10.213-2.348l35.127 8.219c4.851 1.134 7.411 3.155 8.112 6.635l11.96-51.117c-.956.439-1.738.54-2.367.394-1.078-.253-4.426-2.552-10.812-6.036 2.275 6.882 1.703 13.38.001 20.657l-3.826 16.35-13.386-3.131Z" style="fill:#003090;fill-opacity:1;fill-rule:nonzero;stroke:none" transform="translate(294.512 468.89)"/><path d="M0 0c10.199 5.185 13.071 13.787 8.138 23.491-5.435 10.691-14.82 13.476-26.004 7.79-10.035-5.1-12.908-13.701-7.974-23.406C-20.447-2.735-11.021-5.603 0 0m-34.552 2.618c-9.323 18.34-4.804 33.679 10.493 41.455 15.544 7.901 31.756 2.479 40.827-15.368C26.092 10.364 21.86-4.93 5.739-13.124-9.064-20.65-25.48-15.23-34.552 2.618" style="fill:#003090;fill-opacity:1;fill-rule:nonzero;stroke:none" transform="translate(317.146 408.108)"/><path d="M0 0c8.482 7.678 8.997 16.732 1.69 24.802-8.049 8.893-17.835 9.118-27.138.697-8.344-7.554-8.859-16.609-1.553-24.68C-19.013-8.003-9.164-8.297 0 0m-34.029-6.539C-47.837 8.714-47.5 24.7-34.778 36.217-21.851 47.92-4.785 46.942 8.65 32.099 22.458 16.847 22.387.978 8.982-11.158-3.329-22.305-20.593-21.38-34.029-6.539" style="fill:#003090;fill-opacity:1;fill-rule:nonzero;stroke:none" transform="translate(360.11 354.128)"/><path d="M0 0c.152.23.767 1.15 1.689 2.532l19.92 29.852-2.225 1.484c-6.292 4.199-12.1 6.965-19.34 7.249 5.375 4.732 8.779 7.008 9.445 8.004.358.538.461 1.357.461 2.354l45.122-30.109c-.998-.332-1.639-.793-1.996-1.33-.615-.922-1.487-4.886-3.768-11.793-3.04 6.577-7.824 10.877-14.116 15.076l-2.379 1.588L12.894-4.945c-2.511-3.76-3.101-8.135-1.183-10.745L-7.319-2.991C-4.351-3.53-1.383-2.072 0 0" style="fill:#003090;fill-opacity:1;fill-rule:nonzero;stroke:none" transform="translate(378.96 311.253)"/><path d="M0 0c7.077-2.401 11.049-1.607 12.591 2.937 1.66 4.892-1.159 6.921-7.362 9.025L-8.75 16.706l-4.181-12.32Zm-3.774-23.467c7.252-2.462 11.723-1.347 13.294 3.284 1.542 4.542-1.533 7.826-8.96 10.347l-16.425 5.573-4.596-13.542zm-29.324 10.339 11.472 33.813c1.601 4.718 1.473 8.074-1.285 10.569l29.007-9.842C22.435 15.868 30.282 10.282 26.813.06c-1.778-5.243-6.522-8.31-12.82-7.926 8.7-4.219 11.646-9.604 9.157-16.943-3.766-11.096-14.073-12.763-31.896-6.714l-31.805 10.791c3.621.332 5.822 2.799 7.453 7.604" style="fill:#003090;fill-opacity:1;fill-rule:nonzero;stroke:none" transform="translate(458.522 299.919)"/><path d="m0 0-9.567 26.608-13.315-24.559Zm23.289-22.323-20.503.531c1.51 1.346 1.9 2.752 2.048 4.407.124 1.378-.129 2.697-.347 3.365l-1.242 3.725-31.518 2.823-1.433-2.559c-.442-.794-.841-2.147-.964-3.526-.197-2.206.723-4.619 1.994-5.938l-21.21 4.773c3.003 2.509 4.971 3.459 7.146 7.062l23.001 38.606c.65 1.053 1.009 1.947 1.058 2.498.034.368-.102.935-.47 1.988l22.697-2.034c-.45-.885-.875-1.495-.916-1.955q-.061-.69.605-2.555l14.399-41.954c1.4-4.016 3.32-6.361 5.655-9.257" style="fill:#003090;fill-opacity:1;fill-rule:nonzero;stroke:none" transform="translate(527.145 275.242)"/><path d="m0 0 22.752 3.204c-3.005-1.821-4.2-5.251-3.531-10.001l5.031-35.728 15.442 2.175c8.68 1.223 15.197 3.911 20.376 9.485-1.922-8.191-3.51-12.794-3.317-14.164.103-.731.662-1.398 1.431-2.222L7.655-54.365c2.993 1.912 3.938 5.12 3.256 9.962L5.88-8.676C5.186-3.742 3.404-1.012 0 0" style="fill:#003090;fill-opacity:1;fill-rule:nonzero;stroke:none" transform="translate(547.108 307.317)"/><path d="m0 0 21.634 7.736c-2.575-2.391-3.051-5.991-1.436-10.509l12.147-33.971 14.683 5.251c8.254 2.95 14.093 6.9 18.039 13.407-.228-8.41-.852-13.24-.386-14.544.248-.694.931-1.234 1.85-1.886L18.485-51.695c2.544 2.477 2.822 5.811 1.175 10.416L7.513-7.309C5.835-2.617 3.537-.303 0 0" style="fill:#003090;fill-opacity:1;fill-rule:nonzero;stroke:none" transform="translate(594 313.331)"/><path d="M0 0c-3.304-2.36-7.637-7.724-14.619-12.713-15.918-11.37-31.032-9.58-41.331 4.836-10.405 14.565-6.727 31.482 10.016 43.443 7.658 5.472 14.276 7.479 17.205 9.571.75.535 1.341 1.297 2.156 2.22l3.959-13.956c-6.447-.183-11.917-2.05-17.023-5.696-9.835-7.028-11.359-17.755-4.975-26.69 7.027-9.835 16.037-11.337 26.023-4.202 5.631 4.022 9.803 9.611 13.74 16.96L3.787 1.685C2.189 1.223.977.698 0 0" style="fill:#003090;fill-opacity:1;fill-rule:nonzero;stroke:none" transform="translate(725.186 320.546)"/><path d="m0 0 15.14 17.278c-1.088-3.341.247-6.719 3.855-9.881l27.131-23.773L56.402-4.648c5.777 6.591 8.957 12.882 9.241 20.484 3.891-7.458 5.693-11.98 6.735-12.892.554-.488 1.413-.626 2.533-.749L41.288-36.179c1.016 3.402-.361 6.45-4.038 9.673L10.118-2.733C6.37.55 3.238 1.455 0 0" style="fill:#003090;fill-opacity:1;fill-rule:nonzero;stroke:none" transform="translate(698.26 368.313)"/><path d="M0 0c-8.842-15.985-19.426-20.253-32.262-13.153L-53.9-1.186c-4.44 2.456-7.9 2.683-10.674.526l11.029 19.943c-.279-3.747 1.643-6.18 6.163-8.682l21.234-11.744C-19.204-4.982-13.131-2.964-8.8 4.868s2.85 13.923-4.175 17.807L-34.208 34.42c-4.199 2.321-7.14 3.104-10.63.606l11.074 20.023c-.387-3.37 1.716-6.432 6.075-8.843L-6.051 34.24C6.786 27.14 8.841 15.988 0 0" style="fill:#003090;fill-opacity:1;fill-rule:nonzero;stroke:none" transform="translate(793.553 401.86)"/><path d="M0 0c1.715 7.465.154 11.799-4.612 12.894-4.677 1.074-7.633-2.317-9.389-9.961l-3.884-16.906 13.94-3.202zm-23.729 1.38c1.672 7.285.478 11.157-4.197 12.231-5.036 1.156-6.769-1.854-8.236-8.238l-3.305-14.389 12.68-2.913zm16.407-31.603-34.802 7.996c-4.856 1.115-8.18.648-10.384-2.349L-45.65 5.28c3.863 16.816 8.627 25.189 19.148 22.772 5.395-1.239 8.928-5.648 9.182-11.955 3.318 9.084 8.377 12.561 15.931 10.825 11.42-2.623 14.121-12.711 9.907-31.056L.998-36.867c-.696 3.568-3.373 5.509-8.32 6.644" style="fill:#003090;fill-opacity:1;fill-rule:nonzero;stroke:none" transform="translate(812.782 482.775)"/><path d="m0 0 4.956 22.432c.654-3.452 3.448-5.768 8.133-6.804l35.226-7.78 3.362 15.225c1.892 8.557 1.651 15.604-1.759 22.404 7.001-4.665 10.758-7.763 12.108-8.061.722-.159 1.542.132 2.582.564L53.604-11.841c-.745 3.471-3.42 5.48-8.194 6.535L10.183 2.475C5.319 3.549 2.136 2.836 0 0" style="fill:#003090;fill-opacity:1;fill-rule:nonzero;stroke:none" transform="translate(256.926 577.536)"/><path d="m0 0-32.104 16.453c-4.433 2.272-7.691 2.387-10.478.187l26.258 51.236c.445-.953.975-1.536 1.551-1.832.984-.504 5.024-.916 12.147-2.39-6.185-3.777-9.951-9.103-13.36-15.754l-9.973-19.459 11.413-5.85 11.025 21.513c1.473 2.874 1.868 5.263 2.051 7.243l4.795-7.642c1.258-1.992 1.319-4.305.182-6.521L-6.171 18.3l12.316-6.314 10.519 20.529c4.168 8.127 5.439 15.666 3.934 22.037 5.591-6.288 8.483-10.153 9.713-10.786.657-.335 1.483-.344 2.598-.19L6.271-8.398C6.513-4.894 4.435-2.273 0 0" style="fill:#003090;fill-opacity:1;fill-rule:nonzero;stroke:none" transform="translate(315.809 627.778)"/><path d="m0 0 28.113-22.018c3.996-3.13 7.247-3.918 10.457-2.214L24.517-42.175c.885 3.526-.715 6.421-4.711 9.55L-8.308-10.606c-3.995 3.129-7.189 3.99-10.4 2.286L-4.653 9.622C-5.54 6.097-3.996 3.129 0 0" style="fill:#003090;fill-opacity:1;fill-rule:nonzero;stroke:none" transform="translate(328.098 716.744)"/><path d="M0 0c-3-2.737-6.662-8.578-13-14.362-14.45-13.184-29.668-13.206-41.607-.12-12.065 13.222-10.428 30.453 4.77 44.324 6.953 6.343 13.284 9.122 15.942 11.546.682.623 1.176 1.45 1.877 2.463l5.591-13.384c-6.378-.95-11.588-3.453-16.223-7.682-8.927-8.147-9.162-18.977-1.761-27.087 8.147-8.93 17.27-9.347 26.335-1.076C-12.965-.714-9.487 5.331-6.454 13.095L3.559 2.122C2.027 1.473.887.807 0 0" style="fill:#003090;fill-opacity:1;fill-rule:nonzero;stroke:none" transform="translate(401.986 727.296)"/><path d="m0 0-16.894 31.875c-2.332 4.4-4.939 6.363-8.482 6.154l50.868 26.96c-.182-1.035-.081-1.817.221-2.388.518-.978 3.595-3.629 8.59-8.917-7.234.447-13.372-1.762-19.975-5.262l-19.32-10.24 6.006-11.33 21.357 11.32c2.855 1.512 4.545 3.245 5.831 4.76l-.447-9.008c-.11-2.355-1.384-4.285-3.585-5.45L5.421 18.537l6.481-12.229 20.38 10.803c8.07 4.277 13.43 9.729 15.844 15.812.983-8.356 1.138-13.181 1.786-14.404.346-.652 1.018-1.131 2.021-1.644L.332-10.475C2.536-7.74 2.333-4.402 0 0" style="fill:#003090;fill-opacity:1;fill-rule:nonzero;stroke:none" transform="translate(406.028 741.55)"/><path d="M0 0q13.447 3.276 11.744 10.27c-1.375 5.648-7.739 4.477-18.668 3.335-13.526-1.397-21.138 1.784-23.169 10.121-2.338 9.594 4.881 18.95 20.122 22.662 9.773 2.381 17.449 2.448 21.574 3.451.717.174 1.412.439 2.131.995l-.019-14.346c-6.008 2.051-13.459 2.229-21.797.198-6.545-1.594-9.493-4.307-8.641-7.804 1.266-5.199 7.321-3.154 19.12-2.465 13.3.77 20.735-2.072 22.984-11.307C28.177 3.635 20.222-5.426 2.471-9.751c-8.07-1.965-14.383-2.173-17.701-2.981a7.4 7.4 0 0 1-2.558-1.193L-24.774.328C-15.722-1.741-7.621-1.856 0 0" style="fill:#003090;fill-opacity:1;fill-rule:nonzero;stroke:none" transform="translate(482.362 773.616)"/><path d="M0 0c-.013.276-.058 1.381-.127 3.04l-1.498 35.859-2.672-.113c-7.56-.315-13.881-1.502-19.9-5.538 1.555 6.989 2.965 10.834 2.915 12.033-.027.645-.426 1.366-1.014 2.172l54.201 2.264c-.61-.857-.857-1.606-.829-2.251.045-1.106 1.678-4.824 3.906-11.749-6.333 3.522-12.732 4.178-20.291 3.862l-2.856-.119 1.496-35.857c.188-4.517 2.29-8.4 5.379-9.379l-22.862-.955C-1.437-5.416.104-2.49 0 0" style="fill:#003090;fill-opacity:1;fill-rule:nonzero;stroke:none" transform="translate(524.657 778.266)"/><path d="m0 0 6.506 35.491c.9 4.901.07 8.056-2.84 10.091l56.64-10.386c-.785-.7-1.192-1.376-1.307-2.012-.201-1.089.569-5.077 1.211-12.324-5.399 4.835-11.586 6.909-18.939 8.257L19.759 33.06l-2.313-12.616 23.781-4.36c3.176-.582 5.579-.273 7.528.12l-5.937-6.792c-1.546-1.78-3.743-2.504-6.193-2.054l-20.878 3.828-2.495-13.615L35.944-6.59c8.985-1.647 16.572-.693 22.24 2.584-4.411-7.166-7.28-11.051-7.529-12.412-.134-.727.096-1.519.565-2.542L-6.236-8.426C-2.81-7.646-.899-4.901 0 0" style="fill:#003090;fill-opacity:1;fill-rule:nonzero;stroke:none" transform="translate(559.287 782.374)"/><path d="M0 0c7.89-3.821 11.976-3.853 14.551 1.462s-.025 8.42-7.914 12.241l-13.206 6.395-6.636-13.703Zm-22.162-22.896-20.512 9.935c3.632-.119 6.123 2.059 8.336 6.625l15.646 32.305c2.172 4.485 2.212 7.747-.051 10.484l29.15-14.118c6.394-3.097 11.462-5.552 14.551-8.484 4.846-4.602 6.047-11.439 2.87-17.998-3.38-6.976-10.647-9.914-20.172-7.354 3.311-3.961 4.102-7.83 4.655-12.404.781-6.223.689-12.124 3.813-17.533L-5.054-31.182c1.479.514 2.38 1.103 2.902 2.183 1.207 2.492 1.279 6.66-.115 12.462-1.308 5.555-4.327 9.272-9.309 11.686l-5.731 2.774-4.907-10.13c-2.211-4.569-2.251-8.035.052-10.689" style="fill:#003090;fill-opacity:1;fill-rule:nonzero;stroke:none" transform="translate(656.384 775.872)"/><path d="M0 0c-2.892 2.848-8.92 6.195-15.033 12.214-13.937 13.725-14.771 28.92-2.34 41.54 12.556 12.755 29.852 12.039 44.51-2.396 6.706-6.605 9.819-12.779 12.383-15.303.658-.647 1.509-1.098 2.558-1.742l-13.064-6.298c-1.29 6.32-4.067 11.386-8.538 15.788-8.612 8.481-19.439 8.137-27.142.313-8.481-8.612-8.411-17.745.332-26.354 4.931-4.855 11.153-8.005 19.067-10.62L2.31-3.44C1.581-1.945.855-.841 0 0" style="fill:#003090;fill-opacity:1;fill-rule:nonzero;stroke:none" transform="translate(719.342 690.884)"/><path d="m0 0-29.26-20.456c-4.159-2.907-5.861-5.785-5.167-9.354l-13.056 18.675c3.112-1.875 6.347-1.19 10.505 1.718l29.26 20.456c4.159 2.906 5.912 5.71 5.219 9.277L10.558 1.642C7.445 3.518 4.158 2.908 0 0" style="fill:#003090;fill-opacity:1;fill-rule:nonzero;stroke:none" transform="translate(771.663 693.962)"/><path d="M0 0c.251.121 1.251.596 2.749 1.31l32.406 15.437-1.15 2.414c-3.254 6.833-6.825 12.183-12.899 16.138 7.041 1.311 11.131 1.522 12.215 2.037.584.277 1.091.928 1.603 1.786L58.255-9.863c-1.026.225-1.812.158-2.396-.119-.999-.476-3.78-3.437-9.278-8.201.757 7.208-1.147 13.353-4.401 20.184l-1.23 2.582L8.543-10.852c-4.082-1.945-6.831-5.402-6.521-8.625L-7.819 1.182C-5.547-.8-2.249-1.07 0 0" style="fill:#003090;fill-opacity:1;fill-rule:nonzero;stroke:none" transform="translate(752.765 649.71)"/><path d="M0 0c1.446.3 2.235 1.031 2.948 2.593l4.457-21.409c-5.13 3.361-9.56 5.173-12.683 6.595L-34.322 1.431l-8.4-1.749c-4.969-1.034-7.792-3.319-8.417-6.652l-4.664 22.402c2.36-3.184 5.457-3.576 10.335-2.561l8.13 1.692 23.385 24.849c3.553 3.756 6.136 6.745 7.029 10.606l4.926-23.668c-1.133 1.367-2.149 1.722-3.594 1.42-2.078-.432-3.154-1.6-4.626-3.13l-14.72-15.317 20.264-8.6Q-2.032-.423 0 0" style="fill:#003090;fill-opacity:1;fill-rule:nonzero;stroke:none" transform="translate(820.743 584.585)"/><path d="m0 0 .718.714.044 1.309c.18 4.838 1.511 18.74 5.458 24.91 5.377 8.4 2.723 17.047 1.299 21.692a37 37 0 0 0-.539 1.849c-1.088 4.354-3.207 8.268-3.306 8.433l-1.319 2.422-2.633-.846c-1.713-.551-42.143-13.87-62.915-44.068a671 671 0 0 0-7.773-6.027 9 9 0 0 1-.238 1.382c-.514 2.024-2.022 4.784-6.242 6.439-5.102 2.005-23.295 7.201-45.956 7.201-18.172 0-34.735-3.294-49.226-9.798l-3.309-1.484.992-1.798c-19.932 17.067-57.546 47.991-68.329 47.991-.134 0-.266-.007-.397-.009l-1.49-.083-.935-1.168c-.284-.361-1.771-2.351-3.218-6.679-.083-.257-.287-.479-.793-1.001-3.547-3.629-4.551-7.737-.184-20.105 6.107-17.294 6.52-23.943 6.797-28.343.346-5.546 4.731-18.332 6.49-21.905.863-3.55 6.823-27.921 9.718-34.694 2.56-5.959-.251-9.363-3.054-11.162l-.726-.457c-3.533-2.229-10.896-6.857-11.9-14.607-.652-5.016 1.497-10.275 6.378-15.62 1.19-2.228 2.265-4.808 2.441-5.865a.2.2 0 0 0-.025-.041c-1.728-2.833.099-4.64 1.87-6.393l1.073-1.061c1.836-1.84 3.799-3.151 5.534-4.307 2.028-1.355 3.787-2.526 5.127-4.308.687-.925 1.191-1.797 1.682-2.648 1.175-2.051 2.388-4.152 5.584-5.986l-.586-3.816c-.821-5.327.872-16.954 13.163-22.791 3.613-1.718 6.324-2.893 8.3-3.752 5.2-2.256 5.2-2.256 6.841-5.174 3.282-5.834 9.686-12.536 16.303-17.067 5.356-3.662 10.302-10.752 10.905-12.51l5.3-1.571.531.066c.056.068.373.454.81 1.101q.24-.174.493-.34c-1.65-4.172-3.202-8.966-3.202-12.236 0-4.919 2.019-16.202 19.961-19.166l.095-.136 4.813-3.334 5.992-5.147.79-.476h4.295l.371.087 4.321.997 1.13.26.729.906 2.656 3.32 2.296 2.875c6.744.52 10.862 3.617 13.162 5.35l.223.163c3.494 2.623 7.643 12.53 7.643 14.634 0 1.078-.643 5.753-1.028 8.444l-.052.349-.121.329-1.91 5.213c1.258-2.098 1.555-2.969 1.561-2.982l1.937-5.878 3.843 4.704 8.868 10.838c.802.799 5.451 5.418 8.399 8.071 2.787 2.512 4.337 5.795 5.466 8.19.401.859.785 1.659 1.033 2.045 1.184 1.582 11.434 10.067 20.051 14.539 10.92 5.66 13.182 16.765 12.047 22.85l-.281 1.477-1.071.641a47 47 0 0 1 2.474 7.121c5.94 3.695 12.548 8.606 17.716 14.538l1.325 1.612-.777 1.903c-.093.233-2.243 5.758 4.161 13.496 5.555 6.71 6.901 9.514 5.729 11.987a3.68 3.68 0 0 1-2.468 2.025c-6.731 4.811-12.804 10.612-13.188 12.655-.115.617-.249 1.254-.384 1.913-1.008 4.83-2.145 10.303 1.707 17.495 3.733 6.965 3.978 10.382 3.906 13.543-.019.756-.022 1.196.069 1.596C-5.79-19.898-1.434-2.751 0 0" style="fill:#f6a800;fill-opacity:1;fill-rule:nonzero;stroke:none" transform="translate(662.696 630.078)"/><path d="m0 0 2.939-9.149 1.352-12.417-8.084-6.111-29.217.872-11.18 9.977 4.917 4.214L-36.46.035c-36.543 27.408-52.705 30.221-52.705 30.221-7.272 3.353-14.988 5.042-21.64 5.853l-.099-.627c-.822-5.327.869-16.954 13.16-22.791 3.612-1.718 6.326-2.893 8.3-3.752 5.199-2.256 5.199-2.256 6.844-5.174 3.281-5.834 9.685-12.536 16.303-17.067 5.353-3.662 10.302-10.752 10.905-12.51l5.3-1.571.53.066c.053.068.371.454.81 1.101.159-.115.325-.23.49-.34-1.65-4.172-3.199-8.966-3.199-12.236 0-4.919 2.019-16.202 19.961-19.165l.096-.136 4.813-3.335 5.992-5.147.789-.476h4.295l.371.087 4.322.997 1.127.26.729.906 2.652 3.32 2.302 2.875c6.739.52 10.862 3.617 13.163 5.35l.218.163c3.498 2.623 7.645 12.53 7.645 14.634 0 1.078-.641 5.753-1.025 8.444l-.053.349-.12.329-1.911 5.213c1.258-2.097 1.556-2.969 1.556-2.982l1.942-5.878 3.843 4.704 8.868 10.838c.803.799 5.446 5.418 8.399 8.071 2.787 2.512 4.337 5.795 5.46 8.19.402.859.789 1.659 1.039 2.045 1.181 1.582 11.434 10.067 20.048 14.539 10.918 5.66 13.186 16.765 12.048 22.85l-1.125 4.33.177.901-10.141-5.573C-.328 12.418 0 0 0 0" style="fill:#fff;fill-opacity:1;fill-rule:nonzero;stroke:none" transform="translate(559.712 464.66)"/><path d="M0 0s1.995 2.66 6.979-1.33c4.985-3.988 16.261-12.972 27.558-11.643 0 0 2.33-3.654-5.645-3.32-7.977.33-7.647.664-10.301.995C15.93-14.966 4.657-4.32 3.656-2.661 2.658-.997 0 0 0 0" style="fill:#003090;fill-opacity:1;fill-rule:nonzero;stroke:none" transform="translate(473.156 537.95)"/><path d="m0 0-3.66 2.99s-1.996 5.98-.998 8.638c.998 2.66 14.952 11.3 17.616 12.628 0 0-3.989-7.306-7.643-9.638C1.655 12.294-.334 8.64-.334 8.64S-1.331 3.326 0 0" style="fill:#003090;fill-opacity:1;fill-rule:nonzero;stroke:none" transform="translate(547.479 614.946)"/><path d="M0 0s4.317 7.315 1.995 9.304c-2.327 1.997-16.62 12.962-16.62 12.962s.337-6.976 3.657-9.306c3.323-2.326 6.312-2.323 6.648-3.987l.329-1.658s-.665-1.665.667-3.323C-1.993 2.327 0 0 0 0" style="fill:#003090;fill-opacity:1;fill-rule:nonzero;stroke:none" transform="translate(535.846 615.94)"/><path d="M0 0s17.201 9.053 23.085 10.411c5.884 1.361 0 2.719-1.358 3.171-1.36.454-5.432.454-5.432.454l-5.434-2.264-2.713-1.361-4.072-3.169L.903 5.884l-1.809-.903S-2.718-1.357 0 0" style="fill:#003090;fill-opacity:1;fill-rule:nonzero;stroke:none" transform="translate(572.385 574.482)"/><path d="M0 0c-.501 2.251 2.267-.906 4.076-1.813 1.812-.906 10.412-3.624 10.412-3.624l2.722-1.806 4.524-3.623-.907-2.267s-2.717 0-4.075 1.363c-1.357 1.358-5.742 4.338-6.042 3.529-.298-.814-3.011.089-5.272 1.446C3.173-5.437.907-4.079 0 0" style="fill:#003090;fill-opacity:1;fill-rule:nonzero;stroke:none" transform="translate(485.915 586.707)"/><path d="M0 0c-.65 1.351-1.506 3.313-1.721 4.196-.112.442-.241.862-.393 1.346-.447 1.399-1.052 3.323-1.702 9.223-.765 6.973-4.686 11.108-6.788 13.334-.339.357-.797.84-.95 1.047-.997 1.932-2.591 2.282-3.456 2.468-.832.182-2.571.557-6.717 4.517-7.504 7.166-16.354 12.972-16.724 13.22l-7.696 5.028 2.929-8.794c1.219-3.648 2.576-8.237 2.652-9.172 0-.93.205-2.857.57-6.18.322-2.958.73-6.635.73-7.903 0-2.758 1.841-14.835 2.211-17.222l.072-.504.225-.449c.602-1.22 3.671-7.395 5.079-9.296l.322-.437c.949-1.275 1.162-1.562 1.756-3.35a8 8 0 0 0-.157-.484c-.814-2.424-1.505-5.581.62-12.373 1.769-5.621 4.864-6.802 7.151-6.802 4.008 0 7.204 3.902 7.948 4.881.614.75 2.275 2.722 3.235 3.695.262.267.624.653 1.076 1.128 1.695 1.803 4.864 5.164 8.206 7.872C1.21-8.793 1.825-6.464 1.857-4.9 1.91-2.576.732-.851 0 0" style="fill:#fff;fill-opacity:1;fill-rule:nonzero;stroke:none" transform="translate(468.187 622.05)"/><path d="M0 0s-1.886-.33-1.886-2.969-10.704-11.526-14.166-13.176c-3.461-1.652-7.552-1.019-11.326-1.019-3.778 0-5.038-4.947-5.038-4.947.023-.006.041-.006.065-.006-1.243-2.131-2.65-5.991-2.65-5.991s-1.291-9.441-4.285-18.888c-3.003-9.439 1.712-21.581 2.143-23.378.423-1.8 3.853-7.644 5.14-9.44 1.29-1.8 1.466-9.172 1.466-9.172l2.395 8.717s-.428 3.15-.854 4.949c-.434 1.798-3.007 4.047-3.864 7.196-.858 3.146-3.001 11.689-3.001 13.939 0 2.248 2.143 14.838 2.571 17.082.43 2.247 2.547 6.746 2.795 13.097.026.721.02 1.289-.012 1.753C-10.739-23.292-1.528-10.832 0-8.913 1.576-6.933 3.463 0 3.463 0Z" style="fill:#003090;fill-opacity:1;fill-rule:nonzero;stroke:none" transform="translate(604.376 542.59)"/><path d="M0 0c-3.501-3.76-8.281-6.58-13.35-9.567-9.277-5.478-19.802-11.683-20.676-24.826l-.077-1.117.651-.929c2.132-3.093.952-5.386-1.507-9.509-1.257-2.107-2.555-4.294-3.151-6.784l-.488-2.048 1.676-1.275c2.473-1.885 4.658-4.333 6.768-6.71 4.374-4.907 8.893-9.978 16.348-10.849l1.906-.221 1.13 1.529c3.89 5.265 4.943 11.303 5.968 17.144.932 5.335 1.814 10.383 4.802 14.42l.814 1.101-.222 1.338c-.973 5.916.756 13.379 2.424 20.598C4.201-12.549 5.432-7.215 5.692-2.37l.476 8.999z" style="fill:#fff;fill-opacity:1;fill-rule:nonzero;stroke:none" transform="translate(650.807 672.458)"/><path d="M0 0c1.189-14.224 13.963-24.976 5.516-39.023 1.048-7.989-6.571-11.963-8.68-18.55-3.412 0-1.832 5.442-1.31 7.715C2.881-37.04 5.25-19.076-2.621-5.405-2.9-3.124-2.372-.563 0 0" style="fill:#003090;fill-opacity:1;fill-rule:nonzero;stroke:none" transform="translate(509.939 515.798)"/><path d="M0 0c-6.99-9.56-3.96-22.879-10.948-32.446-9.728 1.151-13.966 11.298-21.855 17.376 1.5 6.366 9.391 11.867 4.236 19.405 1.2 18.254 22.795 21.442 33.715 33.311C4.543 26.05-1.834 11.29 0 0m7.876 46.63C-4.254 36.2-19.453 32.44-30.686 19.692c-11.223-9.853 1.82-26.369-13.669-34.177 10.931-10.145 20.64-21.146 34.018-28.379C-.929-37.084-.624-26.361-.014-16.521 9.705.567 4.837 20.836 12.431 39.099c-1.516 2.59.302 8.67-4.555 7.531" style="fill:#003090;fill-opacity:1;fill-rule:nonzero;stroke:none" transform="translate(648.426 634.611)"/><path d="M0 0c-4.521-3.623-8.593-8.151-9.951-9.508-1.36-1.357-3.625-4.073-3.625-4.073s-6.79-9.053-9.961.904c-3.167 9.96.455 10.412-.451 13.13-.906 2.715-1.358 3.172-2.716 4.977-1.359 1.813-4.981 9.056-4.981 9.056s-2.26 14.485-2.26 17.202c0 2.716-1.361 12.677-1.361 14.486 0 1.812-2.937 10.509-2.937 10.509s9.276-5.981 16.97-13.228c7.697-7.241 9.054-4.524 9.962-6.333.904-1.812 6.79-5.434 7.695-13.581.904-8.153 1.813-9.509 2.262-11.321C-.9 10.412.913 6.789.913 6.789S4.532 3.625 0 0m4.985 11.77c-.905 2.262-3.168.45-2.3 6.712 2.019 14.55.482 7.821-7.206 20.449 0 0-4.981 5.885-5.254 7.482-.266 1.591-1.536.667-3.801 2.025-2.261 1.357-3.621 1.812-6.79 3.625-3.171 1.805-4.072 3.162-8.15 7.242-4.074 4.071-10.412 6.338-12.672 7.693-2.263 1.361-3.622 0-3.622 0-2.265 0 .904-9.506.904-11.318s.903-10.864 3.165-23.085c2.265-12.224 4.983-23.09 6.796-27.165 1.812-4.07 2.26-7.241 3.62-17.651 1.358-10.41 8.415-13.664 8.415-13.664S-9.502-14.032-4.521-11.317C.458-8.602 1.817-5.433 4.532-1.811S7.247 1.81 9.512 5.43c2.261 3.624-3.621 4.075-4.527 6.34" style="fill:#003090;fill-opacity:1;fill-rule:nonzero;stroke:none" transform="translate(465.091 612.823)"/><path d="M0 0a7.636 7.636 0 1 0-15.272.004A7.636 7.636 0 0 0 0 0" style="fill:#003090;fill-opacity:1;fill-rule:nonzero;stroke:none" transform="translate(506.953 535.236)"/><path d="M0 0a1.605 1.605 0 1 0-3.21.004A1.605 1.605 0 0 0 0 0" style="fill:#fff;fill-opacity:1;fill-rule:nonzero;stroke:none" transform="translate(497.71 538.048)"/><path d="M0 0a7.635 7.635 0 0 0-15.27 0 7.637 7.637 0 0 0 7.635 7.638A7.64 7.64 0 0 0 0 0" style="fill:#003090;fill-opacity:1;fill-rule:nonzero;stroke:none" transform="translate(591.512 535.236)"/><path d="M0 0c-7.265-.246-15.76-1.511-22.747-.72 3.683-1.725 11.016-3.524 22.436-3.926C4.31-3.633 8.425-2.941 13.585-3.639c12.322-1.503 17.985-14.399 27.61-19.21l1.505 4.811C35.18-3.005 16.535 6.318 0 0" style="fill:#003090;fill-opacity:1;fill-rule:nonzero;stroke:none" transform="translate(482.52 548.417)"/><path d="M0 0c-7.976-9.633-4.654-16.945-4.654-16.945-11.298-12.963-29.908-20.934-31.233-21.267-1.331-.331-3.66-2.994-4.991-4.322-1.325-1.328-8.302-9.302-8.302-9.302l3.32-.331-1.218-4.234s4.875 5.56 6.536 7.888c1.662 2.327 5.98.998 5.98.998l4.651 2.326s1.997 1.327 2.998 1.994c.992.668 2.654-.335 2.654-.335.997-5.315-1.328-14.622-10.303-19.272-8.97-4.651-19.936-13.624-21.264-15.618-1.331-1.995-2.662-6.646-5.985-9.636-3.32-2.99-8.638-8.308-8.638-8.308l-8.973-10.967s-.33 1.334-2.656 4.987c-2.329 3.654-.997 3.323-1.331 5.318-.334 1.996-.998 3.655-2.661 6.647-1.657 2.987-3.655 1.322-4.983 2.323-1.327.996-2.326 3.987-2.326 7.309 0 3.325-7.974 41.206-8.64 44.528l-.662 3.325s3.985 9.302 13.956 20.934c2.214 2.588 4.476 4.509 6.659 5.943q-.017-.064-.03-.127c3.707 2.462 10.023 5.283 17.478 2.945-.021.036-.038.074-.065.107 4.179-1.175 7.871-1.724 11.139-1.844C-41.339-3.771-36.311.86-34.372 3.704c-5.106-1.133-15.151-2.227-15.151-2.227C-98.039 5.796-86.07-.66-86.07-.66c-10.631-3.657-15.617-17.947-15.617-17.947s-3.319-4.318-4.647-6.311c-1.332-1.994-1.332-9.971-1.001-11.966.33-1.99 1.001-7.308 1.001-7.308-3.657-16.286 6.642-41.539 6.97-42.533.34-.999 3.537-15.584 3.537-15.584l1.812-.451 2.632 2.742h1.658l.67-1.664 3.654-9.967s.994-6.98.994-7.978c0-.994-3.653-9.964-6.312-11.965-2.66-1.991-7.644-5.978-16.947-4.646-.265.036-.531.066-.799.099-1.821.425-3.663.789-3.663.789l-1.805.449-1.359 1.357-.456 1.812v3.255c3.323.549 5.757 2.204 5.757 2.204 8.647 3.957 9.996 11.682 9.996 16.743 0 2.494-4.013 4.527-4.013 4.527-10.971 3.321-20.606 1.662-26.258.331-5.645-1.325-3.65-9.3-3.65-9.3-.131-4.751 9.302-12.301 9.302-12.301 2.192-1.728 4.491-2.331 6.604-2.369v-1.734s-.453-1.81-1.357-3.62c-.602-1.203-3.288-1.791-5.038-2.057-.979-.103-1.54-.185-1.54-.185-16.946 1.661-20.268 10.299-20.268 16.281 0 5.985 6.645 19.275 6.645 19.275l1.995-1.662s3.657 0 4.65.662c.999.666.665 2.328 0 3.323-.664.996-1.657 2.992-1.657 2.992 7.64 7.975 12.294 60.809 12.626 62.142.329 1.328-.332 3.653-.332 3.653l-1 2.326-1.992 1.996s-4.322 3.323-6.313 2.325c-1.996-.997 1.991-6.315 1.991-6.315l2.329-2.99c-2.329-3.324-4.32-21.601-4.32-21.601l-3.656-22.927s-2.99-6.644-4.321-12.96c-1.329-6.316-7.309-1.658-7.309-1.658 1.992-8.642-3.32-14.955-3.32-14.955-.335 1.991-5.987 10.303-12.296 14.62-6.316 4.319-12.299 10.634-15.289 15.949-2.989 5.315-3.319 3.987-16.616 10.303-13.295 6.316-11.297 19.273-11.297 19.273s9.305-3.655 10.634-3.986c1.325-.335 7.645-2.325 9.972-3.325 2.324-.998 12.292-7.31 2.324 3.656-9.97 10.967-14.956 7.307-21.268 9.636-6.316 2.326-5.982 4.982-8.973 8.969-2.988 3.99-7.309 5.318-10.966 8.973-3.654 3.656-2.655 2.331-1.992 4.324.665 1.99-2.993 8.637-2.993 8.637-13.959 14.951.667 22.931 5.315 25.918 4.655 2.992 7.316 8.312 4.321 15.289-2.989 6.979-9.636 34.556-9.636 34.556-1.33 2.329-5.979 15.62-6.313 20.933-.335 5.323-.996 12.299-6.979 29.247-5.979 16.945-.333 14.951 1 18.941 1.328 3.987 2.66 5.649 2.66 5.649 12.292.663 77.089-56.492 77.089-56.492-1.056 4.189-2.726 8.214-4.865 12.084 39.195 17.586 83.628 6.06 92.592 2.542 9.307-3.66.998-13.63.998-13.63 1.325.337 16.949 12.625 16.949 12.625 20.272 29.912 61.472 43.204 61.472 43.204s1.994-3.657 2.992-7.646 4.985-12.627-.327-20.931c-5.321-8.311-5.984-26.585-5.984-26.585C.661 84.739-4.654 62.81-5.318 59.816c-.67-2.991 1.331-4.983-3.654-14.288-4.987-9.307-2.661-16.284-1.664-21.599.994-5.318 15.288-15.287 15.288-15.287S7.979 9.639 0 0m-109.66-143.88-4.321-.997h-2.987l-6.649 3.985s2.327.669 6.978.669c4.653 0 8.311-.337 9.304-.337h.33zM3.988 20.275c-14.291 10.631-5.651 19.274-2.66 25.253C4.315 51.512 5.646 62.81 5.646 65.8s.663 14.617 4.32 17.94 4.322 21.265 5.982 25.59c1.662 4.318 2.328 11.3 2.328 12.961s.332 4.98.665 7.973c.328 2.99-10.962 24.59-10.962 24.59-15.955-1.659-56.498-36.555-60.482-40.873-3.987-4.32-8.311-6.98-8.311-6.98-22.597 6.65-34.89 4.989-57.157 6.317-18.699 1.115-45.834-5.738-54.041-7.963-22.261 28.87-68.242 46.513-68.242 46.513-16.947-16.951-4.985-57.49-3.321-61.145 1.66-3.66 5.647-10.306 5.316-17.614-.33-7.309 4.982-24.257 5.977-30.573 1.001-6.315 6.652-15.617 6.652-15.617s-3.657-3.987-9.975-10.303c-6.31-6.309-3.984-3.323-7.638-4.981-3.655-1.662-4.324-6.316-4.324-6.316s4.985-8.972 9.308-13.625c4.317-4.653-1.33-8.639-1.33-8.639s7.639-6.315 12.298-9.967c4.649-3.657 1.992-3.324 5.315-6.313 3.318-2.994.997-5.318.997-5.318l2.656-2.326c1.997-23.592 22.595-32.233 30.239-36.553 7.644-4.319 12.959-11.298 12.959-11.298l6.316-4.986c15.948-11.3 15.948-21.6 15.948-21.6-2.99-17.943 9.642-21.267 9.642-21.267 16.944-5.648 15.948-6.976 15.948-6.976 12.957-10.304 16.615-4.985 21.264-3.657 4.654 1.331 10.303 5.315 10.303 5.315 24.254 9.969 20.273 30.575 20.273 30.575s3.981 5.648 6.977 8.638c2.988 2.99 5.649 8.972 5.649 8.972S-45.86-78.42-35.554-72.768c10.295 5.647 19.273 12.954 23.921 32.895C-6.979-19.935 8.311-15.945 8.311-15.945c-1.334 2.322-2.996 7.639.661 12.958 3.642 5.301 9.598 13.57 9.636 13.619-.054-.058-.917-.555-14.62 9.643" style="fill:#003090;fill-opacity:1;fill-rule:nonzero;stroke:none" transform="translate(657.8 545.824)"/><path d="M0 0a1.606 1.606 0 1 0-3.211.005A1.606 1.606 0 0 0 0 0" style="fill:#fff;fill-opacity:1;fill-rule:nonzero;stroke:none" transform="translate(582.225 538.048)"/></g></svg>