<svg xmlns="http://www.w3.org/2000/svg" viewBox="0 0 732.74 704.52"><defs><style>.cls-1{fill:none}.cls-1,.cls-2{stroke:#000;stroke-linejoin:round}.cls-1,.cls-2,.cls-6{stroke-width:4.52px}.cls-10,.cls-2,.cls-5,.cls-6{fill:#fff}.cls-3{fill:#231f20}.cls-5,.cls-6{stroke:#231f20}.cls-5{stroke-width:5.37px}.cls-8{fill:#ec1c24}.cls-9{fill:#230000}</style></defs><g id="Layer_2" data-name="Layer 2"><g id="Layer_2-2" data-name="Layer 2"><path d="M194.28 131.79a279.6 279.6 0 0 1 38.35-25.11L209 59.39a331 331 0 0 0-38.77 24.37Z" class="cls-1"/><path d="M500.92 106.88a280 280 0 0 1 37.77 24.91l24-48.12a331 331 0 0 0-38.73-24.42Z" class="cls-2"/><path d="M205.56 102.1a297.62 297.62 0 0 1 322.29.08l23.38-47.32a350.19 350.19 0 0 0-369.1 0Z" class="cls-2"/><path d="m213 53.35 9.48 18.79 11.24-5.67 2.16 4.27L219.54 79l-11.63-23.1ZM248.36 37.53l1.81 4.47-12.62 5.17 2.1 5.12 11.58-4.75 1.68 4.09-11.59 4.75 2.4 5.84 12.89-5.28 1.81 4.42-18.15 7.44-9.79-23.9ZM252.53 35.92 258.6 34l8.85 7.88 2.63-11.54 6-1.92-4.3 18.08 3 9.44-5.41 1.73-3-9.59ZM281 32.08l-1-4.65 20.62-4.77 1.08 4.65-7.54 1.74 4.74 20.52-5.53 1.28-4.75-20.52ZM305.94 29.38a12.7 12.7 0 0 1 1.84-4.64 11.3 11.3 0 0 1 3.53-3.45 14.14 14.14 0 0 1 10.57-1.57 11.5 11.5 0 0 1 4.36 2.28 13 13 0 0 1 3.11 3.91 16 16 0 0 1 1.65 5.18 15.6 15.6 0 0 1-.08 5.33 12.7 12.7 0 0 1-1.86 4.58 11.4 11.4 0 0 1-3.52 3.39A14.32 14.32 0 0 1 315 46a11.6 11.6 0 0 1-4.38-2.22 12.7 12.7 0 0 1-3.09-3.83 15.8 15.8 0 0 1-1.63-5.08 16.2 16.2 0 0 1 .04-5.49m6.39 7.68a8.8 8.8 0 0 0 1.61 2.56 6 6 0 0 0 2.43 1.62 7.5 7.5 0 0 0 6.44-1 6.26 6.26 0 0 0 1.86-2.24 8.5 8.5 0 0 0 .79-2.91 13.1 13.1 0 0 0-.09-3.19 14.6 14.6 0 0 0-.85-3.2 8.8 8.8 0 0 0-1.62-2.62 6.15 6.15 0 0 0-2.44-1.65 6.6 6.6 0 0 0-3.33-.26A6.7 6.7 0 0 0 314 25.4a6 6 0 0 0-1.85 2.29 8.7 8.7 0 0 0-.79 3 14.7 14.7 0 0 0 .11 3.3 13.2 13.2 0 0 0 .86 3.07M341.28 17.29 353.05 34h.07l-1-17.3 5.3-.31 1.49 25.79-5.67.33-11.72-16.68h-.08l1 17.26-5.3.31-1.49-25.79ZM378.11 24.06a12.9 12.9 0 0 1 2.79-4.13 11.3 11.3 0 0 1 4.2-2.6 14.1 14.1 0 0 1 10.66.76 11.5 11.5 0 0 1 3.76 3.17 13 13 0 0 1 2.18 4.49 16.1 16.1 0 0 1 .48 5.43 15.9 15.9 0 0 1-1.24 5.19 12.45 12.45 0 0 1-2.79 4.06A11.4 11.4 0 0 1 394 43a14.36 14.36 0 0 1-10.67-.76 11.55 11.55 0 0 1-3.78-3.12 12.9 12.9 0 0 1-2.19-4.42 15.5 15.5 0 0 1-.48-5.31 15.9 15.9 0 0 1 1.23-5.33m4.57 8.9a8.5 8.5 0 0 0 1 2.84 6.2 6.2 0 0 0 2 2.12 6.56 6.56 0 0 0 3.19 1 6.64 6.64 0 0 0 3.3-.5 6.2 6.2 0 0 0 2.3-1.82 8.1 8.1 0 0 0 1.41-2.67 13 13 0 0 0 .6-3.13 14.6 14.6 0 0 0-.14-3.31 8.6 8.6 0 0 0-1-2.92 6 6 0 0 0-2-2.14 6.56 6.56 0 0 0-3.19-1 6.65 6.65 0 0 0-3.3.51 6.1 6.1 0 0 0-2.3 1.82 8.6 8.6 0 0 0-1.41 2.75 14.6 14.6 0 0 0-.62 3.26 13.6 13.6 0 0 0 .16 3.23ZM424.19 21.38a8.4 8.4 0 0 1 3 1.06 7.3 7.3 0 0 1 2.1 1.91 6.6 6.6 0 0 1 1.14 2.48 7.2 7.2 0 0 1 .07 2.82 7.8 7.8 0 0 1-1.58 3.74 6 6 0 0 1-3.5 2v.07a4.44 4.44 0 0 1 1.58 1.15 4.9 4.9 0 0 1 .88 1.58 6.3 6.3 0 0 1 .33 1.86 16 16 0 0 1 0 2c0 .41-.1.89-.16 1.44s-.12 1.11-.15 1.69a12 12 0 0 0 0 1.68 4 4 0 0 0 .38 1.4l-5.61-.92a10 10 0 0 1-.09-3c.11-1.13.18-2.22.2-3.26a5.1 5.1 0 0 0-.74-3.13 4.2 4.2 0 0 0-2.88-1.42l-5.62-.92-1.63 9.95-5.61-.92 4.18-25.51ZM420.3 32.6a4.32 4.32 0 0 0 3-.38 3.62 3.62 0 0 0 1.43-2.64 3.41 3.41 0 0 0-.53-2.85 4.38 4.38 0 0 0-2.75-1.32l-6.15-1-1.18 7.18ZM444.78 25.65 439 50.83l-5.54-1.27 5.82-25.19ZM471.89 33.23l-1.37 4.59-13.07-3.89-1.58 5.3 12 3.58L466.6 47l-12-3.57-1.8 6.05 13.35 4-1.36 4.59L446 52.48l7.39-24.76ZM485.71 38.28l3.59 20.09h.06l6.43-16.1 4.94 2-9.58 24-5.28-2.1-3.56-20.05h-.07l-6.41 16.06-4.94-2 9.58-24ZM503.47 50.74l2.12-4.29 19 9.41-2.12 4.28-6.93-3.44-9.36 18.87-5.09-2.52 9.35-18.87Z" class="cls-3"/><path d="M538.6 572.74a279 279 0 0 1-38.35 25.1l23.62 47.3a334 334 0 0 0 38.77-24.37Z" class="cls-1"/><path d="M232 597.64a280.7 280.7 0 0 1-37.77-24.9l-23.95 48.12A332 332 0 0 0 209 645.27Z" class="cls-2"/><path d="M527.33 602.42a297.59 297.59 0 0 1-322.33-.07l-23.38 47.31a350.18 350.18 0 0 0 369.09.05Z" class="cls-2"/><path d="M443.07 539.36a76.83 76.83 0 1 1-76.83-76.83 76.83 76.83 0 0 1 76.83 76.83Z" style="fill:#fff;stroke:#231f20;stroke-width:5.65px"/><path d="M385 632.24c0 6.64-12.16 7.5-18.8 7.5s-18.8-.86-18.8-7.5l6.78-29.33c1.53-6.64 5.38-7.5 12-7.5 6.64 0 10.07.86 12 7.5ZM418.56 613.66c3.74 7.76-1.29 10.61-12 16.64-14.74 5.4-19.51 7.35-21.48 1.94l-6.78-31.17c-.3-7.57 6.2-5.37 17.64-5.37 11.43 0 15.15-1.74 17.64 6.47Z" class="cls-5"/><path d="M314.23 613.66c-3.74 7.76 1.29 10.61 12 16.64 14.74 5.4 19.5 7.35 21.48 1.94l6.78-31.17c.3-7.57-6.2-5.37-17.64-5.37-11.43 0-15.15-1.74-17.63 6.47Z" class="cls-5"/><path d="M305 460.13s-38.52 29-38.52 71.14c0 0-.62 8.09 9.27 8.09 0 0 13.87.35 13.87-5.27 0 0-.23-26.48 23.57-50.28 0 0 6.79-5.77 4.37-10.76-3-6.19-4.77-10.39-4.77-10.39s-2.48-7.09-7.79-2.53Z" class="cls-6"/><path d="M305 618.79s-38.52-29-38.52-71.14c0 0-.62-8.09 9.27-8.09 0 0 13.87-.35 13.87 5.27 0 0-.23 26.48 23.57 50.28 0 0 6.79 5.77 4.37 10.76-3 6.19-4.77 10.38-4.77 10.38s-2.48 7.1-7.79 2.54ZM426.92 460.13s38.53 29 38.53 71.14c0 0 .62 8.09-9.28 8.09 0 0-13.86.35-13.86-5.27 0 0 .22-26.48-23.57-50.28 0 0-6.79-5.77-4.37-10.76 3-6.19 4.76-10.39 4.76-10.39s2.47-7.09 7.79-2.53Z" class="cls-6"/><path d="M426.92 618.79s38.53-29 38.53-71.14c0 0 .62-8.09-9.28-8.09 0 0-13.86-.35-13.86 5.27 0 0 .22 26.48-23.57 50.28 0 0-6.79 5.77-4.37 10.76 3 6.19 4.76 10.38 4.76 10.38s2.47 7.1 7.79 2.54Z" class="cls-6"/><path d="M335.94 549.87V535.5h-5.57v-3.38a10.5 10.5 0 0 0 2.26-.18 5.9 5.9 0 0 0 2-.73 4.75 4.75 0 0 0 1.48-1.38 4.9 4.9 0 0 0 .79-2.11h3.57v22.15ZM348.6 530.67a6.1 6.1 0 0 1 1.73-1.89 7.5 7.5 0 0 1 2.39-1.15 9.8 9.8 0 0 1 2.69-.37 8.8 8.8 0 0 1 3.48.62 7.2 7.2 0 0 1 2.29 1.55 5.5 5.5 0 0 1 1.25 1.93 5.3 5.3 0 0 1 .38 1.85 5.17 5.17 0 0 1-.8 2.88 4.47 4.47 0 0 1-2.42 1.78v.06a5.1 5.1 0 0 1 3.07 1.88 5.8 5.8 0 0 1 1.07 3.54 6.2 6.2 0 0 1-.71 3.06 6.4 6.4 0 0 1-1.88 2.16 8.8 8.8 0 0 1-2.66 1.28 11.2 11.2 0 0 1-3 .42 12.4 12.4 0 0 1-3.12-.39 8.2 8.2 0 0 1-2.69-1.25 6.13 6.13 0 0 1-2.61-5.26 5.64 5.64 0 0 1 1.09-3.54 5.28 5.28 0 0 1 3.08-1.9v-.06a4.1 4.1 0 0 1-2.43-1.68 5.1 5.1 0 0 1-.82-2.89 5.2 5.2 0 0 1 .62-2.63m3.22 14a3.57 3.57 0 0 0 2.1 1.95 4.3 4.3 0 0 0 1.52.27 4.1 4.1 0 0 0 1.51-.27 3.8 3.8 0 0 0 1.2-.76 3.3 3.3 0 0 0 .81-1.19 3.9 3.9 0 0 0 .28-1.51 3.3 3.3 0 0 0-.3-1.45 3.4 3.4 0 0 0-.82-1.12 3.7 3.7 0 0 0-1.2-.73 4.2 4.2 0 0 0-1.48-.25 4.36 4.36 0 0 0-2.79.9 3.14 3.14 0 0 0-1.14 2.61 3.9 3.9 0 0 0 .31 1.58Zm1.21-8.81a3.9 3.9 0 0 0 2.38.74 3.7 3.7 0 0 0 2.37-.74 2.59 2.59 0 0 0 1-2.17 4.4 4.4 0 0 0-.12-1 2.65 2.65 0 0 0-.5-1 2.74 2.74 0 0 0-1-.8 4.5 4.5 0 0 0-3-.11 3.4 3.4 0 0 0-1.1.59 2.6 2.6 0 0 0-.74.95 3.1 3.1 0 0 0-.27 1.33 2.53 2.53 0 0 0 .95 2.24ZM370.32 530.67a6.1 6.1 0 0 1 1.73-1.89 7.5 7.5 0 0 1 2.38-1.15 10 10 0 0 1 2.69-.37 8.7 8.7 0 0 1 3.48.62 7.1 7.1 0 0 1 2.3 1.55 5.5 5.5 0 0 1 1.25 1.93 5.3 5.3 0 0 1 .38 1.85 5.17 5.17 0 0 1-.8 2.88 4.47 4.47 0 0 1-2.42 1.78v.06a5.08 5.08 0 0 1 3.06 1.88 5.75 5.75 0 0 1 1.08 3.54 6.3 6.3 0 0 1-.71 3.06 6.6 6.6 0 0 1-1.89 2.16 8.7 8.7 0 0 1-2.65 1.28 11.2 11.2 0 0 1-3 .42 12.4 12.4 0 0 1-3.12-.39 8.1 8.1 0 0 1-2.69-1.25 6.44 6.44 0 0 1-1.9-2.15 6.3 6.3 0 0 1-.71-3.11 5.64 5.64 0 0 1 1.09-3.54 5.28 5.28 0 0 1 3.08-1.9v-.06a4.1 4.1 0 0 1-2.43-1.68 5.1 5.1 0 0 1-.82-2.89 5.2 5.2 0 0 1 .62-2.63m3.22 14a3.6 3.6 0 0 0 2.09 1.95 4.4 4.4 0 0 0 1.53.27 4 4 0 0 0 1.5-.27 3.7 3.7 0 0 0 1.21-.76 3.3 3.3 0 0 0 .81-1.19 3.9 3.9 0 0 0 .28-1.51 3.45 3.45 0 0 0-.3-1.45 3.4 3.4 0 0 0-.82-1.12 3.6 3.6 0 0 0-1.21-.73 4.2 4.2 0 0 0-1.47-.25 4.36 4.36 0 0 0-2.79.9 3.12 3.12 0 0 0-1.15 2.61 3.7 3.7 0 0 0 .32 1.58Zm1.21-8.81a3.87 3.87 0 0 0 2.37.74 3.7 3.7 0 0 0 2.38-.74 2.59 2.59 0 0 0 .95-2.17 3.9 3.9 0 0 0-.13-1 2.6 2.6 0 0 0-.49-1 2.74 2.74 0 0 0-1-.8 4.53 4.53 0 0 0-3-.11 3.5 3.5 0 0 0-1.09.59 2.6 2.6 0 0 0-.75.95 3.25 3.25 0 0 0-.26 1.33 2.53 2.53 0 0 0 1.02 2.24ZM394.76 549.87V535.5h-5.57v-3.38a10.5 10.5 0 0 0 2.26-.18 6 6 0 0 0 2-.73 4.7 4.7 0 0 0 1.47-1.38 4.9 4.9 0 0 0 .79-2.11h3.57v22.15Z" class="cls-3"/><path d="M314.23 464.63c-3.74-7.77 1.29-10.62 12-16.65 14.74-5.41 19.5-7.35 21.48-1.94l6.78 31.16c.3 7.58-6.2 5.37-17.64 5.37-11.43 0-15.15 1.75-17.63-6.46Z" class="cls-5"/><path d="M385 446c0-6.64-12.16-7.49-18.8-7.49s-18.8.85-18.8 7.49l6.78 29.34c1.53 6.63 5.38 7.49 12 7.49 6.64 0 10.07-.86 12-7.49ZM418.56 464.63c3.74-7.77-1.29-10.62-12-16.65-14.78-5.41-19.56-7.35-21.56-1.98l-6.78 31.16c-.3 7.58 6.2 5.37 17.64 5.37 11.43 0 15.15 1.75 17.64-6.46Z" class="cls-5"/><path d="M438.55 513.37c-57.07-4.49-111.42-2.18-144.71.26a76.93 76.93 0 0 0-1.13 48c33.4 2.19 88.86 4.32 147 .24a77.1 77.1 0 0 0-1.16-48.52Z" style="fill:none;stroke:#231f20;stroke-width:5.37px;stroke-linecap:round"/><path d="M312 484.78c-6.5 7.72-15.37 22.15-15.37 22.15-2.22 5.72 2.59 6.33 2.59 6.33h67.07c35.06 0 65-.43 65-.43 6.73 0 4.46-6.25 4.46-6.25-3.48-7.77-10.59-15.81-16.2-22.54-2.55-3.04-9.55-2.33-9.55-2.33h-84.75s-10.87.05-13.25 3.07ZM312 591.84c-6.5-7.72-15.37-22.15-15.37-22.15-2.22-5.72 2.59-6.32 2.59-6.32h67.07c35.06 0 65 .42 65 .42 6.73 0 4.46 6.25 4.46 6.25-3.48 7.78-10.59 15.81-16.2 22.54-2.55 3.07-9.57 2.34-9.57 2.34h-84.73s-10.87-.05-13.25-3.08Z" class="cls-6"/><path d="m235.12 635.06-2.12 4.27-11.14-5.62-2.69 5.34 9.66 4.86-2 3.94-9.68-4.85-4.8 9.54-5.08-2.54 11.63-23.08ZM235.45 643.7a13 13 0 0 1 4-3.07 11.3 11.3 0 0 1 4.79-1.18 14.1 14.1 0 0 1 9.91 4 11.4 11.4 0 0 1 2.61 4.18 12.8 12.8 0 0 1 .68 4.94 16 16 0 0 1-1.21 5.32 15.6 15.6 0 0 1-2.78 4.55 12.6 12.6 0 0 1-3.92 3 11.2 11.2 0 0 1-4.75 1.14 13.1 13.1 0 0 1-5.36-1.05 13.4 13.4 0 0 1-4.56-3 11.6 11.6 0 0 1-2.64-4.14 12.5 12.5 0 0 1-.71-4.88 15.3 15.3 0 0 1 1.17-5.2 16.2 16.2 0 0 1 2.77-4.61m1.61 9.87a8.7 8.7 0 0 0 .08 3 6.3 6.3 0 0 0 1.27 2.65 6.7 6.7 0 0 0 2.75 1.91 6.54 6.54 0 0 0 3.29.54 6.2 6.2 0 0 0 2.76-1 8.6 8.6 0 0 0 2.16-2.1 13.3 13.3 0 0 0 1.54-2.8 14 14 0 0 0 .89-3.2 8.8 8.8 0 0 0-.06-3.08 6.1 6.1 0 0 0-1.26-2.66 6.8 6.8 0 0 0-2.74-1.92 6.7 6.7 0 0 0-3.3-.53 6.06 6.06 0 0 0-2.77 1 9 9 0 0 0-2.19 2.17 14.4 14.4 0 0 0-1.59 2.92 13.4 13.4 0 0 0-.83 3.1M262.37 654.35a13 13 0 0 1 3.64-3.42 11.7 11.7 0 0 1 4.67-1.61 14.2 14.2 0 0 1 10.24 3.09 11.5 11.5 0 0 1 3 3.93 12.8 12.8 0 0 1 1.08 4.86 16.2 16.2 0 0 1-.72 5.39 15.3 15.3 0 0 1-2.36 4.79 12.5 12.5 0 0 1-3.62 3.35 11.7 11.7 0 0 1-4.63 1.56 13.1 13.1 0 0 1-5.43-.56 13.3 13.3 0 0 1-4.81-2.53 11.4 11.4 0 0 1-3-3.88 12.45 12.45 0 0 1-1.16-4.79 16.66 16.66 0 0 1 3.08-10.18Zm2.5 9.67a8.7 8.7 0 0 0 .36 3 6.3 6.3 0 0 0 1.51 2.52 7.63 7.63 0 0 0 6.24 1.88 6.1 6.1 0 0 0 2.65-1.26 8.4 8.4 0 0 0 2-2.29 13.4 13.4 0 0 0 1.28-2.92 14.4 14.4 0 0 0 .59-3.26 8.8 8.8 0 0 0-.34-3.06 6.2 6.2 0 0 0-1.51-2.54 7.51 7.51 0 0 0-6.24-1.88 6.1 6.1 0 0 0-2.65 1.28 8.5 8.5 0 0 0-2 2.36 14.2 14.2 0 0 0-1.32 3 13.3 13.3 0 0 0-.57 3.15ZM289.34 659.28l1-4.66 20.7 4.43-1 4.66-7.57-1.62-4.41 20.6-5.55-1.19 4.41-20.6ZM326.64 661.25a16 16 0 0 1 3.3.76 7.4 7.4 0 0 1 2.44 1.41 4.9 4.9 0 0 1 1.4 2.17 7 7 0 0 1 .2 3.09 5.7 5.7 0 0 1-1.31 3.11 6.45 6.45 0 0 1-2.89 1.78 6.16 6.16 0 0 1 3.22 2.85 7.17 7.17 0 0 1 .62 4.27 7.1 7.1 0 0 1-1.2 3.25 6.7 6.7 0 0 1-2.33 2 9.4 9.4 0 0 1-3.08.94 13.5 13.5 0 0 1-3.42 0l-12.4-1.65 3.4-25.61Zm-3.22 21.18a8 8 0 0 0 1.6.05 3.7 3.7 0 0 0 1.4-.37 2.66 2.66 0 0 0 1.05-.9 3.6 3.6 0 0 0 .56-1.6 3.36 3.36 0 0 0-.74-3 4.85 4.85 0 0 0-2.83-1.23l-6.12-.81-.94 7Zm1.12-10.91a4.05 4.05 0 0 0 2.57-.39 2.71 2.71 0 0 0 1.28-2.2 3.1 3.1 0 0 0-.13-1.52 2.5 2.5 0 0 0-.74-1 3.8 3.8 0 0 0-1.18-.61 9 9 0 0 0-1.43-.32l-5.26-.7-.8 6ZM353.21 663.49l8.35 26.29-5.89-.3-1.67-5.85-9.65-.48-2.31 5.64-5.71-.29 11.06-25.3Zm-.47 15.85L350 669.7h-.08l-3.84 9.3ZM371.49 663.7l.51 21.06 12.59-.31.11 4.77-18.25.44-.64-25.82ZM393.83 662.53l2 21 12.53-1.21.46 4.76-18.19 1.74-2.47-25.73ZM439.8 662.14a5.8 5.8 0 0 0-1.54-1.13 6 6 0 0 0-1.88-.56 5.9 5.9 0 0 0-2 .08 6.65 6.65 0 0 0-3 1.43 6.14 6.14 0 0 0-1.7 2.4 8.8 8.8 0 0 0-.58 3 14.2 14.2 0 0 0 .33 3.3 13.5 13.5 0 0 0 1 3 8.5 8.5 0 0 0 1.78 2.44 6.05 6.05 0 0 0 2.54 1.47 6.47 6.47 0 0 0 3.34 0 5.26 5.26 0 0 0 3.63-2.41 7.36 7.36 0 0 0 .86-4.49l5.38-1.17a13.3 13.3 0 0 1-.17 4.52 10.5 10.5 0 0 1-1.62 3.76 10.3 10.3 0 0 1-3 2.79 12.5 12.5 0 0 1-4.12 1.63 13.2 13.2 0 0 1-5.43.13 11.3 11.3 0 0 1-4.51-1.93 12.4 12.4 0 0 1-3.34-3.62 15.3 15.3 0 0 1-2-5 15.8 15.8 0 0 1-.3-5.43 12.8 12.8 0 0 1 1.52-4.76 11.4 11.4 0 0 1 3.29-3.68 13.94 13.94 0 0 1 9.06-2.41 11 11 0 0 1 3.71 1 9.8 9.8 0 0 1 3 2.32 10.2 10.2 0 0 1 2.05 3.63l-5.37 1.16a4.6 4.6 0 0 0-.93-1.47M454.3 651.15l6.1 20.13 12.05-3.65 1.39 4.58-17.49 5.3-7.49-24.71ZM496.28 661.58q-1.78 3.45-6.61 5.33c-3.25 1.28-6.07 1.49-8.47.61s-4.25-2.94-5.54-6.23l-5.87-14.95 5.28-2.08 5.88 15a11 11 0 0 0 .92 1.85 4.24 4.24 0 0 0 1.36 1.4 4.3 4.3 0 0 0 2 .58 6.6 6.6 0 0 0 2.75-.55c1.89-.74 3-1.67 3.41-2.8a6.48 6.48 0 0 0-.47-4.38l-5.88-15 5.29-2.07 5.87 15q1.88 4.85.08 8.29M505.94 630.75a15.6 15.6 0 0 1 3.16-1.2 7.2 7.2 0 0 1 2.81-.2 5 5 0 0 1 2.38 1 6.9 6.9 0 0 1 1.88 2.46 5.7 5.7 0 0 1 .66 3.31 6.4 6.4 0 0 1-1.41 3.08 6.23 6.23 0 0 1 4.26.59 7.9 7.9 0 0 1 3.71 6.55 6.7 6.7 0 0 1-.8 3 8.7 8.7 0 0 1-2 2.5 13 13 0 0 1-2.84 1.89l-11.21 5.54-11.46-23.16Zm4 9.69a4 4 0 0 0 1.92-1.75 2.74 2.74 0 0 0-.17-2.54 3 3 0 0 0-.95-1.19 2.5 2.5 0 0 0-1.18-.43 3.8 3.8 0 0 0-1.32.15 8.7 8.7 0 0 0-1.37.54l-4.77 2.36 2.69 5.42Zm5.15 9.69a8 8 0 0 0 1.36-.85 4.1 4.1 0 0 0 1-1.08 2.85 2.85 0 0 0 .37-1.34 3.6 3.6 0 0 0-.44-1.64 3.39 3.39 0 0 0-2.26-2.06 4.82 4.82 0 0 0-3 .56l-5.54 2.74 3.15 6.36ZM718.33 461.49c-3.64-8.55-7-11.56-2.5-13.87s16.47-4.41 16.47-4.41c-34.88-26-54.68-39.72-54.68-39.72.67 25.67 2.69 60.43 2.69 60.43 9.13-12.91 16.89-6.77 16.89-6.77 12.33 18.08 17.73 46.49-8.15 62.68-11.22-11.58 1.57-36.82 1.57-36.82-27.67 9.27-15.91-34-15.91-34-40.05-.29-18.51-42.33-18.51-42.33-25.93-3.08-35.2-19.36-35.2-19.36-5.88-34.24 53.74-30.32 53.74-30.32-26.92-69.49 37.6-68.63 37.6-68.63-46.55-54.45 5.54-88.79 5.54-88.79-55.27-43.32-42-129.51-42-129.51-8.73 19.35-35.75 45.5-58.37 73.05l-6.28-22.25-15.15-55.18c-4.8 59-50.29 119.83-59.73 132a33.2 33.2 0 0 1-13.29-7.35 18.45 18.45 0 0 0 9.2-2.24c-6.36-4.47-3.18-9.31 1.77-10.06s10.44-8.19 10.44-8.19c-3.54.74-6.72-2-6.72-2 12-15.79-28.44-36.37-28.44-36.37 0 4.88.56 17.08.56 17.08L486.27 130c-2.83 5.21 7.8 21.59 5 24.56s-2.58 13.88-2.58 13.88-14-2.7-19-3c-5.39-.31-17.34-.37-21.23 3.72-1.81 1.9-4.26 8.2-4.26 8.2a115.7 115.7 0 0 0-26.78 4.4s-.27 10.32 3.33 16.46c0 0 2.58 7.45 3.29 9.68s6.72 6 6.72 6c-2.83 0-9 3-15.38 3.73s-5-.75-5-.75l7.08-6.7c-3.54-1.49-16.27-3-21.94-4.47s-21.3-9.71-21.3-9.71a65.1 65.1 0 0 0 9.91 19.37c2.35 3.09 12.95 12.47 20.71 19.18l7.46 6.38-2.23-6.38c-1.57-4.4-2.58-8.25-2.58-8.25 11.66 6.33 20.92.24 20.92.24a16.3 16.3 0 0 0 2.64 5.21l2.18 3.06a32.72 32.72 0 0 0 7.49 30.45c-2.13-15.27 7.07-20.48 7.07-20.48-.88 3.72 3 8 3 8 .53-7.45 8.84-14.34 11.67-17.32s4.39-.92 4.39-.92c1.74 1.72 2.06 6.15 2.06 6.15-4.95 1.49-7.07 15.64-7.07 15.64-8.5 5.22-9.91 17.88-9.91 17.88-9.9 7.46-8.49 20.12-8.49 20.12-7.79 5.22-6.37 26.82-6.37 26.82a18.6 18.6 0 0 0-3.8 7.08s-13.75 57 30.31 104.82c0 0 13.9 16.43 34.07 21.42 0 0 5.89 4.49 5.89 7.63 0 0 1.26 58.55-22.92 44.59 0 0-14.09-6.27-20.69-6.09 0 0-18.6-.16-13.58 20.52 0 0-11.82 8-5.6 22.88 0 0 4.92-7.8 10.51-6.26 0 0 1.06 3.67 7.52 2.37 0 0-6.58 5.62-1.78 18.15a13 13 0 0 1 13.45-7.76s7.46 7.58 13.15-3.37c0 0 8.89-.34 15.67-9.53 0 0 18.27 1.42 27.08-10 0 0 13.34 6.22 18.81 7 0 0 9.62 3.79 13.67-5.85 0 0 8.11-2.28 17.51 10.56 0 0 2.3-20.6-15.76-25.22 0 0-8.25-5.54-20.92-.82l-10.58.25c-5.48-1.57-.83-6.32-.83-6.32 7-10.32 7-35.89 7-35.89.24-3.88 5.47-18.78 5.47-18.78l.62-1.77a29.4 29.4 0 0 0 10.17-2.59c4.4 3.15 12 9.66 21.51 5.2 5.14 8.32 13.07 6.83 17.61 9.24.51 7.05 8.6 7.95 11 10.4-.28 7 5.17 19.4 14 30.33-2.08 10.5 8.14 21.39 8.14 21.39-55.13 6.76-55.59 46.45-55.59 46.45-2.85 72.73 72.29 57.15 72.29 57.15 55.45-19.18 55-75.6 55-75.6 67.36-20.35 22.86-91.24 22.86-91.24M562.76 273.42l-.15 2.12c-8.34 29.18-24.06 40.66-24.06 40.66-3.48 2.37-13-14.44-13-14.44-8.49-18.63 19.11-11.93 19.11-11.93-.71-6-18.82-16.42-18.82-16.42 1.92-11.25 23.77-5.18 23.77-5.18-2.83-12.66-20.43-21.69-20.43-21.69 2.12-14.9 22.56-8.85 22.56-8.85a13.7 13.7 0 0 0-1.56-3.17c-3.71-5.72-7.06-7.65-15.43-11.74-3.9-1.9-4.89 0-4.19-2.42 1.14-3.9 10.48-6 15.65-6.79 15.79 18.16 18.29 41.51 16.55 59.85m64.3 310.17c-6.15-6.36-17.29-4-17.29-4-13.57-25.44 26.1-25.16 26.1-25.16s-2.75 8.07 2.65 14.23c0-.02-11.46 4.69-11.46 14.93" class="cls-3"/><path d="M466.35 505.76s-3.46 7.4-2.17 8.68 4.12-3.35 5.4-2.07 4.09.81 6.23.81 10.25 1.24 15.72-.47c0 0-8.69-2.65-13.58-4.06s-9.27-4.05-11.6-2.89M414.36 220.84c10.61-.38 15.11-3.46 15.11-3.46l1.15 4a24.7 24.7 0 0 1-10.44 4.37c-9.91 1.47-14.92-4-17.05-5.51 0 0 1.19 9.53 2.25 10.64 0 0-8.53-9.18-14.64-14.74-7.78-7.08-9.67-13.54-9.67-13.54s9.89 8.83 29.91 8.83c0 0-4.71 5.59-5.42 6.33 0-.02-.25 3.08 8.8 3.08M438.39 219.48s1.06-4.1 2.47-5.59 13.77-8.54 16.29-6.33c4.24 3.72-8.15 8.56-10.27 9.3s-8.49 2.62-8.49 2.62" class="cls-8"/><path d="M422.69 184.33s4-2 25.61-3.59c0 0 .24-7.46 6-10.06 9.88-4.46 32-.75 37.27.76 0 0-.57-12.32 2.7-15.7s-6.28-17.26-4.51-19.87c0 0 19.33 15.31 17.57 16.43s-11.28 14.6-10.47 18.95a3.36 3.36 0 0 0 2.22 2.5c2.47.93 1.33-11.08 11.7-18.58 1.67-1.21 2-2.13 2-4.08l.31-13.15s35.28 20.62 18.57 30.13c0 0 3.89 3.16 5.3 3.16s-4.06 2.61-5.83 3-9.2 2-9.2 6.14c0 2.42 2.83 3.91 2.83 3.91a17.8 17.8 0 0 0-6.2-1.3c-3.18 0-11.14 1.86-13.09 1.67s-6.55-.74-6.55-.74a7.76 7.76 0 0 0 5.85 3.91s-3 3.91-4.79 3.73c0 0 6.66 4.44 9.52 7.82a4.43 4.43 0 0 1 1.28 2.42c0 .38-7.6-1.3-11.5 2.24 0 0 11 5 11.32 10.24 0 0-6-1.49-7.79-.37 0 0 4.25 5.59 4.61 8.56a41 41 0 0 1-5.67-.36c-1.77-.38-6-1.12-7.07-3.73 0 0 0 6.7 1.06 10 0 0-6.46-3.56-7-7.36 0 2.24-.19 8.51-3.93 11.84 0 0-.35-10.06-2.12-11.18 0 0 0 15.08-2.48 18.07 0 0-9.91.18-9.91-6.15 0 0 6.48-1.54 8.69.18-2.59-2.7-14.71-13.37-28.5 7.65 0 0-1.21-5.51-2.12-6.71-1.42-1.86-11 12.29-10.27 16.76a26.2 26.2 0 0 1 .71-17.88s-1.41-2.6-2.12-4.1c0 0 11-2.61 19.46-8.19s22.64-6 22.64-6-8.13-12.68-15.66-16c-.33-.14-.64-.27-1-.38-5-1.66-6.32-2.15-8.09-.89l-13.57 9.47c-12.73 5.4-13.52-8.2-13.52-8.2a31.36 31.36 0 0 1-4.26-14.97M498.19 262.5s-6.05 3.87-3.54 10.24c2.67 6.81 6.9-1.49 6.9-1.49a40.4 40.4 0 0 1-3.36-8.75M489.16 273.3s-5.13 3.17-3.54 8.38 5.84-2.23 5.84-2.23a14.8 14.8 0 0 1-2.3-6.15M493.94 285s-7.8 4.46-4.6 9.88c4.08 6.93 9.55-1.68 9.55-1.68s-4.48-4.2-4.95-8.2M484.91 295.47s-6.88 3.59-4.24 10.25c2.77 7 8.32-4.1 8.32-4.1a9.07 9.07 0 0 1-4.08-6.15M481.38 284.11s-4.67 6.31-3.71 9.12c.88 2.61 5.48-4.1 5.48-4.1a16 16 0 0 1-1.77-5.02M500.84 297.71s-8.71 2.91-4.95 9.49c3.1 5.44 8.13-3.35 8.13-3.35a21.7 21.7 0 0 1-3.18-6.14M490.58 306.08s-6.9 5.54-3.89 10.62c3.47 5.88 8.49-3.54 8.49-3.54a31.7 31.7 0 0 1-4.6-7.08M476.42 305.16s-2.67 6.55-2.47 9.31c1 13.84 5.83-2.24 5.83-2.24a14.05 14.05 0 0 1-3.36-7.07M506.33 308s-7.81 3.3-2.84 6.7c1.08.74 7.08-2.23 7.08-2.23a6.44 6.44 0 0 1-4.24-4.47M482.44 318.38s-4.95 6.14-2.83 9.87c2.67 4.7 7.08-4.84 7.08-4.84a17.7 17.7 0 0 1-4.25-5.03M475.89 332.35s-2.43 4.18-2.12 8c1 12.3 5.84-2.24 5.84-2.24a9.85 9.85 0 0 1-3.72-5.76M472.53 323a35 35 0 0 0-.17 5.21c.52 5.45 1.41-1.86 1.41-1.86s-.71.78-1.24-3.35M498.36 316.33s-3.08 1.68-3.53 4.47c-.56 3.38 4.78-2.61 4.78-2.61s-.72 0-1.25-1.86M489.87 325.45s-3.59 5.24-4.43 10.06c.37-2.05 6.73-8.38 6.73-8.38a1.88 1.88 0 0 1-2.3-1.68M493.94 252.07s-1.51 5.87-2.74 9.41c-1.8 5.14 5-3.27 5-3.27a18.1 18.1 0 0 1-2.26-6.14M499.61 244s-4.5.94-2.13 6.61c3.12 7.49 7.08-1.3 7.08-1.3s-3.43 1.23-4.95-5.31M496.77 234.1a66 66 0 0 0-.7 7.63c0 .56 4.24-3.26 4.24-3.26s-3.72.75-3.54-4.37" class="cls-8"/><path d="M484.74 240s5.66-6.89 5.84-8.93 1.42 1.63 1.42 1.63.35 6.71 0 7.45-7.26-.15-7.26-.15M490.4 252c.36-2.42 1.42-9.26 1.42-9.26-1.95 1.3-13.8-.75-17-.37s-7.26 1.86-8.31 9.68 14.33 9.13 21.41 8.57a71 71 0 0 0 2.48-8.62M486.69 262.87s-8.16 4.16-21.41-2.23c-4.25-2.05-11 12.48-5.31 16s16.64 5 18.58 3.35 7.79-15.07 8.14-17.12M477.49 282.8s-3.72 3-12.92.19-13.8-2.8-14.69 1.86-1 8.06 2.66 11.18c5.84 5 18.18 3.4 19.64 1.86-.05.05 1.35-6.57 2.12-8.76a38.3 38.3 0 0 1 3.19-6.33" class="cls-8"/><path d="M471.65 300.31c-1.95.93-5.84 5.77-20.17 1.31s-9.73 17.5-6.55 19.36 21.05 3 23.54 1.13c0 0 .53-9.88 1.06-12.3s2.12-9.5 2.12-9.5M468.47 326c-1.07.74-12.36 2-16.11 1.85s-11.14-3.16-12.91-1.85-3.19 20.67.53 23.28c2.3 1.61 27.78 3.72 30.25-1.5 0 0-1.23-9.5-1.41-12.1s-.35-9.68-.35-9.68M471.29 351.54s1 4.67 1.24 6.14a17 17 0 0 1 .25 3s-.26 2.63 1.7 3c0 0-5.84 5.77-7.08 13 0 0-15.39 6.14-24.41 1.86-7.27-3.45-6.12-23.06-3.9-23.28 5.66-.57 26.72 3.16 32.2-3.72M444.14 392.66c-.42-2.1-1.84-8.71-.07-8.35s16.78 1.31 22.45-1.3c0 0-1 9.65-1.43 13.13l-.54 9s-.82 5 0 18.18c0 0-10.33-7.41-17.48-24-.07.02-2.78-5.86-2.93-6.66M500.62 416.28c1.76-.37 4.64-3.65 4.64-3.65s6.89 13.36 7.59 13-4.94-15.23-4.94-15.23c1.42 0 11.33-7.82 11.33-7.82.53 5.19-2 10.61-2 10.61-.53 1.68-.55 15.79-.55 15.79" class="cls-8"/><path d="M507.14 454.9c0 5.22 1.08 9.63.33 17.87-.67 7.16-4.38 40.77-12.11 42.49s-31 3.68-39.5 6.49c0 0-7.12-.23-5.07 1.07s3.2 5.1 3.2 5.1 2.44 3.93 1.22 6.41c0 0 4.9 1.41 6.84-2.14 0 0 3.64 1.45 5.23-.91 0 0 4.87 1.24 5.9-1.22 0 0 7.46.6 10.7-2.61 2.81-2.78 7.05-2.54 9.08-3.7-3.06 2.5-14.87 11.57-28.48 14.92 0 0 5.47.76 5.46 2.35 0 .76 3 7.23 6.4 6.26s5.77-5.35 6.18-6.18c0 0 5.09 1.57 8.28-2s3.32-6.06 3.32-6.06 5.21-1.09 5.48-4.91c0 0 3.12 8.14 13.17 2.61s12.31-10.25 14.38-9.66 2.55 3.52 4 3.46 4.8-1.41 6.4-.36 4.59 5.06 7.38 5.71 13.88 3.73 12.8-11.76c0 0-2.37-5-18.77-1.74-7.48 1.49-14.47-1.85-14.47-1.85s-3.72-3.68-1-7.73c4.57-6.78 6.19-27 7.74-35.71.31-1.83 7-21.5 5.92-20.34-2.19 2.25-8.87-3-8.87-3-3.58 8.92-9.64 49.76-9.64 49.76s2-37.4 5-51.27c.32-1.53-3.66-12-5.62-12.92-38.77-18.57-26.95-44.7-26.95-44.7a31.8 31.8 0 0 1 2.83-6.71s3.19-4.1 4.6-3.72a124 124 0 0 1-2.12-15.28c-.08-1.35-15.57 2.25-15.57 2.25s-9.2 11.9-6.37 20.1a11.88 11.88 0 0 0 10.77 8.2s-4.4 3.73-9.36-.75-6.36 8.2-4.95 10.43 7.78 5.22 11.32 4.47c0 0-3 3.34-9.9 2.24 0 0-2 .26-2.47 1.44-.56 1.41-.69 2-1 5.51-.09 1 .51 6.74.37 7.3-.37 1.49.46 8.46 3 11.06 0 0 8.48 6.94 11.14 6.94Z" class="cls-8"/><path d="M500.84 399.4s-6.88 2.48-4.25 9.12c2.78 7 6.56 0 6.56 0s-1.43-4.64-2.31-9.12M510.39 392.69s-6.58 1.76-4.95 8.76c2.06 8.85 6.55 1.12 6.55 1.12s-.71-5.4-1.6-9.88M520.65 384.87s-6.88 1-5.66 10.61c1 7.51 7.26-2.23 7.26-2.23a9.8 9.8 0 0 0-1.6-8.38M518.89 365.14s-4.57 1.12-5 11.73c-.34 9.54 5.13 4.09 5.13 4.09s-1.02-10.96-.13-15.82M493.14 395.78s-1 5.83-1.13 6.43c-.34 2 3.17-3.46 3.17-3.46a3 3 0 0 1-2.04-2.97M510.46 371.09s-7.86 11-7.5 18.07c.22 4.15 7.26-3 7.26-3s-1-8.37.24-15.07M498.75 382.6s-5.16 8.4-4.63 10.75c1 4.31 5.83.28 5.83.28a93 93 0 0 0-1.2-11.03M519.19 297.32c0 9.95 14.34 25 14.34 25l-17.74-8.47 2.57-8.29c-1.77 4.84-10 2.36-9.56-1.13a18.8 18.8 0 0 1 2.48-5.95C498.47 303.33 510 286 510 286c-4.11 3.5-9.2 5.73-10.94-.17-1.48-5 4.62-10.85 6.52-12.68a18.5 18.5 0 0 0 4.95-10.06c-5.25 6.56-6.08 3.82-7.22-.37-1-3.48 1.9-8.61 3.68-10.43a28.16 28.16 0 0 0 6.37-11.36c-11.32 11.54-10.79 1.49-10.79 1.49 6.72-3 5.13-7.64 5.13-7.64-4 3.59-8.59 1.75-7.43-.37s0-6.71 0-6.71c1.41 1.12 11 3 11 3a16.5 16.5 0 0 0 .36-10.43l4.59 1.49c1.42-11.55-5.3-14.53-5.3-15.65s7.07-1.48 7.07-1.48c.71-4.85-7.07-12.3-7.07-12.3l1.06-3.72h3.36l6.19 8.56s21 8.06 22.39 12.9c0 0-7.63-.47-12 3.44l-4.27 4s-.77 2.51-1.48 5.33a4.24 4.24 0 0 0 1.77.74c3.26 0 16.21 7 17.27 10 0 0-12.11-.84-15.13 3.59-1.72 2.54-6 12.11-6 12.11h2.36c3.25-.2 12.14 7.47 15.33 12.31 0 0-12.76-.79-16.16 2.79-3.14 3.31-4.37 11.37-4.37 11.37 1.77 0 11.32 5.95 13.45 8.56 0 0-12 1.49-12.73 4.47-.06-.02-2.77 7.22-2.77 8.54M695.47 548.54c-1.15-18.42-4.34-25.54-4.34-25.54s39.47-21.58 6.57-70.19c-5.26-3.48-13.25 3.49-13.25 3.49s0-32.33-1.56-43.52c0 0 26.29 21.78 41.7 29 0 0-15.52.8-15.77 5.32-.15 2.71 3 7.53 4.93 11.1 0-.04 43.79 71.11-18.28 90.34M527.48 398.46s-11.1 12.9 0 42.1c0 0 6.68 9.37 22 3.66 0 0 1.7-1.06.38-4-1.92-6.59-4.9-21.33-.11-40.12.03-.01-11.57-3.55-22.27-1.64M553.92 399.71s-7 31.9.63 45.61c0 0 1.74 2.22 13.81 5.2 0 0 3.19 1.8 4.19-1.27-2.11-8.15 2.8-25.22 7.48-43.57-.03 0-16.51-6.68-26.11-5.97M524 366s-.81 10.57 1 13.39 16.28.17 16.28.17 1.94-1.88 0-3.15S532 365.53 524 366M527.25 384.71s3.89 6.47 1.22 8.44c0 0-1.06 1.49-.37 1.49s10.18-.69 10.08-5.24-10.93-4.69-10.93-4.69M549.76 385.86s4.94 6.9.89 7.5-8.37-.81-8.74-1.19.53-4.7-2.57-8c-.91-.92 10.42 1.69 10.42 1.69M586.36 408.29s19.91 9 23.72 15.19c0 0 1.91 3-.47 5.52s-12.52 10.13-18.13 27.45c0 0-.39 1.52-1.45 1.52 0 0-8.92-.6-12.62-6.63a4.85 4.85 0 0 1-1.31-3.27s-1.43-5.89 7.75-38.4c0 0 1-2.09 2.51-1.38M596.25 462.51a3.49 3.49 0 0 1-1.08-3.76s7.28-19.84 19.92-27.62c0 0 2.56-1.31 6 2.26S634.77 451 635.48 460c0 0 .95 2.89-2.74 2.89s-17.29 6.53-31.13 4c0 .02-4.29-.61-5.36-4.38M607.46 472.43s19.2-1.76 25.75-3.89c0 0 6.44-2.14 9.06 2s7.93 17.34 7.93 17.34.32 3.7-8 5.95c-13.66 3.71-28.91 7.72-34.39-15 .01 0-2.53-6.19-.35-6.4M628.67 525.06c13.52-1.34 28.45-4.18 30.83-4.57 5.92-1 1.11-9.32 1.11-9.32-2-3.48-5-10.11-6-12.66s-7.56-.43-7.56-.43c-11.3 3.17-15.82 3-15.82 3s-8-.82-11.2 3.29c-.03-.02-3.44 6.85 8.64 20.69M597.23 86.68s3 21.67-55.57 114c0 0 24.59 20.77 25.07 58 0 0 2.91-31.59-.63-51 0 0 18.53-12.07 46.27-60.27 0 .05-6.37-27.75-15.14-60.73M607.38 164.65s28.67-35.62 60.4-68.38c0 0 1.85 75.68 42.92 103.36H625s-4.85-21.8-17.62-34.98M706 203.36s-38.41 29.86-2.36 81.19l-78.15-32.13s7.14-25.48-.45-49.95ZM625 257l73.93 29.37s-52.89 5-29.25 64.7l-58.8-47.9S625 284.55 625 257" class="cls-8"/><path d="M550.16 329.18s20.93-.41 47.58 35.32l4.67-4.82c-7.14-10.87-14.95-20-29.79-28.3 0 0 26.73-4.78 36.44-25.06l56.14 46s-32.91-3.24-50.31 17.37c-3.46 4.09-15.52 17-15.52 20.06 0 1.24.24 3.58 3.26 3.43 2-.11 13.62-20.3 12.8-17.43a24.4 24.4 0 0 0 1 16.12c4.82 9.13 17.37 14.66 32.8 19.66 0 0-14.74 37.76 19.84 42.2 0 0-8.44 32.25 15.52 34.34 0 0-10.34 16.27.73 33.11 0 0 25.05 67.15-33 95.77 67.66-42.63-18.72-180.12-18.72-180.12-32-36.07-60.51-39.61-60.51-39.61s-12.3-2.14-15.56-7.78c-5.67-9.73-19.23-29.07-31.93-28-4.41-3.31-7.08-3-7.08-3-7.08-1.49-14.62 8.87-14.62 8.87 1.65-16.75-23.79-11-23.79-11C499 312.39 518 319.34 526 325.1c2.23 1.61-10.78 21.61-10.78 21.61l2.67-1.09L534 329.56l2-1.65c50.78-42.46 37.29-116.46 37.29-116.46 23.9-24.18 30.71-40.78 30.71-40.78 6.29 8.36 10.64 14.35 12.92 28.51-6.91 15.29-31.31 15.67-31.31 15.67 20.59 11.9 32.92-7.09 32.92-7.09s6.2 16.49 0 42.4c0 0-17 6.7-36-9.93 0 0 2.75 21.43 35.78 19.28 0 0-.82 64.84-43.06 16.29 0 0 3.33 24 28.64 27.26 0 0-9 13.78-17.61 14.89 0 0-14 1.42-18.37-12.39 0 0-3.75 15.32 10.32 18.11 0 0-8.52 3.12-13.84 3.12-.05 0-11.51-1.79-14.23 2.39" class="cls-8"/><path d="M432.73 185.21c2.12-1.87 6.72-1.13 7.07 2.6s-3.88 7.08-6.36 6c0 0 3.18-2.23 2.82-4.47s-3.53-4.13-3.53-4.13M450.06 178.12s5.31 1.49 7.79 1.12 15.92-.37 18.76.75l1.49-.17 1.33.17s10.26 1.11 12-.75c0 0 .36 6.34-11.32 5.22 0 0-5.66 8.57-14.16 8.57s-14.5-5.22-13.79-11.18c.03 0-3.16 0-2.1-3.73" class="cls-9"/><path d="M450.18 518.05c-3.65-7 4-18 12.95-13 0 0-1 6.89-3 9-1.29 1.3-9.95 4-9.95 4M432.65 213.32l5.73-1.27s-4.59 4.81-2.83 10.78c0 0-4.32-6.89-2.9-9.51M456.44 182.6s2.12 8.56 9.9 7.44c9.22-1.32 9.55-7.82 9.55-7.82s-5.74 5.6-9.46 5.41c-4-.2-5.31-5-5.31-5ZM561.19 517.37s10.72 3.77 11.82 13.16c0 0-7.3-7.55-12.51-5 0 .02 1.88-2.53.69-8.16M447.7 523.73s5.81 5.62 4.6 10.52c0 0-4.39-2.27-10 4.13a21.17 21.17 0 0 1 5.4-14.65M462 540.31s6.4 1.73 6.85 6.63c0 0-8.3 2.73-10 4.87-.01 0-1.67-5.33 3.15-11.5" class="cls-10"/><path d="M634 550.22s-40.22 0-27.53 29.55c0 0-31.64-17.27-19 34.84 0 0-2.89-2.84-5.62-5.66-6.6-6.82-35.23-68.32 42.73-80.48-.08 0-4.01 7.94 9.42 21.75" class="cls-8"/><path d="M600.12 582.69s-25-4.89-12.73 31.92c0 0 18.3 12.73 35.22 10.87 0 0-42.61-25.36-22.49-42.79" class="cls-8"/><path d="M604.53 584.5s-16.2 16.17 18.08 41c0 0 21.35-1.54 22.41-5 0 0 4.18-4.59-1.08-5.57 0 0-28.17-10.42-18.29-28.32 0-.04-7.89-8.51-21.12-2.11" class="cls-8"/><path d="M670.14 577.88s-35.52-17.49-43.08 10.39l-7.55 27.87 7.55-27.87s-3.23 15.88 21.33 24.53c0 0 2.29.69 6.21-3.34 0 0 17.12-15 15.54-31.58" class="cls-8"/><path d="M639.39 552.77s-3.69 9.24 3.27 14.67a68 68 0 0 1 29.91 7.08s1.92-15 .43-20.67c0 0 0-3.45-4.51-1.76 0 0-19.2 2.47-29.1.68M635.3 528.56l26.7-3.67s3.68-2 5.37 2.63c0 0 4.13 12.22 4.8 19 0 0 .57 2.19-2.12 2.19s-27.56 2.2-31-1.31c0 0-14.46-10.79-9.34-16.61 1.97-2.18 3.29-1.86 5.59-2.23" class="cls-8"/><path d="M337.29 205.65c-5.67 1.49-18.4 3-21.94 4.47l7.08 6.7s1.35 1.5-5 .75-12.54-3.73-15.38-3.73c0 0 6-3.72 6.73-6s3.22-9.64 3.22-9.64c3.6-6.14 3.34-16.46 3.34-16.46a115.8 115.8 0 0 0-26.79-4.4s-2.45-6.3-4.25-8.2c-3.89-4.09-15.85-4-21.23-3.72-5 .28-19 3-19 3s.26-10.9-2.57-13.88 7.79-19.35 5-24.56l-23.6 18.59s.57-12.2.57-17.08c0 0-40.44 20.58-28.44 36.37 0 0-3.18 2.79-6.72 2 0 0 5.47 7.45 10.43 8.19s8.15 5.59 1.77 10.06a18.45 18.45 0 0 0 9.2 2.24 33.2 33.2 0 0 1-13.28 7.35c-9.44-12.21-54.94-73-59.73-132l-15.12 55.15-6.28 22.25c-22.62-27.55-49.64-53.7-58.36-73 0 0 13.23 86.19-42 129.51 0 0 52.09 34.34 5.55 88.79 0 0 64.51-.86 37.59 68.63 0 0 59.63-3.89 53.75 30.37 0 0-9.28 16.28-35.21 19.36 0 0 21.55 42-18.51 42.33 0 0 11.76 43.25-15.91 34 0 0 12.8 25.24 1.58 36.82-25.89-16.19-20.49-44.6-8.16-62.68 0 0 7.76-6.14 16.9 6.77 0 0 2-34.76 2.69-60.43 0 0-19.81 13.75-54.69 39.72 0 0 12 2.09 16.47 4.41s1.15 5.32-2.5 13.87c0 0-44.5 70.89 22.91 91.24 0 0-.43 56.42 55 75.6 0 0 75.14 15.58 72.29-57.15 0 0-.46-39.69-55.59-46.45 0 0 10.22-10.89 8.13-21.39 8.81-10.93 14.27-23.37 14-30.33 2.38-2.45 10.47-3.35 11-10.4 4.54-2.41 12.47-.92 17.61-9.24 9.47 4.46 17.12-2.05 21.51-5.2a29.5 29.5 0 0 0 10.17 2.59l.63 1.77s5.22 14.9 5.46 18.78c0 0 0 25.57 7 35.89 0 0 4.65 4.75-.83 6.32l-10.57-.25c-12.67-4.72-20.93.82-20.93.82-18.05 4.62-15.75 25.22-15.75 25.22 9.39-12.84 17.51-10.56 17.51-10.56 4 9.64 13.66 5.85 13.66 5.85 5.48-.79 18.81-7 18.81-7 8.82 11.41 27.08 10 27.08 10 6.79 9.19 15.68 9.53 15.68 9.53 5.68 10.95 13.14 3.37 13.14 3.37a13 13 0 0 1 13.45 7.76c4.81-12.53-1.77-18.15-1.77-18.15 6.46 1.3 7.51-2.37 7.51-2.37 5.46-1.64 10.4 6.18 10.4 6.18 6.22-14.85-5.59-22.88-5.59-22.88 5-20.68-13.59-20.52-13.59-20.52-6.6-.18-20.68 6.09-20.68 6.09-24.19 14-22.92-44.59-22.92-44.59 0-3.14 5.88-7.63 5.88-7.63 20.17-5 34.08-21.42 34.08-21.42 44-47.79 30.3-104.82 30.3-104.82a18.6 18.6 0 0 0-3.8-7.08s1.42-21.6-6.37-26.82c0 0 1.42-12.66-8.49-20.12 0 0-1.41-12.66-9.9-17.88 0 0-2.13-14.15-7.08-15.64 0 0 .32-4.43 2.07-6.15 0 0 1.55-2.06 4.38.92s11.14 9.87 11.68 17.32c0 0 3.89-4.29 3-8 0 0 9.2 5.21 7.08 20.48a32.75 32.75 0 0 0 7.49-30.45l2.17-3.06a16.3 16.3 0 0 0 2.64-5.21s9.26 6.09 20.93-.24c0 0-1 3.85-2.59 8.25l-2.22 6.38 7.45-6.38c7.76-6.71 18.36-16.09 20.71-19.18a65.1 65.1 0 0 0 9.89-19.37s-15.52 8.15-21.23 9.65M123 579.57s-11.13-2.34-17.29 4c0-10.24-11.45-15-11.45-15 5.39-6.16 2.65-14.23 2.65-14.23s39.64-.21 26.09 25.23m84.2-277.81s-9.53 16.81-13 14.44c0 0-15.72-11.48-24.07-40.66l-.15-2.12c-1.74-18.34.8-41.69 16.56-59.85 5.17.84 14.51 2.89 15.65 6.79.71 2.42-.28.52-4.19 2.42-8.36 4.09-11.71 6-15.42 11.74a13 13 0 0 0-1.56 3.17s20.43-6.05 22.55 8.85c0 0-17.6 9-20.42 21.69 0 0 21.85-6.07 23.77 5.18 0 0-18.11 10.46-18.82 16.42 0 0 27.6-6.7 19.1 11.93" class="cls-3"/><path d="M266.39 505.76s3.46 7.4 2.17 8.68-4.11-3.35-5.4-2.07-4.08.81-6.23.81-10.25 1.24-15.71-.47c0 0 8.68-2.65 13.58-4.06s9.26-4.05 11.59-2.89M318.38 220.84c-10.61-.38-15.11-3.46-15.11-3.46l-1.15 4a24.7 24.7 0 0 0 10.44 4.37c9.91 1.47 14.93-4 17.05-5.51 0 0-1.18 9.53-2.24 10.64 0 0 8.52-9.18 14.63-14.74 7.78-7.08 9.68-13.54 9.68-13.54s-9.9 8.83-29.92 8.83c0 0 4.71 5.59 5.42 6.33 0-.02.25 3.08-8.8 3.08M294.35 219.48s-1.06-4.1-2.47-5.59-13.77-8.54-16.28-6.33c-4.25 3.72 8.15 8.56 10.26 9.3s8.49 2.62 8.49 2.62" class="cls-8"/><path d="M310.06 184.33s-4-2-25.61-3.59c0 0-.25-7.46-6-10.06-9.88-4.46-32-.75-37.27.76 0 0 .56-12.32-2.71-15.7s6.28-17.26 4.51-19.87c0 0-19.33 15.31-17.56 16.43s11.28 14.6 10.46 18.95a3.36 3.36 0 0 1-2.22 2.5c-2.47.93-1.33-11.08-11.7-18.58-1.67-1.21-2-2.13-2-4.08l-.31-13.15s-35.28 20.62-18.56 30.13c0 0-3.89 3.16-5.31 3.16s4.07 2.61 5.84 3 9.2 2 9.2 6.14c0 2.42-2.83 3.91-2.83 3.91a17.7 17.7 0 0 1 6.19-1.3c3.19 0 11.14 1.86 13.09 1.67s6.55-.74 6.55-.74a7.76 7.76 0 0 1-5.84 3.91s3 3.91 4.78 3.73c0 0-6.65 4.44-9.51 7.82a4.43 4.43 0 0 0-1.28 2.42c0 .38 7.6-1.3 11.49 2.24 0 0-11 5-11.32 10.24 0 0 6-1.49 7.79-.37 0 0-4.25 5.59-4.61 8.56a41 41 0 0 0 5.67-.36c1.77-.38 6-1.12 7.07-3.73 0 0 0 6.7-1.05 10 0 0 6.45-3.56 7-7.36 0 2.24.2 8.51 3.93 11.84 0 0 .35-10.06 2.13-11.18 0 0 0 15.08 2.47 18.07 0 0 9.91.18 9.91-6.15 0 0-6.48-1.54-8.68.18 2.58-2.7 14.71-13.37 28.49 7.65 0 0 1.22-5.51 2.13-6.71 1.41-1.86 11 12.29 10.26 16.76a26.2 26.2 0 0 0-.71-17.88s1.41-2.6 2.13-4.1c0 0-11-2.61-19.47-8.19s-22.64-6-22.64-6 8.14-12.68 15.67-16c.32-.14.64-.27 1-.38 5-1.66 6.33-2.15 8.09-.89l13.57 9.47c12.73 5.4 13.52-8.2 13.52-8.2a31.3 31.3 0 0 0 4.25-14.97M234.56 262.5s6 3.87 3.53 10.24c-2.67 6.81-6.89-1.49-6.89-1.49a41 41 0 0 0 3.36-8.75M243.58 273.3s5.13 3.17 3.54 8.38-5.84-2.23-5.84-2.23a14.8 14.8 0 0 0 2.3-6.15M238.8 285s7.8 4.46 4.6 9.88c-4.07 6.93-9.55-1.68-9.55-1.68s4.49-4.2 4.95-8.2M247.82 295.47s6.89 3.59 4.25 10.25c-2.77 7-8.31-4.1-8.31-4.1a9 9 0 0 0 4.06-6.15M251.37 284.11s4.66 6.31 3.71 9.12c-.89 2.61-5.48-4.1-5.48-4.1a16.3 16.3 0 0 0 1.77-5.02M231.9 297.71s8.72 2.91 5 9.49c-3.11 5.44-8.14-3.35-8.14-3.35a21.7 21.7 0 0 0 3.14-6.14M242.16 306.08s6.9 5.54 3.9 10.62c-3.48 5.88-8.5-3.54-8.5-3.54a31.3 31.3 0 0 0 4.6-7.08M256.32 305.16s2.68 6.55 2.48 9.31c-1 13.84-5.84-2.24-5.84-2.24a14.05 14.05 0 0 0 3.36-7.07M226.42 308s7.8 3.3 2.83 6.7c-1.08.74-7.08-2.23-7.08-2.23a6.46 6.46 0 0 0 4.25-4.47M250.3 318.38s5 6.14 2.84 9.87c-2.68 4.7-7.08-4.84-7.08-4.84a17.7 17.7 0 0 0 4.24-5.03M256.85 332.35s2.44 4.18 2.12 8c-1 12.3-5.83-2.24-5.83-2.24a9.8 9.8 0 0 0 3.71-5.76M260.21 323a36 36 0 0 1 .18 5.21c-.52 5.45-1.42-1.86-1.42-1.86s.71.78 1.24-3.35M234.38 316.33s3.08 1.68 3.54 4.47c.56 3.38-4.78-2.61-4.78-2.61s.71 0 1.24-1.86M242.87 325.45s3.59 5.24 4.43 10.06c-.36-2.05-6.73-8.38-6.73-8.38a1.88 1.88 0 0 0 2.3-1.68M238.8 252.07s1.51 5.87 2.75 9.41c1.79 5.14-5.05-3.27-5.05-3.27a18.1 18.1 0 0 0 2.3-6.14M233.14 244s4.49.94 2.13 6.61c-3.13 7.49-7.08-1.3-7.08-1.3s3.42 1.23 4.95-5.31M236 234.1a65 65 0 0 1 .71 7.63c0 .56-4.25-3.26-4.25-3.26s3.69.75 3.54-4.37" class="cls-8"/><path d="M248 240s-5.66-6.89-5.84-8.93-1.41 1.67-1.41 1.67-.35 6.71 0 7.45S248 240 248 240M242.34 252c-.36-2.42-1.41-9.26-1.41-9.26 1.94 1.3 13.79-.75 17-.37s7.25 1.86 8.31 9.68-14.32 9.13-21.4 8.57a71 71 0 0 1-2.5-8.62M246.06 262.87s8.16 4.16 21.41-2.23c4.24-2.05 11 12.48 5.3 16s-16.63 5-18.58 3.35-7.78-15.07-8.13-17.12M255.26 282.8s3.71 3 12.91.19 13.8-2.8 14.69 1.86 1 8.06-2.66 11.18c-5.83 5-18.17 3.4-19.64 1.86.05.05-1.34-6.57-2.12-8.76a38.7 38.7 0 0 0-3.18-6.33" class="cls-8"/><path d="M261.09 300.31c2 .93 5.84 5.77 20.17 1.31s9.73 17.5 6.55 19.36-21.05 3-23.53 1.13c0 0-.53-9.88-1.06-12.3s-2.13-9.5-2.13-9.5M264.28 326c1.06.74 12.36 2 16.1 1.85s11.15-3.16 12.91-1.85 3.19 20.67-.53 23.28c-2.29 1.61-27.77 3.72-30.25-1.5 0 0 1.24-9.5 1.42-12.1s.35-9.68.35-9.68M261.45 351.54s-1 4.67-1.24 6.14a17 17 0 0 0-.25 3s.27 2.63-1.69 3c0 0 5.83 5.77 7.07 13 0 0 15.39 6.14 24.42 1.86 7.26-3.45 6.12-23.06 3.89-23.28-5.65-.57-26.72 3.16-32.2-3.72M288.61 392.66c.42-2.1 1.83-8.71.07-8.35s-16.79 1.31-22.46-1.3c0 0 1 9.65 1.44 13.13l.54 9s.81 5 0 18.18c0 0 10.33-7.41 17.47-24 .03.02 2.78-5.86 2.94-6.66M232.12 416.28c-1.76-.37-4.64-3.65-4.64-3.65s-6.88 13.36-7.59 13 4.94-15.23 4.94-15.23c-1.42 0-11.33-7.82-11.33-7.82-.52 5.19 1.95 10.61 1.95 10.61.55 1.67.55 15.81.55 15.81" class="cls-8"/><path d="M225.6 454.9c0 5.22-1.07 9.63-.32 17.87.66 7.16 4.38 40.77 12.11 42.49s31 3.68 39.49 6.49c0 0 7.12-.23 5.07 1.07s-3.2 5.1-3.2 5.1-2.44 3.93-1.22 6.41c0 0-4.9 1.41-6.84-2.14 0 0-3.64 1.45-5.23-.91 0 0-4.86 1.24-5.9-1.22 0 0-7.45.6-10.69-2.61-2.81-2.78-7.05-2.54-9.1-3.7 3.08 2.5 14.88 11.57 28.49 14.92 0 0-5.47.76-5.46 2.35 0 .76-3 7.23-6.4 6.26s-5.77-5.35-6.18-6.18c0 0-5.09 1.57-8.28-2s-3.32-6.06-3.32-6.06-5.2-1.09-5.48-4.91c0 0-3.12 8.14-13.16 2.61s-12.32-10.25-14.39-9.66-2.55 3.52-4 3.46-4.8-1.41-6.4-.36-4.59 5.06-7.39 5.71-13.8 3.73-12.8-11.76c0 0 2.36-5 18.76-1.74 7.49 1.49 14.47-1.85 14.47-1.85s3.73-3.68 1-7.73c-4.59-6.78-6.2-27-7.74-35.71-.33-1.83-7.05-21.5-5.92-20.34 2.18 2.25 8.87-3 8.87-3 3.57 8.92 9.64 49.76 9.64 49.76s-2-37.4-5.05-51.27c-.33-1.53 3.65-12 5.61-12.92 38.78-18.57 26.95-44.7 26.95-44.7a31.2 31.2 0 0 0-2.83-6.71s-3.18-4.1-4.59-3.72a125 125 0 0 0 2.11-15.28c.08-1.35 15.58 2.25 15.58 2.25s9.19 11.9 6.37 20.1a11.89 11.89 0 0 1-10.77 8.2s4.4 3.73 9.35-.75 6.37 8.2 4.95 10.43-7.78 5.22-11.32 4.47c0 0 3 3.34 9.91 2.24 0 0 2 .26 2.46 1.44.56 1.41.69 2 1 5.51.09 1-.51 6.74-.37 7.3.37 1.49-.46 8.46-3 11.06 0 0-8.47 6.94-11.13 6.94Z" class="cls-8"/><path d="M231.9 399.4s6.89 2.48 4.25 9.12c-2.77 7-6.55 0-6.55 0s1.4-4.64 2.3-9.12M222.35 392.69s6.58 1.76 5 8.76c-2.06 8.85-6.54 1.12-6.54 1.12s.65-5.4 1.54-9.88M212.09 384.87s6.88 1 5.66 10.61c-.95 7.51-7.26-2.23-7.26-2.23a9.84 9.84 0 0 1 1.6-8.38M213.86 365.14s4.56 1.12 4.95 11.73c.35 9.54-5.13 4.09-5.13 4.09s1.06-10.96.18-15.82M239.61 395.78s1 5.83 1.12 6.43c.35 2-3.17-3.46-3.17-3.46a3 3 0 0 0 2.05-2.97M222.28 371.09s7.87 11 7.5 18.07c-.22 4.15-7.25-3-7.25-3s.99-8.37-.25-15.07M234 382.6s5.17 8.4 4.63 10.75c-1 4.31-5.83.28-5.83.28a95 95 0 0 1 1.2-11.03M213.55 297.32c0 9.95-14.34 25-14.34 25l17.79-8.5-2.57-8.29c1.77 4.84 10 2.36 9.55-1.13a18.8 18.8 0 0 0-2.48-5.95c12.81 4.88 1.24-12.48 1.24-12.48 4.11 3.5 9.2 5.73 10.94-.17 1.48-5-4.62-10.85-6.52-12.68a18.6 18.6 0 0 1-5-10.06c5.25 6.56 6.08 3.82 7.23-.37.95-3.48-1.9-8.61-3.69-10.43a28.3 28.3 0 0 1-6.37-11.36c11.32 11.54 10.8 1.49 10.8 1.49-6.73-3-5.14-7.64-5.14-7.64 4 3.59 8.59 1.75 7.43-.37s0-6.71 0-6.71c-1.41 1.12-11 3-11 3a16.47 16.47 0 0 1-.35-10.43l-4.6 1.49c-1.41-11.55 5.31-14.53 5.31-15.65s-7.08-1.48-7.08-1.48c-.71-4.85 7.08-12.3 7.08-12.3l-1.06-3.72h-3.32l-6.2 8.56s-21 8.06-22.39 12.9c0 0 7.62-.47 12.05 3.44l4.26 4s.78 2.51 1.48 5.33a4.25 4.25 0 0 1-1.76.74c-3.27 0-16.22 7-17.28 10 0 0 12.11-.84 15.13 3.59 1.73 2.54 6 12.11 6 12.11h-2.36c-3.25-.2-12.15 7.47-15.33 12.31 0 0 12.75-.79 16.16 2.79 3.14 3.31 4.36 11.37 4.36 11.37-1.77 0-11.32 5.95-13.45 8.56 0 0 12 1.49 12.74 4.47.04.01 2.74 7.25 2.74 8.57M37.27 548.54c1.16-18.42 4.34-25.54 4.34-25.54S2.14 501.42 35 452.81c5.27-3.48 13.25 3.49 13.25 3.49s0-32.33 1.57-43.52c0 0-26.3 21.78-41.7 29 0 0 15.51.8 15.76 5.32.15 2.71-3 7.53-4.93 11.1.05-.04-43.74 71.11 18.32 90.34M205.27 398.46s11.1 12.9 0 42.1c0 0-6.69 9.37-22 3.66 0 0-1.69-1.06-.37-4 1.92-6.59 4.9-21.33.1-40.12 0-.01 11.56-3.55 22.27-1.64M178.83 399.71s7 31.9-.63 45.61c0 0-1.75 2.22-13.82 5.2 0 0-3.19 1.8-4.19-1.27 2.11-8.15-2.79-25.22-7.48-43.57 0 0 16.51-6.68 26.12-5.97M208.74 366s.8 10.57-1.06 13.39-16.28.17-16.28.17-1.94-1.88 0-3.15 9.32-10.88 17.34-10.41M205.5 384.71s-3.9 6.47-1.23 8.44c0 0 1.06 1.49.37 1.49s-10.18-.69-10.08-5.24 10.94-4.69 10.94-4.69M183 385.86s-4.94 6.9-.89 7.5 8.38-.81 8.75-1.19-.54-4.7 2.56-8c.89-.92-10.42 1.69-10.42 1.69M146.39 408.29s-19.91 9-23.73 15.19c0 0-1.91 3 .48 5.52s12.51 10.13 18.12 27.45c0 0 .39 1.52 1.45 1.52 0 0 8.92-.6 12.62-6.63a4.85 4.85 0 0 0 1.31-3.27s1.43-5.89-7.75-38.4c0 0-1-2.09-2.5-1.38M136.49 462.51a3.49 3.49 0 0 0 1.08-3.76s-7.28-19.84-19.92-27.62c0 0-2.56-1.31-6 2.26S98 451 97.27 460c0 0-1 2.89 2.74 2.89s17.29 6.53 31.12 4c0 .02 4.29-.61 5.36-4.38M125.29 472.43s-19.2-1.76-25.76-3.89c0 0-6.43-2.14-9.06 2s-7.93 17.34-7.93 17.34-.31 3.7 8 5.95c13.66 3.71 28.91 7.72 34.4-15-.01 0 2.53-6.19.35-6.4M104.07 525.06c-13.51-1.34-28.45-4.18-30.83-4.57-5.92-1-1.11-9.32-1.11-9.32a140 140 0 0 0 6-12.66c1-2.55 7.56-.43 7.56-.43 11.31 3.17 15.82 3 15.82 3s8-.82 11.2 3.29c.03-.02 3.44 6.85-8.64 20.69M135.51 86.68s-2.95 21.67 55.57 114c0 0-24.59 20.77-25.07 58 0 0-2.9-31.59.63-51 0 0-18.53-12.07-46.27-60.27 0 .05 6.4-27.75 15.14-60.73M125.36 164.65S96.69 129 65 96.27c0 0-1.84 75.68-42.91 103.36h85.68s4.83-21.8 17.59-34.98M26.78 203.36s38.4 29.86 2.36 81.19l78.14-32.13s-7.13-25.48.45-49.95ZM107.79 257l-73.92 29.41s52.88 5 29.25 64.7l58.79-47.9s-14.12-18.66-14.12-46.21" class="cls-8"/><path d="M182.58 329.18s-20.93-.41-47.57 35.32l-4.68-4.82c7.15-10.87 15-20 29.79-28.3 0 0-26.72-4.78-36.44-25.06l-56.13 46s32.91-3.24 50.3 17.37c3.46 4.09 15.53 17 15.52 20.06 0 1.24-.24 3.58-3.25 3.43-2-.11-13.63-20.3-12.81-17.43 2.08 7.29.14 14-1 16.12-4.78 9.13-17.31 14.7-32.77 19.7 0 0 14.75 37.76-19.84 42.2 0 0 8.44 32.25-15.52 34.34 0 0 10.34 16.27-.73 33.11 0 0-25.05 67.15 33 95.77-67.67-42.63 18.7-180.12 18.7-180.12 32-36.07 60.52-39.61 60.52-39.61s12.29-2.14 15.55-7.78c5.67-9.73 19.24-29.07 31.94-28 4.4-3.31 7.07-3 7.07-3 7.08-1.49 14.62 8.87 14.62 8.87-1.64-16.75 23.79-11 23.79-11-18.89-44-37.85-37.05-45.87-31.29-2.23 1.61 10.78 21.61 10.78 21.61l-2.67-1.09-16.15-16.06-2-1.65c-50.78-42.46-37.29-116.46-37.29-116.46-23.87-24.18-30.67-40.78-30.67-40.78-6.3 8.36-10.65 14.35-12.92 28.51 6.91 15.29 31.3 15.67 31.3 15.67-20.59 11.9-32.91-7.09-32.91-7.09s-6.21 16.49 0 42.4c0 0 17 6.7 36-9.93 0 0-2.75 21.43-35.77 19.28 0 0 .82 64.84 43.05 16.29 0 0-3.33 24-28.64 27.26 0 0 9 13.78 17.61 14.89 0 0 14 1.42 18.37-12.39 0 0 3.75 15.32-10.32 18.11 0 0 8.53 3.12 13.85 3.12.02.04 11.48-1.75 14.19 2.43" class="cls-8"/><path d="M300 185.21c-2.13-1.87-6.73-1.13-7.08 2.6s3.89 7.08 6.37 6c0 0-3.18-2.23-2.83-4.47s3.54-4.13 3.54-4.13M282.68 178.12s-5.31 1.49-7.78 1.12-15.93-.37-18.76.75l-1.5-.17-1.33.17s-10.26 1.11-12-.75c0 0-.35 6.34 11.32 5.22 0 0 5.67 8.57 14.16 8.57s14.5-5.22 13.79-11.18c-.03 0 3.17 0 2.1-3.73" class="cls-9"/><path d="M282.56 518.05c3.65-7-4-18-12.94-13 0 0 1 6.89 3 9 1.28 1.3 9.94 4 9.94 4M300.1 213.32l-5.74-1.27s4.6 4.81 2.83 10.78c0 0 4.32-6.89 2.91-9.51M276.31 182.6s-2.12 8.56-9.9 7.44c-9.23-1.32-9.56-7.82-9.56-7.82s5.75 5.6 9.46 5.41c4-.2 5.31-5 5.31-5ZM171.55 517.37s-10.72 3.77-11.82 13.16c0 0 7.3-7.55 12.51-5 0 .02-1.88-2.53-.69-8.16M285 523.73s-5.81 5.62-4.6 10.52c0 0 4.4-2.27 10 4.13a21.2 21.2 0 0 0-5.4-14.65M270.8 540.31s-6.41 1.73-6.86 6.63c0 0 8.31 2.73 10 4.87-.03 0 1.62-5.33-3.14-11.5" class="cls-10"/><path d="M98.8 550.22s40.21 0 27.53 29.55c0 0 31.64-17.27 19 34.84 0 0 2.89-2.84 5.63-5.66 6.59-6.82 35.23-68.32-42.74-80.48.02 0 3.95 7.94-9.42 21.75" class="cls-8"/><path d="M132.62 582.69s25-4.89 12.73 31.92c0 0-18.3 12.73-35.22 10.87 0 0 42.66-25.36 22.49-42.79" class="cls-8"/><path d="M128.22 584.5s16.19 16.17-18.09 41c0 0-21.35-1.54-22.4-5 0 0-4.19-4.59 1.08-5.57 0 0 28.16-10.42 18.28-28.32 0-.04 7.91-8.51 21.13-2.11" class="cls-8"/><path d="M62.6 577.88s35.52-17.49 43.08 10.39l7.56 27.87-7.56-27.87s3.24 15.88-21.33 24.53c0 0-2.3.69-6.21-3.34 0 0-17.14-15-15.54-31.58" class="cls-8"/><path d="M93.36 552.77S97 562 90.08 567.44a68 68 0 0 0-29.91 7.08s-1.91-15-.43-20.67c0 0 .06-3.45 4.51-1.76 0 0 19.2 2.47 29.11.68M97.45 528.56l-26.74-3.67s-3.67-2-5.37 2.63c0 0-4.13 12.22-4.8 19 0 0-.57 2.19 2.12 2.19s27.56 2.2 31-1.31c0 0 14.47-10.79 9.34-16.61-1.94-2.18-3.25-1.86-5.55-2.23" class="cls-8"/></g></g></svg>