<svg xmlns="http://www.w3.org/2000/svg" width="663.767" height="933.333"><defs><clipPath id="a" clipPathUnits="userSpaceOnUse"><path d="M0 1080h1080V0H0Z"/></clipPath></defs><g clip-path="url(#a)" transform="matrix(1.33333 0 0 -1.33333 -388.117 1186.667)"><path d="M0 0c-.399 4.049-3.591 5.637-7.373 6.426-2.189.456-3.407-.83-3.218-2.937.341-3.798 2.086-6.696 6.213-7.186C-2.134-3.963-.047-3.443 0 0m72.24 243.421c-.36 2.869-.472 6.619-4.725 6.288-2.687-.21-6.666-.12-7.05-4.402-.353-3.932 3.721-9.081 6.824-8.785 3.972.379 4.771 3.332 4.951 6.899m10.495 73.012c3.949-.465 6.458 1.274 6.581 6.04.107 4.199-1.503 6.694-5.958 6.606-4.142-.082-8.098-.056-7.94-6.23.125-4.92 2.503-6.442 7.317-6.416m-70.947-71.508c-4.442.582-5.733-2.265-6.074-6.568-.44-5.541 3.019-6.5 7.216-6.651 3.777-.136 6.955.619 7.047 5.504.102 5.427-1.761 7.415-8.189 7.715M1.22 241.336c-.024 3.287.087 6.39-4.078 6.687-2.759.197-12.777-6.618-12.321-8.58 1.086-4.672 5.36-5.335 9.09-5.715 5.456-.557 6.521 3.712 7.309 7.608m49.814-9.226c3.494.51 8.678.237 8.753 5.633.034 2.446.183 7.492-4.798 7.757-6.5.344-10.159-2.696-10.362-8.08-.161-4.244 2.33-5.336 6.407-5.31M99.832-35.203c-1.549.95-2.622.42-3.715.035-5.342-1.885-10.658-3.943-16.03.045-.952.707-2.304.636-3.108-.503-1.098-1.557-.255-2.956.632-4.259 3.945-5.793 14.549-7.186 19.839-2.569 2.306 2.013 3.775 4.347 2.382 7.251M30.884 230.004c7.716.091 9.719 2.236 9.675 9.28-.031 5.003-3.477 4.302-6.489 4.291-7.054-.026-10.359-2.873-10.409-8.888-.046-5.553 4.152-4.467 7.223-4.683m155.343 63.245c4.642-2.166 8.111-1.611 11.267-.176 4.364 1.983 8.847 2.506 13.545 2.624 7.174.179 9.044 4.157 4.745 11.455-8.453-6.78-20.504-5.782-29.557-13.903m-277.299 18.882c-11.554 7.423-35.803-.72-38.27-12.508 14.153.528 24.619 11.34 38.27 12.508m209.037 56.068c0-1.954-.094-2.744.016-3.505.473-3.262 1.765-6.42 5.133-7.085 3.409-.674 3.673 2.958 4.442 5.108 1.51 4.222 4.59 5.442 8.602 5.536 1.87.044 3.519.559 3.772 2.804.216 1.92-.47 3.487-2.211 4.385-2.587 1.335-5.325 2.397-7.833 3.861-6.512 3.8-9.166 2.726-10.907-4.781-.569-2.452-.805-4.981-1.014-6.323m27.773-49.301c2.482.506 2.97 2.325 3.227 3.978 2.307 14.858-1.313 28.313-10.138 40.342-2.215 3.019-5.154 2.247-7.447-.25-4.967-5.41-3.534-12.247 2.862-15.555 2.03-1.05 3.598-1.897 5.837-.669 1.455.798 3.007-.129 3.026-1.632.066-5.261 3.938-10.13.966-15.799-1.826-3.483-1.645-7.459 1.667-10.415M42.22 403.695c-10.684 5.23-20.81 8.098-31.418 8.757-4.456.276-8.462-2.464-12.28-4.771-1.376-.832-2.414-2.091-1.918-3.858.5-1.786 2.115-2.515 3.645-2.143 9.894 2.409 19.052-1.899 28.56-2.929 4.667-.505 8.641.989 13.411 4.944m-65.46-19.882c-3.027 2.689-6.444 4.28-8.209 7.789-1.226 2.437-3.374 2.023-5.446.648-5.117-3.394-9.268-7.667-12.043-13.168-1.465-2.906-2.137-5.976.219-8.743 2.316-2.72 5.477-2.693 8.606-1.914 8.176 2.036 13.361 7.446 16.873 15.388m227.177-65.646c-4.802 3.985-9.532 3.882-14.09 3.343-11.564-1.368-21.791-6.793-32.285-11.321-2.44-1.053-3.296-3.316-2.37-5.865.988-2.722 3.381-3.122 5.793-2.62 7.408 1.543 14.908 2.838 22.132 5.023 7.356 2.225 14.367 5.496 20.82 11.44M-27.201-33.318c-3.949 5.945-9.702 9.618-14.086 14.529-2.253 2.523-5.458 4.304-8.464 6.011-2.37 1.346-4.808 1.36-6.229-1.788-2.649-5.869-3.256-11.868-1.502-18.083.807-2.856 2.729-4.438 5.607-3.668 4.623 1.239 9.146.66 13.777.297 3.394-.267 6.978-.174 10.897 2.702m29.883 417.99c2.191 2.225 3.78 2.268 5.463-.087 1.878-2.629 4.747-3.178 7.783-2.914 4.048.351 8.106.662 12.125 1.233 1.962.279 4.809-.464 5.479 2.174.703 2.765-1.367 4.701-3.432 6.237-9.723 7.231-21.899 7.576-31.996.888-4.494-2.978-8.555-6.65-14.161-7.663-2.133-.386-3.595-1.723-1.944-4.172 3.069-4.551 19.327-4.63 22.808.069zM91.287-90.267c1.691 8.594 4.987 16.098.844 24.241-1.258 2.474-3.151 5.156-1.277 8.176 2.937 4.734.182 6.276-3.886 6.891-4.607.697-8.317 2.477-11.18 6.434-1.973 2.728-4.826 4.85-8.614 5.393-1.115-2.864-.141-5.312.692-7.574 3.342-9.076 8.286-17.488 11.194-26.757.413-1.316 1.253-2.982 2.595-2.795 4.403.614 4.328-2.796 5.337-5.341 1.041-2.626 1.344-5.596 4.295-8.668m96.477 457.77c-2.651-2.947-2.974-6.206-2.987-9.158-.032-7.52-2.111-13.322-8.062-18.789-5.393-4.955-10.899-6.291-17.316-5.652-6.173.616-7.33-.234-6.184-6.441.461-2.499 1.691-4.679 2.668-6.986 1.761-4.154 4.132-4.352 7.742-2.628 6.991 3.339 13.964 6.77 21.168 9.59 6.302 2.467 9.709 6.638 10.515 13.275.686 5.651.639 11.258-.829 16.745-1.043 3.898-2.471 7.724-6.715 10.044M28.801 325.249c-4.812-.105-8.114-2.712-10.044-6.802-2.811-5.954-5.37-12.041-7.734-18.187-1.008-2.618-2.364-5.942.417-8.097 2.878-2.229 7.531-3.084 9.861-.932 4.718 4.358 9.27 3.146 14.274 1.896 2.058-.514 4.158-.948 6.264-1.157 5.808-.574 10.279 2.829 9.172 7.564-2.276 9.732-7.737 17.673-15.576 23.866-1.838 1.453-4.26 1.808-6.634 1.849m-125.087-51.651c1.103-.4 2.138-.974 3.235-1.141 6.931-1.057 25.289 10.008 27.77 16.714 1.172 3.166-.404 4.815-3.331 4.092-13.21-3.262-24.864 1.062-36.342 6.812-4.188 2.099-8.321 1.612-12.019-1.33-2.642-2.102-5.573-3.492-8.872-4.146-3.686-.729-8.435-1.552-7.251-6.298 1.061-4.254 5.598-2.034 8.574-1.458 5.592 1.08 11.095 2.621 16.907 4.036.072-4.607-4.256-4.105-5.648-6.654 3.952-2.811 7.773 2.565 12.031.191-2.749-3.808-8.65-2.797-10.627-7.484 6.823-4.339 12.31 2.707 18.49 2.435.062-2.917-2.524-3.191-2.917-5.769M55.716 404.272c2.724-1.688 7.008 2.21 7.523-2.78.451-4.372-3.653-4.371-6.385-5.352-4.011-1.441-8.132-2.57-12.19-3.883-2.211-.715-4.813-1.268-3.974-4.556.872-3.419 3.191-2.165 5.558-1.801 8.744 1.346 15.79 6.136 23.029 10.665 2.395 1.498 4.798 3.981 8.59 2.214-1.577-4.854-6.229-5.946-9.144-8.795-2.961-2.893-7.35-4.314-9.113-8.544 2.097-2.505 4.326-1.51 6.512-.726 6.794 2.439 13.122 5.654 18.583 10.51 2.065 1.836 4.405 3.849 7.509 2.181.87-4.12-4.193-5.821-3.353-10.037 4.172-.378 9.571 2.038 11.574-4.194.061-.188.738-.354 1.046-.26 4.242 1.296 7.801 3.863 9.929 7.574 1.677 2.925-1.604 4.698-3.191 6.793-4.388 5.793-11.957 5.11-17.425 8.738-7.379 4.895-15.499 7.499-24.415 8.369-5.373.524-8.453-1.125-10.663-6.116m.813-375.968c4.673.284 9.231 1.115 13.75 2.299 3.522.922 6.516 2.95 6.211 6.631-.346 4.163-4.407 2.613-7.053 3.071-2.66.461-6.117-.778-6.954 3.461-.866 4.379-3.832 4.754-7.53 3.892-3.19-.743-6.745-2.497-9.665-.947-6.947 3.69-11.428 2.745-13.896-5.171-.596-1.911-2.483-3.247-4.638-1.567-6.221 4.85-12.121 2.662-17.749-.939-3.219-2.061-8.957-3.122-7.749-8.095 1.353-5.57 7.275-4.301 10.94-3.269 14.777 4.158 29.561.689 44.333.634m103.32-77.738c3.79-.355 4.903.828 3.96 4.384-1.687 6.366-3.39 12.739-5.414 19.003-3.608 11.164-11.309 19.267-20.42 26.169-1.58 1.197-3.962 3.238-5.551.736-3.663-5.768-8.112-11.139-6.327-19.14 2.404-10.778 10.529-16.75 17.986-23.248 4.517-3.937 10.081-6.508 15.766-7.904M-76.37 339.695c-27.205 3.976-31.091 23.879-32.692 45.52-14.211-15.126-16.959-48.675-5.422-65.934 9.748 2.929 19.819.493 29.827.948 7.36.335 8.665 2.106 8.314 9.337-.158 3.268-.027 6.549-.027 10.129M69.411-1.391c-5.83-3.449-11.317-5.828-15.857-9.822-1.796-1.58-3.701-3.14-6.222-1.919-2.342 1.133-3.143 3.437-3.058 5.857.068 1.903.558 3.811 1.026 5.675 1.021 4.059 3.957 7.071 5.929 10.613 1.322 2.373 3.101 5.832-.542 6.871-9.49 2.707-18.416 8.33-29.199 5.237-4.885-1.402-6.603-2.876-4.726-7.897 2.631-7.035 1.779-14.331 1.307-21.917-2.765.511-3.781 2.309-5.18 3.513-1.983 1.707-3.972 3.44-6.665 1.546-2.803-1.97-3.206-4.654-1.838-7.711 1.106-2.47 2.567-4.871 3.152-7.465 1.029-4.557 3.478-4.87 7.664-4.376 13.624 1.61 27.125 4.841 41.02 3.563 2.881-.265 5.789.262 8.598 1.195 2.035.677 3.463 1.898 3.795 3.98.635 3.98 1.805 7.941.796 13.057m.653-67.882c-3.917-3.275-4.426-7.337-4.774-11.35-.739-8.507 1.218-16.666 4.253-24.468 3.95-10.156 5.624-20.515 4.724-31.354-.353-4.254-.596-8.535-.543-12.799.082-6.514-2.255-11.612-7.594-15.483-6.509-4.719-9.432-11.653-11.081-19.224-.357-1.638-1.077-3.584.648-4.861 1.653-1.224 3.441-.211 4.953.508 2.444 1.163 4.737 2.646 7.092 3.997 3.996 2.291 7.573 2.651 10.645-1.679 2.053-2.894 5.006-4.829 8.276-6.24 9.004-3.886 13.287-1.465 14.118 8.226.246 2.871.556 6.058-.389 8.654-3.813 10.477-3.235 21.861-7.129 32.31-2.447 6.566-3.849 13.401-3.426 20.525.076 1.276.755 3.213-1.716 3.962-2.827-3.658-1.122-9.2-5.242-13.014-2.132 5.722-2.958 11.225-2.069 16.819 1.436 9.038 1.85 18.146 2.387 27.248.194 3.304.216 8.542-2.257 9.007-4.327.812-4.945 4.284-7.371 6.322-1.024.86-2.062 1.704-3.505 2.894M40.139 275.985c-1.975-8.923 2.454-14.891 10.963-13.693 8.63 1.215 17.048-.031 25.554-.047 7.477-.014 11.798-6.71 8.933-13.714-3.304-8.076-8.501-13.382-17.568-16.179-14.873-4.587-30.221-6.418-45.316-6.952-14.074-.497-28.724 1.459-42 7.939-2.596 1.267-5.284 1.822-7.237-1.105-1.331-1.994-1.293-4.155.461-5.86 2.124-2.065 4.607-2.899 7.306-.905.774.571 1.416 1.354 2.734.984 2.579-2.022 5.041-4.682 8.652-5.342 22.926-4.195 45.767-8.542 69.245-3.37 20.183 4.446 30.64 14.038 34.243 32.512.852 4.364.331 7.697-2.87 11.112-4.941 5.27-4.306 7.484 2.095 10.644 2.246 1.11 4.042 2.543 3.883 5.243-.185 3.143-2.813 3.395-5.107 3.668-3.275.39-6.613.32-9.865.825-8.103 1.257-14.957 8.426-13.472 14.474 1.481 6.031-.884 10.969-5.181 13.804-3.966 2.615-8.641-.585-12.918-1.995 1.558-10.015 9.136-19.628-1.347-28.179 4.181-4.765 10.334-2.222 15.029-6.139-9.61-5.166-17.562 1.479-26.217 2.275M-49.039 44.221c-2.89-2.735-2.915-9.332-7.967-6.383-7.728 4.511-16.127 9.059-17.511 19.518-.241 1.817-.738 3.918-2.472 4.334-5.95 1.425-9.023 5.539-11.417 10.698-1.032 2.225-3.086 3.67-5.753 2.8-2.511-.819-2.706-3.175-2.647-5.317.15-5.436.439-10.869.761-16.298.129-2.178.632-4.61 2.471-5.727 5.893-3.577 11.176-9.001 18.624-8.769 7.542.235 9.351-5.248 13.02-10.854-7.664.115-14.081 6.141-21.744.522 5.396-5.465 10.557-10.62 15.635-15.854 5.266-5.426 11.986-9.402 16.226-15.803 2.05-3.096 4.433-5.242 8.04-6.208 4.469-1.196 8.19-3.265 9.815-8.165.802-2.418 3.092-4.025 5.361-5.163 2.358-1.182 5.405-3.089 7.217.087 1.783 3.125 1.826 6.834-1.602 9.421-1.063.803-2.576 1.018-3.618 1.838-4.67 3.675-10.142 6.729-11.266 13.524C-26.163-6.85-10.366-9.363-.54-22.079.491-15.151-2.299-9.993-8.711-7.068-15.043-4.18-17.66 1.205-19.533 7.284c-.844 2.742-.297 4.292 3.069 4.66 6.358.695 12.188 1.164 16.695-5.043 2.227-3.067 6.257-4.301 9.851-1.51 2.692 2.092 1.827 7.809-1.558 10.889C1.95 22.262-4.904 27.056-14.738 26.306c-9.036-.688-16.53 4.337-24.046 8.805-3.972 2.362-5.349 7.566-10.255 9.11m-.622 281.439c-1.469-4.35-.98-8.859-1.334-13.279-.185-2.304-.942-4.94-3.792-3.271-4.743 2.778-5.262-.668-6.23-3.596-1.2-3.63-.831-7.229.325-10.867 2.068-6.506 4.154-13.28 2.94-20.012-1.35-7.485 1.164-13.059 6.294-17.691 4.005-3.617 7.452-7.236 8.31-12.851.324-2.121 1.843-3.787 4.143-4.352 3.729 4.645 3.504 18.535-1.103 25.21 6.406-2.693 10.999.218 15.973 2.712-2.408-5.011-6.886-8.698-6.442-14.618.386-5.133-.914-10.713 4.368-15.467 3.56 5.471 5.56 10.607 6.109 16.246.322 3.319 1.515 4.97 5.134 4.539 2.291-.272 4.673-.137 6.978.128 5.85.672 11.592 1.726 15.61 6.709 2.069 2.566 2.384 4.634-1.105 6.477-2.805 1.481-5.931 2.807-7.84 6.305 3.442.958 5.7-.621 7.691-2.343 5.503-4.758 11.998-3.783 18.346-3.283 2.89.227 4.545 2.289 4.141 5.289-.394 2.925-2.443 3.585-5.156 3.24-2.306-.294-4.651-.373-6.979-.385-9.985-.049-13.755 4.511-11.798 14.348.49 2.466 1.119 4.956 2.087 7.266 2.776 6.622 5.763 13.157 8.661 19.729 1.314 2.982 2.035 5.807-.834 8.497-2.64 2.475-5.385 3.413-8.844 2.03 3.78-12.076 3.773-12.064-7.289-18.989-2.942-1.842-5.791-3.589-7.472-7.042-1.714-3.52-5.367-4.529-9.031-3.686-3.769.866-7.375 2.377-11.371 2.085-1.458-.107-2.781.59-3.045 2.134-.312 1.83 1.028 2.842 2.48 3.515 1.65.763 3.484.874 5.112.13 4.634-2.116 7.713-1.176 8.524 4.401 2.437-.57 4.468-1.324 6.542-1.471 3.875-.275 6.41 2.564 5.247 5.541-2.253 5.77-9.351 7.677-14.203 3.895-1.808-1.409-3.312-3.932-6.213-2.591-.422 1.942.857 2.69 1.735 3.693.943 1.076 2.71 1.65 2.303 3.967-1.993.078-4.102-.512-5.246-1.797-6.32-7.105-13.003-5.989-20.108-1.489-.866.548-1.611 1.818-3.618.994m121.347 52.339c-1.198-.371-2.216-.48-3.005-.963-5.982-3.655-11.687-3.593-17.264.902-2.461 1.985-5.476 1.658-8.401 1.531-10.852-.474-21.547-3.211-32.508-2.241-.856.075-1.823-.521-2.662-.952-9.741-4.999-19.484-6.447-29.315.19-4.437-5.795-9.415-10.569-16.593-12.387-4.741-1.2-9.576-1.565-13.138 2.151-2.84 2.963-4.948 1.873-7.528.283-10.153-6.259-12.553-16.247-12.948-27.128-.1-2.767-1.281-5.965 1.87-7.994 3.363-2.166 4.372 2.374 6.836 2.593 5.232-3.923 6.386-3.526 7.054 2.757.553 5.2 1.848 10.337 1.393 15.64-.113 1.32.027 2.766 2.438 3.263 2.231-3.03 3.222-6.54 3.394-10.487.173-3.985-1.497-8.032.402-12.501 7.316.701 12.789 5.376 18.884 8.474 2.686 1.366 5.941 2.361 7.2 5.545 1.216 3.077-2.908 4.244-3.098 6.973.772.347 1.276.724 1.808.769a2.9 2.9 0 0 0 1.647-.398c10.205-6.272 21.625-7.103 33.141-7.285 7.984-.126 8.619.891 6.203 8.406-.063.198.389.562.624.881 3.523-.094 5.647-3.344 8.928-3.979 3.653-.707 6.76 1.561 10.217 1.838 1.118.089 2.527.079 3.367-.509 4.614-3.223 8.744-1.497 13.116.645 3.586 1.758 6.904 4.559 11.983 4.445-1.144-1.768-1.81-2.931-2.602-4-2.531-3.414-1.875-6.547.827-9.454 2.803-3.014 5.542-1.575 8.349.145 3.807 2.334 7.684 4.556 11.563 6.771 1.363.778 3.319 1.72 4.168.046 1.567-3.088 5.177-5.473 3.382-9.935-1.333-3.314.549-5.141 3.891-5.545 2.918-.352 5.946-.582 8.654.538 5.967 2.469 10.491 2.571 12.301-5.128.624-2.652 3.358-3.19 5.79-2.424 2.542.801 2.026 3.046 1.515 4.914-1.132 4.132-2.343 8.228-1.867 12.596.953 8.747-7.362 13.028-9.83 20.15-.2.576-1.682.865-2.611 1.005-10.377 1.56-20.107 6.884-31.114 5.02-3.061-.519-5.513 1.502-6.461 4.839M-52.715 140.455c.216-.652.751-1.401.62-2.005-1.501-6.903-.026-12.994 4.292-18.623 1.884-2.456 1.439-5.486.468-8.4-.981-2.943-1.909-5.929-2.528-8.963-1.704-8.355-.055-12.042 7.411-16.433 2.772-1.631 5.225-3.339 6.091-6.652.559-2.139 1.936-3.623 4.218-2.939 2.367.71 1.458 2.793 1.174 4.456-1.009 5.901-1.021 11.753.007 17.887 3.151-1.229 2.63-3.454 3.005-5.223 1.483-6.99 6.945-11.343 12.509-13.48 5.681-2.182 11.009-4.562 15.996-7.921 2.889-1.946 6.159-3.037 9.378-1.611 3.356 1.486 6.861 2.177 10.299 2.777.78 2.952.116 5.519-1.113 7.629-2.634 4.521-5.689 8.799-8.611 13.15-3.869 5.76-2.442 13.218 3.259 16.717.751-1.687-.461-2.971-.9-4.393-1.721-5.561.384-10.625 5.5-13.131 4.683-2.294 7.902-.846 9.28 4.152.698 2.531.143 5.446 2.455 7.853 4.334-2.579 4.523-8.59 9.23-10.802 6.748-3.171 8.236 3.946 12.32 6.27 3.299-3.249 3.244-6.992 2.693-10.914-.549-3.907-2.11-7.891.487-11.969 6.106 1.658 6.765 6.213 6.966 11.298.147 3.711-1.36 8.126 3.05 10.699 2.079-1.422 1.523-3.355 1.927-4.979 2.305-9.284 1.011-18.966 3.225-28.285.894-3.762 2.852-5.015 6.24-3.868 6.661 2.253 12.207 5.937 15.005 12.803.951 2.334 1.954 4.655 3.077 6.91.696 1.396 1.683 2.834 3.464 2.7 2.085-.158 2.939-1.988 3.234-3.661.364-2.066.172-4.235.164-6.359-.009-2.395-1.229-4.962 1.263-7.384 4.188 1.956 4.352 7.48 8.212 9.957 2.658-3.685 2.432-7.206 1.215-10.839-.802-2.396-1.786-4.795-1.508-7.369.535-4.941 4.258-5.518 8.135-5.506 2.281.006 5.938.281 4.794 3.316-3.24 8.595-.528 15.35 4.869 21.775.454.541.452 1.47.652 2.221 3.516 13.148 8.408 26.145-.076 39.474-2.752 4.324-.037 7.249 4.932 7.849 4.597.555 5.591 2.841 3.128 6.759-2.067 3.288-4.172 6.564-6.006 9.981-1.211 2.257-2.267 5.226.388 6.857 3.201 1.967 4.091 4.777 4.29 8.037 3.278.342 6.186.412 8.992.986 6.134 1.255 12.343-4.821 9.913-10.564-5.101-12.053-1.617-23.866.791-35.451 1.184-5.696 1.031-9.415-3.149-13.436-2.973-2.859-5.887-6.177-6.328-11.288 7.592-.8 12.507 5.954 19.682 6.905.318-5.489-2.593-8.68-5.877-11.241-4.891-3.815-10.147-7.171-15.323-10.609-3.997-2.656-7.147-5.833-8.62-10.599-3.396-10.988-11.069-17.962-21.41-22.408-7.683-3.304-15.637-5.823-23.49-8.649-14.161-5.095-28.29-10.62-33.53-26.974-.742-2.315-2.718-5.049.405-6.691 3.168-1.665 5.513.525 7.248 3.09.985 1.455 1.679 3.088 1.618 4.912-.058 1.737.642 3.142 2.174 3.811 8.226 3.59 15.467 8.962 23.483 12.898 3.618 1.777 6.479-.613 6.146-4.708-.202-2.491-1.708-4.295-3.255-6.047-4.63-5.245-9.37-10.396-13.918-15.712-2.399-2.804-4.557-5.861-5.468-9.532-1.102-4.44.885-6.382 5.27-5.218 3.922 1.042 6.927 3.549 9.439 6.559 5.353 6.417 10.524 12.985 15.823 19.447 1.791 2.183 3.407 4.643 6.762 5.843 1.246-13.316-6.219-24.394-8.222-38.014 7.909 3.925 13.377 8.226 16.662 14.959 2.896 5.936 5.635 11.949 8.5 17.901 4.119 8.556 10.514 14.643 19.147 18.783 7.342 3.521 14.298 7.848 21.4 11.863 8.048 4.55 15.103 9.844 15.006 20.419-.007.712.413 1.535.868 2.127 4.926 6.407 7.511 14.01 10.931 21.188 1.267 2.659 2.721 5.144 5.908 6.021 4.787 1.318 6.629 4.947 7.325 9.515.659 4.328.105 8.61-.889 12.731-6.321 26.213-16.482 50.952-28.982 74.792-3.459 6.596-8.85 9.557-16.019 9.691-7.19.134-14.385.236-21.575.136-12.45-.173-24.409 1.886-35.52 7.682-2.454 1.281-4.202.871-6.368-.497-9.915-6.263-20.74-10.539-31.731-14.515-17.536-6.344-34.974-6.155-52.568-.282-14.445 4.822-28.074 11.382-41.32 18.793-3.531 1.975-6.894 2.621-10.243-.086-4.241-3.427-9.204-4.583-14.464-5.567-21.544-4.029-41.578-10.769-56.26-28.786-19.266-23.642-23.652-50.861-21.131-80.064.596-6.904 2.892-13.692.452-20.749-2.312-6.689-.206-13.182 6.297-15.498 5.541-1.973 9.543-4.811 13.028-9.33 2.804-3.635 5.223-1.465 6.318 1.771 1.266 3.741.049 6.986-3.575 8.869-2.925 1.521-6.062 2.635-8.997 4.14-1.542.79-3.972 1.121-3.322 3.866 2.119 1.648 5.823-1.198 7.025 2.631.815 2.598-1.111 5.382.589 8.188.832.1 1.763.321 2.69.307 3.604-.054 4.995 2.044 4.604 5.216-.418 3.382-.534 8.286-4.664 8.267-3.562-.016-7.78.311-11.202-1.809-3.709-2.298-5.197-.547-5.079 2.954.211 6.287 2.328 12.005 5.722 17.141 4.307-.755 3.157-5.532 5.997-6.948 4.423 1.785 1.684 8.83 7.204 9.565 2.646-2.216 1.886-5.118 2.008-7.72.131-2.788.364-5.482 2.551-7.492 1.449-1.332 1.891-4.394 4.729-3.442 2.613.877 4.098 3.184 4.148 5.84.072 3.869-.369 7.747-.59 11.622-.304 5.348-.273 10.437 7.082 10.856.864.05 1.797.742 2.506 1.357 6.767 5.875 10.328 20.97 7.183 29.5-2.636 7.146-4.193 14.555-4.427 22.188-.059 1.94.156 4.217 2.716 4.436 2.497.214 3.072-1.891 3.557-3.843 1.091-4.389 1.429-8.914.924-13.325-.655-5.721 1.673-9.509 5.892-12.977 4.104-3.373 5.24 2.881 8.923 2.151-.032-5.794-4.301-11.073-2.777-17.111 3.705.533 3.126 4.88 6.475 5.447m213.597 144.383c-2.526.037-5.052.116-7.578.104-13.598-.069-20.266-7.502-19.654-21.166.43-9.608-4.994-16.659-12.086-22.111-3.698-2.842-5.921-5.934-6.831-10.293-1.421-6.8-2.887-13.592-4.394-20.668 8.681-4.652 18.093-6.646 27.907-6.879 9.131-.216 18.277.028 27.399-.339 7.494-.301 14.221-2.731 18.183-9.734 14.527-25.681 25.382-52.809 31.97-81.612 2.105-9.201.277-17.75-4.01-25.905-9.124-17.359-17.475-35.236-33.423-47.876-8.731-6.919-17.821-13.152-28.363-16.987-3.228-1.174-5.75-3.136-7.686-5.958-4.147-6.043-3.85-7.24 1.904-11.82 9.957-7.925 16.602-18.411 22.177-29.633 3.461-6.968 6.403-14.172 8.533-21.663 2.485-8.745-.917-12.81-10.013-11.42-13.911 2.125-25.397 9.213-35.729 18.452-1.962 1.755-3.416 4.309-7.015 4.801-2.857-6.765-3.921-14.088-5.433-21.222-5.924-27.945-11.023-56.042-14.975-84.342-1.291-9.238-.195-18.156 2.761-26.986 2.471-7.386 4.359-14.906 3.013-22.877-.945-5.596-3.966-8.624-9.653-9.073-4.877-.385-9.8-.551-14.46.94-6.498 2.078-12.52 1.288-18.701-1.277-4.904-2.036-10.531-5.596-15.336-1.422-4.769 4.142-2.997 10.443-1.891 15.956 1.613 8.033 5.279 15.033 11.559 20.418 7.003 6.005 9.419 13.455 7.918 22.458-1.596 9.576-2.91 19.191-3.594 28.889-.495 7.025-2.235 13.74-5.152 20.215-4.393 9.751-3.302 19.476 1.684 28.611 3.046 5.579 2.254 9.968-1.268 14.988-7.935 11.312-7.754 11.516-21.315 8.711-14.822-3.067-29.382-7.228-44.45-9.327-12.539-1.747-24.363-.206-36.039 4.112-2.915 1.078-5.818 2.188-8.742 3.24-13.426 4.83-13.978 5.603-13.291 19.807.254 5.253.773 10.5 2.878 15.392 1.275 2.963.56 5.183-1.721 7.256-7.645 6.949-14.392 14.727-20.843 22.773-.364.454-.72.978-1.202 1.263-13.291 7.844-23.408 19.603-35.542 28.809-10.54 7.997-13.132 12.778-9.992 25.596 1.247 5.093-.364 10.03-.885 15.02-2.081 19.952-1.283 39.764 6.05 58.562 13.548 34.728 39.894 53.443 76.348 58.639 3.706.528 7.268 1.25 10.406 3.404 4.217 2.894 6.052 6.148 4.603 11.812-1.405 5.496-2.637 10.222-8.398 12.641-1.412.593-2.977 2.448-3.217 3.926-1.085 6.697-6.003 10.541-10.147 15.119-4.44 4.905-6.973 10.597-5.448 17.625.775 3.569.647 7.34-1.049 11.128-4.931-2.702-8.309-7.093-12.61-10.313-10.275-7.693-20.819-10.229-33.639-5.17-7.939 3.133-16.055 5.331-22.614 11.085-1.458 1.279-3.109 2.373-4.408 3.793-6.066 6.636-6.117 11.128-.069 17.708 2.624 2.855 5.468 5.535 8.417 8.055 2.783 2.378 5.835 4.442 9.074 6.873-8.475 17.279-9.259 35.078-3.26 53.155 3.657 11.019 9.559 20.646 19.193 28.873-1.065-23.468-3.668-47.004 25.383-54.845 2.664 2.036 2.575 3.919 2.89 5.576 1.905 10.039 7.326 17.444 16.501 21.951 2.228 1.095 3.451 2.289 4.105 4.944 4.181 16.986 17.545 27.157 34.837 26.435 5.76-.24 10.609.403 14.349 5.433 3.027 4.072 8.475 5.072 12.107 8.504h14c5.049-3.366 10.937-4.424 16.69-5.023 8.816-.918 17.366.863 25.31 5.023h15.167c3.835-2.506 7.778-4.865 11.482-7.553 5.63-4.086 11.722-6.883 18.711-7.366 6.127-.424 10.833-3.222 15.381-7.316 6.07-5.464 12.84-10.158 19.39-15.076 1.852-1.39 2.819-3.01 3.104-5.299a829 829 0 0 1 2.831-20.764c1.255-8.362 4.002-11.547 10.589-12.604 7.632-1.225 13.632 1.416 16.897 8.368 4.073 8.673 6.126 17.97 6.913 27.536.324 3.949.143 8.054 2.635 11.631 2.921-1.205 3.68-3.819 4.838-5.917 4.13-7.485 7.728-15.229 10.739-23.249 3.14-8.367 3.826-16.673-.421-24.829-1.915-3.676-.846-5.823 2.742-7.265a27.5 27.5 0 0 0 3.65-1.811c10.691-6.265 17.156-17.752 14.747-26.148-5.777-20.141-13.487-27.313-29.799-26.566-9.274.424-19.343-.476-25.691 8.855l-.051-.064c3.225.727 6.203-.606 9.086-1.513 6.938-2.181 13.708-2.21 20.558.138 1.771.607 3.503 1.423 3.449 3.415-.059 2.201-2.144 2.423-3.868 2.781-2.361.49-4.599-.303-6.899-.529-5.807-.568-12.411-1.593-15.759 4.462-2.181 3.944-4.798 4.939-8.625 5.365-6.348.706-12.191 2.475-15.73 8.543-1.799 3.085-3.934 2.912-5.731-.032-1.718-2.813-3.201-5.767-4.829-8.636-.953-1.68-2.394-2.58-4.359-2.1-1.553.379-2.373 1.672-2.011 3.091 2.152 8.454-3.094 14.924-5.985 21.928-1.443 3.494-3.94 4.154-8.423 2.405-8.57-3.343-10.506-13.606-19.746-16.576-3.518-1.131-6.941-3.127-10.944-3.255-2.077-.067-4.77.477-5.226-2.38-.486-3.047 2.414-3.11 4.347-3.574 7.182-1.724 15.418-.902 19.226-9.453 5.558 3.521 7.12 8.479 9.587 12.792 1.036 1.81 2.141 4.239 4.795 3.014 2.188-1.011 1.486-3.312 1.123-5.216-1.78-9.336-4.453-18.52-4.656-28.128-.026-1.215-.133-2.86-2.096-2.877-1.984.796-1.762 2.869-2.57 4.336-.741 1.345-1.337 3.012-3.299 2.763-1.711-.216-2.718-1.468-3.174-3.046-2.311-7.981-4.649-15.956-6.815-23.976-.796-2.947-.165-5.826 1.798-8.248 3.272-4.039 9.431-3.291 10.513 1.679.819 3.764 2.856 4.84 5.901 6.117 6.916 2.901 10.658 8.262 12.466 15.719 1.306 5.385-1.526 7.672-5.543 10.343 5.149 6.074 11.081 11.044 13.536 18.474.25.754 1.902 1.365 2.964 1.479 7.892.843 15.569.68 21.57-5.702l-.389.079z" style="fill:#fd0808;fill-opacity:1;fill-rule:nonzero;stroke:none" transform="translate(499.721 473.028)"/><path d="m0 0-2.223 31.133c-3.162-.51-5.859.251-8.651-1.254L-8.666-.765zm-220.34 45.861-6.317-29.655c3.126-.864 5.536-2.089 8.642-1.365l6.313 29.781c-3.142.829-5.467 1.783-8.638 1.239m130.627-47.49c.37 2.946.841 5.027.031 7.32-4.524 1.24-9.518-.087-14.297 1.806l1.038 23.155c-3.278-.271-5.852.9-8.623-.602l-1.634-30.355zm-153.31 29.475 5.495 22.841-8.405 2.094-7.471-30.413 22.486-5.595c1.6 2.373 1.985 4.545 1.797 7.273zm327.807-5.737c4.352 2.496 9.32 1.834 13.563 3.867.309 2.408.25 4.615-1.458 6.415-13.755-1.823-13.755-1.823-14.263 2.579l14.939 3.466c-.208 2.809.016 5.142-1.969 7.214l-23.663-4.914 6.26-30.426c3.221.442 5.884.382 8.335 2.045zm-98.658 2.005c-4.814 6.073-11.751 7.873-18.854 5.112-6.727-2.616-10.607-9.055-10.055-16.685.512-7.084 5.548-12.951 12.347-14.386 7.462-1.575 13.72 1.081 17.316 7.578l-5.835 3.817c-3.831-3.445-7.998-5.779-12.37-1.609-3.331 3.176-3.597 7.42-1.02 11.172 3.899 5.677 8.641 2.966 13.089.34zm-134.02 4.177c-4.013 6.951-10.809 9.845-18.368 8.07-6.741-1.582-11.595-7.451-12.123-14.659-.538-7.333 3.266-13.66 9.787-16.276 6.951-2.789 13.541-1.224 18.301 4.567l-5.271 4.874c-4.313-3.239-8.776-4.349-12.341.411-2.782 3.713-2.286 7.962.913 11.182 4.825 4.855 9.082 1.334 12.992-1.95zm273.907 3.9c-1.299-1.411-2.297-2.909-3.664-3.893-2.994-2.156-6.272-2.281-9.071.244-3.164 2.853-4.223 6.534-2.343 10.534 1.585 3.37 4.799 5.406 8.089 3.89 5.957-2.744 6.527 1.827 8.692 4.81-6.91 4.815-14.032 4.761-20.222.113-5.546-4.166-7.708-11.38-5.461-18.228 2.175-6.631 7.899-10.862 14.85-10.975 7.588-.124 13.078 3.58 15.599 10.859zm-257.801 1.064c-9.556.112-16.899-6.835-17.004-16.089-.104-9.059 7.278-16.322 16.776-16.508 9.354-.183 16.852 6.999 16.945 16.23.092 9.238-7.074 16.254-16.717 16.367m-57.699-7.653c-6.875 5.601-5.095 18.79-17.999 17.649l-5.289-29.998c3.018-1.058 5.531-1.808 8.417-1.101l2.849 14.528c6.83-5.575 5.05-18.622 17.804-18.715l5.383 30.371c-3.107.697-5.443 1.69-8.359 1.193zM-86.391-1.561c2.675-.36 5.128-.752 7.614.142 1.492 4.762-.432 9.915 1.434 14.363 7.361-4.105 7.309-17.093 19.93-14.882v30.675c-2.677.48-5.108.868-7.849-.166l-.784-14.022c-7.56 4.312-7.607 17.453-20.345 14.504zm96.883 25.893 2.586-23.197 8.45.735-2.061 22.784c2.772 2.079 6.021.633 8.555 2.012 1.09 1.301-.526 3.393 1.408 4.812 6.065-8.46 15.252-14.672 13.816-26.867 3.488.542 6.019.131 9.249 1.99-5.572 11.551 3.682 20.473 6.289 30.832-10.469 3.257-10.376-6.213-13.88-12.113-1.978 2.549-3.45 4.547-5.032 6.454-1.184 1.427-1.903 3.569-4.37 3.291-11.52-1.295-23.038-2.603-34.515-3.902-.431-2.746-.333-5 .961-7.275zm-305.236 22.675c3.137 3.079 7.081 5.381 9.432 9.806-11.258 8.474-15.431 20.596-17.665 34.827 14.822-8.003 29.877-5.923 44.852-4.519 5.256.493 10.488.849 15.443-1.306 4.352-1.892 8.38-4.255 8.263-9.954-10.614-4.002-21.8 1.258-32.58-2.071 10.526-4.024 21.018-7.837 32.06-9.881 15.867-5.346 32.322-8.145 48.745-10.952 67.574-11.552 135.52-13.206 203.686-6.83 31.716 2.967 63.124 8.027 94.029 15.925 1.876.48 3.849.661 5.313 2.141 11.196 1.419 21.505 5.764 32.073 9.575-10.789 3.4-21.978-1.741-32.61 2.101.298 7.027 5.496 9.232 11.005 10.812 7.285 2.089 14.638.192 21.899-.418 10.509-.883 20.795-.603 30.87 2.753.9-2.676-1.91-6.377 2.255-8.149-2.886-9.201-6.226-18.12-15.572-23.869 3.48-4.856 7.563-8.387 12.172-11.395l-.002-7.57c-9.048-3.196-18.413-4.45-27.51-4.124-1.609-1.517-1.249-2.942-1.273-4.253-.182-9.962-.17-9.972-9.407-12.913C98.917 3.426 55.962-3.982 12.346-7.921c-8.314-.751-16.649-1.26-24.969-1.945-1.192-.098-2.869.593-3.273-1.431h-8.167c-2.862 2.436-6.171.603-9.25.969l-7.041.178c-3.51-.424-7.242 1.198-10.542-1.147h-1.167c-1.32 1.63-3.173 1.134-4.853 1.143-6.956.036-13.913.004-20.869-.003-1.539-.372-3.47.839-4.611-1.14h-18.667c-1.14 2.438-3.378 1.311-5.107 1.425-52.494 3.458-104.239 11.043-154.545 27.102-5.789 1.848-8.566 4.219-7.485 10.41.315 1.804.52 3.853-.673 6.078-8.288.252-16.802.49-24.899 3.441.103 3.324.858 6.714-.972 9.848" style="fill:#fd0808;fill-opacity:1;fill-rule:nonzero;stroke:none" transform="translate(599.523 201.297)"/><path d="M0 0c-7.944-4.16-16.494-5.942-25.31-5.024C-31.063-4.424-36.951-3.367-42 0Z" style="fill:#fdf8f8;fill-opacity:1;fill-rule:nonzero;stroke:none" transform="translate(562.626 890)"/><path d="M0 0c6.957.007 13.913.039 20.869.003 1.68-.008 3.533.488 4.853-1.143H.056Q.217-.561 0 0" style="fill:#fd1313;fill-opacity:1;fill-rule:nonzero;stroke:none" transform="translate(521.737 191.14)"/><path d="M0 0c3.3 2.345 7.033.724 10.542 1.147L10.5 0Z" style="fill:#fd1313;fill-opacity:1;fill-rule:nonzero;stroke:none" transform="translate(548.626 190)"/><path d="M0 0c3.079-.366 6.388 1.468 9.25-.969H-.083Q-.08-.481 0 0" style="fill:#fd9798;fill-opacity:1;fill-rule:nonzero;stroke:none" transform="translate(566.21 190.969)"/><path d="M0 0a6 6 0 0 1-.083-.969h-7l.042 1.147z" style="fill:#fc6a6a;fill-opacity:1;fill-rule:nonzero;stroke:none" transform="translate(566.21 190.969)"/><path d="M0 0q.217-.561.056-1.14h-4.667C-3.469.839-1.539-.372 0 0" style="fill:#fd6263;fill-opacity:1;fill-rule:nonzero;stroke:none" transform="translate(521.737 191.14)"/><path d="M0 0c10.633-3.842 21.822 1.298 32.61-2.101C22.043-5.912 11.733-10.258.538-11.677z" style="fill:#1a0000;fill-opacity:1;fill-rule:nonzero;stroke:none" transform="translate(715.82 277.167)"/><path d="M0 0c-11.043 2.044-21.534 5.857-32.06 9.881 10.78 3.328 21.966-1.932 32.58 2.071z" style="fill:#1a0000;fill-opacity:1;fill-rule:nonzero;stroke:none" transform="translate(364.584 265.207)"/><path d="M0 0c1.83-3.134 1.075-6.523.973-9.848-4.797.713-9.265 2.396-14.664 4.608C-8.202-3.974-4.079-2.04 0 0" style="fill:#fd1313;fill-opacity:1;fill-rule:nonzero;stroke:none" transform="translate(304.779 248.304)"/><path d="m0 0 .002 7.57 10.464-3.841C7.19 1.563 3.638.671 0 0" style="fill:#fd1313;fill-opacity:1;fill-rule:nonzero;stroke:none" transform="translate(778.447 239.33)"/><path d="M0 0c-4.166 1.772-1.355 5.474-2.255 8.149C-1.116 9.16.144 9.915 2.16 10.12 2.267 6.491 1.473 3.188 0 0" style="fill:#fd1313;fill-opacity:1;fill-rule:nonzero;stroke:none" transform="translate(781.85 282.164)"/><path d="M0 0c-1.687.016-2.745 1.025-3.636 2.3l.165.203c1.767-.019 3.694.173 3.419-2.567z" style="fill:#fca7a8;fill-opacity:1;fill-rule:nonzero;stroke:none" transform="translate(666.532 754.627)"/><path d="M0 0c-.869.058-1.842-.137-2.292.94l.119.377.387-.079C-.757 1.61-.16 1.164.164.203z" style="fill:#fca7a8;fill-opacity:1;fill-rule:nonzero;stroke:none" transform="translate(662.896 756.927)"/><path d="M0 0c-4.123-1.804-5.169-5.625-8.18-7.389-1.454-.851-2.361-2.344-1.219-3.848 1.392-1.834 3.212-.91 4.508.258C-1.854-8.241.391-5.043 0 0m-51.38-30.33c-6.7-3.068-12.888-5.332-19.096-9.965 7.656-1.456 16.775 3.377 19.096 9.965m47.221 77.256c1.254 9.863 2.807 19.81-4.036 28.639 2.391-9.421-2.565-19.686 4.036-28.639m-219.685 1.509c-3.624-7.185-2.593-13.347-.715-19.488.582-1.901 1.693-3.787 4.053-3.48 2.796.363 2.959 2.861 2.969 4.951.033 6.408-3.021 11.706-6.307 18.017M1.971 12.112c9.877 2.285 13.455 21.44 6.017 31.335-4.638-10.327.545-21.935-6.017-31.335m-282.855 72.467c-.784-.286-1.369-.332-1.442-.549-3.236-9.689-6.586-19.32-11.674-28.253-.633-1.112-.601-2.76.965-3.528 1.464-.718 2.558.246 3.645 1.066 6.475 4.883 11.426 22.66 8.506 31.264M-76.48 5.997c5.864 7.482 11.944 14.702 15.561 23.42 1.246 3.001-.041 6.274-3.76 9.166-1.667-4.963-1.18-10.005-5.42-13.026-6.645-4.733-7.052-11.948-6.381-19.56m59.223 37.092c1.341 2.976.727 4.849.193 6.698-2.139 7.411-2.356 14.524 2.706 21.047 1.179 1.52 1.933 3.43 1.331 5.478-.472 1.605-1.565 2.692-3.269 2.91-1.359.174-2.37-.681-2.595-1.857-1.168-6.106-5.262-11.367-5.309-17.74-.046-6.198.681-12.221 6.943-16.536m-214.889 67.951c-8.082-5.729-15.551-24.513-11.595-29.161 9.192 5.802 14.628 19.474 11.595 29.161m16.529-38.843c4.831 2.593 8.904 6.297 9.538 10.776.851 6.02-1.182 12.332-.261 18.907-8.685-2.787-13.116-17.785-9.277-29.683m72.325-46.367c-.424 11.414 2.164 22.395 3.316 33.754-9.248-1.526-9.187-1.524-8.901-9.592.095-2.689-.209-5.391-.335-8.087-.283-6.079.744-11.713 5.92-16.075m-16.194 69.858c-9.819-5.467-9.864-29.087-.983-33.929 7.408 11.228-1.505 22.641.983 33.929M-8.364 12.029c-9.795-14.887-20.672-27.243-35.235-35.902 5.838-.742 9.188 3.279 13.258 5.48 8.768 4.741 16.704 10.689 21.588 19.811 1.465 2.736 2.851 5.455.389 10.611M-209.4 38.121c.063-6.95 2.472-13.232 5.451-19.348.591-1.213 1.189-2.602 2.793-2.58 1.863.025 2.472 1.565 3.081 3.016.818 1.947.666 4.026-.482 5.557-3.428 4.575-2.59 9.947-3.158 15.039-.209 1.873.528 3.849.335 5.727-.191 1.866-.706 4.11-3.053 4.377-2.132.242-2.74-1.767-3.415-3.345-1.151-2.696-1.73-5.514-1.552-8.443m26.611-.995c4.187 6.355 2.786 12.325 3.243 17.941.437 5.374.908 10.786-.091 16.168-.363 1.961-.88 4.135-3.306 3.995-2.075-.12-2.669-2.121-2.558-3.943.24-3.946-1.502-7.597-1.719-11.366-.43-7.491-1.181-15.253 4.431-22.795M-12.946-19.69c-7.3-6.02-16.372-8.498-24.133-13.198-7.757-4.698-13.145-12.276-17.739-20.234 7.401 3.109 14.529 6.424 18.163 14.136 1.998 4.239 5.28 6.26 9.953 6.852 7.079.898 11.627 5.228 13.756 12.444m-107.313 88.863c-.364 6.311-.594 11.15-2.022 15.824-.525 1.72-1.289 3.516-3.313 3.577-2.153.065-2.82-1.865-3.178-3.571-.756-3.593-1.442-7.212-1.928-10.85-.664-4.982-1.503-10.014.223-14.953.568-1.622 1.233-3.378 3.366-3.57 2.076-.187 3.019 1.179 3.943 2.797 2.178 3.815 3.308 7.818 2.909 10.746m22.623 2.88c-3.579-.166-4.645-1.627-5.116-3.311-4.066-14.538-9.53-28.723-11.546-43.782-.756-5.644 1.627-10.242 6.561-15.265.707 7.967 2.101 14.299.702 20.934-1.395 6.615-.217 12.734 5.354 17.33 1.956 1.613 3.053 3.762 2.567 6.148-1.209 5.936-1.324 11.771 1.478 17.946m17.71 13.964c-2.558.818-3.524-.282-3.957-1.568-2.102-6.224-5.366-12.428-4.629-19.045.909-8.173-.237-15.735-2.935-23.357-1.154-3.262-2.251-7.016 2.067-11.217 2.859 8.062 7.088 14.563 10.262 21.624.398.887-.027 2.359-.479 3.379-2.346 5.291-1.519 10.547-.367 15.94 1.035 4.847.257 9.726.038 14.244m-157.187-24.299c-3.349-.568-2.77-4.915-6.475-5.448-1.525 6.039 2.744 11.318 2.776 17.111-3.682.731-4.818-5.524-8.923-2.15-4.218 3.467-6.547 7.256-5.891 12.976.505 4.411.167 8.936-.925 13.326-.485 1.951-1.059 4.056-3.557 3.842-2.56-.219-2.775-2.496-2.715-4.436.234-7.633 1.791-15.041 4.426-22.188 3.146-8.53-.415-23.625-7.182-29.499-.709-.616-1.643-1.308-2.506-1.357-7.355-.42-7.387-5.508-7.082-10.857.22-3.874.662-7.753.589-11.622-.05-2.656-1.534-4.963-4.147-5.839-2.838-.953-3.281 2.109-4.73 3.441-2.186 2.011-2.419 4.704-2.55 7.493-.123 2.601.637 5.503-2.009 7.72-5.519-.736-2.78-7.78-7.204-9.566-2.84 1.417-1.689 6.193-5.997 6.948-3.394-5.136-5.51-10.853-5.722-17.14-.118-3.501 1.371-5.253 5.08-2.954 3.422 2.12 7.639 1.792 11.202 1.809 4.13.018 4.246-4.885 4.663-8.267.392-3.172-.999-5.271-4.603-5.217-.927.014-1.858-.206-2.69-.307-1.701-2.806.226-5.589-.59-8.188-1.201-3.829-4.905-.983-7.025-2.631-.65-2.745 1.781-3.075 3.323-3.866 2.935-1.505 6.071-2.619 8.997-4.14 3.623-1.883 4.84-5.128 3.574-8.869-1.095-3.236-3.514-5.406-6.317-1.77-3.485 4.518-7.487 7.357-13.028 9.33-6.504 2.316-8.609 8.808-6.297 15.498 2.439 7.056.144 13.844-.452 20.749-2.521 29.203 1.864 56.421 21.13 80.063 14.683 18.017 34.716 24.757 56.26 28.787 5.261.984 10.224 2.14 14.464 5.566 3.35 2.707 6.712 2.061 10.243.086 13.246-7.41 26.875-13.97 41.321-18.793 17.593-5.873 35.032-6.062 52.567.282 10.991 3.976 21.817 8.253 31.732 14.515 2.166 1.369 3.913 1.778 6.368.498 11.111-5.797 23.07-7.855 35.52-7.682 7.19.1 14.384-.002 21.575-.136 7.169-.134 12.56-3.095 16.018-9.691C8.599 85.304 18.759 60.565 25.08 34.352c.994-4.121 1.549-8.402.889-12.73-.695-4.569-2.537-8.198-7.325-9.515-3.187-.877-4.641-3.362-5.908-6.021-3.42-7.178-6.004-14.782-10.93-21.188-.455-.592-.875-1.416-.868-2.127.097-10.576-6.958-15.869-15.006-20.419-7.102-4.015-14.059-8.343-21.401-11.864-8.633-4.14-15.027-10.227-19.146-18.782-2.866-5.952-5.604-11.965-8.501-17.901-3.285-6.733-8.752-11.035-16.661-14.959 2.002 13.619 9.468 24.698 8.221 38.014-3.355-1.201-4.971-3.661-6.761-5.844-5.3-6.461-10.471-13.029-15.823-19.446-2.512-3.011-5.517-5.518-9.439-6.56-4.386-1.164-6.372.778-5.27 5.218.911 3.671 3.069 6.728 5.468 9.533 4.547 5.315 9.287 10.466 13.918 15.711 1.546 1.752 3.052 3.557 3.255 6.048.333 4.094-2.529 6.484-6.146 4.708-8.017-3.936-15.258-9.309-23.484-12.899-1.532-.668-2.232-2.074-2.173-3.811.061-1.823-.634-3.456-1.618-4.911-1.735-2.566-4.081-4.756-7.248-3.091-3.123 1.642-1.147 4.376-.406 6.691 5.24 16.354 19.37 21.879 33.531 26.975 7.852 2.826 15.807 5.344 23.49 8.648 10.34 4.446 18.014 11.42 21.41 22.408 1.472 4.766 4.622 7.943 8.62 10.599C-35.057.276-29.801 3.632-24.909 7.446c3.284 2.561 6.194 5.753 5.876 11.242-7.174-.951-12.09-7.706-19.682-6.906.441 5.112 3.356 8.429 6.328 11.288 4.18 4.021 4.334 7.74 3.15 13.437-2.409 11.585-5.892 23.398-.792 35.451 2.43 5.742-3.779 11.818-9.913 10.564-2.805-.574-5.714-.644-8.992-.986-.199-3.261-1.089-6.071-4.29-8.038-2.654-1.631-1.599-4.6-.388-6.856 1.834-3.418 3.939-6.694 6.006-9.981 2.464-3.919 1.47-6.204-3.128-6.76-4.968-.6-7.684-3.525-4.931-7.849 8.483-13.328 3.592-26.326.076-39.473-.201-.752-.198-1.68-.653-2.222-5.396-6.425-8.108-13.18-4.869-21.774 1.144-3.035-2.513-3.31-4.794-3.317-3.877-.011-7.6.565-8.134 5.507-.279 2.574.705 4.972 1.508 7.369 1.217 3.632 1.442 7.154-1.215 10.839-3.861-2.477-4.024-8.001-8.212-9.957-2.492 2.422-1.272 4.988-1.263 7.383.007 2.124.199 4.293-.165 6.359-.295 1.674-1.148 3.504-3.234 3.661-1.78.135-2.768-1.304-3.463-2.7-1.123-2.255-2.127-4.575-3.078-6.91-2.797-6.866-8.344-10.55-15.004-12.803-3.388-1.146-5.347.106-6.241 3.868-2.214 9.319-.919 19.001-3.225 28.286-.403 1.624.152 3.556-1.926 4.979-4.411-2.574-2.904-6.988-3.05-10.7-.201-5.085-.861-9.64-6.966-11.298-2.597 4.078-1.037 8.063-.487 11.97.551 3.922.605 7.665-2.694 10.914-4.084-2.325-5.571-9.442-12.319-6.271-4.708 2.212-4.896 8.224-9.23 10.802-2.312-2.407-1.757-5.322-2.455-7.853-1.379-4.998-4.597-6.445-9.28-4.152-5.116 2.506-7.221 7.571-5.501 13.132.44 1.422 1.651 2.706.901 4.392-5.701-3.498-7.128-10.957-3.26-16.717 2.923-4.35 5.978-8.628 8.612-13.149 1.229-2.11 1.893-4.678 1.112-7.63-3.438-.6-6.942-1.291-10.298-2.777-3.22-1.425-6.489-.335-9.379 1.612-4.986 3.359-10.314 5.738-15.995 7.92-5.564 2.138-11.026 6.491-12.509 13.48-.376 1.769.146 3.995-3.006 5.223-1.028-6.134-1.016-11.985-.007-17.887.284-1.662 1.193-3.746-1.174-4.456-2.281-.684-3.659.801-4.218 2.939-.866 3.314-3.318 5.021-6.091 6.652-7.465 4.392-9.114 8.078-7.41 16.433.618 3.035 1.547 6.02 2.528 8.964.971 2.913 1.415 5.943-.469 8.4-4.318 5.628-5.792 11.72-4.292 18.623.131.604-.403 1.352-.619 2.005" style="fill:#fdf8f8;fill-opacity:1;fill-rule:nonzero;stroke:none" transform="translate(684.12 551.765)"/><path d="M0 0c.947-3.338 3.399-5.358 6.461-4.84C17.467-2.975 27.197-8.3 37.574-9.859c.929-.14 2.412-.429 2.611-1.005 2.469-7.123 10.783-11.403 9.831-20.15-.476-4.368.735-8.464 1.866-12.597.511-1.867 1.027-4.112-1.514-4.913-2.433-.767-5.167-.229-5.791 2.424-1.809 7.698-6.334 7.597-12.301 5.128-2.708-1.12-5.736-.891-8.653-.538-3.343.404-5.225 2.23-3.891 5.545 1.795 4.461-1.816 6.846-3.382 9.935-.849 1.673-2.805.732-4.169-.047-3.879-2.214-7.755-4.436-11.562-6.77-2.807-1.721-5.547-3.159-8.349-.145-2.703 2.907-3.359 6.039-.827 9.454.792 1.069 1.458 2.232 2.601 4-5.078.113-8.396-2.687-11.983-4.445-4.371-2.143-8.502-3.869-13.115-.645-.841.587-2.25.598-3.367.508-3.458-.277-6.565-2.544-10.218-1.837-3.28.635-5.404 3.885-8.927 3.979-.236-.319-.688-.683-.624-.881 2.415-7.515 1.781-8.532-6.203-8.406-11.517.182-22.936 1.013-33.141 7.284a2.9 2.9 0 0 1-1.647.398c-.532-.044-1.036-.422-1.809-.768.191-2.73 4.314-3.896 3.098-6.973-1.258-3.184-4.514-4.179-7.2-5.545-6.095-3.098-11.567-7.774-18.883-8.474-1.9 4.469-.229 8.516-.403 12.501-.171 3.947-1.162 7.456-3.393 10.487-2.412-.497-2.551-1.943-2.438-3.263.455-5.303-.84-10.441-1.393-15.641-.668-6.282-1.823-6.68-7.054-2.756-2.464-.219-3.474-4.759-6.836-2.594-3.152 2.03-1.97 5.227-1.87 7.994.394 10.882 2.795 20.869 12.948 27.128 2.579 1.591 4.688 2.681 7.527-.282 3.562-3.717 8.397-3.352 13.138-2.151 7.178 1.818 12.157 6.592 16.594 12.386 9.831-6.636 19.573-5.188 29.314-.189.84.431 1.807 1.027 2.662.951 10.961-.969 21.656 1.768 32.508 2.241 2.925.128 5.94.454 8.402-1.53 5.576-4.495 11.281-4.558 17.263-.902C-2.216-.48-1.199-.371 0 0" style="fill:#fdf8f8;fill-opacity:1;fill-rule:nonzero;stroke:none" transform="translate(571.408 851.027)"/><path d="M0 0c3.352-.041 5.394 2.793 8.764 1.076C20.631-4.968 31.71-1.758 42.256 4.912c.983.622 1.959 1.401 1.057 2.826-.327.163-.743.548-.987.46-1.074-.387-2.146-.826-3.131-1.398-9.741-5.661-19.624-7.988-30.34-2.328C5.08 6.467 1.697 4.567 0 0m-2.915 35.45c2.007.824 2.753-.446 3.618-.994 7.106-4.5 13.788-5.616 20.109 1.489 1.143 1.285 3.252 1.875 5.246 1.797.407-2.317-1.361-2.891-2.303-3.967-.878-1.003-2.158-1.751-1.736-3.693 2.901-1.341 4.405 1.182 6.214 2.591 4.851 3.782 11.949 1.875 14.203-3.895 1.162-2.977-1.373-5.816-5.248-5.541-2.074.147-4.105.901-6.541 1.471-.812-5.577-3.891-6.517-8.524-4.401-1.629.744-3.463.633-5.112-.13-1.453-.673-2.793-1.685-2.48-3.516.264-1.543 1.587-2.24 3.045-2.133 3.995.292 7.601-1.219 11.37-2.085 3.664-.843 7.317.166 9.031 3.686 1.682 3.453 4.53 5.2 7.472 7.042 11.062 6.925 11.069 6.913 7.289 18.989 3.459 1.383 6.205.445 8.844-2.03 2.869-2.69 2.149-5.515.834-8.497-2.898-6.572-5.884-13.107-8.661-19.729-.968-2.31-1.597-4.8-2.087-7.266C49.711-5.199 53.482-9.759 63.466-9.71c2.328.012 4.673.091 6.979.385 2.713.345 4.762-.316 5.156-3.24.404-3-1.25-5.062-4.141-5.289-6.348-.5-12.842-1.475-18.345 3.283-1.991 1.722-4.249 3.301-7.692 2.343 1.909-3.498 5.035-4.824 7.84-6.305 3.49-1.843 3.175-3.911 1.106-6.477-4.018-4.983-9.761-6.037-15.611-6.709-2.305-.265-4.686-.401-6.977-.128-3.62.431-4.812-1.22-5.135-4.539-.548-5.639-2.549-10.775-6.109-16.246-5.282 4.754-3.982 10.334-4.367 15.467-.445 5.92 4.034 9.607 6.441 14.618-4.974-2.494-9.566-5.405-15.972-2.712 4.607-6.675 4.831-20.565 1.102-25.21-2.3.565-3.819 2.231-4.143 4.352-.857 5.614-4.305 9.234-8.31 12.851-5.13 4.632-7.643 10.206-6.294 17.691 1.214 6.732-.872 13.506-2.94 20.012-1.156 3.638-1.525 7.237-.325 10.867.968 2.928 1.488 6.374 6.23 3.596 2.85-1.669 3.608.967 3.792 3.271.355 4.42-.134 8.929 1.334 13.279" style="fill:#fdf8f8;fill-opacity:1;fill-rule:nonzero;stroke:none" transform="translate(452.975 763.238)"/><path d="M0 0c4.906-1.545 6.283-6.748 10.255-9.11 7.516-4.468 15.01-9.494 24.046-8.805 9.834.749 16.688-4.044 23.262-10.026 3.385-3.08 4.25-8.798 1.558-10.889-3.594-2.792-7.624-1.557-9.851 1.51-4.507 6.207-10.337 5.737-16.695 5.042-3.366-.368-3.913-1.917-3.069-4.66 1.873-6.078 4.49-11.464 10.822-14.352 6.412-2.925 9.202-8.083 8.171-15.011C38.673-53.585 22.875-51.072 11.173-41.8c1.124-6.795 6.596-9.849 11.266-13.523 1.042-.82 2.555-1.036 3.618-1.838 3.428-2.588 3.385-6.296 1.602-9.421-1.812-3.177-4.859-1.27-7.217-.087-2.269 1.138-4.559 2.744-5.361 5.163-1.625 4.9-5.346 6.968-9.815 8.165-3.607.965-5.99 3.112-8.04 6.208C-7.014-40.732-13.734-36.757-19-31.33c-5.078 5.234-10.239 10.389-15.635 15.853 7.663 5.62 14.08-.406 21.744-.521-3.67 5.606-5.478 11.088-13.02 10.854-7.448-.232-12.731 5.191-18.624 8.769-1.839 1.116-2.342 3.548-2.471 5.726-.322 5.429-.611 10.862-.761 16.298-.059 2.143.136 4.498 2.647 5.317 2.667.871 4.721-.574 5.753-2.799 2.394-5.159 5.467-9.274 11.417-10.699 1.734-.415 2.231-2.517 2.472-4.334C-24.094 2.675-15.695-1.872-7.967-6.383-2.915-9.333-2.89-2.736 0 0" style="fill:#fdf8f8;fill-opacity:1;fill-rule:nonzero;stroke:none" transform="translate(450.683 517.25)"/><path d="M0 0c8.655-.796 16.607-7.442 26.217-2.275-4.695 3.917-10.848 1.374-15.029 6.139 10.483 8.551 2.905 18.164 1.347 28.179 4.277 1.41 8.952 4.61 12.918 1.995 4.297-2.835 6.662-7.773 5.181-13.804-1.485-6.048 5.369-13.217 13.472-14.474 3.252-.505 6.59-.435 9.865-.825 2.294-.273 4.922-.525 5.107-3.668.159-2.7-1.637-4.134-3.883-5.243-6.401-3.16-7.036-5.374-2.095-10.644 3.201-3.415 3.722-6.748 2.87-11.112-3.603-18.474-14.06-28.066-34.243-32.512-23.478-5.172-46.319-.825-69.245 3.37-3.611.66-6.073 3.32-8.652 5.342-1.318.369-1.96-.413-2.734-.984-2.699-1.994-5.182-1.16-7.306.905-1.754 1.705-1.792 3.866-.461 5.859 1.953 2.928 4.641 2.373 7.237 1.106 13.276-6.481 27.926-8.436 42-7.939 15.095.534 30.443 2.365 45.316 6.952 9.067 2.796 14.264 8.103 17.568 16.179 2.865 7.004-1.456 13.7-8.933 13.714-8.506.016-16.924 1.262-25.554.047C2.454-14.891-1.975-8.923 0 0" style="fill:#fdf8f8;fill-opacity:1;fill-rule:nonzero;stroke:none" transform="translate(539.86 749.013)"/><path d="M0 0c-.324.961-.921 1.407-1.951 1.035-5.999 6.382-13.676 6.546-21.568 5.703-1.061-.114-2.714-.725-2.963-1.479-2.456-7.43-8.388-12.4-13.536-18.474 4.016-2.672 6.848-4.958 5.542-10.344-1.808-7.456-5.55-12.817-12.466-15.718-3.045-1.278-5.082-2.353-5.901-6.117-1.082-4.97-7.241-5.718-10.513-1.679-1.963 2.422-2.594 5.3-1.798 8.247 2.166 8.021 4.504 15.996 6.815 23.977.457 1.578 1.464 2.83 3.174 3.046 1.962.248 2.558-1.419 3.299-2.764.808-1.466.586-3.539 2.57-4.336 1.963.018 2.07 1.663 2.096 2.878.203 9.607 2.876 18.791 4.656 28.128.363 1.904 1.065 4.204-1.123 5.215-2.654 1.226-3.759-1.204-4.795-3.013-2.467-4.313-4.029-9.271-9.586-12.792-3.809 8.551-12.045 7.729-19.227 9.453-1.933.464-4.833.526-4.347 3.574.456 2.857 3.149 2.313 5.226 2.379 4.003.128 7.426 2.125 10.944 3.256 9.24 2.97 11.176 13.232 19.746 16.576 4.483 1.749 6.98 1.089 8.423-2.405 2.891-7.004 8.137-13.475 5.985-21.928-.362-1.419.458-2.712 2.011-3.091 1.966-.48 3.406.42 4.359 2.1 1.628 2.868 3.112 5.823 4.829 8.636 1.797 2.944 3.932 3.116 5.731.032 3.539-6.068 9.382-7.838 15.73-8.544 3.828-.425 6.444-1.421 8.625-5.365 3.348-6.055 9.952-5.03 15.76-4.461 2.299.225 4.537 1.019 6.898.529 1.725-.358 3.809-.58 3.868-2.782.054-1.991-1.678-2.808-3.449-3.415-6.85-2.347-13.62-2.318-20.557-.137-2.884.907-5.862 2.239-9.087 1.513C3.694.173 1.768-.02 0 0" style="fill:#fdf8f8;fill-opacity:1;fill-rule:nonzero;stroke:none" transform="translate(663.06 757.13)"/><path d="M0 0c1.443-1.19 2.481-2.034 3.505-2.894 2.426-2.038 3.044-5.51 7.37-6.322 2.473-.465 2.452-5.703 2.257-9.007-.536-9.102-.95-18.21-2.386-27.248-.889-5.594-.064-11.097 2.069-16.819 4.12 3.814 2.415 9.356 5.242 13.014 2.471-.749 1.791-2.687 1.716-3.962-.423-7.125.978-13.959 3.426-20.525 3.894-10.449 3.316-21.833 7.129-32.311.945-2.595.635-5.782.389-8.653-.832-9.692-5.114-12.113-14.118-8.226-3.27 1.411-6.223 3.346-8.276 6.24-3.072 4.33-6.649 3.97-10.645 1.679-2.356-1.351-4.648-2.834-7.093-3.997-1.512-.719-3.299-1.732-4.953-.508-1.724 1.277-1.004 3.223-.648 4.861 1.65 7.57 4.573 14.505 11.082 19.224 5.339 3.871 7.676 8.969 7.594 15.483-.054 4.264.19 8.545.543 12.799.9 10.839-.774 21.198-4.724 31.354-3.035 7.802-4.992 15.961-4.254 24.468C-4.426-7.337-3.917-3.276 0 0" style="fill:#fdf8f8;fill-opacity:1;fill-rule:nonzero;stroke:none" transform="translate(569.786 403.755)"/><path d="M0 0c-.185 4.31-2.856 5.615-6.125 7.134C-6.682 2.202-3.624 1.242 0 0m29.739 4.086c1.009-5.115-.161-9.077-.796-13.057-.332-2.081-1.76-3.303-3.795-3.979-2.809-.934-5.717-1.461-8.597-1.196-13.896 1.278-27.396-1.953-41.021-3.562-4.186-.495-6.635-.182-7.664 4.376-.585 2.593-2.046 4.995-3.152 7.465-1.368 3.056-.964 5.74 1.838 7.711 2.693 1.893 4.682.16 6.665-1.547 1.399-1.203 2.415-3.001 5.18-3.512.472 7.585 1.324 14.881-1.307 21.916-1.877 5.021-.159 6.496 4.726 7.897 10.783 3.094 19.709-2.53 29.199-5.237 3.644-1.039 1.864-4.498.542-6.871-1.972-3.541-4.908-6.554-5.929-10.613C5.16 2.013 4.67.105 4.603-1.798c-.086-2.419.715-4.724 3.057-5.857 2.522-1.22 4.426.339 6.223 1.92C18.422-1.742 23.909.637 29.739 4.086" style="fill:#fdf8f8;fill-opacity:1;fill-rule:nonzero;stroke:none" transform="translate(539.393 467.55)"/><path d="M0 0c0-3.58-.132-6.861.027-10.128.35-7.232-.954-9.003-8.314-9.338-10.008-.455-20.079 1.981-29.827-.948-11.538 17.259-8.79 50.809 5.422 65.934C-31.091 23.88-27.205 3.977 0 0" style="fill:#fdf8f8;fill-opacity:1;fill-rule:nonzero;stroke:none" transform="translate(423.352 812.722)"/><path d="M0 0c-5.685 1.396-11.249 3.967-15.766 7.904-7.458 6.499-15.582 12.47-17.987 23.248-1.784 8.001 2.664 13.372 6.327 19.14 1.589 2.502 3.972.461 5.551-.736 9.112-6.902 16.813-15.005 20.42-26.169C.569 17.123 2.273 10.75 3.96 4.384 4.902.828 3.789-.355 0 0" style="fill:#fdf8f8;fill-opacity:1;fill-rule:nonzero;stroke:none" transform="translate(659.57 423.594)"/><path d="M0 0c-14.773.055-29.557 3.524-44.334-.635-3.665-1.031-9.586-2.3-10.939 3.27-1.208 4.972 4.53 6.034 7.749 8.094 5.628 3.602 11.527 5.79 17.749.94 2.155-1.68 4.042-.344 4.638 1.567 2.468 7.916 6.948 8.861 13.896 5.171 2.92-1.55 6.475.203 9.665.947 3.698.862 6.664.487 7.529-3.892.838-4.239 4.295-3 6.954-3.461 2.647-.458 6.707 1.091 7.053-3.071.306-3.682-2.688-5.709-6.211-6.631C9.231 1.115 4.673.284 0 0" style="fill:#fdf8f8;fill-opacity:1;fill-rule:nonzero;stroke:none" transform="translate(556.25 501.332)"/><path d="M0 0c2.211 4.991 5.29 6.641 10.663 6.116 8.916-.87 17.037-3.474 24.415-8.369 5.468-3.628 13.037-2.945 17.425-8.737 1.587-2.096 4.868-3.869 3.191-6.794-2.128-3.711-5.687-6.277-9.929-7.573-.308-.094-.985.072-1.046.26-2.003 6.231-7.401 3.815-11.574 4.193-.84 4.216 4.224 5.918 3.353 10.037-3.104 1.668-5.444-.345-7.509-2.18-5.461-4.856-11.789-8.072-18.583-10.51-2.186-.785-4.415-1.78-6.512.726 1.763 4.229 6.153 5.65 9.113 8.543 2.916 2.849 7.567 3.941 9.144 8.795-3.792 1.767-6.195-.715-8.59-2.214C6.322-12.236-.724-17.025-9.468-18.372c-2.367-.364-4.686-1.618-5.558 1.802-.839 3.287 1.763 3.84 3.974 4.555 4.058 1.313 8.18 2.442 12.19 3.883 2.733.982 6.837.981 6.385 5.352C7.008 2.21 2.724-1.687 0 0" style="fill:#fdf8f8;fill-opacity:1;fill-rule:nonzero;stroke:none" transform="translate(555.437 877.3)"/><path d="M0 0c.393 2.578 2.979 2.852 2.917 5.769-6.18.272-11.667-6.774-18.49-2.436 1.977 4.688 7.878 3.677 10.627 7.485-4.258 2.374-8.079-3.003-12.031-.192 1.391 2.55 5.72 2.048 5.648 6.655-5.812-1.415-11.315-2.956-16.907-4.037-2.976-.575-7.513-2.795-8.574 1.459-1.184 4.746 3.565 5.569 7.251 6.298 3.299.654 6.23 2.044 8.872 4.146 3.698 2.942 7.831 3.428 12.019 1.33 11.478-5.75 23.132-10.075 36.342-6.812 2.927.723 4.503-.926 3.331-4.092C28.524 8.867 10.166-2.198 3.235-1.141 2.138-.974 1.103-.4 0 0" style="fill:#fdf8f8;fill-opacity:1;fill-rule:nonzero;stroke:none" transform="translate(403.435 746.626)"/><path d="M0 0c3.879 3.886 3.876 7.573.002 11.472C-2.16 7.605-2.224 3.874 0 0m-1.805 24.08c2.374-.042 4.795-.397 6.634-1.85 7.839-6.193 13.3-14.134 15.575-23.866 1.108-4.735-3.363-8.138-9.171-7.564-2.107.209-4.206.643-6.264 1.157-5.004 1.25-9.556 2.462-14.274-1.896-2.33-2.152-6.984-1.297-9.861.932-2.781 2.155-1.425 5.479-.418 8.097 2.365 6.146 4.924 12.233 7.734 18.187 1.93 4.09 5.233 6.697 10.045 6.803" style="fill:#fdf8f8;fill-opacity:1;fill-rule:nonzero;stroke:none" transform="translate(530.328 774.198)"/><path d="M0 0c4.244-2.32 5.671-6.146 6.714-10.044 1.469-5.487 1.516-11.094.83-16.745-.806-6.638-4.213-10.808-10.515-13.275-7.204-2.821-14.177-6.252-21.168-9.59-3.61-1.724-5.981-1.527-7.742 2.628-.977 2.306-2.207 4.486-2.668 6.985-1.146 6.208.011 7.058 6.184 6.442 6.416-.64 11.923.697 17.316 5.651 5.95 5.467 8.03 11.27 8.062 18.79C-2.974-6.207-2.651-2.947 0 0" style="fill:#fdf8f8;fill-opacity:1;fill-rule:nonzero;stroke:none" transform="translate(687.486 840.531)"/><path d="M0 0c-2.951 3.071-3.254 6.042-4.295 8.667-1.01 2.545-.934 5.956-5.337 5.342-1.342-.188-2.183 1.479-2.596 2.795-2.907 9.269-7.851 17.681-11.193 26.757-.833 2.262-1.807 4.71-.692 7.574 3.788-.543 6.641-2.666 8.614-5.393 2.863-3.958 6.573-5.737 11.18-6.434 4.067-.615 6.823-2.157 3.886-6.891-1.874-3.021.019-5.702 1.277-8.176C4.986 16.097 1.691 8.594 0 0" style="fill:#fdf8f8;fill-opacity:1;fill-rule:nonzero;stroke:none" transform="translate(591.009 382.761)"/><path d="m0 0 2.125-4.236c-3.481-4.698-19.738-4.619-22.808-.069-1.651 2.45-.189 3.787 1.944 4.172C-13.133.88-9.072 4.553-4.578 7.53c10.097 6.689 22.273 6.343 31.996-.888 2.065-1.536 4.135-3.471 3.432-6.237-.67-2.637-3.517-1.895-5.479-2.173-4.019-.572-8.077-.882-12.125-1.233-3.036-.264-5.905.284-7.783 2.914C3.78 2.268 2.191 2.225 0 0" style="fill:#fdf8f8;fill-opacity:1;fill-rule:nonzero;stroke:none" transform="translate(502.403 857.7)"/><path d="M0 0c-3.919-2.876-7.503-2.968-10.897-2.702-4.631.363-9.153.942-13.777-.296-2.877-.771-4.8.811-5.606 3.668-1.755 6.215-1.148 12.213 1.501 18.082 1.421 3.148 3.859 3.135 6.229 1.788 3.007-1.707 6.212-3.488 8.464-6.01C-9.702 9.618-3.949 5.945 0 0" style="fill:#fdf8f8;fill-opacity:1;fill-rule:nonzero;stroke:none" transform="translate(472.52 439.71)"/><path d="M0 0c-5.318 1.964-9.093 1.603-13.387-1.568C-8.439-4.514-4.66-4.025 0 0m25.332 7.494C18.879 1.55 11.868-1.721 4.511-3.946c-7.224-2.185-14.723-3.48-22.131-5.023-2.412-.502-4.805-.101-5.793 2.62-.926 2.549-.07 4.812 2.369 5.865C-10.549 4.044-.323 9.469 11.242 10.837c4.558.539 9.288.642 14.09-3.343" style="fill:#fdf8f8;fill-opacity:1;fill-rule:nonzero;stroke:none" transform="translate(678.327 783.7)"/><path d="M0 0c-3.512-7.942-8.697-13.352-16.873-15.388-3.129-.779-6.29-.806-8.606 1.914-2.356 2.767-1.684 5.837-.218 8.743C-22.922.77-18.772 5.044-13.655 8.438c2.072 1.374 4.22 1.788 5.446-.649C-6.443 4.28-3.026 2.69 0 0" style="fill:#fdf8f8;fill-opacity:1;fill-rule:nonzero;stroke:none" transform="translate(476.481 856.84)"/><path d="M0 0c-4.77-3.955-8.744-5.45-13.411-4.944-9.508 1.03-18.666 5.337-28.56 2.929-1.53-.373-3.145.356-3.646 2.142-.495 1.768.543 3.027 1.919 3.859 3.818 2.307 7.824 5.047 12.28 4.771C-20.81 8.098-10.684 5.23 0 0" style="fill:#fdf8f8;fill-opacity:1;fill-rule:nonzero;stroke:none" transform="translate(541.942 876.723)"/><path d="M0 0c-3.313 2.956-3.494 6.932-1.667 10.415 2.972 5.669-.901 10.538-.966 15.799-.019 1.503-1.572 2.43-3.027 1.632-2.239-1.228-3.806-.381-5.836.668-6.396 3.309-7.829 10.146-2.862 15.556 2.292 2.497 5.232 3.269 7.447.25C1.913 32.291 5.533 18.836 3.226 3.978 2.97 2.325 2.481.506 0 0" style="fill:#fdf8f8;fill-opacity:1;fill-rule:nonzero;stroke:none" transform="translate(645.46 791.926)"/><path d="M0 0c.209 1.342.445 3.87 1.014 6.322 1.741 7.507 4.396 8.581 10.908 4.781 2.507-1.463 5.246-2.525 7.832-3.86 1.741-.899 2.427-2.465 2.211-4.386C21.712.613 20.063.098 18.193.054c-4.012-.095-7.092-1.314-8.602-5.537-.769-2.149-1.033-5.781-4.442-5.108C1.781-9.925.489-6.767.016-3.506-.094-2.745 0-1.954 0 0" style="fill:#fdf8f8;fill-opacity:1;fill-rule:nonzero;stroke:none" transform="translate(617.686 841.227)"/><path d="M0 0c-13.651-1.168-24.118-11.98-38.271-12.508C-35.803-.721-11.555 7.423 0 0" style="fill:#fdf8f8;fill-opacity:1;fill-rule:nonzero;stroke:none" transform="translate(408.65 785.159)"/><path d="M0 0c9.053 8.121 21.104 7.123 29.557 13.904 4.3-7.299 2.43-11.277-4.745-11.456-4.698-.117-9.181-.64-13.545-2.624C8.111-1.611 4.642-2.165 0 0" style="fill:#fdf8f8;fill-opacity:1;fill-rule:nonzero;stroke:none" transform="translate(685.948 766.276)"/><path d="M0 0c-3.071.216-7.27-.87-7.223 4.684.05 6.014 3.355 8.861 10.409 8.887 3.011.011 6.458.712 6.489-4.291C9.719 2.236 7.716.091 0 0" style="fill:#fdf8f8;fill-opacity:1;fill-rule:nonzero;stroke:none" transform="translate(530.606 703.032)"/><path d="M0 0c1.393-2.904-.076-5.238-2.382-7.25-5.29-4.617-15.894-3.225-19.839 2.569-.887 1.302-1.73 2.702-.632 4.259.804 1.138 2.156 1.209 3.108.502 5.372-3.988 10.688-1.93 16.03-.045C-2.622.421-1.549.951 0 0" style="fill:#fdf8f8;fill-opacity:1;fill-rule:nonzero;stroke:none" transform="translate(599.553 437.824)"/><path d="M0 0c-4.078-.027-6.568 1.066-6.408 5.31.203 5.384 3.862 8.424 10.363 8.079 4.981-.264 4.831-5.31 4.797-7.756C8.677.237 3.494.51 0 0" style="fill:#fdf8f8;fill-opacity:1;fill-rule:nonzero;stroke:none" transform="translate(550.756 705.138)"/><path d="M0 0c-.788-3.896-1.853-8.165-7.309-7.609-3.729.381-8.004 1.043-9.09 5.716-.456 1.961 9.562 8.776 12.321 8.58C.087 6.39-.024 3.287 0 0" style="fill:#fdf8f8;fill-opacity:1;fill-rule:nonzero;stroke:none" transform="translate(500.941 714.364)"/><path d="M0 0c6.427-.3 8.291-2.289 8.188-7.715-.092-4.886-3.269-5.64-7.047-5.504-4.196.151-7.656 1.11-7.216 6.651C-5.733-2.266-4.443.582 0 0" style="fill:#fdf8f8;fill-opacity:1;fill-rule:nonzero;stroke:none" transform="translate(511.51 717.953)"/><path d="M0 0c-4.814-.026-7.191 1.496-7.317 6.416-.157 6.174 3.799 6.148 7.94 6.23 4.456.088 6.066-2.407 5.958-6.606C6.459 1.274 3.949-.465 0 0" style="fill:#fdf8f8;fill-opacity:1;fill-rule:nonzero;stroke:none" transform="translate(582.456 789.46)"/><path d="M0 0c-.18-3.567-.979-6.52-4.951-6.899-3.103-.296-7.177 4.853-6.824 8.784.384 4.283 4.363 4.193 7.051 4.403C-.472 6.619-.36 2.869 0 0" style="fill:#fdf8f8;fill-opacity:1;fill-rule:nonzero;stroke:none" transform="translate(571.961 716.449)"/><path d="M0 0c-.047-3.443-2.134-3.963-4.378-3.697-4.127.49-5.872 3.388-6.213 7.186-.189 2.107 1.029 3.393 3.218 2.937C-3.591 5.637-.399 4.049 0 0" style="fill:#fdf8f8;fill-opacity:1;fill-rule:nonzero;stroke:none" transform="translate(499.721 473.028)"/><path d="m0 0-8.544-.444c-1.294 2.275-1.392 4.529-.962 7.274C1.972 8.129 13.49 9.438 25.009 10.733c2.468.278 3.187-1.865 4.371-3.292 1.581-1.907 3.054-3.904 5.032-6.453 3.503 5.9 3.41 15.369 13.88 12.112-2.607-10.359-11.862-19.281-6.29-30.831-3.229-1.859-5.761-1.449-9.249-1.99C34.189-7.526 25.002-1.314 18.938 7.146c-1.934-1.419-.318-3.511-1.408-4.812-2.535-1.38-5.784.067-8.555-2.012l2.06-22.784-8.45-.735z" style="fill:#fdf8f8;fill-opacity:1;fill-rule:nonzero;stroke:none" transform="translate(610.015 225.63)"/><path d="M0 0v30.613c12.738 2.95 12.786-10.191 20.345-14.503l.784 14.022c2.742 1.034 5.173.645 7.85.165V-.377C16.358-2.588 16.41 10.4 9.049 14.504c-1.866-4.447.057-9.6-1.435-14.362C5.129-.753 2.675-.36 0 0" style="fill:#fdf8f8;fill-opacity:1;fill-rule:nonzero;stroke:none" transform="translate(513.131 199.737)"/><path d="m0 0 2.806 13.927c2.916.497 5.252-.496 8.359-1.193L5.782-17.637c-12.754.093-10.974 13.14-17.804 18.715L-14.87-13.45c-2.887-.707-5.4.043-8.418 1.101l5.289 29.998C-5.095 18.79-6.875 5.601 0 0" style="fill:#fdf8f8;fill-opacity:1;fill-rule:nonzero;stroke:none" transform="translate(410.036 226.9)"/><path d="M0 0c-.101 4.759-3.564 8.185-8.131 8.047-4.474-.136-7.686-3.787-7.579-8.616.104-4.694 3.686-8.277 8.117-8.119C-3.231-8.533.1-4.721 0 0m-7.763 15.955C1.881 15.841 9.046 8.825 8.954-.413c-.092-9.231-7.591-16.412-16.945-16.23-9.498.186-16.88 7.45-16.776 16.508.105 9.254 7.448 16.202 17.004 16.09" style="fill:#fdf8f8;fill-opacity:1;fill-rule:nonzero;stroke:none" transform="translate(475.498 218.598)"/><path d="m0 0 6.469-2.646c-2.521-7.28-8.012-10.984-15.6-10.86-6.95.114-12.674 4.344-14.849 10.975-2.247 6.849-.086 14.063 5.461 18.228 6.189 4.648 13.312 4.702 20.222-.112-2.165-2.983-2.736-7.554-8.692-4.81-3.29 1.516-6.504-.521-8.089-3.891-1.88-4-.821-7.681 2.342-10.534 2.799-2.524 6.078-2.4 9.071-.244C-2.297-2.909-1.3-1.411 0 0" style="fill:#fdf8f8;fill-opacity:1;fill-rule:nonzero;stroke:none" transform="translate(725.536 233.489)"/><path d="m0 0-6.11-3.781c-3.91 3.284-8.167 6.805-12.992 1.95-3.199-3.219-3.695-7.469-.913-11.181 3.565-4.76 8.028-3.651 12.341-.412l5.271-4.874c-4.76-5.791-11.35-7.356-18.301-4.567-6.521 2.617-10.326 8.944-9.787 16.276.528 7.209 5.382 13.077 12.123 14.66C-10.809 9.845-4.013 6.951 0 0" style="fill:#fdf8f8;fill-opacity:1;fill-rule:nonzero;stroke:none" transform="translate(451.629 229.588)"/><path d="m0 0-5.382-4.661C-9.83-2.034-14.572.676-18.471-5c-2.577-3.752-2.312-7.996 1.019-11.173 4.373-4.17 8.539-1.836 12.371 1.609L.754-18.38c-3.596-6.498-9.855-9.153-17.316-7.578-6.8 1.435-11.835 7.302-12.348 14.386-.552 7.63 3.329 14.069 10.056 16.684C-11.751 7.873-4.814 6.074 0 0" style="fill:#fdf8f8;fill-opacity:1;fill-rule:nonzero;stroke:none" transform="translate(585.65 225.41)"/><path d="m0 0 1.744-9.754c-2.452-1.663-5.115-1.602-8.335-2.045l-6.26 30.426 23.662 4.914c1.986-2.072 1.761-4.404 1.969-7.214l-14.939-3.465c.509-4.402.509-4.402 14.263-2.58 1.709-1.8 1.768-4.007 1.458-6.414C9.319 1.835 4.351 2.496 0 0" style="fill:#fdf8f8;fill-opacity:1;fill-rule:nonzero;stroke:none" transform="translate(684.307 223.406)"/><path d="m0 0 13.902-3.8c.188-2.728-.197-4.9-1.797-7.273l-22.486 5.595 7.471 30.413 8.405-2.095z" style="fill:#fdf8f8;fill-opacity:1;fill-rule:nonzero;stroke:none" transform="translate(356.5 229.143)"/><path d="m0 0-23.486 1.324 1.635 30.356c2.771 1.502 5.345.33 8.623.601l-1.038-23.155C-9.487 7.233-4.493 8.56.031 7.321.841 5.028.37 2.946 0 0" style="fill:#fdf8f8;fill-opacity:1;fill-rule:nonzero;stroke:none" transform="translate(509.81 199.668)"/><path d="M0 0c3.171.543 5.495-.41 8.638-1.239L2.325-31.02c-3.106-.724-5.517.501-8.642 1.364z" style="fill:#fdf8f8;fill-opacity:1;fill-rule:nonzero;stroke:none" transform="translate(379.183 247.159)"/><path d="m0 0-8.666-.765-2.208 30.644c2.792 1.505 5.489.744 8.651 1.254z" style="fill:#fdf8f8;fill-opacity:1;fill-rule:nonzero;stroke:none" transform="translate(599.523 201.297)"/><path d="M0 0c.218-4.517.997-9.396-.039-14.244-1.152-5.392-1.979-10.649.367-15.94.452-1.02.878-2.491.479-3.378-3.173-7.062-7.402-13.562-10.262-21.624-4.317 4.201-3.221 7.954-2.066 11.216 2.698 7.622 3.844 15.185 2.934 23.357-.736 6.618 2.528 12.822 4.629 19.046C-3.524-.282-2.558.819 0 0" style="fill:#fd1313;fill-opacity:1;fill-rule:nonzero;stroke:none" transform="translate(604.194 637.782)"/><path d="M0 0c-2.801-6.175-2.687-12.011-1.478-17.946.486-2.386-.61-4.535-2.567-6.149-5.571-4.595-6.748-10.714-5.353-17.329 1.399-6.636.004-12.967-.702-20.934-4.935 5.023-7.318 9.621-6.562 15.265 2.016 15.059 7.48 29.243 11.547 43.781C-4.644-1.628-3.578-.167 0 0" style="fill:#fd1313;fill-opacity:1;fill-rule:nonzero;stroke:none" transform="translate(586.484 623.819)"/><path d="M0 0c.399-2.927-.731-6.931-2.909-10.746-.924-1.618-1.867-2.983-3.943-2.796-2.132.192-2.798 1.948-3.365 3.57-1.727 4.938-.888 9.97-.223 14.952.485 3.639 1.172 7.257 1.927 10.851.359 1.705 1.026 3.635 3.178 3.57 2.025-.061 2.788-1.856 3.314-3.576C-.593 11.151-.364 6.312 0 0" style="fill:#fd1313;fill-opacity:1;fill-rule:nonzero;stroke:none" transform="translate(563.86 620.938)"/><path d="M0 0c-2.129-7.216-6.677-11.546-13.756-12.444-4.673-.592-7.955-2.613-9.952-6.852-3.635-7.712-10.762-11.027-18.164-14.136 4.594 7.958 9.982 15.536 17.74 20.234C-16.371-8.498-7.3-6.02 0 0" style="fill:#fd1313;fill-opacity:1;fill-rule:nonzero;stroke:none" transform="translate(671.174 532.075)"/><path d="M0 0c-5.613 7.542-4.861 15.304-4.431 22.795.217 3.769 1.959 7.42 1.718 11.367-.111 1.821.484 3.822 2.559 3.942 2.426.14 2.942-2.034 3.306-3.995.998-5.382.528-10.793.09-16.168C2.786 12.325 4.187 6.355 0 0" style="fill:#fd1313;fill-opacity:1;fill-rule:nonzero;stroke:none" transform="translate(501.331 588.891)"/><path d="M0 0c-.178 2.929.401 5.747 1.552 8.443.675 1.578 1.283 3.587 3.415 3.345 2.347-.267 2.862-2.511 3.053-4.377.193-1.878-.544-3.854-.335-5.727.568-5.092-.27-10.464 3.158-15.039 1.148-1.531 1.3-3.61.482-5.557-.609-1.451-1.218-2.991-3.081-3.016-1.604-.022-2.202 1.367-2.793 2.58C2.472-13.232.063-6.95 0 0" style="fill:#fd1313;fill-opacity:1;fill-rule:nonzero;stroke:none" transform="translate(474.72 589.886)"/><path d="M0 0c2.461-5.157 1.076-7.875-.389-10.612-4.884-9.122-12.82-15.069-21.588-19.811-4.07-2.201-7.421-6.222-13.258-5.48C-20.672-27.244-9.796-14.887 0 0" style="fill:#fd1313;fill-opacity:1;fill-rule:nonzero;stroke:none" transform="translate(675.756 563.795)"/><path d="M0 0c-2.488-11.288 6.426-22.7-.982-33.928C-9.863-29.087-9.819-5.466 0 0" style="fill:#fd1313;fill-opacity:1;fill-rule:nonzero;stroke:none" transform="translate(524.634 647.453)"/><path d="M0 0c-5.176 4.362-6.203 9.996-5.919 16.076.126 2.695.43 5.398.334 8.086-.286 8.069-.347 8.067 8.902 9.592C2.165 22.396-.424 11.414 0 0" style="fill:#fd1313;fill-opacity:1;fill-rule:nonzero;stroke:none" transform="translate(540.827 577.595)"/><path d="M0 0c-3.838 11.897.593 26.895 9.278 29.683-.921-6.575 1.112-12.887.26-18.908C8.905 6.297 4.832 2.593 0 0" style="fill:#fd1313;fill-opacity:1;fill-rule:nonzero;stroke:none" transform="translate(468.502 623.962)"/><path d="M0 0c3.033-9.687-2.403-23.359-11.595-29.161C-15.551-24.512-8.082-5.729 0 0" style="fill:#fd1313;fill-opacity:1;fill-rule:nonzero;stroke:none" transform="translate(451.974 662.805)"/><path d="M0 0c-6.262 4.315-6.989 10.338-6.943 16.536.047 6.373 4.141 11.634 5.309 17.74.225 1.176 1.236 2.031 2.595 1.857 1.704-.218 2.797-1.304 3.269-2.91.602-2.048-.152-3.958-1.331-5.478C-2.163 21.222-1.946 14.109.193 6.698.727 4.849 1.341 2.976 0 0" style="fill:#fd1313;fill-opacity:1;fill-rule:nonzero;stroke:none" transform="translate(666.863 594.854)"/><path d="M0 0c-.67 7.611-.264 14.827 6.381 19.56 4.241 3.021 3.754 8.062 5.42 13.025 3.719-2.891 5.006-6.164 3.761-9.166C11.945 14.702 5.865 7.482 0 0" style="fill:#fd1313;fill-opacity:1;fill-rule:nonzero;stroke:none" transform="translate(607.64 557.763)"/><path d="M0 0c2.92-8.603-2.031-26.381-8.506-31.264-1.087-.82-2.182-1.784-3.646-1.066-1.565.768-1.597 2.416-.964 3.528C-8.028-19.868-4.678-10.237-1.442-.549-1.369-.332-.784-.285 0 0" style="fill:#fd1313;fill-opacity:1;fill-rule:nonzero;stroke:none" transform="translate(403.236 636.344)"/><path d="M0 0c6.561 9.399 1.378 21.008 6.017 31.335C13.455 21.44 9.877 2.285 0 0" style="fill:#fd1313;fill-opacity:1;fill-rule:nonzero;stroke:none" transform="translate(686.091 563.878)"/><path d="M0 0c3.286-6.311 6.34-11.609 6.307-18.017-.011-2.089-.174-4.588-2.97-4.951-2.36-.307-3.471 1.579-4.052 3.48C-2.594-13.347-3.625-7.185 0 0" style="fill:#fd1313;fill-opacity:1;fill-rule:nonzero;stroke:none" transform="translate(460.276 600.2)"/><path d="M0 0c-6.601 8.953-1.645 19.218-4.036 28.639C2.807 19.81 1.254 9.864 0 0" style="fill:#fd1313;fill-opacity:1;fill-rule:nonzero;stroke:none" transform="translate(679.961 598.691)"/><path d="M0 0c-2.321-6.588-11.44-11.421-19.096-9.965C-12.888-5.332-6.701-3.068 0 0" style="fill:#fd1313;fill-opacity:1;fill-rule:nonzero;stroke:none" transform="translate(632.74 521.435)"/><path d="M0 0c.391-5.043-1.854-8.241-4.891-10.979-1.296-1.168-3.116-2.092-4.508-.258-1.142 1.504-.235 2.997 1.219 3.848C-5.169-5.625-4.123-1.804 0 0" style="fill:#fd1313;fill-opacity:1;fill-rule:nonzero;stroke:none" transform="translate(684.12 551.765)"/><path d="M0 0c1.697 4.567 5.08 6.467 8.855 4.472 10.716-5.66 20.599-3.333 30.34 2.328.985.572 2.057 1.011 3.131 1.398.244.088.66-.297.987-.46.902-1.425-.074-2.204-1.057-2.826-10.546-6.67-21.625-9.88-33.492-3.836C5.394 2.793 3.352-.041 0 0" style="fill:#fd1313;fill-opacity:1;fill-rule:nonzero;stroke:none" transform="translate(452.975 763.238)"/><path d="M0 0c-3.624 1.242-6.682 2.202-6.125 7.134C-2.856 5.615-.185 4.31 0 0" style="fill:#fd1313;fill-opacity:1;fill-rule:nonzero;stroke:none" transform="translate(539.393 467.55)"/><path d="M0 0c-2.224 3.874-2.16 7.605.002 11.472C3.876 7.573 3.879 3.886 0 0" style="fill:#fd1313;fill-opacity:1;fill-rule:nonzero;stroke:none" transform="translate(530.328 774.198)"/><path d="M0 0c-4.66-4.025-8.439-4.514-13.387-1.568C-9.093 1.603-5.318 1.964 0 0" style="fill:#fd1313;fill-opacity:1;fill-rule:nonzero;stroke:none" transform="translate(678.327 783.7)"/><path d="M0 0c.1-4.721-3.231-8.533-7.593-8.688-4.431-.158-8.013 3.425-8.117 8.119-.107 4.829 3.105 8.48 7.579 8.616C-3.564 8.185-.101 4.759 0 0" style="fill:#fd0808;fill-opacity:1;fill-rule:nonzero;stroke:none" transform="translate(475.498 218.598)"/></g></svg>