<svg xmlns="http://www.w3.org/2000/svg" xmlns:xlink="http://www.w3.org/1999/xlink" xml:space="preserve" id="Layer_1" x="0" y="0" version="1.0" viewBox="69 19.87 192 191.25"><style>.st5{fill-rule:evenodd;clip-rule:evenodd;fill:#ff7800}.st10,.st11{fill:#061844}.st11,.st12,.st13,.st18,.st19{fill-rule:evenodd;clip-rule:evenodd}.st13,.st18,.st19{fill:#fff295}.st18,.st19{fill:#fff}.st19{fill:#80c41c}</style><path d="M214.6 118.2c-.4-1.1-1.1-2-2.1-2.6-.7-.4-1.6-.5-2.4-.2-1.1.3-2 1.2-2.4 2.3-.1.2-.1.5-.1.7-2.3-3.3-3.9-7-4.6-10.9-1.5-7 .8-10.1 1.8-11 .4.6.9 1 1.6 1.2 1.2.4 2.5.2 3.5-.4 1.1-.6 1.9-3.2 1.1-4.9-.8-1.3-1.8-2.4-2.8-3.5-.5-.5-1-1-1.4-1.6-.4-.9-.8-1.8-1.1-2.8l-.3-.9c-.6-1.4-1.6-2.6-3-3.2-1-.4-2-.3-2.9.2-1.6.8-2.3 2.6-1.7 4.3-.9 0-1.7-.1-2.6-.4-1.1-.3-2.2-.8-3.2-1.4-3.5-2.1-7.4-3.3-11.4-3.5-6.8-.4-9.2 2.1-10 3l-.2.2c-1.6.2-3.2.2-4.8.1h-.8c-1.6.1-3.2 0-4.7-.1-.1-.1-.2-.1-.2-.2-.9-.9-3.2-3.3-10-3-4 .2-7.9 1.5-11.4 3.5-1 .6-2.1 1.1-3.3 1.4-.8.2-1.7.3-2.6.3.7-1.6-.1-3.5-1.7-4.3-.9-.5-2-.6-2.9-.2-1.4.6-2.5 1.8-3 3.2l-.3.9c-.3 1-.7 1.9-1.1 2.8-.4.6-.9 1.1-1.4 1.6-1.1 1-2.1 2.2-2.9 3.4-.8 1.7 0 4.3 1.1 4.9s2.3.8 3.5.4c.6-.2 1.2-.7 1.6-1.2 1 .9 3.3 4 1.8 11-.7 3.9-2.3 7.7-4.6 10.9 0-.2 0-.5-.1-.7-.4-1.1-1.3-1.9-2.4-2.3-.8-.3-1.7-.3-2.5.1-1 .6-1.8 1.5-2.2 2.6-.5 2.3.5 4.5 3.1 6.4l.1.1c2 1.4 5.2 3.9 4.8 13.4 0 .8-.1 1.6-.1 2.4-.5 8.6-.8 13.8 4.7 19.7s14.1 4.4 16.1 4c.5 1.2 2.5 5 5.3 7.1 2 1.3 4.1 2.3 6.4 3 2.6.9 4.9 1.7 5.8 3.5 0 .1 0 .3-.1.4-.2 1-.5 2.9.5 4.2.7.8 1.8 1.2 2.9 1.1h.3c1.1.1 2.1-.3 2.9-1 1.1-1.3.7-3.2.5-4.2 0-.1 0-.3-.1-.4.9-1.8 3.2-2.6 5.8-3.5 2.3-.7 4.4-1.7 6.4-3 2.9-2.1 4.8-5.9 5.3-7.1 2 .4 10.8 1.8 16.1-4s5.1-11.1 4.7-19.7c0-.8-.1-1.5-.1-2.4-.5-9.5 2.8-12 4.8-13.4l.1-.1c2.4-1.6 3.4-3.8 2.9-6.2" style="fill:#fff"/><defs><path id="SVGID_1_" d="M178.6 55.7c-.8.5-4.9 6.9-16.3 8-11.5 1.1-14-3.2-14-3.2l.7 3.9 1.7 2.1s1.2 2.7 14.3 1.4c13-1.3 15.7-11.6 15.7-11.6-.2-.9-.4-1.8-.8-2.7h-.1c-.3 0-.5 1.6-1.2 2.1"/></defs><clipPath id="SVGID_2_"><use xlink:href="#SVGID_1_" style="overflow:visible"/></clipPath><g style="clip-path:url(#SVGID_2_)"><linearGradient id="SVGID_3_" x1="-220.278" x2="-211.555" y1="84.702" y2="84.702" gradientTransform="translate(967.84 -253.755)scale(3.72)" gradientUnits="userSpaceOnUse"><stop offset="0" style="stop-color:#fff295"/><stop offset=".01" style="stop-color:#fff295"/><stop offset=".19" style="stop-color:#ffed84"/><stop offset=".55" style="stop-color:#ffdf56"/><stop offset="1" style="stop-color:#ffcc16"/></linearGradient><path d="M148.2 53.5h32.5v15.6h-32.5z" style="fill:url(#SVGID_3_)"/></g><defs><path id="SVGID_4_" d="M170.7 65.5c-4.7 1.8-9.9 2.5-14.9 1.9-2.4-.3-4.8-1.3-6.8-2.7.3 1.6.7 3.1 1.1 4.6l.3 1.5.6.6c.5.5 1.1.9 1.8 1.1 1.2.6 2.6 1 3.9 1.3q1.5.3 3 .3c1 0 2.2-.1 3.3-.2 1.1-.2 2.3-.4 3.4-.7 1.2-.2 2.3-.4 3.3-.7.2-.1.5-.2.7-.3 1.5-.5 3-1.1 4.4-1.8l1.2-.6c.9-.7 1.9-1.3 2.9-1.9 1.1-1.3 2.4-2 2.8-4.2.1-1.1 0-2.3-.2-3.4-.1-.6-.2-1.3-.3-1.9s-.1-1.9-.5-2.3c-.1.2-.9 6.3-10 9.4"/></defs><clipPath id="SVGID_5_"><use xlink:href="#SVGID_4_" style="overflow:visible"/></clipPath><g style="clip-path:url(#SVGID_5_)"><linearGradient id="SVGID_6_" x1="-236.47" x2="-227.75" y1="107.496" y2="107.496" gradientTransform="scale(3.77)rotate(-10.999 -562.618 -1371.355)" gradientUnits="userSpaceOnUse"><stop offset="0" style="stop-color:#061844"/><stop offset=".13" style="stop-color:#061844"/><stop offset=".14" style="stop-color:#1c2e59"/><stop offset=".18" style="stop-color:#51658d"/><stop offset=".22" style="stop-color:#788db3"/><stop offset=".24" style="stop-color:#90a5ca"/><stop offset=".26" style="stop-color:#99aed3"/><stop offset=".28" style="stop-color:#8b9fc5"/><stop offset=".33" style="stop-color:#6579a1"/><stop offset=".39" style="stop-color:#293c66"/><stop offset=".42" style="stop-color:#061844"/><stop offset=".78" style="stop-color:#061844"/><stop offset="1" style="stop-color:#061844"/></linearGradient><path d="m145.7 56.9 35.1-6.8 4.5 23.3-35.1 6.9z" style="fill:url(#SVGID_6_)"/></g><path d="M202.2 62.5c0-1.1-2.1-1.8-2.7-2.4.8-.9 1.9-1.1 2.9-1.7-.2-1.4-2.9-1-3.9-1-2.9-.1-5.8.1-8.7.2 1.2-.6 2.4-1.2 3.6-1.6.5-.2 2.5-.7 2.7-1.3.4-1.4-3.4-1.2-4.1-1.2-.1-.7.9-2.2-.4-2.3-.7 0-1.8 1.1-2.4 1.3-1.3.7-2.6 1.4-3.9 2.2-1 .7-1.1.9-2.2.5-.8-.2-1.7-.5-2.4-1a9.18 9.18 0 0 0-5.3-2.8c-9.2-1.7-19.3.3-26.1 7.2-.7.6-1.2 1.4-1.5 2.3-.2.7.4 1.8.1 2.4-.1.3-1.3.8-1.6 1-.5.3-.9.7-1.3 1.1-.8.8-1.5 1.7-2 2.8-1 2.1-.9 4.6.4 6.6 1.3 1.8 4 2.5 6.1 3 4.4.9 9 1.2 13.5.8 6.6-.7 10.6-1.9 13.7-3.3 4.5-2.1 10-4.7 12.7-9 .2-.3.4-.6.5-.9.2-.3.5-.6.6-1s.2-.8.2-1.3v-.5l1.3-.1c.8 0 1.7-.1 2.5-.1 2.5 0 5 .5 7.5.5.2-.1.2-.3.2-.4m-19.6-4.7c1.7-.9 3.1-2.1 4.8-3.1 1.3-.7 2.5-1.4 3.7-2.1.1.8-.2 1.1.4 1.6s2 .2 2.7.3c-2 1-4.1 1.8-6.1 2.8s-4 2.6-6.1 3.9c-.2-.7-.3-1.4-.4-2.1.2-.8.6-.5 1-1.3.4-.2-.2.4 0 0m-2.1-.8c.2 1.9 1.1 3.8.9 5.7-.1 1.7-1.5 3.1-2.7 4-3.1 2.4-6.6 4-10.4 4.8-4.1.8-8.1 1.7-12.3.8-1.7-.4-4-1.1-5.1-2.4s-1.4-4.3-1.7-6c5.2 3.5 11.5 3 17.4 1.8 5.1-1.1 11.9-4.1 13.8-9.6 0 .3.1.6.1.9m9.1 6.8c-.9 2.4-3.2 4.3-5.2 5.8-2.2 1.8-4.6 3.2-7.2 4.3-5.2 2.1-10.2 3.6-16 3.8-2.3.1-4.6-.1-6.9-.4-2.6-.4-5.1-.4-7.5-1.5-2.1-.9-3.6-2.6-3.3-5.1.6-2.7 2.3-5.1 4.8-6.4.5 2.1.9 5.4 2.5 7 1.3 1.3 4 2.1 5.7 2.4 5.2.9 10.5-.3 15.4-2 2.1-.8 4.2-1.8 6-3.2 1.5-1 3.5-2.5 4.2-4.3.1-.3.2-.5.2-.8 0-.7-.4-.7.4-1 .5 0 1.1 0 1.6.1 1.1 0 2.2-.1 3.3-.1 1.2.1 2.6-.2 2 1.4 0 .2.3-.4 0 0m8-2.4c-4.7-.2-9.3-.2-14 .1 3.9-4.3 10.8-3.2 15.9-2.9-.5.5-1.4.9-1 1.8.2.6 1 .8 1.4 1.2-.7-.1-1.5-.2-2.3-.2"/><path d="M191.3 52.4c.2.4 0 1.2.1 1.6.9.5 2.4.2 3.4.5-.6.3-1.2.6-1.9.9-1.9.8-3.8 1.7-5.6 2.8-1.9 1.1-3.6 2.4-5.4 3.5-.1-1.1-.4-2-.5-3.1.6-.4 1.4-1.1 2.5-2 2.6-1.7 7.4-4.2 7.4-4.2" class="st5"/><defs><path id="SVGID_7_" d="M191.8 58.2h-1c-1-.1-2 0-3 .2-.9.4-1.7.9-2.5 1.5-.6.4-1.2.8-1.7 1.3-.1.1-.3.3-.3.5 2.7-.1 5.5-.2 8.4-.2 1.4 0 2.9-.1 4.3 0s2.8.3 4.2.2c-.3-.8-1.6-.9-1.6-1.7s1.1-1 1.3-1.6c-2-.1-4-.2-6.1-.2z"/></defs><clipPath id="SVGID_8_"><use xlink:href="#SVGID_7_" style="overflow:visible"/></clipPath><g style="clip-path:url(#SVGID_8_)"><linearGradient id="SVGID_9_" x1="-92.724" x2="-84.004" y1="144.108" y2="144.108" gradientTransform="translate(363.26 -219.615)scale(1.94)" gradientUnits="userSpaceOnUse"><stop offset="0" style="stop-color:#061039"/><stop offset=".4" style="stop-color:#061641"/><stop offset="1" style="stop-color:#061844"/></linearGradient><path d="M183.3 58.2h17v3.5h-17z" style="fill:url(#SVGID_9_)"/></g><defs><path id="SVGID_10_" d="M186.9 62.2c-1 0-2 .1-3 .1-.3 0-1.6-.2-1.8 0s.1.7 0 1.2c-.2 1.2-1.9 3-3.2 4-3.2 2.5-7 4.3-11 5.1-4.3.9-8.8 1.7-13.1.3-1.7-.5-3.8-1.3-4.6-2.9-.9-2-1.5-4-1.8-6.1-2.5 1.3-4.3 3.6-5 6.3-.6 2.8 1 4.6 3.3 5.7 2.7 1.2 5.7 1.2 8.6 1.6q4.5.45 9 0c2.8-.2 5.6-.8 8.2-1.7 3-.8 5.9-2 8.5-3.6 2.5-1.5 4.7-3.3 6.8-5.4.8-.9 1.5-1.9 2-3 .4-.9.3-1.2-.4-1.5-.4-.1-.7-.2-1.1-.2-.5.1-1 .2-1.4.1m-5.5-4.4c.7-.5 1.4-1 2-1.6-.7-.3-1.5-.5-2.3-.5q0 1.05.3 2.1m-18.9-5.4c-2.4.6-4.8 1.5-7 2.8-1.1.6-2.1 1.3-3.1 2q-1.5 1.05-2.7 2.4c-.7.8-1.3 1.5-.8 2.7.6.9 1.4 1.6 2.4 2 2.7 1.3 5.7 1.4 8.6 1.4 4.7 0 10-1 14-3.5 1.9-1.2 4.3-3.1 5.4-5.1.5-.7.6-1.6.5-2.4-.2-.8-.8-1.4-1.6-1.6-3-.9-6-1.4-9.1-1.4-2.4-.1-4.5.2-6.6.7"/></defs><clipPath id="SVGID_11_"><use xlink:href="#SVGID_10_" style="overflow:visible"/></clipPath><g style="clip-path:url(#SVGID_11_)"><linearGradient id="SVGID_12_" x1="-258.465" x2="-249.745" y1="65.434" y2="65.434" gradientTransform="translate(1531.01 -286.567)scale(5.37)" gradientUnits="userSpaceOnUse"><stop offset="0" style="stop-color:#fff295"/><stop offset=".01" style="stop-color:#fff295"/><stop offset=".19" style="stop-color:#ffed84"/><stop offset=".55" style="stop-color:#ffdf56"/><stop offset="1" style="stop-color:#ffcc16"/></linearGradient><path d="M142.8 51.6h47.4V78h-47.4z" style="fill:url(#SVGID_12_)"/></g><path d="M100.8 79.1 82.4 66.8l2.4-3.5 15.3 10.2 3.7-5.7 3.2 2.1zM95.9 49.3l10.8 11.1c1.5 1.5 2.9 1.7 4.4.2 1.5-1.4 1.4-2.9-.1-4.4l-10.8-11.1 3-3L114 53.3c3.4 3.5 2.8 7-.3 10s-6.6 3.6-10 .1L92.9 52.3zM120.2 30.8l1.9 3.2-4.1 2.6 9.7 15.6-3.6 2.2-9.7-15.5-4.2 2.6-2-3.2zM127.5 35.1c-1.9-5.1.1-7.9 4-9.4s7.2-.6 9.1 4.5l2.8 7.4c1.9 5.1-.1 8-4 9.4s-7.2.6-9.1-4.5zm6.9 6.5c.9 2.3 2.1 2.6 3.7 2s2.3-1.6 1.5-3.9l-3.1-8.4c-.9-2.3-2.1-2.5-3.7-2s-2.3 1.6-1.5 3.9zM148.6 43.6l-2.7-21.9 4.7-.6 7.4 12.3-1.6-13 3.9-.5 2.7 22-4.1.5-8.1-13.4h-.1l1.8 14.1zM190 23.2l-.7 3.6-4.8-.9-3.5 18-4.1-.8 3.5-18-4.9-.9.7-3.7zM192.5 31.3c2.1-5 5.5-5.7 9.3-4.1s5.7 4.5 3.6 9.5l-3 7.3c-2.1 5-5.5 5.7-9.3 4.2s-5.7-4.5-3.6-9.5zm.7 9.4c-.9 2.3-.2 3.3 1.3 3.9 1.6.6 2.8.4 3.7-1.8l3.5-8.3c.9-2.3.2-3.3-1.3-3.9s-2.8-.4-3.7 1.8zM215 33.4l3.1 2.4-6.7 13.2 11.4-9.4 3.2 2.5-6.6 13.2v.1l11.3-9.5 3.1 2.4-17.5 14.3-3.2-2.5 7-13.8h-.1l-12 9.8-3.2-2.6zM221 67.7 239.1 55l2.7 3.8-7.4 12.3 10.8-7.5 2.2 3.2-18.1 12.7-2.3-3.3 7.9-13.5v-.1l-11.7 8.2zM81.6 162l18.7-11.8 5.7 9-2.8 1.8-3.6-5.8-4.9 3 2.7 4.3-2.8 1.8-2.7-4.3-8.3 5.2zM103.5 164.8c2.3-2.1 5.4-2.5 8.1.4s2.1 6-.2 8.1l-8.3 7.8c-2.3 2.1-5.4 2.5-8.1-.4s-2.1-6 .2-8.1zm-5.7 10.5c-1.2 1.1-1.5 2-.4 3.1 1 1.1 2 .9 3.2-.2l8.2-7.6c1.2-1.1 1.5-2 .4-3.1s-1.9-.9-3.2.2zM114.6 176.1c1.8-2.5 4.8-3.5 8-1.2s3.2 5.5 1.4 8l-6.6 9.3c-1.8 2.5-4.8 3.5-8 1.2s-3.2-5.4-1.4-8zm-3.5 11.4c-1 1.3-1 2.3.2 3.2s2.1.5 3.1-.8l6.5-9.1c1-1.3 1-2.3-.2-3.2s-2.1-.5-3.1.8zM130.4 183.9l-3.3-1.6 1.5-3 10 4.8-1.4 3-3.3-1.6-8.1 17-3.4-1.6zM140.4 184.8l5.5 1.4c3.9 1 5.1 3.5 4.2 7.2-.4 1.9-1.8 3.4-3.7 3.8 1.6 1.3 2.3 3.1 1.6 5.8-.9 3.5-3.2 5.8-7.4 4.7l-5.8-1.6zm-1.2 19.3 1.5.4c1.9.5 3-.4 3.5-2.6s0-3.5-2.1-4.1l-1.2-.3zm2.6-9.6 1.3.4c1.3.4 2.7-.4 3.1-1.7 0-.1.1-.2.1-.3.5-2 0-3.2-1.6-3.6l-1.4-.4zM153.3 210.2l-3.7-.3 6.1-21.6 4.7.4 2 22.4-3.7-.3-.2-4.9-4.2-.4zm2-8 3 .3-.6-9.6h-.1zM167.3 210.9l-1.5-22.1 3.8-.2 1.3 18.7 5.9-.4.3 3.3zM181.8 209.4l-4.9-21.5 3.7-.9 4.1 18.4 5.8-1.4.8 3.2zM203.5 186.2l-.8-1.5c-.9-1.6-2-2-2.9-1.5-1.4.7-1.4 1.6-.7 3.1l5.2 9.9c.8 1.5 1.6 1.9 2.9 1.2s1.3-1.6.6-2.8l-1.2-2.4 3.4-1.8 1.2 2.2c1.4 2.8 1 5.9-2.4 7.6-3.5 1.8-6.3.4-7.8-2.3l-5.3-10.1c-1.4-2.8-1-5.9 2.6-7.7 3.4-1.8 6.3-.2 7.8 2.8l.8 1.4zM219.5 193.7 206 176.2l3-2.3 11.5 14.8 4.7-3.6 2 2.6zM214 170l2.6-2.8 12.2 11.4c1.2 1.1 2.2 1.2 3.1.2s.8-2-.4-3.1l-12.2-11.4 2.6-2.8 12 11.3c2.8 2.6 2.8 5.6.3 8.3s-5.5 2.8-8.3.2zM223.9 159l3-4.8c2.1-3.5 4.9-3.9 8.1-1.9 1.7.9 2.7 2.7 2.5 4.7 1.8-1.2 3.6-1.4 6.1.1 3.1 1.9 4.6 4.8 2.3 8.4l-3.2 5.1zm9.7 1.5.7-1.2c.8-1.2.4-2.7-.8-3.5-.1-.1-.2-.1-.3-.2-1.8-1.1-3.1-1-4 .5l-.8 1.2zm8.4 5.2.8-1.4c1-1.7.4-3-1.4-4.1s-3.3-1.1-4.5.9l-.6 1z" class="st10"/><path d="M69 119.8c.8 0 1.3-.1 1.3-1.3v-7.3c0-1.2-.5-1.3-1.3-1.3v-.3h6.7l.1 1.9h-.4c-.2-1-.7-1.3-1.7-1.3h-1.3c-.8 0-.8.2-.8 1.3v2.8h1.9c1 0 1.3-.2 1.3-1.3h.3v3.3h-.3c0-.9-.4-1.3-1.3-1.3h-1.9v3.2c0 1.2.1 1.3.8 1.3h1.4c.8.1 1.6-.4 1.8-1.3v-.2h.4l-.1 2.1H69zM83.1 111.9c-.1-1.1-1.2-1.9-2.3-1.8-1 0-1.8.7-1.8 1.7v.1c0 1.4 1.8 1.9 3 2.7s1.9 1.4 1.9 2.9c0 2-1.6 3-3.6 3-.8 0-1.7-.1-2.5-.3l-.1-2.2h.3c.2 1.1 1.2 1.9 2.4 1.8 1.1.1 2.1-.8 2.1-1.9v-.1c0-1.7-2.4-2.2-3.8-3.3-.7-.5-1-1.3-1-2.1 0-1.9 1.5-2.7 3.3-2.7.8 0 1.5.1 2.3.3l.1 2.2zM86.3 119.8c.9 0 1.4-.1 1.4-1.3v-8.3h-.9c-1.5 0-1.7.7-1.9 1.5h-.4l.1-2.1H92l.1 2.1h-.4c-.1-1-.5-1.5-2-1.5H89v8.3c0 1.2.5 1.3 1.4 1.3v.3h-4.1zM233.3 119.8c1.2 0 1.4-.2 1.4-1.7v-5.3c0-.8-.1-1.2-.7-1.2-.3 0-.6.1-.9.2v-.3l2.3-1.3h.5v7.9c0 1.5.3 1.7 1.2 1.7v.3h-3.8zM239.4 117.5c-.2-1.2.6-2.2 1.8-2.4-1-.2-1.7-1.2-1.6-2.2 0-1.4 1.1-2.5 2.5-2.5h.2c1.3-.2 2.6.8 2.7 2.1v.4c.1 1-.6 2-1.6 2.2 1.1.3 1.9 1.3 1.8 2.4 0 2-1.2 2.8-2.9 2.8-1.4.2-2.7-.8-2.9-2.3zm2.9 2.1c1.1 0 1.6-.9 1.6-2.1s-.5-2.1-1.6-2.1-1.6.9-1.6 2.1.5 2.1 1.6 2.1m0-4.9c1.1 0 1.4-.9 1.4-1.9s-.4-1.9-1.4-1.9-1.4.9-1.4 1.9.4 1.9 1.4 1.9M247.3 117.5c-.2-1.2.6-2.2 1.8-2.4-1-.2-1.7-1.2-1.6-2.2 0-1.4 1.1-2.5 2.5-2.5h.2c1.3-.2 2.6.7 2.7 2.1v.4c.1 1-.6 2-1.6 2.2 1.1.3 1.9 1.3 1.8 2.4 0 2-1.2 2.8-2.9 2.8-1.4.2-2.7-.8-2.9-2.3zm3 2.1c1.1 0 1.6-.9 1.6-2.1s-.5-2.1-1.6-2.1-1.6.9-1.6 2.1.4 2.1 1.6 2.1m0-4.9c1.1 0 1.4-.9 1.4-1.9s-.4-1.9-1.4-1.9-1.4.9-1.4 1.9.3 1.9 1.4 1.9M256.6 114.7c.5-.3 1.1-.5 1.8-.5 1.4 0 2.6 1.1 2.6 2.6v.2c0 2.3-1.8 3.3-3.7 3.3q-1.05 0-2.1-.3v-.6c.5.2 1.1.3 1.6.3 1.5.1 2.8-.9 2.9-2.4v-.3c0-1-.8-1.9-1.8-1.9-.6 0-1.2.3-1.6.8h-.8l.3-5.4h4.6v.8h-3.5z"/><path d="m126.4 116.1 31.4-.2V83s-4.5-2.4-7.8-.6-10.3 4.5-16.6 4.1c-3.8-.3-4.2-1.2-4.2-1.2l-5.2 9s7 4.4 7.3 7.1c0 0 2.3 5.1-.2 9-1.3 2.1-2.8 4-4.7 5.7" class="st5"/><path d="m204.1 116.1-31.9-.2V82.1s4.5-1.4 7.8.3 10.3 4.6 16.6 4.1c3.8-.3 4.2-1.2 4.2-1.2l5.2 9s-7 4.4-7.3 7.1c0 0-2.3 5.1.1 9 1.5 2.2 3.2 4.1 5.3 5.7M157.6 172.5v-42l-34.3-.2c1.7 4.5 2.7 9.3 2.8 14.2.1 7.7 1.1 13.8 12.8 16.4 8.3 2 18.7 11.6 18.7 11.6" class="st11"/><path d="M172.3 171.2v-40.7l34.4-.1c-1.8 4.5-2.8 9.3-2.9 14.2-.1 7.7-1.1 13.8-12.8 16.4-8.3 1.9-18.7 10.2-18.7 10.2" class="st5"/><path d="M186.4 94.2c1 .1 2.3 1.2 1.9 2.3q1.2.15 2.1.9c.6.6.9 1.4.7 2.3.7.7 2.2 1.3 1.9 2.9-.1.3-.3.6-.6.8.7.6 1.4 2.1.6 3.1.4.6.5 1.2.4 1.9-.1.4-.6.8-.5 1.2-.9.6-2.3.6-3.7.9-1 .2-2 .4-3 .5-2.2.2-4.3.2-6.5 0-.4 0-.8-.1-1.2-.2-.8-.1-1.5-.2-2.2-.3-.5-.2-.9-.5-1.3-.9-.3-.2-.6-.3-.8-.7-.3-.8-.1-1.7.5-2.3-.9-1.1 0-2.5.8-3.1-.4-.3-.3-1.4-.1-1.9.3-.8 1.3-1.3 1.8-1.7-.5-1.8 1.4-3.2 2.8-3.6 0-1.2 1.2-1.9 2.3-2.2.1-.1.1-.3.2-.5.6-.4 1.2-.6 1.9-.7.5.1.9.3 1.3.6.1.1.1.2.2.3s.6 0 .5.4" class="st12"/><path d="M184.2 93.5c.2 0 .3.1.4 0-.1 0-.3-.1-.4 0" class="st13"/><defs><path id="SVGID_13_" d="M182.7 94.7c-.9 0-1.8.6-2.1 1.5.1.2.3.2.3.4-.3.3-.7.2-1.1.3-1.1.4-1.9 1.4-2 2.6.1.2.3.2.4.4-1 .8-2.4 1.2-2.2 3.2.3.1.6 0 .7.3-.4.3-.8.6-1.1 1s-.8 1-.4 1.6c.3-.1.7-.2.8.2-.5.4-.9.9-1.3 1.4-.1.6.1 1.3.6 1.7 2.3-.9 4.7-1.3 7.1-1.4-.3-1 .4-2.5 1.1-2.7 1.5-.3 2.4 1.1 2 2.7 1.8.1 3.6.4 5.3.9.2.2.5.2.6.4.2 0 .4-.1.7-.2.2-.7.9-1.4.4-2.2-1.2 0-.2-.7 0-1.2.4-1.2-.6-1.7-1-2.4.1-.3.4-.4.5-.7.7-1.6-1.3-2-1.9-2.7.3-.6.3-1.3-.1-1.8-.5-.7-2.5-.7-2.7-1.5 0-.3.2-.5.1-.8-.1-.6-.8-.9-1.4-.8-.3-.3-.8-.4-1.2-.4-.6 0-1.4.2-2.1.2"/></defs><clipPath id="SVGID_14_"><use xlink:href="#SVGID_13_" style="overflow:visible"/></clipPath><g style="clip-path:url(#SVGID_14_)"><linearGradient id="SVGID_15_" x1="-112.063" x2="-103.343" y1="153.992" y2="153.992" gradientTransform="translate(406.82 -216.944)scale(2.07)" gradientUnits="userSpaceOnUse"><stop offset="0" style="stop-color:#fff295"/><stop offset=".01" style="stop-color:#fff295"/><stop offset=".19" style="stop-color:#ffed84"/><stop offset=".55" style="stop-color:#ffdf56"/><stop offset="1" style="stop-color:#ffcc16"/></linearGradient><path d="M174.6 94.5h18.6v14.7h-18.6z" style="fill:url(#SVGID_15_)"/></g><defs><path id="SVGID_16_" d="M181.2 108.3c-.7 0-1.3.3-2 .3q-1.65.15-3 .9c4.7 1 9.6.9 14.3-.2-2.3-.8-4.7-1.1-7.1-1.1-.8 0-1.5 0-2.2.1"/></defs><clipPath id="SVGID_17_"><use xlink:href="#SVGID_16_" style="overflow:visible"/></clipPath><g style="clip-path:url(#SVGID_17_)"><linearGradient id="SVGID_18_" x1="-50.579" x2="-41.849" y1="195.282" y2="195.282" gradientTransform="translate(259.14 -210.872)scale(1.64)" gradientUnits="userSpaceOnUse"><stop offset="0" style="stop-color:#fff295"/><stop offset=".01" style="stop-color:#fff295"/><stop offset=".19" style="stop-color:#ffed84"/><stop offset=".55" style="stop-color:#ffdf56"/><stop offset="1" style="stop-color:#ffcc16"/></linearGradient><path d="M176.2 108.2h14.3v2.3h-14.3z" style="fill:url(#SVGID_18_)"/></g><path d="M185.8 96.6q-1.5-.3-3 0c-.3.1-.6 0-.7.3.1.2.4.1.7.1h1.8c.6 0 1.3.3 1.8.1 0-.4-.4-.5-.6-.5M188.4 99.2c.1.1.1.3.3.4s.2-.1.2-.3c-.1-.2-.3-.2-.5-.1.1 0 0 0 0 0M189.3 99.5h.2v-.2h-.2c-.1.1-.1.2 0 .2M187.8 99.5c-.6-.2-1.3-.2-1.9-.2.3.2 1.5.7 1.9.2M179.1 99.7c.4.3 1.2-.1 1.7-.2 0-.2.2-.1.3-.2-.7.2-1.6.1-2 .4M190.5 102.1c-.4-.1-.7-.2-1.1-.2 0 .3.9.5 1.1.2M190.8 102.3c0 .2.2.4.5.4 0-.1.1-.1.1-.2-.2-.2-.4-.3-.6-.2M183.1 102.3h-1.8c-1.1 0-2.2.2-3.3.5-.2.1-.6.1-.7.3.6 0 1.1-.1 1.6-.3 1.5-.2 2.9-.2 4.4-.2.2 0 .6.1.7-.1 0-.3-.6-.2-.9-.2M191.6 103.3c-1.1-.4-2.3-.6-3.5-.6l3.6.9c-.1-.1-.1-.1-.1-.3M191 105.3c-.1-.2-.6-.3-.9-.3 0 .3.6.4.9.3M181.1 105c-1.1.1-2.2.2-3.2.5-.3.1-.8.1-.9.4q2.25-.45 4.5-.6h1.6c-.1-.5-1.5-.3-2-.3M188.5 105.5c.9.2 1.7.3 2.5.6.1.1.5.3.6 0-.5-.3-1-.4-1.5-.5l-1.7-.3s.1 0 .1.2M191.7 105.6c0-.3-.2-.3-.5-.3 0 .2.2.3.3.3zM191.3 108.4c.1.2.3.3.5.4 0-.1.1-.1.1-.2-.3-.6-1.2-.8-2-.9.3.3.9.4 1.4.7" class="st12"/><path d="M143 133c.1.2.4.2.6.3.6-.8 1.7-1.1 2.6-.6.8.5 2.6 2.5 2 3.9-.1.3-.5.5-.5.7 0 .4.7.2 1 .4s.5 1.1.5 1.8c0 1.1-.4 2.1-1.1 2.9-.3.2-.5.3-.8.3s-.5-.4-.9-.3-.8 1.1-1.2 1.3c-.6.3-1.3.5-2 .5-.6 0-1.1 0-1.7-.1h-.7c-.7-.3-1-1.1-.6-1.8 0-.1.1-.1.1-.2-.1-.3-.5-.2-.8-.3s-.4-.3-.6-.3-.6.3-1.1.2c-.8-.5-1.4-1.4-1.4-2.4-.2-1.6.4-3 2.1-2.8.1-.2-.1-.4 0-.6-.2-.2-.7-.2-1-.4 0-.6.2-1.2.6-1.7.5-.6 1-1.1 1.7-1.4.3-.1.6-.3.9-.4h.3c.5-.2 1.1-.2 1.6-.2.3.4.5.8.4 1.2m-2.1.5c-.4.4-1 .6-1.3 1-.1.1-.2.3-.2.4.3-.4.7-.8 1.2-1 0 .1.1.2.2.2s.4-.2.4-.5c0-.1-.2-.1-.3-.1m4.3.5c.2.5 1.1.4 1 1.3.2.2.2 0 .4.1.1-.8-.7-1.2-1.4-1.4m-1.4 3c-.3.2-.6.3-1 .4.1-.2.1-.3-.2-.3-.2 0 .1.2 0 .3-.7-.1-1.3-.8-1.8-.4 0 .6.4.9.5 1.4-.3.4-.9.6-.9 1.3.1.1.2.1.3.1.5-.6 1.6 0 1.8.5-.1.4.1.8.4.8s.1-.5.1-.7c.1-.4.4-.8.8-1 .2-.1.3-.3.5-.5s.7-.2.7-.5-.3-.4-.5-.6c-.3-.3-.2-.8.1-1.1-.2-.6-.5.1-.8.3m-5.3 3.9c0-.1.2 0 .2-.2s-.3-.2-.4-.3c-.1-.4-.2-.8-.2-1.2-.1-.1 0 .1-.1.1 0-.4.1-1-.1-1.3-.3 1-.6 2.8.6 2.9m9.4-2.3c0 .5.1 1.1 0 1.6 0 .2-.2.4 0 .5.6-.1.5-2 .1-2.2h-.1zm-4 1.3c.1 0 .1.1.2.1.3 0 .2-.4.5-.5-.2-.5-.6.2-.7.4m-4 1.6c-.1.4.5.1 0 0m2.4 1.3c-.1-.1-.3-.1-.4 0 0 .2.1.3.3.4.6 0 1.2-.1 1.8-.4-.4-.5-1.3-.1-1.7 0" class="st18"/><path d="M141.2 133.7c0 .3-.2.4-.4.5s-.2 0-.2-.1c-.5.2-.9.6-1.2 1 0-.2.1-.3.2-.4.4-.4.9-.7 1.3-1q.15-.15.3 0M146.6 135.5c-.1-.1-.2 0-.4-.1.1-.9-.8-.8-1-1.3.7.1 1.5.5 1.4 1.4M144.6 136.8c-.3.3-.3.8-.1 1.1.1.2.5.4.4.6s-.5.3-.7.4c-.1.2-.3.3-.5.5-.4.2-.6.6-.8 1 0 .2.1.5-.1.7s-.5-.4-.4-.8c-.2-.5-1.2-1.1-1.8-.5-.1 0-.2-.1-.3-.1 0-.7.6-.9.9-1.3-.2-.5-.6-.8-.5-1.5.5-.4 1.1.4 1.8.4.2-.1-.1-.2 0-.3s.2.1.1.3c.4-.1.7-.2 1-.4.4-.1.7-.7 1-.1m-1 1.2c-.3-.9-2.1.1-1.6 1 .2 0 .3.2.5.2.6-.2 1.3-.5 1.1-1.2" class="st12"/><path d="M142.5 139.2c-.2 0-.3-.2-.5-.2-.5-.8 1.3-1.9 1.6-1 .2.6-.5.9-1.1 1.2" class="st13"/><path d="M137.8 138.2c.2.3.1.9.1 1.3.1 0 0-.2.1-.1 0 .4 0 .8.2 1.2.1.1.3.1.4.3 0 .2-.1.1-.2.2-1.1-.2-.8-2-.6-2.9M147.9 138.6c.4.3.6 2.1 0 2.2-.1-.2 0-.3 0-.5.1-.5 0-1.1 0-1.6zM144.5 139.7c-.3.1-.2.4-.5.5-.1 0-.1-.1-.2-.1.2-.3.6-1 .7-.4M139.9 141.6c.5.1-.1.4 0 0" class="st12"/><path d="M152.2 144.6c0 .1.2.1.2.2-.1.3-.2.6-.3.8 0 .1 0 .2.1.2-.3.6-.7 1.1-1.1 1.7 0 .2.1.2.1.3-.4.4-.7.8-1.1 1.2-.1.1-.1.2-.2.3s-.3.1-.4.2l-.3.3c-.5.3-1.1.4-1.5.8q0-.9.3-1.8c-.4.1-.3.7-.5 1.1-.4-.1-.5-.6-.6-1s-.2-.9-.2-1.3c.1 0 .3 0 .4-.1-.1-.6 0-1.1.3-1.6.1 0 .1.1.2.1.4-.3.4-.8.6-1.2s.6-.5.8-.8c.2 0 .2-.1.3 0 .7-1.1 2-1.9 3.3-2h.1c-.2.6.1 1.1 0 1.6-.3.5-.5.6-.5 1m-1.7-.1c-.5.5-.8 1.1-1.1 1.7-.1.2-.5.4-.3.6.4 0 .5-.5.7-.8.2-.4.4-.7.6-1 .2-.2.4-.2.3-.5zm-2 3.9q.15-.45 0-.9c.1 0 .2 0 .2.1.1-.1.3-.3.2-.5s-.3.2-.4.2v-.4c-.1 0-.1-.1-.3-.1 0 .5-.4 1.6.3 1.6" class="st19"/><path d="M143.9 142.8c-.5.3-1.1.4-1.8.4q-.3-.15-.3-.3c.1-.1.2-.1.4 0 .5 0 1.4-.4 1.7-.1M150.7 144.6c.1.3-.2.4-.3.5-.2.3-.4.6-.6 1-.2.3-.3.8-.7.8-.2-.2.2-.4.3-.6.3-.6.7-1.2 1.1-1.7z" class="st12"/><path d="M142.4 145.2c.1.6.2 1.3.2 1.9-.1-.1-.2-.3-.2-.5-.5-.3-.4-1.2-1.2-1.2 0-.2-.2-.2-.2-.4.5 0 1 0 1.4.2" class="st11"/><path d="M143.9 145c.2 1.3.6 2.6 1.3 3.8.3.5.7.9 1 1.3s.6.9.9 1.3c.6.7 1.3 1.4 2 2 1.2 1 2.6 1.9 3.4 3.4-.2.5-.3 1-.4 1.5-.3-.4-.5-.9-.8-1.4-.6-.7-1.3-1.4-2.1-2 0-.1-.1-.2-.1-.3-.9-.6-1.7-1.3-2.4-2 0-.1-.1-.1 0-.3-.4-.2-.5-.8-.8-1.1s-.6-.4-.6-.8c-.5-.3-.7-.8-1-1.4-.2-.3-.4-.7-.6-1q-.45-1.5-.6-3c.2.1.5 0 .8 0" class="st19"/><path d="M138.4 146.1c0 .2-.4.1-.4-.1s.4 0 .4.1M138.7 146.2c.2 0 .2.1.4.1 0 .2-.1.2-.3.2 0-.1-.1-.1-.1-.3M139.1 146.5c.2.1.4.1.6.2 0 .2-.2.2-.4.2s-.2-.2-.2-.4M148.2 146.9c.2 0 .1.1.3.1-.1.1 0 .2 0 .4.2-.1.2-.3.4-.2s-.1.3-.2.5c0-.1-.2 0-.2-.1q.15.45 0 .9c-.6 0-.3-1.2-.3-1.6" class="st12"/><path d="M153.3 147.4c.2 0 0 .1 0 .3.5.2 1 0 1.3.3 0 .1 0 .1.1.2s.2.1.3.2c.3.3.4.6.4 1 .3.7.5 1.4.5 2.2-.5.2-.8-.2-1.3-.2-.2 0-.3.1-.5.2-.4 0-.8-.3-1.2-.3s-1 .1-1.5 0c-.6-.2-1.1-.5-1.6-.8-.2 0-.1.2-.2.2-.3 0-.5-.3-.6-.6.5-.4 1.1-1.2 2-1.1.3 0 .6.2.9.3.5 0 1-.2 1.4 0 .1 0 .1-.1.1-.1-.1-.7-1.1-.3-1.6-.1-.4-.2-.9-.3-1.4-.2-.1-.1.1-.2.2-.3.3-.3.6-.6 1-.8.8.1 1.1-.5 1.7-.4m-.5 1.9c0 .2.2.2.4.2 0-.3-.2-.3-.4-.2m1.1.5c0-.1-.1-.2-.3-.2 0 .1.2.3.3.2" class="st19"/><path d="M142.9 148c.1.2.2.3.3.5-.2 0-.3-.1-.5-.2.1 0 .2-.1.2-.3" class="st11"/><path d="M153.2 149.5c-.2 0-.4 0-.4-.2.2 0 .4 0 .4.2M153.6 149.6c.1 0 .3.1.3.2-.2.1-.3 0-.3-.2" class="st12"/><path d="M142.7 151.1c-.8.1-1.6.4-2.1 1-.4-.1-.7.1-1 .3.1.2.3 0 .6 0-.1.2-.3.4-.5.6-.3.2-.9.2-.8.7.4-.2.9-.4 1.3-.6.1-.1 0-.2.1-.3q.75-.75 1.8-1.2c.2-.1.5 0 .7.1-.1.2-.1.5-.2.6s.2.1.2.3c-.2.4-.8.6-.7 1.1-.1.2-.5.2-.4.7-.2.2-.6.2-.6.6-.7.4-1.4.7-2.2.9-.1 0-.1.1-.2.2-.8-.1-1.5.3-2 0-.1-.1.1-.2.2-.3.2-.7.5-1.5.8-2.1.2-.8.8-1.5 1.5-1.8.1 0 .1-.2.1-.2.9-.7 2-.8 3-.5 0-.3.3-.3.4-.1" class="st19"/><path d="M152.6 158.5c0-.4.2-.5 0 0" class="st18"/><path d="M135.9 143.5c.3 0 .5.4.8.5h.4c.4.1.7.5 1.1.1.4.3.8.4 1.3.3.5.5 1.3.6 1.5 1.3.5.1.8.5.7 1 .5.2.4 1.1.7 1.5-1.1-.2-1.3-1.5-1.9-2.3-.1.6.3 1 .5 1.5-.2 0-.3-.2-.6-.2.2.5 1 .5 1.2 1 .3 0 .6.2.8.4-.5.1-.8.4-1.3.5-.2 0-.5-.1-.8-.1s-.6 0-.9-.1c-.1-.1-.2-.2-.4-.3-.3-.1-.6-.1-.9-.2-.3-.2-.6-.4-.8-.5 0-.1.2-.1.2-.2-.5-.6-1.4-1.2-1.3-2.2-.1-.2-.2-.5-.2-.8.2 0 .1-.1.3-.1 0-.6-.3-.8-.4-1.1m2.2 2.4c0 .2.3.3.3.1 0-.1-.2-.2-.3-.1m.7.6c.2 0 .3 0 .3-.2-.1 0-.2-.1-.4-.1 0 .1.1.1.1.3m.5.3c.2 0 .3-.1.4-.2-.1-.1-.4-.1-.6-.2 0 .3.1.3.2.4" class="st19"/><path d="M143.7 132.5c.6-.5 1.5-.6 2.2-.4 1.4.7 2.5 1.9 2.9 3.5.1.6.1 1.1-.2 1.6 2 .8 1.2 4.9-.1 5.9-.5.4-1.2.5-1.8.2-.5.8-1.3 1.3-2.2 1.6 0 2.7 1.2 4.2 2.5 5.7.1-.4-.3-.7-.4-1.2-.3-.9-.4-1.8-.3-2.8.2-.1.2.2.3.3.4-.6.4-1.7 1.1-1.9.1-.4.5-.7.8-1 .1-.1.1-.3.3-.4s.4-.2.5-.3c.5-.5 1.1-.9 1.7-1.1.7-.3 1.5-.4 2.2-.4-.1.3-.4.3-.5.6 0 .3.1.5.2.7-.1.3-.1.8-.3 1 0 .2.2.1.3.3 0 .2-.2.4-.3.7s.2.1.2.2c-.3.6-.7 1.3-1.1 1.8 0 .1.2.1.2.2.7-.1 1.5-.2 2.2-.2.1.1 0 .2-.1.3 1.1.2 1.4 1.1 2 1.9-.1.3.2.6.2 1v.3c0 .4.5.9.1 1.2 0 .2.3.1.3.3-.3.2-.6-.1-.8-.2s-.4 0-.5-.1c-.2-.1-.3-.2-.5-.2s-.3.1-.5.2H153c-.4 0-.9.1-1.3 0-.6-.1-1.1-.3-1.5-.7-.7.2-1.2-.4-1.5-.8-.2 0-.5.1-.7.3s-.2.5-.5.6c0 .1.2.2.1.4.6.7 1.3 1.3 2 1.9.1-.1.2-.3.4-.4.2.3.2.6.4.9.4.4.9.8 1.4 1.2.7.5 1.1 1.3 1.1 2.2 0 .2-.1.4-.1.6s.1.3 0 .4-.2.2-.2.3c-.1.3 0 .7-.3.9-.4.1-.4-.4-.5-.7-.2 0-.2.1-.3 0-.4-1.1-1.1-2.1-2-2.9-.4-.4-.9-.8-1.3-1.1-.4-.5-.9-.9-1.4-1.3-.3-.2-.8-.1-1-.5 0-.1.2-.1.4-.1-.6-1-1.3-2-3-1.7-.1.3-.3.5-.1.8-.1.6-.7.8-.6 1.4-.2.2-.4.4-.7.5v.3c-.2.2-.6.3-.7.6-.8.3-1.6.6-2.3 1-.1.1-.1.2-.2.2-.4.2-.8 0-1.2.3-.7-.2-1.4-.2-2.1-.2 0-.4.2-.5.5-.5.6-.8.9-1.7 1.1-2.7.2-.2.3-.4.5-.7s.6-.4.8-.7c.1-.1.1-.3.2-.4s.6-.3.9-.4l.3-.3c.3-.2.7-.1 1.1-.3q.6.3 1.2 0c.8.4 1.7.6 2.5.5-.4-.5-.8-1.8-1.5-1.8-.4 0-.6.4-1 .5-1 0-2.3.2-2.9-.5q-1.05 0-1.8-.6c-.1-.1 0-.1 0-.2-.6-.4-1.1-1-1.3-1.7-.2-.4-.4-.9-.4-1.3 0-.3-.3-.6-.3-.9 0-.1.2-.1.3-.1-.3-.5-.5-1.1-.5-1.7.3-.1.5.3.6.6.3.1.5.2.8.4.4-.3.7.1 1 .2.1-.1 0-.2.1-.3.5 0 .7.4 1 .5s.7.1 1 .3q-.3-.75-.3-1.5c-.1-.1-.3-.2-.4-.3-3.2 1.2-4.7-5.2-1.9-6.1-.4-.6-.5-1.3-.2-2 .4-1.2 1.8-2.1 3-2.5l.6-.3h.6c1.2 0 2.2-.1 2.6.8m-1.1-.3c-.5 0-1.1 0-1.6.2h-.3l-.9.3c-.6.4-1.1 1-1.6 1.6-.4.5-.6 1.1-.6 1.7.3.2.7.2 1 .4 0 .2.1.3 0 .6-1.6-.2-2.2 1.2-2.1 2.8 0 1 .6 1.9 1.4 2.4.5.2.8-.2 1.1-.2s.3.3.6.3c.2.1.7 0 .8.3-.4.6-.3 1.5.3 1.9.1 0 .1.1.2.1h.7c.6.1 1.1.1 1.7.1.7-.1 1.4-.2 2-.5.5-.3.8-1.2 1.2-1.3s.6.3.9.3.6-.1.8-.3c.7-.8 1.1-1.9 1.1-2.9 0-.8-.1-1.6-.5-1.8s-.9 0-1-.4c0-.2.3-.4.5-.7.6-1.4-1.1-3.4-2-3.9s-2-.3-2.6.6c-.2-.1-.5-.1-.6-.4.1-.4-.1-.8-.5-1m10.1 11.5c.1-.5-.2-1 0-1.6h-.1c-1.3.1-2.5.8-3.3 2-.1 0-.2.1-.3.1-.2.3-.6.5-.8.8s-.2.9-.6 1.2c-.1 0-.1-.1-.2-.2-.2.5-.3 1.1-.3 1.6-.1.1-.2.1-.4.1 0 .4.1.9.2 1.3s.2.9.6 1c.2-.4.1-.9.5-1.1q-.3.9-.3 1.8c.4-.5 1-.5 1.5-.8l.3-.3c.1-.1.3-.1.4-.2s.2-.2.2-.4c.4-.4.8-.7 1.2-1.1 0-.2-.1-.1-.1-.3.4-.6.8-1.1 1.1-1.7-.1 0-.1-.1-.2-.2.2-.2.3-.5.3-.8 0-.1-.2-.1-.2-.2.2-.3.5-.6.5-1m-16.2 1c-.2 0-.2.1-.3.1 0 .3.1.5.2.8-.1 1 .7 1.6 1.3 2.2 0 .1-.2.1-.2.2.3.1.5.4.8.5.3.2.6.1.9.2s.3.2.4.3c.3.1.6.1.9.1.3.1.5.1.8.2.5 0 .8-.3 1.3-.5-.2-.2-.5-.4-.8-.4-.2-.6-1-.5-1.2-1 .3 0 .4.1.6.1-.1-.5-.6-.9-.5-1.5.6.8.8 2.1 1.9 2.3-.3-.4-.2-1.3-.7-1.5.1-.5-.3-.9-.7-1-.2-.7-1-.9-1.5-1.3-.5.1-.9 0-1.3-.3-.4.4-.7 0-1.1-.1-.1 0-.3.1-.4 0-.3-.1-.5-.5-.8-.5 0 .5.4.7.4 1.1m4.7.5c0 .2.2.2.2.4.8 0 .7.9 1.2 1.2 0 .2.1.4.2.5-.1-.6-.1-1.3-.2-1.9-.4-.2-.9-.2-1.4-.2m1.9.2c.1 1 .3 2 .7 3 .2.3.4.7.6 1 .3.6.5 1.1 1 1.4 0 .4.4.5.6.8s.4.9.8 1.1v.3c.7.7 1.5 1.4 2.4 2 0 .1.1.2.1.3.8.6 1.5 1.3 2.1 2 .3.4.5.9.8 1.4.1-.5.2-1 .4-1.5-.8-1.5-2.2-2.4-3.4-3.4-.7-.6-1.4-1.3-2-2-.3-.4-.6-.9-.9-1.3s-.7-.9-1-1.3c-.7-1.2-1.1-2.5-1.3-3.8-.3-.2-.6-.1-.9 0m8.9 2.5c-.4.2-.7.5-1 .8-.1.1-.3.2-.2.3.5-.1.9 0 1.4.2.4-.1 1.5-.5 1.6.2 0 .1-.1.1-.1.1-.4-.3-.9 0-1.4 0-.3 0-.6-.2-.9-.3-.9 0-1.4.7-2 1.1.1.3.2.5.6.6.1 0 0-.3.2-.2.5.4 1 .6 1.6.8h1.5c.4 0 .8.3 1.2.3.2 0 .3-.1.4-.1.5 0 .8.4 1.3.2-.1-.7-.3-1.5-.5-2.2 0-.4-.2-.7-.4-1-.1-.1-.2-.1-.4-.2-.1-.1 0-.2-.1-.2-.3-.3-.9-.1-1.3-.3-.1-.1.1-.3 0-.3-.7-.1-1 .5-1.5.2m-9.2.8c.2 0 .3.1.5.2 0-.2-.1-.4-.3-.5 0 .1-.1.1-.2.3m-.5 2.5c-1-.3-2.1-.2-3 .5-.1 0 0 .2-.1.2-.7.4-1.3 1-1.5 1.8-.3.7-.6 1.4-.8 2.1-.1.1-.3.2-.2.3.5.3 1.2-.1 2 0 .1-.1.1-.2.2-.2.8-.3 1.6-.6 2.3-1 0-.4.4-.4.6-.6-.1-.4.3-.5.4-.7-.1-.5.6-.7.7-1.1 0-.2-.2-.1-.2-.3.1-.2.2-.4.2-.6-.2-.2-.5-.2-.7-.1q-1.05.45-1.8 1.2c-.1.1 0 .2-.1.3-.4.3-.8.5-1.3.6-.2-.5.5-.5.8-.7.2-.2.4-.4.5-.6-.3 0-.4.2-.6 0 .3-.1.6-.4 1-.3.6-.6 1.3-.9 2.1-1 0-.2-.4-.2-.5-.1M187.9 131.7c.1.3 0 .7.3.8.4 0 .6-.4.9-.6.4.1.2.6.3.9.5 0 .7-.6 1.1-.3s-.2.8-.1 1.2c.5-.1.8-.7 1.3-.5.2.2 0 .5 0 .8.3.2.7.1 1 .2.2.7-.4 1-.8 1.5-.5.8-1 1.6-1.5 2.5.2.2.8.3.7.6s-.4.3-.6.5c.1.4.7.5.5.9s-.7.2-.8.5c0 .4.5.7.5 1s-.5.1-.6.3c0 .3.3.6.1 1-.3 0-.6 0-.7.1 0 .3 0 .6-.1.9-.4-.2-.8-.1-1.1.3-.1.1-.1.2-.1.4-.6-.1-1 .2-1 .7 0 .1-.2.2-.3.1-.2 1-.1 2.1.5 3 .5-.9 1.1-1.8 1.8-2.6.2.3.5.5.8.7.1-.5-.6-.6-.6-1.2.4-.1.5.3.8.4.6.1 1.2-.5 1.4-1.1.1-.4-.1-.9 0-1.3.7.1.3 1 .8 1.1.3.1.4-.2.6-.4s.4-.3.6-.4c.3-.5.5-1 .7-1.6.7 0 .2 1 .7 1.2.6 0 1.1-.2 1.6-.5.2-.1.3-.3.5-.4.3-.1.6-.3.9-.4.1 0 .2.1.3.2-.3.8-1.7 1.2-1.3 2.4.2.1.5 0 .6.2-.2.7-1.1.6-1.2 1.4s1.2.7 1.2 1.6c-.8 0-1.4.6-1.6 1.3-.1.4 0 .8-.1 1-.2.1-.2-.3-.4-.4s-.4 0-.5 0c-.8.3-.6 1.5-.9 2-.4 0-.3-.3-.6-.3-.7-.1-.9 1-1.3 1.4-.5-.1-.3-.8-1-.9-.6 0-.7 1-1.3 1.2-.4-.2-.5-.7-1-.9-.3.2-.7.1-.9-.2-.4.5-.7 1.1-.9 1.7-.1.3-.2.7-.3 1-.2.4-.3.9-.4 1.3-.5.2-1.1 1.2-1.6 1.5-.6.3-1.1.2-1.2-.4.1-.9.3-1.8.6-2.6-.4-.4-.8-.8-1.3-1-.2 0-.3.2-.5.2q-.9-.45-1.8 0c-.3.2-.7.9-1 .2.5-1.1-.2-1.4-1.2-1.4-.6 0-1 .7-1.5.5.3-.6.3-1.2.1-1.8-.4-.5-1.9-.2-1.2-1.2.6-.3 1.3-.5 1.7-1.1.2-.4 0-.9-.4-1.1h-.1l-1.6-.4c-.4-.1-1.1 0-1-.5 0-.2.3-.2.6-.4.7-.3 1.3-.9 1.4-1.7-.2-.6-1.3-.1-1.5-.7.3-.4 1-.7 1.2-1.2.2-.6-.4-.9-.5-1.5.4-.3 1.5-.4 1.5-1 0-.3-.6-.5-.5-.9s.9-.5 1-.9c.4-.6.6-1.4.7-2.1.1 0 .1.1.3.1.3.8-.5 2.3.2 2.9.9.3 1.6-1.4 2.2-.5-.6.7-1.4 2.3-.6 3.1.6.1 1.1-.7 1.5-.2-.4.7-.7 1.5-.9 2.3.1.3.3.5.5.7.9.2 1.3-.7 2.1-.5-.1.7-.8 1.1-.6 1.9.1.3.2.6.4.9s.6.4.6.7-.6.7-.8 1c-.1.2-.2.5-.1.8 0 .3.4.6.3.8 0 .2-.5.5-.4.9.6.4 1.5.6 1.8 1.1.4-.5.6-1.4 1-1.9-.5-.5-.5-1.5-.7-2.3 0-.3-.1-.5 0-.8 0-.2-.1-.4-.1-.7s0-.7.2-1c-.1-.5.1-1.2-.3-1.5-.3 0-.6.1-.8-.2.1-.4.4-.8 0-.9-.3-.2-.5.2-.9.1 0-.1 0-.1-.1-.1 0-.2.1-.4.2-.6 0-.2-.7-.1-.9-.4-.2-.4.3-.5.3-.8.1-.5-.6-.4-.8-.8.2-.5.7-.4.9-.9-.1-.3-.6-.2-.6-.5.2-.3.9-.1 1-.6-.3-.3-.7-.9.2-.8.3-.1.5-.3.7-.6 0-.2-.2-.3-.2-.6s.2-.1.2-.2c-.3-1.1-.7-2.1-1.2-3.1.7.2.6-.5.8-.9.5-.1.3.5.7.6s.4-.7.6-1.1c.4 0 .3.3.5.4.4-.1.4-.8.9-.7.3.1 0 .7.4.8s.5-.7 1.1-.6c-.2-.2-.1-.2 0-.1m-.3.6c-.3.2-.3.7-.7.7s-.6-.4-.9-.6c-.1.4-.4.6-.9.4 0 .6-.6.9-1.3.6-.7.3-.4.8-.1 1.5.1.1.2.3.3.4q.3.6.3 1.2c.2.2.4.6.8.4.1-.2.1-.6.2-.6.2-.1.2.3.4.4.4.3 1 .2 1.3-.2.3.2.3.5.6.6s.6-.3 1-.4c.1.1 0 .4.1.5.4.1.7-.1 1-.1s0 .3-.1.4c.5.5.8-.1 1.3 0 .6-.9 1.1-1.8 1.7-2.6-.4-.2-.7-.5-.9-.8-.3.3-.8.3-1.2 0-.1-.1-.2-.3-.2-.5-.6.1-.9-.3-1.1-.6-.8.3-1.2-.3-1.6-.7m2.3 5.7c-.2-.2-.5-.2-.7-.5-.3.2-.7-.1-1-.3-.2.1-.5.1-.7.2-.2-.1-.4-.3-.6-.4-.2.1-.4.2-.7.2-.2-.1-.5-.3-.7-.3-.2.3-.5.4-1 .3-.1.5-.5.8-.9 1 .3.5-.2 1-.6 1.1.4.4-.2 1-.5 1.1.6.2.7.8.4 1.4.2 0 .3.1.5.2.1.2.2.5.1.7h.5c.2.3.6.5.4 1.1 1.8.4.4 2.5 1 3.7 0 .2-.1.2-.1.4.4.7.4 1.8.8 2.5-.1.2.1.2 0 .5-.3.7-.8 1.2-1 2-.2 0-.3.2-.5.2-.7-.5-1.4-1-2.2-1.3-.2-.5-.1-1 .2-1.5-.7-.9 0-2 .5-2.6-.8-.5-1.1-1.6-.8-2.5-1.5.4-2.6-.9-1.8-2.5-1.4-.2-1.4-1.4-1.2-2.8-.5 0-.7.1-1-.2s-.3-.8-.5-.8-.6.6-.7.7c1 .8-.1 1.8-.9 2 .5.7.4 1.7-.3 2.3.4.1.8.2 1 .5 0 .6-.2 1.3-.7 1.7-.2.2-.6.3-.6.5 1.2.2 2.7.8 2.6 1.9-.1.9-1 1.2-1.5 1.7.9.3 1 1 1.2 1.8 1-.4 2.5-.1 2.6 1 .5-.2 1.1-.3 1.7-.3.1-.1.1-.2.2-.2 1.3.1 1.7.9 2.4 1.4-.1.6-.3 1.2-.4 1.9-.1.1-.3.2-.1.4.6-.4 1-.9 1.8-.9.3-1 .7-2 1.1-3 .2-.4.5-1.1.8-1.2.2.1.3.3.6.4s.4-.1.5 0c.4.1.5.6.9.8.3-.4.4-1.1 1-1.2s.8.3 1.2.6c.3-.6.8-1.4 1.6-.8 0-1.1.5-2.6 1.8-1.9 0-.8.6-1.6 1.3-1.9-1-.4-1.3-2.1-.2-2.5-.2-.4-.3-.9-.2-1.3-.6.3-1.9.2-2.2-.5-.2.4-.5.5-.7.8s-.6 1-1.4.7c-.3.8-.9 1.4-1.7 1.5.4.6.3 1.4-.2 2 .7 1-.6 2.7-1.6 2.1 0-1.2.8-2.2 1.1-3.4-.1-.2-.4-.2-.5-.2-.6.8-1.2 1.6-1.5 2.6-.4 0-.3-.4-.7-.5 0-.4-.3-.8-.4-1.2 0-.1.1-.2.1-.3s-.2-.5-.2-.7c0-.5.1-.9.2-1.4 0-.1.2-.2.3-.3.3-.4.5-.9 1.1-.7.1-.5.6-.8 1.1-.7l.1-.7c.2-.3.5-.1.6-.4v-.5c0-.2.2-.2.4-.4-.3-.5-.2-1.1.2-1.5-.3-.3-.3-.7-.1-1.1-.4.2-.4-.3-.6-.5m-.6 11.6c.4.1 1-.9.6-1.4-.3.3-.5.8-.6 1.4m-3.8 6.6c.2.1.3 0 .3-.2-.1 0-.2.1-.3.2" class="st12"/><path d="M188.9 132.8c.3.3.5.8 1.1.6 0 .5.4.8.9.8.2 0 .4-.1.5-.2.2.3.5.6.9.8-.6.8-1.1 1.8-1.7 2.6-.4-.1-.8.6-1.3 0 0-.1.2-.3 0-.4s-.6.2-1 .1c-.1-.1 0-.4-.1-.5-.3.1-.6.5-1 .4s-.3-.4-.6-.6c-.3.4-.8.5-1.3.2-.1-.1 0-.4-.3-.4s-.1.5-.2.7c-.4.2-.6-.1-.8-.4 0-.4-.2-.8-.3-1.2-.1-.1-.2-.2-.3-.4-.3-.7-.5-1.2.1-1.5.6.3 1.2.1 1.3-.6.5.1.8 0 .9-.4.3.2.5.6.9.6s.4-.5.7-.7c.3.4.8 1 1.4.5m2.5 1.5c-.6.7-1.1 1.5-1.6 2.3 0 .2 0 .3.1.4 0-.1.1-.1.2-.1.5-.9 1-1.7 1.4-2.6 0 .1 0 0-.1 0m-1.4 0c-.1.3-.4.6-.6 1s-.5.8 0 .9c.4-.5.7-1.1.8-1.8 0-.1-.1-.1-.2-.1m-2.4.9c0-.3.2-.7 0-.9-.1.3-.2.8 0 .9" style="fill-rule:evenodd;clip-rule:evenodd;fill:#98037e"/><path d="M191.5 134.4c-.4.9-.9 1.8-1.4 2.7-.1 0-.2-.1-.2 0-.1-.1-.1-.3-.1-.4.4-.8 1-1.6 1.6-2.3 0-.1 0 0 .1 0M190.2 134.5c-.1.7-.4 1.3-.8 1.8-.5 0-.2-.6 0-.9s.4-.7.6-1c.1 0 .2 0 .2.1M187.6 134.5c.2.2 0 .6 0 .9-.2-.2-.2-.7 0-.9M185.9 137.7c0 .1 0 .2-.1.2-.1-.1-.2-.1-.2-.3.1 0 .2 0 .3.1M184.9 137.6c.1 0 .1.1.2.1 0 .1-.1.3-.1.4-.1 0-.1-.1-.2-.1 0-.1 0-.3.1-.4M189.7 138.9c-.4 0-.7-.1-.7-.4.3-.2.8 0 .7.4M188.2 138.4h.1c0 .3-.1.5-.3.7-.2-.2.1-.5.2-.7M189.7 140.1c-.6.4-.8-1.1-.1-.5.1 0 .1.2.1.5M188.7 139.8c-.1.3-.2.7-.5.7-.1-.3.2-.9.5-.7M189.4 141c.1.8-.6 1.5-1.2 1.2.4-.4.7-.8 1-1.3.1 0 .1.1.2.1M187.9 141.3c.1.4-.4.9-.8.9.2-.4.5-.7.8-.9M187.9 143.1c0 .1-.1.2-.1.3h-.3c-.2-.4.1-.6.4-.3M179 141.9c.2.3.4.6.3 1-.3-.2-.5-.6-.3-1M193.7 146.3c-.2.8-.6 1.5-1.1 2 .3-.7.7-1.4 1.1-2M178.5 144.8c.3.9.5 1.8.7 2.7-.4-.8-.7-1.7-.7-2.6z" class="st12"/><path d="M189.8 148.1c.4.4-.2 1.4-.6 1.4 0-.5.2-1 .6-1.4" class="st5"/><path d="M187.2 149.7c-.3 0-.5-.2-.4-.4.3-.1.4.1.4.4M186.3 149.5c.2.1.3.2.3.5 0 0-.1 0-.1.1-.2-.1-.3-.3-.2-.6M190.2 150.5c.1 0 .2.1.2.2s-.2.1-.3 0c.1-.1.1-.2.1-.2M180.6 150.2c.3.1.3.4.5.5.3 0 .6.2.6.4-.1.7-1.2-.4-1.1-.9" class="st12"/><path d="M185.7 156c0 .2-.1.3-.3.2 0-.2.2-.3.3-.2M190.3 138.6c-.2.4-.1.8.1 1.1-.5.4-.6 1-.2 1.5-.2.2-.3.2-.4.4s0 .4 0 .5c-.1.3-.5.1-.6.4-.2.3-.1.4-.1.7-.5-.1-1 .2-1.1.7-.6-.2-.8.3-1.1.7l-.3.3c-.1.5-.2.9-.2 1.4 0 .2.2.4.2.7 0 .2-.1.2 0 .3.1.5.4.9.4 1.2.3.1.3.4.7.5.4-.9.9-1.8 1.5-2.6.2 0 .5 0 .5.2-.3 1.2-1.2 2.2-1.1 3.4 1 .6 2.3-1.1 1.6-2.1.5-.6.5-1.4.2-2 .8-.2 1.5-.7 1.7-1.5.8.3 1.1-.3 1.4-.7s.6-.4.7-.8c.3.7 1.6.8 2.2.5-.1.4 0 .9.2 1.3-1.1.4-.8 2.1.2 2.5-.8.3-1.3 1.1-1.4 1.9-1.3-.7-1.8.8-1.8 1.9-.8-.7-1.3.2-1.6.8-.4-.2-.7-.6-1.2-.6s-.7.8-1 1.2c-.4-.2-.5-.7-.9-.8-.2-.1-.4 0-.5 0-.2 0-.3-.3-.6-.4-.4.1-.6.8-.8 1.2-.4 1-.8 2-1.1 3.1-.8 0-1.2.6-1.8.9-.1-.2.1-.2.1-.4.1-.6.2-1.3.4-1.9-.8-.5-1.2-1.2-2.4-1.3-.1 0-.2.1-.2.2-.6-.1-1.2 0-1.7.3 0-1.1-1.6-1.4-2.6-1-.1-.8-.3-1.6-1.1-1.8.5-.6 1.4-.8 1.5-1.7.1-1.1-1.3-1.6-2.6-1.9 0-.2.4-.3.6-.5.5-.5.7-1.1.7-1.7-.2-.3-.6-.4-1-.5.7-.6.8-1.6.3-2.3.8-.2 1.9-1.2.9-2 .1 0 .6-.7.7-.7s.3.6.5.8.5.2 1 .2c-.2 1.4-.2 2.6 1.2 2.8-.8 1.6.3 2.9 1.8 2.5-.3.9 0 1.9.8 2.5-.5.6-1.2 1.7-.5 2.6-.3.4-.4 1-.2 1.5.8.3 1.5.8 2.2 1.3.2 0 .3-.2.5-.2.3-.7.7-1.3 1-2 0-.2-.2-.2 0-.5-.5-.7-.4-1.8-.8-2.5 0-.1.1-.2.1-.4-.6-1.2.8-3.3-1-3.7.2-.6-.2-.8-.5-1.1h-.5c0-.2 0-.5-.1-.7-.2 0-.4-.1-.5-.2.2-.6.1-1.2-.5-1.4.3-.2.8-.7.5-1.1.3-.2.8-.6.6-1.1.4-.2.9-.5.9-1.1.5.2.8 0 1-.3.3.1.5.2.7.3.2 0 .5-.1.7-.2.2.1.4.2.6.4.2 0 .5-.1.7-.2.3.2.7.5 1 .3.2.2.5.3.7.5.4 0 .4.4.7.4m-4.7-1c0 .2.1.2.2.3.1-.1.1-.2.1-.2-.1-.1-.2-.1-.3-.1m-.8.5c.1 0 .1.1.2.1.1-.1.1-.2.1-.4-.1 0-.1-.1-.2-.1s-.1.2-.1.4m4.2.4c0 .3.3.4.7.4.1-.4-.4-.5-.7-.4m-1 .6c.2-.2.3-.4.3-.7h-.1c-.1.2-.5.5-.2.7m1.6.5c-.7-.6-.4.9.1.5 0-.3 0-.4-.1-.5m-1.5.9c.3 0 .5-.4.6-.7-.4-.2-.6.4-.6.7m1.1.4c-.3.5-.6.9-1 1.3.6.3 1.3-.4 1.2-1.2 0 0 0-.1-.2-.1m-2 1.3c.4.1.8-.4.8-.8h-.1c-.3.2-.5.5-.7.8m.2 1.2c.1.1.2 0 .3 0 0-.1.1-.2.1-.4-.1-.2-.5 0-.4.4m-8.1-.5c.1-.4-.1-.7-.3-1-.2.4 0 .8.3 1m7.5 6.4c-.1.2.1.4.4.4.1-.3-.1-.4-.4-.4m-.3.8c0-.1.1 0 .1-.1 0-.2 0-.4-.3-.5 0 .2 0 .5.2.6m3.7.6q.15.15.3 0c0-.1-.1-.2-.2-.2s-.1.1-.1.2m-8.5.4c0-.2-.2-.4-.5-.4-.2-.2-.2-.4-.5-.5-.2.6.9 1.6 1 .9" class="st19"/><defs><path id="SVGID_19_" d="m145.4 89.7-.6 1.6-.9-1.8-.5.6-.4 1.3-.2-.9-.5-.3-.2 1.5-.1.6-.6-.6-.5-.4-.4 1.3v.9l-.7-.5-.2.7.1 1.1v.4l-.8-.3v2.2l-.7.2.1.3.1 1 .5 1 .1.5-.9-.1.6 1.3.6.9.7.3.3.9.4 1.5.2.7-.4.8.3.8.4.7-2.2 5 1.4.6.6.7h1.3l1.6.2 1.8-.2 1.6.1 1.5-.9.7.1 1.1-.6-1.1-2.5-.6-2.3-.1-.5.5-.8.3-.9-.5-.5h-.3l.2-1.2.3-.8.6-1 .8-1.3.7-.2.3-.9-.6-.7.4-.4.5-.6-1.2-.6.9-1.5.1-.4-1.2.1v-.6l.6-1.3-.8-.3-1 .3-.1-.6.7-2h-.7l-1.5.9.3-1.4-.1-.8-1.1.9-.4.7-.3-1.3-.2-1.3z"/></defs><clipPath id="SVGID_20_"><use xlink:href="#SVGID_19_" style="overflow:visible"/></clipPath><g style="clip-path:url(#SVGID_20_)"><linearGradient id="SVGID_21_" x1="-64.415" x2="-55.695" y1="195.548" y2="195.548" gradientTransform="matrix(1.6 0 0 1.6 241.05 -211.106)" gradientUnits="userSpaceOnUse"><stop offset="0" style="stop-color:#fff295"/><stop offset=".01" style="stop-color:#fff295"/><stop offset=".19" style="stop-color:#ffed84"/><stop offset=".55" style="stop-color:#ffdf56"/><stop offset="1" style="stop-color:#ffcc16"/></linearGradient><path d="M138.1 89.1H152v25.3h-13.9z" style="fill:url(#SVGID_21_)"/></g><path d="M146.6 91c.4-.3.8-.7 1.2-1v-.3c.8.2.6 1.5.4 2.2.6-.2.9-.8 1.5-.8.2-.1.3-.2.6-.2 0 .9-.3 1.8-.7 2.7.5-.2 1.7-.2 1.3.4-.6 0-1.1.1-1.6.4-.2-.2-.1-.6-.3-.8.3-.6.5-1.2.7-1.9-1-.2-1.2 1-2.2 1.1-.6-.5.6-1.6.3-2.5-.6.6-1.1 1.3-1.5 2-.3-.1-.1-.8-.4-1 0-.6 0-1.3-.1-1.9-.3.2-.3.6-.4.9s-.3.6-.4.9 0 .5-.2.6c-.4-.2-.4-1.1-.7-1.5 0 0-.2-.5-.3-.5s-.5 1.2-.5 1.4.3.5-.1.7c-.6-.1-.4-1-.7-1.4-.2.6-.2 1.3-.2 1.9 0 .2.3.3.1.5-.4.1-.4-.5-.8-.5-.2-.3-.3-.6-.7-.7-.2.5-.4 1.5 0 1.8 0 .2-.2.4-.5.4s-.4-.6-.7-.6c0 .4 0 .9.1 1.3h.3c.3.4-.2.7-.5 1-.3 0-.3-.3-.6-.3-.1.6-.1 1.3.2 1.8.3.2.5.5.3.9-.6.2-.7-.5-1.1-.6-.3 1.2.6 1.8.9 2.7-.3.3-.8.4-1.1.1l-.1-.1c.2.7.7 1.4 1.3 1.8.1 0 0-.2.1-.1.5.8.8 1.8 1 2.7 0 .1.2 0 .2.1 0 .3.2.6.4.8-.2.5-.8.6-.7 1.2 0 .3.3.3.3.7-1.1.3-1-1.7-.3-2-.1-.9-.3-1.9-.7-2.7-.8-.3-1.4-.8-1.7-1.6-.3-.4-.5-1-.4-1.5.3-.1.5 0 .8.1-.3-.7-.5-1.5-.5-2.2 0-.2-.3-.2-.2-.4 0-.2.5-.2.8-.2.1-.8 0-1.6-.1-2.4.3-.1.5.2.7.2.1-.6 0-1.3.1-2 .3-.2.6 0 .9.1.1-.6.3-1.3.5-1.9.6 0 .7.5 1 .7.2-.7.1-1.5.5-1.9.3.1.6.3.8.6.2-.4.7-.8.6-1.4.4 0 .5.4.6.6.2.2.4.5.5.7.5-.5.6-1.3 1.3-1.5.6.6.5 1.6.7 2.4" class="st12"/><path d="M149 105.2c.6.1 1 .7.9 1.3-.1.3-.2.5-.4.7.1.1.1.2.1.3-.1.1-.4 0-.6.1s.1.1.1.2c.2 1.3.6 2.6 1.2 3.8.3.4.8 1.1.4 1.5-.7 0-1.3.9-2.1.4 0 0 0 .3-.2.4-.4 0-.8.4-1.2.5h-1.1c-1.2-.1-2.8.7-3.7 0-.8.3-1.8.1-2.4-.7-.8-.1-1.5-.4-1.4-1.2 0-.2.2-.3.3-.5.2-.3.3-.7.5-1q.9-1.35 1.5-3c-.1-.2-.4-.1-.4-.3.7-.2 1.5-.2 2.2 0-.1.7-1.1 0-1.5.3-.9 1.6-1.3 3.2-2.1 4.7.1.3.5.3.9.3.1-.2.1-.4.3-.5.2.1.3.3.3.5.4-.7.7-1.4.9-2.2.1.6-.3 1.2-.4 1.9 0 .4-.1.7-.2 1.1.1.2.6.1.8.1q.3-1.5.9-3c.3 1-.3 1.8-.2 2.8.4.4 1.1.5 1.6.1.1-.4 0-.8.4-.9.2.2.1.6.1 1 .3 0 .7 0 1-.1 0-1.2.1-2.4.2-3.5.2.2.3.5.3.8.1.8 0 1.9.1 2.8.6.3 1.1-.2 1.6-.2l.3-.3h.4c0-.9-.4-2.1-.4-3 .3 0 .5.4.5.7.1.7.3 1.5.5 2.2.3-.2.8-.2 1.1-.5-.8-1.6-1.3-3.3-1.6-5-1-.3-2.3.4-3-.2.3 0 .4-.2.7-.3.8-.1 1.6-.1 2.5-.2.2-.4.7-1 .2-1.4-.1 0-.1.2-.2.2-.9-.1-1.8-.1-2.8-.1 0-.5.9-.1 1.2-.3.2.1.4.1.6.1 0-.6.2-1.3.6-1.8.4.5-.4 1.1-.3 1.7h.3c.2-1.2.7-2.3 1.4-3.3.3-.3.7-.6.8-1.2.4-.1.6-.4.9-.7-.4-.3-.5-.8-.4-1.3.3-.1.5-.3.6-.5-.4-.4-1.3-.4-1.1-1.3.3-.3.8-.6.9-1.1-.6-.2-1 .5-1.4.2 0-.2.2-.2.3-.3-.1-.2-.2-.4-.2-.6.5-.4.8-.9 1-1.6.2-.1.2-.6.6-.4-.1.8-.4 1.6-.8 2.2.4.1.9-.3 1.3-.1.2 1-.7 1.5-1.1 2.1.2.1.5.2.7.3.2-.1.2-.3.5-.2.3.8-.4 1.4-.9 1.8.1.2.5.1.7.2 0 .7-.4 1.4-1.2 1.5-.1 1-1.2 1.1-1.3 2-.2.7-.4 1.4-.6 2M143.5 94.2q-.15-.75 0-1.5c-.1-.1-.1-.2-.2-.2-.2.6-.3 1.5.2 1.7M145.1 94c.1-.4.4-1 0-1.2 0 .4-.2 1.1 0 1.2M146.6 94.3c0-.5-.2-1-.6-.8.3.3.3.9.4 1.4.3 0 .2-.4.2-.6M141.9 94.1c-.3.6-.3 1.8.3 2 .1-.6-.4-1.3.1-1.7.2.2.3.4.4.7s.1.6.3.8c.1-.9-.2-2-1.1-1.8M148 95c.6.4 0 1-.1 1.5 0 0 .1 0 .1.1.6-.3.8-1.1.5-1.6 0-.1.1-.1.1-.2s-.1-.1-.2-.1c-.1.1-.3.1-.4.3M146.9 96.9c.4-.2.8-.8.5-1.2-.1.4-.6.7-.5 1.2" class="st12"/><path d="M149.4 98.2c.4 0 .5-.8.2-.9-.1.3-.4.6-.2.9M142.9 98.5c.2-.1 0-.4 0-.6-.5-.4-.6.7 0 .6M142.3 99.6c-.1-.2-.3-.2-.4-.3-.2-.4-.3-.9-.3-1.3-.1 0-.1-.1-.2-.1-.3.5.2 2.4.9 1.7M146.7 98.9c.1-.2.2-.4.2-.7-.1 0-.1-.1-.2-.1-.1.3-.4.7 0 .8M149.8 99.8c.5.5 1.1-1.3.5-1.4-.2.5-.6.9-.5 1.4M144.9 98.6c-.1.4-.3 1.4 0 1.7.3-.3.4-1.6 0-1.7M146.8 100.2c.1-.1.3-.7 0-.8-.1.2-.4.7 0 .8M149.1 100.2c-.2.2-.8 1.6-.4 1.8.3-.1.3-.5.4-.8s.2-.7.2-1c0 0-.1-.1-.2 0M142.7 101.2c-.1 1.4.5 2.8.3 4.3-.3.1-.8-.1-.7.3.3.1.6.1.9.1.1-.1.1-.2.2-.2 0-1.2-.1-2.3-.3-3.5-.1-.4-.2-.8-.4-1M147.1 103.9c0 .2-.3.6 0 .7.4-1 .7-2 .8-3-.3.8-.6 1.5-.8 2.3M145.2 102.7c.1-.1.1-.3 0-.5-.1-.1-.1-.1-.2-.1-.1.4-.1.6.2.6M145.3 105.5c0 .1.1.3.2.3.2-.9.3-1.8.2-2.7h-.1q-.3 1.2-.3 2.4M144.8 103.8c.1.1.1.2.3.2s.1-.1.1-.3c-.1 0-.4-.1-.4.1M145.1 105.3c0-.3-.2-.3-.3-.4-.3.3.1.6.3.4M144.1 105.8c.2.1.4.1.5 0 0 .2.4.2.3-.1-.3-.1-.5-.1-.8-.2.1.1 0 .1 0 .3M178.3 144.5c0 .6 0 1.1.2 1.7.1.6.4 1.1.8 1.5l-.5-2.5zM179.6 148.7c0 .2.1.5.2.7.1.1.3.2.4.3zM192.4 148.5c.7-.7 1.3-1.6 1.7-2.6 0-.4-1 1.2-1 1.2zM191.9 149.2q-.15.6-.6.9c-.2.1-.4.2-.7.2l.7-.8zM187.6 139.6c.2.2-.4.6-.4.6l.1-.5zM187.2 141.1q.15-.15 0-.3c0-.1-.1-.1-.2-.1s-.3.3-.3.3h.5zM186.5 142.6c0 .2.1.5.2.6v-.4zM186.3 141.6l.5.2-.3.1zM189.6 134l-.9 1.7-.4.2.4-1.1.5-.7zM188.1 133.4l-.4 2.6.2.2.3-1.7zM187.1 138c.1.1.1.2.1.4h-.2zM138.4 154.3c-.2.1-.4.3-.5.5h.3zM176.2 122.6c1-.1 3.6-1.7 3.4-3.8-.2-2.5-7.8-1-11 .3l.8-.8c.1-.1-.7-1.2-.7-1.2s.6-.7.6-1.1 0-.1-.2.1-.9.9-.8 1.2c0 .3.5.8.4 1-.2.3-.5.6-.7.9-.3-.5-.5-.6 0-1.3.2-.6 0-1.2-.6-1.5-.1 0-.1 0-.2-.1-.1 0-.2-.1-.3-.2.1-.4.2-.9.5-1.2.5-.5 1.1-.8 1.8-1 0 0-.3-.6-1.9.6q-.6.45-.9 1.2c-.3-.2-.6-.2-.9-.2-.4 0-.8.2-1.1.4-.2-.5-.5-1-1-1.3-1.9-1.3-2-.7-2-.7.7.3 1.3.7 1.9 1.1q.45.6.6 1.2c-.1.1-.3.1-.4.1-.7.2-.6 1.2-.5 1.6s.3.7-.2 1.3l-.1.1c-.3-.4-.7-.8-.9-1.2 0-.2.5-.6.6-.9s-.6-.9-.7-1.1 0-.4-.2-.1.4 1 .4 1-1 1-.9 1.1l1.3 1.6c-2.1-.5-9-3.9-10.7-1.4s1.3 4 2.5 4.5c.8.4 1.6.1 2.9-.2-.8.4-1.6.8-2.4 1.3-2.1 1.4 1.8 3 3.3 2.6 1.5-.6 2.9-1.5 4.1-2.5-.1.2-.2.4-.3.7l-2.1 1.5c-.2 1-.6 2-1.1 2.9-.6.7 1.3-.7 1.7-2.3 0-.2.7-.6 1.1-.9-.1.2-.1.5-.2.8v.1l-.8 1.4-.4 2.4c-.2.5-.4 1-.8 1.4.5-.1 1-.5 1.1-.9l.6-2.4.2-.4c.5 2.5 2 4.6 4.1 6 .4 0 1.4-.2 2.8-2.7.6-1 1.1-2.1 1.3-3.3l.2.2q.15 1.2.6 2.4.3.75 1.2.9c-.4-.4-.7-1-.8-1.5-.2-.6-.4-2.1-.4-2.1l-.8-1.3c0-.3-.1-.6-.1-.9.4.3 1 .7 1 .9.4 1.6 2.2 3 1.7 2.3-.5-.9-.8-1.9-1.1-2.9l-1.8-1.3c-.1-.3-.2-.5-.2-.7 1 .8 3 2.4 4.2 2.4 1.4 0 4.5-2.1 3.1-3-.8-.5-1.7-.9-2.6-1.2.9.1 1.9.1 2.8.1m-14-.5" class="st12"/><defs><path id="SVGID_22_" d="M163.9 117.2c-.2.4-.8.6-.8 1 0 .8-.1.6.2 1.2.1.2 0 .6 0 .8 0 .3 0 .6-.2.9-.6.5.6 1.8-.1 2.5-.9.8-1.4 1.9-1.4 3.2.1.1.2.6.3.7-.1.6.6.7.5 1.2 0 .1-.4.4-.4.6 0 .7.5.8.7 1.2 0 .1.1.3.2.4.1.4.5.2.7.9.1.1 0 .1-.1 0s-.2-.1-.2 0c.3.7.2.8.7 1.3.2.2.8 0 .8.2.5 0 .5.1.8-.2.1-.1.7 0 .8-.2.5-.5.8-1.2.9-1.9 0-.1-.3-.2-.3-.2.1-.5.2-1 .4-1.5.2-.1.3-.3.4-.4 0-.4.6-1 .6-1.5-.9-1.3-.1-1.7-.3-2.7-.3-.5-.2-.6-.6-1s-.4-.6-.3-.8c.1-.3.2-.6.2-.9 0-.7-.3-.6-.5-1.1 0-.1-.4-.2-.5-.3s-.2-.1-.1-.2c.1-.2.3-.4.5-.4.3-.1.4-.4.4-.7-.2-1.2.2-1.4 0-1.5-.3-.1-.5-.3-.7-.5-.1-.2-.2-.9-.5-1-.6-.3-.6-.3-.7-.3h-.3c-.6-.1-.8.5-1.1 1.2"/></defs><clipPath id="SVGID_23_"><use xlink:href="#SVGID_22_" style="overflow:visible"/></clipPath><g style="clip-path:url(#SVGID_23_)"><linearGradient id="SVGID_24_" x1="239.64" x2="248.36" y1="397.348" y2="397.348" gradientTransform="matrix(.8 0 0 .8 -29.82 -193.288)" gradientUnits="userSpaceOnUse"><stop offset="0" style="stop-color:#fff295"/><stop offset=".01" style="stop-color:#ffef91"/><stop offset=".18" style="stop-color:#ffcb65"/><stop offset=".34" style="stop-color:#ffad41"/><stop offset=".51" style="stop-color:#ff9624"/><stop offset=".67" style="stop-color:#ff8510"/><stop offset=".84" style="stop-color:#ff7b04"/><stop offset="1" style="stop-color:#ff7800"/></linearGradient><path d="M161.6 116h6.9v17.3h-6.9z" style="fill:url(#SVGID_24_)"/></g><path d="M162 126.8s-.1-1.5 3-1.5 3 1.4 3 1.4c-1 .2-1.9.3-2.9.4-1.2-.1-3 .2-3.1-.3M162.6 128.2h2.4c1.7 0 2.6.2 2.8.7.2.4-1 1-2.8 1s-2.1.1-2.4-.3c-.2-.4-.9-1.3 0-1.4M163.2 131.1c1.7-.1 2.4-.3 3.1.1.8.4 1.7.7.6 1.1-.9.3-1.9.4-2.8.3-.5-.1-.9-.5-1-.9-.2-.5.2-.6.1-.6M167 121.2c.8-.6-.2-1.8.1-2.1.5-.5-.5-1.6-1.9-1.5-2.4.1-2.1 1.9-1.9 2.3.1.5.3.4.2.7-.1.2-.1.4-.2.6s-.2.5-.2.7c0 .4.2.8.5 1.1s.3.6 1.8.5c1.2-.1 1.5-.4 1.7-1.1.3-.4.2-.9-.1-1.2" class="st12"/><path d="M162.6 120.7c-.6-.2-6.7-2.5-7.9-2.5s-2.6-.2-2.9 1.4 1.7 2.4 2.3 2.5 2.9-.1 6.8.2c1.4.1 1.9.4 1.6-.2-.1-.5-.1-1 .1-1.4" class="st18"/><path d="M161.5 122c-1.6.2-3.1.7-4.6 1.4-1.1.6-2.7 1.3-2.1 1.7.8.8 2 1.1 3.1.8 1.6-.4 4.8-2.8 4.8-3.2-.1-1.2-1.2-.7-1.2-.7M167.7 120.5c.7-.2 6-2.2 8.5-2.4s2.6.6 2.5.9-1 2.4-2.4 2.8-6.2 0-7.5.7c-.9.5-.7-.2-.8-.7s-.8-1.2-.3-1.3" class="st18"/><path d="M168.6 121.4c.6-.2 4.5 1.4 5.2 1.8s1.7.7 1.5 1.1-2 2-2.8 1.6c-1.1-.5-2.2-1-3.2-1.7-.8-.5-1.6-.9-1.4-1.4.3-.5-.2-1.1.7-1.4" class="st18"/><path d="M160.1 121c-1.9-.4-4.2-.8-4.2-.8l1.8.6 2.5.2zM169.7 120.8s3.9-.4 4.4-.6c.2-.1.5-.1.8 0-.6.3-1.3.5-2 .6zM160.4 123.5l-1.5.4-.3.1c-.7.2-1.3.3-1.4.3q.9 0 1.8-.3zM170.2 123.1c.6.4 1.3.8 2 1.2.8.3.3.3.3.3-.4-.1-.8-.3-1.1-.5-.5-.3-1.2-1-1.2-1" class="st12"/><path d="m165.1 176.9-7.8-4v-41.8h-32.7l-3.6-7.6 4.9-7.9h31.4V85.8h15.5v29.8h31.7l3.8 6.9-2.4 8.6h-33v41.8zm-7.1-4.4 7 3.6 7-3.6v-42.1h33.2l2.2-7.8-3.4-6.3h-32V86.5h-14v29.8h-31.7l-4.4 7.2 3.1 6.9h33z"/><path d="M165.4 83.6c1.7.1 3.3 0 5-.2.5-.2 2.2-3.6 10-3.1s11.5 4.2 14.5 4.9 3.3.2 3.3.2c-.8-1.4-.3-3.3 1.1-4.1l.1-.1c2.7-1.4 4.8 1.5 5.3 2.7.4 1.3.9 2.5 1.4 3.7.5.8 3.6 3.6 4.2 5s.1 3.8-.8 4.2c-3.6 1.8-4.8-1.1-4.8-1.1s-4.3 2.7-2.4 11.9 6.3 12.9 6.3 12.9-2.4-3.1 1.4-4.7c2.1-.8 3.8 1.5 4 2.4.6 2.5-.9 4.5-2.9 5.9s-5.6 3.9-5.1 13.9 1.4 15.4-4.4 21.7-16 3.8-16 3.8-2.1 4.8-5.3 7.3c-4.4 3.3-10.6 3.1-12.4 6.8-.2.4 1.8 5.3-2.9 5.3h-.3c-4.7 0-2.7-5-2.9-5.3-1.8-3.6-8-3.5-12.4-6.8-3.3-2.5-5.3-7.3-5.3-7.3s-10.3 2.4-16-3.8c-5.7-6.3-4.9-11.7-4.4-21.7s-3.1-12.5-5.1-13.9-3.5-3.4-2.9-5.9c.2-.9 1.9-3.2 4-2.4 3.8 1.5 1.4 4.7 1.4 4.7s4.3-3.7 6.3-12.9-2.4-11.9-2.4-11.9-1.2 2.9-4.8 1.1c-.9-.4-1.5-2.8-.8-4.2s3.7-4.2 4.2-5c.6-1.2 1.1-2.5 1.4-3.7.4-1.2 2.5-4.2 5.3-2.7 1.5.7 2.1 2.5 1.3 4 0 0 0 .1-.1.1 0 0 .3.5 3.3-.2s6.7-4.5 14.5-4.9 9.5 2.9 10 3.1c1.7.2 3.3.2 5 .2h1.1zm-.7 3.6-4.1.1s-2.2 2.9-4.7 1c-2.2-1.6-.1-3.7-.1-3.7s-.1-.9-3.1-.9c-3.8 0-8.7 4.9-14.6 5.8-3.4.5-6.9-.2-9.8-2-.1.8-.3 1.6-.7 2.3-.4.6-.9 1.2-1.4 1.7 0 0 8.5 2.5 6.9 17-1.3 11.5-9.9 15.3-9.9 15.3s3.6 2.3 4.8 8.8c.9 4.7-.1 12.2 1.2 17.2.9 3.6 3.1 8.6 9.1 9.9s6.5-1.3 8.2-.5.2 3.7 4.3 7c1.3 1 6.3 2.6 9 4.3 1.7 1.1 5.3 5.6 5.3 5.6s3.6-4.5 5.3-5.6c2.6-1.7 7.7-3.3 9-4.3 4.2-3.2 2.6-6.2 4.3-7s2.2 1.8 8.2.5 8.2-6.3 9.1-9.9c1.3-5 .3-12.5 1.2-17.2 1.2-6.5 4.8-8.8 4.8-8.8s-8.6-3.8-9.9-15.3c-1.6-14.5 6.9-17 6.9-17-.5-.5-1-1.1-1.4-1.7-.4-.7-.6-1.5-.7-2.3-2.9 1.8-6.4 2.5-9.8 2-5.8-.8-10.8-5.8-14.6-5.8-3 0-3.1.9-3.1.9s2.1 2.1-.1 3.7c-2.5 1.9-4.7-1-4.7-1l-4.1-.1z" style="fill:#bfbfbf"/><path d="M165.1 183.6h-.3c-1.1.1-2.1-.3-2.9-1.1-1.1-1.3-.7-3.2-.5-4.2 0-.1 0-.3.1-.4-1-1.8-3.2-2.6-5.8-3.5-2.3-.7-4.4-1.7-6.4-3-2.9-2.1-4.8-5.9-5.3-7.1-2 .4-10.8 1.8-16.1-4s-5.1-11.1-4.7-19.7c0-.8.1-1.6.1-2.4.5-9.5-2.8-12-4.8-13.4l-.1-.1c-2.6-1.9-3.6-4.1-3.1-6.4.4-1.1 1.1-2 2.1-2.6.7-.4 1.6-.5 2.4-.2 1.1.3 2 1.2 2.4 2.3.1.2.1.5.1.7 2.3-3.3 3.9-7 4.6-10.9 1.5-7.1-.8-10.1-1.8-11.1-.4.6-.9 1-1.6 1.2-1.2.4-2.5.2-3.5-.4-1.1-.6-1.9-3.2-1.1-4.9.8-1.3 1.8-2.4 2.9-3.4.5-.5 1-1 1.4-1.6.4-.9.8-1.8 1.1-2.7l.3-.9c.6-1.4 1.6-2.5 3-3.2 1.8-.7 3.9.3 4.6 2.1q.45 1.2 0 2.4c.9 0 1.7-.1 2.6-.4 1.1-.3 2.2-.8 3.2-1.4 3.5-2.1 7.4-3.3 11.4-3.5 6.8-.4 9.2 2.1 10 3l.2.2c1.6.1 3.2.2 4.7.1h.8c1.6.1 3.2 0 4.8-.1l.2-.2c.9-.9 3.2-3.3 10-3 4 .3 7.9 1.5 11.4 3.5 1 .6 2.1 1.1 3.3 1.4.8.2 1.7.3 2.6.3-.6-1.9.4-3.9 2.2-4.5q1.2-.45 2.4 0c1.4.6 2.4 1.8 3 3.2l.3.9c.3 1 .6 1.9 1.1 2.8.4.6.9 1.1 1.4 1.6 1.1 1 2 2.2 2.8 3.4.8 1.7.1 4.3-1.1 4.9-1.1.6-2.3.8-3.5.4-.6-.2-1.2-.7-1.6-1.2-1 .9-3.3 4-1.8 11 .7 3.9 2.3 7.6 4.6 10.9 0-.3 0-.5.1-.7.4-1.1 1.3-1.9 2.4-2.2.8-.3 1.7-.3 2.5.1 1 .6 1.8 1.5 2.1 2.6.6 2.3-.5 4.5-3.1 6.4l-.1.1c-2 1.4-5.3 3.9-4.8 13.4 0 .8.1 1.6.1 2.4.5 8.6.8 13.8-4.7 19.7s-14.1 4.4-16.1 4c-.6 1.2-2.5 5-5.3 7.1-2 1.3-4.1 2.3-6.4 3-2.6.9-4.9 1.7-5.8 3.5 0 .1.1.2.1.4.2 1 .5 2.9-.5 4.2-.4.8-1.5 1.2-2.6 1.2m-20.6-20.5.1.4s2.1 4.8 5.2 7.1c1.9 1.3 3.9 2.3 6.1 2.9 2.7 1 5.3 1.9 6.4 4.1.1.2.1.4 0 .9-.2.9-.5 2.5.3 3.4.6.6 1.4.9 2.2.8h.3c.8.1 1.6-.2 2.2-.8.8-.9.5-2.6.3-3.4-.1-.5-.1-.7 0-.9 1.1-2.2 3.7-3.1 6.4-4.1 2.2-.6 4.2-1.6 6.1-2.9 3.1-2.4 5.2-7.1 5.2-7.1l.2-.4.4.1c.1 0 10.1 2.3 15.6-3.7 5.2-5.6 4.9-10.4 4.4-19 0-.8-.1-1.6-.1-2.4-.5-10 3.2-12.8 5.1-14.2l.1-.1q3.45-2.55 2.7-5.4c-.3-.8-.9-1.5-1.7-2-.5-.3-1.1-.3-1.7-.1-.8.2-1.5.8-1.8 1.6-.1.8.1 1.6.6 2.3l-.7.7c-.2-.2-4.5-3.9-6.4-13.2-2-9.4 2.4-12.3 2.6-12.4l.5-.3.2.5c.3.6.8 1 1.3 1.2.9.3 1.9.1 2.8-.4.6-.3 1.2-2.3.6-3.6-.8-1.2-1.7-2.2-2.7-3.2-.6-.5-1.1-1.1-1.6-1.8-.5-.9-.9-1.9-1.2-2.9l-.3-.9c-.5-1.2-1.3-2.1-2.5-2.7-.7-.3-1.5-.2-2.1.2-1.3.6-1.8 2.1-1.1 3.4 0 0 0 .1.1.1l.1.2-.2.2c-.4.5-1.6.5-3.8 0-1.2-.4-2.3-.9-3.4-1.5-3.3-2-7.1-3.1-11-3.4-6.3-.3-8.5 1.9-9.3 2.7-.1.2-.3.3-.5.4-1.7.2-3.5.3-5.2.2h-.8c-1.7.1-3.5 0-5.2-.2-.2-.1-.3-.2-.5-.4-.8-.8-2.9-3-9.3-2.7-3.9.3-7.7 1.4-11 3.4-1.1.6-2.2 1.1-3.4 1.5-2.2.5-3.5.5-3.8 0l-.1-.2.1-.2c.7-1.2.3-2.8-.9-3.6-.7-.4-1.5-.5-2.3-.2-1.1.5-2 1.5-2.5 2.6l-.3.9c-.3 1-.7 2-1.2 2.9-.5.6-1 1.2-1.6 1.8-1 1-1.9 2-2.7 3.2-.6 1.3 0 3.3.6 3.6.8.5 1.8.7 2.8.4.6-.2 1.1-.7 1.3-1.2l.2-.5.5.3c.2.1 4.6 3 2.6 12.4-2 9.2-6.2 13-6.4 13.2l-.7-.7c.5-.7.7-1.5.6-2.3-.3-.8-1-1.4-1.8-1.6-.5-.2-1.1-.2-1.7.1-.8.4-1.4 1.1-1.7 1.9q-.75 3 2.7 5.4l.1.1c2 1.5 5.7 4.2 5.2 14.2 0 .8-.1 1.6-.1 2.4-.5 8.6-.8 13.4 4.4 19 5.5 6 15.5 3.7 15.6 3.7zm20.4 13.6-.3-.4s-3.5-4.4-5.2-5.5c-1.7-1-3.4-1.8-5.2-2.5-1.3-.5-2.6-1.1-3.8-1.9-1.8-1.3-3-3.2-3.4-5.3-.2-.9-.4-1.3-.8-1.5s-.8-.1-1.4.2c-1.1.5-2.8 1.2-6.7.4-4.8-1-8.1-4.6-9.5-10.3-.6-3.2-.9-6.5-.8-9.8.1-2.5-.1-5-.4-7.5-1.1-6.2-4.5-8.5-4.5-8.5l-.7-.5.8-.3c.1 0 8.4-3.9 9.6-15 1.5-13.8-6.2-16.4-6.5-16.5l-.8-.2.6-.6c.5-.5 1-1 1.4-1.6q.45-1.05.6-2.1l.1-.8.7.5c2.8 1.8 6.2 2.5 9.5 2 2.9-.4 5.7-1.9 8.1-3.3s4.6-2.5 6.5-2.5c3.2 0 3.6 1 3.6 1.4v.2l-.2.2c-.5.5-.7 1.1-.8 1.8.1.5.4.9.8 1.2 2.1 1.6 4-.8 4.1-.9l.1-.2 4.9-.1 4.3.1.1.2c.1.1 2 2.5 4.1.9.4-.3.7-.7.8-1.2 0-.7-.3-1.3-.8-1.8l-.1-.2v-.2c0-.3.4-1.4 3.6-1.4 2 0 4.1 1.2 6.5 2.5s5.2 2.8 8.1 3.2c3.3.5 6.7-.2 9.5-2l.6-.5.1.8q.15 1.05.6 2.1c.4.6.8 1.1 1.4 1.6l.6.6-.8.2c-.3.1-8.1 2.6-6.5 16.5 1.2 11.1 9.6 14.9 9.6 15l.8.3-.7.5s-3.4 2.3-4.5 8.5c-.3 2.5-.5 5-.4 7.5.1 3.3-.2 6.5-.8 9.8-1.4 5.7-4.7 9.3-9.5 10.3-3.9.8-5.6.1-6.7-.4-.7-.3-1-.4-1.4-.2s-.6.6-.8 1.5c-.4 2.2-1.6 4.1-3.4 5.4-1.2.7-2.5 1.4-3.8 1.9-1.8.7-3.5 1.5-5.2 2.5-1.6 1.1-5.2 5.4-5.2 5.5l-.1.1zm-19.2-18.2c.3 0 .6.1.8.2.9.4 1.1 1.2 1.3 2.2.4 2 1.5 3.7 3.1 4.8 1.1.7 2.4 1.2 3.6 1.7 1.8.7 3.6 1.6 5.3 2.6 1.4.9 4.1 4.1 5 5.2 1-1.2 3.6-4.3 5-5.2 1.7-1 3.5-1.9 5.3-2.6 1.3-.5 2.5-1 3.6-1.7 1.6-1.2 2.7-2.9 3.1-4.8.2-.9.4-1.8 1.3-2.2.7-.3 1.5-.2 2.2.2 1.1.4 2.6 1.1 6.1.3 4.5-.9 7.4-4.2 8.8-9.6.6-3.1.8-6.3.7-9.5-.1-2.6.1-5.1.4-7.6.9-5.1 3.2-7.7 4.4-8.7-5.4-3.3-8.9-9-9.4-15.3-1.4-12.3 4.5-16.3 6.5-17.3-.4-.4-.7-.8-1-1.3q-.45-.75-.6-1.8c-2.9 1.6-6.3 2.2-9.6 1.7-3.1-.4-5.9-2-8.4-3.4-2.3-1.3-4.4-2.4-6.1-2.4-.9-.1-1.7.1-2.5.4.5.6.8 1.4.8 2.2-.1.8-.5 1.5-1.2 1.9-2.2 1.6-4.3.2-5.2-.9l-3.8-.1h-.6l-3.8.1c-1 1.1-3.1 2.5-5.3.9-.7-.4-1.1-1.1-1.2-1.9 0-.8.2-1.6.8-2.2-.8-.4-1.7-.5-2.5-.4-1.7 0-3.8 1.1-6.1 2.4-2.5 1.4-5.3 2.9-8.4 3.4-3.3.5-6.7-.1-9.6-1.7q-.15.9-.6 1.8c-.3.5-.6.9-1 1.3 2.1 1 7.9 5 6.5 17.2-.5 6.4-4.1 12.1-9.5 15.4 1.1 1 3.4 3.6 4.4 8.7.3 2.5.5 5.1.4 7.6-.1 3.2.1 6.4.7 9.5 1.4 5.4 4.3 8.6 8.8 9.6 3.6.8 5.1.1 6.1-.3.6-.2 1-.3 1.4-.4"/></svg>