<svg xmlns="http://www.w3.org/2000/svg" width="933.333" height="933.333"><defs><clipPath id="a" clipPathUnits="userSpaceOnUse"><path d="M0 1080h1080V0H0Z"/></clipPath></defs><g clip-path="url(#a)" transform="matrix(1.33333 0 0 -1.33333 -253.334 1186.667)"><path d="M0 0c193.267 0 350.001-156.732 350.001-349.999S193.267-700 0-700s-349.999 156.733-349.999 350.001S-193.266 0 0 0" style="fill:#0d0909;fill-opacity:1;fill-rule:evenodd;stroke:none" transform="translate(540 890)"/><path d="M0 0c187.622 0 339.777-152.156 339.777-339.778S187.622-679.557 0-679.557s-339.778 152.156-339.778 339.779S-187.622 0 0 0" style="fill:#fff;fill-opacity:1;fill-rule:evenodd;stroke:none" transform="translate(540 879.779)"/><path d="M0 0c181.978 0 329.556-147.578 329.556-329.556S181.978-659.112 0-659.112s-329.556 147.578-329.556 329.556S-181.978 0 0 0" style="fill:#e32231;fill-opacity:1;fill-rule:evenodd;stroke:none" transform="translate(540 869.557)"/><path d="M0 0c136.821 0 247.779-110.958 247.779-247.779 0-136.822-110.958-247.779-247.779-247.779-136.822 0-247.779 110.957-247.779 247.779C-247.779-110.958-136.822 0 0 0" style="fill:#0d0909;fill-opacity:1;fill-rule:evenodd;stroke:none" transform="translate(540 789.569)"/><path d="M0 0c.906 14.554 2.286 27.119 9.769 34.802 9.583 9.839 28.5 15.867 52.718 16.575A236.1 236.1 0 0 0 0 0m-224.5-3.758h30.082l11.179 7.133c.07 1.86.125 3.741.191 5.615 3.149-.768 5.681-2.825 9.461-2.952 2.919-.098 5.163.83 7.79 1.901 1.928.787 3.488 1.361 5.626 1.394 4.395.069 7.942-3.3 12.877-3.153 4.322.128 7.646 2.787 11.561 2.968 1.795.085 3.714-.369 5.398-.963 2.573-.906 5.328-2.164 8.11-2.022l1.275.065-.129 2.551-1.277-.064c-2.258-.116-5.014 1.136-7.129 1.881-2.008.707-4.231 1.205-6.368 1.105-4.149-.193-7.553-2.849-11.516-2.967-4.408-.13-7.999 3.23-12.841 3.155-2.483-.039-4.312-.67-6.553-1.583-2.235-.912-4.262-1.796-6.738-1.714-3.476.118-5.976 2.235-9.442 2.982.418 9.082 1.482 17.761 6.685 23.148 14.881 15.405 46.006 16.605 61.476 16.844 13.01.2 35.72-.674 54.85-12.818 7.292-4.63 9.969-11.061 10.965-18.32-1.583.424-3.261 1.159-4.479 1.588-2.007.707-4.229 1.205-6.368 1.105-4.148-.193-7.552-2.849-11.516-2.967-4.407-.131-7.997 3.23-12.841 3.155-2.483-.038-4.31-.67-6.551-1.583-2.237-.912-4.264-1.796-6.74-1.712-4.119.137-6.868 3.088-11.481 3.233l-1.277.041-.08-2.553 1.276-.042c4.186-.132 6.928-3.082 11.477-3.234 2.918-.099 5.163.828 7.789 1.9 1.928.787 3.489 1.361 5.628 1.394 4.393.069 7.941-3.299 12.877-3.153 4.321.128 7.644 2.787 11.559 2.969 1.797.084 3.714-.37 5.4-.963 1.732-.611 3.686-1.49 5.621-1.873.39-4.609.274-9.489.346-14.412l12.158-6.877 29.86.11c-32.677-17.223-69.894-26.989-109.392-26.989-39.259 0-76.266 9.645-108.799 26.677m-69.379 55.121c23.669-.946 44.748-6.898 54.129-18.574 6.219-7.739 8.167-20.396 8.409-32.824a236.2 236.2 0 0 0-62.538 51.398M48.646 192.448v-72.711c15.006-3.003 29.89-6.477 44.577-10.454v114.023q-1.077.127-2.155.218c-3.682.31-7.213.218-10.842-.527-.711-.146-1.291-.406-1.815-.914-1.157-1.124-2.231-3.716-3.029-5.173-1.792-3.272-3.931-5.75-7.117-7.759-2.101-1.325-7.63-3.54-8.998-5.239-.861-1.069-1.619-2.193-2.405-3.314-2.28-3.249-4.484-5.424-7.719-7.765a11 11 0 0 1-.497-.385m-91.948-39.488v-20.55a827 827 0 0 0 44.55-4.767v36.871c-14.246-5.457-29.942-9.286-44.55-11.554m-91.974-.872v-17.151c7.333.155 14.666.234 21.991.24 7.527.005 15.059-.086 22.585-.276v9.871c-.619.63-1.008 1.407-1.03 2.365-.016.664.021.938.211 1.33.105.466.257.697.705 1.212l.114.126v1.702c-2.864.496-6.336.78-7.784.839-12.132.499-24.493.305-36.792-.258m0 90.579v-58.038q1.826.678 3.647 1.366c4.853 1.831 9.957 3.744 14.863 5.857-3.143 1.267-6.107 2.985-7.374 5.373-.94 1.769-.541 3.494.485 4.888-2.16 1.692-3.842 3.342-4.843 6.138-.713 1.996-.728 3.729 4.087 2.704a28 28 0 0 1 2.84-.455c-3.358 2.023-6.26 4.829-8.306 8.362-1.083 2.177-1.843 4.626 2.709 4.109a57 57 0 0 1 3.072-.22c-4.316 2.344-7.917 5.749-9.932 10.623-.633 2.514-.283 4.824 3.156 3.829a70 70 0 0 1 7.603-1.103c-4.336 1.688-8.449 3.83-12.007 6.567m0 15.848v-7.406c3.758-.023 7.54.052 11.315.227a75 75 0 0 0-11.315 7.179m0 16.995v-4.74q2.095-.302 4.194-.582c-1.604 1.611-3.027 3.388-4.194 5.322m0 10.358v-.948l1.504-.713a42 42 0 0 1 3.58-1.496 58 58 0 0 0-3.12 1.848 55 55 0 0 0-1.964 1.309m0 41.976v-1.553q1.395-.583 2.801-1.131-1.423 1.323-2.801 2.684m0 24.969v-4.684a156 156 0 0 1 5.828-2.593 109 109 0 0 0-5.828 7.277m0 59.662v-38.429c6.243-4.869 12.864-9.439 19.544-13.722-8.618 13.643-14.674 28.961-17.98 44.701zm-92.513-274.926v-9.133a848 848 0 0 0 45.114 4.372v15.38c-8.958-1.229-17.854-2.854-26.662-5.071-6.265-1.577-12.404-3.451-18.452-5.548m-47.397 77.925c-6.907-.604-13.763-1.547-20.502-3.244-8.285-2.085-16.101-5.305-23.82-8.833v-79.09l.168.075c10.158 4.542 20.898 8.294 31.458 11.786a845 845 0 0 0 12.696 4.079zm92.511 14.021a45 45 0 0 1-1.895-.968c-2.657-1.454-5.241-2.988-7.994-4.268-10.243-4.761-23.672-7.816-35.225-8.469v-61.461a2784 2784 0 0 1 18.639 5.487c8.843 2.643 17.678 5.449 26.475 8.347zm53.991-241.093c4.612-.147 7.363-3.098 11.482-3.235 2.475-.084 4.501.8 6.738 1.713 2.241.914 4.069 1.544 6.552 1.583 4.843.075 8.433-3.286 12.841-3.155 3.964.119 7.368 2.773 11.517 2.967 2.137.1 4.359-.399 6.367-1.105 2.024-.714 4.983-1.999 7.126-1.882l1.275.069.14-2.552-1.277-.069c-2.67-.144-5.624 1.146-8.113 2.024-1.685.592-3.603 1.047-5.399.963-3.915-.183-7.239-2.841-11.56-2.97-4.936-.145-8.483 3.223-12.877 3.154-2.139-.032-3.698-.608-5.627-1.394-2.626-1.071-4.871-1.999-7.79-1.9-4.549.153-7.29 3.101-11.477 3.235l-1.276.04.081 2.554zm-91.379 90.994.023-8.955h17.523V58.513h3.059v11.928h31.815l.036-14.641h15.713v3.058h-12.69v11.583h3.623v3.058h-21.535v12.048h-3.058V73.499h-31.451v5.897zm-47.183 19.26.029-14.681h12.511V71.988h3.058v11.987h11.304v3.058h-23.845v11.623zm224.712-39.83-.018-11.869h13.837V35.481h3.059v11.476h12.836v3.058h-26.655v8.811zM97.195 104.99c-54.416 15.2-111.676 23.382-167.989 26.109a865 865 0 0 1-42.488 1.011c-39.257-.032-78.691-2.153-117.635-7.187-14.232-1.84-28.464-4.076-42.609-6.791-.72-.422-1.391-.793-1.792-.867-2.428-1.146-4.678-2.389-7.045-3.009-1.841-.481-3.756-.485-5.882-.426-.507.015-2.488.203-4.19.369-12.139-2.728-24.184-5.84-36.079-9.386-.469.999-.937 2.007-1.421 3.077-13.333 29.49-20.767 62.215-20.767 96.678 0 42.617 11.348 82.593 31.194 117.056V216.138q2.004.598 4.01 1.188c6.365 1.873 12.746 3.696 19.103 5.596 7.103 2.123 14.192 4.472 21.209 6.875v87.444l-1.083 1.972 1.083-.623v58.54a235.8 235.8 0 0 0 47.397 34.025v-73.687c5.08-5.175 10.078-11.748 13.558-18.543l.556 1.326 2.949-2.741c4.274-3.976 5.974-9.863 6.682-15.482.391-3.103 1.019-6.174 1.461-9.27.195-1.371.347-2.769.66-4.119.435-1.877 1.732-4.24 2.623-5.958 1.579-3.044 3.142-6.044 4.463-9.215 1.103-2.649 2.284-5.769 4.029-8.055.94-1.231 2.065-2.25 3.277-3.179 1.588.673 3.209 1.342 4.856 1.941v165.692a234.4 234.4 0 0 0 47.399 8.885V415.4l6.501-8.028c5.283-6.527 11.052-12.423 17.061-18.268.911-.887 1.835-1.776 2.762-2.672-3.22 9.606-4.833 20.088-3.407 29.151l1.186 7.527 3.987-6.492c3.085-5.026 6.497-9.758 10.16-14.375 2.07-2.609 4.203-5.165 6.326-7.729v2.518c-2.315 8.758-3.929 17.745-4.475 26.149l-.559 8.6 5.034-6.03v10.922l11.495.069a233.5 233.5 0 0 0 35.903-8.56v-49.736c3.669-5.773 6.922-11.738 9.536-17.712q.283.789.606 1.559l1.56 3.711 2.947-2.74c8.56-7.961 11.906-19.994 13.323-31.23.839-6.67 2.189-13.264 3.137-19.918.432-3.039.772-6.11 1.466-9.102 1.011-4.357 3.837-9.541 5.901-13.52 2.074-4.001 4.137-7.969 6.074-12.007v130.951c17.311-9.954 33.223-22.061 47.398-35.936V252.154c3.538.613 7.101.896 10.661.706 9.333-.498 17.472-6.083 24.533-11.777a62 62 0 0 0 9.383-.974v72.124c16.664-32.255 26.077-68.863 26.077-107.665 0-32.876-6.767-64.173-18.966-92.586a231 231 0 0 0-3.139-6.992m-420.134-11.283c67.348 18.792 140.227 25.826 209.654 25.881a866 866 0 0 0 42.703-1.018c54.357-2.637 109.584-10.337 162.313-24.493a239 239 0 0 0-1.501-2.772c-23.857 6.376-48.226 11.426-72.79 15.282v-9.323H5.661V83.141l-17.025-.007v3.058H2.603v11.072h-11.55v3.058h23.328v6.738c-28.289 4.324-56.82 7.075-85.112 8.447a864 864 0 0 1-42.551 1.015c-68.909-.056-141.264-7.003-208.148-25.577q-.763 1.375-1.509 2.762m3.431 16.903a614 614 0 0 0 18.434 4.758c-1.378.254-3.772.775-5.129 1.042a502 502 0 0 0-12.602 2.663l-.703.157z" style="fill:#fff;fill-opacity:1;fill-rule:evenodd;stroke:none" transform="translate(655.701 337.222)"/><path d="M0 0c-1.567 12.432-5.214 22.795-12.447 29.522-1.197-2.846-2.019-6.118-2.58-9.921-5.506 16.789-18.895 38.021-36.538 55.237 5.447-9.945 7.829-18.547 9.011-25.613.331-1.98.568-3.84.778-5.647-8.692 16.146-19.477 32.536-32.474 48.104.912-14.033 5.236-31.577 11.366-46.342-8.479 13.259-18.639 21.939-28.578 38.124-1.902-12.082 2.006-29.009 9.902-42.507-7.454 9.207-19.44 18.338-31.281 32.963 4.042-19.249 12.47-38.638 25.581-54.958-14.374 8.549-29.979 18.925-42.062 29.963 6.528-16.18 16.125-30.676 28.795-42.025-10.087 3.116-21.803 8.524-32.669 14.763 7.552-13.744 18.405-25.097 30.879-34.644-9.228 1.635-19.219 6.323-29.235 11.11q7.6-19.89 23.389-29.235c-6.724.39-11.401.847-21.05 4.457 3.164-8.46 9.216-14.085 15.531-18.104 6.735-4.285 14.71-7.17 22.889-9.178q.936-.372 1.979-.767c-8.164-.329-18.33.08-28.043 4.682 1.804-5.977 6.718-11.586 14.233-15.591-7.671.895-15.867 1.978-22.166 3.037 9.621-9.991 20.302-16.435 31.158-19.685a223 223 0 0 0-25.6-1.106c7.333-7.858 19.707-12.228 34.402-14.457-10.1-1.333-19.547-1.226-28.481.584 3.414-8.258 12.49-12.183 23.217-13.318-6.207-1.146-12.776-1.595-19.232-.957 3.411-5.885 10-9.778 18.611-11.282-4.678-1.329-10.252-1.944-16.161-.686 1.531-2.607 3.563-4.58 5.91-6.054-1.348-.526-3.42-2.011-2.572-3.609 1.534-2.891 7.541-4.812 12.588-6.227-17.064-8.534-74.202-27.697-99.275-35.193-36.286-10.847-83.256-23.42-109.849-35.306 7.762-1.731 19.546-4.231 26.845-4.956 6.488-.643 8.577-.006 14.095 2.6 24.554 11.604 44.472 20.635 67.23 26.363 16.65 4.191 33.408 6.295 51.252 7.628 19.333 1.445 41.67 2.474 60.402 1.704 1.303-.053 10.45-.61 13.213-2.471.753-.507 1.327-2.89.188-4.119-.852-.918-3.676.183-3.865-1.043-.663-1.151 2.54-2.273 6.987-2.715 2.613-.26 5.967-.231 8.652-.243 3.078-.014 3.677.94 3.731 2.895.036 1.242-.713 2.259-.634 3.477.154 2.371.53 2.432 2.904 2.514 27.261.943 57.417 8.618 77.117 17.775 6.032 2.804 11.852 6.272 16.78 8.969s9.315 4.231 13.198 7.29c2.911 2.295 4.712 5.539 7.593 7.625 5.886 4.261 6.609 6.867 9.582 10.563 1.932 2.403 6.848 4.065 9.689 5.857 8.211 5.177 6.42 12.893 12.896 14.221 11.712 2.403 20.615-1.665 33.996-2.043-3.542 8.621-14.626 14.36-30.841 14.587-6.024 4.911-14.362 11.263-23.658 11.759-10.536.562-20.361-2.805-36.698-9.796-4.121 2.892-7.904 5.96-11.023 10.046-3.982 5.215-6.646 11.965-9.409 18.602C14.062-48.164 6.463-37.095 4.654-29.302c-.7 3.021-.986 5.657-1.51 9.338C2.189-13.27.845-6.708 0 0" style="fill:#0d0909;fill-opacity:1;fill-rule:evenodd;stroke:none" transform="translate(637.582 668.904)"/><path d="M0 0c24.871.861 53.514 7.028 76.082 17.335 2.177.994 3.666 1.809 5.78 2.919.751 9.524-.505 33.19-1.033 39.115 7.719 12.321 9.661 19.429 6.52 22.252-2.156 1.94-6.225 2.133-10.053.373-3.377-1.553-6.66-4.915-10.606-7.082-2.008-1.102-4.109-1.651-6.232-2.423-3.101-1.127-6.249-2.444-9.217-4.274-4.531-2.796-8.737-5.907-12.645-9.503-16.003 4.684-29.257 3.281-39.82.85-23.238-5.35-33.469-22.098-31.375-34.927 1.121-6.864 4.988-13.129 10.506-17.519C-15.839 2.139-7.527-.259 0 0" style="fill:#fff;fill-opacity:1;fill-rule:evenodd;stroke:none" transform="translate(588.437 492.971)"/><path d="M0 0c-1.156 11.169-4.06 22.636-10.577 30.231-2.144-5.04-2.084-9.395-1.595-14.454.125-.101 1.221-.657 1.758-1.217 3.646-3.818.566-17.389 4.369-22.777C-3.652-7.3-1.527-2.927 0 0" style="fill:#fff;fill-opacity:1;fill-rule:evenodd;stroke:none" transform="translate(636.37 665.353)"/><path d="M0 0a79.7 79.7 0 0 0 5.011-17.423c.535-3.207.854-6.412 1.227-9.608 4.937-9.496 9.15-18.878 12.662-27.929 2.508 1.897 8.069 2.223 12.031 1.111.14 1.523-.664 3.882-1.137 5.386C24.487-31.588 12.404-13.68 0 0" style="fill:#fff;fill-opacity:1;fill-rule:evenodd;stroke:none" transform="translate(591.53 735.804)"/><path d="M0 0c-10.456 27.298-25.885 53.323-43.693 76.354 1.047-9.504 3.258-17.89 6.082-27.159 3.424-11.248 8.741-21.794 13.167-31.948-5.747 7.271-10.131 15.355-15.496 22.781-1.848 2.558-3.799 5.034-5.81 7.489-3.075 3.751-6.231 7.427-9.236 11.236-2.54 3.221-5.603 6.947-7.571 10.935-.804-9.858 3.474-23.05 8.255-32.686 2.052-4.135 5.822-8.934 9.186-14.026 1.701-2.575 3.25-4.982 5.062-7.658 4.396-6.498 8.623-13.644 13.519-20.1.368-.485-1.436.291-1.848.74-7.339 7.973-13.501 17.262-20.799 26.487-4.475 5.659-8.754 11.223-13.89 16.309-6.329 6.268-11.908 11.604-18.323 19.201 3.696-14.627 9.954-27.486 18.056-40.044 6.447-9.994 18.63-19.373 24.774-24.522.31-.26-.362-.242-.863.042-6.409 3.625-16.52 9.73-23.463 14.258-11.71 7.638-22.01 15.146-33.937 25.316 5.966-11.539 12.984-21.548 22.015-30.911 8.219-8.521 23.945-18.703 29.859-23.553.195-.161-1.036-.313-1.251-.177-6.525 4.133-14.24 9.416-20.869 13.373-5.202 3.107-9.184 4.324-15.022 6.529-6.34 2.395-11.174 4.929-17.14 8.078 11.877-16.989 23.341-27.198 41.261-34.49.799-.324.573-.433-.288-.322-12.997 1.683-27.476 5.597-42.176 13.134 5.588-12.573 17.057-21.878 26.41-26.726.654-.339.844-.393-.369-.502-7.116-.634-15.197-.17-23.697 2.974 3.915-8.159 13.013-13.674 21.853-17.556 6.795-2.985 13.872-4.572 21.021-5.737 2.667.647 5.46 1.471 8.172 2.14 4.188 1.034 8.185 1.401 11.23 2.142.266 4.328-19.313 4.743-30.744 4.971 3.171 8.099 17.725 9.201 20.98 14.717-.829 8.521 3.281 12.456 8.094 16.779 1.883 1.69 3.367 2.796 5.213 5.231 1.513 1.997 2.456 6.189 5.676 9.531 1.788-.048 4.266-.463 6.409.883 2.755 1.731 3.625 5.131 8.171 5.923 1.831.318 4.812-1.63 11.65-2.061C-.132-1.384-.081-.585 0 0" style="fill:#fff;fill-opacity:1;fill-rule:evenodd;stroke:none" transform="translate(609.26 678.974)"/><path d="M0 0c-9.843-.621-21.25.478-29.51 3.871 2.4-5.088 7.881-8.779 12.891-11.261C-11.448-9.952-5.65-11.337.032-12.071c6.182-.797 12.621-.534 19.006-.269 6.749.28 13.49.32 20.24.624-.44 3.667-1.928 6.641-5.254 8.018C28.48-1.4 19.179-2.16 11.088-1.509 7.128-1.192 3.339-1.047 0 0" style="fill:#fff;fill-opacity:1;fill-rule:evenodd;stroke:none" transform="translate(553.106 611.934)"/><path d="M0 0c16.887-13.36 34.75-20.645 55.159-16.287a57.8 57.8 0 0 1 15.756 5.891 19.5 19.5 0 0 0-3.91 4.96c-10.909-.663-21.849-1.429-31.667-.162-4.602.594-8.274 1.379-11.998 2.767-3.636.402-7.776.842-11.372 1.29C8.15-1.066 3.813-.565 0 0" style="fill:#fff;fill-opacity:1;fill-rule:evenodd;stroke:none" transform="translate(517.57 603.433)"/><path d="M0 0c10.396-7.258 26.57-11.255 40.109-10.22C56.573-8.962 67.833-3.646 72.128 5.681c-1.993.827-3.693 1.815-5.143 2.91-12.471-7.039-26.087-9.436-40.39-6.406C19.6 1.098 8.636.056 0 0" style="fill:#fff;fill-opacity:1;fill-rule:evenodd;stroke:none" transform="translate(522.974 583.222)"/><path d="M0 0c-9.428-1.493-19.532-2.424-28.98-1.014C-22.272-9.7-6.422-10.75 5.95-9.415 3.7-6.754 2.118-3.707 0 0" style="fill:#fff;fill-opacity:1;fill-rule:evenodd;stroke:none" transform="translate(556.872 569.765)"/><path d="M0 0c3.463-3.82 7.702-5.519 12.725-6.633 5.892-1.305 12.236-1.256 18.371-.404 2.198 2.717 4.29 5.478 6.211 8.404l-.012.113c-1.877.787-3.923 1.601-5.377 2.451-4.014-.528-5.605-.812-9.583-.785C15.025 1.219 7.175-.246 0 0" style="fill:#fff;fill-opacity:1;fill-rule:evenodd;stroke:none" transform="translate(532.717 554.85)"/><path d="M0 0c6.135-4.644 12.919-5.796 20.088-5.596a163 163 0 0 1 4.66 5.245 378 378 0 0 1 2.793 3.307c-3.964-.44-7.214-.503-10.708-.212C11.715.75 5.469-.647 0 0" style="fill:#fff;fill-opacity:1;fill-rule:evenodd;stroke:none" transform="translate(534.626 542.85)"/><path d="M0 0c-4.608.02-9.36.64-13.487 2.415a67 67 0 0 1-1.905-.078c-.506-.026-1.33-.564-1.003-1.181 1.307-2.46 6.756-4.342 11.677-5.669A83 83 0 0 1 0 0" style="fill:#fff;fill-opacity:1;fill-rule:evenodd;stroke:none" transform="translate(552.994 535.447)"/><path d="M0 0a3.612 3.612 0 1 0 0-7.225A3.612 3.612 0 0 0 0 0" style="fill:#fff;fill-opacity:1;fill-rule:evenodd;stroke:none" transform="translate(719.108 579.92)"/><path d="M0 0c-.731 5.801-2.432 10.636-5.808 13.775-.557-1.328-.941-2.855-1.203-4.629-2.569 7.834-8.817 17.74-17.049 25.773 2.542-4.64 3.654-8.654 4.204-11.952.156-.922.266-1.792.363-2.634-4.054 7.533-9.087 15.181-15.151 22.445.426-6.548 2.444-14.734 5.303-21.622-3.956 6.186-8.696 10.236-13.333 17.787-.888-5.636.935-13.535 4.62-19.833-3.478 4.297-9.072 8.556-14.596 15.381 1.886-8.982 5.818-18.028 11.935-25.644-6.706 3.989-13.987 8.83-19.626 13.981 3.046-7.55 7.524-14.313 13.436-19.608-4.705 1.453-10.173 3.977-15.242 6.889 3.522-6.414 8.587-11.71 14.408-16.165-4.306.763-8.968 2.949-13.642 5.183q3.546-9.279 10.913-13.641c-3.137.183-5.319.395-9.821 2.08 1.475-3.947 4.3-6.572 7.247-8.446 3.142-2.001 6.863-3.347 10.679-4.284q.438-.174.923-.358c-3.808-.153-8.553.037-13.084 2.186.842-2.789 3.135-5.406 6.641-7.275-3.58.417-7.403.922-10.343 1.416 4.49-4.661 9.473-7.668 14.539-9.184a104 104 0 0 0-11.946-.516c3.423-3.667 9.196-5.706 16.053-6.747-4.713-.621-9.121-.571-13.29.273 1.593-3.852 5.828-5.684 10.834-6.213-2.897-.534-5.961-.744-8.974-.447 1.591-2.746 4.666-4.562 8.684-5.263-2.183-.621-4.784-.908-7.541-.321a8.2 8.2 0 0 1 2.757-2.825c-.628-.245-1.595-.939-1.2-1.683.716-1.35 3.519-2.246 5.874-2.907-7.962-3.982-34.622-12.923-46.321-16.419-16.93-5.063-38.847-10.929-51.254-16.474 3.621-.809 9.119-1.974 12.525-2.313 3.028-.3 4.003-.003 6.577 1.214 11.457 5.414 20.751 9.627 31.368 12.301 7.769 1.954 15.588 2.936 23.914 3.558 9.021.674 19.443 1.154 28.184.795.607-.025 4.875-.284 6.165-1.153.351-.236.619-1.348.086-1.921-.396-.429-1.715.085-1.802-.487-.309-.537 1.185-1.06 3.259-1.267 1.22-.121 2.785-.108 4.038-.113 1.436-.006 1.715.438 1.741 1.351.017.579-.333 1.054-.296 1.622.072 1.105.247 1.135 1.355 1.173 12.719.44 26.79 4.021 35.981 8.294 2.816 1.307 5.531 2.926 7.83 4.184s4.347 1.974 6.159 3.402c1.358 1.07 2.197 2.584 3.543 3.558 2.746 1.988 3.082 3.203 4.47 4.928.901 1.121 3.195 1.897 4.521 2.732 3.831 2.417 2.996 6.016 6.017 6.636 5.464 1.121 9.619-.777 15.861-.953-1.652 4.022-6.824 6.7-14.389 6.805-2.81 2.293-6.701 5.257-11.038 5.488-4.917.262-9.5-1.309-17.124-4.57-1.922 1.348-3.688 2.78-5.142 4.687-1.858 2.433-3.102 5.582-4.391 8.679-2.84 6.818-6.386 11.983-7.229 15.619-.327 1.41-.461 2.64-.705 4.357C1.022-6.191.394-3.13 0 0" style="fill:#0d0909;fill-opacity:1;fill-rule:evenodd;stroke:none" transform="translate(448.868 638.898)"/><path d="M0 0c11.605.401 24.969 3.279 35.5 8.089 1.014.463 1.71.843 2.696 1.362.351 4.442-.236 15.484-.481 18.25 3.601 5.749 4.506 9.064 3.042 10.382-1.006.905-2.905.995-4.691.174-1.575-.725-3.108-2.293-4.95-3.304-.936-.514-1.917-.771-2.906-1.13-1.447-.526-2.917-1.141-4.301-1.996-2.115-1.303-4.077-2.755-5.901-4.433-7.466 2.185-13.651 1.531-18.578.396-10.844-2.495-15.617-10.31-14.641-16.296.524-3.203 2.328-6.125 4.902-8.174C-7.391.998-3.512-.121 0 0" style="fill:#fff;fill-opacity:1;fill-rule:evenodd;stroke:none" transform="translate(425.938 556.81)"/><path d="M0 0c-.54 5.212-1.895 10.562-4.935 14.105-1.002-2.35-.973-4.383-.745-6.744.058-.047.571-.306.82-.568 1.702-1.78.264-8.113 2.039-10.627C-1.705-3.407-.714-1.366 0 0" style="fill:#fff;fill-opacity:1;fill-rule:evenodd;stroke:none" transform="translate(448.304 637.241)"/><path d="M0 0a37 37 0 0 0 2.337-8.129c.251-1.497.399-2.992.573-4.484a131 131 0 0 0 5.908-13.031c1.171.885 3.765 1.037 5.615.519.064.71-.31 1.811-.531 2.512C11.425-14.739 5.787-6.382 0 0" style="fill:#fff;fill-opacity:1;fill-rule:evenodd;stroke:none" transform="translate(427.381 670.113)"/><path d="M0 0c-4.878 12.737-12.078 24.88-20.388 35.625.489-4.433 1.521-8.346 2.839-12.672 1.598-5.247 4.078-10.167 6.143-14.906-2.682 3.393-4.727 7.165-7.23 10.629a74 74 0 0 1-2.711 3.496c-1.435 1.75-2.908 3.465-4.309 5.241-1.186 1.504-2.614 3.241-3.533 5.102-.375-4.599 1.621-10.754 3.852-15.25.957-1.93 2.716-4.168 4.286-6.545.793-1.202 1.516-2.324 2.361-3.572 2.052-3.033 4.024-6.366 6.308-9.379.172-.226-.669.136-.862.344-3.424 3.722-6.299 8.056-9.705 12.36-2.087 2.64-4.084 5.236-6.481 7.61-2.953 2.923-5.556 5.414-8.549 8.959 1.725-6.826 4.645-12.825 8.425-18.685 3.009-4.663 8.692-9.039 11.559-11.441.145-.121-.169-.113-.402.019-2.991 1.692-7.708 4.54-10.947 6.653-5.464 3.563-10.27 7.066-15.836 11.813 2.785-5.385 6.059-10.056 10.272-14.423 3.836-3.976 11.173-8.727 13.933-10.99.091-.076-.484-.146-.584-.083-3.045 1.929-6.645 4.393-9.738 6.24-2.427 1.45-4.285 2.018-7.009 3.046-2.957 1.116-5.213 2.299-7.997 3.769 5.541-7.927 10.891-12.69 19.251-16.093.373-.15.268-.202-.133-.15a60 60 0 0 0-19.679 6.129c2.607-5.867 7.958-10.209 12.323-12.471.305-.158.394-.184-.173-.234-3.32-.295-7.09-.079-11.056 1.388 1.826-3.807 6.071-6.38 10.195-8.192 3.171-1.392 6.474-2.133 9.809-2.676 1.244.302 2.547.686 3.813.998 1.954.482 3.819.654 5.24.999.124 2.02-9.011 2.213-14.345 2.32 1.479 3.779 8.27 4.293 9.789 6.867-.387 3.975 1.531 5.811 3.777 7.828.879.789 1.571 1.305 2.432 2.442.706.931 1.146 2.887 2.649 4.446.833-.022 1.99-.216 2.989.413 1.286.807 1.691 2.394 3.813 2.763.854.148 2.246-.761 5.436-.962C-.062-.646-.038-.273 0 0" style="fill:#fff;fill-opacity:1;fill-rule:evenodd;stroke:none" transform="translate(435.654 643.596)"/><path d="M0 0c-4.592-.29-9.914.222-13.768 1.806 1.12-2.374 3.677-4.096 6.014-5.255C-5.341-4.644-2.636-5.29.016-5.633c2.884-.371 5.888-.249 8.868-.125 3.148.131 6.293.15 9.443.291-.205 1.711-.899 3.099-2.451 3.741-2.587 1.072-6.927.718-10.703 1.021C3.326-.557 1.558-.489 0 0" style="fill:#fff;fill-opacity:1;fill-rule:evenodd;stroke:none" transform="translate(409.452 612.317)"/><path d="M0 0c7.879-6.233 16.214-9.632 25.737-7.6a27 27 0 0 1 7.351 2.75 9.1 9.1 0 0 0-1.825 2.314c-5.089-.31-10.194-.667-14.775-.077-2.147.278-3.86.645-5.598 1.292-1.696.188-3.629.394-5.305.602C3.803-.498 1.779-.263 0 0" style="fill:#fff;fill-opacity:1;fill-rule:evenodd;stroke:none" transform="translate(392.872 608.35)"/><path d="M0 0c4.851-3.387 12.398-5.253 18.713-4.77 7.683.588 12.938 3.069 14.941 7.421-.93.385-1.723.846-2.399 1.357C25.435.724 19.083-.395 12.409 1.02 9.144.511 4.029.025 0 0" style="fill:#fff;fill-opacity:1;fill-rule:evenodd;stroke:none" transform="translate(395.393 598.92)"/><path d="M0 0c-4.399-.696-9.113-1.131-13.523-.473 3.13-4.053 10.526-4.542 16.299-3.92C1.726-3.151.988-1.73 0 0" style="fill:#fff;fill-opacity:1;fill-rule:evenodd;stroke:none" transform="translate(411.21 592.64)"/><path d="M0 0c1.616-1.783 3.593-2.576 5.937-3.095 2.749-.609 5.709-.586 8.572-.188 1.025 1.267 2.002 2.555 2.898 3.92l-.006.053c-.875.367-1.83.747-2.509 1.144-1.873-.246-2.615-.379-4.471-.366C7.011.568 3.347-.115 0 0" style="fill:#fff;fill-opacity:1;fill-rule:evenodd;stroke:none" transform="translate(399.94 585.682)"/><path d="M0 0c2.863-2.167 6.028-2.704 9.373-2.61a75 75 0 0 1 2.174 2.447q.662.773 1.303 1.543c-1.85-.206-3.365-.235-4.996-.1C5.466.351 2.552-.301 0 0" style="fill:#fff;fill-opacity:1;fill-rule:evenodd;stroke:none" transform="translate(400.83 580.082)"/><path d="M0 0c-2.15.009-4.367.298-6.292 1.126q-.447-.011-.89-.036c-.236-.012-.62-.263-.467-.55.609-1.149 3.151-2.027 5.447-2.646A38 38 0 0 1 0 0" style="fill:#fff;fill-opacity:1;fill-rule:evenodd;stroke:none" transform="translate(409.4 576.629)"/><path d="M0 0a1.684 1.684 0 1 0 .001-3.369A1.684 1.684 0 0 0 0 0" style="fill:#fff;fill-opacity:1;fill-rule:evenodd;stroke:none" transform="translate(486.907 597.38)"/><path d="m0 0-34.425-2.657 32.176-13.131-2.838-6.954-41.193 16.81 4.425 10.844 30.945 1.877-20.796 22.992 4.401 10.785 41.193-16.811-2.837-6.954-32.177 13.131L1.587 3.888Z" style="fill:#fff;fill-opacity:1;fill-rule:evenodd;stroke:none" transform="translate(289.972 638.925)"/><path d="m0 0-18.519 2.919L-8.285-12.76Zm-25.087 11.737 47.99-7.79-4.506-6.94L7.448-1.271-4.166-19.153l6.132-9.142-4.369-6.725-26.636 40.671z" style="fill:#fff;fill-opacity:1;fill-rule:evenodd;stroke:none" transform="translate(307.965 701.736)"/><path d="m0 0 4.798 5.78L39.03-22.64l-4.799-5.78Z" style="fill:#fff;fill-opacity:1;fill-rule:evenodd;stroke:none" transform="translate(300.327 736.242)"/><path d="M0 0q-10.437 11.155-23.218-.806l-5.483-5.131L-7.87-28.199l6.088 5.697q5.903 5.524 6.408 11.271T0 0m-27.773 4.435q8.739 8.175 17.411 8.316 8.673.14 15.763-7.436 7.087-7.575 6.665-16.252T2.256-28.4L-8.527-38.489-38.926-6.003Z" style="fill:#fff;fill-opacity:1;fill-rule:evenodd;stroke:none" transform="translate(353.922 759.959)"/><path d="m0 0 3.982-5.837-19.612-13.379 6.635-9.727L8.62-16.927l3.765-5.521-17.614-12.016 6.708-9.833 20.243 13.809 3.981-5.836L-.745-54.366l-25.072 36.754z" style="fill:#fff;fill-opacity:1;fill-rule:evenodd;stroke:none" transform="translate(381.344 807.686)"/><path d="m0 0-13.726 30.257 6.84 3.103 18.38-40.518-7.419-3.366-36.364 19.151 13.409-29.563-6.839-3.102-18.38 40.518 6.84 3.101z" style="fill:#fff;fill-opacity:1;fill-rule:evenodd;stroke:none" transform="translate(438.572 798.882)"/><path d="m0 0-10.009 43.351 7.319 1.689 4.338-18.792 21.519 4.968-4.337 18.793 7.318 1.689 10.007-43.35-7.317-1.69-4.095 17.736-21.52-4.968L7.317 1.689Z" style="fill:#fff;fill-opacity:1;fill-rule:evenodd;stroke:none" transform="translate(459.535 794.638)"/><path d="m0 0 .493-7.049-23.684-1.656.823-11.747 21.269 1.488.467-6.666-21.271-1.488.831-11.873 24.445 1.709.493-7.048-31.937-2.234-3.105 44.383z" style="fill:#fff;fill-opacity:1;fill-rule:evenodd;stroke:none" transform="translate(533.532 851.446)"/><path d="m0 0-6.24 17.68-8.924-16.46Zm-1.606 27.652 15.972-45.921-8.248.664-3.692 10.45-21.254 1.71-5.126-9.741-7.994.643 23.109 42.776z" style="fill:#fff;fill-opacity:1;fill-rule:evenodd;stroke:none" transform="translate(570.634 822.404)"/><path d="M0 0q3.954 14.755-12.955 19.285l-7.254 1.945L-28.1-8.22l8.054-2.158q7.809-2.091 12.955.515Q-1.944-7.254 0 0m-10.911 25.922Q.646 22.823 5.349 15.535 10.05 8.246 7.365-1.776 4.68-11.796-2.91-16.023t-20.009-.899L-37.182-13.1l11.515 42.975z" style="fill:#fff;fill-opacity:1;fill-rule:evenodd;stroke:none" transform="translate(626.499 815.938)"/><path d="m0 0-12.134-22.164q-4.616-8.43-11.741-10.443-7.125-2.015-14.187 1.853-7.064 3.867-9.344 11.031-2.283 7.162 2.148 15.257l12.319 22.5 6.643-3.637-11.829-21.605q-2.995-5.472-2.1-10.135.893-4.662 5.472-7.169 4.578-2.506 8.898-.843 4.321 1.661 7.286 7.077L-6.587 3.607Z" style="fill:#fff;fill-opacity:1;fill-rule:evenodd;stroke:none" transform="translate(702.055 806.294)"/><path d="m0 0 20.456 26.182 5.918-4.624-27.391-35.06-6.42 5.017.123 41.097L-27.3 7.032l-5.918 4.624 27.391 35.06 5.918-4.624z" style="fill:#fff;fill-opacity:1;fill-rule:evenodd;stroke:none" transform="translate(722.367 750.623)"/><path d="m0 0 5.218-5.402-32.005-30.906-5.217 5.402z" style="fill:#fff;fill-opacity:1;fill-rule:evenodd;stroke:none" transform="translate(759.314 760.657)"/><path d="m0 0-29.399-23.468-4.686 5.869L-4.686 5.869l-8.418 10.547 5.372 4.288L13.791-6.258l-5.373-4.288z" style="fill:#fff;fill-opacity:1;fill-rule:evenodd;stroke:none" transform="translate(779.597 727.867)"/><path d="m0 0-6.076-3.607-12.12 20.414-10.126-6.012 10.887-18.334-5.747-3.412-10.886 18.333-10.235-6.076 12.511-21.07-6.074-3.608-16.346 27.529 38.256 22.714z" style="fill:#fff;fill-opacity:1;fill-rule:evenodd;stroke:none" transform="translate(815.78 684.75)"/><path d="M0 0q14.24 5.525 7.912 21.843l-2.716 7.003-28.425-11.026 3.015-7.773q2.924-7.536 8.067-10.151Q-7.003-2.715 0 0m14.472 24.115q4.327-11.156 1.223-19.256-3.106-8.1-12.779-11.851-9.672-3.753-17.566-.124-7.892 3.63-12.542 15.617l-5.339 13.767L8.948 38.357z" style="fill:#fff;fill-opacity:1;fill-rule:evenodd;stroke:none" transform="translate(813.374 632.873)"/><path d="m0 0-5.213-4.673-14.893 16.309-9.025-8.241 13.034-13.953-5.123-4.678-13.034 13.953-13.537-12.359-5.064 5.545 32.854 30.001z" style="fill:#fff;fill-opacity:1;fill-rule:evenodd;stroke:none" transform="translate(356.455 347.423)"/><path d="M0 0q-9.39-.875-17.107 5.375-7.715 6.247-8.814 15.614-1.097 9.365 5.091 17.007 6.19 7.643 15.579 8.516t17.106-5.375q7.715-6.248 8.813-15.614T15.577 8.515 0 0m13.245 25.104q-.572 6.526-5.717 10.692-5.144 4.165-11.646 3.369-6.5-.797-10.727-6.015-4.224-5.22-3.652-11.744.573-6.525 5.716-10.69Q-7.637 6.55-1.135 7.347q6.5.797 10.726 6.015 4.226 5.219 3.654 11.742" style="fill:#fff;fill-opacity:1;fill-rule:evenodd;stroke:none" transform="translate(363.515 292.026)"/><path d="M0 0q-9.136-2.332-17.737 2.634-8.597 4.964-11.147 14.043t2.368 17.594q4.916 8.517 14.053 10.848 9.138 2.333 17.736-2.632 8.6-4.965 11.149-14.044t-2.368-17.595Q9.136 2.332 0 0m9.155 26.869q-1.585 6.355-7.319 9.665-5.732 3.31-12.029 1.507t-9.654-7.621q-3.357-5.814-1.772-12.17 1.587-6.354 7.32-9.664t12.03-1.506q6.294 1.804 9.653 7.619 3.357 5.815 1.771 12.17" style="fill:#fff;fill-opacity:1;fill-rule:evenodd;stroke:none" transform="translate(409.078 264.543)"/><path d="m0 0-13.051-35.28-7.044 2.606 13.05 35.281-12.655 4.68 2.384 6.448L15.04 1.766l-2.385-6.447Z" style="fill:#fff;fill-opacity:1;fill-rule:evenodd;stroke:none" transform="translate(450.637 282.696)"/><path d="m0 0 11.504-2.509q4.042-.881 6.466-.074 2.424.806 3.197 4.352 1.261 5.783-8.006 7.804L2.589 11.878Zm4.067 18.657 9.329-2.035q7.96-1.736 9.14 3.676.678 3.109-.952 4.898-1.629 1.787-5.671 2.669l-9.391 2.047zm6.147-27.985-19.031 4.15L.662 38.291l16.916-3.688q4.413-.963 7.387-2.719 2.972-1.754 4.195-3.91 2.19-3.997 1.27-8.226-1.114-5.098-4.951-6.867-1.308-.626-1.792-.75a44 44 0 0 0-1.71-.376q3.851-1.752 5.643-5.042 1.789-3.29.896-7.393-.99-4.54-4.859-7.344-4.489-3.257-13.443-1.304" style="fill:#fff;fill-opacity:1;fill-rule:evenodd;stroke:none" transform="translate(467.644 245.516)"/><path d="m0 0-6.67 17.522L-15.188.849Zm-2.282 27.603 17.091-45.515-8.261.462L2.6-7.093l-21.29 1.19-4.886-9.863-8.007.447L-9.527 28.01z" style="fill:#fff;fill-opacity:1;fill-rule:evenodd;stroke:none" transform="translate(528.958 246.807)"/><path d="m0 0-3.258 44.372 7.489.55L6.968 7.66l20.249 1.488.522-7.111Z" style="fill:#fff;fill-opacity:1;fill-rule:evenodd;stroke:none" transform="translate(551.423 229.746)"/><path d="m0 0-8.489 43.673 7.373 1.434L6.013 8.431l19.931 3.874 1.359-6.998z" style="fill:#fff;fill-opacity:1;fill-rule:evenodd;stroke:none" transform="translate(587.87 232.963)"/><path d="M0 0q3.6 1.455 5.708 3.713t3.868 6.06l6.346-2.792Q12.303-2.923 2.948-6.703q-9.353-3.778-17.952-.252-8.6 3.528-12.319 12.735t.086 17.883q3.804 8.676 13.396 12.551 9.59 3.875 18.884-.608l-2.472-6.627q-4.095 1.641-7.174 1.7-3.08.061-6.619-1.37-6.256-2.527-8.873-8.287t-.077-12.044q2.54-6.285 8.464-8.8T0 0" style="fill:#fff;fill-opacity:1;fill-rule:evenodd;stroke:none" transform="translate(657.542 260.022)"/><path d="m0 0-22.246 38.53 6.504 3.756L2.94 9.928 20.524 20.08l3.564-6.173Z" style="fill:#fff;fill-opacity:1;fill-rule:evenodd;stroke:none" transform="translate(685.445 264.822)"/><path d="m0 0 15.382-20.048q5.852-7.627 4.818-14.956-1.034-7.333-7.421-12.234t-13.863-4.098q-7.476.802-13.094 8.124l-15.616 20.35 6.01 4.612L-8.79-37.794q3.798-4.949 8.425-6.012 4.626-1.062 8.766 2.116 4.143 3.175 4.365 7.801.223 4.622-3.536 9.521L-5.959-4.573Z" style="fill:#fff;fill-opacity:1;fill-rule:evenodd;stroke:none" transform="translate(717.676 341.158)"/><path d="m0 0 8.075 8.57q2.84 3.011 3.394 5.503.558 2.494-2.084 4.982-4.307 4.06-10.812-2.842l-7.421-7.876Zm-13.897 13.095 6.548 6.949q5.588 5.929 1.557 9.728-2.316 2.181-4.688 1.706-2.373-.474-5.21-3.486l-6.591-6.996zm27.153-9.144L-.101-10.223l-32.381 30.512 11.875 12.6q3.098 3.289 6.134 4.933 3.037 1.642 5.514 1.582 4.554-.18 7.703-3.149 3.799-3.58 3.338-7.781-.137-1.444-.282-1.921a43 43 0 0 0-.558-1.661q3.487 2.4 7.228 2.241 3.742-.16 6.799-3.04 3.383-3.188 3.794-7.947.478-5.526-5.807-12.195" style="fill:#fff;fill-opacity:1;fill-rule:evenodd;stroke:none" transform="translate(754.677 325.055)"/><path d="M0 0h13.298v-36.596H7.434v31.098H0Z" style="fill:#fff;fill-opacity:1;fill-rule:evenodd;stroke:none" transform="translate(226.747 543.952)"/><path d="M0 0q1.963-1.596 4.633-1.596T9.266 0q1.964 1.596 1.964 3.926T9.266 7.827q-1.962 1.57-4.633 1.57-2.67 0-4.633-1.57t-1.963-3.901T0 0m-.497-16.649q2.408-1.542 5.13-1.543c2.722-.001 3.525.515 5.131 1.543q2.409 1.545 2.408 4.424T9.868-7.774q-2.302 1.57-5.235 1.571-2.932 0-5.235-1.571-2.304-1.572-2.304-4.451t2.409-4.424M-4.162 11.44q3.507 2.774 8.795 2.774 5.287 0 8.796-2.774 3.508-2.776 3.508-6.99T13.01-3.01q5.288-3.35 5.288-9.424 0-4.711-3.77-7.906-3.77-3.192-9.895-3.193c-6.125-.001-7.382 1.065-9.895 3.193q-3.77 3.195-3.769 7.906 0 6.073 5.288 9.424Q-7.67.236-7.67 4.45t3.508 6.99" style="fill:#fff;fill-opacity:1;fill-rule:evenodd;stroke:none" transform="translate(257.767 530.47)"/><path d="M0 0v10.522h25.759V5.025L10.262-26.072H3.456L18.586 4.92H5.602V0Z" style="fill:#fff;fill-opacity:1;fill-rule:evenodd;stroke:none" transform="translate(797.97 533.632)"/><path d="M0 0q-3.718 5.158-3.718 13.796T0 27.59q3.717 5.158 11.203 5.157 7.488 0 11.204-5.157 3.718-5.157 3.717-13.794T22.407 0q-3.716-5.156-11.204-5.156Q3.717-5.156 0 0m4.423 23.691q-2.173-3.77-2.172-9.895 0-6.126 2.172-9.895 2.173-3.77 6.78-3.77t6.728 3.744q2.12 3.742 2.121 9.921 0 6.176-2.121 9.921-2.12 3.742-6.728 3.742t-6.78-3.768" style="fill:#fff;fill-opacity:1;fill-rule:evenodd;stroke:none" transform="translate(832.964 512.297)"/></g></svg>