<svg xmlns="http://www.w3.org/2000/svg" xml:space="preserve" id="Layer_1" x="0" y="0" version="1.1" viewBox="0 0 300 300"><style>.st0{fill:#00285e}.st1{fill:#fff}.st2{fill:#6caddf}.st6{fill:#ffc758}.st8{fill:#d4a11e}</style><path d="M150.027-.02C67.357-.02.063 67.275.063 149.945s67.294 149.963 149.964 149.963S299.99 232.614 299.99 149.944C299.895 67.274 232.696-.02 150.027-.02" class="st0"/><path d="M284.33 150.039c0-74.223-60.176-134.398-134.398-134.398-74.223 0-134.398 60.175-134.398 134.303 0 74.222 60.175 134.492 134.398 134.492 74.222-.095 134.397-60.27 134.397-134.397" class="st1"/><path d="M235.544 150.039c0-47.267-38.345-85.517-85.517-85.517-47.267 0-85.517 38.345-85.517 85.517 0 47.267 38.345 85.517 85.517 85.517s85.517-38.345 85.517-85.517" class="st2"/><path d="M150.027 242.295c-50.874 0-92.256-41.477-92.256-92.351s41.382-92.256 92.256-92.256c50.873 0 92.35 41.382 92.35 92.256-.094 50.968-41.477 92.35-92.35 92.35m0-179.482c-48.026 0-87.13 39.105-87.13 87.13 0 48.027 39.104 87.132 87.13 87.132s87.13-39.105 87.13-87.131-39.104-87.13-87.13-87.13" class="st0"/><path d="M150.027 293.833c-79.348 0-143.89-64.541-143.89-143.89 0-79.347 64.542-143.888 143.89-143.888s143.889 64.541 143.889 143.889c-.095 79.348-64.636 143.889-143.89 143.889m0-284.646C72.389 9.187 9.366 72.305 9.366 149.944c0 77.544 63.117 140.662 140.662 140.662 77.544 0 140.662-63.118 140.662-140.662S227.57 9.187 150.027 9.187" class="st2"/><path d="m29.961 146.717-2.373.57-.664-2.468 3.986-1.14h2.088v14.048h-3.037zM36.51 153.835c0-1.803.76-2.752 2.278-3.322-1.139-.664-1.803-1.518-1.803-3.037v-.095c0-2.088 1.993-3.796 4.935-3.796 2.943 0 4.936 1.708 4.936 3.796v.095c0 1.424-.665 2.373-1.804 3.037 1.424.76 2.278 1.614 2.278 3.322v.095c0 2.563-2.278 4.082-5.315 4.082-3.132-.095-5.505-1.804-5.505-4.177m7.688-.284c0-1.14-1.044-1.804-2.373-1.804-1.423 0-2.372.665-2.372 1.709 0 .949.854 1.803 2.372 1.803 1.519 0 2.373-.76 2.373-1.708m-.285-5.79c0-.854-.759-1.709-1.993-1.709s-1.993.76-1.993 1.614v.095c0 .949.76 1.708 1.993 1.708 1.14-.095 1.993-.759 1.993-1.708M257.564 151.937c-.76.57-1.614.95-2.848.95-3.037 0-4.935-1.71-4.935-4.462v-.095c0-2.752 2.183-4.935 5.315-4.935 1.898 0 2.942.474 3.986 1.518s1.614 2.468 1.614 5.316v.095c0 4.555-2.088 7.593-6.075 7.593-2.088 0-3.322-.665-4.65-1.709l1.613-2.373c1.044.76 1.898 1.14 3.037 1.14 2.278.094 2.848-1.899 2.943-3.038m.095-3.702c0-1.233-.855-2.183-2.373-2.183s-2.373.855-2.373 2.089v.094c0 1.234.95 2.089 2.373 2.089 1.518 0 2.373-.95 2.373-2.089M270.567 154.595h-6.834l-.474-2.183 7.593-8.827h2.562v8.542h1.899v2.468h-1.899v3.037h-2.942zm0-2.468v-4.366l-3.702 4.366z" class="st2"/><path d="M150.027 237.17c-48.026 0-87.13-39.105-87.13-87.131s39.104-87.13 87.13-87.13 87.13 39.104 87.13 87.13-39.104 87.13-87.13 87.13m0-171.129c-46.318 0-83.904 37.681-83.904 83.904 0 46.318 37.68 83.903 83.904 83.903 46.318 0 83.903-37.68 83.903-83.903S196.25 66.04 150.027 66.04" class="st1"/><path d="M19.4 26.3c-45.3 0-71.5 5.9-71.5 5.9s-10.4 39.7-4.5 90.6c2.5 21.4 19.8 67.3 77.4 83 57.6-15.7 74.9-61.7 77.4-83 5.9-50.9-4.5-90.6-4.5-90.6s-26.2-5.9-71.5-5.9z" style="fill-rule:evenodd;clip-rule:evenodd;fill:#00285e" transform="matrix(.94913 0 0 .94913 130 50)"/><path d="M90.3 111c-.5 15.4-2.9 61.6-69.5 87-66.1-24.7-69.5-72.5-69.5-87z" style="fill-rule:evenodd;clip-rule:evenodd;fill:#97c1e7" transform="matrix(.94913 0 0 .94913 130 50)"/><path d="M88.3 108.4c1.8-38.3-4.7-69.3-4.7-69.3s-24.8-4.8-62.7-4.8c-38 0-63.2 5.2-63.2 5.2s-6.9 31.2-5 68.8z" style="fill-rule:evenodd;clip-rule:evenodd;fill:#fff" transform="matrix(.94913 0 0 .94913 130 50)"/><path d="m151.64 236.6-66.724-80.677c-2.373 16.61 11.105 65.68 66.724 80.677M104.848 155.449l61.789 74.507c6.264-3.037 10.82-5.885 15.28-9.491l-53.91-65.016zM147.749 155.449l45.653 55.05c4.461-5.03 8.258-9.681 11.01-14.522l-33.6-40.528zM214.568 155.449l-22.78-.095 19.078 23.064c3.322-7.024 3.702-18.983 3.702-22.97" class="st2"/><path d="M176.697 185.631c-.19-.474-.569-.949-1.139-1.139l-3.796-1.328c-.38-.19-.664-.095-1.044 0-.285-1.33-1.044-2.468-2.088-3.322-.19-.095-.285-.19-.475-.285-.19-.19-.474-.285-.76-.475-.474-.19-1.043-.38-1.423-.474-1.139-.38-2.183-.76-3.606-1.709-1.33-.949-1.899-1.803-2.468-2.657-.19-.19-.285-.38-.475-.57-.38-.57-.854-1.139-1.424-1.518a5.75 5.75 0 0 0-3.321-1.044c-.285 0-.475.095-.76.095v-.095c.095-.475-.095-.95-.285-1.33l-2.372-3.131c-.38-.475-.855-.76-1.424-.76s-1.139.19-1.424.665l-2.468 3.132c-.284.38-.474.854-.38 1.424-.189 0-.379-.095-.569-.095a6 6 0 0 0-3.322 1.044c-.19.095-.284.19-.38.285-.19.19-.474.38-.664.664-.38.474-.664.76-.949 1.234-.76.949-1.329 1.803-2.752 2.847-1.33.95-2.373 1.234-3.322 1.519-.19.095-.475.19-.665.19a6.9 6.9 0 0 0-1.898.854c-1.139.76-1.898 2.088-2.183 3.417-.38-.19-.76-.19-1.234-.095l-3.701 1.234c-.475.19-.95.57-1.14 1.139-.19.474-.094 1.139.19 1.518l2.278 3.322c.285.38.665.57 1.14.76-.57 1.233-.76 2.752-.285 4.08.094.19.19.286.19.475.094.285.19.57.474.855.285.474.57.854.854 1.233.76.95 1.424 1.804 1.898 3.512.475 1.519.475 2.563.475 3.607v.76c-.095.759 0 1.423.285 2.087.474 1.33 1.423 2.373 2.467 3.038-.19.284-.284.57-.19.854v3.986c0 .57.285 1.14.76 1.424s1.044.475 1.519.285l3.701-1.044c.38-.095.57-.38.76-.57 1.138 1.14 2.752 1.614 4.366 1.519.284 0 .569-.095.949-.19.474-.19 1.044-.285 1.423-.475 1.14-.38 2.183-.759 3.987-.759 1.613 0 2.562.38 3.606.664.19.095.475.19.665.19.664.285 1.424.38 2.088.38 1.424 0 2.752-.57 3.796-1.519.19.285.475.475.76.57l3.796 1.139c.475.19 1.14.095 1.614-.19s.76-.76.76-1.424l.094-3.986c0-.285-.095-.57-.19-.854 1.14-.665 2.088-1.804 2.468-3.038.095-.19.095-.284.19-.474.095-.285.19-.57.19-.95.095-.474.095-1.043.095-1.518 0-1.139 0-2.278.474-3.986.475-1.519 1.14-2.373 1.804-3.132.19-.19.284-.38.474-.57.475-.474.76-1.139 1.044-1.803.475-1.424.285-2.943-.38-4.271.38-.19.665-.285.855-.57l2.373-3.227c.094-.285.284-.76.094-1.424" class="st0"/><path d="M147.654 194.269c0-1.234 1.044-2.183 2.278-2.183s2.278 1.044 2.278 2.183c0 1.233-1.044 2.183-2.278 2.183s-2.278-1.045-2.278-2.183" class="st6"/><path d="M20.9 132.1c-.4-1.5-1.3-2.7-2.5-3.4l2.5-3.2 2.3 3.2c-1.1.7-1.9 1.9-2.3 3.4M2 145.8c-1.2-.8-2.1-1.9-2.5-3.2l-3.7 1.2L-2 147c1.1-.7 2.5-1.2 4-1.2m7.3 21.8c-1.2.9-2.5 1.4-3.9 1.4v3.9l3.9-1.2c-.5-1.1-.5-2.6 0-4.1m23.2.1c.5 1.4.5 2.8.1 4.1l3.8 1.2.1-3.9c-1.4 0-2.8-.5-4-1.4m7.2-21.8c1.5-.1 2.9.3 3.9 1.2l2.3-3.2-3.8-1.3c-.3 1.2-1.2 2.4-2.4 3.3m-23.6 21.9c-1.8 0-3.2-1.4-3.2-3.2 0-.2-.2-.3-.4-.2-1.2 1.4-2 2.6-2.1 4.1-.1 2.2 1.8 3.9 4 3.9h.4c.2 0 .4 0 .7-.1 1.5-.4 2.9-1.2 5.6-1.2 2.2 0 3.4.6 4.6.9q.75.3 1.5.3c2.2 0 4-1.8 4-3.9 0-1.5-.9-2.7-2.1-4.1-.1-.2-.3 0-.3.2 0 1.7-1.5 3.2-3.2 3.2-1.3 0-3-1.2-4.7-1.2-1.4.1-3.5 1.3-4.8 1.3m-2.1-4.3c0 1.5 1.2 2.6 2.6 2.6.2 0 .3 0 .5-.1.1 0 .2 0 .2-.1h.1c.9-.3 1.8-.7 3.4-.7s2.4.5 3.3.7c.3.1.6.2.9.2 1.5 0 2.6-1.2 2.6-2.6 0-.4-.1-.8-.2-1.1-.1-.2-.2-.3-.2-.4 0 0-4.5-6.1-4.6-6.2-.2-.3-.5-.2-.7-.1s-.8.2-1.2.2-.8-.1-1.1-.2c-.3-.2-.5-.2-.7.1-.2.2-3.4 4.6-4.4 6-.2.4-.5 1-.5 1.7m20.7-2c-.5 1.7-2.3 2.5-4 2-.2-.1-.4.1-.2.3 1 1.5 1.9 2.7 3.3 3.2 2.1.7 4.4-.5 5-2.5.1-.2.1-.2.1-.4.1-.2.1-.4.2-.6.2-1.6-.2-3.1.6-5.6.7-2.1 1.6-3 2.3-4 .3-.4.6-.8.8-1.3.7-2.1-.5-4.4-2.5-5-1.5-.5-2.9.1-4.6.7-.2.1-.2.2.1.3 1.7.5 2.6 2.3 2.1 4-.4 1.2-2 2.5-2.5 4.1-.7 1.2-.3 3.4-.7 4.8m-4.8.6c1.4.5 2.9-.3 3.4-1.7.1-.2.1-.3.1-.5v-.3c0-.9-.2-1.9.3-3.4s1.2-2.2 1.7-2.9c.2-.2.3-.5.5-.8.5-1.4-.3-2.9-1.7-3.3-.4-.1-.8-.2-1.1-.1-.2 0-.3 0-.5.1 0 0-7.3 2.3-7.5 2.4-.3.2-.3.5-.3.6 0 .2-.1.8-.2 1.2-.1.3-.3.8-.5 1s-.4.5-.2.7 3.3 4.6 4.4 6c.4.4 1 .7 1.6 1m4.3-20.2c1.5 1 1.8 3 .7 4.4-.2.2 0 .4.2.3 1.8-.5 3.2-.9 4.1-2.2 1.3-1.8.9-4.2-.8-5.6-.1-.1-.2-.2-.4-.2-.2-.2-.3-.2-.6-.3-1.5-.6-3-.8-5.2-2.3-1.8-1.3-2.4-2.5-3.2-3.5-.2-.4-.6-.8-1.1-1.2-1.8-1.3-4.3-.9-5.6.8-.8 1.2-.8 2.8-.8 4.6 0 .2.2.2.3 0 1-1.4 3-1.7 4.5-.7 1.1.8 1.8 2.7 3.2 3.6 1.3 1.3 3.6 1.5 4.7 2.3m-.9 4.7c.8-1.2.6-2.9-.6-3.7-.1-.1-.2-.2-.5-.3-.1 0-.2-.1-.2-.1-.9-.3-1.9-.5-3.2-1.4s-1.7-1.8-2.2-2.5c-.2-.2-.4-.5-.6-.7-1.2-.8-2.9-.6-3.7.6-.2.3-.4.6-.5 1 0 .2-.1.3-.1.5v7.8c0 .4.3.4.5.5s.8.3 1 .5c.3.2.6.5.8.8.2.2.3.5.6.3s5.5-1.8 7.1-2.3c.7-.1 1.3-.5 1.6-1m-17.9-10.3c1.4-1 3.4-.7 4.5.7.2.2.4.2.4-.1.1-1.8.1-3.3-.8-4.6-1.2-1.8-3.8-2.2-5.6-.8-.2.1-.2.2-.3.2-.2.1-.3.2-.5.5-1.1 1.2-1.7 2.6-3.9 4.2-1.8 1.3-3.1 1.5-4.2 1.9-.5.2-1 .3-1.4.6a3.9 3.9 0 0 0-.8 5.6c.9 1.2 2.4 1.7 4.1 2.2.2.1.2-.2.2-.3-1-1.4-.7-3.4.7-4.4 1.1-.8 3.1-.8 4.5-1.9 1-.9 2-3 3.1-3.8m4.3 2.3c-.8-1.2-2.5-1.5-3.7-.6-.2.1-.2.2-.4.3l-.2.2c-.5.8-1 1.6-2.3 2.5s-2.2 1-3.1 1.4c-.3.1-.6.2-.8.4-1.2.8-1.5 2.5-.6 3.7.2.3.5.5.8.7.2.1.2.2.4.2 0 0 7.3 2.3 7.5 2.4.4.1.5-.2.6-.3.2-.2.5-.6.8-.8s.7-.4 1-.5.5-.2.5-.5v-7.4c0-.5-.1-1.1-.5-1.7M4.2 152.4c-.5-1.7.4-3.5 2-4 .2-.1.2-.3.1-.4-1.7-.6-3.2-1.2-4.6-.7-2.1.6-3.2 2.9-2.5 5 0 .2.1.2.2.4l.3.6c.8 1.4 2 2.4 2.9 4.9.7 2.1.5 3.4.5 4.6-.1.5 0 1 .2 1.5.7 2.1 2.9 3.2 5 2.5 1.5-.5 2.3-1.7 3.3-3.2.1-.2-.1-.3-.2-.2-1.7.5-3.5-.4-4-2-.4-1.2.2-3.2-.4-4.8-.6-1.3-2.4-2.9-2.8-4.2m3.5-3.3c-1.4.5-2.2 1.9-1.7 3.3 0 .2.1.3.2.5.1.1.1.2.2.2 0 0 0 .1.1.1.5.8 1.2 1.5 1.8 2.9.5 1.5.3 2.4.4 3.3 0 .3 0 .6.2.9.5 1.4 1.9 2.2 3.3 1.7.4-.1.7-.3.9-.5l.3-.3s4.5-6.1 4.6-6.3c.2-.3 0-.5-.2-.7s-.5-.6-.5-1c-.1-.3-.2-.8-.2-1.1s0-.5-.3-.6-5.5-1.8-7.1-2.3c-.7-.2-1.3-.3-2-.1" style="fill:#ee3124" transform="matrix(.94913 0 0 .94913 130 50)"/><path d="m170.908 116.724 15.47-5.315s-1.328 6.454-.949 11.39c.475 6.454 4.177 11.39 4.177 11.39l-19.078 6.548z" class="st6"/><path d="M189.606 134.188s-3.417-4.84-3.987-10.44c-.474-4.271 0-7.878.76-12.339-.665 2.942-3.133 11.2-10.061 18.888-2.753 3.037-3.987 5.79-4.556 7.688l-.285-36.447s-3.701 1.329-3.986 1.424c-.475.19-.665.474-.665.474 0 .19-.19.38-.474.475-.285.095-2.373.854-3.892 1.329-.284.095-.19.38 0 .38 1.804-.096 4.272-.285 4.461-.285.38-.095.475-.19.475-.475v-.095c.095-.285.285-.474.57-.474.19 0 1.518-.19 2.372-.285l-.38 39.2h1.804v-2.753z" class="st8"/><path d="M121.173 141.781s-2.847-2.088-3.702-6.169c-.759-4.081 1.234-6.454 1.234-6.454l18.793-6.454s-1.139 3.701-.095 7.972c1.424 5.316 4.271 8.922 4.271 8.922s-6.928-1.234-13.572-.38c-6.265.855-6.929 2.563-6.929 2.563M99.628 137.13s2.373-6.359 9.111-13.287c5.22-5.315 8.543-6.834 8.543-6.834s-3.038 4.366-4.272 11.39c-.759 4.366.095 9.965.095 9.965s-3.511-.759-7.498-1.138c-3.322-.38-5.98-.095-5.98-.095" class="st6"/><path d="M117.377 117.009s-2.943 4.366-4.177 11.39c-.759 4.366.095 9.965.095 9.965s-.854-.19-2.942-.664c-8.352-1.898 7.024-20.691 7.024-20.691M128.292 122.134l-.19-16.8c-.38.19-3.702 1.234-3.987 1.424-.474.19-.664.475-.664.57 0 .19-.19.38-.475.474s-2.372.76-3.891 1.33c-.285.094-.19.379 0 .379 1.708-.095 4.271-.285 4.46-.285.38-.095.475-.19.57-.475v-.094c.095-.285.285-.475.57-.475.19 0 1.424-.19 2.373-.19l-.095 14.142zM150.122 106.853h1.328V90.718s-3.701 1.329-3.986 1.424c-.474.19-.664.474-.664.474 0 .19-.19.38-.475.475s-2.373.759-3.891 1.329c-.285.094-.19.38 0 .38 1.803-.096 4.27-.286 4.46-.286.38-.094.475-.19.57-.474.095-.285.285-.475.57-.475.19 0 1.423-.19 2.277-.19z" class="st8"/><path d="M146.895 94.514c.474-.094.57-.19.57-.474 0-.19.189-.38.379-.475l-.475-1.423c-.474.19-.57.474-.57.474 0 .19-.19.285-.379.38zM123.546 108.941c.474-.095.57-.19.57-.474.094-.19.19-.38.379-.475l-.475-1.424c-.474.19-.569.475-.569.475 0 .19-.19.285-.38.38zM166.732 105.335c.474-.095.569-.19.569-.475.095-.19.19-.38.38-.475l-.475-1.423c-.474.19-.57.474-.57.474 0 .19-.19.285-.379.38z" class="st6"/><path d="M141.674 139.693s-3.037-4.366-4.176-9.111c-1.044-3.987 0-7.878 0-7.878s-1.993 6.928-6.739 10.63c-3.322 2.658-11.39 5.03-9.491 8.447.285-.474 1.139-1.328 4.366-2.088.38-.095.76-.19 1.234-.19v5.6h1.803v-5.884c5.98-.665 13.003.474 13.003.474" class="st8"/><path d="M119.18 128.019s-2.183-1.329-1.898-5.6c.284-4.366 2.467-6.264 2.467-6.454l14.617-4.936s-1.139 2.183-.285 5.505c.855 3.987 3.417 6.265 3.417 6.265s-7.308.095-13.952 2.372c-3.227 1.045-4.366 2.848-4.366 2.848" class="st6"/><path d="M127.817 118.907c4.176-3.417 6.454-7.878 6.454-7.878s-.57 2.753-.19 5.316c.76 4.27 3.322 6.454 3.322 6.454s-5.98.095-12.339 1.898c-4.27 1.139-5.6 2.847-5.98 3.417-1.328-3.227 4.462-5.695 8.733-9.207" class="st8"/><path d="M144.427 142.92s-3.987-3.037-4.936-8.637c-.759-4.46 2.183-7.688 2.183-7.688l22.78-7.878s-1.234 5.03-.095 9.871c1.328 5.41 6.264 12.15 6.264 12.15s-9.491-2.753-17.654-1.71c-7.783 1.045-8.542 3.892-8.542 3.892M139.776 106.758c-.19-3.417 2.278-6.264 2.373-6.359l16.325-5.695s-1.139 2.563-.76 4.746c.475 4.176 2.848 6.36 2.848 6.36s-6.454-.38-13.952 2.277c-4.176 1.424-4.65 3.417-4.65 3.417s-1.994-.475-2.184-4.746" class="st6"/><path d="M152.684 102.392c2.943-2.562 5.79-7.593 5.79-7.593s-1.139 2.563-.76 4.746c.475 4.176 2.848 6.36 2.848 6.36s-6.929-.096-13.667 2.277c-2.848 1.044-4.651 2.563-4.936 3.417-.854-3.227 6.739-5.695 10.725-9.207" class="st8"/><path d="M142.149 125.646s-2.373-2.752-2.753-6.929c-.474-4.366 2.089-6.169 2.373-6.264l18.888-6.549s-.475 1.424-.095 5.22c.475 3.227 3.607 7.593 3.607 7.593s-10.061.285-16.325 2.753c-3.987 1.424-5.695 4.176-5.695 4.176" class="st6"/><path d="M154.678 114.731c4.08-3.512 5.98-8.827 5.98-8.827s-.476 3.037 0 5.315c.948 4.081 3.89 7.498 3.89 7.498s-8.826.19-15.186 2.278c-4.176 1.424-6.739 3.892-7.118 4.651-.95-3.512 8.352-7.403 12.434-10.915M171.003 141.117s-5.126-6.644-6.644-12.529c-.95-3.891-.19-8.257.095-9.776-.57 2.088-2.658 8.732-7.688 13.383-4.841 4.461-14.332 6.55-12.34 10.725.38-.664 1.425-2.278 5.316-3.227l-.095 5.315h1.803v-5.694c8.543-1.234 19.553 1.803 19.553 1.803" class="st8"/><path d="M52.5 109.2c1.2-.2 2.5-.5 4.3-1-.1-.1-.2-.2-.3-.2-2-2.2-1.7-4.6-.5-5.8 4.5-4.2 4.4-7.3 4.4-7.3s-10.9 2.2-25.2 3c-.9.1-4.2 1.5-5.2 1.5-2 .1-4 .2-6.1.2-27.1.2-34.6-1.7-43.5-3.3-9-1.7-13-3.5-13-3.5l-.3.9s7.1 2.8 12.2 5.2c1.1.5 5.3 6.9 6.7 9h-32.2C-48 71.2-40.9 41-40.9 41s24.6-5.2 61.7-5.2v-3.9c-39.3 0-65.4 5.6-65.4 5.6S-56 77.8-50 125.8c2.5 20 19.1 57.4 70.7 74.8l2.2-3.2-2.2-3.2c-48.6-16.3-62.8-49.2-65.3-68q-.75-6.3-1.2-12.3H21v-5.6h-34.3c.8-2.5 3.2-3.1 6.2-2.4 3.1.8 6.2 1.5 9.1 1.4 7.3-.4 6.3-2.3 6.9-2.3 7.6.5 10.4 2.3 17 2.2 6-.1 8.1-1.7 8.6-1.7 7.3-.1 10.1 3.3 17.4 3.9h.6z" style="fill-rule:evenodd;clip-rule:evenodd;fill:#ffc758" transform="matrix(.94913 0 0 .94913 130 50)"/><path d="M86.1 37.4S60 31.8 20.7 31.8v3.9c37 0 61.6 5.2 61.6 5.2s7.2 30.2 5.3 67.1H55.4c-2.5-2.5-1.1-5.7-.2-6.5 3.8-3.4 3.8-5.7 3.8-5.7s-8.7 2.2-23.1 2.8c-.9 0-4.9 1.9-5.9 1.9-2 .1-4.8.2-6.9.2-18.7 0-27.9-.4-44.1-3.9.3.4.5.5.8 1 .1.2 7.1 1.9 7.2 2.1 1.1 1.5 2.5 2.5 4.2 3.4 2.6 1.4 6.5 2.5 9.6 2.8 7.3.5 5.9-2.3 6.6-2.3 7.5-.2 12.3 2.5 18.9 2.5 6-.1 6.2-2 6.8-2 5.9-.3 12 2.2 17.1 3.9H20.8v5.6h66.5q-.45 6.15-1.2 12.3c-2.5 18.8-16.7 51.7-65.3 68v6.3C72.4 183 89 145.7 91.5 125.6c6-47.9-5.4-88.2-5.4-88.2" style="fill-rule:evenodd;clip-rule:evenodd;fill:#d4a11e" transform="matrix(.94913 0 0 .94913 130 50)"/><path d="m35.276 101.918 2.563-4.936 11.58-.76-5.885-10.06 2.562-4.84 20.597 10.82-2.373 4.46-13.478-7.023 5.79 10.44-.095.095-11.674 1.14 13.287 7.023-2.372 4.46zM58.815 65.376l3.227-3.417 23.918 8.827-3.701 3.892-5.316-2.089-6.739 7.214 2.373 5.125-3.606 3.797zm13.667 5.41-7.593-2.942 3.417 7.403zM77.228 48.386l3.986-2.372 16.8 6.549-7.403-12.244 4.366-2.658 12.054 19.932-3.702 2.278-17.274-6.834 7.688 12.624-4.366 2.657zM108.55 44.4c-1.804-6.454 1.423-13.003 8.257-14.996 4.176-1.234 7.213-.475 9.776.854l-2.088 4.556c-2.183-1.14-4.176-1.519-6.454-.854-3.702 1.139-5.6 4.935-4.461 8.827v.094c1.139 3.797 4.65 6.265 8.542 5.126 2.563-.76 3.797-2.183 5.126-4.366l3.986 2.278c-1.614 3.132-3.702 5.41-7.973 6.644-6.549 1.898-12.908-1.709-14.711-8.163M136.454 25.702l5.03-.19.285 9.207 9.397-.19-.19-9.207 5.125-.19.57 23.254-5.126.19-.19-9.396-9.49.285.284 9.301-5.125.19zM186.189 51.614l4.27-2.089c1.14 2.373 2.753 4.366 5.126 5.505 1.898.855 3.322.665 3.987-.57.57-1.138.095-2.087-3.038-4.65-3.701-3.037-5.98-5.505-3.986-9.681v-.095c1.803-3.796 5.98-4.935 10.346-2.942 3.037 1.423 5.315 3.606 6.549 6.264l-3.987 2.373c-1.234-2.183-2.752-3.797-4.556-4.65s-3.037-.475-3.606.569v.095c-.665 1.423.095 2.277 3.322 4.935 3.701 3.037 5.505 5.79 3.701 9.491v.095c-1.898 4.176-6.264 5.03-10.725 3.038-3.132-1.614-5.885-4.177-7.403-7.688M220.168 53.037l-5.6-4.366 2.847-3.701 15.281 11.674-2.847 3.796-5.6-4.366-11.295 14.712-4.08-3.037zM256.9 86.067l4.745 9.491c1.329 2.658 1.614 5.03.95 7.119-.57 1.803-1.9 3.132-3.892 4.176h-.095c-3.322 1.709-6.36.95-8.732-1.234l-4.936 8.827-2.752-5.315 4.556-7.878-1.804-3.606-6.644 3.416-2.278-4.555zm-5.506 14.237c1.14 2.183 2.943 2.942 4.651 2.088h.095c1.993-.949 2.278-2.847 1.139-5.03l-2.278-4.556-5.98 3.037zM170.623 41.268l8.542 1.803 2.373-4.081-9.966-2.183.95-4.65 12.148 2.657 1.044-4.366-17.18-3.702-4.84 22.685 17.37 3.796.949-4.46-12.34-2.753zM239.72 63.573l-17.844 14.901 11.39 13.573 3.417-2.943-8.068-9.68 3.702-3.133 5.695 6.834 4.65-1.519-6.833-8.162 3.606-3.038 7.973 9.492 3.512-2.943zM110.543 261.942c0-6.834 5.03-12.339 12.338-12.339 4.461 0 7.119 1.424 9.397 3.702l-3.322 3.796c-1.803-1.708-3.702-2.657-6.075-2.657-3.986 0-6.928 3.322-6.928 7.403v.095c0 3.986 2.752 7.498 6.928 7.498 2.753 0 4.367-1.139 6.265-2.752l3.322 3.321c-2.373 2.658-5.126 4.272-9.776 4.272-6.929-.19-12.15-5.6-12.15-12.34M137.498 249.983h5.22v23.633h-5.22zM154.867 254.823h-7.213v-4.84H167.3v4.84h-7.213v18.888h-5.22zM178.5 264.315l-9.11-14.332h6.074l5.6 9.491 5.694-9.491h5.885l-9.112 14.237v9.491h-5.22v-9.396z" class="st0"/></svg>