<svg xmlns="http://www.w3.org/2000/svg" xmlns:xlink="http://www.w3.org/1999/xlink" id="Layer_1" data-name="Layer 1" viewBox="0 0 266.55 270"><defs><radialGradient id="radial-gradient" cx="-163.5" cy="421.39" r="1" gradientTransform="matrix(9.11 0 0 -6.78 1624.03 3118.62)" gradientUnits="userSpaceOnUse"><stop offset="0" stop-color="#ffe500"/><stop offset=".5" stop-color="#ffe500"/><stop offset="1" stop-color="#e15007"/></radialGradient><radialGradient xlink:href="#radial-gradient" id="radial-gradient-2" cx="-163.62" cy="424.58" r="1" gradientTransform="matrix(9.64 0 0 -8.67 1685.64 3939.59)"/><radialGradient xlink:href="#radial-gradient" id="radial-gradient-3" cx="-163.86" cy="426.56" r="1" gradientTransform="matrix(11.02 0 0 -10.49 1909.78 4487.62)"/><radialGradient xlink:href="#radial-gradient" id="radial-gradient-4" cx="-170.04" cy="431.66" r="1" gradientTransform="matrix(8.53 -14.93 -13.13 -7.5 7143.55 766.92)"/><radialGradient xlink:href="#radial-gradient" id="radial-gradient-5" cx="-167.31" cy="426.56" r="1" gradientTransform="matrix(-11.02 0 0 -10.49 -1681.4 4487.62)"/><radialGradient xlink:href="#radial-gradient" id="radial-gradient-6" cx="-163.3" cy="423.56" r="1" gradientTransform="matrix(8.32 0 0 -7.96 1492.62 3377.42)"/><radialGradient xlink:href="#radial-gradient" id="radial-gradient-7" cx="-171.14" cy="433.85" r="1" gradientTransform="matrix(-8.53 -14.93 13.13 -7.5 -6915.17 766.92)"/><radialGradient xlink:href="#radial-gradient" id="radial-gradient-8" cx="-167.56" cy="424.58" r="1" gradientTransform="matrix(-9.64 0 0 -8.67 -1455.66 3939.59)"/><radialGradient id="radial-gradient-9" cx="-164.53" cy="430.39" r="1" gradientTransform="matrix(17.93 0 0 -17.64 2974.99 7738.47)" gradientUnits="userSpaceOnUse"><stop offset="0" stop-color="#da030e" stop-opacity="0"/><stop offset=".88" stop-color="#da020e" stop-opacity="0"/><stop offset="1" stop-color="#da020e"/></radialGradient><radialGradient xlink:href="#radial-gradient-9" id="radial-gradient-10" cx="-164.53" cy="430.39" r="1" gradientTransform="matrix(17.93 0 0 -17.64 3193.36 7738.38)"/><linearGradient id="linear-gradient" x1="-163.63" x2="-162.63" y1="436.38" y2="436.38" gradientTransform="matrix(0 50.6 50.6 0 -21948.67 8392.99)" gradientUnits="userSpaceOnUse"><stop offset="0" stop-color="#8f0904"/><stop offset=".25" stop-color="#b40509"/><stop offset="1" stop-color="#da020e"/></linearGradient><linearGradient xlink:href="#radial-gradient" id="linear-gradient-2" x1="-151.74" x2="-150.74" y1="426.63" y2="426.63" gradientTransform="scale(6.2 -6.2)rotate(-47.7 -569.344 33.439)"/><linearGradient id="linear-gradient-3" x1="-163.6" x2="-162.6" y1="435.17" y2="435.17" gradientTransform="scale(43.95 -43.95)rotate(-48.94 -563.553 34.854)" gradientUnits="userSpaceOnUse"><stop offset="0" stop-color="#740703"/><stop offset="1" stop-color="#da020e" stop-opacity="0"/></linearGradient><linearGradient xlink:href="#linear-gradient-3" id="linear-gradient-4" x1="-164.17" x2="-163.17" y1="437.49" y2="437.49" gradientTransform="scale(-43.95 43.95)rotate(48.94 391.866 395.352)"/><linearGradient xlink:href="#linear-gradient-3" id="linear-gradient-5" x1="-169.39" x2="-168.39" y1="438.63" y2="438.63" gradientTransform="scale(-21.45 21.45)rotate(-43.26 -637.012 22.825)"/><linearGradient xlink:href="#linear-gradient-3" id="linear-gradient-6" x1="-168.03" x2="-167.03" y1="432.62" y2="432.62" gradientTransform="scale(24.05 -24.05)rotate(46.55 424.873 410.197)"/><linearGradient xlink:href="#radial-gradient" id="linear-gradient-7" x1="-155.86" x2="-154.86" y1="449.89" y2="449.89" gradientTransform="scale(-6.2 6.2)rotate(47.7 399.24 361.628)"/><style>.cls-3,.cls-5{fill:#ffe500}.cls-3{stroke:#000;stroke-miterlimit:3.55;stroke-width:1.93px}.cls-4{fill:#da020e}</style></defs><path d="M146.48 259.07c-1.07 3.16-4.51 10.93-12.81 10.93-9.45 0-12.73-10.22-12.89-10.66l-.28-1s8.14.67 12.62.67 12.13-.44 13.37-.67Z"/><path d="m171.28 254 1.94.25c-2.32 6-6.47 12.82-14.61 12.82-7.94 0-11.86-4.6-13.5-7.67l-1.39-.85a124 124 0 0 0 27.56-4.55M96.34 254l-1.94.25c2.3 6 6.48 12.82 14.64 12.82a16 16 0 0 0 13.91-7.67l.94-.85A124 124 0 0 1 96.34 254"/><path d="M140.44 259.71c-1.29 1.84-2.16 1.75-3.68 1.75a1.9 1.9 0 0 0-1.91 1.81 1.81 1.81 0 0 0 2 1.67c2.81 0 5-3.9 5.53-5.56 0 0 1.65-.07 2.13-.12 0 0-2.95 8.82-10.62 8.82s-10.82-8.71-10.82-8.71 6.48.39 10.17.39 6.06 0 7.18-.05" style="fill:url(#radial-gradient)" transform="translate(-.14)"/><path d="M97.52 255.82a99.5 99.5 0 0 0 17 3.47s-.26.85-2.09.78a3.4 3.4 0 0 1-1-.26 1.19 1.19 0 0 0-1.24 1.36c.08.64.62 1.44 2.48 1.44s4.05-1.52 5.15-2.94a15 15 0 0 0 2.18.33 13.59 13.59 0 0 1-10.65 5c-7.76 0-10.64-7-11.85-9.19" style="fill:url(#radial-gradient-2)" transform="translate(-.14)"/><path d="M133.03 214.51c26.77 0 56.44-16.43 77.26-40.12 2.27-2.57 6.07-7.43 15.11-7.43s21.11 8.25 19.7 23.28c-1.05 10.95-16.7 35.65-43.49 50.84a136.34 136.34 0 0 1-137.18 0c-26.78-15.19-42.42-39.89-43.47-50.84C19.55 175.21 31.6 167 40.64 167s12.88 4.86 15.14 7.43c20.8 23.69 50.48 40.12 77.25 40.12Z" class="cls-3"/><path d="M132.8 218.16c-26.94 0-57.6-15.9-80.18-41.62-2.3-2.61-5.22-6-12.19-6a16.82 16.82 0 0 0-11.73 5.54 17.22 17.22 0 0 0-4.27 13.68c.9 9.24 15.54 33.14 41.63 48a132.7 132.7 0 0 0 133.5 0c26.09-14.85 40.75-38.75 41.61-48a17.2 17.2 0 0 0-4.23-13.68 16.88 16.88 0 0 0-11.74-5.54c-7 0-9.91 3.36-12.19 6-22.57 25.72-53.26 41.62-80.21 41.62" class="cls-4"/><path d="m248.7 84 .09-6.24a6 6 0 0 0 7.66-.77 5.86 5.86 0 0 0 1.41-4.21 7.92 7.92 0 0 0-2.31-5.13c-7.79-7.65-14.69-15.26-14.69-15.26a6.24 6.24 0 0 0-2.49-2.24 5 5 0 0 0-7 1.93c-2.34 3.57-2 8.6-1.54 10.44l7.33 10A119 119 0 0 0 248.7 84M92.05 19.29c9.22-3.1 17.66-5.66 29-6.67l1.72-1c-6.34-5-12.65-8.42-18.93-8.42-3.94 0-12 2.68-13.75 16.83ZM174.03 19.29c-9.23-3.1-17.66-5.66-29-6.67l-1.75-1c6.38-5 12.66-8.42 18.95-8.42 4 0 11.93 2.68 13.76 16.83Z"/><path d="M122.6 12.15C127.24 3.23 131.49 0 133.86 0c2.94 0 6.39 4.66 9.1 10.7l.58 1.37-2.39-.19a67 67 0 0 0-7.72-.35c-1.75 0-5.51 0-7.78.21Z"/><path d="m86 213.26-6.72 12.15c-2 3.65-4.12 6-7.55 4s-2.59-4.67-.52-8.44l6.74-12.17-5.43-3-7.12 12.85c-3.92 7.08 1 11.47 4.87 13.59 4.12 2.29 10.13 4 14-3l7.17-12.91Zm86.42 25-2.26-7 6.74-2.18-.93-2.9-6.75 2.19-1.92-6 6.9-2.27-.93-2.87-12.64 4.11 7 21.59 13.93-4.51-.92-2.88Zm14.44-27.91-7.69 4.43 11.39 19.75 7.66-4.43c7.92-4.56 8.67-11.48 5.55-17-3.75-6.58-9.95-6.73-16.91-2.72m11.62 6c2.89 5 2.3 8.74-2.14 11.28l-2.12 1.24-8.36-14.47 2.28-1.32c5.33-3.06 8.36-.34 10.34 3.25m-61.53 9.25.41 3 6.36-.9 2.75 19.52 5.91-.82-2.74-19.5 6.22-.91-.43-3Zm-5.38.19-6-.33-1.2 22.68 6 .32Zm-18.08-2.8-4.14 15.49-7.76-18.69-4.83-1.29-5.9 21.97 5.26 1.39 4.18-15.62 7.87 18.85 4.73 1.27 5.85-22ZM82.17 79.84v106.37l50.86 32.68 50.83-32.68.1-106.21a68.5 68.5 0 0 0-7.66-6.23H89.52a84 84 0 0 0-7.35 6.07" class="cls-5"/><path d="M153.49 156.16v-4a4.33 4.33 0 0 0-3.65-1.62c-2.6 0-4.15.78-4.15 1.44 0 1.07 2.32 4.14 7.8 4.14m-20.5-35 3.93-6.86 3.08 6.86h5.1a14.75 14.75 0 0 0-4.32 10.15v3.16a16.3 16.3 0 0 1-.68 3.58s4.43 3.37 5.11 4c.28.22.59.36.39.94-.35 1-3.36 2.35-3.67 2.6-.68.61-.86 1-.68 1.57s.78.68 1.93.27 3.58-1.64 5.6-2.51a11.6 11.6 0 0 1 4.71-.65v-3.87h-7.62V128l-1.34-2.16 3.36-6 3.38 6-1.33 2.16v6.43h3.88V128l-1.34-2.13 3.37-6 3.36 6-1.33 2.13v6.43h3.91V128l-1.38-2.13 3.38-6 3.37 6-1.34 2.13.06 12.3h-7.68v5.7a12.88 12.88 0 0 1 3.39 7.52 3.79 3.79 0 0 1-1.46 3.18 8.24 8.24 0 0 1 .19 4.07c-.19 1.62-2.2 4.13-2.2 4.13v29.4c0 2-4.63 1.8-4.63.1v-28.81c-2.61-2.87-9.73-5.12-9.73-5.12a22.7 22.7 0 0 0-4.22 7.15c1.13.8 2.9 0 3.56-.77a2.33 2.33 0 0 1 2.77-.48c.76.48.95.67.69 1.8a21.2 21.2 0 0 0-.77 4.44c0 1.37 1.54 1.06 2.69 1.16 2.32.21 2.7 2.8 2.5 4.25a59 59 0 0 0-.86 6.46 33.5 33.5 0 0 0 .29 4.91 12.8 12.8 0 0 1 .47 3.57c-.12 1.82-1.24 2.12-2.4.94s-17.24-18.3-17.24-18.3c-1.07 3.49 3.38 9.44 4.81 11.27s1.36 3.19.09 4.45-3.65 1.91-4.13 3.08 1.16 4.63 4.54 9-3.87 7.22-8.19 8.09-4.35-2.13-4.05-3.77a14 14 0 0 0 .18-4c-.09-1.45-1.42-3.47-3.27-5.87s-1.83-4.62-1.07-10.23a54 54 0 0 0 .59-9.16s-1.93.08-4.73 0-5.09-1.72-5.28-8.47-.36-22.8-.81-24.49-2.25-2-3-2.19a1 1 0 0 1-.07-1.75c2-1 4.43-3.44 3.53-5s-4.44-1.22-6.81-.06a22.7 22.7 0 0 0-5.57 4.31c-.62.68-1.16.68-1.1-.05a34.3 34.3 0 0 0-.74-5.74 25.3 25.3 0 0 0-1.88-4.36c-.38-.64 0-.89.65-.64a29 29 0 0 0 3.4 1.2 2.68 2.68 0 0 0 3.25-1.52c.65-1.3 1.9-4 2.54-5.28s1.66-.94 2.49-.75a17 17 0 0 1 2.37 1c.77.32 1.41.26 1.68-.13a5.8 5.8 0 0 0 1-1.47c.45-1 1-.5 1.08-.12 2.3 13.82 8.28 14.45 8.28 14.45a70 70 0 0 1-3.5 6.9 8.3 8.3 0 0 0-.88 3.06 105 105 0 0 0 1 13.42c.65 3.35 2.69 2.05 3.36 1s2.62-5.27 2.62-5.27a6.5 6.5 0 0 0 .49-2.11c0-1-1.66-3.07-2-3.72a7.65 7.65 0 0 1-1.8-5.16c0-3.2 2.89-5.43 3.93-6.27a2.75 2.75 0 0 0 .89-2.71c-.45-2.48-3.09-7.7-4.36-9.7S117 121.1 117 121.1h5.2l3.35-7 3.64 7Zm-.85 21.07a22.8 22.8 0 0 0 2.41-5.72h-4.91a23.7 23.7 0 0 0 2.5 5.72m-5.14-14.1c.2 1.44 1.27 2 2.08 1.56s.67-1.61.07-2.54-1.77-1.92-2.14-1.77-.14 1.9 0 2.75m9.73-2.75c-.35-.15-1.61.86-2.21 1.77s-.72 2.1.09 2.54 1.83-.14 2.09-1.56c.14-.85.41-2.6 0-2.75" style="fill:url(#linear-gradient)" transform="translate(-.14)"/><path d="M86.16 106.36v6.4h93.83v-6.4h-6.92v1h-80v-1ZM86.16 77.58h93.82v25.52H86.16Z" class="cls-4"/><path d="m102.28 95.69 7.19 1.76 3.88-10.8v-2.74Zm59.22 6.37v-3.33h-6.78v-2.8h5.54V83.6h-5.11l-1.74-3.4-1.71 3.4h-5.12v12.33h5.57v2.8h-13.29v-2.8h5.54V83.6h-5.11l-1.73-3.4-1.74 3.4h-5.1v12.33h5.57v2.8h-13.66v-2.8h5.56V83.6h-5.12l-1.71-3.4-1.76 3.4h-5.11v12.33h5.58v2.8H109.3l-10.71-2.47 2.14 5.8Z" class="cls-5"/><path d="M92.72 18.28c9.06-3 15.9-5.39 27.06-6.38-5.15-3.57-9.71-6.59-15-6.59-2.76 0-5.12 1.05-5.67 3-.5 1.76.88 2.52 1.37 2.4s.88-.28.76-.76.26-1.78 2-1.78a2.59 2.59 0 0 1 2.46 2.79c0 1.13-1.8 3-5.11 3s-4.85-2.16-4.72-4.16a19.7 19.7 0 0 0-3.15 8.48" style="fill:url(#radial-gradient-3)" transform="translate(-.14)"/><path d="m29.47 72.51 7.36-10c.42-1.84.76-6.87-1.59-10.44a5 5 0 0 0-7-1.92 6.3 6.3 0 0 0-2.38 2.24s-7.12 7.79-14.9 15.45a8.4 8.4 0 0 0-2.41 4.93 6 6 0 0 0 1.52 4.32 6.12 6.12 0 0 0 7.75.7l.13 6.21a118 118 0 0 0 11.52-11.49"/><path d="M133.03 58c41.88 0 65.7 39.31 70.91 46.21 9.23 12.33 20.54 22.34 33.65 19 19.27-4.92 18.27-33.44 18.27-33.44-4.65-3.34-12.56-7.55-27-28C214.71 41.71 182.73 12 133.03 12S51.34 41.71 37.24 61.76c-14.45 20.46-22.39 24.67-27 28 0 0-1 28.52 18.23 33.44 13.1 3.31 24.4-6.7 33.65-19 5.18-6.9 29-46.21 70.9-46.21Z" class="cls-3"/><path d="M133.03 54.24c40.37 0 64.39 34.24 73.07 46.6 11.49 15.34 21.22 21.13 30.57 18.76 13.51-3.44 15.19-22 15.37-27.66v-.23l-.18-.11c-4.77-3.3-12.73-8.77-26.08-27.7-8-11.3-38.2-48.2-92.78-48.2S48.21 52.6 40.24 63.9C27 82.7 18.68 88.44 14.24 91.5l-.19.16v.19c.18 5.64 1.87 24.33 15.34 27.75 9.36 2.37 19.11-3.42 30.57-18.76 8.67-12.36 32.71-46.6 73.07-46.6" class="cls-4"/><path d="M111.09 25.63c-7.41 1.56-12.29 7-10.69 14.43.93 4 4.5 11.36 15.79 9a11.8 11.8 0 0 0 6.47-3.41l-2.06-2.37a7.6 7.6 0 0 1-4.53 2.66c-5.46 1.15-8.71-3.27-9.52-7.08-1.2-5.65 2.09-9.54 5.81-10.35a8.2 8.2 0 0 1 5.29.53l.7-2.89a11.7 11.7 0 0 0-7.29-.48m62 32.57c4.24 2.55 8.86 2.12 11-1.46 1.58-2.5 1.59-4.58-.3-8.31-.49-1-1.13-1.81-1.55-2.77-.84-1.55-1.61-2.83-.89-4s2.63-1.42 4.29-.4a6.73 6.73 0 0 1 2.83 4l2.75-1.3a10.73 10.73 0 0 0-4.93-5.94c-4.86-2.93-8.81-2.16-10.45.58s-1.19 5 .06 7.4c0 0 .78 1.34 1.23 2.25 1.1 1.84 2.38 4.15 1.48 5.6a3.21 3.21 0 0 1-4.79 1.11 7.34 7.34 0 0 1-3.37-4.87l-3 1.29c.66 2.31 2.22 4.69 5.64 6.76M140.7 24.43l-.17 9.26-8.89-.13.13-9.29-6-.11-.39 22.71 6 .13.19-10.41 8.91.16-.17 10.39 6 .09.39-22.71Zm85.45 72.1c.05.06 3.5 1.77 7.35-1.68 3.21-2.89 2.13-6.85-1.22-10.56l-6.19-6.88-16.87 15.2 4 4.43 6.71-6 1.93 2.16-4.25 9.59 5.09 4.07Zm3-11.18a3.55 3.55 0 0 1-.23 5.45c-1.79 1.65-4.08 1.27-5.81-.63l-1-1.13 5.75-5.16Zm-26.29-5.8 5.65-4.69 4.53 5.39 2.35-2-4.53-5.37 4.78-4 4.67 5.56 2.31-1.93-8.52-10.16-17.44 14.57 9.39 11.2 2.35-1.94Zm-6.52-34.12-2 2.22 4.72 4.35-13.2 14.6 4.45 4L203.49 56l4.71 4.23 2-2.22Zm-38.88 1.44 2.4-6.93 6.69 2.31 1-2.88-6.7-2.3 2-5.93 6.89 2.36 1-2.87-12.56-4.32-7.32 21.51 13.83 4.73 1-2.86ZM85.57 35.74l8.53 13.6-19-7.09-4.24 2.65 12 19.29 4.59-2.89-8.53-13.73 19.19 7.12 4.14-2.6-12.06-19.27ZM59.01 56.28l-3.88 4.17 10.88 21.64 2.66-2.84-3-5.76 5.26-5.65 6 2.52 4.38-4.68Zm9.18 10.31-3.94 4.23L60.19 63Zm-22 3.41-4.23 5 7.9 16.37-16.94-5.54-3.64 4.32 17.4 14.6 2.64-3.13-12.29-10.35 16.47 5.37 1.74-2.06-7.86-15.75 12.35 10.36 3.85-4.57Z" class="cls-5"/><path d="M19.75 81.58v-5A62.9 62.9 0 0 0 32.3 60.85s-3.14-1.19-4.54-3a5 5 0 0 1-.85-3.26A3.78 3.78 0 0 1 29 51.84c1-.42 2.8-1.38 4.84 1.42 2.16 3 1.59 8.77 1.3 10.09 0 0-4 6.94-15.36 18.23" style="fill:url(#radial-gradient-4)" transform="translate(-.14)"/><path d="M29.2 61.76c-1.15 2-4.06 6.86-11.41 13.75-1.22 1.15-4.26 2.12-6 .18a4.23 4.23 0 0 1-1-3 6 6 0 0 1 1.79-3.79c1.48-1.25 7.8-7.63 12.29-12.64a10.3 10.3 0 0 0 .91 2.44 8.3 8.3 0 0 0 3.42 3.09" style="fill:url(#linear-gradient-2)" transform="translate(-.14)"/><path d="M132.94 218.16c-26.94 0-57.6-15.9-80.18-41.62-2.3-2.61-5.22-6-12.19-6a16.82 16.82 0 0 0-11.73 5.54 17.22 17.22 0 0 0-4.27 13.68c.9 9.24 15.54 33.14 41.63 48a133.63 133.63 0 0 0 66.74 18" style="fill:url(#linear-gradient-3)" transform="translate(-.14)"/><path d="M132.94 218.16c26.94 0 57.6-15.9 80.18-41.62 2.3-2.61 5.22-6 12.19-6a16.8 16.8 0 0 1 11.69 5.57 17.22 17.22 0 0 1 4.27 13.68c-.9 9.24-15.54 33.14-41.63 48a133.63 133.63 0 0 1-66.74 18" style="fill:url(#linear-gradient-4)" transform="translate(-.14)"/><path d="M206.24 100.84c11.49 15.34 21.22 21.13 30.57 18.76 13.51-3.44 15.19-22 15.37-27.66v-.23l-.18-.11c-4.77-3.3-12.73-8.77-26.08-27.7" style="fill:url(#linear-gradient-5)" transform="translate(-.14)"/><path d="M60.13 100.84C48.64 116.18 38.91 122 29.56 119.6c-13.51-3.44-15.18-22-15.37-27.66v-.23l.16-.11c4.76-3.3 12.73-8.77 26.08-27.7" style="fill:url(#linear-gradient-6)" transform="translate(-.14)"/><path d="M173.65 18.28c-9.05-3-15.9-5.39-27.05-6.38 5.14-3.57 9.7-6.59 15-6.59 2.75 0 5.11 1.05 5.66 3 .5 1.76-.88 2.52-1.37 2.4s-.88-.28-.76-.76-.25-1.78-2-1.78a2.58 2.58 0 0 0-2.45 2.79c0 1.13 1.79 3 5.1 3s4.91-2.17 4.78-4.17a19.7 19.7 0 0 1 3.15 8.48" style="fill:url(#radial-gradient-5)" transform="translate(-.14)"/><path d="M133.59 6.4a4.54 4.54 0 0 1-4.29 3.39 6.3 6.3 0 0 1-2.62-.33c-.31.48-.58.84-.89 1.36 1.83-.07 6.07-.19 7.77-.19s6.4.24 7.42.32c-1.64-3.84-4.8-9.15-7-9.15h-.28c-.51 0-2.28 1.53-3.23 2.88-1.24 1.77 3.1 1.73 3.1 1.73Z" style="fill:url(#radial-gradient-6)" transform="translate(-.14)"/><path d="M246.62 81.58v-5a62.9 62.9 0 0 1-12.57-15.73s3.14-1.19 4.54-3a5 5 0 0 0 .85-3.26 3.79 3.79 0 0 0-2.05-2.77c-1-.42-2.81-1.38-4.85 1.42-2.16 3-1.59 8.77-1.29 10.09 0 0 4 6.94 15.35 18.23" style="fill:url(#radial-gradient-7)" transform="translate(-.14)"/><path d="M237.17 61.76c1.15 2 4.06 6.86 11.41 13.75 1.22 1.15 4.27 2.12 6 .18a4.23 4.23 0 0 0 1-3 6 6 0 0 0-1.79-3.79c-1.48-1.25-7.79-7.63-12.28-12.64a10.8 10.8 0 0 1-.91 2.44 8.34 8.34 0 0 1-3.43 3.09" style="fill:url(#linear-gradient-7)" transform="translate(-.14)"/><path d="M82.31 79.84v106.37l50.86 32.68L184 186.21 184.1 80a68.5 68.5 0 0 0-7.66-6.23H89.66a84 84 0 0 0-7.35 6.07Z" style="stroke:#000;stroke-miterlimit:3.55;stroke-width:1.93px;fill:none" transform="translate(-.14)"/><path d="M170.46 255.82a99.6 99.6 0 0 1-17 3.47s.27.85 2.1.78a3.4 3.4 0 0 0 1-.26 1.19 1.19 0 0 1 1.24 1.36c-.08.64-.62 1.44-2.49 1.44s-4-1.52-5.14-2.94a15 15 0 0 1-2.17.33 13.59 13.59 0 0 0 10.65 5c7.76 0 10.64-7 11.85-9.19" style="fill:url(#radial-gradient-8)" transform="translate(-.14)"/><path d="M.96 146.64a23.26 23.26 0 1 1 23.26 23.27A23.28 23.28 0 0 1 .96 146.64Z" class="cls-3"/><path d="M6.43 145.77a17.8 17.8 0 0 1 17.93-17.64 17.65 17.65 0 1 1 0 35.29 17.79 17.79 0 0 1-17.93-17.65" style="fill:url(#radial-gradient-9)" transform="translate(-.14)"/><path d="M29.16 162.63c-1 .33-1.46-.39-1.93-.9-1.81-2.08-2.27-7.63-2.27-8.36s.27-1.55.79-1.57a15.62 15.62 0 0 0 10.35-3.72 16.9 16.9 0 0 0 4.35-5.5c.24-.53.84-.43.95.3a15 15 0 0 1 .35 2.9 17.82 17.82 0 0 1-12.59 16.85m-4.6.72h-.39a19.7 19.7 0 0 1-8.85-2.35c-2.18-1.19-3-6.77-3-9.59a28.87 28.87 0 0 1 4.37-15.72 2.5 2.5 0 0 1 2.93-.93c1 .29 1.39.47 2.56.82a28 28 0 0 0 2.79.62c.94.22 1.94.42 1.34 2.16s-2.63 5.94-2.84 10.91A32.7 32.7 0 0 0 24.86 161c.67 1.77.67 2.44-.34 2.4m-13.29-21c-.86-.45-1.89-2.66-2.24-3.31a3.33 3.33 0 0 1 .1-2.36 14.3 14.3 0 0 1 6.1-6.06c.32-.14.77-.16.77.61 0 .41.22 1 .23 1.46a2.77 2.77 0 0 1-.35 1.92 30.9 30.9 0 0 0-3.5 7.16c-.09.52-.25 1.07-1.11.58m-.49 14.74c-2.43-2.41-4.17-6.76-4.17-11.35a18.2 18.2 0 0 1 .74-5.1s.43-.72.81-.11.69.91 1 1.52 2.24 2 2.09 3.2a42.3 42.3 0 0 0 .13 11c.18.95-.08 1.36-.62.89m7.69-28a18.3 18.3 0 0 1 5.7-.93 15.35 15.35 0 0 1 8.38 2.11 1.65 1.65 0 0 1 .81 1.59c0 2.3-3.6 3.07-6 3.07a27.2 27.2 0 0 1-7.43-1.61c-2.08-.65-2.53-1.85-2.53-2.4s.4-1.61 1.05-1.83m16.24 2.56 1.17.95a15.7 15.7 0 0 1 4.16 5.3c1.1 2.64-2.32 6.64-3.32 7.56-4.52 4.24-7.35 4.16-9 4.4a2.06 2.06 0 0 1-2.6-2c.1-3.53 2.61-9.62 3.34-10.76a4.1 4.1 0 0 1 1.26-1.2 8.84 8.84 0 0 0 4.22-2.06 4.1 4.1 0 0 0 .87-2.22m-10.36-4.63a19.56 19.56 0 1 0 19.57 19.55 19.55 19.55 0 0 0-19.57-19.55" class="cls-4"/><path d="M219.06 146.59a23.26 23.26 0 1 1 23.26 23.28 23.25 23.25 0 0 1-23.26-23.28Z" class="cls-3"/><path d="M255.95 157.05c-.51.5-.8.06-.59-.88a43.4 43.4 0 0 0 .11-10.94c-.16-1.17 1.73-2.6 2.08-3.21s.75-1.07 1-1.51c.39-.63.8.08.8.08a17.5 17.5 0 0 1 .74 5.12c0 4.6-1.76 8.94-4.17 11.34m-1.58-15.3a32 32 0 0 0-3.5-7.17 2.58 2.58 0 0 1-.36-1.91c0-.41.23-1.06.23-1.48 0-.74.45-.73.77-.59a14.2 14.2 0 0 1 6.11 6.05 3.42 3.42 0 0 1 .09 2.35c-.34.65-1.36 2.86-2.24 3.33s-1-.08-1.1-.58m-2.94 19.13a19.8 19.8 0 0 1-8.87 2.41h-.38c-1 0-1-.66-.33-2.43a33.2 33.2 0 0 0 1.39-11.71c-.2-5-2.21-9.14-2.83-10.9s.4-1.95 1.35-2.15 2.18-.46 2.79-.65c1.16-.36 1.53-.53 2.55-.82a2.58 2.58 0 0 1 2.95.93 29.36 29.36 0 0 1 4.36 15.75c0 2.8-.82 8.37-3 9.57m-13.84 1.68a17.83 17.83 0 0 1-12.6-16.85 17.6 17.6 0 0 1 .33-2.9c.14-.73.69-.85 1-.31a16.6 16.6 0 0 0 4.35 5.51 15.72 15.72 0 0 0 10.36 3.74c.53 0 .78.81.78 1.56s-.45 6.28-2.25 8.34c-.48.53-.95 1.26-1.94.91M226.8 138a15 15 0 0 1 4.06-5.36s.83-.71 1.15-1a3.94 3.94 0 0 0 .91 2.18 8.6 8.6 0 0 0 4.12 2.13 4.4 4.4 0 0 1 1.26 1.22c.75 1.11 3.24 7.19 3.35 10.75a2.06 2.06 0 0 1-2.6 2c-1.61-.22-4.44-.17-8.95-4.39-1-.92-4.42-4.91-3.3-7.56m7.38-7.71a15.4 15.4 0 0 1 8.38-2.11 18.1 18.1 0 0 1 5.71.94c.67.2 1.06 1.28 1.06 1.82s-.44 1.75-2.54 2.41a27.8 27.8 0 0 1-7.41 1.6c-2.41 0-6-.78-6-3.07a1.65 1.65 0 0 1 .8-1.59m8.19-3.23a19.54 19.54 0 1 0 19.57 19.53A19.55 19.55 0 0 0 242.37 127" class="cls-4"/><path d="M224.79 145.69a17.94 17.94 0 1 1 17.94 17.64 17.8 17.8 0 0 1-17.94-17.64" style="fill:url(#radial-gradient-10)" transform="translate(-.14)"/></svg>