<svg xmlns="http://www.w3.org/2000/svg" viewBox="0 0 572.24 700"><defs><style>.cls-1{fill:#fff}.cls-3{fill:#faac28}.cls-4{fill:#231f20}</style></defs><g id="Layer_2" data-name="Layer 2"><g id="Layer_2-2" data-name="Layer 2"><g id="g2972"><g id="g2974"><g id="g9"><g id="g2976"><g id="g2982"><path id="path2984" d="M572.23 0H0v459.14c0 27.6 8.16 53.13 21.59 75.48s32.08 41.69 53.35 57.54c35.6 26.49 77 44.49 114.49 59.94s71.16 28.48 90.1 42.92l6.59 5 6.59-5c18.93-14.44 52.65-27.59 90.09-42.92s78.9-33.45 114.5-59.94c21.27-15.85 39.9-35.16 53.34-57.54s21.61-47.89 21.6-75.48Z" class="cls-1"/></g><g id="g2986"><path id="path2988" d="M561.3 10.94H286.12V686.3c42.29-31.93 136.22-51.94 204.65-102.91 40.62-30.25 70.53-73.39 70.53-124.25Z" style="fill:#2d579b"/></g><g id="g2990"><path id="path2992" d="M10.94 10.94v448.2c0 50.86 29.91 94 70.53 124.25 68.43 51 162.36 71 204.65 102.91V10.94Z" class="cls-3"/></g><g id="g2994"><path id="path2996" d="M493.38 40.7S468.22 65.49 420 89.9c-4.3-26.59 10.13-34.71 13.81-49.2 0 0-25 13.61-37.1 60.09a434.7 434.7 0 0 1-75.85 24.63C322 98.34 327.7 78 332.17 55.09c-22.71 10.79-43.69 48.91-40.56 81.11-29.41-12.06-44.9-42.73-49.81-75.47-18 30.75-11.46 70.57 11.3 86.77-33.5-1.34-44.54 8.1-62 18.54-7.72 4.63-16.71 10.31-29.46 14.83-11.22 4-37.81 1.43-44.08 7.71-5.87 5.86-3.71 11.22-8.73 29.77 35.2 4.69 99.81 4.34 99.81 73 0 30.19-6.85 47.54-.94 73.35-7.9.07-16 .1-24.31.1-10.49 0-21.32-.07-32.19-.21l-6.31-.08v18.3l6 .23c12.57.47 16.51.82 17.73 1a40 40 0 0 1 .49 5.95c.13 9.18.2 17.51.2 24.71 0 13.5-.32 26.25-.94 37.89a27 27 0 0 1-.66 5.31 51.4 51.4 0 0 1-8.63.75l-8.18.28-6 .22v18.43l6.42-.2c9.42-.29 20.13-.45 31.91-.49l.09.58a125 125 0 0 1 1.28 14.76c-8.23.05-16.31.07-24.08.07-7.56 0-16.72-.08-27.24-.25L127 492v16.52l6 .19c4.82.15 7.61.31 9.21.44.18 1.48.4 3.94.57 7.93.3 7.07.45 13.75.45 19.87 0 7.59-.31 14.42-.91 20.32-1.64.12-4.44.25-9.15.27h-6.2v16.69l6.32-.1c14.77-.23 26-.35 33.51-.35 8.4 0 17.52.12 27.1.35l6.37.15.58-11.13.78-13.23h21.54l-.2-6.42c-.17-5.84-.27-10.14-.27-12.79s.09-5.54.26-8.31l.13-2h8.55l.32-5.89a55 55 0 0 1 2.1-13.11l1-3.34-2.31-2.62-.91-1-1.68-1.89c6.26-.14 13.11-.21 20.51-.21.76 0 1.4 0 1.94.07v5.7c0 5-.07 11.88-.07 20.89 0 4 0 8.19.1 12.29.09 7.15.19 14.55 0 21-.27 8.23 0 14 .19 17.86.06 1.37.13 2.88.12 3.74a21 21 0 0 1-3 .46c-5.64.51-11.15.77-16.35.77h-6.2v19.34l6.4-.19c12.66-.37 29.5-.55 50-.55 15.62 0 30.53.18 44.33.55l6.39.17v-19l-5.93-.27c-12.55-.59-17.67-1-19.75-1.25a10.4 10.4 0 0 1-.29-1.48c-.27-2-.59-7.67-.65-22.79a36 36 0 0 0 7.52 10.25c6.51 6.33 15.75 11.25 27.46 14.62 11.27 3.25 25.15 4.9 41.25 4.9a173 173 0 0 0 22.91-1.35 138 138 0 0 0 20.96-4.71l2.13-.64 1.25-1.84a39 39 0 0 1 3.54-4.44l5.48-6-7.19-3.75-2.23-1.16-2.18-1.14-2.37.66a131 131 0 0 1-17.4 3.72 128 128 0 0 1-16.88 1.06c-15.09 0-27-2.5-35.28-7.43-8.16-4.81-12.12-10.72-12.12-18.07 0-6.7 3-11.62 9.57-15.5 7.39-4.38 17.76-6.61 30.82-6.61a99 99 0 0 1 15.46 1.11 45 45 0 0 1 10.3 2.65c.76.32 1.34.59 1.8.81.12 1.07.27 2.76.45 5.36l.38 5.8h19l.54-5.62a62.6 62.6 0 0 1 1.64-9.91v-.05a13.1 13.1 0 0 1 1.58-3.58l2.27-3.77-2.8-3.4-.63-.76-1.38-1.67-2.12-.46a219 219 0 0 0-23.1-3.64 228 228 0 0 0-23.43-1.2c-2.43 0-4.8.05-7.13.12a136 136 0 0 1 2.74-15.33l.43-1.74c9.6.06 20.23.21 31.74.48l6.36.14v-18.34l-5.94-.27c-10.95-.5-15.23-.85-16.88-1a110 110 0 0 1-.84-12c-.32-9.24-.48-18.21-.48-26.66 0-16.47.31-27.74.92-33.5a14 14 0 0 1 .3-1.71c1.93-.26 6.47-.68 16.9-1l6-.19v-18.42l-6.36.15c-7 .15-14.21.25-21.62.31 3.7-4.06 6.28-10.05 6.28-19.45 0-11.5-12.05-14.77-25.79-39.81-10.24-18.67-31-64.61-29.26-104.78h-26.7v-39S453.88 117.56 493.38 40.7" class="cls-1"/></g><g id="g2998"><path id="path3000" d="M151.12 471.17v-6l8.14-.29q9.9-.28 12.4-1.79t2.92-10.15q.94-17.64 1-38.22 0-10.94-.21-24.87-.21-8.43-1.84-10.29a6.13 6.13 0 0 0-3-1.49q-2.19-.58-19.37-1.22v-6q16.49.23 32.28.22 18.38 0 35.41-.22 7.37 9.07 15.28 18 5.58 6.36 49.52 53.95 46.42-48.87 65-72 16.33.36 31 .36 17.28 0 33.33-.36v6q-17.86.57-20.18 1.65c-1.55.71-2.54 2.9-3 6.57q-1 9-.95 34.23 0 12.7.47 26.86t1.84 16a6 6 0 0 0 2.73 1.65q1.77.57 19.09 1.36v6q-22.08-.5-39.41-.5t-47.46.5v-6l8.05-.15q9.54-.21 11.93-1.39t3.07-6.22q.67-5 .68-23.76v-43.11q-21 22.11-53.66 57.94-13.38 14.73-20.89 24h-9q-10.23-12.3-27.44-31.11l-47.23-50.86v9.72q0 40.31.68 55.52c.27 4.1 1.32 6.62 3.14 7.58s8.59 1.57 20.32 1.86v6q-13.89-.5-27.77-.5-20.68 0-36.88.5" class="cls-4"/></g><g id="g3002"><path id="path3004" d="m428.05 561.07 2.23 1.16a44 44 0 0 0-4.1 5.16 129.6 129.6 0 0 1-19.94 4.37 166 166 0 0 1-22.08 1.3q-23.39 0-39.53-4.66t-24.84-13.1q-8.7-8.46-8.7-19.38 0-15.74 19.67-25.78t54.29-10.05a221 221 0 0 1 22.79 1.17 209 209 0 0 1 22.44 3.54l.62.76a19.8 19.8 0 0 0-2.28 5.26 68 68 0 0 0-1.82 10.93h-7.49q-.54-8-1.08-8.78c-.35-.52-2-1.42-4.9-2.68a50.4 50.4 0 0 0-11.8-3.09 105 105 0 0 0-16.45-1.2q-21.37 0-34 7.49t-12.61 20.85q0 14.48 15.16 23.42 14 8.31 38.45 8.3A133 133 0 0 0 409.8 565a137 137 0 0 0 18.25-3.89" class="cls-4"/></g><g id="g3006"><path id="path3008" d="M133.18 567.9v-4.17q11.53 0 13.45-.94c1-.4 1.54-1.58 1.72-3.53a201 201 0 0 0 1.09-22.34q0-9.39-.45-20.14t-1.55-12.39a2.9 2.9 0 0 0-1.54-1c-1-.37-5.27-.66-12.72-.9v-4.16q15.9.24 27.34.25 16.71 0 35.06-.14 12.07-.11 20.35-.11c3.93 0 7.68.06 11.26.2l.91 1a61.2 61.2 0 0 0-2.37 14.61h-7.63l-.72-5.31c-.18-1.69-.59-2.72-1.23-3.1s-2.87-.77-6.72-1.17-9.34-.6-16.48-.6q-7.9 0-16.71.45a116 116 0 0 0-1 11.88l.18 10.69-.09 2.29q5.44.15 13.17.15 13.89 0 16.71-.35a3.84 3.84 0 0 0 2.09-.8c.66-.7 1.21-2.78 1.63-6.24h7.81q-.27 4.37-.27 8.7 0 4.06.27 13h-7.81c-.48-4.29-1.06-6.81-1.72-7.54a4.05 4.05 0 0 0-2.27-.84q-4.37-.64-17.72-.65l-11.89.15.36 19c.24 4.59.67 7.25 1.27 8a3.9 3.9 0 0 0 1.91 1q1.81.49 15.17.89v4.17q-14.53-.36-27.25-.35-11.26 0-33.61.35" class="cls-4"/></g><g id="g3010"><path id="path3012" d="M233.62 588v-6.71q8.12 0 16.95-.79a16.9 16.9 0 0 0 5.84-1.32 5.73 5.73 0 0 0 2.56-3.39c.66-2.29-.6-8.85-.12-23.38.28-10.32-.11-22.7-.11-33.45 0-21.12.24-30.61 0-31s-1.59-1.86-8.06-1.86q-19.85 0-34.12.64-8.28.4-9.35.8a3.05 3.05 0 0 0-1.64 1.4q-.57 1-2.43 14h-12.25a156 156 0 0 0-1.42-26.36l1.56-.64q44.86 1.2 87.31 1.2t94.71-1.2l1.57 1.28a159.4 159.4 0 0 0-3.85 25.72H359q-1.27-13.47-2.56-14.6c-.67-.59-2.19-1-4.56-1.21Q340.43 486 306.54 486q-2.85 0-3.42.48c-.38.38-.57 1.79-.57 4.24l-.85 53.72q0 23.34.71 28.66c.48 3.54 1.62 5.69 3.44 6.43q1.86.72 22.48 1.68V588q-21-.56-44.5-.56-31 0-50.21.56" class="cls-4"/></g><g id="g3014"><path id="path3016" d="M376.32 152.64c-27.25-2.26-53.39 14.36-53.39 14.36v26.17h20.2c12.22-4.87 25.76-16.88 33.19-40.54" class="cls-1"/></g><g id="g3018"><path id="path3020" d="M112.94 226.57s6.5 21.15 24 21.15c18 0 25.68-3.52 32.5-12.93 0 0-21-10.3-56.47-8.22" class="cls-1"/></g><g id="g3022"><path id="path3024" d="M243.85 174.71s-11.23 10.33-16.93 21l-12.84-1s11.41-18.12 29.77-20" class="cls-3"/></g><g id="g3026"><path id="path3028" d="M117.05 208.09c8.21-10.73 14-6.91 21.56-13.35-1.22-1.83-13.61-1.79-15.4 0-3.41 3.41-6.16 13.35-6.16 13.35" class="cls-3"/></g></g></g></g></g></g></g></svg>