<svg xmlns="http://www.w3.org/2000/svg" fill-rule="evenodd" stroke-linejoin="round" stroke-miterlimit="2" clip-rule="evenodd" viewBox="164.08 64.98 231.83 270.03"><path fill="#981915" d="m279.838 147.218-82.436 72.672c7.294 15.492 16.927 30.11 28.158 43.589 15.698 18.84 34.513 35.442 54.427 49.088 9.868-6.368 19.295-13.984 28.282-22.383 9.741-9.104 18.927-19.076 27.577-29.352a189 189 0 0 0 16.133-22.228c3.82-6.152 7.206-12.363 10.442-18.812zM249.69 248.636c.136.144 1.183.888 1.507 1.141l18.367 14.048c2.25 1.752 4.486 3.33 6.762 5.18-.133 1.394-1.54 2.365-1.531 5.19-3.22-.219-9.818-3.443-12.361-4.844-2.103-1.157-9.232-5.181-10.547-6.547l11.384 3.672c-1.39-.704-3.342-2.077-4.806-2.951-1.706-1.019-2.945-2.438-3.97-4.044-.93-1.455-4.795-8.95-4.805-10.845m42.67 24.114c1.002-.368 2.054-.77 3.14-1.131 1.403-.466 1.35-.902 2.166-1.93 1.661-2.096 2.074-2.264 2.816-5.53.555-2.437.761-1.962-1.678-5.885-1.892-3.042-9.38-.19-7.144-17.044.614-4.634 2.255-8.894 3.208-13.345 2.084.024 6.794 1.876 8.483 2.69 2.628 1.267 4.883 2.763 6.941 4.226-.343.642-4.609 5.293-5.67 6.585-.662.807-1.071 1.298-1.725 2.19-1.847 2.526-4.767 7.34-4.929 11.48.113-.151.124-.158.252-.437l.156-.435c2.023-6.459 6.626-10.88 11.515-15.194l3.298-2.957c1.392.583 4.927 4.758 5.966 6.349.972 1.49 3.479 6.32 3.371 8.532-4.714.125-8.91.823-12.767 2.555-2.953 1.327-7.49 4.115-8.231 6.901 1.056-2.046 6.02-4.265 9.127-5.3 3.447-1.148 9.035-1.95 13.058-1.566 2.034 7.74 2.055 10.777-.902 17.802-.681-.247-5.088-3.268-9.67-4.923-3.176-1.148-8.924-2.69-11.846-.446 4.66-.568 7.352.261 11.2 1.982 2.134.954 6.9 3.641 8.639 5.029-1.097 3.623-5.508 8.645-8.594 9.867-1.995-3.016-3.099-5.604-5.435-7.906-1.407-1.386-5.49-5.138-8.895-4.123 1.187.635 2.042.169 4.498 1.93 2.794 2.005 7.493 9.053 7.658 11.248-2.799 2.19-8.962 4.238-13.54 3.582-.002-2.81-.342-6.027-1.017-8.658-.936-3.652-1.452-4.014-3.45-6.138m-14.328-3.237c1.778.197 12.845 2.936 13.769 3.6 3.139 2.257 3.126 9.484 3.005 14.184-1.057-.389-11.14-6.68-12.159-7.346-1.912-1.247-3.849-2.716-5.661-4.132-1.135-.887-1.676-1.53-.91-3.31.548-1.268 1.37-2.1 1.956-2.996"/><path fill="#fff" d="M251.197 249.777c-.324-.253-1.371-.997-1.507-1.14.01 1.894 3.874 9.39 4.804 10.844 1.026 1.606 2.265 3.025 3.97 4.044 1.465.874 3.418 2.247 4.806 2.951l-11.383-3.672c1.315 1.366 8.444 5.39 10.547 6.547 2.543 1.4 9.141 4.625 12.36 4.844-.009-2.825 1.4-3.796 1.532-5.19-2.276-1.85-4.511-3.428-6.762-5.18zm-2.526-30.08c-1.158-3.293 3.168-2.74 3.841-.795.475 1.374-.577 2.104-1.84 2.06-1.348-.049-13.3-4.835-15.337-5.173.605.56 1.376 1.042 2.17 1.553.753.485 1.508 1.099 2.225 1.558l-9.294-2.218 4.227 1.849-7.417-2.03c.465.156 2.204 1.015 2.861 1.293l9.38 3.976c2.094.854 4.351 1.697 6.064 2.842 1.04.694 4.479 3.045 5.06 3.76-3.431.398-9.03-1.053-12.03-.117-2.451.764-5.43 2.365-7.735 3.655-.6.335-.706.266-.98.764l.29.553c2.045-.671 6.1-3.383 10.354-3.538 2.028-.073 9.982 1.342 11.935 1.862-5.137.01-7.58-2.79-13.533 3.615-1.662 1.788-3.063 2.797-4.606 4.653l-3.725 4.311c-.403.54-.382.2-.28.719.517.932 1.602-.715 2.346-1.52 2.523-2.736 9.302-9.365 12.676-9.807 1.655-.217 6.57.582 8.042 1.05-6.137.272-6.594-.535-12.444 3.849-.656.492-2.995 2.024-2.788 2.482.516.666.978.069 1.448-.256l4.828-2.657c3.2-1.443 4.346-1.578 8.237-1.157-.38.68-2.89 2.265-3.676 2.868-3.444 2.642-4.308 2.916-6.844 6.337-.72.972-2.117 2.875-2.605 3.91.366.444.163.247.615.47 2.657-2.51 1.452-2.754 7.124-7.26l5.676-4.121c1.375-.867 1.672-1.187 3.615-.856 2.595.441 5.579 1.045 8.081 1.728 1.02.279 2.081 1.215 2.976 1.83.985.677 1.93 1.254 2.921 1.887 5.922 3.79 13.453 7.826 20.928 8.246-.622-3.024-1.093-2.557-1.269-7.086-.21-5.386.972-9.584 2.088-14.666.396-1.804 1.105-2.182-3.607-4.098-5.933-2.413-14.743-4.342-18.999-6.115-2.002-.835-3.888-1.898-5.586-2.813.12.463 1.168 2.094 1.445 2.485-2.027-.038-6.098-2.909-7.774-3.641l.632 1.856c-2.527-.403-5.536-3.073-6.823-3.594l.657 1.829c-1.598.22-4.848-1.82-6.04-2.554l-5.557-3.408 4.813 5.083c-1.383-.25-4.52-2.065-5.606-2.808-5.152-3.526-3.367-8.423.405-10.402 2.082-1.092 4.769-1.348 7.405-1.406 9.778-.218 27.268 3.143 35.899 7.466l11.572 5.882c1.966.938 3.828 2.045 5.751 2.98 1.783.866 22.036 11.62 23.081 11.782-.224-.818-.642-.943-1.415-1.39-6.834-3.954-13.267-7.3-20.09-11.08-2.442-1.353-5.039-2.56-7.36-3.94 1.635.309 20.197 8.352 21.945 9.127 3.663 1.623 7.145 3.1 10.762 4.74 1.345.609 9.996 4.762 10.846 4.436-.136-.493-.127-.442-.664-.734l-15.598-7.197c-11.71-5.257-21.887-9.73-33.855-14.6-2.952-1.2-5.872-2.1-8.626-3.48-2.607-1.306-5.473-2.763-8.184-3.928-9.02-3.873-28.818-11.157-38.923-5.043-2.196 1.329-4.593 4.106-4.202 7.908.572 5.56 7.388 10.095 11.69 12.54 1.627.924 6.52 3.365 8.4 3.695m43.689 53.053c1.997 2.124 2.513 2.486 3.45 6.138.674 2.631 1.014 5.847 1.017 8.658 4.577.656 10.74-1.391 13.54-3.582-.166-2.195-4.865-9.243-7.659-11.247-2.456-1.762-3.31-1.296-4.498-1.931 3.406-1.015 7.488 2.737 8.895 4.123 2.336 2.303 3.44 4.89 5.435 7.906 3.086-1.222 7.497-6.244 8.594-9.867-1.739-1.388-6.505-4.075-8.639-5.029-3.848-1.72-6.54-2.55-11.2-1.982 2.922-2.244 8.67-.702 11.846.446 4.582 1.655 8.989 4.676 9.67 4.923 2.957-7.025 2.936-10.062.902-17.802-4.023-.384-9.611.418-13.058 1.566-3.107 1.035-8.07 3.254-9.127 5.3.74-2.786 5.278-5.574 8.231-6.9 3.856-1.733 8.053-2.431 12.767-2.556.108-2.213-2.4-7.043-3.371-8.532-1.039-1.591-4.574-5.766-5.966-6.35l-3.298 2.958c-4.89 4.314-9.492 8.735-11.515 15.194l-.156.435c-.128.279-.139.286-.252.437.162-4.14 3.082-8.954 4.93-11.48.653-.892 1.062-1.383 1.725-2.19 1.06-1.292 5.326-5.943 5.669-6.585-2.058-1.463-4.313-2.959-6.94-4.226-1.69-.814-6.4-2.666-8.484-2.69-.953 4.45-2.594 8.71-3.208 13.345-2.236 16.854 5.252 14.002 7.144 17.044 2.44 3.923 2.233 3.448 1.678 5.885-.742 3.266-1.155 3.434-2.816 5.53-.816 1.028-.763 1.464-2.167 1.93-1.085.36-2.137.763-3.14 1.131m-14.328-3.237c-.586.895-1.408 1.728-1.955 2.997-.767 1.779-.226 2.422.909 3.309 1.812 1.416 3.75 2.885 5.661 4.132 1.02.666 11.102 6.957 12.16 7.346.12-4.7.132-11.927-3.006-14.184-.924-.664-11.991-3.403-13.769-3.6"/><g fill="#981915"><path d="M318.312 137.439c.682-1.07.328-1.847 1.446-2.658 1.694-1.23 4.418-1.112 5.658 1.07.767 1.35.185 1.88-.124 3.125 1.126-.336 2.159-.715 3.197.034 2.225 1.604 2.192 6.113-1.836 6.78.507 1.044 1.215 1.548.57 3.223-.896 2.321-3.574 2.981-5.275 2.06a3.5 3.5 0 0 1-1.066-.895l-.827-1.2c-.916 2.25-3.69 2.385-5.329.586-2.482-2.725-.103-4.793.478-5.544-1.066-.621-1.56-.412-2.152-1.679-.914-1.956.157-4.296 2.019-5.122 1.337-.593 2.065-.064 3.24.22m-7.02.846c-2.71.175-4.575-1.451-6.48.788-1.67 1.965-.099 4.646.27 6.79.228 1.328-.263 2.59.147 4.13 1.546 5.818 6.43 1.975 8.067 1.453-.826 2.623-3.93 6.81 1.57 8.113 1.73.41 2.493-.133 3.985-.108 1.556.027 5.169 1.659 7.035-.022 2.125-1.914.37-4.076.325-6.6.43.303.806.557 1.207.966 1.13 1.151 2.657 2.694 4.936 1.596 2.099-1.01 2.224-4.18 3.409-6.34 1.791.659 6.892 4.374 8.725 5.842 1.034.827 1.781 1.42 2.688 2.296 1.657 1.6 3.443 3.083 4.93 4.868 1.01 1.213 3.76 4.193 4.434 5.412-3.397-1.183-5-2.981-10.615-3.568-3.907-.409-7.174.216-10.762 1.428-.18.06-.416.115-.65.222l-.241.125c-.242.146-.197.123-.32.25.599.525 1.137.132 2.595-.282 7.704-2.185 12.87-1.066 19.716 3.298 3.65 2.326 3.844 3.541 6.384 8.043 1.307 2.318 4.405 9.29 4.76 9.809 1.089.094 1.66-.527 2.028-1.277.558-1.14.098-1.621-.38-2.474-5.197-9.285-6.524-11.363-13.293-19.655-1.378-1.688-4.863-5.504-6.684-6.503.124-.88 1.108-2.708 1.473-3.783 1.289-3.794 1.3-9.149.765-13.196-.109-.826.072-.614-.447-1.039-.597.947-.117 3.043-.077 4.441a25.8 25.8 0 0 1-1.286 8.753c-.433 1.324-1.221 2.466-1.588 3.59-1.11-.4-6.792-5.835-11.098-7.87.974-2.89 2.458-5.88-2.843-6.775-.596-.101-1-.086-1.454-.41 1.931-.816 4.903-1.99 4.446-4.895-.26-1.657-3.46-3.77-4.53-4.916-.893-.956-2.353-4.208-5.378-3.987-2.314.17-3.148 3.325-4.26 5.052-.422-1.043-.227-2.664-.68-3.741-.382-.91-1.509-1.83-2.742-1.942-2.567-.233-4.407 2.22-6.415 2.745-1.356.355-2.19.388-3.265 1.154-3.94 2.81-1.068 5.78 1.593 8.22M244.37 137.278c1.91.972 2.815 3.32 1.838 5.178-.63 1.198-1.07.968-2.092 1.564.601.778 1.436 1.213 1.525 2.677.23 3.758-4.937 5.816-6.376 2.28-.483.45-.461.774-.908 1.3-1.068 1.258-2.889 1.52-4.39.782-.927-.455-1.542-1.07-1.92-2.176-.554-1.619.132-2.088.62-3.092-2.062-.342-3.657-1.919-3.257-4.433.158-.995.914-2.04 1.523-2.423 1.038-.653 2.034-.276 3.094.04-.316-1.223-.932-1.723-.127-3.127.447-.78 1.187-1.508 2.345-1.754 3.907-.831 4.46 2.87 4.762 3.346 1.208-.296 2.017-.847 3.363-.162m-7.465-8.038-.38 2.616c-1.14-1.7-1.918-4.992-4.42-5.05-3.018-.07-4.39 3.121-5.311 4.071-1.097 1.131-4.294 3.236-4.464 4.978-.275 2.801 2.527 3.922 4.467 4.74-.215.155.108.015-.4.203l-1.055.208c-5.4.914-3.745 4.018-2.842 6.777-4.33 2.074-10.018 7.487-11.1 7.87-.37-1.138-1.153-2.26-1.588-3.591-.93-2.857-1.397-5.86-1.28-8.932.085-2.23.66-3.993-.382-4.262-.038 3.556-.797 3.708-.301 9.82.124 1.526.432 2.957.872 4.282.38 1.145 1.393 3.013 1.52 3.915-.789.432-2.844 2.27-3.478 2.94-5.75 6.081-9.737 11.555-14.056 18.893-.857 1.456-1.59 2.78-2.377 4.214-.443.807-.965 1.337-.506 2.461.334.817 1 1.495 2.089 1.4.364-.532 3.405-7.407 4.695-9.695 2.448-4.34 2.796-5.84 6.34-8.086 6.763-4.284 11.942-5.62 19.687-3.407 1.414.404 2.134.846 2.732.321l-.561-.375c-2.977-1.353-8.129-1.994-11.412-1.65-5.612.587-7.232 2.39-10.615 3.568 1.489-2.69 7.127-8.18 9.274-10.193 2.126-1.992 8.897-7.266 11.503-8.225 1.162 2.119 1.316 5.23 3.291 6.28 2.91 1.547 4.825-1.49 6.26-2.503-.032 1.44-2.921 7.889 3.507 7.307 1.344-.122 2.749-.62 3.676-.677.916-.058 4.966.998 6.822-1.323 1.547-1.937-.57-5.01-1.089-6.688 1.733.551 6.396 4.313 8.029-1.325.459-1.586-.018-2.68.17-4.119.266-2.04 1.96-4.808.365-6.831-1.87-2.374-3.779-.707-6.56-.887.935-.858 3.255-3.033 3.527-4.78.342-2.2-2.2-3.911-4.046-4.35-3.158-.751-3.192-1.717-5.695-2.68-2.42-.93-4.25.108-4.908 2.765"/><path d="M342.667 128.527c0 3.363-.364 5.857 1.839 7.824 1.254 1.12 3.717 1.946 5.905 2.05.586-3.342.26-4.03-1.663-5.933-1.233-1.22-2.903-2.57-2.983-5.253 1.534.28 3.46 1.942 4.147 2.84 1.749 2.284 1.663 4.722 1.535 7.525 3.317-5.105.54-13.84-9.979-13.443.364 1.313 1.199.864 1.199 4.39M208.838 138.4c3.405-.141 6.583-1.574 7.464-4.296.55-1.698.333-3.598.35-5.402.037-3.934.781-3.068 1.198-4.563l-2.313.027c-2.517.763-5.211.727-7.566 4.1-1.79 2.568-1.862 6.604-.128 9.316.164-3.094-.412-4.222 1.145-6.877.737-1.256 2.749-3.157 4.566-3.49-.08 2.676-1.742 4.026-2.983 5.253-2.779 2.75-1.741 3.339-1.733 5.932M324.745 172.459c-.082-3.087 3.609-6.473 7.79-6.792-3.769-.864-6.381.288-8.085 2.48-1.814 2.333-2.21 7.064-1.15 8.742 1.414-.853.869-1.321 3.358-1.91 4.649-1.1 7.42-1 6.993-8.55-5.815-1.047-4.394 5.198-8.906 6.03M232.802 175.012c2.35.574 1.87 1.064 3.218 1.877.614-1.018.628-3.652.414-4.948-.755-4.579-4.353-7.488-9.65-6.274 4.181.32 7.872 3.705 7.79 6.792-4.475-.825-3.122-7.071-8.905-6.03-.438 7.715 2.515 7.455 7.133 8.583M218.677 165.721c.298.598.284.463.784.915 2.663 2.414 2.481 6.847 1.195 7.86-1.743-2.502.386-7.716-3.16-8.636-.64.442-1.607 2.196-1.927 2.947-2.09 4.922 3.196 5.74 3.598 10.066 1.541-.702 3.518-4.363 3.688-6.71.228-3.162-1.744-5.965-4.178-6.442M338.663 174.495c-.53-.418-.778-1.359-.89-2.376-.407-3.704 2.435-5.524 2.87-6.398-3.52.69-5.686 5.513-2.84 10.458.37.64 1.575 2.341 2.349 2.694.3-3.238 2.48-3.756 3.605-6.028 1.341-2.709-1.11-6.415-1.933-6.985-1.469.381-2.19 1.885-2.291 3.647-.12 2.078.135 3.546-.87 4.988M320.38 139.388c-5.06 1.298-3.02 8.54 1.785 7.231 4.532-1.233 2.925-8.439-1.784-7.231M237.631 139.319c-4.97.768-3.804 8.203 1.231 7.381 1.839-.3 3.361-2.173 2.968-4.395-.318-1.799-2.127-3.306-4.199-2.986M249.625 137.556c.868-.041 1.635-.422 2.447-.63 1.47-.377 1.506.112 2.662.214 1.445.129 2.631-2.042 2.966-3.398-.852-.339-1.615-.563-2.62-.602-1.534-.06-1.685.096-2.176 1.231-.93 2.152-2.848 2.022-3.279 3.185M301.62 133.742c.334 1.356 1.52 3.527 2.965 3.398 1.157-.102 1.191-.59 2.662-.215.812.208 1.58.59 2.447.631-.43-1.163-2.348-1.033-3.279-3.185-.461-1.067-.558-1.257-1.994-1.237-1.076.016-1.895.247-2.802.608zM252.833 158.705c.173-1.706-.129-3.995-1.715-4.264-1.104-.187-1.7-.36-2.365-.89-.585-.465-1.11-1.13-1.93-1.403.542 2 1.663 1.477 1.848 4.52.075 1.234.476 1.28 1.58 1.626.75.234 1.806.627 2.582.41M322.943 130.89c1.02-1.189.163-2.377 2.142-4.137 1.396-1.24-.034-3.647-.895-4.54-.995.246-2.82 2.503-2.542 3.52.392 1.432 1.06.283 1.075 3.685.002.518-.028 1.076.22 1.471zM306.486 158.705c.737.205 1.74-.158 2.443-.368 3.03-.907.805-1.632 2.345-4.078.47-.747.975-1.201 1.221-2.11-1.68.559-1.493 1.882-4.138 2.273-1.87.276-2.031 2.697-1.87 4.283M331.278 161.614c.498-3.445.695-4.028-1.13-4.666-1.933-.677-1.994-2.282-3.269-2.97.023.874.43 1.537.707 2.315.57 1.598-.058 1.681 0 2.866.059 1.18 2.454 2.525 3.692 2.455zM333.664 140.459c.034.028.093.017.113.069l1.456.159c2.184 0 3.328 1.22 4.041 1.128.967-.127 2.73-1.827 2.959-2.603-.859-.792-3.2-2.192-4.43-.99-2.427 2.375-2.668 1.192-4.14 2.237M228.04 161.614c1.24.07 3.634-1.275 3.692-2.455.054-1.087-.535-1.245-.047-2.734.284-.867.73-1.517.755-2.447-1.275.688-1.336 2.293-3.27 2.97-1.81.633-1.633 1.184-1.13 4.666M217.087 139.212c.125.717 2.366 3.036 3.63 2.51.32-.133.523-.392.99-.617 1.346-.647 2.695-.294 3.438-.428.05-.01.102-.025.146-.036l.364-.182c-1.476-1.044-1.717.135-4.14-2.235-1.229-1.203-3.566.197-4.428.988M234.062 123.719c-1.077 3.942.157 1.922 1.311 4.387.41.878.434 2.118 1.003 2.783l.188-.583c.139-.914-.158-1.884.217-2.5-.081-1.8 2.625-1.737-.815-5.099-.443-.433-.223-.342-.837-.493z"/></g><path fill="#fff" d="m371.25 91.883.13 3.583c-1.11-.83-2.729-1.591-4.11-1.557-2.99.074-4.043 2.515-3.76 5.382.387 3.934 2.414 7.237 6.124 7.155 1.152-.026 1.895-.108 2.891-.682l.514 3.667c-1.322.415-2.699.346-4.073.25-7.011-.496-9.645-6.079-10.056-11.314-.402-5.125 2.899-8.062 6.744-8.021 2.251.024 4.26.86 5.595 1.537m-182.825-.585 6.068-.726 2.17 12.078 3.72-12.815 6.64-.612-1.424 18.605-3.84.407 1.276-15.319-5.568 15.778-2.731.398-2.965-14.807-1.324 15.17-3.836.53zm29.349-3.381c6.07-.408 7.455 4.767 7.024 9.439-.452 4.903-2.66 9.05-8.242 9.745-6.229.775-7.94-4.162-7.597-8.837.355-4.836 2.928-9.95 8.815-10.347m-.302 3.127c-3.173.294-3.627 4.654-3.832 6.657-.164 1.597-.152 6.505 2.736 6.26 3.064-.261 3.82-4.623 3.945-6.768.107-1.83-.169-6.398-2.849-6.15m10.634-3.64c1.342-.096 3.026-.227 4.386-.325 3.472-.248 7.866-.49 7.634 4.685-.103 2.271-1.527 3.732-3.744 4.442.633.013 1.176.333 1.523.88.565.897 2.16 6.575 2.598 8.11l-4.66.242c-.411-1.73-.98-3.602-1.338-5.343-.299-1.454-.446-2.172-2.038-2.06-.242.016-.414.13-.638.144l-.366 7.498-4.367.355zm4.044 2.796c-.093 1.595-.17 3.25-.264 4.843.28-.02.582-.045.856-.068 2.303-.185 3.083-1.182 3.115-2.65.046-2.062-1.148-2.248-2.745-2.192-.308.01-.664.046-.962.067m10.969-3.73 10.531-.415-.027 3.328-6.288.014-.147 4.411 5.896-.204-.063 3.145-5.976.183-.116 4.725 6.52-.278-.03 3.172-11.064.56zm25.937-.246-.123 3.616c-.948-.604-2.253-1.037-3.439-1.03-3.477.019-5.179 2.98-5.079 6.208.095 3.057 1.18 6.248 4.82 6.16 1.22-.03 2.684-.547 3.692-1.211l.066 3.694c-1.243.631-3.284.812-4.72.879-6.233.289-8.419-4.346-8.414-9.368.005-5.06 2.989-9.772 9.048-9.795 1.775-.007 2.612.196 4.148.847zm7.367-.666 4.92-.066 5.958 18.719-4.587-.001-1.107-4.301-5.949.016-1.135 4.211-4.33.034zm2.38 3.556-2.22 7.645 4.18-.006zm9.76-3.506 6.143.069 3.449 12.47 3.003-12.365 5.997.271.662 18.599-3.984-.05-.273-15.232-3.978 14.954-2.74-.052-4.52-15.338.149 15.202-3.695-.012zm22.282.561c1.733.073 4.01.249 5.779.329 3.579.161 6.111 1.546 6.178 5.162.04 2.19-1.033 3.575-3.19 3.85 3.086.772 3.876 2.637 3.975 5.104.169 4.213-3.415 4.487-6.597 4.382-1.733-.057-3.854-.128-5.587-.19zm4.116 3.368.173 4.507c.28.01.647.04.945.051 1.603.061 2.645-.307 2.585-2.022-.06-1.73-.953-2.335-2.609-2.4-.28-.012-.852-.123-1.094-.136m.356 7.361.1 4.9.95.038c1.769.067 3.011-.293 3.01-2.137-.003-1.864-1.096-2.725-2.94-2.794-.317-.012-.803.006-1.12-.007m10.249-10.009 10.572.83.202 3.164-6.286-.305.15 4.286 6.066.293.19 3.243-6.041-.427.254 4.673 6.732.47.171 3.298-11.07-.893zm20.855 1.766 9.972.863.197 3.3-5.791-.696.37 4.577 5.603.524.274 3.203-5.642-.528.655 7.668-4.406-.378z"/><path fill="#bca065" d="M174.43 71.62c36.629-4.623 72.467-6.753 107.584-6.614 35.129.14 69.523 2.548 103.255 7l2.846.376.27 2.854 6.855 72.4h.002c1.577 15.683.428 32.516-4.495 50.39-4.444 16.135-11.95 33.09-23.287 50.774-11.061 17.253-23.703 32.577-37.401 46.177-15.019 14.91-31.276 27.725-48.088 38.719L279.977 335l-1.983-1.333c-12.092-8.123-24.566-17.147-36.888-27.98-12.365-10.872-24.632-23.61-36.302-39.16-8.21-10.938-15.499-21.838-21.624-33.563-6.157-11.785-11.12-24.36-14.635-38.577-2.392-9.675-3.703-18.37-4.206-26.882-.5-8.479-.194-16.77.645-25.67L171.3 74.85l.27-2.869zm107.555.579c-33.894-.135-68.47 1.864-103.792 6.202l-6.044 64.11c-.804 8.517-1.097 16.453-.617 24.57.477 8.084 1.726 16.357 4.008 25.585 3.375 13.652 8.127 25.7 14.015 36.97 5.918 11.33 13.003 21.918 21.003 32.576 11.296 15.051 23.239 27.441 35.315 38.06 11.44 10.059 22.955 18.49 34.14 26.075 15.748-10.464 30.939-22.546 44.969-36.475 13.33-13.234 25.637-28.155 36.413-44.965 10.944-17.07 18.165-33.349 22.413-48.77 4.673-16.965 5.765-32.93 4.27-47.797v-.014l-6.586-69.554a805 805 0 0 0-99.507-6.573"/><path fill="#981915" d="m188.6 89.129-4.614 52.945c-1.05 12.053-1.092 22.652.063 32.8 1.154 10.14 3.496 19.877 7.212 30.215 7.558 21.026 19.552 40.691 34.299 58.39 15.698 18.84 34.513 35.442 54.427 49.088 9.868-6.368 19.295-13.984 28.282-22.383 9.741-9.104 18.927-19.076 27.577-29.352a188.6 188.6 0 0 0 16.133-22.228c4.611-7.427 8.591-14.94 12.437-22.854 4.12-8.476 7.88-19.97 10.204-32.327 2.028-10.78 2.948-22.189 2.038-32.776l-5.304-61.676c-30.543-3.633-61.182-5.215-91.667-5.077-30.488.138-60.94 1.994-91.087 5.235m-12.619 52.254 4.9-56.228.286-3.278 3.277-.363c31.383-3.481 63.213-5.48 95.211-5.624 32.03-.145 64.1 1.564 95.907 5.5l3.235.4.28 3.257 5.585 64.94c.972 11.296-.006 23.446-2.163 34.911-2.457 13.069-6.463 25.282-10.863 34.337-3.977 8.184-8.089 15.945-12.846 23.607-4.752 7.654-10.185 15.253-16.822 23.138-8.906 10.58-18.32 20.806-28.237 30.074-10.01 9.355-20.57 17.79-31.695 24.712l-2.197 1.367-2.15-1.445c-21.304-14.315-41.5-31.952-58.282-52.093-15.314-18.38-27.789-38.853-35.68-60.807-3.945-10.974-6.43-21.297-7.651-32.036-1.22-10.731-1.187-21.832-.095-34.369"/><path fill="#981915" d="M186.032 118.59c63.049-8.189 125.834-8.129 187.865-.048l-2.543-29.571c-30.543-3.633-61.182-5.215-91.667-5.077-30.488.138-60.94 1.994-91.087 5.235l-.316 3.617v-.003l.14-1.444 6.07-.726 2.17 12.077 3.718-12.814 6.64-.613-1.423 18.605-3.84.407 1.276-15.319-5.568 15.778-2.731.399-2.965-14.808-1.324 15.17-3.663.506zm101.27-14.38h-4.588l-1.107-4.301-5.949.016-1.135 4.211-4.33.034 6.23-18.612 4.92-.066zm1.474-.086-.214-18.516 6.144.069 3.449 12.47 3.003-12.365 5.997.271.662 18.599-3.984-.05-.273-15.232-3.978 14.954-2.74-.052-4.52-15.338.149 15.202zm22.627.682-.558-18.637c1.733.073 4.01.249 5.779.329 3.579.161 6.111 1.546 6.178 5.162.04 2.19-1.033 3.575-3.19 3.85 3.086.772 3.876 2.637 3.975 5.104.169 4.213-3.415 4.487-6.597 4.382-1.733-.057-3.854-.128-5.587-.19m15.103.715-.94-18.632 10.572.83.202 3.164-6.286-.305.15 4.286 6.066.293.19 3.243-6.041-.427.254 4.673 6.732.47.171 3.298zm21.147 1.667-1.232-18.533 9.972.863.197 3.3-5.791-.696.37 4.577 5.603.524.274 3.203-5.642-.528.655 7.668zm11.257-8.821c-.402-5.125 2.899-8.062 6.744-8.021 2.251.024 4.26.86 5.595 1.537l.131 3.583c-1.11-.83-2.729-1.591-4.11-1.557-2.99.074-4.043 2.515-3.76 5.382.387 3.934 2.414 7.237 6.124 7.155 1.152-.026 1.895-.108 2.891-.682l.514 3.667c-1.322.415-2.699.346-4.073.25-7.011-.496-9.645-6.079-10.056-11.314m-134.112-1.011c-.452 4.903-2.66 9.05-8.242 9.745-6.229.775-7.94-4.162-7.597-8.837.355-4.836 2.928-9.95 8.815-10.347 6.07-.408 7.455 4.767 7.024 9.439m2.298 8.676 1.01-18.629c1.342-.095 3.026-.226 4.386-.324 3.472-.248 7.866-.49 7.634 4.685-.103 2.271-1.527 3.732-3.744 4.442.633.013 1.176.333 1.523.88.565.897 2.16 6.575 2.598 8.11l-4.66.242c-.411-1.73-.98-3.602-1.338-5.343-.299-1.454-.446-2.172-2.038-2.06-.242.016-.414.13-.638.144l-.366 7.498zm15.26-.92.763-18.642 10.531-.415-.027 3.328-6.288.014-.147 4.411 5.896-.204-.063 3.145-5.976.183-.116 4.725 6.52-.278-.03 3.172zm21.917-.572c-6.233.289-8.419-4.346-8.414-9.368.005-5.06 2.989-9.772 9.048-9.795 1.775-.007 2.612.196 4.148.847l-.122 3.616c-.948-.604-2.253-1.037-3.439-1.03-3.477.019-5.179 2.98-5.079 6.208.095 3.057 1.18 6.248 4.82 6.16 1.22-.03 2.684-.547 3.692-1.211l.066 3.694c-1.243.631-3.284.812-4.72.879"/><path fill="#981915" d="M216.376 103.96c3.064-.26 3.82-4.622 3.945-6.767.107-1.83-.169-6.398-2.849-6.15-3.173.295-3.627 4.655-3.832 6.658-.164 1.597-.153 6.505 2.736 6.26M232.15 90.2c-.093 1.595-.17 3.25-.264 4.843l.856-.068c2.302-.185 3.083-1.182 3.115-2.65.046-2.062-1.148-2.248-2.745-2.192-.308.01-.664.046-.962.067zM314.96 89.537l.174 4.507c.28.01.647.04.945.051 1.603.061 2.645-.307 2.585-2.022-.06-1.73-.953-2.335-2.609-2.4-.28-.012-.852-.123-1.094-.136M319.376 99.7c-.002-1.865-1.095-2.726-2.94-2.795-.316-.012-.802.006-1.12-.007l.1 4.9.95.038c1.77.067 3.012-.293 3.01-2.137M280.762 96.753l-1.958-7.64-2.22 7.646z"/><path fill="#fff" d="M373.897 118.542c-62.031-8.08-124.817-8.141-187.865.048l-2.046 23.484c-1.05 12.053-1.092 22.652.063 32.8 1.154 10.14 3.496 19.877 7.212 30.215a169 169 0 0 0 6.14 14.802l82.437-72.673 82.583 72.574q1.006-2.004 1.995-4.042c4.12-8.476 7.88-19.97 10.204-32.327 2.028-10.78 2.948-22.189 2.038-32.776zm-132.084 7.934c2.503.962 2.537 1.928 5.695 2.679 1.845.439 4.388 2.15 4.046 4.35-.272 1.747-2.592 3.922-3.527 4.78 2.781.18 4.69-1.487 6.56.887 1.594 2.023-.1 4.79-.366 6.831-.187 1.44.29 2.533-.17 4.119-1.632 5.638-6.295 1.876-8.028 1.325.52 1.678 2.636 4.75 1.088 6.688-1.855 2.32-5.905 1.265-6.821 1.323-.927.058-2.332.555-3.676.677-6.428.582-3.539-5.867-3.506-7.307-1.437 1.014-3.351 4.05-6.26 2.503-1.976-1.05-2.13-4.161-3.292-6.28-2.606.959-9.377 6.233-11.503 8.225-2.147 2.012-7.785 7.503-9.274 10.193 3.383-1.178 5.003-2.981 10.615-3.568 3.283-.344 8.434.297 11.412 1.65l.56.375c-.597.525-1.317.083-2.73-.32-7.746-2.215-12.925-.878-19.687 3.406-3.545 2.246-3.893 3.746-6.341 8.086-1.29 2.288-4.33 9.163-4.695 9.696-1.089.094-1.755-.584-2.089-1.4-.459-1.125.063-1.655.506-2.462.787-1.434 1.52-2.758 2.377-4.214 4.32-7.338 8.306-12.812 14.056-18.893.634-.67 2.69-2.508 3.478-2.94-.127-.902-1.14-2.77-1.52-3.915a18.3 18.3 0 0 1-.872-4.282c-.496-6.112.263-6.264.3-9.82 1.043.269.468 2.031.383 4.262-.117 3.071.35 6.075 1.28 8.932.434 1.33 1.218 2.453 1.588 3.59 1.082-.382 6.77-5.795 11.1-7.869-.903-2.759-2.557-5.863 2.842-6.777l1.056-.208c.507-.188.184-.048.399-.202-1.94-.82-4.742-1.94-4.467-4.74.17-1.743 3.367-3.848 4.464-4.979.921-.95 2.293-4.142 5.311-4.071 2.502.058 3.28 3.35 4.42 5.05l.38-2.616c.657-2.658 2.487-3.694 4.908-2.764m-6.684-4.262c.614.15.394.06.837.493 3.44 3.362.734 3.299.815 5.1-.375.615-.078 1.585-.217 2.499l-.188.583c-.569-.665-.592-1.905-1.003-2.783-1.154-2.465-2.388-.445-1.312-4.387zm76.163 16.071c-2.66-2.44-5.533-5.41-1.593-8.219 1.075-.766 1.91-.799 3.265-1.154 2.008-.525 3.848-2.978 6.415-2.745 1.233.112 2.36 1.033 2.743 1.942.452 1.077.257 2.698.678 3.741 1.113-1.727 1.947-4.882 4.26-5.052 3.026-.22 4.486 3.03 5.38 3.987 1.068 1.145 4.27 3.26 4.53 4.916.455 2.905-2.516 4.08-4.447 4.895.455.324.858.309 1.454.41 5.301.896 3.817 3.885 2.843 6.776 4.306 2.034 9.989 7.469 11.098 7.869.367-1.123 1.155-2.266 1.588-3.59a25.8 25.8 0 0 0 1.286-8.753c-.04-1.398-.52-3.494.077-4.44.52.424.338.212.447 1.038.535 4.047.524 9.402-.765 13.196-.365 1.075-1.349 2.904-1.473 3.783 1.821.999 5.306 4.815 6.684 6.503 6.769 8.292 8.096 10.37 13.293 19.655.478.853.938 1.334.38 2.474-.367.75-.94 1.371-2.029 1.277-.354-.52-3.452-7.491-4.76-9.809-2.539-4.502-2.732-5.716-6.383-8.043-6.847-4.364-12.012-5.483-19.716-3.298-1.458.414-1.996.807-2.594.282.122-.126.077-.104.319-.25l.241-.124c.233-.108.47-.163.65-.223 3.588-1.212 6.855-1.837 10.762-1.428 5.616.587 7.218 2.385 10.615 3.568-.674-1.22-3.424-4.2-4.434-5.412-1.487-1.785-3.273-3.267-4.93-4.868-.907-.875-1.654-1.469-2.688-2.296-1.833-1.468-6.934-5.183-8.725-5.842-1.185 2.16-1.31 5.33-3.41 6.34-2.278 1.098-3.805-.444-4.935-1.596-.4-.41-.777-.663-1.207-.967.045 2.525 1.8 4.687-.325 6.6-1.866 1.682-5.48.05-7.035.023-1.493-.025-2.256.518-3.985.108-5.5-1.304-2.396-5.49-1.57-8.112-1.638.52-6.52 4.364-8.067-1.455-.41-1.539.081-2.8-.147-4.13-.369-2.143-1.94-4.824-.27-6.789 1.905-2.24 3.77-.613 6.48-.788m10.356-12.553c-.277-1.016 1.547-3.273 2.542-3.518.86.892 2.29 3.298.895 4.539-1.979 1.76-1.122 2.948-2.142 4.137-.248-.396-.218-.954-.22-1.472-.015-3.402-.683-2.253-1.075-3.686m-96.357 14.91c-.044.01-.096.026-.146.035-.743.134-2.092-.219-3.438.428-.467.225-.67.484-.99.618-1.264.525-3.505-1.794-3.63-2.51.862-.792 3.199-2.192 4.428-.99 2.423 2.371 2.664 1.192 4.14 2.236zm6.441 18.517c-.058 1.18-2.453 2.525-3.691 2.455-.504-3.482-.682-4.033 1.13-4.666 1.933-.677 1.994-2.282 3.27-2.97-.025.93-.472 1.58-.756 2.447-.488 1.489.101 1.647.047 2.734m19.386-4.718c1.586.27 1.888 2.558 1.715 4.264-.776.216-1.831-.177-2.581-.411-1.105-.345-1.506-.391-1.58-1.625-.186-3.044-1.307-2.52-1.848-4.52.82.272 1.344.937 1.929 1.403.664.53 1.26.702 2.365.89m-32.44 11.28c2.433.477 4.405 3.28 4.176 6.443-.17 2.346-2.146 6.007-3.687 6.71-.402-4.327-5.688-5.145-3.598-10.067.32-.751 1.287-2.505 1.926-2.947 3.547.92 1.418 6.134 3.161 8.635 1.286-1.012 1.468-5.445-1.195-7.859-.5-.452-.486-.317-.784-.915m17.756 6.22c.214 1.296.2 3.93-.414 4.948-1.348-.813-.869-1.303-3.218-1.877-4.618-1.128-7.57-.868-7.133-8.584 5.783-1.04 4.43 5.206 8.905 6.031.082-3.087-3.609-6.472-7.79-6.792 5.297-1.214 8.895 1.695 9.65 6.274m91.153-12.782c-.059-1.185.568-1.268-.001-2.866-.277-.778-.684-1.44-.707-2.315 1.275.688 1.336 2.293 3.27 2.97 1.825.638 1.628 1.221 1.13 4.666-1.239.07-3.634-1.275-3.692-2.455zm-21.1-.454c-.161-1.586 0-4.007 1.87-4.283 2.645-.391 2.457-1.714 4.138-2.274-.246.91-.751 1.364-1.221 2.111-1.54 2.446.684 3.17-2.345 4.078-.702.21-1.706.573-2.443.368m17.963 9.441c1.704-2.191 4.316-3.343 8.085-2.48-4.181.32-7.873 3.706-7.79 6.793 4.512-.832 3.091-7.077 8.906-6.03.427 7.55-2.344 7.45-6.993 8.55-2.49.589-1.944 1.057-3.359 1.91-1.058-1.678-.663-6.41 1.15-8.743m13.354 8.033c-2.847-4.945-.681-9.768 2.838-10.458-.434.874-3.276 2.694-2.87 6.398.113 1.017.362 1.958.891 2.376 1.005-1.442.75-2.91.87-4.988.1-1.762.822-3.266 2.29-3.647.824.57 3.275 4.276 1.934 6.986-1.125 2.27-3.304 2.789-3.605 6.027-.774-.353-1.98-2.054-2.348-2.694m-33.219-39.038c-1.445.128-2.63-2.043-2.966-3.4.907-.36 1.726-.59 2.802-.607 1.436-.02 1.533.17 1.994 1.237.931 2.152 2.848 2.022 3.279 3.185-.868-.041-1.635-.422-2.447-.63-1.47-.377-1.505.112-2.662.215m33.218 1.081c1.23-1.202 3.57.198 4.43.99-.228.776-1.992 2.476-2.959 2.603-.713.093-1.857-1.128-4.04-1.128l-1.457-.16c-.02-.051-.08-.04-.113-.068 1.471-1.045 1.712.138 4.139-2.237m-80.103-4.48c-.335 1.356-1.52 3.527-2.966 3.399-1.156-.103-1.191-.592-2.662-.216-.812.209-1.579.59-2.447.631.431-1.163 2.348-1.033 3.279-3.185.491-1.135.642-1.29 2.176-1.231 1.005.039 1.768.263 2.62.602m-41.398.362c-.88 2.722-4.06 4.155-7.464 4.296-.008-2.593-1.046-3.183 1.733-5.932 1.241-1.227 2.903-2.577 2.983-5.253-1.817.333-3.83 2.234-4.566 3.49-1.557 2.655-.98 3.783-1.145 6.877-1.734-2.712-1.662-6.748.128-9.315 2.355-3.374 5.049-3.338 7.566-4.1l2.313-.028c-.417 1.495-1.16.63-1.198 4.563-.017 1.804.2 3.704-.35 5.402m128.204 2.247c-2.203-1.967-1.84-4.461-1.84-7.824 0-3.526-.834-3.077-1.198-4.39 10.518-.396 13.296 8.338 9.979 13.443.128-2.803.214-5.241-1.535-7.524-.688-.899-2.613-2.56-4.147-2.84.08 2.683 1.75 4.032 2.983 5.252 1.923 1.902 2.25 2.591 1.663 5.932-2.188-.102-4.651-.929-5.905-2.049"/><path fill="#fff" d="M238.862 146.7c-5.035.822-6.202-6.613-1.231-7.381 2.072-.32 3.881 1.187 4.2 2.986.392 2.222-1.13 4.096-2.969 4.395m5.508-9.422c-1.346-.685-2.155-.134-3.363.162-.302-.476-.855-4.177-4.762-3.346-1.158.246-1.898.974-2.345 1.753-.805 1.405-.189 1.905.127 3.129-1.06-.317-2.056-.694-3.094-.041-.609.383-1.365 1.428-1.523 2.424-.4 2.513 1.195 4.09 3.256 4.432-.487 1.004-1.173 1.473-.619 3.092.378 1.106.993 1.72 1.92 2.176 1.501.739 3.322.476 4.39-.783.447-.525.425-.85.908-1.299 1.44 3.536 6.605 1.478 6.376-2.28-.09-1.464-.924-1.899-1.525-2.677 1.022-.596 1.462-.366 2.092-1.564.977-1.858.072-4.206-1.838-5.178M315.07 137.22c-1.861.825-2.932 3.165-2.018 5.121.592 1.267 1.086 1.058 2.152 1.68-.58.75-2.96 2.818-.478 5.543 1.64 1.799 4.413 1.663 5.329-.587l.827 1.201c.24.31.624.655 1.066.894 1.7.922 4.38.262 5.275-2.06.645-1.674-.063-2.178-.57-3.221 4.028-.668 4.061-5.177 1.836-6.78-1.038-.75-2.071-.371-3.197-.035.309-1.245.89-1.774.124-3.124-1.24-2.183-3.964-2.302-5.658-1.071-1.118.811-.764 1.589-1.446 2.658-1.176-.284-1.904-.813-3.241-.22m7.095 9.4c-4.806 1.307-6.845-5.934-1.784-7.232 4.71-1.208 6.316 5.998 1.784 7.231"/><path fill="#fff" d="M382.5 184.898c-2.458 13.069-6.464 25.282-10.864 34.337-3.977 8.184-8.088 15.945-12.846 23.607-4.752 7.654-10.185 15.253-16.822 23.138-8.906 10.58-18.32 20.806-28.237 30.074-10.01 9.355-20.57 17.79-31.695 24.712l-2.197 1.367-2.15-1.445c-21.304-14.315-41.5-31.952-58.282-52.093-15.314-18.38-27.789-38.853-35.68-60.807-3.945-10.974-6.43-21.297-7.651-32.036-1.22-10.731-1.187-21.832-.095-34.369l4.9-56.228.286-3.278 3.277-.363c31.383-3.481 63.213-5.48 95.211-5.624 32.03-.145 64.1 1.564 95.907 5.5l3.235.4.28 3.257 5.585 64.94c.972 11.296-.006 23.446-2.163 34.911m-100.515-112.7c-33.894-.134-68.47 1.865-103.792 6.203l-6.044 64.11c-.804 8.517-1.097 16.453-.617 24.57.477 8.084 1.726 16.357 4.008 25.585 3.375 13.652 8.127 25.7 14.015 36.97 5.918 11.33 13.003 21.918 21.003 32.576 11.296 15.051 23.239 27.441 35.315 38.06 11.44 10.059 22.955 18.49 34.14 26.075 15.748-10.464 30.939-22.546 44.969-36.475 13.33-13.234 25.637-28.155 36.413-44.965 10.944-17.07 18.165-33.349 22.413-48.77 4.673-16.965 5.765-32.93 4.27-47.797v-.014l-6.586-69.554a805 805 0 0 0-99.507-6.573"/></svg>