<svg xmlns="http://www.w3.org/2000/svg" xml:space="preserve" id="Layer_1" x="0" y="0" version="1.1" viewBox="0 0 270 269.1"><style>.st0{fill:#fff;stroke:#fff;stroke-width:4.22;stroke-miterlimit:3.864}.st1,.st2{fill:#231f20}.st2{fill-rule:evenodd;clip-rule:evenodd}.st3{fill:#00b6f1;stroke:#00b6f1;stroke-width:.13;stroke-miterlimit:3.864}.st4{fill:#ef3e2e}.st5{fill:#bbbdbf}.st6{fill:#f0b83d}.st8{fill:#00b6f1;stroke:#fff;stroke-width:.13;stroke-miterlimit:3.864}.st10,.st9{fill:#fff}.st10{fill-rule:evenodd;clip-rule:evenodd}</style><path d="M214.4 179.9v.2zM214.4 180.1c0 .1 0 .2 0 0zM214.4 180.1z" class="st0"/><path d="M214.4 179.9v.2zM214.4 180.1c0 .1 0 .2 0 0M214.4 180.1" class="st1"/><path d="M265.3 194.4c-2.6-4.7-2.1-12.1-8.7-13.5-6.8-.2-14.1 2.4-20.2 6.1-2.4 2.4.9 4.4 1 6.7.7 3.3 2.4 6.2 2.7 9.6-1.5.5-3 1.3-4.6 1.7-1.3.5-2.4-.2-3.3-1-3.9-1.8-7.8.3-11 1.9-1.4 2.2-4 .3-6 1.1-5.7.3-12.8.2-17.5 4.6-3.2 3.2.2 6.9-.1 10.4-8.9 2.4-17.7 5.1-27.1 6.3-2.6.5-5.3.8-7.9 1.2-8.3 1.3-16.7 2.2-24.7 2.4l-.3-.3c.1-.3.4-.6.3-1 5.7-7.1 13.7-12.5 21.6-16.4 1.1-.6 2.2-1.5 3.4-1.9 1-1.3 2.5-1.2 3.6-2.4 6.7-4.2 14.1-9.1 17.6-16.5 1.1-1.6 1.3-3.4 2-5.2.5-1.6.5-3 1.1-4.6 1.7 4 1.9 9.1 6.2 11.4 5.3 4 12.3 5.1 18.8 2.8 8.5-3.3 13.1-12.4 13.9-21.1.4-1.1 1.7-1.3 2-2.4-1.2-1.1-1.8-2.7-1.2-4.2.5-1.5 2.6-1.2 2.8-2.8-.4-.4-.9-.5-1.4-.9-1.6-1.1-2.4-2.9-2-4.8.1-1.5 2.1-2.1 2.4-3.6-1.2-.4-2.6-.6-3.3-1.7 0-.5.7-.8 1.1-.9 4-.7 10.7-2.1 13.6 2.4 4.3 5.3-1.1 11.2-.7 16.9.5 1.3.1 3.2 1.4 3.8 0-4.6 4.6-5.9 7.1-9.2l.7 1c1.6-2.4-.3-6 1.7-8.3.6-.4 1.2.4 1.8 0v-.7c-1.7-1.5-1.6-3.7-1.9-5.8.2-1 1.4-.3 1.8-1.1-1.2-.8-2.1-2.1-2.7-3.4-.4-2.4-2.8-4-4.6-5.2l1.3-1.5c.5-1.3 1.4-2.5 1.9-3.8-1.5-.4-3.2-.8-4.6-1.8 2.3-3.6 2-8.5 2.2-12.1l-.7.4c-.3-2.4-.4-5.2-1.5-7.1-.5.1-.1 1-.8.8-1.3-2.6-2.2-5.5-4.6-7.7-1.1-.3-.1 1-.8 1.2-2-1.5-3-3.6-3.3-5.9-.6 0-.7.6-.9 1-.9 6.9 2.3 13.9.4 20.6-.9 1.9-.9 4.1-2.4 5.8-1.5 4.2-5.4 7-9.1 9.4-.3-.1-.6.1-.7-.1-.5-2 1.3-3.6 1.3-5.4-1.5-.3-2.8-1.5-3.6-2.6-.3-1.8.3-3.4 1.9-4.6.5-1.3-1.3-.7-1.8-1.3-1.5-1.2-2.5-3.2-2.5-5.4-.1-1.6 1.7-2.6 1.7-4-1.7 0-3-1.7-3.8-3-.9-2.4-.9-5.8.4-8.3 1.6-6.9 11.2-6.8 11.3-14.3.4-1.5 2.7.1 3.6-1.4.6-.7-.5-.5-.7-.7-2-1.1-1.6-3.4-1.8-5.1.9-.3 1.4.7 2.3.1.4-.3 1.3-.5 1-1.1-1.3.1-1.6-1.2-2.4-1.9.5-.4 1.1.2 1.7 0 .4-.1 1.1-.3.9-1-1.2-.8-1.9-2.2-1.9-3.4h.9c1.8-.6-.4-1.6-.3-2.6.1-.3.4-.3.7-.3.3-.2.5-.5.3-.7-2.6-.7-1.6-3.8-4-4.6 1.9-1.5-1.1-1.9-.9-3.3-.3-.7-1-.8-1.5-1-.1-.4.1-.7.4-1 .8-1.3-.7-1.4-1.5-1.7 0-.8.2-2.6-1.5-2.1.9-2.2-1.9-1.4-2.9-1.7.1-.9.5-1.8.2-2.7-1.1-.3-1.7.5-2.5.4l-.1-1.8c-.9-.3-1.4.5-2.2.4-2.3 2.3-2-2-3.9-2.4-.5-.3-1.2-.7-1.8-.1.3 1.2 1.3 2.3.7 3.7-.4.5-1.1 1.5-1.8 1.1-.9-1.1-1.8-2.2-2.9-3.3-.5-.6-.6-1.8-1.6-1.9-.7 1.6-.5 3.5-.7 5.2-1-.2-2-1.3-2.9-.7-.7 2.4.3 4.6 2 6.3-1.3 1.1-2.2 2.4-3.3 3.6-1.7 3.2-5.1 5.2-7.5 8-2.7 2.1-2.9 5.6-3.3 8.5 1 1.7 2.7 1.1 4.2 1.9.2.5-.5.7-.7 1.1-.7.3-.9-.9-1.5-.7-.9.1-1 1.1-1.3 1.7.3.6.2 1.4 1 1.8 1.5.9 3.2 0 4.6-1.1 1.1.3 2.5-.5 3.7.1v-.3c2.4-.7 3.4-3.6 5.8-4.7.9.3 1.8-.6 2.4.5-1.9 2.7-5.5 3.5-7.9 5.6-4.3 2.5-8.3 6.7-10.3 11.2-.8 1.1-.6 2.8-1.8 3.7-2.3-3.7-3.2-8.1-6-11.4-1.7-1.4-4.2-1.5-6.1-.7-4 2.8-8.9 3.3-12.7 6.3l-.3-.3c-.1-1.2-.6-2.2-1.4-3.2-1.2-.6-2.5-1-4-1.1-2.2-.2-4.3 1.5-6.3.1-.5-.9-.7-1.9-.8-2.9-.4-.9.3-3.1-1.1-3.4-1.1-1.7-.9-4-1-6.1-.1-.5-.7 0-.9-.4-.9-3.2-.4-7.1-.7-10.2.4-1.4-1-3.1.7-4 .3-.4.5-1.2-.1-1.4-.2-.2-.2-.7.1-.8 2.7-.3 2.2-4.3 5.1-3.9.4-.3.3-.9.5-1.3-.1-1.5.5-3-.1-4.6l-4.2.1-.3-.3c-.5-2.2-.3-4.8 1.4-6.3 1.4-.4 2.5-1.3 3.9-.5 1 .6 1.5 1.7 1.7 2.7-.3.7-1 1.1-1.7.9-1.3-.5-1.1-2.4-2.3-2.4-.3 2 .3 4 2.1 5.1.9.5 2.2.5 3 0 1.3-.8 2-1.9 2.2-3.4-1-2.4 2.2-.8 3.1-1.9 2.4-.9 1.7-3.2 1.8-5.2 0-1.2 1.9-2.1 1.9-3.2-.8-.3-1.6-.5-2.5-.4-2 0-1.9 2.2-3 3.3l-.1-2.3c-.5-.9-1.3-1.8-2.2-2.2-.7.1-1.4-.6-1.9 0-.1.9.8.8 1.1 1.4-.3 2.3-2.9 1.9-4.5 2.5-2.1.3-2.3 2.9-4.3 3.3-3 1.8-3.1 5.7-2.7 8.9-1.7.4-.3 2.1-1.3 3-1.3-.3-1.5-1.9-1.9-2.9-.7-2.1-.4-4.8-.3-7.1.5-3.2 4-5.2 5.9-7.7-1.1-2.2 1.9-2.8 2-4.7-.6-.5-1.3.5-1.8-.3 0-.3 0-.6.1-.8 3.7-.7 1.1-4 2.6-6.2-.1-1.1-.7-1.4-1.4-2.2-.7.3-1.4-.3-1.5-1.1-.8-1.3-2.3-1.7-3.7-1.5-.6-.3-1.2-.8-1.9-.4-1.4 1.7-3.5 2.3-4.7 4.4l-.5-.5c-.8 1.1-1.8 2.2-1.8 3.8.7 1.7-1.7 1.7-2.4 2.7-1.2 1.3-.9 3.2-2.3 4.2-1.6-2.6-4.2-3.9-5.5-6.6.1-3.5-4.6-5.4-2.6-9.4 8.9-5.4 19-.7 28.6-.3 13.9 2 31.6 2.2 40.7-10.4.1-.9 1.1-1.7.7-2.4-4.4 2.7-10.2 2.7-15.4 3.1-3.6-.1-7.7-.1-10.6-1.1-7.3-.9-13.9-3.6-20.2-6.6-5.6-2.6-12.1-3.6-18.6-2.5-.7.1-1.5.5-1.9.1.3-1.3-.4-2.6-1.1-3.8-.9-.5-1.9-1.7-2.8-1.7-2-.3-3.9.5-5.2 1.9-1.2 1.5-1.3 4-.5 5.5.7 1.3 1.9 2.1 2.9 2.8.3 8.1 0 15.1.3 22.5-.3 1.2-1.2 2.6-.3 3.8.2 5.1.2 11.6 0 17.1l-.4.5c-.3.5-.1 1.1.3 1.5l.1 42c-.9.9-1.9 1.3-2.4 2.4-.2 1 0 2.2.5 3 2.6 3.6 6.5 2.4 10.3 2.1l.3.3c-.7 1.5-.5 3.8.5 5.1.4 1.3-.9 2.3-1.9 3-4.9 2.7-10.8 3.4-16.1 2.2-2.8-.4.1-2.7-.4-4.4-.5-2.3-1.8-4.9-4.4-5.4-2.3-.6-5 .1-6.5 2-.1-1.9.2-4.3 2.2-5.2 1.9.3 3.8.9 5.4 2.2 1.2 1.4 2.1 2.6 4 2.6.9 1.7.6 3.6.3 5.5l.5.4c2.3.5 4.9.3 7.3.7 1.4-2.2 3.8.5 5.1-2.1.5-.5 1.7.2 1.7-.8-2.2-3.6-6.3-5.2-9.4-7.7-3.5-4.7-9.8-4.7-14.3-7.9-8.3-2.1-7.9 8.1-11.6 12.4l-.5-.7C83.8 99.6 76 93.5 69 90c-.9-.6-2.1-1.2-2.4-2.3 3.8-1.9 5.2 4.2 9 4.4 2.8-1 4 2.1 7 1.4.6-.2 1-.6 1.2-1.3.3-.8.1-1.9-.7-2.3-.9-.7-1.2.7-2.1.4-.3-.3-.7-.6-.5-.9 1.5-.6 3.6-.3 4.4-2.2.3-5-3.6-8.7-7.3-11.8-3.3-2-4-5.9-7.1-8.1 1.1-1 1.9-2.1 2.3-3.3-.2-1.2.5-2.4-.5-3.3-.9.3-1.7.7-2.5 1.1-.5-.9-.1-2.2-.3-3.2-.2-.7-.1-2.4-1.1-2-.7 2.4-3 3.2-4.1 5.4H64c-2.6-1-.8-3.7-.7-5.2-2.2-.1-3.1 2.1-4.1 3.6-1.1-.7-2.2-1.1-3.4-1.2-1 .5.1 1.2-.4 1.9-.8-.1-1.5-.5-2.2-.5-1.1.8.3 2.1-.3 3.2-.7-.3-1.7-.3-2.4-.2 0 1.1-.5 2.1-1.7 1.9-.5.6.2 1.3 0 1.8-.6.2-1.4 0-1.8.7.1.7.3 1.3.5 1.9-2.1-.1-.9 2.5-2.9 2.8-.5.6.3 1 .5 1.5-2.5.9-1.5 4-4 4.6-.3.9.7.7 1 1.1-.1.9-1.1 1.2-1 2.1.1 1.1 1.4.1 1.8.9-.7 1-.8 2.4-2.1 3-.1 1.9 1.8.6 2.5 1.1-.6 1-1.4 1.9-2.5 2.1.7 1.4 2.3.9 3.6 1 .3 1.1-.6 1.7-.3 2.8-.5 1.1-.9 2.5-2.4 2.4.5 1.5 2.4.9 3.7 1.3-.1 2.5.9 5.1 3.3 6.7 4.6 2.1 8.8 6.6 9.3 11.7-.4 2.4-.1 5.2-2.3 6.9-.7.5-1.5.9-2.4 1.1.3 1.1 1.4 1.8 1.7 2.9.4 2.2-.3 4.5-2.1 6.1-.7.4-1.6.3-2.2.9 1.2 1.3 2.2 2.9 2.2 4.8-.5.9-1.2 1.9-2 2.2-4.6 1 1.5 4-.7 6.3-4.3-2.1-8.5-6.1-10.3-10.4-2.8-5.3-2.6-11-2-17.1.9-2.1.5-4.4.7-6.5.1-1-.2-2.3-1-2.9-.5 2.2-1.5 4.6-3.4 6-.3-.1-.1-.4-.1-.6-.1-.2 0-.8-.4-.7-2.8 1.8-3.5 5.2-5 7.9-.3-.3-.3-.9-.9-1-.5 1.3-.6 2.6-.9 4-.4 1 .2 2.5-.5 3.2-.2-.2-.5-.3-.7-.3v.4c.2 4.2.5 8.3 2.4 11.8-.7.6-1.7.5-2.4 1.1-.6.6-2.2-.1-2.1 1.1 1.5 1.5 1.5 3.6 3.2 5.1-4.4 1.3-3.7 6.1-7.3 8.4.1 1 1.3.3 1.8 1.1-.2 2.3-.6 4.4-2 6.2.1 1.2 1.1.1 1.7.4.8.7.7 1.7 1.1 2.5.6 1.9-.7 4.1.5 5.7.7.5.4-.6.9-.9 2 2.6 5.7 4.1 7 7.3.3.5-.1 1.4.4 1.8.7-.5 1-1.3.9-1.9 2.1-5.4-3.4-10.6-1.7-16.3.9-2.6 3.3-5.3 6.3-5.7 3.5-.2 6.9-.4 9.8 1.2-.5 1.2-1.9 1.7-3.2 1.8-.4.6.2 1.1.6 1.4 1.3.7 1.9 2.2 1.8 3.7-.3 1.9-1.9 3.6-3.6 4.4.1 1.2 1.3 1.1 2 1.7.8.9 1.3 1.9 1.1 3.2-.2.7-.8 1.3-1.4 1.9.1 1.1 1.1 1.7 1.8 2.3.9 6.7 3.1 12.8 8.1 17.8 5.8 5.5 15.1 6 22.1 2.7 6.2-2 7.5-8.3 9.2-13.4.5.7.3 2 .7 2.8 1.7 12.6 14.9 20.5 24.7 26.2 8.9 4.4 17.7 9.8 24.5 18.1v.5c-8.3.7-16.5-1-24.7-1.9-10.2-1.3-19.6-3.2-29.3-5.8-2.4-1-5-1.3-7.4-2.3.4-3.6 2.9-8.3-.8-11.2-5.9-4.4-14-3.6-21.1-3.8-3.6-2.5-8.1-4.4-12.5-3.2-1.1.3-1.7 1.7-3 1.3-1.9-.7-3.8-.9-5.5-1.9 1.3-4.6 2.7-9.2 4.7-13.5.5-1.6-.7-2.8-1.7-3.8h-.6c-4.6-2.8-9.8-4-15-5.4-3-.5-6.8.2-8.7 3.3-1.6 3.6-2.9 7.2-4.1 10.9-1.6 6-5.4 11.5-4.7 18.1 3.1 8.1 11.7 13.2 19 16.9 1.4.8 2.8 1.4 4.3 1.8 1.2 1.2 3 1.1 4.2 2.1-1.3 3.5-2.5 8.2.6 11.2 3.9 3.1 8.5 4.5 12.8 6.7 11 5.2 23.1 7.7 34.8 11.2 2.4.5 5.1 1.2 7.3 1.5 18.4 4.1 38 5.2 56.8 4.8 19.4-.1 38.1-2.3 56.1-6.5 7-2.5 14.5-3.8 21.5-6.3 1.4-.6 2.9-1 4.3-1.7 6.9-2.4 13.7-5.5 19.9-9.5 3.3-2.9 1.9-7.7.7-11.1l.5-.6c2.5-.5 4.5-2.1 6.9-2.9 7.6-4.2 17.1-9.2 20.2-17.9 0-6.8-3.3-12.3-4.8-18.3m-61.1-28s7 6.9 7.9 8.5c.9 1.5 2.3 4.3 2.3 5 0 0-1.1 4.4-6.7 4.7-5.7.3-10.6-4.2-10.4-9.5s3.9-6.9 6.9-8.7m-22.7-20.8c.1-1.8.3-3.8 2-4.5 1.7-.8 1.7-.6 1.7-.6s3.1 5.2 4 6.5c1 1.3 5.6 7.4 8.2 11.5 0 0-10.1 8.7-10.5 19.2 0 0-.1-2.8-.5-4.2s-.5-3.6 1.5-4.7l.1-.8s-1.9-.4-1.9-1.6 1.6-1.3 1.6-2.2-1.2-1.2-1.5-1.2c-.3-.1-2-.1-2.8-2.9s-3.1-11.6-3.1-11.6 1.1-1.1 1.2-2.9m-33.9-39.1s1 .5 2.4.2 3.2-1.1 3.2-1.1l1.3.8-4.5 4.4s-1.1 1.5.1 1.5 1.4.4 1.6.9 1.6.7 2.4.5 2.3.4 2.5 1l7.3-1 .5-.7s-.8-3.4-.3-4.6 1.6-.3 2.8-1.7 4.1-3.8 6.1-3.7 2.6 2 3 5c0 0-1.6-2.6-4.6-2.2s-5.5.8-6.4 6.3c0 0 .1 1.9 1 3.1 0 0-2.9 1.2-6.3 1.2-3.5 0-8.8-1.1-10.4-2-1.5-1-2.3-2.6-2.2-3.1 0-.5 1.1-2.4.5-4.8M74.4 176c-.1 1.2-.2 7.9-10.1 8.9 0 0-6.5 0-7.1-4.4-.3-2.3 4.6-8.4 5.8-9.4 1.3-1.1 4.6-4.3 4.6-4.3s5 3.2 6.3 5.4c.1 0 .6 2.6.5 3.8m13.2-14c-.2.3-3.1 1.6-3.3 1.7-.2.2-.6.4.1 1.3s1.6 1.7 1.1 2.2c-.5.4-.7.6-.7.6s-1.3.1-1 .8 1.1 1.7 1.4 2.2c.4.4.4 1.1.3 1.6s-.4.8-.4 1.5c-.1.7-.3 2.9-.3 2.9s-.9-6.2-6.1-13.2c-2.2-3-4.6-4.7-4.6-4.7s.1-.8 1.2-2 8.1-11.3 9-12.8 1.8-3.2 2.6-3.2c.6 0 2.5 1.2 3 1.9 0 0 .2 4.1 1.4 6.1.1 0-3.4 12.7-3.7 13.1m31.7-117.5c.2 0 .3.2.5.3-.2.3-.4.6-.3.9.6.5 1.2.9 2 1 .5.9-.7 2.1.5 2.7.7-.2 1.7-.7 2.4-.1-.1.5-.8.7-1.2 1-.8 1.2-1.9 2-3.3 1.8-.9-.3-.6-1-.9-1.6zm7.6 40-1.1.8-.9 6s-1-.1-1.1 1.1-.5 4.4-1 4.6-1.3.2-1.8.4-1.1.5-1.7.1c0 0-.8-30.1 0-39 0 0 4.8.1 5.9-.3v.7s-.6.3-1.4.2-2.4-.2-3.1.3v5.9s1.8.1 2.5 1.1 2 2.5 3.3 2.4V70s.2.9.6.9.7.2.7 1c-.2.9-.9 12.6-.9 12.6" class="st2"/><path d="m139.3 8.5.1 2.8c-1.9-.2-4.2-.5-6.1-1-.4-1.2-.5-2.6.1-3.6 2.1.4 4.4.5 5.9 1.8zM126.2 7.2c0 1 .8 3-.7 3.2-2.2.1-4 1.1-6.1 1.2-.7-.9.1-2-.1-2.9.7-.7 1.7-.4 2.4-1.1 1.4-.2 3-1 4.5-.4zM139.3 18.1l.1 4.6c-2.1-.3-4.1-.5-6.3-1-.7-1.5.1-3.1-.1-5.1.9-.2 1.9-.2 2.8 0 1.3.2 2.4.8 3.5 1.5zM126.1 16.6c.7 1.8-.1 3.2.1 5.1-2.3.6-4.7 1-7 1.8v-4.7c2-1.7 4.2-1.9 6.9-2.2z" class="st3"/><path d="M131.4 7.2c.5 1.6-.7 4.4 1.5 4.7 2.2.6 4.6.5 6.5 1.9l-.1 2.1c-2.4-.5-4.7-1.3-7.3-1.4-1 1.2-.4 3.3-.6 4.6l-.3 2.4c-1.4-.5-4.2 1.3-3.6-1.5-.1-1.6 1.3-4.2-.8-5.3-2.5.4-5.2.7-7.5 1.6v-2.5c2.5-1.1 5.1-1.9 8-1.9l.4-.4V7c.9-.7 2.3-.3 3.4-.4zM183.5 15.9l2.8-.5v.3c-5 6.3-12.4 7.7-19.6 9-9.1 1.5-17.2-.8-25.7-1.8-.5-1-.2-1.9-.3-3 0-3.4-.1-6.3.1-10.4l.4-.6c12.9 5.9 27.5 10.1 42.3 7" class="st4"/><path d="M73.4 72.7c3.6 4.5 10 7.5 10.2 13.6-.9.6-1.9 1.7-3.3 1.1-1.3-.9-2.4-3.1-4.4-2.2-1 .6-1.6 1.8-1.1 2.9.4.4.4.9.5 1.4-1.1-.2-1.5-1.3-1.6-2.2.3-.7-.4-1.9-1.1-2.4-.9-.1-1.7-.3-2.4-.8-.9-1 1.3-3-.8-2.8-1.4 1.4-1.6 4.6-4.3 3.8-.8-1.3-2.4.5-3-1.3-.9.3-1.9.1-2.6-.5-1.3-1.3-1.5-3-2.3-4.5h-.3c.1 3.1 1.5 6.3 4.5 8.1l.1.5c-.6.7-2-.3-2.2.7 1.2.7 2.6 1.1 4 .7-.3.9-2.5.5-1.2 1.5 1.2.1 2.2-.7 3.4-.4v.4c-.3 0-.4.3-.6.5 0 .2.3.3.5.5.9.1 1.7-1.4 2.6-.3 8.7 3.6 16.7 12 18.4 21.3 2.6 2.8 2.9 6.6 3.4 10.1.1 2.6-.1 5-.8 7.1-.3-2.3.5-5.3 0-7.5-.2-.9-.1-2.2-1.1-2.6-1.1.9-.2 1.6-.3 2.6-.2 2 .5 4.6-1.3 5.6-1.1 0-1-1.2-1.4-1.9.1-2.5.8-6.7-1.7-8.4-.5.7.3 1.5.4 2.2.1 2.4-.1 4.6-.4 6.7.1 1.1.9 1.9 1.5 2.6 3.7 3.6 8.4 7.8 11.3 12.2 2.5 4.8-1.3 9.7.5 14.7.1 2.2-.5 4.5-1.1 6.6 0 3.4 1.6 9.3-2.2 11.6 1.2-3 2-6.5 1.6-9.8-.3-.1-.5-.5-.7-.1-.7 1.2-.9 2.6-1.4 3.8-.1-1.7 1.7-3 .4-4.6-.6 0-1.1 0-1.5.5.1.1-.1-.6-.4-.7-1 .2-1.5 1.5-2.4 1.8-.6 0-1 .6-1.5.6 1.5-1.6 3.5-2.8 4.5-4.7.7.1 1.5-.1 1.4-.9-.3-.9-.5-2-.9-2.8 1.2-3.6 3-8.1.5-11.7.7-4.8-4.3-6.4-7.4-8.1-1.7-.2-3.3-1.1-4.7-2.2l-.6.7c-.7-.3-1.1-1.3-1.9-1.4-.7-1.9-1.7-4.1-3.7-4.8-2.3.5-4.3-.7-6.1-1.7-.5.3-.3.9-.2 1.1 1 2.9 4.6.9 5.7 3.8 1.6 2.7 3.6 4.8 6.6 5.5 1.2.7 2.7.8 4 1.5-2.6 2-6.3 2.3-9.5 1.7-3 0-6.1-.9-8.9-1.8-.7-.5-1.8-.5-2.4-1.2-1.7-1.2-4-2.4-4.2-4.7-.3-1.6.5-2.8 1-4.3 2.8 3.3 7.1 4.5 11.6 4.8.1-.1.3-.2.3-.4-1.8-1.2-4.2-1-6.1-1.8-2.1-.9-4.7-2.4-5.5-4.8-.1-1.9.6-3.6.5-5.5 3.4.7 7.1-.3 9-3.3.8-2.1.4-5-1.3-6.7-1.1-.7-2.2-1.4-3.6-1.5 1.1-.4 2.4-.1 3.6.5 1.5.3 1.6 4 2.9 1.4.2-1.5-.3-2.9-1.1-4.1 1.5-.5.1-1.8.1-2.6-.9-1.1-2.4-1.7-1.9-3.2-1.2-2.3-3.8-4.2-6.2-4 .5-.3 1.3.1 1.6-.5-1.3-3-5.2-.3-6.7-3.3-5.7-5.3-5.5-12.6-3.7-19.8.9-2.3 2.9-4.4 5.1-6 1.5-.5 3.8 0 4.8-2 2.7-1.2 5 1.3 7.1 2.6.7 1.3 2.2 2.1 2.4 3.5" class="st5"/><path d="M108.4 101.5c2.8 1.6 3.7 4.4 6.6 5.5 1.8 1.1 3.7 2.5 5.1 4-.7.2-1 .9-1.7.9-1.2-1.9-3-3.4-4.8-4.6-.3 1.4 1.7 2.1 2.2 3.3l.9 1.4c-.5.1-1.6 1.2-1.7-.1-.9-1.8-1.7-3.6-3.3-5.1-.3 0-.8 0-.9.4l1.7 5.4-.3.3c-1-1.9-.4-5-2.4-6.2-.7 1 .1 2.1.4 3 .2 1 .4 2.1.7 3-.3.6-1 .1-1.5 0 .2-2.4-.3-4.8-2-6.5-2 .4-2.2-2.2-4-3-2.1-1.3-4.9-2.9-7.3-1.3-.9 1.3-3.7.7-2.6 3l.7 1.8c-1 4.8-.7 9.5-2.3 14-.5-1.6-.7-3.4-1.4-5.1-.2-2-2-3.8-.9-5.9 1.1-3 1.7-6.3 2.6-9.5.3-1.7 2-3 3.6-3.4 4.6.2 8.1 3.6 12.6 4.7M177.9 97.7c0 .1-.1.3.1.4.1-.1.1-.1.1-.3 2 2.7 1.9 6.4 3.5 9.4.2 1.7 1.4 3.3.6 4.8-1.3 2.6-1.6 5.6-2.2 8.4-1.5-4.5-1.8-9.8-2.7-14.5.5-.9 1.2-2.1.5-3.2-.3-.3-.7-.4-1.1-.4-1.5-1-3.3-1.9-5.4-1.3-2.6 1-4.6 2.8-6.3 5.1-.2-.3-.7-.1-.9-.1-1.7 1.7-2.2 4.1-1.8 6.3-.5.4-1 .5-1.5.5-.2-2.2 1.1-3.9 1.3-6l-.5-.4c-1.8 1.6-1.4 4.1-2.2 6.2-.1 0-.2.1-.3.2 0-1.9 1.2-3.8 1.4-5.8-.2-.3-.5-.3-.9-.3-1.6 1.6-2.6 3.7-3.5 5.7-.3.2-.9-.1-1.3-.4l1.2-2.1c.2-.9 2.2-1.6 1.5-2.7-1.7 1.4-3.6 2.8-4.7 4.8-.5-.3-.9-.6-1.4-.8.6-1.2 1.8-1.9 2.7-2.8.9-.1 1-.9 1.8-1.3 1.9-.8 3.5-2.2 4.8-4.1.8-.5 1.8-1.3 2.5-2 5.1-.8 9.1-7 14.4-4z" class="st5"/><path d="M134.1 106.8c.3 1.1.8 2 .9 3.2.1 1.5-.3 2.6-.7 3.8-1.5 4.6-6.5 7.6-10.7 9.3-7.2 2.3-15.6 2.7-22.4-.7-2.7-1.9-5.8-4.4-5.4-8.1-.4-1.6.7-2.6 1-4 .5-1.1 1.8-2.1 3-2.2 1.4-.4 2.3.7 3.3 1.1.9.8 1.1 1.9 1.4 2.9.5 1.8-3.4 4.1 0 5.1.7.1 1.3.3 2 .4 1.7.7 3.6.5 5.5.7 5.4-.4 11.5-1.3 14.7-6.2.9-1.5-1.2-2.6-.9-4-.2-1.1.3-1.8.7-2.8.9-1.4 2.6-1.5 4.1-1.3 1.3.7 2.8 1.4 3.5 2.8M145.7 106.3c0 1.4.1 3.2-1 4.2-.4 2.1 1.6 3.3 2.9 4.6 5.8 3.2 14.6 4.4 20.8 1.3.3-1.3-.5-1.8-.9-2.8-.1-1.7-.5-2.9.8-4.3 1.3-1.2 3.1-1.7 4.8-1.1 2.6 1.8 3.2 5.2 2.6 8.1-1.1 3.6-4.7 6-8.2 7.1-.6 0-1.4.4-2.1.7-10.3 1.9-21.7-.3-27.6-8.9-1.6-2.7-1.2-7 .7-9.5 1.3-1.3 3.2-2 5.1-1.5.6.6 1.7 1.1 2.1 2.1M137.3 103.5v.5c-3.4.9-6.1-2.1-7.9-4.5 1-.9 2.3-.1 3.4-.1 1.9.7 3.6 2.3 4.5 4.1M142.9 101.7c-1.1.1-2.3.9-3.6 1l-2.2-2.6c.9-.5 2.4-1.2 3.6-.5 1 .4 1.6 1.3 2.2 2.1M128.5 101.9c-1.4 0-1.9 1.1-3.2 1.2l-3.2-3.3.1-.4c2.6-.4 4.9.5 6.3 2.5M157.5 101.1c.4.6.4 1.7 0 2.3-.7.5-1.5 1.4-2.4.8-1.8-.9-2.3-2.6-3.4-4.1 1.3-.7 2.5-.5 3.9-.5.6.4 1.5.6 1.9 1.5M150.6 102c0 .7 1.2 1 .9 1.8-1.3.9-2.9.7-4.2.1-1.5-.7-2.4-2.5-3.2-4 1.4-.9 2.1-.1 3.7-.1 1.1.5 2.1 1.2 2.8 2.2M122.7 103.1v.4c-2.5.6-5.7.9-7.3-1.4-.3-.7-.1-1.5.3-2.1 2.8-1.3 5.2.8 7 3.1" class="st6"/><path d="M127.5 61.2c.4.7-.3 1.9.5 2.4 1.6-.2 4.4 1.1 5.1-1.1v-1.1c1.2-.4 2.7-.3 3.9-.1.5.7-.1 2.3 1.1 2.4 1.4-.6 3.9.7 4.4-1.1v-1.3c1.6-.7 3.4.1 5.1-.1.3.5.6 1.2.3 1.8-.7.3-1.8 0-2 1 0 1.1-.8 2.1-1.7 2.6-.7.7-2.4-.2-2.3 1.3-.1.5.2 1.2-.3 1.5-4 .5-8.5.2-12.4-.1-.5-.7.1-2.1-1.3-2.5-1.1-.3-2.6-.1-3.3-1.3-.2-.7-.1-1.4-.8-1.9-.4-.3-1.1.2-1.4-.4-.7-3.5 3.5-2 5.1-2M141.4 71.9c-.3.9.8 2.9-.9 2.5l-10.6-.1c-.7-.8-.1-1.8 0-2.6 3.4-.2 7.5-.2 11.2 0zM141.5 76.3l.3 9.6c-3.4.1-8.1 0-12.6-.1.1-3.2-.3-7.1.4-10.1l.5-.3 11 .1zM142.7 87.3c.7 1.1.2 2.6.5 3.8l-.5.3-15-.1c-.3-1.2 0-2.6.3-3.8 5.2-.6 9.7-.1 14.7-.2M144.8 93.6c.4.7.4 2 0 2.6-6-.3-12.7.1-18.8-.4-.3-.7 0-1.6.3-2.4 6.3-.1 12.6-.1 18.5.2" class="st5"/><path d="M126.7 46.2c-1.1 1.2 1.5 2.8-.6 2.9-.5-2.6-4.4.3-3.4-3-.3-.5-1.5-.5-1.2-1.1.7-.2 1.4-.7 1.8-1.4-.7-1.4-2.1.6-2.9-.3.2 0 1.8.1 2.2-.7-.1-1.5-2.1-.4-3-.9l-.3.4c-.5-2.1.8-3.8.6-5.6-.5-.7.3-1.1.4-1.7 1.2 4 7.6 6.4 6.4 11.4M155.6 45.5c.1.6-.2 1.4-.7 1.9-1.1 1-3.2.7-3.6 2.3 1.2 1 2-.5 3.2-.5.9.1 1.8-.1 2.6-.5 1.1-.9 1.4-2.1 1.9-3.3.3-.3.8-.1 1.2-.1-1.7 1.9.6 5.7-2.3 6.9-.9.4-2.3.2-3.2-.5-.6-.6-1.1-1.3-1.9-1.3-.8 1.4 1.7 2.1 1.5 3.6.2 1.3-.4 2.5-1.5 3.2h-1.9c.7-.4 1.8-.5 2.2-1.5.6-1.3-.5-2.3-.7-3.4-1-1.2-2.7-1.8-3.8-1.5-1.8.5-4.2 1.5-4.6 3.6-.3 1.5-.3 3.6-.4 4.8-1.1-2-1-5 .4-7 .9-1.6 3-1.1 3.4-3 2.2-2.1 6.3-.8 7.3-4.3.5-.3.5.3.9.6M129.4 50.1c-.2.9-.8 2.2 0 3.1 1 .1 1.4-1.1 2.2-1.4l3-.6c-1.3.9-2.6 2.2-4 2.9-.5.3-.6-.4-1-.4-.8.5-.6 1.7-1.6 2.1.3-.6.7-1.3.5-1.9-.2-.1-.3-.4-.6-.3-.7.7-.7 1.6-1.5 2.2-.2-.4 0-1.2-.7-1.5-1.1.1-.5 3-1.9 1.3-.7-.1-1.1.9-1.7 1.1.3-.2.3-1.3-.5-1.5l-1.4 1.1-.1-1.3c-1.1-.5-1.7.9-2.5 1.3-.4-.7 2.4-1.2.9-2.2-.9-.1-1.3.9-2 .9.4-1.3 1.9-.8 2.3-1.9 1.2.7 3 .5 4.1-.3 1.6-2.1 4.2-2.7 6.5-2.7M136.9 52.9c-.4 1.5-.5 3.8.1 5.2v1c-1.8.3-4.2-.1-5.6.4-.3.9.1 1.7-.4 2.5l-1.7-.1c-.5-.9.6-2.4-.9-2.8-.3.1-.9.1-1.1-.3-.1-1.2 1-1.5 1.8-1.9 1.3-1.6 3.2-2.1 4.6-3.6 1.1-.2 2-1.1 2.6-2.1 1.3 0 .2 1.1.6 1.7M142.1 29.7c.5-.3.4-1 1.1-.7 1.3.9.6 3.8 2.9 3 .8 1.4-2.8 1.1-1.4 2.8.5-.1 1.1-.3 1.2.4-.1.7.1 1.6-.7 1.8h-.3c0-.5.7-1.2-.1-1.5-.6-.1-.8.3-1.1-.3.1-.3.7-.7.3-1.1-.7-.1-1.4-1.4-2.2-.5-.5-.3-.2-1.1-.9-1-.5-.1-1.1.3-1.5.7-.2-1.7-.3-3.1.1-5 1.1.2 1.6 1.3 2.6 1.4M119.5 32.3c-1.6.6.3 2.4-1.1 3.2.1 1.1.4 2.1-.3 3-1-.7-1.5-1.9-1.9-2.9.4-1.3.7-2.8 1.6-3.8l.3-1c.7.2.9 1 1.4 1.5M136.5 32.9c0 .2 0 .7.5.9h.4c.1.4-.4.3-.4.7-.1.7.5 1.3 1.1 1.4.5.1.8 0 1.1-.3-.5.2-1.2.8-1.9.5-1-.5.3-2.2-1.1-2.3-.9.8-.4 2.3-1.1 3-.3 1.1-1.3 2.1-.7 3.4-.3 1.3-1.5 1.5-2.6 1.9-1.2.3-2.4.3-3.4.8.5-2.8 4.5-1.6 5.2-4.5-.9-.7-1.6.7-2.5.9l-1.4.5c-.1-.7.5-1.3.9-1.8.8-.3 1.7-1.2 2.6-.6.7-.1.4-1 .3-1.4-.7-.7-.5-1.5-.1-2.3l.3-.3c.3.5.9 1.1 1.5 1.1.8-.8-.5-2.2.5-3 .4.5 1.4.3.8 1.4M136.7 42.6c-1.1 1.4-2 2.5-2 4.2.3.3.6.5 1 .4-.9 2.1-3.4 1.8-4.8 3.2.1-1.9 3-2.8 3.2-5-.2-.3-.4-.3-.7-.3-1.1 1.3-2.6 2.6-3.6 4.1-.8-1.7 3-3 2.5-5.6 1.7.2 2.9-3.5 4.4-1M130.8 43.8c.5 1.9-2.2 2.6-2.6 4.2-.7-.9-.5-1.6-.2-2.7.4-1.1 1.7-1.4 2.8-1.5M139.2 39.1c-.1.3-.4.5-.5.7h-.6c-.1-.4.3-.6.3-.9.2.2.6 0 .8.2M144.3 40.5c.2.4-.3.4-.4.5-.7 0-.8-.8-1-1.3 0-.3.1-.7.4-.6 0 .6.4 1.2 1 1.4M142.2 41.5c.6.5 1.1 1.1 1.1 1.9-.1-.1-.1-.2-.3-.1-.1.4.3.8-.3 1.2-.7-.7-.2-2.6-1.5-3-.9.6-.1 1.5-.1 2.3-.6-.7-1.9-1-1.4-2 .7-.4.9-1.5 1.8-1.7zM140 46c-.7-.6-.5-1.5-1.2-2 .6.3 1.3 1.2 1.2 2M138.8 48.1l-.4.9c.3-1.4-2.3-2.5-.2-3.6.4.8 1 1.7.6 2.7" class="st6"/><path d="m137.1 38.5-.6-.5s-.2.5.1.9c.3.5.5-.4.5-.4" class="st6"/><path d="M140.6 38s.8-.6 1.4-.6h-.9s-.3-.5-.3-1.5c-.2 1-.5 1.7-.5 1.7z" style="fill-rule:evenodd;clip-rule:evenodd;fill:#f0b83d"/><path d="M210.8 68.2c2.8.9 5.5 3.8 6.5 6.6 1.9 7.4 1.3 15.7-5.2 20.6-1.9.5-4.5 0-5.4 2.1.2.9 1.1 0 1.5.7-2.2-.3-4.2 1.3-5.7 3-.1.7-.8 1.5-.5 2.2-1.3 1.1-2.4 2.4-2.2 4.1.1.3.4.3.7.3-1 1.4-1.7 3.3-.8 4.8.1.2.3.4.5.3.9-1.5 1.9-2.6 3.6-3h2c-1.8.5-4 1.3-4.6 3.3-.9 1.6-.9 3.6 0 5.2 1.6 2.2 4.2 3.7 7.3 3.4l1.4-.4c.1 2.6 1.6 5.8-.7 7.7-2.6 3-6.3 3.4-9.8 4.2-.1.1-.4.3-.4.5 1 .8 2.2-.3 3.4-.1 3-.9 6.1-1.8 8.4-4.4.7 1.7 1.5 4 .4 5.8-1.3 1.5-3.2 3-5.1 3.7-4.6 2.2-10.2 3.3-15.7 2.4h-.4c-.3-.3-.9-.3-1.4-.5-.5-.7-1.9-.2-1.8-1.3 4.4-1 8.9-3.3 11-7.5 1.2-2.1 5-.8 5.2-4-.7-.5-1.4.5-2.1.7-1.6.4-2.8 1-4.5.7-2 .8-3 3-3.4 4.8-.9.1-1.3 1.1-1.9 1.4-1-1.4-2 .9-3 1.1-1 .3-1.6.1-2.5.5-2.5 1.5-6.1 2.7-7 6 .3 2.9-2.1 5.3-1.2 7.9.3 2.8 3 5.6.8 8.4-.3.6.4 1.1.8 1.1.9-.3.9.5 1.3.9 1.1 1.3 2.7 2.4 4 3.6-1.5.1-3-1.1-3.9-2.2-.2.2-.7.2-.7.5 1 1.7 1.8 4 3.8 4.7.3.2.1.6.4.7.1-.7 1-.3 1.4-.3.1.2.3.3.3.5-3.1.9-4.2-2.5-5.8-4.4.1-.6-.2-1.1-.7-1.4-.6 0-1.3 0-1.4.5.7 3.3 1.6 6.8 4.5 9.3-3.7-1.7-3.4-6.1-5.1-9.1-.4-.2-.7.3-.8.5.1 3.4.5 6.7 2 9.5-2.1-.4-2.2-2.8-2.7-4.5-.3-3.8.9-7.5-.7-10.9.1-4 .5-8.8-.4-12.9.3-1.8.3-3.8 1.1-5.4 1.5-2 3-3.9 4.9-5.5l.2.1.5-1.1 6.3-6.3c.3-2.7-.6-6 .1-8.8 0-.5.8-1 .1-1.4-1.1.5-1.3 1.8-1.6 2.8-.3 2.6.5 5.1-.7 7.3-1 .5-1.4-.1-1.7-1 0-2-.6-3.9 0-5.7.1-.5-.1-.9-.4-1.3-1.4.3-.7 2-1.1 2.9v7.3c-1.6-6.1-1.1-12.6 2.7-17.8 1.5-8.1 8-15.9 15.7-19.3 1.5-.5 2.9-2.7 4.6-1.2.3 0 .5-.1.7-.3.1-.6-.5-.5-.7-.9 1-.9 2.3.7 3.8.1.3-.1.1-.3.1-.5-.5-.4-1.1-.3-1.5-.9 1.5.5 3.1-.1 3.9-1.1-.7-.5-1.4.3-2-.3.4-.9 1.4-1.8 2.3-2.5.9-1.9 2.8-3.8 2-6-1.1.3-.9 1.7-1.3 2.4-.7.9-.7 2.2-2 2.4-1.1 0-2-.1-2.9 1-1.1-.9-1.9 1.1-3 .4-2.1-.5-1.9-3.1-3.6-4-.9 1 .7 3.2-1.4 3.4-1 .2-2.1.6-2.5 1.7.1 1.3.1 2.6-1.2 3.2l-.5-.1c.5-.9 1.2-1.8.7-2.9-.1-.7-1-1.1-1.5-1.4-2.8-.3-4.4 4.8-7.1 1.5-.5-7.6 8.9-10 11.2-16.2 2.1-2 4.6-4.2 7.6-4 1.7.9 2.8 2.3 4.5 2.1" class="st5"/><path d="M213.5 141.3c-4.6 5-11 7.1-17.6 6.6-1.7-.3-2.8-.8-4.4-1.4-1.7-.9-2.3-2.7-3.2-4.2 7.1 1.5 14.4.1 20.2-3.4 1.3-1.1 2.7-2.2 4.1-3.3.7 1.8 2.2 3.8.9 5.7" class="st5"/><path d="M216.1 143.7c.5.9.5 2.2.3 3.3-2.2 4-6.8 5.7-11.1 6.4-4.7-.1-10.8 1.1-12.8-4.6l-.1-.1c1.3-.1 3 .9 4.7.7 6.8.5 13.4-2.3 17.7-7.4.9.1.7 1.2 1.3 1.7" class="st5"/><path d="M218.8 150.5c.5 2-1.1 3.1-1.9 4.5-4.8 3.6-12.2 6.1-17.9 2.6-.7-1.1-1.6-2.1-2.2-3.2 3.1.3 7.2 1.3 10.6.1 3-.7 5.6-2.2 8.1-4.2.7-.7 1.3-1.9 2.2-2.1z" class="st5"/><path d="M221 156.1c-.5 3.5-4.5 6.3-7.7 7.3-3.2.9-7.4 1.5-10-.9l-1.7-1.9c2.6-.1 6.3.3 9.1-.9 2.1-.5 4.2-1.9 6.2-3 1.1-1 1.7-2.5 3-3.3.6.7.6 1.8 1.1 2.7" class="st5"/><path d="M222.4 160.2c.5 1.5.3 3.4-.9 4.6-2.6 3.6-7.1 4.6-11.5 3.8-1.8-.5-2.9-1.5-4-3 6 .7 12.7-1.4 15.4-7.2.7.3.6 1.3 1 1.8" class="st5"/><path d="M223.2 169.4c-2.5 3.2-7.1 3.6-10.7 2.9-1-.4-1.7-1.4-2.2-2.2 4.9.7 10.3-1 13.1-5.6.7 1.4.9 3.6-.2 4.9" class="st5"/><path d="M224.2 174.7c-2.7 1.9-6.6 2.4-9.7 1.1-.7-.3-.8-1.1-1.2-1.7 3.9.1 8.4-.3 11-4 .6 1.3.7 3.4-.1 4.6M223.8 179.6c-2 1.3-5.3 1.1-7.6.1-.4-.6-1.1-1.3-.8-1.9 3.2.6 6.5-.3 9.2-1.9-.3.9.6 3-.8 3.7M223.5 183.2c-1.8 1.5-4.8 1.2-6.7.3-.8-.6-.5-1.1-.6-2.1 2.2.7 5.6 1.2 7.7-.4.1.7 0 1.5-.4 2.2M222.8 185.1c-.3 1.3-1.1 2.4-1.8 3.6-1.5.3-3.3.3-4.4-.9-.4-1-.9-1.7-.3-2.8 2.1.6 4.5 1.1 6.5.1M218.4 190.1c.5-.4 1.2-.3 1.8-.1-2.8 3.9-6.7 6.9-11.2 7.7-3.1-.1-6.1 1.1-8.3-1.5-.4-1 .1-2 .7-2.8 3.6-2.6 7.8-2.6 11.8-4.3l.1.2c-.9 1.9-3 3.4-4.7 4.5v.4c1.9.6 3-1.5 4.7-1.8.2 1.1 1.5 1.1 2.2 1.3.1-.1.4-.3.4-.5-.7-.5-1.6-.8-1.8-1.8.3-1 .5-2.1 1.4-2.8.8.9 1.9 1.3 2.9 1.5M204.5 62.7l-.8-.8-.4.5c.2.1.1.4.1.5-.5-1.2-.9-2.6-.7-3.8.9 1.1 1.7 2.2 1.8 3.6M201.4 63.9c.1.3-.8-.5-1 .3v.7c-.6-.7-1.2-1.5-.8-2.4.7 0 1.4.7 1.8 1.4" class="st5"/><path d="M178.1 120.5c.4 3 1.9 5.5 2.4 8.4-1.3 1.1-3-.7-4 1.1-2.2 2.7 1.1 7.2-2.3 9.4-1.9 4.2-.6 9.4-.5 13.5-.5 3-.4 6.5.6 9.8-3-12.2-8.9-25.1-3.4-37.7 1.5-2.4 3.8-5 6.7-5zM210.8 61c.4 1.3-1.3 2.5-.1 3.3 1.5-1.1 1.4-3.8 3.7-4 0 1.5-.9 3-1.2 4.5l.3.3c1.7-1 1.7-3.2 3.7-3.5.1 1.7-1.1 3.2-1.7 4.7 1.1.5 1.4-.9 2.3-1.4.6-.2 1.1-.7 1.8-.5-.5 1.4-2.4 2.4-2 3.8 1.3 0 1.9-2.2 3.4-2.1-.7 1.5-2.8 2.2-2.2 3.8 1.4-.3 2.2-2.2 3.8-1.9-.4 1.4-3.2 2.3-2.3 4 1-.3 1.7-1.5 2.8-1.3-1 .8-3 1.7-2.6 3.2 1.5-.4 2.6-2.2 4.2-1.5-.2.5-1.1.7-.9 1.4.1.7.9.5 1.4.9-1.1-.6-2.3-.1-3.2.6.3 1.1 1.5.1 2.1.8-.3.1-.8 0-1 .4.3 1 1.6 1.2 2.6 1.2 1.1.5 1.7 1.7 2.2 2.6-1.9 0-2.6-1.7-4.4-1.8-.4 0-.6.6-.3.8 1.5 1.6 4.4 2.6 4.5 5.1-1.7-.8-3.1-2.1-5.1-2.2-.5 1.3 1.3 1.4 1.9 2.1.9.9 1.7 1.8 1.9 2.9-1.2-1.2-2.8-2.7-4.5-2.5-.3.2-.1.6-.1.9.2.6.9.3 1.2.5 2.8 1.9 2.4 5.4 3.6 8-2.8-.9-2.6-4.4-5.3-5.4-.9.9 1 1.8 1.3 2.7 1.3 2.4 2.2 5.7.9 8.3-3.7 3.7-9.3 5.4-10.4 10.8-1.7 3.8-7.4 3.1-7.2 7.9-.9-.8-.3-2.1-.1-3 1.5-2.8 5.4-1.7 6.2-4.7-.2-.3-.5-.3-.9-.3-2.4 2-6.8 2.5-7.3 6.3-.1 1 .5 1.7.7 2.6-1.2-.6-2.2-2.1-2.4-3.4.1-1.9 1-3.4 2.8-4.3 2.6-.7 5.6-1.2 7.8-3.3.1-.3 0-.5-.3-.7-1.7.6-3.8 1.2-5.6.5-2-.8-4.2.2-6 1.3 0-1.1 1-1.9 1.8-2.5 3.4-1.2 6.7 1.1 10.4.5.4-.4.8-.9.7-1.7.7-.3 1.5-.6 1.8-1.3-.7-.3-1.9 0-2.8-.3-2.3-.9-2.1-4.1-5-4.2h-2.4c.9-.8 2.2-.8 3.3-.5 3 1.1 3.7 5.9 7.7 4.1.5-.3 1.2-.1 1.5-.8l-.5-.5c-1.3-.2-2.9.3-4-.5-1.3-1.6-1.4-3.8-3.3-5 1-.1 2 .3 3 .7 1.9 2.1 3.9 4.6 7 3.6.4-.3 1-.3 1.3-.9l-.1-.4c-1.9-.3-4.9.4-5.9-2-.3-.5 0-.9.1-1.4 1.4 1.5 3.5 3.4 6.1 2.7.7-.6 2.1-.4 2.2-1.7-.9-1.1-1.6.3-2.5.3-1.1.1-2.2 0-3-.9-1.4-3.6 2.9-5.8 2.4-9.6 1.4-7.3-.3-16.3-7.3-21-1.8-1-3.7-1.9-5.7-2.4-.5-1.1.9-1.8 1.4-2.5.2-.7.7-1.4.6-2.3.8.8 1 1.5 1.2 2.1" class="st6"/><path d="M211.2 106c-2.8.8-5.1-3.6-8.4-1.9 1.3-1.4 3.2-1.3 4.8-.9 1.5.6 2 2.7 3.6 2.8M215.9 122.8c-.5 2-1.5 4.9-.1 6.9.6 1.3 1.8 2.2 2.8 3.2-1.1 1.8-2 4-.6 5.8.9 1.6 4.1 1.7 2.1 3.8-.5 1.2-.5 2.2-.5 3.6-3.6-8-7.1-16.7-6.6-25.8.9.8 1.8 2.1 2.9 2.5M223.9 151c-.3 1.6-1.8 3-.9 4.7.7 1.3 1.9 2.5 3.2 3.2-.6 1.1-.9 2.4-1.4 3.7-1.7-4.8-2.6-9.9-4.5-14.6 1 1.2 2.4 2 3.6 3M227.4 167.9l-1.4 1.5c-.3-1.3-.4-2.8-.5-4.2.4 1.3 1.5 1.5 1.9 2.7" class="st6"/><path d="M176.7 118.2c-.4.1.5-.7.5-1.2.1-.5.3 1.1.3 1.1s-.4-.1-.8.1" class="st2"/><path d="m201.8 106.4.5-.4h.4z" class="st5"/><path d="M209.6 116.9c.5.9.2 2.1.3 3.2-.4.6-1 0-1.4 0-.8-.5-1.3-1.4-.9-2.4.3-.5.5-1.2 1-1.5.7-.2.6.6 1 .7" class="st6"/><path d="M205.1 71.2c.7-.3 1.6-.1 2.2.4.3.7-.5.8-.8 1.1-2.8.7-5 3.6-8.1 2.1.1-.7.7-1.3 1.1-2.1.5-.7 1.2-1.4 2.1-1.7 1.1.1 2.4 1.9 3.5.2" class="st1"/><path d="M224.6 154.3c-.5-1.8 4.3-4.4 0-4.7-.8-.5-1.8-1.1-2.2-2.1 2.6-.6 5.2-1 8-1.3.4.3 1 .1 1.3.6.8.4.6 1.6.5 2.3-.7.7-1.5 1.7-2.2 2.1 0 .3-.5.7 0 .9-1.7 1-4.9 2.1-5.4 2.2" class="st5"/><path d="M234.1 113.3c1.3 1.2 2.1 2.9 3.8 3.7.4-.1.6-.5.7-.8 1.8 2.1 2.5 4.9 3.6 7.4.3 0 .6.1.8-.3.7 1.9.3 3.6.4 5.9 1.3 2.2.5 5.2-.3 7.3-.5 1.9-2.7 2.2-3.2 4.1.7.8 1.2 0 1.9-.1 1.6-.3 2.8.3 3.9 1.1-.5 1.7-1.6 3.4-3.3 4.2-.4.1-.5.5-.4 1 1.3 1 3.2.6 4.4 2.2 1.4 1.5 1.9 3.2 2.6 5-1.3.7.1 1.9-.1 2.8-.2 1.5 1.8 3.4.1 4.7-.5 1.7-1.1 3.4-1 5.2-1.5 1.7-1.9 3.8-4.1 4.8-1.2.7-2.3 2-3.2 3-.7-1.3.6-2.8.5-4.3 1-3.2 3-6.3 1.7-10-.9-3.4-3.8-6.1-7.1-6.9-3.3-.4-6.7-.4-9.7.5-.5.1-1.1.3-1.6.4 2.6-1 3.7-1.5 5.3-2.2 1.5-1 3.6-1.9 3.9-3.9-.2-.8-.3-1.7-.7-2.4-1.7-1.5-3.5-.5-5.5-.9l-2.9.3c5.2-3.5 9.2-9.3 10.2-15.6.7-5.3-.5-11.1-1.1-16.3h.4z" class="st6"/><path d="M236.6 117.4c2.4 7.3 1.6 15.6-1.4 22.3-.3.5-.9 1.2-1.5.7-.5-1.1.5-2.2 1.1-3.2 2-5.4 3.3-11.5 1.5-17.3-.3-.9-.6-1.9-.3-2.9.2 0 .4.3.6.4M241.2 128v.5h-.4v-.7c.2-.1.4 0 .4.2M239.6 137.6c-1 1.2-1.5 3.3-3.3 3.6-.8-1.7 1.7-2.4 2-4.1 1.5-2.3 1.8-5 2.4-7.6l.4-.3c.1 3-.6 5.8-1.5 8.4M245.5 153c1.5 2.4 2.2 5.6 1.5 8.4-.5-.7-.1-1.4-.4-2.2-.6-3.4-2.2-6.6-5.4-8.8-.1-.5.2-1.1.9-.9 1.3 1 2.4 2.2 3.4 3.5M244.9 163.6c-.6 3-1.4 6.3-3 9.1-.2-.1-.3-.5-.3-.9.3-.7.7-1.3.7-2.2.7-2.4 1.5-4.7 1.8-7.3-.1-3-1.6-5.7-3.7-8-.1-.3 0-.7.4-.8 3.4 2.3 4.6 6.6 4.1 10.1" class="st1"/><path d="M255.5 188.3c.5 4.4-3.7 8.3-6.9 10.6l-2.4 1.5c-1.3-3-2.4-6.3-3.3-9.6 2.7-2.2 6-2.8 9.4-3.7 1.2.5 2.5-.3 3.2 1.2zM263.5 194.4c1.5 6.2 5.6 11.8 4.4 18.8-4.4 9.3-14.6 13.6-23.1 17.6-1 .3-1.9.7-3 .7-2.5-6.8-4.4-13.8-6.3-20.9.9-.5 2.3-.3 3.3-1 9.1-3 19.5-7.7 23.3-17.7.7.4 1 1.6 1.4 2.5z" class="st8"/><path d="M227.2 209.6c-.1.6-.8 1.1-1.3 1.4-1.1.7-2 1.3-3.2 1.8.8-1.1 2.8-2.7 4.5-3.2z" class="st3"/><path d="M59.4 224.3c11.1 3.2 22.1 6.6 33.6 8.8 9.1 2.4 19.2 3.2 29.2 4.2 14.5 1.9 29.1-.4 42.9-1.8 10.7-1.5 21.1-4 31.3-6.9 12-3.4 24.3-6.2 34.8-13.2l2.7-3 .5.5c2 7.9 4.6 15.5 7.3 23 .7 2.7 1.3 6.3-1.1 8.3-18.1 10.3-37.9 15.1-58.4 19.6-4.2.5-8.7 1.3-12.8 1.9-14.9 1.9-31.3 2.2-46.7 1.9-5.3-.2-10.1-.7-15.3-1.3-7.6-.3-14.7-1.9-22-3.2-19.1-4.1-38.3-9-55.3-18.6-2.1-1.5-2.6-3.8-2.2-6.1 2-7.3 4.8-14.1 6.9-21.4.5-1.7.8-3.4 1.7-5 6.3 7 14.8 9.4 22.9 12.3z" class="st8"/><path d="M212 212.7c-2.4 1.4-4.9 2-7.6 1.8-.3-.8 1-.5 1.4-1.1 2.1-.5 3.8-.5 6.2-.7zM202.8 220.5c-.7.3-2.1.8-3.4.8-.3-.4-.3-1.2-.3-1.7z" class="st3"/><path d="M259.8 184.8c2.4 5.5-1 10.7-4.8 14.4-5 4.4-11 6.9-17.1 8.9l-2.9.4c.3-.7-.5-1-.3-1.7 8.5-2.8 17.4-6.4 22.3-15.1.6-1.5.7-3.2 0-4.7-1.5-2.1-3.7-1.5-5.9-1.4-3.4 1-6.9 1.9-9.8 4l-.4.9c1.3 3.5 2.3 7.1 3.4 10.6-.7.5-1.6.8-2.3 1.2-1.5-2.1-1.7-5-2.9-7.4-.1-2.5-3.7-5.8-.4-7.6 5-2.6 10.4-4.6 16.1-5.1 1.8.2 3.8.9 5 2.6M61.4 215.8c2.4.5 5.4 1 7.2-.9.5-1.4-1.1-2-1.8-2.6-3.7-1.8-8.4-1.6-12.6-1.8-.7-.5-1.3-.9-1.9-1.7 5.2-.6 10.6.3 15.5 1.4 1.6 1.1 4.2 1.5 4.6 3.8.3 1.5-.5 2.9-1.7 3.4-3.8 1.6-7.1.7-11.2.1-4-.7-7.3-3-10.3-6.1-2.3-2.2-4.8-5.1-8-4-.6.6-.7 1.6-.4 2.4l.7 1.2c5.2 4.1 11.2 6.3 17.2 8.4 2.2.7 4.6 1.7 7 2.4 14.7 3.9 28.7 8.5 44.4 10.1 6.5 1.1 14.1 1.4 20.7 2l.3-.3c19.4.1 36.8-2.2 54.9-6.6 3.9-1.1 7.3-2.1 11.2-3 8.7-2.2 17.5-5.2 25.7-9.1 2.4-1.9 7.2-2.6 6.5-6.7-.5-1.1-1.9-.9-2.9-.7-5.4 2.4-8.5 9.3-14.4 10.1-4.8.5-10.5 2.9-14-1.5-.1-1.1-.1-2.3.7-3.2 3.2-3 7.6-3.1 11.8-3.8h7.6c-1.3 3.4-5.2 1.1-7.3 1.9-2.9.5-6.3.5-8.7 2.6-.3.5-.7 1.2-.1 1.8 3.2 2.4 7.7.3 11-.9 6-3 10.3-11.5 18.1-8.8 1 .4 1.7 1.5 1.8 2.5-.1 2.5-1.8 4.7-3.8 6-4.5 3.5-9.8 5.4-15 7.5-17.9 6-37 10.5-56.4 13-5.6.3-11.3 1.1-17.1 1.4-13.6.1-27-.9-40.3-3.3-1.1.3-2.1-.5-3.2-.4-17.3-3.9-34.6-7.7-50.7-14.9-3.8-2.2-10.1-4.8-9.3-10.3.8-1.5 2.2-2.1 3.8-2.4 8.4.1 12.6 9.6 20.4 11" class="st6"/><path d="m27.6 190.5-3.3 9.5c-4.1-2-7.9-5.5-9.6-9.9-.1-.9-.1-1.9.5-2.6 2.6-1.3 5.4 0 7.9.6 1.6.6 3.2 1.5 4.5 2.4zM11.5 197.6c6 7.3 14.8 9.9 23.1 12.7-.2 2.4-1.3 4.8-1.9 7.3-1.2 3.9-2.4 7.7-3.7 11.6-.8.6 0 3-1.8 2-7.9-2.6-15.3-6.3-21.6-12.6-2.7-3-5.2-6.8-3.8-10.9 1.4-5.2 3.8-10 5.4-15.3l.6-1.1c.9 2.3 2.2 4.5 3.7 6.3z" class="st8"/><path d="M47.7 212.6c-1.7-.7-3.8-1.8-4.4-3.3 1.7.5 3.1 2 4.4 3.3zM66.1 214c0 .8-1 .2-1.4.5-1.9-.4-4.3-.6-5.9-1.9 2.6.1 5.2.1 7.3 1.4zM71.5 219.5c-.3.6 0 1.5-.7 1.8l-3.2-.9c1.3-.5 2.6-.6 3.9-.9z" class="st3"/><path d="M27.1 185c2.1 1.1 4.4 1.6 6.1 3.4-.5 2.9-1.9 5.4-2.6 8.1-.9 1.8-1 3.9-2.1 5.6-.9-.1-1.7-.7-2.3-1.1.2-1.7 1-3.6 1.3-5.2.7-1.7 1.5-3.3 1.9-5.1.4-1.4-1.2-1.9-2.1-2.5-3.6-2-8-3.4-12.1-3-1 .3-2 1.1-2.3 2.1-.8 6.1 5 10.3 9.3 13.5 4.2 2.5 8.5 4.3 13.1 5.8.3.5 0 1.3-.3 1.8q-8.1-1.65-15-6c-5.8-3.2-11.3-9.2-10.3-15.9.4-2.2 2.5-4 4.7-4.4 4.5-.1 8.8 1.5 12.7 2.9" class="st6"/><path d="M36.6 239.5c1.2.3 1.7.4 2.2-.8l3.5-8.7c-.5-1.7-.8-1.9-1-2l.2-.5 3.9 1.6 3.2 10.4 2.3-5.6c.4-1.1.5-1.8-1-2.5l.1-.4 4 1.6-.2.5c-1.4-.4-1.7 0-2 .9l-4.4 10.8-.5-.2-4.2-13.3-3 7.4c-.5 1.3-.3 1.8 1 2.5l-.2.5-4.2-1.7zM54.2 232.7l10.9 3.5-1.2 3.8-.5-.2c.4-2.8-.7-3.7-3.3-4.6-1-.3-1.4-.4-1.7.4L57 240c1.8.6 2.9.4 4-1.8l.5.2-2.1 6.4-.5-.2c.5-2.4-.2-3.3-2.1-3.9l-1.5 4.6c-.3.8 0 1.2 1.2 1.6 1.9.6 3.9.7 6.1-1.7l.5.2-2 3.7-11-3.6.2-.5c1.1.2 1.7.4 2.1-.8l3-9.1c.4-1.2-.4-1.5-1.2-1.9zM83.9 241.3c-.7-.1-1.2.3-1.6.9L75.8 253l-.5-.1-1.2-9.8H74l-5.6 8.2-.5-.1-1.4-12.6c-.1-1-.3-1.2-1-1.5l.1-.5 5.7 1.3-.1.5c-.7-.1-1.3-.2-1.4.5v.7l.7 7.5 3.6-5.4-.3-2c-.2-.5-.3-.7-1.2-1l.1-.5 6 1.4-.1.5c-.8-.1-1.4-.2-1.6.4-.1.2 0 .7 0 1.1l.6 6.9 3.7-6.1c.1-.2.2-.4.3-.8.2-.8-.5-1-1.1-1.2l.1-.5 3.5.8zM94.5 253.5c-1.7 1.4-3.4 2.4-5.9 2-4.6-.7-6.5-4.3-5.9-8 .6-4 3.9-6.6 8-5.9 1.8.3 3.1 1.5 3.6 1.6s.8-.3 1-.8l.5.1-.7 4.6-.5-.1c-.4-1.8-1.7-4.4-3.9-4.7-2.9-.5-4.1 2.4-4.6 5.7-.2 1.2-.4 3.1.2 4.4.6 1.5 2.1 2.1 2.7 2.2 1.5.2 3.1-.1 5-1.7zM106.9 257.7l-6.4-.8.1-.5c1.2.1 1.6.1 1.7-.6.1-.5-.4-2.1-.6-2.7l-4.4-.5q-1.05 1.95-1.2 2.4c-.1.7.8.9 1.5 1l-.1.5-4-.5.1-.5c1.1 0 1.4-.7 2.2-2.1l5.7-10.3.5.1 3.1 10.9c.6 2.2.9 2.9 1.8 3zm-5.4-5.4-1.4-5-2.4 4.6zM116.7 248.8c-.3-1.4-1.3-3.8-3.6-3.9-1-.1-2.2.5-2.3 1.7-.1 1.1.3 1.5 1.9 2.5l2.8 1.6c.6.4 2.1 1.6 1.9 3.8-.1 1.7-1.6 4-5.2 3.8-1.9-.1-2.7-.9-3.3-.9-.4 0-.5.3-.6.6h-.6l.3-4.9h.6c.3 2 1.2 4.3 3.8 4.5 2.4.2 2.6-1.8 2.6-2 .1-1.3-.8-1.9-2-2.6l-1.3-.7c-3.3-1.9-3.2-3.6-3.1-4.5.1-1.2.9-3.9 4.6-3.6 1.6.1 2.5.8 3 .9.5 0 .6-.3.7-.6h.6l-.3 4.3zM127.5 258.8l-7.1-.3v-.5c1.5-.1 1.9-.1 2-1.8l.4-10.4c-1.4 0-3.4.1-3.9 3.2h-.6l.2-4 11.9.4-.1 4h-.6c-.3-3.2-2.3-3.4-3.7-3.5l-.4 10.4c-.1 1.7.4 1.7 1.9 1.9zM142.4 258.9H131v-.5c1.1-.1 1.7-.2 1.7-1.4v-9.6c0-1.3-.8-1.3-1.7-1.4v-.5h6.9v.5c-1.4.1-2 .1-2 1.8v9.4c0 1 .4 1.1 1.8 1.1 3 0 4.1-1.6 5-3.9h.6zM142.9 245.5l11.4-.6.2 4h-.5c-.6-2.8-2-3.2-4.7-3.1-1.1.1-1.4.2-1.4 1l.2 4.6c1.9-.1 2.9-.6 3.1-3.1h.5l.4 6.7h-.5c-.4-2.5-1.4-3-3.4-2.9l.3 4.8c0 .9.4 1.1 1.7 1 1.9-.1 3.9-.7 5-3.8h.6l-.6 4.2-11.6.6v-.5c1.1-.2 1.7-.3 1.7-1.5l-.5-9.6c-.1-1.3-.9-1.3-1.8-1.3zM172.7 243.7c-1.1.3-1.5.5-1.4 1.8l.7 6.3c.1 1.2 0 3-.7 3.9-.9 1.2-2.6 1.7-3.7 1.8-.9.1-2.7.2-4.1-.8-.9-.7-1.5-1.3-1.7-3.4l-.7-6.6c-.2-1.7-.7-1.6-1.8-1.6l-.1-.5 6.7-.7.1.5c-1.3.2-1.9.3-1.7 2l.7 6.6c.1 1.1.4 3.8 3.2 3.5 3.5-.4 3.2-3.4 3.1-4.6l-.6-6c-.1-1.2-.4-1.8-2.1-1.8l-.1-.5 4.3-.4z" class="st1"/><path d="M174.7 255.9c1.2-.3 1.7-.5 1.5-1.8l-1.5-9.3c-1.3-1.2-1.6-1.2-1.9-1.1l-.1-.5 4.1-.7 8.1 7.3-.9-5.9c-.2-1.2-.5-1.8-2.1-1.7l-.1-.5 4.2-.7.1.5c-1.4.4-1.4.9-1.3 1.8l1.8 11.5-.5.1-10.4-9.2 1.2 7.8c.2 1.4.7 1.7 2.2 1.6l.1.5-4.4.7zM195.7 252.5l-6.8 1.4-.1-.5c1-.3 1.8-.6 1.5-1.8l-2-9.4c-.3-1.3-1.2-1.1-2.1-1l-.1-.5 6.8-1.4.1.5c-.9.2-1.8.4-1.5 1.8l2 9.4c.3 1.2 1.1 1.1 2.1 1zM205.9 249.8l-6.8 1.8-.1-.5c1.4-.5 1.8-.7 1.4-2.3l-2.7-10.1c-1.3.4-3.3 1.1-2.8 4.2l-.6.1-1-3.9 11.5-3.1 1.1 3.8-.6.2c-1.2-3-3.2-2.5-4.5-2.3l2.7 10.1c.4 1.6.9 1.5 2.3 1.3zM205.6 236l10.8-3.7 1.3 3.8-.5.2c-1.4-2.5-2.8-2.5-5.4-1.7-1 .4-1.3.5-1.1 1.4l1.5 4.4c1.8-.6 2.6-1.4 2.1-3.8l.5-.2 2.2 6.3-.5.2c-1-2.3-2.2-2.5-4-1.9l1.6 4.5c.3.8.7.9 1.9.5 1.8-.6 3.6-1.8 3.8-5l.5-.2.6 4.2-11 3.8-.2-.5c1-.5 1.6-.7 1.2-1.9l-3.1-9.1c-.4-1.2-1.2-1-2.1-.8zM222.6 243.6c1.1-.5 1.3-1.2 1-1.9l-4-8.9c-.5-1.1-1.3-.8-2-.5l-.2-.5 5.5-2.5c5.1-2.3 8.1.2 9.4 2.9 1.5 3.3.8 7-3.7 9.2l-5.7 2.6zm3.9-3.2c.3.7.6 1 1.5.6 2-.9 3.1-2.8 1.2-7.1-.7-1.7-2.9-5.3-6-3.9-1.2.5-.9 1-.7 1.4zM68 71.9c.7-.7 1.8-.7 2.6-.3 1 .8 1.7 2.2 2.3 3.3-1.5-.1-3.5.9-4.8-.3-1.2-1.2-2.6-1.6-4.1-2.2-.1-.2-.3-.5 0-.7.4-.5 1.1-.5 1.8-.5.8.3 1.4 1.3 2.2.7M80.4 81.9c-.1.2-.3.3-.3.5.6-.1 1.4.1 1.9.4.7.7.2 1.6.2 2.4-.4.5-1.1.3-1.5.1-.7-.3-.6-1.1-1.1-1.5-.3.3-.1 1.1-.7.9-.6-.9-1.2-1.8-1.5-2.9.3.1 1 .5 1.5.1.3-.4.8-.7 1.3-.8.3.3.2.6.2.8" class="st1"/><path d="m71.3 74.3-1.4.2c-.4 0-.8-.1-1.2-.5-.1-.1-.2-.3-.4-.4.2 0 .3-.1.4-.2 0 0 .1.8 1 .8.6 0 .9-.6.9-.6z" class="st9"/><path d="M193.5 81.8h.4c-.3.9-1.1 1.8-1.4 2.8-.7.2-.7-.6-.8-1-.5.6-.6 1.5-1.4 1.8-.5.1-1 0-1.4-.4.3-.9-.6-2.3.7-2.6.3-.1.7-.2 1.1-.1l.3.3c.2-.3-.3-.8-.2-1.3 1.3-.6 1.7 1.6 2.7.5" class="st1"/><path d="M199.6 74.2s.6.3 1 .3 1.1-.1 1.5-.5c.1-.1.2-.3.4-.4-.2 0-.3-.1-.4-.2 0 0-.2.7-1 .7-.6 0-.8-.6-.8-.6z" class="st9"/><path d="M70.2 107.2c-.6-.6-1.5-.9-2.1-1.4.9.4 1.7.8 2.1 1.4" class="st5"/><path d="M63.4 63.5v.7c-5 1.4-10.6 5.4-12.1 10.7-2.2 6.3-2 14.9 1.9 20.5.2 1.3-.2 2.1-1.1 2.7-1.3.5-3 .3-4-.4-.3-.1-.8 0-.8.4.2 1.5 2 1.4 3.2 1.8 2.1 0 4-1.3 5.1-3 .5.7.1 1.3 0 1.9-1.1 2.4-4.2 1.2-6 2.1.8 1.7 2.8.9 4.2 1 2.9-.7 3.8-5.1 7.3-4.2-2.8 1.3-1.5 5.7-5.2 5.6-.9 0-1.9-.7-2.6.1 1 1 2.6 1.5 4.2 1.1 2.9-.9 3.7-5.7 7.5-4.3.3.1.6.4 1 .4-1.5 0-3.2 0-4.6 1-1.3 1.1-1.5 3.6-3.7 3.4-.7.3-1.9-.7-2.1.4.5 1 2.6.5 1.9 2.1 1.6 1.3 4 .5 5.7.1l.1.2c.9-.3 1.8-.7 2.8-.7 1.5.3 3.4.6 4.1 2.3l.2.7c-2.1-1.3-5.2-2.1-7.3-1-1.8.1-2.9-.3-4.5-.8-.4.1-.4.6-.1.8 3.1 4 11.7 1.2 10.4 8.5-.5.9-1.1 2-2.1 2.4.6-1.1.7-2.4.5-3.6-1.2-3.4-5-3.4-7.3-5.4-.3 0-.5.1-.7.3-.3 1.1 1.1 1.5 1.7 1.9 1.7.9 4 .9 4.8 3.2.1.7.4 1.8-.3 2.4-.1-1.7-1.5-3.6-3.3-4.6-2.5-.7-4.4-2.8-5-5.5-2-4.4-7.3-4.9-9.9-8.8-1.7-3.7.4-7.1 2.7-9.9 0-.3-.1-.8-.5-.8-2.5 1.1-2.4 4.6-5.2 5.4 1.3-2.8.9-7.3 4.7-8.3.1-.3.3-.5.3-.9-1.1-.9-2.4.5-3.4 1-.5.4-.9 1.1-1.5 1.2.7-1.5 2.1-3.4 3.7-3.8.3-.2.5-.6.6-.9-.7-.6-1.4 0-2.1 0L43.3 85c-.2-2.6 3.2-3.5 4.5-5.6-1.1-.5-2.2.7-3.3 1.1l-1.5.4c.1-.7.9-1.4 1.4-2 1.1-.7 2.3-.9 3.4-1.4.1-.4-.2-.6-.4-.9h-.7c.6-.5 1.9-.1 2.2-.8-.9-.7-1.9-1.1-3-.7 0-.1 1.5-.2 1.2-1.2-.3-.3-.6-.7-1-.9v-.3c1.7-.4 3 1.1 4.3 1.7.2-.1.3-.4.3-.7-.5-1.3-1.9-1.8-2.9-2.5 1-.4 1.9.7 2.9 1.1.9-1.9-1.7-2.2-2.3-3.7 1.5-.9 2.5 1.4 3.8 1.8.5-.2.2-.8.1-1.1-.6-1.1-1.7-1.7-2.3-2.8 1.4-.3 2.1 1.6 3.4 2.1.3-.4 0-1.2-.3-1.7-.8-.6-1.2-1.6-1.8-2.4 1.7-.1 2.6 1.7 4 2.2.1-1.7-1.9-2.9-1.5-4.9 2.1.1 2.2 2.6 3.8 3.4.3-1.7-.9-3-1.1-4.7.7-.4 1.4.5 2.1.8.8.9.5 3.4 2.2 2.6-.5-1.5-.9-3.4.3-4.7.4 1.6.9 3.3 2.3 4.3" class="st6"/><path d="M68.3 104.4c.1.1-.3-.1-.8 0-1.3-.3-2.7.2-4 .8-1.1.5-2 1.4-3.2 1.1 2-1.1 3.4-4.2 6.7-2.8zM63.7 117.7c.2.9.2 2.1-.7 2.5-.4.3-.8.5-1.4.4-.3-1.5-.1-3.2 1-4.1.6.1.8.7 1.1 1.2" class="st6"/><path d="M62.7 138.9c3.4 2.2 7.1 4 11.3 4 3 .9 6.5.1 9.3-.3-.9 2.7-3.2 4.7-5.9 5.4-5.6.9-11.4.1-16-3-1.9-1.7-4.8-3.4-3.8-6.4.6-.7.5-2.6 1.8-2.2 1 1 2 2 3.3 2.5" class="st5"/><path d="m77.4 149.5 1.8-.7c0 1.2-1.5 2.1-2.1 3.2-3.4 2.1-7.7 2.4-11.8 1.6-4-.9-8.3-2.3-10.2-6.2-.7-1.8.4-3.6 1.5-5.1 5.4 6.2 13.2 8.3 20.8 7.2" class="st5"/><path d="M71.5 155.3c.7-.3 1.7-.1 2.4-.2.2-.1.1-.3.4-.3h.4c-1.2 2.8-3.8 4.7-6.9 4.8-5 .2-9.7-1.3-13.5-4.6-.7-1.3-2.2-2.4-1.7-4.1.6-.7.4-1.8 1.3-2.4 4.4 5.1 10.8 8.1 17.6 6.8" class="st5"/><path d="M51.8 153.9c4.4 5.7 11 7.7 18 6.9-1.5 2.8-4.2 4-7.3 3.8-4.4-.1-9.3-2-11.6-6.2-1.3-1.6.3-2.8.5-4.5z" class="st5"/><path d="M65.5 166c-1.3 2.2-3.4 3-5.7 3.4-4.4.2-8.8-1.6-10.8-5.6-.5-1.7.3-3.4.8-5 3 5.9 9.3 7.9 15.7 7.2" class="st5"/><path d="M61.2 170.7c-1.4 3.1-5 2.4-8 2.3-2.5-.5-5.2-2.4-5.8-5 .3-.9 0-2.1.7-2.9 2.9 4.6 8.2 6.2 13.1 5.6" class="st5"/><path d="M58.1 174.7c-.3.8-.9 1.7-1.8 1.9-2.2.9-5.2.6-7.4-.1-.8-.5-1.9-1.1-2.2-2.1-.3-1.3-.1-2.6.3-3.7 2.6 3.6 7 4.2 11.1 4M56.2 178.4c0 .9-.4 1.5-1.1 2-1.8.6-4.4 1.3-6.3.5-.9-.2-1.4-1-1.9-1.7v-2.6c2.6 1.8 6.1 2.2 9.3 1.8M55.4 181.9c.1.9-.1 1.9-1 2.2-2 .9-4.5 1.3-6.3-.3-.7-.5-.4-1.5-.7-2.2 2.4 1.2 5.5 1.5 8 .3M55.6 186.1c.3.9-.7 1.3-.6 2.2-.9.6-1.7 1.4-2.8 1.3-.5-.1-1.2-.2-1.8-.3-.5-1.2-1.3-2.2-1.5-3.5 2.1 1.1 4.4.5 6.5-.1zM57.3 191.6c.4 1.8-2.4 1.1-1.5 2.6 1.1.3 1.7-.4 2.3-.9v-.3c1.7.3 2.8 2.1 4.6 1.9.3-.1.1-.5.1-.7-1.3-.7-2.8-1.6-3.7-3-.3-.5-.9-.9-.9-1.5 4 2 9.2 1.3 12.4 4.8.2.7.7 1.6.1 2.3-3 2.7-7.1 1.2-10.6.7-3.5-1.4-6.8-3.8-9-7 1.5.5 3.5 0 4.6-1.2 1 .3 1.1 1.5 1.6 2.3M41.5 152.6l.1-.1c-.7-1.7-3.6-2.4-2.5-4.7 1.4-1.6 3.1-.3 5-.5 1.5.5 3.3.3 4.8.7-.7 1.8-2.8 2-4 3.2.1 1.5 2.3 2 1.8 3.7-.9-.5-4.1-1.9-5.2-2.3M68.6 59.4c-.1 1.3-.3 2.3-.7 3.3-.1.3.3-.7-.3-.5-.4-.2-.7.3-.9.5-.3-1.1 1.1-2.2 1.5-3.3zM71.6 62.5c.3.9-.2 1.8-.8 2.4V64h-1c.5-.5 1-1.4 1.8-1.5" class="st5"/><path d="M36.1 123.1c-.3 6.6.5 12.9 5.1 17.9 1.6 1.7 3.3 3.3 5.2 4.7-2.6.2-5.7-1.1-8.2.5-.8.9-.8 2.2-.6 3.3 1 1.6 2.3 2.5 3.9 3.2.7.1 4 1.4 5.2 2.2-4.4-1.3-10.5-1.9-14.6.6-3.6 2.2-4.4 6.3-4.1 10 .6 3.4 2.6 6.3 2.6 10-2.1-3-6.7-4.2-7.5-8.2.1-2.2-.5-4.2-1.6-6 .4-1.8.8-3.6 1.2-5.5.1-.5-.1-.9-.4-1.1h-.1v-.4c1.1-3 3.2-6.3 6.7-6.5 1.2-1.5-1.4-1.5-1.9-2.6-.8-.9-1-1.9-1.5-2.9 1.2-1 2.9-1.6 4.4-1 .3.1.5.4.9.3.7-.3.3-.9.1-1.3-3.2-2.1-4.2-6.2-3.8-9.8 1.4-1.7 0-4.4.9-6.6.1-.3.5.4.9.1.9-2.5 2-5 3.3-7.4l.4-.1c0 .3.1.6.5.8h.5l3.6-3.7c.5 3.2-1.1 6.2-1.1 9.5M52.5 144.6l-.7 1.7c.7-2.3-3.2-5.2.5-6.3.9-.6 1.4-1.6 1.8-2.5.9-2.2-3.2-4.2 0-5.5 2-1.9 2.6-5 1.7-7.3-.4-.3-.3-.9-.7-1.2 1.3-.9 2.2-2 3.3-3.2.2 9-2.5 16.9-5.9 24.3" class="st6"/><path d="M35.2 117.6c-.2 4.4-2.1 8.9-.5 13.6.3 3.3 1.7 6.1 3.1 9 .1.5-.1.9-.5.9-1.1.1-1.2-1.1-1.7-1.7-3-6.7-3.2-14.8-.8-21.9zM30.4 128.6v.4c-.2 0-.5.1-.5-.1-.1-.3 0-.5.3-.7 0 .2.2.1.2.4M30.5 130.1c.7 4 1.8 7.8 4.8 10.8.1.4-.3.7-.5.9-1.3-.1-1.9-1.5-2.5-2.4-1.6-2.8-2.2-6.1-2.4-9.4.2-.3.3 0 .6.1M30.1 150.6c0 1.1-1.1.9-1.5 1.8-2.9 2.5-3.8 6.1-4.3 9.8H24c-.7-5 1.3-9.4 5.2-12 .4-.1.6.2.9.4" class="st1"/><path d="M29.1 157.3c-3.8 5.1-.5 10.8.5 16.1-.7-.1-.9-1.1-1.1-1.7-1.8-4.7-4.1-11.5 0-15.9.7-.5 1.1-1.4 1.9-1.7 1.4 1.4-1 2.1-1.3 3.2" class="st1"/><path d="M114.1 112.9c-.2-.2-.7-.7-.5-1.1.2.3.5.7.5 1.1M157.6 112.9c-.3-.2-.1-.7.3-1-.1.4-.2.8-.3 1M74.1 162.2c.5 2.1 1.3 4.5.8 6.7.2.1.3.3.6.3 1.4-1.8.7-4.4.5-6.3 2.4 3 2.7 7.1 2.9 11 .1.3.4.3.7.2 1.4-1.6.1-3.8.5-5.8 2 2.9 1.9 7.1 1.7 10.4.2.1.3.4.6.3.5-.5.7-1.1.8-1.8.7 3.4.1 7.2-1.1 10.5.6-9.3-5.7-17.1-13.2-22.1.1-.9 1.1-2 2-2.5.2 1.1-.5 2.5.4 3.2 1.6-1.5-.5-5 1.8-6zM200.5 165.7c.7-1-.3-2.1.3-3.2.9.6 1.7 1.3 2 2.3-7.5 5.3-13.7 13-13.2 22.4-1.3-2.9-1.8-6.9-1.1-10.8.1.8.3 1.7 1 2.1 1.1-.7-.5-2.3.3-3.6 0-2.5.2-5.3 1.9-7.3 0 2.1-.7 4.5.5 6 .3.1.6-.1.7-.4-.5-3.7.4-7.6 2.6-10.6.1 2.1-1 4.6 1 6l.3-.3c-.2-3 0-6.3 1.9-8.7 2.1 1.6 0 4.7 1.8 6.1" class="st5"/><path d="m86.9 169.3-.8-.1c.8-.7 2.1-.4 3-1.1 1.1-1 1.5-2.3 2.6-3.4-1.1 1.8-2.3 4.4-4.8 4.6M89.8 170.7c-.8-.9.8-1.3 1.1-2.1.1.9-.9 1.3-1.1 2.1M89.7 173c1.3-1.3 2.4-3 3.2-4.8 0 1.9-1.8 3.6-3.2 4.8M182.1 170.7c-.5-.9-1.2-1.7-1.5-2.6.3 1 2.3 1.2 1.5 2.6M184 171v.5c-.2.1-.3-.1-.4-.3v-.5c.2-.1.3.1.4.3M87.9 171.9c-.3-.1 0-.5.1-.8h.3z" class="st9"/><path d="M95.2 118.4c.4.2-.4-.7-.3-1.2 0-.5-.5 1-.5 1s.4 0 .8.2" class="st2"/><path d="M117.8 39.9c.1 3.6-.1 7.8-.1 11.2-.1.3-.4.1-.7.1-.2-4.2-.2-7.9 0-11.8.4 0 .8.1.8.5M76.4 88.3s1.6.2 2.2.9c.6.8 2.1 3.1 4.1 2.1 0 0 .6 1-1.3 1-1.8 0-2.8-1.3-3.3-2.2s-1.1-1.2-1.6-1.3zM194.9 88.1s-.6 1.1-1.5 1.5-.8 1-.9 1.1c0 0-1.5 1.5-2.8 1.5s-1.1-.2-1.2-.6c-.1-.5.5-.6.8-.4s1.1.6 2.2-.8c1.1-1.5 2.8-2.4 3.4-2.3" class="st10"/><path d="M101.8 128c3.2 12.1-1.5 23.5-4.3 34.6.5-2.5.9-5.4.7-8-1.5-4.2 1.6-8.2-.3-12.1.1-1.7-.8-3.4-2-4.7-.1-3 .4-6.3-1.5-8.5-1.1.1-2.4.5-3.3-.3.7-3 1.8-5.9 2.7-8.8 4 .5 6.9 4.2 8 7.8" class="st6"/><path d="M120.6 3.6c.5.6.3 1.6.1 2.2-.3.4-.7.6-1.1.7.2-.9.8-1.7.4-2.6-.7-.9-1.6-2-2.8-2-1.1.1-2.1.9-2.7 1.8-1.1 1.7.7 3 .8 4.3q-1.2-.6-1.8-1.8c-.3-1.2-.1-2.4.5-3.4 1.5-.8 3.2-2.1 5-1 .7.7 1.2 1.2 1.6 1.8" class="st10"/><path d="m118 5.2-.3 1.8c.1 7.4.4 14.5.3 22.1-.3.3-.4 1.1-1 1-.1-9.2-.5-17.1-.1-25.5.5 0 1.1 0 1.1.6" class="st10"/><path d="M46.6 163c-.5-1.2-.7-2.4-1.5-3.4 1.7-.8 3.4-2.5 3.4-4.6.1-1.3-.7-2.2-1.1-3.3 1.1-1.1 2.6-1.9 3.6-3.3-1.9 4.6-2.9 9.9-4.4 14.6M45.5 169.8c-.4 0-1-1.1-1.5-1.5.7-.6 1.5-1.6 2.1-2.4-.2 1.3-.2 2.7-.6 3.9M184.1 174.1c.6.9.6 2.4.6 3.6.9 11.1-3.8 20.9-13.2 26.4-11.8 8.6-25.5 13.8-35.4 25.6l-.4.1c-5.6-7.1-13.7-11.7-20.9-16.5-2.7-1.1-4.9-2.9-7.5-4.2-1.6-1.2-3.4-1.9-5-3.3C93 200.5 86.8 192 87 181.1c.5-1.9-.5-4.6.3-6.3.8-.5 2 .3 3-.1l.6-.3c.1.5-.5 1.3.4 1.8 1.1.1 1.9-.3 2.9-.6-1.2 11.2 4.4 20.9 14 26 9.5 5.3 19.6 9.9 27.6 18.3 1.2.1 1.2-1.4 2-2 9.2-8.9 21.1-12.6 30.9-20.2 6.6-5.8 9.6-13.8 8.6-22.5 1.2 0 2.6 1.3 3.6 0l-.5-1.5c1.1 1 2.7 1 3.7.4" class="st6"/><path d="M114.9 127.2s9.2-1.5 12.2-3.2v85.4s-.2.5-1.5-.5-10.9-6.2-10.9-6.2zM144.4 124s4.7 1.8 7.3 2.2 4.7.7 4.9 1.3v75.3s-10.9 6.1-12.1 7zM117.6 58l.1 36.4-.4 3.2s-.4-5.5-.4-8.4V58.9c-.1 0-.1-.9.7-.9" class="st9"/></svg>