<svg xmlns="http://www.w3.org/2000/svg" viewBox="0 0 700 700"><defs><style>.cls-3{fill:#ffa12d}.cls-2{fill:#fff}.cls-3{stroke:#000;stroke-miterlimit:10;stroke-width:5.51px}</style></defs><g id="Layer_2" data-name="Layer 2"><g id="Layer_2-2" data-name="Layer 2"><circle cx="350" cy="350" r="350" style="fill:#ffa12d"/><circle cx="350" cy="350" r="336.39"/><path d="m103.36 439.41-.06-.15-8.27-8 8.17-5.26 11.34 11.09 3.72 9.85-50.82 19.2-4.34-11.51ZM82.73 478.56a29.5 29.5 0 0 0 2.66 4.83 21.8 21.8 0 0 0 8.08 7.77 16.87 16.87 0 0 0 12.08 1.18v-.26c-3.37-.92-6.3-3.31-8.67-7.63-4.43-8.06-2.53-18 6.7-23s21.25-1.93 27 8.54c6.71 12.24.51 23.17-10.62 29.28-9.89 5.43-18.87 6.26-26.49 3.68-6.59-2.29-12.28-7.27-16.64-14.51a44 44 0 0 1-2.83-5.1Zm27.59-6.37c-4.11 2.25-6.42 6.38-3.92 10.92a8 8 0 0 0 6.53 4.42 5.94 5.94 0 0 0 3.1-.94c5.06-2.77 9-7.41 6.22-12.47-2.1-3.81-6.99-4.74-11.93-1.93M138.64 505.33l-.1-.13-10.19-5.29 6.34-7.41 14 7.42 6.36 8.4-43.32 32.78-7.41-9.8ZM119.68 551.36l5.45-5.42 9.45.49c15.9.93 24.29.72 28.91-3.64 3.14-3.12 3.74-7.49-.68-11.94-3.3-3.32-7.84-4.57-11.39-5.05l3.93-9a30 30 0 0 1 16.52 8.67c8.66 8.71 8.34 18.58 1.35 25.53-6.46 6.43-16.27 6.87-26.79 6.25l-6.5-.61-.12.12 14.44 14.52-7.41 7.36ZM269.84 627.73c-.93 5.2 3.45 8.93 9.2 10.43a36.1 36.1 0 0 0 11.34 1.24l-.56 8.75a40.5 40.5 0 0 1-14.95-1.31c-13.43-3.51-19.08-13.28-15.85-25.65 2.62-10 11.74-19.49 25.49-15.9 12.78 3.34 15 14.56 12.48 24.34a31 31 0 0 1-1.67 4.75Zm16.67-4.63c.78-3 .8-8.35-4.86-9.83-5.18-1.35-8.51 2.79-9.7 6ZM315.29 612.25l3.28 7.15c.95 2.2 1.81 4.39 2.69 6.42h.17c1.31-2.05 2.52-4 3.81-5.91l4.27-6.19 13.71 1.44-15.41 18 11.32 22.7-14.3-1.5-3.31-7.74c-.95-2.12-1.73-4.3-2.51-6.49h-.25c-1.23 2.06-2.52 3.94-3.72 5.83l-4.6 6.91-13.88-1.45 16-19.26-11.37-21.36Z" class="cls-2"/><path d="m341.72 655.18.67-40.86 12.7.2-.67 40.87Zm14-52c-.05 3.51-2.77 6.31-6.95 6.24-4-.06-6.64-2.95-6.5-6.46 0-3.68 2.69-6.39 6.79-6.32a6.36 6.36 0 0 1 6.63 6.52ZM356.37 596l12.69-.65 3 59.26-12.68.65ZM387.42 636.6c1.22 5.14 6.72 6.83 12.58 5.92a36 36 0 0 0 10.9-3.38l3 8.25a40.4 40.4 0 0 1-14.24 4.74c-13.71 2.12-22.78-4.59-24.74-17.23-1.58-10.24 3-22.54 17.07-24.71 13.05-2 19.58 7.37 21.12 17.36a31 31 0 0 1 .36 5Zm13.45-10.88c-.47-3.05-2.58-8-8.37-7.08-5.28.82-6.69 5.94-6.49 9.38ZM421.26 635.78a24.8 24.8 0 0 0 11.38-.15c3.68-1.09 4.83-2.83 4.23-4.83s-2.08-2.61-7.1-2.77c-8.9-.33-13.34-3.81-14.64-8.48-2.16-7.29 2.45-14.68 12.15-17.55a27.3 27.3 0 0 1 11.72-1l.33 9a20.2 20.2 0 0 0-9.16.28c-3 .88-4.29 2.58-3.69 4.59.54 1.84 2.35 2.35 7.66 2.61 8.21.35 12.46 3.19 14.25 8.93 2.16 7.29-2 14.38-13.23 17.71a29 29 0 0 1-13.47 1ZM535.19 535.72l-.12.12-3.71 10.86-8.28-5.16 5.27-15 7.35-7.53 38.87 38-8.57 8.79ZM579.33 538a30.4 30.4 0 0 0 3.26-4.45 21.8 21.8 0 0 0 3.65-10.59 16.87 16.87 0 0 0-4-11.47l-.21.15c.58 3.44-.36 7.11-3.28 11.08-5.44 7.41-15.24 9.86-23.72 3.62s-10.7-18.46-3.62-28.09c8.27-11.24 20.8-10.22 31-2.69 9.09 6.68 13.62 14.48 14.48 22.48.7 7-1.42 14.21-6.16 21.21a43 43 0 0 1-3.41 4.64Zm-17.4-22.34c3.77 2.77 8.49 3.13 11.56-1a8 8 0 0 0 1.27-7.78 6 6 0 0 0-2.16-2.42c-4.65-3.42-10.52-5-13.93-.39-2.58 3.43-1.36 8.27 3.26 11.57ZM599.64 501.18c-5.8-3-8.09-8.38-7.68-14.85l-.23-.11c-4.78 3.46-9.9 3.74-14.14 1.56-8.18-4.2-9.82-14.35-4.85-24 5.8-11.3 14.75-12.62 20.62-9.6 4.16 2.14 7.1 6.47 7 12.45l.22.11c4.19-3.76 10.34-5.86 16.59-2.65 8.77 4.51 10.86 14.88 5.09 26.11-6.26 12.25-16.08 14.34-22.62 10.98m-17-24.22c3.27 1.68 6.88-.22 10.05-3.47a7.44 7.44 0 0 0-3.64-8.08c-3-1.53-6.83-1.35-9 2.82-1.91 3.86-.42 7.17 2.63 8.77Zm29.46-.96c-4.23-2.18-8.36-.36-11.85 3.49-.87 4.25.7 7.78 4.2 9.58a7.43 7.43 0 0 0 10.27-3.36c2.07-4 .8-7.93-2.62-9.71M626.78 456.57a30.3 30.3 0 0 0 1.71-5.24 21.9 21.9 0 0 0 .13-11.21 16.9 16.9 0 0 0-7.42-9.62l-.16.21c1.64 3.08 1.9 6.86.38 11.55C618.57 451 610 456.4 600 453.14s-16-14.16-12.26-25.52c4.32-13.28 16.53-16.25 28.61-12.31 10.73 3.49 17.49 9.47 20.82 16.79 2.85 6.38 3.12 13.93.82 22.07a44 44 0 0 1-1.78 5.48Zm-23.53-15.74c4.45 1.45 9 .3 10.64-4.62a8 8 0 0 0-1.24-7.79 6 6 0 0 0-2.82-1.62c-5.48-1.79-11.56-1.48-13.34 4-1.35 4.14 1.33 8.35 6.76 10.03" class="cls-2"/><circle cx="212" cy="593.93" r="14.58" class="cls-3"/><circle cx="483.14" cy="593.93" r="14.58" class="cls-3"/><circle cx="350" cy="350" r="226.58" class="cls-2"/><path d="M197.19 543.43c-39.52-90.89-38.32-187.64-30.35-252.81 8.62-70.53 26.84-120.38 27-120.87l7.75 2.86c-.18.49-18.12 49.61-26.61 119.23-7.81 64.09-9 159.19 29.76 248.29ZM500 543.43l-7.58-3.3C531.21 451 530 355.77 522.16 291.62c-8.51-69.58-26.4-118.52-26.58-119l7.75-2.86c.18.49 18.41 50.34 27 120.87 8 65.16 9.2 161.91-30.33 252.8"/><path d="m170.44 310.93-3.71-7.38c1.78-.9 44.25-22 110.6-32.86 61.22-10.07 154.85-12.78 253.19 31.49l-3.4 7.53C430.79 266.34 339 269 279 278.79c-65.22 10.68-108.13 31.93-108.56 32.14M187.67 214.74l-3-7.69c49.83-19.59 181.43-59 327-1.62l-3 7.69c-142.89-56.27-272.08-17.61-321 1.62M343.08 522.27a443.2 443.2 0 0 1-161-29.87l3-7.77c145.1 56.28 276.39 17.62 326.1-1.62l3 7.77c-31.06 12.02-93.42 31.49-171.1 31.49M344.71 436.32c-52.26 0-114-8.95-177.82-37.66l3.39-7.53c96.34 43.36 188.12 40.75 248.16 30.92 65.19-10.68 108.1-31.93 108.53-32.15l3.7 7.39c-1.77.89-44.25 21.95-110.59 32.86a466 466 0 0 1-75.37 6.17"/><path d="M284.08 189.46c-22.61-16.24-15.59-57.43-15.28-59.18l8.2 1.46c-.06.37-6.41 37.77 11.94 51ZM418.63 189.46l-4.86-6.76c18.39-13.22 12-50.59 11.93-51l8.21-1.46c.3 1.76 7.32 42.98-15.28 59.22M433.91 569.07l-8.21-1.45c.07-.38 6.41-37.78-11.93-51l4.86-6.76c22.6 16.27 15.58 57.46 15.28 59.21M268.8 569.07c-.31-1.75-7.33-42.94 15.28-59.18l4.86 6.76c-18.4 13.22-12 50.59-11.94 51Z"/><path d="M212.11 273.46c1.63 85.34 22.86 221.38 137.18 257.3H351c112.9-35.48 135-168.57 137.11-254.07L345.63 436Z" class="cls-3"/><path d="M442.91 202.28H260.59l85.04 109.33z" class="cls-3"/><path d="M485.09 202.28h-42.18l-97.28 109.33-85-109.33h-45.46s-3.86 29.56-3.06 71.18L345.63 436l142.45-159.31c1.06-43.3-2.99-74.41-2.99-74.41"/><path d="M485.09 202.28h-42.18l-97.28 109.33-85-109.33h-45.46s-3.86 29.56-3.06 71.18L345.63 436l142.45-159.31c1.06-43.3-2.99-74.41-2.99-74.41Z" style="stroke:#000;stroke-miterlimit:10;stroke-width:5.51px;fill:none"/><path d="m103.19 276.52-44.06-16.85L63.58 248l19.65-3a136.5 136.5 0 0 1 17.85-1.41l.07-.2a175 175 0 0 1-18.69-6.17l-12.88-4.93 3.5-9.15 44.06 16.85-4 10.46-20.6 2.91a173 173 0 0 1-18.48 1.7v.22c5.92 2 12.18 4.21 19.37 7l13.27 5.07ZM115.62 202.31l-8.51 15.13 9.75 5.49 9.51-16.93 7.62 4.29-14.76 26.22-41.09-23.09 14.27-25.37 7.62 4.29-9 16 8.54 4.8 8.51-15.12ZM139.4 202l-43.57-21.25 7.23-8.82 17.3 9.57c5 2.73 10.33 5.83 14.5 8.25l.09-.11c-3.47-3.83-7.14-8.29-10.88-12.89l-12.41-15.32 7.18-8.77 17.77 9.67c4.94 2.69 9.32 5.29 13.83 8.07l.08-.1c-3.61-3.87-7.22-8.19-10.93-12.49l-12.5-15.21 6.87-8.39 28.77 39.3-7.32 8.93-18.22-9.77c-4.26-2.32-8.16-4.51-12.68-7.49l-.09.1c3.58 4 6.56 7.46 9.53 11.34l12.86 16.32ZM141.2 129.56a86 86 0 0 1 10.32-10.11c5-4.27 9.39-6.36 13.42-6.49a13.81 13.81 0 0 1 10.92 5c3 3.52 4.37 7.49 4 11.33-.54 5-3.64 9.64-8.43 13.73a27 27 0 0 1-2.9 2.2l10.95 12.83-8 6.86Zm21.93 9.44a16.2 16.2 0 0 0 2.9-2.11c4.31-3.68 5.11-8.13 2-11.8-2.81-3.3-6.78-3.32-10.83.14a18 18 0 0 0-3.08 3.18ZM222.47 98.76c8.1 13.18 5 26.08-6.72 33.3-11.92 7.33-24.43 2.62-31.47-8.83-7.4-12-5.25-25.77 6.62-33.07 12.34-7.58 24.75-2.49 31.57 8.6m-28.7 18.39c4.84 7.87 11.94 11.14 18 7.4s6.07-11.78 1.27-19.59c-4.44-7.21-11.71-11.29-18-7.44s-6.04 11.82-1.27 19.63M219 76a94 94 0 0 1 12.74-6.34c6.46-2.69 11.39-3.59 15.51-2.42 3.44 1 6.13 3.44 7.79 7.45a12.52 12.52 0 0 1-3.24 13.91l.08.2c3.55 0 6.43 2.18 9.19 5.73 3.4 4.35 7.11 9.47 8.65 10.8l-10.08 4.18c-1.22-.93-3.73-4-7.25-8.88s-5.9-5.66-9.94-4.06l-3 1.23 7.11 17.13-9.76 4Zm17.53 14.7 3.88-1.61c4.91-2 6.8-5.7 5.22-9.52-1.66-4-5.21-4.88-9.76-3.07a26 26 0 0 0-4.33 2.18ZM269.78 66.1l-12.25 3.21-2.27-8.67 35.05-9.18 2.28 8.66-12.46 3.26 9.69 37-10.36 2.71ZM347.41 91.33c-1.88 1.14-6.19 2.54-11.91 3-16.25 1.3-25.43-8.14-26.5-21.53-1.29-16 9.43-25.9 23.66-27 5.51-.44 9.79.34 11.75 1.16l-1.48 8.62a23 23 0 0 0-9.07-1c-8.44.68-14.59 6.3-13.75 16.76.76 9.42 6.81 14.9 16.3 14.14a26.6 26.6 0 0 0 8.74-2.25Z" class="cls-2"/><path d="M392 71.42c-1.05 15.43-11 24.15-24.79 23.21-14-.95-21.42-12-20.51-25.45 1-14.1 10.68-24 24.58-23.09 14.4.99 21.55 12.34 20.72 25.33m-34-1.68c-.63 9.21 3.26 16 10.38 16.48s11.77-6.07 12.4-15.22c.57-8.44-3-16-10.32-16.48s-11.93 6.07-12.55 15.22ZM413.32 52.63 406.93 79c-1.91 7.88.11 12.62 5.42 13.91s9.35-1.77 11.31-9.86l6.39-26.39 10.33 2.5-6.22 25.71C430.74 99 422 104 410 101.14c-11.56-2.8-16.82-10.84-13.28-25.46l6.19-25.57ZM433 106.21l18.55-43.36 11.45 4.9 2.21 19.74a137 137 0 0 1 .72 17.89l.19.08A176 176 0 0 1 473 87l5.42-12.67 9 3.85-18.55 43.36-10.3-4.41-2.1-20.68a174 174 0 0 1-1-18.54h-.22c-2.19 5.83-4.68 12-7.71 19.07L442 110.06ZM500.11 96.06l-10.77-6.66 4.7-7.62 30.84 19-4.71 7.62-10.95-6.77-20.08 32.5-9.14-5.57ZM509.34 148.64l12.32-14.87 6.28-31 9.38 7.76-3.51 11.81a189 189 0 0 1-3 9.27l.11.09c2.68-1.59 5.29-3 8.5-4.67l10.9-5.7 9.22 7.64-29.51 11.27-12.54 15.14ZM552.81 173.42l-11.47 5.11-7-8.53 45.55-18.89 8.91 10.8-27.08 41.28-7.3-8.85 7-10.51Zm13.77 4.15 5.85-8.63c1.62-2.43 3.79-5.3 5.5-7.62l-.09-.11c-2.6 1.24-5.8 3-8.4 4.11l-9.44 4.21ZM602.22 179.93l15 24.6-7.47 4.56-9.44-15.46-9.2 5.62 8.89 14.44-7.4 4.53-8.83-14.45-16.18 9.88-5.59-9.13ZM593.67 262.92c-1.69-1.4-4.43-5-6.74-10.26-6.57-14.92-.67-26.69 11.62-32.11 14.73-6.48 27.55.41 33.3 13.47 2.23 5.06 2.9 9.35 2.77 11.48l-8.62 1.42a22.9 22.9 0 0 0-2-8.9c-3.41-7.75-10.73-11.71-20.34-7.48-8.64 3.81-11.83 11.33-8 20a26.3 26.3 0 0 0 5 7.51Z" class="cls-2"/></g></g></svg>