<svg xmlns="http://www.w3.org/2000/svg" viewBox="0 0 561.95 712.87"><defs><style>.cls-1,.cls-14,.cls-6{fill:#fff}.cls-1{stroke:#fff;stroke-width:12.87px}.cls-2{fill:#8b2942}.cls-4,.cls-7{fill:#b4cbde}.cls-12,.cls-14,.cls-4,.cls-7,.cls-8{stroke:#000}.cls-12,.cls-14,.cls-4,.cls-8{stroke-width:1.84px}.cls-12,.cls-5{fill:#987c4d}.cls-7{stroke-width:2.76px}.cls-8{fill:none}</style></defs><g id="Layer_2" data-name="Layer 2"><g id="Layer_2-2" data-name="Layer 2"><path d="M17.37 618.23s30.25 9.66 40.55 1.94 68.23 28.31 68.23 28.31-13 32.93-57.29 23.82c-21.88-4.5-29.61 1.93-29.61 1.93s-1.93-29.61-21.88-56ZM544.88 612.06s-30 10.38-40.49 2.91-67.52 29.95-67.52 29.95 13.81 32.61 57.84 22.43c21.77-5 29.64 1.22 29.64 1.22s1.22-29.65 20.53-56.51Z" class="cls-1"/><path d="M289.74 658.12c63-4.73 134.29-65 154.49-81.62S474 557.75 498 562.32 525.9 599 525.9 599c-13.79 15.79-12 37-25.65 57.92s-63.93-8.11-63.93-8.11-69.45 57-144.77 57.57H272.9c-75.31 1.29-146.11-54.06-146.11-54.06S77.23 682.6 63.07 662s-12.88-41.83-27-57.28c0 0 3.22-32.19 27-37.33s33.47-3.22 54.07 12.87 93.33 74.66 156.4 77.88ZM17.05 6.44h529.09v499.48H17.05z" class="cls-1"/><path d="M548.06 506.56c0-5.75-10.53-3.19-15.7-6-12.31-6.61-26.3-4.95-39.88-8.63-11.59-3.14-24.39 3.25-35.47-1.64-2.08-.92-4.65-3.47-7-5.31-3.13-2.43-8.07-.51-10.92-2.28-10.44-6.49-19-11.24-31.33-9.88-1.84.2-3.8-1.7-5.15-1.77-7.61-.38-13.24-3.65-20.67-5.22-25-5.25-48.81-3.12-73.28-4.36l1.29 1.29c-.68-7.76-4.61-1.63-6.26-.9-14.37 6.33-27.58 3.86-41.35 5-3.51.28-6.86 2-10.32 2.12-24.89.55-49.76.65-74.66.54-.43 0-.8 2-1.32 2-8.58.82-17.11-1-25.57.91-1 .21-1.86 3-4 3.13-5.85.44-11.26.95-17 3.26-5.22 2.09-12.12-.57-17.52 1.33C99 484.7 86.14 491 73.39 488.24c-11-2.4-19.64 2.24-29.9 1.08-2.08-.23-4.58-1.39-6.31-.45s-4 2.87-5.35 2.9c-7.51.19-11.53 4.8-14.14 10.93v13.51s1.93 31.54 52.78 64.37 97.19 69.51 97.19 69.51l171.22 20 41.19-9.66L456 607l43.13-43.77s48.93-18.05 48.93-56.67Z" class="cls-1"/><path d="M16.72 6.76h529.09v499.48H16.72z" class="cls-2"/><path d="M547.74 506.88c0-5.75-10.53-3.19-15.7-6-12.32-6.61-26.3-5-39.88-8.64-11.6-3.14-24.4 3.25-35.47-1.64-2.08-.92-4.65-3.47-7-5.31-3.13-2.43-8.07-.51-10.92-2.28-10.45-6.48-19-11.24-31.33-9.88-1.84.21-3.81-1.69-5.15-1.76-7.61-.38-13.24-3.66-20.67-5.22-25-5.26-48.81-3.12-73.28-4.36l1.29 1.28c-.68-7.76-4.61-1.63-6.27-.89-14.36 6.32-27.57 3.85-41.35 4.95-3.5.28-6.85 2-10.32 2.12-24.88.55-49.75.65-74.66.55-.42 0-.79 2-1.31 2-8.58.82-17.12-1-25.58.91-1 .22-1.85 3-4 3.13-5.85.44-11.26.95-17 3.26-5.21 2.09-12.12-.57-17.51 1.33-12.88 4.54-25.75 10.86-38.5 8.08-11-2.4-19.64 2.24-29.9 1.09-2.08-.24-4.58-1.39-6.32-.46s-4 2.87-5.34 2.9C24 492.28 20 496.89 17.37 503v13.51s1.93 31.55 52.78 64.37 97.19 69.52 97.19 69.52l171.21 20 41.2-9.65 75.95-53.43 43.13-43.77s48.91-18.05 48.91-56.67" style="fill:#49b869"/><path d="M17.37 618.23s30.25 9.66 40.55 1.94 68.23 28.31 68.23 28.31-13 32.93-57.29 23.82c-21.88-4.5-29.61 1.93-29.61 1.93s-1.93-29.61-21.88-56Z" class="cls-4"/><path d="M136.44 368.49c-3.21-43.76 45.7-52.78 45.7-52.78s7.08 32.83 10.3 44.42 1.29 14.8-3.22 21.24-11.58 14.16-19.95 23.17-3.22 14.16-.64 17.38 20 4.5 20 4.5a30.6 30.6 0 0 0 3.22-8.36c.64-3.87-4.51-10.3-1.29-16.74s11.59-12.23 19.31-14.16-7.72 10.94-10.3 15.45-1.28 9.66-1.28 14.8v10.3s7.08-11.58 9.65-12.87 7.72-3.22-3.22 13.51-1.28 19.31-1.28 19.31l-3.54 15.13a4.23 4.23 0 0 1-.72 5.7c-1 .79-1.92-1.09-3.15-.55 0-.43.15-1-.07-1.21s-1 0-1.1-.14c-2.08-3.6-.51-7.88-2.22-11.44-.91-1.89-3.13-3.37-3.35-5.27-.17-1.54.84-3.59.07-5-.91-1.62-2.07-3.52-4.27-4l-12.55-4.19c-11.59-3.86-28.32 0-30.9-3.86s.65-16.09.65-23.17-9.66-21.89-9.66-21.89c.65 29-24.46 45.7-38 57.93S93 501.41 93 501.41c1.56 3.78 5.3 3 8.42 3.56 7.51 1.36 15-4.58 21.46.17a45.9 45.9 0 0 0 14.48 7.39c.34.1-.12 1-.6 1-2.36.27-5.19-.69-6.78.48-1.37 1-2.94 2.67-4.28 3.05-9 2.61-16.87-3.73-25-7.15-1.11-.46-2.51-.15-3.8-.15 3 4.6 8.79 5.38 13.44 7.27a8.6 8.6 0 0 1 3.68 3.82c.53.94.66 2.06 1.38 3.17.5.8.17 2 .17 3.12-1.13-1.88-2.79-3.64-4.61-4.18-2.57-.77-5.58 1.94-8.13.68-.87-.43-2.13-.69-2.44-1.18-2.08-3.3-4.68-5.81-7.11-8.47-1.71-1.85-3.74-4.91-7.31-4.16-.51.11-1 .71-.58 1.15 2 2.1 4.38 3.28 6.85 4.82 2 1.23 2.46 4 2.44 6.19 0 .86-1.79 1.59-2.1 2.63-1 3.14 1.2 7.9-2.76 9.59.31-2.29-.75-5.12-1.71-5.9-3.77-3-8.54-4.9-10.16-10.1-.66-2.15-3.15-3-5.49-2.54-7.07 1.27-12.78 6.75-19.9 5.33-5-1-10.7-4.49-15 .23-.3.33-1.16.11-1.81.11.41 2.31-1.17.67-1.29 1.93-1.79-2.4-1.52-5.59 1.35-7 .7-.34 1.88.17 2.4-.26 4-3.32 6.47-7.51 11.73-8.75 7.42-1.76 20.23 7 20.89-1.72 3.86-50.86-20.6-70.16-20.6-70.16 36.05-45.7 3.87-70.81 3.87-70.81l.64 1.93c2.57 3.22 3.22 12.23 3.22 12.23-13.52 9-48.92-4.5-36.69-31.54S65 336.31 65 336.31c3.22-3.22 1.93-11.58 1.93-11.58 10.94 0 7.72-11.59 7.72-11.59C85 317.65 85.6 299 85.6 299c6.43 3.22 13.51-9 10.94-14.16s-18-14.16-21.89-16.09-6.43-2.58-6.43-5.15c0-7.11-5.15-11.59-11.59-14.16s-4.5-1.93-3.86-6.44c2.12-14.87-10.94-18.67-14.16-20.6s-6.44-3.21-.64-13.51S36 190.2 32.17 187s-3.86-4.5-2.57-7.08c3.66-7.32 6.43-21.88 3.22-25.1s-3.87-5.15-1.29-9 9-19.31 6.44-27.68-4.51-16.73-4.51-24.46 2.54-10.97 5.15-5.82 7.08 12.23 14.8 25.75 36.69 43.76 41.2 48.91-3.86 25.11-3.86 25.11c10.29 5.15 7.72 21.24 7.72 21.24 9.65 5.79 7.72 18.66 7.72 18.66 12.88 7.73 11.59 16.1 11.59 16.1 9.65-.65 13.52 3.86 13.52 3.86 5.14-6.44 1.93-14.81 1.28-20s-29-87.53-29-87.53l10.3 3.86c-9-41.2 7.72-59.86 7.72-59.86-.64 8.36.64 23.81 10.3 51.49s-5.15 34.76-5.15 34.76c11.59 10.94 7.72 28.32 8.37 32.82s9 14.81 9 14.81c9-18 5.79-43.13 3.86-54.07s-5.15-20.6-7.08-47 9.66-30.89 9.66-30.89c-2.58 0-7.73-3.22-9.66-7.72s.64-2.58.64-2.58c4.51 9.65 12.88 6.44 12.88 6.44C151.89 75.63 141 67.91 141 67.91l1.88-3.91A176 176 0 0 0 157 78.85a6.11 6.11 0 0 0-1.29-7.73c-10.94-21.24-3.86-39.9-3.86-39.9-.64 4.5 5.8 14.16 9.66 22.53s3.22 21.88 3.22 21.88c6.43-6.44 19.31-5.15 21.88-3.86s12.23 3.86 18 3.22 14.16-7.73 14.16-7.73c0 3.22-7.72 10.3-7.72 10.3l27.68 1.93s3.21 1.93-2.58 3.22-10.3 3.22-9.65 5.15-2.58 4.5-5.15 4.5h-12.17l-29 11.91h34.44-.07c.8 3.27-1.37 7.74-3 9-2.39 1.93-4.64-3.16-7.92-3.49-.71-.07-.79 2.72-1.45 3.1-3.24 1.83-6.35-4.65-9.17-1.34-.59.7-.46 2.5-1.62 2.72-2.88.54-4.59-4.36-7.5-2.65-.31.19-1.75.31-1.79.66-1.93 19.31 8.85 41.2 23.82 50.85 26.79 17.26 27.68 50.2 27.68 50.2 5.15-32.18-22.53-50.2-22.53-50.2.64-1.29 1.93-10.3 4.5-12.23s5.8-10.3 5.8-10.3c8.37-19.95 18.66-7.72 18.66-7.72l11.59 37.33-19.91 81.8s-9 41.2-59.22 60.51-35.4 59.86-35.4 59.86" class="cls-5"/><path d="M177.8 85.77c-1.33-1.81-.75-4.77 1-5.26 5.31-1.46 10.68-.3 16 0 1.76.1 1.45 2.42 1.22 3.94-.26 1.71-1.76 2.27-3.17 2.81-3.4 1.28-5.59-2.08-8.4-3.29a3.8 3.8 0 0 0-2.8-.41c-1 .41-1.16 1.45-1 2.51-.69-.16-1.22.62-1.93.32M155 72.89a5.2 5.2 0 0 1-1.18-2.27c-.81-4.38.55-8.47 0-12.87-.34-2.93-.56-6 1.14-8.67a2.8 2.8 0 0 1 .87 1.33c1.62 3.66.72 7.56 1.53 11.58a21 21 0 0 1 0 8c-.28 1.55-.2 3.17-1.12 4.53M176 117.79s-2.57 19 11.59 34.43 16.41 23.5 16.41 23.5-22.5-25.72-24.11-28.64-7.08-9-7.4-29.29Z" class="cls-2"/><path d="M169 119.08s-.32 20.27 7.4 33.14 26.71 36.37 29.93 49.25 9 40.55-4.82 60.82-24.79 27-38.63 35.08c0 0-5.14 0-1.28-2.57s23.78-14.3 34.76-31.54c4.5-7.08 15-19.1 7.4-54.07-5.8-26.71-19.09-29.42-34.44-61.15-8.15-16.85-2.25-29.29-2.25-29.29ZM132.91 269.05s12.87-22.5 12.87-40.87c0-2.9 3.54-1.61 3.86 1s4.84 13.53-13.52 38.3c-6.43 8.65-3.21 1.57-3.21 1.57M49.53 189.41s8.81 6 4 17.32M58.42 190.22s7 5.32 3.16 15.45M65.5 191s5.57 4.74 2.5 13.78M71.12 191.6s4.43 4.23 2 12.29M75.6 192.18s3.52 3.77 1.58 11M79.16 192.7s2.8 3.36 1.26 9.77M82 193.16s2.23 3 1 8.72M84.24 193.57s1.77 2.68.8 7.77M86 193.94s1.41 2.38.64 6.93M87.46 194.26s1.12 2.13.5 6.19M51.69 219.46s11.44 3.81 8.65 15.28M62 218.48s9.24 3.56 7.29 13.71M70.21 217.78a11.41 11.41 0 0 1 6.15 12.28M76.76 217.28s6 3.06 5.21 11M82 216.94s4.91 2.81 4.42 9.85M86.16 216.73s4 2.57 3.77 8.81M89.49 216.6s3.25 2.35 3.23 7.89M92.15 216.54s2.66 2.14 2.77 7.06M94.27 216.53s2.18 1.94 2.38 6.31M96 216.56s1.79 1.75 2.06 5.63" class="cls-2"/><path d="M43.44 329.23S46 306.52 56 305.09c9-1.28 2.89 6.76 0 6.12s-3.86-.32-3.86-.32-3.54 4.18-3.87 8c0 0 11.27 3.22 16.1-.32s10.29-13.52 4.5-21.24-20 .32-24.14 3.86-13.19 10.62-14.16 22.53 0 10 0 10 1.92-3.52 12.87-4.49M33.46 308s6.44-5.79 8.69-7.08c0 0-7.73-12.23-1.61-20l9.65 7.08s3.87-23.82 8.37-27.68c0 0-24.46 9.33-36.69 5.47l10.3 9S20.59 293.51 33.46 308" class="cls-5"/><path d="M59.85 350.15s-12.23-10-20.92.32 5.79 13.84 10.3 10.94 10.62-11.26 10.62-11.26M73.47 244.53s9.37.63 9.48 9.4M81.06 241.93s7.67.87 8.14 8.52M87.13 239.92a8.7 8.7 0 0 1 7 7.7M92 238.36a8.26 8.26 0 0 1 6 6.95M95.87 237.16a7.87 7.87 0 0 1 5.24 6.27M99 236.24a7.57 7.57 0 0 1 4.56 5.64M101.46 235.54a7.27 7.27 0 0 1 4 5.08M103.46 235a7.08 7.08 0 0 1 3.45 4.56M105.06 234.61a6.88 6.88 0 0 1 3 4.1M106.35 234.32A6.7 6.7 0 0 1 109 238M90 265.74s9.34-1.06 11 7.54M97 261.82s7.7-.52 9.54 6.92M102.61 258.75a8.71 8.71 0 0 1 8.28 6.32M107.11 256.35a8.24 8.24 0 0 1 7.2 5.75M110.71 254.47a7.88 7.88 0 0 1 6.29 5.23M113.61 253a7.57 7.57 0 0 1 5.49 4.74M115.93 251.87a7.3 7.3 0 0 1 4.81 4.29M117.8 251a7.07 7.07 0 0 1 4.21 3.87M119.31 250.31a6.92 6.92 0 0 1 3.7 3.49M120.52 249.79a6.77 6.77 0 0 1 3.26 3.15M117.46 247.16l-39.91 18.99-3.22-2.25 42.81-17.38zM102.29 229.46l-42.24 16.61-.5-3.73 42.46-13.54zM92.83 211.74l-45.11 5.05.48-3.73 44.53-2.03zM86.63 186.65l-45.37-1.22.99-3.63 44.38 4.13zM85.75 160.75l-41.03-34.24 3.35-2.9 38.16 36.42zM44.54 153.47s10.18 7.88 7.7 18.62M53.71 156.07s8.22 6.86 6.48 16.53M61 158.22s6.65 6 5.48 14.68M66.85 160a17.2 17.2 0 0 1 4.64 13.05M71.5 161.48a16.46 16.46 0 0 1 4 11.6M75.21 162.72A15.86 15.86 0 0 1 78.58 173M78.18 163.75a15.35 15.35 0 0 1 2.88 9.18M80.55 164.62a14.9 14.9 0 0 1 2.45 8.17M82.44 165.35a14.44 14.44 0 0 1 2.12 7.27M84 166a14.16 14.16 0 0 1 1.83 6.47M96.54 289.32c23.17-5.79 43.12 20 43.12 20-11.58-27-43.12-25.11-43.12-25.11" class="cls-2"/><path d="M322.3 89.31c-1.27.21-2.16-.68-3-1-2.24-.73-3.37 2.26-5 3.84 1.08-5.7 2.76-11.46 7.82-15a4.14 4.14 0 0 1 4.7-.08c.09.06 0 .45.06.56s.51 0 .55.06c.38.78.78 2 0 2.4a9.6 9.6 0 0 0-2.99 2.91c-1.29 1.73.19 4.3-1.17 6.29ZM339.68 72.89a9.94 9.94 0 0 0-8.57 4.26c-.87 1.33 1.49 1.37 1.46 1.84-.14 2.56-5.05 2-5.16 4.86-.08 1.91-1.79 3.51-.92 5.46.43 1 1.62-.82 2.57-.32 0-.33-.11-.78.05-.9.86-.64 2.11-.33 3-1.24.17-.18 1.23-.49 1.39.23.53 2.42-2.82 2.25-3.46 3.65-.48 1.08 2.18.3 2.85.45 1.11.25-.07 2.15.57 2.75 2.38 2.22 5.94-1.26 8.68.73a3.37 3.37 0 0 1 1 3.63 9.25 9.25 0 0 1-2.47 4.22 17.5 17.5 0 0 0-2.73 2.78 30.8 30.8 0 0 0-5.49 9.81c-1.56 5.13-.13 10.16.71 15.37.59 3.65 4.28 5.05 7.36 6.72.76.41.73 1.74.95 2.93.18 1 1.15 1.68 2.09 2.27.71.44 1.55.19 2.2.45.24.1.16 1 .41 1.07a6.6 6.6 0 0 0 2.53.11c-.53 2-2.94 2.62-4.82 2.57 1.2 3.61 5.65 4.53 9 3.54-.71 2.56-2.59 5.19-5.47 4.83 1.31.61 1.88 1.86 3.83 2.12.2 0 .07 1.12.69 1.37.37.15.94-.09 1.21.12.46.37.44 1.32 1 1.43 3.46.67 7.24 1.37 10.28-.53a5.1 5.1 0 0 1-1.09 1.7c-2 1.07-3.38 3.06-5.69 3.7a8.3 8.3 0 0 1-2.23.07c5.2 5.68 13.61 6.39 20.92 6.43-.42 2-2.34 2.62-3.7 3.67s-2.71 2.35-4.67 2.13c4.3 3.32 9.43 5.47 13.24 9.29 1.1 1.11 2.71 2.46 4.08 3.64.29.25.16 1 .44 1.13.83.47 1.63-.56 2-1 1.08-1.25 3-1.64 3.39-3.39v.32s-1.45-25.58 9.18-39.74c0 0-22.85-14.16-28-18.35s-14.17-10-14.81-24.13 2.52-31.72-17.8-32.05" class="cls-5"/><path d="M198.24 101.38s5.79-5.47 11.26-5.47 20.92 1 24.14-2.26 2.57-1.93 2.57-1.93l-3.54-3.86s7.73-.32 21.57-13.52c0 0-1.29 19.31-8.05 24.14l-5.47-3.86s-3.22 7.72-42.48 6.76M413.06 109.74s17.86-1.93 19.79-2.57a7.8 7.8 0 0 0 2.9-1.61l-1-7.4s-4.18 5.47-22.85 5.15-48.27-13.2-43.12-32.83 15.44-20 15.44-20 3.54-2.26-1-1.93c0 0-25.11 4.5-25.75 29.28s20.28 33.47 54.39 31.86Z" class="cls-6"/><path d="M420.62 128.09s11.58-7.08 12.55-17.7l-30.57 7.72-6.76-6.11-1 8.36s-8.37 1-9 4.19.65 6.43 5.8 6.43 28.98-2.89 28.98-2.89" class="cls-5"/><path d="m388.76 117.15.96-5.15 3.55 3.54v1.93l-4.19.64M435.42 335s-23.49-5.14-32.82-2.89-11.91 10.3-10.94 18.67 9 42.8-8.05 42.15c0 0-14.48-1.61-14.48-20.59s-2.9-33.8-17.38-28.65l-.64 1.61s8.69 4.19 9 8.05c0 0-14.48-11.27-25.75-1.29s-4.51 14.81-4.51 14.81l28.65 37 11.58 1.93s3.54 13.19 7.41 15.45l2.57-9.34 7.72 7.73 3.22-6.44 6.12 5.47 2.25-8.37 7.4 8.05 3.22-9.33 9 5.79s-5.47-17.38 1.61-32.51 14.82-32.47 14.82-47.3" class="cls-5"/><path d="M544.88 612.06s-30 10.38-40.49 2.91-67.52 29.95-67.52 29.95 13.81 32.61 57.84 22.43c21.77-5 29.64 1.22 29.64 1.22s1.22-29.65 20.53-56.51Z" class="cls-4"/><path d="M289.74 658.12c63-4.73 134.29-65 154.49-81.62S474 557.75 498 562.32 525.9 599 525.9 599c-13.79 15.79-12 37-25.65 57.92s-63.93-8.11-63.93-8.11-69.45 57-144.77 57.57H272.9c-75.31 1.29-146.11-54.06-146.11-54.06S77.23 682.6 63.07 662s-12.88-41.83-27-57.28c0 0 3.22-32.19 27-37.33s33.47-3.22 54.07 12.87 93.33 74.66 156.4 77.88Z" class="cls-4"/><path d="M437 649.43s26.92-31.56 50.44-17.32-9 26.62-20.05 23a207 207 0 0 1-23.39-9.72ZM126.15 653s-27.68-30.91-50.85-16.1 9.7 26.39 20.59 22.53a206 206 0 0 0 23.18-10.3ZM88.26 603.74l14.81-16.59 3.64 3.25-3.71 17.47 10.33-11.58 3.23 2.89-14.8 16.59-3.47-3.1 3.71-17.83-10.51 11.78ZM114 618.71a11 11 0 0 1 7-9.19 5.38 5.38 0 0 1 4.74 1.06 5.3 5.3 0 0 1 2.23 4.29 11.12 11.12 0 0 1-7.05 9.19 5.3 5.3 0 0 1-4.71-1.06 5.36 5.36 0 0 1-2.21-4.29m18.42-4.71c-.28-2.39-1.68-4.56-4.2-6.49s-5-2.73-7.36-2.38q-4.55.38-8.27 5.22t-2.9 9.33c.28 2.4 1.68 4.56 4.2 6.5s5 2.73 7.36 2.38q4.6-.48 8.25-5.23t2.92-9.33M147.26 627a2.77 2.77 0 0 1-.4 3 2.47 2.47 0 0 1-2.54 1.31 5.9 5.9 0 0 1-2.16-1l-4.38-2.93 3.32-5 4.49 3a5.1 5.1 0 0 1 1.67 1.62m-7.79-10.32-12.35 18.49 3.78 2.52 4.84-7.25 4 2.66a4.1 4.1 0 0 1 1.93 2.15 4.05 4.05 0 0 1-.93 2.79l-1.12 1.74a10.3 10.3 0 0 0-.9 1.7 12 12 0 0 0-.41 1.16l4.25 2.84.31-.47a1.83 1.83 0 0 1 0-1.52 12.5 12.5 0 0 1 1-1.79l.83-1.24a7.34 7.34 0 0 0 1.4-3.25 4.22 4.22 0 0 0-.84-2.67 4.5 4.5 0 0 0 3.4-.33 6.65 6.65 0 0 0 2.39-2.15 6.1 6.1 0 0 0 .95-2.18 7 7 0 0 0 .09-2.19 5.6 5.6 0 0 0-.92-2.48 10 10 0 0 0-2.67-2.47ZM156.62 628.05l15.55 9.09-2 3.4-5.74-3.35L155.2 653l-4-2.36 9.24-15.8-5.77-3.37ZM168.81 660.45l-4.11-2.07 10-19.87 4.11 2.07-3.81 7.58 7.76 3.9 3.81-7.57 4.13 2.07-10 19.87-4.13-2.08 4.46-8.87-7.76-3.9ZM200.34 665.7l-5.21-2.15 6-7Zm-11 4.55 3.17-3.64 7.57 3.13-.42 4.77 4.66 1.92 1.21-23.56-4.85-2-15.83 17.52ZM220.44 676.73l9.05-15.48 6.38 2-6.65 21.23-4.13-1.3 4.5-14.35c.13-.42.31-1 .55-1.73s.43-1.32.56-1.72l-9.6 16.55-4.3-1.35 1.59-19.06c-.13.41-.3 1-.53 1.73s-.4 1.33-.53 1.74l-4.49 14.35-4.13-1.34 6.64-21.22 6.45 2ZM249.33 676a3.75 3.75 0 0 1-2.66.25l-4.24-.9 1.36-6.4 4.24.89a4 4 0 0 1 2.35 1.26 3 3 0 0 1 .37 2.61 3.2 3.2 0 0 1-1.42 2.29m5.09-7a7.85 7.85 0 0 0-4.87-2.79l-9.47-2-4.62 21.79 4.52 1 1.66-7.82 4.61 1a8.84 8.84 0 0 0 5.91-.41c1.52-.79 2.56-2.47 3.1-5q.74-3.65-.84-5.77M258.28 668l17.88 2.18-.47 3.91-6.6-.8-2.22 18.16-4.64-.57 2.21-18.16-6.63-.81ZM283.82 687.4a11.06 11.06 0 0 1 .22-11.59 5.36 5.36 0 0 1 4.45-1.95 5.29 5.29 0 0 1 4.34 2.12 11.16 11.16 0 0 1-.22 11.58 5.29 5.29 0 0 1-4.42 2 5.38 5.38 0 0 1-4.37-2.16m12-14.75q-2.48-2.64-7.24-2.73t-7.33 2.46q-3.45 3-3.56 9.1t3.21 9.24q2.47 2.64 7.23 2.73t7.34-2.46q3.42-3.12 3.53-9.1c.06-4.08-1-7.15-3.2-9.24ZM306.31 691.94l-4.74-21.73 4.76-1 12 13.28-3.33-15.2 4.23-.93 4.77 21.73-4.54 1-12.24-13.5 3.32 15.41ZM329.67 662.85l16.71-6.72 1.47 3.65-6.18 2.48 6.84 17-4.34 1.74-6.83-17-6.2 2.49ZM361.26 667.7a11 11 0 0 1-5.14-10.39 5.39 5.39 0 0 1 3.05-3.78 5.34 5.34 0 0 1 4.84-.11 11.15 11.15 0 0 1 5.12 10.38 5.29 5.29 0 0 1-3 3.77 5.36 5.36 0 0 1-4.87.13m3.85-18.6c-2.27-.8-4.84-.5-7.69.9s-4.64 3.26-5.38 5.56c-1.11 2.82-.77 6.07 1 9.72s4.13 5.82 7.09 6.72q3.4 1.21 7.68-.9t5.38-5.55c1.07-2.9.73-6.14-1.05-9.72s-4.14-5.89-7.03-6.73M368.86 645.12l4.26-2.49 9 9.52 2.33 2.74-1.19-3.32-4.29-12.33 4.24-2.47 8.7 9.67 2.37 2.72-1.14-3.29-3.91-12.61 4.08-2.38 5.79 22.36-3.83 2.24-8.87-9.88-2.84-3.32 1.49 4.11 4.19 12.61-3.73 2.18ZM407.89 647.78l-12.19-18.59 4.08-2.67 15.91 8.13-8.51-13 3.62-2.37 12.2 18.61-3.88 2.54-16.26-8.23 8.66 13.21ZM435.21 629.34l-13.13-17.92 12.72-9.31 2.31 3.15-9 6.59 3 4.12 7.89-5.77 2.29 3.12-7.88 5.77 5.51 7.52ZM450.8 617.77l-2.75-3.56 3.62-2.79 2.75 3.56ZM451.08 603.82q-3.7-4.49-3.3-8.91a9.3 9.3 0 0 1 3.6-6.51q4.33-3.57 8.67-2.37a8 8 0 0 1 3.83 2.22l-3.59 3a6.4 6.4 0 0 0-2.43-1.12 4.7 4.7 0 0 0-3.82 1.27 4.61 4.61 0 0 0-1.79 4.11 9.8 9.8 0 0 0 2.54 5.4c1.59 1.93 3.17 3 4.76 3.35a4.85 4.85 0 0 0 4.21-1.06 4.48 4.48 0 0 0 1.87-3.6 7.1 7.1 0 0 0-.73-2.74l3.55-2.92a9.93 9.93 0 0 1 1.37 6.53 9 9 0 0 1-3.46 5.79 9.57 9.57 0 0 1-7.78 2.42c-2.72-.48-5.23-2.08-7.5-4.86M476.6 596.65l-3-3.31 3.36-3.09 3.05 3.31Z"/><path d="M227.85 328.59h108.77l1.29 31.54h23.82l2.57 19.95-5.79.65s5.15 109.41 10.3 122.93-59.22 15.45-59.22 15.45l-77.24 3.22-38.62-20.6s16.09-67.26 12.87-120.68h-7.08l1.29-20.92h25.1ZM341.77 215.3l-11.58-41.83s12.23-4.51 11.58-36.69l-9-1.93.65-27s7.72-6.43 7.72-12.23h-35.4a12.38 12.38 0 0 0 6.43 12.23l-.64 27h-12.24V85.93s9-3.22 9-17.38l-15.45.64h-6.43l-20.6-.64c0 14.16 9 17.38 9 17.38v48.92H262.6l-.64-27a12.38 12.38 0 0 0 6.43-12.23H233c0 5.8 7.73 12.23 7.73 12.23l.64 27-9 1.93c-.64 32.18 11.59 36.69 11.59 36.69l-11.61 41.83Z" class="cls-7"/><path d="M246.83 136.13h21.56v14.8h-21.56zM312.94 136.13h19.24v14.8h-19.24zM285.45 136.13h14.48v14.8h-14.48zM271.61 68.87h7.08v7.72h-7.08zM283.2 68.87h7.08v7.72h-7.08zM294.78 68.87h7.08v7.72h-7.08zM239.61 95.58h5.55v6.03h-5.55zM248.69 95.58h5.55v6.03h-5.55zM257.77 95.58h5.55v6.03h-5.55zM311.38 95.91h5.55v6.03h-5.55zM320.46 95.91h5.55v6.03h-5.55zM329.54 95.91h5.55v6.03h-5.55z"/><path d="M274.51 85.61h24.14M274.83 102.02h24.14M275.15 118.43h23.82M311.52 121.65h21.56M311.84 107.17h21.89M241.04 121.65h20.92M240.4 136.13h96.87M340.16 151.26H232.99M287.06 118.43v-16.09M300.25 151.26v22.85M263.57 151.26v22.85M244.58 174.11h85.93M242.33 178.94h89.47M237.18 197.28h29.29M252.3 197.28v17.7" class="cls-8"/><path d="M304.12 215v-15.79s-5.47-10.62-17.06-12.23c-11.58 1.61-17.06 12.23-17.06 12.23V215"/><path d="M307.52 215.16v-18.63S300.94 184 287 182.09c-13.95 1.9-20.53 14.44-20.53 14.44v18.63" class="cls-8"/><path d="M355.29 195.35s-18.34-1.29-22.85-4.18-10.62-11.91-19.31-11.27-10.94 8-11.26 16.42-1.62 21.24-1.62 21.24l29.61 7.4L344 241.69Z" class="cls-2"/><path d="M537.77 196s-.33 16.42 3.54 21.89c0 0-7.08-4.51-8.37-10 0 0 2.57 14.48 6.11 18.35 0 0-9.33-4.51-10.3-11.59 0 0-3.86 20.92 2.26 26.71s13.84 13.2 13.84 13.2-8.69 3.86-13.84.32c0 0 8 5.47 6.76 11.26s-3.54 16.09-21.89 31.22c0 0 13.52-23.17 7.73-39.26s-10-30.9-3.22-45.7 6.44-15.13 6.44-15.13 9-30.89 3.53-37.65-17.05-1.61-22.53 10-17.7 41.52-15.44 66c0 0 1.29 13.52 5.79 8s4.18-12.56 3.86-15.77-.64-8.69 1.29-5.15 5.47 17.37-1.29 26.39-.32 11.58 1.29 8.36 5.15-8.36 5.8-12.23 3.86 1.61 0 9.34-8.37 11.26-7.41 13.84 2.58 3.54 4.19.64 5.79-10.3 7.08-11.91 1.93 2.25-1 8.69-8.69 18.34-8.69 18.34l3.22 3.87v-4.83h1.93l2.9-5.47-.33 4.83-1.6 4.82s-3.87 3.87-3.54 8.05 20.44 55.83-2.26 63.72c-7.4 2.58-15.44-4.18-15.44-4.18s5.14 11.58 0 22.2-16.1 27.68 3.54 42.81l11.28 7.09s-10.3 2.25-14.16-.32c0 0 10.62 14.16 13.19 15.44l-11.58.32 12.23 12.88-10.94-2.25 4.82 13.51-6.76-.32 9 10.3-6.12-1 5.79 5.47-9.65.33 9.33 10.62-10-1s3.22 14.16-5.8 17.38-21.24 7.08-28.64 14.16c0 0-9.33 5.15-19.63 2.9 0 0-2.58-10.62 10.94-13.2 0 0 10-1 10.94-2.57 0 0-6.44 1-11.58-.65 0 0-11.59 4.19-12.88 12.56 0 0-6.43-2.9-10.94-1 0 0-.32-10.62 10.3-11.59s10-.64 10.94-2.25c0 0-5.15 1.61-8.69-1.28s-15.12 5.14-15.45 10.29l-7.08-1a31 31 0 0 0 3.22-6.76 13.4 13.4 0 0 1 12.55-8.69c6.76 0 23.5 2.57 28 0s5.47-6.44 3.86-14.81-4.82-25.74-16.41-39.58-32.12-33.96-15.06-68.42S438 313.46 438 313.46L435.75 327s-11.27-22.85-23.17-30.58-31.58-29.3-28.65-40.57S410.32 242 410.32 242l-1-2.26s-23.5 2.9-27.68 14.81L371.06 243v10l-16.41-17.38-2.9 11.58-20.6-24.2-29.28-5.79 1.28-24.79s1.61-12.55 10.94-11.58 11.59 10.62 19.64 12.55 57.28 7.4 57.28 7.4l3.22 5.15 5.15-12.55-5.47 4.18s-2.9-4.18 8-16.09c0 0 1.6-12.87 5.14-17.7 0 0-6.75 3.86-7.72 16.41l-.32 1.29-5.15 3.86s-2.25-16.41 5.79-30.89 16.09-19.63 23.82-24.78 15.77-20.92 14.48-28-5.15-10-5.15-10l1.93 3.86s-24.14 15.77-49.88-5.15c0 0-.33-11.9 1-15.77s5.15-5.14 11.27-1.93 11.9 8 15.77 5.8 6.43-11 16.73-10.62 34.12 5.79 34.12 5.79-21.26 7.07-17.38 9c2.57 1.29 5.15 0 7.72-1.29s5.79-4.18 11.59-5.15 5.15-1.93 6.43-3.22c0 0 4.19 1.29-1.61 14.49 0 0 2.26 4.82 3.54.32s-.32-8 2.58-8.69a28.1 28.1 0 0 0 9-3.86c2.25-1.61 5.47-3.22 6.12-1.93s-3 4.72-4.51 7.72c-.64 1.29-1.93 4.83-5.15 6.44l-.32 2.57 10.62-1.93s-3.86 10.62-11.91 14.48h1.61s4.51 2.58 7.72 0c0 0 2.9 5.8-9.33 12.23 0 0 8.69 19.63-3.22 39.27 0 0-6.43-4.19-6.76-16.1 0 0-2.57 6.76-6.43 10.63 0 0-6.76-10-2.58-20.6 0 0-10.62 19-12.23 19.31s-6.43-14.81-6.11-22.85c0 0-2.9 19-10.3 20.27 0 0-2.25-10.62 1.61-15.12l1-4.19L419 139l.32 1.93 10.68-7.69s-1 16.41 0 18.34c0 0 10.94-10.3 11.91-12.55l6.09 14.16 10-11.59 4.51 11.27 6.76-5.79s1.28 6.11 2.89 7.4 6.76 4.18 7.73 14.16 8.37 40.23-11.91 70.48c0 0-3.22-15.77-2.9-16.74s7.73-11.26 5.47-20.59c0 0-3.86 15.77-8 17.38 0 0-3.86-12.23-1-23.5l-1.61-3.86s-2.57 11.26-3.54 12.23-6.43-18-6.43-26.71c0 0 .32 19.95-5.47 26.71 0 0-5.15-19.95-2.58-29.61l-2.57 4.83s3.86 23.49-6.76 28.64c0 0-1.61-4.5-3.54-10.62s-1.61-17.06-1-21.56c0 0-3.22 21.56-5.15 24.14a19 19 0 0 1-4.5 4.18 47.1 47.1 0 0 1-4.19-20.28c.32-11.26 5.8-23.17 5.8-23.17s-10.3 11.91-7.4 32.51c0 0-3.55 7.72-5.48 9l-2.57-3.54s.32 10 1.61 10.94 7.4-9 7.4-9l3.22 10s10.3-6.76 10-11.27c0 0 3.86 9 3.54 12.87 0 0 10.61-6.75 10.94-10l1.93 7.72s6.11-5.79 7.4-11.58l3.49 15.76 1.93-2.58s3.22 9.66 4.83 11.27 1.61 5.79 0 10-2.58 41.84 8.37 68.87a466 466 0 0 1 16.09 45.7l-1-10.94s4.51 8.37 8.37 9.34 15.12 2.25 8.05-26.4-20.92-75.62-16.42-97.51 15.13-76.6 38-74.34 19.63 23.17 19.31 34.43.64 19.64 1.93 21.89-5.15-2.58-5.47-8.69" class="cls-5"/><path d="M226.56 350.47h111.03M225.59 360.13h112.64M358.18 380.73h-151.9M207.25 400.36H359.8M205.96 423.2h154.8M203.39 446.06h158.66M200.17 466.65h163.49M196.31 488.86h169.92" class="cls-8"/><path d="M325.36 529.41V443.8h6.44v-17.7h-5.15s-1-45.37-42.49-45.37h-1.93c-41.51 0-42.48 45.37-42.48 45.37h-5.15v17.7h6.4v85.61Z" class="cls-4"/><path d="M256.81 448.63V426.1s4.51-31.22 25.42-31.22 27 22.53 27 30.58v23.17Z" class="cls-4"/><path d="M309.27 448.63V523l-52.46-3.54v-70.8Z" style="stroke:#000;stroke-width:1.84px"/><path d="M269.36 448.63v-48.6M282.23 448.63v-53.75M296.4 448.63v-48.6M256.81 441.23h52.46M256.81 430.45h52.46M308.62 420.63h-50.68M262.28 409.2h42.8" class="cls-8"/><path d="M226.56 214h114.57s1.29 103.63-1.29 113.28-55.35 49.56-55.35 49.56-57.29-36.69-58.58-47.63.65-115.21.65-115.21Z" style="fill:#fff;stroke:#000;stroke-width:2.76px"/><path d="M244 220.81h80.51s.91 94.52-.9 103.32-38.9 45.21-38.9 45.21-40.26-33.47-41.16-43.45.45-105.08.45-105.08Z" style="fill:#8b2942;stroke:#000;stroke-width:2.76px"/><path d="M246.51 332.45s25.1-9.66 34.76-15.45 14.8-14.16 18-21.88 9.65-20.6 18-29.61S336 240.41 327 232s-15.45-10.3-25.1-2.58-14.29 19.8-19.34 31.58c-1.93 4.51-9 11.59-12.88 14.81s-20 19.95-26.39 32.18-10.94 18.67-9 21.89 6.43 5.12 12.22 2.57Z" class="cls-12"/><path d="M296.53 257.51c-4.8-3.32-4.15-11.91 1.45-19.2s14-10.5 18.83-7.18 4.15 11.92-1.44 19.2-14.03 10.5-18.84 7.18" class="cls-2"/><path d="M302.49 257.8c-3.95-2.61-3.42-9.37 1.19-15.11s11.54-8.26 15.49-5.65 3.42 9.38-1.18 15.11-11.55 8.26-15.5 5.65" class="cls-5"/><path d="M299.91 256.51c-3.94-2.61-3.41-9.37 1.19-15.1s11.55-8.26 15.5-5.65 3.42 9.37-1.19 15.1-11.55 8.27-15.5 5.65" class="cls-6"/><path d="m276.12 396.17-5.15-14.16M287.71 395.53l5.14-13.52M241.68 381.05v19.31M220.44 400.36v22.84M219.48 446.06v20.59M218.83 488.86v19.95M349.17 489.18v21.88M348.21 466.65v-20.59M346.92 423.2v-23.17M323.43 400.36v-19.63" class="cls-8"/><path d="M106.19 534.56s22.53-21.89 38.62-21.89 41.2 7.73 34.12 18.67-6.44 13.52-16.1 13.52-17.37-6.44-27.67-8.37-23.16-1.93-28.97-1.93ZM214.33 514.61s22.53-12.88 50.85 7.08-14.81 30.89-14.81 30.89l-36 16.74-22.57-25.11 3.86-27Z" class="cls-7"/><path d="M154.47 517.18s21.24-24.46 39.9-22.53 47 16.74 25.75 31.54-45.7 6.44-45.7 6.44Z" class="cls-7"/><path d="M169.27 536.49s18-11.59 39.91 7.08 19.31 25.1 19.31 25.1S222.05 579 202.1 577s-37.33-9-39.91-15.45-2.57-15.41 7.08-25.06ZM456.29 538.26s-22-22.37-38.13-22.73-41.35 6.82-34.51 17.91 6.13 13.66 15.78 13.87 17.52-6 27.86-7.76 23.21-1.42 29-1.29ZM348.62 515.93s-22.24-13.37-51 6 14.12 31.21 14.12 31.21l35.66 17.53L370.49 546l-3.26-27.11Z" class="cls-7"/><path d="M408.41 519.82s-20.7-24.92-39.4-23.4-47.35 15.7-26.44 31 45.55 7.45 45.55 7.45Z" class="cls-7"/><path d="M393.18 538.8s-17.76-12-40.05 6.2-19.86 24.67-19.86 24.67 6.21 10.44 26.2 9 37.52-8.19 40.24-14.56 2.91-15.44-6.53-25.31Z" class="cls-7"/><path d="M264.53 292.54a20.7 20.7 0 0 0 12.88 7.73l-3.87 5.15s-8.36-6.44-9.65-10.3ZM279.28 274.39s5.73 6 17.77 9.12l-6.31 3s-11.37-7-12.74-10.28ZM286.21 268.78s5 5.31 15.59 8l-5.54 2.6s-10-6.15-11.17-9ZM288.78 261.06s5 5.3 15.6 8l-5.54 2.61s-10-6.15-11.18-9ZM272.9 282.89a20.7 20.7 0 0 0 12.87 7.72l-3.86 5.15s-8.37-6.44-9.65-10.3Z" class="cls-2"/><path d="m272.26 310.56 34.11-45.69 2.57 1.93-6.43 18.66-7.72 9.01z" class="cls-5"/><path d="M417.6 79.66c0-.26 0-.58.29-.49 0-.21.32-.27.32-.48 1.13.47 2.26 1.4 3.5.88 4.48-1.91 9.19-3.78 14.18-3.94 1.82 0 3.94 0 5.38 1.25.27.25-.68.45-.82.4a5 5 0 0 0-4.69 1c-2.82 2.58-5 5.76-8.6 7.05-3.87 1.38-6.66-1.84-9.51-4.14-.27-.26-.16-.99-.05-1.53" class="cls-2"/><path d="M204.67 389.09s12.55-6.11 3.86 3.54-8.68 6.44-8.68 6.44ZM205.32 417.73s9.33-7.72 5.15.33a103 103 0 0 1-6.76 11.58Z" class="cls-5"/><path d="m240.31 561.52-16.41.33s-2.34-8.84-9.11-12.62c0 0 12.15 1.27 18.38-1.56s7.14 13.85 7.14 13.85ZM280.63 536.49l-7.09-14.8s7.09-5.8 7.73-13.52c0 0 3.86 11.58 9 16.09s-9.64 12.23-9.64 12.23ZM321.47 560.46l9.85-13.13s8.41 3.59 15.55.58c0 0-8.48 8.79-10.09 15.44s-15.31-2.89-15.31-2.89ZM313.81 614.28l15.44 5.57s-1 9.1 4 15c0 0-10.89-5.54-17.72-5.13s-1.72-15.44-1.72-15.44ZM252.05 616.19 247.54 632s-9.14-.36-14.74 5c0 0 4.79-11.23 3.92-18s15.33-2.81 15.33-2.81Z" class="cls-12"/><path d="M281.91 531.38s4.63-21.82 21.08-14.11c8.88 4.17 10.62 10 13.75 12.7s10.74 6.15 13.93 6.9 13.86 9.48-.68 20.59l.62.59c15.53-4.16 15 11.24 13.64 14.48s-3.52 12.23-3.6 16.84 2.68 10.35.23 20.9c-4.53 19.55-23.17 8.13-23.17 8.13l-1 1.77c7.08 7.72 1.93 20.59-1.93 23.81s-23.82-.64-30.25-.64-17.38 6.43-31.54.64-3.22-24.46-3.22-24.46l-2.06-.62s-19.52 12.6-24.69-6.79c-2.79-10.46-.21-16.29-.45-20.9s-2.68-13.5-4.15-16.7-2.5-18.57 13.16-14.92l.6-.61c-14.89-10.63-4.53-19.7-1.36-20.56s10.66-4.57 13.71-7.35 4.58-8.69 13.32-13.14c16.19-8.25 21.53 13.41 21.53 13.41" style="fill:#8b2942;stroke:#000;stroke-width:1.84px"/><path d="M293.22 584.92s9.26 5.86 13.95 5.74 12.7-4.67 8.27-18.79l.19.61c-4.44-14.12-13.62-13.26-17.53-10.68s-8.16 12.68-8.16 12.68Z" class="cls-14"/><path d="M285 593.35s-2.82 10.59-1.3 15 8.26 10.72 20.4 2.25l-.52.37c12.14-8.47 8.57-17 4.94-19.92s-14.55-4-14.55-4Z" class="cls-14"/><path d="M274 586.92s-11 .49-14.72 3.27-7.75 11.09 4 20.14l-.51-.39c11.72 9 18.76 3.1 20.49-1.26s-.56-15.07-.56-15.07Z" class="cls-14"/><path d="M275.18 575.51s-4-10.19-7.9-12.85-13-3.69-17.74 10.34l.21-.61c-4.72 14 3.2 18.73 7.89 19s14.05-5.46 14.05-5.46Z" class="cls-14"/><path d="m280.63 535.2.64 9.01M323.76 560.79l-7.85 4.46M313.76 616.66l-6.41-6.37M251.83 618.18l5.37-7.27M239.24 560.8l8.3 3.56" class="cls-8"/><path d="M287.06 573.82s8.37-7.08 9.66-11.58-.65-13.52-15.45-13.52h.64c-14.8 0-16.73 9-15.44 13.52s9.65 11.58 9.65 11.58Z" class="cls-14"/><path d="M282.56 567.17a15 15 0 1 0 15 15 15 15 0 0 0-15-15Z" class="cls-14"/><path d="M273.54 580.26s1.94 11.58 18.67 7.08c0 0-3.22 9-12.87 6.44s-5.8-4.51-5.8-13.52" class="cls-2"/></g></g></svg>