<svg xmlns="http://www.w3.org/2000/svg" width="825.191" height="933.333" viewBox="0 0 825.191 933.333"><defs><clipPath id="a" clipPathUnits="userSpaceOnUse"><path d="M0 1080h1080V0H0Z"/></clipPath></defs><g clip-path="url(#a)" transform="matrix(1.33333 0 0 -1.33333 -307.404 1186.667)"><path d="M0 0v240.96h-618.827V0s-9.841-358.972 309.414-459.04C9.842-358.972 0 0 0 0" style="fill:#038c40;fill-opacity:1;fill-rule:nonzero;stroke:none" transform="translate(849.413 649.04)"/><path d="M0 0c-8.52 0-13.783-6.796-17.029-12.8-2.11-3.905-5.169-8.828-10.272-11.402l-19.881-10.024a4.78 4.78 0 0 0-3.572-.3c-5.853 1.814-13.746 9.149-16.813 2.564-3.963.338-7.514-2.143-6.821-6.854 2.154 2.107 6.124 2.553 12.47 1.048l-2.939.014c-5.994 0-7.764-4.437-6.304-7.116 1.344 1.545 3.955 2.15 8.999 2.15l14.893.012L1.856-26.394C8.36-24.224 11.95-17.89 11.95-11.801 11.95-5.653 8.211 0 0 0" style="fill:#fff200;fill-opacity:1;fill-rule:nonzero;stroke:none" transform="translate(344.675 696.475)"/><path d="M0 0c3.934 2.636 9.513 4.099 14.683 4.158C11.225-7.564 2.313-3.803 0 0m30.74-.028c3.391 0 11.522-.045 11.522-.045-6.694 8.097-14.04 12.568-24.519 12.224l2.025 5.332C-7.199 18.095-.267-2.739-13.621-2.732l-4.842.004c-1.744-6.043.623-11.776 6.931-13.444.399 4.543 4.863 6.906 9.166 6.906 4.842 0 8.459-1.936 8.459-5.854 0-4.777-4.939-7.406-9.942-7.406-2.268 0-4.543.563-6.363 1.743-1.968-3.646-.493-10.001 2.733-12.585 3.387 7.819 26.671-.78 31.241 22.758.957-1.804 1.508-3.813 1.508-5.588 0-13.331-25.983-21.005-29.889-36.649 4.84 5.145 10.534 7.676 17.012 7.676 12.246 0 20.664-9.319 18.59-22.833 4.249 4.893 6.761 15.547 5.148 20.987l10.694-16.611c3.73 12.197-1.944 32.961-7.227 41.298h9.257C45.591-12.283 37.279-2.96 30.74-.028" style="fill:#fff200;fill-opacity:1;fill-rule:nonzero;stroke:none" transform="translate(332.291 748.604)"/><path d="M0 0h15.217c8.431 0 13.139 5.634 13.139 12.584 0 6.951-4.338 12.584-13.139 12.584l-75.05-.017c-4.691 0-7.823 3.502-7.823 7.821 0 4.32 3.132 7.683 7.823 7.683h12.623c21.977 0 33.052-4.11 53.145-4.11 16.283 0 19.687 4.849 22.508 9.708h-88.692c-8.803 0-13.674-5.96-13.674-13.281s4.871-13.395 13.674-13.395l75.327.009c4.978 0 7.279-3.135 7.279-7.002s-2.301-7.001-7.279-7.001l-95.17-.009c3.207-9.191 5.266-21.329 4.136-31.186l36.219 9.351c-3.844 4.967-5.893 9.209-6.462 13.694l14.995-15.208c7.163-7.264 17.574-14.364 26.927-14.364 8.562 0 12.853 3.378 17.78 8.565l4.528-19.775c1.454-6.347-1.467-9.579-9.039-9.579-5.309 0-12.374 4.905-17.284 4.905-1.541 0-2.847-.68-3.755-2.699-4.298.268-7.561-2.46-6.769-6.457 2.153 1.985 6.123 2.41 12.471.994h-2.94c-5.994 0-7.765-4.171-6.304-6.693 1.593 1.726 5.217 2.024 8.998 2.024l31.47.012c4.85 14.167 4.943 36.016-1.104 48.47C14.213-12.372 1.464-6.587 0 0" style="fill:#fff200;fill-opacity:1;fill-rule:nonzero;stroke:none" transform="translate(462.902 714.475)"/><path d="m0 0-20.734-5.353 9.263-17.821c2.449-4.711-.492-7.221-5.793-7.221-5.805 0-12.412 4.905-16.68 4.905-1.541 0-2.847-.68-3.755-2.699-4.298.268-7.561-2.46-6.769-6.457 2.154 1.985 6.123 2.41 12.471.994h-2.94c-5.994 0-7.765-4.171-6.304-6.692 1.593 1.725 5.217 2.023 8.999 2.023l31.469.012c2.02 3.12 3.756 6.703 4.157 10.552C-7.893-19.127-6.486-10.78 0 0" style="fill:#fff200;fill-opacity:1;fill-rule:nonzero;stroke:none" transform="translate(426.64 691.942)"/><path d="m0 0 3.669-12.285c.264-.884.927-1.624 1.811-1.888.449-.134 1.017-.223 1.736-.223L40.18-14.6c-4.214-4.132-7.33-10.007-8.184-15.725l-32.07 9.502a4.06 4.06 0 0 0-2.044 1.385c-9.067 11.577-17.212 3.729-17.212 3.729.011 3.74 3.797 7.877 12.675 7.224-4.322 3.476-9.521 5.782-13.219 4.708 3.225 3.225 7.308 5.502 15.704-.231-2.065 10.637-7.435 10.116-7.435 10.116S-2.933 9.721 0 0" style="fill:#fff200;fill-opacity:1;fill-rule:nonzero;stroke:none" transform="translate(288.25 725.645)"/><path d="M0 0h-8.516v23.691a4.26 4.26 0 0 0 8.517 0zm-32.611 0h-8.515l-.001 23.691a4.26 4.26 0 0 0 8.517 0zm-98.54 0h-8.516l-.001 23.691a4.258 4.258 0 1 0 8.517 0zm-32.611 0h-8.516l-.001 23.691a4.259 4.259 0 1 0 8.518 0zM11.127 51.669v-6.024H-1.842v6.024h-12.969v-6.024H-27.78v6.024h-12.968v-6.024h-12.97v6.024h-12.968v-6.024h-12.969v6.024h-12.968v-6.024h-12.969v6.024h-12.969v-6.024h-12.969v6.024h-12.969v-6.024h-12.969v6.024h-12.968v-6.024h-12.968v6.024h-12.969v-69.491h89.249v11.099c0 11.588 9.395 20.984 20.985 20.984s20.985-9.396 20.985-20.984v-11.099h89.249v69.491z" style="fill:#fff200;fill-opacity:1;fill-rule:nonzero;stroke:none" transform="translate(467.343 800.978)"/><path d="M0 0c-5.879 4.46-14.965 10.571-26.282 14.748C-33.842 9.19-39.657.464-44.334-12.187-31.106-7.118-14.906-2.652 0 0" style="fill:#fff200;fill-opacity:1;fill-rule:nonzero;stroke:none" transform="translate(801.654 798.902)"/><path d="M0 0h-59.433l-71.376-71.375h5.787C-68.206-71.375-28.262-48.644 0 0" style="fill:#fff200;fill-opacity:1;fill-rule:nonzero;stroke:none" transform="translate(638.397 693.432)"/><path d="M0 0c-7.245-1.68-15.573-1.93-26.141-1.93h-30.212c-30.495-56.033-74.919-82.151-137.362-82.151h-16.561l-51.406-51.406h54.072C-120.778-135.487-42.686-101.484 0 0" style="fill:#fff200;fill-opacity:1;fill-rule:nonzero;stroke:none" transform="translate(707.09 695.361)"/><path d="m0 0-109.666-109.666 27.319-.267c30.698 0 43.787 6.823 68.471 31.506L64.842 0Z" style="fill:#fff200;fill-opacity:1;fill-rule:nonzero;stroke:none" transform="translate(434.631 549.099)"/><path d="M0 0c12.201-6.563 18.231-12.959 17.461-25.379-4.663 5.435-10.328 9.739-16.367 12.988L-30.894 4.815l-5.251 14.627zm136.43 329.754c-21.155 0-36.508 15.851-36.508 37.69 0 23.451 19.978 45.475 46.739 45.475 9.89 0 16.417-2.449 21.162-6.918-4.757-14.851-20.401-18.268-30.588-5.108-8.933-2.406-26.537-12.708-26.537-33.449 0-15.847 10.582-26.914 25.732-26.914 18.372 0 26.292 12.937 32.53 32.363 3.438 10.708 8.963 24.304 19.754 34.156-9.915 18.263-26.681 23.535-42.279 23.535-28.159 0-51.475-15.109-67.597-53.363-10.195-24.192-20.575-40.156-38.266-57.845L13.407 292.21h94.226c20.393 0 29.849 3.467 40.641 9.556C102.991 163.995 3.018 140.561-61.244 137.478l-48.67-48.669a518 518 0 0 1 37.809-.422l45.098-125.828c4.472-12.424 4.776-18.13 2.66-22.747-4.362 2.142-7.77 5.776-12.423 18.757L-52.405 2.192l-25.82-26.181c-6.232-6.34-10.417-12.677-12.819-18.047-4.945 6.642-1.479 18.359 7.578 27.536l27.17 27.547-9.488 26.473c-45.036-12.805-78.02-54.244-78.02-103.386 0-59.355 48.117-107.472 107.472-107.472S71.14-123.221 71.14-63.866c0 47.99-31.458 88.627-74.875 102.432l-15.66 43.624a387 387 0 0 0-10.684-1.474l13.985-39.021a108 108 0 0 1-20.238 1.911c-2.817 0-5.603-.129-8.365-.343L-61.052 88.84c185.347 9.187 257.875 129.947 258.559 273.207-6.438 1.187-12.627 2.965-18.923 5.613-6.368-19.064-16.589-37.906-42.154-37.906" style="fill:#fff200;fill-opacity:1;fill-rule:nonzero;stroke:none" transform="translate(576.333 411.997)"/></g></svg>