<svg xmlns="http://www.w3.org/2000/svg" width="194.242" height="257.559" viewBox="0 0 485.606 643.898"><defs><clipPath id="a"><path d="M0 346.035V990h485.695V346.035zm0 0"/></clipPath></defs><g clip-path="url(#a)" transform="translate(-.043 -346.101)"><path d="M28.219 401.89s196.668-115.831 425.836 0C577.383 833.56 242.383 985.228 242.383 985.228S-85.117 846.89 28.219 401.89" style="fill:#231f20;fill-opacity:1;fill-rule:nonzero;stroke:none"/><path d="M225.75 4704.875s1573.344 926.656 3406.688 0C4619.062 1251.531 1939.063 38.188 1939.063 38.188s-2620 1106.687-1713.313 4666.687zm0 0" style="fill:none;stroke:#a49150;stroke-width:70;stroke-linecap:butt;stroke-linejoin:miter;stroke-miterlimit:10;stroke-opacity:1" transform="matrix(.125 0 0 -.125 0 990)"/><path d="M25.86 464.39s210.835-115 433.335 0c30.836 149.587-5 248.337-5 248.337H31.281s-35-117.5-5.422-248.336" style="fill:#a49150;fill-opacity:1;fill-rule:nonzero;stroke:none"/><path d="m65.195 432.477-9.398-25.274 6.672-2.48 8.699 7.308c2.488 2.106 5.121 4.711 7.344 7.13l.078-.028c-1.582-3.215-2.965-6.586-4.387-10.406l-2.734-7.352 5.254-1.953 9.394 25.273-6 2.227-9.023-7.738c-2.504-2.145-5.406-4.774-7.703-7.29l-.153.055c1.446 3.305 2.84 6.84 4.375 10.961l2.832 7.613zM98.063 410.805c.93 3.226 2.972 5.257 5.472 4.543 2.305-.664 3.074-3.348 2.09-6.762-.8-2.77-2.695-5.305-5.348-4.54-2.77.798-3.011 3.993-2.215 6.759m13.546-4.118c1.989 6.883-1.984 11.442-7.02 12.891-5.495 1.586-10.765-.808-12.515-6.883-1.761-6.11 1.114-11.14 7.188-12.89 5.73-1.657 10.707 1.195 12.347 6.882M124.21 388.383l1.204 5.14 4.242-.992 1.028 4.36-4.246.996 1.613 6.894c.543 2.293 1.37 3.211 3.125 2.797.816-.191 1.199-.316 1.715-.566l1.09 4.472c-.676.446-2.063 1.016-3.7 1.403-1.906.441-3.66.16-4.86-.586-1.355-.875-2.331-2.578-2.96-5.266l-1.828-7.785-2.531.59-1.024-4.363 2.531-.594-.828-3.547zM144.863 384.043l1 5.184 4.285-.825.848 4.395-4.281.832 1.347 6.95c.446 2.316 1.239 3.265 3.008 2.921.825-.16 1.211-.277 1.739-.496l.906 4.504c-.688.422-2.098.937-3.75 1.258-1.922.37-3.66.015-4.832-.778-1.32-.926-2.227-2.668-2.75-5.375l-1.52-7.851-2.55.488-.852-4.395 2.555-.496-.696-3.57zM161.89 400.875c1.204.508 3.614.914 5.395.648 1.817-.277 2.48-.98 2.332-1.972-.156-1.028-.82-1.41-3.148-1.832-4.235-.735-6.102-2.684-6.41-4.985-.543-3.636 2.132-6.832 6.918-7.546 2.257-.34 4.316-.079 5.593.328l-.406 4.312c-.945-.344-2.742-.723-4.36-.476-1.46.218-2.202.937-2.062 1.882.14.95.961 1.313 3.461 1.79 3.867.71 5.66 2.386 6.117 5.187.547 3.64-1.863 6.71-7.398 7.539-2.535.383-4.879.129-6.461-.441zM218.625 399.32c-1.043.598-3.55 1.422-6.785 1.653-9.297.672-14.504-4.805-15.059-12.465-.664-9.18 5.52-14.723 13.656-15.309 3.153-.226 5.586.2 6.711.715l-.933 4.883c-1.235-.434-2.98-.785-5.18-.629-4.785.348-8.324 3.531-7.894 9.52.39 5.382 3.828 8.542 9.21 8.156 1.876-.137 3.844-.64 5.047-1.25zM232.086 389.82c.055 3.36 1.5 5.852 4.094 5.809 2.398-.04 3.84-2.422 3.78-5.98-.046-2.883-1.214-5.82-3.976-5.778-2.879.05-3.949 3.067-3.898 5.95m14.156-.437c.117 7.16-4.91 10.523-10.148 10.613-5.719.09-10.18-3.594-10.29-9.914-.1-6.355 3.993-10.469 10.31-10.574 5.956-.098 10.027 3.953 10.128 9.875M274.18 394a117 117 0 0 0-.098 6.281l-5.277-.219-.168-2.765h-.118c-.808 1.164-2.73 3.086-6.246 2.941-3.996-.164-6.77-2.761-6.523-8.793l.469-11.468 6.078.25-.43 10.507c-.117 2.836.73 4.594 2.89 4.68 1.673.07 2.723-1.047 3.118-1.992q.262-.532.297-1.309l.476-11.625 6.075.25zM285.426 387.73c.242-2.433.363-4.468.465-6.23l5.25.527.011 2.735.118.011c.921-1.195 3.062-2.867 6.328-2.543 3.98.403 6.699 3.364 6.12 9.098l-1.148 11.504-6.05-.605 1.078-10.786c.254-2.511-.453-4.312-2.641-4.527-1.672-.172-2.785.883-3.332 1.957-.2.383-.297.934-.352 1.488l-1.12 11.227-6.055-.606zM322.95 380.645l-.794 5.218 4.313.657-.668 4.425-4.313-.648-1.058 7.004c-.352 2.328.078 3.488 1.86 3.758.831.128 1.23.148 1.804.113l-.653 4.55c-.789.169-2.293.18-3.953-.066-1.941-.297-3.457-1.21-4.297-2.351-.933-1.317-1.207-3.262-.793-5.992l1.196-7.907-2.57-.39.671-4.43 2.57.39.548-3.605zM340.863 389.133l.953 10.027c.094 1.16.192 2.692.22 3.762l.155.031c.45-1.008 1.051-2.363 1.555-3.441l4.297-8.926 6.352 1.285-7.028 11.719c-4.289 7.094-6.742 9.738-9.289 11.222-2.406 1.395-4.734 1.618-6.258 1.473l-.277-5.285c.777-.004 1.785-.164 2.793-.492.996-.29 2.219-1.063 2.953-1.895.266-.273.445-.562.488-.797.051-.238.067-.515-.035-1.027l-3.504-19zM379.172 390.477l15.781 4.62-1.406 4.801-9.945-2.91-1.73 5.91 9.292 2.723-1.394 4.762-9.293-2.723-3.04 10.406-5.84-1.707zM415.668 430.008c-1.191.129-3.816-.133-6.863-1.227-8.774-3.14-11.325-10.258-8.735-17.488 3.102-8.656 10.989-11.23 18.672-8.477 2.973 1.067 5.028 2.438 5.844 3.372l-2.824 4.085c-.957-.898-2.41-1.93-4.48-2.671-4.516-1.618-9.044-.137-11.067 5.515-1.82 5.082.043 9.36 5.129 11.18 1.773.633 3.773.973 5.117.898zM209.082 726.29h-.078l-4.961 2.358-1-4.554 6.922-3.203h4.996v26h-5.879zM226.016 727.57c0 1.762 1.558 2.88 3.636 3.52 1.403-.403 2.645-1.68 2.645-3.281 0-1.641-.926-3.239-3.16-3.239-2.082 0-3.121 1.403-3.121 3m6.797 12.317c0-2.278-1.72-3.64-4.079-4.278-2 .559-3.164 2-3.164 3.88-.039 1.878 1.403 3.64 3.684 3.64 2.117 0 3.559-1.402 3.559-3.242m-8.797-6.403c-2.524-1.316-3.762-3.437-3.762-5.714 0-4.403 3.96-7.32 9.16-7.32 6.078 0 8.598 3.519 8.598 6.679 0 2.242-1.2 4.437-3.797 5.719v.12c2.558.962 4.8 3.122 4.8 6.442 0 4.715-3.96 7.918-10 7.918-6.6 0-9.64-3.719-9.64-7.242 0-3.117 1.797-5.277 4.64-6.516zM255.254 738.246c0-2.394-1.277-4.476-3.883-4.476-1.64 0-2.996 1-3.559 2.28-.199.356-.277.84-.277 1.56.117 2.757 1.442 5.238 4.238 5.238 2.118 0 3.48-1.957 3.48-4.602m3.32-13.035c-.683-.04-1.402 0-2.363.078-5.395.438-7.797 3.195-8.477 6.2h.118c1.28-1.278 3.12-2.04 5.523-2.04 4.36 0 8.035 3.082 8.035 8.48 0 5.157-3.957 9.4-9.555 9.4-6.964 0-10.363-5.161-10.363-11.36 0-4.88 1.805-8.961 4.64-11.598 2.56-2.36 5.962-3.598 10-3.805a13 13 0 0 1 2.442-.039zM264.215 746.89v-3.683l3.32-3.004c5.715-5.117 8.477-8.035 8.52-11.07 0-2.125-1.243-3.805-4.243-3.805-2.238 0-4.199 1.121-5.558 2.125l-1.723-4.324c1.922-1.48 5-2.68 8.48-2.68 5.919 0 9.122 3.442 9.122 8.121 0 4.399-3.117 7.88-6.918 11.239l-2.403 1.996v.086h9.84v5zM44.984 753.43h27.797v58.273s-19.422-32.82-27.797-58.273M113.313 869.98V753.43h35.164v153.726s-28.133-27.125-35.164-37.176M188 940.313V753.766h34.164v211S194.027 946.344 188 940.313M440.195 753.43h-27.797v58.273s19.422-32.82 27.797-58.273M371.871 869.98V753.43h-35.168v153.726s28.137-27.125 35.168-37.176M297.184 940.313V753.766h-34.16v211s28.128-18.422 34.16-24.453M239.86 700.516c-35.344 0-64.118-28.774-64.118-64.114 0-35.308 28.774-64.078 64.117-64.078 35.305 0 64.082 28.77 64.082 64.078 0 35.34-28.777 64.114-64.082 64.114" style="fill:#fff;fill-opacity:1;fill-rule:nonzero;stroke:none"/><path d="M176.516 636.402c0-34.91 28.414-63.312 63.343-63.312 34.907 0 63.309 28.402 63.309 63.312 0 34.93-28.402 63.344-63.309 63.344-34.93 0-63.343-28.414-63.343-63.344m-1.547 0c0 35.782 29.11 64.887 64.89 64.887 35.762 0 64.852-29.105 64.852-64.887 0-35.757-29.09-64.855-64.852-64.855-35.78 0-64.89 29.098-64.89 64.855" style="fill:#231f20;fill-opacity:1;fill-rule:nonzero;stroke:none"/><path d="m282.906 588.832-8.742 5.137 1.031 21.847 18.375 12.598 8.868-5.402s-.258-7.969-6.426-18.887c-6.168-10.922-13.106-15.293-13.106-15.293M282.906 684.176l-8.742-5.133 1.031-21.852 18.375-12.59 8.868 5.399s-.258 7.965-6.426 18.887-13.106 15.289-13.106 15.289M240.133 677.035l19.707 9.91v10.016s-8.61 3.727-19.66 3.727l-.102-.004c-11.05 0-19.652-3.731-19.652-3.731v-10.02z" style="fill:#231f20;fill-opacity:1;fill-rule:nonzero;stroke:none"/><path d="M240.117 594.82v20.43" style="fill:#fff;fill-opacity:1;fill-rule:nonzero;stroke:none"/><path d="M239.344 615.25h1.547v-20.43h-1.547zm0 0" style="fill:#231f20;fill-opacity:1;fill-rule:nonzero;stroke:none"/><path d="M240.117 655.594v22.457" style="fill:#fff;fill-opacity:1;fill-rule:nonzero;stroke:none"/><path d="M239.344 678.05h1.547v-22.456h-1.547zm0 0" style="fill:#231f20;fill-opacity:1;fill-rule:nonzero;stroke:none"/><path d="M293.57 626.129v19.18" style="fill:#fff;fill-opacity:1;fill-rule:nonzero;stroke:none"/><path d="M292.797 645.309h1.543v-19.18h-1.543zm0 0" style="fill:#231f20;fill-opacity:1;fill-rule:nonzero;stroke:none"/><path d="m258.492 625.645 17.246-10.215" style="fill:#fff;fill-opacity:1;fill-rule:nonzero;stroke:none"/><path d="m258.094 624.98.789 1.329 17.25-10.215-.785-1.328z" style="fill:#231f20;fill-opacity:1;fill-rule:nonzero;stroke:none"/><path d="m259.066 585.46 15.707 8.868" style="fill:#fff;fill-opacity:1;fill-rule:nonzero;stroke:none"/><path d="m258.688 586.133 15.71 8.867.758-1.344-15.707-8.87z" style="fill:#231f20;fill-opacity:1;fill-rule:nonzero;stroke:none"/><path d="m274.875 678.652-15.71 8.676" style="fill:#fff;fill-opacity:1;fill-rule:nonzero;stroke:none"/><path d="m258.79 686.648.745 1.356 15.707-8.672-.742-1.355z" style="fill:#231f20;fill-opacity:1;fill-rule:nonzero;stroke:none"/><path d="m258.492 646.559 17.54 11.18" style="fill:#fff;fill-opacity:1;fill-rule:nonzero;stroke:none"/><path d="m258.078 647.21 17.54 11.18.827-1.3-17.539-11.184zM197.352 588.824l8.742 5.14-1.024 21.848-18.382 12.59-8.868-5.394s.262-7.973 6.43-18.899c6.164-10.91 13.102-15.285 13.102-15.285M197.352 684.172l8.742-5.145-1.024-21.843-18.382-12.59-8.868 5.398s.262 7.969 6.43 18.883c6.164 10.926 13.102 15.297 13.102 15.297" style="fill:#231f20;fill-opacity:1;fill-rule:nonzero;stroke:none"/><path d="M186.688 626.125v19.172" style="fill:#fff;fill-opacity:1;fill-rule:nonzero;stroke:none"/><path d="M185.922 645.297h1.539v-19.172h-1.54zm0 0" style="fill:#231f20;fill-opacity:1;fill-rule:nonzero;stroke:none"/><path d="m221.773 625.64-17.25-10.214" style="fill:#fff;fill-opacity:1;fill-rule:nonzero;stroke:none"/><path d="m204.125 616.086 17.25 10.219.79-1.328-17.247-10.215z" style="fill:#231f20;fill-opacity:1;fill-rule:nonzero;stroke:none"/><path d="m221.191 585.453-15.707 8.867" style="fill:#fff;fill-opacity:1;fill-rule:nonzero;stroke:none"/><path d="m205.102 593.648.757 1.344 15.711-8.867-.754-1.344z" style="fill:#231f20;fill-opacity:1;fill-rule:nonzero;stroke:none"/><path d="m205.387 678.64 15.71 8.68" style="fill:#fff;fill-opacity:1;fill-rule:nonzero;stroke:none"/><path d="m205.016 679.316 15.707 8.676.746-1.347-15.707-8.672z" style="fill:#231f20;fill-opacity:1;fill-rule:nonzero;stroke:none"/><path d="m221.773 646.555-17.546 11.175" style="fill:#fff;fill-opacity:1;fill-rule:nonzero;stroke:none"/><path d="m203.813 657.078.835 1.305 17.54-11.18-.829-1.305z" style="fill:#231f20;fill-opacity:1;fill-rule:nonzero;stroke:none"/><path d="m240.117 613.613 18.887 11.586v21.715l-18.895 11.332-18.855-11.34v-21.715zM240.242 572.129c11.051 0 19.66 3.726 19.66 3.726v10.02l-19.77 9.89-19.777-9.898v-10.015s8.61-3.735 19.665-3.735zM113.992 657.129c-7.133-1.156 27.567-46.066 49.153-74.594 16.933-22.379 17.863-28.976 17.863-28.976-1.29-2.313-19.918-2.188-22.617-2.313-2.703-.129-1.672-3.726-1.672-3.726s-1.031-.387-3.34-.641c-2.316-.258-5.402-1.543-5.402-1.543s.386-2.055 4.246-5.016c3.851-2.953 6.937-3.336 7.449-4.234.52-.898-2.828-.516-6.426.383-3.594.898-6.934 2.441-6.934 2.441s.254-1.285 3.215-5.394c2.953-4.118.895-3.598-1.675-3.73-2.57-.13-4.239-1.54-4.239-1.54s.258-.77 1.543-1.676c1.285-.898 1.93-1.664 1.93-2.308 0-.645-5.402-.13-5.402-.13s.64-2.058 1.796-3.593c1.16-1.547 2.575-3.473 2.575-4.371s-2.961-2.059-2.961-2.059.133-7.062 0-11.304c-.434-14.399-3.176-17.668-8.606-25.188-1.672-2.312-1.285-8.742-.254-9.508 1.024-.773 13.582-.257 25.957 7.196 11.91 7.175 17.602 17.734 18.114 17.734.515 0 .644-2.187 1.222-3.41 1.051-2.215 2.028-2.309 2.7-8.188.43-3.765 2.218-5.394 3.757-9.543 1.055-2.836 2.313-3.855 2.313-3.855l1.93 2.602s.093-2.504.093-4.528.094-4.336.094-4.336.871.766 2.602 2.602a189 189 0 0 0 2.316 2.41s0-1.059.289-5.012c.293-3.953 1.254-7.328 1.254-7.328s1.348 1.738 2.695 3.86c1.352 2.117 2.117 3.175 2.117 3.175s.297-2.117 1.356-5.203c.941-2.738 2.793-6.168 2.793-6.168s.289 1.738 1.156 4.918c.867 3.176 1.93 4.527 1.93 4.527s.578-3.953 2.02-8.773c1.331-4.43 3.085-8.285 3.085-8.285s.29 3.375 1.25 6.652c.969 3.274 2.028 4.719 2.028 4.719s.582-2.602 1.347-4.336c.77-1.734 2.028-3.66 2.028-3.66s.097 2.695.484 6.457c.383 3.758.77 6.937.77 6.937s.675-.386 1.347-.773c.672-.383 2.024-.863 2.024-.863s-.579 1.824-1.352 3.082c-.77 1.254-1.059 2.41-1.059 2.41.29 6.746 3.145 15.094 2.7 20.719-.516 6.496-6.555 12.789-9.891 20.754-2.738 6.523-2.187 12.203-2.187 12.203s7.07-.836 10.152 4.882c2.7 5.016 1.152 10.297 1.41 13.239.387 4.37 2.793 9.219 1.676 8.742-6.301-2.7-6.946-4.246-7.457-3.348-1.031 1.805 2.015 7.473 1.543 14.266-.512 7.328-5.137 14.652-9.899 18.504-4.398 3.57-8.605 5.137-8.347 5.781.257.645 2.187.262 2.828.774.64.515 2.566 1.156 1.539 1.796-1.028.645-5.524 4.375-5.524 3.473 0-.898-1.027-2.312-1.671-1.668-.641.637-.641 2.184 0 2.309.644.129-.641 1.156-1.93 2.058-1.281.899-2.309 3.211-2.695.645-.383-2.574-.254-4.742-1.801-4.5-2.442.383-11.176 1.156-12.207 1.672-1.032.511-12.977 26.336-17.61 34.82-4.62 8.48-5.355 12.984-9.246 12.984-4.113 0-4.883-.132-6.812 4.235-1.157 2.629-6.168 2.312-6.293-.13-.203-3.859-.203-5.362-2.953-3.859-6.813 3.73-11.75 11.145-13.75 15.426-1.418 3.016-2 9.602-10.477 8.223" style="fill:#231f20;fill-opacity:1;fill-rule:nonzero;stroke:none"/><path d="M213.547 567.402c1.937-2.851 3.855-6.937 3.758-8.09-.114-1.378-1.25-1.738-2.696-2.601-1.793-1.078-3.183-2.414-3.757-.297-.422 1.547-1.547 1.356-1.547-.574s-1.985-3.414-5.297-6.55c-5.399-5.11-4.531-6.458-5.785-7.04-.7-.32-1.735.96-1.735 3.762 0 2.793 1.543 3.66.965 4.336-.578.672-3.855 2.601-2.797 4.816 1.063 2.219 2.508 3.082.774 4.336-1.739 1.25-2.29.871-2.22-2.695.095-4.82-5.495-4.075-7.42 3.37-.77 2.99-1.157 13.013-.77 13.4.386.386 2.027 1.152 3.375 2.405 1.347 1.254 1.543 2.504 3.277 2.504 1.73 0 3.176-3.175 5.394-3.273 2.215-.098 2.989 1.64 5.88.574 2.89-1.058 6.745-2.695 10.6-8.383M214.125 456.48c-.555-.16-4.434 7.903-4.336 9.06.094 1.155 2.121 3.562 4.047 6.745 1.926 3.18 2.695 4.336 2.695 4.336s.196-5.492-.574-11.758-1.156-8.191-1.832-8.383M205.645 458.313c-.375-.079-1.157.382-2.122 3.757-.46 1.618-1.062 2.504-.093 4.336.965 1.832 8.578 13.301 8.578 13.301s.574-1.64-2.125-9.738c-2.695-8.094-3.758-11.563-4.238-11.656M198.707 461.875c-.77.098-1.355 2.602-1.254 6.363.094 3.758.578 4.239 5.008 8.383 4.434 4.14 5.203 4.723 5.203 4.723s0-1.926-3.559-9.739c-3.566-7.808-3.855-9.921-5.398-9.73M192.926 468.238c-.754-.215-.551 1.73-.485 3.66.098 2.602.485 3.18 5.106 7.133 4.625 3.953 6.168 5.203 6.168 5.203s-1.543-3.953-5.106-8.671c-3.566-4.723-5.011-7.13-5.683-7.325M189.645 472.77c-.762-.133-1.442.378-1.829 2.89-.386 2.504-.097 2.89 5.301 6.84 3.297 2.418 4.719 3.277 4.719 3.277s.289-1.058-3.465-6.359c-3.762-5.3-4.144-6.559-4.726-6.648M186.66 479.898c-.77 0-.965.485-.87 2.02.07 1.066-.188 1.355 2.796 3.184 2.351 1.441 3.281 1.832 3.281 1.832s-.5-1.739-2.414-4.047c-2.308-2.793-2.793-2.989-2.793-2.989M184.344 484.43c-.672 0-.867.574-.77 2.215.098 1.636 1.059 2.218 3.281 3.18l2.211.96s.387-1.058-1.636-2.98c-2.024-1.93-2.41-3.375-3.086-3.375M136.64 471.129c-.421.531-.773 3.95.579 5.586 1.351 1.64 6.941 7.039 8.094 18.02 1.046 9.894.671 15.906.671 15.906s7.786-.391 14.27-3.762c7.605-3.945 6.937-7.8 11.754-11.465 2.5-1.898 3.57-1.93 3.57-1.93s-5.867-9.855-15.035-15.03c-11.95-6.75-22.844-8.68-23.902-7.325" style="fill:#fff;fill-opacity:1;fill-rule:nonzero;stroke:none"/><path d="M256.563 569.105c-7.458-6.55-9.958-11.433-11.504-17.027-2.348-8.523-.575-16.57-1.54-18.308-.59-1.067-2.054 1.668-6.62 4.566-1.172.742-2.641 1.355-2.801 1.133-.215-.305.105-1.52.816-3.574 1.094-3.184 1.86-3.668.703-8.102-1.078-4.117-1.156-7.516 1.54-10.602 3.718-4.246 11.757-8.285 10.988-16.378-1.149-12.055-16.77-23.516-17.73-25.637-1.114-2.442.19-16.578 0-27.176-.196-10.602 1.538-13.305 1.538-13.305.484 0 .238 1.055 2.313 4.336 1.16 1.832 2.41 2.992 2.41 2.992s1.058-3.664 3.37-9.832c2.317-6.168 3.86-9.152 3.86-9.152s-.097 2.7 1.442 7.707c1.547 5.012 2.797 7.324 2.797 7.324s1.156-2.699 2.12-4.914c1.204-2.765 2.122-4.527 2.122-4.527s1.347 2.89 2.023 5.976a305 305 0 0 0 1.445 6.258s.77-1.058 1.926-2.504c1.16-1.445 2.317-2.308 2.317-2.308s.484 5.297.675 8.867c.188 3.559.575 6.742.575 6.742s1.058-2.406 3.375-5.3c2.312-2.891 4.433-4.528 4.433-4.528s.574 2.215.77 6.645c.16 3.757.093 4.824.093 4.824s.872-1.254 1.836-2.41c.961-1.16 1.832-1.832 1.832-1.832s.188 2.699.766 4.242c.582 1.539 1.64 2.695 1.64 4.336 0 1.636 1.544 1.152 1.833 3.66.285 2.5 2.02 1.832 2.02 6.36 0 4.53.292 6.843 1.163 6.843.864 0 1.059 3.18.961 5.012s.485 3.18.485 3.18 3.617-10.13 15.511-24.864c12.914-15.996 26.34-23.258 35.082-22.168 3.082.39 3.664 1.926 1.348 6.172-2.312 4.238-8.71 15.238-8.289 21.586.387 5.781.77 10.41 1.738 12.145.961 1.734.574 5.199-2.125 6.937-2.695 1.734-4.812 2.504-4.812 3.473 0 .96 4.258-.149 4.62.765.774 1.93-.19 4.82-.573 6.938-.387 2.125 1.906 2.613 1.539 5.207-.387 2.699-.965 5.398-2.89 6.36-1.927.964-1.735 2.316-.966 5.01.774 2.7 1.543 5.208 1.543 5.208s-2.527-.945-5.008-3.664c-4.054-4.434-4.82-2.516-4.82-.582 0 1.738 1.543 4.433 5.2 6.945 3.667 2.504 5.976 3.852 5.976 3.852s-3.277 4.629-9.246 2.316c-5.977-2.316-9.45-4.242-8.68-2.121.774 2.121 1.734 5.586 5.973 5.973 4.246.383 6.558 0 6.558 0s-4.238 10.023-14.07 12.14c-9.832 2.121-16.238.766-16.578 2.121-.387 1.547 2.312 2.7 5.976 10.41 3.66 7.712 4.243 13.688 11.567 22.743 7.324 9.062 17.71 21.172 34.504 34.504 6.547 5.207 14.914 10.445 15.61 12.527 1.155 3.473 5.241 3.543 9.636 12.145 4.625 9.058 7.129 16.77 5.012 17.925-2.122 1.157-6.75-6.937-10.602-13.3-3.86-6.356-8.29-7.711-9.828-7.711-3.473 0-11.57-6.934-11.57-6.934s.945 2.707-1.344 3.469c-4.625 1.543-11.906.043-24.29-15.23-11.562-14.259-25.827-33.731-25.827-33.731s-3.66 1.672-7.711 2.055c-4.047.386-4.875-.594-4.625.644.386 1.926-.563 1.043-4.434-1.352-4.691-2.886-8.574-4.246-10.023-4.82-2.957-1.152 0-1.347.257-1.797 1.016-1.765-2.222-2.148-5.332-4.883" style="fill:#231f20;fill-opacity:1;fill-rule:nonzero;stroke:none"/><path d="M274.07 529.723c-2.699-.387-5.234-.07-5.687.386-.774.782.773 6.649-6.266 14.07-4.988 5.266-13.972 6.84-13.972 6.84s-1.446 4.051 3.949 11.086c4.883 6.368 7.422 7.512 10.992 7.708 3.562.19 5.879.386 6.742 1.636.871 1.254 3.953 2.414 5.492 1.356 1.547-1.067 6.172-2.317 8.868-5.305 2.703-2.984 2.796-6.937.484-11.273-2.313-4.336-2.602-9.735-6.36-9.059-3.761.676-5.976 1.832-7.039 2.89-1.058 1.06-2.406 2.7-2.02-.484.388-3.176 6.454-11.758 6.454-11.758s-.648-1.156-.77-4.62c-.097-2.704.434-3.29-.867-3.473M233.691 445.203c-.824-.61-.097 3.18.864 10.309.96 7.136 2.601 15.23 2.601 15.23s.774-1.254.969-10.699c.191-9.441 1.152-10.691-4.434-14.84M243.328 437.11c-1.062 0-1.926 1.921-2.992 4.046-1.059 2.121-1.61 3.59-.961 7.227 1.637 9.156 2.027 22.262 2.027 22.262s2.696-1.637 2.793-18.985c.067-12.629.864-14.55-.867-14.55M253.25 440.773c-.793 0-4.145 3.754-4.719 4.91-.578 1.157 0 2.891-.578 11.184-.578 8.285-.484 11.469-.484 11.469s2.508-2.703 5.011-13.688c2.149-9.41 2.504-13.875.77-13.875M257.973 442.309c-.762-.106-1.535 1.64-2.5 4.918-.965 3.277-1.063 8.578-2.606 14.746-1.539 6.168-2.406 9.73-2.406 9.73s1.254-1.445 5.203-8.96 4.145-6.263 3.375-14.65c-.43-4.632-.387-5.687-1.066-5.784M266.84 448.477c-.672 0-4.145 3.757-7.613 12.535-3.465 8.761-4.532 14.453-4.532 14.453s2.89-1.059 7.04-7.711c4.144-6.652 7.035-10.504 6.359-14.649-.672-4.14-.094-4.628-1.254-4.628M269.73 456.672c-.785-.348-2.02 2.312-3.949 7.902-1.922 5.586-2.695 8-2.695 8s2.117-1.543 5.297-6.457 4.82-7.906 1.347-9.445M272.727 462.262c-.579-.13-.97.867-3.086 4.433-2.121 3.563-3.86 7.133-3.86 7.133s2.313-1.254 5.305-4.531c2.984-3.277 5.492-6.168 1.64-7.035M274.742 466.504c-.555.691-1.055 1.93-2.508 4.047-1.445 2.12-2.117 3.566-2.117 3.566s2.61-.969 5.008-3.086c2.414-2.12 2.898-2.89 1.742-4.625-1.16-1.734-1.742-.386-2.125.098M307.832 451.016c-10.922 11.054-17.855 23.39-17.855 23.39s2.308-.129 4.75 2.188c2.441 2.308 3.773 5.781 4.757 7.316.899 1.418 2.309.133 5.653 2.188 1.625 1.004 2.183 2.695 4.754 1.797 1.882-.66 4.492.898 6.039-1.157 1.539-2.054 2.707-3.808 5.394-5.136 2.668-1.32 6.297-3.211 3.211-5.914-3.082-2.7-6.293-3.985-5.52-6.813.56-2.059 4.622-1.219 4.883-6.613.258-5.407 2.79-10.89 4.368-14.074 1.988-4.028 4.894-7.18.64-7.579-5.527-.515-10.086-.707-21.074 10.407" style="fill:#fff;fill-opacity:1;fill-rule:nonzero;stroke:none"/></g></svg>