<svg xmlns="http://www.w3.org/2000/svg" width="418.855" height="1003.601"><defs><clipPath id="a" clipPathUnits="userSpaceOnUse"><path d="M0 1080h1080V0H0Z"/></clipPath></defs><g clip-path="url(#a)" transform="matrix(1.33333 0 0 -1.33333 -495.503 1206.697)"><path d="M0 0c-.354.089-37.343 6.106-80.261 24.246-5.752-4.867-20.441-18.052-21.769-28.405 0-.177.089-.443.266-.531.885-.443 1.858-.885 2.655-1.15 1.858-.62 3.451-2.036 4.336-3.894 1.77-3.717 5.663-10.884 11.592-17.167a235 235 0 0 0 3.363-2.212c15.043-10.265 27.963-23.981 37.343-39.644a123 123 0 0 0 4.513-8.23c6.725-13.45 10.972-27.963 12.477-42.918.265-2.389.442-4.778.531-7.079.088-1.947.177-3.982.177-6.017s-.089-4.071-.177-6.017a92 92 0 0 0-.531-7.08c-1.593-14.955-5.752-29.379-12.477-42.918a123 123 0 0 0-4.513-8.229c-9.38-15.663-22.212-29.379-37.255-39.644-2.124-1.416-4.247-2.832-6.46-4.159-7.433-4.425-15.309-8.141-23.45-10.884-3.539-1.239-7.256-2.301-10.972-3.186-2.124-.531-4.248-.973-6.372-1.416-2.389-.442-4.778-.796-7.256-1.15a123 123 0 0 0-16.194-1.062c-5.398 0-10.884.354-16.282 1.062-2.389.265-4.779.708-7.168 1.15-2.212.443-4.336.885-6.371 1.416-3.717.885-7.433 1.947-10.973 3.186-8.141 2.743-16.017 6.459-23.45 10.884a116 116 0 0 0-6.46 4.159c-15.043 10.265-27.963 23.981-37.343 39.644a123 123 0 0 0-4.513 8.229c-6.725 13.451-10.973 27.963-12.477 42.918a100 100 0 0 0-.531 7.08c-.088 1.946-.177 3.982-.177 6.017s.089 4.07.177 6.017c.089 2.389.266 4.779.531 7.079 1.593 14.955 5.752 29.379 12.477 42.918a122 122 0 0 0 4.513 8.23c9.38 15.663 22.211 29.379 37.343 39.644.354.265.708.442 1.062.708h.089c3.539 7.964 12.211 21.857 32.21 29.467l1.239.531.885-1.062s.088-.177.265-.354c1.947-2.035 4.513-3.186 7.345-3.186 1.681 0 3.274.443 4.779 1.151 1.415.796 2.743 1.858 3.716 3.274 3.805 5.486 8.407 14.512 8.407 26.458 0 14.247-4.867 29.733-7.876 37.963-14.424 8.849-27.343 18.406-38.493 28.405-27.875 25.132-43.891 61.236-43.891 99.021v73.005c0 9.645 2.389 19.202 6.99 27.697l2.567 4.69c-1.062 3.098-5.664 15.84-14.601 23.539l-1.77 1.504 10.353 8.053.974-.354c.265-.089 25.927-9.911 63.536-9.911 37.697 0 67.076 10.088 67.43 10.176l1.061.354 9.557-8.583-1.592-1.416c-8.761-7.699-13.274-20.176-14.336-23.273l2.566-4.69c4.602-8.495 6.991-18.052 6.991-27.698v-38.759c0-8.052 1.593-15.839 4.779-23.096 1.592-3.628 3.185-6.194 4.69-7.698 18.317-18.052 35.219-39.555 50.174-63.802 11.946-19.468 22.83-40.705 32.122-63.182C-4.07 31.503 2.124 2.478 2.212 2.212l.531-2.654Zm7.61.619-.531 2.655c-.088.266-6.283 29.733-22.388 68.58-9.468 22.742-20.353 44.245-32.476 63.89-15.22 24.601-32.299 46.369-50.97 64.775-.62.62-1.859 2.213-3.628 6.195-2.921 6.548-4.336 13.627-4.336 21.06v38.759a63.9 63.9 0 0 1-7.611 30.176l-1.416 2.654c1.593 4.336 5.575 13.362 12.124 19.026l1.593 1.416 4.336 3.805-4.336 3.805-9.557 8.583-2.213 2.036-2.831-.974-1.062-.354c-.266-.088-29.114-9.911-65.749-9.911-36.369 0-61.501 9.557-61.678 9.646l-.973.354-2.743 1.062-2.301-1.77-10.353-8.053-4.956-3.805 4.779-4.07 1.769-1.505c6.637-5.663 10.708-14.866 12.389-19.202l-1.416-2.655a63.9 63.9 0 0 1-7.61-30.175v-73.005c0-39.201 16.636-76.721 45.573-102.826 10.973-9.911 23.627-19.291 37.697-28.051 2.831-8.053 6.99-21.946 6.99-34.6 0-10.707-4.07-18.672-7.433-23.538-.973-1.416-2.566-2.213-4.247-2.213-1.416 0-2.655.531-3.628 1.593l-.089.089-.796.973-2.301 2.92-3.54-1.327-1.239-.531c-20.706-7.876-30.352-22.123-34.422-30.795-15.663-10.707-29.114-24.954-38.759-41.236-1.682-2.744-3.186-5.664-4.69-8.584-6.991-14.07-11.415-29.113-13.008-44.688a104 104 0 0 1-.531-7.433c-.089-2.035-.177-4.159-.177-6.283 0-2.123.088-4.247.177-6.283q.132-3.716.531-7.433c1.593-15.574 6.017-30.617 13.008-44.687a195 195 0 0 1 4.69-8.584c9.734-16.282 23.096-30.529 38.847-41.237 2.124-1.504 4.425-2.92 6.725-4.336a130.3 130.3 0 0 1 24.424-11.326c3.716-1.239 7.521-2.39 11.415-3.363 2.124-.531 4.336-.973 6.637-1.416 2.478-.442 5.044-.885 7.521-1.239a134 134 0 0 1 16.902-1.062c5.664 0 11.327.354 16.902 1.062 2.478.354 5.044.708 7.522 1.151 2.212.442 4.424.885 6.636 1.415 3.805.885 7.699 2.036 11.416 3.363 8.495 2.92 16.636 6.725 24.423 11.327 2.301 1.416 4.602 2.832 6.725 4.336 15.663 10.707 29.114 24.954 38.759 41.236a101 101 0 0 1 4.69 8.584c6.991 14.07 11.415 29.025 13.008 44.688q.399 3.716.531 7.433c.089 2.035.177 4.159.177 6.283 0 2.123-.088 4.247-.177 6.283a98 98 0 0 1-.531 7.344c-1.593 15.575-6.017 30.618-13.008 44.688-1.504 2.92-3.009 5.84-4.69 8.584-9.734 16.282-23.096 30.529-38.847 41.236-.885.62-1.859 1.239-2.92 1.947-5.221 5.663-8.672 12.123-10.265 15.486-1.239 2.566-3.274 4.69-5.841 5.929 2.301 5.309 8.318 12.477 16.637 19.91C-36.812.973-.973-4.867-.531-4.956l2.655-.442 7.344-1.15z" style="fill:#fff;fill-opacity:1;fill-rule:nonzero;stroke:none" transform="translate(676.3 566.989)"/><path d="M0 0c-1.062-7.345-7.433-12.92-14.866-12.92-.531 0-1.062 0-1.505.089C-5.752 1.416-4.602 19.733-4.956 29.467l3.717-1.593C.973 19.114 1.416 9.734 0 0m39.378 10.707c42.918-18.14 79.907-24.158 80.261-24.246l2.655-.443-.531 2.655c-.089.266-6.194 29.379-22.123 67.607-9.291 22.476-20.176 43.714-32.122 63.182-14.955 24.246-31.856 45.75-50.174 63.802-1.504 1.504-3.097 4.159-4.69 7.698-3.185 7.257-4.778 15.044-4.778 23.096v38.759c0 9.646-2.39 19.203-6.991 27.698l-2.566 4.69c1.062 3.097 5.575 15.574 14.335 23.273l1.593 1.416-9.557 8.583-1.062-.354c-.265-.088-29.644-10.176-67.43-10.176-37.608 0-63.27 9.822-63.536 9.911l-.973.354-10.354-8.053 1.77-1.504c8.938-7.699 13.539-20.442 14.601-23.539l-2.566-4.69c-4.602-8.495-6.991-18.052-6.991-27.697v-73.005c0-37.785 16.017-73.889 43.892-99.021 11.149-9.999 24.069-19.556 38.493-28.405 3.009-8.318 7.876-23.804 7.876-37.963 0-12.034-4.513-21.06-8.407-26.458-.973-1.416-2.212-2.478-3.717-3.274-1.416-.797-3.097-1.151-4.778-1.151-2.832 0-5.398 1.151-7.345 3.186-.177.177-.265.265-.265.354l-.885 1.062-1.239-.531c-19.999-7.61-28.671-21.503-32.211-29.467h-.088c-.354-.266-.708-.443-1.062-.708-15.043-10.265-27.963-23.981-37.343-39.644a122 122 0 0 1-4.513-8.23c-6.725-13.45-10.973-27.963-12.477-42.918a98 98 0 0 1-.531-7.079c-.089-1.947-.177-3.982-.177-6.017s.088-4.071.177-6.018c.088-2.389.265-4.778.531-7.079 1.593-14.955 5.752-29.467 12.477-42.918a122 122 0 0 1 4.513-8.229c9.38-15.663 22.211-29.379 37.343-39.644a115 115 0 0 1 6.46-4.159c7.433-4.425 15.309-8.053 23.45-10.884 3.539-1.239 7.256-2.301 10.973-3.186 2.035-.531 4.159-.973 6.371-1.416 2.389-.442 4.867-.885 7.168-1.15a125 125 0 0 1 16.282-1.062c5.398 0 10.884.354 16.194 1.062 2.389.354 4.867.708 7.256 1.15 2.124.443 4.247.885 6.371 1.416 3.717.885 7.345 1.947 10.973 3.186 8.141 2.743 16.017 6.459 23.45 10.884a116 116 0 0 1 6.46 4.159c15.043 10.265 27.963 23.981 37.254 39.644a122 122 0 0 1 4.513 8.229c6.725 13.451 10.973 27.963 12.477 42.918.266 2.301.443 4.69.531 7.079.089 1.947.177 3.983.177 6.018s-.088 4.07-.177 6.017a95 95 0 0 1-.531 7.079c-1.592 14.955-5.752 29.379-12.477 42.918a122 122 0 0 1-4.513 8.23c-9.38 15.663-22.211 29.379-37.343 39.644-.973.707-2.124 1.415-3.362 2.212-5.929 6.283-9.823 13.45-11.593 17.167-.885 1.858-2.477 3.274-4.336 3.894a16 16 0 0 0-2.654 1.15q-.266.132-.266.531C19.026-7.433 33.715 5.84 39.378 10.707" style="fill:#004a97;fill-opacity:1;fill-rule:nonzero;stroke:none" transform="translate(556.572 580.528)"/><path d="M0 0c-1.062-7.345-7.433-12.92-14.866-12.92-.531 0-1.062 0-1.505.089C-5.752 1.416-4.602 19.733-4.956 29.467l3.717-1.593C.973 19.114 1.416 9.734 0 0" style="fill:#fff;fill-opacity:1;fill-rule:nonzero;stroke:none" transform="translate(556.572 580.528)"/><path d="M0 0s-.885-.354-2.478-.973c-.796 6.636-2.743 13.096-4.513 18.14-3.362 9.38-10.884 16.813-20.353 19.999-6.105 2.035-9.822 1.327-9.822 1.327 0-.177-.088-.354-.088-.531-1.505-10.707 6.282-20.441 16.901-21.68 1.947-.265 3.274-.265 3.274-.265 5.398-6.46 6.726-13.628 6.814-19.026-7.079-1.327-16.636-1.681-24.866 2.92-15.309 8.584-10.707 33.184-6.017 40.618 4.336 6.902 2.566 13.008 2.566 13.008S0 36.901 0 0" style="fill:#fff;fill-opacity:1;fill-rule:nonzero;stroke:none" transform="translate(487.461 809.098)"/><path d="M0 0c-8.23-4.602-17.787-4.248-24.866-2.92.089 5.398 1.416 12.565 6.814 19.025 0 0 1.327.089 3.274.266C-4.071 17.61 3.628 27.432 2.124 38.051c0 .177-.089.354-.089.531 0 0-3.716.708-9.822-1.327-9.469-3.186-16.99-10.619-20.353-19.999-1.77-5.044-3.717-11.504-4.513-18.141-1.593.531-2.478.974-2.478.974 0 36.9 38.671 53.536 38.671 53.536s-1.77-6.017 2.566-13.008C10.707 33.272 15.309 8.672 0 0" style="fill:#fff;fill-opacity:1;fill-rule:nonzero;stroke:none" transform="translate(537.458 809.098)"/><path d="M0 0c8.053-7.256 17.256-14.335 27.255-21.061-1.504 1.505-3.097 3.009-4.601 4.602C9.822-3.097-1.239 12.212-9.468 29.733-20.264 52.74-23.627 78.668-6.814 97.694c-8.937 2.654-22.388 8.583-32.387 22.211V88.756C-39.29 54.864-24.954 22.477 0 0" style="fill:#fff;fill-opacity:1;fill-rule:nonzero;stroke:none" transform="translate(477.993 671.761)"/><path d="M0 0c17.698-18.495 50.794-44.865 107.427-65.394 10.796-3.894 20.884-7.08 29.645-9.469C101.233-59.82 22.477-20.618-11.681 44.068c32.299-42.829 85.925-68.403 127.25-82.561l.177.354C81.057-18.495 42.918 10.176 20.884 48.847c21.503-18.76 48.05-31.591 74.597-40.175 0 0-86.278 71.943-48.935 70.35 8.849-.354 24.423-11.504 38.228-22.919-9.557 12.831-20.264 25.485-32.299 37.254-15.132 14.867-30.352 22.388-45.042 22.388-16.724 0-29.025-9.999-34.777-15.928-.442-.442-.884-.973-1.327-1.416-6.106-6.725-9.114-14.689-9.114-24.511 0-9.203 2.743-19.822 7.875-30.795C-22.742 27.609-12.743 13.185 0 0" style="fill:#fff;fill-opacity:1;fill-rule:nonzero;stroke:none" transform="translate(509.407 663.709)"/><path d="M0 0c0 6.283 5.752 13.451 5.752 13.451L0 20.087l-5.752-6.636S0 6.283 0 0" style="fill:#fff;fill-opacity:1;fill-rule:nonzero;stroke:none" transform="translate(494.806 789.454)"/><path d="M0 0c-.177 2.212-.354 4.425-.708 6.637-1.858 14.601-6.637 28.317-13.627 40.528a113 113 0 0 1-4.779 7.699c-7.079 10.442-15.928 19.645-26.105 27.078V59.377c1.151-1.681 2.39-3.451 3.452-5.221 7.521-12.035 12.831-25.574 15.574-39.998a85 85 0 0 0 1.062-6.548c.708-5.044.973-10.265.973-15.486s-.354-10.442-.973-15.486a78 78 0 0 0-1.062-6.548c-2.743-14.424-8.141-27.963-15.574-39.998a67 67 0 0 0-3.452-5.22v-22.654c10.177 7.522 19.026 16.636 26.105 27.078a113 113 0 0 1 4.779 7.699c6.99 12.3 11.68 25.927 13.627 40.528.266 2.213.531 4.425.708 6.637.177 2.566.266 5.221.266 7.876Q.266-3.849 0 0m-111.498-40.44c-26.813 0-53.094 3.009-78.756 8.937 2.477-11.503 6.725-22.388 12.565-32.299 1.505-2.654 3.186-5.221 4.867-7.698.443-.089.797-.177 1.239-.177 13.185-2.39 26.547-3.894 40.086-4.69 2.035-.089 4.071-.266 6.106-.266a368 368 0 0 1 27.963 0l6.106.266c13.539.796 26.901 2.3 40.086 4.69.354.088.796.177 1.15.177 1.77 2.477 3.363 5.044 4.867 7.698 5.752 9.911 10 20.796 12.477 32.299-25.573-5.929-51.943-8.937-78.756-8.937m56.014-38.14c-11.503-1.858-23.184-3.185-34.865-3.805l3.805-22.476 1.062-6.372.885-5.044c11.946 3.009 23.185 7.876 33.273 14.336v24.069c-1.328-.265-2.744-.531-4.16-.708m-35.573-35.573-1.062 6.283-4.336 25.131c-4.955-.177-9.999-.354-14.954-.354-5.044 0-10 .089-14.955.354l-4.336-25.131-1.062-6.283-.62-3.451c1.859-.354 3.805-.708 5.752-.885a106 106 0 0 1 7.433-.796c2.567-.177 5.133-.266 7.787-.266s5.221.089 7.788.266c2.477.177 5.044.442 7.433.796 1.947.266 3.805.531 5.752.974zm-76.367 35.573c-1.416.266-2.743.443-4.159.708v-24.069c10.088-6.46 21.326-11.327 33.272-14.336l.885 5.044 1.062 6.372 3.805 22.476c-11.769.62-23.361 1.947-34.865 3.805m-13.716 8.673c-7.522 12.034-12.831 25.573-15.574 39.997a84 84 0 0 0-1.062 6.549c-.708 5.044-.974 10.264-.974 15.485s.354 10.442.974 15.486a77 77 0 0 0 1.062 6.549c2.743 14.423 8.141 27.963 15.574 39.997a66 66 0 0 0 3.451 5.221v22.654c-10.176-7.522-19.025-16.636-26.105-27.078a112 112 0 0 1-4.778-7.699c-6.991-12.3-11.681-26.016-13.628-40.529-.265-2.212-.531-4.424-.708-6.636a115 115 0 0 1-.265-7.876c0-2.655.089-5.31.265-7.876.178-2.212.354-4.424.708-6.637 1.859-14.601 6.637-28.317 13.628-40.528a112 112 0 0 1 4.778-7.699c7.168-10.442 15.929-19.645 26.105-27.078v22.477a66 66 0 0 0-3.451 5.221M-45.219 48.05c-1.504 2.655-3.185 5.221-4.867 7.699-.442.088-.796.177-1.239.177-13.185 2.389-26.547 3.894-40.086 4.69-2.035.088-4.07.265-6.106.265a368 368 0 0 1-27.962 0l-6.106-.265c-13.539-.796-26.901-2.301-40.086-4.69-.354-.089-.797-.177-1.151-.177-1.77-2.478-3.362-5.044-4.867-7.699a110.8 110.8 0 0 1-12.477-32.299c25.662 5.929 51.944 8.938 78.757 8.938 26.812 0 53.094-3.009 78.756-8.938-2.566 11.504-6.814 22.388-12.566 32.299m-91.233 41.06-1.062 6.371-.885 5.044c-11.946-3.008-23.185-7.875-33.273-14.335V62.12c1.416.266 2.832.443 4.16.708 11.503 1.859 23.184 3.186 34.865 3.805zm40.174 13.716q-3.716.53-7.433.796a113 113 0 0 1-7.787.266c-2.655 0-5.221-.089-7.787-.266a106 106 0 0 1-7.433-.796c-1.947-.266-3.805-.531-5.752-.973l.619-3.452 1.062-6.282 4.336-25.132c4.956.177 10 .354 14.955.354 5.044 0 9.999-.088 14.955-.354l4.336 25.132 1.062 6.282.619 3.452c-1.858.353-3.805.707-5.752.973m11.681-2.212-.885-5.044-1.062-6.372-3.805-22.476c11.769-.708 23.362-1.947 34.865-3.805 1.416-.266 2.744-.443 4.16-.708v24.069c-10.088 6.46-21.327 11.327-33.273 14.336" style="fill:#fff;fill-opacity:1;fill-rule:nonzero;stroke:none" transform="translate(637.187 441.863)"/><path d="M0 0a2.76 2.76 0 0 1-.796.973c-.354.266-.708.443-1.151.62-.442.177-.885.177-1.416.177s-.973-.089-1.416-.177c-.442-.089-.796-.354-1.15-.62C-6.283.708-6.548.442-6.725 0q-.266-.53-.266-1.327c0-.531.089-.974.354-1.328.177-.354.443-.708.797-.973.354-.266.708-.443 1.061-.62.355-.177.797-.265 1.151-.354l.796-.265c.354.088.797.265 1.151.442s.708.443.973.708c.266.266.531.62.708.974q.265.53.265 1.327C.265-.885.177-.443 0 0m.442-10.707c-.265.442-.619.796-.973 1.15a5.3 5.3 0 0 1-1.327.796c-.443.177-.974.354-1.328.443l-.796.177c-.354-.177-.797-.354-1.15-.531-.443-.177-.797-.531-1.151-.796-.354-.354-.619-.708-.796-1.151-.177-.442-.354-.973-.354-1.593 0-.619.088-1.15.354-1.592.177-.443.531-.885.885-1.151.354-.354.796-.531 1.327-.708a5 5 0 0 1 1.593-.265c.619 0 1.15.088 1.681.265s.974.443 1.327.708c.355.354.708.708.885 1.151.177.442.354.973.354 1.592a4.3 4.3 0 0 1-.531 1.505m0 0c-.265.442-.619.796-.973 1.15a5.3 5.3 0 0 1-1.327.796c-.443.177-.974.354-1.328.443l-.796.177c-.354-.177-.797-.354-1.15-.531-.443-.177-.797-.531-1.151-.796-.354-.354-.619-.708-.796-1.151-.177-.442-.354-.973-.354-1.593 0-.619.088-1.15.354-1.592.177-.443.531-.885.885-1.151.354-.354.796-.531 1.327-.708a5 5 0 0 1 1.593-.265c.619 0 1.15.088 1.681.265s.974.443 1.327.708c.355.354.708.708.885 1.151.177.442.354.973.354 1.592a4.3 4.3 0 0 1-.531 1.505M0 0a2.76 2.76 0 0 1-.796.973c-.354.266-.708.443-1.151.62-.442.177-.885.177-1.416.177s-.973-.089-1.416-.177c-.442-.089-.796-.354-1.15-.62C-6.283.708-6.548.442-6.725 0q-.266-.53-.266-1.327c0-.531.089-.974.354-1.328.177-.354.443-.708.797-.973.354-.266.708-.443 1.061-.62.355-.177.797-.265 1.151-.354l.796-.265c.354.088.797.265 1.151.442s.708.443.973.708c.266.266.531.62.708.974q.265.53.265 1.327C.265-.885.177-.443 0 0m-5.752-3.628c.354-.266.708-.443 1.062-.62s.796-.265 1.15-.354l.797-.265c.354.088.796.265 1.15.442s.708.443.974.708c.265.266.53.62.707.974q.266.53.266 1.327T.088-.089a2.8 2.8 0 0 1-.796.974c-.354.265-.708.442-1.15.619-.443.177-.885.177-1.416.177s-.974-.088-1.416-.177c-.443-.088-.796-.354-1.15-.619-.354-.266-.62-.531-.797-.974q-.265-.53-.265-1.327c0-.531.088-.973.354-1.327.177-.266.442-.62.796-.885m5.221-6.017a5.3 5.3 0 0 1-1.327.796c-.443.177-.974.354-1.328.442l-.796.177c-.354-.177-.797-.354-1.15-.53-.443-.177-.797-.531-1.151-.797-.354-.354-.619-.708-.796-1.15-.177-.443-.354-.974-.354-1.593 0-.62.088-1.15.354-1.593.177-.442.531-.885.885-1.15.354-.354.796-.531 1.327-.708a5 5 0 0 1 1.593-.266c.619 0 1.15.089 1.681.266s.974.442 1.327.708c.355.354.708.708.885 1.15.177.443.354.973.354 1.593 0 .531-.177 1.062-.442 1.504-.354.531-.62.885-1.062 1.151M19.114-.177c-.354.531-.796.973-1.327 1.239a4.1 4.1 0 0 1-1.859.442c-.708 0-1.239-.088-1.77-.354A4.5 4.5 0 0 1 12.92.266a2.8 2.8 0 0 1-.708-1.328 5.2 5.2 0 0 1-.266-1.681c0-.62.089-1.151.266-1.682s.442-.973.708-1.327c.354-.354.708-.708 1.238-.885.531-.177 1.062-.354 1.77-.354a4.1 4.1 0 0 1 1.859.443c.531.265.973.531 1.327.885.442.354.796.796 1.15 1.327 0 .885-.088 1.593-.265 2.389-.266.62-.531 1.239-.885 1.77m24.069-14.601c-.531-.973-1.15-1.858-2.035-2.566a9.4 9.4 0 0 0-2.92-1.593q-1.593-.531-3.451-.531c-1.151 0-2.212.177-3.186.443-.885.265-1.77.619-2.389.973-.708.354-1.239.708-1.681 1.15-.443.354-.797.708-.974.885l2.301 3.009c.265-.177.531-.443.885-.797.354-.265.796-.619 1.327-.884.531-.266 1.062-.531 1.593-.708a6.7 6.7 0 0 1 1.858-.266q.93 0 1.859.266c.619.177 1.062.442 1.504.796q.663.531 1.062 1.327c.265.531.354 1.151.354 1.947 0 .708-.089 1.328-.354 1.859q-.399.796-1.062 1.327a4.9 4.9 0 0 1-1.504.796 6.7 6.7 0 0 1-1.859.266 9 9 0 0 1-1.681-.177c-.442-.177-.885-.266-1.15-.443-.354-.177-.708-.354-.885-.619l-2.743 1.062 2.123 11.858h13.274V.973h-9.823l-.973-5.397c.265.088.531.265.796.354q.399.132 1.062.265c.443.088.885.088 1.505.088.973 0 2.035-.176 2.92-.442.973-.265 1.858-.708 2.566-1.327q1.194-.93 1.858-2.39c.443-.973.708-2.123.708-3.451-.177-1.239-.442-2.389-.885-3.451m-18.494 4.69c-.177-.973-.443-1.858-.708-2.743-.266-.797-.619-1.504-.973-2.212-.354-.62-.797-1.151-1.151-1.593-.442-.443-.885-.797-1.327-1.151-.443-.353-.974-.707-1.593-.884-.619-.266-1.239-.443-1.858-.62-.708-.177-1.416-.177-2.213-.177-.796 0-1.504.089-2.212.177q-1.062.133-1.858.531c-.531.266-1.062.442-1.504.708-.443.265-.885.531-1.239.885l1.858 3.185 1.062-.796a3.1 3.1 0 0 1 1.239-.531c.442-.088.885-.265 1.327-.354.443-.088.885-.088 1.239-.088.796 0 1.504.088 2.124.354.619.265 1.15.619 1.681 1.15.265.265.531.531.708.885.265.354.442.796.619 1.239a7.7 7.7 0 0 1 .443 1.681c.088.62.177 1.328.177 2.212a6.8 6.8 0 0 0-1.505-1.15q-.796-.398-1.858-.796c-.708-.266-1.593-.354-2.566-.354s-1.947.177-2.743.531a7.7 7.7 0 0 0-2.301 1.415 6.9 6.9 0 0 0-1.504 2.301c-.354.885-.531 1.947-.531 3.097q0 1.727.531 3.186c.354.973.885 1.858 1.681 2.566a8.2 8.2 0 0 0 2.655 1.77c1.062.442 2.3.619 3.628.619.973 0 1.858-.088 2.566-.354.796-.265 1.416-.53 1.947-.884s1.062-.708 1.416-1.151c.354-.442.708-.796.973-1.15.266-.354.531-.708.708-1.239a6.7 6.7 0 0 0 .708-1.77q.265-1.062.531-2.389c.088-.885.177-1.947.177-3.097-.177-.885-.266-1.947-.354-3.009M4.867-15.397c-.443-.885-.973-1.593-1.77-2.213-.796-.619-1.681-1.061-2.743-1.415s-2.301-.531-3.628-.531c-1.328 0-2.566.177-3.628.531s-2.036.796-2.743 1.415c-.797.62-1.328 1.328-1.77 2.213-.443.885-.62 1.769-.62 2.831q0 1.062.266 1.859c.177.531.442 1.062.708 1.415.265.443.619.797.973 1.062.354.266.708.531 1.062.708s.619.354.885.443c.265.088.442.177.619.265-.088 0-.265.089-.442.177-.266.089-.443.266-.797.354-.265.177-.531.354-.884.708-.266.266-.531.62-.797.973-.265.354-.442.885-.619 1.328a5.7 5.7 0 0 0-.266 1.77c0 .973.177 1.858.62 2.654a5.95 5.95 0 0 0 1.681 1.947A7.7 7.7 0 0 0-6.46 4.336c.974.266 2.035.443 3.186.443s2.212-.177 3.185-.443a7.7 7.7 0 0 0 2.567-1.239c.708-.531 1.327-1.239 1.681-1.947.443-.796.62-1.681.62-2.654 0-.531-.089-.974-.177-1.416a3 3 0 0 0-.443-1.062 3.2 3.2 0 0 0-.619-.885l-.708-.708c-.531-.442-1.239-.796-1.947-1.062.177-.088.442-.177.796-.354s.62-.354.974-.531a4.2 4.2 0 0 0 1.062-.796c.354-.354.619-.708.973-1.151.265-.442.531-.973.708-1.504q.265-.796.265-1.858c-.177-.708-.354-1.681-.796-2.566m-19.822-3.54h-11.504v3.363h3.451V-.619c-.177-.177-.442-.354-.707-.531-.354-.177-.708-.354-1.062-.443-.354-.177-.708-.265-1.151-.354-.442-.088-.708-.177-.973-.177l-.973 3.274c.53.089 1.15.266 1.769.531q.93.399 1.593.797c.177.088.443.265.708.442.266.177.442.354.708.62.265.177.442.442.619.619s.266.443.354.62h3.805v-20.353h3.452v-3.363zM86.986 9.468c-26.016 6.283-52.74 9.38-79.995 9.38a344.6 344.6 0 0 1-79.996-9.38A108.5 108.5 0 0 1-74.332-7.61c0-5.841.442-11.504 1.327-17.079 26.017-6.283 52.741-9.38 79.996-9.38a344.6 344.6 0 0 1 79.995 9.38A108.5 108.5 0 0 1 88.314-7.61c0 5.84-.443 11.504-1.328 17.078M-5.752-3.628c.354-.266.708-.443 1.062-.62s.796-.265 1.15-.354l.797-.265c.354.088.796.265 1.15.442s.708.443.974.708c.265.266.531.62.708.974q.264.53.265 1.327 0 .796-.265 1.327a2.8 2.8 0 0 1-.797.974c-.354.265-.708.442-1.15.619-.443.177-.885.177-1.416.177s-.973-.088-1.416-.177c-.442-.088-.796-.354-1.15-.619-.354-.266-.62-.531-.797-.974q-.265-.53-.265-1.327c0-.531.088-.973.354-1.327.177-.266.442-.62.796-.885m6.195-7.079c-.266.442-.62.796-.974 1.15a5.3 5.3 0 0 1-1.327.796c-.443.177-.974.354-1.328.443l-.796.177c-.354-.177-.796-.354-1.15-.531-.443-.177-.797-.531-1.151-.796-.354-.354-.619-.708-.796-1.151-.177-.442-.354-.973-.354-1.593 0-.619.088-1.15.354-1.592.177-.443.531-.885.885-1.151.354-.354.796-.531 1.327-.708a5 5 0 0 1 1.593-.265c.619 0 1.15.088 1.681.265s.974.443 1.328.708c.354.354.708.708.885 1.151.176.442.353.973.353 1.592a4.4 4.4 0 0 1-.53 1.505M19.91-2.035c-.177.708-.442 1.327-.884 1.858-.354.531-.797.973-1.328 1.239a4.1 4.1 0 0 1-1.858.442c-.708 0-1.239-.088-1.77-.354a4.4 4.4 0 0 1-1.239-.885 2.8 2.8 0 0 1-.708-1.327 5.2 5.2 0 0 1-.265-1.681c0-.62.088-1.151.265-1.682a4.7 4.7 0 0 1 .708-1.327c.354-.354.708-.708 1.239-.885s1.062-.354 1.77-.354 1.327.177 1.858.443c.531.265.974.531 1.328.885.442.353.796.796 1.15 1.327a9.7 9.7 0 0 1-.266 2.301m0 0c-.177.708-.442 1.327-.884 1.858-.354.531-.797.973-1.328 1.239a4.1 4.1 0 0 1-1.858.442c-.708 0-1.239-.088-1.77-.354a4.4 4.4 0 0 1-1.239-.885 2.8 2.8 0 0 1-.708-1.327 5.2 5.2 0 0 1-.265-1.681c0-.62.088-1.151.265-1.682a4.7 4.7 0 0 1 .708-1.327c.354-.354.708-.708 1.239-.885s1.062-.354 1.77-.354 1.327.177 1.858.443c.531.265.974.531 1.328.885.442.353.796.796 1.15 1.327a9.7 9.7 0 0 1-.266 2.301M.443-10.707c-.266.442-.62.796-.974 1.15a5.3 5.3 0 0 1-1.327.796c-.443.177-.974.354-1.328.443l-.796.177c-.354-.177-.796-.354-1.15-.531-.443-.177-.797-.531-1.151-.796-.354-.354-.619-.708-.796-1.151-.177-.442-.354-.973-.354-1.593 0-.619.088-1.15.354-1.592.177-.443.531-.885.885-1.151.354-.354.796-.531 1.327-.708a5 5 0 0 1 1.593-.265c.619 0 1.15.088 1.681.265s.974.443 1.328.708c.354.354.708.708.885 1.151.176.442.353.973.353 1.592a4.4 4.4 0 0 1-.53 1.505M0 0a2.76 2.76 0 0 1-.796.973c-.354.266-.708.443-1.151.62-.442.177-.885.177-1.416.177s-.973-.089-1.415-.177c-.443-.089-.797-.354-1.151-.62C-6.283.708-6.548.442-6.725 0q-.266-.53-.266-1.327c0-.531.089-.974.354-1.328.177-.354.443-.708.797-.973.354-.266.708-.443 1.062-.62s.796-.265 1.15-.354l.796-.265c.354.088.797.265 1.151.442s.708.443.973.708c.266.266.531.62.708.974q.266.53.266 1.327C.266-.885.177-.443 0 0" style="fill:#fff;fill-opacity:1;fill-rule:nonzero;stroke:none" transform="translate(518.698 441.598)"/><path d="M0 0c2.124 0 3.982.531 5.663 1.504 1.682 1.062 3.009 2.39 4.159 4.159 1.151 1.682 1.947 3.717 2.567 5.929.619 2.213.885 4.602.885 6.991a18.6 18.6 0 0 1-.531 4.513c-.354 1.416-.885 2.655-1.682 3.717s-1.769 1.858-3.008 2.477c-1.239.62-2.655.885-4.425.885-2.035 0-3.893-.442-5.486-1.416-1.593-.973-3.009-2.212-4.159-3.893-1.151-1.593-2.036-3.54-2.655-5.752a26.5 26.5 0 0 1-.973-7.168c0-1.858.177-3.628.619-5.044.442-1.504.973-2.743 1.77-3.805.796-1.062 1.77-1.858 3.008-2.389C-3.009.266-1.593 0 0 0m-.708-6.902c-2.832 0-5.398.442-7.61 1.239-2.212.796-4.071 2.035-5.575 3.628q-2.257 2.389-3.451 5.84c-.797 2.301-1.239 4.956-1.239 7.876 0 2.212.177 4.336.619 6.46.443 2.123 1.062 4.07 1.947 6.017.885 1.858 1.947 3.628 3.186 5.221 1.327 1.593 2.743 2.92 4.513 4.07 1.681 1.151 3.628 2.036 5.752 2.655 2.124.62 4.424.973 6.991.973 2.92 0 5.486-.442 7.698-1.238 2.213-.797 4.071-2.036 5.575-3.628s2.655-3.54 3.363-5.752c.796-2.301 1.15-4.779 1.15-7.611 0-2.035-.177-4.07-.619-6.105-.354-2.036-.974-3.982-1.77-5.929-.797-1.859-1.77-3.628-3.097-5.31-1.239-1.681-2.743-3.097-4.425-4.336s-3.628-2.212-5.752-2.92c-2.123-.796-4.601-1.15-7.256-1.15" style="fill:#004a97;fill-opacity:1;fill-rule:nonzero;stroke:none" transform="translate(410.563 242.405)"/><path d="m0 0 .708 6.106h5.221l3.982 30.175H4.602l.707 6.106H24.6l-.708-6.106h-5.486L14.424 6.106H26.37l1.239 9.114h6.637L32.211 0Z" style="fill:#004a97;fill-opacity:1;fill-rule:nonzero;stroke:none" transform="translate(433.305 236.3)"/><path d="M0 0q1.99 0 3.717.265c1.062.177 2.123.443 3.008.797s1.77.796 2.478 1.327a14.6 14.6 0 0 1 2.124 1.947 12.4 12.4 0 0 1 1.858 2.743 22 22 0 0 1 1.327 3.363 26.4 26.4 0 0 1 .797 3.805q.265 1.991.265 3.982c0 1.947-.265 3.628-.708 5.132-.442 1.505-1.062 2.744-1.858 3.629-.885 1.061-1.947 1.858-3.186 2.3-1.238.531-2.831.708-4.778.708H-.089L-3.982-.177H0Zm-18.495-6.106L-17.698 0h5.221l3.893 30.175h-5.309l.708 6.106H6.017c6.106 0 10.619-1.504 13.628-4.424 1.416-1.416 2.566-3.098 3.451-5.31.885-2.124 1.327-4.867 1.327-8.052 0-2.036-.177-3.894-.531-5.752a30 30 0 0 0-1.504-5.221q-.929-2.523-2.389-4.513c-.974-1.416-2.035-2.655-3.274-3.717q-3.451-3.053-7.699-4.247c-2.832-.797-5.929-1.239-9.38-1.239h-18.141z" style="fill:#004a97;fill-opacity:1;fill-rule:nonzero;stroke:none" transform="translate(488.346 242.405)"/><path d="m0 0 .796 6.106h4.956l1.681 12.831H-9.645l-1.682-12.831h4.956L-7.079 0h-18.672l.708 6.106h5.31l3.893 30.175h-5.309l.708 6.106h18.848l-.796-6.106h-4.956l-1.504-11.15H8.23l1.504 11.15H4.69l.708 6.106h18.671l-.708-6.106h-5.22L14.158 6.106h5.31L18.672 0Z" style="fill:#004a97;fill-opacity:1;fill-rule:nonzero;stroke:none" transform="translate(539.228 236.3)"/><path d="m0 0-6.991-16.017h10zm0-35.131.708 6.106h4.601L3.805-21.68H-9.292l-3.274-7.345h4.602l-.797-6.106h-15.751l.708 6.195h3.628L-6.283 1.15h-4.955l.708 6.195H6.46l7.61-36.281h3.805l-.708-6.195z" style="fill:#004a97;fill-opacity:1;fill-rule:nonzero;stroke:none" transform="translate(585.774 271.43)"/><path d="m0 0 .708 6.106h4.424l2.655 28.759L-6.548 0h-8.318l-5.31 34.865-4.867-28.759h4.602L-21.149 0h-16.548l.708 6.106h4.778l5.398 30.175h-4.778l.708 6.106h17.078l4.779-31.326L3.982 42.387h17.521l-.796-6.194h-4.69L13.45 6.106h5.044L17.786 0Z" style="fill:#004a97;fill-opacity:1;fill-rule:nonzero;stroke:none" transform="translate(643.647 236.3)"/><path d="m0 0-6.991-16.017h10zm0-35.131.708 6.106h4.601L3.805-21.68H-9.292l-3.274-7.345h4.602l-.797-6.106h-15.751l.708 6.195h3.628L-6.283 1.15h-4.955l.708 6.195H6.46l7.61-36.281h3.805l-.708-6.195z" style="fill:#004a97;fill-opacity:1;fill-rule:nonzero;stroke:none" transform="translate(396.14 221.256)"/><path d="m0 0 .708 6.106h5.309L9.911 36.37H2.389l-.885-7.08h-6.548l1.681 13.185h36.458L31.503 29.29h-6.46l.885 7.08h-7.522L14.424 6.106h5.398L19.114 0Z" style="fill:#004a97;fill-opacity:1;fill-rule:nonzero;stroke:none" transform="translate(420.474 186.126)"/><path d="m0 0 .796 6.106h4.956l1.681 12.831H-9.645l-1.682-12.831h4.956L-7.079 0h-18.672l.708 6.106h5.31l3.893 30.175h-5.309l.708 6.106h18.848l-.796-6.106h-4.956l-1.504-11.15H8.23l1.504 11.15H4.69l.708 6.106h18.76l-.708-6.106h-5.221L14.247 6.106h5.309L18.76 0Z" style="fill:#004a97;fill-opacity:1;fill-rule:nonzero;stroke:none" transform="translate(477.993 186.126)"/><path d="m0 0 .708 6.106h5.221l3.982 30.175H4.602l.707 6.106H24.6l-.708-6.106h-5.486L14.424 6.106H26.37l1.239 9.114h6.637L32.211 0Z" style="fill:#004a97;fill-opacity:1;fill-rule:nonzero;stroke:none" transform="translate(500.823 186.126)"/><path d="m0 0 .796 6.106h5.31l3.805 30.175H4.602l.796 6.106h32.918l-1.504-11.769h-6.46l.708 5.575H18.318l-1.505-11.239h5.929l.531 3.628h5.752l-1.77-13.804h-5.84l.619 4.07h-5.84L14.601 6.017h13.893l.973 7.611h6.549L34.246-.177H0Z" style="fill:#004a97;fill-opacity:1;fill-rule:nonzero;stroke:none" transform="translate(537.37 186.126)"/><path d="m0 0 .708 6.106h5.309L9.911 36.37H2.389l-.885-7.08h-6.459l1.681 13.185h36.458L31.591 29.29h-6.46l.885 7.08h-7.521L14.513 6.106h5.397L19.203 0Z" style="fill:#004a97;fill-opacity:1;fill-rule:nonzero;stroke:none" transform="translate(584.005 186.126)"/><path d="m0 0 .708 6.106h5.221l3.982 30.175H4.69l.708 6.106h19.025l-.708-6.106h-5.309L14.424 6.106h5.309L19.025 0Z" style="fill:#004a97;fill-opacity:1;fill-rule:nonzero;stroke:none" transform="translate(615.773 186.126)"/><path d="M0 0a29.5 29.5 0 0 0-2.832-3.009A15.8 15.8 0 0 0-6.637-5.84c-1.416-.885-3.097-1.505-4.955-2.124-1.859-.531-3.894-.797-6.195-.797-3.097 0-5.751.531-7.964 1.505s-4.07 2.3-5.575 4.07A17.2 17.2 0 0 0-34.6 2.832c-.708 2.3-1.062 4.778-1.062 7.344 0 3.628.531 6.991 1.593 10 1.062 3.097 2.566 5.663 4.425 7.964a20.3 20.3 0 0 0 6.725 5.221q3.85 1.858 8.495 1.858c1.504 0 2.832-.177 4.071-.442 1.15-.354 2.212-.708 3.097-1.239s1.593-1.151 2.212-1.77c.619-.708 1.062-1.327 1.416-2.035l.619 4.867h6.725L1.681 18.583h-6.637c0 1.15-.177 2.389-.442 3.54-.265 1.238-.708 2.3-1.416 3.274-.708.973-1.593 1.769-2.655 2.3-1.15.62-2.477.885-4.159.885-1.858 0-3.628-.442-5.221-1.416-1.592-.884-2.92-2.123-4.07-3.716s-2.035-3.363-2.655-5.487a23.8 23.8 0 0 1-.973-6.725c0-2.212.265-4.07.796-5.663s1.239-2.92 2.212-3.982 2.036-1.859 3.275-2.301c1.239-.531 2.654-.708 4.159-.708 1.416 0 2.654.177 3.893.62 1.239.442 2.301.884 3.363 1.592.973.62 1.947 1.328 2.743 2.124.796.797 1.504 1.593 2.035 2.301z" style="fill:#004a97;fill-opacity:1;fill-rule:nonzero;stroke:none" transform="translate(676.123 194.178)"/><path d="m0 0-4.69-10.265h6.725zm.531-18.937.265 1.858h2.655l-1.062 5.044h-7.875l-2.301-5.044h2.655l-.266-1.858H-12.3l.265 1.858h1.947L-1.858.442h-2.744l.266 1.859H1.77l4.247-19.38h2.124l-.265-1.858z" style="fill:#004a97;fill-opacity:1;fill-rule:nonzero;stroke:none" transform="translate(508.434 171.613)"/><path d="m0 0 .265 1.858h2.832l2.301 17.61H2.566l.266 1.77h15.309l-.797-5.752h-2.035l.531 3.982H7.876l-1.062-7.876h4.513l.442 2.832h1.947l-.973-7.61h-1.947l.354 3.008H6.637l-.974-7.875h3.009L8.407.089H0Z" style="fill:#004a97;fill-opacity:1;fill-rule:nonzero;stroke:none" transform="translate(518.345 152.676)"/><path d="M0 0c-.354-.442-.708-.973-1.239-1.504-.442-.531-1.062-1.062-1.681-1.505a12 12 0 0 0-2.389-1.15 10.9 10.9 0 0 0-3.098-.443c-1.238 0-2.389.177-3.362.62a8.8 8.8 0 0 0-2.566 1.77c-.708.796-1.239 1.77-1.593 2.831q-.531 1.727-.531 3.717c0 1.15.088 2.301.354 3.363.265 1.062.531 2.123.973 3.097q.665 1.46 1.593 2.655c.619.796 1.327 1.415 2.124 2.035.796.531 1.593.973 2.566 1.327.885.354 1.947.443 2.92.443q1.195 0 2.124-.266c.619-.177 1.15-.442 1.681-.708.443-.265.885-.619 1.151-1.062.354-.354.531-.796.707-1.239l.354 2.921h2.036L1.15 9.468H-.885c0 .531-.088 1.151-.177 1.859a5.9 5.9 0 0 1-.796 1.858c-.354.619-.885 1.062-1.593 1.504a5.8 5.8 0 0 1-2.566.62c-.797 0-1.505-.177-2.213-.443-.708-.265-1.327-.619-1.858-1.15-.619-.442-1.062-1.062-1.504-1.681a17 17 0 0 1-1.151-2.213c-.354-.796-.531-1.592-.708-2.477a13.5 13.5 0 0 1-.265-2.655c0-1.239.177-2.301.442-3.274.354-.885.708-1.682 1.239-2.301q.797-.929 1.859-1.327c.707-.266 1.504-.443 2.3-.443.797 0 1.505.089 2.213.354.707.266 1.238.531 1.769.974.531.354.974.796 1.416 1.238.354.443.708.885.974 1.328z" style="fill:#004a97;fill-opacity:1;fill-rule:nonzero;stroke:none" transform="translate(554.183 156.924)"/></g></svg>