<svg xmlns="http://www.w3.org/2000/svg" width="805.213" height="933.333"><defs><clipPath id="a" clipPathUnits="userSpaceOnUse"><path d="M0 1080h1080V0H0Z"/></clipPath></defs><g clip-path="url(#a)" transform="matrix(1.33333 0 0 -1.33333 -317.393 1186.667)"><path d="M0 0h581.604c8.739 0 11.543-4.522 11.543-10.572v-231.393c0-80.363-14.315-161.112-54.162-231.755-52.514-93.098-143.784-172.178-237.524-222.582-9.019-4.755-9.322-4.952-18.36-.43-88.737 42.484-190.163 135.13-238.536 221.395-39.763 70.912-55.328 148.151-55.328 229.07V-10.28C-10.763-2.313-6.723 0 0 0" style="fill:#343974;fill-opacity:1;fill-rule:evenodd;stroke:none" transform="translate(248.808 890)"/><path d="M0 0h24.245v-221.687c0-56.907-7.385-111.025-24.245-160.488Zm-34.289-120.495a38 38 0 0 0-1.107-.609v-30.247l1.107.364zm-34.658-6.131h-1.106v-91.88q.569 1.08 1.106 2.166zm-34.289 0h-1.106v-132.767q.555.486 1.106.973zm0 49.489c-.291-.4-.68-.894-1.106-1.407v-8.246c.429-.955.807-1.865 1.106-2.577zm-34.289-123.562a39 39 0 0 0-1.106-.398v-82.689q.551.298 1.106.602zm0 99.012c-.34.75-.698 1.403-1.106 1.874v-38.591q.558-.193 1.106-.401zm-34.289-101.651q-.564.011-1.106.076v-87.111l1.106-.207zm0 78.574a9 9 0 0 0-1.106.9v-12.318q.538.057 1.096.057h.01zm-34.658 40.943c.58 1.728.886 3.627.886 5.642 0 2.09-.303 4.037-.886 5.795zm1.106-119.502h-1.106v-80.929l1.106-.185zm0 77.056a51 51 0 0 0-1.106-.296v-9.548h1.106zm-35.027-77.056h-1.105v-76.543l1.105-.081zm0 79.051q-.555.226-1.105.464v-12.303h1.105zm-33.919-79.051h-1.106v-76.644l1.106.083zm0 108.944h-1.106v-41.731h1.106zm-34.29-101.925-1.106 1.325v-89.438l1.106.186zm0 69.678h-1.106v-16.275a9.3 9.3 0 0 0 1.106 2.538zm-34.657-72.439a9 9 0 0 0-1.106 2.576v-94.201l1.106.198zm0 72.439h-1.106v-9.489q.564-.014 1.106-.074zm0 59.791-1.106-1.386v-16.633l1.106-1.371zM-377.18-202.71q-.555.134-1.106.284v-81.032q.554-.303 1.106-.598zm0 92.818-1.106-1.496v-24.746q.568-.035 1.106-.119zm-34.657-16.734h-1.106v-131.912q.55-.485 1.106-.97zm-34.289-.815a59 59 0 0 0-1.106-.184v-88.98q.536-1.08 1.106-2.154zm0 61.649q-.528.481-1.106.904v-26.721q.577.45 1.106.961zm-33.921-56.633q-.557.282-1.106.577v-29.425l1.106-.363zM-514.705 0h33.552v-34.458q.55.294 1.106.576V0h32.815v-28.683a59 59 0 0 0 1.106-.182V0h33.183v-29.269h1.106V0h33.551v-41.84l1.106-1.461V0h32.815v-29.269h1.106V0h33.551v-29.269h1.106V0h33.184v-29.269h1.106V0h32.814v-32.497q.55.238 1.105.464V0h33.921v-29.744q.555-.142 1.106-.296V0h32.446v-32.2q.516.52 1.106.957V0h33.183v-29.269h1.106V0h33.183v-42.39q.582-.772 1.106-1.586V0h33.183v-29.269h1.106V0h33.551v-34.99a45 45 0 0 0 1.107-.599V0h33.183v-385.372c-7.082-20.201-15.764-39.614-26.195-58.107a409 409 0 0 0-6.988-11.906v90.348q-.548-.816-1.107-1.626v-90.515c-9.95-16.135-21.203-31.935-33.551-47.274v101.782c-.368-.289-.735-.581-1.106-.868v-102.283c-10.341-12.755-21.442-25.185-33.183-37.221v120.034q-.552-.234-1.106-.464v-120.703a602 602 0 0 0-33.183-31.326v90.026q-.548-.84-1.106-1.677v-89.317a638 638 0 0 0-33.183-27.004v20.955a36 36 0 0 0-1.106-1.355v-20.437a652 652 0 0 0-32.446-23.02v26.979q-.552-.106-1.106-.206v-27.507a648 648 0 0 0-33.921-20.979v44.741l-1.105-.093v-45.285a634 634 0 0 0-15.268-8.484 365 365 0 0 0-17.546 9.023v44.754l-1.106.093v-44.244c-10.797 5.954-21.918 12.73-33.184 20.204v27.661q-.553.099-1.106.2v-27.124c-11.107 7.409-22.349 15.498-33.551 24.155v20.112q-.57.691-1.106 1.412v-20.67a655 655 0 0 0-32.815 27.249v88.318q-.558.84-1.106 1.682v-89.017a646 646 0 0 0-33.551 32.104v118.725c-.369.153-.74.303-1.106.46V-541.11c-11.679 12.08-22.825 24.599-33.183 37.396v100.076q-.555.429-1.106.864v-99.569c-12.197 15.171-23.277 30.724-32.815 46.392v88.032q-.557.797-1.106 1.603v-87.807a348 348 0 0 0-5.218 8.983 390.5 390.5 0 0 0-28.334 63.035zm-24.403 0h23.297v-378.876c-15.9 47.07-23.297 97.835-23.297 152.888z" style="fill:#fce100;fill-opacity:1;fill-rule:evenodd;stroke:none" transform="translate(797.432 869.722)"/><path d="M0 0c20.941 3.664 57.758 11.805 87.248 11.805 28.582 0 67.136-8.141 86.967-11.805-4.725-19.763-1.512-42.066 5.162-64.542-25.773-7.559-62.759-13.359-93.738-13.134-30.027.218-66.398 6.906-90.063 13.871C1.544-48.203 3.741-29.862 0 0" style="fill:#343974;fill-opacity:1;fill-rule:evenodd;stroke:none" transform="translate(452.445 562.072)"/><path d="M0 0c4.31-21.959 4.216-44.257-4.347-63.736-7.646-17.392-20.317-34.394-32.694-39.615C-88.712-86.32-119.958-42.3-132.277 3.244c-10.87 40.185-13.837 85.93 19.449 147.731-6.159-43.579 8.812-70.952 26.654-92.267C-63.95 32.157-26.048 4.679 0 0" style="fill:#343974;fill-opacity:1;fill-rule:evenodd;stroke:none" transform="translate(438.683 561.258)"/><path d="M0 0c-4.31-21.959-4.216-44.257 4.348-63.736 7.645-17.392 20.316-34.394 32.693-39.615C88.712-86.32 119.958-42.3 132.277 3.244c10.87 40.185 13.837 85.93-19.449 147.731 6.159-43.579-8.812-70.952-26.653-92.267C63.951 32.157 26.049 4.679 0 0" style="fill:#343974;fill-opacity:1;fill-rule:evenodd;stroke:none" transform="translate(639.868 561.258)"/><path d="M0 0c-2.814-3.165-6.323-5.251-11.183-4.911-.658.046-1.317.107-1.97.199-2.723.382-4.837 1.232-6.99 2.968-1.708 1.377-3.27 3.177-4.672 5.118A621 621 0 0 1 0 0m36.323-160.423c-6.085-10.944-17.468-17.785-28.435-17.501-10.754.278-17.201 5.618-17.289 16.597-.077 9.446 3.292 17.02 13.624 18.141 4.392.477 9.238-.207 13.293-1.965 7.38-3.202 13.35-7.54 18.807-15.272M35.585-3.21c-7.54.486-15.388 1.12-23.358 1.902C6.706-10.184-.821-16.354-11.928-15.577c-.905.063-1.81.15-2.71.277-11.878 1.665-18.434 10.464-23.765 20.432l-.337.631a394 394 0 0 0-15.67 3.238c-3.756-11.702-13.876-23.073-32.625-37.625 6.858-27.919 16.421-45.121 24.585-57.212 12.712-18.824 24.533-29.251 29.11-39.661 1.897-4.313 2.293-8.497 2.028-13.123-.271-4.729-1.407-9.62-1.957-13.551-1.071-7.662-1.939-14.842-.803-19.655 2.572-10.901 12.693-15.675 21.785-18.151 9.949-2.71 25.022-3.739 47.872-5.727v16.766c-8.373-6.257-18.254-10.326-29.121-10.042-17.389.453-27.891 10-28.032 27.554-.126 15.743 7.342 28.148 24.109 29.968 12.486 1.355 23.538-4.483 33.044-12.162z" style="fill:#343974;fill-opacity:1;fill-rule:evenodd;stroke:none" transform="translate(497.086 476.877)"/><path d="M0 0c2.813-3.165 6.323-5.251 11.183-4.911.658.046 1.316.107 1.969.199 2.723.382 4.837 1.232 6.991 2.968 1.707 1.377 3.268 3.177 4.671 5.118A621 621 0 0 0 0 0m-36.323-160.423c6.084-10.944 17.467-17.785 28.434-17.501 10.754.278 17.201 5.618 17.289 16.597.078 9.446-3.291 17.02-13.624 18.141-4.392.477-9.238-.207-13.293-1.965-7.379-3.202-13.35-7.54-18.806-15.272m.737 157.213c7.54.486 15.389 1.12 23.359 1.902C-6.706-10.184.82-16.354 11.927-15.577c.906.063 1.81.15 2.71.277C26.515-13.635 33.071-4.836 38.402 5.132l.337.631a394 394 0 0 1 15.67 3.238c3.756-11.702 13.876-23.073 32.625-37.625-6.857-27.919-16.421-45.122-24.585-57.212a258 258 0 0 0-17.605-23.17c-5.116-5.985-9.217-10.181-11.505-15.386-1.896-4.31-2.291-9.602-2.027-14.228.27-4.728 1.407-9.62 1.957-13.551 1.07-7.662 1.939-14.842.802-19.655-2.572-10.901-12.692-15.675-21.785-18.151-9.948-2.71-25.022-3.739-47.872-5.727v16.766c8.373-6.257 18.255-10.326 29.122-10.042 17.389.453 27.891 10 28.031 27.554.126 15.743-7.342 28.148-24.108 29.968-12.486 1.355-23.539-4.483-33.045-12.162z" style="fill:#343974;fill-opacity:1;fill-rule:evenodd;stroke:none" transform="translate(582.056 476.877)"/><path d="M0 0v48.304c0 1.044.628 1.252 1.306 1.252h18.723c16.078 0 27.754-8.439 27.754-25.478 0-17.326-11.709-25.515-27.754-25.515H1.561C.643-1.437 0-1.286 0 0m13.322 38.278V9.84h7.617c7.529 0 13.024 5.239 13.024 14.238s-5.512 14.2-13.024 14.2z" style="fill:#343974;fill-opacity:1;fill-rule:evenodd;stroke:none" transform="translate(624.302 675.93)"/><path d="M0 0v-27.319c0-7.084-2.143-12.614-6.439-16.576-4.298-3.961-10.296-5.949-17.997-5.949-7.686 0-13.672 1.988-17.969 5.949-4.298 3.962-6.441 9.492-6.441 16.576V.204c0 1.124.508 1.443 1.312 1.443h11.202c1.56 0 1.605-.667 1.605-1.75v-24.881c0-7.227 2.549-12.441 10.392-12.441 7.834 0 10.292 5.254 10.292 12.441v24.78c0 1.587.469 1.851 1.747 1.851H-2.01C-.728 1.647 0 1.614 0 0" style="fill:#343974;fill-opacity:1;fill-rule:evenodd;stroke:none" transform="translate(454.723 723.852)"/><path d="M0 0v-27.659c0-.503-.329-1.055-1.193-1.055h-11.203c-.592 0-1.259.192-1.259 1.157V21.19c0 .924.713 1.086 1.259 1.086h9.472c1.246 0 1.216-.104 2.011-1.074L20.972-5.545v26.582c0 .951.571 1.239 1.157 1.239h11.293c.634 0 1.205-.359 1.205-1.353v-48.531c0-.554-.69-1.106-1.243-1.106h-7.665c-1.06 0-1.788.026-2.469.842z" style="fill:#343974;fill-opacity:1;fill-rule:evenodd;stroke:none" transform="translate(474.53 703.224)"/><path d="M0 0v48.123c0 1.241.356 1.404 1.219 1.404h11.406c.681 0 1.206-.259 1.206-1.239V.306c0-1.639-.601-1.769-1.867-1.769H1.779C.385-1.463 0-1.043 0 0" style="fill:#343974;fill-opacity:1;fill-rule:evenodd;stroke:none" transform="translate(515.81 675.973)"/><path d="m0 0-.001 37.693h-14.692c-1.158 0-1.72.184-1.72 1.713v8.167c0 1.321.675 1.443 1.618 1.443h43.794c1.018 0 1.528-.266 1.528-1.647v-7.963c0-1.324-.362-1.713-1.3-1.713H14.115V-.205c0-1.352-.313-1.769-1.654-1.769H1.603C.01-1.974 0-1.206 0 0" style="fill:#343974;fill-opacity:1;fill-rule:evenodd;stroke:none" transform="translate(549.595 676.483)"/><path d="M0 0v47.715c0 .994.602 1.608 1.596 1.608H33.31c1.014 0 1.324-.593 1.324-1.24v-8.575c0-.941-.767-1.065-1.324-1.065H12.685v-8.174h19.708c.516 0 1.3-.121 1.3-1.021v-8.422c0-.8-.121-1.511-1.3-1.511H12.685V9.361h21.286c.995 0 1.281-.563 1.281-1.194V-.205c0-1.231-.57-1.462-1.434-1.462H1.432C.463-1.667 0-1.327 0 0" style="fill:#343974;fill-opacity:1;fill-rule:evenodd;stroke:none" transform="translate(583.782 676.177)"/><path d="m0 0 30.736 40.006L1.264 76.662c-.909 1.13-.731 2.437.855 2.437H24.71c2.167 0 2.133.04 3.439-1.686l15.6-20.612 16.134 20.75c1.306 1.679 1.358 1.548 3.496 1.548H85.97c1.525 0 1.769-1.035.967-2.065L57.269 39.875 89.458-.042c.734-.911.49-1.994-.88-1.994H65.415c-1.983 0-1.901.185-3.107 1.777l-18.191 23.99L26.021-.741c-1.113-1.505-1.255-1.295-3.142-1.295H.937C-.139-2.036-.916-1.192 0 0" style="fill:#343974;fill-opacity:1;fill-rule:evenodd;stroke:none" transform="translate(378.725 753.243)"/><path d="M0 0v77.173c0 1.526.074 2.194 1.941 2.194h49.455c1.671 0 1.87-.523 1.87-2.194V65.331c0-1.935-.273-2.404-1.87-2.404H20.334V46.845h31.062c1.397 0 1.801-.688 1.801-2.07V32.971c0-1.544-.214-2.493-1.801-2.493H20.334V0c0-1.313-.641-1.768-1.946-1.768H1.903C.62-1.768 0-1.291 0 0" style="fill:#343974;fill-opacity:1;fill-rule:evenodd;stroke:none" transform="translate(473.134 752.976)"/><path d="M0 0v77.457c0 1.176.774 1.91 1.967 1.91h31.035c16.362 0 27.146-9.204 27.146-24.661 0-6.959-3.163-15.38-12.195-18.859 4.72-1.772 6.726-5.475 8.573-9.845L67.581.741c.637-1.452.62-2.509-1.435-2.509H48.438c-1.718 0-2.245-.094-3.221 2.163l-9.025 20.844c-1.602 3.704-3.45 6.245-5.506 7.641-2.053 1.393-3.497 2.098-7.263 2.098-.287 0-.689-.021-1.166-.059-.496-.04-.861-.06-1.128-.06V.204c0-1.456-.543-1.972-1.997-1.972H2.239C.81-1.768 0-1.456 0 0m29.061 46.442c4.865 0 10.395 1.628 10.395 8.395 0 6.529-5.799 8.296-10.395 8.296h-7.932V46.442Z" style="fill:#343974;fill-opacity:1;fill-rule:evenodd;stroke:none" transform="translate(629.751 752.976)"/><path d="M0 0v77.422c0 1.41.851 1.706 1.899 1.706h28.614c8.392 0 14.542-.663 19.171-1.979a37.1 37.1 0 0 0 12.771-6.493c5.007-3.901 8.431-8.569 11.007-13.994 2.584-5.44 3.862-11.46 3.862-18.071 0-7.225-1.568-13.797-4.703-19.695S65.325 8.083 59.377 4.149C56.016 1.928 52.303.369 48.229-.582c-4.072-.949-9.727-1.424-17.716-1.424H1.734C.613-2.006 0-1.495 0 0m21.072 62.35V14.771h12.046c6.634 0 12.435 1.891 16.62 6.381 4.203 4.511 6.309 10.332 6.309 17.439s-2.11 12.903-6.309 17.398c-4.19 4.486-9.991 6.361-16.62 6.361z" style="fill:#343974;fill-opacity:1;fill-rule:evenodd;stroke:none" transform="translate(701.518 753.214)"/><path d="M0 0c-14.743 0-22.693-11.172-22.693-23.303S-14.375-46.606 0-46.606s22.693 11.172 22.693 23.303S14.743 0 0 0m.204 18.724c24.442 0 44.265-18.808 44.265-42.002 0-23.193-19.823-42.002-44.265-42.002-24.444 0-44.267 18.809-44.267 42.002S-24.24 18.724.204 18.724" style="fill:#343974;fill-opacity:1;fill-rule:evenodd;stroke:none" transform="translate(341.666 814.846)"/><path d="M0 0c-14.743 0-22.692-11.172-22.692-23.303S-14.374-46.606 0-46.606s22.693 11.172 22.693 23.303S14.743 0 0 0m.204 18.724c24.442 0 44.266-18.808 44.266-42.002C44.47-46.471 24.646-65.28.204-65.28c-24.443 0-44.267 18.809-44.267 42.002S-24.239 18.724.204 18.724" style="fill:#343974;fill-opacity:1;fill-rule:evenodd;stroke:none" transform="translate(577.265 814.846)"/></g></svg>