<svg xmlns="http://www.w3.org/2000/svg" width="940.525" height="940.525"><defs><clipPath id="a" clipPathUnits="userSpaceOnUse"><path d="M0 1080h1080V0H0Z"/></clipPath></defs><g clip-path="url(#a)" transform="matrix(1.33333 0 0 -1.33333 -249.737 1190.263)"><path d="M0 0c0-193.3-156.701-350.001-350.001-350.001C-543.299-350.001-700-193.3-700 0s156.701 349.999 349.999 349.999C-156.701 349.999 0 193.299 0 0Z" style="fill:none;stroke:#0067b3;stroke-width:5.394;stroke-linecap:butt;stroke-linejoin:miter;stroke-miterlimit:4;stroke-dasharray:none;stroke-opacity:1" transform="translate(890 540)"/><path d="M0 0c0-189.996-154.025-344.019-344.019-344.019S-688.034-189.996-688.034 0c0 189.994 154.021 344.015 344.015 344.015S0 189.994 0 0" style="fill:#0067b3;fill-opacity:1;fill-rule:nonzero;stroke:none" transform="translate(884.018 540)"/><path d="M0 0c0-189.996-154.025-344.019-344.019-344.019S-688.034-189.996-688.034 0c0 189.994 154.021 344.015 344.015 344.015S0 189.994 0 0Z" style="fill:none;stroke:#fff;stroke-width:5.394;stroke-linecap:butt;stroke-linejoin:miter;stroke-miterlimit:4;stroke-dasharray:none;stroke-opacity:1" transform="translate(884.018 540)"/><path d="M0 0c0-142.148-115.249-257.398-257.398-257.398-142.146 0-257.364 115.25-257.364 257.398 0 142.147 115.218 257.365 257.364 257.365C-115.249 257.365 0 142.147 0 0" style="fill:#fff;fill-opacity:1;fill-rule:nonzero;stroke:none" transform="translate(797.397 540)"/><path d="M0 0c42.505 0 79.756-18.892 104.948-26.758 25.18-7.879 68.742-11.022 85.529-11.022 16.789 0 25.182 8.391 25.182 8.391s-2.618 5.245-4.716 9.979c-2.106 4.716-2.106 13.639-2.106 13.639s1.577 1.051 4.204 0c2.618-1.054 8.391-3.145 20.46-7.877 12.072-4.719 31.478-6.289 40.405-6.289 8.916 0 23.087 5.776 23.087 5.776s-2.625 6.809-4.2 16.261c-1.568 9.441 2.102 17.317 6.825 22.037 4.716 4.72 6.821 10.498 2.621 19.939-4.196 9.452-17.312 14.696-28.333 15.221-11.014.525-16.268-12.071-16.268-17.842 0-5.768 1.575-12.072 1.575-12.072s-8.392 2.095-19.414 3.67c-11.021 1.582-23.61 6.827-37.26 12.073-13.635 5.243-24.655 1.573-28.849-2.1-4.207-3.671-5.772-11.023-5.257-16.266.527-5.248 5.773-11.549 5.773-11.549s-11.537 0-20.987 2.63c-9.441 2.618-37.251 8.392-58.249 16.264C73.986 41.98 27.81 50.896 0 50.896s-73.987-8.916-94.975-16.791c-20.984-7.872-48.797-13.646-58.246-16.264-9.443-2.63-20.987-2.63-20.987-2.63s5.246 6.301 5.773 11.549c.524 5.243-1.051 12.595-5.248 16.266-4.195 3.673-15.214 7.343-28.86 2.1-13.636-5.246-26.235-10.491-37.253-12.073-11.018-1.575-19.416-3.67-19.416-3.67s1.574 6.304 1.574 12.072c0 5.771-5.246 18.367-16.265 17.842s-24.14-5.769-28.335-15.221c-4.194-9.441-2.1-15.219 2.62-19.939 4.727-4.72 8.398-12.596 6.823-22.037-1.579-9.452-4.195-16.261-4.195-16.261s14.161-5.776 23.087-5.776c8.917 0 28.337 1.57 40.407 6.289 12.068 4.732 17.831 6.823 20.459 7.877 2.629 1.051 4.193 0 4.193 0s0-8.923-2.09-13.639c-2.103-4.734-4.731-9.979-4.731-9.979s8.403-8.391 25.191-8.391c16.791 0 60.339 3.143 85.53 11.022C-79.759-18.892-42.5 0 0 0" style="fill:#8a8e9d;fill-opacity:1;fill-rule:nonzero;stroke:none" transform="translate(541.228 320.924)"/><path d="M0 0c11.031.295 33.058 7.877 47.23 12.071 14.164 4.197 29.904 10.493 38.303 8.391 8.39-2.095 9.967-3.143 11.018-5.776 1.053-2.615 1.053-5.77 1.053-5.77s-11.02 0-20.996-1.564C66.64 5.77 55.096-1.575 54.571-7.35c-.526-5.771 2.1-8.392 3.678-12.067 1.566-3.67 0-6.291 0-6.291s-19.418-6.818-27.294-9.977c-7.865-3.146-31.479-4.72-39.87-3.67-8.401 1.05-13.648 4.72-13.648 4.72s3.146 6.828 2.628 16.269C-20.46-8.912-27.807 5.77-27.807 5.77S-19.417-.523 0 0" style="fill:#fff;fill-opacity:1;fill-rule:nonzero;stroke:none" transform="translate(272.045 344.01)"/><path d="m0 0-3.671 9.453s5.773-1.578 9.442-.527c3.679 1.05 9.449 5.77 9.449 5.77V7.875c0-2.105-.523-7.352-.523-7.352S11.018-.523 7.872-1.05C4.731-1.575 0 0 0 0" style="fill:#fff;fill-opacity:1;fill-rule:nonzero;stroke:none" transform="translate(264.173 348.207)"/><path d="M0 0c35.158 0 65.597-13.109 87.636-20.987 22.028-7.877 45.651-13.638 78.177-16.793 32.527-3.146 44.601 6.3 44.601 6.3s-2.621 2.616-3.671 7.348c-1.052 4.718-2.098 8.914-1.052 18.887 1.052 9.977 3.67 17.838 3.67 17.838s-11.545-5.772-19.93-6.297c-8.404-.525-11.022 0-24.671 2.631-13.631 2.614-61.387 14.164-97.072 24.663C32.014 44.081 12.069 44.606 0 44.606c-12.061 0-32.006-.525-67.691-11.016-35.675-10.499-83.429-22.049-97.065-24.663-13.646-2.631-16.275-3.156-24.664-2.631-8.402.525-19.948 6.297-19.948 6.297s2.629-7.861 3.68-17.838c1.054-9.973 0-14.169-1.051-18.887-1.05-4.732-3.669-7.348-3.669-7.348s12.06-9.446 44.599-6.3c32.532 3.155 56.145 8.916 78.184 16.793C-65.588-13.109-35.158 0 0 0" style="fill:#fff;fill-opacity:1;fill-rule:nonzero;stroke:none" transform="translate(541.228 324.593)"/><path d="M0 0c-11.025.295-33.053 7.877-47.221 12.071-14.169 4.197-29.917 10.493-38.306 8.391-8.402-2.095-9.966-3.143-11.021-5.776-1.047-2.615-1.047-5.77-1.047-5.77s11.018 0 20.984-1.564C-66.643 5.77-55.103-1.575-54.572-7.35c.525-5.771-2.095-8.392-3.668-12.067-1.582-3.67 0-6.291 0-6.291s19.409-6.818 27.282-9.977c7.873-3.146 31.481-4.72 39.881-3.67 8.396 1.05 13.643 4.72 13.643 4.72s-3.152 6.828-2.629 16.269C20.46-8.912 27.81 5.77 27.81 5.77S19.414-.523 0 0" style="fill:#fff;fill-opacity:1;fill-rule:nonzero;stroke:none" transform="translate(810.411 344.01)"/><path d="m0 0 3.678 9.453s-5.776-1.578-9.453-.527c-3.673 1.05-9.443 5.77-9.443 5.77V7.875c0-2.105.527-7.352.527-7.352s3.666-1.046 6.818-1.573C-4.725-1.575 0 0 0 0" style="fill:#fff;fill-opacity:1;fill-rule:nonzero;stroke:none" transform="translate(818.284 348.207)"/><path d="M0 0c0 2.823-9.45 6.818-15.748 7.341-6.287.523-16.789 4.195-18.353 1.05-1.577-3.146.525-6.296 2.616-9.966 2.103-3.682 6.825-6.827 14.173-5.771C-9.973-6.295 0-4.732 0 0m91.3 22.037c-2.4 5.113-8.923 12.586-17.832 12.586-8.926 0-12.601-.523-14.703-3.67-2.091-3.144-4.193-5.245-.527-7.869 3.679-2.62 8.402-4.727 11.022-3.672 2.628 1.052 8.401 3.672 7.878.525-.53-3.143-3.67-11.023-3.67-11.023s6.291-1.05 10.491.527c4.193 1.58 11.545 3.67 7.341 12.596M-397.212-7.346c7.347-1.056 12.068 2.089 14.161 5.771 2.102 3.67 4.206 6.82 2.628 9.966-1.576 3.145-12.07-.527-18.368-1.05S-414.528 2.823-414.528 0c0-4.732 9.963-6.295 17.316-7.346m-108.621 29.383c2.408 5.113 8.925 12.586 17.841 12.586 8.915 0 12.597-.523 14.689-3.67 2.104-3.144 4.202-5.245.526-7.869-3.672-2.62-8.392-4.727-11.021-3.672-2.616 1.052-8.389 3.672-7.863.525.523-3.143 3.669-11.023 3.669-11.023s-6.298-1.05-10.494.527c-4.195 1.58-11.543 3.67-7.347 12.596" style="fill:#a3c2da;fill-opacity:1;fill-rule:nonzero;stroke:none" transform="translate(748.494 340.866)"/><path d="M0 0c-.869-8.479-3.975-15.286-15.5-14.108-7.82.806-11.614 4.869-10.781 12.97l1.393 13.609c.376 3.595-4.107 2.706-3.946 4.293.058.545.613.608.947.58.546-.053 3.659-.539 5.743-.764 2.131-.219 5.115-.353 5.906-.437.373-.04.431-.372.402-.629-.144-1.417-3.429 1.152-4.128-5.703l-.938-9.056c-.649-6.395.471-11.869 7.953-12.635C-4.644-12.728-2.875-6.24-2.151.816l.84 8.265c.5 4.807-4.769 4.042-4.614 5.54.069.672.754.381 1.298.331 1.207-.205 2.322-.407 3.489-.526 1.376-.137 2.687-.193 4.778-.32.507-.06.744-.165.699-.621-.116-1.128-2.886.67-3.375-4.044z" style="fill:#0077bf;fill-opacity:1;fill-rule:nonzero;stroke:none" transform="translate(373.959 307.265)"/><path d="M0 0c.672-5.211 4.674-3.08 4.855-4.539.095-.711-.335-.679-.916-.757-2.916-.368-4.769-.442-5.685-.561-1.664-.213-4.847-.794-5.096-.826-.123-.017-.87-.196-.955.508-.161 1.215 3.287.728 2.617 5.926l-2.359 18.323c-.564 4.414-4.672 2.146-4.874 3.684-.038.249.068.811 1.059.948.296.039 2.612.163 5.774.576.583.074 3.518.579 6.469.999 5.325.766 10.751-.651 11.537-6.728.67-5.196-2.802-8.867-7.752-9.506C.594 7.52.25 8.544.23 8.702c-.039.291-.019.804.478.871.334.038 1.08-.116 1.996 0 5.039.651 4.799 5.397 4.702 6.491-.094 1.09-1.25 7.118-7.712 6.287-1.871-.235-2.427-1.165-2.188-3.037z" style="fill:#0077bf;fill-opacity:1;fill-rule:nonzero;stroke:none" transform="translate(390.366 299.498)"/><path d="M0 0c6.898 2.14 7.579 8.2 5.636 14.889C3.04 23.795-3.241 27.032-8.419 25.434c-6.775-2.099-7.17-8.243-5.468-14.095C-12.174 5.454-7.178-2.23 0 0m-7.71 27.531c7.832 2.367 15.355-1.089 17.838-9.632 1.646-5.64 2.064-16.231-10.79-19.978-8.103-2.356-15.125 1.505-17.516 9.683-2.571 8.822.861 17.037 10.468 19.927" style="fill:#0077bf;fill-opacity:1;fill-rule:nonzero;stroke:none" transform="translate(425.325 302.49)"/><path d="M0 0c-2.589 7.629-6.162 3.538-6.811 5.443-.116.358-.03.741.448.906.756.256 1.528.341 2.286.6 1.031.348 2.005.861 4.117 1.567 1.272.444.889 0 1.855-.515L23.828-4.098c.706-.383 1.347-.701 1.587-.625.237.089.152.597-.184 1.587l-4.498 13.237c-1.227 3.615-5.831 1.252-6.279 2.562-.09.279-.105.713.41.89.641.219 1.843.45 4.586 1.385 2.505.854 3.841 1.482 4.195 1.607.755.246.889-.142.928-.267.409-1.189-3.296-1.392-1.875-5.554l7.57-22.305c.295-.869.411-1.187-.066-1.345-.564-.19-.84-.021-1.223.196L2.841 1.443c-.39.229-.696.346-.897.278-.231-.078-.221-.383-.096-.741l4.587-13.52c2.591-7.624 6.765-3.197 7.396-5.062.191-.553-.823-.848-1.339-1.034-1.948-.657-3.345-.952-4.739-1.433-1.274-.428-2.292-.952-3.364-1.318-.441-.153-1.165-.619-1.395.057-.537 1.589 3.517 2.167 2.142 6.223z" style="fill:#0077bf;fill-opacity:1;fill-rule:nonzero;stroke:none" transform="translate(439.953 328.117)"/><path d="M0 0c-.544 1.942-1.015 2.031-2.666 1.559l-3.395-.96c-4.555-1.291-1.851-6.242-3.665-6.762-.85-.235-.863.716-.929 1.275l-.862 5.513c-.074.411-.235.973.375 1.143 3.754 1.073 6.508 1.673 12.404 3.338 5.896 1.671 8.554 2.598 12.309 3.659.602.174.764-.39.915-.783L15.988 4.4c.221-.471 1.107-1.914.059-2.216-1.617-.453-1.597 4.393-6.192 2.911L6.423 4.13c-1.653-.467-2.008-.78-1.452-2.722l5.167-18.253c1.406-4.973 6.242-2.328 6.567-3.47.268-.967-.573-1.069-1.739-1.404-1.625-.46-2.999-.678-5.704-1.444-2.706-.769-3.995-1.301-5.611-1.755-.726-.215-1.395-.443-1.653.447-.442 1.565 4.672.924 3.305 5.731z" style="fill:#0077bf;fill-opacity:1;fill-rule:nonzero;stroke:none" transform="translate(491.179 349.064)"/><path d="M0 0c.428-5.317 4.655-3.413 4.785-5.039.051-.544-.285-.534-.833-.573-1.383-.116-3.859-.152-5.578-.284-1.51-.125-3.127-.432-5.257-.6-.593-.053-.851.091-.881.386-.111 1.466 3.03.586 2.699 4.644l-.613 7.534c-.144 1.759-.06 2.223-1.902 2.072l-11.172-.913c-1.92-.155-2.016-.587-1.862-2.43l.534-6.57c.431-5.184 5.495-3.252 5.62-4.759.02-.256.122-.579-1.215-.681-1.709-.149-3.104-.098-6.115-.341-1.757-.142-3.509-.453-5.601-.63-.497-.037-.926.012-.965.557-.142 1.671 3.536.456 3.115 5.646l-1.53 18.665c-.37 4.561-4.95 2.335-5.084 3.92-.045.631 1.207.771 2 .838 1.249.098 2.522.038 4.7.214 2.514.207 4.165.513 5.379.613.595.042.984-.137 1.014-.548.106-1.301-3.211-.356-2.905-4.07l.544-6.663c.095-1.124.306-1.651 1.186-1.584l12.424 1.022c1.211.093 1.387 1.078 1.308 1.996l-.478 5.909c-.379 4.593-4.861 2.711-4.958 3.926-.058.755.325.695.906.755 1.721.131 2.822.054 5.412.266 2.177.183 3.716.478 5.514.622.704.056.887-.046.915-.429.134-1.587-3.029-.038-2.693-4.141z" style="fill:#0077bf;fill-opacity:1;fill-rule:nonzero;stroke:none" transform="translate(543.379 338.164)"/><path d="M0 0c-.45-5.143 4.393-3.633 4.279-4.967-.039-.46-.429-.597-1.394-.509-1.549.137-3.076.442-6.337.727-1.794.152-3.61.144-4.704.242-.37.037-.428.332-.409.541.123 1.466 3.038.114 3.394 4.077l1.768 20.083c.334 3.801-4.489 3.044-4.366 4.512.066.706 1.099.486 1.467.458 1.639-.145 3.252-.458 4.715-.584 1.508-.132 3.03-.099 5.411-.308 1.249-.114 1.459-.217 1.412-.716-.127-1.421-3.125.362-3.478-3.608z" style="fill:#0077bf;fill-opacity:1;fill-rule:nonzero;stroke:none" transform="translate(558.382 336.175)"/><path d="M0 0c.03.601-.084 1.882.939 1.624.647-.156.64-.542.666-1.115.316-4.231 1.9-8.57 6.421-9.72 3.174-.794 6.108.548 6.932 3.796.876 3.457-1.559 4.632-7.38 9.185-3.115 2.421-5.109 4.616-4.033 8.893 1.176 4.681 5.294 7.276 10.063 6.078 3.334-.839 4.644-2.865 5.868-3.176.526-.13 1.711.271 2.238.139.611-.165.332-.738.181-1.689l-.925-5.573c-.146-.922-.395-1.38-1.293-1.152-.937.242.366 7.965-6.631 9.731-2.687.677-4.913-.411-5.601-3.134-.689-2.734 1.413-3.823 6.268-7.598 3.873-3.009 6.119-5.436 4.82-10.605-1.349-5.334-6.012-8.019-11.345-6.674-2.475.631-4.312 2.134-6.538 3.25-.955.51-.831.82-.792 1.844z" style="fill:#0077bf;fill-opacity:1;fill-rule:nonzero;stroke:none" transform="translate(566.6 338.82)"/><path d="M0 0c-.307-1.015 1.182-1.45 2.4-1.809 6.114-1.813 7.02.364 7.728 2.74 1.169 3.941-.197 7.595-4.262 8.798-1.492.437-2.741.809-3.455-1.607Zm-2.811 8.668c1.341 4.513-3.498 4.321-3.066 5.772.121.404.58.488 1.071.344 1.844-.555 2.121-.811 4.653-1.566 2.699-.79 5.485-1.444 8.179-2.248C16.838 8.351 15.96 2.437 15.411.595c-.761-2.583-2.378-3.731-3.828-4.345-1.442-.58-2.713-.589-2.843-1.001-.061-.239 1.628-7.087 3.012-13.018.177-.753.942-.983 1.264-1.076.398-.114.867.01 1.281-.114.353-.106.527-.422.432-.745-.365-1.246-3.286-1.339-4.895-.865-3.185.943-3.719 3.861-4.272 6.572L4.073-6.641C3.668-4.597 3.05-4.023 1.039-3.42c-2.126.628-1.975.274-2.396-1.128l-2.065-6.968c-1.273-4.299 3.204-3.833 2.772-5.283-.112-.366-.507-.506-1.436-.229-.678.202-1.719.688-3.408 1.18-2.168.652-4.233 1.085-6.242 1.684-.448.132-1.329.258-1.087 1.062.378 1.292 3.247-1.006 4.755 4.06z" style="fill:#0077bf;fill-opacity:1;fill-rule:nonzero;stroke:none" transform="translate(610.274 334.512)"/><path d="M0 0c7.006-1.773 10.754 3.036 12.579 9.764 2.426 8.953-1.242 14.998-6.493 16.332-6.881 1.739-10.414-3.297-12.012-9.172C-7.531 11.007-7.28 1.844 0 0m7.78 27.513c7.917-2.066 12.538-8.926 10.203-17.519C16.445 4.318 11.278-4.93-1.645-1.426-9.783.794-13.772 7.74-11.536 15.966c2.411 8.872 9.608 14.097 19.316 11.547" style="fill:#0077bf;fill-opacity:1;fill-rule:nonzero;stroke:none" transform="translate(641.581 309.551)"/><path d="M0 0c-.06-.421-.13-1.394-.811-1.231-.662.165-.741 1.089-.892 1.691-1.101 4.403-3.828 8.819-8.561 9.964-5.998 1.456-10.685-3.455-12.007-8.926-1.392-5.749-.079-14.619 7.715-16.502 6.327-1.525 10.386 3.145 11.45 2.887.207-.049.523-.344.467-.595-.402-1.624-6.212-6.744-14.898-4.643C-29.494-14.457-28.808-3.571-28.028-.35c1.663 6.859 8.043 14.855 18.317 12.372 4.94-1.194 7.481-4.442 8.708-4.735C-.232 7.093.133 8.428.708 8.298c.207-.051.477-.163.432-.367Z" style="fill:#0077bf;fill-opacity:1;fill-rule:nonzero;stroke:none" transform="translate(689.747 317.128)"/><path d="M0 0c-.274-.172-1.031-.695-1.087-1.074-.06-.373.237-.924.734-1.855l6.298-11.869c2.569-4.888 4.579-4.01 4.411-5.055-.046-.283-.118-.525-.617-.448-.914.137-1.968.471-3.088.629-.794.127-1.643.089-2.809.27-.785.113-1.184.262-1.842 1.509L-4.542-5.308c-.425.794-.606 1.291-.859 1.326-.33.053-1.139-.548-2.221-1.447-.718-.613-.697-.995-.843-1.952l-.834-5.436c-.583-3.824 3.689-3.106 3.463-4.604-.056-.372-.237-.472-1.235-.32-1.116.176-2.217.51-4.589.866-1.983.307-4.17.465-5.45.665-.797.116-1.286.243-1.24.527.316 2.072 3.222-1.127 4.181 5.141l2.749 18.05c.762 5.027-3.919 3.578-3.64 5.406.074.448.425.567.924.49.794-.12 2.13-.49 4.967-.924 2.314-.354 4.953-.59 5.784-.716.377-.06.873-.137.793-.629-.244-1.664-2.891 1.04-3.587-3.527l-1.455-9.513c-.06-.409-.195-.985.065-.985.237-.077.523.09 1.146.548l6.288 4.516c1.348.987 5.877 3.743 6.163 5.601.203 1.292-2.418 1.141-2.269 2.096.111.745.543.727 1.077.639.414-.059 3.251-.667 4.5-.853 1.037-.158 2.147-.158 3.929-.425.325-.06 1.084-.126.964-.871-.17-1.127-1.306.323-5.882-2.711Z" style="fill:#0077bf;fill-opacity:1;fill-rule:nonzero;stroke:none" transform="translate(708.369 311.577)"/><path d="m0 0 6.302-5.243 6.295 5.77-5.248 4.196z" style="fill:#0077bf;fill-opacity:1;fill-rule:nonzero;stroke:none" transform="translate(280.961 327.218)"/><path d="m0 0 6.299-5.248L12.597.523 7.352 4.72Z" style="fill:#0077bf;fill-opacity:1;fill-rule:nonzero;stroke:none" transform="translate(290.805 336.798)"/><path d="m0 0 6.294-5.25L12.595.527 7.349 4.723Z" style="fill:#0077bf;fill-opacity:1;fill-rule:nonzero;stroke:none" transform="translate(302.351 331.55)"/><path d="m0 0 6.297-5.244L12.594.527 7.348 4.721Z" style="fill:#0077bf;fill-opacity:1;fill-rule:nonzero;stroke:none" transform="translate(293.426 321.578)"/><path d="m0 0-6.298-5.243-6.303 5.77 5.253 4.196z" style="fill:#0077bf;fill-opacity:1;fill-rule:nonzero;stroke:none" transform="translate(801.492 327.218)"/><path d="m0 0-6.298-5.248-6.291 5.771 5.243 4.197z" style="fill:#0077bf;fill-opacity:1;fill-rule:nonzero;stroke:none" transform="translate(791.654 336.798)"/><path d="m0 0-6.3-5.25-6.293 5.777 5.241 4.196z" style="fill:#0077bf;fill-opacity:1;fill-rule:nonzero;stroke:none" transform="translate(780.111 331.55)"/><path d="m0 0-6.298-5.244-6.303 5.771 5.249 4.194z" style="fill:#0077bf;fill-opacity:1;fill-rule:nonzero;stroke:none" transform="translate(789.03 321.578)"/><path d="m0 0 5.842 1.845-.58 2.125Q3.895 9.013.686 7.999q-1.564-.493-2.018-1.994-.453-1.502.414-3.671Zm13.195 4.214 10.286 3.248q.494.158.982-.096.487-.254.656-.789l2.755-8.722q.157-.495-.09-1.001c-.165-.341-.412-.56-.741-.666l-29.79-9.411a1.25 1.25 0 0 0-.981.098q-.487.254-.643.747L-8.206-.241Q-9.44 3.668-9.821 6.807q-.381 3.137.23 5.503.61 2.364 2.246 3.991 1.636 1.625 4.393 2.497 5.473 1.727 9.136-.915 3.664-2.644 5.713-9.418z" style="fill:#fff;fill-opacity:1;fill-rule:nonzero;stroke:none" transform="translate(246.69 441.173)"/><path d="M0 0a1.24 1.24 0 0 0-.208-.964 1.24 1.24 0 0 0-.815-.553l-30.664-5.975a1.24 1.24 0 0 0-.964.207 1.24 1.24 0 0 0-.555.815l-4.811 24.694q-.099.506.207.962.308.457.816.555l6.184 1.204q.55.107 1.006-.198.456-.31.554-.815l2.773-14.233 3.389.661-2.369 12.157q-.1.507.208.962.306.457.815.555l6.099 1.188a1.28 1.28 0 0 0 1.006-.2q.455-.305.555-.814l2.411-12.147 3.558.694-2.996 15.373a1.22 1.22 0 0 0 .203.985q.311.435.862.541l6.183 1.206q.51.099.96-.187.451-.285.559-.836z" style="fill:#fff;fill-opacity:1;fill-rule:nonzero;stroke:none" transform="translate(265.009 470.337)"/><path d="M0 0a1.24 1.24 0 0 0-.318-.932 1.25 1.25 0 0 0-.873-.459l-23.965-1.841.684-8.906a1.22 1.22 0 0 0-.316-.955 1.34 1.34 0 0 0-.918-.439l-5.851-.449a1.28 1.28 0 0 0-.932.296 1.22 1.22 0 0 0-.458.896l-2.289 29.771q-.044.56.315.976.357.419.873.458l5.851.449q.56.043.977-.314.417-.358.46-.917l.681-8.862 23.964 1.842q.516.04.932-.297.415-.334.459-.895z" style="fill:#fff;fill-opacity:1;fill-rule:nonzero;stroke:none" transform="translate(258.438 511.308)"/><path d="M0 0a1.24 1.24 0 0 0-.422-.891 1.24 1.24 0 0 0-.92-.354L-32.561-.077a1.24 1.24 0 0 0-.891.422q-.374.403-.355.92l.941 25.14q.02.517.421.89.404.374.92.355l6.297-.236a1.3 1.3 0 0 0 .934-.424q.373-.402.354-.92l-.542-14.488 3.449-.129.464 12.375q.018.518.421.891t.92.355l6.21-.233q.56-.021.934-.423.374-.403.354-.92l-.42-12.378 3.622-.135.586 15.652q.021.56.423.913c.402.353.589.345.962.331l6.295-.235q.518-.02.892-.401a1.22 1.22 0 0 0 .354-.941Z" style="fill:#fff;fill-opacity:1;fill-rule:nonzero;stroke:none" transform="translate(256.965 535.388)"/><path d="m0 0 6.344-1.044.84 5.11q.512 3.108.053 4.846-.456 1.736-2.33 2.044-1.575.26-2.502-.857-.927-1.115-1.313-3.457Zm14.008-2.042 10.516-1.729q.511-.085.832-.531t.229-1l-1.555-9.452a1.24 1.24 0 0 0-.53-.831 1.25 1.25 0 0 0-.958-.237l-30.827 5.071a1.24 1.24 0 0 0-.83.531 1.23 1.23 0 0 0-.236.956l3.515 21.376q.903 5.492 3.877 8.413 3.228 3.143 7.529 2.436 4.853-.798 6.542-4.094.434-.814.766-1.853.333-1.039.527-2.251.948 1.244 1.957 2.061 1.01.818 1.965 1.317l10.795 4.215q.794.306 1.352-.156.558-.465.425-1.273L28.12 10.112a1.2 1.2 0 0 0-.321-.625 1.54 1.54 0 0 0-.592-.406l-11.03-3.783.092.028q-.24-.135-.485-.291a1.8 1.8 0 0 1-.407-.349q-.313-.299-.69-2.597Z" style="fill:#fff;fill-opacity:1;fill-rule:nonzero;stroke:none" transform="translate(234.056 580.972)"/><path d="m0 0 6.156-1.856.859 2.851q.523 1.735.04 3.12Q6.57 5.5 5.208 5.912q-1.447.435-2.617-.384T.896 2.974Zm-11.444 3.45 5.164-1.556.76 2.519q.474 1.57-.019 2.778-.492 1.207-1.442 1.494-1.074.324-2.139-.37-1.066-.692-1.552-2.303Zm22.043-17.327q-.15-.495-.634-.755a1.24 1.24 0 0 0-.98-.111l-29.911 9.018q-.495.15-.755.634a1.25 1.25 0 0 0-.11.98l5.032 16.691q.648 2.146 1.735 3.735a10.8 10.8 0 0 0 2.584 2.669q1.593 1.096 3.249 1.432 1.656.334 3.515-.226 2.272-.685 3.709-2.2 1.436-1.515 1.875-3.945 1.514 1.886 3.132 2.616 3.019 1.342 6.779.209 4.172-1.258 5.816-5.224 1.529-3.751.071-8.584z" style="fill:#fff;fill-opacity:1;fill-rule:nonzero;stroke:none" transform="translate(254.64 620.14)"/><path d="M0 0q-2.592-1.17-4.267-4.864t-.839-6.395 4.216-4.234 5.963-.382q2.582 1.15 4.257 4.844 1.676 3.694.848 6.415-.826 2.72-4.206 4.253T0 0m20.773.41q1.81-6.459-2.326-15.576-4.134-9.116-10.185-12.011-6.05-2.895-14.107.759t-9.884 10.122q-1.83 6.467 2.306 15.584 4.134 9.116 10.205 12.003 6.07 2.885 14.126-.768Q18.965 6.868 20.773.41" style="fill:#fff;fill-opacity:1;fill-rule:nonzero;stroke:none" transform="translate(264.42 669.534)"/><path d="m0 0 5.407-3.479L8.209.875Q9.913 3.523 10.184 5.3q.27 1.774-1.326 2.803-1.343.864-2.637.208-1.293-.655-2.578-2.65Zm12.042-7.442 8.963-5.767q.436-.28.552-.817a1.3 1.3 0 0 0-.187-1.009l-5.184-8.056a1.24 1.24 0 0 0-.817-.551 1.24 1.24 0 0 0-.972.163L-11.875-6.573q-.435.28-.552.817-.116.538.164.972L-.541 13.433q3.013 4.68 6.902 6.18 4.212 1.6 7.877-.758 4.136-2.662 4.375-6.357.076-.92-.033-2.005a15 15 0 0 0-.412-2.275q1.364.764 2.616 1.113 1.25.35 2.327.427l11.581-.422q.85-.036 1.178-.682.328-.647-.117-1.336l-5.93-9.217a1.2 1.2 0 0 0-.543-.446 1.56 1.56 0 0 0-.704-.137l-11.625.913.095-.01q-.274-.03-.561-.075a1.8 1.8 0 0 1-.512-.158q-.405-.15-1.666-2.11z" style="fill:#fff;fill-opacity:1;fill-rule:nonzero;stroke:none" transform="translate(276.137 698.648)"/><path d="M0 0q-2.815-.405-5.452-3.486-2.636-3.083-2.583-5.909.052-2.827 2.872-5.24 2.82-2.412 5.621-2.024 2.802.386 5.437 3.469 2.637 3.083 2.599 5.926-.04 2.843-2.86 5.255T0 0m20.068-5.382q-.058-6.707-6.564-14.315T.38-28.403q-6.616-1.099-13.34 4.652-6.722 5.748-6.68 12.47.04 6.721 6.548 14.329Q-6.586 10.657.047 11.74q6.634 1.085 13.356-4.665 6.724-5.75 6.665-12.457" style="fill:#fff;fill-opacity:1;fill-rule:nonzero;stroke:none" transform="translate(312.02 741.065)"/><path d="M0 0q-.344.387-.31.936.033.548.453.92l6.655 5.893q.386.343.936.31.548-.033.891-.42l14.533-16.41q4.15-4.684 2.28-9.798-1.75-4.663-8.017-10.213-6.461-5.722-11.139-6.753-5.173-1.123-9.607 3.884l-14.248 16.088a1.24 1.24 0 0 0-.31.935q.033.548.453.92l6.622 5.865q.42.371.969.339.548-.034.891-.421L2.839-21.234q1.974-2.23 3.854-2.236 1.879-.007 4.334 2.168 2.326 2.059 2.487 3.96t-1.812 4.13z" style="fill:#fff;fill-opacity:1;fill-rule:nonzero;stroke:none" transform="translate(335.64 778.177)"/><path d="M0 0q3.591-.403 7.646 2.304 3.228 2.158 4.484 3.93l-1.198 1.794-3.768-2.517a1.3 1.3 0 0 0-1.005-.203 1.3 1.3 0 0 0-.85.573l-3.188 4.772q-.31.466-.192.988.12.52.585.832l11.482 7.67q.467.31.994.222.527-.09.838-.556l8.413-12.594q.216-.324.186-.784a1.4 1.4 0 0 0-.28-.784Q22.078 3.071 19.058.328q-3.019-2.742-6.93-5.356-8.863-5.92-15.852-5.632-6.99.286-11.76 7.427-4.673 6.997-2.561 14.323 2.16 7.254 9.981 12.48 3.804 2.54 7.178 4.093t5.623 2.225q.334.12.748.007.412-.114.64-.376l3.942-4.58q.48-.563.3-1.227-.178-.665-.909-.893-2.32-.72-5.407-2.003a41 41 0 0 1-2.937-1.391 31 31 0 0 1-2.805-1.666q-4.234-2.828-5.38-6.707-1.037-3.806 1.311-7.323Q-3.555.428 0 0" style="fill:#fff;fill-opacity:1;fill-rule:nonzero;stroke:none" transform="translate(373.64 779.43)"/><path d="M0 0q.505.245 1.024.065.518-.18.745-.646l4.728-9.744 9.9 4.802-4.728 9.745a1.24 1.24 0 0 0-.046.985q.18.518.684.764l8.541 4.143q.505.246 1.024.065.519-.18.745-.646l13.636-28.108q.226-.465.047-.985a1.3 1.3 0 0 0-.685-.763l-8.541-4.143a1.3 1.3 0 0 0-1.024-.065 1.23 1.23 0 0 0-.744.645l-5.03 10.366-9.899-4.803 5.029-10.366q.225-.465.045-.984a1.29 1.29 0 0 0-.684-.764l-8.541-4.144a1.24 1.24 0 0 0-.985-.046q-.519.18-.745.646L-9.141-5.873a1.24 1.24 0 0 0-.045.985q.18.518.645.744z" style="fill:#fff;fill-opacity:1;fill-rule:nonzero;stroke:none" transform="translate(396.066 820.142)"/><path d="M0 0q-.14.498.128.977.269.48.809.631l8.557 2.408q.498.14.977-.128t.62-.766l5.939-21.101q1.695-6.023-2.213-9.813-3.606-3.435-11.664-5.704-8.308-2.339-12.968-1.229-5.146 1.24-6.958 7.679L-22.595-6.36a1.24 1.24 0 0 0 .128.977q.268.478.808.631l8.515 2.397q.54.151 1.019-.117.48-.269.619-.767l4.817-17.113q.807-2.867 2.496-3.69 1.689-.826 4.846.064 2.99.841 3.963 2.483.973 1.64.166 4.507z" style="fill:#fff;fill-opacity:1;fill-rule:nonzero;stroke:none" transform="translate(460.468 843.36)"/><path d="M0 0q1.433-1.472 2.918-3.002L.654 12.715q-.074.514.255.952.329.44.884.521l8.328 1.199q.556.08.996-.249t.513-.841l4.455-30.923a1.24 1.24 0 0 0-.256-.951 1.28 1.28 0 0 0-.884-.52l-9.567-1.379q-.214-.032-.577.07-.364.1-.564.289L-10.146-4.622l2.227-15.461a1.24 1.24 0 0 0-.254-.952 1.3 1.3 0 0 0-.884-.52l-8.329-1.2a1.25 1.25 0 0 0-.953.255q-.44.33-.513.842l-4.455 30.922a1.24 1.24 0 0 0 .256.952q.328.44.841.514l9.482 1.366q.255.035.644-.082.387-.12.503-.32l4.369-4.45a486 486 0 0 1 4.307-4.328Q-1.433 1.471 0 0" style="fill:#fff;fill-opacity:1;fill-rule:nonzero;stroke:none" transform="translate(500.891 838.457)"/><path d="M0 0a1 1 0 0 0-.818.345 1.37 1.37 0 0 0-.372.888l-1.687 31.195q-.027.517.275.923a1 1 0 0 0 .776.43l8.014.434q.474.024.818-.345.344-.37.372-.888L9.064 1.787A1.36 1.36 0 0 0 8.79.865Q8.487.458 8.014.434Z" style="fill:#fff;fill-opacity:1;fill-rule:nonzero;stroke:none" transform="translate(520.892 820.307)"/><path d="M0 0q-.517.015-.894.414a1.24 1.24 0 0 0-.361.918l.704 24.024-8.929.262a1.22 1.22 0 0 0-.916.415 1.33 1.33 0 0 0-.339.96l.172 5.866q.016.518.393.895t.939.361l29.848-.874q.56-.017.937-.416.378-.4.362-.918l-.172-5.866a1.3 1.3 0 0 0-.416-.937 1.29 1.29 0 0 0-.961-.36l-8.884.26L10.779.98a1.28 1.28 0 0 0-.394-.896 1.22 1.22 0 0 0-.939-.36Z" style="fill:#fff;fill-opacity:1;fill-rule:nonzero;stroke:none" transform="translate(544.484 820.95)"/><path d="M0 0q-.514.075-.841.515-.33.44-.255.953l4.495 30.916q.074.513.515.84.44.33.951.255l24.896-3.619q.512-.075.841-.514.329-.44.255-.954l-.908-6.234a1.3 1.3 0 0 0-.52-.884 1.24 1.24 0 0 0-.953-.253l-14.347 2.085-.497-3.416 12.256-1.782q.51-.074.841-.514.327-.44.252-.953l-.893-6.149a1.3 1.3 0 0 0-.52-.884 1.25 1.25 0 0 0-.953-.253l-12.261 1.738-.522-3.586 15.501-2.254q.552-.08.862-.518.306-.436.226-.992l-.906-6.234a1.28 1.28 0 0 0-.493-.844 1.22 1.22 0 0 0-.975-.251Z" style="fill:#fff;fill-opacity:1;fill-rule:nonzero;stroke:none" transform="translate(568.538 819.874)"/><path d="M0 0q-1.009 2.024-3.836 2.804l-7.322 2.02-3.534-12.812 6.988-1.928q2.994-.826 4.976.351Q-.748-8.389.125-5.227 1.008-2.024 0 0m-.774 12.613Q6.671 10.557 10.08 4.74q3.379-5.768 1.371-13.046-1.962-7.113-7.895-10.445-5.878-3.303-13.158-1.294l-18.303 5.048q-.542.15-.813.627a1.24 1.24 0 0 0-.133.977l8.308 30.116q.137.499.615.77a1.3 1.3 0 0 0 1.018.122z" style="fill:#fff;fill-opacity:1;fill-rule:nonzero;stroke:none" transform="translate(627.056 830.403)"/><path d="M0 0q-.508.24-.694.757-.183.516.035.985l13.32 28.259q.222.468.737.655a1.3 1.3 0 0 0 1.026-.054l23.965-11.296q.509-.239.674-.747a1.28 1.28 0 0 0-.054-.976l-2.687-5.699a1.34 1.34 0 0 0-.735-.702 1.23 1.23 0 0 0-1.006.044l-14.363 6.77-1.749-3.708 10.618-5.004q.468-.22.663-.718.194-.497-.044-1.005L26.999 1.92a1.24 1.24 0 0 0-.737-.654 1.24 1.24 0 0 0-.986.035L14.698 6.287l-4.544-9.642a1.28 1.28 0 0 0-.718-.662 1.22 1.22 0 0 0-1.005.044Z" style="fill:#fff;fill-opacity:1;fill-rule:nonzero;stroke:none" transform="translate(649.072 799.703)"/><path d="M0 0q-.785 2.733-4.198 4.923-3.415 2.19-6.209 1.751-2.792-.438-4.796-3.562-2.003-3.124-1.237-5.845.766-2.722 4.181-4.912t6.226-1.763 4.814 3.552Q.784-2.734 0 0m-2.586-20.616q-6.653-.86-15.077 4.545-8.428 5.405-10.421 11.809t2.783 13.85 11.441 8.325q6.662.878 15.089-4.527Q9.654 7.982 11.638 1.558q1.98-6.422-2.796-13.868t-11.428-8.306" style="fill:#fff;fill-opacity:1;fill-rule:nonzero;stroke:none" transform="translate(710.504 791.944)"/><path d="M0 0q-.373 2.82-3.427 5.489t-5.881 2.647-5.27-2.815q-2.442-2.796-2.085-5.599.355-2.805 3.41-5.474 3.053-2.67 5.898-2.663 2.843.008 5.285 2.803Q.374-2.819 0 0m-5.598-20.009q-6.708.131-14.243 6.719-7.537 6.588-8.565 13.217-1.026 6.627 4.796 13.288 5.823 6.66 12.541 6.547 6.722-.115 14.259-6.703T11.739-.175q1.012-6.644-4.809-13.304-5.822-6.661-12.528-6.53" style="fill:#fff;fill-opacity:1;fill-rule:nonzero;stroke:none" transform="translate(746.235 763.954)"/><path d="M0 0q-.34.39-.304.939.04.548.429.888l18.102 15.811-5.877 6.727q-.37.423-.317.955.05.531.474.9l4.419 3.861q.391.34.923.319.534-.02.905-.443L38.396 7.468q.368-.422.332-.972a1.24 1.24 0 0 0-.427-.888l-4.419-3.86a1.3 1.3 0 0 0-.971-.332 1.3 1.3 0 0 0-.917.459L26.146 8.57 8.043-7.241a1.28 1.28 0 0 0-.923-.319 1.22 1.22 0 0 0-.903.443Z" style="fill:#fff;fill-opacity:1;fill-rule:nonzero;stroke:none" transform="translate(750.914 727.286)"/><path d="m0 0-4.453-3.046 1.487-2.172q.925-1.353 2.176-1.727 1.247-.374 2.068.186.924.633 1.054 1.898.129 1.264-.822 2.653zm-9.866-6.749-5.306-3.63 1.68-2.458q1.023-1.495 2.407-1.987 1.382-.493 2.557.311 1.245.853 1.343 2.279.096 1.425-.927 2.921zM-27.32-6.3a1.24 1.24 0 0 0-.192.967q.101.54.529.833l25.784 17.64q.428.292.967.19a1.24 1.24 0 0 0 .833-.528l9.843-14.388q1.267-1.853 1.82-3.695.557-1.842.458-3.687-.144-1.928-.923-3.428-.778-1.499-2.379-2.596-1.96-1.34-4.04-1.508-2.081-.17-4.249 1.014.519-2.363.072-4.081-.847-3.194-4.088-5.41-3.597-2.46-7.717-1.254-3.88 1.163-6.73 5.33z" style="fill:#fff;fill-opacity:1;fill-rule:nonzero;stroke:none" transform="translate(793.798 715.261)"/><path d="m0 0 3.626-7.16L8.568-.304zm-4.283-19.339c-.089.18-.128.411-.108.694q.026.424.237.676l2.779 3.874L-8.686.341l-4.767.052a1.5 1.5 0 0 0-.697.229q-.348.21-.504.518l-4.035 7.968q-.391.77-.026 1.39.363.62 1.211.565l35.847-1.725q.287.002.657-.247.368-.25.484-.48l3.45-6.814q.138-.27.1-.675-.037-.405-.226-.696L2.519-28.567q-.498-.64-1.172-.595-.677.046-1.066.815z" style="fill:#fff;fill-opacity:1;fill-rule:nonzero;stroke:none" transform="translate(802.742 674.58)"/><path d="m0 0 5.325-15.417a1.35 1.35 0 0 0-.042-.996 1.2 1.2 0 0 0-.744-.69l-7.015-2.424a1.24 1.24 0 0 0-.983.071q-.493.24-.664.729L-12.93 6.764q-.182.53.058 1.024.24.493.729.663l29.529 10.203q.49.168.976-.051.487-.22.671-.751l3.057-8.85q.168-.489-.063-1.003-.235-.515-.724-.683Z" style="fill:#fff;fill-opacity:1;fill-rule:nonzero;stroke:none" transform="translate(816.72 636.237)"/><path d="m0 0 3.554-15.919a1.36 1.36 0 0 0-.156-.985 1.19 1.19 0 0 0-.817-.602l-7.242-1.617a1.24 1.24 0 0 0-.97.181 1.24 1.24 0 0 0-.577.8l-5.875 26.321q-.124.548.172 1.011.294.463.799.577l30.491 6.806q.505.114.964-.16.459-.272.581-.82l2.04-9.139q.113-.506-.177-.991-.29-.484-.794-.598Z" style="fill:#fff;fill-opacity:1;fill-rule:nonzero;stroke:none" transform="translate(825.99 604.699)"/><path d="M0 0q-1.98-.103-3.517-.896a7.75 7.75 0 0 1-2.59-2.144q-2.183-2.879-1.931-7.706a26.3 26.3 0 0 1 1.11-6.38l-.006.087q.561-1.613 1.017-2.908t.941-2.305q.295-.676-.065-1.257-.358-.58-1.09-.618l-6.47-.208q-.347-.018-.726.222a1.3 1.3 0 0 0-.526.577q-1.233 2.917-1.933 6.403t-.914 7.579q-.494 9.523 3.533 15.134 4.102 5.874 12.289 6.3 4.397.23 7.827-.932 3.43-1.16 5.849-3.627t3.8-6.154q1.38-3.688 1.629-8.47.217-4.181-.151-7.483-.368-3.303-1.022-5.671-.07-.349-.4-.626a1.46 1.46 0 0 0-.674-.337l-6.309-.804q-.771-.126-1.21.412-.44.54-.216 1.242.59 1.932 1.212 4.946.31 1.485.451 2.94.14 1.456.063 2.92-.251 4.827-2.848 7.391Q4.529.193.004-.043z" style="fill:#fff;fill-opacity:1;fill-rule:nonzero;stroke:none" transform="translate(839.575 559.525)"/><path d="m0 0-1.115-16.273a1.37 1.37 0 0 0-.43-.9 1.2 1.2 0 0 0-.954-.346l-7.404.509a1.24 1.24 0 0 0-.878.448q-.36.415-.325.93l1.844 26.907q.038.56.453.921.413.36.931.325l31.167-2.136q.516-.035.88-.428.361-.392.323-.951l-.641-9.343q-.035-.516-.45-.899-.416-.382-.932-.348z" style="fill:#fff;fill-opacity:1;fill-rule:nonzero;stroke:none" transform="translate(833.15 520.24)"/><path d="M0 0q.511-.097.818-.553.308-.453.202-1.004l-1.675-8.73a1.25 1.25 0 0 0-.551-.818 1.24 1.24 0 0 0-.964-.211l-21.528 4.129q-6.144 1.18-7.785 6.371-1.46 4.761.117 12.984 1.627 8.475 4.704 12.147 3.411 4.047 9.98 2.786l21.105-4.047a1.24 1.24 0 0 0 .816-.553q.31-.454.202-1.005l-1.666-8.687a1.3 1.3 0 0 0-.56-.861 1.24 1.24 0 0 0-.962-.21l-17.46 3.35q-2.925.561-4.418-.581t-2.11-4.362q-.587-3.051.446-4.656t3.958-2.165z" style="fill:#fff;fill-opacity:1;fill-rule:nonzero;stroke:none" transform="translate(849.432 472.062)"/><path d="m0 0-5.132 1.661-.811-2.505q-.505-1.56-.037-2.776.469-1.219 1.411-1.524 1.069-.345 2.148.326 1.079.672 1.596 2.272zm-11.372 3.68-6.118 1.979-.916-2.832q-.558-1.725-.104-3.12.456-1.393 1.812-1.833 1.436-.463 2.623.33 1.188.797 1.746 2.52zm-10.317 14.087q.158.492.647.743.49.25.982.091L9.664 8.983q.492-.16.743-.65.25-.488.089-.981L5.129-9.234q-.69-2.135-1.809-3.701a10.8 10.8 0 0 0-2.639-2.616q-1.614-1.063-3.276-1.366-1.661-.3-3.51.297-2.258.732-3.663 2.273-1.406 1.543-1.796 3.984-1.552-1.857-3.183-2.553-3.046-1.282-6.783-.073-4.145 1.342-5.709 5.339-1.452 3.782.101 8.584z" style="fill:#fff;fill-opacity:1;fill-rule:nonzero;stroke:none" transform="translate(835.932 445.99)"/><path d="m0 0-24.345 3.696.976 6.433 7.769-1.18 2.955 19.472-7.769 1.178.913 6.012a26 26 0 0 1 3.423-.291q1.717-.032 2.806.309 1.278.415 2.086 1.315.807.903 1.131 2.372l8.066-1.224L-6.62 7.587.976 6.433Z" style="fill:#a3c2da;fill-opacity:1;fill-rule:nonzero;stroke:none" transform="translate(504.539 226.709)"/><path d="M0 0q.157 3.023-.253 5.011c-.41 1.988-.7 2.372-1.277 3.136q-.609.833-1.402 1.227-.795.39-1.744.441a4.1 4.1 0 0 1-1.629-.253q-.806-.298-1.573-1.083-.688-.692-1.21-2.068-.523-1.376-.61-3.05-.094-1.8.308-2.985.402-1.188 1.165-1.928A4.7 4.7 0 0 1-6.45-2.597q1.01-.328 2.26-.393a8.6 8.6 0 0 1 2.177.175q1.126.23 1.817.494.015.274.078.785Q-.053-1.026 0 0m9.174-1.882q-.248-4.75-1.553-8.639-1.305-3.892-3.776-6.595-2.548-2.75-6.19-4.099-3.641-1.352-8.814-1.084-1.75.093-3.637.416-1.888.325-2.503.531l.381 7.323.724-.039q.682-.387 1.948-.853 1.267-.467 3.541-.584a12.7 12.7 0 0 1 3.548.303q1.726.398 3.004 1.386 1.333 1.032 2.268 2.637.935 1.606 1.364 4.065-2.064-1.148-3.811-1.719-1.746-.574-4.295-.441a13.2 13.2 0 0 0-3.659.704q-1.735.603-3.129 1.754-1.846 1.6-2.848 4.021-1 2.42-.806 6.168.15 2.898 1.266 5.309a12.65 12.65 0 0 0 3.035 4.139q1.892 1.707 4.57 2.593 2.678.888 5.901.722 3.249-.17 5.725-1.213 2.478-1.045 4.179-3.012 1.989-2.233 2.902-5.639.912-3.405.665-8.154" style="fill:#a3c2da;fill-opacity:1;fill-rule:nonzero;stroke:none" transform="translate(529.725 247.243)"/><path d="M0 0q.123-2.726-.787-5.022a10.3 10.3 0 0 0-2.79-3.957q-1.902-1.664-4.528-2.624-2.625-.958-6.449-1.132-4.35-.196-7.495.388-3.146.582-5.135 1.394l-.366 8.075.899.042q2.109-1.209 4.915-2.033t5.08-.722q1.35.064 2.925.371 1.579.31 2.617 1.159a4.8 4.8 0 0 1 1.292 1.599q.471.937.395 2.611-.073 1.65-.839 2.504-.765.853-1.984 1.201-1.22.37-2.896.344a101 101 0 0 1-2.953-.084l-1.598-.072-.298 6.549 1.475.067q1.7.078 3.118.291 1.418.216 2.398.711.977.519 1.502 1.396.524.875.458 2.325-.051 1.125-.608 1.813-.557.69-1.35 1.054-.92.408-2.126.506-1.21.095-2.058.056a12.7 12.7 0 0 1-2.785-.451 22 22 0 0 1-2.738-.952 17 17 0 0 1-2.152-1.136 87 87 0 0 1-1.657-1.039l-.775-.036-.361 7.974q1.887.913 5.115 1.822 3.228.911 6.628 1.066 3.323.15 5.789-.314 2.463-.466 4.236-1.488 1.955-1.088 2.987-2.856 1.031-1.77 1.134-4.046.145-3.174-1.585-5.645-1.728-2.47-4.697-3.306l.016-.351q1.335-.14 2.618-.557t2.533-1.438q1.168-.924 1.976-2.428Q-.098 2.126 0 0" style="fill:#a3c2da;fill-opacity:1;fill-rule:nonzero;stroke:none" transform="translate(569.992 237.186)"/><path d="m0 0-1.817 12.558-7.52-13.91zm14.881-4.623-4.98-.72 1.259-8.693-8.941-1.294L.961-6.637l-16.222-2.349-.996 6.886 12.826 23.704 9.239 1.336L8.941 1.294l4.977.722z" style="fill:#a3c2da;fill-opacity:1;fill-rule:nonzero;stroke:none" transform="translate(588.063 243.757)"/><path d="M0 0c-24.815-41.355-60.963-50.709-66.583-50.709-5.618 0-41.756 9.354-66.573 50.709-25.635 42.728-29.825 63.699-29.379 105.025a5111 5111 0 0 0 1.292 72.618H28.082c.201-7.641.913-36.716 1.3-72.618C29.819 63.699 25.635 42.728 0 0" style="fill:#0067b3;fill-opacity:1;fill-rule:nonzero;stroke:none" transform="translate(606.793 463.895)"/><path d="m0 0-1.801-1.989S8.638-9.718 34.262-9.718c25.62 0 40.667 5.717 42.684 8.415 0 0-3.559 2.039-7.931 3.222-5.262 1.421-9.655 2.527-9.655 2.527L45.795 6.402l-15.406.574-14.026-1.262-9.809-2.443Z" style="fill:#fff;fill-opacity:1;fill-rule:nonzero;stroke:none" transform="translate(502.883 527.46)"/><path d="M0 0s11.127 3.706 26.634 3.706c15.503 0 31.691-5.729 31.691-5.729S47.197-5.059 26.973-5.059C6.742-5.059 0 0 0 0" style="fill:#8a8e9d;fill-opacity:1;fill-rule:nonzero;stroke:none" transform="translate(512.399 526.692)"/><path d="M0 0s11.127 3.706 26.634 3.706c15.503 0 31.691-5.729 31.691-5.729S47.197-5.059 26.973-5.059C6.742-5.059 0 0 0 0Z" style="fill:none;stroke:#231f20;stroke-width:.899;stroke-linecap:butt;stroke-linejoin:miter;stroke-miterlimit:4;stroke-dasharray:none;stroke-opacity:1" transform="translate(512.399 526.692)"/><path d="M0 0c-2.003-1.673-3.921-3.143-6.463-3.956-2.665-.851-5.44-1.492-8.17-2.091-5.518-1.21-11.219-1.793-16.852-2.114-3.211-.184-6.43-.284-9.648-.325-3.718-.047-7.441.046-11.154.329-3.421.263-6.832.66-10.218 1.225-2.719.457-5.415 1.078-8.038 1.925-2.699.869-5.834 1.836-8.206 3.399C-81.994.529-72.1 3.835-71.01 4.221c6.956 2.451 14.549 3.48 21.896 3.629 4.634.093 9.306-.037 13.936-.251 3.435-.16 6.866-.455 10.268-.955 6.367-.938 12.89-2.297 18.935-4.534 1.9-.702 3.777-1.457 5.666-2.184" style="fill:none;stroke:#231f20;stroke-width:1.798;stroke-linecap:butt;stroke-linejoin:miter;stroke-miterlimit:4;stroke-dasharray:none;stroke-opacity:1" transform="translate(580.407 526.502)"/><path d="m0 0-15.634-3.677 3.832 14.256 15.787 5.668zm108.969 90.342 5.703-5.467 8.845 10.782-13.507 12.633-4.035-3.227c-2.467-2.449-6.226 2.847-8.348 3.765 1.183 1.217 1.933 2.286 2.925 3.681.942 1.327 2.233 2.705 3.255 3.977.848 1.05 1.722 2.078 2.579 3.121q2.11 2.579 4.228 5.155l-4.509 4.282-31.999-34.282-.444-.486h-3.401l-2.817-2.816v-2.347l-.434-.439-56.639-58.33-.509-.527-.732.076-2.322.235-.461-.924-.633-2.848-.132-.582-.491-.339-4.383-3.033c-.964-.639-2.446-.045-3.499.062a15.7 15.7 0 0 1-4.991-.283c-1.734-.376-3.279-1.38-5.093-1.333-1.735.044-3.041 1.784-4.327 2.782-1.578 1.231-3.293 2.272-5.33 2.435-.755.056-.945-.191-1.018-.291-1.038-1.382-1.891-4.081-1.531-6.22.176-.965.561-1.659 1.157-2.054 1.041-.699 1.691-1.057 2.08-1.26l1.458-.757.502-1.113c.844-1.867.126-3.883-.495-5.679-.681-1.975-1.101-4.122-1.511-6.077-.597-2.872-.949-6.103-.949-9.051l-.613-1.225-.919-.308c-2.29-.723-2.918-2.219-2.918-2.768 0-1.465.596-5.321 3.338-5.568 3.508-.313 5.326 2.342 5.341 2.365.366.548.677 1.617.789 2.153l.264 1.315 1.331-.099c6.473-.47 12.36-.781 18.834.316l1.153.209.498-1.057c.018-.037 1.98-4.105 5.247-3.848 1.93.145 3.611 1.097 4.398 2.482.354.627.656 1.61.092 2.745-1.497 2.993-4.27 5.184-4.292 5.213-2.525 1.964-.259 5.529.579 7.752 1.118 2.969.264 5.741-.409 8.678-.599 2.615-.055 4.581 1.06 6.967l.344.738.797.126c.011.006 1.76.313 3.166 1.158.441.347.752 2.495.617 4.315l-.04.692c0 .009.484.492.484.492s55.96 56.303 55.96 56.305c.838.838 2.446.668 3.496 1.242 1.903 1.038 3.397 4.21 4.744 5.884.904 1.129 2.643 4.029 4.391 3.798 1.54-.206 3.02-2.001 4.36-2.781 1.248-.725 2.737-1.698 1.385-3.165l-2.681-2.919 14.087-12.92 7.929 6.607-4.795 5.753-3.209-2.722-1-.843-.981.86-2.697 2.364-1.138.994.987 1.136 3.521 4.061-3.853 4.402-1.025 1.164 1.196.993 2.022 1.692 1.152.963.98-1.153 2.674-3.17 3.564 3.303 1.008.94 1.029-.913 3.032-2.704 1.303-1.149-1.319-1.136z" style="fill:#f2ce00;fill-opacity:1;fill-rule:nonzero;stroke:none" transform="translate(502.96 485.845)"/><path d="m0 0-15.634-3.677 3.832 14.256 15.787 5.668zm108.969 90.342 5.703-5.467 8.845 10.782-13.507 12.633-4.035-3.227c-2.467-2.449-6.226 2.847-8.348 3.765 1.183 1.217 1.933 2.286 2.925 3.681.942 1.327 2.233 2.705 3.255 3.977.848 1.05 1.722 2.078 2.579 3.121q2.11 2.579 4.228 5.155l-4.509 4.282-31.999-34.282-.444-.486h-3.401l-2.817-2.816v-2.347l-.434-.439-56.639-58.33-.509-.527-.732.076-2.322.235-.461-.924-.633-2.848-.132-.582-.491-.339-4.383-3.033c-.964-.639-2.446-.045-3.499.062a15.7 15.7 0 0 1-4.991-.283c-1.734-.376-3.279-1.38-5.093-1.333-1.735.044-3.041 1.784-4.327 2.782-1.578 1.231-3.293 2.272-5.33 2.435-.755.056-.945-.191-1.018-.291-1.038-1.382-1.891-4.081-1.531-6.22.176-.965.561-1.659 1.157-2.054 1.041-.699 1.691-1.057 2.08-1.26l1.458-.757.502-1.113c.844-1.867.126-3.883-.495-5.679-.681-1.975-1.101-4.122-1.511-6.077-.597-2.872-.949-6.103-.949-9.051l-.613-1.225-.919-.308c-2.29-.723-2.918-2.219-2.918-2.768 0-1.465.596-5.321 3.338-5.568 3.508-.313 5.326 2.342 5.341 2.365.366.548.677 1.617.789 2.153l.264 1.315 1.331-.099c6.473-.47 12.36-.781 18.834.316l1.153.209.498-1.057c.018-.037 1.98-4.105 5.247-3.848 1.93.145 3.611 1.097 4.398 2.482.354.627.656 1.61.092 2.745-1.497 2.993-4.27 5.184-4.292 5.213-2.525 1.964-.259 5.529.579 7.752 1.118 2.969.264 5.741-.409 8.678-.599 2.615-.055 4.581 1.06 6.967l.344.738.797.126c.011.006 1.76.313 3.166 1.158.441.347.752 2.495.617 4.315l-.04.692c0 .009.484.492.484.492s55.96 56.303 55.96 56.305c.838.838 2.446.668 3.496 1.242 1.903 1.038 3.397 4.21 4.744 5.884.904 1.129 2.643 4.029 4.391 3.798 1.54-.206 3.02-2.001 4.36-2.781 1.248-.725 2.737-1.698 1.385-3.165l-2.681-2.919 14.087-12.92 7.929 6.607-4.795 5.753-3.209-2.722-1-.843-.981.86-2.697 2.364-1.138.994.987 1.136 3.521 4.061-3.853 4.402-1.025 1.164 1.196.993 2.022 1.692 1.152.963.98-1.153 2.674-3.17 3.564 3.303 1.008.94 1.029-.913 3.032-2.704 1.303-1.149-1.319-1.136z" style="fill:none;stroke:#231f20;stroke-width:1.798;stroke-linecap:butt;stroke-linejoin:miter;stroke-miterlimit:4;stroke-dasharray:none;stroke-opacity:1" transform="translate(502.96 485.845)"/><path d="m0 0-2.304 15.788 16.251-3.067 2.451-16.245zm28.618-10.066c-1.038 1.733-3.517 1.238-4.816 2.611-1.647 1.738-.548 4.465-.594 6.516-.031 1.506-2.047 17.449-1.856 17.477.659-.009 1.333-.093 1.993-.146 2.093 1.068 3.378 2.349 3.328 4.801-.025 1.392-.29 3.388-1.331 4.421-1.107 1.106-2.685.488-3.858-.158-.53-.297-1.252-.724-1.601-1.235-.446-.651-.432-1.469-1.089-2.033-3.22-2.779-6.963-.581-10.563-.154-4.212.495-8.01-.085-11.256 3.239-.49.499-1.986 5.038-2.269 5.008-.69-.071-1.805.428-2.472.619-2.53.738-3.636 1.711-5.109 3.761-1.475 2.049-3.547 3.517-5.324 5.284-4.776 4.735-9.467 9.7-14.049 14.631-5.054 5.436-10.312 10.726-15.511 16.024-4.208 4.29-8.378 8.617-12.595 12.898-1.731 1.759-3.429 3.558-5.147 5.328l-.43.439v2.348l-2.819 2.815h-3.401l-.45.487-31.994 34.282-4.507-4.283 7.551-9.192c.549-.548 5.467-6.703 5.371-6.747-2.295-1.09-4.393-2.434-6.503-3.841-1.124-.748-1.458-.197-2.487.631-1.109.892-2.218 1.788-3.33 2.678l-13.507-12.634 8.844-10.781 5.7 5.466-3.45 2.951-1.321 1.136 1.3 1.149 3.035 2.704 1.029.913 1.006-.94 3.559-3.304 2.682 3.171.977 1.153 1.153-.963 2.018-1.692 1.201-.994-1.026-1.164-3.851-4.402 3.519-4.061.987-1.135-1.136-.995-2.692-2.363-.982-.86-.996.843-3.215 2.722-4.798-5.753 7.932-6.607 14.085 12.92-2.682 2.92-1.367 1.488c2.118 1.052 3.944 2.395 5.943 3.643 3.136 1.961 5.29-2.054 6.692-4.146 1.157-1.728 2.301-3.787 4.196-4.797 2.083-1.103 3.875-1.939 5.405-3.792 1.473-1.785 3.444-3.198 5.032-4.894 4.484-4.791 9.197-9.422 13.87-14.032a1387 1387 0 0 0 16.013-16.075c4.338-4.417 8.699-8.823 13.092-13.188 1.831-1.822 3.641-3.66 5.459-5.492 1.561-1.566-.669-4.649 2.128-5.991 1.568-.749 3.301-.716 4.042-2.586 1.113-2.827.286-5.994.324-8.932.053-3.358 1.082-6.617 1.108-9.978.018-2.298-1.777-3.894-3.26-5.416-1.245-1.275-2.555-2.994-2.323-4.887.267-2.131 2.816-3.529 4.811-3.585 3.325-.085 3.682 2.976 5.88 4.41 3.073 2.011 6.793.055 9.994-.495 3.74-.641 7.424.573 11.162.562.277 0 1.413-3.167 1.712-3.608.877-1.298 2.221-2.255 3.838-2.26q.411-.004.829.102c2.394.593 4.612 3.634 3.167 6.04" style="fill:#f2ce00;fill-opacity:1;fill-rule:nonzero;stroke:none" transform="translate(575.312 485.692)"/><path d="m0 0-2.304 15.788 16.251-3.067 2.451-16.245zm28.618-10.066c-1.038 1.733-3.517 1.238-4.816 2.611-1.647 1.738-.548 4.465-.594 6.516-.031 1.506-2.047 17.449-1.856 17.477.659-.009 1.333-.093 1.993-.146 2.093 1.068 3.378 2.349 3.328 4.801-.025 1.392-.29 3.388-1.331 4.421-1.107 1.106-2.685.488-3.858-.158-.53-.297-1.252-.724-1.601-1.235-.446-.651-.432-1.469-1.089-2.033-3.22-2.779-6.963-.581-10.563-.154-4.212.495-8.01-.085-11.256 3.239-.49.499-1.986 5.038-2.269 5.008-.69-.071-1.805.428-2.472.619-2.53.738-3.636 1.711-5.109 3.761-1.475 2.049-3.547 3.517-5.324 5.284-4.776 4.735-9.467 9.7-14.049 14.631-5.054 5.436-10.312 10.726-15.511 16.024-4.208 4.29-8.378 8.617-12.595 12.898-1.731 1.759-3.429 3.558-5.147 5.328l-.43.439v2.348l-2.819 2.815h-3.401l-.45.487-31.994 34.282-4.507-4.283 7.551-9.192c.549-.548 5.467-6.703 5.371-6.747-2.295-1.09-4.393-2.434-6.503-3.841-1.124-.748-1.458-.197-2.487.631-1.109.892-2.218 1.788-3.33 2.678l-13.507-12.634 8.844-10.781 5.7 5.466-3.45 2.951-1.321 1.136 1.3 1.149 3.035 2.704 1.029.913 1.006-.94 3.559-3.304 2.682 3.171.977 1.153 1.153-.963 2.018-1.692 1.201-.994-1.026-1.164-3.851-4.402 3.519-4.061.987-1.135-1.136-.995-2.692-2.363-.982-.86-.996.843-3.215 2.722-4.798-5.753 7.932-6.607 14.085 12.92-2.682 2.92-1.367 1.488c2.118 1.052 3.944 2.395 5.943 3.643 3.136 1.961 5.29-2.054 6.692-4.146 1.157-1.728 2.301-3.787 4.196-4.797 2.083-1.103 3.875-1.939 5.405-3.792 1.473-1.785 3.444-3.198 5.032-4.894 4.484-4.791 9.197-9.422 13.87-14.032a1387 1387 0 0 0 16.013-16.075c4.338-4.417 8.699-8.823 13.092-13.188 1.831-1.822 3.641-3.66 5.459-5.492 1.561-1.566-.669-4.649 2.128-5.991 1.568-.749 3.301-.716 4.042-2.586 1.113-2.827.286-5.994.324-8.932.053-3.358 1.082-6.617 1.108-9.978.018-2.298-1.777-3.894-3.26-5.416-1.245-1.275-2.555-2.994-2.323-4.887.267-2.131 2.816-3.529 4.811-3.585 3.325-.085 3.682 2.976 5.88 4.41 3.073 2.011 6.793.055 9.994-.495 3.74-.641 7.424.573 11.162.562.277 0 1.413-3.167 1.712-3.608.877-1.298 2.221-2.255 3.838-2.26q.411-.004.829.102c2.394.593 4.612 3.634 3.167 6.04z" style="fill:none;stroke:#231f20;stroke-width:1.798;stroke-linecap:butt;stroke-linejoin:miter;stroke-miterlimit:4;stroke-dasharray:none;stroke-opacity:1" transform="translate(575.312 485.692)"/><path d="m0 0 .076-1.357s3.41-.69 8.009.461c2.702.675 4.433 1.528 8.85 2.183 5.402.806 8.048 1.496 15.749 1.726 3.502.105 8.287.165 11.382-.116 5.061-.46 9.542-1.373 13.338-2.3 4.712-1.148 7.226-1.993 10.297-2.936 4.139-1.262 8.005.629 8.785 1.672 0 0-2.411 1.576-6.783 2.76-5.262 1.42-9.655 2.526-9.655 2.526L46.483 6.575l-15.407.575-13.796-.921-9.885-2.412Z" style="fill:#fff;fill-opacity:1;fill-rule:nonzero;stroke:none" transform="translate(502.196 527.285)"/><path d="M0 0c-.521-.351-1.044-.711-1.578-1.073-1.207 3.886-1.959 7.931-2.91 11.884-1.268 5.28-2.516 10.56-3.775 15.84q-.412 1.737-.827 3.473l16.095 4.14 1.84-8.276 5.518.918-.691 8.048 19.775 1.724 1.034-7.011 4.367-.232.922 7.588 21.419-1.687-1.993-7.511 6.553-1.263 2.493 8.316 16.247-4.409q-.98-4.664-1.953-9.332C81.339 15.398 80.443 9.721 79.2 3.989c-.205-.948-.727-3.794-1.262-4.79-.318-.582-2.067.511-2.701.738-1.724.621-3.413 1.394-5.167 1.942-3.022.944-6.074 1.777-9.169 2.447-6.128 1.328-12.378 2.125-18.637 2.476-3.577.2-7.166.256-10.748.193-4.255-.074-8.499-.344-12.718-.907-3.584-.48-7.143-1.21-10.602-2.266C5.309 2.943 2.508 1.693 0 0" style="fill:#fff;fill-opacity:1;fill-rule:nonzero;stroke:none" transform="translate(502.47 527.303)"/><path d="M0 0c-.521-.351-1.044-.711-1.578-1.073-1.207 3.886-1.959 7.931-2.91 11.884-1.268 5.28-2.516 10.56-3.775 15.84q-.412 1.737-.827 3.473l16.095 4.14 1.84-8.276 5.518.918-.691 8.048 19.775 1.724 1.034-7.011 4.367-.232.922 7.588 21.419-1.687-1.993-7.511 6.553-1.263 2.493 8.316 16.247-4.409q-.98-4.664-1.953-9.332C81.339 15.398 80.443 9.721 79.2 3.989c-.205-.948-.727-3.794-1.262-4.79-.318-.582-2.067.511-2.701.738-1.724.621-3.413 1.394-5.167 1.942-3.022.944-6.074 1.777-9.169 2.447-6.128 1.328-12.378 2.125-18.637 2.476-3.577.2-7.166.256-10.748.193-4.255-.074-8.499-.344-12.718-.907-3.584-.48-7.143-1.21-10.602-2.266C5.309 2.943 2.508 1.693 0 0Z" style="fill:none;stroke:#231f20;stroke-width:1.798;stroke-linecap:butt;stroke-linejoin:miter;stroke-miterlimit:4;stroke-dasharray:none;stroke-opacity:1" transform="translate(502.47 527.303)"/><path d="M0 0q-.546.14-1.046.283c-4.505 1.304-6.295 2.649-6.295 2.649S3.786 6.639 19.293 6.639C34.796 6.639 50.984.91 50.984.91S48.098.121 42.59-.653q-.206-.028-.416-.058" style="fill:none;stroke:#231f20;stroke-width:.899;stroke-linecap:butt;stroke-linejoin:miter;stroke-miterlimit:4;stroke-dasharray:none;stroke-opacity:1" transform="translate(519.74 523.76)"/><path d="M0 0c-3.555-2.13-7.608-4.295-12.902-3.966-5.292.327-6.285.327-10.919-.662-4.625-.993-10.916-3.638-10.916-3.638l-2.978 4.627s.664 3.972 7.945 5.296c7.275 1.321 13.562 2.645 18.526 5.292 4.958 2.648 7.94 3.972 7.94 3.972V7.942l-5.63-5.619h3.64l3.97 3.636s1.982-.662 2.646-1.987C1.984 2.652 1.654.994 0 0" style="fill:#0075b1;fill-opacity:1;fill-rule:nonzero;stroke:none" transform="translate(699.486 707.229)"/><path d="M0 0h-2.49l-2.976-2.975s.332-1.657 1.661-2.982c1.315-1.322 2.974 0 2.974 0l-.337 3.312h2.98s.997-.994 2.314-2.979c1.326-1.987 3.308-1.987 3.308-1.987s.334.995.666 3.642C8.428-1.326 10.415 0 10.415 0s.989-3.969 2.646-5.298c1.653-1.318 6.286-3.967 6.286-5.95 0-1.985-.332-1.324 3.967-3.309 4.301-1.985 7.611-2.977 7.611-2.977s.994-2.648-3.635-.992c-4.637 1.655-8.94 4.631-8.94 4.631s-.987-2.315-.655-4.301c.328-1.986 2.316-4.963 5.619-6.945 3.313-1.984 7.611-3.97 7.611-3.97l-2.978-.335s-1.654-.328-4.3 1.328c-2.644 1.648-4.963 3.97-4.963 3.97s1.655-2.322.992-3.638c-.661-1.325-2.313-.665 0-2.981 2.312-2.316 4.965-3.968 6.287-5.293 1.327-1.325 1.327-.993-1.322-.993-2.653 0-5.626 2.318-5.626.331 0-2.141-1.682-2.509-.695-4.706 1.097-2.453 2.17-4.935 3.485-7.283.657-1.172 1.433-2.87 2.479-3.745.97-.811 1.837-.417 2.926.456 1.266 1.015 2.012 2.62 2.962 3.9 1.512 2.034 3.61 3.928 4.869 6.1.637 1.101 1.016 2.448 1.506 3.628l-1.32 5.948-2.98 3.973-.328 5.292s5.62.329 2.644 6.949c-2.974 6.616-3.638 9.594-2.316 10.912 1.322 1.329 2.98.666 1.652 2.323-2.407 3.009-1.652 8.596-7.606 10.584-5.954 1.984-10.256 3.638-15.878 1.648C4.79 7.28 3.468 7.609-.5 4.962c-3.97-2.648-5.63-2.648-6.625-3.641-.985-.99-2.641-5.624-2.641-5.624l2.973-1.654s-1.317 1.654-.332 3.312C-6.13-.995-2.49 1.321-2.49 1.321L-.52.606" style="fill:#a3c2da;fill-opacity:1;fill-rule:nonzero;stroke:none" transform="translate(603.723 645.04)"/><path d="M0 0c.093-.26.111-.436.111-.436l-.172-.031" style="fill:#a3c2da;fill-opacity:1;fill-rule:nonzero;stroke:none" transform="translate(699.704 618.678)"/><path d="M0 0s-.193.214-.479.535" style="fill:#a3c2da;fill-opacity:1;fill-rule:nonzero;stroke:none" transform="translate(699.156 630.15)"/><path d="M0 0c-1.157-1.858-.567-4.471-.69-6.58-.086-1.377-.374-3.214.939-4.145 1.679-1.193 4.843.413 6.572.894 9.603 2.646 13.564 8.268 22.501 20.178 8.927 11.908-1.659 36.723 4.967 48.295 6.614 11.581 18.851 10.257 32.084-6.946 13.232-17.2 16.21-34.403 21.173-47.966 2.044-5.589 3.863-11.966 5.298-17.532h-.078l3.268-14.28c.892-4.863 4.188-27.446 4.56-30.558 1.285-10.743 2.217-21.539 3.824-32.242 1.984-13.23 4.957-21.502 4.957-21.502s-1.653.328-7.935 9.927c-6.293 9.591-6.619 17.53-7.941 23.816-1.326 6.285-1.66 14.226-1.66 16.868 0 2.649-1.648 4.301-1.316 1.989.33-2.318-.364-8.969.66-17.206.175-1.395.331-2.794.495-4.19.074-.649.769-2.504.219-3.025-.913-.86-4.823 3.903-5.343 4.567-2.317 2.981-5.629 9.269-5.629 9.269-.876 3.295-2.885 6.337-4.772 9.131-1.341 1.987-2.722 4.228-4.404 5.958-.635.653-1.388 1.293-2.087 1.882-.531.449-1.071.904-1.579 1.399-1.169 1.124-2.481 2.083-3.701 3.148l-.051.037c-1.319.808-2.491 1.834-3.585 2.925-2.641 2.645-3.967 9.259-3.967 9.259s-.667-5.291-4.301-8.271c-3.642-2.976-6.95.329-6.95.329s3.64-4.955-1.65-7.275c-5.294-2.313-8.6 1.987-8.6 1.987s2.316-7.276-3.645-7.939c-5.953-.665-6.948 1.327-6.948 1.327s-1.315-4.967-5.62-4.967c-4.299 0-6.611 3.307-6.611 3.307v-3.307s-.664-.995-3.973-.663c-3.305.329-3.967 2.318-7.94 7.609-3.972 5.294-6.944 11.913-9.592 15.55-2.651 3.64-6.95 5.289-11.91 7.608-4.965 2.315-8.598 0-8.928-3.639-.33-3.634.33-6.614-3.977-7.276-4.3-.663-6.288 2.977-6.288 2.977s1.326-2.648 1.326-7.943c0-5.289-1.98-7.939-4.63-9.256-2.649-1.327-2.316 2.972-2.316 2.972l-2.31 1.984.654-6.283-3.966-5.293-2.648-2.317s.332 3.97-.331 6.945c-.659 2.98-4.629 3.639-4.629 3.639l2.313-9.59s0-1.653-2.641-1.984c-2.648-.333-1.989-4.299-2.323-6.29-.325-1.981-2.643-2.646-2.643-2.646l-.99 1.986 1.981 5.625-2.311.992-1.326-7.276-2.647-.994-1.984-1.983s1.323-2.982.661-4.964c-.661-1.987-3.309-1.324-3.309-1.324l1.325 2.315h-1.987l.992 4.301-1.986.66v-7.939s-1.652-2.978-2.644-5.621c-.989-2.644 0-9.59 0-9.59s-.66-2.319-1.651-2.978c-.995-.662-3.971-.332-3.971-.332l-2.32 2.978.662 3.972-.332 4.291-1.98-9.257 3.308-3.971-4.3-.66-3.642 5.957 2.652 6.946v3.306l-4.3-11.578 2.642-3.639h-2.642l-2.652 5.952.992 4.965.332 3.968-2.979-8.933 1.655-3.64-.988-1.65s-1.984.331-3.974 5.29c-1.989 4.965 2.646 14.224 7.28 25.471 4.634 11.25 14.887 22.829 21.502 30.439a3795 3795 0 0 1 14.561 16.868s.328 3.642.328 8.273c0 .733.247 2.376-.374 2.964-.255.244-.666.229-.99.307-.45.112-.873.301-1.328.398a4.57 4.57 0 0 0-2.012.961c-.495.395-.913.914-.974 1.562-.113 1.209.923 2.284 1.706 3.069 1.652 1.654 1.984 1.984 1.984 8.271 0 6.284-.332 2.976-1.652 4.96-1.327 1.988 0 3.307 1.652 4.964 1.66 1.655 2.643.996 2.311 4.633-.323 3.638 1.326 5.621 2.983 7.608 1.652 1.983 7.936 1.983 7.936 1.983s-6.284.663-3.964 1.982c2.314 1.327 4.955 2.648 8.928 3.313 3.968.659 7.945-.665 11.915-.334 3.968.334 5.288 4.964 5.288 4.964v3.637s-2.644-5.289-5.288-5.95c-2.653-.663-1.993 3.968-1.993 3.968s-2.314-4.301-4.958-2.979c-2.652 1.324-3.161 3.757-2.32 6.287.42 1.249 2.028 2.305 3.125 2.867 1.205.618 2.875.143 3.956-.457.815-.448 1.87-1.457 2.887-1.182 1.784.486 1.735 4.034 1.947 5.388.662 4.3.306 1.703-3.001 4.686-3.309 2.977-3.077 3.257-6.061 1.932-2.978-1.323-2.853 2.641-5.165 3.638-2.32.991-1.991 1.654-3.31 4.3-1.326 2.645.664 3.971.664 3.971s-1.659-.663-3.305-.663c-1.661 0-2.654.663-1.661 1.98.996 1.328 3.307 3.973 5.292 6.291 1.988 2.315 3.968 1.651 4.964-.333.992-1.985 0-3.638 0-3.638s3.97-.662 6.286-1.654c2.319-.992 2.653.329 2.653.329s0 1.325-1.329 2.316c-1.324.993.995 1.322 2.647.993 1.656-.331 1.326-1.652 1.326-1.652l-.995-2.319s2.319 1.325 2.644 2.647c.334 1.324 2.983 2.978 2.983 2.978s4.296.991 6.614 1.984c2.314.993 5.292 1.326 9.262 2.315 3.968.995 6.602 1.324 10.918 1.324 5.618 0 7.277-3.307 7.277-8.929 0-5.625-6.285-6.618-6.285-6.618s4.301-1.983 8.594-5.291c4.307-3.31 3.974-9.268 3.974-9.268l-3.308-3.635s1.987-2.979 2.321-9.926c.328-6.95 0-11.578 0-11.578l-3.31.992s-.332-2.978-.992-10.585C11.79 8.858 9.25 5.789 6.193 3.708 4.514 2.563 2.3 2.214.745.874A4 4 0 0 1 0 0" style="fill:#a3c2da;fill-opacity:1;fill-rule:nonzero;stroke:none" transform="translate(700.93 627.414)"/><path d="M0 0s-1.652.332-3.968-3.972c-2.321-4.295-1.991-7.602-1.991-7.602l3.975 4.297s.994-3.638.994-7.277c0-3.641.658-7.938 2.312-9.594a47 47 0 0 1 3.31-2.976s-.334 1.654-.334 5.621c0 3.972.664 8.271 1.322 4.964.664-3.306.996-5.621 1.66-8.931.658-3.308 1.652-5.292 2.977-9.593 1.317-4.304 2.311-7.278 4.295-9.259 1.989-1.987 3.97-2.653 3.97-2.653s-2.642 4.634-2.642 11.246c0 6.618-1.653 14.557-1.653 14.557s-2.986 6.618-6.623 10.257S0 0 0 0" style="fill:#0075b1;fill-opacity:1;fill-rule:nonzero;stroke:none" transform="translate(767.302 572.589)"/><path d="M0 0c-1.315-.49-2.722-.669-4.119-.718-1.025-.034-1.933.056-2.678-.781-1.518-1.718-3.58-3.208-5.766-3.953-1.087-.37-3.364-.83-4.51-.678-1.04.139-.61 1.05-.132 2.372.699 1.93 2.435 2.508 4.151 3.022 2.117.622 4.301 1.621 5.077 3.87.745 2.156.927 4.534 1.031 6.793.332 7.273-.996 11.573-5.299 20.178-4.293 8.605-12.234 14.226-19.846 19.519-7.606 5.289-7.938 7.938-11.906 13.566-.209.288-.418.588-.604.897-.118.195-.204.434-.327.634l-.461.683c-2.32 4.261-1.586 6.709-1.586 6.709s5.952-.66 9.264-.329c3.309.329 3.309 1.326 3.309 1.326s-2.984-.332-7.607-.332c-4.636 0-10.256 7.276-10.256 7.276s1.32-5.292 3.306-8.928c1.019-1.863 1.549-3.942 2.184-5.956l.192-.613c.735-2.252 1.64-4.58 3.244-6.668 3.31-4.304 7.612-9.59 7.612-9.59s-5.954 4.63-9.257 8.273c-2.913 3.194-4.802 6.135-6.335 8.379l-.312.442q-.155.232-.304.436c-1.656 2.316-2.318 9.595-4.632 14.225-2.312 4.637 1.981 6.284 4.632 11.252 2.644 4.963-6.388 6.912-5.724 11.542.406 2.869-.128 5.922-.386 8.793-.253 2.839.054 5.682-1.215 8.326-1.103 2.296-2.876 4.201-4.416 6.206-2.33 3.042-4.802 5.947-7.211 8.908-.56.692-.703 1.373-1.061 2.155-.411.886-1.332 1.597-1.977 2.309-1.715 1.895-1.71 3.759-.509 6.013 2.648 4.959 4.637 2.313 4.637 2.313s-3.309 3.307-.663 4.634c2.644 1.317 2.977 2.645 4.301 7.28 1.321 4.623 5.952-.664 10.909-4.304 4.965-3.638 7.613-4.303 10.916-9.923 3.311-5.628 4.305-7.609 7.945-9.266 3.636-1.652 7.276-3.307 11.579-9.59 4.297-6.287 9.921-15.884 15.878-28.449C-2.978 85.678-1.659 78.73 4.967 73.44c6.613-5.295 13.23-.662 15.871 4.962 2.648 5.624 0 10.254-3.303 14.222-.918 1.099-1.749 2.523-2.99 3.296-1.35.849-3.257.771-4.786.939-2.286.258-4.611.534-6.913.318-.521-.049-2.929-.486-2.437.702 1.05 2.564 7.698 2.878 9.892 2.579 1.078-.147 5.256-1.383 6.293-.909.715.328 1.112.525.267.897-1.025.45-2.149.659-3.159 1.176-1.164.592-2.414.615-3.674.798-1.249.172-2.037.832-2.987 1.615-1.9 1.563-4.058 2.739-6.091 4.112-1.05.713-1.998 1.263-3.218 1.591 1.244 1.292 4.091 1.18 5.757 1.196 2.677.015 5.197-1.013 7.43-2.429 3.637-2.312 6.945-1.652 6.945-1.652a85 85 0 0 1-5.499 3.508c-1.31.775-2.611 1.507-4.041 2.03-1.201.437-2.486.744-3.606 1.376-1.826 1.028-3.196 2.871-4.867 4.139-2.658 2.007-7.009 4.781-5.803 8.796a243 243 0 0 0 3.071-1.792c1.65-.978 3.661-.935 5.378-1.743 1.476-.696 3.15-2.552 4.981-1.732 1.591.709 1.227 2.89 1.122 4.27-.162 2.151-2.376 3.459-3.877 4.696-1.994 1.641-4.119 4.054-4.152 6.78-.062 4.694 4.965-.252 6.098-1.505.805-.888 1.587-1.8 2.4-2.686.307-.343 2.184-1.872 2.163-2.275.232 4.227.727 8.389 1.668 12.524.595 2.619 1.41 4.961 2.486 7.4.167.382.321 1.626.664 1.856.639.428 1.715-.835 2.137-1.213.976-.881 1.961-1.758 2.879-2.7.322-.324 1.556-1.311 1.544-1.834-.007-.315-.411-.477-.625-.812-1.033-1.573-1.312-3.986-1.732-5.784-.514-2.231-.778-4.563-1.06-6.838-1.658-13.231 3.304-23.815 9.918-39.698 2.227-5.334 2.552-11.313.394-16.728-1.609-4.048-4.467-7.611-8.047-10.102-2.014-1.4-4.091-2.531-6.516-3.017-1.894-.384-4.054-.225-5.942.158-2.893.578-5.994 1.433-8.443 3.139-.97.673-1.872 1.444-2.871 2.072-2.648 1.656-4.632 5.956-6.948 11.58-2.319 5.62-1.324 9.594-2.983 15.551-1.647 5.952-5.287 10.909-8.268 15.873-2.971 4.967-4.962 5.627-4.962 5.627s0-2.316 2.319-4.962c2.313-2.642 2.313-5.629 3.965-12.905 1.659-7.278-.657-11.574-4.293-16.208-3.641-4.63-5.961-6.618-5.961-6.618s7.613 4.966 9.922 8.275c2.323 3.305 3.975 3.967 3.975 3.967s1.656-4.627 1.984-7.606c.332-2.982-.328-6.288.666-13.899a36 36 0 0 1 .381-2.369c.009-.047.016-.081.021-.121l.039-.19c1.301-6.319 4.127-11.244 8.491-13.856 4.962-2.978 8.268-2.978 8.268-2.978s3.643 0 7.934-1.981c4.306-1.987-.656-4.965-.656-4.965H6.95l3.306-2.643s2.314-2.324 5.294-7.611c2.979-5.298 4.296-10.256 4.296-10.256l-8.266 8.268-2.98-1.98s1.656-1.661 4.3-4.307c2.65-2.643 3.642-7.276 3.642-7.276l-.666-5.621-6.948 8.263 4.637-13.557-.665-6.285-5.95 5.295 3.634-8.607.996-4.63-2.652-4.625-2.642.653-2.978-5.286 4.964-1.659s-.992-.987-2.652-2.978c-1.65-1.977-2.976-4.63-2.976-4.63l-4.626.328-2.316 2.653L1.659-12.9l-2.321-.332-8.93-10.919-4.635 2.321-1.321-1.327 2.975-2.643 4.298-1.659-3.64-1.319s-3.308-1.987-6.279-.662c-2.976 1.321-.997 4.302-.997 4.302s.332 1.981 4.302 4.627c3.972 2.649 6.282 7.279 6.282 7.279l1.993 4.962s-4.303-3.64-6.284-5.624c-1.991-1.984-5.629-3.643-5.629-3.643s-.664-.655-2.316-.655c-1.654 0-4.298 1.32-4.298 1.32l.995 4.297 3.303 2.981s1.984 0 5.954.33c3.972.332 6.282 3.972 6.282 3.972s3.645-.665 6.948 1.322C1.659-1.984 0 0 0 0" style="fill:#a3c2da;fill-opacity:1;fill-rule:nonzero;stroke:none" transform="translate(740.837 429.02)"/><path d="M0 0s-4.964-7.278-10.254-7.278c-5.295 0-9.599.666-12.575-1.326-2.978-1.98-6.284-6.945-6.284-9.59 0-2.649 2.974-4.301 7.941-4.63 4.961-.337 9.924-.665 14.885 4.959C-1.326-12.24 0-9.919 0-5.626Z" style="fill:#a3c2da;fill-opacity:1;fill-rule:nonzero;stroke:none" transform="translate(681.624 538.519)"/><path d="M0 0c-1.984-2.646-3.505-6.193-7.144-8.842-2.494-1.814-6.158-2.602-9.094-3.424-3.455-.971-7.181-.418-10.463 1.173-.977.47-3.116 2.184-3.401.176-.329-2.316-2.979-7.28-.993-14.558 1.989-7.276 7.278-14.549 4.298-22.488-2.974-7.945-3.97-9.922-10.914-12.245-6.95-2.311-13.234-5.289-13.234-5.289s-6.612-2.653-11.911-3.306c-5.289-.662-7.936-1.657-8.927-3.642-.992-1.987.332-6.626.332-6.626s.325 0 2.644 2.325c2.315 2.314 2.315.328 5.624.993a43 43 0 0 1 5.951 1.649s-1.317-1.324-4.959-1.98c-3.638-.662-5.297-.334-5.297-3.644 0-3.304.332-4.298 2.653-4.958 2.312-.666 2.644.328 4.625 2.641 1.989 2.317 7.281 3.973 7.281 3.973s-.99-.334-3.643-2.642c-2.641-2.318-3.638-3.312-2.973-5.303.661-1.977 1.988-3.965 4.299-3.965 2.317 0 1.659 1.656 2.979 3.644 1.322 1.98 2.313 1.98 2.313 4.63 0 2.637.993 4.962.993 4.962s.994-5.96 1.326-7.28c.334-1.326 3.306 0 3.306 0s-1.654 3.64.664 5.289c2.316 1.659 3.308.331 3.308.331s-2.318 0-2.651-2.646c-.325-2.64 1.327-3.306 1.327-3.306s3.636-2.974 4.632.332c.992 3.312.992 5.289 2.978 7.28 1.98 1.98 3.64 2.642 3.64 2.642s-1.985-.662-2.978-4.302c-.996-3.639.328-5.286.328-5.286s.665.328 3.643 0c2.973-.334 5.621.328 3.636 2.312-1.989 1.984-1.325 4.962-.333 5.952.988.996 5.292 7.94 5.292 7.94s0-2.639-1.981-6.284c-1.987-3.64.662-6.942.662-6.942s-.994-.666 2.976.328c3.967.99 4.304 3.308 4.304 3.308s-2.985 1.325-2.321 5.62c.662 4.302 3.304 8.607 3.304 8.607s-3.304-6.286-1.98-9.265c1.327-2.978 4.306-4.302 4.306-4.302s2.311.665 3.307 4.627c.986 3.975-1.326 9.272-1.326 9.272l3.638-1.326s.662-3.311 3.97-2.317c3.31.999 4.965 2.979 1.659 7.283-3.318 4.298-5.297 8.591-4.967 15.874.334 7.276 1.981 10.582 3.972 15.216C.662-23.156 1.659-22.824 0-17.198c-1.652 5.622-1.984 8.265.332 9.588 2.314 1.322 5.292 1.988 3.97 4.299C2.981-.99 0 0 0 0" style="fill:#a3c2da;fill-opacity:1;fill-rule:nonzero;stroke:none" transform="translate(682.283 525.947)"/><path d="M0 0s-6.286 3.637-9.927 1.982C-13.564.33-16.21-.663-18.199-3.972c-1.986-3.306-4.302-9.923-2.976-15.881 1.324-5.952 1.656-11.574.334-19.515-1.328-7.94-.994-13.229-5.301-19.519-4.293-6.285-5.29-7.605-8.923-9.924-3.64-2.313-4.967-7.28 0-5.291 4.955 1.985 7.608 1.651 13.23 7.938 5.625 6.288 4.298 7.277 7.274 12.903 2.975 5.622 2.316 10.256 2.316 10.256l-4.958 4.63 4.958-.993s0 1.321-.325 4.632c-.334 3.309-.334 6.948-.334 6.948l-2.647 2.647 4.63-1.981s-.996 1.981-.665 5.289c.333 3.307-.984 3.639-.984 3.639l-4.633 4.962 5.95-2.319s2.974 3.31.664 4.965c-2.315 1.653-4.63 6.284-4.63 6.284l7.272-4.961s-1.643 1.652.334 3.311c1.989 1.65.665 2.976.665 2.976L-8.279-.333l3.646-1.655z" style="fill:#0075b1;fill-opacity:1;fill-rule:nonzero;stroke:none" transform="translate(740.509 694.661)"/><path d="m0 0 4.409-2.644L4.848 0Z" style="fill:#d1232a;fill-opacity:1;fill-rule:nonzero;stroke:none" transform="translate(665.636 675.361)"/><path d="m0 0-3.636 1.651 4.63-4.959z" style="fill:#d1232a;fill-opacity:1;fill-rule:nonzero;stroke:none" transform="translate(627.37 434.644)"/><path d="M0 0s-1.656.65-2.983 1.981c-1.319 1.322-2.644 3.971-2.644 3.971s.663-3.643 1.987-6.286C-2.321-2.987-.33-4.305-.33-4.305z" style="fill:#d1232a;fill-opacity:1;fill-rule:nonzero;stroke:none" transform="translate(617.778 439.28)"/><path d="M0 0s-.997 3.965 0 6.614C.985 9.26 2.642 9.26 2.642 9.26l.334-5.954Z" style="fill:#d1232a;fill-opacity:1;fill-rule:nonzero;stroke:none" transform="translate(606.532 442.255)"/><path d="m0 0-5.297 1.326 3.97 1.657z" style="fill:#d1232a;fill-opacity:1;fill-rule:nonzero;stroke:none" transform="translate(623.734 521.644)"/><path d="m0 0-7.943 4.962 2.981.994z" style="fill:#d1232a;fill-opacity:1;fill-rule:nonzero;stroke:none" transform="translate(619.1 515.03)"/><path d="M0 0s-3.308 2.653-4.295 3.973c-.994 1.322-.994 2.978-.994 2.978l2.975-.333Z" style="fill:#d1232a;fill-opacity:1;fill-rule:nonzero;stroke:none" transform="translate(611.157 515.358)"/><path d="m0 0-3.64 5.958 2.316-.664Z" style="fill:#d1232a;fill-opacity:1;fill-rule:nonzero;stroke:none" transform="translate(605.205 517.676)"/><path d="m0 0-4.964.996s.659-2.978 1.977-4.634A42 42 0 0 1-.332-6.612z" style="fill:#d1232a;fill-opacity:1;fill-rule:nonzero;stroke:none" transform="translate(742.165 398.585)"/><path d="M0 0s-2.477.478-3.794 1.886c-1.321 1.413-2.455 3.536-2.455 3.536l4.736.007z" style="fill:#d1232a;fill-opacity:1;fill-rule:nonzero;stroke:none" transform="translate(728.778 392.508)"/><path d="m0 0 .815 4.5-5.194-5.568Z" style="fill:#d1232a;fill-opacity:1;fill-rule:nonzero;stroke:none" transform="translate(721.822 421.81)"/><path d="m0 0-2.98 1.652s.332-1.981.332-3.971c0-1.983 1.656-3.637 1.656-3.637s.334 2.317.334 3.637C-.658-.995 0 0 0 0" style="fill:#d1232a;fill-opacity:1;fill-rule:nonzero;stroke:none" transform="translate(595.94 638.423)"/><path d="m0 0-2.644-1.983S-.658-3.308.664-4.632c1.324-1.32 3.309-1.32 3.309-1.32s-.99 1.981-1.985 3.308C.994-1.325 0 0 0 0" style="fill:#d1232a;fill-opacity:1;fill-rule:nonzero;stroke:none" transform="translate(607.849 637.429)"/><path d="m0 0-3.636 1.32s-.33-1.32 0-4.298C-3.303-5.957.667-6.617.667-6.617S0-5.296-.66-3.639C-1.322-1.988 0 0 0 0" style="fill:#d1232a;fill-opacity:1;fill-rule:nonzero;stroke:none" transform="translate(602.555 635.446)"/><path d="m0 0-2.769 7.404 4.776-1.882Z" style="fill:#d1232a;fill-opacity:1;fill-rule:nonzero;stroke:none" transform="translate(718.068 403.926)"/><path d="m0 0 .323 2.314-2.642 1.655s-1.986-1.655-4.302-1.326c-2.316.332-5.29 3.639-6.614 2.977-1.322-.659-3.642-1.318-.332-3.64 3.306-2.311 5.295-2.976 8.6-2.645C-1.657-.331 0 0 0 0" style="fill:#d1232a;fill-opacity:1;fill-rule:nonzero;stroke:none" transform="translate(660.453 672.828)"/><path d="M0 0c3.553-2.13 7.608-4.295 12.902-3.965 5.292.326 6.286.326 10.92-.662 4.627-.994 10.914-3.638 10.914-3.638l2.976 4.626S37.05.333 29.771 1.657C22.498 2.978 16.21 4.302 11.244 6.95c-4.958 2.648-7.94 3.972-7.94 3.972v-2.98l5.628-5.619H5.294l-3.97 3.636S-.658 5.296-1.32 3.972C-1.982 2.652-1.652.994 0 0" style="fill:#0075b1;fill-opacity:1;fill-rule:nonzero;stroke:none" transform="translate(379.848 707.278)"/><path d="M0 0h2.488l2.974-2.977S5.13-4.633 3.803-5.958c-1.315-1.322-2.976 0-2.976 0l.335 3.311h-2.976s-.995-.994-2.316-2.979c-1.324-1.986-3.307-1.986-3.307-1.986s-.333.994-.665 3.641C-8.429-1.327-10.42 0-10.42 0s-.987-3.971-2.644-5.3c-1.651-1.318-6.286-3.966-6.286-5.948 0-1.985.332-1.324-3.966-3.309-4.304-1.986-7.612-2.978-7.612-2.978s-.992-2.648 3.637-.992c4.633 1.655 8.938 4.631 8.938 4.631s.987-2.315.655-4.301c-.328-1.986-2.316-4.963-5.618-6.945-3.312-1.984-7.612-3.97-7.612-3.97l2.976-.335s1.658-.327 4.302 1.328c2.646 1.649 4.964 3.971 4.964 3.971s-1.654-2.322-.992-3.639c.66-1.325 2.312-.665 0-2.981-2.314-2.316-4.966-3.968-6.288-5.294-1.325-1.324-1.325-.992 1.322-.992 2.652 0 5.626 2.318 5.626.33 0-2.14 1.683-2.508.698-4.706-1.101-2.452-2.173-4.934-3.488-7.282-.655-1.172-1.432-2.871-2.479-3.745-.971-.811-1.837-.416-2.926.456-1.266 1.015-2.012 2.62-2.962 3.9-1.509 2.034-3.612 3.929-4.867 6.1-.639 1.102-1.016 2.449-1.508 3.627l1.32 5.95 2.982 3.972.328 5.292s-5.622.329-2.648 6.949c2.977 6.616 3.64 9.593 2.32 10.911-1.326 1.329-2.982.667-1.656 2.323 2.408 3.01 1.656 8.598 7.61 10.585 5.954 1.984 10.252 3.638 15.874 1.649C-4.794 7.279-3.468 7.608.498 4.961 4.467 2.313 6.126 2.313 7.12 1.32c.988-.991 2.642-5.624 2.642-5.624L6.788-5.958s1.32 1.654.332 3.311C6.126-.996 2.488 1.32 2.488 1.32L.516.605" style="fill:#a3c2da;fill-opacity:1;fill-rule:nonzero;stroke:none" transform="translate(475.615 645.09)"/><path d="M0 0c-.09-.26-.11-.435-.11-.435s.061-.013.171-.033" style="fill:#a3c2da;fill-opacity:1;fill-rule:nonzero;stroke:none" transform="translate(379.63 618.728)"/><path d="m0 0 .481.535" style="fill:#a3c2da;fill-opacity:1;fill-rule:nonzero;stroke:none" transform="translate(380.178 630.2)"/><path d="M0 0c1.154-1.859.565-4.471.69-6.58.083-1.378.369-3.214-.942-4.144-1.679-1.195-4.842.412-6.574.893-9.6 2.646-13.562 8.268-22.498 20.177-8.926 11.909 1.658 36.722-4.967 48.296-6.612 11.581-18.848 10.257-32.086-6.947-13.23-17.199-16.206-34.403-21.172-47.965-2.043-5.59-3.862-11.966-5.298-17.531h.076l-3.266-14.28c-.893-4.864-4.185-27.446-4.56-30.559-1.286-10.743-2.214-21.538-3.823-32.243-1.982-13.228-4.956-21.5-4.956-21.5s1.65.326 7.933 9.926c6.291 9.59 6.621 17.53 7.941 23.815 1.326 6.286 1.66 14.227 1.66 16.869 0 2.65 1.647 4.301 1.314 1.989-.33-2.318.367-8.969-.658-17.207-.174-1.393-.332-2.792-.493-4.19-.075-.649-.772-2.503-.218-3.023.909-.862 4.823 3.905 5.34 4.565 2.316 2.981 5.629 9.27 5.629 9.27.876 3.296 2.886 6.337 4.771 9.131 1.345 1.987 2.724 4.228 4.405 5.958.638.654 1.389 1.293 2.089 1.882.53.449 1.069.905 1.578 1.399 1.169 1.124 2.482 2.083 3.702 3.148l.05.037c1.319.808 2.492 1.833 3.583 2.925 2.643 2.645 3.968 9.259 3.968 9.259s.667-5.291 4.304-8.271c3.639-2.976 6.948.329 6.948.329s-3.641-4.955 1.651-7.275c5.293-2.313 8.601 1.987 8.601 1.987s-2.319-7.276 3.64-7.939c5.952-.665 6.948 1.326 6.948 1.326s1.319-4.966 5.62-4.966 6.615 3.307 6.615 3.307v-3.307s.664-.994 3.972-.663c3.304.329 3.966 2.318 7.941 7.608 3.97 5.296 6.943 11.914 9.591 15.551 2.653 3.64 6.947 5.289 11.91 7.608 4.966 2.315 8.6 0 8.93-3.639.329-3.634-.33-6.614 3.972-7.276 4.302-.663 6.287 2.977 6.287 2.977s-1.323-2.648-1.323-7.942c0-5.29 1.982-7.939 4.63-9.258 2.647-1.326 2.314 2.973 2.314 2.973l2.312 1.985-.653-6.284 3.963-5.293 2.65-2.317s-.333 3.97.332 6.945c.657 2.98 4.63 3.64 4.63 3.64l-2.316-9.591s0-1.653 2.644-1.984c2.646-.333 1.988-4.299 2.322-6.29.324-1.982 2.644-2.646 2.644-2.646l.99 1.986-1.984 5.625 2.313.992 1.325-7.275 2.646-.994 1.986-1.983s-1.322-2.982-.66-4.966c.66-1.987 3.308-1.324 3.308-1.324l-1.326 2.315h1.986l-.99 4.301 1.985.661v-7.94s1.653-2.978 2.645-5.619c.988-2.644 0-9.59 0-9.59s.66-2.321 1.648-2.978c.996-.664 3.974-.333 3.974-.333l2.317 2.977-.66 3.972.332 4.291 1.982-9.256-3.309-3.972 4.3-.657 3.64 5.956-2.65 6.946v3.304l4.303-11.577-2.646-3.638h2.646l2.649 5.952-.992 4.965-.332 3.968 2.976-8.933-1.652-3.642.987-1.65s1.987.333 3.973 5.292c1.988 4.965-2.644 14.222-7.276 25.47-4.636 11.25-14.89 22.829-21.504 30.439a3658 3658 0 0 0-14.559 16.868s-.329 3.642-.329 8.273c0 .732-.248 2.375.371 2.963.255.244.665.229.99.308.45.113.877.301 1.331.399a4.6 4.6 0 0 1 2.013.96c.492.394.912.914.972 1.563.112 1.208-.926 2.283-1.707 3.068-1.652 1.654-1.984 1.984-1.984 8.271 0 6.284.332 2.976 1.652 4.96 1.326 1.988 0 3.307-1.652 4.963-1.657 1.655-2.644.997-2.312 4.634.326 3.638-1.326 5.621-2.983 7.608-1.65 1.983-7.934 1.983-7.934 1.983s6.284.664 3.961 1.982c-2.312 1.327-4.955 2.648-8.926 3.313-3.968.659-7.942-.665-11.913-.334-3.969.334-5.289 4.964-5.289 4.964v3.638s2.643-5.29 5.289-5.95c2.653-.664 1.991 3.967 1.991 3.967s2.314-4.301 4.958-2.979c2.649 1.324 3.16 3.756 2.318 6.287-.417 1.248-2.027 2.305-3.124 2.867-1.203.617-2.872.143-3.957-.458-.812-.447-1.867-1.456-2.884-1.181-1.783.487-1.738 4.034-1.948 5.387-.662 4.3-.306 1.704 3.002 4.687 3.308 2.976 3.075 3.257 6.063 1.932 2.976-1.324 2.848 2.64 5.164 3.638 2.317.991 1.989 1.654 3.306 4.3 1.327 2.645-.662 3.97-.662 3.97s1.657-.662 3.304-.662c1.661 0 2.655.662 1.661 1.98-.995 1.328-3.308 3.974-5.292 6.291-1.987 2.315-3.97 1.651-4.965-.332-.99-1.985 0-3.639 0-3.639s-3.967-.662-6.282-1.654c-2.32-.992-2.653.329-2.653.329s0 1.325 1.329 2.316c1.324.993-.996 1.322-2.646.993-1.66-.33-1.329-1.652-1.329-1.652l.997-2.319s-2.32 1.325-2.644 2.647c-.334 1.324-2.982 2.979-2.982 2.979s-4.298.99-6.618 1.983c-2.313.993-5.289 1.325-9.26 2.314C3.096 77.17.464 77.5-3.853 77.5c-5.619 0-7.278-3.307-7.278-8.929 0-5.625 6.286-6.618 6.286-6.618s-4.302-1.983-8.596-5.291c-4.304-3.311-3.97-9.268-3.97-9.268l3.306-3.636s-1.988-2.978-2.321-9.925c-.329-6.95 0-11.578 0-11.578l3.307.993s.334-2.978.996-10.587c.332-3.804 2.871-6.872 5.927-8.953C-4.517 2.563-2.302 2.214-.75.874-.444.609-.199.315 0 0" style="fill:#a3c2da;fill-opacity:1;fill-rule:nonzero;stroke:none" transform="translate(378.408 627.464)"/><path d="M0 0s1.656.33 3.97-3.972c2.319-4.296 1.989-7.603 1.989-7.603L1.987-7.278s-.993-3.638-.993-7.277c0-3.641-.662-7.939-2.314-9.592-1.658-1.654-3.308-2.978-3.308-2.978s.333 1.657.333 5.621c0 3.972-.663 8.272-1.325 4.964-.664-3.307-.996-5.62-1.658-8.928-.658-3.311-1.652-5.295-2.976-9.597-1.32-4.302-2.312-7.276-4.296-9.257-1.988-1.987-3.97-2.655-3.97-2.655s2.644 4.636 2.644 11.248c0 6.616 1.65 14.557 1.65 14.557s2.985 6.617 6.623 10.256C-3.965-7.278 0 0 0 0" style="fill:#0075b1;fill-opacity:1;fill-rule:nonzero;stroke:none" transform="translate(312.03 572.64)"/><path d="M0 0c1.315-.49 2.722-.667 4.119-.716 1.024-.036 1.932.056 2.674-.782 1.522-1.717 3.585-3.208 5.768-3.954 1.086-.368 3.365-.83 4.512-.678 1.041.139.61 1.052.13 2.376-.697 1.926-2.436 2.506-4.149 3.02-2.117.622-4.301 1.622-5.078 3.868-.742 2.158-.927 4.534-1.03 6.793-.332 7.273.996 11.576 5.297 20.18 4.295 8.603 12.236 14.225 19.845 19.517 7.61 5.289 7.942 7.94 11.906 13.566.212.288.421.59.605.899.12.195.205.43.327.634l.463.683c2.316 4.261 1.585 6.707 1.585 6.707s-5.952-.66-9.266-.327c-3.306.327-3.306 1.324-3.306 1.324s2.983-.33 7.606-.33c4.636 0 10.256 7.276 10.256 7.276s-1.318-5.292-3.306-8.93c-1.02-1.863-1.55-3.94-2.182-5.956l-.196-.611c-.732-2.252-1.638-4.581-3.242-6.67-3.308-4.304-7.612-9.588-7.612-9.588s5.954 4.628 9.259 8.273c2.912 3.194 4.8 6.133 6.334 8.377l.31.444q.156.232.307.436c1.654 2.314 2.316 9.593 4.63 14.225 2.312 4.635-1.981 6.282-4.63 11.253-2.648 4.962 6.386 6.909 5.722 11.543-.407 2.867.129 5.919.385 8.791.253 2.839-.053 5.68 1.217 8.324 1.104 2.298 2.875 4.202 4.416 6.207 2.332 3.041 4.802 5.947 7.21 8.908.561.692.703 1.373 1.063 2.155.409.886 1.33 1.597 1.976 2.309 1.714 1.895 1.709 3.759.507 6.013-2.646 4.958-4.633 2.313-4.633 2.313s3.306 3.307.661 4.634c-2.646 1.317-2.979 2.645-4.301 7.28-1.321 4.623-5.952-.664-10.91-4.304-4.967-3.638-7.613-4.303-10.918-9.923-3.309-5.628-4.301-7.609-7.943-9.266-3.638-1.652-7.276-3.307-11.579-9.59-4.299-6.286-9.923-15.884-15.881-28.448C2.976 85.678 1.659 78.732-4.967 73.44c-6.613-5.295-13.231-.66-15.874 4.962-2.646 5.626 0 10.256 3.305 14.224.918 1.099 1.747 2.523 2.989 3.297 1.35.847 3.256.769 4.79.936 2.282.26 4.61.536 6.91.32.524-.049 2.929-.487 2.439.702-1.053 2.563-7.699 2.876-9.892 2.577-1.079-.145-5.259-1.383-6.293-.907-.716.33-1.115.525-.268.897 1.025.448 2.149.657 3.159 1.175 1.162.593 2.411.614 3.673.798 1.249.171 2.037.831 2.989 1.616 1.901 1.561 4.055 2.739 6.087 4.11 1.052.713 2.002 1.263 3.222 1.593-1.247 1.292-4.092 1.178-5.758 1.196-2.678.015-5.198-1.015-7.43-2.431-3.639-2.31-6.946-1.65-6.946-1.65a86 86 0 0 0 5.501 3.508c1.308.773 2.612 1.507 4.039 2.026 1.2.439 2.486.748 3.606 1.38 1.828 1.026 3.194 2.869 4.87 4.137 2.656 2.009 7.006 4.783 5.801 8.797a243 243 0 0 1-3.072-1.792c-1.65-.979-3.661-.935-5.377-1.743-1.477-.695-3.151-2.551-4.984-1.733-1.586.71-1.228 2.894-1.121 4.271.164 2.151 2.374 3.459 3.878 4.696 1.995 1.641 4.117 4.054 4.152 6.78.061 4.694-4.965-.252-6.097-1.504-.808-.889-1.589-1.8-2.398-2.687-.313-.343-2.187-1.872-2.165-2.275-.233 4.227-.73 8.389-1.666 12.525-.599 2.618-1.415 4.96-2.489 7.399-.169.382-.319 1.626-.662 1.856-.642.428-1.717-.835-2.137-1.213-.979-.881-1.962-1.757-2.883-2.7-.319-.324-1.553-1.311-1.541-1.834.007-.315.409-.477.626-.811 1.03-1.574 1.31-3.987 1.729-5.785.517-2.23.779-4.562 1.063-6.837 1.656-13.233-3.306-23.817-9.92-39.7-2.224-5.332-2.549-11.312-.396-16.726 1.612-4.049 4.47-7.613 8.05-10.104 2.012-1.4 4.089-2.53 6.515-3.017 1.895-.384 4.055-.225 5.942.16 2.894.578 5.996 1.433 8.443 3.138.97.674 1.873 1.443 2.87 2.071 2.652 1.658 4.634 5.956 6.948 11.582 2.319 5.618 1.326 9.595 2.983 15.551 1.645 5.952 5.287 10.907 8.267 15.873 2.973 4.968 4.964 5.625 4.964 5.625s0-2.314-2.319-4.962c-2.315-2.641-2.315-5.629-3.966-12.905-1.659-7.276.655-11.571 4.294-16.208 3.642-4.628 5.961-6.616 5.961-6.616s-7.612 4.967-9.923 8.274c-2.323 3.306-3.973 3.969-3.973 3.969s-1.66-4.63-1.986-7.609c-.332-2.98.326-6.288-.666-13.897a38 38 0 0 0-.399-2.492l-.04-.188c-1.3-6.321-4.128-11.244-8.489-13.857-4.962-2.977-8.27-2.977-8.27-2.977s-3.641 0-7.934-1.981c-4.306-1.988.656-4.965.656-4.965h4.632l-3.308-2.645s-2.312-2.324-5.296-7.609c-2.978-5.296-4.293-10.254-4.293-10.254l8.265 8.266 2.978-1.981s-1.654-1.66-4.296-4.303c-2.654-2.646-3.644-7.28-3.644-7.28l.665-5.622 6.947 8.263-4.635-13.555.667-6.286 5.95 5.296-3.636-8.607-.996-4.632 2.65-4.625 2.644.654 2.976-5.285-4.962-1.661s.994-.987 2.652-2.978c1.65-1.977 2.974-4.629 2.974-4.629l4.627.327L4.3-25.136l-5.958 12.238 2.32-.334 8.93-10.917 4.632 2.321 1.324-1.328-2.977-2.644-4.3-1.657 3.642-1.321s3.306-1.987 6.279-.66c2.976 1.32.997 4.302.997 4.302s-.332 1.98-4.303 4.625c-3.969 2.651-6.283 7.279-6.283 7.279L6.614-8.27s4.303-3.638 6.282-5.622c1.99-1.984 5.63-3.645 5.63-3.645s.663-.653 2.314-.653c1.658 0 4.301 1.32 4.301 1.32l-.996 4.295-3.305 2.981s-1.983 0-5.954.33c-3.969.334-6.283 3.972-6.283 3.972s-3.639-.664-6.944 1.324C-1.658-1.984 0 0 0 0" style="fill:#a3c2da;fill-opacity:1;fill-rule:nonzero;stroke:none" transform="translate(338.498 429.069)"/><path d="M0 0s4.965-7.276 10.257-7.276c5.293 0 9.593.664 12.571-1.327 2.976-1.981 6.284-6.946 6.284-9.587 0-2.651-2.976-4.304-7.94-4.634-4.96-.337-9.923-.663-14.884 4.96C1.327-12.238 0-9.917 0-5.626Z" style="fill:#a3c2da;fill-opacity:1;fill-rule:nonzero;stroke:none" transform="translate(397.71 538.568)"/><path d="M0 0c1.984-2.644 3.505-6.191 7.142-8.842 2.494-1.814 6.157-2.603 9.092-3.422 3.459-.973 7.182-.418 10.466 1.171.978.472 3.115 2.184 3.4.177.33-2.318 2.978-7.28.994-14.559-1.99-7.276-7.278-14.549-4.3-22.489 2.976-7.943 3.971-9.92 10.917-12.244 6.947-2.311 13.231-5.289 13.231-5.289s6.616-2.65 11.912-3.304c5.288-.664 7.938-1.658 8.928-3.642.992-1.988-.332-6.628-.332-6.628s-.325 0-2.644 2.326c-2.314 2.314-2.314.33-5.622.994a43 43 0 0 0-5.952 1.652s1.316-1.325 4.956-1.982c3.64-.664 5.299-.334 5.299-3.647 0-3.304-.332-4.298-2.653-4.958-2.314-.664-2.646.33-4.625 2.64-1.987 2.318-7.281 3.978-7.281 3.978s.99-.334 3.642-2.647c2.642-2.317 3.639-3.311 2.974-5.302-.66-1.977-1.986-3.965-4.298-3.965-2.318 0-1.66 1.658-2.978 3.645-1.326 1.981-2.316 1.981-2.316 4.629 0 2.637-.992 4.963-.992 4.963s-.994-5.961-1.326-7.281c-.333-1.324-3.308 0-3.308 0s1.658 3.642-.662 5.289c-2.316 1.662-3.306.335-3.306.335s2.316 0 2.65-2.65c.324-2.64-1.328-3.304-1.328-3.304s-3.638-2.974-4.632.33c-.992 3.311-.992 5.289-2.977 7.281-1.983 1.981-3.641 2.646-3.641 2.646s1.982-.665 2.978-4.303c.997-3.644-.33-5.29-.33-5.29s-.666.33-3.642 0c-2.974-.334-5.62.33-3.636 2.314 1.989 1.985 1.324 4.963.333 5.954-.988.993-5.293 7.936-5.293 7.936s0-2.637 1.984-6.282c1.986-3.638-.662-6.945-.662-6.945s.994-.663-2.978.331c-3.968.991-4.303 3.309-4.303 3.309s2.984 1.324 2.322 5.619c-.662 4.302-3.306 8.607-3.306 8.607s3.306-6.286 1.981-9.264c-1.328-2.978-4.305-4.302-4.305-4.302s-2.313.664-3.307 4.625c-.986 3.975 1.324 9.271 1.324 9.271l-3.636-1.324s-.66-3.311-3.97-2.318c-3.309.998-4.968 2.978-1.66 7.283 3.318 4.299 5.298 8.59 4.97 15.873C4.96-35.729 3.31-32.421 1.32-27.789-.661-23.154-1.658-22.824 0-17.198c1.652 5.622 1.984 8.268-.333 9.592-2.316 1.32-5.292 1.987-3.969 4.295C-2.984-.99 0 0 0 0" style="fill:#a3c2da;fill-opacity:1;fill-rule:nonzero;stroke:none" transform="translate(397.053 525.997)"/><path d="M0 0s6.286 3.637 9.927 1.982C13.56.329 16.21-.663 18.197-3.972c1.984-3.306 4.304-9.924 2.979-15.882-1.328-5.952-1.66-11.573-.336-19.514 1.33-7.94.996-13.23 5.3-19.519 4.294-6.285 5.292-7.606 8.924-9.924 3.642-2.313 4.969-7.28 0-5.291-4.955 1.985-7.606 1.65-13.228 7.938-5.626 6.287-4.301 7.277-7.279 12.902-2.972 5.623-2.314 10.257-2.314 10.257l4.959 4.63-4.959-.993s0 1.321.325 4.632c.334 3.309.334 6.948.334 6.948l2.649 2.646-4.632-1.981s.996 1.981.666 5.289c-.334 3.307.983 3.638.983 3.638l4.634 4.963-5.951-2.319s-2.976 3.311-.662 4.966c2.313 1.653 4.63 6.284 4.63 6.284L7.943-9.263s1.649 1.652-.33 3.311c-1.989 1.65-.665 2.976-.665 2.976L8.275-.334l-3.64-1.655z" style="fill:#0075b1;fill-opacity:1;fill-rule:nonzero;stroke:none" transform="translate(338.827 694.711)"/><path d="m0 0-4.41-2.644L-4.849 0Z" style="fill:#d1232a;fill-opacity:1;fill-rule:nonzero;stroke:none" transform="translate(413.7 675.411)"/><path d="m0 0 3.636 1.651-4.63-4.959z" style="fill:#d1232a;fill-opacity:1;fill-rule:nonzero;stroke:none" transform="translate(451.965 434.695)"/><path d="M0 0s1.656.65 2.983 1.981c1.319 1.323 2.646 3.971 2.646 3.971S4.965 2.311 3.638-.334C2.321-2.985.33-4.305.33-4.305Z" style="fill:#d1232a;fill-opacity:1;fill-rule:nonzero;stroke:none" transform="translate(461.557 439.33)"/><path d="M0 0s.996 3.965 0 6.618c-.989 2.644-2.645 2.644-2.645 2.644l-.334-5.954Z" style="fill:#d1232a;fill-opacity:1;fill-rule:nonzero;stroke:none" transform="translate(472.805 442.304)"/><path d="m0 0 5.299 1.324-3.972 1.657Z" style="fill:#d1232a;fill-opacity:1;fill-rule:nonzero;stroke:none" transform="translate(455.601 521.695)"/><path d="m0 0 7.942 4.964-2.984.993Z" style="fill:#d1232a;fill-opacity:1;fill-rule:nonzero;stroke:none" transform="translate(460.236 515.08)"/><path d="M0 0s3.307 2.657 4.297 3.977c.992 1.32.992 2.978.992 2.978l-2.976-.334Z" style="fill:#d1232a;fill-opacity:1;fill-rule:nonzero;stroke:none" transform="translate(468.178 515.407)"/><path d="m0 0 3.64 5.956-2.316-.664Z" style="fill:#d1232a;fill-opacity:1;fill-rule:nonzero;stroke:none" transform="translate(474.131 517.727)"/><path d="m0 0 4.964.994s-.662-2.978-1.979-4.636C1.654-5.292.332-6.616.332-6.616z" style="fill:#d1232a;fill-opacity:1;fill-rule:nonzero;stroke:none" transform="translate(337.173 398.637)"/><path d="M0 0s2.476.479 3.792 1.887c1.321 1.414 2.455 3.537 2.455 3.537l-4.737.007Z" style="fill:#d1232a;fill-opacity:1;fill-rule:nonzero;stroke:none" transform="translate(350.559 392.557)"/><path d="m0 0-.816 4.5L4.38-1.069Z" style="fill:#d1232a;fill-opacity:1;fill-rule:nonzero;stroke:none" transform="translate(357.514 421.861)"/><path d="m0 0 2.981 1.652s-.332-1.981-.332-3.971c0-1.983-1.653-3.636-1.653-3.636S.662-3.638.662-2.319A4.6 4.6 0 0 1 0 0" style="fill:#d1232a;fill-opacity:1;fill-rule:nonzero;stroke:none" transform="translate(483.391 638.473)"/><path d="m0 0 2.646-1.982S.662-3.307-.664-4.631c-1.323-1.32-3.309-1.32-3.309-1.32s.991 1.981 1.986 3.308C-.994-1.324 0 0 0 0" style="fill:#d1232a;fill-opacity:1;fill-rule:nonzero;stroke:none" transform="translate(471.485 637.478)"/><path d="m0 0 3.638 1.319s.33-1.319 0-4.297C3.304-5.957-.665-6.617-.665-6.617S0-5.295.66-3.639C1.326-1.988 0 0 0 0" style="fill:#d1232a;fill-opacity:1;fill-rule:nonzero;stroke:none" transform="translate(476.777 635.496)"/><path d="m0 0 2.772 7.404-4.778-1.88Z" style="fill:#d1232a;fill-opacity:1;fill-rule:nonzero;stroke:none" transform="translate(361.266 403.975)"/><path d="m0 0-.327 2.314 2.645 1.655s1.985-1.655 4.303-1.326c2.314.332 5.29 3.639 6.613 2.977 1.322-.659 3.64-1.318.332-3.639C10.258-.331 8.27-.996 4.964-.665 1.656-.331 0 0 0 0" style="fill:#d1232a;fill-opacity:1;fill-rule:nonzero;stroke:none" transform="translate(418.883 672.877)"/></g></svg>