<?xml version="1.0" encoding="UTF-8"?>
<svg id="Layer_2" data-name="Layer 2" xmlns="http://www.w3.org/2000/svg" viewBox="0 0 405.06 614.01">
  <defs>
    <style>
      .cls-1 {
        fill: #958454;
      }

      .cls-1, .cls-2, .cls-3, .cls-4, .cls-5 {
        stroke-width: 0px;
      }

      .cls-2 {
        fill: #3958a8;
      }

      .cls-3 {
        fill: #231f20;
      }

      .cls-4 {
        fill: #e13922;
      }

      .cls-5 {
        fill: #fff;
      }
    </style>
  </defs>
  <g id="_ÎÓÈ_1" data-name="—ÎÓÈ_1">
    <g>
      <path class="cls-3" d="M57.05,92.74h0C20.26,150.22,0,226.32,0,307s20.26,156.78,57.05,214.26c38.28,59.8,89.94,92.74,145.48,92.74s107.21-32.94,145.48-92.74c36.79-57.48,57.05-133.58,57.05-214.26s-20.26-156.78-57.05-214.26C309.74,32.94,258.07,0,202.53,0S95.33,32.94,57.05,92.74Z"/>
      <path class="cls-1" d="M202.53,14.93c50.27,0,97.47,30.49,132.9,85.86,35.27,55.11,54.69,128.34,54.69,206.21s-19.42,151.11-54.69,206.21c-35.43,55.37-82.63,85.86-132.9,85.86s-97.47-30.49-132.9-85.86c-35.27-55.11-54.69-128.34-54.69-206.21s19.42-151.1,54.69-206.21C105.06,45.43,152.26,14.93,202.53,14.93ZM60.19,94.75h0C23.78,151.64,3.73,227.02,3.73,307s20.05,155.36,56.46,212.25c37.57,58.69,88.12,91.02,142.34,91.02s104.77-32.33,142.34-91.02c36.41-56.89,56.46-132.27,56.46-212.25s-20.05-155.36-56.46-212.25C307.3,36.06,256.75,3.73,202.53,3.73S97.76,36.06,60.19,94.75Z"/>
      <path class="cls-5" d="M287.38,184.68c0-3.74,3.04-6.78,6.78-6.78s6.78,3.04,6.78,6.78-3.04,6.78-6.78,6.78-6.78-3.04-6.78-6.78Z"/>
      <path class="cls-5" d="M264.21,202.83c0-3.74,3.04-6.78,6.79-6.78s6.78,3.04,6.78,6.78-3.04,6.78-6.78,6.78-6.79-3.04-6.79-6.78Z"/>
      <path class="cls-5" d="M310.54,202.83c0-3.74,3.04-6.78,6.78-6.78s6.78,3.04,6.78,6.78-3.04,6.78-6.78,6.78-6.78-3.04-6.78-6.78Z"/>
      <path class="cls-5" d="M213.34,309.99c0-3.74,3.04-6.78,6.78-6.78s6.78,3.04,6.78,6.78-3.04,6.78-6.78,6.78-6.78-3.04-6.78-6.78Z"/>
      <path class="cls-5" d="M231.48,333.16c0-3.74,3.04-6.78,6.78-6.78s6.79,3.04,6.79,6.78-3.04,6.79-6.79,6.79-6.78-3.04-6.78-6.79Z"/>
      <path class="cls-5" d="M231.48,286.83c0-3.74,3.04-6.78,6.78-6.78s6.79,3.04,6.79,6.78-3.04,6.78-6.79,6.78-6.78-3.04-6.78-6.78Z"/>
      <path class="cls-5" d="M287.38,434.72c0-3.74,3.04-6.78,6.78-6.78s6.78,3.04,6.78,6.78-3.04,6.78-6.78,6.78-6.78-3.04-6.78-6.78Z"/>
      <path class="cls-5" d="M264.21,416.57c0-3.74,3.04-6.78,6.79-6.78s6.78,3.04,6.78,6.78-3.04,6.78-6.78,6.78-6.79-3.04-6.79-6.78Z"/>
      <path class="cls-5" d="M310.54,416.57c0-3.74,3.04-6.78,6.78-6.78s6.78,3.04,6.78,6.78-3.04,6.78-6.78,6.78-6.78-3.04-6.78-6.78Z"/>
      <path class="cls-5" d="M361.42,309.99c0-3.74,3.04-6.78,6.78-6.78s6.78,3.04,6.78,6.78-3.04,6.78-6.78,6.78-6.78-3.04-6.78-6.78Z"/>
      <path class="cls-5" d="M343.27,333.16c0-3.74,3.04-6.78,6.78-6.78s6.78,3.04,6.78,6.78-3.04,6.79-6.78,6.79-6.78-3.04-6.78-6.79Z"/>
      <path class="cls-5" d="M343.27,286.83c0-3.74,3.04-6.78,6.78-6.78s6.78,3.04,6.78,6.78-3.04,6.78-6.78,6.78-6.78-3.04-6.78-6.78Z"/>
      <path class="cls-5" d="M281.56,416.73c4.08,2.14,7.45,5.15,9.87,7.75h.33c.77-.18,1.58-.28,2.41-.28.89,0,1.75.11,2.58.32l.14-.04c2.44-2.6,5.83-5.63,9.92-7.77v-.14c0-2.21.68-4.26,1.85-5.95l.05-.17c-3.86-10.31-10.06-33.3-10.06-74.7v-19.12l-.02-2.15h6.94c13.23,0,24.8,3.56,32.17,6.54.07.03,3.47,1.41,6.88,3.08l.24-.09c1.53-.88,3.31-1.38,5.2-1.38l.19-.07c2.16-4.1,5.2-7.49,7.8-9.92l-.06-.2c-.19-.79-.29-1.62-.29-2.47s.1-1.67.29-2.45l.03-.23c-2.61-2.44-5.64-5.83-7.79-9.94h-.15c-1.88-.01-3.65-.51-5.18-1.38l-.21-.12c-3.43,1.68-6.86,3.08-6.93,3.11-7.37,2.98-18.94,6.54-32.17,6.54h-6.94l.02-2.12v-19.75c0-41.36,6.19-64.35,10.06-74.67v-.13c-1.19-1.71-1.89-3.78-1.89-6.02v-.14c-4.11-2.15-7.5-5.18-9.94-7.79h-.18c-.81.19-1.65.3-2.52.3s-1.76-.11-2.58-.32l-.07-.04c-2.45,2.62-5.86,5.69-10.01,7.86l.02.13c0,2.21-.69,4.26-1.86,5.96l-.06.13c3.86,10.29,10.08,33.29,10.08,74.73v19.75l.02,2.12h-6.94c-13.23,0-24.8-3.56-32.17-6.54-.07-.03-3.48-1.42-6.91-3.1l-.18.07c-1.54.89-3.33,1.4-5.24,1.4h-.15c-2.15,4.12-5.18,7.52-7.79,9.95v.15c.2.81.31,1.66.31,2.54s-.11,1.73-.31,2.54l-.04.13c2.62,2.44,5.68,5.86,7.84,10h.14c1.97-.01,3.82.53,5.39,1.48l.05-.03c3.41-1.67,6.8-3.05,6.87-3.08,7.37-2.98,18.94-6.54,32.17-6.54h6.94l-.02,2.15v19.12c0,41.52-6.24,64.52-10.1,74.79l.15.17c1.13,1.68,1.79,3.69,1.79,5.86l.04.16Z"/>
      <path class="cls-5" d="M21.36,257.65C36.33,122.09,111.87,18.67,202.53,18.67s166.55,103.91,181.27,239.94l-.11-.38c-21.52-79.87-94.59-138.82-181.17-138.82S42.67,178.53,21.27,258.58l.09-.93Z"/>
      <path class="cls-5" d="M21.49,356.24c21.68,79.64,94.63,138.36,181.04,138.36s159.67-58.97,181.18-138.86l.11-.44c-14.7,136.08-90.39,240.04-181.28,240.04S36.03,491.5,21.27,355.54l.22.7Z"/>
      <path class="cls-4" d="M280.69,420.66c-1.6,3.77-5.34,6.43-9.69,6.43-5.8,0-10.52-4.72-10.52-10.52s4.72-10.52,10.52-10.52c1.97,0,3.82.55,5.4,1.5l.21.08c3.72-10.68,9.33-33.2,9.33-71.88v-17.54h-3.19c-15.36,0-28.47,4.95-36.08,8.62l.13.19c1.25,1.73,1.98,3.85,1.98,6.13,0,5.8-4.72,10.52-10.52,10.52s-10.52-4.72-10.52-10.52c0-4.35,2.65-8.09,6.43-9.69l.11-.05c-1.64-2.83-3.75-5.28-5.71-7.2l-.1.14c-1.92,2.52-4.96,4.15-8.37,4.15-5.8,0-10.52-4.72-10.52-10.52s4.72-10.52,10.52-10.52c3.42,0,6.46,1.64,8.39,4.17l.11.09c1.95-1.92,4.05-4.36,5.68-7.18l-.23-.09c-3.72-1.62-6.32-5.33-6.32-9.64,0-5.8,4.72-10.52,10.52-10.52s10.52,4.72,10.52,10.52c0,2.32-.75,4.46-2.03,6.2l-.08.13c7.6,3.67,20.72,8.62,36.08,8.62h3.19v-18.13c0-38.73-5.63-61.26-9.35-71.92l-.12.08c-1.6.98-3.47,1.54-5.47,1.54-5.8,0-10.52-4.72-10.52-10.52s4.72-10.52,10.52-10.52c4.35,0,8.09,2.65,9.69,6.43l.04.12c2.83-1.64,5.28-3.75,7.2-5.71l-.21-.16c-2.48-1.93-4.07-4.93-4.07-8.31,0-5.8,4.72-10.52,10.52-10.52s10.52,4.72,10.52,10.52c0,3.42-1.64,6.46-4.17,8.38l-.13.09c1.93,1.95,4.37,4.06,7.21,5.71l.04-.12c1.6-3.77,5.34-6.42,9.69-6.42,5.8,0,10.52,4.72,10.52,10.52s-4.72,10.52-10.52,10.52c-2,0-3.87-.56-5.47-1.54l-.13-.05c-3.72,10.67-9.34,33.2-9.34,71.89v18.13h3.19c15.37,0,28.48-4.96,36.09-8.62l-.1-.14c-1.27-1.74-2.01-3.87-2.01-6.18,0-5.8,4.72-10.52,10.52-10.52s10.52,4.72,10.52,10.52c0,4.35-2.65,8.09-6.43,9.69l-.11.06c1.63,2.81,3.73,5.24,5.67,7.16l.13-.1c1.92-2.53,4.96-4.16,8.37-4.16,5.8,0,10.52,4.72,10.52,10.52s-4.72,10.52-10.52,10.52c-3.41,0-6.44-1.63-8.36-4.15l-.1-.14c-1.95,1.92-4.05,4.35-5.69,7.17l.1.08c3.77,1.6,6.42,5.34,6.42,9.69,0,5.8-4.72,10.52-10.52,10.52s-10.52-4.72-10.52-10.52c0-2.24.71-4.33,1.91-6.04l.18-.3c-7.61-3.67-20.71-8.61-36.06-8.61h-3.19v17.54c0,38.78,5.64,61.32,9.36,71.96l.12-.12c1.59-.97,3.46-1.53,5.46-1.53,5.8,0,10.52,4.72,10.52,10.52s-4.72,10.52-10.52,10.52c-4.3,0-8-2.59-9.63-6.29l-.07-.27c-2.81,1.62-5.24,3.71-7.16,5.65l.15.23c2.48,1.93,4.07,4.93,4.07,8.31,0,5.8-4.72,10.52-10.52,10.52s-10.52-4.72-10.52-10.52c0-3.41,1.63-6.45,4.16-8.37l.07-.15c-1.91-1.93-4.33-4.01-7.12-5.63l-.07.1ZM202.53,490.87c101.38,0,183.86-82.48,183.86-183.86s-82.48-183.86-183.86-183.86v367.73Z"/>
      <path class="cls-2" d="M95.25,456.21V157.76c8.44-6.09,17.42-11.47,26.85-16.08l-.03.21v330.42c-9.32-4.55-18.2-9.87-26.56-15.87l-.27-.22Z"/>
      <path class="cls-2" d="M41.67,395.98c7.39,13.3,16.38,25.59,26.7,36.62l.06-.77v-250.05l-.02-.42c-10.38,11.07-19.4,23.42-26.81,36.79v.19s.01,177.17.01,177.17l.06.47Z"/>
      <path class="cls-2" d="M148.89,482.85V131.31l-.02-.19c8.69-2.66,17.65-4.68,26.83-6.03v.13s0,363.68,0,363.68h-.14c-9.03-1.34-17.85-3.33-26.4-5.93l-.28-.12Z"/>
      <path class="cls-3" d="M149.61,522.67l-1.26,4.03c-.14.37-.14.87.71.69,1.54-.33,2.84-.75,3.87-1.29.81-.42,1.2-.69,1.2-.69l-8.21,26.34c-.19.61.15,1.27.77,1.46l1.08.34c.61.19,1.61.5,2.22.69l1.08.34c.61.19,1.27-.15,1.46-.77l10.23-32.82c.19-.61-.15-1.27-.76-1.46l-4.04-1.26c-.63-.16-.99-.01-1.72.56-.9.71-1.71,1.3-2.47,1.71-.86.46-1.93.86-3.19,1.2-.52.12-.77.29-.96.93Z"/>
      <path class="cls-3" d="M175.41,551.16c-.24,1.35-.25,2.56,0,3.18.29.67.98,1.08,2.08,1.23,1.26.17,2.15-.02,2.68-.58.53-.56.92-1.74,1.17-3.52l.5-3.62.4-2.85c-1.87.96-3.91,1.28-6.12.97-2.44-.34-4.1-1.3-4.99-2.89-.89-1.59-1.11-4.01-.66-7.25l.48-3.47c.52-3.73,1.66-6.31,3.43-7.74,1.77-1.43,4.38-1.91,7.83-1.43,3.58.5,6,1.57,7.27,3.23,1.27,1.65,1.65,4.26,1.16,7.81l-2.54,18.28c-.46,3.28-1.62,5.56-3.49,6.85-1.87,1.29-4.61,1.68-8.21,1.18-3.5-.49-5.79-1.49-6.89-3.03-1.07-1.48-1.32-3.91-.88-7.3.09-.68.51-1.03,1.18-.95l4.75.66c.7.09,1,.31.83,1.25ZM183.89,533.21c.22-1.61.15-2.81-.21-3.61-.36-.8-1.04-1.27-2.04-1.41-1.03-.14-1.82.11-2.37.75-.55.65-.93,1.8-1.16,3.46l-.68,4.87c-.19,1.38-.11,2.4.26,3.05.36.65,1.06,1.04,2.1,1.19.98.14,1.75-.08,2.31-.64.56-.57.93-1.5,1.11-2.79l.68-4.88Z"/>
      <path class="cls-3" d="M208.28,560c-1.68-1.51-2.66-4.09-2.92-7.74l-1.24-16.94c-.27-3.67.32-6.38,1.76-8.12,1.44-1.75,3.94-2.75,7.48-3.01,3.54-.26,6.16.37,7.84,1.88,1.68,1.51,2.66,4.1,2.93,7.77l1.24,16.95c.27,3.67-.32,6.37-1.76,8.11-1.44,1.74-3.94,2.74-7.48,3-3.54.26-6.16-.37-7.84-1.88ZM218.32,555.39c.29-.86.31-2.89.08-6.1l-1.07-14.64c-.16-2.24-.49-3.72-.97-4.46-.48-.74-1.34-1.07-2.56-.98-1.19.09-1.97.54-2.35,1.37-.38.83-.49,2.34-.33,4.52l1.07,14.64c.23,3.12.56,5.11.99,5.95.43.85,1.31,1.22,2.64,1.13,1.38-.1,2.21-.58,2.5-1.44Z"/>
      <path class="cls-3" d="M249.24,547.05c.38,1.43.8,2.36,1.29,2.81.53.5,1.34.59,2.4.28,1.22-.36,1.96-.9,2.21-1.63.25-.73.13-1.96-.38-3.69l-1.03-3.51-.81-2.77c-1.32,1.64-3.04,2.77-5.19,3.39-2.36.69-4.27.49-5.73-.6-1.46-1.09-2.65-3.21-3.57-6.35l-.98-3.36c-1.05-3.61-1.07-6.43-.04-8.47,1.03-2.03,3.21-3.54,6.56-4.51,3.47-1.01,6.12-1.02,7.95-.03,1.83.99,3.25,3.21,4.26,6.65l5.17,17.72c.93,3.18.8,5.74-.38,7.68-1.18,1.94-3.51,3.42-7,4.44-3.39.99-5.9,1.01-7.53.06-1.55-.9-2.75-2.95-3.73-6.11-.36-1.15-.16-1.29.5-1.51l4.82-1.41c.64-.21.95-.06,1.21.91ZM249.6,527.12c-.45-1.56-1.01-2.63-1.67-3.21-.66-.58-1.47-.73-2.44-.45-1,.29-1.62.85-1.85,1.66-.23.81-.11,2.02.35,3.63l1.38,4.72c.39,1.34.89,2.23,1.48,2.68.6.44,1.4.52,2.4.23.95-.28,1.57-.79,1.84-1.53.28-.74.24-1.75-.13-3l-1.38-4.73Z"/>
      <path class="cls-3" d="M107.31,117.77l4.81,10.06c.42.88.04,1.93-.83,2.35l-5.24,2.5c-.88.42-1.93.04-2.35-.83l-14.11-29.52c-.42-.88-.04-1.93.83-2.35l13.38-6.39c3.79-1.81,7.09-2.31,9.91-1.5,2.82.81,5.03,2.87,6.61,6.19,1.66,3.48,1.96,6.62.9,9.41-1.06,2.79-3.43,5.07-7.1,6.82l-6.81,3.26ZM104.16,111.18l5.55-2.65c1.51-.72,2.47-1.58,2.88-2.56.41-.99.29-2.16-.35-3.51-.62-1.31-1.46-2.1-2.52-2.39-1.06-.29-2.34-.07-3.85.65l-5.46,2.61,3.76,7.86Z"/>
      <path class="cls-3" d="M139.48,118.35c-.92.29-1.92-.22-2.22-1.15l-9.92-31.18c-.29-.92.22-1.92,1.15-2.22l5.46-1.74c.92-.29,1.92.22,2.22,1.15l9.92,31.18c.29.92-.22,1.92-1.15,2.22l-5.46,1.74Z"/>
      <path class="cls-3" d="M153.36,101.44l4.62-.8c1.7-.25,2.31.41,2.82,1.53.48,1.04,1.13,1.83,1.97,2.37,1.3.83,3.03,1.06,5.19.69,1.84-.32,3.21-.87,4.12-1.66.9-.79,1.26-1.74,1.07-2.85-.1-.57-.31-1.05-.62-1.45-.32-.4-.72-.68-1.19-.83-.72-.24-2.44-.52-5.15-.83-2.71-.31-5.02-.68-6.91-1.08-2.74-.58-4.92-1.59-6.54-3.03-1.62-1.44-2.62-3.28-3-5.51-.59-3.41.22-6.34,2.43-8.8,2.21-2.45,5.5-4.06,9.87-4.81,4.29-.74,7.87-.27,10.75,1.41,2.25,1.32,3.8,3.23,4.69,5.71.36,1.01.42,2.13-1.51,2.56l-4.51.78c-1.56.27-2.05-.23-2.76-1.42-.42-.7-.97-1.23-1.61-1.59-1.11-.62-2.57-.77-4.4-.45-1.46.25-2.6.76-3.41,1.52-.81.76-1.14,1.61-.98,2.54.27,1.58,2.7,2.69,7.3,3.34.83.12,1.47.21,1.91.27l.38.06c4.78.7,7.81,1.4,9.1,2.11,1.31.74,2.37,1.7,3.19,2.87.82,1.17,1.36,2.53,1.63,4.09.61,3.57-.27,6.57-2.64,9.03-2.38,2.45-6.02,4.1-10.92,4.95-4.63.8-8.34.34-11.12-1.37-2.25-1.38-3.91-3.6-5.02-6.65-.47-1.29-.42-2.41,1.28-2.68Z"/>
      <path class="cls-3" d="M196.96,106.41c-.3.92-1.34,1.67-2.31,1.66l-6.1-.07c-.97-.01-1.49-.76-1.15-1.67l12.22-32.79c.34-.91,1.41-1.64,2.38-1.63l6.62.07c.97.01,2.02.77,2.33,1.69l11.27,33.04c.31.92-.22,1.66-1.19,1.65l-6.45-.07c-.97-.01-2.01-.77-2.31-1.7l-1.6-4.96-12.12-.13-1.6,4.91ZM200.85,93.98l7.93.09-3.9-12.54-4.03,12.45Z"/>
      <path class="cls-3" d="M254.1,104.48c-.02,1.12.23,2.1.75,2.94.81,1.31,2.27,2.27,4.38,2.87,1.8.51,3.27.61,4.43.29,1.16-.32,1.89-1.02,2.2-2.11.16-.55.18-1.08.07-1.58-.11-.5-.35-.92-.71-1.27-.55-.53-1.97-1.53-4.28-2.99-2.31-1.46-4.23-2.79-5.76-3.97-2.22-1.71-3.75-3.56-4.58-5.57-.83-2-.94-4.09-.32-6.27.95-3.33,2.95-5.62,6.01-6.87,3.05-1.25,6.71-1.27,10.98-.05,4.19,1.2,7.21,3.17,9.08,5.93,1.47,2.17,2.08,4.57,1.74,7.2-.2,1.52-.62,2.16-2.33,1.66l-4.7-1.34c-1.58-.42-1.6-.94-1.71-2.46-.06-.81-.34-1.5-.76-2.1-.73-1.04-1.99-1.81-3.77-2.32-1.43-.41-2.67-.44-3.73-.11-1.06.33-1.72.96-1.98,1.87-.44,1.54,1.27,3.6,5.12,6.18.69.47,1.23.83,1.6,1.07l.32.22c4,2.7,6.43,4.65,7.28,5.85.86,1.24,1.4,2.56,1.63,3.97.23,1.41.13,2.87-.31,4.39-.99,3.48-3.09,5.81-6.3,6.99s-7.2,1.09-11.98-.28c-4.52-1.29-7.66-3.31-9.43-6.06-1.48-2.3-1.95-5.14-1.6-8.53.14-1.36.87-1.9,2.68-1.38l4.07,1.16c1.56.48,1.94,1.19,1.91,2.67Z"/>
      <path class="cls-3" d="M311.34,127c-2.29,2.69-4.91,4.44-7.94,5.2-3.58.89-7.35.35-11.31-1.64-4.74-2.38-7.78-5.84-9.13-10.39-1.35-4.55-.76-9.34,1.77-14.38,2.63-5.24,6.21-8.68,10.73-10.32,4.52-1.64,9.26-1.21,14.22,1.28,3.93,1.97,6.62,4.62,8.07,7.92,1.17,2.66,1.37,5.45.7,8.4-.38,1.67-1.32,1.93-2.83,1.1l-3.86-1.93c-1.37-.72-1.55-1.46-1.58-3.01-.02-.89-.25-1.71-.63-2.47-.67-1.31-1.88-2.41-3.61-3.28-2.32-1.17-4.62-1.17-6.88-.02-2.27,1.15-4.2,3.31-5.79,6.49-1.59,3.16-2.18,5.93-1.78,8.32.4,2.39,1.76,4.17,4.08,5.33,1.87.94,3.59,1.23,5.17.88,1.05-.23,2.02-.73,2.87-1.53,1.17-1.09,1.83-1.13,2.94-.54l3.96,1.99c1.65.86,1.62,1.71.85,2.61Z"/>
    </g>
  </g>
</svg>