<svg xmlns="http://www.w3.org/2000/svg" width="933.335" height="933.333"><defs><clipPath id="a" clipPathUnits="userSpaceOnUse"><path d="M0 1080h1080V0H0Z"/></clipPath></defs><g clip-path="url(#a)" transform="matrix(1.33333 0 0 -1.33333 -254.2 1186.467)"><path d="M0 0c193.245 0 349.939-156.694 349.939-349.938C349.939-543.306 193.245-700 0-700c-193.367 0-350.062 156.694-350.062 350.062C-350.062-156.694-193.367 0 0 0" style="fill:#f4f2f6;fill-opacity:1;fill-rule:evenodd;stroke:none" transform="translate(540.711 889.85)"/><path d="M0 0c184.847 0 334.75-149.779 334.75-334.627S184.847-669.377 0-669.377c-184.848 0-334.627 149.902-334.627 334.75S-184.848 0 0 0" style="fill:#fff;fill-opacity:1;fill-rule:evenodd;stroke:none" transform="translate(540.588 874.54)"/><path d="M0 0c178.426 0 323.143-144.594 323.143-323.021 0-178.55-144.717-323.143-323.143-323.143-178.427 0-323.144 144.593-323.144 323.143C-323.144-144.594-178.427 0 0 0" style="fill:#2d317c;fill-opacity:1;fill-rule:evenodd;stroke:none" transform="translate(540.588 862.932)"/><path d="M0 0c128.788 0 233.25-104.463 233.25-233.128 0-128.788-104.462-233.25-233.25-233.25-128.665 0-233.128 104.462-233.128 233.25C-233.128-104.463-128.665 0 0 0" style="fill:#fff;fill-opacity:1;fill-rule:evenodd;stroke:none" transform="translate(540.588 773.04)"/><path d="M0 0c25.19-23.461 53.59-33.957 78.656-32.351 28.4 1.728 51.738 16.422 80.878 48.156 25.314-29.634 51.12-45.316 78.533-47.415 25.807-1.976 52.232 8.026 80.261 31.239 48.775-79.519 54.948-172.869 20.991-249.056-28.153-63.097-84.583-121.009-180.526-172.623C61.246-369.571-2.346-306.968-28.029-232.881-51.244-165.338-49.515-76.803 0 0" style="fill:#f4f2f6;fill-opacity:1;fill-rule:evenodd;stroke:none" transform="translate(381.918 722.413)"/><path d="M0 0c-22.103-23.214-46.922-42.724-80.385-44.822-28.523-1.729-55.812 10.742-77.421 28.77-20.127-33.586-32.351-70.877-35.932-109.896-3.457-36.92.864-75.075 12.966-110.143 28.894-83.842 104.833-142.494 180.154-183.49 71.001 38.773 140.396 91.993 174.229 167.561 34.08 76.434 24.696 164.351-16.547 235.721-22.842-17.41-49.39-30.005-78.902-27.659C46.552-41.488 20.744-22.72 0 0" style="fill:#fff;fill-opacity:1;fill-rule:evenodd;stroke:none" transform="translate(541.33 727.846)"/><path d="M0 0c-22.103-20.745-47.046-36.303-79.274-38.278-26.177-1.606-51.737 7.038-73.47 21.361-30.005-59.146-35.191-129.282-13.459-192.379 26.672-77.175 96.437-132.123 165.708-171.018 65.321 36.672 129.159 86.558 160.276 156.324 29.758 66.678 23.954 142.741-8.026 207.073-22.35-13.953-47.416-22.72-74.705-20.621C46.798-35.192 21.361-20.127 0 0" style="fill:#2d317c;fill-opacity:1;fill-rule:evenodd;stroke:none" transform="translate(541.206 706.114)"/><path d="m0 0 10.125-50.997 32.599 16.176-16.547-31.611 57.171-10.743-57.664-11.36 17.163-30.869-32.227 15.435L0-155.954l-11.36 51.985-31.24-15.682 15.558 31.24-57.17 11.236 57.17 10.743-15.064 31.858L-11.36-51.12z" style="fill:#fff;fill-opacity:1;fill-rule:evenodd;stroke:none" transform="translate(540.958 671.417)"/><path d="m0 0 10.125-50.997L0-77.175l42.724 42.354-16.547-31.611L0-77.175h83.348l-57.664-11.36L0-77.175l42.847-42.229-32.227 15.435L0-77.175v-78.779l-11.36 51.985L0-77.175l-42.6-42.476 15.558 31.24L0-77.175h-84.212l57.17 10.743L0-77.175l-42.106 42.601L-11.36-51.12 0-77.175Z" style="fill:#f4f2f6;fill-opacity:1;fill-rule:evenodd;stroke:none" transform="translate(540.958 671.417)"/><path d="M0 0c2.347-11.237 3.581-22.844 3.581-34.945 0-87.916-69.519-159.163-147.927-159.163-78.532 0-148.051 71.247-148.051 159.163 0 12.471 1.235 24.572 3.828 36.179 7.656-73.222 69.395-130.393 144.346-130.393C-69.642-129.159-8.272-72.729 0 0" style="fill:#fff;fill-opacity:1;fill-rule:evenodd;stroke:none" transform="translate(686.416 618.074)"/><path d="M0 0c8.15-72.853 69.642-129.406 144.223-129.406 74.334 0 135.58 56.183 144.223 128.542q.741-7.594.741-15.558c0-80.509-64.949-145.953-145.087-145.953S-.864-96.931-.864-16.422C-.864-10.866-.617-5.433 0 0" style="fill:#f4f2f6;fill-opacity:1;fill-rule:evenodd;stroke:none" transform="translate(397.97 618.32)"/><path d="m0 0 6.792-11.731-17.781-10.248L.494-41.736l17.781 10.125 6.668-11.73-46.181-26.672-6.791 11.854 17.781 10.249-11.36 19.88-17.905-10.372-6.668 11.731z" style="fill:#fff;fill-opacity:1;fill-rule:evenodd;stroke:none" transform="translate(791.126 713.03)"/><path d="m0 0 9.015 8.273 33.709-36.549-9.014-8.273-12.348 13.335L-8.89-51.12l-9.137 10.002 30.252 27.906z" style="fill:#fff;fill-opacity:1;fill-rule:evenodd;stroke:none" transform="translate(737.783 755.505)"/><path d="m0 0 10.989-7.779L-5.928-31.98c-6.05-8.521-.74-14.201 3.828-17.535 4.693-3.21 10.744-4.321 15.929 3.087l17.287 24.573 11.113-7.78-16.545-23.584C13.335-70.877-2.1-64.456-9.138-59.517s-20.991 16.67-8.149 34.945z" style="fill:#fff;fill-opacity:1;fill-rule:evenodd;stroke:none" transform="translate(691.48 804.526)"/><path d="M0 0c-9.014 2.963-15.682-1.976-18.398-9.878-2.593-7.903-.248-15.806 8.767-18.893 9.137-3.086 15.805 1.853 18.522 9.755C11.483-11.113 9.138-3.087 0 0m3.951 11.607C21.732 5.557 26.795-8.891 21.979-23.09 17.287-37.414 4.445-45.934-13.336-39.883-31.24-33.957-36.18-19.386-31.487-5.186c4.815 14.2 17.657 22.72 35.438 16.793" style="fill:#fff;fill-opacity:1;fill-rule:evenodd;stroke:none" transform="translate(641.84 813.293)"/><path d="M0 0c-6.051-7.409-3.828-15.311 2.716-20.621 6.421-5.309 14.694-5.927 20.745 1.605 6.05 7.286 3.828 15.312-2.593 20.621C14.323 6.915 6.05 7.409 0 0m-9.508 7.779C2.469 22.35 17.781 21.856 29.388 12.472c11.607-9.508 15.064-24.449 3.21-39.02-11.854-14.57-27.289-14.2-38.896-4.692-11.483 9.508-15.064 24.449-3.21 39.019" style="fill:#fff;fill-opacity:1;fill-rule:evenodd;stroke:none" transform="translate(326.6 737.23)"/><path d="m0 0 11.113-1.111 14.818-32.105L46.552-4.322l11.73-1.112-4.939-53.219-13.582 1.235 2.468 25.807-18.521-25.931-12.965 27.907-2.222-24.819-13.46 1.234z" style="fill:#fff;fill-opacity:1;fill-rule:evenodd;stroke:none" transform="translate(540.835 844.164)"/><path d="m0 0-4.322 11.36 46.305 18.028 4.445-11.484-16.916-6.544 14.94-38.278-12.718-4.939L16.793 6.421Z" style="fill:#fff;fill-opacity:1;fill-rule:evenodd;stroke:none" transform="translate(414.146 802.921)"/><path d="M0 0c6.174-.988 12.595-.37 19.016-1.729 7.285-1.481 13.953-5.063 15.311-12.718 2.346-13.212-13.953-20.127-24.573-20.497-9.384-.371-17.163 1.729-24.448 6.174l7.656 10.742c5.309-2.84 10.001-4.692 16.546-4.445 2.963.123 5.68.618 8.273 1.975 4.815 2.347 3.457 5.434-1.359 6.545-5.803 1.235-12.347.618-18.398 1.605C-8.891-11.236-16.917-8.52-17.904 0-19.14 11.483-7.038 17.781 2.223 19.139c10.248 1.482 18.768.371 27.288-5.433L21.238 2.964C15.929 6.421 12.101 7.779 6.42 7.409c-.74 0-1.605 0-2.469-.124-1.482-.247-4.198-.864-6.421-2.47C-6.421 2.223-2.964.494 0 0" style="fill:#fff;fill-opacity:1;fill-rule:evenodd;stroke:none" transform="translate(491.567 820.702)"/><path d="m0 0-7.038-12.595 9.878-5.68L10.125-5.31c2.1 3.705 1.235 6.668-1.729 8.397C5.31 4.815 2.099 3.704 0 0m-24.449-18.398 12.472 21.979c7.038 12.594 17.287 17.04 26.548 11.73 9.384-5.186 12.842-14.941 5.309-28.4l-6.297-11.113 15.064-8.52-6.668-11.854z" style="fill:#fff;fill-opacity:1;fill-rule:evenodd;stroke:none" transform="translate(289.803 686.975)"/><path d="m0 0-11.113-7.285 5.804-9.014 11.36 7.532C9.755-6.421 10.743-3.21 9.014-.494 7.162 2.223 3.458 2.346 0 0m-29.264-4.445L-8.149 9.384c12.101 7.903 22.967 6.668 28.276-1.729 2.84-4.568 2.964-10.125-.247-15.558.988.247 2.84.494 6.051-1.111L45.564-19.14l-12.718-8.396-15.682 8.396c-2.964 1.606-4.816.865-7.532-.864l-8.644-5.68 10.496-15.805-11.36-7.532z" style="fill:#fff;fill-opacity:1;fill-rule:evenodd;stroke:none" transform="translate(383.03 784.03)"/><path d="m0 0 7.408 8.396L25.807-7.902c6.421-5.68 11.73-1.853 14.818 1.605 3.086 3.457 4.568 8.397-.988 13.459L20.868 23.708l7.532 8.396 17.905-15.805C59.64 4.445 52.973-7.655 48.28-12.965c-4.816-5.433-15.805-15.806-29.634-3.581Z" style="fill:#fff;fill-opacity:1;fill-rule:evenodd;stroke:none" transform="translate(717.286 355.682)"/><path d="M0 0c-6.544 4.569-12.965 2.1-16.917-3.704-3.951-5.68-3.704-12.595 2.84-17.04 6.668-4.445 13.089-2.1 16.917 3.704C6.791-11.236 6.668-4.445 0 0m5.68 8.521c12.965-8.767 13.83-21.486 6.791-31.858C5.557-33.586-6.544-37.661-19.51-28.894c-12.965 8.768-13.706 21.486-6.915 31.858 7.039 10.249 19.14 14.323 32.105 5.557" style="fill:#fff;fill-opacity:1;fill-rule:evenodd;stroke:none" transform="translate(380.56 329.751)"/><path d="M0 0c-5.062 6.174-11.978 5.68-17.287 1.234-5.433-4.321-7.285-10.989-2.099-17.163 4.939-6.174 11.854-5.68 17.163-1.235C3.21-12.719 5.062-6.174 0 0m7.903 6.544c9.878-12.101 7.038-24.572-2.593-32.475-9.755-7.902-22.474-8.272-32.352 3.828-9.878 12.101-7.038 24.449 2.593 32.475 9.632 7.779 22.35 8.274 32.352-3.828" style="fill:#fff;fill-opacity:1;fill-rule:evenodd;stroke:none" transform="translate(342.158 365.93)"/><path d="m0 0 4.445 9.261L41.612-8.767l-4.445-9.137-13.583 6.544L8.767-42.106l-10.125 4.939L13.459-6.421Z" style="fill:#fff;fill-opacity:1;fill-rule:evenodd;stroke:none" transform="translate(404.144 311.724)"/><path d="m0 0 11.236.864 2.717-33.71 24.572 2.1.865-10.249-35.809-3.087z" style="fill:#fff;fill-opacity:1;fill-rule:evenodd;stroke:none" transform="translate(547.997 284.929)"/><path d="m0 0 10.866 2.716 8.397-32.722 23.832 6.175 2.593-9.879-34.822-9.138z" style="fill:#fff;fill-opacity:1;fill-rule:evenodd;stroke:none" transform="translate(588.621 289.374)"/><path d="m0 0 8.767 7.038 21.115-26.424L49.145-3.827l6.296-8.027L27.535-34.45Z" style="fill:#fff;fill-opacity:1;fill-rule:evenodd;stroke:none" transform="translate(687.651 331.11)"/><path d="m0 0 5.68-9.755 13.83 8.151 11.607-19.757 8.766 5.062-11.607 19.88 6.668 3.828L47.91-14.57l8.767 5.186-18.522 31.858z" style="fill:#fff;fill-opacity:1;fill-rule:evenodd;stroke:none" transform="translate(274.739 403.468)"/><path d="M0 0c8.025 4.074 14.94 4.074 20.867 1.975l-2.47-10.124c-5.432 1.727-9.383 1.357-13.829-.866C-2.47-12.719-3.705-19.51-.494-25.808c3.21-6.173 9.508-9.26 16.546-5.556 5.062 2.593 7.656 6.668 8.643 11.854l10.002-2.841c-.617-3.827-2.964-12.347-14.077-18.027-13.829-7.038-25.683-1.728-31.363 9.261C-16.3-20.004-13.953-7.162 0 0" style="fill:#fff;fill-opacity:1;fill-rule:evenodd;stroke:none" transform="translate(664.685 317.774)"/><path d="M0 0c-2.963 1.729-4.321-.987-5.062-2.346l-6.05-10.249 5.926-3.457L.865-5.68C1.729-4.075 3.211-1.853 0 0m15.436-6.668c-1.853 1.111-3.952.865-5.804-2.346l-6.791-11.73 6.791-3.951L16.3-13.212c2.222 3.704.987 5.557-.864 6.544M-25.56-17.163l12.965 22.102c1.112 1.853 2.717 3.828 4.94 5.187 3.951 2.346 9.508 3.086 13.953-.494 1.975-1.606 3.334-2.84 4.075-5.804 3.58 1.359 7.285 1.605 10.372 0 9.878-5.185 8.397-15.311 4.939-21.115l-12.842-22.35z" style="fill:#fff;fill-opacity:1;fill-rule:evenodd;stroke:none" transform="translate(776.926 413.223)"/><path d="M0 0c.988 3.457-1.976 3.951-3.581 4.445l-11.36 3.21-1.852-6.421L-5.31-2.1C-3.581-2.593-1.111-3.457 0 0m-2.593-16.547c.494 2.1-.247 4.075-3.828 5.064l-12.965 3.704-2.223-7.533 12.842-3.704c4.075-1.235 5.557.37 6.174 2.469m-20.374 37.044 24.572-7.038c2.099-.494 4.445-1.605 6.298-3.457 3.334-3.334 5.432-8.397 2.963-13.706-.988-2.223-1.852-3.828-4.692-5.31 2.346-3.088 3.457-6.668 2.593-10.126-2.47-10.742-12.718-11.853-19.263-10.002l-24.695 7.039z" style="fill:#fff;fill-opacity:1;fill-rule:evenodd;stroke:none" transform="translate(476.503 279.62)"/><path d="m0 0-3.458 10.496L-8.767.741Zm2.47 24.572 18.151-46.057-12.595 1.111L3.828-9.631-14.2-8.025l-5.927-9.879-12.471.988 25.56 42.353z" style="fill:#fff;fill-opacity:1;fill-rule:evenodd;stroke:none" transform="translate(521.943 261.344)"/><path d="M0 0c-3.581 0-5.062-1.234-5.062-2.716S-3.581-5.803 0-5.803s5.062 1.605 5.062 3.087S3.581 0 0 0m0-10.248c-3.951 0-5.804-1.606-5.804-3.334 0-1.729 1.853-3.705 5.804-3.705 3.828 0 5.68 1.976 5.68 3.705 0 1.728-1.852 3.334-5.68 3.334M0 4.816c6.915 0 10.372-3.087 10.372-7.039 0-2.222-1.111-4.198-3.457-5.556 2.963-1.482 4.322-3.827 4.322-6.42 0-4.322-3.705-7.904-11.237-7.904-7.655 0-11.36 3.582-11.36 7.904 0 2.593 1.482 4.938 4.322 6.42-2.346 1.358-3.458 3.334-3.458 5.556 0 3.952 3.458 7.039 10.496 7.039" style="fill:#fff;fill-opacity:1;fill-rule:evenodd;stroke:none" transform="translate(523.178 395.935)"/><path d="M0 0c-3.58 0-5.186-1.234-5.186-2.716S-3.58-5.803 0-5.803c3.458 0 5.062 1.605 5.062 3.087S3.458 0 0 0m0-10.248c-3.951 0-5.927-1.606-5.927-3.334 0-1.729 1.976-3.705 5.927-3.705 3.828 0 5.681 1.976 5.681 3.705 0 1.728-1.853 3.334-5.681 3.334M0 4.816c6.915 0 10.373-3.087 10.373-7.039 0-2.222-1.111-4.198-3.458-5.556 2.84-1.482 4.322-3.827 4.322-6.42 0-4.322-3.828-7.904-11.237-7.904-7.655 0-11.359 3.582-11.359 7.904 0 2.593 1.357 4.938 4.321 6.42-2.346 1.358-3.457 3.334-3.457 5.556 0 3.952 3.457 7.039 10.495 7.039" style="fill:#fff;fill-opacity:1;fill-rule:evenodd;stroke:none" transform="translate(573.557 395.935)"/><path d="M0 0c-3.828 0-5.434-2.223-5.434-4.321 0-1.977 1.606-4.075 5.434-4.075 3.704 0 5.556 2.345 5.556 4.321C5.556-1.976 3.704 0 0 0m0 5.187c7.408 0 11.112-4.57 11.483-11.238.494-7.902-2.222-15.311-11.113-15.681-3.704-.123-8.026 1.481-10.619 4.445l3.951 3.211c1.976-2.1 4.445-2.841 6.421-2.717 3.211.123 5.557 2.223 6.174 5.68-1.235-.741-2.963-2.223-6.297-2.223-7.903 0-10.867 4.075-10.867 9.261C-10.867.987-7.163 5.187 0 5.187" style="fill:#fff;fill-opacity:1;fill-rule:evenodd;stroke:none" transform="translate(547.874 395.565)"/><path d="M0 0h4.815v-26.549H-.741v18.646l-2.964-2.963-3.58 3.581z" style="fill:#fff;fill-opacity:1;fill-rule:evenodd;stroke:none" transform="translate(503.298 400.752)"/></g></svg>