<svg xmlns="http://www.w3.org/2000/svg" viewBox="0 0 599.4 700"><defs><style>.cls-1{fill:#f09e0f}.cls-2{fill:#13110f}.cls-3{fill:#fefefe}</style></defs><g id="Layer_2" data-name="Layer 2"><g id="Layer_2-2" data-name="Layer 2"><path d="M340 0a43.3 43.3 0 0 1-1.77 11.84c1.48 1 2.94 2 4.31 3 5 3.81 8.47 8.54 9.45 14.89a19.9 19.9 0 0 1-.29 7 29.1 29.1 0 0 1-6.62 13.65c-6.33 7.24-14.53 8.6-23.5 7a58 58 0 0 1-19-7.47l-2.87-1.66c-1.49.12-2.48 1.09-3.61 1.74a58.6 58.6 0 0 1-19 7.42c-8.85 1.56-17 .21-23.25-6.91a28.5 28.5 0 0 1-7.06-15.72A19.77 19.77 0 0 1 252 18.72a33.1 33.1 0 0 1 8.11-6.5c1.06-.6 2.1-1.23 3.24-1.91L262 0h8.6a20.5 20.5 0 0 0 .85 6.56 2.17 2.17 0 0 0 1.87-.06 105.7 105.7 0 0 1 15.78-3.78c3.63-.62 7.3-1.56 11-1.25a113.4 113.4 0 0 1 28.42 6c.65.23 1.25.77 2 .29 1.23-2.45.72-5.24 1.55-7.77Zm-65.86 15c.36.79.54 1.27.79 1.71 5.31 9.72 13.53 16.18 23.34 20.89a3.05 3.05 0 0 0 2.9-.17c2.49-1.18 5-2.31 7.4-3.68 6.91-4 13-8.88 17.39-15.63a3 3 0 0 0 .88-2.43c-2.62-.83-5.28-1.86-8-2.5-8.43-2-16.82-4.37-25.67-2.77A115.7 115.7 0 0 0 274.14 15m16.79 28.3c-10.87-6.07-19.36-13.93-24.58-24.84a9.9 9.9 0 0 0-3.22 1.66 29 29 0 0 0-2.94 2.19c-5.19 4.51-6.46 9.54-4.07 16 .32.86.68 1.71 1.08 2.53 3.21 6.56 8.68 9.67 15.95 8.84 6.27-.74 12.02-3.05 17.78-6.38m17.54 0c3.62 2.65 9.85 5.07 15 5.94 9.38 1.6 15.25-1.57 18.86-10.17 3.39-8.07.71-15.06-7.51-19.21-6.09 10.67-15.28 17.93-26.35 23.48Z" class="cls-1"/><path d="M135.83 508.68c-13.79-7.94-28.8-13.46-43-22 .82 2.94 1.45 5.28 2.11 7.61 1 3.34 2 6.65 2.89 10a5.47 5.47 0 0 0 2.34 3.44c.77.51 1.5 1.07 2.25 1.6a18.8 18.8 0 0 0 13.18 3.75c9.37-1 18.73-1.85 28-3.37a4 4 0 0 0 .8-.31c.63-.67.3-1.41.26-2.09-.47-8.08-.14-16.17-.1-24.26a86 86 0 0 0-.82-13.16 40.4 40.4 0 0 0-6.74-17.67 4.6 4.6 0 0 1 2.27 1c6.86 4.45 11.37 10.79 14.51 18.2s4.83 15.39 6.19 23.36c2.06 12 3.4 24.1 6.17 36a100.6 100.6 0 0 0 4.6 15.2h9.64v-.4c-1.49-9.5-2-19.13-3.68-28.6-1.45-8-4.21-15.37-10.15-21.71a15.1 15.1 0 0 1 5.53 2.13A34.46 34.46 0 0 1 184 508.67c4.46 6.59 7.26 13.94 9.7 21.44 1.54 4.77 2.91 9.59 4.35 14.38a6.1 6.1 0 0 0 1.08 2.48q35.87 1.23 72.25.8c-1-.76-2-1.54-3.05-2.28a521 521 0 0 1-81-70.82c-21.82-23.64-40.85-49.29-55.88-77.82-11.89-22.57-20.24-46.43-26.11-71.2A453 453 0 0 1 96 270a644 644 0 0 1-2.8-97.21c.37-8.69 1.06-17.37 1.66-26s1.59-17.32 2.65-26.1a15.8 15.8 0 0 1 6.64-2.69c9.28-2.14 18.69-3.56 28.1-4.86A674 674 0 0 0 256.85 84c13.06-4.42 26.07-9 38.9-14a5.38 5.38 0 0 1 4.36 0 725 725 0 0 0 83 27.84c14.73 3.91 29.65 7 44.65 9.62 18.52 3.31 37.2 5.65 55.76 8.73a56.3 56.3 0 0 1 12.75 3.22 3.38 3.38 0 0 1 2.25 3.2A778 778 0 0 1 503.31 233c-.49 18.22-1.83 36.39-4.12 54.48-2.88 22.77-7.27 45.21-14.36 67.07-7.33 22.61-18.11 43.58-30.75 63.62-18.68 29.61-41.3 55.95-66.76 79.91a512 512 0 0 1-59.43 48l-2.58 1.79c2.58.85 60.57.23 72.07-.71a4.45 4.45 0 0 0 1.07-2.43c2.61-8.6 4.94-17.3 8.52-25.58a56.5 56.5 0 0 1 7.86-13.47 31.85 31.85 0 0 1 14.84-10.5c0 .32 0 .55-.09.64-5.26 5.66-8 12.54-9.47 20-2 10-2.26 20.31-4.11 30.57h9.67a93 93 0 0 0 4.63-15c2.5-10.45 3.83-21.12 5.52-31.72 1.52-9.5 3.15-19 6.88-27.92 3.14-7.52 7.7-13.95 14.66-18.45.56-.37 1-1 2-.84a42.2 42.2 0 0 0-6 14.36 70.6 70.6 0 0 0-1.36 12.11c-.38 9.71.79 19.43-.33 29.24a91 91 0 0 0 11.88 2.27c6.68 1.05 13.41 1.65 20.12 2.38a11.45 11.45 0 0 0 6.76-1.32 37.85 37.85 0 0 0 16.93-17.6c1.73-3.57 2.26-7.58 3.29-11.55-15.63 10.91-33.67 17-50.24 26.5.22-2.82 1.27-5.17 1.78-7.64a170 170 0 0 0 3.08-27.72c.41-9.82.44-19.66 1.24-29.46.75-9.11 2.21-18.07 6.2-26.42a38.3 38.3 0 0 1 11-13.85 3.2 3.2 0 0 1-.12.93c-4.67 9.36-4.87 19.33-3.88 29.41.72 7.33 1.81 14.62 2.53 21.95A64.2 64.2 0 0 1 481 476.5c-.08.38-.13.77-.23 1.32 2.29-1.68 4.37-3.34 6.58-4.8 5.23-3.46 11.08-5.67 16.86-8a117 117 0 0 0 11.16-5 40.65 40.65 0 0 0 18.73-20.38c.43-1 .54-2.19 1.58-2.78a64.6 64.6 0 0 1-2.47 14.74c1.4.2 1.83-.76 2.45-1.3a98.3 98.3 0 0 1 18.77-13.3 35.7 35.7 0 0 1 11.57-4c3.47-.47 4.73.62 4.62 4.17-.27 8.18-.59 16.37-.87 24.55v2.57l21.07 5.66c1.58.43 3.16.86 4.75 1.26s3.45.84 3.83 3-1.06 3.09-2.59 4.06c-6 3.84-12.06 7.73-18.08 11.6-.94.61-1.86 1.24-2.95 2 3.23 6 3.27 12.39 2 18.83a44.6 44.6 0 0 1-4.56 12.32 66.3 66.3 0 0 1-8.49 11.98c-4.87 5.67-9.78 11.31-14.33 17.24a54.1 54.1 0 0 0-9.6 18c-.83 2.94-2.95 4.86-5.36 6.49a51.1 51.1 0 0 1-11.88 5.63 145 145 0 0 1-16 4.52 37.2 37.2 0 0 0-.89 7.25c-.58 7-1.32 14.07-1.39 21.14a7.7 7.7 0 0 1-2.51 5.67c-5.82 5.77-12.92 9.26-20.58 11.76-7 2.26-14.15 3.15-21.41 3.76-18.67 1.57-37.4 2-56.19 2.75 12.66 4.09 25.53 7.53 38.53 11.81a54 54 0 0 1-5.46 5.3c-1 .91-2.13.37-3.2.1-12.07-3.1-24.13-6.26-36.22-9.3-9.51-2.39-19.06-4.64-28.58-7a21.4 21.4 0 0 0-5.46-.59c-37.37.36-74.74.14-112.11-.23h-1.84c-6.24-.11-12.55-.9-18.71-.09s-11.95 2.67-17.9 4.17q-25.71 6.48-51.38 13.08a4 4 0 0 1-4.4-1.09c-1.31-1.37-2.74-2.62-4.47-4.25 14-4.65 27.76-8.28 41.27-12.84-2.62-.13-5.25-.3-7.87-.37-12.29-.33-24.56-.75-36.83-1.46-10-.57-20.05-.86-29.89-3.07a48 48 0 0 1-12.1-4.28 25.3 25.3 0 0 1-6.65-4.87 13.5 13.5 0 0 1-4-9.33c-.22-8.9-1.17-17.77-2-26.64a10 10 0 0 0-.31-1.32c-4.83-1.21-9.69-2.37-14.42-4a64 64 0 0 1-12.33-5.41 14.73 14.73 0 0 1-7.12-8.81c-1.76-6.18-5.23-11.51-9.11-16.57-4.86-6.34-10.18-12.3-15.31-18.42-5.39-6.42-9.65-13.48-11.6-21.72-1.62-6.81-1.86-13.58 1.56-20-.56-1-1.57-1.37-2.41-1.91q-9-5.83-18.06-11.62a16 16 0 0 1-1.79-1.19c-2.11-1.76-1.73-4.59.87-5.58 2-.76 4.11-1.21 6.18-1.77l21-5.61c.63-.76.38-1.6.35-2.39Q32.43 450 32 438c0-.51-.1-1-.08-1.53.07-2.72 1.42-3.93 4.11-3.62a34.4 34.4 0 0 1 11.3 3.7 76.3 76.3 0 0 1 11.44 7.14l3 2.24c.12-3.12-1-5.77-.55-8.68.8.47.89 1.27 1.16 1.91a41 41 0 0 0 20.41 21.57c5.32 2.64 10.89 4.67 16.34 7a58 58 0 0 1 15.25 9c.22.19.46.43.61.33a.84.84 0 0 0 .53-1.11c-2.21-10-1.37-20 0-29.93.81-6.09 1.68-12.17 1.93-18.31.32-7.65-.66-15.1-3.92-22.14-.2-.45-.35-.93-.55-1.49 1.36.21 2 1.26 2.79 2C122.46 412.72 126 421 128.05 430a114.5 114.5 0 0 1 2.41 19.78c.48 10.12.75 20.25 1.25 30.38a114 114 0 0 0 4.08 26.32c.21.7.56 1.37.04 2.2m-26.62-223H234c4.55 0 9.11.05 13.82-.05a76 76 0 0 1 .12-11.09H107.83c-.23-1.71-.43-3.11-.66-4.79h141.72c4.43-16.45 14.41-27.92 29.79-34.84V86.76c1.65-.28 2.87-1.43 4.7-1.13v147.46l11-1.86V81.46c1.18-1.44 3.19-1 4.15-2.57-.35-.09-.57-.21-.74-.17-.78.23-1.56.47-2.32.77-23.84 9.19-48.11 17.08-72.68 24.07A563 563 0 0 1 157 118.05q-20.75 3.3-41.49 6.66c-3.3.54-6.67.87-9.87 2.11-.29 2.42-.61 4.75-.83 7.08-1.17 12.54-2.14 25.08-2.72 37.66a644 644 0 0 0 2.17 93.56 438 438 0 0 0 9.12 56.29c5.41 23.27 12.94 45.8 23.74 67.18 13.85 27.41 31.55 52.13 52 75 28.63 32 61.16 59.43 96.72 83.38 2.76 1.86 5.48 1.64 8.44 1.32v-217a71 71 0 0 1-10.54-1.82 2.3 2.3 0 0 0-.31.3 1.5 1.5 0 0 0-.07.3v212.52a1.6 1.6 0 0 1-.08.29c0 .1 0 .22-.1.28s-.18.07-.59.18c-.64-.42-1.49-1-2.31-1.51-6.42-4.38-12.69-9-18.86-13.72-31.41-24.06-60.11-50.94-84.79-82-17-21.39-31.59-44.29-42.69-69.32-9.11-20.55-15.38-42-19.91-64a85 85 0 0 1-1.85-10.49h140a81 81 0 0 1-3.6-11.15H110.22c-.76-1.74-.58-3.49-1.01-5.47m206.86 257.66c1.54-1 2.72-1.76 3.89-2.55q14.75-10 28.71-21c30.65-24.27 58.33-51.46 81.77-82.79a326.5 326.5 0 0 0 38.77-66c7.55-17.42 12.59-35.62 16.36-54.19 1.34-6.6 2.6-13.22 3.44-20.1H345.26c-5.18 14.71-14.89 25-29.19 31.14Zm-74.5-184.8c-5.67-5.66-11-11-16.38-16.37-3.42-3.39-6.05-3.36-9.49.05-4.8 4.76-9.56 9.56-14.36 14.32a3.9 3.9 0 0 1-2.71 1.7c-.49-.59-1.17-1.49-1.93-2.31a24 24 0 0 0-2.39-2.38 5.42 5.42 0 0 0-7.51 7.81c1.5 1.65 3.11 3.2 4.61 4.73a8.8 8.8 0 0 1-2.14 2.52c-4.69 4.72-9.42 9.4-14.1 14.13-3.24 3.27-3.23 6 0 9.27 4.69 4.72 9.42 9.4 14.11 14.13a7 7 0 0 1 2 2.29c-.27 1-1.12 1.44-1.73 2.1-.91 1-1.92 1.85-2.8 2.85a5.38 5.38 0 0 0 .09 7.72c2.17 2.11 5.26 2.06 7.72-.15.76-.68 1.42-1.47 2.19-2.15s1.5-1.94 2.72-2.28a4.3 4.3 0 0 1 .58.4q7.84 7.8 15.67 15.61c3.44 3.4 6.05 3.41 9.48 0 4.8-4.76 9.56-9.56 14.36-14.31.63-.62 1.09-1.5 2.32-1.7 1.52 1.5 3 3.16 4.72 4.63a5.43 5.43 0 1 0 7.35-8c-1.47-1.53-3-3.05-4.55-4.67.86-.92 1.53-1.67 2.24-2.38q6.94-7 13.89-13.9c3.54-3.56 3.55-6.12 0-9.71-4.61-4.66-9.26-9.27-13.88-13.92a7 7 0 0 1-2-2.3c.32-1 1.26-1.58 1.93-2.33s1.6-1.59 2.37-2.4a5.42 5.42 0 1 0-7.39-7.94c-1.65 1.48-3.17 3.14-4.99 4.94m199.24-154.79c.24-1.27-1-1.42-1.56-1.95-2.92-2.73-3.53-5.19-2-8.82a23.6 23.6 0 0 1 3.07-4.95 88 88 0 0 1 7.83-8.63c4.94-4.9 10-9.69 14.87-14.66 5.7-5.84 5.62-12.25 0-18.18a38 38 0 0 0-12.13-8.21c-11.34-5.16-23.28-7.42-35.71-7.76-15.62-.44-29.26 4.93-41.8 13.68a29.2 29.2 0 0 0-9.17 9.78c-.82 1.5-1.73 3-1.44 5.21 5.07-4.09 10.88-6 16.86-7.31a145 145 0 0 1 38.43-3.07 90.5 90.5 0 0 1 20.31 2.87 22.3 22.3 0 0 1 6.74 2.89c2.76 1.91 3.34 3.64 2.33 6.83a34.1 34.1 0 0 1-6.34 11.14 78.1 78.1 0 0 1-14.92 13.62c-12.92 9.35-27.13 16.32-41.72 22.63a10.2 10.2 0 0 1-10.16-.79 44.8 44.8 0 0 1-9.45-8.25c-.51-.55-.82-1.45-1.81-1.42-1.49 5.86-.61 8.16 8 20.87a9.5 9.5 0 0 1-2.68 2.44 91.7 91.7 0 0 0-11.24 10.42 21.9 21.9 0 0 0-4.51 6.9c-1.21 3.32-.16 5.73 3.19 6.74 4.75 1.44 9.3 1.19 13.19-2.42a35 35 0 0 0 4.17-4.5c2.65-3.51 5.32-7 7.87-10.59a51.6 51.6 0 0 1 15.77-14.37c6.66-4 13.57-7.57 20.57-11a4.59 4.59 0 0 1 4.85 0 11.3 11.3 0 0 0 3.81 1.09c4.97 1.02 9.82.37 14.78-.23M300.15 331.22v217.29c3.78-.46 7.69 1.24 10.8-1.9v-216.9c-3.61.52-6.95 1.51-10.8 1.51M516.47 475c-3.76 12.74-7.49 25.48-11.08 38.42a107 107 0 0 0 12.74-.46 128 128 0 0 0 31.3-5.62 70 70 0 0 0 24-12.74 19 19 0 0 0-6.07-6.85 42.5 42.5 0 0 0-10.54-5.54c-9.92-3.78-20.27-5.58-30.76-6.73-3.13-.31-6.26-.91-9.59-.48m-430.38 0c-1.48 0-2.8-.1-4.1 0-3.56.32-7.13.64-10.66 1.14-9.22 1.29-18.32 3.07-27 6.64a35.7 35.7 0 0 0-11.92 7.34 12.1 12.1 0 0 0-3.27 4.59c9 7.41 19.31 11.69 30.29 14.49 11.14 2.85 22.52 3.91 34 4.29a8.3 8.3 0 0 0 3.64-.34ZM311 233V83.77c-1.79-.71-3.56-1.48-5.38-2.1s-3.46-1.68-5.43-1.81v151.55A73 73 0 0 1 311 233m36.35 41.9h144.33c.66-3.62.79-7.15 1.09-10.64-4.34-.67-145.83-.45-148.07.25 1.3 3.34 1.83 6.87 2.65 10.41Zm143.8 5.91h-143.5a81 81 0 0 1-1 10.8h143.06c.73-3.56 1.02-7.09 1.44-10.78ZM509.64 536a16.4 16.4 0 0 0-5-5.87 49.9 49.9 0 0 0-11.14-6.38 182 182 0 0 0-29.66-9.57c-4-1-7.9-1.92-12.16-2.52-3.22 11.22-6.4 22.31-9.64 33.62h2.85c8.77-.56 17.55-1 26.31-1.73 9.87-.83 19.76-1.63 29.5-3.58 3.18-.62 6.49-.97 8.94-3.97m-416.76.05c2.84 2.47 2.86 2.52 6 3.27a128 128 0 0 0 14.81 2.48c10.87 1.31 21.79 2.09 32.71 2.83 4.57.31 9.15.46 14.13.71-3.3-11.44-6.51-22.56-9.72-33.71l-3.69.72a193.4 193.4 0 0 0-35.82 10.45 53.8 53.8 0 0 0-13.17 7.2 16.6 16.6 0 0 0-5.25 6.08Zm-.66 4.23c.57 3.88 1.07 7.31 1.59 10.73a604 604 0 0 1 6.69 64.07 9.85 9.85 0 0 0 2.44 6.13 22.6 22.6 0 0 0 8.17 5.85 58 58 0 0 0 16.83 4.45c10.88 1.38 21.82 1.84 32.76 2.24 20.77.77 41.54 1.43 62.31 1.85 35.83.73 71.65 1 107.49.9 40.54-.07 81.07-.26 121.56-2.59 8.27-.48 16.55-1 24.64-3s15.69-5.21 22.18-10.66a8.47 8.47 0 0 0 3.3-6.83c.27-11.16 1.42-22.26 2.66-33.34 1.43-12.71 3.13-25.38 5.24-38 .08-.5.48-1.17-.3-1.65a27.6 27.6 0 0 1-8.1 2.61 247 247 0 0 1-28.3 3.58c-18.16 1.52-36.36 2.42-54.56 3.06q-31 1.09-62 1.51c-60.5.89-121 .49-181.46-1.9-21.07-.84-42.13-1.89-63.08-4.43-6.69-.81-13.42-1.55-20.06-4.55Zm192.21-246.61c19.94-7.53 39-16.13 56-28.95a39.4 39.4 0 0 0-5.72-10.34 210.2 210.2 0 0 0-55.3 30.07c1.36 2.55 2.5 4.72 3.66 6.88.37.67.8 1.39 1.36 2.34m57.4-24.11c-16.9 12.47-35.69 20.82-55 28.33a67 67 0 0 0 5.15 8.33c1.17-.23 2.17-.42 3.16-.64 17.86-4.08 32.79-13.83 47.29-24.44.58-.42 1.21-.82 1.12-1.68-.36-3.21-.45-6.46-1.72-9.9M277.47 280a207.6 207.6 0 0 1 26-16.73 236 236 0 0 1 28-12.78 44 44 0 0 0-6.37-6 4.11 4.11 0 0 0-4.48-.73 156 156 0 0 0-28.37 13 72 72 0 0 0-11.82 8.75c-1.88 1.72-3.62 3.61-5.43 5.42a2 2 0 0 0-.62 2.47c.99 2.15 1.62 4.42 3.09 6.6M288 309c-3.65-5.75-6.84-11.46-10-17.19a155 155 0 0 1-8.41-17.77c-1.14-.21-2.23-.48-3.33-.59-1.91-.19-3.83-.28-6.09-.45 3.54 16.53 11.34 30.45 22.13 43.07A64 64 0 0 0 288 309m286.7 189.14a4.6 4.6 0 0 0-1 .39c-11.62 8.8-25 13.19-39.14 15.67-15.6 2.75-31.31 3-47.08 2-1.22-.08-2.45 0-3.67 0a7 7 0 0 0 2.23 1.14 88 88 0 0 1 17.21 7.93 27.5 27.5 0 0 1 7.79 6.85 12.06 12.06 0 0 1 2.37 9.49q-2.85 17.08-4.86 34.29c-.29 2.47-1 5-.56 7.59a112.5 112.5 0 0 0 18.31-5.54 37.4 37.4 0 0 0 8.09-4.31 8.13 8.13 0 0 0 3.35-4.26c2.23-7.93 6.52-14.73 11.67-21 4.8-5.85 9.74-11.59 14.54-17.44s8.63-12.41 10.37-19.94c.97-4.24 1.48-8.46.34-12.82ZM94.71 583.5a14 14 0 0 0 0-1.51c-1.53-13.31-3.24-26.6-5.51-39.79a13.06 13.06 0 0 1 3.46-11.54 28 28 0 0 1 5.6-4.74 72.6 72.6 0 0 1 13.08-6.67c2.49-1 5-1.93 8-3.06-.81-.09-1.09-.15-1.38-.15-.92 0-1.84.08-2.76.14-15.87 1.06-31.69.8-47.4-2-14-2.49-27.34-6.83-38.86-15.61a4.2 4.2 0 0 0-.81-.36c-.81.87-.7 1.94-.76 2.93a32.5 32.5 0 0 0 1 10.34c2.07 8.12 6.43 15 11.77 21.26 4.5 5.31 9 10.63 13.38 16 5 6.07 9 12.66 11.24 20.24a8 8 0 0 0 2.92 4.19 27 27 0 0 0 5 3c6.85 3.45 14.2 5.53 22.03 7.33m158-310.6c-4.25 17.06 4.76 40.06 23.7 48.86a11 11 0 0 0 2.43-2.37c-11.64-13.68-20-28.9-23.54-46.42a3.63 3.63 0 0 0-2.62-.07Zm52 53.77a107.6 107.6 0 0 0 3.84-20.2 115 115 0 0 1-15.48 4.41 2 2 0 0 0-1.18.91 76.3 76.3 0 0 1-11 12.31 44.74 44.74 0 0 0 23.82 2.57m-4.24-78.89c-3.9-4.13-8.19-7.39-12.34-10.81-.67-.55-1.31-.28-2-.1a45.7 45.7 0 0 0-18 9.31c6 3.25 11.79 6.63 17.39 10.24a111 111 0 0 1 14.95-8.64m9.53 77.74a46.4 46.4 0 0 0 17.58-9.4 3.18 3.18 0 0 0 1.25-2.62 121 121 0 0 0-1.33-16.5c-4.75 2.65-9.2 5.26-13.87 7.29a170 170 0 0 1-3.63 21.23m-45.1-76.38a44 44 0 0 0-11.09 18.7l16.58 1.27a79.7 79.7 0 0 1 10.88-10.58 165 165 0 0 0-16.36-9.39ZM82.76 471.66c.07-.25.15-.38.11-.44a7 7 0 0 0-.7-1A167 167 0 0 0 56 445.71c-5.37-3.93-11-7.39-17.56-9.14a7.9 7.9 0 0 0-3.36-.37c.37 10.27.73 20.34 1.09 30.44l-29.88 8.08 22.49 14.45c4.91-5.24 11-8.27 17.51-10.58a117 117 0 0 1 20.19-5c5.42-.88 10.87-1.44 16.28-1.93m513.49 3.07-30-8.06c.37-10.12.75-20.29 1.14-30.57a15 15 0 0 0-1.55.09c-.7.13-1.39.3-2.08.49-6.53 1.77-12.16 5.25-17.53 9.21A167 167 0 0 0 520.58 470c-.38.43-1 .77-.88 1.67 2.47.25 5 .47 7.47.76a132 132 0 0 1 29 6.18c5.91 2.09 11.52 4.77 16.13 9.17.49.47.82 1.22 1.79 1.2ZM334 309.38a45 45 0 0 0 9.23-22.89L332 294.16c.52 5 1.23 9.9 1.42 14.8 0 .04.14.11.58.42m-17-69.43c-5.69-3.46-17.35-5.49-23.67-4a123 123 0 0 1 10.5 9.43Z" class="cls-2"/><path d="M491.15 458.9c.57-4.33 1.15-8.68 1.36-13.07.53-10.66-.26-21.27-1.08-31.88-.75-9.9-1.45-19.8-.89-29.73a57.3 57.3 0 0 1 5.46-22.49 41.4 41.4 0 0 1 7.2-10.39c.42.85-.12 1.42-.32 2-3 9-2.83 18.11-.94 27.26 1.47 7.1 3.15 14.16 4.62 21.26a63.1 63.1 0 0 1 1.21 20.73 2.82 2.82 0 0 0 .05 1.77c.19 0 .45.05.54-.05 5.07-5.76 11.32-10 17.83-13.89 4.21-2.52 8.44-5 12.45-7.85a45.16 45.16 0 0 0 17.49-23.77c.22-.68.46-1.35.71-2a6 6 0 0 1 .52-.77 60 60 0 0 1-5.21 27.89c-3.77 8.21-9.31 15.11-15.81 21.31a178.4 178.4 0 0 1-20.93 16.52c-7.78 5.46-15.78 10.63-23 16.8a1.22 1.22 0 0 1-1.26.35M39.81 376.69c.37 1.14.73 2.3 1.13 3.44a44.56 44.56 0 0 0 15.69 21.47A145 145 0 0 0 70 410.21c6.62 3.94 13 8.2 18.11 14 .17.19.3.27.52.11.07-.05.21-.11.2-.15-1.29-12 1.12-23.6 4-35.16a91.2 91.2 0 0 0 3.19-20.26 46.2 46.2 0 0 0-3.16-17.65 12.5 12.5 0 0 1 3 3c5.35 6.88 8.2 14.77 9.48 23.31 1.51 10 1 20 .27 30-.83 11.94-2 23.86-1.62 35.86a90 90 0 0 0 1.17 13.13 4.7 4.7 0 0 1 0 2.48 2.4 2.4 0 0 1-.81-.31c-8.44-7.17-17.85-13-26.81-19.46a148 148 0 0 1-19.82-16.43C49.24 414 43 404 40.5 391.89a43.6 43.6 0 0 1-.69-15.2" class="cls-2"/><path d="M528.62 368a6.56 6.56 0 0 0 2.29-2.49 73 73 0 0 1 13.29-13.12c3-2.36 5.92-4.73 8.89-7.07 9.89-7.78 16.93-17.39 19.31-30a2.33 2.33 0 0 1 .78-1.57c2.2 16.89-2.4 31.91-12.34 45.5a143 143 0 0 1-18 19.69c-6 5.6-12 11.13-18 16.71a94 94 0 0 0-8.35 8.82c-.89-.34-.64-.92-.62-1.37.68-12.25-1-24.3-2.92-36.33-1.67-10.4-3.62-20.76-4.36-31.28-.71-10.21 0-20.23 3.94-29.84 1.24-3 3-5.78 4.53-8.68.09-.18.54-.17 1-.3a83.5 83.5 0 0 0-1.28 10.85c-.25 8.65 2.08 16.79 4.67 24.89 2.24 7 4.71 13.94 6.07 21.2a66.4 66.4 0 0 1 1.1 14.39M67.66 367.79c-.21-10.88 2.69-21 6-31C75.78 330.36 78 324 79 317.28a48.5 48.5 0 0 0-.55-19.49c-.17-.69-.25-1.41-.36-2.09a9.3 9.3 0 0 1 2.56 3.3 52.46 52.46 0 0 1 7.46 25.32c.48 9.46-.65 18.8-2.12 28.11-1.84 11.61-4 23.18-5 34.91a155 155 0 0 0-.24 16.82c-.52.35-.82.09-1.09-.23-5.7-6.75-12.41-12.47-18.87-18.45A259 259 0 0 1 42 366.92c-7.44-8.45-13.55-17.67-16.77-28.61a62.9 62.9 0 0 1-2-22.79 21 21 0 0 1 .49-2.38c.46 1.89.79 3.2 1.11 4.52a45.8 45.8 0 0 0 12.27 21.89 94 94 0 0 0 8.3 7.3c7.99 6.32 16.27 12.34 22.26 20.94" class="cls-2"/><path d="M12.58 249.29c.56 3 .9 5.52 1.47 7.94a48.4 48.4 0 0 0 10.61 20.5 114 114 0 0 0 8.06 8.42c7.08 6.79 14.17 13.56 19 23 .72-4.17.89-7.8 1.7-11.33a128 128 0 0 1 6.86-20 121.6 121.6 0 0 0 6.4-18.2 50 50 0 0 0 .69-20.09 13 13 0 0 1 0-1.62 38.9 38.9 0 0 1 5.29 11.34 61.2 61.2 0 0 1 2.29 22.45c-.94 12.82-4.35 25.15-7.35 37.56-2.41 9.89-4.6 19.74-5.6 29.85-.23 2.4-.3 4.82-.44 7.17a.71.71 0 0 1-.9-.33c-6.57-9.43-14.43-17.79-21.89-26.47-7.14-8.32-14-16.8-19.31-26.47-6.12-11.22-9.13-23.14-8.1-36a46.7 46.7 0 0 1 1.22-7.72M535.09 346.23c-.22-3-.36-6.06-.68-9.07-1.1-10.5-3.61-20.73-6.12-31-2.4-9.82-5-19.61-6.14-29.69-1.36-11.77-.73-23.29 4.58-34.17.44-.92.92-1.83 1.4-2.73.19-.34.43-.66.66-1 .77.26.45.86.39 1.23-1.72 10 0 19.55 3.57 28.86 2.13 5.53 4.36 11 6.53 16.53a73 73 0 0 1 5.35 23.17c.56.28.75-.16.91-.47 3.5-6.59 8.42-12.06 13.69-17.24 4.3-4.23 8.76-8.31 12.68-12.92a48 48 0 0 0 11.48-25 7.1 7.1 0 0 1 .85-2.84 61.6 61.6 0 0 1-5.62 40.27 113.7 113.7 0 0 1-15 22.38c-6.57 7.85-13.29 15.57-19.94 23.35-2.84 3.36-5.48 6.86-8.59 10.34" class="cls-2"/><path d="M591 185.81c4.25 16.14 1.53 31.21-5.53 45.75a152.5 152.5 0 0 1-11.47 19.2c-8.06 11.81-17.14 22.9-24.29 35.72-1-2-.79-3.86-1.06-5.62-1.88-12-5.56-23.43-9.24-34.92-2.8-8.75-5.65-17.5-7.41-26.54-2.27-11.61-2.56-23.15 1.56-34.48a24.8 24.8 0 0 1 3-6.22 55.5 55.5 0 0 0-.22 11.89 61.1 61.1 0 0 0 5.68 19.31c2.38 5.09 4.88 10.13 7.26 15.22a69.7 69.7 0 0 1 6.64 22.19.75.75 0 0 0 .93-.55c3-6.92 7.51-12.86 12.37-18.56 3.31-3.9 6.66-7.76 9.82-11.78 6.47-8.23 10.55-17.45 11.26-28a14 14 0 0 1 .29-1.82 4 4 0 0 1 .41-.79M6.24 185a51 51 0 0 0 11 30.9c2.73 3.59 5.68 7 8.63 10.39 5.63 6.51 11 13.22 14.65 22 .23-1.27.35-1.86.44-2.46a73.8 73.8 0 0 1 6.48-20.7c2.85-6 5.81-12 8.48-18a51.23 51.23 0 0 0 4.23-27.89c1.06.27 1.12 1.32 1.46 2.05 4.58 10.09 5.43 20.69 4.1 31.54-1.51 12.25-5.52 23.86-9.23 35.55-3.09 9.74-6.18 19.48-7.93 29.58-.47 2.69-.85 5.39-1.25 8-.69.25-.83-.2-1-.53-4.23-7.75-9.48-14.82-14.61-22-6.09-8.47-12.28-16.88-17.4-26-4.9-8.71-8.64-17.84-10-27.8a61.5 61.5 0 0 1 1.15-22.85 11.4 11.4 0 0 1 .8-1.78" class="cls-2"/><path d="M33.7 185c.42-1.75.8-3.52 1.27-5.26 1.89-7 5.12-13.34 8.65-19.58 2.31-4.1 4.67-8.17 6.84-12.34 4.37-8.4 6.87-17.27 6.38-26.83v-1.46a6.86 6.86 0 0 1 1.72 3.47c3.77 11.09 3.56 22.31 1 33.6s-6.9 21.8-11 32.47c-3.8 9.82-7.56 19.66-9.8 30-.39 1.8-.72 3.61-1.08 5.4-.55.16-.73-.25-.88-.57-4.9-10.5-11.19-20.21-17.13-30.12-5.57-9.3-11-18.68-14.82-28.88C1.15 155-.7 144.82.26 134.22a58.5 58.5 0 0 1 1.5-8.76 13.7 13.7 0 0 1 1.57-4.59 74.4 74.4 0 0 0 1.54 13.73 58.2 58.2 0 0 0 9.31 19.89c3.1 4.45 6.33 8.8 9.47 13.22a71.2 71.2 0 0 1 8.83 16.09c.18.47.44.9.66 1.35ZM559.42 224.5c-2.52-12.51-7-24.15-11.48-35.78-3.84-9.91-7.88-19.74-10.43-30.09-2.89-11.73-3.46-23.44.35-35.11a12.7 12.7 0 0 1 1.74-3.6c.09 2.57.08 5.15.31 7.7a53.3 53.3 0 0 0 6.33 20.38c2.64 5 5.43 9.84 8.15 14.76 3.72 6.74 6.83 13.72 8.23 21.36a10 10 0 0 0 .55 1.49 11.4 11.4 0 0 0 1.58-3.43 81.3 81.3 0 0 1 9.73-16.64c2.27-3.15 4.56-6.29 6.84-9.44 7.53-10.37 12.24-21.7 11.77-34.79.86-.13.66.58.85.89a4.7 4.7 0 0 1 .4 1.15c3.7 12.93 2.76 25.69-1.44 38.32-3.57 10.74-9.06 20.55-14.83 30.21-4.93 8.25-10.1 16.36-14.64 24.83-1.43 2.56-2.68 5.19-4.01 7.79" class="cls-2"/><path d="M31.35 157.54c-3.18-10.88-7.77-20.5-11.07-30.61a75 75 0 0 1-3.6-16.12 44.8 44.8 0 0 1 3.06-21.93c1.85-4.43 3.51-8.94 5.69-13.23a36.2 36.2 0 0 1 9.74-12.27c-1.34 5.58-.05 10.45 1.56 15.26 1.16 3.49 2.32 7 3.68 10.4 3.72 9.36 3.82 18.93 1.94 28.66-1.52 7.85-4.21 15.37-6.53 23a127 127 0 0 0-3.76 14.53c-.06.58-.35 1.14-.71 2.31M565 157.51c-2.14-12.35-6.73-23.45-9.7-35-2.4-9.35-3.38-18.77-.81-28.2 1.4-5.11 3.45-10 5.16-15.07 1.66-4.87 3.06-9.78 1.94-15 1-.46 1.33.4 1.78.82a34 34 0 0 1 6.6 8.42 107 107 0 0 1 8.39 19.71c3 9.36 2.12 18.79-.37 28.15-2.06 7.72-5.18 15.06-8 22.51-1.41 3.72-2.67 7.5-4 11.25-.21.65-.49 1.28-.99 2.41M276.9 684.05c-3-1.69-4.22-4.09-3.56-7.27s3-5 6-5.9a11 11 0 0 1 9.42 1.15c4.44 2.86 4.69 8.18.58 11.47-.22.18-.41.38-.67.63 3.6 1.39 5 4 4.74 7.74s-2.35 5.83-5.47 7.09a13.85 13.85 0 0 1-10.76-.09 8.28 8.28 0 0 1-4.78-10.36c.7-2.2 2.36-3.46 4.5-4.46m10.82 7a4.72 4.72 0 0 0-4.89-4.73c-2.81 0-4.86 1.71-5 4.23a4.94 4.94 0 0 0 9.86.5Zm-4.84-8.58c2.48 0 4.25-1.67 4.2-3.86a4 4 0 0 0-4.24-3.86c-2.58 0-4.39 1.71-4.33 4.07.06 2.18 1.87 3.66 4.37 3.62ZM337.89 678.12h-5c-.6-.24-.63-1.06-1-1.62-1.72-2.31-4.36-2.46-6.23-.26a9.34 9.34 0 0 0-2.15 6.18.81.81 0 0 0 .89-.14c3-2.57 6.36-2.57 9.71-.83s4.65 5 4.49 8.74c-.21 5-3.49 8.85-7.93 9.57-5.57.91-9.93-1.35-11.71-6.51a21.72 21.72 0 0 1 .7-17 9.85 9.85 0 0 1 11.36-5.7c4.04.91 6.08 3.11 6.87 7.57m-5.2 12c0-3.21-1.59-5.24-4-5.42-2.63-.2-4.64 1.82-4.78 4.8-.16 3.29 1.81 5.82 4.52 5.76a4 4 0 0 0 3.15-1.63 5.17 5.17 0 0 0 1.11-3.52ZM308.94 676.39h-13.05a21 21 0 0 1-.09-5.35h19.12c.32 2.65.28 4.78-1.76 7-4.2 4.67-6 10.6-6.94 16.72-.23 1.4-.36 2.82-.57 4.5a31 31 0 0 1-5.95 0c.5-8.56 4.04-15.82 9.24-22.87M264.56 699.29a21.6 21.6 0 0 1-5.56 0V681h-6.91a8.7 8.7 0 0 1-.11-4.24c1.8-.42 3.69-.22 5.3-1.3a7.6 7.6 0 0 0 3-4.4 15.4 15.4 0 0 1 4.29 0Z" class="cls-2"/><path d="M109.21 285.68c.43 2 .25 3.73 1 5.53h138.3a81 81 0 0 0 3.6 11.15h-140a85 85 0 0 0 1.85 10.49c4.53 22 10.8 43.43 19.91 64 11.1 25 25.67 47.93 42.69 69.32 24.68 31 53.38 57.9 84.79 82 6.17 4.73 12.44 9.34 18.86 13.72.82.56 1.67 1.09 2.31 1.51.41-.11.53-.11.59-.18s.07-.18.1-.28a1.6 1.6 0 0 0 .08-.29V330.08a1.5 1.5 0 0 1 .07-.3 2.3 2.3 0 0 1 .31-.3 71 71 0 0 0 10.54 1.82v217c-3 .32-5.68.54-8.44-1.32-35.56-23.95-68.09-51.41-96.72-83.38-20.43-22.82-38.13-47.54-52-75-10.8-21.38-18.33-43.91-23.74-67.18a438 438 0 0 1-9.12-56.29 644 644 0 0 1-2.17-93.56c.58-12.58 1.55-25.12 2.72-37.66.22-2.33.54-4.66.83-7.08 3.2-1.24 6.57-1.57 9.87-2.11q20.73-3.39 41.49-6.66a563 563 0 0 0 65.83-14.49c24.57-7 48.84-14.88 72.68-24.07.76-.3 1.54-.54 2.32-.77.17 0 .39.08.74.17-1 1.52-3 1.13-4.15 2.57v149.76l-11 1.86V85.63c-1.83-.3-3.05.85-4.7 1.13v148.15c-15.38 6.92-25.36 18.39-29.79 34.84H107.17c.23 1.68.43 3.08.66 4.79H248a76 76 0 0 0-.12 11.09c-4.71.1-9.27 0-13.82.05zm69.25-146.32c-10.31-3.11-17.94-1.34-23.08 5.17-5.33 6.76-5.38 16.06-.07 25.33-4.2 1.64-6.76 4.59-6.77 9.21 0 10-.37 20.07.49 30.08a58.5 58.5 0 0 0 4.72 19.57c2.63 5.77 6.54 10.6 10.85 15.15a41.5 41.5 0 0 1 7.08 9.22c2 3.84 5.25 5.54 9.51 5.53h22.73c4.68 0 8-2 9.85-6.4a26 26 0 0 1 5.28-7.85c1.68-1.78 3.39-3.55 5-5.36a42.55 42.55 0 0 0 10.11-18.7 74.3 74.3 0 0 0 2-13.94c.47-8.49.15-17 .34-25.48.12-5.26-1.7-9.13-6.83-11 5.33-9.35 5.41-18.64-.12-25.32-6.14-7.43-14-8.35-23-5.15 2.13-7.64.37-13.86-6.53-17.8a14.53 14.53 0 0 0-16.75 1c-5.5 4.13-6.78 9.84-4.81 16.74M316.07 543.34V327.87c14.3-6.1 24-16.43 29.19-31.14H489c-.84 6.88-2.1 13.5-3.44 20.1-3.77 18.57-8.81 36.77-16.36 54.19a326.5 326.5 0 0 1-38.77 66c-23.46 31.34-51.12 58.53-81.77 82.77q-14 11-28.71 21c-1.16.79-2.34 1.54-3.88 2.55M368 324.58c-9.21-2.91-17.45-2.31-23.23 5.67s-5.09 16.54.05 24.84c-.78.42-1.51.76-2.2 1.19a8.51 8.51 0 0 0-4.44 7.58c.12 10.54-.43 21.08.53 31.61 1.09 12.1 5.17 22.86 13.67 31.74 1.2 1.26 2.39 2.54 3.56 3.82a33.3 33.3 0 0 1 5.21 7.19c2 4 5.36 5.7 9.74 5.69h22.41c4.77 0 8.25-2 10.1-6.51a25.4 25.4 0 0 1 5.3-7.83c2.11-2.23 4.24-4.44 6.25-6.77a41.44 41.44 0 0 0 8.69-16.72 67.8 67.8 0 0 0 2.27-16.08c.19-8.59.13-17.19.15-25.79a9 9 0 0 0-4.92-8.25c-.61-.35-1.41-.39-1.77-1 4.93-7.28 5.61-15.06 1.43-22.58-5.44-9.78-14.39-10.92-24.52-7.87 2-7.37.2-13.14-5.89-17.22a14.93 14.93 0 0 0-17 .31c-5.76 4.1-7.47 9.71-5.39 16.98" class="cls-3"/><path d="M241.57 358.54c1.82-1.8 3.34-3.46 5-4.93a5.42 5.42 0 1 1 7.39 7.94c-.77.81-1.61 1.57-2.37 2.4s-1.61 1.28-1.93 2.33a7 7 0 0 0 2 2.3c4.62 4.65 9.27 9.26 13.88 13.92 3.56 3.59 3.55 6.15 0 9.71q-6.93 7-13.89 13.9c-.71.71-1.38 1.46-2.24 2.38 1.59 1.62 3.08 3.14 4.55 4.67a5.43 5.43 0 1 1-7.35 8c-1.69-1.47-3.2-3.13-4.72-4.63-1.23.2-1.69 1.08-2.32 1.7-4.8 4.75-9.56 9.55-14.36 14.31-3.43 3.41-6 3.4-9.48 0q-7.84-7.78-15.67-15.61a4.3 4.3 0 0 0-.58-.4c-1.22.34-1.84 1.48-2.72 2.28s-1.43 1.47-2.19 2.15c-2.46 2.21-5.55 2.26-7.72.15a5.38 5.38 0 0 1-.09-7.72c.88-1 1.89-1.87 2.8-2.85.61-.66 1.46-1.13 1.73-2.1a7 7 0 0 0-2-2.29c-4.69-4.73-9.42-9.41-14.11-14.13-3.26-3.28-3.27-6 0-9.27 4.68-4.73 9.41-9.41 14.1-14.13a8.8 8.8 0 0 0 2.14-2.52c-1.5-1.53-3.11-3.08-4.61-4.73a5.42 5.42 0 0 1 7.51-7.81 24 24 0 0 1 2.39 2.38c.76.82 1.44 1.72 1.93 2.31a3.9 3.9 0 0 0 2.71-1.7c4.8-4.76 9.56-9.56 14.36-14.32 3.44-3.41 6.07-3.44 9.49-.05 5.37 5.32 10.7 10.7 16.37 16.36m-20.87 63.11 12.72-12.74-12.72-12.84-12.85 12.8Zm-13-55.29 12.56 12.56c4.25-4.24 8.62-8.61 12.8-12.77l-12.54-12.61Zm33.92 8.29L229 387.28l12.8 12.57 12.55-12.59c-4.17-4.12-8.5-8.43-12.7-12.61ZM199.19 400l13.13-13-12.49-12.49-13.08 13ZM440.81 203.75c-5 .6-9.83 1.2-14.75.27a11.3 11.3 0 0 1-3.81-1.09 4.59 4.59 0 0 0-4.85 0c-7 3.39-13.91 6.93-20.57 11a51.6 51.6 0 0 0-15.77 14.37c-2.55 3.58-5.22 7.08-7.87 10.59a35 35 0 0 1-4.17 4.5c-3.89 3.61-8.44 3.86-13.19 2.42-3.35-1-4.4-3.42-3.19-6.74a21.9 21.9 0 0 1 4.51-6.9 91.7 91.7 0 0 1 11.24-10.42 9.5 9.5 0 0 0 2.68-2.44c-8.61-12.71-9.49-15-8-20.87 1 0 1.3.87 1.81 1.42a44.8 44.8 0 0 0 9.45 8.25 10.2 10.2 0 0 0 10.16.79c14.59-6.31 28.8-13.28 41.72-22.63a78.1 78.1 0 0 0 14.92-13.62 34.1 34.1 0 0 0 6.34-11.14c1-3.19.43-4.92-2.33-6.83a22.3 22.3 0 0 0-6.74-2.89 90.5 90.5 0 0 0-20.31-2.87 145 145 0 0 0-38.43 3.08c-6 1.32-11.79 3.22-16.86 7.31-.29-2.2.62-3.71 1.44-5.21a29.2 29.2 0 0 1 9.17-9.78c12.54-8.75 26.18-14.12 41.8-13.68 12.43.34 24.37 2.6 35.71 7.76a38 38 0 0 1 12.13 8.21c5.62 5.93 5.7 12.34 0 18.18-4.87 5-9.93 9.76-14.87 14.66a88 88 0 0 0-7.83 8.63 23.6 23.6 0 0 0-3.07 4.95c-1.56 3.63-.95 6.09 2 8.82.54.48 1.77.63 1.53 1.9" class="cls-1"/><path d="M300.15 331.22c3.83 0 7.19-1 10.8-1.51v216.9c-3.11 3.14-7 1.44-10.8 1.9ZM516.47 475c3.33-.46 6.46.14 9.59.48 10.49 1.15 20.84 2.95 30.76 6.73a42.5 42.5 0 0 1 10.54 5.54 19 19 0 0 1 6.07 6.85 70 70 0 0 1-24 12.74 128 128 0 0 1-31.3 5.62 107 107 0 0 1-12.74.46c3.61-12.91 7.32-25.65 11.08-38.42M86.09 475l11 38.17a8.3 8.3 0 0 1-3.64.34c-11.45-.38-22.83-1.44-34-4.29-11-2.8-21.29-7.08-30.29-14.49a12.1 12.1 0 0 1 3.27-4.59 35.7 35.7 0 0 1 11.92-7.34c8.66-3.57 17.76-5.35 27-6.64 3.53-.5 7.1-.82 10.66-1.14 1.28-.14 2.6-.02 4.08-.02M311 233a73 73 0 0 0-10.81-1.61V79.86c2 .13 3.64 1.19 5.43 1.81s3.59 1.39 5.38 2.1ZM347.35 274.92c-.82-3.54-1.34-7.07-2.65-10.39 2.24-.7 143.73-.92 148.07-.25-.3 3.49-.43 7-1.09 10.64ZM491.15 280.83c-.42 3.69-.71 7.22-1.44 10.8H346.65a81 81 0 0 0 1-10.8ZM509.64 536c-2.45 2.92-5.76 3.32-8.93 4-9.74 2-19.63 2.75-29.5 3.58-8.76.73-17.54 1.17-26.31 1.73-.8.05-1.61 0-2.85 0 3.24-11.31 6.42-22.4 9.64-33.62 4.26.6 8.21 1.57 12.16 2.52a182 182 0 0 1 29.66 9.57 49.9 49.9 0 0 1 11.14 6.38 16.4 16.4 0 0 1 4.99 5.84M92.88 536.08a16.6 16.6 0 0 1 5.25-6.1 53.8 53.8 0 0 1 13.15-7.15 193.4 193.4 0 0 1 35.82-10.45l3.69-.72c3.21 11.15 6.42 22.27 9.72 33.71-5-.25-9.56-.4-14.13-.71-10.92-.74-21.84-1.52-32.71-2.83a128 128 0 0 1-14.81-2.48c-3.12-.75-3.14-.8-5.98-3.27" class="cls-3"/><path d="M92.22 540.31c6.64 3 13.37 3.74 20 4.56 21 2.54 42 3.59 63.08 4.43 60.47 2.39 121 2.79 181.46 1.9q31-.47 62-1.51c18.2-.64 36.4-1.54 54.56-3.06a247 247 0 0 0 28.3-3.58 27.6 27.6 0 0 0 8.1-2.61c.78.48.38 1.15.3 1.65-2.11 12.61-3.81 25.28-5.24 38-1.24 11.08-2.39 22.18-2.66 33.34a8.47 8.47 0 0 1-3.3 6.83c-6.49 5.45-14.06 8.64-22.18 10.66s-16.37 2.55-24.64 3c-40.49 2.33-81 2.52-121.56 2.59-35.84.06-71.66-.17-107.49-.9-20.77-.42-41.54-1.08-62.31-1.85-10.94-.4-21.88-.86-32.76-2.24a58 58 0 0 1-16.83-4.45 22.6 22.6 0 0 1-8.17-5.85 9.85 9.85 0 0 1-2.44-6.13A604 604 0 0 0 93.81 551c-.52-3.38-1.02-6.81-1.59-10.69m2.13 2.37A1.15 1.15 0 0 0 94 544c1.82 11.83 3.47 23.67 4.81 35.57 1.25 11.19 2.49 22.39 2.75 33.64a12 12 0 0 0 5.6 10.24c4.16 3 8.9 4.51 13.8 5.67 9.13 2.14 18.47 2.39 27.74 2.89 15.95.87 31.91 1.45 47.87 1.84 24.25.58 48.51 1.13 72.77 1.27 60.8.35 121.61 1 182.36-2.4 9.19-.51 18.39-1.1 27.31-3.64a49.55 49.55 0 0 0 19.45-10 6.66 6.66 0 0 0 2.5-5.27c.09-4.7.4-9.41.8-14.1 1.41-16.51 3.32-33 5.84-49.36.38-2.48 1.1-5 .86-7.73-7.49 2.33-15.09 3.27-22.69 4.09-17.51 1.91-35.09 2.91-52.67 3.66q-37.59 1.62-75.21 2.09c-75.65.93-151.29.79-226.82-4.42q-10.87-.75-21.67-2.25a108 108 0 0 1-15.05-3.11M284.43 293.67c-.56-.95-1-1.63-1.37-2.34-1.16-2.16-2.3-4.33-3.66-6.88a210.2 210.2 0 0 1 55.3-30.07 39.4 39.4 0 0 1 5.72 10.34c-16.96 12.82-36.05 21.42-55.99 28.95M341.83 269.56c1.27 3.43 1.36 6.69 1.69 9.9.09.86-.54 1.26-1.12 1.68-14.5 10.61-29.43 20.36-47.29 24.44-1 .22-2 .41-3.16.64a67 67 0 0 1-5.15-8.33c19.34-7.51 38.13-15.89 55.03-28.33M277.47 280c-1.47-2.19-2.1-4.46-3.08-6.57A2 2 0 0 1 275 271c1.81-1.81 3.55-3.7 5.43-5.42a72 72 0 0 1 11.82-8.75 156 156 0 0 1 28.37-13 4.11 4.11 0 0 1 4.48.73 44 44 0 0 1 6.37 6 236 236 0 0 0-28 12.78 207.6 207.6 0 0 0-26 16.66M288 309a64 64 0 0 1-5.68 7.07c-10.79-12.62-18.59-26.54-22.13-43.07 2.26.17 4.18.26 6.09.45 1.1.11 2.19.38 3.33.59a155 155 0 0 0 8.39 17.81c3.12 5.73 6.31 11.44 10 17.15" class="cls-3"/><path d="M574.66 498.18c1.14 4.36.63 8.58-.35 12.79-1.74 7.53-5.53 14-10.37 19.94s-9.74 11.59-14.54 17.44c-5.15 6.29-9.44 13.09-11.67 21a8.13 8.13 0 0 1-3.35 4.26 37.4 37.4 0 0 1-8.09 4.31 112.5 112.5 0 0 1-18.29 5.56c-.4-2.63.27-5.12.56-7.59q2-17.21 4.86-34.29a12.06 12.06 0 0 0-2.37-9.49 27.5 27.5 0 0 0-7.79-6.85 88 88 0 0 0-17.26-7.93 7 7 0 0 1-2.23-1.14c1.22 0 2.45-.07 3.67 0 15.77 1 31.48.79 47.08-2 14.14-2.48 27.52-6.87 39.14-15.67a4.6 4.6 0 0 1 1-.34m-82.36 19.88c.53.82 1.35.93 2.05 1.24a67.4 67.4 0 0 1 11.29 6.14 24.8 24.8 0 0 1 7 6.85 12.12 12.12 0 0 1 2.1 8.43c-1.42 9.82-2.88 19.63-4.25 29.45-.53 3.8-.89 7.62-1.35 11.7a76.5 76.5 0 0 0 11.22-3 56.7 56.7 0 0 0 12-5.28 9.46 9.46 0 0 0 4.67-5.8 42.7 42.7 0 0 1 5.18-11.41 113 113 0 0 1 9.51-12.8c4-4.79 8.11-9.5 12-14.34a46.1 46.1 0 0 0 9.33-18.13 26.6 26.6 0 0 0 .69-10.9c-1.43.92-2.59 1.69-3.77 2.42s-2.6 1.63-3.94 2.37c-12.28 6.78-25.64 9.95-39.43 11.68a220.4 220.4 0 0 1-31.88 1.2 4.4 4.4 0 0 0-2.42.18M94.71 583.5c-7.83-1.8-15.18-3.88-22.11-7.25a27 27 0 0 1-5-3 8 8 0 0 1-2.88-4.25c-2.23-7.58-6.29-14.17-11.24-20.24-4.39-5.39-8.88-10.71-13.38-16-5.34-6.3-9.7-13.14-11.77-21.26a32.5 32.5 0 0 1-1-10.34c.06-1-.05-2.06.76-2.93a4.2 4.2 0 0 1 .81.36c11.52 8.78 24.83 13.12 38.86 15.61 15.71 2.78 31.53 3 47.4 2 .92-.06 1.84-.11 2.76-.14.29 0 .57.06 1.38.15-3 1.13-5.49 2-8 3.06a72.6 72.6 0 0 0-13.08 6.67 28 28 0 0 0-5.6 4.74 13.06 13.06 0 0 0-3.46 11.54c2.27 13.19 4 26.48 5.51 39.79a14 14 0 0 1 .04 1.49m-66.06-82.82a21.4 21.4 0 0 0 0 5.54 40 40 0 0 0 .91 5.12c2 7.83 6.18 14.42 11.35 20.48 5 5.91 10.18 11.76 14.91 17.95 4.18 5.48 7.79 11.29 9.71 18a9.16 9.16 0 0 0 4.4 5.61c1.32.78 2.64 1.59 4 2.23a100.4 100.4 0 0 0 18.27 6.14.93.93 0 0 0 1.12-.33 8 8 0 0 0 0-.83c-1.38-13.13-3.32-26.18-5.4-39.21a11.5 11.5 0 0 1 0-4.25c.86-4.27 3.52-7.31 6.73-10a55 55 0 0 1 12.65-7.44 7.6 7.6 0 0 0 3.17-1.84h-3.89c-14 .32-28-.21-41.86-3-12.42-2.5-24.23-6.52-34.72-13.94a1.22 1.22 0 0 0-1.35-.23M252.68 272.9a3.63 3.63 0 0 1 2.59.07c3.53 17.52 11.9 32.74 23.54 46.42a11 11 0 0 1-2.43 2.37c-18.94-8.76-27.95-31.76-23.7-48.86M304.71 326.67a44.74 44.74 0 0 1-23.82-2.57 76.3 76.3 0 0 0 11-12.31 2 2 0 0 1 1.18-.91 115 115 0 0 0 15.48-4.41 107.6 107.6 0 0 1-3.84 20.2M300.47 247.78a111 111 0 0 0-15 8.64c-5.6-3.61-11.35-7-17.39-10.24a45.7 45.7 0 0 1 18-9.31c.7-.18 1.34-.45 2 .1 4.2 3.42 8.49 6.68 12.39 10.81M310 325.52a170 170 0 0 0 3.62-21.21c4.67-2 9.12-4.64 13.87-7.29a121 121 0 0 1 1.34 16.48 3.18 3.18 0 0 1-1.25 2.62 46.4 46.4 0 0 1-17.58 9.4M264.91 249.14a165 165 0 0 1 16.37 9.39 79.7 79.7 0 0 0-10.88 10.58l-16.58-1.27a44 44 0 0 1 11.09-18.7M82.76 471.66c-5.41.49-10.86 1-16.28 1.95a117 117 0 0 0-20.19 5c-6.5 2.31-12.6 5.34-17.51 10.58L6.29 474.72l29.91-8.08c-.36-10.1-.72-20.17-1.09-30.44a7.9 7.9 0 0 1 3.36.37c6.54 1.75 12.19 5.21 17.56 9.14a167 167 0 0 1 26.14 24.51 7 7 0 0 1 .7 1c.04.06-.04.19-.11.44m-73.55 3.53 19.37 12.44c5.94-5.74 13-8.87 20.48-11.19a140.7 140.7 0 0 1 26.73-5.28 12.7 12.7 0 0 0 4.82-.92c-9-9.86-18.21-19-29.12-26.18a47 47 0 0 0-11.19-5.65 8.35 8.35 0 0 0-3.94-.78l1 29.94ZM596.25 474.73 574.1 489c-1 0-1.3-.73-1.79-1.2-4.61-4.4-10.22-7.08-16.13-9.17a132 132 0 0 0-29-6.18c-2.5-.29-5-.51-7.47-.76-.1-.9.5-1.24.88-1.67a167 167 0 0 1 25.7-24.09c5.37-4 11-7.44 17.53-9.21.69-.19 1.38-.36 2.08-.49a15 15 0 0 1 1.55-.09c-.39 10.28-.77 20.45-1.14 30.57Zm-3 .46-25.61-6.94c-2.69-.73-2.66-.75-2.55-3.54q.5-12.27.94-24.54a4.13 4.13 0 0 0-.29-2.7c-.43.08-.82.13-1.21.23a47.1 47.1 0 0 0-15.06 7.36c-9.06 6.25-17 13.78-24.49 21.79-1 1.1-2 2.23-3.29 3.63 1.44.23 2.5.47 3.58.56a132 132 0 0 1 17.57 2.67c11.24 2.49 22.23 5.58 31.1 13.91ZM334 309.38c-.41-.31-.55-.36-.55-.42-.19-4.9-.9-9.75-1.42-14.8l11.2-7.67a45 45 0 0 1-9.23 22.89M316.94 240l-13.17 5.46a123 123 0 0 0-10.5-9.43c6.32-1.57 17.98.46 23.67 3.97" class="cls-3"/><path d="M178.46 139.36c-2-6.9-.69-12.61 4.91-16.74a14.53 14.53 0 0 1 16.75-1c6.9 3.94 8.66 10.16 6.53 17.8 9-3.2 16.86-2.28 23 5.15 5.53 6.68 5.45 16 .12 25.32 5.13 1.88 6.95 5.75 6.83 11-.19 8.49.13 17-.34 25.48a74.3 74.3 0 0 1-2 13.94A42.55 42.55 0 0 1 224.1 239c-1.66 1.81-3.37 3.58-5 5.36a26 26 0 0 0-5.28 7.85c-1.82 4.37-5.17 6.41-9.85 6.4h-22.73c-4.26 0-7.53-1.69-9.51-5.53a41.5 41.5 0 0 0-7.08-9.22c-4.31-4.55-8.22-9.38-10.85-15.15a58.5 58.5 0 0 1-4.8-19.56c-.86-10-.5-20.06-.49-30.08 0-4.62 2.57-7.57 6.77-9.21-5.31-9.27-5.26-18.57.07-25.33 5.17-6.53 12.8-8.28 23.11-5.17m48.43 39.55h-68.73c.22 11.1-.56 22 .83 32.93 1.14 8.93 4.3 17 10.67 23.61 4.11 4.26 8.24 8.53 10.79 13.81h24.16a36.5 36.5 0 0 1 8.31-12.18c1-1 2-2.08 3-3.1 5.63-5.64 8.62-12.56 9.85-20.34a92.7 92.7 0 0 0 1.14-15c-.03-6.5-.02-13.03-.02-19.73m-57.08-10.78c6.67 0 12.26-5.31 12.18-11.63s-5.53-11.44-12.05-11.47-12.23 5.3-12.17 11.65 5.49 11.42 12.04 11.45m45.23 0a11.84 11.84 0 0 0 12.21-11.23c.21-6.38-5.2-11.79-11.88-11.87s-12.24 5.17-12.25 11.55S208.46 168 215 168.13ZM368 324.58c-2.06-7.27-.35-12.88 5.37-17a14.93 14.93 0 0 1 17-.31c6.09 4.08 7.9 9.85 5.89 17.22 10.13-3.05 19.08-1.91 24.52 7.87 4.18 7.52 3.5 15.3-1.43 22.58.36.65 1.16.69 1.77 1a9 9 0 0 1 4.92 8.25c0 8.6 0 17.2-.15 25.79a67.8 67.8 0 0 1-2.29 16.06 41.44 41.44 0 0 1-8.69 16.72c-2 2.33-4.14 4.54-6.25 6.77a25.4 25.4 0 0 0-5.3 7.83c-1.85 4.55-5.33 6.52-10.1 6.51h-22.41c-4.38 0-7.71-1.72-9.74-5.69a33.3 33.3 0 0 0-5.21-7.19c-1.17-1.28-2.36-2.56-3.56-3.82-8.5-8.88-12.58-19.64-13.67-31.74-1-10.53-.41-21.07-.53-31.61a8.51 8.51 0 0 1 4.44-7.58c.69-.43 1.42-.77 2.2-1.19-5.14-8.3-5.88-16.81-.05-24.84s14.04-8.54 23.27-5.63m26.11 110.11a36.1 36.1 0 0 1 7.48-11.37c1.28-1.32 2.52-2.68 3.83-4a34.4 34.4 0 0 0 9.38-17.62 61.4 61.4 0 0 0 1.48-12.46q.09-11.36.12-22.72c0-.77.29-1.64-.35-2.26H348c0 9.09-.2 18 0 26.87.36 12.41 4.25 23.43 13.57 32.16a39 39 0 0 1 7.68 9.91 2.39 2.39 0 0 0 2.38 1.49c7.37-.02 14.75 0 22.46 0Zm-22.66-92.81a11.61 11.61 0 0 0-11.84-11.5c-6.76-.07-12.21 5.05-12.22 11.49a11.72 11.72 0 0 0 11.9 11.49c6.79.07 12.14-4.98 12.14-11.48Zm33.31 11.48a11.5 11.5 0 1 0 .05-23c-6.79 0-12.09 5.1-12 11.62-.01 6.37 5.27 11.37 11.93 11.38ZM220.7 421.65l-12.85-12.78 12.85-12.8 12.72 12.84ZM207.73 366.36l12.82-12.82 12.54 12.61c-4.18 4.16-8.55 8.53-12.8 12.77ZM241.65 374.65c4.2 4.18 8.53 8.49 12.65 12.61l-12.55 12.59L229 387.28ZM199.19 400l-12.44-12.49 13.08-13L212.32 387ZM94.35 542.68a108 108 0 0 0 15 3q10.8 1.49 21.67 2.25c75.53 5.21 151.17 5.35 226.82 4.42q37.62-.46 75.21-2.09c17.58-.75 35.16-1.75 52.67-3.66 7.6-.82 15.2-1.76 22.69-4.09.24 2.77-.48 5.25-.86 7.73-2.52 16.39-4.43 32.85-5.84 49.36-.4 4.69-.71 9.4-.8 14.1a6.66 6.66 0 0 1-2.5 5.27 49.55 49.55 0 0 1-19.45 10c-8.92 2.54-18.12 3.13-27.31 3.64-60.75 3.38-121.56 2.75-182.36 2.4-24.26-.14-48.52-.69-72.77-1.27-16-.39-31.92-1-47.87-1.84-9.27-.5-18.61-.75-27.74-2.89-4.9-1.16-9.64-2.72-13.8-5.67a12 12 0 0 1-5.6-10.24c-.26-11.25-1.5-22.45-2.75-33.64-1.34-11.9-3-23.74-4.81-35.57a1.15 1.15 0 0 1 .4-1.21m101.81 73.87v-18.68h3.93c4.29.11 5.87 1.67 6.06 6 .14 3.17.26 6.33.44 9.5.06 1.2.09 2.47 1.28 3.31h9c-1.51-2.52-1.64-5.14-1.63-7.8a38 38 0 0 0-.64-8.24c-.53-2.42-1.65-4.38-4.17-5.25-.41-.15-1.07 0-1.12-1a8.62 8.62 0 0 0 5.31-5.41 16 16 0 0 0 .18-9.65 9.08 9.08 0 0 0-6.17-6.29 16.8 16.8 0 0 0-5.45-.71h-13.8a2.7 2.7 0 0 0-2.16.5v43.77a50 50 0 0 0 8.94-.05m-14.23-22.1c-.16-2.88-.29-5.74-.5-8.6a27 27 0 0 0-.55-3.32c-1.46-7.08-5.49-10.74-12.65-11.09-11.24-.55-14.69 4.63-15.95 12.28a65.3 65.3 0 0 0 0 21.38c1.48 9 6 12.6 15.2 12.42 7.68-.15 11.86-3.66 13.47-11.2.8-3.93.68-7.92.98-11.87m145 22.15-11.67-44H304c-3.83 14.77-7.87 29.27-11.53 44h9.1c1.11-3.08 1.12-6.22 2.35-9h11.6c.72 3.06 1.42 6 2.13 9a61 61 0 0 0 9.28 0m-42.62-.25c3.32-14.42 6.77-29 10.05-43.9a77 77 0 0 0-9.14 0c-2.35 10.61-4.12 21.21-7 31.57l-6.05-31.46h-9.56c3.42 14.86 6.77 29.45 10.16 44.19h8.82a5.2 5.2 0 0 0 2.72-.4m175.59-29.13a71 71 0 0 0 8.38-.07c1-11.46-5.2-15.78-13.42-15.77s-12.61 3.45-14.26 11.75a62.6 62.6 0 0 0-.74 16.8 34 34 0 0 0 1.58 9.33 11.44 11.44 0 0 0 8.69 7.84 20.54 20.54 0 0 0 9.13 0c6.84-1.58 11.16-9.72 9.23-17.34a69 69 0 0 0-8.39 0c-.32 2.88-.12 5.48-1.08 7.91a4.53 4.53 0 0 1-4.64 3.3c-2.16 0-3.51-1-4.35-3.22a15 15 0 0 1-.73-3c-1-6-.64-12-.35-18.05a17.3 17.3 0 0 1 .93-5.11c1-2.75 2.39-3.79 5-3.6 2.32.17 3.77 1.47 4.31 4 .29 1.73.44 3.36.71 5.23m-76.19-14.66h-24.55v44h25a22.3 22.3 0 0 0-.25-7.31H368v-11.61c5-.43 9.91.16 14.71-.37v-7.16H368v-10.42h15.13a2.66 2.66 0 0 0 .58-2.08c.01-1.61 0-3.24 0-5.05M129.16 599h5.68c8.14-.2 12.85-4.56 13.22-12.61.3-6.6-2.34-14.24-12.73-14-4.19.08-8.38 0-12.57 0a3.15 3.15 0 0 0-2.44.49v43.76a50 50 0 0 0 8.84 0Zm283.61-1.58h14.82a25.3 25.3 0 0 0-.08-7c-2.54-.43-5-.12-7.43-.24s-4.85.38-7.37-.4c.09-3.38-.17-6.6.16-10 5.39-.24 10.47.08 15.7-.21-.07-2.56.21-4.77-.19-7H404v44h8.77ZM228 616.54a51.3 51.3 0 0 0 9 .08v-36.7c3.31-.6 6.41.21 9.59-.58-.06-2.3.23-4.52-.2-6.79h-28.03a35.2 35.2 0 0 0 .15 6.91c3.1.6 6.19-.18 9.5.55Zm102.48-44c-.67 3.6-.51 42 .15 44.11h24a30 30 0 0 0 0-7.28h-15.7V572.5ZM434 607.17h-8c.1 3.26-.19 6.35.2 9.6 2.8-.18 5.31.31 7.86-.35Zm40.47 9.51a50.6 50.6 0 0 0 7.91-.13 79 79 0 0 0 0-9.48c-2.9 0-5.4-.32-7.95.19Z" class="cls-2"/><path d="M492.3 518.06a4.4 4.4 0 0 1 2.47-.21 220.4 220.4 0 0 0 31.88-1.2c13.79-1.73 27.15-4.9 39.43-11.68 1.34-.74 2.64-1.56 3.94-2.37s2.34-1.5 3.77-2.42a26.6 26.6 0 0 1-.69 10.9 46.1 46.1 0 0 1-9.33 18.13c-3.94 4.84-8 9.55-12 14.34a113 113 0 0 0-9.51 12.8 42.7 42.7 0 0 0-5.26 11.41 9.46 9.46 0 0 1-4.67 5.8 56.7 56.7 0 0 1-12 5.28 76.5 76.5 0 0 1-11.22 3c.46-4.08.82-7.9 1.35-11.7 1.37-9.82 2.83-19.63 4.25-29.45a12.12 12.12 0 0 0-2.1-8.43 24.8 24.8 0 0 0-7-6.85 67.4 67.4 0 0 0-11.29-6.14c-.67-.27-1.49-.39-2.02-1.21M28.65 500.68a1.22 1.22 0 0 1 1.38.23c10.46 7.42 22.27 11.44 34.71 13.95 13.83 2.79 27.81 3.32 41.86 3h3.89a7.6 7.6 0 0 1-3.17 1.84 55 55 0 0 0-12.65 7.44c-3.21 2.66-5.87 5.7-6.73 10a11.5 11.5 0 0 0 0 4.25c2.08 13 4 26.08 5.4 39.21a8 8 0 0 1 0 .83.93.93 0 0 1-1.12.33 100.4 100.4 0 0 1-18.27-6.14c-1.38-.64-2.7-1.45-4-2.23a9.16 9.16 0 0 1-4.4-5.61c-1.92-6.68-5.53-12.49-9.71-18-4.73-6.19-9.86-12-14.91-17.95-5.17-6.06-9.39-12.65-11.35-20.48a40 40 0 0 1-.91-5.12 21.4 21.4 0 0 1-.02-5.55M9.21 475.19l28.2-7.62-1-29.94a8.35 8.35 0 0 1 3.94.78 47 47 0 0 1 11.19 5.65c10.91 7.22 20.14 16.32 29.12 26.18a12.7 12.7 0 0 1-4.82.92 140.7 140.7 0 0 0-26.73 5.28c-7.48 2.32-14.54 5.45-20.48 11.19ZM593.3 475.19 574 487.62c-8.87-8.33-19.86-11.42-31.1-13.91a132 132 0 0 0-17.58-2.71c-1.08-.09-2.14-.33-3.58-.56 1.27-1.4 2.26-2.53 3.29-3.63 7.5-8 15.43-15.54 24.49-21.79a47.1 47.1 0 0 1 15.06-7.36c.39-.1.78-.15 1.21-.23a4.13 4.13 0 0 1 .29 2.7q-.44 12.27-.94 24.54c-.11 2.79-.14 2.81 2.55 3.54Z" class="cls-2"/><path d="M226.89 178.91v19.76a92.7 92.7 0 0 1-1.14 15c-1.23 7.78-4.22 14.7-9.85 20.34-1 1-2 2.08-3 3.1a36.5 36.5 0 0 0-8.31 12.18h-24.14c-2.55-5.28-6.68-9.55-10.79-13.81-6.37-6.62-9.53-14.68-10.67-23.61-1.39-10.89-.61-21.83-.83-32.93ZM169.81 168.13c-6.55 0-12-5.19-12-11.45S163.29 145 169.94 145s12 5.22 12.05 11.47-5.51 11.69-12.18 11.66M215 168.13c-6.58-.1-11.93-5.29-11.92-11.55S208.7 145 215.37 145s12.09 5.49 11.88 11.87A11.84 11.84 0 0 1 215 168.13M394.09 434.69h-22.43a2.39 2.39 0 0 1-2.38-1.49 39 39 0 0 0-7.68-9.91c-9.32-8.73-13.21-19.75-13.57-32.16-.25-8.88 0-17.78 0-26.87h68c.64.62.35 1.49.35 2.26q0 11.35-.12 22.72a61.4 61.4 0 0 1-1.48 12.46 34.4 34.4 0 0 1-9.38 17.62c-1.31 1.3-2.55 2.66-3.83 4a36.1 36.1 0 0 0-7.48 11.37M371.43 341.88c0 6.5-5.35 11.55-12.16 11.48a11.72 11.72 0 0 1-11.9-11.49c0-6.44 5.46-11.56 12.22-11.49a11.61 11.61 0 0 1 11.84 11.5M404.74 353.36c-6.66 0-11.94-5-12-11.36-.05-6.52 5.25-11.63 12-11.62a11.5 11.5 0 1 1-.05 23Z" class="cls-3"/><path d="M196.16 616.55a50 50 0 0 1-8.9.05v-43.76a2.7 2.7 0 0 1 2.16-.5h13.8a16.8 16.8 0 0 1 5.45.71 9.08 9.08 0 0 1 6.17 6.29 16 16 0 0 1-.18 9.65 8.62 8.62 0 0 1-5.31 5.41c.05.94.71.81 1.12 1 2.52.87 3.64 2.83 4.17 5.25a38 38 0 0 1 .64 8.24c0 2.66.12 5.28 1.63 7.8h-9c-1.19-.84-1.22-2.11-1.28-3.31-.18-3.17-.3-6.33-.44-9.5-.19-4.29-1.77-5.85-6.06-6h-3.93Zm.22-37.54v12.47c7.43.86 10-1 10.17-6.4.16-4.97-2.83-6.72-10.17-6.08ZM181.93 594.45c-.3 3.95-.18 7.94-1 11.87-1.61 7.54-5.79 11-13.47 11.2-9.2.18-13.72-3.37-15.2-12.42a65.3 65.3 0 0 1 0-21.38c1.26-7.65 4.71-12.83 15.95-12.28 7.16.35 11.19 4 12.65 11.09a27 27 0 0 1 .55 3.32c.23 2.86.36 5.72.52 8.6m-21.32-.25v4.91a24.4 24.4 0 0 0 1.19 8.45 4.72 4.72 0 0 0 4.89 3.44 4.81 4.81 0 0 0 4.91-3.43 15 15 0 0 0 .72-3 85.4 85.4 0 0 0 .35-17.14 16.5 16.5 0 0 0-1.3-6.58 4.78 4.78 0 0 0-4.67-2.85 4.64 4.64 0 0 0-4.66 2.84 15.4 15.4 0 0 0-.86 2.93c-.76 3.47-.53 6.96-.57 10.43M326.93 616.6a61 61 0 0 1-9.26 0c-.71-3-1.41-6-2.13-9h-11.6c-1.23 2.77-1.24 5.91-2.35 9h-9.1c3.66-14.7 7.7-29.2 11.53-44h11.24Zm-13-16.78c-1.37-6.45-2.71-12.69-4-18.93h-.51l-4 18.88a35.2 35.2 0 0 0 8.52.05ZM284.31 616.35a5.2 5.2 0 0 1-2.74.39h-8.82c-3.39-14.74-6.74-29.33-10.16-44.19h9.56L278.2 604c2.9-10.36 4.67-21 7-31.57a77 77 0 0 1 9.14 0c-3.26 14.88-6.71 29.5-10.03 43.92M459.9 587.22c-.27-1.87-.42-3.5-.75-5.1-.54-2.58-2-3.88-4.31-4-2.57-.19-4 .85-5 3.6a17.3 17.3 0 0 0-.93 5.11c-.29 6-.61 12.05.35 18.05a15 15 0 0 0 .73 3c.84 2.26 2.19 3.2 4.35 3.22a4.53 4.53 0 0 0 4.64-3.3c1-2.43.76-5 1.08-7.91a69 69 0 0 1 8.39 0c1.93 7.62-2.39 15.76-9.23 17.34a20.54 20.54 0 0 1-9.13 0 11.44 11.44 0 0 1-8.69-7.84 34 34 0 0 1-1.58-9.33 62.6 62.6 0 0 1 .74-16.8c1.65-8.3 6-11.73 14.26-11.75s14.45 4.31 13.42 15.77a71 71 0 0 1-8.34-.06M383.71 572.56v5.05a2.66 2.66 0 0 1-.58 2.08H368v10.42h14.74v7.16c-4.8.53-9.69-.06-14.71.37v11.62h15.91a22.3 22.3 0 0 1 .25 7.31h-25v-44ZM129.16 599v17.6a50 50 0 0 1-8.84 0v-43.77a3.15 3.15 0 0 1 2.44-.49c4.19 0 8.38.06 12.57 0 10.39-.21 13 7.43 12.73 14-.37 8-5.08 12.41-13.22 12.61-1.73.05-3.45.05-5.68.05m.16-6.83c5.55.45 7.51-.11 8.86-2.41s1.31-6.84-.33-8.76c-2.3-2.69-5.37-2.26-8.53-2ZM412.77 597.39v19.11H404v-44h24.38c.4 2.27.12 4.48.19 7-5.23.29-10.31 0-15.7.21-.33 3.35-.07 6.57-.16 10 2.52.78 5 .28 7.37.4s4.89-.19 7.43.24a25.3 25.3 0 0 1 .08 7ZM228 616.54V580c-3.31-.73-6.4 0-9.5-.55a35.2 35.2 0 0 1-.15-6.91h28.06c.43 2.27.14 4.49.2 6.79-3.18.79-6.28 0-9.59.58v36.7a51.3 51.3 0 0 1-9.02-.07M330.49 572.5h8.44v36.83h15.72a30 30 0 0 1 0 7.28h-24c-.65-2.12-.83-40.51-.16-44.11M434 607.17v9.25c-2.55.66-5.06.17-7.86.35-.39-3.25-.1-6.34-.2-9.6ZM474.5 616.68v-9.42c2.55-.51 5.05-.22 7.95-.19a79 79 0 0 1 0 9.48 50.6 50.6 0 0 1-7.95.13" class="cls-1"/><path d="M196.38 579c7.34-.65 10.33 1.1 10.17 6.07-.16 5.38-2.74 7.26-10.17 6.4ZM160.61 594.2c0-3.47-.19-7 .57-10.39a15.4 15.4 0 0 1 .86-2.93 4.64 4.64 0 0 1 4.66-2.88 4.78 4.78 0 0 1 4.67 2.84 16.5 16.5 0 0 1 1.3 6.58 85.4 85.4 0 0 1-.35 17.14 15 15 0 0 1-.72 3 4.81 4.81 0 0 1-4.91 3.43 4.72 4.72 0 0 1-4.89-3.44 24.4 24.4 0 0 1-1.19-8.45c-.01-1.63 0-3.27 0-4.9M313.94 599.82a35.2 35.2 0 0 1-8.58 0l4-18.88h.51c1.36 6.19 2.7 12.43 4.07 18.88M129.32 592.14V579c3.16-.29 6.23-.72 8.53 2 1.64 1.92 1.7 6.43.33 8.76s-3.31 2.83-8.86 2.38" class="cls-2"/></g></g></svg>