<?xml version="1.0" encoding="UTF-8"?>
<svg id="Layer_2" data-name="Layer 2" xmlns="http://www.w3.org/2000/svg" viewBox="0 0 420.36 566">
  <defs>
    <style>
      .cls-1 {
        fill: #d4a426;
      }

      .cls-1, .cls-2, .cls-3, .cls-4 {
        stroke-width: 0px;
      }

      .cls-2 {
        fill: #000;
      }

      .cls-3 {
        fill: #901823;
      }

      .cls-4 {
        fill: #fff;
      }
    </style>
  </defs>
  <g id="Layer_1-2" data-name="Layer 1">
    <path class="cls-1" d="M0,0v315.27s2.65,161.09,210.18,250.73c207.53-89.64,210.18-250.73,210.18-250.73V0H0Z"/>
    <path class="cls-4" d="M210.18,14.06H14.06v301.04c.06,2.3,1.72,40.22,26.9,87.76,25.24,47.53,73.58,105.02,169.22,147.78,95.65-42.76,143.99-100.25,169.22-147.78,25.18-47.54,26.83-85.46,26.9-87.76V14.06h-196.12Z"/>
    <path class="cls-1" d="M95.84,96.65v205.72c.03.71.37,6.99,2.33,16.88,2.1,10.58,6.05,25.29,13.46,41.73,14.74,32.69,43.67,72.26,98.54,99.95,54.87-27.69,83.8-67.26,98.54-99.95,7.41-16.44,11.37-31.14,13.46-41.73,1.96-9.89,2.3-16.17,2.33-16.88V96.65H95.84Z"/>
    <path class="cls-3" d="M391.71,122.92v22.43c0,11.52-5.25,21.27-19.09,21.27-8.31,0-11.8-2.98-14.28-9.89h-.44c-.8.95-1.68,2.1-3.28,3.12l-17.85,11.11v-21.41l17.63-8.13v-.34h-17.63v-18.16h54.94ZM367.37,141.08v1.29c0,3.05.51,6.1,4.59,6.1s4.74-2.78,4.74-5.96v-1.42h-9.33Z"/>
    <path class="cls-3" d="M391.71,173.88v34.35h-15.01v-15.65h-5.25v14.29h-14.28v-14.29h-5.39v16.19h-15.01v-34.89h54.94Z"/>
    <path class="cls-3" d="M369.12,270.35c-8.96-.14-16.47-.14-23.46-6.17-6.34-5.42-9.76-13.75-9.76-21.68,0-15.58,10.35-28.18,27.98-28.18s28.71,12.26,28.71,28.32c0,8.87-4.74,21.07-14.13,25.07l-6.85-17.34c2.77-1.42,4.23-4.06,4.23-7.05,0-6.64-6.12-10.3-12.75-10.3-6.05,0-11.73,3.52-11.73,9.55,0,2.91,1.46,6.64,4.81,7.52v-8.4h12.97v28.66Z"/>
    <path class="cls-3" d="M369.12,330.65c-8.96-.14-16.47-.14-23.46-6.16-6.34-5.42-9.76-13.75-9.76-21.68,0-15.58,10.35-28.18,27.98-28.18s28.71,12.26,28.71,28.32c0,8.87-4.74,21.07-14.13,25.07l-6.85-17.34c2.77-1.42,4.23-4.07,4.23-7.05,0-6.64-6.12-10.3-12.75-10.3-6.05,0-11.73,3.52-11.73,9.55,0,2.91,1.46,6.64,4.81,7.52v-8.4h12.97v28.66Z"/>
    <path class="cls-3" d="M385.3,344.5l-5.12,17.84-52.81-15.14,5.12-17.84,52.81,15.14Z"/>
    <path class="cls-3" d="M320.07,365.26l8.61-17.66,41.59,40.04-9,18.45-57.37-7.7,8.61-17.66,6.9,1.48,6.15-12.6-5.5-4.34ZM332.57,385l9.66,2.3c2.33.54,4.64,1.28,6.89,2l.3-.61-13.58-10.39-3.27,6.7Z"/>
    <path class="cls-3" d="M346.4,432.1l-11.69,13.45-33.92-7.4-.36.41c3.95,2.45,8.06,4.94,11.58,8l12.43,10.8-11.65,13.4-41.46-36.04,11.65-13.4,32.49,6.6.36-.41c-3.26-2.02-6.31-3.96-9.06-6.35l-13.47-11.71,11.65-13.4,41.46,36.04Z"/>
    <path class="cls-3" d="M256.89,444.26l16.1-11.27,16.97,55.19-16.82,11.78-46.44-34.55,16.1-11.27,5.32,4.64,11.49-8.04-2.71-6.47ZM258.25,467.59l7.33,6.69c1.78,1.6,3.44,3.37,5.05,5.09l.56-.39-6.84-15.67-6.11,4.28Z"/>
    <path class="cls-3" d="M178.68,455.23l16.82,11.34-45.91,35.3-17.57-11.85,15.12-56.07,16.82,11.34-2.38,6.66,12,8.1,5.11-4.82ZM157.07,464.64l-3.56,9.29c-.84,2.25-1.89,4.43-2.91,6.56l.58.39,12.27-11.94-6.38-4.3Z"/>
    <path class="cls-3" d="M132.61,444.95l-.06-1.26c-.24-4.4-1.32-8.98-4.27-12.25-1.26-1.4-3.87-3.1-5.71-1.45-1.84,1.66-.32,3.68.58,5.22l2.03,3.35c3.98,6.49,4.78,14.24-1.61,19.99-9.69,8.73-22.74,5.13-30.41-3.4-4.02-4.47-6.58-9.6-7.61-15.64l13.91-5.56c.47,4,1.59,7.98,4.35,11.04,1.12,1.25,3.25,2.63,4.93,1.12,1.52-1.37.14-3.33-.57-4.66l-2.14-3.91c-4.02-7.3-4.6-14.69,2.33-20.93,9.75-8.78,22.24-4.59,29.87,3.88,4.45,4.94,8.19,11.92,9.84,18.44l-15.46,6.02Z"/>
    <path class="cls-3" d="M102.97,410.72l.16-1.26c.53-4.37.26-9.07-2.08-12.81-1-1.6-3.27-3.73-5.37-2.41-2.1,1.31-.95,3.56-.33,5.24l1.42,3.65c2.79,7.08,2.23,14.85-5.06,19.41-11.06,6.91-23.28,1.1-29.36-8.62-3.19-5.1-4.82-10.6-4.78-16.72l14.67-3.06c-.24,4.02.18,8.13,2.37,11.63.89,1.42,2.74,3.15,4.66,1.96,1.73-1.08.72-3.25.25-4.69l-1.43-4.22c-2.69-7.88-1.98-15.26,5.93-20.2,11.12-6.95,22.7-.66,28.74,9.01,3.52,5.64,5.99,13.16,6.49,19.87l-16.27,3.24Z"/>
    <path class="cls-3" d="M57,322.96c16.86-5.16,30.79,4.26,35.49,19.65,4.7,15.38-1.58,30.98-18.44,36.14-16.51,5.05-31.09-4.25-35.77-19.56-4.68-15.32,2.2-31.17,18.71-36.22ZM68.69,360.2c5.99-1.83,8.92-6.97,7.22-12.52-1.7-5.55-6.99-8.17-12.99-6.34-5.57,1.7-9.14,6.74-7.36,12.56,1.78,5.82,7.55,8,13.13,6.3Z"/>
    <path class="cls-3" d="M50.94,275.8c-2.99,3.08-5.54,6.92-5.54,11.26,0,5.74,4.74,10.42,10.71,10.42s10.71-4.97,10.71-10.7c0-4.41-1.97-7.9-5.1-10.98l20.55.56c1.53,3.08,2.19,10.21,2.19,13.64,0,15.04-12.17,26.79-27.83,26.79s-28.85-12.1-28.85-27.56c0-4.34.8-8.81,2.26-12.87l20.91-.56Z"/>
    <path class="cls-3" d="M28.65,268.88v-19.16h54.94v19.16H28.65Z"/>
    <path class="cls-3" d="M83.59,225.31v20.28l-54.94-18.33v-21.19l54.94-18.82v20.28l-6.85,1.75v14.48l6.85,1.54ZM63.69,212.65l-9.69,2.24c-2.33.56-4.74.91-7.07,1.26v.7l16.76,3.5v-7.69Z"/>
    <path class="cls-3" d="M28.65,133.82l37.96,22.94.29-.21c-.15-1.47-.29-3.01-.29-4.48v-15.95h16.98v51.34l-32.13-19.03c-2.4-1.4-4.44-3.01-6.63-4.69l-.22.28c.36,1.47.66,2.94.66,4.55v14.34h-16.61v-49.1Z"/>
    <path class="cls-3" d="M75.43,108.71c5.76,0,9.03,5.32,9.03,10.42s-3.28,10.42-9.03,10.42-9.25-5.32-9.25-10.42,3.42-10.42,9.25-10.42Z"/>
    <path class="cls-3" d="M108.57,29.89c-4.22-1.45-8.87-2.25-13.39-2.25-16.07,0-28.66,12.8-28.66,28.8s12.22,27.78,27.85,27.78c3.56,0,10.98-.65,14.19-2.18l.58-20.51c-3.2,3.13-6.84,5.09-11.42,5.09-5.97,0-11.13-4.66-11.13-10.69s4.87-10.69,10.84-10.69c4.51,0,8.51,2.55,11.71,5.53l-.58-20.88"/>
    <path class="cls-3" d="M137.5,63.5l3.64-16.73h.73c.36,2.33.73,4.73,1.3,7.06l2.33,9.67h-8M133.93,76.51h15.06l1.82,6.83h21.09l-19.56-54.84h-22.04l-19.05,54.84h21.09l1.6-6.83Z"/>
    <polyline class="cls-3" points="176.04 83.35 212.7 83.35 212.7 65.75 195.97 65.75 195.97 28.51 176.04 28.51 176.04 83.35"/>
    <path class="cls-3" d="M258.21,29.89c-4.22-1.45-8.87-2.25-13.39-2.25-16.07,0-28.65,12.8-28.65,28.8s12.22,27.78,27.85,27.78c3.57,0,10.99-.65,14.19-2.18l.58-20.51c-3.2,3.13-6.84,5.09-11.42,5.09-5.97,0-11.13-4.66-11.13-10.69s4.87-10.69,10.84-10.69c4.51,0,8.51,2.55,11.71,5.53l-.58-20.88"/>
    <rect class="cls-3" x="265.98" y="28.51" width="19.93" height="54.84"/>
    <path class="cls-3" d="M323.49,45.68c6.33,0,10.26,4.87,10.26,10.69,0,6.26-4.22,10.54-10.26,10.54s-10.25-4.29-10.25-10.54c0-5.82,3.93-10.69,10.25-10.69M323.49,27.64c-16.65,0-30.33,11.2-30.33,28.44s13.6,28.15,30.33,28.15,30.33-10.54,30.33-28.15-13.67-28.44-30.33-28.44Z"/>
    <path class="cls-3" d="M307.65,113.51H112.71v188.38c.08,1.28.49,6.4,2.01,14.07,1.89,9.54,5.51,23.03,12.29,38.07,12.84,28.32,37.02,62.31,83.17,87.81,46.15-25.5,70.32-59.48,83.17-87.81,6.79-15.04,10.4-28.53,12.29-38.07,1.52-7.66,1.93-12.79,2.01-14.07V113.51Z"/>
    <polyline class="cls-1" points="164.43 360.93 167.87 360.7 167.87 375.88 175.94 375.88 175.94 353.52 164.43 353.88 164.43 360.93"/>
    <path class="cls-1" d="M193.31,362.33c0-1.48,1.31-2.61,2.76-2.61s2.61,1.28,2.61,2.72-1.15,2.68-2.61,2.68c-1.57,0-2.76-1.22-2.76-2.79M187.03,375.88h10.8l5.19-5.45c2.22-2.35,3.56-4.63,3.56-7.98,0-6.37-5.22-9.28-11-9.28-5.28,0-10.29,3.03-10.29,8.81,0,4.45,2.82,8.1,7.48,7.86l1.21-.06v.15c-.53.21-.92.63-1.33,1.01l-5.61,4.95Z"/>
    <polyline class="cls-1" points="213.78 360.93 217.22 360.7 217.22 375.88 225.29 375.88 225.29 353.52 213.78 353.88 213.78 360.93"/>
    <path class="cls-1" d="M242.66,362.33c0-1.48,1.31-2.61,2.75-2.61s2.61,1.28,2.61,2.72-1.16,2.68-2.61,2.68c-1.57,0-2.75-1.22-2.75-2.79M236.37,375.88h10.8l5.19-5.45c2.23-2.35,3.56-4.63,3.56-7.98,0-6.37-5.22-9.28-11-9.28-5.28,0-10.29,3.03-10.29,8.81,0,4.45,2.82,8.1,7.47,7.86l1.22-.06v.15c-.53.21-.92.63-1.34,1.01l-5.6,4.95Z"/>
    <path class="cls-2" d="M127.54,246.54c0-45.64,37-82.65,82.64-82.65s82.64,37,82.64,82.65-37,82.64-82.64,82.64-82.64-37-82.64-82.64Z"/>
    <path class="cls-1" d="M207.08,210.59s2.89-3.93,2.48-5.99c-.42-2.06-2.07-3.1-4.14-3.1s-11.98-1.45-16.32.62c-4.33,2.07-17.97,11.16-22.73,31.81,0,0-3.3,12.81-1.86,32.85,0,0,.62,8.06,6.41,11.36,5.79,3.3,9.71,4.75,11.77,5.37,2.07.62,6.4.42,6.2-3.72-.21-4.13-.42-21.28,2.69-36.57,3.1-15.29,15.49-32.64,15.49-32.64"/>
    <path class="cls-1" d="M239.72,225.46c2.48-3.72,3.1-4.95.41-8.67-2.68-3.72-5.37-6.61-10.12-8.06-4.75-1.45-9.92-2.69-13.64,1.44-3.72,4.14-11.77,15.71-15.7,30.37-3.92,14.67-5.58,29.13-5.37,40.08,0,0-.21,7.23,7.85,9.09,8.05,1.86,10.54,1.86,11.98,1.66,1.45-.21,4.75,1.86,5.58-4.75.82-6.62,4.34-25,7.02-34.09,2.69-9.09,9.5-23.35,11.98-27.07Z"/>
    <path class="cls-1" d="M139.1,218.24c6.68-16.88,19.22-30.8,35.27-39.25,0,0,.9,3.5,1.93,5.98,1.03,2.48,2.68,4.96,2.48,7.23-.21,2.28,1.24,2.89-1.65,7.23-2.89,4.34-9.5,14.67-11.78,17.35-2.27,2.69-3.3,6.2-6.61,7.64-3.31,1.45-4.54,1.03-7.44,0-2.75-.98-11.42-5.75-12.2-6.19Z"/>
    <path class="cls-1" d="M140.78,278.64c-4.52-9.76-7.05-20.63-7.05-32.09,0-7.11.96-13.99,2.76-20.52,0,0,11.29,3.99,13.15,5.23,1.86,1.24,4.55,2.27,4.75,6.2.21,3.92-.21,16.73.82,26.65,0,0,.42,2.69-.2,4.96-.62,2.27-3.1,4.54-5.37,5.99-2.14,1.36-8.21,3.37-8.86,3.59Z"/>
    <path class="cls-1" d="M248.07,312.94c-11.17,6.39-24.1,10.04-37.89,10.04-27.64,0-51.86-14.67-65.28-36.65,0,0,6.81-4.88,9.5-5.7,2.68-.83,5.78-.83,8.68.41,2.89,1.24,9.71,5.99,19.83,10.33,10.12,4.33,21.69,5.58,25,5.78,3.3.21,9.51.42,13.02,1.86,3.51,1.44,12.81,8.26,17.77,10.54,4.96,2.27,9.38,3.39,9.38,3.39Z"/>
    <path class="cls-1" d="M255.63,307.43c-1.76-.49-14.31-4.02-17.77-5.93-3.72-2.07-10.74-5.58-10.33-9.71.42-4.13,1.86-16.74,2.89-19.63,1.03-2.89,4.54-6.4,9.09-5.16,4.54,1.23,13.42,3.3,17.15,3.71,3.72.42,21.25-.58,26.83-2.44-4.7,15.87-14.97,29.43-27.86,39.16Z"/>
    <path class="cls-1" d="M281.87,219.96c3.07,8.28,4.75,17.23,4.75,26.58,0,4.57-.4,9.04-1.17,13.38-2.21.56-15.58,3.74-24.66,3.55-9.91-.2-16.32-1.24-20.25-2.69-3.93-1.44-5.37-5.78-4.34-10.95,1.03-5.16,5.37-13.84,7.23-16.94,1.86-3.1,3.1-5.16,7.44-5.37,4.34-.21,13.63.21,17.15-.83,3.51-1.03,6.4-2.27,7.85-3.31,1.45-1.03,5.99-3.44,5.99-3.44Z"/>
    <path class="cls-1" d="M180,176.32c9.19-4.01,19.42-6.23,30.18-6.23,30.43,0,56.71,17.79,69.01,43.53-1.13.7-6.73,4.1-9.51,5.02-3.1,1.03-6.4,2.48-11.16,2.07-4.75-.42-8.88-3.93-11.36-5.99,0,0-7.02-6.82-11.57-10.12-4.54-3.31-15.08-7.85-22.52-9.09-7.44-1.24-15.7-1.86-17.77-2.27-2.07-.42-6.4-.83-9.09-4.14-2.69-3.3-6.21-12.78-6.21-12.78Z"/>
  </g>
</svg>