<svg xmlns="http://www.w3.org/2000/svg" width="697.293" height="933.333" viewBox="0 0 697.293 933.333"><defs><clipPath id="a" clipPathUnits="userSpaceOnUse"><path d="M0 1080h1080V0H0Z"/></clipPath></defs><g clip-path="url(#a)" transform="matrix(1.33333 0 0 -1.33333 -371.353 1186.667)"><path d="M0 0c-134.862 0-237.215-66.749-241.502-69.593l-7.762-5.141-1.843-9.122c-1.613-8.016-21.108-105.623-2.124-232.838C-228.006-485.715-144.217-616-10.913-693.448L.35-700l11.263 6.552c133.285 77.441 216.955 207.688 241.982 376.656 18.691 126.217-1.565 228.657-2.443 232.962l-1.844 9.106-7.751 5.136C237.27-66.749 134.914 0 .055 0Z" style="fill:#231f20;fill-opacity:1;fill-rule:nonzero;stroke:none" transform="translate(539.997 890)"/><path d="M0 0c-131.494 0-231.14-64.961-235.319-67.729l-3.878-2.565-.919-4.565c-.853-4.214-20.583-104.609-2.028-228.969C-217.443-469.359-135.538-596.86-5.287-672.544l5.637-3.274 5.631 3.274c130.225 75.667 212.008 203.13 236.522 368.606 18.413 124.332-1.479 224.874-2.333 229.088l-.927 4.556-3.878 2.565C231.194-64.961 131.55 0 .053 0Z" style="fill:#fff;fill-opacity:1;fill-rule:nonzero;stroke:none" transform="translate(539.915 877.91)"/><path d="M0 0c311.107 180.781 228.829 585.779 228.829 585.779S129.33 651.645-.295 651.645H-.35c-129.628 0-229.13-65.866-229.13-65.866S-311.109 180.781 0 0" style="fill:#f63440;fill-opacity:1;fill-rule:nonzero;stroke:none" transform="translate(541.267 214.178)"/><path d="M0 0c0-17.995-14.587-32.583-32.583-32.583S-65.163-17.995-65.163 0c0 17.993 14.585 32.581 32.58 32.581C-14.587 32.581 0 17.993 0 0" style="fill:#fff;fill-opacity:1;fill-rule:nonzero;stroke:none" transform="translate(572.623 591.047)"/><path d="m0 0-.521-.574-3.717-18.909 5.04-2.124C22.574 9.95 58.418 28.79 96.685 28.79c37.994 0 73.701-18.633 95.501-49.84l5.03 2.133-3.619 18.43-.528.576c-24.701 27.115-59.856 42.667-96.461 42.667C59.837 42.756 24.624 27.173 0 0" style="fill:#231f20;fill-opacity:1;fill-rule:nonzero;stroke:none" transform="translate(443.553 544.916)"/><path d="m0 0-31.927-31.923L6.909-70.762l38.842 38.839L6.909 6.909Z" style="fill:#231f20;fill-opacity:1;fill-rule:nonzero;stroke:none" transform="translate(533.13 812.415)"/><path d="m0 0-25.013-25.018L-50.028 0l25.015 25.011Z" style="fill:#fff;fill-opacity:1;fill-rule:nonzero;stroke:none" transform="translate(565.053 780.492)"/><path d="M0 0c-21.547 30.85-57.308 56.427-97.791 56.427-40.733 0-76.679-25.822-98.183-56.991l-4.18-21.25L4.022-20.681l-.413 2.338z" style="fill:#fff;fill-opacity:1;fill-rule:nonzero;stroke:none" transform="translate(638.158 525.46)"/><path d="m0 0-78.574-78.571L148.11-305.253l85.478 85.479L6.909 6.912Z" style="fill:#231f20;fill-opacity:1;fill-rule:nonzero;stroke:none" transform="translate(462.534 834.788)"/><path d="m0 0-219.774-219.769 85.481-85.484L92.386-78.571 6.912 6.912Z" style="fill:#231f20;fill-opacity:1;fill-rule:nonzero;stroke:none" transform="translate(603.736 834.788)"/><path d="m0 0-78.574-78.571L148.11-305.253l85.478 85.479L6.909 6.912Z" style="fill:#231f20;fill-opacity:1;fill-rule:nonzero;stroke:none" transform="translate(462.534 834.788)"/><path d="m0 0-71.65 71.66-70.606-70.602-70.599 70.602L-284.515 0l70.599-70.599-70.599-70.599 71.66-71.659 70.599 70.598 70.601-70.598L0-141.203l-70.596 70.604z" style="fill:#fff;fill-opacity:1;fill-rule:nonzero;stroke:none" transform="translate(682.299 756.216)"/><path d="M0 0c0-14.448-11.707-26.155-26.158-26.155-14.445 0-26.157 11.707-26.157 26.155s11.712 26.162 26.157 26.162C-11.707 26.162 0 14.448 0 0" style="fill:#231f20;fill-opacity:1;fill-rule:nonzero;stroke:none" transform="translate(565.38 685.03)"/><path d="m0 0 53.602-53.602L68.491-38.71 48.696-18.917 67.791.178 55.702 12.264 37.133-6.305l-9.281 9.286 23.472 23.472L38.887 38.89Z" style="fill:#231f20;fill-opacity:1;fill-rule:nonzero;stroke:none" transform="translate(419.757 617.063)"/><path d="M0 0s-13.745-13.752-37.575-37.577C-58.594-58.596-14.626-101.513 3.07-83.82l40.293 40.291-14.717 14.712-35.213-35.208c-7.007-7.01-20.498 7.879-14.189 14.184 6.305 6.312 35.3 35.302 35.3 35.302z" style="fill:#231f20;fill-opacity:1;fill-rule:nonzero;stroke:none" transform="translate(615.257 804.415)"/><path d="m0 0 9.895-9.897S19.795 0 20.846 1.054c4.848 4.848-5.781 14.366-10.331 9.811C5.957 6.31 0 0 0 0m6.48 29.489c.586.586 2.458 2.803 4.906 3.036C39.617 35.203 39.063 7.183 39.063 7.183c16.238 0 30.658-18.744 30.658-18.744L56.698-24.115C42.451-9.866 38.597-5.544 33.984-10.157L21.722-22.418l18.394-18.397L26.45-54.476-25.747-2.275S2.518 25.514 6.48 29.489" style="fill:#231f20;fill-opacity:1;fill-rule:nonzero;stroke:none" transform="translate(450.059 762.962)"/><path d="M0 0c9.657 14.662 8.654 33.86-3.221 45.74-13.762 13.756-37.118 12.71-52.167-2.338-15.053-15.053-16.094-38.405-2.337-52.169 12.17-12.171 32.489-12.111 47.29-1.678l-13.673 13.61c-6.946-4.06-15.401-3.364-20.225 1.462-6.034 6.029-4.723 17.127 2.935 24.778 7.656 7.658 18.749 8.971 24.783 2.94 4.814-4.817 6.996-11.748 2.973-18.689z" style="fill:#231f20;fill-opacity:1;fill-rule:nonzero;stroke:none" transform="translate(642.92 595.257)"/><path d="m0 0-1.652-8.395 207.364 1.92-1.642 8.363z" style="fill:#231f20;fill-opacity:1;fill-rule:nonzero;stroke:none" transform="translate(437.821 475.722)"/><path d="m0 0-.523-.576-6.787-12.516 4.728-2.256C19.191 16.207 58.897 31.33 97.16 31.33c37.995 0 76.673-18.751 97.419-44.852l2.361.524-3.345 12.504-.533.581c-24.694 27.11-59.717 40.872-96.317 40.872C59.974 40.959 24.622 27.161 0 0" style="fill:#231f20;fill-opacity:1;fill-rule:nonzero;stroke:none" transform="translate(443.497 505.712)"/><path d="m0 0-4.178-21.247Z" style="fill:#fff;fill-opacity:1;fill-rule:nonzero;stroke:none" transform="translate(442 496.969)"/><path d="m0 0-3.605 18.344h-.004Z" style="fill:#fff;fill-opacity:1;fill-rule:nonzero;stroke:none" transform="translate(641.58 479.19)"/><path d="M0 0c-18.262 21.305-50.871 45.226-99.663 45.226-45.679 0-78.007-20.144-99.511-45.672l-5.648-14.852L-.754-13.752l8.468 4.908L.494-.579z" style="fill:#fff;fill-opacity:1;fill-rule:nonzero;stroke:none" transform="translate(639.655 491.852)"/><path d="m0 0-5.098 25.922-12.657 64.386-10.529-2.127 8.325-42.331 3.475-17.662 3.605-18.343.312-1.58 1.642-8.363 3.715-18.913 10.527 2.129z" style="fill:#231f20;fill-opacity:1;fill-rule:nonzero;stroke:none" transform="translate(654.459 469.345)"/><path d="m0 0-12.708-64.642-5.463-27.787-2.901-14.76 10.524-2.129 3.338 16.992 1.652 8.395 4.178 21.248 3.569 18.144 8.335 42.413z" style="fill:#231f20;fill-opacity:1;fill-rule:nonzero;stroke:none" transform="translate(443.38 559.652)"/><path d="M0 0c0-68.491-55.524-124.021-124.023-124.021-68.494 0-124.021 55.53-124.021 124.021 0 68.497 55.527 124.021 124.021 124.021C-55.524 124.021 0 68.497 0 0" style="fill:#fff;fill-opacity:1;fill-rule:nonzero;stroke:none" transform="translate(663.363 400.54)"/><path d="M0 0c19.39 16.546 58.87 58.858 55.522 126.968 7.128 3.504 32.333 11.45 52.858-2.769q.161-3.092.163-6.224C108.543 55.901 60.776 5.016 0 0m-128.288 117.975c0 .358.019.703.024 1.056 37.025-41.535 65.869-55.428 82.755-59.933-11.34-10.454-25.438-20.676-41.995-30.502-24.975 21.713-40.784 53.683-40.784 89.379m47.036 94.479c10.749-6.684 68.59-44.887 68.964-91.997a54 54 0 0 0-.237-5.374c-53.578 14.407-88.17 62.928-93.889 71.427a119 119 0 0 0 25.162 25.944M40.745 225.04c-61.519 3.842-88.582-16.769-92.796-20.379-8.42 6.677-15.768 11.472-20.012 14.081 18.075 11.179 39.375 17.652 62.192 17.652 18.11 0 35.268-4.08 50.616-11.354m51.45-47.038c-55.177 30.24-109.883-7.095-110.869-7.779-7.431 10.558-16.311 19.745-24.852 27.303l.35-.257c.278.259 28.788 25.565 105.975 14.165a119 119 0 0 0 29.396-33.432m-96.776-35.64c-2.064 6.648-4.947 12.972-8.381 18.938 7.783 5.074 63.579 38.46 114.502-3.142a117.3 117.3 0 0 0 5.376-20.666c-23.172 12.903-46.944 4.011-55.791-.218-17.988 15.696-41.681 11.385-55.706 5.088M-35.89 68.743c-12.652 2.405-47.246 14.751-91.301 65.195a117.6 117.6 0 0 0 14.05 41.976c9.093-13.037 43.567-57.605 98.487-71.866-3.444-11.832-10.637-23.674-21.236-35.305M-18.525-.093C-40.596 1.5-60.979 9.139-78.046 21.183c51.368 30.643 77.273 64.07 76.969 99.401a74 74 0 0 1-.867 10.584c7.142 3.542 29.487 12.617 46.143-2.376C49.066 52.205-7.461 7.827-18.525-.093M-9.871 247.6c-71.478 0-129.63-58.15-129.63-129.625 0-71.479 58.152-129.63 129.63-129.63s129.627 58.151 129.627 129.63c0 71.475-58.15 129.625-129.627 129.625" style="fill:#231f20;fill-opacity:1;fill-rule:nonzero;stroke:none" transform="translate(549.914 282.566)"/><path d="M0 0v19.517S-2.441 47.16 19.512 47.16c21.95 0 19.104-28.051 19.104-28.051V-.406Z" style="fill:#231f20;fill-opacity:1;fill-rule:nonzero;stroke:none" transform="translate(520.389 523.83)"/></g></svg>