<?xml version="1.0" encoding="utf-8"?>
<!-- Generator: Adobe Illustrator 13.0.0, SVG Export Plug-In . SVG Version: 6.00 Build 14948)  -->
<!DOCTYPE svg PUBLIC "-//W3C//DTD SVG 1.1//EN" "http://www.w3.org/Graphics/SVG/1.1/DTD/svg11.dtd">
<svg version="1.1" id="Ebene_1" xmlns="http://www.w3.org/2000/svg" xmlns:xlink="http://www.w3.org/1999/xlink" x="0px" y="0px"
	 width="464.048px" height="407.525px" viewBox="0 0 464.048 407.525" enable-background="new 0 0 464.048 407.525"
	 xml:space="preserve">
<g>
	<defs>
		<rect id="SVGID_1_" x="0.06" y="0" width="463.988" height="407.465"/>
	</defs>
	<clipPath id="SVGID_2_">
		<use xlink:href="#SVGID_1_"  overflow="visible"/>
	</clipPath>
	<path clip-path="url(#SVGID_2_)" fill-rule="evenodd" clip-rule="evenodd" fill="#FFFFFF" d="M306.224,5.364
		c-2.98,3.53-4.033,8.128-6.033,12.16c-2.279,0.606-4.725,0.82-6.732,2.152c-3.117,1.832-4.973,5.036-6.576,8.159
		c-5.848-3.012-12.295-5.945-19.028-5.187c-7.067,1.673-11.745,7.793-15.96,13.251c-4.494-2.27-9.229-4.9-14.432-4.526
		c-4.422,0.534-7.769,3.802-10.829,6.741c-10.805,9.905-21.738,19.715-31.643,30.528c-2.399,2.885-5.57,5.729-5.617,9.778
		c-0.375,6.127,0.94,12.191,1.839,18.224c-27.092,8.518-54.185,17.052-81.286,25.539c-3.252,0.98-6.024,3.02-8.933,4.693
		C67.335,146.831,33.651,166.768,0,186.736c2.024,3.307,5.092,6.207,9.084,6.765c7.586,1.124,15.212-0.98,22.822-0.366
		c3.051,0.295,5.65,2.159,7.913,4.095c5.49,4.965,9.769,11.084,13.809,17.245c6.925,10.772,12.798,22.2,17.89,33.946
		c2.223,5.361,4.438,10.788,5.673,16.478c1.291,5.506-1.379,10.941-4.439,15.364c-4.741,7.076-11.817,12.12-16.909,18.885
		c-2.542,5.012-0.502,10.87,0.829,15.961c42.958-22.025,85.821-44.265,128.732-66.362c1.952-0.885,4.733-1.243,6.151,0.741
		c2.072,2.854,0.781,6.661-0.653,9.506c-3.299,6.208-8.16,11.437-13.172,16.306c-1.538,1.713-3.912,1.999-6,2.612
		c-12.502,3.299-24.663,8.925-33.906,18.152l0.007-0.002l-0.007,0.003l-15.51,90.929h0.001c-0.13,0.727-0.161,1.476-0.07,2.24
		c0.152,4.415,3.124,8.24,6.909,10.304c6.295,3.555,13.562,4.86,20.631,5.952c18.375,2.303,37.165,3.116,55.484-0.055
		c15.547-2.749,30.361-8.678,44.226-16.121c7.084-3.61,13.188-8.805,19.045-14.112c12.717,4.064,25.395,8.264,37.986,12.702
		c8.271,2.932,16.391,6.287,24.82,8.734c13.984,4.15,28.648,7.114,43.293,5.729c12.957-1.634,24.496-8.886,34.258-17.18
		l-0.006,0.002l0.006-0.003l1.834-108.969l0.002-0.112c0.02-1.28-0.117-2.549-0.57-3.755c-1.098-2.757-4.189-3.928-6.924-4.24
		c-4.924-0.701-9.555,1.65-13.506,4.32c-9.363-13.292-18.734-26.591-28.807-39.366c-2.725-3.258-5.34-6.709-6.78-10.749
		c-4.05-10.765-3.22-22.662-0.767-33.69c0.846-4.559,3.563-8.407,5.938-12.264c13.043-20.248,27.547-39.5,40.75-59.636
		c2.072-3.324,4.424-6.638,5.195-10.551c1.363-6.686,0.59-13.546,0.59-20.304c1.563-1.921,3.992-2.933,5.969-4.391
		c17.387-11.681,34.959-23.108,52.227-34.966c-4.344-1.107-8.86-1.593-13.086-3.067c-3.529-5.028-6.469-10.471-9.848-15.619
		c-0.686-1.347-2.088-2.661-1.609-4.311c0.717-3.793,1.602-7.546,2.174-11.363c-17.666,6.957-35.221,14.2-52.822,21.308
		c-1.434-0.654-2.878-1.299-4.383-1.753c-11.133-3.267-22.161-6.885-33.117-10.71c-10.965-4.725-20.639-11.968-29.803-19.515
		c-5.035-3.267-12.049-0.765-15.332,3.881H306.224"/>
	<path clip-path="url(#SVGID_2_)" fill-rule="evenodd" clip-rule="evenodd" fill="#A83249" d="M324.644,377.256l3.277,1.037v-11.667
		l8.07,2.479v-3.518l-8.07-2.478v-6.153l8.07,2.398v-3.438l-11.348-3.437V377.256 M386.954,361.991l0.24-3.677
		c-1.438-0.479-2.797-0.718-4.156-0.718c-1.357,0-2.797,0.16-4.234,0.638c-1.758,0.56-3.357,1.36-4.795,2.399
		c-1.439,1.038-2.637,2.236-3.676,3.676c-1.039,1.357-1.758,2.877-2.318,4.474c-0.479,1.52-0.719,3.117-0.719,4.795
		c0,1.6,0.24,3.037,0.719,4.396c0.561,1.438,1.279,2.557,2.318,3.516s2.236,1.758,3.676,2.157c1.438,0.479,3.037,0.544,4.875,0.4
		c1.438-0.08,2.877-0.48,4.234-0.959c1.279-0.56,2.559-1.278,3.756-2.237v-3.916c-2.557,1.837-5.113,2.957-8.312,3.436
		c-2.396,0.319-4.313-0.238-5.753-1.678c-1.438-1.438-2.078-3.356-2.078-5.834c0-2.557,0.641-4.795,2.158-6.793
		s3.516-3.436,6.074-4.235C381.761,361.111,384.237,361.111,386.954,361.991z M272.62,361.353l4.795,1.198l1.039,0.239
		c2.557,0.641,4.314,0.879,5.514,0.879c1.119-0.079,2.158-0.398,3.037-0.959c1.197-0.799,2.078-1.918,2.717-3.437
		c0.639-1.438,0.959-3.196,0.959-5.354c0-2.077-0.32-4.075-0.959-5.913c-0.639-1.759-1.52-3.438-2.717-4.875
		c-0.879-1.119-1.918-1.998-3.117-2.718c-1.2-0.72-3.355-1.599-6.473-2.637l-4.795-1.438V361.353z M276.216,358.636v-17.581
		l1.279,0.398l1.277,0.4c1.84,0.559,3.117,1.039,3.996,1.518c0.799,0.56,1.52,1.198,2.078,1.918c0.8,1.038,1.359,2.157,1.757,3.437
		c0.401,1.278,0.642,2.717,0.642,4.235s-0.24,2.798-0.642,3.837c-0.397,1.037-0.957,1.918-1.757,2.476
		c-0.559,0.401-1.279,0.64-2.078,0.64c-0.799,0.08-1.997-0.16-3.596-0.559L276.216,358.636z M228.347,329.625l5.435,0.881v-3.438
		l-14.385-2.477v3.516l5.594,0.959v21.257l3.356,0.48V329.625z M245.688,354.8l12.945,2.797V354l-9.189-1.998v-8.071l9.189,1.918
		v-3.597l-9.189-1.838v-6.152l9.189,1.758v-3.518l-12.945-2.397V354.8z M202.295,348.086h3.037v-24.692h-3.037V348.086z
		 M139.962,336.979v15.423c0,3.357,0.719,5.594,2.078,6.872c1.358,1.2,3.356,1.36,6.233,0.479c2.798-0.879,4.955-2.397,6.394-4.555
		c1.438-2.157,2.157-5.034,2.157-8.391v-15.743l-3.437,1.199v15.263c0,2.318-0.399,4.156-1.278,5.515
		c-0.879,1.438-2.157,2.478-3.836,2.956c-1.678,0.561-2.957,0.399-3.835-0.479c-0.8-0.799-1.279-2.398-1.279-4.635v-15.024
		L139.962,336.979z M167.293,351.362l3.596-0.398v-17.183c0.319,0.48,0.719,0.959,1.119,1.279c0.32,0.479,0.719,0.878,1.199,1.198
		l15.502,13.346v-25.893l-3.595,0.479v17.262c-0.48-0.559-0.959-1.039-1.359-1.518c-0.399-0.4-0.879-0.799-1.278-1.2l-15.184-12.946
		V351.362z M388.815,346.729l13.663-3.277v-5.595l-7.75,1.838v-4.075l7.272-1.758v-5.354l-7.272,1.838v-4.316l7.75-1.918v-5.433
		l-13.663,3.354V346.729z M366.599,348.166v-8.15h2.318c2.078,0,3.596-0.161,4.555-0.4c0.959-0.24,1.757-0.639,2.479-1.119
		c0.957-0.719,1.598-1.599,2.076-2.717c0.48-1.119,0.719-2.396,0.719-3.916c0-1.357-0.238-2.636-0.719-3.756
		c-0.479-1.119-1.199-2.078-2.076-2.796c-0.801-0.72-1.76-1.12-2.799-1.439c-1.117-0.239-3.115-0.398-5.834-0.398h-7.031v24.692
		H366.599z M366.599,334.66v-5.834h1.359c1.598,0,2.717,0.24,3.275,0.641c0.641,0.479,0.959,1.197,0.959,2.236
		s-0.318,1.838-0.959,2.238c-0.639,0.479-1.758,0.719-3.355,0.719H366.599z M333.515,343.931l6.074,1.598v-9.749l5.674,11.269
		l7.91,2.157l-7.031-12.227c1.837,0,3.275-0.4,4.234-1.439c1.039-1.039,1.521-2.557,1.521-4.635c0-1.357-0.241-2.637-0.802-3.836
		c-0.479-1.199-1.197-2.237-2.157-3.196c-0.798-0.72-1.757-1.358-2.875-1.839c-1.04-0.479-3.038-0.959-5.755-1.517l-6.793-1.2
		V343.931z M339.589,332.344v-6.634l1.357,0.239c1.439,0.321,2.479,0.799,3.116,1.439c0.64,0.719,0.96,1.678,0.96,3.037
		c0,1.039-0.32,1.758-1.039,2.156c-0.719,0.32-1.758,0.4-3.117,0.08L339.589,332.344z M329.12,330.824
		c0-1.838-0.32-3.595-0.959-5.433c-0.64-1.839-1.599-3.598-2.797-5.276c-1.199-1.677-2.559-3.116-4.156-4.394
		c-1.678-1.28-3.277-2.238-5.035-2.877c-1.758-0.641-3.516-0.879-5.113-0.801c-1.68,0.08-3.117,0.561-4.396,1.358
		c-1.279,0.8-2.316,1.998-2.957,3.358c-0.719,1.437-1.039,3.036-1.039,4.954c0,1.838,0.32,3.677,1.039,5.595
		c0.641,1.918,1.678,3.675,2.957,5.433c1.279,1.678,2.717,3.117,4.396,4.316c1.598,1.198,3.355,2.078,5.113,2.636
		c1.758,0.56,3.357,0.8,5.035,0.64c1.518-0.159,2.957-0.719,4.156-1.519c1.198-0.878,2.157-1.918,2.797-3.276
		C328.8,334.182,329.12,332.582,329.12,330.824z M316.173,333.861c-1.918-0.639-3.516-1.839-4.715-3.757
		c-1.199-1.757-1.838-3.834-1.838-5.993c0-2.237,0.639-3.836,1.838-4.795c1.279-1.039,2.797-1.198,4.715-0.559
		c1.838,0.72,3.357,1.918,4.555,3.836c1.199,1.838,1.84,3.836,1.84,5.914c0,2.156-0.641,3.756-1.84,4.795
		C319.53,334.341,318.011,334.5,316.173,333.861z M255.917,322.033l6.793,1.28v-18.941l5.355,1.199v-5.754l-17.822-4.155v5.993
		l5.674,1.28V322.033z M274.298,326.51l6.314,1.678v-10.149l8.471,2.237v10.15l6.473,1.758V307.17l-6.473-1.679v9.749l-8.471-2.236
		v-9.67l-6.314-1.599V326.51z M218.917,315.081l6.474,1.039v-12.227c0-0.64,0-1.359-0.08-2.158c-0.08-0.798-0.16-1.757-0.32-2.797
		c0.479,1.12,0.959,2.158,1.359,2.958c0.399,0.878,0.719,1.438,0.879,1.677l9.35,14.465l6.553,1.119v-25.094l-6.553-1.039v12.388
		c0,0.56,0.08,1.358,0.08,2.157c0.078,0.799,0.158,1.758,0.318,2.797c-0.479-1.198-0.959-2.237-1.357-3.036
		c-0.4-0.88-0.721-1.438-0.959-1.759l-9.27-14.224l-6.474-1.039V315.081z M181.438,291.746c-1.119-0.318-2.238-0.479-3.277-0.479
		c-1.119-0.08-2.158,0.08-3.277,0.318c-1.758,0.4-3.436,1.039-4.874,1.918c-1.518,0.96-2.797,2.158-3.916,3.677
		c-1.278,1.518-2.158,3.117-2.797,4.875c-0.559,1.678-0.879,3.516-0.879,5.354c0,2.398,0.48,4.477,1.438,6.154
		c0.96,1.758,2.318,3.037,4.156,3.996c0.959,0.479,1.998,0.798,3.116,0.879c1.2,0.16,2.398,0.08,3.756-0.161
		c1.119-0.239,2.158-0.558,3.277-1.038c1.039-0.399,2.158-1.039,3.277-1.759v-7.671c-0.959,1.199-1.918,2.238-2.877,2.877
		c-0.879,0.639-1.918,1.119-2.957,1.357c-1.918,0.32-3.437,0-4.715-1.117c-1.199-1.119-1.758-2.719-1.758-4.716
		c0-2.157,0.559-4.075,1.758-5.674c1.198-1.599,2.797-2.558,4.715-3.037c1.039-0.159,2.078-0.159,2.957,0.16
		c0.959,0.239,1.918,0.879,2.877,1.679V291.746z M142.28,321.396l-2.717,6.472c1.198,0.561,2.477,0.879,3.756,0.799
		c1.278-0.158,2.717-0.559,4.315-1.356c2.637-1.36,4.795-3.278,6.393-5.755c1.598-2.478,2.477-5.034,2.477-7.751
		c0-1.039-0.159-1.918-0.479-2.639c-0.24-0.799-0.639-1.277-1.278-1.599c-0.8-0.478-2.558-0.398-5.116,0.241l-0.319,0.08
		c-1.119,0.318-1.918,0.398-2.317,0.238c-0.48-0.158-0.64-0.479-0.64-1.197c-0.08-0.561,0.24-1.199,0.64-1.838
		c0.479-0.721,1.118-1.199,1.918-1.679c0.639-0.399,1.438-0.56,2.237-0.72c0.72-0.08,1.438,0.08,2.237,0.32l1.999-6.154
		c-1.039-0.16-2.158-0.16-3.357,0.16c-1.118,0.24-2.317,0.719-3.676,1.438c-2.317,1.358-4.235,3.196-5.674,5.515
		c-1.438,2.316-2.157,4.634-2.077,7.032c0,1.839,0.399,3.036,1.358,3.597c0.959,0.559,2.478,0.559,4.715,0
		c1.678-0.4,2.717-0.48,3.197-0.321c0.479,0.241,0.719,0.72,0.719,1.599c0,0.721-0.24,1.519-0.799,2.317
		c-0.56,0.72-1.279,1.359-2.079,1.759c-0.878,0.48-1.757,0.64-2.716,0.56C144.118,322.435,143.239,322.033,142.28,321.396z
		 M188.87,289.828v13.026c0,2.717,0.16,4.715,0.479,6.074c0.4,1.277,0.959,2.316,1.678,3.275c0.879,0.959,1.998,1.758,3.516,2.237
		c1.439,0.48,3.277,0.799,5.355,0.799c2.158,0,3.915-0.318,5.354-0.799c1.519-0.479,2.637-1.278,3.516-2.237
		c0.8-0.959,1.359-1.998,1.679-3.275c0.319-1.359,0.479-3.357,0.479-6.074v-13.026h-6.713v11.987c0,1.758-0.08,3.037-0.16,3.836
		c-0.079,0.799-0.24,1.439-0.479,1.918c-0.24,0.639-0.719,1.119-1.359,1.439c-0.639,0.318-1.358,0.558-2.317,0.558
		c-0.879,0-1.678-0.239-2.318-0.558c-0.639-0.32-1.119-0.801-1.358-1.439c-0.24-0.479-0.399-1.119-0.48-1.918
		c-0.079-0.799-0.159-2.078-0.159-3.836v-11.987H188.87z M391.647,37.638c14.445-5.945,28.941-11.793,43.443-17.603
		c-0.184,2.43-1.545,5.188,0.08,7.395c3.961,6.383,7.873,12.805,11.857,19.173c0.836,1.712,2.893,1.832,4.461,2.494
		c-15.379,10.486-30.941,20.71-46.439,31.029c-1.1-6.853-1.881-13.786-3.889-20.455C398.866,51.989,395.878,44.467,391.647,37.638
		L391.647,37.638z M306.224,5.365c-2.98,3.531-4.033,8.128-6.033,12.16c-2.279,0.606-4.725,0.821-6.732,2.152
		c-3.117,1.832-4.973,5.036-6.576,8.16c-5.848-3.013-12.295-5.945-19.028-5.188c-7.067,1.673-11.745,7.793-15.96,13.251
		c-4.494-2.27-9.229-4.9-14.432-4.526c-4.422,0.535-7.769,3.802-10.829,6.742c-10.805,9.904-21.738,19.714-31.643,30.528
		c-2.399,2.884-5.57,5.729-5.617,9.777c-0.375,6.128,0.94,12.192,1.839,18.224c-27.092,8.518-54.185,17.052-81.286,25.539
		c-3.252,0.98-6.024,3.02-8.933,4.694C67.335,146.832,33.651,166.769,0,186.737c2.024,3.307,5.092,6.208,9.084,6.765
		c7.586,1.124,15.212-0.98,22.822-0.366c3.051,0.295,5.65,2.159,7.913,4.095c5.49,4.965,9.769,11.085,13.809,17.245
		c6.925,10.772,12.798,22.2,17.89,33.946c2.223,5.361,4.438,10.788,5.673,16.478c1.291,5.506-1.379,10.941-4.439,15.364
		c-4.741,7.076-11.817,12.12-16.909,18.885c-2.542,5.012-0.502,10.87,0.829,15.961c42.958-22.025,85.821-44.265,128.732-66.362
		c1.952-0.885,4.733-1.242,6.151,0.741c2.072,2.854,0.781,6.661-0.653,9.507c-3.299,6.207-8.16,11.436-13.172,16.305
		c-1.538,1.713-3.912,1.999-6,2.612c-12.502,3.299-24.663,8.926-33.906,18.152c0.972-0.39,1.936-0.796,2.884-1.227
		c20.878-10.177,43.891-16.949,67.271-16.392c32.161,0.55,63.668,8.366,94.155,18.088c16.32,5.044,32.576,10.56,49.453,13.396
		c8.248,1.521,16.678,1.106,25.021,0.876c9.451-0.392,18.854-4.334,25.204-11.443c4.79-5.41,7.3-12.438,8.56-19.459
		c0.342-2.486,0.693-5.146-0.209-7.553c-1.098-2.758-4.189-3.929-6.924-4.241c-4.924-0.701-9.555,1.651-13.506,4.32
		c-9.363-13.292-18.734-26.591-28.807-39.365c-2.725-3.259-5.34-6.71-6.78-10.75c-4.05-10.765-3.22-22.662-0.767-33.69
		c0.846-4.559,3.563-8.407,5.938-12.264c13.043-20.248,27.547-39.5,40.75-59.636c2.072-3.324,4.424-6.638,5.195-10.551
		c1.363-6.686,0.59-13.546,0.59-20.303c1.563-1.921,3.992-2.933,5.969-4.391c17.387-11.682,34.959-23.109,52.227-34.966
		c-4.344-1.108-8.86-1.594-13.086-3.068c-3.529-5.028-6.469-10.47-9.848-15.618c-0.686-1.348-2.088-2.662-1.609-4.311
		c0.717-3.793,1.602-7.546,2.174-11.364c-17.666,6.957-35.221,14.201-52.822,21.308c-1.434-0.653-2.878-1.298-4.383-1.752
		c-11.133-3.268-22.161-6.886-33.117-10.71c-10.965-4.726-20.639-11.969-29.803-19.516c-5.035-3.267-12.049-0.764-15.332,3.881
		H306.224z M141.791,370.971c-5.634,2.494-11.316,5.273-15.73,9.657c-2.279,2.238-4.216,5.26-3.817,8.605
		c0.151,4.415,3.124,8.24,6.908,10.304c6.296,3.555,13.563,4.86,20.631,5.952c18.376,2.303,37.165,3.116,55.485-0.055
		c15.546-2.749,30.36-8.678,44.225-16.121c7.084-3.61,13.188-8.805,19.045-14.112c12.719,4.064,25.396,8.264,37.986,12.701
		c8.271,2.933,16.391,6.287,24.822,8.735c13.984,4.15,28.646,7.114,43.293,5.728c12.957-1.633,24.494-8.885,34.257-17.179
		c-2.94,1.291-5.651,3.051-8.544,4.462c-10.51,5.235-21.969,9.044-33.793,9.275c-7.229-0.167-14.328-1.705-21.324-3.387
		c-31.252-8.041-60.242-23.221-91.814-30.192c-20.16-4.018-40.806-6.08-61.365-4.901
		C174.972,361.75,157.672,364.261,141.791,370.971z M206.664,98.167c2.279,0.231,4.558,0.439,6.844,0.565
		c-0.525,5.459-1.529,10.878-1.776,16.352c1.753,3.713,6.263,4.733,9.961,5.331c6.239,0.661,13.14,0.239,18.501-3.331
		c1.699-0.956,2.814-3.657,5.037-2.98c1.275,1.769,2.057,4,3.969,5.227c4.246,2.885,9.648,2.845,14.574,2.471
		c7.881-0.726,15.816-4.789,19.563-12.017c2.709-0.024,5.529-0.335,8.111,0.733c3.523,1.331,7.586,1.952,11.164,0.438
		c5.991-2.478,10.313-7.625,13.715-12.964c4.264-0.781,6.996,3.091,10.916,3.784c2.398,0.535,4.869,0.287,7.299,0.232
		c0.049,10.518,0.146,21.18,2.383,31.515c-50.918,36.664-101.941,73.183-152.868,109.838c-1.984,1.252-3.769,3.427-6.35,3.164
		c-11.172-0.335-22.336-1.045-33.524-1.084c-1.857-0.135-4.12,0.367-5.451-1.306c-5.506-5.563-9.61-12.328-13.801-18.895
		c-9.085-14.965-17.34-30.44-24.535-46.393c-1.156-2.788-2.813-5.585-2.566-8.717c0.804-13.921,5.044-28.002,13.825-39.023
		c1.164-1.744,3.315-2.159,5.172-2.788C147.042,118.888,176.891,108.889,206.664,98.167z M336.267,379.55
		c0-0.511,0.174-0.939,0.523-1.303c0.354-0.357,0.783-0.538,1.287-0.538s0.934,0.181,1.287,0.538
		c0.35,0.363,0.523,0.792,0.523,1.303c0,0.493-0.174,0.919-0.523,1.264c-0.354,0.343-0.783,0.517-1.287,0.517
		s-0.934-0.174-1.287-0.517C336.44,380.469,336.267,380.043,336.267,379.55z M391.737,377.387c0-0.51,0.174-0.939,0.523-1.303
		c0.354-0.356,0.783-0.536,1.287-0.536s0.934,0.18,1.287,0.536c0.35,0.363,0.523,0.793,0.523,1.303c0,0.495-0.174,0.919-0.523,1.263
		c-0.354,0.345-0.783,0.519-1.287,0.519s-0.934-0.174-1.287-0.519C391.911,378.306,391.737,377.882,391.737,377.387z"/>
</g>
<path fill-rule="evenodd" clip-rule="evenodd" fill="#00ACDD" d="M206.118,103.466c0.023,0.383,0.012,0.796-0.028,1.316
	c-10.892,4.136-22.175,7.076-33.069,11.204c-17.228,6.375-34.472,12.821-51.166,20.511c-2.135,0.773-3.689,2.454-4.534,4.542
	c1.546-0.391,3.076-0.845,4.566-1.402c22.312-8.471,44.648-16.87,66.967-25.324c2.177-0.805,4.288-1.817,6.559-2.311
	c1.976-0.136,3.888,0.589,5.801,1.012c-2.988,1.761-6.263,2.948-9.435,4.327c-25.865,11.028-51.739,22.024-77.606,33.061
	c-2.039,0.725-2.565,3.06-3.609,4.725c17.212-6.932,34.217-14.399,51.357-21.515c3.387-1.33,6.63-3.076,10.136-4.08
	c1.211,0.55,2.279,1.347,3.371,2.08c-25.021,10.814-50.178,21.308-75.239,32.018c1.521-10.096,5.602-19.651,10.789-28.376
	c1.008-1.986,3.089-2.651,5.104-3.321l0.013-0.005c0.29-0.097,0.578-0.193,0.862-0.294l83.035-28.286L206.118,103.466
	 M292.343,46.387c-0.063,10.622-0.166,21.244,0.064,31.867c1.641,0.007,3.283,0.023,4.939,0.04
	c0.199-10.639,0.121-21.276,0.041-31.915C295.706,46.373,294.024,46.379,292.343,46.387L292.343,46.387z M262.692,52.604
	c-0.119,12.367-0.135,24.742,0.008,37.11c1.658-0.009,3.314-0.017,4.973-0.033c-0.023-12.343-0.057-24.686,0.015-37.037
	C266.024,52.618,264.358,52.604,262.692,52.604z M233.36,54.437c-0.008,14.016-0.271,28.049,0.135,42.066
	c1.594-0.009,3.188,0,4.789,0.016c0.375-14.033,0.137-28.074,0.119-42.106C236.724,54.413,235.042,54.42,233.36,54.437z
	 M163.261,369.186c15.722-4.272,32.209-5.786,48.441-4.439c16.256,1.108,32.328,4.168,48.129,8.048
	c-8.965,6.966-18.908,12.606-29.037,17.684c-9.953,4.765-20.462,8.692-31.491,9.953c-15.491,1.553-31.396,1.601-46.585-2.201
	c-4.685-1.377-9.745-2.979-13.02-6.82c-2.805-3.45-1.323-8.605,1.714-11.402C147.356,374.213,155.484,371.527,163.261,369.186z
	 M313.181,11.509c-4.828,6.494-5.107,15.778-1.314,22.838c2.805,5.267,7.729,9.092,13.02,11.658
	c9.666,4.638,20.386,6.279,30.936,7.467c-6.996,11.004-9.061,24.168-10.949,36.83c-2,15.562-2.828,31.276-2.502,46.959
	c-1.443-0.168-2.877-0.43-4.328-0.383c-1.488,0.431-2.676,1.49-3.92,2.367c-24.582,18.367-49.596,36.161-74.066,54.672
	c2.518,4.056,6.216,7.562,10.963,8.749c8.895,2.191,18.871-0.526,25.285-7.107c6.934,7.975,18.559,8.764,28.256,6.693
	c5.115-1.211,10.885-3.02,13.619-7.929c9.02-15.243,17.371-30.878,26.408-46.106c2.771-4.813,5.767-9.514,9.361-13.77
	c8.479-10.327,17.867-20.415,22.703-33.101c2.334-6.374,4.23-13.626,1.475-20.184c-4.447-11.451-11.611-21.579-18.68-31.531
	c-0.525-0.821-1.195-1.77-0.699-2.781c1.258-3.268,5.178-5.403,4.35-9.347c-11.92-3.005-23.379-7.491-35.006-11.427
	c-7.26-2.367-13.674-6.75-19.172-11.969c-2.59-2.215-4.82-5.06-8.057-6.351C317.794,6.976,314.95,9.222,313.181,11.509z
	 M290.185,37.008c0.087,14.368,0.039,28.727,0.031,43.086c-0.168,3.921,1.57,7.849,4.701,10.248
	c4.543,3.761,11.77,3.538,16.049-0.542c3.027-2.59,4.263-6.653,4.096-10.55c-0.16-7.658,0.246-15.348-0.176-22.997
	c-2.479-2.431-6.039-3.547-8.438-6.144c-7.252-6.734-10.041-16.599-11.588-26.049C291.228,27.352,289.665,32.188,290.185,37.008z
	 M322.743,65.132c0,3.975-0.008,7.951-0.01,11.926c-0.094,2.17,0.869,4.344,2.602,5.672c2.514,2.082,6.516,1.958,8.885-0.3
	c1-0.856,1.646-2.002,1.986-3.245l1.242-4.157c0.215-0.525,0.387-1.111,0.514-1.72l0.002-0.001c0.256-1.227,0.336-2.544,0.223-3.625
	l-7.76-1.298L322.743,65.132z M325.563,69.393l-0.001,2.271l-0.006,5.395v0.11c-0.027,0.652,0.104,1.306,0.373,1.892
	c0.256,0.555,0.637,1.05,1.123,1.422l0.088,0.067c0.713,0.59,1.66,0.867,2.609,0.835c0.938-0.032,1.854-0.368,2.522-1.003
	l0.108-0.099c0.252-0.215,0.463-0.47,0.637-0.752c0.207-0.339,0.361-0.708,0.465-1.087l0.018-0.065l-0.006-0.002l0.08-0.271
	l0.516-1.887l-2.725-2.172l-2.033-3.06L325.563,69.393z M267.321,30.402c-5.387,1.371-9.475,6.567-9.338,12.168
	c-0.096,14.886,0.023,29.771-0.057,44.656c-0.07,3.53,0.551,7.307,3.02,10.009c4.041,4.932,12.018,5.673,17.006,1.777
	c3.418-2.494,5.045-6.798,4.836-10.949c-0.063-15.427,0.08-30.862-0.07-46.282C282.685,34.229,274.517,28.387,267.321,30.402z
	 M235.399,38.165c-4.789,1.641-8.238,6.462-8.23,11.538c-0.127,14.36,0.047,28.727-0.072,43.094
	c-0.015,3.427-0.072,7.108,1.833,10.12c2.558,4.51,8.167,6.869,13.204,5.73c5.793-1.092,10.145-6.774,9.904-12.639
	c0.057-14.614-0.031-29.236,0.041-43.85c0.023-3.172-0.271-6.558-2.201-9.204C246.843,38.339,240.595,36.235,235.399,38.165z
	 M259.681,220.492c5.673,10.829,11.594,21.539,17.594,32.193c5.801-5.554,11.244-11.459,16.902-17.141
	c4.781-5.067,9.959-9.754,14.525-15.021C292.368,220.372,276.024,220.437,259.681,220.492z M352.052,247.027
	c1.107,5.244,2.605,10.447,2.988,15.818c0.908,10.813-1.467,22.271-8.217,30.958c-0.645,0.899-1.322,1.808-1.697,2.859
	c2.01,2.462,4.184,4.894,6.822,6.701c8.008,1.132,16.766,0.574,23.834-3.745c3.219-2.096,6.375-5.154,6.797-9.18
	c0.453-5.163-1.428-10.438-5.061-14.145C368.89,266.661,361.001,256.358,352.052,247.027z M326.464,170.617
	c5.148-1.984,9.205-5.801,13.283-9.371c-1.322,8.271-6.605,15.913-14.008,19.889c-9.865,5.156-21.682,3.65-31.938,0.55
	c2.82-3.259,6.199-5.953,9.355-8.861c1.154-0.94,2.461-2.454,4.104-1.674C313.483,173.214,320.409,173.302,326.464,170.617z
	 M160.369,379.87c4.032-3.929,9.777-5.307,15.172-6.143c-1.873,6.543-2.98,13.53-0.821,20.16c-5.012-1.028-10.527-1.96-14.327-5.683
	C158.018,386.047,158.042,382.063,160.369,379.87z M299.776,148.729c-39.58,27.093-79.159,54.186-118.731,81.279
	c-2.391,1.577-4.622,3.441-7.227,4.67c-0.766-0.654-1.459-1.37-2.16-2.08c29.324-20.08,58.624-40.201,87.956-60.274
	c3.282-2.302,6.734-4.383,9.793-6.972c-12.766,7.291-25.156,15.251-37.793,22.774c-28.385,17.275-56.848,34.424-85.184,51.779
	c9.904,0.646,19.841,0.687,29.754,1.243c1.371,0.19,2.662-0.319,3.73-1.147c49.835-35.961,99.687-71.917,149.544-107.837
	c1.889-1.156,2.025-3.547,2.678-5.435C321.212,133.852,310.581,141.421,299.776,148.729z M221.565,128.719
	c3.849,6.67,7.689,13.34,11.514,20.017c1.521-0.765,3.012-1.593,4.494-2.438c-3.379-5.674-6.526-11.491-9.976-17.124
	C225.581,129.054,223.573,128.878,221.565,128.719z M203.039,134.29c7.808,15.013,16.024,29.811,24.016,44.728
	c3.387-2.057,6.709-4.216,10.153-6.176c0.055-2.016,0.055-4.032,0.039-6.04c-2.781,1.657-5.514,3.394-8.319,5.02
	c-6.2-11.459-12.359-22.941-18.558-34.4C209.253,134.434,205.564,134.999,203.039,134.29z M178.694,142.896
	c-3.442,7.865-4.175,16.997-1.394,25.172c3.083,8.702,9.227,16.75,17.889,20.448c5.307,2.486,11.348,2.47,17.045,1.713
	c-1.618-1.57-3.235-3.195-5.204-4.319c-3.474-0.374-7.084-0.526-10.247-2.199c-11.674-5.682-18.375-19.938-15.459-32.575
	C182.153,148.083,179.953,145.469,178.694,142.896z M198.098,153.931c-0.032,1.642-0.04,3.284-0.032,4.925
	c1.729,0.654,3.889,0.98,4.916,2.709c1.291,2.263,0.478,4.933,0.311,7.363c1.586,0.383,3.164,0.773,4.757,1.148
	c0.765-3.857,1.371-8.279-1.084-11.682c-1.896-3.012-5.586-3.945-8.869-4.462L198.098,153.931z M231.765,153.692
	c-1.427,3.18,1.043,6.495,3.873,7.85c3.043,1.625,5.969,3.49,9.061,5.027c2.549-0.613,4.82-2.047,7.227-3.059
	c0.016-1.817,0.008-3.642-0.016-5.459c-2.191,0.877-4.295,1.969-6.51,2.789C240.593,159.04,236.489,155.726,231.765,153.692z
	 M130.812,163.717c10.127,18.081,20.303,36.121,30.407,54.21c3.713-2.67,7.778-4.941,11.14-8.049
	c0.191-1.944,0.072-3.889,0.024-5.833c-3.163,2.079-6.247,4.278-9.307,6.517c-8.893-15.219-17.244-30.742-26.073-45.993
	C134.939,164.283,132.875,163.997,130.812,163.717z M150.701,166.816c0.861,1.331,1.705,2.67,2.55,4.009
	c2.518-0.741,5.083-0.534,7.585,0.152c1.148-0.989,2.136-2.128,3.156-3.236c-1.896-1.203-3.872-2.606-6.215-2.678
	C155.291,164.888,152.964,165.94,150.701,166.816L150.701,166.816z M107.678,176.275c10.145,18.654,20.4,37.246,30.767,55.772
	c4.494-3.251,9.02-6.454,13.578-9.618c0.032-2.072,0.032-4.145,0.017-6.215c-4.017,2.748-7.961,5.608-11.929,8.422
	c-8.415-15.053-16.687-30.186-25.014-45.284C113.902,176.418,110.229,176.944,107.678,176.275z M161.753,188.188
	c0.877,1.562,1.761,3.124,2.646,4.694c2.398,0.167,5.211-0.653,7.347,0.582c3.298,4.056,5.371,8.956,7.769,13.57
	c2.829-1.688,5.586-3.498,8.351-5.283c0.024-2.024,0.032-4.057,0.032-6.08c-2.104,1.362-4.208,2.725-6.311,4.079
	c-2.096-3.458-3.65-7.378-6.59-10.239C171.1,186.969,166.128,187.926,161.753,188.188z M321.442,31.774l0.002-0.013
	c0.217-0.714,0.387-1.443,0.518-2.182l0.969-4.102l0.891-3.503l1.143-2.293l0.762-1.147l-0.889-1.72l-2.477-2.102l-2.178-1.58
	c-0.615-0.693-1.344-0.959-2.123-0.691c-1.381,0.473-2.561,2.359-3.398,4.883c-0.773,2.326-1.224,5.149-1.224,7.935
	c0,2.585,0.39,4.748,1.007,6.229c0.602,1.446,1.452,2.324,2.447,2.324c0.061,0,0.121-0.003,0.18-0.01
	c0.813,0.713,1.7,1.338,2.557,1.868c0.818-1.231,1.4-2.537,1.813-3.891L321.442,31.774z"/>
</svg>
