<svg xmlns="http://www.w3.org/2000/svg" xml:space="preserve" viewBox="-0.03 0 423.67 423.63"><path fill="#FFF" d="M423.625 211.81c0 116.978-94.836 211.81-211.812 211.81C94.831 423.619 0 328.787 0 211.81 0 94.831 94.831 0 211.812 0c116.977 0 211.813 94.831 211.813 211.81"/><path fill="#EC2227" d="M413.018 211.81c0 111.116-90.082 201.206-201.205 201.206S10.605 322.926 10.605 211.81c0-111.12 90.084-201.207 201.207-201.207s201.206 90.086 201.206 201.207"/><path fill="#FFF" d="M355.67 211.81c0 79.454-64.408 143.856-143.857 143.856-79.452 0-143.859-64.402-143.859-143.856 0-79.452 64.407-143.859 143.859-143.859 79.449-.001 143.857 64.407 143.857 143.859"/><circle cx="211.812" cy="211.81" r="133.565" fill="#010101"/><path fill="#FFF" d="M205.76 154.164c-2.151 3.088-8.13 12.882-12.039 18.157 2.136 8.336 8.581 2.38 17.58 1.996 8.537-.368 12.369 6.689 17.775-2.301-3.537-5.885-9.814-15.408-11.924-18.176a10.2 10.2 0 0 1-5.829 1.896c-2.041.029-3.94-.567-5.563-1.572M210.478 135.119l.005-.007s-.535-15.614-.56-23.468c-6.706-5.381-9.014 3.761-15.984 9.46-6.617 5.396-14.616 2.574-13.562 13 6.563 2.683 18.542 6.159 21.468 6.989a10.27 10.27 0 0 1 8.633-5.974M201.243 142.781c-2.305-.727-14.812-4.589-22.022-5.989-6.597 8.147 1.654 10.155 4.217 18.314 2.715 8.581-.363 17.503 8.188 16.655 3.718-5.619 10.877-15.817 12.826-18.585-2.146-1.87-3.55-4.583-3.589-7.661-.007-.951.148-1.857.38-2.734M211.992 135.119a10.27 10.27 0 0 1 8.633 5.975c2.924-.831 14.9-4.306 21.469-6.989 1.053-10.426-6.947-7.605-13.562-13-6.973-5.699-9.283-14.841-15.985-9.46-.023 7.854-.562 23.468-.562 23.468zM221.221 142.781c.233.877.391 1.783.386 2.734-.044 3.078-1.249 5.65-3.397 7.522 1.949 2.766 8.917 12.223 12.635 17.844 8.549.845 5.469-7.195 8.188-15.776 2.559-8.159 10.812-10.167 4.215-18.314-7.215 1.401-19.717 5.264-22.027 5.99"/><path fill="#FFF" d="M175.228 136.841c-.099.082-1.547 4.427-.688 8.789.484 2.482 4.846 4.19 6.493 8.697 2.482 6.8-1.02 19.431 8.22 19.065-17.908 12.562-32.875-31.257-14.025-36.551M246.285 135.976c19.324 2.833 6.174 37.837-1.838 39.588-3.16 1.027-7.258-.089-9.68-1.126 7.693-2.534 4.738-9.261 6.95-19.251 1.286-5.776 6.905-7.149 7.036-12.059.268-3.502-2.325-4.084-2.468-7.152M191.674 175.758c4.301 8.2 10.039 1.775 21.586 2.134 7.728.24 15.076 4.103 18.333-1.826 5.7 18.984-44.062 22.084-39.919-.308M208.884 108.672c-8.392-3.931-9.065 4.652-18.481 11.356-6.294 4.48-14.495 5.847-13.504 12.538-16.019-11.676 21.741-44.238 31.985-23.894M213.423 108.672c8.392-3.931 9.065 4.652 18.481 11.356 6.295 4.48 14.492 5.847 13.502 12.538 16.018-11.676-21.738-44.238-31.983-23.894M215.545 100.915s-4.469 3.156-4.353 6.655c-.179-3.684-4.529-6.549-4.529-6.549s4.531-3.175 4.364-6.648c.335 4.718 4.518 6.542 4.518 6.542M255.14 136.312s-4.562-2.804-7.774-2.516c3.909-1.141 5.735-5.825 5.735-5.825s2.933 3.068 7.786 2.512c-3.044.7-5.747 5.829-5.747 5.829M234.711 184.913s1.381-4.682-.393-8.223c2.246 2.943 7.854 2.482 7.854 2.482s-1.848 5.365.396 8.234c-2.24-2.806-7.857-2.493-7.857-2.493"/><path fill="#FFF" d="M181.728 178.26s4.691 1.654 7.874-2.03c-2.071 3.376-.31 8.123-.31 8.123s-4.824-.637-7.883 2.034c2.402-3.996.319-8.127.319-8.127M169.65 128.645c-.039 3.333 4.672 5.907 4.672 5.907s-3.684-.838-6.89 3.04c-.92-4.062-4.696-5.919-4.696-5.919s5.543-.039 6.914-3.028M220.096 145.324c.058 4.871-3.855 8.876-8.748 8.93-4.893.063-8.908-3.839-8.961-8.714-.058-4.866 3.853-8.864 8.738-8.93 4.896-.055 8.91 3.847 8.971 8.714"/><path fill="#010101" d="M211.25 150.48c-.489.708-1.245 1.129-2.087 1.129-2.005-.029-3.977-1.95-4.047-3.96-.017-.843.388-1.601 1.078-2.114-.705-.484-1.126-1.235-1.126-2.076.02-2.01 1.94-3.984 3.948-4.057.843-.01 1.608.38 2.114 1.071.492-.703 1.238-1.117 2.085-1.124 2.01.029 3.981 1.952 4.049 3.958.024.848-.377 1.605-1.072 2.107.707.497 1.121 1.247 1.126 2.095-.022 1.998-1.944 3.97-3.955 4.047h-.017c-.841.009-1.594-.383-2.096-1.076"/><path fill="#FFF" d="M209.049 141.161c-1.037.037-2.216 1.248-2.226 2.313 0 .298.201.499.366.615l2.027 1.395-1.979 1.465c-.169.124-.37.341-.363.664.037 1.037 1.24 2.216 2.301 2.238.312-.005.514-.201.625-.363l1.407-2.054 1.463 2.012c.169.235.388.352.642.352 1.052-.039 2.237-1.248 2.245-2.306 0-.242-.126-.465-.371-.637l-2.026-1.412 1.998-1.451c.239-.172.358-.387.351-.637-.036-1.051-1.25-2.233-2.315-2.245-.229 0-.449.126-.622.371l-1.409 2.008-1.448-1.974a.82.82 0 0 0-.666-.354"/><path fill="#010101" d="M214.377 143.038a1.7 1.7 0 0 0-.676-.136 1.93 1.93 0 0 0-.566-1.281c-.528-.506-1.274-.705-2-.708-.724.015-1.468.235-1.983.761a1.87 1.87 0 0 0-.535 1.288c-.254.01-.484.065-.676.15-.875.393-1.327 1.361-1.311 2.419.01 1.059.492 2.022 1.376 2.391.189.082.407.128.668.13.029.637.349 1.061.574 1.289.528.501 1.279.707 1.998.698.724-.01 1.462-.228 1.984-.751.215-.23.53-.664.54-1.296.256-.007.479-.07.67-.147.875-.393 1.33-1.369 1.316-2.427-.013-1.06-.485-2.024-1.379-2.38"/><path fill="#FFF" d="m213.765 146.269-.063.007c-.125.015-.413-.097-.755-.349.041-.163.067-.32.067-.492a2.5 2.5 0 0 0-.067-.453c.334-.257.61-.378.726-.358l.073.002c.054 0 .308.312.296.816.022.502-.23.82-.277.827M211.997 148.093c-.092.104-.424.237-.775.237-.344.01-.686-.116-.775-.221l-.053-.133c-.031-.153.163-.489.38-.785.155.039.3.068.467.063.146-.002.279-.029.421-.061.213.293.417.612.39.763zM208.698 146.342l-.056-.012c-.061 0-.303-.315-.295-.821-.022-.494.218-.821.267-.821l.065-.005.031-.01c.124.005.409.126.763.375a1.6 1.6 0 0 0-.059.429c0 .162.032.315.075.46-.358.291-.66.412-.791.405M210.372 142.871c.109-.116.438-.242.785-.242.351-.002.68.111.78.223l.056.128c.026.141-.146.446-.349.727-.146-.026-.3-.056-.451-.053a2 2 0 0 0-.484.078c-.22-.274-.399-.586-.378-.731z"/><circle cx="211.185" cy="145.482" r=".581" fill="#FFF"/><path fill="#FFF" d="M181.883 304.08c1.751 3.24 1.468 6.695-1.579 7.963-3.042 1.275-8.058-.121-10.165-3.361-8.561-12.945-3.807-28.391-11.068-41.33-1.741-3.238-1.458-6.684 1.596-7.955 3.03-1.266 8.06.125 10.157 3.365 8.557 12.937 3.808 28.384 11.059 41.318M264.217 267.359c1.736-3.246 1.453-6.691-1.594-7.969-3.031-1.266-8.045.131-10.164 3.367-8.549 12.957-3.798 28.395-11.057 41.334-1.73 3.229-1.47 6.684 1.587 7.951 3.032 1.275 8.067-.129 10.165-3.361 8.561-12.937 3.809-28.38 11.063-41.322"/><path fill="#FCEE23" d="M132.876 284.119a3.33 3.33 0 0 1 2.221 4.15l-2.797 9.291c-.516 1.76-2.381 2.754-4.132 2.227a3.327 3.327 0 0 1-2.233-4.141l2.79-9.295a3.34 3.34 0 0 1 4.151-2.232M141.735 283.846a3.313 3.313 0 0 1 2.235 4.133l-2.797 9.301a3.32 3.32 0 0 1-4.134 2.234 3.345 3.345 0 0 1-2.24-4.152l2.8-9.289a3.32 3.32 0 0 1 4.136-2.227M151.028 282.877a3.334 3.334 0 0 1 2.221 4.148l-2.783 9.285c-.538 1.758-2.388 2.76-4.148 2.223a3.31 3.31 0 0 1-2.224-4.137l2.785-9.293a3.33 3.33 0 0 1 4.149-2.226M160.035 282.182a3.33 3.33 0 0 1 2.23 4.146l-2.792 9.295a3.33 3.33 0 0 1-4.141 2.227 3.33 3.33 0 0 1-2.235-4.141l2.794-9.295a3.32 3.32 0 0 1 4.144-2.232M290.693 284.119a3.344 3.344 0 0 0-2.23 4.15l2.795 9.291a3.325 3.325 0 0 0 4.141 2.227c1.758-.527 2.764-2.387 2.229-4.141l-2.797-9.295a3.325 3.325 0 0 0-4.138-2.232M281.814 283.846a3.34 3.34 0 0 0-2.227 4.141l2.801 9.293c.525 1.768 2.391 2.76 4.146 2.242a3.35 3.35 0 0 0 2.221-4.16l-2.785-9.281a3.337 3.337 0 0 0-4.156-2.235M272.541 282.877a3.324 3.324 0 0 0-2.23 4.141l2.787 9.293a3.33 3.33 0 0 0 4.154 2.223c1.756-.52 2.748-2.379 2.223-4.137l-2.797-9.299a3.31 3.31 0 0 0-4.137-2.221M263.531 282.182a3.337 3.337 0 0 0-2.232 4.146l2.797 9.295a3.32 3.32 0 0 0 4.142 2.221 3.323 3.323 0 0 0 2.228-4.135l-2.797-9.295a3.316 3.316 0 0 0-4.138-2.232"/><path fill="#FFF" d="M269.684 165.913c-5.188 44.751-28.334 70.931-55.773 93.435 4.528 3.111 9.135 5.957 13.736 8.598 42.165-23.965 76.145-56.095 78.764-119.596-12.575 5.521-24.315 11.891-36.727 17.563M178.131 279.461c.797 2.992.632 6.055 1.429 7.975 9.762-3.797 21.39-6.617 30.225-11.34a225 225 0 0 1-14.182-6.533c-4.931 3.783-10.928 6.83-17.61 8.869.049.343.092.683.138 1.029"/><path fill="#FFF" d="M244.58 284.297c.193-1.729.388-3.479.63-5.23-46.253-22.088-83.124-52.977-91.28-113.151-12.415-5.674-24.141-12.042-36.716-17.563 4.543 83.398 60.998 118.746 127.148 137.898q.11-.973.218-1.954"/><g fill="#FFF"><path d="M44.643 202.251c4.106.388 6.007-2.659 6.35-6.289.225-2.377-.124-6.072-3.278-6.371-3.328-.315-4.327 4.256-5.966 8.679-1.643 4.466-3.853 8.923-9.643 8.375-6.31-.597-8.771-6.847-8.244-12.421.609-6.439 3.978-12.094 11.108-11.419l-.621 6.568c-3.737-.135-4.937 2.411-5.243 5.652-.205 2.161.466 4.753 3.059 4.998 2.377.225 2.818-1.216 5.538-8.764.774-2.194 2.854-8.974 9.855-8.311 5.661.535 9.476 5.387 8.682 13.771-.646 6.828-4.621 12.905-12.219 12.099zM27.474 172.379l1.88-6.551 11.432 3.282 3.461-12.057-11.432-3.282 1.88-6.55 29.789 8.552-1.881 6.55-12.85-3.688-3.461 12.058 12.851 3.688-1.881 6.55zM38.657 137.618l10.377-20.723 5.122 2.565-7.326 14.63 5.938 2.974 6.723-13.428 4.734 2.371-6.724 13.427 6.792 3.4 7.481-14.94 5.122 2.565-10.532 21.033zM54.612 108.183l12.937-17.524 4.607 3.401-8.891 12.043 5.76 4.252 7.706-10.438 4.259 3.144-7.704 10.439 10.297 7.602-4.045 5.481zM72.028 85.685l15.425-15.387 4.045 4.056-10.6 10.575 5.058 5.07 9.188-9.165 3.739 3.749-9.188 9.165 9.043 9.064-4.825 4.812zM92.598 66.376l5.344-4.227 19.224 24.304-5.344 4.227zM105.185 56.54l19.833-11.993 2.965 4.903-14.003 8.467 3.436 5.683 12.851-7.771 2.741 4.532-12.851 7.771 3.93 6.5 14.3-8.646 2.964 4.903-20.131 12.17zM134.625 40.034l6.354-2.466 9.14 23.555 14.084-5.465L166.276 61l-20.438 7.931zM164.928 29.228l13.147-2.407c7.897-1.445 14.737 2.42 16.588 12.537 1.618 8.836-1.704 16.238-11.008 17.941l-13.147 2.407zm11.25 23.617 5.976-1.094c3.885-.711 7.161-3.781 5.926-10.525-1.125-6.147-3.978-9.684-10.637-8.464l-4.781.875zM243.999 45.607c-.935 8.322-6.306 11.823-14.541 10.898-8.28-.93-12.659-5.483-11.72-13.849l2.15-19.146 6.771.761-2.15 19.146c-.379 3.363.111 6.781 5.588 7.396 4.829.542 6.619-1.396 7.133-5.967l2.15-19.146 6.77.761zM255.281 28.386l6.465 2.013 6.166 23.694.083.025 6.182-19.848 6.091 1.897-9.214 29.585-6.505-2.026-6.139-23.639-.083-.026-6.169 19.807-6.091-1.896zM288.874 40.247l6.161 2.908-13.225 28.018-6.161-2.908zM305.098 55.136l-7.888-4.907 3.027-4.865 21.562 13.415-3.027 4.866-7.887-4.908-13.346 21.451-5.787-3.6zM326.541 62.452l17.511 15.176-3.751 4.328-12.361-10.714-4.35 5.017 11.346 9.833-3.468 4-11.345-9.833-4.975 5.738 12.626 10.941-3.751 4.329-17.772-15.403zM351.76 85.59l8.247 10.519c4.952 6.318 4.713 14.171-3.381 20.516-7.069 5.542-15.168 6.045-21.005-1.4l-8.245-10.519zm-15.672 20.944 3.747 4.782c2.437 3.108 6.679 4.58 12.075.349 4.917-3.855 6.721-8.026 2.543-13.354l-2.998-3.825zM382.08 131.398l8.264 20.156-5.299 2.172-5.68-13.852-6.625 2.716 4.922 12.005-4.898 2.008-4.922-12.005-11.846 4.856-2.584-6.304zM367.508 160.991l1.977 6.521-6.396 1.938-1.975-6.52zM388.244 190.058c2.969-.932 4.8-4.227 4.245-7.566-1.001-6.037-6.515-7.455-11.866-6.568-5.096.844-9.857 3.965-8.857 10.002.682 4.111 3.892 5.955 8.002 5.801l1.077 6.509c-7.735.578-13.489-3.88-14.731-11.373-1.568-9.463 4.575-16.2 13.396-17.662 9.076-1.505 17.064 2.891 18.632 12.354 1.114 6.723-1.889 13.027-8.817 15.011zM375.32 203.075l.217 6.812-6.681.212-.218-6.812z"/></g><g fill="#FFF"><path d="m177.083 396.49-6.026-1.293 4.132-19.268-7.47-1.602.974-4.541c4.184.986 8.354.371 9.965-4.033l4.796 1.027zM197.809 368.031c7.522.668 9.656 6.086 9.395 9.025-.265 2.984-2.036 5.266-4.982 6.051l.007-.086-.003.043-.004.043c3.516 1.141 5.345 4.092 5.007 7.896-.565 6.355-6.552 9.004-12.172 8.504-5.837-.518-11.239-3.961-10.659-10.49.342-3.846 2.746-6.379 6.368-6.928l.008-.086c-2.867-1.084-4.165-3.639-3.9-6.621.482-5.448 6.006-7.79 10.935-7.351m-2.342 26.852c2.939.26 5.372-1.613 5.641-4.641.257-2.896-1.904-5.051-4.758-5.303-2.983-.266-5.511 1.209-5.788 4.322-.276 3.112 1.965 5.36 4.905 5.622m1.205-14.055c2.508.223 4.663-.98 4.893-3.576.139-1.555-.362-4.258-4.167-4.596-2.464-.219-4.76 1.102-4.999 3.783-.234 2.637 1.809 4.168 4.273 4.389M221.546 368.344c7.54-.461 10.456 4.58 10.637 7.525.182 2.99-1.229 5.512-4.024 6.727l-.006-.086.003.043.003.043c3.646.604 5.896 3.25 6.129 7.062.389 6.369-5.137 9.883-10.77 10.227-5.85.357-11.706-2.242-12.106-8.785-.235-3.855 1.764-6.719 5.264-7.803l-.005-.086c-2.997-.643-4.662-2.977-4.845-5.967-.334-5.459 4.779-8.599 9.72-8.9m.784 12.826c2.512-.154 4.464-1.666 4.306-4.264-.096-1.562-.995-4.16-4.807-3.928-2.47.152-4.544 1.801-4.378 4.488.159 2.643 2.409 3.854 4.879 3.704m.904 14.078c2.945-.18 5.07-2.396 4.887-5.43-.178-2.904-2.637-4.711-5.498-4.535-2.988.182-5.268 2.018-5.078 5.137.191 3.119 2.742 5.01 5.689 4.828M245.004 388.828c.809 1.914 2.701 3.283 4.781 2.838 4.371-.939 4.289-6.914 3.749-10.262l-.104-.066c-1.154 2.689-3.109 4.131-5.995 4.75-2.546.545-5.39-.088-7.487-1.592-1.961-1.488-3.211-3.795-3.713-6.129-1.301-6.068 1.873-11.764 8.068-13.094 8.996-1.93 13.1 5.402 14.711 12.916 1.557 7.256.105 16.223-8.34 18.035-5.136 1.102-9.6-1.094-11.4-6.168zm6.513-14.137c-.593-2.758-2.967-5.135-5.979-4.488-2.886.619-3.949 3.732-3.376 6.406.601 2.801 2.645 5.293 5.742 4.627 3.225-.691 4.241-3.617 3.613-6.545"/></g></svg>