<svg xmlns="http://www.w3.org/2000/svg" width="925.955" height="925.953"><defs><clipPath id="a" clipPathUnits="userSpaceOnUse"><path d="M0 1080h1080V0H0Z"/></clipPath></defs><g clip-path="url(#a)" transform="matrix(1.33333 0 0 -1.33333 -257.265 1181.764)"><path d="M0 0c191.771 0 347.233-155.461 347.233-347.233 0-191.771-155.462-347.232-347.233-347.232s-347.233 155.461-347.233 347.232S-191.771 0 0 0" style="fill:#22378a;fill-opacity:1;fill-rule:nonzero;stroke:none" transform="translate(540.182 886.323)"/><path d="M0 0c127.247 0 230.402-103.154 230.402-230.402S127.247-460.804 0-460.804s-230.402 103.155-230.402 230.402C-230.402-103.154-127.247 0 0 0" style="fill:#12284c;fill-opacity:1;fill-rule:nonzero;stroke:none" transform="translate(540.182 769.492)"/><path d="M0 0c-6.917-7.354-10.176-15.901-17.133-23.295 7.155 15.027-7.95 22.42-30.609 44.085C-30.609 13.436-17.133 7.314-.04 0Zm48.736-68.612a43.72 43.72 0 0 0-7.951-33.749c24.05 5.565 31.802 19.876 42.694 35.22a57.64 57.64 0 0 1-27.588 45.595L4.691 8.666l1.073 23.096c-133.288 43.409-191.008 82.485-214.342 119.852a193.7 193.7 0 0 1 47.066-102.441c-26.475-.199-88.925-100.97-116.751-181.388 52.271-73.112 142.262-109.186 230.561-92.423-.438 73.223-21.546 173.994 96.279 156.066z" style="fill:#fce200;fill-opacity:1;fill-rule:nonzero;stroke:none" transform="translate(637.573 549.188)"/><path d="M0 0c127.247 0 230.402-103.154 230.402-230.402S127.247-460.804 0-460.804s-230.402 103.155-230.402 230.402C-230.402-103.154-127.247 0 0 0Z" style="fill:none;stroke:#fce200;stroke-width:5.446;stroke-linecap:butt;stroke-linejoin:miter;stroke-miterlimit:10;stroke-dasharray:none;stroke-opacity:1" transform="translate(540.182 769.492)"/><path d="M0 0c186.085 0 336.937-150.852 336.937-336.937S186.085-673.874 0-673.874s-336.937 150.852-336.937 336.937S-186.085 0 0 0Z" style="fill:none;stroke:#fce200;stroke-width:8.586;stroke-linecap:butt;stroke-linejoin:miter;stroke-miterlimit:10;stroke-dasharray:none;stroke-opacity:1" transform="translate(540.182 876.028)"/><path d="M0 0a17.93 17.93 0 0 0 8.189-14.112C8.427-23.533.477-31.643-7.155-35.3l-8.149 10.336c4.73 3.021 13.754 8.785 8.586 14.151-5.168 5.367-16.855-13.833-31.802-3.021-12.879 9.382-7.513 25.322 5.327 33.432l7.156-9.819C-29.416 7.672-36.095.994-31.126-3.299c2.107-1.909 5.089-.954 7.513.556C-17.411 1.789-8.507 6.321 0 0" style="fill:#fff;fill-opacity:1;fill-rule:nonzero;stroke:none" transform="translate(324.09 700.324)"/><path d="M0 0c-3.419 3.299-10.574-4.492-7.314-7.712l20.591-19.876c3.975-3.657 11.131 3.975 7.314 7.672zm8.825 9.262 20.711-19.876c5.803-5.525 7.433-15.066-.954-23.851S10.415-42.415 4.73-36.81l-20.71 19.876c-5.804 5.525-7.593 14.787 1.192 23.851S3.021 14.788 8.825 9.262" style="fill:#fff;fill-opacity:1;fill-rule:nonzero;stroke:none" transform="translate(330.133 746.675)"/><path d="m0 0-22.738-17.849v.915l-35.777 45.516 10.057 7.95L-20.234.755l11.926 8.746L-.875.04z" style="fill:#fff;fill-opacity:1;fill-rule:nonzero;stroke:none" transform="translate(395.445 745.363)"/><path d="M0 0h1.034L-11.29-7.593l.279.994-29.933 48.378-1.074.199 12.363 7.593-.318-1.034z" style="fill:#fff;fill-opacity:1;fill-rule:nonzero;stroke:none" transform="translate(411.624 756.295)"/><path d="m0 0 23.533-51.995.954-.358-12.919-5.844.358.954L1.988-35.3l-8.309-3.776 9.938-21.943.915-.358-12.92-5.843.358.954-23.772 52.035-.874.278 12.8 5.844v-.835l7.95-18.485 8.309 3.737-8.309 18.484-.715.239L.278.875-.079-.04z" style="fill:#fff;fill-opacity:1;fill-rule:nonzero;stroke:none" transform="translate(426.889 827.41)"/><path d="m0 0 10.455-40.666C13.118-50.962 6.48-58.237-2.981-60.542c-8.825-2.266-18.962.715-21.625 10.971L-35.061-8.904l-.954.397 14.271 3.657-.557-.954 10.495-40.745c1.192-4.771 10.812-2.386 9.58 2.464L-12.76-3.18l-.954.556L.557 1.073Z" style="fill:#fff;fill-opacity:1;fill-rule:nonzero;stroke:none" transform="translate(479.4 842.874)"/><path d="m0 0-28.78-2.981.636.715-5.884 57.68 12.681 1.272 4.651-45.476 14.669 1.511L-.795.795z" style="fill:#fff;fill-opacity:1;fill-rule:nonzero;stroke:none" transform="translate(527.5 790.64)"/><path d="m0 0-28.9.795.716.596 1.709 57.839 12.761-.358-1.312-45.714 14.748-.398L-.596.835Z" style="fill:#fff;fill-opacity:1;fill-rule:nonzero;stroke:none" transform="translate(560.693 790.243)"/><path d="m0 0 .755-.199zm39.752-12.164L22.778-68.055l.437-.875L9.66-64.955l.874.477 3.975 13.715 4.532 13.476-10.852-6.559-5.446 11.528-3.975-14.033-3.976-13.436.478-.874-13.556 3.975.875.477L-.398-.278l.756-.199 12.641-27.389 25.64 15.662z" style="fill:#fff;fill-opacity:1;fill-rule:nonzero;stroke:none" transform="translate(608.833 843.153)"/><path d="M0 0c2.226 4.214-7.275 9.024-9.381 4.969l-13.317-25.362c-2.465-4.69 6.996-9.54 9.421-4.929zm11.289-5.923L-1.829-31.324c-3.697-7.076-12.442-11.29-23.175-5.645s-12.522 15.344-8.825 22.42l13.317 25.441c3.737 7.076 12.164 11.329 23.454 5.406 11.289-5.923 12.323-15.105 8.347-22.221" style="fill:#fff;fill-opacity:1;fill-rule:nonzero;stroke:none" transform="translate(681.937 798.114)"/><path d="M0 0c2.902 3.737-5.605 10.097-8.388 6.48l-17.49-22.659c-3.26-4.174 5.207-10.614 8.387-6.48zm10.097-7.95L-7.394-30.688c-4.889-6.361-14.231-8.945-23.851-1.551s-9.66 17.292-4.77 23.613l17.491 22.658c4.889 6.321 13.913 9.064 23.851 1.273S14.986-1.59 10.097-7.95" style="fill:#fff;fill-opacity:1;fill-rule:nonzero;stroke:none" transform="translate(724.908 769.651)"/><path d="m0 0 4.373-4.691c.947-.977 2.508-1 3.485-.053l.053.053 8.626 7.951c.977.947 1 2.508.053 3.485l-.053.053-4.373 4.69zm11.926 28.542v1.033l13.555-14.589c5.776-5.101 6.322-13.919 1.221-19.694a14 14 0 0 0-1.539-1.493l-8.467-7.951a11.93 11.93 0 0 0-12.403-3.299L-5.208-36.89v-1.033l-10.216 10.812h1.074l8.864 15.901-3.061 3.299-12.601-11.687v-1.073l-9.7 10.455h1.153z" style="fill:#fff;fill-opacity:1;fill-rule:nonzero;stroke:none" transform="translate(742.797 734.272)"/><path d="M0 0a17.93 17.93 0 0 0-16.139-2.226c-8.825 3.339-13.357 13.754-13.834 22.181l12.482 3.737c1.034-5.525 2.942-15.901 9.898-13.317 6.957 2.584-6.479 20.87 9.223 30.609 13.516 8.428 26.276-2.584 28.939-17.53l-11.925-2.902c-.676 3.975-4.333 12.601-10.177 9.659-2.584-1.272-2.822-4.372-2.345-7.195C8.229 15.464 9.103 5.645 0 0" style="fill:#fff;fill-opacity:1;fill-rule:nonzero;stroke:none" transform="translate(771.299 677.944)"/><path d="m0 0-7.95-6.559L0-15.861h.994l-10.852-9.024v.994l-7.752 9.302-17.054-14.271v-.994l-9.063 10.892h.994L1.59 18.047 18.564-2.266h.994L8.666-11.369v.994z" style="fill:#fff;fill-opacity:1;fill-rule:nonzero;stroke:none" transform="translate(334.346 370.304)"/><path d="M0 0c3.18 3.538-4.81 10.534-7.95 7.116l-19.201-21.188c-3.577-3.975 4.373-11.011 7.951-7.116zm9.461-8.547-19.2-21.227c-5.367-5.923-14.867-7.95-23.851.318s-8.308 18.007-2.942 23.851l19.2 21.228c5.367 5.923 14.549 7.95 23.851-.597 9.302-8.546 8.269-17.65 2.942-23.573" style="fill:#fff;fill-opacity:1;fill-rule:nonzero;stroke:none" transform="translate(364.399 336.396)"/><path d="M0 0c2.544 3.975-6.48 9.58-8.944 5.724l-15.424-24.089c-2.862-4.492 6.122-10.137 8.944-5.725zm10.733-6.877-15.424-24.09c-4.293-6.758-13.356-10.176-23.573-3.617-10.216 6.559-11.17 16.338-6.837 23.096l15.424 24.089c4.293 6.758 13.038 10.256 23.851 3.379S15.066-.358 10.733-6.877" style="fill:#fff;fill-opacity:1;fill-rule:nonzero;stroke:none" transform="translate(400.454 310)"/><path d="m0 0-4.889-11.329-10.097 4.372-17.929-41.699.358-.915-13.038 5.605.954.398 18.047 41.739-10.296 4.453L-32 13.913z" style="fill:#fff;fill-opacity:1;fill-rule:nonzero;stroke:none" transform="translate(451.853 301.096)"/><path d="m0 0 5.764-1.471c2.862 0 5.804 7.235 1.59 8.269L2.027 8.149Zm2.186-24.845 1.948 7.95a2.464 2.464 0 0 1-1.789 2.902l-5.525 1.392-3.141-12.562 5.526-1.351a2.423 2.423 0 0 1 2.981 1.669M21.824.875a13.28 13.28 0 0 0-8.587-9.819 8.944 8.944 0 0 0 3.419-10.733l-1.829-7.553C12.323-37.248 6.36-40.785-3.339-38.361l-18.882 4.731.834.517 13.914 55.334-.517.875 18.683-4.691c7.67-1.382 12.768-8.721 11.385-16.391a14 14 0 0 0-.254-1.139" style="fill:#fff;fill-opacity:1;fill-rule:nonzero;stroke:none" transform="translate(467.714 274.86)"/><path d="m0 0-4.611-18.206 6.32-.517L.119 0Zm3.498-30.887-11.925.954-2.783-8.507.636-.755-14.668 1.192.914.676 19.041 55.653-.676.795 15.026-1.233-.834-.675 9.938-57.959.636-.795-14.589 1.233.835.636z" style="fill:#fff;fill-opacity:1;fill-rule:nonzero;stroke:none" transform="translate(512.912 268.579)"/><path d="m0 0-28.86-2.147.676.676-4.333 57.68 12.721.954 3.418-45.595 14.708 1.113L-.755.755z" style="fill:#fff;fill-opacity:1;fill-rule:nonzero;stroke:none" transform="translate(577.19 229.066)"/><path d="m0 0-28.343-6.003.556.796-11.528 56.686 12.522 2.544 9.103-44.801 14.43 2.942L-.835.239z" style="fill:#fff;fill-opacity:1;fill-rule:nonzero;stroke:none" transform="translate(615.83 236.142)"/><path d="M0 0a2.504 2.504 0 0 1 3.334-1.195l.005.002 12.323 5.566L20.91-7.235 8.586-12.8c-7.647-3.496-16.68-.132-20.177 7.516l-.017.037-11.528 25.52c-3.479 7.68-.074 16.725 7.606 20.204l.067.03 11.925 5.287 5.247-11.607-11.925-5.327a2.465 2.465 0 0 1-1.324-3.225q.025-.058.052-.114z" style="fill:#fff;fill-opacity:1;fill-rule:nonzero;stroke:none" transform="translate(661.425 268.142)"/><path d="m0 0-24.726-15.026.279.914-30.013 49.451 10.892 6.639 23.851-39.116 12.601 7.672L-.874.238z" style="fill:#fff;fill-opacity:1;fill-rule:nonzero;stroke:none" transform="translate(713.102 279.233)"/><path d="m0 0 26.952-32.239c6.797-8.149 3.975-17.57-3.538-23.851s-17.451-7.553-24.249.596l-26.991 32.279h-1.034l11.29 9.461v-1.113L9.421-47.146c3.141-3.776 10.773 2.505 7.593 6.361L-9.978-8.507h-1.113L.239.954z" style="fill:#fff;fill-opacity:1;fill-rule:nonzero;stroke:none" transform="translate(716.083 354.8)"/><path d="m0 0-6.122 5.247a2.543 2.543 0 0 1-3.418-.318L-13.277.596l9.779-8.427L.239-3.498A2.505 2.505 0 0 1 .04-.04zm-23.175 9.183 3.975 4.531c1.232 2.584-3.975 8.428-6.678 5.128l-3.578-4.174zm9.103 19.876a13.36 13.36 0 0 0 4.73-11.926 8.904 8.904 0 0 0 11.131-1.749l6.042-5.247c7.95-6.718 8.308-13.635 1.789-21.188L-3.101-25.839v1.034l-43.21 37.247h-.994l12.602 14.589c4.703 6.215 13.554 7.439 19.769 2.736q.444-.337.862-.708" style="fill:#fff;fill-opacity:1;fill-rule:nonzero;stroke:none" transform="translate(766.926 346.81)"/></g></svg>