<svg xmlns="http://www.w3.org/2000/svg" width="824.919" height="936.263" viewBox="0 0 824.919 936.263"><defs><clipPath id="a" clipPathUnits="userSpaceOnUse"><path d="M0 1080h1080V0H0Z"/></clipPath><clipPath id="b" clipPathUnits="userSpaceOnUse"><path d="M0 1080h1080V0H0Z"/></clipPath></defs><g clip-path="url(#a)" transform="matrix(1.33333 0 0 -1.33333 -305.253 1190.377)"><path d="M0 0c-48.267 0-87.409 15.663-87.409 34.981 0 19.272 39.142 34.91 87.409 34.91 48.237 0 87.422-15.638 87.422-34.91C87.422 15.663 48.237 0 0 0m-.203 107.057c-66.67 0-120.779-29.291-120.779-65.418 0-36.075 54.109-65.379 120.779-65.379 66.677 0 120.726 29.304 120.726 65.379 0 36.127-54.049 65.418-120.726 65.418" style="fill:#000;fill-opacity:1;fill-rule:nonzero;stroke:none" transform="translate(539.531 784.136)"/><path d="M0 0c-48.267 0-87.409 15.663-87.409 34.981 0 19.272 39.142 34.91 87.409 34.91 48.237 0 87.422-15.638 87.422-34.91C87.422 15.663 48.237 0 0 0Zm-.203 107.057c-66.67 0-120.779-29.291-120.779-65.418 0-36.075 54.109-65.379 120.779-65.379 66.677 0 120.726 29.304 120.726 65.379 0 36.127-54.049 65.418-120.726 65.418z" style="fill:none;stroke:#fff;stroke-width:.305;stroke-linecap:butt;stroke-linejoin:miter;stroke-miterlimit:4;stroke-dasharray:none;stroke-opacity:1" transform="translate(539.531 784.136)"/><path d="M0 0c-52.506-62.402-131.166-102.101-219.157-102.101-87.096 0-165.009 38.863-217.558 100.22l-62.201-74.827c69.883-75.009 169.549-122.016 280.163-122.016 111.271 0 211.428 47.521 281.276 123.336z" style="fill:#000;fill-opacity:1;fill-rule:nonzero;stroke:none" transform="translate(759.72 389.917)"/><path d="M0 0c-52.506-62.402-131.166-102.101-219.157-102.101-87.096 0-165.009 38.863-217.558 100.22l-62.201-74.827c69.883-75.009 169.549-122.016 280.163-122.016 111.271 0 211.428 47.521 281.276 123.336z" style="fill:none;stroke:#fff;stroke-width:.305;stroke-linecap:butt;stroke-linejoin:miter;stroke-miterlimit:4;stroke-dasharray:none;stroke-opacity:1" transform="translate(759.72 389.917)"/><path d="M0 0v-332.243c0-9.614-6.09-17.915-14.607-21.097l-154.271-59.809-154.309 59.809c-8.501 3.182-14.616 11.483-14.616 21.097L-337.792 0Z" style="fill:#000;fill-opacity:1;fill-rule:nonzero;stroke:none" transform="translate(710.497 676.466)"/><path d="M0 0v-332.243c0-9.614-6.09-17.915-14.607-21.097l-154.271-59.809-154.309 59.809c-8.501 3.182-14.616 11.483-14.616 21.097L-337.792 0Z" style="fill:none;stroke:#fff;stroke-width:.305;stroke-linecap:butt;stroke-linejoin:miter;stroke-miterlimit:4;stroke-dasharray:none;stroke-opacity:1" transform="translate(710.497 676.466)"/><path d="M0 0v204.75h321.649L321.705 0Z" style="fill:#fff;fill-opacity:1;fill-rule:nonzero;stroke:none" transform="translate(380.724 419.989)"/><path d="M0 0c-2.807-4.519-9.766-7.71-17.833-7.71-8.154 0-15.14 3.191-17.891 7.765-2.862-4.574-9.793-7.765-17.918-7.765-8.152 0-15.027 3.191-17.891 7.71-2.861-4.519-9.751-7.71-17.862-7.71-8.138 0-15.031 3.191-17.886 7.765h-.083c-2.807-4.574-9.725-7.765-17.834-7.765-8.125 0-15.015 3.191-17.82 7.71-2.862-4.519-9.864-7.71-17.919-7.71-8.146 0-15.055 3.191-17.883 7.765h.05c-2.881-4.574-9.773-7.765-17.865-7.765-8.147 0-15.096 3.191-17.927 7.71-2.834-4.519-9.796-7.71-17.901-7.71-8.075 0-15.012 3.191-17.844 7.765h-.07c-2.795-4.574-9.765-7.765-17.809-7.765-8.17 0-15.07 3.191-17.928 7.71v-.127c-2.845-4.546-9.756-7.583-17.788-7.583-8.216 0-15.11 3.191-17.914 7.765v.393l.111-90.496c0-9.181 5.788-16.995 13.919-20.043l146.976-57.046 146.863 57.046C-5.809-107.043 0-99.229 0-90.048V.381" style="fill:#d71921;fill-opacity:1;fill-rule:nonzero;stroke:none" transform="translate(702.429 439.192)"/><path d="M0 0c-2.807-4.494-9.766-7.713-17.833-7.713-8.154 0-15.14 3.231-17.891 7.713-2.862-4.482-9.793-7.713-17.918-7.713-8.152 0-15.027 3.219-17.891 7.713-2.861-4.494-9.751-7.713-17.862-7.713-8.138 0-15.031 3.231-17.886 7.713h-.083c-2.807-4.482-9.725-7.713-17.834-7.713-8.125 0-15.015 3.219-17.82 7.713-2.862-4.494-9.864-7.713-17.919-7.713-8.146 0-15.055 3.231-17.883 7.713h.05c-2.881-4.482-9.773-7.713-17.865-7.713-8.147 0-15.096 3.219-17.927 7.713-2.834-4.494-9.796-7.713-17.901-7.713-8.075 0-15.012 3.231-17.844 7.713h-.07c-2.795-4.482-9.765-7.713-17.809-7.713-8.17 0-15.07 3.219-17.928 7.713v-.146c-2.845-4.529-9.756-7.567-17.788-7.567-8.216 0-15.11 3.231-17.914 7.713v11.216c2.804-4.523 9.698-7.791 17.914-7.791 8.032 0 14.943 3.208 17.788 7.748 2.858-4.54 9.758-7.748 17.928-7.748 8.044 0 15.014 3.268 17.809 7.791h.07c2.832-4.523 9.769-7.791 17.844-7.791 8.105 0 15.067 3.208 17.901 7.748 2.831-4.54 9.78-7.748 17.927-7.748 8.092 0 14.984 3.268 17.865 7.791h-.05c2.828-4.523 9.737-7.791 17.883-7.791 8.055 0 15.057 3.208 17.919 7.748 2.805-4.54 9.695-7.748 17.82-7.748 8.109 0 15.027 3.268 17.834 7.791h.083c2.855-4.523 9.748-7.791 17.886-7.791 8.111 0 15.001 3.208 17.862 7.748 2.864-4.54 9.739-7.748 17.891-7.748 8.125 0 15.056 3.268 17.918 7.791 2.751-4.523 9.737-7.791 17.891-7.791 8.067 0 15.026 3.208 17.833 7.748z" style="fill:#00adee;fill-opacity:1;fill-rule:nonzero;stroke:none" transform="translate(702.429 448.64)"/><path d="M0 0c-2.807-4.5-9.766-7.66-17.833-7.66-8.154 0-15.14 3.187-17.891 7.66-2.862-4.473-9.793-7.66-17.918-7.66-8.152 0-15.027 3.16-17.891 7.66-2.861-4.5-9.751-7.66-17.862-7.66-8.138 0-15.031 3.187-17.886 7.66h-.083c-2.807-4.473-9.725-7.66-17.834-7.66-8.125 0-15.015 3.16-17.82 7.66-2.862-4.5-9.864-7.66-17.919-7.66-8.146 0-15.055 3.187-17.883 7.66h.05c-2.881-4.473-9.773-7.66-17.865-7.66-8.147 0-15.096 3.16-17.927 7.66-2.834-4.5-9.796-7.66-17.901-7.66-8.075 0-15.012 3.187-17.844 7.66h-.07c-2.795-4.473-9.765-7.66-17.809-7.66-8.17 0-15.07 3.16-17.928 7.66v-.098c-2.845-4.55-9.756-7.562-17.788-7.562-8.216 0-15.11 3.187-17.914 7.66v11.207c2.804-4.492 9.698-7.738 17.914-7.738 8.032 0 14.943 3.147 17.788 7.725 2.858-4.578 9.758-7.725 17.928-7.725 8.044 0 15.014 3.246 17.809 7.738h.07c2.832-4.492 9.769-7.738 17.844-7.738 8.105 0 15.067 3.147 17.901 7.725 2.831-4.578 9.78-7.725 17.927-7.725 8.092 0 14.984 3.246 17.865 7.738h-.05c2.828-4.492 9.737-7.738 17.883-7.738 8.055 0 15.057 3.147 17.919 7.725 2.805-4.578 9.695-7.725 17.82-7.725 8.109 0 15.027 3.246 17.834 7.738h.083c2.855-4.492 9.748-7.738 17.886-7.738 8.111 0 15.001 3.147 17.862 7.725 2.864-4.578 9.739-7.725 17.891-7.725 8.125 0 15.056 3.246 17.918 7.738 2.751-4.492 9.737-7.738 17.891-7.738 8.067 0 15.026 3.147 17.833 7.725z" style="fill:#00adee;fill-opacity:1;fill-rule:nonzero;stroke:none" transform="translate(702.429 468.832)"/><path d="M0 0s15.771-24.677 7.477-17.7C1.423-12.49-6.862-.466-12.867 9.416L-45.23-3.156s-18.586-22.618-14.463-12.625c2.956 7.213 12.14 18.939 19.699 27.789l-22.165 26.765s-27.265 10.629-16.456 9.833c7.072-.55 21.812-5.847 32.448-10.151l18.473 29.399s1.725 29.247 4.315 18.727c1.783-7.225 1.218-22.849.338-34.405l33.865-8.242s28.334 7.435 19.077 1.747c-6.483-4.066-20.579-8.306-31.867-10.997Z" style="fill:#000;fill-opacity:1;fill-rule:nonzero;stroke:none" transform="translate(565.164 336.126)"/><path d="M0 0s15.771-24.677 7.477-17.7C1.423-12.49-6.862-.466-12.867 9.416L-45.23-3.156s-18.586-22.618-14.463-12.625c2.956 7.213 12.14 18.939 19.699 27.789l-22.165 26.765s-27.265 10.629-16.456 9.833c7.072-.55 21.812-5.847 32.448-10.151l18.473 29.399s1.725 29.247 4.315 18.727c1.783-7.225 1.218-22.849.338-34.405l33.865-8.242s28.334 7.435 19.077 1.747c-6.483-4.066-20.579-8.306-31.867-10.997Z" style="fill:none;stroke:#000;stroke-width:.186;stroke-linecap:butt;stroke-linejoin:miter;stroke-miterlimit:4;stroke-dasharray:none;stroke-opacity:1" transform="translate(565.164 336.126)"/><path d="M0 0c.198-.463.558-.821.955-.821.389 0 .685.358.94.821.355.836.691 2.775.565 6.882 0 0 .21 13.812 10.522-1.003C41.859-35.786.719-36.032.719-36.032h.389s-41.154.246-12.223 41.911C-.804 20.694-.665 6.882-.665 6.882-.701 2.775-.455.836 0-.056Z" style="fill:#fff;fill-opacity:1;fill-rule:nonzero;stroke:none" transform="translate(539.37 342.655)"/><path d="M0 0c.198-.463.558-.821.955-.821.389 0 .685.358.94.821.355.836.691 2.775.565 6.882 0 0 .21 13.812 10.522-1.003C41.859-35.786.719-36.032.719-36.032h.389s-41.154.246-12.223 41.911C-.804 20.694-.665 6.882-.665 6.882-.701 2.775-.455.836 0-.056Z" style="fill:none;stroke:#000;stroke-width:.186;stroke-linecap:butt;stroke-linejoin:miter;stroke-miterlimit:4;stroke-dasharray:none;stroke-opacity:1" transform="translate(539.37 342.655)"/><path d="M0 0c-.372-.344-.539-.737-.389-1.079.102-.381.475-.669.99-.68l-.025.011c.962-.085 2.862.098 6.749 1.488 0 0 13.217 4.064 2.33-10.244-30.738-40.358-43.596-1.382-43.596-1.382v-.28s-12.387 39.2 36.131 24.569C19.516 7.233 6.353 2.75 6.353 2.75 2.357 1.571.673.708 0 0" style="fill:#fff;fill-opacity:1;fill-rule:nonzero;stroke:none" transform="translate(518.21 359.343)"/><path d="M0 0c-.372-.344-.539-.737-.389-1.079.102-.381.475-.669.99-.68l-.025.011c.962-.085 2.862.098 6.749 1.488 0 0 13.217 4.064 2.33-10.244-30.738-40.358-43.596-1.382-43.596-1.382v-.28s-12.387 39.2 36.131 24.569C19.516 7.233 6.353 2.75 6.353 2.75 2.357 1.571.673.708 0 0Z" style="fill:none;stroke:#000;stroke-width:.186;stroke-linecap:butt;stroke-linejoin:miter;stroke-miterlimit:4;stroke-dasharray:none;stroke-opacity:1" transform="translate(518.21 359.343)"/><path d="M0 0c-.414.235-.863.235-1.193 0-.305-.224-.408-.639-.305-1.123v.029c.197-.958.99-2.747 3.592-5.972 0 0 7.907-11.29-9.13-5.355-47.828 16.694-14.748 41.045-14.748 41.045l-.235-.117s33.334 23.925 34.51-26.785c.397-18.07-7.924-6.938-7.924-6.938C2.263-1.859.852-.488 0 0" style="fill:#fff;fill-opacity:1;fill-rule:nonzero;stroke:none" transform="translate(527.437 384.763)"/><path d="M0 0c-.414.235-.863.235-1.193 0-.305-.224-.408-.639-.305-1.123v.029c.197-.958.99-2.747 3.592-5.972 0 0 7.907-11.29-9.13-5.355-47.828 16.694-14.748 41.045-14.748 41.045l-.235-.117s33.334 23.925 34.51-26.785c.397-18.07-7.924-6.938-7.924-6.938C2.263-1.859.852-.488 0 0Z" style="fill:none;stroke:#000;stroke-width:.186;stroke-linecap:butt;stroke-linejoin:miter;stroke-miterlimit:4;stroke-dasharray:none;stroke-opacity:1" transform="translate(527.437 384.763)"/><path d="M0 0c.107.456 0 .941-.301 1.163-.295.152-.786.11-1.228-.125-.807-.4-2.231-1.733-4.582-5.174 0 0-8.267-11.057-7.902 6.959 1.164 50.69 34.549 26.755 34.549 26.755l-.239.168S53.392 5.395 5.466-11.312c-16.982-5.951-9.024 5.328-9.024 5.328C-1.045-2.705-.148-.961 0 0" style="fill:#fff;fill-opacity:1;fill-rule:nonzero;stroke:none" transform="translate(554.576 383.725)"/><path d="M0 0c.107.456 0 .941-.301 1.163-.295.152-.786.11-1.228-.125-.807-.4-2.231-1.733-4.582-5.174 0 0-8.267-11.057-7.902 6.959 1.164 50.69 34.549 26.755 34.549 26.755l-.239.168S53.392 5.395 5.466-11.312c-16.982-5.951-9.024 5.328-9.024 5.328C-1.045-2.705-.148-.961 0 0Z" style="fill:none;stroke:#000;stroke-width:.186;stroke-linecap:butt;stroke-linejoin:miter;stroke-miterlimit:4;stroke-dasharray:none;stroke-opacity:1" transform="translate(554.576 383.725)"/><path d="M0 0c.464.014.899.288 1.011.67.175.341-.07.734-.449 1.078-.695.708-2.399 1.654-6.363 2.75 0 0-13.102 4.483 4.145 9.654 48.617 14.63 36.16-24.57 36.16-24.57l.07.28S21.665-49.114-9.051-8.756C-20.008 5.552-6.796 1.488-6.796 1.488-2.869.098-.918-.085 0-.011Z" style="fill:#fff;fill-opacity:1;fill-rule:nonzero;stroke:none" transform="translate(561.963 357.595)"/><path d="M0 0c.464.014.899.288 1.011.67.175.341-.07.734-.449 1.078-.695.708-2.399 1.654-6.363 2.75 0 0-13.102 4.483 4.145 9.654 48.617 14.63 36.16-24.57 36.16-24.57l.07.28S21.665-49.114-9.051-8.756C-20.008 5.552-6.796 1.488-6.796 1.488-2.869.098-.918-.085 0-.011Z" style="fill:none;stroke:#000;stroke-width:.186;stroke-linecap:butt;stroke-linejoin:miter;stroke-miterlimit:4;stroke-dasharray:none;stroke-opacity:1" transform="translate(561.963 357.595)"/><path d="M0 0s-3.093-2.157-5.769-2.992c-2.677-.803-3.835-2.82-4.178-3.301 0 0-1.512-3.526-2.494-2.08-1.045 1.4 1.037 4.048 1.037 4.048.309.53 1.54 2.497 4.137 3.389 2.675.789 5.763 2.901 5.763 2.901s3.016 2.364 4.612 4.592c1.663 2.297 3.87 2.799 4.493 2.9 0 0 3.126 1.12 4.232-.251 1.016-1.433-2.768-1.723-2.768-1.723-.642-.234-2.872-.713-4.494-2.912C3.013 2.277 0 0 0 0" style="fill:#000;fill-opacity:1;fill-rule:nonzero;stroke:none" transform="translate(512.103 404.309)"/><path d="M0 0s-2.935 2.305-4.52 4.582c-1.614 2.24-3.901 2.732-4.419 2.963 0 0-3.859.28-2.82 1.695 1.051 1.389 4.223.231 4.223.231.632-.088 2.87-.582 4.456-2.881 1.611-2.233 4.593-4.636 4.593-4.636S4.684-.136 7.301-.942c2.617-.833 3.797-2.791 4.091-3.275 0 0 2.105-2.733 1.109-4.159-1.025-1.446-2.484 2.093-2.484 2.093-.393.542-1.528 2.509-4.223 3.316C3.205-2.112 0 0 0 0" style="fill:#000;fill-opacity:1;fill-rule:nonzero;stroke:none" transform="translate(568.35 404.34)"/><path d="M0 0s1.334 3.522 2.948 5.795c1.739 2.163 1.433 4.514 1.388 5.079 0 0-.843 3.759.814 3.177 1.628-.554 1.573-3.869 1.573-3.869 0-.638.258-2.957-1.384-5.197C3.628 2.784 2.33-.798 2.33-.798s-.967-3.647-.912-6.366c0-2.775-1.571-4.507-1.923-5.038 0 0-1.964-2.743-3.578-2.262-1.726.554 1.235 3.045 1.235 3.045.337.494 1.895 2.28 1.811 4.978C-1.037-3.667 0 0 0 0" style="fill:#000;fill-opacity:1;fill-rule:nonzero;stroke:none" transform="translate(585.845 350.815)"/><path d="M0 0s3.819-.155 6.402-1.053c2.638-.863 4.713.059 5.324.287 0 0 3.221 1.982 3.194.197 0-1.663-3.194-2.708-3.194-2.708-.611-.193-2.686-1.179-5.324-.249C3.819-2.639 0-2.456 0-2.456s-3.852-.183-6.437-1.07c-2.627-.93-4.687.056-5.347.249 0 0-3.226 1.045-3.226 2.708-.017 1.785 3.226-.197 3.226-.197.66-.228 2.72-1.15 5.347-.287C-3.852-.155 0 0 0 0" style="fill:#000;fill-opacity:1;fill-rule:nonzero;stroke:none" transform="translate(540.324 317.816)"/><path d="M0 0s1.085-3.667 1.043-6.441c0-2.792 1.479-4.484 1.893-4.978 0 0 2.891-2.491 1.252-3.045-1.666-.481-3.634 2.262-3.634 2.262-.392.531-1.883 2.263-1.883 5.038.013 2.719-.989 6.366-.989 6.366s-1.291 3.582-2.985 5.783c-1.618 2.24-1.39 4.559-1.39 5.197 0 0 0 3.315 1.614 3.869 1.597.582.732-3.177.732-3.177-.052-.565-.262-2.916 1.445-5.079C-1.252 3.522 0 0 0 0" style="fill:#000;fill-opacity:1;fill-rule:nonzero;stroke:none" transform="translate(494.873 350.815)"/><path d="M0 0c-5.075 0-9.225-4.167-9.225-9.279 0-5.23 4.15-9.292 9.225-9.292 5.177 0 9.325 4.062 9.325 9.292C9.325-4.167 5.177 0 0 0" style="fill:#ffc10e;fill-opacity:1;fill-rule:nonzero;stroke:none" transform="translate(540.089 374.976)"/><path d="M0 0c-5.075 0-9.225-4.167-9.225-9.279 0-5.23 4.15-9.292 9.225-9.292 5.177 0 9.325 4.062 9.325 9.292C9.325-4.167 5.177 0 0 0Z" style="fill:none;stroke:#ffca05;stroke-width:.074;stroke-linecap:butt;stroke-linejoin:miter;stroke-miterlimit:4;stroke-dasharray:none;stroke-opacity:1" transform="translate(540.089 374.976)"/><path d="m0 0 1.237-25.043 21.157 13.736 6.665-10.824L4.111-36.597v-5.196s29.031-16.315-6.355-15.679v-.219c-12.395-10.309-24.138-.083-24.138-.083-35.388-.621-6.384 15.609-6.384 15.609v5.259L-54.83-19.771l5.236 11.346 19.733-16.884 1.139 24.986z" style="fill:#000;fill-opacity:1;fill-rule:nonzero;stroke:none" transform="translate(557.642 543.048)"/><path d="M0 0c20.497-23.471 35.567 1.228 35.567 1.228C61.47 7.535 46.091 25.867 46.091 25.867c26.997 17.722-4.728 31.603-4.728 31.603-.211 23.552-20.248 21.797-20.248 21.797-20.917 18.291-40.913-2.023-40.913-2.023-31.392 26.13-55.196-4.01-55.196-4.01s-20.054 13.891-29.059-7.879c0 0-31.925.884-20.001-31.342 0 0-24.675-24.686 7.518-36.851 0 0 17.135-31.697 40.666-1.516 0 0 14.46-.849 12.178 19.508 0 0 18.34-7.619 35.686.849 0 0 5.543-12.477 17.484-5.496 0 0-1.867-8.034 9.667-9.658z" style="fill:#0db04b;fill-opacity:1;fill-rule:nonzero;stroke:none" transform="translate(584.02 521.58)"/><path d="M0 0c20.497-23.471 35.567 1.228 35.567 1.228C61.47 7.535 46.091 25.867 46.091 25.867c26.997 17.722-4.728 31.603-4.728 31.603-.211 23.552-20.248 21.797-20.248 21.797-20.917 18.291-40.913-2.023-40.913-2.023-31.392 26.13-55.196-4.01-55.196-4.01s-20.054 13.891-29.059-7.879c0 0-31.925.884-20.001-31.342 0 0-24.675-24.686 7.518-36.851 0 0 17.135-31.697 40.666-1.516 0 0 14.46-.849 12.178 19.508 0 0 18.34-7.619 35.686.849 0 0 5.543-12.477 17.484-5.496 0 0-1.867-8.034 9.667-9.658z" style="fill:none;stroke:#000;stroke-width:.763;stroke-linecap:butt;stroke-linejoin:miter;stroke-miterlimit:4;stroke-dasharray:none;stroke-opacity:1" transform="translate(584.02 521.58)"/><path d="m0 0 1.522-1.305c-5.255-9.516-5.988-16.245-2.34-19.398 2.653-2.312 6.15-1.372 9.335 2.238 1.361 1.568 2.251 3.338 2.251 4.732 0 1.995-1.47 4.202-3.125 7.602C4.483.316 4.623 5.482 10.25 11.986c5.619 6.427 12.985 8.581 17.654 4.554 2.027-1.807 3.091-4.347 3.273-7.645l3.646 1.12 1.268-1.12L24.864-4.743 23.52-3.442c4.399 9.114 5.357 14.579 2.038 17.354-2.525 2.294-5.824 1.502-8.742-1.86-3.68-4.215-1.554-6.668 1.249-11.869 1.442-2.902 2.606-5.136 2.014-8.581-.554-3.048-2.4-6.599-5.347-10.054-6.131-6.97-13.108-9.046-18.065-4.76-2.438 2.195-3.575 4.772-3.414 8.738l-4.447-1.484-1.277 1.141z" style="fill:#ffc10e;fill-opacity:1;fill-rule:nonzero;stroke:none" transform="translate(309.476 319.482)"/><path d="M0 0c3.979-2.733 9.917 1.806 18.175 13.592 8.254 11.896 10.435 18.95 6.444 21.803-3.937 2.704-9.817-1.8-18.087-13.692C-1.709 9.882-4.006 2.785 0 0m13.597 38.656c5.118 2.425 9.366 2.315 13.162-.266 3.832-2.701 5.441-6.546 4.885-12.445-.442-5.172-2.858-11.078-6.938-16.954C20.627 3.126 16.659-.638 11.602-3.02c-5.414-2.505-10.038-2.533-13.639 0C-5.745-.456-7.276 3.54-6.77 9.572c.481 5.733 2.62 10.809 6.741 16.681 4.123 5.94 8.856 10.183 13.626 12.403" style="fill:#ffc10e;fill-opacity:1;fill-rule:nonzero;stroke:none" transform="translate(337.99 276.15)"/><path d="m0 0-1.758.934c-1.557.817-2.196.196-3.441-2.151l-11.449-21.419c-4.122-7.692-4.302-12.267.14-14.571 1.995-1.039 4.089-.933 5.925 0 2.939 1.627 4.906 4.967 7.738 10.267l8.286 15.466C7.8-6.973 8.299-4.405 5.272-2.84c-.025.041-.19.107-.218.122L6.661.379l9.727-5.213-1.639-3.026c-3.051 1.093-4.633-.476-7.004-4.877L-.776-28.663c-2.465-4.634-4.394-8.089-7.255-10.541-4.232-3.581-8.393-4.052-12.919-1.529-6.962 3.652-7.853 10.352-2.924 19.77l12.375 23.075c1.246 2.403 1.347 3.279-.154 4.091l-1.761.946 1.593 3.091L1.627 3.07z" style="fill:#ffc10e;fill-opacity:1;fill-rule:nonzero;stroke:none" transform="translate(392.987 291.756)"/><path d="M0 0c-1.375.499-2.056-.083-3.025-2.459L-15.736-34.63c-1.035-2.444-1.035-3.329.559-3.995l1.903-.766-1.305-3.266-14.116 5.592 1.287 3.316 1.871-.751c1.602-.648 2.118 0 3.146 2.505L-9.592.126c.921 2.424.921 3.258-.396 3.795-2.915 1.235-7.282-2.84-11.502-11.47l-1.929.666 7.285 16.638L8.369.053 2.234-17.01l-1.803.662C3.287-7.146 2.915-1.151 0 0" style="fill:#ffc10e;fill-opacity:1;fill-rule:nonzero;stroke:none" transform="translate(430.353 275.097)"/><path d="M0 0c1.614-.499 2.102.224 2.794 2.806l4.092 15.178-10.226 2.75-4.036-15.143c-.724-2.565-.639-3.398.999-3.855l1.975-.579-.965-3.356-14.676 3.935.93 3.399 1.96-.466c1.644-.491 2.132.2 2.81 2.78l8.879 32.916c.736 2.595.694 3.538-.998 4.008l-1.949.493.95 3.357L7.18 44.226l-.9-3.349-1.933.544c-1.648.488-2.137-.31-2.902-2.901l-3.643-13.667 10.263-2.747 3.637 13.68c.734 2.551.677 3.498-.999 3.953l-1.916.523.874 3.348 14.687-4.028-.866-3.326-2.011.552c-1.627.423-2.107-.34-2.829-2.922L9.788.957c-.724-2.603-.65-3.437 1.034-3.851l1.898-.604-.867-3.328-14.785 3.932.996 3.437z" style="fill:#ffc10e;fill-opacity:1;fill-rule:nonzero;stroke:none" transform="translate(451.424 224.991)"/><path d="m0 0 8.087-1.235-1.583 16.603Zm5.796-16.274 2.012-.126c.846-.055 1.184.397 1.345 1.358.042.498.042 1.094 0 1.9l-.701 7.677-10.12 1.469-1.446-3.371c-.457-1.073-.829-2.392-.912-3.272-.474-2.987.615-4.105 3.53-4.762l-.492-3.398-11.246 1.662.508 3.413c2.536.293 4.22 3.01 6.37 8.09L9.252 29.08l2.96-.456 4.7-43.694c.225-2.067.751-2.886 2.221-3.16l-.513-3.484-13.294 1.968z" style="fill:#ffc10e;fill-opacity:1;fill-rule:nonzero;stroke:none" transform="translate(484.468 233.431)"/><path d="M0 0c-.193-6.188.594-8.464 4.332-8.671l-.083-3.54-11.507.344.017 3.554c3.592.139 4.309 2.403 4.48 8.408l.709 28.929c.084 2.543-.186 3.565-1.919 3.665l-2.094.057.144 3.466 12.898-.334 5.592-28.912 6.539 28.639 12.722-.309-.126-3.511-2.005.122c-1.672.031-2.023-.817-2.078-3.465L26.808-5.69c-.085-2.679.208-3.529 1.893-3.529l2.056-.042-.092-3.517-14.918.343.125 3.497 1.73-.014c1.684-.042 2.07.764 2.158 3.403l.911 36.029-9.807-42.814-1.961.012L.719 30.691z" style="fill:#ffc10e;fill-opacity:1;fill-rule:nonzero;stroke:none" transform="translate(519.807 222.58)"/><path d="M0 0c.465-.107 1.074-.107 1.952 0 5.421.49 7.373 2.886 6.594 10.827-.715 7.725-2.778 10.033-7.472 9.601-2.561-.266-2.953-.789-2.681-4.468Zm3.888-20.612 2.54.231.351-3.47-15.773-1.593-.336 3.54 2.161.207c1.726.193 1.895.972 1.67 3.662l-3.283 33.911c-.212 2.658-.591 3.48-2.309 3.352l-2.126-.227-.378 3.465 17.483 1.692c7.295.723 11.45-3.624 12.297-12.53C17.134 2.15 13.19-2.583 4.294-3.464c-1.207-.153-2.483-.206-4.013-.28l1.362-13.638c.267-2.751.659-3.357 2.245-3.23" style="fill:#ffc10e;fill-opacity:1;fill-rule:nonzero;stroke:none" transform="translate(570.144 235.813)"/><path d="M0 0c-1.404-.275-1.573-1.092-1.026-3.632l6.962-33.941c.561-2.606 1.008-3.287 2.706-2.936l1.938.372.674-3.484-14.832-3.038-.73 3.413 1.965.446c1.698.305 1.81 1.222 1.317 3.822L-8.055-5.101c-.533 2.508-1.005 3.259-2.408 2.964-3.117-.65-4.518-6.46-3.327-16.02l-1.929-.355-3.038 17.821L6.989 4.69l4.347-17.648-1.906-.373C6.708-4.147 3.157.711 0 0" style="fill:#ffc10e;fill-opacity:1;fill-rule:nonzero;stroke:none" transform="translate(609.542 262.606)"/><path d="M0 0c4.59 1.46 4.59 8.939.113 22.619-4.492 13.772-8.784 19.813-13.47 18.272-4.518-1.47-4.518-8.911-.056-22.643C-8.895 4.525-4.574-1.554 0 0m-22.702 34.149c1.178 5.465 3.831 8.907 8.221 10.269 4.45 1.497 8.547.399 12.894-3.54 3.89-3.512 7.06-8.992 9.303-15.762 2.261-6.783 2.766-12.253 1.672-17.731C8.181 1.543 5.387-2.137 1.122-3.508-3.185-4.911-7.226-3.705-11.716.361c-4.252 3.774-7.001 8.534-9.218 15.379-2.246 6.855-2.821 13.215-1.768 18.409" style="fill:#ffc10e;fill-opacity:1;fill-rule:nonzero;stroke:none" transform="translate(651.046 230.126)"/><path d="M0 0c3.059 1.998 2.665 4.249.21 9.546l-12.194 26.263-1.249.901c-1.263.947-2.188 1.571-3.648.849l-.448-.209-1.502 3.113 9.177 4.269 26.449-20.755-7.591 16.315c-2.721 5.854-4.278 7.342-7.899 5.68l-1.446 3.23 10.608 4.928 1.474-3.167c-2.976-1.678-2.737-3.859-.141-9.479L27.318 8.141l-2.287-1.09-32.722 25.808L2.552 10.627c2.582-5.599 4.365-7.228 7.832-5.796l1.512-3.143L1.474-3.177Z" style="fill:#ffc10e;fill-opacity:1;fill-rule:nonzero;stroke:none" transform="translate(675.223 239.576)"/><path d="m0 0-1.6-1.147c-7.044 7.618-11.323 8.948-16.346 5.494-1.921-1.32-2.287-1.871-.393-4.677l8.013-11.723c.166.085.377.183.505.316 2.959 2.01 2.665 5.009-.548 10.863L-8.756.252l12.474-18.24-1.655-1.157c-4.265 5.209-6.918 6.412-9.835 4.467a5 5 0 0 0-.451-.332L.8-28.259c1.53-2.22 2.175-2.705 3.607-1.737l2.369 1.628 1.979-2.915-13.246-9.054-1.962 2.919 1.669 1.165c1.474.916 1.205 1.792-.252 3.981L-24.288-4.078c-1.488 2.226-2.259 2.734-3.635 1.753l-1.726-1.14-1.964 2.844 21.568 14.743z" style="fill:#ffc10e;fill-opacity:1;fill-rule:nonzero;stroke:none" transform="translate(735.53 304.91)"/><path d="M0 0c-2.625-2.235-5.965-2.944-9.85-2.207-5.979 1.175-12.11 5.329-17.765 11.957-4.404 5.108-7.253 10.518-8.419 15.719-1.332 5.816-.11 10.058 3.438 13.1 2.217 1.914 4.772 2.568 8.111 1.998l-.589 4.038 1.29 1.115 13.062-14.335-1.403-1.569c-8.474 7.24-14.522 9.405-17.862 6.56-4.026-3.498-1.333-10.019 8.196-21.117C-12.222 4.021-6.385.484-1.895 4.31 1.472 7.225.757 12.943-4.239 21.144l2.428.484C4.601 12.014 5.178 4.409 0 0" style="fill:#ffc10e;fill-opacity:1;fill-rule:nonzero;stroke:none" transform="translate(774.271 295.092)"/><path d="m0 0 7.62-15.75-21.398-5.855 6.685-13.305 21.441 5.858 6.699-13.323-21.468-5.824L6.202-61.44l21.503 5.791 6.77-13.326-21.629-5.753 6.727-13.256 21.567 5.721 9.613-18.468c4.04 1.146 8.049 2.525 11.863 4.12L12.449 3.553C8.811 2.009 4.676.803 0 0" style="fill:#fff;fill-opacity:1;fill-rule:nonzero;stroke:none" transform="translate(260.804 699.766)"/><path d="M0 0c-1.498 7.096 14.65 15.586 27.607 26.018l-17.15 34.346c-6.78-3.705-14.315-9.506-21.84-17.968-2.01-2.07-3.784-4.251-5.493-6.423z" style="fill:#fff;fill-opacity:1;fill-rule:nonzero;stroke:none" transform="translate(319.69 694.223)"/><path d="M0 0c-4.177 5.672-14.876 6.437-28.017-.719l17.151-34.346C1.044-25.352 10.227-13.861 0 0" style="fill:#d71921;fill-opacity:1;fill-rule:nonzero;stroke:none" transform="translate(358.164 755.306)"/><path d="m0 0 50.167-100.164c14.066 5.838 25.665 14.081 29.571 20.171L58.144-34.037l-10.71 22.823c-.568.722-.849 1.371-.997 2.118L29.561 26.877C21.118 16.371 13.815 5.908 0 0" style="fill:#d71921;fill-opacity:1;fill-rule:nonzero;stroke:none" transform="translate(273.253 703.319)"/><path d="M0 0c-6.77-1.165-14.624-1.459-24.243-.667l10.465-20.938L7.62-15.75Z" style="fill:#d71921;fill-opacity:1;fill-rule:nonzero;stroke:none" transform="translate(260.804 699.766)"/><path d="m0 0-21.44-5.858 6.671-13.289L6.7-13.323z" style="fill:#d71921;fill-opacity:1;fill-rule:nonzero;stroke:none" transform="translate(275.151 670.713)"/><path d="m0 0-21.503-5.792 6.643-13.287 21.63 5.752z" style="fill:#d71921;fill-opacity:1;fill-rule:nonzero;stroke:none" transform="translate(288.51 644.117)"/><path d="m0 0 7.83-15.792c7.549-.414 15.55.838 23.349 3.045L21.567 5.722Z" style="fill:#d71921;fill-opacity:1;fill-rule:nonzero;stroke:none" transform="translate(280.377 611.781)"/><path d="m0 0 9.509-19.03c6.784 5.69 14.01 12.471 21.714 18.929L13.378 31.778C19.811 19.375 11.042 8.956 0 0" style="fill:#fff;fill-opacity:1;fill-rule:nonzero;stroke:none" transform="translate(347.007 719.987)"/><path d="M0 0c.484-.723 1.204-1.362 2.182-2.011 9.597-6.788 20.865.137 33.648 10.864l-9.509 19.03C12.124 16.441-5.855 7.492 0 0" style="fill:#d71921;fill-opacity:1;fill-rule:nonzero;stroke:none" transform="translate(320.686 692.105)"/><path d="M0 0c-10.793 13.863 59.882 32.756 37.478 63.201-6.331 8.643-27.652 6.008-49.857-18.687C-29.557 25.562-37.134 3.027-84.125 6.995l51.646-103.11c26.042-1.359 57.872 16.472 64.783 27.402z" style="fill:none;stroke:#000;stroke-width:.609;stroke-linecap:butt;stroke-linejoin:miter;stroke-miterlimit:4;stroke-dasharray:none;stroke-opacity:1" transform="translate(320.686 692.105)"/><path d="M0 0c-22.106-18.584-40.66-40.133-55.361-29.792-.979.648-1.698 1.287-2.183 2.011-10.337 13.308 54.432 31.3 39.699 59.661z" style="fill:none;stroke:#000;stroke-width:.609;stroke-linecap:butt;stroke-linejoin:miter;stroke-miterlimit:4;stroke-dasharray:none;stroke-opacity:1" transform="translate(378.23 719.886)"/><path d="m0 0-7.647-15.75 21.329-5.855-6.61-13.305-21.483 5.858-6.664-13.323 21.47-5.824-6.609-13.241-21.512 5.791-6.735-13.326 21.565-5.753-6.692-13.256-21.579 5.721-9.598-18.468c-4.042 1.146-8.068 2.525-11.884 4.12L-12.458 3.553C-8.797 2.009-4.77.803 0 0" style="fill:#fff;fill-opacity:1;fill-rule:nonzero;stroke:none" transform="translate(815.62 699.766)"/><path d="M0 0c1.487 7.096-14.649 15.586-27.614 26.018l17.174 34.346c6.777-3.705 14.284-9.506 21.917-17.968 1.91-2.07 3.661-4.251 5.416-6.423z" style="fill:#fff;fill-opacity:1;fill-rule:nonzero;stroke:none" transform="translate(756.69 694.223)"/><path d="M0 0c4.18 5.672 14.888 6.437 28.049-.719L10.875-35.065C-1.025-25.352-10.201-13.861 0 0" style="fill:#d71921;fill-opacity:1;fill-rule:nonzero;stroke:none" transform="translate(718.201 755.306)"/><path d="m0 0-50.19-100.164c-14.019 5.838-25.622 14.081-29.58 20.171l21.595 45.956 10.72 22.823c.576.722.856 1.371.983 2.118l16.893 35.973C-21.076 16.371-13.848 5.908 0 0" style="fill:#d71921;fill-opacity:1;fill-rule:nonzero;stroke:none" transform="translate(803.162 703.319)"/><path d="M0 0c6.709-1.165 14.635-1.459 24.248-.667L13.682-21.605-7.647-15.75Z" style="fill:#d71921;fill-opacity:1;fill-rule:nonzero;stroke:none" transform="translate(815.62 699.766)"/><path d="m0 0 21.483-5.858-6.677-13.289-21.47 5.824z" style="fill:#d71921;fill-opacity:1;fill-rule:nonzero;stroke:none" transform="translate(801.21 670.713)"/><path d="m0 0 21.511-5.792-6.681-13.287-21.565 5.752Z" style="fill:#d71921;fill-opacity:1;fill-rule:nonzero;stroke:none" transform="translate(787.894 644.117)"/><path d="m0 0-7.871-15.792c-7.535-.414-15.574.838-23.307 3.045l9.598 18.469z" style="fill:#d71921;fill-opacity:1;fill-rule:nonzero;stroke:none" transform="translate(796.033 611.781)"/><path d="m0 0-9.528-19.03C-16.263-13.34-23.546-6.559-31.164-.101l17.791 31.879C-19.814 19.375-11 8.956 0 0" style="fill:#fff;fill-opacity:1;fill-rule:nonzero;stroke:none" transform="translate(729.37 719.987)"/><path d="M0 0c-.534-.723-1.278-1.362-2.146-2.011-9.669-6.788-20.867.137-33.72 10.864l9.529 19.03C-12.138 16.441 5.794 7.492 0 0" style="fill:#d71921;fill-opacity:1;fill-rule:nonzero;stroke:none" transform="translate(755.707 692.105)"/><path d="M0 0c10.762 13.863-59.859 32.756-37.506 63.201 6.383 8.643 27.698 6.008 49.965-18.687C29.564 25.562 37.141 3.027 84.161 6.995L32.455-96.115C6.454-97.474-25.384-79.643-32.358-68.713z" style="fill:none;stroke:#000;stroke-width:.609;stroke-linecap:butt;stroke-linejoin:miter;stroke-miterlimit:4;stroke-dasharray:none;stroke-opacity:1" transform="translate(755.707 692.105)"/><path d="M0 0c22.072-18.584 40.621-40.133 55.355-29.792.868.648 1.612 1.287 2.146 2.011 10.356 13.308-54.427 31.3-39.71 59.661z" style="fill:none;stroke:#000;stroke-width:.609;stroke-linecap:butt;stroke-linejoin:miter;stroke-miterlimit:4;stroke-dasharray:none;stroke-opacity:1" transform="translate(698.206 719.886)"/><path d="M0 0c-4.654-3.708-12.665-9.099-21.59-14.539v-71.308c10.067 6.11 20.328 12.67 30.009 17.9V5.982C5.079 3.775 2.146 1.719 0 0" style="fill:#fff;fill-opacity:1;fill-rule:nonzero;stroke:none" transform="translate(602.75 723.324)"/><path d="M0 0c-.422 0-.828-.099-1.263-.099l-10.188-77.06c.407.014.828.115 1.264.115 8.349 0 16.095-2.806 23.391-6.927l22.828 70.019C24.823-5.964 12.824 0 0 0" style="fill:#fff;fill-opacity:1;fill-rule:nonzero;stroke:none" transform="translate(650.822 742.692)"/><path d="M0 0c-9.557-6.689-20.739 0-33.381 10.587l-29.72-62.019c12.081-10.453 22.817-19.079 32.89-15.27L2.146 2.011C1.612 1.288.868.649 0 0" style="fill:#fff;fill-opacity:1;fill-rule:nonzero;stroke:none" transform="translate(753.56 690.094)"/><path d="M0 0c-.979.649-1.698 1.288-2.182 2.011l32.304-68.713c10.169-3.809 20.875 4.817 32.949 15.27l-29.75 62.019C20.63 0 9.531-6.689 0 0" style="fill:#fff;fill-opacity:1;fill-rule:nonzero;stroke:none" transform="translate(322.869 690.094)"/><path d="M0 0c-2.974 0-6.945 1.018-11.422 2.625V-69.13c4.14-1.448 7.974-2.321 11.422-2.321 3.414 0 7.264.873 11.363 2.321V2.625C6.964 1.018 2.957 0 0 0" style="fill:#fff;fill-opacity:1;fill-rule:nonzero;stroke:none" transform="translate(538.205 690.259)"/><path d="M0 0c-12.795 0-24.805-5.964-35.978-13.952l22.844-70.019c7.239 4.121 14.985 6.927 23.374 6.927.377 0 .806-.101 1.198-.115L1.276-.099C.848-.099.447 0 0 0" style="fill:#fff;fill-opacity:1;fill-rule:nonzero;stroke:none" transform="translate(425.551 742.692)"/><path d="M0 0c-2.153 1.719-4.985 3.775-8.398 5.982v-73.929c9.718-5.23 19.966-11.79 29.986-17.9v71.308C12.608-9.099 4.602-3.708 0 0" style="fill:#fff;fill-opacity:1;fill-rule:nonzero;stroke:none" transform="translate(473.647 723.324)"/><path d="M0 0v-71.308C11.239-78.17 22.198-84.47 31.549-87.656v71.754C22.198-12.546 10.418-6.305 0 0" style="fill:#d71921;fill-opacity:1;fill-rule:nonzero;stroke:none" transform="translate(495.235 708.785)"/><path d="m0 0 10.162-77.06c7.973-.382 17.718-4.48 28.259-10.156v73.929C28.763-7.17 14.824-.413 0 0" style="fill:#d71921;fill-opacity:1;fill-rule:nonzero;stroke:none" transform="translate(426.827 742.593)"/><path d="m0 0 29.75-62.019c8.1 6.998 16.792 14.691 26.478 20.058l-22.845 70.02C21.289 19.451 10.149 8.485 0 0" style="fill:#d71921;fill-opacity:1;fill-rule:nonzero;stroke:none" transform="translate(356.19 700.68)"/><path d="M0 0v-71.754c9.393 3.186 20.33 9.486 31.591 16.348v71.308C21.181 9.597 9.422 3.356 0 0" style="fill:#d71921;fill-opacity:1;fill-rule:nonzero;stroke:none" transform="translate(549.568 692.883)"/><path d="M0 0v-73.929c10.524 5.676 20.26 9.774 28.203 10.156l10.187 77.06C23.572 12.874 9.669 6.117 0 0" style="fill:#d71921;fill-opacity:1;fill-rule:nonzero;stroke:none" transform="translate(611.168 729.306)"/><path d="m0 0-22.828-70.02c9.595-5.367 18.324-13.06 26.433-20.059l29.72 62.02C23.209-19.574 12.095-8.609 0 0" style="fill:#d71921;fill-opacity:1;fill-rule:nonzero;stroke:none" transform="translate(686.854 728.74)"/><path d="M0 0c25.815 0 75.294 46.84 102.429 46.84 36.062 0 60.729-50.548 82.715-42.256l32.358 68.713c-.535-.723-1.278-1.362-2.147-2.011-24.261-17.097-58.792 52.598-102.738 52.598-20.458 0-39.556-12.762-48.073-19.368C51.794 94.372 14.512 71.451 0 71.451c-14.444 0-51.852 22.921-64.559 33.065-8.51 6.606-27.614 19.368-48.095 19.368-43.866 0-78.437-69.695-102.683-52.598-.978.649-1.698 1.288-2.182 2.011l32.304-68.713c22.044-8.292 46.724 42.256 82.801 42.256C-75.313 46.84-25.765 0 0 0Z" style="fill:none;stroke:#000;stroke-width:.609;stroke-linecap:butt;stroke-linejoin:miter;stroke-miterlimit:4;stroke-dasharray:none;stroke-opacity:1" transform="translate(538.205 618.808)"/><path d="M0 0c-48.267 0-87.409 15.663-87.409 34.981 0 19.272 39.142 34.91 87.409 34.91 48.237 0 87.422-15.638 87.422-34.91C87.422 15.663 48.237 0 0 0m-.078 96.404c-59.373 0-107.349-24.475-107.349-54.765 0-30.241 47.976-54.762 107.349-54.762 59.245 0 107.342 24.521 107.342 54.762 0 30.29-48.097 54.765-107.342 54.765" style="fill:#ffc10e;fill-opacity:1;fill-rule:nonzero;stroke:none" transform="translate(539.531 784.136)"/><path d="M0 0c-48.267 0-87.409 15.663-87.409 34.981 0 19.272 39.142 34.91 87.409 34.91 48.237 0 87.422-15.638 87.422-34.91C87.422 15.663 48.237 0 0 0Zm-.078 96.404c-59.373 0-107.349-24.475-107.349-54.765 0-30.241 47.976-54.762 107.349-54.762 59.245 0 107.342 24.521 107.342 54.762 0 30.29-48.097 54.765-107.342 54.765z" style="fill:none;stroke:#000;stroke-width:1.417;stroke-linecap:butt;stroke-linejoin:miter;stroke-miterlimit:4;stroke-dasharray:none;stroke-opacity:1" transform="translate(539.531 784.136)"/><path d="M0 0c-46.494 0-84.081-37.714-84.081-84.126 0-46.493 37.587-84.125 84.081-84.125h-1.039c46.405 0 84.09 37.632 84.09 84.125C83.051-37.714 45.366 0-1.039 0Z" style="fill:#fff;fill-opacity:1;fill-rule:nonzero;stroke:none" transform="translate(539.245 843.98)"/><path d="M0 0c-46.494 0-84.081-37.714-84.081-84.126 0-46.493 37.587-84.125 84.081-84.125h-1.039c46.405 0 84.09 37.632 84.09 84.125C83.051-37.714 45.366 0-1.039 0Z" style="fill:none;stroke:#000;stroke-width:.609;stroke-linecap:butt;stroke-linejoin:miter;stroke-miterlimit:4;stroke-dasharray:none;stroke-opacity:1" transform="translate(539.245 843.98)"/><path d="m0 0-17.301 29.389-31.701 5.171-7.962-10.072c.372-.512.565-1.034.938-1.511l1.378-1.971C-44.03 6.034-28.733-5.339-10.778-10.878l3.243-.605z" style="fill:#000;fill-opacity:1;fill-rule:nonzero;stroke:none" transform="translate(525.254 690.3)"/><path d="m0 0 13.597-41.944h43.027L70.221 0 35.068 25.45Z" style="fill:#000;fill-opacity:1;fill-rule:nonzero;stroke:none" transform="translate(503.6 771.484)"/><path d="M0 0v.056l26.157 17.108v8.461A83.5 83.5 0 0 1 .036 30.01c-9.09-.071-17.848-1.621-26.114-4.385v-8.461z" style="fill:#000;fill-opacity:1;fill-rule:nonzero;stroke:none" transform="translate(538.668 813.943)"/><path d="m0 0 .926 33.366-6.784 5.279c-3.581-3.04-6.885-6.359-9.84-9.969l-.36-.354c-9.559-11.716-15.958-26.035-18.133-41.753l7.493-3.302z" style="fill:#000;fill-opacity:1;fill-rule:nonzero;stroke:none" transform="translate(490.186 784.831)"/><path d="m0 0-17.3-29.389 7.493-11.484 3.129.589C11.549-34.7 27.208-23.005 37.825-7.676l.689 1.018c.392.596.744 1.245 1.107 1.757L31.61 5.171Z" style="fill:#000;fill-opacity:1;fill-rule:nonzero;stroke:none" transform="translate(569.54 719.69)"/><path d="m0 0 26.656-16.733 7.493 3.302C31.974 2.346 25.533 16.75 15.866 28.498l-.072.017c-2.956 3.687-6.38 7.029-9.957 10.13l-6.786-5.279z" style="fill:#000;fill-opacity:1;fill-rule:nonzero;stroke:none" transform="translate(587.277 784.831)"/></g><g clip-path="url(#b)" transform="matrix(1.33333 0 0 -1.33333 -305.253 1190.377)"><path d="M0 0s-6.172 17.428 0 40.665l13.797 3.631L10.529 0Z" style="fill:#fff;fill-opacity:1;fill-rule:nonzero;stroke:none" transform="translate(452.961 739.926)"/><path d="M0 0s6.172-17.428 0-40.665l-13.797-3.631L-10.529 0Z" style="fill:#fff;fill-opacity:1;fill-rule:nonzero;stroke:none" transform="translate(624.335 780.954)"/><path d="M0 0h1.452c24.327 0 52.284 15.976 59.546 25.779L29.41 93.312c-1.09 1.452-1.453 3.267-1.453 5.083.726 5.446 7.988 10.892 17.428 17.428 11.256 7.988 23.963 17.065 25.416 27.594.726 4.357-.726 8.714-3.994 13.071-1.452 2.178-4.357 3.631-7.988 3.631-8.714.363-23.237-5.447-38.486-22.511-2.905-3.268-5.447-6.536-7.988-9.804-12.708-15.975-24.327-30.861-61.724-28.683Zm1.452-3.994h-3.994l-53.736 107.472 3.631-.363c37.761-3.268 49.016 10.892 61.724 26.868 2.542 3.268 5.446 6.535 8.351 9.803 13.797 15.613 29.773 24.327 41.754 23.963 4.72-.363 8.714-2.178 11.256-5.446 3.994-5.446 5.446-10.529 4.72-15.975-1.816-12.345-15.25-21.785-27.231-30.136-7.262-5.446-15.25-10.892-15.613-14.523 0-.726 0-1.453.726-2.179l.363-.363 32.678-69.711-.726-1.09C57.73 12.708 26.868-3.994 1.452-3.994" style="fill:#fff;fill-opacity:1;fill-rule:nonzero;stroke:none" transform="translate(289.575 598.324)"/><path d="M0 0c23.237 0 49.016 14.523 56.641 23.6L25.416 89.681c-1.453 1.815-1.816 3.994-1.453 6.535 1.09 6.536 8.714 11.982 18.154 18.881 10.893 7.624 22.874 16.338 24.327 25.778.726 3.631-.363 7.262-3.268 11.256-1.452 1.815-4.357 2.541-6.172 2.541-7.988.363-21.785-5.083-36.671-21.784-2.905-3.268-5.447-6.536-7.988-9.441C.363 108.198-11.982 92.949-47.201 93.675Zm0-9.077h-5.446l-56.641 112.918 7.988-.726c36.671-3.268 47.2 10.529 59.545 25.779 2.542 3.267 5.446 6.535 8.351 10.166 14.523 15.975 30.862 25.416 43.933 24.689 5.809-.363 10.166-2.541 13.071-6.172 4.357-5.809 6.172-11.982 5.083-18.154-2.179-13.071-15.976-23.237-27.957-31.951-5.81-3.994-14.16-10.166-14.524-13.071l.727-1.089 33.403-71.164-1.452-2.179C57.367 7.262 25.416-9.077 0-9.077" style="fill:#fff;fill-opacity:1;fill-rule:nonzero;stroke:none" transform="translate(291.027 600.866)"/><path d="M0 0c-1.815-11.982-15.612-21.785-27.231-30.136-7.262-5.446-15.249-10.892-15.613-14.523 0-.726 0-1.452.727-2.178.363-.727.726-1.09 1.815-1.453 10.892-7.624 25.053 5.083 41.391 19.607 3.268 2.904 6.536 5.809 10.166 9.077zm-33.04-55.188c-3.268 0-6.536 1.089-9.44 3.267-1.09.727-2.179 1.453-2.542 2.542-1.089 1.452-1.815 3.268-1.452 5.083.726 5.446 7.987 10.893 17.428 17.428C-14.16-16.339 2.178-4.357-5.446 10.529l3.631 1.816 18.517-33.404-1.453-1.089c-3.994-3.268-7.624-6.535-11.255-9.803C-9.803-44.296-22.148-55.188-33.04-55.188" style="fill:#fff;fill-opacity:1;fill-rule:nonzero;stroke:none" transform="translate(364.37 741.015)"/><path d="M0 0q0-.544 0 0m2.178-12.708c-4.72-10.529-16.701-18.88-26.504-25.779-5.81-3.993-14.161-10.166-14.524-13.07.363-.727.726-.727 1.09-1.453 9.44-6.535 22.874 5.446 38.486 19.244l8.714 7.624zm-33.766-51.194c-3.994 0-7.625 1.089-10.892 3.631-1.453 1.089-2.542 1.815-3.268 3.267-1.453 1.816-2.179 4.357-1.816 6.899 1.09 6.535 8.714 11.982 18.154 18.88C-11.982-18.88-.363-9.077-6.535 2.905l-1.09 2.178L.363 9.44l21.059-37.397-2.905-2.542c-3.994-3.267-7.625-6.535-11.255-9.803-14.524-12.708-26.868-23.6-38.85-23.6" style="fill:#fff;fill-opacity:1;fill-rule:nonzero;stroke:none" transform="translate(362.917 747.188)"/><path d="M0 0c7.262-9.803 36.308-26.505 61.361-25.779l49.742 98.758c-37.398-2.178-49.016 12.708-61.724 28.684-2.542 3.267-5.083 6.535-7.988 9.803-12.708 14.16-26.868 22.511-37.76 22.511H2.542c-3.631-.363-6.536-1.453-8.351-3.631-3.268-4.357-4.357-8.714-3.994-13.071 1.815-10.529 14.16-19.606 25.415-27.594 9.077-6.535 16.339-11.982 17.428-17.428.363-1.815-.363-3.631-1.452-5.083Zm59.545-29.773c-25.415 0-56.277 16.702-63.902 28.321l-.726 1.089.363 1.089 32.677 68.986c.726.726.726 1.452.726 2.178-.726 3.994-8.35 9.44-15.612 14.523-11.982 8.351-25.053 18.154-27.231 30.136-.726 5.446.726 10.892 4.72 15.975 2.178 3.268 6.172 5.084 11.255 5.447 11.982.726 27.958-8.351 41.755-23.964 2.904-3.267 5.809-6.535 8.351-9.803 12.707-16.338 23.963-30.136 61.723-26.868l3.631.363L63.539-29.773h-3.994" style="fill:#fff;fill-opacity:1;fill-rule:nonzero;stroke:none" transform="translate(725.998 624.103)"/><path d="M0 0c7.988-8.714 33.767-23.6 56.641-23.6l46.837 93.675c-35.219-1.09-47.564 14.886-59.545 29.772-2.542 3.268-5.083 6.536-7.988 9.44C23.6 122.721 10.166 131.072 0 131.072h-.726c-2.179 0-4.72-.726-6.172-2.541-2.905-3.994-3.994-7.625-3.268-11.256 1.452-9.44 13.797-18.154 24.326-25.779 9.803-6.898 17.428-12.344 18.517-18.88.364-2.541-.363-4.72-1.815-6.898zm56.641-32.677c-25.416 0-57.367 16.338-65.718 29.409l-1.452 2.179L23.6 71.164c-.363 2.904-9.077 9.077-14.523 13.071-12.345 8.714-26.142 18.517-28.32 31.951-1.09 6.172.726 11.981 5.083 18.154 2.905 3.631 7.625 6.172 13.071 6.172 12.708.726 29.409-8.351 43.933-24.689 2.904-3.268 5.809-6.899 8.35-10.167C64.265 89.318 74.069 76.61 110.74 79.515l7.987.726-56.64-112.555h-2.542c-.726-.363-1.815-.363-2.904-.363" style="fill:#fff;fill-opacity:1;fill-rule:nonzero;stroke:none" transform="translate(728.902 624.466)"/><path d="M0 0c3.631-2.905 6.898-5.809 10.166-8.714C26.505-23.237 40.665-35.945 51.557-28.32c.727.726 1.453 1.089 1.816 1.452.726.726.726 1.452.726 2.178-.726 3.994-8.351 9.441-15.612 14.524C26.868-1.815 13.071 7.988 11.255 19.969Zm44.296-35.219c-11.256 0-23.237 10.893-37.034 23.237C3.631-8.714 0-5.446-3.994-2.179l-1.452 1.09 18.517 33.403 3.631-1.815c-7.625-14.887 9.077-26.868 23.6-37.398 9.077-6.535 16.339-11.981 17.428-17.427.363-1.816-.363-3.631-1.452-5.447-.727-1.089-1.816-1.815-2.542-2.541-2.905-1.816-6.172-2.905-9.44-2.905" style="fill:#fff;fill-opacity:1;fill-rule:nonzero;stroke:none" transform="translate(700.945 721.046)"/><path d="m-9.44-25.416 8.714-7.624C14.886-46.837 28.32-59.182 37.76-52.647q1.09.544 1.09 1.09c0 3.267-8.714 9.44-14.161 13.434-9.803 6.898-21.784 15.612-26.504 25.778zm41.028-38.123c-11.982 0-24.326 10.892-38.85 23.6-3.994 3.268-7.624 6.536-11.255 9.803l-2.905 2.542L-.726 9.803l7.988-4.357-1.09-2.178C0-8.714 11.618-18.517 29.046-30.862c9.804-6.898 17.428-12.345 18.518-19.243.363-2.542-.364-5.083-1.816-7.262-.726-1.089-2.178-2.178-2.905-2.904-3.63-1.816-7.261-3.268-11.255-3.268" style="fill:#fff;fill-opacity:1;fill-rule:nonzero;stroke:none" transform="translate(713.653 746.824)"/><path d="M0 0c14.16 0 34.13-12.345 53.373-24.326 18.154-11.256 36.671-22.511 49.016-22.511s30.862 11.618 49.016 22.511C170.648-12.345 190.617 0 204.777 0c19.244 0 35.219-13.797 49.38-25.779 11.981-10.529 22.511-19.606 31.951-16.701l29.046 61.36c-12.345-4.72-26.505 7.988-42.48 22.148-17.065 15.25-36.308 32.314-57.73 32.314-19.607 0-37.761-11.981-46.838-18.88-12.344-9.803-50.468-33.403-65.717-33.403-15.613 0-53.736 23.963-65.718 33.403-7.261 5.809-26.505 18.88-46.837 18.88-21.059 0-40.665-17.064-57.367-32.314-15.976-14.16-30.136-26.868-42.481-22.148l28.684-61.36c9.44-2.905 19.969 6.172 31.951 16.701C-35.219-13.434-19.243 0 0 0m102.389-50.831c-13.434 0-31.588 11.255-51.195 23.237C32.677-15.976 13.071-3.994 0-3.994c-17.791 0-33.04-13.071-46.837-25.052-13.434-11.619-25.053-21.785-37.035-17.065l-.726.363-32.677 69.348 3.631 1.816c.363-.363.726-1.09 1.452-1.453 10.892-7.624 25.053 5.083 41.391 19.607 17.428 15.612 37.398 33.403 60.272 33.403 20.695 0 39.939-12.345 49.379-19.969 11.981-9.803 49.742-32.678 63.176-32.678 13.797 0 50.831 22.511 63.176 32.678 9.44 7.261 28.683 19.969 49.379 19.969 22.874 0 42.843-17.791 60.271-33.403 16.339-14.524 30.499-27.231 41.391-19.607.726.727 1.453 1.09 1.816 1.453l3.631-2.179-32.678-69.348-.726-.363c-11.618-4.357-23.237 5.446-36.671 17.064S222.932-4.357 204.777-4.357c-13.07 0-32.677-11.982-51.194-23.6-19.606-11.619-37.76-22.874-51.194-22.874" style="fill:#fff;fill-opacity:1;fill-rule:nonzero;stroke:none" transform="translate(435.896 668.036)"/><path d="M0 0c14.886 0 35.219-12.345 54.825-24.326 17.791-10.893 36.308-22.511 47.564-22.511 11.618 0 29.772 11.255 47.563 22.148C169.559-12.708 189.891 0 204.777 0c20.333 0 36.672-14.16 50.832-26.505 11.255-9.803 20.695-17.791 28.683-16.339l26.142 55.552c-12.345-.726-25.053 10.529-39.576 23.6-16.701 14.886-35.582 31.588-55.914 31.588-18.88 0-36.308-11.618-45.385-18.517-10.167-8.351-50.105-34.13-67.17-34.13-16.339 0-54.462 23.964-67.533 34.13-7.262 5.446-25.779 18.517-45.385 18.517-20.333 0-39.213-16.702-55.915-31.588-14.523-13.071-27.594-24.326-39.576-23.6l26.505-55.552c7.988-1.452 17.791 7.262 28.684 16.702C-36.671-13.797-20.333 0 0 0m102.389-55.914c-14.16 0-32.678 11.618-52.284 23.6C31.588-21.059 12.345-9.077 0-9.077c-17.065 0-31.951-13.071-45.022-24.326-14.16-12.345-26.142-22.874-39.576-17.791l-1.452 1.089-34.13 72.616 7.625 4.357 1.452-1.815s.363-.363 1.09-.727c9.077-6.535 22.874 5.447 38.486 19.244 17.791 15.975 38.124 34.129 61.724 34.129 21.422 0 41.028-12.708 50.831-20.332 13.434-10.893 49.379-31.951 61.724-31.951s47.926 21.058 61.724 31.951c9.803 7.624 29.409 20.332 50.831 20.332 23.6 0 43.933-18.154 62.087-34.129 15.612-13.797 29.046-25.779 38.123-19.607q1.089.545 1.089 1.09l1.453 1.815 7.261-4.357-34.129-72.616-1.816-.726c-13.071-5.083-25.415 5.446-39.212 17.791-13.071 11.255-27.958 24.326-45.022 24.326-12.345 0-31.588-11.619-50.106-23.237-19.969-12.345-38.486-23.963-52.646-23.963" style="fill:#fff;fill-opacity:1;fill-rule:nonzero;stroke:none" transform="translate(435.896 670.577)"/><path d="M0 0h336.213l1.826-88.592H1.827Z" style="fill:#000;fill-opacity:1;fill-rule:nonzero;stroke:none" transform="translate(370.894 349.251)"/><path d="M0 0v330.403h-338.028V-3.631c-18.517 13.434-34.856 28.684-49.742 45.748l-62.087-75.157c69.711-75.158 169.559-121.996 280.298-121.996 111.466 0 211.313 47.564 281.388 123.448l-62.45 75.521C34.493 26.505 18.517 11.982 0-1.815Z" style="fill:#000;fill-opacity:1;fill-rule:nonzero;stroke:none" transform="translate(710.748 346.71)"/><path d="M0 0c71.89-76.973 173.553-120.906 278.846-120.906 106.02 0 208.045 44.659 279.935 122.358l-61.36 73.706c-14.16-16.702-29.773-31.225-48.653-45.022l-1.452-1.09v333.309h-335.85V27.231l-1.816 1.089C91.496 41.391 75.158 56.641 60.634 73.342Zm278.846-123.084c-106.02 0-208.408 44.659-281.024 122.358L-2.905 0l.727.726L60.634 76.61l.727-1.089c14.16-16.339 30.135-31.588 47.926-44.296v333.308h340.207V33.04c18.517 13.797 33.403 27.594 47.564 44.296l.726 1.089.726-1.089 63.176-76.247-.726-.726c-72.616-78.425-175.368-123.447-282.114-123.447" style="fill:#fff;fill-opacity:1;fill-rule:nonzero;stroke:none" transform="translate(262.344 313.67)"/><path d="M0 0v204.778h321.69L322.053 0Z" style="fill:#fff;fill-opacity:1;fill-rule:nonzero;stroke:none" transform="translate(380.708 420.415)"/><path d="M0 0c-2.905-4.357-9.803-7.625-17.791-7.625S-33.04-4.357-35.582 0c-2.905-4.72-9.803-7.625-17.791-7.625S-68.259-4.357-71.164 0c-2.904-4.357-9.803-7.625-17.791-7.625S-103.841-4.357-106.746 0c-2.904-4.72-9.803-7.625-17.791-7.625S-139.423-4.357-142.328 0c-2.904-4.357-9.803-7.625-17.791-7.625S-175.005-4.357-177.91 0c-2.904-4.72-9.803-7.625-17.791-7.625S-210.95-4.357-213.492 0c-2.904-4.357-9.803-7.625-17.791-7.625S-246.169-4.357-249.073 0c-2.905-4.72-9.804-7.625-17.791-7.625-8.351 0-15.25 3.268-17.791 7.625-2.905-4.72-9.804-7.625-17.791-7.625-8.351 0-17.065 3.268-19.607 7.625v.363-90.407c0-9.077 7.625-17.065 15.613-19.969l147.047-57.004 147.048 57.004C-4.357-107.109-.011-99.121-.011-90.044V.363H0" style="fill:#d10a11;fill-opacity:1;fill-rule:nonzero;stroke:none" transform="translate(702.76 439.658)"/><path d="M0 0c-2.905-4.357-9.803-7.625-17.791-7.625S-33.04-4.357-35.582 0c-2.905-4.357-9.803-7.625-17.791-7.625S-68.259-4.357-71.164 0c-2.904-4.357-9.803-7.625-17.791-7.625S-103.841-4.357-106.746 0c-2.904-4.357-9.803-7.625-17.791-7.625S-139.423-4.357-142.328 0c-2.904-4.357-9.803-7.625-17.791-7.625S-175.005-4.357-177.91 0c-2.904-4.357-9.803-7.625-17.791-7.625S-210.95-4.357-213.492 0c-2.904-4.357-9.803-7.625-17.791-7.625S-246.169-4.357-249.073 0c-2.905-4.357-9.804-7.625-17.791-7.625-8.351 0-15.25 3.268-17.791 7.625-2.905-4.357-9.804-7.625-17.791-7.625-8.351 0-17.065 3.268-19.607 7.625v11.255c2.905-4.356 11.619-7.624 19.607-7.624s14.886 3.268 17.791 7.624c2.904-4.72 9.803-7.624 17.791-7.624s14.886 3.268 17.791 7.624c2.904-4.356 9.803-7.624 17.79-7.624 7.988 0 15.25 3.268 17.791 7.624 2.905-4.72 9.804-7.624 17.791-7.624 7.988 0 14.887 3.268 17.791 7.624 2.905-4.356 9.804-7.624 17.791-7.624 7.988 0 14.887 3.268 17.791 7.624 2.905-4.72 9.803-7.624 17.791-7.624s14.887 3.268 17.791 7.624c2.905-4.356 9.803-7.624 17.791-7.624s14.887 3.268 17.791 7.624c2.905-4.72 9.803-7.624 17.791-7.624s14.886 3.268 17.791 7.624c2.905-4.356 9.803-7.624 17.791-7.624S-2.905 6.899 0 11.255z" style="fill:#009ee2;fill-opacity:1;fill-rule:nonzero;stroke:none" transform="translate(702.76 449.098)"/><path d="M0 0c-2.905-4.357-9.803-7.625-17.791-7.625S-33.04-4.357-35.582 0c-2.905-4.357-9.803-7.625-17.791-7.625S-68.259-4.357-71.164 0c-2.904-4.357-9.803-7.625-17.791-7.625S-103.841-4.357-106.746 0c-2.904-4.357-9.803-7.625-17.791-7.625S-139.423-4.357-142.328 0c-2.904-4.357-9.803-7.625-17.791-7.625S-175.005-4.357-177.91 0c-2.904-4.357-9.803-7.625-17.791-7.625S-210.95-4.357-213.492 0c-2.904-4.357-9.803-7.625-17.791-7.625S-246.169-4.357-249.073 0c-2.905-4.357-9.804-7.625-17.791-7.625-8.351 0-15.25 3.268-17.791 7.625-2.905-4.72-9.804-7.625-17.791-7.625-8.351 0-17.065 3.268-19.607 7.625v11.255c2.905-4.356 11.619-7.624 19.607-7.624s14.886 3.268 17.791 7.624c2.904-4.72 9.803-7.624 17.791-7.624s14.886 3.268 17.791 7.624c2.904-4.356 9.803-7.624 17.79-7.624 7.988 0 15.25 3.268 17.791 7.624 2.905-4.72 9.804-7.624 17.791-7.624 7.988 0 14.887 3.268 17.791 7.624 2.905-4.356 9.804-7.624 17.791-7.624 7.988 0 14.887 3.268 17.791 7.624 2.905-4.72 9.803-7.624 17.791-7.624s14.887 3.268 17.791 7.624c2.905-4.356 9.803-7.624 17.791-7.624s14.887 3.268 17.791 7.624c2.905-4.72 9.803-7.624 17.791-7.624s14.886 3.268 17.791 7.624c2.905-4.356 9.803-7.624 17.791-7.624S-2.905 6.899 0 11.255z" style="fill:#009ee2;fill-opacity:1;fill-rule:nonzero;stroke:none" transform="translate(702.76 469.43)"/><path d="M0 0s15.612-24.69 7.625-17.791C1.452-12.708-6.899-.726-12.708 9.44L-45.022-3.268s-18.517-22.511-14.523-12.708c2.904 7.262 11.981 18.881 19.606 27.958L-62.087 38.85s-27.231 10.529-16.338 9.803c6.898-.726 21.784-5.81 32.314-10.166l18.517 29.409s1.815 29.41 4.357 18.88c1.815-7.261 1.089-22.874.363-34.492l33.766-8.351s28.321 7.261 19.244 1.815C23.6 41.754 9.44 37.397-1.815 34.856Z" style="fill:#000;fill-opacity:1;fill-rule:nonzero;stroke:none" transform="translate(565.153 336.543)"/><path d="m0 0 .363-.363c2.905-4.72 12.708-20.696 20.333-26.868.726-.726 1.089-.726 1.452-1.089-.363 2.178-5.083 10.529-9.803 17.791l-2.179 35.218h.363c11.256 2.542 25.416 6.899 31.588 10.893.727.363 1.09.726 1.453 1.089-1.816.363-11.619-1.452-19.97-3.994l-34.492 8.351v.363c.726 7.625 1.815 26.142-.364 34.13-.363.726-.363 1.452-.363 1.452-1.089-1.815-2.178-11.255-2.541-20.332l-18.88-29.773-.363.363c-5.447 2.179-23.964 9.44-32.315 10.166h-1.815c1.452-1.452 10.166-5.446 18.517-8.714h.363l22.511-27.231-.363-.363c-5.809-6.898-16.339-19.969-19.606-27.594-.363-.726-.363-1.452-.363-1.452 1.815 1.089 8.351 7.988 13.797 14.886l.363.363zm22.148-29.773c-.726 0-1.452.726-2.542 1.453C12.345-22.148 2.542-6.899-.726-1.452l-31.588-12.345c-9.077-10.893-14.16-15.976-15.613-15.25-.726.364-.363 1.816 0 3.268 3.268 7.988 13.434 20.333 19.607 27.594l-21.785 26.142c-13.071 5.083-19.606 8.351-19.243 10.166.363.727 1.452 1.09 3.267.727 8.351-.727 26.142-7.625 32.315-10.167l18.154 28.684c.726 14.16 2.178 21.421 3.63 21.421.727 0 1.453-1.089 1.816-2.904 2.178-8.351 1.089-26.142.363-34.13l33.04-7.988c13.797 3.631 20.696 4.72 21.422 3.268.363-.726-.726-1.452-2.179-2.541-7.987-5.084-25.415-9.441-31.588-10.893l1.816-34.129c7.625-11.982 10.892-18.518 9.44-19.607.363.363 0 .363 0 .363" style="fill:#000;fill-opacity:1;fill-rule:nonzero;stroke:none" transform="translate(552.808 346.71)"/><path d="M0 0c.363-.363.726-.726 1.089-.726s.726.363 1.09.726c.363.726.726 2.905.726 6.898 0 0 .363 13.798 10.529-1.089C42.48-35.945 1.089-35.945 1.089-35.945h.363s-41.028.363-12.344 41.754C-.726 20.696-.363 6.898-.363 6.898-.726 2.905-.363.726 0 0" style="fill:#fff;fill-opacity:1;fill-rule:nonzero;stroke:none" transform="translate(539.374 343.079)"/><path d="M0 0c-1.089 0-3.268-1.089-6.899-6.535-9.44-13.434-12.344-23.964-8.713-31.225 4.72-9.077 18.517-9.804 20.332-9.804s15.613.727 20.333 9.804c3.63 7.261.726 17.79-8.714 31.225C11.982-.363 9.803.363 9.077 0 7.625-.363 7.262-3.994 7.262-5.083c0-3.268 0-5.809-.727-7.262-.363-.363-.726-1.089-1.452-1.089s-1.089.363-1.452 1.089c-.726 1.09-.726 3.268-.726 7.262 0 1.089-.363 4.72-1.816 5.083zm4.72-48.653h-.363c-2.542 0-16.339 1.089-21.059 10.53q-5.99 11.436 8.714 32.677C-4.357 0-1.452 2.178.726 1.452 3.268.726 3.631-4.357 3.631-5.083c0-3.631 0-5.809.726-6.536 0-.363.363-.363.363-.363l.363.363c.363.363.726 2.179.363 6.536 0 .726 0 5.446 2.905 6.535 2.178.726 5.083-1.452 8.714-6.898q14.705-21.24 8.714-32.677c-4.72-9.441-18.517-10.53-21.059-10.53" style="fill:#000;fill-opacity:1;fill-rule:nonzero;stroke:none" transform="translate(535.744 355.06)"/><path d="M0 0c-.363-.363-.363-.726-.363-1.089S0-1.815.726-1.815c1.089 0 2.905 0 6.899 1.452 0 0 13.071 3.994 2.178-10.166-30.862-40.302-43.57-1.453-43.57-1.453v-.363s-12.344 39.213 36.309 24.69c17.427-5.083 3.993-9.803 3.993-9.803C2.542 1.452.726.726 0 0" style="fill:#fff;fill-opacity:1;fill-rule:nonzero;stroke:none" transform="translate(518.316 359.78)"/><path d="M0 0s5.083-14.523 15.612-16.339c7.988-1.452 17.065 4.72 27.232 17.791 4.72 6.173 4.357 8.351 3.993 9.077-1.089 1.453-4.357.726-5.446.363-3.268-1.089-5.446-1.815-6.898-1.452-.726 0-1.453.363-1.453 1.089-.363.363 0 1.09.726 1.816.727 1.089 2.905 1.815 6.536 2.904 1.089.364 4.357 1.816 4.357 3.631 0 1.09-1.089 2.905-8.351 5.083-15.976 4.72-26.868 4.357-32.314-1.452C-3.994 14.886-.726 1.815 0 0m17.791-17.791c-.726 0-1.452 0-2.542.363C4.72-15.612-.363-2.542-1.089-.363c-.363.726-4.72 15.612 3.267 23.6 6.173 6.173 17.428 6.536 33.767 1.816 6.172-1.816 9.44-3.994 9.44-6.173 0-2.904-4.72-4.357-5.083-4.72-3.268-1.089-5.446-1.815-6.172-2.541l-.363-.363c0-.364.363-.364.363-.364.726 0 2.541 0 6.535 1.453.726 0 5.446 1.452 6.899-.726 1.452-1.816 0-5.447-3.994-10.53-9.44-12.708-18.154-18.88-25.779-18.88" style="fill:#000;fill-opacity:1;fill-rule:nonzero;stroke:none" transform="translate(484.912 348.162)"/><path d="M0 0q-.544.545-1.089 0c-.363-.363-.363-.726-.363-1.089.363-1.089 1.089-2.905 3.63-5.81 0 0 7.988-11.255-9.077-5.446-47.926 16.702-14.886 41.028-14.886 41.028h-.363S11.255 52.647 12.345 1.815c.363-18.154-7.988-6.898-7.988-6.898C2.542-1.815 1.089-.363 0 0" style="fill:#fff;fill-opacity:1;fill-rule:nonzero;stroke:none" transform="translate(527.393 385.196)"/><path d="M0 0s-12.345-9.44-10.892-19.969c1.089-7.988 9.803-14.887 25.415-20.333 7.262-2.542 9.44-1.815 9.803-1.089 1.09 1.452-.726 4.357-1.452 5.446-2.178 2.542-3.268 4.72-3.631 6.172 0 .726 0 1.453.726 1.816.363.363 1.09.363 1.816 0 1.089-.726 2.904-2.542 4.72-5.446.726-1.09 3.268-3.631 4.72-2.905.726.363 2.178 1.815 2.178 9.803C33.04-9.803 29.046.363 21.785 3.994 13.071 8.351 1.815 1.089 0 0m22.148-43.207c-1.815 0-4.357.727-7.988 1.816-15.975 5.446-25.052 12.708-26.142 21.059C-13.434-9.803-2.542-.726-1.089.363c.363.363 13.071 9.44 23.237 4.357Q33.585-1.27 34.13-26.868c0-6.535-.727-10.166-2.905-10.892-2.542-1.09-5.809 2.904-6.172 3.63-2.542 3.631-3.631 4.72-4.357 5.084h-.363v-.364c.363-.726 1.089-2.541 3.63-5.809.363-.363 3.268-4.72 1.453-6.898-.363-.363-1.453-1.09-3.268-1.09" style="fill:#000;fill-opacity:1;fill-rule:nonzero;stroke:none" transform="translate(505.97 413.516)"/><path d="M0 0c0 .363 0 1.089-.363 1.089h-1.089c-.726-.363-2.179-1.815-4.72-5.083 0 0-8.351-10.892-7.988 6.899 1.089 50.831 34.493 26.868 34.493 26.868h-.364S53.01 5.446 5.083-11.256c-17.065-5.809-9.077 5.447-9.077 5.447C-1.089-2.542 0-.726 0 0" style="fill:#fff;fill-opacity:1;fill-rule:nonzero;stroke:none" transform="translate(554.624 384.107)"/><path d="M0 0c-.363-1.089-1.452-3.268-3.631-6.172-.726-1.09-2.541-3.994-1.452-5.447.363-.726 2.541-1.452 9.803 1.09C20.333-5.083 29.046 1.815 30.136 9.803c1.452 10.167-9.803 18.88-10.53 19.607-1.452 1.089-13.071 8.35-22.148 3.993-7.261-3.63-10.892-13.797-11.255-30.498 0-7.625 1.452-9.44 2.178-9.44 1.453-.363 3.994 2.178 4.72 2.904 2.179 2.905 3.631 4.72 4.721 5.446.726.364 1.452.364 1.815 0C0 1.452 0 .726 0 0m-2.905-13.434q-2.178 0-3.267 1.089c-1.816 2.179 1.089 6.173 1.452 6.899C-2.179-1.815-1.452-.363-1.089.363v.363h-.726C-2.542.363-3.631-.726-6.172-4.357c-.363-.363-3.268-4.357-6.173-3.631-2.178.726-3.267 4.357-2.904 10.893q.545 25.597 11.981 31.588c9.44 4.72 21.422-2.905 23.237-3.994 1.816-1.452 12.708-10.166 10.893-20.696C29.773 1.452 20.696-5.809 4.72-11.255c-2.905-1.816-5.809-2.179-7.625-2.179" style="fill:#000;fill-opacity:1;fill-rule:nonzero;stroke:none" transform="translate(555.35 384.107)"/><path d="M0 0c.363 0 .726.363 1.089.726 0 .363 0 .726-.363 1.089C0 2.542-1.815 3.631-5.809 4.72c0 0-13.071 4.357 3.994 9.803 48.652 14.523 36.308-24.689 36.308-24.689v.363s-13.071-38.85-43.57 1.452C-19.969 5.809-6.899 1.815-6.899 1.815-2.905.363-1.089 0 0 0" style="fill:#fff;fill-opacity:1;fill-rule:nonzero;stroke:none" transform="translate(562.248 357.965)"/><path d="M0 0c-1.089 0-1.815-.363-2.178-.726-.364-.726-.727-2.905 3.993-9.077 10.167-13.071 19.244-19.243 27.231-17.791 10.53 1.815 15.25 16.339 15.613 16.339.726 2.178 3.994 14.886-2.905 22.147-5.809 5.81-16.701 6.173-32.314 1.453-7.262-2.179-8.351-3.994-8.351-5.083 0-1.453 3.268-3.268 4.357-3.631 3.268-1.089 5.446-1.816 6.536-2.905.726-.726.726-1.452.726-1.815s-.363-.726-1.089-.726h-.727c-1.089 0-2.904 0-6.898 1.452C2.905-.363 1.452 0 0 0m26.868-29.046c-7.988 0-16.339 6.172-25.779 18.517C-2.905-5.446-4.357-1.815-2.905 0c1.453 2.179 6.536 1.089 6.899.726C7.262-.363 9.077-.726 10.166-.726h.363c.363 0 .363 0 .363.363 0 0 0 .363-.363.363-.726.726-2.178 1.452-6.172 2.542-.726.363-5.446 1.815-5.083 4.72 0 2.178 3.268 4.357 9.44 6.172 16.339 5.083 27.594 4.357 33.766-1.815 7.988-7.988 3.268-22.874 3.268-23.601-.726-2.178-5.809-15.249-16.338-17.064z" style="fill:#000;fill-opacity:1;fill-rule:nonzero;stroke:none" transform="translate(551.72 359.417)"/><path d="M0 0s-3.268-2.178-5.809-2.905-3.994-2.904-4.357-3.267c0 0-1.453-3.631-2.542-2.179s1.089 3.994 1.089 3.994c.364.363 1.453 2.542 3.994 3.268s5.81 2.904 5.81 2.904 2.904 2.542 4.72 4.72S6.899 9.44 7.262 9.44c0 0 3.267 1.089 4.357-.363 1.089-1.452-2.905-1.815-2.905-1.815-.726-.363-2.905-.727-4.357-2.905C3.268 2.178 0 0 0 0" style="fill:#000;fill-opacity:1;fill-rule:nonzero;stroke:none" transform="translate(512.143 404.802)"/><path d="M0 0s-2.905 2.178-4.357 4.72c-1.452 2.179-3.994 2.905-4.357 2.905 0 0-3.994.363-2.905 1.815s4.357.363 4.357.363c.726 0 2.905-.726 4.357-2.904s4.72-4.721 4.72-4.721S5.083 0 7.625-.726s3.63-2.905 3.994-3.268c0 0 2.178-2.904 1.089-3.994-1.089-1.452-2.542 2.179-2.542 2.179-.363.363-1.452 2.541-4.357 3.267C3.268-2.178 0 0 0 0" style="fill:#000;fill-opacity:1;fill-rule:nonzero;stroke:none" transform="translate(568.42 404.802)"/><path d="M0 0s1.452 3.631 2.905 5.809c1.815 2.179 1.452 4.357 1.452 5.083 0 0-.726 3.631.726 3.268 1.452-.726 1.452-3.994 1.452-3.994 0-.726.364-2.904-1.452-5.083C3.268 2.905 2.178-.726 2.178-.726S1.089-4.357 1.089-7.262s-1.452-4.357-1.815-5.083c0 0-1.816-2.904-3.631-2.178s1.089 2.904 1.089 2.904c.363.363 1.816 2.179 1.816 5.084C-.726-3.994 0 0 0 0" style="fill:#000;fill-opacity:1;fill-rule:nonzero;stroke:none" transform="translate(585.849 351.43)"/><path d="M0 0s3.994 0 6.535-1.089c2.542-.726 4.72 0 5.447.363 0 0 3.267 1.815 3.267.363 0-1.815-3.267-2.542-3.267-2.542-.727-.363-2.542-1.089-5.447-.363C3.994-2.542 0-2.178 0-2.178s-3.994-.364-6.535-1.09c-2.542-1.089-4.721 0-5.447.363 0 0-3.267 1.09-3.267 2.542 0 1.815 3.267-.363 3.267-.363.726-.363 2.542-1.089 5.447-.363C-3.994-.363 0 0 0 0" style="fill:#000;fill-opacity:1;fill-rule:nonzero;stroke:none" transform="translate(540.464 318.39)"/><path d="M0 0s1.089-3.631 1.089-6.535 1.453-4.357 1.816-5.084c0 0 2.904-2.541 1.089-2.904S.363-12.345.363-12.345c-.363.363-1.815 2.179-1.815 5.083 0 2.542-1.09 6.536-1.09 6.536s-1.452 3.631-2.904 5.809c-1.453 2.179-1.453 4.72-1.453 5.083 0 0 0 3.268 1.453 3.994 1.452.726.726-3.268.726-3.268 0-.726-.363-2.904 1.452-5.083C-1.452 3.268 0 0 0 0" style="fill:#000;fill-opacity:1;fill-rule:nonzero;stroke:none" transform="translate(495.078 351.43)"/><path d="M0 0c-5.083 0-9.077-3.994-9.077-9.44 0-5.083 3.994-9.44 9.077-9.44s9.44 3.994 9.44 9.44S5.446 0 0 0" style="fill:#fcc200;fill-opacity:1;fill-rule:nonzero;stroke:none" transform="translate(540.1 375.393)"/><path d="M0 0c-5.083 0-9.077-3.994-9.077-9.077S-5.083-18.154 0-18.154s9.077 3.994 9.077 9.077S5.083 0 0 0m0-18.517c-5.446 0-9.44 4.357-9.44 9.44S-5.083.363 0 .363c5.446 0 9.44-4.357 9.44-9.44.363-5.083-3.994-9.44-9.44-9.44" style="fill:#ffcb00;fill-opacity:1;fill-rule:nonzero;stroke:none" transform="translate(540.1 375.03)"/><path d="m0 0 1.089-25.053 21.059 13.798 6.535-10.893L3.631-36.671v-5.083s29.046-16.339-6.536-15.613v-.363c-12.344-10.166-23.963 0-23.963 0-35.219-.726-6.535 15.613-6.535 15.613v5.083l-22.148 17.065 5.083 11.255 19.606-17.065 1.089 25.053z" style="fill:#000;fill-opacity:1;fill-rule:nonzero;stroke:none" transform="translate(557.891 543.5)"/><path d="M0 0c20.333-23.6 35.582 1.089 35.582 1.089 25.779 6.173 10.529 24.69 10.529 24.69 26.868 17.791-4.72 31.588-4.72 31.588-.363 23.6-20.332 21.785-20.332 21.785C0 97.306-19.969 76.973-19.969 76.973c-31.225 26.142-55.189-3.994-55.189-3.994s-19.969 13.797-29.046-7.988c0 0-31.951.727-19.97-31.224 0 0-24.689-24.69 7.625-37.035 0 0 17.065-31.588 40.665-1.452 0 0 14.523-.726 12.345 19.606 0 0 18.517-7.624 35.582.726 0 0 5.446-12.344 17.428-5.446 0 0-1.816-7.987 9.803-9.803z" style="fill:#13a438;fill-opacity:1;fill-rule:nonzero;stroke:none" transform="translate(584.033 522.077)"/><path d="M0 0c-1.452 0-12.345-.363-17.428-7.262q-4.902-7.08 0-20.695l.726-1.453-1.089-1.089s-10.166-10.166-7.988-19.606c1.089-5.446 6.173-9.803 14.523-13.071l.727-.363.363-.726S-3.268-76.61 6.898-77.336q9.259-.544 19.607 11.982l.726 1.089h1.452s3.994 0 6.536 2.904 3.631 7.625 2.904 13.798l-.363 4.356 3.994-1.815s17.428-6.898 33.767.726l2.178 1.089 1.089-2.541s2.179-4.357 6.173-5.809c2.178-.727 5.083-.363 7.988 1.452l5.083 2.905-1.453-5.81s-.363-1.815.727-3.267c1.089-1.453 3.63-2.542 6.898-3.268h.726l1.453-1.452c5.809-6.536 11.618-9.441 17.064-9.078 8.714.727 14.524 10.167 14.524 10.167l.363.726 1.089.363c7.262 1.815 11.619 4.72 12.708 8.351 1.815 5.809-3.631 12.345-3.631 12.345l-1.815 2.178 2.541 1.452q10.348 6.535 9.803 13.071c-.726 6.899-10.166 12.345-14.16 14.16l-1.452.727v1.815q0 10.349-5.446 15.249c-5.084 4.72-11.982 3.994-11.982 3.994H124.9l-.726.726c-18.881 16.339-36.672-1.089-37.398-1.815l-1.815-1.815-1.816 1.452Q69.53 24.508 55.914 22.874C41.391 21.422 31.588 9.44 31.588 9.44l-1.452-1.815-1.816 1.452s-8.351 5.446-15.612 3.268c-3.994-1.089-7.262-4.72-9.44-10.166L2.541.726zc.363 0 0 0 0 0m7.988-82.782H6.535C-4.72-81.693-11.982-70.801-13.797-67.896c-9.803 3.994-15.613 9.44-17.065 16.339-2.178 10.166 5.446 19.969 8.351 23.237q-4.902 15.25 1.089 23.963C-15.976 3.268-5.446 4.72-1.452 4.72c2.904 6.172 6.898 10.166 12.344 11.619 7.262 2.178 14.524-1.09 18.154-2.905 3.631 3.631 13.071 12.345 26.142 13.797 9.803 1.089 19.97-2.178 29.41-9.803 5.446 4.72 23.237 16.702 41.754 1.452 2.542 0 9.44-.363 14.523-5.446 4.357-3.994 6.899-9.803 7.262-17.428 3.994-2.178 14.886-8.351 15.612-17.428q.545-8.714-9.803-16.338c1.816-3.268 4.72-9.077 2.905-14.887-1.815-5.446-6.899-9.077-15.249-11.255-1.816-2.905-8.351-10.893-17.791-11.619-7.262-.726-14.161 2.905-21.059 10.893l-.363.363c-4.357.726-7.625 2.541-9.44 5.083-.726 1.089-1.09 2.178-1.453 2.905-2.904-1.09-5.809-1.09-8.35-.364-3.994 1.09-6.536 4.357-7.988 6.173-12.708-5.446-25.779-2.905-31.951-1.089q0-9.26-4.357-14.161c-3.268-3.267-7.262-3.993-9.077-4.357-7.262-8.35-14.524-12.707-21.785-12.707" style="fill:#000;fill-opacity:1;fill-rule:nonzero;stroke:none" transform="translate(479.829 584.89)"/><path d="m0 0 1.452-1.452c-5.083-9.44-5.809-16.339-2.178-19.244 2.541-2.178 6.172-1.452 9.44 2.179 1.452 1.452 2.178 3.268 2.178 4.72 0 1.815-1.452 4.357-3.267 7.625C4.357.363 4.72 5.446 10.166 11.982s13.071 8.714 17.791 4.72q3.268-2.723 3.268-7.625l3.631 1.089 1.089-1.089L24.69-4.72l-1.453 1.452c4.357 9.077 5.446 14.524 2.179 17.428-2.542 2.179-5.81 1.452-8.714-1.815-3.631-4.357-1.453-6.536 1.089-11.982 1.452-2.905 2.542-5.083 2.178-8.714-.726-2.904-2.541-6.535-5.446-10.166-6.172-6.899-13.071-9.077-18.154-4.72-2.541 2.178-3.631 4.72-3.268 8.714l-4.356-1.453-1.453 1.09z" style="fill:#fcc200;fill-opacity:1;fill-rule:nonzero;stroke:none" transform="translate(309.544 319.841)"/><path d="M0 0c3.994-2.905 9.803 1.815 18.154 13.434 8.351 11.982 10.529 18.88 6.535 21.785-3.993 2.541-9.803-1.816-18.154-13.797C-1.815 9.803-3.994 2.905 0 0m13.434 38.487c5.083 2.541 9.44 2.178 13.071-.364 3.994-2.541 5.446-6.535 4.72-12.344-.363-5.083-2.905-11.256-6.899-17.065-3.993-5.809-7.987-9.803-13.071-11.982-5.446-2.541-10.166-2.541-13.797 0-3.63 2.542-5.083 6.536-4.72 12.708.363 5.809 2.542 10.892 6.899 16.702 4.357 6.172 9.077 10.166 13.797 12.345" style="fill:#fcc200;fill-opacity:1;fill-rule:nonzero;stroke:none" transform="translate(338.228 276.635)"/><path d="m0 0-1.815 1.089c-1.453.726-2.179.363-3.268-2.178l-11.619-21.422c-3.994-7.625-4.357-12.345 0-14.523a5.58 5.58 0 0 1 5.81 0c2.904 1.452 5.083 5.083 7.624 10.166l8.351 15.613c2.542 4.356 2.905 6.898 0 8.713H4.72L6.172.726l9.804-5.083-1.816-2.905c-2.905 1.09-4.72-.363-6.898-4.72l-8.351-15.975c-2.542-4.72-4.357-7.988-7.262-10.53-4.357-3.63-8.351-3.993-13.071-1.452-6.898 3.631-7.988 10.529-2.904 19.607l12.344 23.237c1.09 2.541 1.453 3.267 0 3.994l-1.815 1.089 1.452 3.268L1.089 3.994z" style="fill:#fcc200;fill-opacity:1;fill-rule:nonzero;stroke:none" transform="translate(393.053 292.247)"/><path d="M0 0c-1.452.363-2.178 0-2.905-2.542l-12.707-32.314c-1.09-2.541-1.09-3.267.726-3.994l1.815-.726-1.452-3.267-14.16 5.446 1.452 3.267 1.815-.726c1.453-.726 2.179 0 3.268 2.542L-9.44-.363c1.089 2.542 1.089 3.268-.363 3.631-2.905 1.089-7.262-2.905-11.619-11.619l-1.815.726 7.261 16.702L8.351-.726 2.178-17.791l-1.815.726C3.268-7.262 2.905-1.089 0 0" style="fill:#fcc200;fill-opacity:1;fill-rule:nonzero;stroke:none" transform="translate(430.45 275.546)"/><path d="M0 0c1.452-.363 2.178.363 2.905 2.905l3.994 15.249-10.167 2.905-3.994-15.25c-.726-2.541-.726-3.267 1.09-3.994l1.815-.726-1.089-3.267-14.523 3.993 1.089 3.268 1.815-.363c1.816-.363 2.179.363 2.905 2.905l8.714 33.04c.726 2.542.726 3.631-1.089 3.994l-1.816.363 1.089 3.268 14.524-3.994-.727-3.268-1.815.363c-1.815.363-2.178-.363-2.905-2.904l-3.63-13.797 10.166-2.905 3.631 13.797c.726 2.542.726 3.631-1.09 3.994l-1.815.363.726 3.268 14.523-3.994-.726-3.268-2.178.726c-1.453.363-2.179-.363-2.905-2.904L9.803.726c-.726-2.541-.726-3.268 1.089-3.994l1.816-.726-.726-3.268-14.887 3.994L-1.815 0Z" style="fill:#fcc200;fill-opacity:1;fill-rule:nonzero;stroke:none" transform="translate(451.509 225.44)"/><path d="m0 0 7.988-1.089-1.453 16.701Zm5.809-16.339h2.179c.726 0 1.089.363 1.452 1.453v1.815l-.726 7.625-10.166 1.452-1.453-3.268c-.363-1.089-.726-2.541-1.089-3.267-.363-2.905.726-3.994 3.631-4.72l-.363-3.268-11.256 1.815.363 3.268c2.542.363 4.357 2.905 6.536 7.988L9.44 29.41l2.905-.364 4.72-43.569c.363-2.179.726-2.905 2.178-3.268l-.363-3.631-13.434 1.816z" style="fill:#fcc200;fill-opacity:1;fill-rule:nonzero;stroke:none" transform="translate(484.55 233.791)"/><path d="M0 0c-.363-6.172.726-8.351 4.357-8.714v-3.631l-11.619.363v3.631c3.631 0 4.357 2.542 4.357 8.351l.726 29.047c0 2.541-.363 3.63-1.815 3.63h-2.178v3.631l13.07-.363 5.447-29.046 6.535 28.683 12.708-.363v-3.631h-2.179c-1.815 0-2.178-.726-2.178-3.631l-.726-34.129c0-2.542.363-3.631 1.815-3.631h2.179v-3.631l-14.887.363v3.631h1.816c1.815 0 2.178.726 2.178 3.268l1.09 35.945-9.804-42.844H9.077L.726 30.862Z" style="fill:#fcc200;fill-opacity:1;fill-rule:nonzero;stroke:none" transform="translate(519.768 222.899)"/><path d="M0 0h1.815c5.447.363 7.262 2.905 6.536 10.892-.726 7.625-2.905 10.167-7.625 9.441-2.541-.364-2.904-.727-2.541-4.357Zm3.994-20.696 2.541.364.363-3.631-15.612-1.453-.363 3.631 2.178.363c1.816.363 1.816 1.09 1.816 3.631l-3.268 33.767c-.363 2.541-.726 3.63-2.178 3.267l-2.179-.363-.363 3.631 17.428 1.815c7.262.727 11.619-3.63 12.345-12.707C17.791 2.178 13.797-2.542 4.72-3.631c-1.089 0-2.542-.363-3.994-.363l1.452-13.797c-.363-2.541 0-2.905 1.816-2.905" style="fill:#fcc200;fill-opacity:1;fill-rule:nonzero;stroke:none" transform="translate(570.236 236.333)"/><path d="M0 0c-1.452-.363-1.452-1.089-1.089-3.631L5.809-37.76c.726-2.542 1.09-3.268 2.542-2.905l1.815.363.726-3.631-14.886-2.904-.726 3.267 1.815.363c1.816.364 1.816 1.09 1.453 3.994L-8.351-5.446c-.363 2.541-1.089 3.268-2.541 2.905-3.268-.727-4.357-6.536-3.268-15.976l-1.816-.363-2.904 17.791L6.898 4.357l4.357-17.791-1.815-.363C6.535-4.357 2.905.726 0 0" style="fill:#fcc200;fill-opacity:1;fill-rule:nonzero;stroke:none" transform="translate(609.812 263.2)"/><path d="M0 0c4.72 1.452 4.72 9.077 0 22.511-4.357 13.797-8.714 19.969-13.434 18.154-4.357-1.452-4.357-9.077 0-22.511S-4.72-1.452 0 0m-22.874 34.13c1.089 5.446 3.994 9.077 8.351 10.166 4.357 1.452 8.714.363 13.071-3.631 3.994-3.631 6.898-9.077 9.44-15.612 2.178-6.899 2.904-12.345 1.815-17.791-1.089-5.81-3.994-9.44-8.351-10.893-4.357-1.452-8.351-.363-12.708 3.994-4.356 3.631-6.898 8.714-9.077 15.249-2.904 6.899-3.267 13.434-2.541 18.518" style="fill:#fcc200;fill-opacity:1;fill-rule:nonzero;stroke:none" transform="translate(651.203 230.524)"/><path d="M0 0c2.905 1.815 2.542 4.357.363 9.44l-12.345 26.142-1.089.726c-1.089 1.089-2.178 1.452-3.631.726l-.363-.363-1.452 3.268 9.077 4.357L17.065 23.6 9.44 39.939c-2.541 5.809-4.357 7.261-7.988 5.809L0 49.016l10.529 5.083 1.453-3.268c-2.905-1.815-2.905-3.994 0-9.44L27.594 7.988l-2.178-1.09-32.678 25.779L2.905 10.529c2.541-5.446 4.357-7.261 7.987-5.809l1.453-3.268-10.53-4.72z" style="fill:#fcc200;fill-opacity:1;fill-rule:nonzero;stroke:none" transform="translate(675.53 239.964)"/><path d="m0 0-1.452-1.089c-6.899 7.624-11.256 9.077-16.339 5.446-1.815-1.452-2.178-1.815-.363-4.72l7.988-11.619.363.363c2.904 2.179 2.541 5.084-.726 10.893L-9.077.363 3.268-17.791 1.452-18.88c-4.357 5.083-6.898 6.535-9.803 4.357l-.363-.363L.363-27.957c1.452-2.179 2.179-2.542 3.631-1.816l2.541 1.453 1.816-2.905-13.071-9.077-1.816 2.905 1.816 1.089c1.452 1.089 1.089 1.815-.363 3.994l-19.244 28.32c-1.452 2.179-2.178 2.905-3.63 1.816l-1.816-1.09-1.815 2.905 21.422 14.886z" style="fill:#fcc200;fill-opacity:1;fill-rule:nonzero;stroke:none" transform="translate(735.801 305.318)"/><path d="M0 0q-3.812-3.268-9.803-2.178c-5.809 1.089-11.982 5.446-17.791 11.981-4.357 5.083-7.262 10.529-8.351 15.613-1.452 5.809 0 10.166 3.268 13.071 2.178 1.815 4.72 2.541 7.987 2.178l-.726 3.994 1.453 1.089 13.071-14.16-1.453-1.452c-8.351 7.261-14.523 9.44-17.791 6.535-3.994-3.631-1.452-10.166 8.351-21.058C-12.345 4.357-6.535.726-1.815 4.72 1.452 7.625.726 13.434-3.994 21.422l2.542.363C4.72 11.982 5.446 4.357 0 0" style="fill:#fcc200;fill-opacity:1;fill-rule:nonzero;stroke:none" transform="translate(774.288 295.515)"/><path d="m0 0 7.625-15.612-21.422-6.173 6.535-13.434L14.16-29.41l6.536-13.434-21.422-5.809 6.535-13.071 21.422 5.81 6.899-13.434-21.785-5.81 6.898-13.434 21.422 5.81 9.44-18.517c3.994 1.089 7.988 2.541 11.982 3.993L12.345 3.631C8.714 1.815 4.72.726 0 0" style="fill:#fff;fill-opacity:1;fill-rule:nonzero;stroke:none" transform="translate(260.891 700.35)"/><path d="M0 0c-1.452 7.262 14.523 15.612 27.594 26.142L10.529 60.635c-6.898-3.631-14.16-9.441-21.784-17.791-2.179-2.179-3.631-4.357-5.447-6.536z" style="fill:#fff;fill-opacity:1;fill-rule:nonzero;stroke:none" transform="translate(319.71 694.904)"/><path d="M0 0c-4.357 5.809-14.886 6.535-27.957-.726l17.065-34.493C1.089-25.416 10.166-13.797 0 0" style="fill:#d10a11;fill-opacity:1;fill-rule:nonzero;stroke:none" transform="translate(358.197 755.901)"/><path d="m0 0 50.105-100.21c14.16 5.809 25.779 14.16 29.41 20.332L58.093-33.766 47.201-10.892c-.727.726-.727 1.452-1.09 2.178L29.41 27.231C21.059 16.339 13.797 5.809 0 0" style="fill:#d10a11;fill-opacity:1;fill-rule:nonzero;stroke:none" transform="translate(273.236 703.98)"/><path d="M0 0c-6.899-1.089-14.523-1.452-24.326-.726l10.529-21.059 21.422 5.809z" style="fill:#d10a11;fill-opacity:1;fill-rule:nonzero;stroke:none" transform="translate(260.891 700.35)"/><path d="m0 0-21.422-5.809 6.899-13.434 21.422 5.809z" style="fill:#d10a11;fill-opacity:1;fill-rule:nonzero;stroke:none" transform="translate(275.051 671.304)"/><path d="m0 0-21.422-5.809 6.536-13.434 21.785 5.809z" style="fill:#d10a11;fill-opacity:1;fill-rule:nonzero;stroke:none" transform="translate(288.486 644.799)"/><path d="m0 0 7.988-15.976c7.624-.363 15.612.727 23.237 2.905l-9.44 18.517z" style="fill:#d10a11;fill-opacity:1;fill-rule:nonzero;stroke:none" transform="translate(280.498 612.121)"/><path d="m0 0 9.44-18.88C16.339-13.071 23.6-6.535 31.225 0L13.434 31.951C19.969 19.243 11.255 8.714 0 0" style="fill:#fff;fill-opacity:1;fill-rule:nonzero;stroke:none" transform="translate(346.942 720.683)"/><path d="M0 0q.545-1.089 2.178-2.178c9.441-6.899 20.696 0 33.767 10.892l-9.44 18.88C11.982 16.339-5.809 7.262 0 0" style="fill:#d10a11;fill-opacity:1;fill-rule:nonzero;stroke:none" transform="translate(320.8 692.725)"/><path d="M0 0h1.452c24.327 0 52.284 15.976 59.546 25.779L29.41 93.312c-1.09 1.452-1.453 3.267-1.453 5.083.726 5.446 7.988 10.892 17.428 17.428 11.256 7.988 23.963 17.065 25.416 27.594.726 4.357-.726 8.714-3.994 13.071-1.452 2.178-4.357 3.631-7.988 3.631-8.714.363-23.237-5.447-38.486-22.511-2.905-3.268-5.447-6.536-7.988-9.804-12.708-15.975-24.327-30.861-61.724-28.683Zm1.452-3.994h-3.994l-53.736 107.472 3.631-.363c37.761-3.268 49.016 10.892 61.724 26.868 2.542 3.268 5.446 6.535 8.351 9.803 13.797 15.613 29.773 24.327 41.754 23.963 4.72-.363 8.714-2.178 11.256-5.446 3.994-5.446 5.446-10.529 4.72-15.975-1.816-12.345-15.25-21.785-27.231-30.136-7.262-5.446-15.25-10.892-15.613-14.523 0-.726 0-1.453.726-2.179l.363-.363 32.678-69.711-.726-1.09C57.73 12.708 26.868-3.994 1.452-3.994" style="fill:#000;fill-opacity:1;fill-rule:nonzero;stroke:none" transform="translate(289.575 598.324)"/><path d="M0 0c-1.815-11.982-15.612-21.785-27.231-30.136-7.262-5.446-15.249-10.892-15.613-14.523 0-.726 0-1.452.727-2.178.363-.727.726-1.09 1.815-1.453 10.892-7.624 25.053 5.083 41.391 19.607 3.268 2.904 6.536 5.809 10.166 9.077zm-33.04-55.188c-3.268 0-6.536 1.089-9.44 3.267-1.09.727-2.179 1.453-2.542 2.542-1.089 1.452-1.815 3.268-1.452 5.083.726 5.446 7.987 10.893 17.428 17.428C-14.16-16.339 2.178-4.357-5.446 10.529l3.631 1.816 18.517-33.404-1.453-1.089c-3.994-3.268-7.624-6.535-11.255-9.803C-9.803-44.296-22.148-55.188-33.04-55.188" style="fill:#000;fill-opacity:1;fill-rule:nonzero;stroke:none" transform="translate(364.37 741.015)"/><path d="m0 0-7.625-15.612 21.422-5.81-6.535-13.434-21.422 5.81-6.536-13.434L.726-48.29l-6.535-13.071-21.422 5.81-6.899-13.434 21.422-5.81-6.535-13.434-21.422 5.81-9.44-18.517c-3.994 1.089-7.988 2.541-11.982 3.993L-12.345 3.631C-8.714 1.815-4.72.726 0 0" style="fill:#fff;fill-opacity:1;fill-rule:nonzero;stroke:none" transform="translate(815.679 700.35)"/><path d="M0 0c1.452 7.262-14.523 15.612-27.594 26.142l17.065 34.493c6.898-3.631 14.16-9.441 21.784-17.791l5.447-6.536z" style="fill:#fff;fill-opacity:1;fill-rule:nonzero;stroke:none" transform="translate(756.86 694.904)"/><path d="M0 0c4.357 5.809 14.886 6.535 27.957-.726L10.892-35.219C-1.089-25.416-10.166-13.797 0 0" style="fill:#d10a11;fill-opacity:1;fill-rule:nonzero;stroke:none" transform="translate(718.373 755.901)"/><path d="m0 0-50.105-100.21c-14.16 5.809-25.779 14.16-29.41 20.332l21.422 46.112 10.892 22.874c.727.726.727 1.452 1.09 2.178l17.064 35.945C-21.059 16.339-13.797 5.809 0 0" style="fill:#d10a11;fill-opacity:1;fill-rule:nonzero;stroke:none" transform="translate(803.334 703.98)"/><path d="M0 0c6.535-1.089 14.523-1.452 24.326-.726L13.797-21.785l-21.422 5.809Z" style="fill:#d10a11;fill-opacity:1;fill-rule:nonzero;stroke:none" transform="translate(815.679 700.35)"/><path d="m0 0 21.422-5.809-6.899-13.434-21.421 5.809z" style="fill:#d10a11;fill-opacity:1;fill-rule:nonzero;stroke:none" transform="translate(801.519 671.304)"/><path d="m0 0 21.422-5.809-6.536-13.434-21.784 5.809z" style="fill:#d10a11;fill-opacity:1;fill-rule:nonzero;stroke:none" transform="translate(788.085 644.799)"/><path d="m0 0-7.988-15.976c-7.624-.363-15.612.727-23.237 2.905l9.44 18.517z" style="fill:#d10a11;fill-opacity:1;fill-rule:nonzero;stroke:none" transform="translate(796.072 612.121)"/><path d="m0 0-9.44-18.88C-16.339-13.071-23.6-6.535-31.225 0l17.791 31.951C-19.969 19.243-11.255 8.714 0 0" style="fill:#fff;fill-opacity:1;fill-rule:nonzero;stroke:none" transform="translate(729.629 720.683)"/><path d="M0 0c-.363-.726-1.452-1.452-2.179-2.178-9.803-6.899-20.695 0-33.766 10.892l9.44 18.88C-11.982 16.339 5.809 7.262 0 0" style="fill:#d10a11;fill-opacity:1;fill-rule:nonzero;stroke:none" transform="translate(755.77 692.725)"/><path d="M0 0c7.262-9.803 36.308-26.505 61.361-25.779l49.742 98.758c-37.398-2.178-49.016 12.708-61.724 28.684-2.542 3.267-5.083 6.535-7.988 9.803-12.708 14.16-26.868 22.511-37.76 22.511H2.542c-3.631-.363-6.536-1.453-8.351-3.631-3.268-4.357-4.357-8.714-3.994-13.071 1.815-10.529 14.16-19.606 25.415-27.594 9.077-6.535 16.339-11.982 17.428-17.428.363-1.815-.363-3.631-1.452-5.083Zm59.545-29.773c-25.415 0-56.277 16.702-63.902 28.321l-.726 1.089.363 1.089 32.677 68.986c.726.726.726 1.452.726 2.178-.726 3.994-8.35 9.44-15.612 14.523-11.982 8.351-25.053 18.154-27.231 30.136-.726 5.446.726 10.892 4.72 15.975 2.178 3.268 6.172 5.084 11.255 5.447 11.982.726 27.958-8.351 41.755-23.964 2.904-3.267 5.809-6.535 8.351-9.803 12.707-16.338 23.963-30.136 61.723-26.868l3.631.363L63.539-29.773h-3.994" style="fill:#000;fill-opacity:1;fill-rule:nonzero;stroke:none" transform="translate(725.998 624.103)"/><path d="M0 0c3.631-2.905 6.898-5.809 10.166-8.714C26.505-23.237 40.665-35.945 51.557-28.32c.727.726 1.453 1.089 1.816 1.452.726.726.726 1.452.726 2.178-.726 3.994-8.351 9.441-15.612 14.524C26.868-1.815 13.071 7.988 11.255 19.969Zm44.296-35.219c-11.256 0-23.237 10.893-37.034 23.237C3.631-8.714 0-5.446-3.994-2.179l-1.452 1.09 18.517 33.403 3.631-1.815c-7.625-14.887 9.077-26.868 23.6-37.398 9.077-6.535 16.339-11.981 17.428-17.427.363-1.816-.363-3.631-1.452-5.447-.727-1.089-1.816-1.815-2.542-2.541-2.905-1.816-6.172-2.905-9.44-2.905" style="fill:#000;fill-opacity:1;fill-rule:nonzero;stroke:none" transform="translate(700.945 721.046)"/><path d="M0 0c-4.72-3.631-12.708-9.077-21.422-14.523v-71.164c10.167 6.172 20.333 12.708 30.136 17.791V5.809C5.083 3.631 2.179 1.452 0 0" style="fill:#fff;fill-opacity:1;fill-rule:nonzero;stroke:none" transform="translate(602.913 723.95)"/><path d="M0 0h-1.089l-10.167-76.973h1.09c8.351 0 15.975-2.905 23.237-6.899l22.874 70.075C25.053-5.809 13.071 0 0 0" style="fill:#fff;fill-opacity:1;fill-rule:nonzero;stroke:none" transform="translate(650.84 743.194)"/><path d="M0 0c-9.44-6.535-20.696 0-33.403 10.529l-29.773-62.086c11.982-10.53 22.874-19.244 33.04-15.25L2.179 1.815C1.815 1.452 1.089.726 0 0" style="fill:#fff;fill-opacity:1;fill-rule:nonzero;stroke:none" transform="translate(753.592 690.547)"/><path d="M0 0q-1.634 1.089-2.178 2.178l32.314-68.622c10.166-3.631 21.058 4.72 33.04 15.25L33.403 10.892C20.696 0 9.44-6.535 0 0" style="fill:#fff;fill-opacity:1;fill-rule:nonzero;stroke:none" transform="translate(322.978 690.547)"/><path d="M0 0c-2.905 0-6.899 1.089-11.255 2.542v-71.89C-7.262-70.801-3.268-71.527 0-71.527s7.262.726 11.255 2.179v71.89C6.899.726 2.905 0 0 0" style="fill:#fff;fill-opacity:1;fill-rule:nonzero;stroke:none" transform="translate(538.285 690.91)"/><path d="M0 0c-12.708 0-24.689-5.809-35.945-13.797l22.874-70.075c7.262 3.994 14.886 6.899 23.237 6.899h1.09L1.089 0Z" style="fill:#fff;fill-opacity:1;fill-rule:nonzero;stroke:none" transform="translate(425.73 743.194)"/><path d="M0 0c-2.178 1.815-5.083 3.631-8.351 5.809v-74.068c9.803-5.083 19.97-11.619 30.136-17.791v71.527C12.708-9.077 4.72-3.631 0 0" style="fill:#fff;fill-opacity:1;fill-rule:nonzero;stroke:none" transform="translate(473.657 723.95)"/><path d="M0 0v-71.164c11.255-6.898 22.148-13.071 31.588-16.339v71.527C22.148-12.708 10.166-6.535 0 0" style="fill:#d10a11;fill-opacity:1;fill-rule:nonzero;stroke:none" transform="translate(495.442 709.427)"/><path d="m0 0 10.166-76.973c7.988-.363 17.791-4.357 28.321-10.166v73.705C29.046-7.262 14.886-.363 0 0" style="fill:#d10a11;fill-opacity:1;fill-rule:nonzero;stroke:none" transform="translate(426.82 743.194)"/><path d="m0 0 29.773-62.087c7.987 6.899 16.701 14.523 26.504 19.97L33.403 28.32C21.059 19.606 10.166 8.714 0 0" style="fill:#d10a11;fill-opacity:1;fill-rule:nonzero;stroke:none" transform="translate(356.382 701.076)"/><path d="M0 0v-71.89c9.44 3.268 20.332 9.44 31.588 16.339v71.527C21.422 9.44 9.44 3.268 0 0" style="fill:#d10a11;fill-opacity:1;fill-rule:nonzero;stroke:none" transform="translate(549.54 693.452)"/><path d="M0 0v-74.068c10.529 5.809 20.333 9.803 28.32 10.166l10.167 76.973C23.6 13.071 9.803 6.172 0 0" style="fill:#d10a11;fill-opacity:1;fill-rule:nonzero;stroke:none" transform="translate(611.264 729.76)"/><path d="m0 0-22.874-70.075c9.44-5.446 18.154-13.071 26.505-19.969l29.772 62.087C23.237-19.606 11.982-8.714 0 0" style="fill:#d10a11;fill-opacity:1;fill-rule:nonzero;stroke:none" transform="translate(687.148 729.396)"/><path d="M0 0c14.16 0 34.13-12.345 53.373-24.326 18.154-11.256 36.671-22.511 49.016-22.511s30.862 11.618 49.016 22.511C170.648-12.345 190.617 0 204.777 0c19.244 0 35.219-13.797 49.38-25.779 11.981-10.529 22.511-19.606 31.951-16.701l29.046 61.36c-12.345-4.72-26.505 7.988-42.48 22.148-17.065 15.25-36.308 32.314-57.73 32.314-19.607 0-37.761-11.981-46.838-18.88-12.344-9.803-50.468-33.403-65.717-33.403-15.613 0-53.736 23.963-65.718 33.403-7.261 5.809-26.505 18.88-46.837 18.88-21.059 0-40.665-17.064-57.367-32.314-15.976-14.16-30.136-26.868-42.481-22.148l28.684-61.36c9.44-2.905 19.969 6.172 31.951 16.701C-35.219-13.434-19.243 0 0 0m102.389-50.831c-13.434 0-31.588 11.255-51.195 23.237C32.677-15.976 13.071-3.994 0-3.994c-17.791 0-33.04-13.071-46.837-25.052-13.434-11.619-25.053-21.785-37.035-17.065l-.726.363-32.677 69.348 3.631 1.816c.363-.363.726-1.09 1.452-1.453 10.892-7.624 25.053 5.083 41.391 19.607 17.428 15.612 37.398 33.403 60.272 33.403 20.695 0 39.939-12.345 49.379-19.969 11.981-9.803 49.742-32.678 63.176-32.678 13.797 0 50.831 22.511 63.176 32.678 9.44 7.261 28.683 19.969 49.379 19.969 22.874 0 42.843-17.791 60.271-33.403 16.339-14.524 30.499-27.231 41.391-19.607.726.727 1.453 1.09 1.816 1.453l3.631-2.179-32.678-69.348-.726-.363c-11.618-4.357-23.237 5.446-36.671 17.064S222.932-4.357 204.777-4.357c-13.07 0-32.677-11.982-51.194-23.6-19.606-11.619-37.76-22.874-51.194-22.874" style="fill:#000;fill-opacity:1;fill-rule:nonzero;stroke:none" transform="translate(435.896 668.036)"/><path d="M0 0c66.807 0 120.906 29.41 120.906 65.355 0 36.308-54.099 65.354-120.906 65.354S-120.906 101.3-120.906 65.355C-120.543 29.41-66.444 0 0 0" style="fill:#000;fill-opacity:1;fill-rule:nonzero;stroke:none" transform="translate(539.374 760.985)"/><path d="M0 0c-66.081 0-119.817-29.047-119.817-64.265 0-35.582 53.736-64.266 119.817-64.266s119.817 29.047 119.817 64.266C119.817-28.683 66.081 0 0 0m0-130.709c-67.17 0-121.632 29.773-121.632 66.444S-67.17 2.178 0 2.178s121.632-29.772 121.632-66.443C121.995-100.936 67.17-130.709 0-130.709" style="fill:#fff;fill-opacity:1;fill-rule:nonzero;stroke:none" transform="translate(539.374 890.604)"/><path d="M0 0c59.182 0 107.472 24.69 107.472 54.825S59.545 109.65 0 109.65s-107.472-24.689-107.472-54.825C-107.472 24.69-59.545 0 0 0" style="fill:#fcc200;fill-opacity:1;fill-rule:nonzero;stroke:none" transform="translate(539.737 771.514)"/><path d="M0 0c48.29 0 87.502 15.612 87.502 34.856C87.502 54.099 48.29 69.711 0 69.711s-87.502-15.612-87.502-34.855C-87.502 15.612-48.29 0 0 0" style="fill:#fff;fill-opacity:1;fill-rule:nonzero;stroke:none" transform="translate(539.737 784.585)"/><path d="M0 0c-49.016 0-83.509-16.339-83.509-30.862S-49.379-61.724 0-61.724c49.016 0 83.509 16.339 83.509 30.862C83.146-16.339 49.016 0 0 0m0-70.075c-51.194 0-91.496 17.065-91.496 39.213 0 21.785 40.302 38.85 91.496 38.85s91.496-17.065 91.496-38.85C91.496-53.01 51.194-70.075 0-70.075" style="fill:#000;fill-opacity:1;fill-rule:nonzero;stroke:none" transform="translate(539.737 850.665)"/><path d="M0 0c-46.474 0-84.235-37.76-84.235-84.235 0-46.474 37.761-84.234 84.235-84.234h-1.089c46.474 0 84.235 37.76 84.235 84.234C83.146-37.76 45.385 0-1.089 0Z" style="fill:#fff;fill-opacity:1;fill-rule:nonzero;stroke:none" transform="translate(539.374 844.493)"/><path d="M0 0c-45.022-.363-81.693-37.034-81.693-82.419S-45.022-164.112 0-164.476c45.022.364 81.693 37.035 81.693 82.057S45.022-.363 0 0m.363-168.469H-.726c-46.838.726-84.961 39.212-84.961 86.05S-47.564 3.268-.726 3.631H.363c46.838-.726 84.961-38.85 84.961-86.05 0-47.201-38.123-85.324-84.961-86.05" style="fill:#000;fill-opacity:1;fill-rule:nonzero;stroke:none" transform="translate(539.011 842.678)"/><path d="m0 0-17.428 29.41-31.588 5.083-7.625-10.167c.364-.363.727-1.089 1.09-1.452l1.452-1.815C-43.57 6.172-28.32-5.446-10.166-10.892l3.268-.727z" style="fill:#000;fill-opacity:1;fill-rule:nonzero;stroke:none" transform="translate(525.214 690.91)"/><path d="m0 0 13.434-41.754h43.207L70.075 0 34.856 25.779Z" style="fill:#000;fill-opacity:1;fill-rule:nonzero;stroke:none" transform="translate(503.792 771.877)"/><path d="m0 0 26.142 17.065v8.351Q13.615 29.773 0 29.773t-26.142-4.357v-8.351z" style="fill:#000;fill-opacity:1;fill-rule:nonzero;stroke:none" transform="translate(538.648 814.357)"/><path d="m0 0 1.089 33.403-6.898 5.447c-3.631-2.905-6.899-6.536-9.803-9.804l-.364-.363c-9.44-11.618-15.975-26.141-18.154-41.754l7.625-3.268z" style="fill:#000;fill-opacity:1;fill-rule:nonzero;stroke:none" transform="translate(490.358 785.311)"/><path d="m0 0-17.428-29.41 7.625-11.618 3.268.726c18.154 5.446 33.766 17.428 44.658 32.677l.727 1.09c.363.726.726 1.089 1.089 1.815L31.951 5.446Z" style="fill:#000;fill-opacity:1;fill-rule:nonzero;stroke:none" transform="translate(569.51 720.32)"/><path d="m0 0 26.505-16.702 7.625 3.268c-2.179 15.613-8.714 30.136-18.154 42.117-2.905 3.631-6.536 6.899-9.804 10.167l-6.898-5.447z" style="fill:#000;fill-opacity:1;fill-rule:nonzero;stroke:none" transform="translate(587.301 785.311)"/></g></svg>