<?xml version="1.0" encoding="UTF-8"?>
<svg id="Layer_2" data-name="Layer 2" xmlns="http://www.w3.org/2000/svg" viewBox="0 0 458.82 532.8">
  <defs>
    <style>
      .cls-1 {
        fill: #a8d4dd;
      }

      .cls-1, .cls-2, .cls-3, .cls-4, .cls-5, .cls-6, .cls-7, .cls-8, .cls-9, .cls-10, .cls-11, .cls-12, .cls-13, .cls-14, .cls-15 {
        fill-rule: evenodd;
        stroke-width: 0px;
      }

      .cls-2 {
        fill: #edcdaa;
      }

      .cls-3 {
        fill: #58595b;
      }

      .cls-4 {
        fill: #f6a028;
      }

      .cls-5 {
        fill: #6d6e71;
      }

      .cls-6 {
        fill: #fffef9;
      }

      .cls-7 {
        fill: #919396;
      }

      .cls-8 {
        fill: #2f9350;
      }

      .cls-9 {
        fill: #ed2129;
      }

      .cls-10 {
        fill: #fabe44;
      }

      .cls-11 {
        fill: #231f20;
      }

      .cls-12 {
        fill: #0e5e96;
      }

      .cls-13 {
        fill: #fbe022;
      }

      .cls-14 {
        fill: #fff;
      }

      .cls-15 {
        fill: #e4e5e6;
      }
    </style>
  </defs>
  <g id="Layer_1-2" data-name="Layer 1">
    <g>
      <path class="cls-11" d="M66.76,237.87l.91.77c1.93,1.71,4.08,3.57,6.56,4.69-3.16,4-4.86,8.74-4.86,14.12v.15c-.91,1.07-2.39,1.82-3.9,2.56l-1.1.53c-2.8,1.17-6.15.69-9.36.27,0,0-.73-.11-1.01-.16-.41-.16-1.79-.75-1.79-.75-2.25-1.01-4.4-1.92-5.92-3.46-.64-.58-1.15-1.33-1.7-2.18-1.19-1.76-2.57-3.79-5.09-4.42l-.69-.16-.6.32c-1.74,1.01-2.06,2.66-2.06,4.1,0,.48,0,.91.05,1.33.04.43.09.85.09,1.23,0,.21-.05.37-.05.58l-.04.21v.16c.55,7.62,3.58,13.85,8.58,17.63.05.05,2.89,2.13,2.89,2.13,2.52,1.92,5.19,3.94,8.26,5.06l.18.05h.18c1.28.22,2.48.7,3.81,1.28,1.05.48,2.2.9,3.44,1.17.23,1.12.55,2.77.55,2.77.41,1.81.83,3.57,1.06,5.33,0,0,.05.53.09.96v1.01l.05.21c.73,2.88,1.1,5.76,1.1,8.37v1.07l-.09,3.46s-.14,2.72-.14,3.04c-.05.27-.51,3.19-.51,3.19-.37,2.67-.73,5.22-1.88,7.41l-.04.22-.28.53-1.42,3.83,2.89-.37,1.06-.05h.83c7.11-1.65,13.4-5.11,18.03-9.7.92,1.17,1.97,2.24,2.98,3.14l2.02,1.92c.09.11,2.98,2.56,2.98,2.56.96.75,1.88,1.5,2.71,2.35l.09.1,1.88,1.38c1.74,1.28,3.49,2.56,5.37,3.62.32.32,1.15,1.12,1.15,1.12.92.85,1.74,1.6,1.83,2.51l.09,1.07h.09c.64,3.62,1.37,7.62,1.37,11.51s-.78,7.83-3.17,10.92c-3.17,4.42-8.3,7.04-16.2,8.26l-.5.05-1.42,1.28v.91c0,2.13,1.33,3.57,2.34,4.64l.09.11.14.05c4.86,3.73,12.67,4.37,18.95,1.6,5.64-2.5,10.97-5.22,14.18-10.5.88-.74,1.47-1.65,1.88-2.45.27-.53.55-1.02.87-1.33l.14-.22.09-.21c.69-1.34,1.29-2.66,1.79-3.89.09.32.37,1.97.41,2.08.28,3.14.6,5.91,1.01,8.52l.05.22s.05.1.09.22v.59c0,.48.05,1.17.51,1.81l.73,1.07,1.6-.58,1.79-.85-.04-.05c.18-.1.32-.21.5-.32,7.62,54.5,33.95,80.77,54.92,93.19,23.17,13.69,44.32,13.96,45.24,13.96h.32c46.43-9.16,69.46-41.08,80.61-66.17,9.54-21.47,12.25-41.77,12.94-49.45.05.06.09.11.09.11.33.32.6.8.88,1.33.41.79,1.01,1.71,1.88,2.45,3.22,5.28,8.54,8,14.18,10.5,6.28,2.77,14.08,2.13,18.95-1.6l.09-.05.1-.11c1.01-1.07,2.38-2.5,2.38-4.64v-.91l-1.42-1.28-.5-.05c-7.9-1.22-13.03-3.84-16.15-8.2-2.43-3.09-3.22-6.98-3.22-10.98s.74-7.88,1.38-11.51h.09l.1-1.07c.09-.9.91-1.65,1.83-2.51,0,0,.83-.8,1.16-1.12,1.87-1.07,3.62-2.34,5.32-3.62l1.88-1.38.13-.1c.83-.85,1.75-1.6,2.71-2.35l2.89-2.45c.05-.11,2.06-2.03,2.06-2.03,1.05-.9,2.11-1.97,3.03-3.14,4.63,4.59,10.92,8.05,18.03,9.7h.83l3.53.1-.46-2.02-.56-1.49-.26-.59-.1-.16c-1.1-2.18-1.47-4.74-1.83-7.41,0,0-.46-2.93-.51-3.19,0-.32-.15-3.04-.15-3.04l-.09-3.46v-1.07c0-2.61.37-5.49,1.11-8.37l.04-.21s0-.64-.04-1.01c.09-.43.14-.96.14-.96.22-1.76.64-3.52,1.05-5.33,0,0,.33-1.65.55-2.77,1.25-.27,2.39-.69,3.44-1.17,1.33-.58,2.53-1.07,3.81-1.28h.19l.18-.05c3.08-1.12,5.73-3.14,8.26-5.06l2.85-2.08c5.05-3.83,8.07-10.07,8.58-17.68l.05-.16-.05-.21c0-.22-.05-.38-.05-.58,0-.38.05-.8.1-1.23.05-.42.05-.85.05-1.33,0-1.44-.32-3.09-2.11-4.1l-.59-.32-.65.16c-2.52.64-3.9,2.67-5.09,4.42-.55.85-1.05,1.6-1.65,2.13-1.57,1.59-3.72,2.51-5.97,3.51,0,0-1.38.59-1.79.75-.32.05-1.01.16-1.01.16-3.26.42-6.56.9-9.45-.33-.05,0-1.01-.47-1.01-.47-1.51-.75-3.02-1.5-3.9-2.56v-.15c0-5.38-1.7-10.12-4.86-14.12,2.48-1.12,4.63-2.98,6.56-4.69l.88-.77h-5.17c-1.72,1.39-3.51,2.57-5.44,2.96l-3.07.58,2.15,2.24c3.67,3.79,5.56,8.42,5.56,13.8v.53l.09.95.27.38c1.33,1.91,3.53,2.92,5.42,3.89l1.05.53c3.9,1.65,7.9,1.07,11.38.53l1.47-.16.28-.11,1.87-.85c2.53-1.06,5.09-2.13,7.07-4.21.78-.74,1.42-1.71,2.07-2.61.68-1.07,1.38-2.08,2.19-2.67.05.16.09.27.09.48,0,.27-.04.7-.09,1.17-.04.43-.04.96-.04,1.5,0,.27,0,.53.04.79-.36,4.69-1.88,11.08-7.25,15.08.09,0-2.85,2.13-2.85,2.13-2.48,1.87-4.77,3.68-7.38,4.59l.32-.11c-1.7.27-3.21.9-4.68,1.55-1.28.53-2.48,1.07-3.76,1.22l-1.2.22-1.01,4.85c-.32,1.33-.59,2.77-.88,4.21h-.46s.09,3.25.09,3.52c-.73,3.04-1.15,6.13-1.15,8.9,0,.37,0,.69.05,1.01v-.11l.09,3.84.15,3.09v.22l.5,3.19c.31,2.45.73,5.01,1.74,7.41-6.56-1.76-12.39-5.06-16.38-9.54l-.96-1.07-2.06,1.28-.19.38c-.73,1.33-1.93,2.39-3.25,3.57l-2.29,2.19c.09-.05-2.48,2.13-2.48,2.13-.96.75-1.98,1.54-2.94,2.56-.13.1-1.69,1.22-1.69,1.22-1.79,1.28-3.45,2.56-5.23,3.52l-.19.11-.27.27-1.1,1.07c-1.06,1.01-2.29,2.24-2.75,4-.19.32-.37.69-.37,1.22,0,.1.05.22.05.32-.64,3.57-1.42,7.78-1.42,11.99,0,4.64.92,9.27,3.9,13.05,4.45,6.23,11.61,8.31,17.12,9.27-.23.43-.59.85-1.05,1.33-3.85,2.93-10.33,3.36-15.42,1.12-5.18-2.29-10.05-4.74-12.71-9.27l-.23-.33-.32-.21c-.5-.32-.83-.91-1.2-1.65-.32-.53-.64-1.17-1.14-1.75-1.15-2.35-2.07-4.54-2.71-6.61l-3.35.53.14,4.74c0,.11-1.15,24.88-12.94,51.41-15.74,35.38-41.98,56.9-77.99,64.1-1.75-.05-21.98-.85-43.45-13.64-20.65-12.25-46.66-38.36-53.59-93.35l-.32-2.56-2.25,1.33c-.69.42-1.47,1.01-2.29,1.6-.37-2.5-.69-5.17-.96-8.21v-.05l-.46-2.45-.05-.16-.28-1.65c-.04-.11-.78-4.05-.78-4.05l-.23-1.39h-2.98l-.32,1.28c-.64,2.88-1.74,5.81-3.44,9.17-.46.53-.83,1.17-1.1,1.7-.41.74-.69,1.33-1.19,1.65l-.32.21-.23.33c-2.66,4.52-7.52,6.98-12.71,9.27-5.09,2.24-11.56,1.81-15.42-1.12-.46-.48-.83-.9-1.05-1.33,5.5-.95,12.66-3.04,17.11-9.32,2.98-3.73,3.9-8.31,3.9-12.95,0-4.21-.78-8.42-1.42-11.99v-.32c0-.53-.14-.96-.32-1.22-.41-1.82-1.7-3.04-2.75-4.05l-1.29-1.22-.27-.21c-1.79-.95-3.44-2.24-5.23-3.52,0,0-1.56-1.12-1.7-1.22-.96-1.01-1.97-1.81-2.94-2.56l-2.57-2.19c.09.05-2.2-2.13-2.2-2.13-1.33-1.17-2.52-2.24-3.26-3.57l-.23-.38-2.02-1.28-.96,1.07c-3.99,4.48-9.82,7.77-16.38,9.54,1.01-2.4,1.37-4.96,1.74-7.41l.5-3.3v-.21l.14-2.99.09-3.84v.11c.05-.33.05-.65.05-1.01,0-2.82-.42-5.86-1.15-8.9,0-.27.09-3.52.09-3.52h-.46c-.28-1.44-.55-2.88-.87-4.21l-1.01-4.85-1.19-.22c-1.29-.15-2.48-.69-3.76-1.22-1.47-.65-2.98-1.28-4.73-1.55l.37.11c-2.62-.91-4.91-2.72-7.39-4.59l-2.94-2.13c-5.28-4-6.84-10.39-7.16-15.08.05-.26.05-.53.05-.79,0-.53-.05-1.07-.05-1.5-.04-.47-.09-.9-.09-1.17,0-.22.04-.32.09-.48.83.58,1.47,1.6,2.2,2.67.64.9,1.29,1.87,2.11,2.66,1.93,2.03,4.49,3.1,6.97,4.16l2.15.91.28.05,1.19.16c3.53.53,7.53,1.12,11.29-.48.09-.06,1.19-.59,1.19-.59,1.88-.96,4.09-1.98,5.42-3.89l.28-.38.09-.95v-.53c0-5.38,1.83-10.02,5.51-13.8l2.2-2.24-3.07-.58c-1.93-.38-3.72-1.57-5.44-2.96h-5.21ZM66.89,323.3l-.09.16s.05-.06.05-.11l.04-.05h0ZM106.04,335.24l239.87.05v.05-.05l-239.87-.05h0ZM385.04,323.3l.05.05c0,.05,0,.11.04.11l-.09-.16h0Z"/>
      <path class="cls-11" d="M225.97.05c-3.32.19-6.7.88-9.91,2.45l-.05.05s-.09.05-.18.05l.05.06c-1.33.53-2.52,1.33-3.53,2.45l.32-.27c-.91.59-1.79,1.33-2.75,2.19-1.33,1.23-2.02,2.77-2.43,4-2.34,3.24-2.89,7.35-2.89,10.39,0,1.27.09,2.39.18,3.14l.05.16.05.15c1.7,5.28,4.17,9.38,7.52,12.52,0,0,1.1,1.01,1.83,1.65v9.22h-4.63c.18-.91.32-1.87.32-2.82,0-6.18-4.49-11.24-10.05-11.24s-9.59,4.63-10,10.44c-1.19-.58-2.48-.85-3.81-.85-5.55,0-10.1,5.06-10.1,11.24s4.54,11.25,10.1,11.25c1.29,0,2.57-.27,3.76-.85.14,6.13,4.59,11.03,10.05,11.03,3.71,0,6.97-2.34,8.67-5.7.04,2.29.27,4.58,1.06,6.87v.11l1.37,2.66c1.06,1.97,2.11,4,3.26,5.91v27.55c-1.51-2.39-2.98-8.47-3.62-13.74l-.19-1.65-8.95.69-.32,1.18c-3.03,11.51-5.6,11.82-5.92,11.82-2.02,0-5.23-6.55-6.79-12.41l-.55-2.08-11.24,6.13s7.62,24.03,8.17,25.79c-.37.21-.83.53-.83.53-4.77,2.99-8.63,8.42-11.47,13.22v-.75c0-2.39-.14-5.01-.69-7.88.05-.11.18-2.45.18-2.45.09-.91.19-1.92.19-2.88,0-1.81-.32-3.62-1.56-5.22l-.83-1.07-.92.48-1.33.58c-1.46.96-2.75,1.97-3.99,2.99-1.74,1.33-3.35,2.61-5.23,3.57l-.14.1-4.77,3.68c-2.98,2.29-6.1,4.69-8.9,7.25.18-.53.32-1.01.32-1.01-.05.06.05-.21.05-.21.6-1.87,1.24-3.79,1.51-5.86v.16l.32-1.44-.14-.05c.18-.58.27-1.12.32-1.6l.09-.69-2.94.27s-.09-.22-.14-.43c.09,0,3.26.05,3.26.05v-.05h.09v-7.3h-.27c0-.1-.05-1.07-.05-1.07l-.09.32c.05-.53.09-1.01.09-1.49,0-2.4-.73-4.37-1.42-6.29l-.64-1.91s-.19-.16-.32-.27c0-.11.05-.22.05-.22l-.74-1.28c-1.88-3.46-3.81-7.03-7.43-9.54l-.09-.1-2.39-1.18.41.27c-.78-.69-1.61-.79-2.2-.85l-.37-.05.14.05-.23-.1-.41-.21c-4.96-1.39-9.73-.69-14.31-.05l-.23.05-.23.11c-2.02.91-3.9,1.44-5.74,1.65l-.14.05h-.09c-2.38.69-4.68.1-7.11-.48-1.37-.32-2.75-.64-4.22-.8-5.1-.27-10.37-.32-15.14,1.39-.65.05-1.38.05-2.07.48l-1.14.64.37,1.34c.46,1.33,1.42,2.07,2.25,2.72.41.32.87.64.96.95l.18.43.37.27c1.65,1.28,2.89,2.93,4.22,4.68,1.15,1.6,2.39,3.25,4.04,4.74.69,1.07,1.56,1.92,2.34,2.62.64.59,1.19,1.12,1.65,1.76.09.96.18,1.92.18,2.82,0,3.62-.78,7.25-1.56,10.76l-.23,1.12s.05.1.05.16c-.28.8-.78,2.24-.78,2.24,0,0-1.29,3.84-1.33,4-1.01,1.81-1.7,3.78-2.34,5.65,0,0-.73,2.13-.78,2.29-2.2,3.31-3.16,7.03-4.04,10.6l-.96,3.84-.05.1-.41,2.19c-.37,1.82-.74,3.68-.74,5.76,0,.64.05,1.33.14,2.02v-.11c.18,4.68,1.14,9.32,2.75,13.16l-.05-.27c1.19,4.85,4.22,9.37,8.81,13.53-1.1,2.93-3.58,5.91-7.11,8.26-3.85,2.45-8.21,3.78-12.57,3.89h-.37l-.41.22h-.23c-.09,0-.28,0-.46.05-.05-.05-.14-.11-.14-.11h-.64c-1.83.11-3.67-.53-5.64-1.22,0,0-1.52-.48-1.88-.59-1.19-.8-2.29-1.38-3.39-1.92l-.18-.1s-.14-.06-.23-.06l-.51-.32c-.55-.37-1.33-.85-2.2-.85-.14-.59-.28-1.28-.28-1.28,0,0-.6.91-1.19,1.81-.46.38-.83.85-1.05,1.55l-.05.15s-.05.11-.05.16c-.23.59-.32,1.33-.32,2.61v.05c-.05.38-.09.75-.09,1.23,0,.53.04,1.17.18,1.81l-.05-.32c.19,3.89,1.19,6.39,2.48,9.54l.37.96-.05-.16c.83,2.67,2.84,5.91,6.24,9.86l.05.11.6.51h5.21c-.69-.56-1.37-1.15-2.04-1.73,0,0-1.1-.96-1.33-1.12-2.94-3.57-4.82-6.45-5.46-8.63l-.05-.06-.41-1.01c-1.24-3.09-2.06-5.12-2.2-8.42v-.16l-.05-.16c-.09-.32-.09-.64-.09-1.01,0-.27,0-.59.05-.96l.04-.1v-.22c0-.8,0-1.12.05-1.22.45.32.96.58,1.56.69l-.46-.16c1.06.59,2.11,1.12,3.21,1.86l.18.16,2.3.75c1.97.64,3.99,1.27,6.19,1.32.18.16.6.48.6.48,0,0,.69-.27,1.01-.37h.14c.32,0,.83-.05,1.42-.27,4.91-.16,9.73-1.65,14.04-4.42,2.71-1.81,7.43-5.59,8.9-11.03l.27-1.06-.78-.7c-4.63-3.94-7.53-8.2-8.67-12.68l-.05-.11-.05-.1c-1.42-3.41-2.34-7.73-2.52-11.99v-.16c-.05-.53-.09-1.06-.09-1.59,0-1.7.32-3.36.69-5.06,0,0,.37-2.03.41-2.24.05-.16.96-3.79.96-3.79.87-3.57,1.7-6.93,3.67-9.75l.14-.16.92-2.66c.64-1.92,1.29-3.73,2.16-5.38l.09-.11,1.42-4.16,1.24-3.62s-.09-.16-.19-.32c.83-3.68,1.65-7.46,1.65-11.4,0-1.22-.09-2.51-.28-3.78l-.04-.32-.19-.33c-.69-1.12-1.65-1.97-2.48-2.71-.73-.65-1.47-1.28-1.88-2.08l-.14-.21-.18-.21c-1.47-1.28-2.57-2.77-3.72-4.32-1.33-1.81-2.75-3.68-4.68-5.22-.37-.59-.73-1.02-1.14-1.39,3.94-1.23,8.35-1.18,12.85-.96,1.14.11,2.39.43,3.71.75,2.71.64,5.55,1.33,8.81.42l-.28.06c2.11-.27,4.18-.86,6.38-1.82,4.4-.64,8.58-1.22,12.8-.05.5.27,1.06.42,1.42.42l.37.06c.05.05.28.21.28.21,0,0,1.83.91,2.11,1.07,2.94,2.08,4.59,5.11,6.33,8.31,0,0,.19.32.32.53.09.53.32.96.69,1.39.14.37.46,1.27.46,1.27.64,1.82,1.19,3.36,1.19,5.17,0,.37,0,.69-.05,1.07l-.05.1.14.21v.9l.23,3.52h.05v2.66c-.05.22-.32,1.65-.32,1.65l-.14.7-.14.32-.09.48-.05.37v.22l.05.05c-.05.15-.09.48-.09.48l-.05.1c-.22,1.81-.78,3.52-1.37,5.33l-.09.27c0,.05-.74,2.45-.74,2.45-.04.11-.09.27-.09.27-.69,2.07-1.14,2.98-1.37,3.46l-2.75,4.64,4.91-2.24c1.29-.64,2.39-1.7,3.39-2.62,0,0,.23-.26.5-.47.37-.16.74-.38,1.1-.91.09-.05.23-.1.23-.1,2.66-2.45,5.73-4.79,8.72-7.08,0,0,4.49-3.47,4.63-3.57,2.06-1.07,3.85-2.45,5.51-3.79,1.01-.8,1.97-1.49,2.98-2.18.14.53.23,1.12.23,1.71,0,.85-.09,1.7-.19,2.61l-.23,3.04.05.1c.46,2.35.69,4.64.69,7.57,0,.43,0,.91-.04,1.33v.53l.27.43c.51.79.83,1.75.92,2.98l.51,5.7,2.66-5.06c2.75-5.12,6.97-12.26,12.3-15.61l6.7-3.89s-3.62-.48-4.45-.59c-.6-1.82-6.56-20.73-7.3-23.02,1.28-.69,3.26-1.81,5.05-2.77,1.42,4.64,4.68,12.89,9.45,12.89,3.54-.05,6.38-4.26,8.85-13.21,1.06-.05,2.07-.16,3.4-.27.55,4.16,2.25,13.54,5.87,15.66,1.01.59,2.11.7,3.21.22l1.06-.43v-32.13l-.28-.37c-1.19-2.02-2.3-4.16-3.35-6.18,0,0-1.06-2.08-1.24-2.35-.64-2.08-.87-4.26-.87-6.45,0-1.6.09-3.14.23-4.74v-.27c.05-.42.14-.85.27-1.22l.19-.37-.05-.43v-.1c0-.58.37-1.23.78-1.92l1.42-2.56h-10.65l1.38,2.5c.69,1.28,1.06,2.71,1.06,4.26,0,4.31-2.98,7.83-6.65,7.83s-6.7-3.52-6.7-7.83c0-1.02.18-2.02.5-2.99l-2.89-1.65c-1.29,1.5-2.94,2.35-4.73,2.35-3.67,0-6.7-3.52-6.7-7.89s3.03-7.88,6.7-7.88c1.65,0,3.26.75,4.54,2.13l4.54,4.95-1.69-6.5c-.18-.74-.28-1.54-.28-2.29,0-4.32,3.03-7.88,6.7-7.88s6.65,3.57,6.65,7.88c0,1.33-.28,2.67-.83,3.79l-1.1,2.45h13.03v-14.12l-2.94-2.62c-2.89-2.71-5-6.28-6.56-10.97-.09-.85-.14-1.75-.14-2.56,0-3.52.83-6.66,2.39-8.74l.19-.22.09-.27c.42-1.28.92-2.08,1.56-2.72.83-.69,1.56-1.34,2.34-1.87l.19-.1.14-.16c.73-.79,1.65-1.44,2.66-1.76h.05v-.05c2.68-1.34,5.53-1.95,8.39-2.13V.05h0ZM59.74,212.64c.09.05.55.32.55.32.04,0,.09.06.14.11,0,.05-.04.1-.04.1,0,0-2.57-.37-2.89-.42.23,0,1.37-.06,2.25-.11h0ZM60.01,212.64h-.18.18ZM132.09,103.31l.09.06s-.09-.06-.09-.06h0ZM145.26,141.35s-.37.27-.73.53h-.05c.05-.06.05-.11.05-.16.09-.05.73-.37.73-.37h0ZM146.13,144.55c-.04.05-.14.11-.14.11l.14-.11h0ZM167.47,124.19l.09-.05s.09-.05.09-.05l-.19.1h0Z"/>
      <path class="cls-11" d="M225.97.05c3.99-.22,7.88.29,11.24.9,4.86.86,9.04,3.04,13.08,5.12,0,0,.23.1.5.27l.05-.11c3.53,1.55,6.24,3.52,8.25,5.97,1.84,2.18,2.94,4.96,3.48,8.63.6,3.83-.73,7.2-3.57,9.05-2.62,1.65-6.02,1.71-8.82.11l-.18-.06-.13-.15c-2.76-2.45-5.93-4.96-9.73-7.78v17.53c.56.37,1.15.8,1.15.8,1.93,1.33,3.9,2.77,5.54,4.74.19-6.02,4.59-10.87,10.05-10.87s9.59,4.63,9.96,10.44c1.2-.58,2.53-.85,3.85-.85,5.56,0,10.05,5.06,10.05,11.24s-4.5,11.25-10.05,11.25c-1.32,0-2.61-.27-3.81-.8-.13,6.08-4.53,10.97-10,10.97s-10.09-5.06-10.09-11.24c0-1.17.24-2.29.51-3.41h-1.93c-.5.79-1.47,2.24-1.47,2.24l-.42.21c-.64.32-2.02.69-3.35.64v17.95c1.38,1.07,2.57,2.19,3.54,3.41l2.56,3.67s.92,1.45.92,1.5c2.38,3.57,2.71,7.62,2.75,10.71v.22l-.05.22c-.33,1.12-.87,2.66-1.75,4.04.96,10.5,3.16,11.51,3.62,11.62,2.02.37,6.19-5.22,8.81-10.71l.96-1.97,10,8.48s-17.25,24.3-17.48,24.67c1.01,1.33,2.25,3.09,2.66,3.62,2.66.8,5.27,1.92,7.57,3.47,6.79,4.48,10.05,11.99,11.56,17.52l1.29,4.64c1.88,7.3,3.85,14.18,7.57,20.3.5-.38,1.01-.8,1.01-.8,1.05-.75,2.06-1.49,2.89-2.29l.18-.16.18-.15c.19-.22.56-.43,1.02-.65.64-.74,1.33-1.27,1.97-1.7.46-.37.87-.69,1.24-1.07-.6-.74-1.33-1.49-2.16-2.18,0,0-1.65-1.5-1.61-1.45l-2.7-2.12c-3.22-2.35-7.2-5.33-7.44-10.18l.05.38c-.1-.43-.14-.8-.14-1.18,0-1.22.55-2.24.96-3.03,0,0,.05-.16.09-.22-.18-.8-.73-2.82-.73-2.82l-.78-2.93-.05-.15-.23-2.77c-.14-1.23-.27-2.5-.27-3.79,0-1.81.33-3.62,1.24-5.33,0-.37-.05-.7-.05-1.07,0-2.39.19-5.01.69-7.88,0-.11-.13-2.45-.13-2.45-.1-.91-.19-1.92-.19-2.88,0-1.81.28-3.62,1.56-5.22l.5-1.17,2.57,1.17c1.47.96,2.76,1.97,3.99,2.99,1.71,1.33,3.31,2.61,5.23,3.57l.14.1,4.73,3.68c3.03,2.29,6.15,4.69,8.94,7.25-.18-.53-.32-.96-.27-.96l-.1-.27c-.6-1.82-1.24-3.79-1.52-5.86v.16l-.31-1.44.14-.05c-.18-.58-.28-1.12-.33-1.6l-.09-.69,2.93.32s.1-.27.14-.48h-3.25l-.05.05v-.05h-.05v-7.3h.28v-1.07l.14.32c-.05-.53-.1-1.01-.1-1.49,0-2.4.74-4.37,1.42-6.29l.5-1.49.32-.59s.05-.05.14-.1c0-.11-.05-.22-.05-.22l.74-1.28c1.88-3.46,3.81-7.03,7.42-9.54l.1-.1,2.39-1.18-.42.27c.78-.69,1.61-.79,2.15-.85l.37-.05c.14-.05.32-.16.32-.16l.23-.11c4.96-1.39,9.73-.69,14.31-.05l.23.05.23.11c2.02.91,3.9,1.44,5.73,1.65l.13.05h.1c2.39.69,4.68.1,7.11-.48,1.32-.32,2.75-.64,4.31-.8,5-.27,10.23-.32,15.01,1.39.64.05,1.42.05,2.06.48l1.2.64-.41,1.34c-.42,1.33-1.38,2.07-2.21,2.72-.46.32-.87.64-.96.95l-.18.43-.37.27c-1.65,1.28-2.89,2.93-4.22,4.68-1.19,1.6-2.39,3.25-4.03,4.74-.7,1.07-1.56,1.92-2.34,2.62-.65.59-1.19,1.12-1.65,1.76-.14.96-.19,1.92-.19,2.88,0,3.57.79,7.19,1.56,10.76l.24,1.12s-.05.05-.05.1c.27.8.77,2.24.77,2.24,0,0,1.29,3.84,1.33,4,1.01,1.81,1.7,3.78,2.34,5.65,0,0,.73,2.13.78,2.29,2.19,3.31,3.11,7.03,3.99,10.6l1.01,3.79v.1l.42,2.24c.37,1.82.78,3.68.78,5.76,0,.64-.05,1.33-.15,2.02v-.11c-.18,4.68-1.14,9.32-2.79,13.16l.1-.27c-1.2,4.85-4.22,9.37-8.82,13.53,1.06,2.93,3.59,5.91,7.07,8.26,3.9,2.45,8.25,3.78,12.62,3.89l.46.05.32.16h.23c.1,0,.28,0,.46.05.05-.05.14-.11.14-.11h.59c1.88.11,3.72-.53,5.69-1.22,0,0,1.51-.48,1.88-.59,1.19-.8,2.3-1.38,3.39-1.92l.23-.1.19-.06.5-.32c.55-.37,1.29-.85,2.16-.85.14-.59.32-1.33.32-1.33,0,0,.6.96,1.2,1.87.46.38.82.85,1.05,1.55l.04.21s0,.06.05.11c.23.59.33,1.33.33,2.61v.05c.04.38.09.75.09,1.23,0,.53-.04,1.17-.23,1.81l.05-.32c-.14,3.89-1.15,6.39-2.43,9.54l-.36.96.04-.16c-.83,2.67-2.85,5.91-6.24,9.86l-.1.11-.58.51h-5.17c.69-.56,1.37-1.15,2.04-1.73,0,0,1.09-.96,1.32-1.12,2.94-3.57,4.82-6.45,5.46-8.63l.05-.06.42-1.01c1.24-3.09,2.06-5.12,2.2-8.42v-.16l.05-.16c.05-.32.09-.64.09-1.01,0-.27,0-.59-.04-.96l-.05-.1v-.16c0-.85-.05-1.12-.05-1.27-.46.32-.96.58-1.61.69l.51-.16c-1.05.59-2.15,1.12-3.21,1.86l-.28.16-2.21.75c-2.06.69-4.12,1.39-6.46,1.39-.33.1-.7.27-.7.27,0,0-.36-.16-.64-.22h-.13c-.33,0-.83-.05-1.42-.27-4.91-.16-9.74-1.65-14.09-4.42-2.66-1.81-7.38-5.65-8.85-11.03l-.32-1.06.83-.7c4.63-3.94,7.52-8.2,8.67-12.68v-.11l.09-.1c1.42-3.41,2.34-7.73,2.48-11.99v-.05l.05-.11c.05-.53.09-1.06.09-1.59,0-1.7-.32-3.36-.69-5.06,0,0-.37-2.03-.42-2.24-.04-.16-.96-3.79-.96-3.79-.87-3.57-1.69-6.93-3.67-9.75l-.14-.16-.92-2.66c-.64-1.92-1.28-3.73-2.19-5.38l-.1-.16-1.38-4.1-1.24-3.62s.09-.16.13-.32c-.77-3.68-1.6-7.46-1.6-11.4,0-1.22.09-2.51.27-3.78l.05-.32.19-.33c.69-1.12,1.65-1.97,2.48-2.71.74-.65,1.42-1.28,1.88-2.08l.14-.21.18-.21c1.47-1.28,2.56-2.77,3.71-4.32,1.33-1.81,2.75-3.68,4.68-5.22.32-.59.73-1.02,1.15-1.39-3.95-1.23-8.36-1.18-12.8-.96-1.25.11-2.43.43-3.76.75-2.76.64-5.55,1.33-8.81.42l.27.06c-2.06-.27-4.22-.91-6.42-1.82-4.41-.64-8.58-1.22-12.76-.05-.55.27-1.05.42-1.42.42,0,0-.32.06-.37.06-.09.1-.22.16-.22.16,0,0-1.88.96-2.16,1.12-2.94,2.08-4.59,5.11-6.37,8.31,0,0-.14.32-.28.53-.09.53-.32.96-.68,1.39-.14.37-.46,1.27-.46,1.27-.64,1.82-1.2,3.36-1.2,5.17,0,.37,0,.69.05,1.07l-.09.21v.95l-.13,2.02-.09,1.33h-.04v2.87c.04.22.31,1.65.31,1.65l.1.7.23.42.09.96s-.04.05-.09.05c.04.15.13.53.13.53v.05c.28,1.81.83,3.52,1.42,5.33,0,0,.1.27.1.32l.73,2.4.05.11.05.22c.69,2.02,1.1,2.93,1.38,3.36l2.76,4.69-4.91-2.24c-1.28-.64-2.39-1.7-3.39-2.62,0,0-.28-.26-.51-.47-.31-.16-.64-.38-.96-.8-.13-.05-.22-.11-.22-.11l-.14-.1c-2.66-2.45-5.74-4.79-8.72-7.08,0,0-4.49-3.47-4.63-3.57-2.07-1.07-3.85-2.45-5.55-3.79-.96-.8-1.93-1.49-2.93-2.18-.14.53-.24,1.12-.24,1.71,0,.85.1,1.7.19,2.61l.18,2.82v.32c-.46,2.35-.69,4.64-.69,7.62v1.27l.05.53-.28.43c-.73,1.17-.96,2.55-.96,4.05,0,1.07.14,2.24.23,3.41,0,0,.19,2.24.23,2.62.05.15.73,2.66.73,2.66l.97,3.57.13.48-.74,1.49c-.37.75-.56,1.12-.56,1.49,0,.11,0,.22.05.33l.05.15v.22c.14,3.19,3.12,5.43,6.05,7.56,0,0,2.98,2.34,3.03,2.4l1.47,1.28c1.24,1.12,2.57,2.24,3.45,3.89l.27.48-.18,1.39-.23.32c-.78,1.22-1.78,1.92-2.66,2.56-.64.43-1.19.8-1.61,1.39l-.96.53-.64.1.79-.16-.19.16-.55.48.24-.22c-.96.96-2.12,1.82-3.21,2.62,0,0-.42.32-.87.64.1.16.19.43.19.43l-.64,1.38-.32.33-1.56,1.27-1.05-1.49c-5.23-7.2-7.48-15.72-9.63-23.93l-1.25-4.58c-1.38-4.96-4.27-11.72-10.14-15.61-2.2-1.5-4.68-2.56-7.25-3.25l-.64-.21-.36-.53-4.14-5.7-2.34-3.31s3.95.43,4.04.48c1.02-1.44,13.67-19.29,15.23-21.47-1.19-1.02-2.85-2.4-4.35-3.67-2.25,4.21-6.84,11.45-11.52,10.6-3.52-.65-5.59-5.44-6.42-15.08l-.05-.59.36-.53c.78-1.07,1.24-2.4,1.51-3.42-.05-2.77-.36-5.86-2.2-8.68l-.92-1.44-2.38-3.46c-.92-1.17-2.06-2.3-3.53-3.31l-.7-.53v-26.05h3.63l.09,2.24s.05.42.05.85c.41-.06.79-.11,1.1-.22.41-.64,1.83-2.88,1.83-2.88h9.14l-1.38,2.5c-.69,1.28-1.06,2.71-1.06,4.26,0,4.31,2.99,7.83,6.7,7.83s6.65-3.52,6.65-7.83c0-1.07-.18-2.02-.5-2.99l2.89-1.65c1.29,1.5,2.99,2.35,4.77,2.35,3.68,0,6.65-3.52,6.65-7.89s-2.98-7.88-6.65-7.88c-1.69,0-3.3.75-4.53,2.13l-4.55,4.95,1.66-6.5c.18-.74.27-1.54.27-2.29,0-4.32-2.98-7.88-6.65-7.88s-6.7,3.57-6.7,7.88c0,1.33.28,2.67.83,3.79l1.15,2.45h-5.92l-.32-1.33c-.18-.8-.45-1.5-.87-2.08-1.42-2.19-3.49-3.62-5.69-5.17l-2.57-1.82v-21.74l.04-.64.33-.48,1.19-1.6s1.7,1.02,1.74,1.07l.09-.1c4.77,3.46,8.49,6.39,11.75,9.32,1.74.96,3.68.91,5.23-.1,1.79-1.12,2.15-3.04,2.15-4.48,0-.48-.05-.91-.1-1.23-.46-3.09-1.28-5.22-2.7-6.98-1.65-1.97-3.81-3.51-6.74-4.84l-.1.1-.96-.53c-3.99-2.03-7.75-4-12.11-4.8-3.34-.59-7-1.07-10.65-.85V.05h0ZM306.68,141.35s.64.32.72.37q0,.05.05.11c-.05,0-.05.06-.09.06-.36-.27-.68-.53-.68-.53h0ZM306.39,129.2s.24.27.37.38q-.37-.06-.69-.06c.1-.1.27-.32.32-.32h0ZM307.96,143.54v.05-.05h0ZM284.37,124.14s-.09-.05-.13-.05l-.1-.05s.19.1.23.1h0Z"/>
      <path class="cls-11" d="M446.89,438.71c.64-1.28.96-2.3.96-3.04,0,0-1.42-3.84-7.2-7.51-.88-.53-1.88-1.12-2.85-1.71-.5-.32-1.01-.59-1.52-.85-3.16-1.87-6.56-3.73-9.27-5.44h-.05c0-1.7,6.79-12.99,14.14-21.42,7.29-8.47,15.18-29.62,15.18-29.62,0,0-7.3.59-12.39,1.7-5.09,1.12-20.87,8.74-23.67,5.92-2.8-2.83-1.7-14.07-1.15-22.54.6-8.48-2.25-17.48-2.25-17.48,0,0-31.01,36.66-42.85,49.61-11.84,12.94-20.28,23.66-21.38,29.3-.37,1.71-.32,3.04-.13,4.05-.04,0-.14.06-.18.06l.6,1.39s.82,2.56,2.93,2.82h.09c2.39,1.54,6.7,5.01,9.08,10.6-.51.59-1.05,1.22-1.7,1.86-1.83,1.6-3.25,2.88-3.25,2.88,0,0,.22-.11.59-.27-22.39,20.04-86.07,43.15-133.74,43.15s-107.37-23.5-128.7-42.67c.37.16.6.26.6.26,0,0-1.42-1.28-3.3-2.87-.6-.64-1.14-1.27-1.65-1.92,2.39-5.54,6.7-9,9.09-10.55h.09c2.11-.26,2.94-2.82,2.94-2.82l.6-1.39c-.04-.05-.14-.05-.19-.05.19-1.07.23-2.34-.14-4.05-1.1-5.65-9.54-16.36-21.38-29.3-11.84-13-42.85-49.61-42.85-49.61,0,0-2.84,9-2.25,17.47.55,8.43,1.65,19.72-1.15,22.54-2.8,2.82-18.58-4.79-23.68-5.91-5.09-1.12-12.39-1.7-12.39-1.7,0,0,7.89,21.15,15.19,29.57,7.34,8.47,14.13,19.77,14.13,21.47h-.04c-2.71,1.7-6.1,3.57-9.31,5.43-.46.26-.96.53-1.42.8-1.01.65-2.02,1.23-2.89,1.76-5.78,3.68-7.2,7.45-7.2,7.45,0,.75.32,1.82.96,3.04,0,.05.05.11.05.16h.04c.05.16.14.32.23.48.42.8.92,1.55,1.33,2.13,7.11,10.5,29.32,31.22,71.25,53.98,33.22,18.06,83.96,35.22,147.1,35.22s112.13-19.45,142.05-35.7c41.94-22.69,64.14-43.48,71.25-53.98.42-.53.92-1.33,1.33-2.13.09-.11.19-.27.24-.43l.05-.05c0-.05.05-.11.05-.11h0Z"/>
      <path class="cls-11" d="M415.55,335.61c-.32.37-31.11,36.76-42.81,49.55-13.81,15.13-20.73,24.72-21.83,30.15-.19.96-.28,1.92-.28,2.82v.22c-.33.05-.69.15-.69.15l.78,1.87.6,1.38c.36,1.12,1.65,3.14,3.81,3.73,2.07,1.38,5.59,4.32,7.8,8.8-.42.48-.79.9-.83.96-.13.11-3.21,2.82-3.21,2.82l.1.11c-22.44,19.66-84.61,42.3-132.09,42.3s-104.98-22.38-127.05-41.82l.09-.11s-3.08-2.72-3.26-2.87c0,0-.37-.43-.78-.9,2.2-4.48,5.73-7.41,7.8-8.85,2.15-.53,3.44-2.56,3.86-3.79-.05.11.55-1.34.55-1.34l.73-1.86s-.37-.11-.64-.16v-.15c0-.91-.09-1.87-.27-2.82-1.11-5.44-8.03-15.03-21.84-30.16-11.7-12.78-42.48-49.18-42.81-49.55l-1.97-2.35-.92,2.94c-.14.37-2.94,9.43-2.34,18.12l.19,2.56c.46,6.66,1.19,16.68-.83,18.65-1.56,1.07-10.87-2.4-14.87-3.89-2.98-1.12-5.55-2.08-7.25-2.45-5.14-1.17-12.34-1.7-12.61-1.75l-2.66-.16.92,2.45c.32.9,8.08,21.52,15.55,30.1,6.38,7.4,11.98,16.52,13.35,19.55-1.51.9-5.46,3.2-5.46,3.2l-2.71,1.54-1.47.85-2.94,1.76c-6.19,3.95-7.8,8.16-7.89,8.31l-.09.32v.27c0,1.07.37,2.3,1.15,3.84.05.1.32.64.32.64l1.47,2.3c7.66,11.34,31.11,32.45,71.8,54.5,24.41,13.21,76.07,35.43,147.92,35.43,63.36,0,112.68-19.5,142.88-35.91,40.69-22.06,64.14-43.15,71.84-54.5-.04,0,1.42-2.24,1.42-2.24,0,0,.33-.64.33-.69.78-1.54,1.15-2.77,1.15-3.78v-.32l-.09-.27c-.09-.21-1.69-4.42-7.88-8.31l-2.94-1.82-1.47-.85-2.75-1.54s-3.9-2.29-5.42-3.14c1.38-3.1,6.98-12.2,13.35-19.61,7.48-8.58,15.23-29.19,15.56-30.1l.92-2.45-2.67.21c-.27,0-7.48.59-12.61,1.7-1.7.38-4.27,1.33-7.25,2.45-3.99,1.5-13.3,4.96-14.86,3.89-1.98-1.97-1.28-11.99-.82-18.65l.18-2.56c.59-8.68-2.2-17.74-2.34-18.12l-.92-2.93-1.97,2.34h0ZM354.11,419.42c-.09-.43-.09-.86-.09-1.28,0-.7.05-1.39.23-2.19.92-4.64,7.98-14.22,21.01-28.5,9.96-10.87,33.63-38.79,40.74-47.15.69,2.82,1.47,7.13,1.47,11.62,0,.69,0,1.44-.04,2.18l-.18,2.56c-.32,4.1-.56,7.83-.56,10.97,0,4.96.6,8.58,2.34,10.28,2.53,2.56,8.94.42,18.4-3.09,2.8-1.07,5.36-2.03,6.83-2.35,3.04-.69,6.89-1.12,9.45-1.39-2.3,5.76-8.34,20.09-13.9,26.53-6.65,7.68-14.5,19.88-14.5,22.54v.96l.78.48,6.65,3.89,2.71,1.55,1.47.85,2.84,1.71c4.27,2.72,5.91,5.49,6.33,6.34-.04.37-.22.96-.72,1.97l-.28.59-1.24,1.97c-7.52,11.02-30.51,31.64-70.66,53.44-29.86,16.2-78.59,35.54-141.27,35.54-71.12,0-122.18-21.95-146.32-35.06-40.15-21.79-63.13-42.41-70.66-53.44,0-.06-1.24-1.97-1.24-1.97l-.18-.38c-.05-.1-.05-.16-.05-.16-.55-1.07-.73-1.65-.78-2.03.41-.85,2.06-3.62,6.33-6.33l2.85-1.71,1.47-.85,2.71-1.55,7.48-4.37-.05-.96c0-2.67-7.85-14.86-14.5-22.54-5.55-6.45-11.61-20.78-13.9-26.58,2.57.27,6.42.74,9.45,1.44,1.47.32,4.04,1.28,6.84,2.29,9.45,3.57,15.87,5.71,18.4,3.14,1.75-1.76,2.34-5.33,2.34-10.28,0-3.15-.23-6.87-.55-11.03l-.19-2.56c-.04-.7-.04-1.44-.04-2.18,0-4.42.78-8.79,1.47-11.56,7.11,8.36,30.79,36.22,40.74,47.15,13.03,14.28,20.1,23.87,21.01,28.5.18.8.23,1.49.23,2.13,0,.48,0,.91-.09,1.28,0,0-.05.32-.09.59-.14.27-.23.53-.23.53-.18.48-.78,1.65-1.61,1.76l-.41.06-.41.27c-2.52,1.65-7.11,5.33-9.68,11.29l-.41.95,2.48,2.83.04.05s2.06,1.81,2.75,2.45l-.09.11c22.62,20.35,82.91,43.1,129.85,43.1s112.36-23.38,134.84-43.53c0,0-.09-.1-.09-.16.69-.58,2.85-2.5,2.85-2.5l2.52-2.87-.46-.91c-2.56-5.97-7.16-9.64-9.68-11.29l-.33-.22-.5-.05c-.82-.11-1.42-1.28-1.56-1.7-.04-.05-.13-.27-.23-.53-.05-.32-.14-.64-.14-.64h0ZM448.4,439.45l.04-.05-.04.05h0Z"/>
      <path class="cls-11" d="M145.58,130.85s-.19.85-.51,2.08c.23-.7.41-1.39.51-2.08h0Z"/>
      <polygon class="cls-11" points="143.47 132.56 146.73 133.46 146.73 133.36 147.23 131.23 147.23 131.07 143.93 130.54 143.47 132.56 143.47 132.56"/>
      <path class="cls-11" d="M110.25,292.61c.05,3.46,1.42,6.34,2.8,9.16v.05l.14.16,4.54,7.4s2.11,2.61,2.29,2.88c2.52,3.57,4.17,7.51,5.96,11.62,1.06,2.5,2.15,5.06,3.44,7.51l1.19,2.29,1.61-2.02c1.74-2.18,2.66-4.53,2.66-6.76,0-.7-.14-1.39-.32-2.08,0,0-.14-.22-.23-.42.23-.48.51-.96.83-1.39l.32-.48v-5.16l-.05-.27c0-.06.05-.11.05-.11l.04-.37.05-13.22h-3.35c-3.95.16-7.71-1.01-10.14-1.97l-.14-.05s-.23-.05-.32-.05l-.28-.22c-.41-.27-1.01-.69-1.88-.74l.55.1c-1.93-.8-3.62-2.24-5-4.05l.32.75-.87-1.49s-.69-1.39-.69-1.39l-.09-.11-3.58-5.11.14,5.54h0ZM116.04,300.23c-.05-.1-.09-.21-.14-.37.87.69,1.79,1.28,2.8,1.76l.14.05s.18,0,.28.06c.05,0,.27.16.27.16.41.32,1.06.75,1.97.8l-.55-.1c2.71,1.06,6.88,2.34,11.38,2.24,0,2.39-.04,9.11-.04,9.54-.05.05-.14.42-.14.42l.04-.05.14,1.33-.04-.48s-.05,3.15-.05,3.89c-.46.7-.87,1.39-1.24,2.18l-.04.22-.05.22v.32c0,.53.23.96.6,1.39.09.37.14.74.14,1.12,0,.74-.18,1.44-.45,2.07-.65-1.44-1.33-2.93-1.93-4.42-1.79-4.1-3.58-8.36-6.33-12.25l-.04-.05s-2.16-2.72-2.2-2.77c-.09-.16-4.49-7.25-4.49-7.25h0ZM133.79,321.55c.09.05.18.21.23.37-.09-.16-.23-.37-.23-.37h0ZM134.57,322.72v-.05l-.05-.22s0,.16.05.27h0ZM134.57,322.82l.05.05s0-.05-.05-.16v.11h0Z"/>
      <polygon class="cls-11" points="247.58 193.25 246.79 194.74 248.4 197.83 251.52 196.55 250.88 194.42 250.79 194.05 249.82 188.98 247.58 193.25 247.58 193.25"/>
      <path class="cls-11" d="M337.45,293.68v.05c-.22.32-.87,1.44-.87,1.44l.32-.75c-1.38,1.82-3.11,3.25-5.04,4.05l.6-.1c-.88.05-1.47.47-1.88.74l-.33.22-.13.05-.28.05c-1.83.75-3.71,1.28-5.64,1.6l-1.42.27.5,20.62,3.26.59c1.47-3.41,3.12-7.03,5.37-10.28.18-.21,2.29-2.88,2.29-2.88l.05-.05,4.54-7.36.14-.27c1.37-2.82,2.75-5.75,2.75-9.27l-3.16-.8-1.06,2.08h0ZM340.67,294.9l-.18.27s.09-.15.13-.22c0-.05.05-.05.05-.05h0ZM333.24,301.62c1.01-.48,1.93-1.07,2.79-1.76-.05.16-.18.42-.18.42-.09.16-4.36,7.04-4.45,7.19-.05.05-2.25,2.82-2.25,2.82-1.01,1.45-1.88,2.88-2.67,4.37-.13-4.96-.22-9.22-.22-10.6,1.6-.37,3.26-.85,4.86-1.49l-.55.1c.92-.05,1.56-.48,1.97-.8l.28-.16.41-.11h0Z"/>
      <path class="cls-11" d="M119.11,285.31h-.05s-.09.05-.14.11c-.32.16-2.8,1.38-2.8,1.38l.14.43.23.27.5.53,2.52-2.24-.41-.48h0Z"/>
      <polygon class="cls-11" points="248.77 206.3 249.68 209.55 255.01 207.95 253.95 204.76 248.77 206.3 248.77 206.3"/>
      <path class="cls-11" d="M334.76,295.12l-.19.22s.04-.05.1-.11c0,0,.5.53.92,1.02.64.75,1.32,1.54,1.32,1.54l.24-.21-2.16-2.62-.22.16h0Z"/>
      <path class="cls-11" d="M187.29,221.54l4.77.85s.55-.47.64-.53c.09-.05.23-.15.23-.15,0,0-.05-.05-.05-.11h.05s-.46-.64-.87-1.22q.05.05.05.16c-.46-.65-.78-1.12-.96-1.39h.09c-.05-.06-.18-.22-.18-.22h-.04l-.09-.05-3.63,2.66h0ZM191.74,218.98s.14-.05.14-.05h-.14v.05h0ZM191.24,219.14c.14.15.41.59.83,1.22-.14-.69-.28-1.33-.32-1.38-.09.05-.23.05-.5.16h0Z"/>
      <path class="cls-11" d="M132.46,319.84l-1.29,2.13.18.27.19,1.17c.09.8.18,1.5.18,2.24,0,.43-.04.8-.14,1.23-.05.1-.78,1.7-.78,1.7l-1.52,3.14.64.64c.96,1.39,1.7,2.99,2.25,4.16l3.21-.69.14-21.32-3.07,5.34h0Z"/>
      <path class="cls-11" d="M242.3,96.49c.13.85.36,1.54.64,2.24v.05c.04.11.04.27.09.37l3.26-.9c-.04-.21-.13-.47-.18-.69-.19-.53-.37-1.02-.46-1.65-.05-.11-.05-.21-.1-.32l-3.25.9h0Z"/>
      <path class="cls-11" d="M238.26,102.35c-.36.22-.87.48-.87.48v.05l.23.42h.05l2.89-1.71-.23-.42s-1.24.69-2.07,1.17h0Z"/>
      <polygon class="cls-11" points="236.79 106.88 236.79 108.96 240.05 109.6 241.15 106.72 240.05 105.92 236.79 103.57 236.79 106.88 236.79 106.88"/>
      <path class="cls-11" d="M213.76,58.45l.18,3.56c.09,1.28.19,2.35-.14,3.36l-.19.48.09.37.6,2.62,3.31-.53v-9.85h-3.85Z"/>
      <path class="cls-11" d="M133.33,363.96l-3.95,2.93,1.47,2.98c1.52-.37,2.8-1.28,4.08-2.13l1.29-.85-.18-1.76-.37-2.88-2.34,1.71h0Z"/>
      <path class="cls-11" d="M306.81,132.94c-.27-1.23-.46-2.08-.46-2.08.09.7.23,1.39.46,2.08h0Z"/>
      <polygon class="cls-11" points="304.65 131.07 304.7 131.23 305.21 133.36 305.21 133.46 308.46 132.56 308 130.48 304.65 131.07 304.65 131.07"/>
      <path class="cls-11" d="M270.7,45.5c-2.25,0-4.31,1.02-5.78,2.61.18-.86.33-1.71.33-2.67,0-5.28-3.77-9.54-8.36-9.54s-8.39,4.26-8.39,9.54c0,1.65.36,3.19,1.01,4.53h-11.05V13.32h-22.53v36.65h-8.67c.6-1.33.96-2.88.96-4.53,0-5.28-3.72-9.54-8.35-9.54s-8.4,4.26-8.4,9.54c0,.96.14,1.81.37,2.67-1.51-1.6-3.53-2.61-5.78-2.61-4.63,0-8.4,4.26-8.4,9.54s3.76,9.59,8.4,9.59c2.39,0,4.5-1.17,6.01-2.98-.37,1.12-.6,2.29-.6,3.57,0,5.27,3.76,9.53,8.4,9.53s8.35-4.26,8.35-9.53c0-1.87-.46-3.62-1.29-5.12h9v82.91h22.53V60.1h11.33c-.82,1.5-1.28,3.25-1.28,5.12,0,5.27,3.76,9.53,8.39,9.53s8.36-4.26,8.36-9.53c0-1.28-.23-2.45-.6-3.57,1.52,1.82,3.67,2.98,6.05,2.98,4.59,0,8.36-4.32,8.36-9.59s-3.76-9.54-8.36-9.54h0Z"/>
      <path class="cls-10" d="M110.53,288.83c.32.48.6,1.34.87,1.34,2.29-.05,4.54-.91,6.83-1.44l-5.97,2.77c.6.85,1.56,1.44,2.62,1.49,1.88.11,3.49-1.27,3.63-3.14l-.28-1.92c-.83-3.14-1.97-6.18-3.12-9.22l.09-.48-.5,2.35.18-.32-6.01-.96.09.05c.09,2.56.46,5.07.92,7.57l.05.15c.09.64.46,1.22.92,1.7l.14.11c.92,1.12,1.97,1.86,2.94,3.14,3.35,4.42,8.76,6.02,14.04,5.65,3.21-.21,5.69-2.61,8.72-3.51l-.37.15-3.72-1.92-.19-.96c.27,2.29-.27,4.58-.23,6.93v.59l.5-1.82-.18.32c-.23.38-.42.8-.5,1.23l-.05.32,2.75-2.72.19.05c-5.23.38-10.1-1.86-14.59-4.26-2.11-2.51-3.99-5.11-5.83-7.88-.87-1.65-2.94-2.29-4.54-1.38-1.65.85-2.3,2.93-1.42,4.58,2.66,3.89,4.86,8.37,9.08,10.82,3.35,1.97,6.6,3.57,10.51,4.31,2.11.38,4.08.75,6.15.59l1.56-.11c1.42-.27,2.52-1.33,2.8-2.72l.05-.32-.46,1.18.18-.32c.37-.53.55-1.17.55-1.81v-.96c.14-2.34.46-4.68.18-7.03l-.41-1.44c-.65-1.44-2.2-2.19-3.72-1.87l-1.01.27c-3.39,1.28-6.51,3.94-10.46,2.61-3.03-1.01-5.09-3.3-6.97-5.7l-.92-.85.92,1.7-.23-.74c.04-1.65-.6-3.3-.5-5.01l-.46-2.62c-.23-.74-.73-1.39-1.38-1.81-1.56-1.07-3.67-.64-4.68.9l-.23.32c-.37.58-.55,1.23-.55,1.92v.37c.27,3.52,2.43,6.56,2.93,10.02l.28.33,6.24-1.65-.37-.53c-2.02.85-4.04,1.7-6.06,2.55,1.83-1.07,3.72-2.13,5.55-3.25-.19-.27-.74-.27-.51-.74-.83-1.71-2.85-2.35-4.54-1.55-1.65.85-2.34,2.88-1.51,4.58h0Z"/>
      <path class="cls-11" d="M297.64,239.6c-2.57-2.19-5.37-4.1-7.57-6.76l-1.19-.96c-.46-.21-1.02-.32-1.52-.37-.18-.05-.36-.16-.55-.21l-.41-.27c-.36-.32-.78-.53-1.28-.69l-.14-.05-.04-.11c-.78-1.54-2.66-2.24-4.27-1.54-.22.05-.42.15-.59.32-.42-.22-.83-.32-1.25-.38-.96-.1-1.83.27-2.52.85-.32.16-.59.38-.83.69-1.01-.16-2.02.16-2.75.85-.1-.05-.19-.16-.28-.27-.73-.59-1.61-.85-2.47-.75-.04-.1-.14-.21-.18-.27-1.24-1.39-3.4-1.54-4.77-.27l-.82.69c-.1-.64-.37-1.22-.83-1.7-.51-.58-1.15-.9-1.88-1.07-1.05-.75-2.57-.85-3.76-.1l-.59.37c-.37.22-.69.42-1.06.64-.82-1.01-2.15-1.49-3.49-1.12l-1.1.32c-.88.43-1.79.8-2.71,1.23-.22-.11-.46-.16-.73-.16-1.01-1.44-2.98-1.86-4.5-.95l-.59.37c-2.48,1.97-4.49,4.53-7.2,6.13-1.15.48-2.3.91-3.39,1.44l-3.99,1.92c-1.46.75-2.2,2.5-1.69,4.11.6,1.75,2.52,2.72,4.27,2.12l.73-.21c1.1-.27,2.11-.59,3.12-1.01.92.32,2.02.27,2.94-.32l1.7-1.12c.18-.1.31-.16.5-.27.32.16.68.27,1.05.32.59.69,1.47,1.17,2.47,1.17l1.38-.15c.41-.11.83-.22,1.25-.32.91,1.39,2.7,1.97,4.26,1.28l.14-.05.32-.21.65-.32s.05-.05.05-.05h.04c.09.58.33,1.12.69,1.65,1.19,1.44,3.3,1.65,4.77.47l1.1-.9c.04.11.09.22.13.27,1.01,1.6,3.13,2.02,4.68,1.02l1.65-1.07c.5,1.65,2.16,2.67,3.85,2.34l1.01-.21c.19,0,.32-.06.51-.11l.46-.15c.59-.22,1.1-.58,1.51-1.07l.42-.53c1.33.96,3.25.85,4.4-.37l.55-.65c.79.22,1.51.16,2.21-.15.59.53,1.28.85,2.06.9h.05c.18.27.41.58.59.85l.19.32c.36.53.87,1.01,1.47,1.28,1.7.69,3.72-.05,4.45-1.77l.28-.59c.13-.05.22-.1.36-.1.14.05.27.16.46.22l.74.27c.79.21,1.61.16,2.39-.16.23.22.5.43.78.64,1.42,1.23,3.57,1.07,4.77-.37,1.19-1.44,1.05-3.57-.41-4.79h0ZM242.39,229c-.04.05-.09.16-.18.27l-.05-.05.23-.22h0Z"/>
      <path class="cls-14" d="M176.14,231.82c-1.56.05-2.52,1.33-3.81,1.92-1.15.53-2.34.85-3.53,1.39-.28.16-.64.05-.96.22-.55.21-1.06.53-1.6.85v-.05c-1.19.32-2.16,1.28-2.43,2.5-.45,1.81.65,3.62,2.48,4.05l.46.16c.78.16,1.65.05,2.39-.33l.41-.21c6.6-3.25,12.38-7.19,18.81-11.35,2.07-1.33,3.4-3.36,5.65-4.21l1.37-.64-.83.32.28-.11-3.26-5.48-.37.47c-5.87,6.61-12.48,12.42-19.13,18.23l-.78.37,2.66-.53-.14-.05c-3.07-1.12-6.28-1.82-9.59-1.65h-.6l3.35,3.04v-.48l-1.1,2.88-.28.15c3.58-2.45,7.34-5.01,9.27-9l.46-1.33-1.01,1.7.32-.26c.23-.22.41-.42.55-.69l.28-.43c.69-1.07.69-2.39.09-3.51-.96-1.6-3.03-2.13-4.63-1.23l-1.33,1.01c-1.06,1.39-2.48,2.34-3.53,3.73l-.55.64,5.55,3.79.19-.37c3.03-4.64,5.41-9.38,8.76-14.12,3.26-4.58,6.06-9,6.47-14.54l-.28.9-5.91-3.25-.41.9c-2.25,5.54-6.29,9.85-10.28,14.44-5.92,6.92-9.31,14.91-14.73,21.84-1.42,1.22-1.56,3.36-.37,4.79,1.24,1.39,3.4,1.55,4.77.37,6.1-6.76,9.22-15.45,15.37-22.48,4.4-5.01,8.67-9.86,11.33-15.88l.46-1.17c.69-1.55.18-3.3-1.19-4.21-1.56-1.07-3.67-.65-4.68.9l-.73,1.54c-.28,1.97-.5,3.89-1.42,5.65-1.1,2.13-2.34,4.05-3.76,6.07-3.3,4.64-5.74,9.16-8.58,13.75l-1.06,1.86c-.78,1.55-.23,3.42,1.19,4.37,1.56.96,3.63.53,4.68-1.01l.55-.64c-.09.05-.14.16-.23.27.92-1.17,2.11-2.08,3.12-3.19v-.11l-4.54-4.74-.32.43.6-.64-.28.27c-.5.43-.87,1.07-1.01,1.71l-.55.74c-.96,2.13-3.58,3.14-5.23,4.79l-1.7,1.23c-.78.74-1.19,1.75-1.05,2.82l.05.42c.18,1.76,1.6,3.04,3.35,3.04h.6c2.48-.1,4.91.32,7.2,1.23l1.1.32c.73.16,1.51.05,2.2-.27l.32-.16c7.2-5.48,13.95-11.78,20.01-18.54l1.65-1.82c.69-.74.96-1.81.78-2.88-.41-1.81-2.2-2.98-4.04-2.61l-.28.05c-.6.15-1.15.42-1.56.8l-.28-.05c-2.84,1.06-4.68,3.41-7.25,5.11-5.83,3.78-10.92,7.56-17.07,10.28l-1.1.64,2.43-.32-.46-.1.78,6.28-.37.05c3.12-1.39,6.74-1.92,9.36-4.26-.14.1-.23.16-.37.27,1.83-.32,3.07-2.08,2.75-3.89-.32-1.87-2.07-3.09-3.9-2.77h0Z"/>
      <path class="cls-11" d="M328.74,291.39c-1.29.05-2.56.05-3.9.05.13,0,.27,0,.37.05-.28-.11-.6-.11-.87-.16.13.06.27.06.42.06-.1,0-.14,0-.24-.06h-.18l.13,6.61-.64.05c1.97.05,3.99.05,5.82-.8-.23.11-.46.16-.73.27.41-.1.82-.15,1.24-.32-.09.05-.18.05-.27.11.69-.16,1.37-.43,2.02-.75-.1,0-.19.05-.28.11,1.42-.64,2.62-1.65,3.63-2.82-.05.05-.1.11-.14.16,1.06-1.17,2.25-2.19,3.12-3.47-.05.11-.13.16-.18.27.18-.21.32-.42.46-.64-.14.16-.27.37-.46.59.92-.85,1.61-1.92,2.24-2.93-.04.1-.09.15-.13.27.18-.33.37-.65.55-.96-.04.05-.09.16-.09.22.23-.48.46-.91.69-1.38-.05.05-.05.15-.09.21.19-.38.42-.7.55-1.07-.05.1-.09.21-.18.32.23-.43.5-.8.64-1.28-.04.11-.09.21-.09.27.14-.32.28-.64.41-.96-.05.05-.05.11-.09.22.59-1.5,1.18-3.09.68-4.64.05.16.1.32.14.48-.04-.22-.1-.38-.1-.54v.16-.42l-6.46,1.34-.14-.59c-.19,2.45-.73,4.79-.96,7.25,0-.33.09-.59.23-.85-.19.42-.37.79-.55,1.17.05-.16.18-.32.32-.48-.23.32-.42.64-.6.95.14-.27.28-.59.5-.79-.82.64-1.33,1.59-1.97,2.44.09-.1.19-.27.24-.37-.28.37-.6.64-.92.96.09-.05.13-.16.22-.21-.87.64-1.47,1.54-2.15,2.34.09-.1.13-.15.18-.27-.09.16-.18.27-.27.37.27-.26.55-.48.82-.74-1.1.42-2.1,1.07-3.16,1.54.05,0,.1,0,.14-.05-1.75.48-3.59.8-5.23,1.65.09-.05.13-.1.22-.1-.91.42-1.79.85-2.52,1.59.04-.05.04-.1.09-.1-.59.53-1.14,1.12-1.47,1.92l-.18.48c-.46,1.54.18,3.19,1.56,3.99l1.7.48c1.1.15,2.29.1,3.35-.32-.05,0-.15.05-.19.05.69-.05,1.38-.27,2.02-.54-.1.05-.18.1-.27.16.64-.21,1.28-.42,1.88-.64-.09.05-.23.05-.37.1.74-.26,1.47-.53,2.11-.91-.1.05-.23.11-.32.21.22-.16.46-.27.68-.37-.05,0-.09.05-.13.05.5-.27.96-.53,1.38-.96-.09.11-.23.21-.37.33,1.2-.86,2.39-1.76,3.3-2.93-.09.05-.13.16-.18.21.22-.26.46-.53.68-.8-.09.1-.13.16-.22.26.91-.85,1.6-1.92,2.15-3.04-.05.1-.09.22-.13.32.32-.69.78-1.33,1.01-2.12-.05.21-.09.32-.19.47,1.02-1.54.6-3.68-.91-4.69-1.56-1.06-3.68-.64-4.73.91-.24.37-.46.74-.6,1.17.05-.05.1-.16.14-.22-.18.32-.37.7-.55,1.02.09-.11.13-.21.22-.32-.13.27-.27.48-.41.74.09-.16.14-.27.24-.42-.28.37-.5.8-.78,1.17.14-.16.28-.27.41-.43-.46.38-.88.85-1.24,1.33.05-.05.09-.1.14-.15-.19.21-.37.42-.56.64.05-.1.14-.16.23-.22-.42.37-.87.75-1.29,1.12.1-.1.24-.15.32-.27-.19.16-.42.32-.59.48.04-.05.09-.05.13-.1-.23.15-.46.32-.69.47.05,0,.1-.05.1-.05-.05.05-.1.05-.19.1.09-.05.15-.05.24-.1-.14.05-.33.16-.46.27.09-.1.22-.16.37-.21-.24.11-.46.21-.65.32.1-.05.19-.11.28-.11-.33.11-.59.27-.92.37.09-.05.18-.05.27-.05-.23.05-.5.16-.78.21.18-.05.37-.1.55-.16-.32.11-.64.16-.96.33.09-.06.19-.06.23-.06-.46.11-.92.26-1.37.43.18-.05.41-.11.64-.16-.23.05-.42.05-.59.11h.22c-.64,0-1.24.16-1.84.37.05,0,.1,0,.15-.05-.1.05-.15.05-.24.05.28-.05.6-.1.92,0-.42-.05-.83-.1-1.24-.16l1.24.38,1.55,3.99v-.1c-.09.37-.31.69-.59.96.09-.05.14-.1.19-.16-.05,0-.1.05-.14.1.14-.16.28-.27.42-.37-.09.05-.23.16-.32.21.18-.16.41-.27.6-.37-.05.05-.1.05-.19.1.28-.1.5-.26.78-.37-.09.05-.18.05-.28.11,1.47-.48,3.04-.79,4.5-1.28,1.33-.48,2.52-1.23,3.81-1.82.41-.21.78-.58,1.18-.9-.04.05-.13.16-.22.21.36-.32.64-.69.96-1.07-.05.05-.1.11-.14.16.23-.27.51-.58.69-.91-.09.16-.19.26-.33.38.1-.11.19-.16.28-.22-.09.05-.14.1-.24.16,1.2-.96,2.21-2.13,3.04-3.36-.1.1-.24.26-.37.32.64-.43,1.14-1.07,1.56-1.82-.18.27-.32.48-.51.69.69-.75,1.11-1.7,1.42-2.67.41-1.12.33-2.29.55-3.51.37-2.13.7-4.1.6-6.24l-.36-1.12c-.5-1.22-1.75-2.02-3.08-2.02-1.88,0-3.39,1.49-3.39,3.36v.16c0,.48,0,.96.1,1.44v-.16c0,.27.09.58.14.85-.14-.48-.14-1.01.05-1.44-.05.21-.14.43-.19.64.04-.1.09-.21.14-.32-.14.32-.28.59-.37.9.05-.05.09-.15.13-.21-.13.21-.22.47-.32.69.05-.05.05-.1.1-.16-.14.26-.28.53-.37.79.09-.16.23-.37.37-.53-.24.27-.42.53-.56.86,0,0,.05-.06.05-.11-.32.58-.65,1.17-.92,1.76.09-.11.18-.27.27-.42-.18.27-.31.48-.46.75.05-.06.09-.11.15-.16-.19.22-.33.43-.46.64.09-.1.22-.27.31-.42-.31.37-.55.74-.81,1.12.04-.05.09-.05.13-.11-.13.16-.28.32-.42.48q.04-.05.09-.1c-.32.26-.55.64-.87,1.01.09-.15.18-.27.32-.37-.23.21-.41.43-.55.7.05-.11.13-.16.18-.27-1.05,1.22-2.15,2.29-3.25,3.46.09-.11.23-.16.32-.22-.22.11-.51.27-.73.48.05-.05.09-.05.14-.1-.09.05-.19.1-.28.21.05-.05.14-.11.24-.16-.19.1-.37.22-.6.27.18-.05.36-.11.56-.16-.24.05-.51.16-.74.22.14,0,.28-.05.46-.11-.22.05-.41.11-.64.16.05,0,.09,0,.13-.05-.13.05-.32.1-.5.1h.23c-.5.11-1.06.22-1.52.48.24-.11.46-.16.74-.22-.37.05-.69.11-1.01.16.13,0,.27,0,.36-.05-.82.11-1.7.21-2.57.11l-1.01.1c-1.34.33-2.34,1.33-2.62,2.67-.32,1.87.87,3.62,2.7,3.99l.7.11c1.64.27,3.3.05,4.95.05,1.88,0,3.39-1.55,3.39-3.41s-1.51-3.36-3.39-3.36h0Z"/>
      <path class="cls-14" d="M38.95,252.49s-4.73,18.16,14.64,25.95l7.66-1.65s-22.16-6.34-22.3-24.29h0Z"/>
      <polygon class="cls-11" points="138.7 205.45 112.36 230.6 95.07 257.29 89.84 285.47 103.37 317.07 118.01 336.99 127.14 350.42 130.4 368.27 141.5 360.01 138.29 345.84 129.66 329.06 122.14 313.29 112.36 297.52 111.63 291.12 110.85 271.94 125.9 237.36 146.59 221.97 167.6 206.94 163.48 199.06 138.7 205.45 138.7 205.45"/>
      <path class="cls-11" d="M135.49,103.2c3.53,2.45,5.41,6.18,7.34,9.7-.14.42.22.91.6,1.17.91,2.77,2.15,5.22,1.74,8.53h.14c.05.9-.09,1.81.09,2.66h.19v5.59h-.05c0-.16.05-.32-.09-.48-.32.8-.09,1.92-.55,2.67-.23,3.52-1.56,6.5-2.48,9.85-.41,1.33-1.24,2.56-1.56,3.89,1.33-.64,2.57-2.02,3.77-3.09.55.16.5-.59,1.01-.69,4.13-3.79,8.95-7.2,13.49-10.77,3.53-1.81,6.06-4.58,9.45-6.71.23-.16.51-.27.74-.37,2.11,2.71.87,6.39.87,9.59.6,3.2.69,6.08.64,9.27,2.11,3.3.92,7.51.73,11.25-.51,2.18-1.24,4.21-1.7,6.33.5,1.18,1.47,2.3,1.1,3.84-.23,5.33-6.19,8.05-9.59,11.09-1.6,1.6-3.58,2.77-4.63,4.79l.05.48c1.19,1.81,2.98,2.19,4.22,3.83.41-.05.83.48,1.15.7,1.42,1.38,3.16,2.5,4.77,3.79.45.58-.78.79-.19,1.33,1.47,1.39,3.35,2.56,5.19,3.47,1.1.69,2.2,1.44,3.35,2.02-.46-.05-.51.64-.78.69,2.48,2.99,3.94,6.45,7.11,8.79-.87,3.57-3.17,6.45-4.63,9.7-2.02,3.83-4.4,7.51-7.16,10.97-3.44,5.38-6.97,11.03-10.97,15.88l.09.05c4.26-2.39,7.99-6.66,11.93-9.91,3.26-3.31,7.11-6.45,10.23-10.13l4.77-5.11c-2.02,2.93-4.77,5.38-6.88,8.31-2.25,2.34-5,4.53-7.2,6.82-4.18,3.89-7.66,7.25-12.07,10.5-.14.42-.09.69,0,.96-1.1-.53-2.06.65-3.26.75-2.62.37-5.23.69-7.66,1.39-3.21,1.17-6.98,2.34-8.81,5.49-.83,1.65-1.56,3.56-.96,5.48l.64,7.78-.92,8.36c-1.97,5.17-2.2,11.03-5.18,15.77-2.71,1.54-5.97,2.98-9.13,1.54-6.7-1.71-9.45-8.84-10.46-14.76-.37-.59-.87-.21-1.33-.42-3.58.1-6.47-2.56-7.75-5.59-1.93-3.89-1.74-9.59.37-13.37.23-1.28,1.15-2.13,1.38-3.52,1.56-2.98,3.21-6.02,5.41-8.79,2.11-2.82,3.76-6.08,6.47-8.68,2.75-4,6.88-6.45,10.18-10.13,5.05-4.1,10.18-8.2,15.6-11.72,4.13-3.09,8.67-5.48,12.48-8.74l-.09-.16c-4.5,1.71-9.31,2.51-14.23,3.25-1.51.27-3.03.59-4.63.8-.05,1.07-1.24,1.22-1.56,1.97-4.91,3.57-9.31,8.79-13.85,13.11-6.33,6.18-11.97,13.37-16.51,20.35-1.52,2.08-2.98,4.37-4.32,6.45l-2.98,6.29c-1.1,2.93-1.47,6.18-2.34,9.22-1.1,5.86-1.19,12.62-1.19,18.64.96,7.99,2.66,16.09,7.07,22.86,2.71,5.06,6.75,9.96,10.6,14.39,4.22,5.91,9.45,11.99,11.84,18.92,1.79,3.3,2.11,7.3,3.58,10.76.46,2.93,1.24,5.59,1.15,8.68.28,2.51.74,5.01,1.1,7.46,2.11-.59,3.86-2.34,5.87-3.36.55-.59,1.42-1.01,2.2-1.33,1.19-1.01,2.06-2.29,3.03-3.56-.55-4.21-2.52-8.26-3.72-12.52-3.72-9.91-9.45-18.97-13.22-28.88-1.88-4.11-4.26-7.78-7.34-11.35-1.7-2.88-3.63-5.75-4.91-8.84.04-.8-.69-1.5-.69-2.4-.96-3.51-.96-7.4-1.33-10.97.09-.27.23-.8.64-.48.64,5.27,2.39,10.87,7.3,13.74,2.98,1.5,5.65,3.25,9.08,3.47,2.98.69,6.15.74,9.18.27.09.53-.83,0-.91.64-4.73,1.07-9.91,0-14.13-1.71-.83-.05-1.29-.85-2.06-.95-2.34-1.02-4.27-2.62-5.73-4.59-.05-.42-.55-.59-.73-1.02l-1.01-2.02c0,4,2.11,7.25,3.62,10.71,1.79,2.93,3.67,5.59,5.88,8.15,4.22,6.02,6.19,12.94,9.5,19.34,1.65-2.02,2.85-4.79,2.07-7.46-.09-.32-.6-.37-.51-.85.6-1.49,1.79-2.77,2.61-4.1-.09-1.23-1.47-1.97-1.33-3.3.37-1.65,1.7-2.72,1.61-4.48.14-1.33-.09-2.77.73-3.84.5-1.22-.83-2.19-.5-3.25,1.88,1.33.37,3.84.23,5.65-.14,1.91-.23,3.89-1.51,5.33-.6,1.59,1.47,2.5,1.15,3.99-.41,1.44-1.88,2.45-2.39,3.79.18,1.65.64,3.46.18,5.27-.46,1.39-1.42,2.56-1.93,4.05,2.43,3.52,3.53,7.68,5.64,11.29.23,1.18.78,2.14,1.33,3.15.19,2.5,1.7,4.47,1.88,6.98.32,2.66,2.16,4.85,2.02,7.4-2.48,4.32-7.11,5.44-10.55,8.36-.51.32-1.06.53-1.61.75-.41-.59,0-1.55-.37-2.08-.5-3.42-.87-6.82-1.15-10.18-.92-2.08-.55-4.64-1.37-6.66h-.23c-.78,3.41-2.07,6.56-3.58,9.59-1.15,1.28-1.42,2.98-2.89,3.94-3.03,5.16-8.54,7.72-13.49,9.96-5.28,2.35-12.62,2.18-17.25-1.39-.96-1.01-1.97-2.08-1.93-3.62l.55-.42c6.52-1.02,13.17-3.14,17.21-8.85,5.23-6.6,3.58-16.09,2.16-23.81-.05-.32.18-.85-.19-.96-.18-2.13-2.34-3.3-3.58-4.79-2.48-1.33-4.81-3.19-7.15-4.9-1.75-1.87-3.76-2.99-5.64-4.85-1.74-1.97-4.4-3.57-5.73-6.07l-.46-.27c-4.82,5.33-11.56,8.84-18.49,10.44-.51,0-1.38-.05-1.88.05.14-.64.5-1.17.73-1.76,1.74-3.47,1.83-7.41,2.57-11.24,0-2.5.32-4.42.18-6.77.14-3.19-.32-6.55-1.1-9.75l.05-1.97h-.18c-.37-3.09-1.28-6.13-1.84-9.22-3.03-.47-5.46-2.39-8.44-2.77-3.94-1.44-7.25-4.53-10.74-6.92-5.05-3.84-7.43-10.01-7.89-16.41.32-2.18-.96-4.8,1.19-6.02,2.94.7,3.99,4.26,5.96,6.13,2.25,2.29,5.56,3.3,8.44,4.69,3.81.48,7.89,1.33,11.65-.22,2.15-1.17,4.95-2.18,6.19-4.37l.46-4.9c1.28-3.84,2.75-7.68,5.83-10.66-4.22-1.07-7.62-3.84-10.65-6.98-1.24-1.44-2.52-3.09-3.26-4.85-2.34-3.94-4.4-8.47-4.91-13.38-.5-1.86.09-3.41.23-5.22.69-2.13,2.2.05,3.26.21,1.24.65,2.29,1.18,3.44,1.97,2.71.8,5.41,2.08,8.35,1.98l.28.21c.64-.37,1.06.05,1.92-.37,4.77-.1,9.45-1.65,13.44-4.16,3.63-2.45,7.07-6.02,8.21-10.12-4.27-3.62-7.85-8.15-9.22-13.54-1.56-3.73-2.48-8.25-2.61-12.57-.46-3.41.5-6.34,1.01-9.43,1.38-4.85,1.97-10.02,4.91-14.17,1.01-2.72,1.74-5.59,3.12-8.05.73-2.35,1.6-4.59,2.39-6.93l-.09-.27c1.06-4.9,2.25-9.96,1.47-15.13-1.19-1.92-3.3-2.88-4.4-4.85-3.39-3.09-5.05-6.98-8.49-9.64-.6-1.55-2.62-1.92-3.12-3.57.37-.22.92-.22,1.52-.22,4.59-1.75,9.82-1.65,14.63-1.44,3.99.43,7.75,2.45,11.98,1.28,2.2-.32,4.27-.96,6.19-1.82,4.68-.69,9.08-1.27,13.62,0,.69.53,1.7.16,2.39.8l2.25,1.12h0Z"/>
      <path class="cls-2" d="M127.87,101.5c.46.32,1.01-.05,1.47.32,4.86.58,9.31,4.48,10.55,9.06,1.19,4.21.37,8.25-1.42,11.88-3.03,6.18-7.62,11.88-12.66,16.68-4.4,3.94-8.58,8.42-11.79,13.11-2.75,3.99-5.6,8.15-6.52,13-2.02,8.21-2.98,17.43-2.02,26.01.5,2.51.92,5.17,3.08,6.98,3.53,2.5,8.62,2.98,12.89,1.65,2.25-.43,4.68-.75,6.7-1.87,1.38-.22,2.53-.75,3.86-1.17.87-.75,2.11-.85,3.26-1.34,4.04-2.29,8.08-4.69,11.93-7.35.46-.7,1.33-1.12,1.83-1.76,2.53-1.01,4.27-3.36,6.65-4.79l.6.1c3.12,2.88,6.7,4.96,9.77,8.16-1.47,1.97-3.67,2.66-5.23,4.48-7.76,3.89-16.19,6.08-24.5,8.63-3.26.53-6.47,1.39-9.77,1.33-3.54-.47-7.16-.27-10.56-1.22l-5.78-1.81-.19.16c-1.65-1.34-3.9-2.56-5.09-4.58-1.56-2.94-1.29-6.56-2.43-9.65-.04-2.45-.46-5.43-.5-7.99.32-1.71.27-3.57.14-5.39.27-1.54.5-3.46.55-5.06h.09c1.84-6.4,4.22-12.63,7.57-18.27.74-1.87,1.79-3.52,2.8-5.28.97-.33.97-1.76,1.97-1.97,1.1-1.92,2.85-3.47,4.63-4.69,1.52-2.5,4.5-4.32,5.18-7.25-.96-.16-1.7,1.07-2.66,1.44-1.65,1.39-3.76,2.13-6.06,1.65-4.77-.53-7.25-4.74-10.83-7.41l-.05-.32c-3.08-3.09-6.24-6.18-9.27-9.17-2.57-3.25-5.64-6.76-8.39-10.12-1.47-1.07-2.25-2.82-3.76-3.67-.14-.27.09-.48.32-.48.92.53,1.56-.27,2.43-.37,3.9-.8,8.17-.75,12.16-.64,4.17.64,8.4,2.56,12.8,1.22,1.93-.43,3.99-1.02,5.87-1.65,2.89-.37,5.41-1.28,8.39-.85.55.37,1.42.16,1.97.27h0Z"/>
      <path class="cls-11" d="M143.84,117.64c.6,3.62,1.06,7.35.78,11.14.18,1.7-.23,3.51-.42,5.28-1.56,5.8-2.8,11.72-6.24,16.73-2.52,4.31-5.6,8.68-9.04,12.25-3.54,4.54-7.3,9.33-9.04,14.82-1.06,1.33-1.1,3.14-1.79,4.58-.6,4.16-1.56,8.79.09,12.84.55,1.49,1.7,2.88,1.6,4.53-4.4.96-8.85-.16-11.93-3.04-2.39-3.83-1.74-8.52-2.15-12.94,0-8.36,1.19-16.73,4.22-24.14,3.16-5.59,6.74-10.6,11.33-15.55,5.82-5.06,11.24-10.23,15.05-16.31,2.2-3.14,3.85-6.87,4.86-10.55.32-2.02,0-4.1-.18-6.07,1.19,1.86,2.39,4.05,2.85,6.45h0Z"/>
      <path class="cls-7" d="M106.86,129.25c1.38,1.87,3.35,3.2,5.28,4.8,2.25,1.49,5.18,1.97,7.8,1.28,1.42-.8,2.98-1.6,4.04-2.72-1.79,2.56-4.17,5.07-6.74,7.19-2.11,2.62-3.99,5.12-5.92,7.83-1.15,2.08-2.16,4.27-3.35,6.29-2.43,4.9-4.22,10.17-5.73,15.45-.19,1.6-.42,3.14-.69,4.74.46,3.41-.64,7.03.23,10.55,0,3.79,1.15,7.25,1.7,10.97,1.15,3.35,4.73,6.34,8.12,7.09.51.1,1.15.69,1.7.53l.55.37c3.9,1.12,8.12.9,12.11,1.49,11.33-.37,21.24-4.53,31.34-8.2,1.88-1.07,3.95-1.55,5.6-3.09l.09-.43c.55.16,1.29-.59,1.7-.96.46-.05.83-.59,1.19-.75,1.28.11,1.69,1.55,2.93,1.76,1.7,1.12,3.49,2.07,5.14,3.36-.69.58-1.47,1.28-2.39,1.44-3.26,1.86-6.61,3.57-10.09,4.69-4.22,1.44-7.98,2.76-12.44,3.73l-.41.32c-6.1,1.07-12.16,1.97-18.68,2.34-7.71.75-15.82-.42-22.71-2.93-5.69-2.82-11.75-6.88-15.28-12.57-2.11-3.94-3.81-8.21-4.59-12.57-.6-.48-.09-1.44-.41-2.02-.96-5.17-.18-10.98,1.42-16.04.32-3.72,1.79-7.14,3.44-10.28,3.03-6.82,6.06-13.59,7.3-21.31-.19-1.17.41-1.87.32-2.99.51-1.75.09-4.48.32-6.23,2.39,2.29,4.4,4.85,7.11,6.87h0Z"/>
      <path class="cls-11" d="M169.54,135.11c.41,1.87.64,3.79.64,5.76-3.54,3.52-7.02,6.39-10.51,9.97-8.4,8.74-18.08,16.62-25.24,26.48-1.6,1.65-2.8,3.67-3.85,5.33-3.49,4.85-7.2,9.91-10.05,15.13l-.14.05c-2.11-3.14-2.8-7.51-2.16-11.29.55-6.66,3.48-12.47,7.11-18.01,1.7-1.87,2.85-4.05,4.59-5.81v-.21c4.4-4.22,7.25-9.6,10.1-14.34,3.21-2.66,6.88-6.08,10.46-8.79,3.99-2.93,7.29-6.02,11.56-8.68,2.52-1.23,4.22-3.15,6.74-4.48,1.65,2.61,1.06,5.86.74,8.89h0Z"/>
      <polygon class="cls-14" points="145.4 129.31 145.44 129.31 145.44 129.05 145.4 129.05 145.4 129.31 145.4 129.31"/>
      <path class="cls-14" d="M117.78,140.02c0,.05-.05.1-.05.1h-.18c.05-.05.14-.27.23-.1h0Z"/>
      <path class="cls-13" d="M170.18,141.51c-.41,1.65-.09,3.57,1.1,4.85.78,5.22-.09,10.6-1.79,15.34.14,1.76,1.75,3.14.83,5.06-1.42,5.01-6.93,6.93-9.95,10.49-1.52.96-2.94,2.4-4.22,3.68-2.11,1.54-4.31,3.04-6.24,4.79-.64.16-1.33.75-1.88,1.22-3.44,3.2-7.8,5.17-11.7,7.68-5.05,2.34-13.03,4.74-18.68,5.54,1.33-4.21,7.34-8.42,9.68-12.37,3.17-4.48,6.47-8.95,9.73-13.37,4.13-4.05,7.34-8.95,11.98-12.41,7.16-7.09,13.81-13.96,21.06-20.57l.09.05h0Z"/>
      <path class="cls-2" d="M174.26,197.51c-.23.16-.23.85,0,1.12.42,1.02,1.51,1.65,2.11,2.29.32,1.39,1.06,2.67,2.25,3.74.46,1.32,2.8,1.81,1.74,3.41-.5,1.34-1.37,2.56-1.74,3.99-2.43,3.89-4.13,8.05-7.02,11.78-1.56,1.76-2.52,3.84-3.85,5.76-3.13,4.31-5.92,8.85-9.32,12.94-.18.38-.23.75-.18,1.02-2.06,1.55-4.91,1.22-7.29,1.92-4.5,1.44-10.32,2.51-11.93,7.88-1.7,3.04.23,6.34.18,9.43.28,3.52-.41,6.88-.73,10.33-1.47,4.42-2.15,9.32-3.99,13.69-1.14,2.88-4.36,3.94-7.34,3.89-4.91-.42-9.59-4.53-11.01-9l-1.51-5.97c-.46-.59-1.19-1.06-1.88-.69-.92.27-2.06-.43-3.03-.75-3.76-2.19-5.09-6.13-5.55-10.22.09-6.24,3.21-11.78,6.47-16.89,4.91-7.83,11.33-15.29,19-21.63,4.49-3.73,9.18-7.51,14.18-10.71,4.63-3.41,9.27-5.91,13.86-9.59l.09-.32c3.39-1.39,6.88-2.56,10.23-4,2.02-1.33,3.99-2.66,6.29-3.41h0Z"/>
      <path class="cls-11" d="M106.49,206.67c.92.32,1.74.8,2.8.96,1.65.48,3.44.96,5.09,1.44-.5,1.39-1.56,2.83-2.29,4.16-1.42,1.92-1.97,4.32-3.72,5.97-4.49,3.67-8.76,7.72-14.22,9.43-6.06,1.65-13.12,3.68-18.99.37-3.99-1.97-8.21-3.89-10.74-8.05-1.42-2.4-3.4-4.64-3.76-7.51.41-.32-.14-.53.09-1.01,1.74.79,3.35,1.81,5.18,2.45,1.24,1.18,3.21.59,4.73,1.6,5.96,1.12,12.02-.37,17.11-2.93,4.54-2.45,9.08-6.39,10.6-11.51,2.61,1.65,5.32,3.25,8.12,4.64h0Z"/>
      <path class="cls-7" d="M62.91,222.82c.96,2.34,3.53,3.68,5.5,5.22,4.04,2.03,7.94,4.64,12.53,4.8,3.81.37,7.53-.91,11.15-1.82,2.66-.42,4.72-2.29,7.2-3.14l7.57-5.76c-2.43,4-4.13,8.1-5.96,12.31-7.85-1.06-14.54,2.45-20.6,6.29l-2.25,1.87c-4.22-.33-7.43-3.68-10.64-6.4-2.16-2.56-4.96-6.18-5.92-9.28-1.51-3.78-2.66-6.18-2.71-10.54,0-.58-.23-3.52.19-4.11.69,3.14,2.11,7.57,3.95,10.55h0Z"/>
      <path class="cls-11" d="M100.98,234.38c-2.43,5.59-5.23,10.76-6.65,16.73-.74,1.5-1.15,3.04-1.56,4.59-.09,1.17-.69,2.34-.83,3.68-.51,1.27-.78,2.72-.83,4.16-.42.69-.28,1.65-.69,2.29-.14,4.31-1.83,8.31-5,11.24-2.43,2.13-5.37,3.94-8.53,4.48-4.82,1.65-10.74,2.35-15.6-.05-1.88-.69-3.95-1.02-5.69-2.02-.28.26-.41-.22-.65-.32,2.39-.85,5.05-.38,7.11-1.97,5.64-1.87,7.07-7.73,8.62-12.57.88-3.57,1.38-7.25,1.38-11.25,1.7-3.94,2.75-8.52,6.56-11.24,2.89-2.67,6.56-4.79,10.18-6.29,3.81-.9,7.8-3.04,11.93-1.71l.23.27h0Z"/>
      <path class="cls-15" d="M41.8,254.73c1.33,2.5,3.21,4.69,5.74,6.02.64.64,1.65.22,2.15,1.01.69-.15.92.65,1.52.8,2.52.9,5.46,1.33,8.31,1.23,2.25.42,4.59-.26,6.56-1.28.18-.59.82-.37,1.19-.64,1.14-.85,2.57-1.5,3.62-2.4-.23,3.79-1.75,7.3-2.85,10.87-1.15,1.97-2.11,4.05-4.31,5.38l-2.48,1.07c-1.88.48-3.81.85-5.64,1.23-.46.53-1.42.32-2.02.42-2.43-1.28-4.54-3.25-6.84-4.74-5.5-4.05-7.89-10.17-8.21-16.83.32-1.33-.51-3.14.41-4.37,1.56.16,1.88,1.33,2.85,2.24h0Z"/>
      <path class="cls-11" d="M89.97,296.87c2.16,7.56,6.29,14.12,10.6,20.78,2.98,5.22,7.16,9.8,10.56,14.91,1.47,1.97,3.16,4.16,4.26,6.39,1.56,4.48,3.81,9.06,2.85,14.12-1.29,7.03-5.97,13.8-12.3,17.31-1.05.8-2.52,1.12-3.76,1.76-2.11.8-4.72.85-7.02.32,6.51-1.49,13.21-6.08,15.87-12.58,2.29-5.7,4.59-13.05,1.37-19.18-2.29-4.9-5.28-10.07-10.41-12.68-.32-.48-1.06-.64-1.56-1.07-6.65-5.43-14.04-10.82-17.89-18.54-3.72-6.71-5.19-14.12-4.73-22.49.32-.85.09-2.24.18-3.25,2.8-.95,4.82-2.66,7.25-4.53,1.47-1.33,2.71-2.72,4.09-4.26-.73,7.08-.6,15.66.64,22.96h0Z"/>
      <path class="cls-7" d="M77.54,282.86c-1.74,10.6.78,22.01,6.97,30.48-4.08,5.49-10.46,8.31-16.56,9.97-.74.53-1.56.21-2.39.32,3.44-7.83,3.58-17.31,2.8-25.58-.92-3.73-.92-7.88-2.11-11.51-.23-.85-.18-1.81-.55-2.61,3.26-.05,5.88.22,9.09-.21.87-.32,1.79-.59,2.75-.85h0Z"/>
      <path class="cls-13" d="M137.28,209.33c-2.02,2.13-4.68,4.37-6.88,6.45-1.83,1.86-3.58,3.99-5.64,5.53,0,.43-.32.33-.5.53-3.86,4.11-7.71,8-11.11,12.31-1.56,2.14-3.35,4.32-4.95,6.45-1.52,2.29-2.75,4.63-4.4,6.45-3.49,5.43-6.19,10.92-7.3,17.26-.83,2.82-.96,6.07-1.42,9.05l-.51,11.03c.51,5.11,1.28,10.12,2.98,14.86,1.01,3.94,3.49,7.62,5.41,11.29,3.03,4.69,6.52,9.22,10.37,13.69,3.49,4.8,7.71,9.48,9.86,14.98,1.47,3.2,2.43,6.66,3.44,10.07-1.98,8.37-6.47,17.21-14.82,21.47-5.18,3.14-12.11,5.28-18.26,2.88-1.88-1.17-4.31-2.13-4.82-4.53,3.12-.96,6.51-1.33,9.36-2.82,3.21-1.49,6.19-3.84,8.31-6.76.55-1.55,1.83-2.61,2.29-4.26,1.88-6.29,1.24-13-.27-19.35v-.69c2.11,2.77,3.58,6.18,4.59,9.59.42,1.6.28,3.14.37,4.64-.64,1.76-.78,4.16-1.47,6.08-1.06,3.36-2.29,6.82-4.73,9.42-3.76,4.21-8.72,6.61-14.13,7.36-.19.21.09.74.46.8,6.65,2.88,12.66-1.55,17.62-5.49,4.17-4.52,6.79-9.75,8.03-15.51.32-5.06-1.38-9.85-3.31-14.28-.5-.53-.83-1.17-1.06-1.92l-.5-.15c-2.11-3.25-4.36-6.13-6.42-9.22-4.87-5.59-8.26-12.05-12.11-18.12-2.11-3.31-2.34-3.94-3.67-7.57-1.88-7.73-2.25-17.64,1.51-29.68,2.61-8.63,1.24-1.17,2.25-6.39.55-1.59-1.01-7.08-.78-7.51-8.63-30.79,14.22-46.46,15.78-48.86-.09-.1,4.17.8,4.27.64,8.54.48,14.73.91,22.16.27h0Z"/>
      <path class="cls-5" d="M93.65,233.79s-22.94,4.21-22.57,24.14c0,0-.65,6.87-3.67,13.64,0,0,6.65-10.71,7.07-19.56,0,0,1.56-11.13,19.18-18.22h0Z"/>
      <path class="cls-10" d="M83.92,104s20,23.07,25.05,26.26c3.44,2.19,5.65,8.63,15.23,1.49,0,0-10.69,2.67-12.57-8.25-1.88-10.87-2.66-11.3-10.14-15.03-7.53-3.79-17.58-4.47-17.58-4.47h0Z"/>
      <path class="cls-7" d="M140.86,146.78s-23.81,22.22-33.68,47c0,0-1.14-13.81,16.88-34.69,0,0,20.28-18.17,21.52-28.24,0,0-2.75,12.58-4.73,15.93h0Z"/>
      <polygon class="cls-7" points="313.23 205.45 339.57 230.6 356.82 257.29 362.1 285.47 348.56 317.07 333.93 336.99 324.8 350.42 321.54 368.27 310.39 360.01 313.65 345.84 322.27 329.06 329.79 313.29 339.57 297.52 340.3 291.12 341.04 271.94 326.03 237.36 305.34 221.97 284.33 206.94 288.46 199.06 313.23 205.45 313.23 205.45"/>
      <path class="cls-11" d="M316.44,103.2c-3.53,2.45-5.41,6.18-7.33,9.7.13.42-.23.91-.6,1.17-.91,2.77-2.16,5.22-1.74,8.53h-.13c-.05.9.05,1.81-.1,2.66h-.19v5.59h.05c0-.16-.05-.32.04-.48.37.8.14,1.92.6,2.67.23,3.52,1.56,6.5,2.48,9.85.36,1.33,1.23,2.56,1.55,3.89-1.33-.64-2.57-2.02-3.76-3.09-.55.16-.5-.59-1.01-.69-4.13-3.79-8.99-7.2-13.49-10.77-3.54-1.81-6.1-4.58-9.45-6.71-.23-.16-.5-.27-.74-.37-2.11,2.71-.87,6.39-.87,9.59-.6,3.2-.73,6.08-.65,9.27-2.1,3.3-.92,7.51-.73,11.25.51,2.18,1.24,4.21,1.65,6.33-.5,1.18-1.42,2.3-1.05,3.84.22,5.33,6.19,8.05,9.59,11.09,1.56,1.6,3.53,2.77,4.64,4.79l-.05.48c-1.19,1.81-3.03,2.19-4.26,3.83-.37-.05-.79.48-1.11.7-1.42,1.38-3.16,2.5-4.82,3.79-.41.58.83.79.24,1.33-1.47,1.39-3.35,2.56-5.19,3.47-1.1.69-2.21,1.44-3.35,2.02.42-.05.5.64.78.69-2.48,2.99-3.95,6.45-7.11,8.79.82,3.57,3.16,6.45,4.63,9.7,2.02,3.83,4.36,7.51,7.16,10.97,3.45,5.38,6.98,11.03,10.97,15.88l-.09.05c-4.31-2.39-8.03-6.66-11.97-9.91-3.22-3.31-7.07-6.45-10.19-10.13l-4.77-5.11c2.02,2.93,4.77,5.38,6.84,8.31,2.3,2.34,5.05,4.53,7.25,6.82,4.18,3.89,7.66,7.25,12.07,10.5.14.42.1.69,0,.96,1.11-.53,2.07.65,3.25.75,2.58.37,5.23.69,7.66,1.39,3.22,1.17,6.98,2.34,8.82,5.49.82,1.65,1.56,3.56.96,5.48l-.64,7.78.92,8.36c1.97,5.17,2.2,11.03,5.18,15.77,2.71,1.54,5.97,2.98,9.14,1.54,6.7-1.71,9.45-8.84,10.46-14.76.36-.59.87-.21,1.33-.42,3.59.1,6.48-2.56,7.76-5.59,1.93-3.89,1.74-9.59-.42-13.37-.18-1.28-1.1-2.13-1.32-3.52-1.57-2.98-3.22-6.02-5.42-8.79-2.16-2.82-3.76-6.08-6.47-8.68-2.76-4-6.88-6.45-10.23-10.13-5-4.1-10.14-8.2-15.55-11.72-4.18-3.09-8.68-5.48-12.48-8.74l.1-.16c4.49,1.71,9.31,2.51,14.23,3.25,1.51.27,3.02.59,4.58.8.1,1.07,1.24,1.22,1.61,1.97,4.91,3.57,9.27,8.79,13.86,13.11,6.33,6.18,11.93,13.37,16.51,20.35,1.52,2.08,2.98,4.37,4.27,6.45l2.99,6.29c1.15,2.93,1.47,6.18,2.39,9.22,1.06,5.86,1.19,12.62,1.19,18.64-.96,7.99-2.66,16.09-7.07,22.86-2.7,5.06-6.74,9.96-10.59,14.39-4.22,5.91-9.45,11.99-11.84,18.92-1.78,3.3-2.1,7.3-3.57,10.76-.46,2.93-1.25,5.59-1.16,8.68-.27,2.51-.73,5.01-1.09,7.46-2.11-.59-3.85-2.34-5.88-3.36-.6-.59-1.42-1.01-2.2-1.33-1.19-1.01-2.11-2.29-3.07-3.56.6-4.21,2.57-8.26,3.76-12.52,3.71-9.91,9.45-18.97,13.21-28.88,1.88-4.11,4.22-7.78,7.34-11.35,1.7-2.88,3.62-5.75,4.91-8.84-.04-.8.68-1.5.68-2.4.96-3.51.74-7.08.74-10.97-.14-.27-.46-1.34-.92-1.07-.65,5.33-1.51,11.45-6.42,14.33-2.99,1.5-5.65,3.25-9.08,3.47-2.98.69-6.15.74-9.18.27-.13.53.83,0,.87.64,4.77,1.07,9.96,0,14.18-1.71.82-.05,1.28-.85,2.06-.95,2.34-1.02,4.22-2.62,5.69-4.59.09-.42.59-.59.73-1.02l1.06-2.02c0,4-2.12,7.25-3.63,10.71-1.79,2.93-3.67,5.59-5.87,8.15-4.22,6.02-6.19,12.94-9.54,19.34-1.61-2.02-2.8-4.79-2.02-7.46.05-.32.6-.37.5-.85-.6-1.49-1.78-2.77-2.62-4.1.09-1.23,1.42-1.97,1.33-3.3-.41-1.65-1.7-2.72-1.65-4.48-.1-1.33.14-2.77-.73-3.84-.5-1.22.87-2.19.5-3.25-1.84,1.33-.32,3.84-.19,5.65.14,1.91.19,3.89,1.52,5.33.59,1.59-1.47,2.5-1.15,3.99.42,1.44,1.88,2.45,2.39,3.79-.18,1.65-.64,3.46-.18,5.27.46,1.39,1.42,2.56,1.93,4.05-2.43,3.52-3.58,7.68-5.65,11.29-.22,1.18-.78,2.14-1.33,3.15-.19,2.5-1.7,4.47-1.88,6.98-.32,2.66-2.16,4.85-2.02,7.4,2.48,4.32,7.11,5.44,10.51,8.36.56.32,1.1.53,1.66.75.41-.59,0-1.55.32-2.08.55-3.42.91-6.82,1.19-10.18.92-2.08.5-4.64,1.38-6.66h.22c.79,3.41,2.07,6.56,3.58,9.59,1.14,1.28,1.42,2.98,2.89,3.94,3.02,5.16,8.54,7.72,13.49,9.96,5.28,2.35,12.62,2.18,17.25-1.39.96-1.01,1.98-2.08,1.88-3.62l-.5-.42c-6.51-1.02-13.17-3.14-17.25-8.85-5.19-6.6-3.53-16.09-2.11-23.81.05-.32-.18-.85.14-.96.22-2.13,2.39-3.3,3.62-4.79,2.48-1.33,4.77-3.19,7.16-4.9,1.74-1.87,3.76-2.99,5.64-4.85,1.75-1.97,4.41-3.57,5.74-6.07l.46-.27c4.77,5.33,11.57,8.84,18.49,10.44.51,0,1.38-.05,1.88.05-.13-.64-.51-1.17-.73-1.76-1.74-3.47-1.83-7.41-2.57-11.24,0-2.5-.32-4.42-.23-6.77-.09-3.19.37-6.55,1.15-9.75l-.04-1.97h.13c.41-3.09,1.33-6.13,1.88-9.22,3.03-.47,5.46-2.39,8.45-2.77,3.94-1.44,7.25-4.53,10.74-6.92,5.05-3.84,7.43-10.01,7.89-16.41-.37-2.18.96-4.8-1.19-6.02-2.94.7-3.99,4.26-5.96,6.13-2.25,2.29-5.56,3.3-8.49,4.69-3.76.48-7.89,1.33-11.6-.22-2.21-1.17-4.96-2.18-6.19-4.37l-.46-4.9c-1.29-3.84-2.75-7.68-5.83-10.66,4.22-1.07,7.57-3.84,10.65-6.98,1.24-1.44,2.52-3.09,3.26-4.85,2.29-3.94,4.4-8.47,4.9-13.38.51-1.86-.13-3.41-.23-5.22-.69-2.13-2.2.05-3.25.21-1.25.65-2.34,1.18-3.45,1.97-2.71.8-5.42,2.08-8.35,1.98l-.27.21c-.64-.37-1.11.05-1.93-.37-4.77-.1-9.45-1.65-13.49-4.16-3.58-2.45-7.02-6.02-8.17-10.12,4.22-3.62,7.85-8.15,9.22-13.54,1.56-3.73,2.48-8.25,2.62-12.57.46-3.41-.5-6.34-1.01-9.43-1.42-4.85-1.98-10.02-4.91-14.17-1.01-2.72-1.74-5.59-3.16-8.05-.74-2.35-1.56-4.59-2.34-6.93l.09-.27c-1.05-4.9-2.25-9.96-1.47-15.13,1.19-1.92,3.31-2.88,4.4-4.85,3.39-3.09,5.05-6.98,8.45-9.64.64-1.55,2.66-1.92,3.16-3.57-.36-.22-.96-.22-1.52-.22-4.62-1.75-9.81-1.65-14.63-1.44-4.05.43-7.76,2.45-11.98,1.28-2.2-.32-4.27-.96-6.2-1.82-4.67-.69-9.08-1.27-13.62,0-.69.53-1.7.16-2.39.8l-2.25,1.12h0Z"/>
      <path class="cls-11" d="M324.06,101.5c-.46.32-1.01-.05-1.47.32-4.86.58-9.31,4.48-10.55,9.06-1.19,4.21-.37,8.25,1.42,11.88,3.02,6.18,7.62,11.88,12.66,16.68,4.41,3.94,8.58,8.42,11.79,13.11,2.76,3.99,5.6,8.15,6.48,13,2.06,8.21,2.98,17.43,2.06,26.01-.51,2.51-.92,5.17-3.07,6.98-3.54,2.5-8.63,2.98-12.89,1.65-2.25-.43-4.68-.75-6.7-1.87-1.38-.22-2.58-.75-3.86-1.17-.91-.75-2.15-.85-3.25-1.34-4.09-2.29-8.08-4.69-11.98-7.35-.41-.7-1.28-1.12-1.79-1.76-2.53-1.01-4.27-3.36-6.65-4.79l-.59.1c-3.13,2.88-6.75,4.96-9.78,8.16,1.47,1.97,3.67,2.66,5.23,4.48,7.76,3.89,16.2,6.08,24.5,8.63,3.25.53,6.47,1.39,9.77,1.33,3.48-.47,7.16-.27,10.55-1.22l5.73-1.81.24.16c1.64-1.34,3.9-2.56,5.08-4.58,1.56-2.94,1.29-6.56,2.44-9.65.05-2.45.46-5.43.51-7.99-.36-1.71-.27-3.57-.14-5.39-.27-1.54-.5-3.46-.55-5.06h-.09c-1.84-6.4-4.27-12.63-7.57-18.27-.73-1.87-1.79-3.52-2.85-5.28-.92-.33-.92-1.76-1.97-1.97-1.05-1.92-2.8-3.47-4.59-4.69-1.51-2.5-4.54-4.32-5.18-7.25.96-.16,1.69,1.07,2.62,1.44,1.69,1.39,3.81,2.13,6.1,1.65,4.72-.53,7.2-4.74,10.83-7.41l.04-.32c3.08-3.09,6.19-6.18,9.27-9.17,2.56-3.25,5.65-6.76,8.39-10.12,1.47-1.07,2.25-2.82,3.76-3.67.14-.27-.09-.48-.32-.48-.92.53-1.61-.27-2.43-.37-3.9-.8-8.17-.75-12.16-.64-4.17.64-8.44,2.56-12.81,1.22-1.92-.43-4.03-1.02-5.87-1.65-2.89-.37-5.42-1.28-8.4-.85-.55.37-1.42.16-1.97.27h0Z"/>
      <path class="cls-2" d="M308.1,117.64c-.6,3.62-1.06,7.35-.78,11.14-.18,1.7.23,3.51.41,5.28,1.56,5.8,2.8,11.72,6.24,16.73,2.52,4.31,5.6,8.68,8.99,12.25,3.58,4.54,7.33,9.33,9.08,14.82,1.01,1.33,1.09,3.14,1.75,4.58.64,4.16,1.6,8.79-.05,12.84-.55,1.49-1.69,2.88-1.61,4.53,4.36.96,8.82-.16,11.93-3.04,2.38-3.83,1.75-8.52,2.16-12.94,0-8.36-1.2-16.73-4.22-24.14-3.17-5.59-6.74-10.6-11.34-15.55-5.82-5.06-11.24-10.23-15.05-16.31-2.2-3.14-3.85-6.87-4.87-10.55-.36-2.02,0-4.1.19-6.07-1.2,1.86-2.39,4.05-2.85,6.45h0Z"/>
      <path class="cls-15" d="M345.07,129.25c-1.42,1.87-3.39,3.2-5.28,4.8-2.29,1.49-5.19,1.97-7.79,1.28-1.42-.8-2.99-1.6-4.04-2.72,1.79,2.56,4.17,5.07,6.74,7.19,2.07,2.62,3.99,5.12,5.92,7.83,1.14,2.08,2.16,4.27,3.35,6.29,2.39,4.9,4.22,10.17,5.74,15.45.19,1.6.37,3.14.69,4.74-.46,3.41.65,7.03-.23,10.55,0,3.79-1.15,7.25-1.69,10.97-1.15,3.35-4.73,6.34-8.12,7.09-.51.1-1.15.69-1.69.53l-.55.37c-3.91,1.12-8.12.9-12.12,1.49-11.33-.37-21.29-4.53-31.38-8.2-1.84-1.07-3.95-1.55-5.55-3.09l-.14-.43c-.51.16-1.24-.59-1.65-.96-.46-.05-.83-.59-1.19-.75-1.33.11-1.7,1.55-2.94,1.76-1.69,1.12-3.49,2.07-5.14,3.36.69.58,1.47,1.28,2.39,1.44,3.26,1.86,6.56,3.57,10.1,4.69,4.22,1.44,7.98,2.76,12.43,3.73l.42.32c6.05,1.07,12.15,1.97,18.62,2.34,7.75.75,15.87-.42,22.71-2.93,5.73-2.82,11.79-6.88,15.28-12.57,2.15-3.94,3.85-8.21,4.63-12.57.6-.48.04-1.44.42-2.02.96-5.17.18-10.98-1.42-16.04-.32-3.72-1.79-7.14-3.44-10.28-3.03-6.82-6.11-13.59-7.34-21.31.23-1.17-.36-1.87-.27-2.99-.5-1.75-.09-4.48-.33-6.23-2.39,2.29-4.4,4.85-7.11,6.87h0Z"/>
      <path class="cls-13" d="M282.4,135.11c-.41,1.87-.64,3.79-.64,5.76,3.49,3.52,7.02,6.39,10.51,9.97,8.39,8.74,18.08,16.62,25.24,26.48,1.61,1.65,2.75,3.67,3.85,5.33,3.49,4.85,7.21,9.91,10.05,15.13l.14.05c2.11-3.14,2.76-7.51,2.16-11.29-.56-6.66-3.49-12.47-7.11-18.01-1.7-1.87-2.89-4.05-4.63-5.81v-.21c-4.36-4.22-7.2-9.6-10.09-14.34-3.22-2.66-6.85-6.08-10.42-8.79-3.99-2.93-7.34-6.02-11.56-8.68-2.53-1.23-4.22-3.15-6.74-4.48-1.65,2.61-1.1,5.86-.73,8.89h0Z"/>
      <polygon class="cls-14" points="306.44 129.31 306.49 129.31 306.49 129.05 306.44 129.05 306.44 129.31 306.44 129.31"/>
      <path class="cls-14" d="M334.16,140.02c0,.05.05.1.05.1h.18c-.09-.05-.14-.27-.23-.1h0Z"/>
      <path class="cls-11" d="M281.76,141.51c.41,1.65.1,3.57-1.1,4.85-.78,5.22.09,10.6,1.79,15.34-.18,1.76-1.75,3.14-.83,5.06,1.38,5.01,6.94,6.93,9.96,10.49,1.51.96,2.94,2.4,4.22,3.68,2.11,1.54,4.31,3.04,6.19,4.79.69.16,1.38.75,1.93,1.22,3.44,3.2,7.79,5.17,11.7,7.68,5.05,2.34,13.03,4.74,18.68,5.54-1.33-4.21-7.39-8.42-9.68-12.37-3.16-4.48-6.47-8.95-9.73-13.37-4.13-4.05-7.34-8.95-11.97-12.41-7.16-7.09-13.81-13.96-21.06-20.57l-.1.05h0Z"/>
      <path class="cls-2" d="M277.68,197.51c.23.16.23.85,0,1.12-.42,1.02-1.56,1.65-2.11,2.29-.32,1.39-1.06,2.67-2.25,3.74-.46,1.32-2.8,1.81-1.75,3.41.5,1.34,1.33,2.56,1.75,3.99,2.43,3.89,4.13,8.05,6.97,11.78,1.61,1.76,2.57,3.84,3.9,5.76,3.12,4.31,5.92,8.85,9.31,12.94.19.38.23.75.19,1.02,2.07,1.55,4.87,1.22,7.3,1.92,4.45,1.44,10.32,2.51,11.93,7.88,1.65,3.04-.24,6.34-.19,9.43-.27,3.52.36,6.88.73,10.33,1.47,4.42,2.16,9.32,3.99,13.69,1.15,2.88,4.36,3.94,7.35,3.89,4.91-.42,9.59-4.53,10.97-9l1.56-5.97c.42-.59,1.15-1.06,1.88-.69.92.27,2.06-.43,2.98-.75,3.81-2.19,5.14-6.13,5.6-10.22-.09-6.24-3.22-11.78-6.47-16.89-4.91-7.83-11.33-15.29-19-21.63-4.54-3.73-9.22-7.51-14.17-10.71-4.68-3.41-9.27-5.91-13.85-9.59l-.1-.32c-3.39-1.39-6.88-2.56-10.23-4-2.02-1.33-3.99-2.66-6.28-3.41h0Z"/>
      <path class="cls-11" d="M277.49,197.72c.1.1.1.59-.04.74-.27.65-.82,1.12-1.33,1.55l-.78.75c-.37,1.49-1.14,2.71-2.2,3.68l-.05.05-.04.1c-.13.38-.55.75-.96,1.07-.68.59-1.56,1.33-.73,2.56-.05-.05.73,1.65.73,1.65.37.7.74,1.5.96,2.24.04.11,2.62,4.64,2.62,4.64,1.28,2.4,2.65,4.96,4.44,7.25.97,1.12,1.7,2.29,2.43,3.52l1.42,2.24,2.93,4.21c2.02,2.93,4.09,5.96,6.39,8.79.09.21.18.53.13.75l-.05.22.13.1c1.38,1.02,3.08,1.22,4.68,1.44l2.71.48,1.65.54c4.09,1.17,8.72,2.56,10.09,7.19,1.06,1.91.65,3.83.24,5.91-.24,1.12-.46,2.29-.41,3.41-.23,2.61.09,5.17.41,7.67l.32,2.66c0,.05,1.51,5.59,1.51,5.59.69,2.77,1.38,5.59,2.48,8.21,1.05,2.61,3.9,4.1,7.62,4.05,4.82-.37,9.77-4.42,11.23-9.22l1.56-5.91c.27-.43.88-.85,1.52-.53.82.22,1.69-.16,2.52-.48l.64-.27c3.35-1.92,5.23-5.33,5.78-10.44-.1-6.51-3.44-12.25-6.51-17.11-5-7.99-11.61-15.5-19.04-21.68-4.45-3.68-9.17-7.51-14.18-10.77l-5.74-3.84c-2.66-1.75-5.41-3.51-8.08-5.65,0-.1-.09-.42-.09-.42l-4.49-1.65-5.83-2.29-.23-.16c-1.97-1.33-3.85-2.61-6.15-3.3l-.96-.32.73.8h0ZM276.48,200.44c.55-.43,1.15-.96,1.42-1.71.14-.15.19-.42.19-.69v-.05c1.97.74,3.67,1.81,5.45,3.04l.28.16s5.91,2.29,5.91,2.29c0,0,3.99,1.55,4.22,1.65,0,.06.09.27.09.27l.05.06c2.71,2.18,5.51,3.99,8.17,5.75l5.73,3.84c5,3.25,9.73,7.08,14.13,10.71,7.39,6.13,13.95,13.59,18.95,21.58,3.02,4.79,6.28,10.44,6.42,16.78-.56,4.84-2.34,8.1-5.46,9.9l-.65.27c-.73.32-1.51.65-2.11.48-.73-.37-1.6-.05-2.2.8-.05.1-1.61,6.02-1.61,6.02-1.42,4.59-6.15,8.48-10.73,8.85-1.29,0-5.65-.21-7.02-3.73-1.1-2.56-1.79-5.39-2.48-8.1l-1.52-5.59c0-.06-.32-2.61-.32-2.61-.23-1.92-.46-3.89-.46-5.91,0-.53,0-1.12.05-1.65v-.16c0-1.07.23-2.13.42-3.2.23-1.07.46-2.19.46-3.25s-.19-2.03-.74-2.98c-1.42-4.85-6.19-6.29-10.41-7.51l-1.65-.53-2.8-.53c-1.55-.21-3.07-.42-4.31-1.28v-.05c0-.32-.09-.64-.23-.9-2.29-2.82-4.36-5.86-6.38-8.74l-2.93-4.27-1.38-2.18c-.73-1.23-1.51-2.51-2.52-3.62-1.75-2.24-3.07-4.74-4.4-7.14l-2.58-4.58c-.18-.75-.59-1.55-.96-2.3l-.72-1.65c-.19-.26-.28-.48-.28-.64,0-.42.37-.74.87-1.22.46-.32.88-.75,1.1-1.23,1.16-1.06,1.93-2.39,2.3-3.83-.04.1.65-.58.65-.58h0Z"/>
      <path class="cls-13" d="M345.4,206.67c-.88.32-1.75.8-2.76.96-1.69.48-3.44.96-5.13,1.44.55,1.39,1.61,2.83,2.33,4.16,1.42,1.92,1.98,4.32,3.72,5.97,4.5,3.67,8.72,7.72,14.23,9.43,6.06,1.65,13.12,3.68,19,.37,3.99-1.97,8.21-3.89,10.73-8.05,1.42-2.4,3.4-4.64,3.72-7.51-.37-.32.19-.53-.05-1.01-1.75.79-3.39,1.81-5.18,2.45-1.24,1.18-3.21.59-4.73,1.6-5.96,1.12-12.02-.37-17.16-2.93-4.49-2.45-9.04-6.39-10.59-11.51-2.57,1.65-5.28,3.25-8.12,4.64h0Z"/>
      <path class="cls-15" d="M389.03,222.82c-.96,2.34-3.54,3.68-5.51,5.22-4.04,2.03-7.94,4.64-12.52,4.8-3.81.37-7.53-.91-11.16-1.82-2.65-.42-4.72-2.29-7.2-3.14l-7.57-5.76c2.44,4,4.13,8.1,5.97,12.31,7.84-1.06,14.54,2.45,20.6,6.29l2.25,1.87c4.22-.33,7.43-3.68,10.64-6.4,2.15-2.56,4.96-6.18,5.92-9.28,1.52-3.78,2.66-6.18,2.71-10.54,0-.58.18-3.52-.18-4.11-.7,3.14-2.12,7.57-3.95,10.55h0Z"/>
      <path class="cls-4" d="M350.95,234.38c2.44,5.59,5.23,10.76,6.65,16.73.73,1.5,1.1,3.04,1.56,4.59.09,1.17.68,2.34.78,3.68.55,1.27.82,2.72.86,4.16.42.69.28,1.65.7,2.29.13,4.31,1.83,8.31,4.99,11.24,2.43,2.13,5.37,3.94,8.54,4.48,4.82,1.65,10.74,2.35,15.61-.05,1.84-.69,3.94-1.02,5.69-2.02.27.26.42-.22.59-.32-2.34-.85-5-.38-7.07-1.97-5.64-1.87-7.06-7.73-8.62-12.57-.87-3.57-1.38-7.25-1.38-11.25-1.69-3.94-2.75-8.52-6.6-11.24-2.85-2.67-6.51-4.79-10.14-6.29-3.81-.9-7.84-3.04-11.93-1.71l-.23.27h0Z"/>
      <path class="cls-7" d="M410.14,254.73c-1.38,2.5-3.21,4.69-5.74,6.02-.64.64-1.66.22-2.16,1.01-.68-.15-.92.65-1.51.8-2.56.9-5.46,1.33-8.31,1.23-2.25.42-4.63-.26-6.6-1.28-.14-.59-.79-.37-1.15-.64-1.14-.85-2.56-1.5-3.62-2.4.22,3.79,1.74,7.3,2.79,10.87,1.19,1.97,2.16,4.05,4.37,5.38l2.47,1.07c1.88.48,3.76.85,5.65,1.23.46.53,1.42.32,2.02.42,2.43-1.28,4.5-3.25,6.83-4.74,5.51-4.05,7.9-10.17,8.22-16.83-.32-1.33.51-3.14-.46-4.37-1.51.16-1.83,1.33-2.79,2.24h0Z"/>
      <path class="cls-13" d="M361.91,296.87c-2.11,7.56-6.24,14.12-10.59,20.78-2.99,5.22-7.16,9.8-10.51,14.91-1.47,1.97-3.16,4.16-4.31,6.39-1.51,4.48-3.76,9.06-2.79,14.12,1.28,7.03,5.96,13.8,12.29,17.31,1.06.8,2.53,1.12,3.76,1.76,2.11.8,4.73.85,6.98.32-6.48-1.49-13.17-6.08-15.83-12.58-2.29-5.7-4.63-13.05-1.42-19.18,2.34-4.9,5.33-10.07,10.46-12.68.32-.48,1.06-.64,1.56-1.07,6.65-5.43,14.03-10.82,17.88-18.54,3.72-6.71,5.19-14.12,4.73-22.49-.36-.85-.13-2.24-.18-3.25-2.8-.95-4.82-2.66-7.25-4.53-1.47-1.33-2.7-2.72-4.08-4.26.73,7.08.59,15.66-.69,22.96h0Z"/>
      <path class="cls-3" d="M374.4,282.86c1.74,10.6-.79,22.01-6.98,30.48,4.09,5.49,10.46,8.31,16.57,9.97.73.53,1.55.21,2.34.32-3.39-7.83-3.53-17.31-2.75-25.58.92-3.73.92-7.88,2.11-11.51.23-.85.14-1.81.55-2.61-3.25-.05-5.88.22-9.08-.21-.87-.32-1.79-.59-2.75-.85h0Z"/>
      <path class="cls-11" d="M314.66,209.33c2.02,2.13,4.68,4.37,6.88,6.45,1.84,1.86,3.58,3.99,5.6,5.53,0,.43.36.33.5.53,3.9,4.11,7.75,8,11.1,12.31,1.61,2.14,3.39,4.32,5,6.45,1.52,2.29,2.75,4.63,4.37,6.45,3.53,5.43,6.24,10.92,7.33,17.26.78,2.82.96,6.07,1.42,9.05l.5,11.03c-.5,5.11-1.28,10.12-2.98,14.86-1.01,3.94-3.49,7.62-5.42,11.29-3.03,4.69-6.56,9.22-10.37,13.69-3.49,4.8-7.76,9.48-9.87,14.98-1.47,3.2-2.43,6.66-3.44,10.07,1.97,8.37,6.47,17.21,14.82,21.47,5.19,3.14,12.11,5.28,18.26,2.88,1.88-1.17,4.27-2.13,4.82-4.53-3.11-.96-6.51-1.33-9.35-2.82-3.26-1.49-6.25-3.84-8.31-6.76-.55-1.55-1.88-2.61-2.29-4.26-1.88-6.29-1.24-13,.27-19.35v-.69c-2.11,2.77-3.58,6.18-4.59,9.59-.46,1.6-.27,3.14-.36,4.64.64,1.76.77,4.16,1.47,6.08,1.05,3.36,2.29,6.82,4.73,9.42,3.76,4.21,8.71,6.61,14.12,7.36.19.21-.09.74-.46.8-6.65,2.88-12.65-1.55-17.62-5.49-4.17-4.52-6.79-9.75-8.02-15.51-.32-5.06,1.38-9.85,3.3-14.28.5-.53.82-1.17,1.06-1.92l.5-.15c2.06-3.25,4.36-6.13,6.42-9.22,4.87-5.59,8.22-12.05,12.11-18.12,2.11-3.31,2.34-3.94,3.67-7.57,1.88-7.73,2.25-17.64-1.51-29.68-2.61-8.63-1.24-1.17-2.25-6.39-.56-1.59.96-7.08.73-7.51,8.67-30.79-14.18-46.46-15.78-48.86.13-.1-4.14.8-4.27.64-8.49.48-14.69.91-22.12.27h0Z"/>
      <path class="cls-5" d="M358.29,233.79s22.94,4.21,22.57,24.14c0,0,.65,6.87,3.68,13.64,0,0-6.65-10.71-7.07-19.56,0,0-1.56-11.13-19.18-18.22h0Z"/>
      <path class="cls-7" d="M368.02,104s-20,23.07-25.09,26.26c-3.39,2.19-5.6,8.63-15.19,1.49,0,0,10.68,2.67,12.56-8.25,1.88-10.87,2.62-11.3,10.15-15.03,7.52-3.79,17.57-4.47,17.57-4.47h0Z"/>
      <path class="cls-7" d="M311.08,146.78s23.81,22.22,33.68,47c0,0,1.14-13.81-16.89-34.69,0,0-20.32-18.17-21.52-28.24,0,0,2.76,12.58,4.73,15.93h0Z"/>
      <polygon class="cls-10" points="140.4 246.69 317.4 246.69 320.75 338.59 315.72 385.37 299.93 422.03 284.14 446.81 258.77 460.34 227.76 469.4 202.39 462.63 171.97 440.63 150.54 405.14 140.4 347.06 142.65 299.11 140.4 246.69 140.4 246.69"/>
      <path class="cls-12" d="M283.5,420.91l-1.51-.05c-8.45-1.82-16.7-4-25.61-2.3-7.42,1.39-13.07,5.71-20.27,7.36-5.14,1.22-10.14,1.12-15.28.32-7.39-1.17-13.95-4.26-20.92-6.71-9.31-3.25-19.18.15-28.08,3.41-2.61,1.02-3.95,3.94-2.89,6.5.69,1.87,2.34,3.04,4.13,3.25.55.85,1.33,1.6,2.34,2.08l.6.26c3.35,4.16,7.34,7.46,11.79,10.71,8.81,6.5,16.88,12.09,27.48,14.92,6.33,1.65,12.53,2.5,18.99,1.55,8.76-1.28,16.79-3.84,24.64-7.88,10.14-5.28,17.48-13.48,25.24-21.42l2.29-2.35c.74-.59,1.25-1.38,1.56-2.29l.23-.69c.19-.48,3.72.11,3.72-.43.04-2.82-5.69-6.23-8.45-6.23h0Z"/>
      <path class="cls-1" d="M283,429.49c-18.03-7.89-34.36,0-34.36,0,0,0-20.05,11.82-43.13.58-23.12-11.3-35.23-.58-35.23-.58l5.41,3.09s12.11-10.71,35.24.59c23.12,11.29,43.13-.59,43.13-.59,0,0,15-7.25,32.16-.85l.18-.27-3.39-1.97h0Z"/>
      <path class="cls-1" d="M253.77,439.56c-23.13,11.29-43.13-.53-43.13-.53,0,0-15-7.25-32.12-.96l1.38,1.28c14.08-2.61,25.32,2.77,25.32,2.77,0,0,20.01,11.82,43.08.53,15.14-7.36,25.56-5.33,30.93-3.04l3.39-3.84c-5.78-1.87-15.46-2.72-28.85,3.79h0Z"/>
      <path class="cls-1" d="M251.43,450.85s-20.01,11.83-43.13.53c-9.04-4.42-16.43-5.43-22.02-5.06l4.04,3.19c5.78-.64,13.58.22,23.4,5.01,23.12,11.25,43.12-.59,43.12-.59,0,0,3.49-1.65,8.99-2.71l5.1-3.84c-11.25-.53-19.5,3.46-19.5,3.46h0Z"/>
      <path class="cls-11" d="M323.01,240.51h-188.85l-.55,117.8c10.14,116.16,99.79,116.74,99.79,116.74,88.51-17.48,92.45-117.27,92.45-117.27l-2.85-117.27h0ZM312.77,253.4l1.93,80.24-27.07-27.07c1.56-.48,2.89-1.44,3.94-2.72,1.61,1.92,3.95,3.15,6.52,3.15,4.82,0,8.76-4.27,8.76-9.54s-3.94-9.59-8.76-9.59c-2.57,0-4.91,1.22-6.52,3.14-.73-.9-1.64-1.65-2.66-2.19,2.61-1.65,4.41-4.74,4.41-8.3,0-5.28-3.95-9.54-8.77-9.54s-8.76,4.27-8.76,9.54c0,3.83,2.02,7.08,4.95,8.63-1.19.74-2.2,1.81-2.99,3.03-1.56-2.61-4.27-4.31-7.29-4.31-4.86,0-8.77,4.31-8.77,9.59s3.91,9.54,8.77,9.54c3.02,0,5.73-1.71,7.29-4.32,1.2,1.97,3.03,3.46,5.19,4.05l-24.69,25.52-25.55-25.58c1.64-.48,3.15-1.44,4.26-2.82,1.61,1.92,3.91,3.15,6.47,3.15,4.86,0,8.82-4.27,8.82-9.54s-3.96-9.59-8.82-9.59c-2.56,0-4.86,1.22-6.47,3.14-.73-.9-1.65-1.65-2.66-2.19,2.62-1.65,4.4-4.74,4.4-8.3,0-5.28-3.94-9.54-8.76-9.54s-8.8,4.27-8.8,9.54c0,3.83,2.06,7.08,5,8.63-1.19.74-2.2,1.81-2.99,3.03-1.56-2.61-4.26-4.31-7.34-4.31-4.82,0-8.76,4.31-8.76,9.59s3.95,9.54,8.76,9.54c3.08,0,5.78-1.71,7.34-4.32,1.15,1.87,2.85,3.3,4.86,3.94l-25.28,26.11-25.92-25.9c1.97-.37,3.72-1.44,5-2.99,1.6,1.92,3.9,3.15,6.47,3.15,4.86,0,8.76-4.27,8.76-9.54s-3.9-9.59-8.76-9.59c-2.57,0-4.86,1.22-6.47,3.14-.78-.9-1.7-1.65-2.71-2.19,2.62-1.65,4.4-4.74,4.4-8.3,0-5.28-3.9-9.54-8.77-9.54s-8.76,4.27-8.76,9.54c0,3.83,2.02,7.08,4.95,8.63-1.19.74-2.2,1.81-2.93,3.03-1.61-2.61-4.27-4.31-7.34-4.31-4.87,0-8.76,4.31-8.76,9.59s3.9,9.54,8.76,9.54c3.08,0,5.74-1.71,7.34-4.32,1.01,1.7,2.48,2.99,4.22,3.73l-27.94,28.83.41-81.84h168.06ZM232.98,462.09s-74.23-.47-87.58-93.29l29.59-30.58,21.2,21.2,7.25,7.31,7.3-7.56,20.28-20.95,20.19,20.2,7.76,7.78,7.79-8.05,19.27-19.93,28.31,28.35c-3.26,22.81-17.8,83.01-81.35,95.53h0Z"/>
      <polygon class="cls-11" points="227.07 354.42 227.89 411.38 232.39 411.27 231.56 354.36 227.07 354.42 227.07 354.42"/>
      <path class="cls-11" d="M211.84,406.84l1.97,1.07s14.13-25.63,15.87-28.87c1.74,3.24,15.69,29.72,15.69,29.72l1.97-1.07-17.61-33.4-17.89,32.55h0Z"/>
      <polygon class="cls-6" points="205.5 369.39 250.88 362.89 251.43 369.12 244.69 367.15 240.74 371.94 235.65 368.8 230.28 373.6 223.81 370.77 217.89 374.77 212.25 372.21 206.61 375.89 205.5 369.39 205.5 369.39"/>
      <path class="cls-6" d="M264.5,385.96s-8.39,23.33-33.95,22.53h-.46c-25.56.8-33.91-22.53-33.91-22.53l-19.73,1.12.55,6.18,14.68.59c12.25,36.23,36.11,36.18,38.63,36.07,2.57.11,26.43.16,38.68-36.07l14.63-.59.6-6.18-19.74-1.12h0Z"/>
      <path class="cls-8" d="M260.93,21.05c-.46-2.83-1.29-5.54-3.13-7.78-2.11-2.51-4.77-4.21-7.66-5.49.09.1.24.22.32.32-4.31-2.24-8.53-4.58-13.54-5.49-6.93-1.22-14.04-1.7-20.33,1.5.14,0,.23-.05.37-.11-1.29.43-2.43,1.23-3.35,2.24-.92.59-1.74,1.28-2.57,2.03-1.01.95-1.61,2.13-2.02,3.41-2.57,3.41-3.07,8.42-2.57,12.68,1.42,4.42,3.58,8.53,7.07,11.83,4.18,3.89,8.53,7.45,13.67,9.85,1.93,1.44,3.85,2.88,5.78,4.32-.18-.16-.36-.27-.55-.43.69.53,1.29,1.12,1.79,1.87,1.28,1.92,4.27,4.74,4.17,4.69.32.37.46,6.07.6,6.28.36.85,2.89.37,3.76,0,0,0,4.31-6.71,4.36-7.14,1.05-2.66,1.01-5.8-.65-8.31-2.15-3.25-5.42-4.91-8.31-7.14-.59-.59-1.38-1.07-2.1-1.49.13.1.27.21.45.32-2.16-1.39-4.13-3.14-6.65-3.84.18.1.32.22.46.32-1.52-1.01-3.07-1.86-4.5-3.04-3.07-2.56-6.01-4.9-8.76-7.62-.96-1.97-.73-4.26-.78-6.34,1.15-1.92,2.89-3.73,5.14-3.94,3.62-.37,7.2-.27,10.59,1.07,1.29.53,2.48.96,3.68,1.65,1.38.8,2.66,1.6,3.99,2.34-.18-.16-.32-.26-.5-.42,4.09,2.93,8.08,6.02,11.84,9.37,2.16,1.23,4.86,1.33,7.07-.1,2.56-1.65,3.26-4.64,2.85-7.4h0Z"/>
      <path class="cls-11" d="M227.76,23.07c6.43,0,11.66-2.56,11.66-5.81s-5.23-5.81-11.66-5.81-11.65,2.61-11.65,5.81,5.23,5.81,11.65,5.81h0Z"/>
      <path class="cls-11" d="M254.65,206.3s-1.2.47-5.42,1.59l5.42-1.59-5.93-11.57c8.31-15.88,12.21-21.47,9.82-36.18-.55-3.25-1.01-12.41-3.03-15.02-6.33-8.05-8.31-13.96-17.66-18.01.28.1-15.69-3.09-15.42-3.04-7.52-1.87-24.73,1.02-37.58,9.06-8.99,5.59-14.78,20.94-16.89,23.65-.51.33-6.88,7.68-9.04,11.83l-.87,2.88c-.05.05-.05.11-.05.16-.09,1.07.09,2.07.46,3.04l-7.57.1s-2.25,4.16,1.15,7.19l32.53,29.94-21.98,31.28,29.32-21.42,3.3,3.79.42-.16c-16.93,9.65-22.94,22.7-22.94,22.7l28.17,30.04,12.8-30.42,13.53-18.81,65.06,12.63c-8.16-28.24-37.62-33.67-37.62-33.67h0Z"/>
      <path class="cls-9" d="M204.91,180.46l-54-7.25s-2.48-.53,6.93-4.32l74.69-8.15-14.95,12.95,4.36,5.54,25.92,36.49s26.93-2.29,44.14,22.22l.28,2.02s-27.62-21.15-46.52-11.29c0,0-16.65,5.06-44.87,47.89,0,0,2.53-23.17,29.96-57.75,0,0,1.1-31.01-25.92-38.36h0Z"/>
      <path class="cls-8" d="M248.22,102.14c-.05-3.41-.5-6.76-2.48-9.8-1.15-1.76-2.11-3.36-3.39-5.01-2.89-3.73-6.94-5.59-10.97-7.67-1.79-.91-3.62-1.65-5.41-2.61-1.33-.69-2.62-1.44-3.76-2.51-.64-.59-1.19-1.17-1.88-1.7-1.06-.8-2.2-1.33-3.17-2.08-.23-.38-.46-.7-.64-1.07-.69-1.17-.92-2.45-1.15-3.73.78-2.08.05-4.27.19-6.39,0-.96-.78-1.71-1.7-1.71-.97,0-1.7.75-1.7,1.71-.6,1.12-1.42,2.24-1.33,3.62-.23.53-.37,1.12-.41,1.75-.23,4.05-.55,8.2.78,12.15,2.94,5.59,5.46,11.4,10.28,15.83,2.34,2.19,4.54,4.21,7.02,6.23,1.65,1.33,3.12,2.56,4.95,3.79,1.01.75,2.07,1.55,3.13,2.24,1.88,1.92,4.08,3.46,6.74,3.94.92.21,1.84-.32,2.06-1.22.04-.16.04-.32.04-.48,1.47-1.27,2.34-3.46,2.8-5.28h0ZM239.09,102.46c-.09-.16-.13-.32-.23-.42v-.05c.1.15.14.32.23.48h0ZM243.99,96.22c.28.75.51,1.49.6,2.29-.27-.74-.46-1.49-.6-2.29h0Z"/>
      <path class="cls-4" d="M304.01,199.69h-2.06c-.88-.85-.04-.27-1.29.15-.68.22-3.52-.52-4.22-.32-2.89-.32-5.59-1.12-7.88-3.41-9.04-8.95-11.16-20.89-14.31-32.4-1.79-6.34-5.14-12.79-10.88-16.57-7.11-4.69-16.89-6.02-24.14-.96-.31.27-.59.58-.77.91-1.16.75-1.7,2.13-1.38,3.52.42,1.87,2.2,2.99,4.03,2.56,3.03-.42,6.15-.32,8.58,1.7.96.8,1.42,1.92,1.7,3.04.05.21.09.43.13.64.05.27.09.53.09.8.87,6.08,1.29,12.1,2.89,18.01,2.62,4.31,3.04,9.43,5.42,14.06,5.04,9.8,14.58,17.53,26.05,17.05,3.96-.1,7.62-.96,11.25-2.07,2.66.21,7.2-2.02,10.32-5.06,1.88-.32,1.28.85.92-1.01-.32-1.81-2.61-.96-4.45-.64h0Z"/>
      <path class="cls-11" d="M239.09,145.99s-.92.96-.92.96c-1.14.8-1.74,2.29-1.38,3.78.24.96.79,1.76,1.61,2.3.82.47,1.84.64,2.8.42,3.67-.54,6.34,0,8.31,1.7.78.65,1.28,1.55,1.6,2.82l.14.65c0-.06.1.79.1.79l.59,4.69c.55,4.37,1.1,8.95,2.3,13.32,1.42,2.4,2.15,4.85,2.94,7.46.68,2.24,1.38,4.53,2.52,6.66,4.45,8.68,13.68,17.74,26.29,17.26,3.58-.16,7.21-.8,11.34-2.13,2.62.21,7.16-2.02,10.37-5.06.64-.11.96,0,1.01.05l.64.32-.27-.75-.32-.96c-.09-.48-.32-.85-.64-1.07-.83-.53-2.12-.22-3.35.05,0,0-.74.16-.79.16h-1.93c-.05-.1-.13-.16-.13-.16-.19-.21-.28-.32-.46-.27h-.14l-.14.16c-.04.1-.13.27-.59.42-.28.11-1.19-.05-1.97-.15-1.15-.22-1.88-.27-2.25-.16-3.26-.37-5.65-1.38-7.57-3.3-7.79-7.73-10.46-17.85-13.02-27.6l-1.25-4.69c-1.47-5.33-4.58-12.52-11.01-16.73-6.61-4.37-16.74-6.39-24.41-.96h0ZM238.72,152.54c-.68-.48-1.18-1.17-1.38-1.97-.31-1.23.19-2.5,1.25-3.25.09-.05.83-.9.83-.9,7.47-5.22,17.34-3.3,23.81.96,6.24,4.16,9.26,11.25,10.73,16.46l1.24,4.69c2.61,9.8,5.28,19.98,13.16,27.81,2.02,2.02,4.59,3.09,8.03,3.46.41-.1,1.38.05,2.12.16,1.14.22,1.83.32,2.24.15.41-.15.65-.32.74-.47.09.05.32.32.32.32h.14l2.06.05.88-.21c1.15-.27,2.3-.53,2.89-.1.23.15.37.37.42.69,0,0,.13.38.23.64-.27,0-.55-.06-.92.05h-.1l-.04.05c-3.07,2.99-7.52,5.17-10.09,5.01-4.22,1.28-7.79,1.97-11.29,2.08-12.38.48-21.42-8.42-25.83-16.94-1.05-2.08-1.74-4.37-2.43-6.56-.78-2.5-1.56-5.16-2.98-7.51-1.15-4.26-1.71-8.79-2.21-13.16l-.59-4.74-.13-.8c0-.05-.14-.64-.14-.64-.37-1.44-.92-2.45-1.79-3.2-2.8-2.34-6.34-2.13-8.82-1.76-.82.16-1.65.05-2.34-.37h0Z"/>
      <path class="cls-13" d="M290.29,212.96c-.65-.21-1.34-.37-2.02-.53-.64-1.02.05-.22-1.28-.11-.69.05-3.25-1.33-3.99-1.27-2.76-.96-5.23-2.35-6.93-5.07-6.79-10.87-6.1-22.91-6.6-34.84-.28-6.61-2.07-13.59-6.79-18.6-5.88-6.18-15.05-9.75-23.26-6.45-.41.16-.74.42-1.02.69-1.24.48-2.11,1.71-2.11,3.14,0,1.87,1.47,3.42,3.35,3.42,3.03.27,6.06,1.07,7.94,3.62.78,1.01.96,2.13.96,3.31v.64c0,.27-.05.53-.05.8-.6,6.13-1.56,12.09-1.33,18.22,1.56,4.79.83,9.91,2.11,14.92,2.66,10.71,10.19,20.4,21.47,22.53,3.9.75,7.66.8,11.42.53,2.58.8,7.48-.32,11.25-2.61,1.84.1,1.05,1.12,1.1-.75.1-1.87-2.34-1.54-4.22-1.6h0Z"/>
      <path class="cls-11" d="M239.27,145.83l-1.06.74c-1.33.53-2.25,1.87-2.25,3.36,0,2.03,1.65,3.68,3.67,3.68,3.72.32,6.15,1.44,7.71,3.51.65.8.92,1.82.92,3.15v.64l-.04.8-.5,4.69c-.51,4.42-1.01,8.95-.83,13.53.83,2.61,1.02,5.22,1.2,7.94.13,2.3.32,4.69.92,7.04,2.34,9.48,9.31,20.41,21.69,22.75,3.5.7,7.16.85,11.52.54,2.48.8,7.43-.32,11.24-2.56.64.05.92.22.96.27l.55.48-.09-.8-.09-.96v-.1c0-.48-.14-.85-.42-1.12-.65-.7-1.97-.7-3.22-.7,0,0-.78-.05-.82-.05-.1,0-1.65-.37-1.88-.42-.05-.11-.1-.22-.1-.22-.13-.21-.22-.37-.41-.37h-.14l-.13.15c-.09.05-.19.21-.69.27-.32,0-1.19-.32-1.88-.64-1.06-.43-1.74-.7-2.16-.64-3.12-1.12-5.19-2.67-6.65-4.96-5.82-9.33-6.11-19.72-6.37-29.84l-.19-4.85c-.22-5.49-1.6-13.22-6.88-18.81-5.42-5.76-14.82-10.02-23.58-6.5h0ZM270.79,217.11c-12.11-2.34-18.95-13.05-21.24-22.32-.59-2.29-.78-4.68-.92-6.98-.18-2.61-.33-5.38-1.19-7.99-.14-4.42.36-8.95.82-13.37l.51-4.69.05-.85v-.64c0-1.5-.32-2.56-1.02-3.47-2.15-2.93-5.69-3.57-8.12-3.78-1.78,0-3.11-1.33-3.11-3.1,0-1.27.73-2.39,1.93-2.87.09-.05,1.01-.69,1.01-.69,8.49-3.42,17.66.74,22.94,6.34,5.19,5.49,6.52,13.05,6.74,18.44l.19,4.9c.27,10.12.55,20.67,6.47,30.05,1.51,2.45,3.76,4.11,7.07,5.22.42,0,1.28.37,1.97.64,1.1.42,1.75.69,2.16.64.46,0,.69-.16.87-.27,0,.05.19.37.19.37l.13.06,2.02.48h.87c1.2,0,2.39,0,2.85.53.19.22.28.43.28.75v.05s.05.32.05.64c-.24-.05-.51-.1-.88-.15h-.09l-.1.05c-3.67,2.19-8.48,3.36-10.97,2.56-4.41.32-7.98.16-11.47-.53h0Z"/>
      <path class="cls-10" d="M250.56,162.34s-10.55,60.9,37.58,52.59c0,0-38.36,1.91-37.58-52.59h0Z"/>
      <path class="cls-13" d="M426.97,420.16c0-1.7,6.79-12.99,14.14-21.42,7.29-8.47,15.18-29.62,15.18-29.62,0,0-7.3.59-12.39,1.7-5.09,1.12-20.87,8.74-23.67,5.92-2.8-2.83-1.7-14.07-1.15-22.54.6-8.48-2.25-17.48-2.25-17.48,0,0-31.01,36.66-42.85,49.61-11.84,12.94-20.28,23.66-21.38,29.3-1.14,5.65,1.65,7.35,1.65,7.35,0,0,7.34,3.62,10.74,11.56-16.93,20.83-86.81,47.63-138.1,47.63s-116.95-27.33-133.06-47.21c3.4-7.88,10.74-11.56,10.74-11.56,0,0,2.8-1.65,1.65-7.3-1.1-5.65-9.54-16.36-21.38-29.3-11.84-13-42.85-49.61-42.85-49.61,0,0-2.84,9-2.25,17.47.55,8.43,1.65,19.72-1.15,22.54-2.8,2.82-18.58-4.79-23.68-5.91-5.09-1.12-12.39-1.7-12.39-1.7,0,0,7.89,21.15,15.19,29.57,7.34,8.47,14.13,19.77,14.13,21.47s-16.38,6.71-20.87,15.45c0,6.24,21.66,31.49,73.87,59.79,33.22,18.06,83.96,35.22,147.1,35.22s112.13-19.45,142.05-35.7c52.21-28.3,73.87-53.55,73.87-59.73-4.5-8.74-20.88-13.86-20.88-15.51h0Z"/>
      <path class="cls-4" d="M10.97,436.09s1.42-3.78,7.2-7.45c5.78-3.62,14.41-7.84,17.62-10.82,4.08-3.84,11.38-9.48,16.88-13.86,5.5-4.37,12.85-9.43,14.82-9,1.97.42-3.94,1.97-6.79,4.52-2.8,2.51-5.19,4.79-7.16,7.62-1.97,2.77-4.27,10.28-12.57,15.61-8.31,5.39-13.67,7.19-18.31,10.87-4.63,3.68-8.44,9.16-8.44,9.16,0,0-1.15-1.44-1.97-2.99-.87-1.54-1.28-3.68-1.28-3.68h0Z"/>
      <path class="cls-11" d="M98.78,439.77s-6.93-6.34-10.46-8.42c-3.49-2.13-8.39-1.81-15.92-7.72-7.98-6.29-13.21-11.83-13.44-16.26-.05-1.92-.46-5.01,1.88-7.4,2.39-2.45,5.55-2.67,7.06-2.45,3.08.43,6.47,4.05,8.81,7.62,2.39,3.52,5.18,10.5,9.59,13.64,4.22,2.99,14.59,5.91,16.7,5.65,2.11-.26,2.94-2.82,2.94-2.82l.6-1.39c-2.71-.64-11.47-1.12-17.89-4.36-3.99-2.08-9.36-10.98-10.41-12.57-.05-.06-.19-.27-.32-.48-1.24-2.08-4.54-7.57-9.73-8.26-2.93-.42-5.37,1.23-8.16,3.84-2.61,2.4-3.63,5.76-3.49,9,.32,7.46,7.16,12.57,13.63,17.64,8.08,6.33,11.29,7.03,15.65,8.74,4.36,1.65,12.98,6.02,12.98,6.02h0Z"/>
      <path class="cls-4" d="M59.83,398.16c-2.48,2.3-3.72,5.54-3.58,9.22.32,7.36,6.79,12.42,13.03,17.32l.69.59c7.02,5.48,10.42,6.76,14.04,8.04l1.7.64c4.31,1.71,12.85,6.02,12.94,6.07l.32-.47c-.28-.27-6.98-6.39-10.51-8.48-1.24-.74-2.62-1.17-4.26-1.7-2.98-.96-6.75-2.13-11.61-5.96-8.95-7.03-13.17-12.15-13.3-16.04l-.05-.53c-.09-1.91-.23-4.53,1.84-6.71,2.7-2.82,6.37-2.39,6.79-2.34,2.52.37,5.78,3.14,8.62,7.46l2.06,3.57c1.97,3.51,4.36,7.88,7.62,10.17,4.27,3.09,14.73,5.96,16.89,5.7,2.25-.27,3.12-2.88,3.16-2.98l.55-1.38.14-.38-3.12-.47c-3.81-.53-10.14-1.39-15.01-3.89-3.48-1.82-8.08-9.01-9.82-11.67l-.51-.75-.27-.53c-1.29-2.07-4.64-7.67-10.01-8.36-3.03-.42-5.55,1.23-8.35,3.89h0ZM85.89,433.48l-1.7-.64c-3.53-1.33-6.93-2.56-13.86-8.05l-.69-.53c-6.19-4.85-12.53-9.8-12.85-16.89v-.59c0-3.25,1.19-6.18,3.39-8.25,2.71-2.5,5.09-4.1,7.94-3.73,5.04.7,8.31,6.13,9.54,8.15l.32.48.5.75c1.74,2.77,6.38,10.02,10.05,11.88,4.91,2.57,11.33,3.47,15.14,4,0,0,1.93.27,2.43.37-.14.37-.42,1.07-.42,1.07-.04.05-.83,2.4-2.75,2.67-2.06.26-12.3-2.61-16.47-5.6-3.17-2.24-5.5-6.55-7.43-10.01l-2.06-3.57c-1.15-1.7-5.05-7.19-9.04-7.78-.46-.05-4.36-.48-7.3,2.56-1.74,1.82-2.02,3.94-2.02,5.7,0,.53,0,1.02.05,1.44v.48c.18,4.1,4.49,9.33,13.53,16.46,5,3.89,8.77,5.12,11.84,6.08,1.56.48,2.94.96,4.13,1.65,2.48,1.49,6.61,5.06,8.85,7.03-2.8-1.39-8.03-3.94-11.15-5.11h0Z"/>
      <path class="cls-4" d="M447.85,435.67s-1.42-3.84-7.2-7.51c-5.79-3.62-14.41-7.83-17.62-10.82-4.09-3.84-11.38-9.43-16.89-13.8-5.51-4.37-12.85-9.48-14.83-9.06-1.97.43,3.95,1.97,6.79,4.53,2.8,2.56,5.19,4.8,7.16,7.62,1.98,2.82,4.27,10.28,12.57,15.61,8.3,5.38,13.67,7.19,18.3,10.87,4.64,3.68,8.45,9.16,8.45,9.16,0,0,1.15-1.39,1.97-2.98.88-1.55,1.29-3.62,1.29-3.62h0Z"/>
      <path class="cls-11" d="M360.04,439.29s6.92-6.34,10.45-8.42c3.49-2.13,8.39-1.82,15.92-7.73,7.99-6.29,13.22-11.83,13.44-16.25.05-1.92.46-4.95-1.88-7.41-2.38-2.45-5.55-2.66-7.06-2.45-3.08.43-6.47,4.05-8.81,7.62-2.39,3.51-5.19,10.49-9.59,13.64-4.22,3.03-14.6,5.91-16.7,5.65-2.11-.27-2.93-2.82-2.93-2.82l-.6-1.39c2.71-.64,11.47-1.12,17.89-4.37,3.99-2.07,9.36-10.97,10.42-12.52.05-.1.18-.32.32-.53,1.24-2.08,4.54-7.51,9.73-8.25,2.93-.43,5.36,1.22,8.16,3.83,2.62,2.4,3.62,5.76,3.48,9.01-.32,7.51-7.16,12.58-13.62,17.69-8.08,6.29-11.29,6.98-15.65,8.68-4.36,1.65-12.98,6.02-12.98,6.02h0Z"/>
      <path class="cls-4" d="M390.64,393.79c-5.37.74-8.72,6.28-10,8.37-.05.1-.28.53-.28.53l-.5.74c-1.74,2.72-6.33,9.86-9.81,11.67-4.87,2.5-11.2,3.36-14.97,3.89l-3.15.53.13.32.55,1.39c.04.11.92,2.72,3.17,2.99,2.15.32,12.61-2.62,16.88-5.65,3.26-2.34,5.65-6.71,7.62-10.22l2.07-3.52c2.85-4.36,6.1-7.13,8.63-7.51.41-.05,4.08-.47,6.79,2.35,2.06,2.18,1.93,4.79,1.83,6.71l-.05.53c-.14,3.94-4.36,9-13.31,16.04-4.86,3.84-8.62,5.01-11.61,5.97-1.65.53-3.02.96-4.27,1.71-3.53,2.13-10.22,8.25-10.51,8.52l.32.43c.09-.05,8.62-4.37,12.94-6.02l1.71-.64c3.62-1.33,7.02-2.61,14.03-8.1l.69-.58c6.25-4.91,12.71-9.97,13.03-17.32.13-3.68-1.1-6.93-3.59-9.22-2.79-2.67-5.32-4.32-8.34-3.89h0ZM355.12,419.58c3.85-.53,10.23-1.44,15.14-3.99,3.68-1.87,8.31-9.11,10.05-11.83l.5-.74.28-.48c1.28-2.08,4.54-7.51,9.59-8.2,2.84-.38,5.23,1.22,7.94,3.78,2.2,2.02,3.4,4.96,3.4,8.21v.59c-.32,7.08-6.7,12.09-12.85,16.89l-.7.53c-6.92,5.49-10.31,6.71-13.85,8.05l-1.69.64c-3.13,1.17-8.36,3.74-11.16,5.12,2.25-1.98,6.39-5.54,8.86-7.04,1.19-.69,2.56-1.12,4.13-1.65,3.07-.95,6.84-2.18,11.84-6.07,9.03-7.09,13.35-12.36,13.54-16.46v-.48c.04-.43.04-.9.04-1.44,0-1.76-.28-3.89-2.01-5.71-2.94-3.04-6.85-2.56-7.31-2.5-3.99.53-7.88,6.02-9.03,7.73l-2.07,3.57c-1.93,3.46-4.27,7.78-7.43,10.02-4.17,2.98-14.41,5.86-16.47,5.59-1.92-.27-2.71-2.62-2.71-2.62-.04-.05-.27-.69-.46-1.12.5-.1,2.44-.37,2.44-.37h0Z"/>
      <path class="cls-11" d="M90.53,462.31l-9.31-6.18,1.42-2.19c.69-1.01,1.01-1.75.96-2.19-.09-.42-.37-.85-.92-1.22-.64-.37-1.19-.48-1.74-.32-.6.15-1.1.64-1.6,1.39-.64,1.01-.96,1.87-.96,2.61,0,.69.55,1.92,1.65,3.67,3.12,4.96,4.86,8.53,5.14,10.55.32,2.08-.46,4.59-2.39,7.46-1.38,2.13-2.75,3.46-4.04,3.99-1.33.59-3.12.59-5.42.05-2.29-.53-4.63-1.59-7.11-3.25-2.66-1.75-4.73-3.67-6.1-5.7-1.38-2.02-1.97-3.83-1.79-5.43.23-1.6,1.05-3.52,2.52-5.7l1.28-1.97,9.32,6.19-2.39,3.62c-.74,1.06-1.06,1.86-1.01,2.34.04.53.41.96,1.1,1.44.65.43,1.29.53,1.88.37.6-.21,1.15-.69,1.65-1.49,1.15-1.7,1.6-3.04,1.33-3.99-.28-.96-1.24-2.88-2.93-5.81-1.65-2.87-2.71-4.9-3.12-6.02-.46-1.12-.6-2.34-.46-3.68.14-1.39.69-2.88,1.75-4.42,1.51-2.24,2.98-3.68,4.4-4.21,1.47-.53,3.21-.53,5.28-.05,2.11.53,4.32,1.6,6.7,3.2,2.61,1.71,4.63,3.51,6.05,5.33,1.42,1.86,2.07,3.51,2.02,4.84-.05,1.39-.83,3.25-2.39,5.59l-.78,1.17h0Z"/>
      <path class="cls-11" d="M112.32,484.43c-1.56,3.19-2.8,5.38-3.63,6.6-.87,1.23-2.06,2.13-3.67,2.72-1.56.58-3.39.75-5.41.48-2.06-.32-4.27-1.01-6.61-2.18-2.2-1.12-4.08-2.35-5.55-3.79-1.51-1.44-2.52-2.98-3.03-4.63-.55-1.65-.6-3.15-.14-4.59.41-1.39,1.47-3.73,3.07-6.98l2.71-5.43c1.56-3.2,2.8-5.39,3.62-6.61.87-1.22,2.07-2.13,3.67-2.72,1.56-.59,3.4-.74,5.41-.42,2.07.27,4.27.96,6.61,2.12,2.2,1.12,4.08,2.4,5.55,3.84,1.52,1.38,2.53,2.93,3.03,4.59.55,1.65.6,3.19.14,4.58-.41,1.39-1.47,3.73-3.08,6.98l-2.7,5.44h0ZM106.72,468.65c.73-1.44,1.05-2.45,1.05-2.99,0-.47-.32-.9-1.01-1.27-.55-.27-1.05-.32-1.51-.11-.5.16-1.1,1.07-1.93,2.72l-7.34,14.81c-.92,1.81-1.38,2.99-1.38,3.52-.05.53.32,1.01,1.06,1.33.73.37,1.29.37,1.74-.06.46-.37,1.15-1.49,2.07-3.36l7.25-14.6h0Z"/>
      <path class="cls-11" d="M147.83,475.26l-8.03,22.27c-.87,2.55-1.65,4.26-2.2,5.21-.6.96-1.61,1.76-3.08,2.45-1.42.69-3.12,1.02-5.05.95-1.93-.05-4.08-.53-6.42-1.39-2.62-.9-4.77-2.08-6.56-3.46-1.74-1.39-2.94-2.77-3.54-4.16-.6-1.44-.78-2.77-.55-3.99.23-1.23,1.01-3.73,2.38-7.46l7.07-19.72,11.33,4.05-8.95,24.99c-.51,1.44-.78,2.39-.69,2.88.04.48.41.85,1.01,1.07.73.27,1.29.21,1.65-.16.37-.37.83-1.39,1.42-3.04l8.81-24.56,11.38,4.05h0Z"/>
      <polygon class="cls-11" points="172.56 481.39 170.82 488.26 163.89 486.55 157.01 513.99 145.31 511.06 152.19 483.62 145.26 481.86 147.01 474.99 172.56 481.39 172.56 481.39"/>
      <polygon class="cls-11" points="199.4 485.43 194.08 520.44 182.2 518.63 184.4 503.92 180.87 503.39 178.62 518.09 166.73 516.28 172.01 481.33 183.89 483.09 182.01 495.61 185.59 496.15 187.47 483.62 199.4 485.43 199.4 485.43"/>
      <path class="cls-11" d="M200.96,485.54l12.11.64c3.3.22,5.78.53,7.52,1.01,1.74.48,3.08,1.12,3.9,1.92.83.8,1.37,1.76,1.65,2.82.28,1.07.32,2.72.18,4.91l-.14,3.09c-.14,2.24-.55,3.89-1.19,4.85-.69,1.02-1.84,1.76-3.49,2.24-1.65.43-3.81.59-6.42.48l-3.26-.21-.78,14.23-12.02-.64,1.93-35.32h0ZM212.66,492.26l-.5,8.95c.37.05.64.1.92.1,1.1.05,1.88-.1,2.34-.53.41-.37.69-1.22.78-2.51l.14-2.93c.09-1.18-.14-1.97-.6-2.4-.5-.37-1.51-.64-3.07-.69h0Z"/>
      <path class="cls-11" d="M255.42,506.64c.14,3.57.14,6.08-.04,7.56-.13,1.5-.78,2.82-1.88,4.11-1.1,1.28-2.65,2.29-4.59,2.99-1.92.74-4.22,1.17-6.84,1.28-2.47.05-4.68-.16-6.7-.69-1.97-.53-3.62-1.44-4.86-2.62-1.24-1.22-2.02-2.5-2.29-3.99-.28-1.44-.5-3.99-.6-7.62l-.23-6.02c-.14-3.57-.14-6.08.04-7.56.14-1.49.78-2.88,1.88-4.16,1.1-1.28,2.66-2.24,4.59-2.99,1.93-.74,4.22-1.12,6.84-1.22,2.48-.1,4.67.1,6.7.7,2.02.53,3.62,1.38,4.87,2.61,1.23,1.17,2.02,2.5,2.29,3.94.27,1.44.5,3.99.65,7.62l.18,6.08h0ZM242.98,495.45c-.09-1.65-.22-2.72-.5-3.14-.22-.43-.73-.65-1.47-.65-.64.06-1.1.22-1.42.65-.32.37-.46,1.44-.37,3.31l.6,16.51c.05,2.02.23,3.3.46,3.78.23.48.78.7,1.56.65.82,0,1.33-.32,1.55-.85.19-.59.28-1.92.19-4l-.6-16.25h0Z"/>
      <path class="cls-11" d="M255.83,485.86l8.45-1.18c5.65-.74,9.45-1.06,11.51-1.01,2.02.05,3.76.69,5.19,1.87,1.47,1.22,2.39,3.3,2.8,6.28.36,2.72.13,4.64-.6,5.65-.78,1.07-2.43,1.87-5.05,2.4,2.43.16,4.13.53,5,1.17.91.64,1.51,1.28,1.83,1.87.28.59.6,2.29.96,5.16l1.24,9.22-11.05,1.5-1.56-11.67c-.27-1.87-.6-2.99-1.06-3.36-.46-.43-1.51-.48-3.16-.27l2.16,15.77-11.93,1.6-4.73-35h0ZM268.59,490.23l1.01,7.78c1.38-.15,2.3-.42,2.8-.8.5-.32.64-1.27.41-2.82l-.24-1.92c-.18-1.12-.55-1.81-1.1-2.08-.55-.32-1.51-.32-2.89-.16h0Z"/>
      <polygon class="cls-11" points="307.54 476.38 309.15 483.31 302.17 484.9 308.51 512.5 296.76 515.22 290.43 487.62 283.46 489.22 281.9 482.34 307.54 476.38 307.54 476.38"/>
      <polygon class="cls-11" points="316.12 473.71 335.35 466.78 337.73 473.44 329.89 476.27 332.13 482.56 339.16 480.05 341.45 486.4 334.43 488.9 339.48 502.86 328.1 506.96 316.12 473.71 316.12 473.71"/>
      <polygon class="cls-11" points="351.13 490.44 353.89 497.05 345.81 500.46 343.06 493.8 351.13 490.44 351.13 490.44"/>
      <path class="cls-11" d="M373.15,465.29l-10.68,5.54-2.85-5.49c-.83-1.6-1.42-2.56-1.88-2.82-.41-.27-1.05-.22-1.84.22-.88.42-1.29.95-1.29,1.54,0,.65.42,1.71,1.24,3.31l7.53,14.65c.77,1.49,1.42,2.45,1.88,2.77.51.37,1.14.32,1.97-.11.78-.42,1.18-.9,1.18-1.49.05-.59-.41-1.76-1.28-3.52l-2.07-3.94,10.74-5.49.64,1.23c1.65,3.25,2.53,5.7,2.67,7.35.09,1.7-.65,3.57-2.16,5.65-1.56,2.08-3.85,3.95-6.83,5.49-3.17,1.6-5.97,2.5-8.45,2.67-2.48.21-4.45-.32-5.91-1.5-1.47-1.22-2.99-3.35-4.55-6.45l-4.73-9.16c-1.19-2.29-1.97-4.05-2.34-5.28-.37-1.22-.32-2.66.14-4.21.46-1.59,1.42-3.14,2.93-4.63,1.47-1.55,3.35-2.88,5.69-4.1,3.16-1.6,6-2.51,8.54-2.61,2.52-.11,4.49.32,5.87,1.39,1.33,1.06,2.8,3.09,4.31,6.02l1.51,2.99h0Z"/>
      <polygon class="cls-11" points="388.25 470.46 392.06 476.59 384.67 481.22 380.86 475.1 388.25 470.46 388.25 470.46"/>
      <path class="cls-13" d="M262.12,108.26s-12.67,26.34-15.54-.16h-7.76c-3.06,7.86-9.81,21.08-12.71-5.97l-.96-.48.05-.37-.5.11-.46-.22v.37l-1.01.27c-10.14,34.05-14.27-1.55-14.27-1.55l-6.14.48c-7.85,29.78-16.02-.59-16.02-.59l-8.07,4.42,8.03,25.41,65.79,7.83,16.7-23.55-7.11-6.02h0ZM246.48,107.15c-.05-.55-.1-1.12-.15-1.71l-5.96-1.75s-.45,1.47-1.2,3.47h7.3Z"/>
    </g>
  </g>
</svg>