<svg xmlns="http://www.w3.org/2000/svg" width="1031.001" height="954.529"><defs><clipPath id="a" clipPathUnits="userSpaceOnUse"><path d="M0 1080h1080V0H0Z"/></clipPath><clipPath id="b" clipPathUnits="userSpaceOnUse"><path d="M570.485 735.856c0-53.944 43.717-97.673 97.672-97.673 53.934 0 97.669 43.729 97.669 97.673s-43.735 97.674-97.669 97.674c-53.955 0-97.672-43.73-97.672-97.674"/></clipPath><clipPath id="c" clipPathUnits="userSpaceOnUse"><path d="M0 1080h1080V0H0Z"/></clipPath></defs><g clip-path="url(#a)" transform="matrix(1.33333 0 0 -1.33333 -202.208 1217.595)"><path d="M0 0s-35.283-28.687-89.176-36.263c-51.5-7.243-167.671-4.038-167.671-4.038l-.014-365.332s-1.504-97.902 111.215-120.46C-60.454-543.146 0-588.983 0-588.983s61.155 45.542 146.282 62.89c110.676 22.558 111.215 120.46 111.215 120.46l-.019 365.332S141.31-43.506 89.824-36.263C35.933-28.687 0 0 0 0" style="fill:#fff;fill-opacity:1;fill-rule:nonzero;stroke:none" transform="translate(538.385 891.623)"/><path d="M0 0s-35.283-28.687-89.176-36.263c-51.5-7.243-167.671-4.038-167.671-4.038l-.014-365.332s-1.504-97.902 111.215-120.46C-60.454-543.146 0-588.983 0-588.983s61.155 45.542 146.282 62.89c110.676 22.558 111.215 120.46 111.215 120.46l-.019 365.332S141.31-43.506 89.824-36.263C35.933-28.687 0 0 0 0Z" style="fill:none;stroke:#fff;stroke-width:33.599;stroke-linecap:butt;stroke-linejoin:miter;stroke-miterlimit:4;stroke-dasharray:none;stroke-opacity:1" transform="translate(538.385 891.623)"/><path d="M0 0c-22.154-6.764-42.142-14.754-72.433-20.08L-70-48.763c-78.496-13.229-180.196-21.218-291.266-21.218-111.098 0-212.798 7.989-291.278 21.218l2.435 28.683C-680.408-14.754-699.27-6.616-721.424.148l27.029 45.085-23.748 56.103c41.801-12.261 82.392-21.987 148.963-28.881l-1.58-23.665c62.565-6.542 133.85-10.247 209.494-10.247 75.623 0 146.922 3.705 209.476 10.247l-1.571 23.665c66.567 6.894 107.146 16.62 148.947 28.881l-23.748-56.103Z" style="fill:#fff;fill-opacity:1;fill-rule:nonzero;stroke:none" transform="translate(899.09 284.08)"/><path d="M0 0c-22.154-6.764-42.142-14.754-72.433-20.08L-70-48.763c-78.496-13.229-180.196-21.218-291.266-21.218-111.098 0-212.798 7.989-291.278 21.218l2.435 28.683C-680.408-14.754-699.27-6.616-721.424.148l27.029 45.085-23.748 56.103c41.801-12.261 82.392-21.987 148.963-28.881l-1.58-23.665c62.565-6.542 133.85-10.247 209.494-10.247 75.623 0 146.922 3.705 209.476 10.247l-1.571 23.665c66.567 6.894 107.146 16.62 148.947 28.881l-23.748-56.103Z" style="fill:none;stroke:#fff;stroke-width:33.599;stroke-linecap:butt;stroke-linejoin:miter;stroke-miterlimit:4;stroke-dasharray:none;stroke-opacity:1" transform="translate(899.09 284.08)"/><path d="m0 0-74.292-14.192-6.637-78.344" style="fill:#fff;fill-opacity:1;fill-rule:nonzero;stroke:#fff;stroke-width:33.599;stroke-linecap:butt;stroke-linejoin:miter;stroke-miterlimit:4;stroke-dasharray:none;stroke-opacity:1" transform="translate(329.91 356.535)"/><path d="M0 0c-25.826 2.7-50.166 5.879-72.711 9.473" style="fill:#fff;fill-opacity:1;fill-rule:nonzero;stroke:#fff;stroke-width:33.599;stroke-linecap:butt;stroke-linejoin:miter;stroke-miterlimit:4;stroke-dasharray:none;stroke-opacity:1" transform="translate(328.329 332.87)"/><path d="m0 0 74.276-14.192 6.653-78.344" style="fill:#fff;fill-opacity:1;fill-rule:nonzero;stroke:#fff;stroke-width:33.599;stroke-linecap:butt;stroke-linejoin:miter;stroke-miterlimit:4;stroke-dasharray:none;stroke-opacity:1" transform="translate(745.728 356.535)"/><path d="M0 0c25.817 2.7 50.163 5.879 72.704 9.473" style="fill:#fff;fill-opacity:1;fill-rule:nonzero;stroke:#fff;stroke-width:33.599;stroke-linecap:butt;stroke-linejoin:miter;stroke-miterlimit:4;stroke-dasharray:none;stroke-opacity:1" transform="translate(747.299 332.87)"/><path d="M0 0s-35.283-28.687-89.176-36.263c-51.5-7.243-167.671-4.038-167.671-4.038l-.014-365.332s-1.504-97.902 111.215-120.46C-60.454-543.146 0-588.983 0-588.983s61.155 45.542 146.282 62.89c110.676 22.558 111.215 120.46 111.215 120.46l-.019 365.332S141.31-43.506 89.824-36.263C35.933-28.687 0 0 0 0" style="fill:#fff;fill-opacity:1;fill-rule:nonzero;stroke:none" transform="translate(538.385 891.623)"/><path d="M0 0s-35.283-28.687-89.176-36.263c-51.5-7.243-167.671-4.038-167.671-4.038l-.014-365.332s-1.504-97.902 111.215-120.46C-60.454-543.146 0-588.983 0-588.983s61.155 45.542 146.282 62.89c110.676 22.558 111.215 120.46 111.215 120.46l-.019 365.332S141.31-43.506 89.824-36.263C35.933-28.687 0 0 0 0Z" style="fill:none;stroke:#103578;stroke-width:10.368;stroke-linecap:butt;stroke-linejoin:miter;stroke-miterlimit:4;stroke-dasharray:none;stroke-opacity:1" transform="translate(538.385 891.623)"/><path d="M0 0c32.378 0 32.378-26.651 64.729-26.651C96.637-26.651 96.637 0 128.558 0c31.978 0 31.978-26.651 63.913-26.651C224.679-26.651 224.679 0 256.868 0v39.923c-32.189 0-32.189-26.658-64.397-26.658-31.935 0-31.935 26.658-63.913 26.658-31.921 0-31.921-26.658-63.829-26.658-32.351 0-32.351 26.658-64.729 26.658Z" style="fill:#103578;fill-opacity:1;fill-rule:nonzero;stroke:none" transform="translate(537.913 555.985)"/><path d="M0 0c32.378 0 32.378-26.642 64.729-26.642C96.637-26.642 96.637 0 128.558 0c31.978 0 31.978-26.642 63.913-26.642C224.679-26.642 224.679 0 256.868 0v39.937c-32.189 0-32.189-26.667-64.397-26.667-31.935 0-31.935 26.667-63.913 26.667-31.921 0-31.921-26.667-63.829-26.667C32.378 13.27 32.378 39.937 0 39.937Z" style="fill:#103578;fill-opacity:1;fill-rule:nonzero;stroke:none" transform="translate(537.913 471.49)"/><path d="M0 0c-13.887-7.732-20.352-21.592-43.579-21.592-31.935 0-31.935 26.656-63.913 26.656-31.922 0-31.922-26.656-63.83-26.656-32.35 0-32.35 26.656-64.728 26.656v-39.916c32.378 0 32.378-26.651 64.728-26.651 31.908 0 31.908 26.651 63.83 26.651 19.191 0 26.858-9.598 36.825-17.275 0 0 38.096 10.238 64.078 40.972z" style="fill:#103578;fill-opacity:1;fill-rule:nonzero;stroke:none" transform="translate(773.963 421.858)"/><path d="M0 0c43.547 12.24 87.089 2.357 87.089 2.357s7.709 11.925 19.96 6.621c12.247-5.306 5.442-17.228 5.442-17.228l11.34-4.488 23.128 22.933s-34.468 25.724-83.003 25.724c-24.63 0-52.612-6.941-71.672-16.327z" style="fill:#103578;fill-opacity:1;fill-rule:nonzero;stroke:none" transform="translate(363.062 789.422)"/><path d="M0 0c43.547 12.24 87.089 2.357 87.089 2.357s7.709 11.925 19.96 6.621c12.247-5.306 5.442-17.228 5.442-17.228l11.34-4.488 23.128 22.933s-34.468 25.724-83.003 25.724c-24.63 0-52.612-6.941-71.672-16.327z" style="fill:none;stroke:#103578;stroke-width:2.721;stroke-linecap:butt;stroke-linejoin:miter;stroke-miterlimit:4;stroke-dasharray:none;stroke-opacity:1" transform="translate(363.062 789.422)"/><path d="M0 0c-12.031-4.124-19.893-9.865-29.024-14.781l-5.898 21.31s6.154.08 27.213 9.386z" style="fill:#fff;fill-opacity:1;fill-rule:nonzero;stroke:none" transform="translate(355.346 788.605)"/><path d="M0 0c-12.031-4.124-19.893-9.865-29.024-14.781l-5.898 21.31s6.154.08 27.213 9.386z" style="fill:none;stroke:#103578;stroke-width:3.888;stroke-linecap:butt;stroke-linejoin:miter;stroke-miterlimit:4;stroke-dasharray:none;stroke-opacity:1" transform="translate(355.346 788.605)"/><path d="M0 0s13.063 6.451 21.771-24.902c6.354-22.861 27.671-12.655 27.671-12.655S42.42-42.48 34.931-15.514C24.948 20.407-6.195-2.965 0 0" style="fill:#fff;fill-opacity:1;fill-rule:nonzero;stroke:none" transform="translate(327.682 815.545)"/><path d="M0 0s13.063 6.451 21.771-24.902c6.354-22.861 27.671-12.655 27.671-12.655S42.42-42.48 34.931-15.514C24.948 20.407-6.195-2.965 0 0Z" style="fill:none;stroke:#103578;stroke-width:3.888;stroke-linecap:butt;stroke-linejoin:miter;stroke-miterlimit:4;stroke-dasharray:none;stroke-opacity:1" transform="translate(327.682 815.545)"/><path d="M0 0s-5.04 2.94-6.801 11.356c-1.285 6.11-.718 10.39-4.538 13.136 0 0-16.215.058-9.522-19.589 0 0 5.444-11.759 20.861-4.903" style="fill:#fff;fill-opacity:1;fill-rule:nonzero;stroke:none" transform="translate(332.67 773.494)"/><path d="M0 0s-5.04 2.94-6.801 11.356c-1.285 6.11-.718 10.39-4.538 13.136 0 0-16.215.058-9.522-19.589 0 0 5.444-11.759 20.861-4.903z" style="fill:none;stroke:#103578;stroke-width:3.888;stroke-linecap:butt;stroke-linejoin:miter;stroke-miterlimit:4;stroke-dasharray:none;stroke-opacity:1" transform="translate(332.67 773.494)"/><path d="M0 0c43.538 12.25 87.083 2.373 87.083 2.373s7.717 11.92 19.96 6.61c12.247-5.31 5.444-17.223 5.444-17.223l11.337-4.495 23.13 22.941s-34.467 25.72-83 25.72c-24.623 0-52.619-6.939-71.669-16.327z" style="fill:#103578;fill-opacity:1;fill-rule:nonzero;stroke:none" transform="translate(363.462 726.486)"/><path d="M0 0c43.538 12.25 87.083 2.373 87.083 2.373s7.717 11.92 19.96 6.61c12.247-5.31 5.444-17.223 5.444-17.223l11.337-4.495 23.13 22.941s-34.467 25.72-83 25.72c-24.623 0-52.619-6.939-71.669-16.327z" style="fill:none;stroke:#103578;stroke-width:2.721;stroke-linecap:butt;stroke-linejoin:miter;stroke-miterlimit:4;stroke-dasharray:none;stroke-opacity:1" transform="translate(363.462 726.486)"/><path d="M0 0c-12.035-4.117-19.903-9.861-29.026-14.779l-5.905 21.312s6.163.086 27.215 9.384z" style="fill:#fff;fill-opacity:1;fill-rule:nonzero;stroke:none" transform="translate(355.747 725.673)"/><path d="M0 0c-12.035-4.117-19.903-9.861-29.026-14.779l-5.905 21.312s6.163.086 27.215 9.384z" style="fill:none;stroke:#103578;stroke-width:3.888;stroke-linecap:butt;stroke-linejoin:miter;stroke-miterlimit:4;stroke-dasharray:none;stroke-opacity:1" transform="translate(355.747 725.673)"/><path d="M0 0s13.07 6.453 21.776-24.9c6.356-22.865 27.666-12.654 27.666-12.654s-7.017-4.924-14.511 22.045C24.953 20.414-6.195-2.963 0 0" style="fill:#fff;fill-opacity:1;fill-rule:nonzero;stroke:none" transform="translate(328.073 752.614)"/><path d="M0 0s13.07 6.453 21.776-24.9c6.356-22.865 27.666-12.654 27.666-12.654s-7.017-4.924-14.511 22.045C24.953 20.414-6.195-2.963 0 0Z" style="fill:none;stroke:#103578;stroke-width:3.888;stroke-linecap:butt;stroke-linejoin:miter;stroke-miterlimit:4;stroke-dasharray:none;stroke-opacity:1" transform="translate(328.073 752.614)"/><path d="M0 0s-5.045 2.938-6.808 11.356c-1.279 6.107-.721 10.392-4.536 13.143 0 0-16.217.055-9.524-19.592 0 0 5.444-11.763 20.868-4.907" style="fill:#fff;fill-opacity:1;fill-rule:nonzero;stroke:none" transform="translate(333.073 710.567)"/><path d="M0 0s-5.045 2.938-6.808 11.356c-1.279 6.107-.721 10.392-4.536 13.143 0 0-16.217.055-9.524-19.592 0 0 5.444-11.763 20.868-4.907z" style="fill:none;stroke:#103578;stroke-width:3.888;stroke-linecap:butt;stroke-linejoin:miter;stroke-miterlimit:4;stroke-dasharray:none;stroke-opacity:1" transform="translate(333.073 710.567)"/><path d="M0 0c43.547 12.25 87.087 2.37 87.087 2.37s7.715 11.918 19.96 6.615c12.248-5.308 5.444-17.219 5.444-17.219l11.337-4.488 23.135 22.928S112.491 35.93 63.956 35.93c-24.625 0-52.617-6.946-71.665-16.324z" style="fill:#103578;fill-opacity:1;fill-rule:nonzero;stroke:none" transform="translate(363.412 661.072)"/><path d="M0 0c43.547 12.25 87.087 2.37 87.087 2.37s7.715 11.918 19.96 6.615c12.248-5.308 5.444-17.219 5.444-17.219l11.337-4.488 23.135 22.928S112.491 35.93 63.956 35.93c-24.625 0-52.617-6.946-71.665-16.324z" style="fill:none;stroke:#103578;stroke-width:2.721;stroke-linecap:butt;stroke-linejoin:miter;stroke-miterlimit:4;stroke-dasharray:none;stroke-opacity:1" transform="translate(363.412 661.072)"/><path d="M0 0c-12.038-4.128-19.905-9.854-29.033-14.763l-5.898 21.292s6.158.083 27.22 9.388z" style="fill:#fff;fill-opacity:1;fill-rule:nonzero;stroke:none" transform="translate(355.703 660.26)"/><path d="M0 0c-12.038-4.128-19.905-9.854-29.033-14.763l-5.898 21.292s6.158.083 27.22 9.388z" style="fill:none;stroke:#103578;stroke-width:3.888;stroke-linecap:butt;stroke-linejoin:miter;stroke-miterlimit:4;stroke-dasharray:none;stroke-opacity:1" transform="translate(355.703 660.26)"/><path d="M0 0s13.063 6.448 21.774-24.902c6.342-22.845 27.662-12.639 27.662-12.639s-7.022-4.921-14.51 22.036C24.948 20.414-6.204-2.963 0 0" style="fill:#fff;fill-opacity:1;fill-rule:nonzero;stroke:none" transform="translate(328.034 687.197)"/><path d="M0 0s13.063 6.448 21.774-24.902c6.342-22.845 27.662-12.639 27.662-12.639s-7.022-4.921-14.51 22.036C24.948 20.414-6.204-2.963 0 0Z" style="fill:none;stroke:#103578;stroke-width:3.888;stroke-linecap:butt;stroke-linejoin:miter;stroke-miterlimit:4;stroke-dasharray:none;stroke-opacity:1" transform="translate(328.034 687.197)"/><path d="M0 0s-5.043 2.935-6.805 11.332c-1.283 6.11-.719 10.397-4.537 13.142 0 0-16.223.062-9.526-19.576 0 0 5.449-11.761 20.868-4.898" style="fill:#fff;fill-opacity:1;fill-rule:nonzero;stroke:none" transform="translate(333.024 645.17)"/><path d="M0 0s-5.043 2.935-6.805 11.332c-1.283 6.11-.719 10.397-4.537 13.142 0 0-16.223.062-9.526-19.576 0 0 5.449-11.761 20.868-4.898z" style="fill:none;stroke:#103578;stroke-width:3.888;stroke-linecap:butt;stroke-linejoin:miter;stroke-miterlimit:4;stroke-dasharray:none;stroke-opacity:1" transform="translate(333.024 645.17)"/><path d="M0 0h514.302" style="fill:none;stroke:#103578;stroke-width:10.368;stroke-linecap:butt;stroke-linejoin:miter;stroke-miterlimit:4;stroke-dasharray:none;stroke-opacity:1" transform="translate(281.538 618.619)"/><path d="M0 0v-587.776" style="fill:none;stroke:#103578;stroke-width:10.368;stroke-linecap:butt;stroke-linejoin:miter;stroke-miterlimit:4;stroke-dasharray:none;stroke-opacity:1" transform="translate(538.685 890.47)"/><path d="M0 0c-22.154-6.764-42.142-14.754-72.433-20.08L-70-48.763c-78.496-13.229-180.196-21.218-291.266-21.218-111.098 0-212.798 7.989-291.278 21.218l2.435 28.683C-680.408-14.754-699.27-6.616-721.424.148l27.029 45.085-23.748 56.103c41.801-12.261 82.392-21.987 148.963-28.881l-1.58-23.665c62.565-6.542 133.85-10.247 209.494-10.247 75.623 0 146.922 3.705 209.476 10.247l-1.571 23.665c66.567 6.894 107.146 16.62 148.947 28.881l-23.748-56.103Z" style="fill:#fff;fill-opacity:1;fill-rule:nonzero;stroke:none" transform="translate(899.09 284.08)"/><path d="M0 0c-22.154-6.764-42.142-14.754-72.433-20.08L-70-48.763c-78.496-13.229-180.196-21.218-291.266-21.218-111.098 0-212.798 7.989-291.278 21.218l2.435 28.683C-680.408-14.754-699.27-6.616-721.424.148l27.029 45.085-23.748 56.103c41.801-12.261 82.392-21.987 148.963-28.881l-1.58-23.665c62.565-6.542 133.85-10.247 209.494-10.247 75.623 0 146.922 3.705 209.476 10.247l-1.571 23.665c66.567 6.894 107.146 16.62 148.947 28.881l-23.748-56.103Z" style="fill:none;stroke:#103578;stroke-width:7.776;stroke-linecap:round;stroke-linejoin:round;stroke-miterlimit:4;stroke-dasharray:none;stroke-opacity:1" transform="translate(899.09 284.08)"/><path d="m0 0-74.292-14.192-6.637-78.344" style="fill:#fff;fill-opacity:1;fill-rule:nonzero;stroke:#103578;stroke-width:7.776;stroke-linecap:round;stroke-linejoin:round;stroke-miterlimit:4;stroke-dasharray:none;stroke-opacity:1" transform="translate(329.91 356.535)"/><path d="M0 0c-25.826 2.7-50.166 5.879-72.711 9.473" style="fill:#fff;fill-opacity:1;fill-rule:nonzero;stroke:#103578;stroke-width:7.776;stroke-linecap:round;stroke-linejoin:round;stroke-miterlimit:4;stroke-dasharray:none;stroke-opacity:1" transform="translate(328.329 332.87)"/><path d="m0 0 74.276-14.192 6.653-78.344" style="fill:#fff;fill-opacity:1;fill-rule:nonzero;stroke:#103578;stroke-width:7.776;stroke-linecap:round;stroke-linejoin:round;stroke-miterlimit:4;stroke-dasharray:none;stroke-opacity:1" transform="translate(745.728 356.535)"/><path d="M0 0c25.817 2.7 50.163 5.879 72.704 9.473" style="fill:#fff;fill-opacity:1;fill-rule:nonzero;stroke:#103578;stroke-width:7.776;stroke-linecap:round;stroke-linejoin:round;stroke-miterlimit:4;stroke-dasharray:none;stroke-opacity:1" transform="translate(747.299 332.87)"/><path d="M0 0c-5.992.843-11.249 5.368-14.438 10.726l7.144 14.505c2.214-3.889 6.432-8.067 9.881-8.556 3.654-.521 4.998.516 5.47 3.82.371 2.603-.731 4.396-5.405 7.303-8.409 5.179-12.049 10.39-10.056 24.397 1.875 13.22 8.821 21.32 17.783 20.048 6.31-.903 10.461-4.451 13.643-10.219l-7.149-14.496c-2.69 4.667-5.632 7.538-9.402 8.073-3.073.437-4.077-1.254-4.432-3.765-.368-2.599.783-3.99 5.262-6.769 8.741-5.533 12.111-11.523 10.24-24.632C16.268 4.419 8.911-1.276 0 0" style="fill:#103578;fill-opacity:1;fill-rule:nonzero;stroke:none" transform="translate(285.213 246.062)"/><path d="M0 0c2.652 23.402-2.977 36.958-13.09 38.11-10.117 1.148-18.777-10.998-21.428-34.401-2.65-23.411 2.978-36.962 13.09-38.114C-11.31-35.548-2.652-23.407 0 0m-10.727 1.009c-1.431-12.652-4.515-18.919-8.665-18.449-4.153.475-5.837 7.483-4.4 20.136 1.433 12.657 4.52 18.914 8.667 18.439 4.159-.465 5.84-7.469 4.398-20.126" style="fill:#103578;fill-opacity:1;fill-rule:nonzero;stroke:none" transform="translate(345.09 275.56)"/><path d="M0 0c-9.393.815-15.5 10.28-13.544 32.64l3.541 40.378 10.57-.922-3.541-40.386c-.756-8.653.587-14.155 4.644-14.514 4.057-.346 6.234 4.838 6.99 13.496l3.537 40.386 10.567-.931L19.23 29.77C17.274 7.414 9.397-.829 0 0" style="fill:#103578;fill-opacity:1;fill-rule:nonzero;stroke:none" transform="translate(364.175 237.1)"/><path d="m0 0-3.511-53.564-10.367.673L-10.367.668l-10.48.696 1.122 17.044L11.6 16.353 10.483-.696Z" style="fill:#103578;fill-opacity:1;fill-rule:nonzero;stroke:none" transform="translate(412.041 288.443)"/><path d="m0 0 1.253 27.881-11.662.53L-11.673.535l-10.591.479 3.198 70.681 10.597-.474-1.166-25.748 11.669-.53 1.164 25.748 10.6-.484L10.591-.475z" style="fill:#103578;fill-opacity:1;fill-rule:nonzero;stroke:none" transform="translate(448.336 232.783)"/><path d="m0 0 1.866 70.732 28.703-.751-.426-16.477-18.435.488-.242-9.399 11.086-.291-.428-16.264-11.084.29-.323-12.127 18.8-.489-.429-16.477Z" style="fill:#103578;fill-opacity:1;fill-rule:nonzero;stroke:none" transform="translate(467.476 232.027)"/><path d="m0 0-8.757 23.42c-1.617 4.364-4.769 13.487-5.704 16.634.242-3.142.217-12.546.17-18.306L-14.461.12l-9.969.078.574 70.76 9.16-.079 8.086-20.992c1.675-4.364 4.924-13.795 5.702-16.726-.239 3.138-.221 12.533-.172 18.306l.154 19.302 9.969-.083L8.457-.069Z" style="fill:#103578;fill-opacity:1;fill-rule:nonzero;stroke:none" transform="translate(528.541 230.926)"/><path d="M0 0c-.272 26.586-7.858 34.889-19.642 34.769l-13.123-.133.728-70.751 12.16.12C-6.596-35.861.281-26.586 0 0m-10.648-.415c.133-14.048-2.327-18.73-8.819-18.79l-2.242-.023-.385 37.193 2.567.023c6.483.065 8.738-5.372 8.879-18.403" style="fill:#103578;fill-opacity:1;fill-rule:nonzero;stroke:none" transform="translate(577.566 266.995)"/><path d="M0 0c-9.437-.346-16.656 8.294-17.477 30.724l-1.488 40.496 10.598.392 1.484-40.506c.317-8.694 2.331-13.979 6.409-13.832 4.064.152 5.58 5.571 5.271 14.251L3.304 72.036l10.602.392 1.484-40.506C16.205 9.492 9.423.345 0 0" style="fill:#103578;fill-opacity:1;fill-rule:nonzero;stroke:none" transform="translate(616.649 231.22)"/><path d="m0 0-10.275 22.799c-1.908 4.248-5.64 13.141-6.773 16.219.442-3.115 1.032-12.501 1.368-18.251l1.24-21.605-9.948-.558-4.055 70.64 9.146.521 9.437-20.412c1.953-4.244 5.81-13.436 6.782-16.316-.451 3.11-1.041 12.492-1.373 18.247l-1.101 19.269 9.947.575L8.441.484Z" style="fill:#103578;fill-opacity:1;fill-rule:nonzero;stroke:none" transform="translate(665.923 234.727)"/><path d="m0 0-5.188 70.562 10.561.774L10.588.774Z" style="fill:#103578;fill-opacity:1;fill-rule:nonzero;stroke:none" transform="translate(683.013 235.87)"/><path d="m0 0 4.81-53.453-10.349-.931-4.81 53.458-10.459-.936-1.53 17.012 31.272 2.815L10.45.953z" style="fill:#103578;fill-opacity:1;fill-rule:nonzero;stroke:none" transform="translate(716.672 292.461)"/><path d="m0 0-7.99 70.299 28.536 3.24 1.852-16.372-18.311-2.073 1.051-9.34 11.021 1.244 1.843-16.173-11.021-1.248 1.363-12.049 18.689 2.119 1.861-16.375Z" style="fill:#103578;fill-opacity:1;fill-rule:nonzero;stroke:none" transform="translate(739.079 240.69)"/><path d="M0 0c-3.751 26.324-12.349 33.567-24.024 31.917l-12.994-1.847 9.966-70.06 12.04 1.705C-1.862-36.41 3.741-26.319 0 0m-10.515-1.801c1.986-13.906.139-18.869-6.285-19.776l-2.225-.318-5.23 36.824 2.553.364c6.405.912 9.353-4.189 11.187-17.094" style="fill:#103578;fill-opacity:1;fill-rule:nonzero;stroke:none" transform="translate(802.937 284.941)"/><path d="M0 0c0-53.944-43.736-97.673-97.669-97.673-53.955 0-97.672 43.729-97.672 97.673s43.717 97.673 97.672 97.673C-43.736 97.673 0 53.944 0 0Z" style="fill:none;stroke:#103578;stroke-width:5.581;stroke-linecap:butt;stroke-linejoin:miter;stroke-miterlimit:4;stroke-dasharray:none;stroke-opacity:1" transform="translate(765.826 735.856)"/></g><g clip-path="url(#b)" transform="matrix(1.33333 0 0 -1.33333 -202.208 1217.595)"><path d="m0 0-24.803-35.661" style="fill:none;stroke:#103578;stroke-width:4.341;stroke-linecap:butt;stroke-linejoin:miter;stroke-miterlimit:4;stroke-dasharray:none;stroke-opacity:1" transform="translate(720.09 813.375)"/><path d="m0 0 31.005-36.43" style="fill:none;stroke:#103578;stroke-width:4.341;stroke-linecap:butt;stroke-linejoin:miter;stroke-miterlimit:4;stroke-dasharray:none;stroke-opacity:1" transform="translate(642.572 814.924)"/><path d="M0 0s-20.932-31.784-20.158-56.589" style="fill:none;stroke:#103578;stroke-width:4.341;stroke-linecap:butt;stroke-linejoin:miter;stroke-miterlimit:4;stroke-dasharray:none;stroke-opacity:1" transform="translate(618.543 800.972)"/><path d="m0 0 48.058 24.805" style="fill:none;stroke:#103578;stroke-width:4.341;stroke-linecap:butt;stroke-linejoin:miter;stroke-miterlimit:4;stroke-dasharray:none;stroke-opacity:1" transform="translate(613.894 728.106)"/><path d="m0 0-10.851-59.692" style="fill:none;stroke:#103578;stroke-width:4.341;stroke-linecap:butt;stroke-linejoin:miter;stroke-miterlimit:4;stroke-dasharray:none;stroke-opacity:1" transform="translate(686.759 738.96)"/><path d="m0 0 46.505-25.582" style="fill:none;stroke:#103578;stroke-width:4.341;stroke-linecap:butt;stroke-linejoin:miter;stroke-miterlimit:4;stroke-dasharray:none;stroke-opacity:1" transform="translate(705.37 752.911)"/><path d="m0 0-50.389-33.491" style="fill:none;stroke:#103578;stroke-width:4.341;stroke-linecap:butt;stroke-linejoin:miter;stroke-miterlimit:4;stroke-dasharray:none;stroke-opacity:1" transform="translate(749.543 700.976)"/><path d="m0 0 16.274-14.731" style="fill:none;stroke:#103578;stroke-width:4.341;stroke-linecap:butt;stroke-linejoin:miter;stroke-miterlimit:4;stroke-dasharray:none;stroke-opacity:1" transform="translate(686.759 654.464)"/><path d="m0 0-45.113-10.388" style="fill:none;stroke:#103578;stroke-width:4.341;stroke-linecap:butt;stroke-linejoin:miter;stroke-miterlimit:4;stroke-dasharray:none;stroke-opacity:1" transform="translate(668.462 653.842)"/><path d="m0 0 1.553 38.762" style="fill:none;stroke:#103578;stroke-width:4.341;stroke-linecap:butt;stroke-linejoin:miter;stroke-miterlimit:4;stroke-dasharray:none;stroke-opacity:1" transform="translate(592.956 663.765)"/><path d="m0 0-26.365 4.652" style="fill:none;stroke:#103578;stroke-width:4.341;stroke-linecap:butt;stroke-linejoin:miter;stroke-miterlimit:4;stroke-dasharray:none;stroke-opacity:1" transform="translate(589.865 729.657)"/><path d="M0 0s23.26-27.132 50.385-34.88" style="fill:none;stroke:#103578;stroke-width:4.341;stroke-linecap:butt;stroke-linejoin:miter;stroke-miterlimit:4;stroke-dasharray:none;stroke-opacity:1" transform="translate(608.461 705.623)"/><path d="M0 0h13.947l6.976-10.229S34.106 2.945 53.486 7.598c0 0 7.754 16.277 27.129 25.58C80.615 33.178 21.707 44.34 0 0" style="fill:#103578;fill-opacity:1;fill-rule:nonzero;stroke:none" transform="translate(592.187 803.453)"/><path d="m0 0-20.159-26.356s-2.326-17.831 13.953-41.086l23.263 6.978s1.544 26.358 6.972 37.207z" style="fill:#103578;fill-opacity:1;fill-rule:nonzero;stroke:none" transform="translate(599.163 758.337)"/><path d="M0 0s17.832-3.103 34.88 14.731c0 0 10.861-12.404 30.236-17.834L44.962-29.457s-21.707 3.101-37.981.772c0 0 2.327 14.731-6.981 28.685" style="fill:#103578;fill-opacity:1;fill-rule:nonzero;stroke:none" transform="translate(644.12 677.719)"/><path d="M0 0s-3.092-24.029-10.081-38.76c0 0 22.485-13.952 29.461-23.255 0 0 25.107 19.38 33.336 20.933 0 0-13.182 34.106-11.62 42.632C41.096 1.55 9.303-5.424 0 0" style="fill:#103578;fill-opacity:1;fill-rule:nonzero;stroke:none" transform="translate(664.274 788.568)"/><path d="m0 0-20.924-34.887s-3.884-28.678-6.206-34.108l23.255-6.202S11.63-25.584 0 0" style="fill:#103578;fill-opacity:1;fill-rule:nonzero;stroke:none" transform="translate(767.375 766.092)"/><path d="M0 0s16.279-22.476 14.726-28.68c0 0 9.303 5.425 33.336-11.63 0 0 2.327 24.031-48.062 40.31" style="fill:#103578;fill-opacity:1;fill-rule:nonzero;stroke:none" transform="translate(700.711 836.63)"/></g><g clip-path="url(#c)" transform="matrix(1.33333 0 0 -1.33333 -202.208 1217.595)"><path d="M0 0c-9.167 13.044-23.273 19.555-23.273 19.555l.963 2.419C-6.368 14.362 1.693 1.986 1.693 1.986Zm-34.036 26.144s-15.715 17.905-23.668 36.195c0 0-.398 3.976 3.182 1.002 0 0 2.783-11.344 22.874-34.617 0 0 .994-3.382-2.388-2.58m-9.26-33.176c-4.78 17.007-.787 31.236-.787 31.236l2.605.027c-3.762-15.49.64-30.387.64-30.387zm31.627 68.749-.428-2.573c-14.588 6.43-30.028 4.718-30.028 4.718l-.429 2.573c17.585 1.719 30.885-4.718 30.885-4.718m-66.034 50.182a4.935 4.935 0 0 0-4.933 4.935 4.93 4.93 0 0 0 4.933 4.93 4.93 4.93 0 0 0 4.932-4.93 4.934 4.934 0 0 0-4.932-4.935m98.202-85.354c-9.005 39.029-50.181 77.208-50.181 77.208-35.606 31.313-61.34 76.782-61.34 76.782l-3.004-.005c-1.281-14.154 7.294-42.892 7.294-42.892-18.447 17.154-35.604 85.785-35.604 85.785-.856 1.714-2.142.861-2.142.861 7.292-42.035 29.171-85.789 29.171-85.789-30.03 22.734-78.498 49.758-78.498 49.758-3.433.428-1.286-2.576-1.286-2.576 33.026-17.583 78.492-52.758 78.492-52.758-24.877 9.865-34.314 8.58-34.314 8.58 18.016-10.72 48.04-38.601 48.04-38.601l-6.861-.864c21.446-15.009 30.452-25.31 30.452-25.31l-6.006 1.295c4.718-6.866 4.718-11.16 4.718-11.16-16.728 11.584-59.192 32.604-59.192 32.604l-.429-2.576c19.304-13.297 22.734-20.163 22.734-20.163-22.734 11.16-21.444 5.58-21.444 5.58 24.018-12.438 34.745-38.6 34.745-38.6 16.299-39.889 24.874-48.04 24.874-48.04C-26.685-39.078-1.375-26.213-1.375-26.213c32.168 15.869 21.874 52.758 21.874 52.758" style="fill:#103578;fill-opacity:1;fill-rule:nonzero;stroke:none" transform="translate(490.245 387.061)"/></g></svg>