<svg xmlns="http://www.w3.org/2000/svg" viewBox="0 0 597.89 700"><defs><style>.cls-1{fill:#231f20}.cls-2{fill:#fff}.cls-3{fill:#fee800}.cls-4{fill:#e93421}.cls-6{fill:#daae7d}</style></defs><g id="Layer_2" data-name="Layer 2"><g id="Layer_2-2" data-name="Layer 2"><path d="m13.87 248.31.31.06c.07-2.87-.31-.06-.31-.06" class="cls-1"/><path d="M569.64 184.28c6.84 0 17.6-14.67 19.06-18.58s11.24-13.19 8.8-13.19-10.26-7.34-10.26-7.34-11.74-14.17-24.45-5.37c2.45-7.82-.48-17.11-.48-17.11s-4.89-2-15.64-2-31.29 26.4-31.29 26.4 2.44-36.66-17.11-60.61c24.44-10.27 26.89-27.86 26.89-27.86s-4.4 0-6.85-2-10.26-8.8-10.26-8.8 11.73-4.4 11.73-23S500.23 2 500.23 2s2.93 11.2-7.33 18c-19.56 14.22-33.73 36.7-33.73 36.7s-7.82 17.6-7.82 56.7c-12.22 2-16.13-17.11-20.53-23s-22-10.76-22-8.8-2.44 7.82-2.44 7.82-8.8 9.81-6.38 21.58c-8.3-2.94-16.13 10.75-18.08 15.15s-8.31 9.78-8.31 9.78-2-.49 4.89 7.82S398.07 155 398.07 155s-4.4 12.71 1.46 20.53c14.67 1.47 31.78-9.78 31.78-9.78s18.57 2.94 11.24 35.2C436.19 227.78 417 225.5 417 225.5c-32.58 3.26-49.54-86.68-49.54-86.68l.66-14.34 20.85-55.4-24.79 6.52-3.91 24.77h-11.73L355.7 73l-15-15.64-17 13V95.8l-13.69-1.3 3.26-25.42-15.57-17.6-16.94 19.4 4.88 24.92h-10.75l-1-24-19.53-16.57-11.73 24 8.8 20.53-11.24 2.93-6.85-24.44-24.93-5.87 23.47 58.17v8.8l2 5.37s-9.29 18.09-10.75 24.44-20 14.18-20 14.18-11.25 7.82-1 9.78 5.05 9 5.05 9-21.51 30.63-42.36 37.15c-18.9-.65-24.77-21.51-25.42-30.64s12.38-28.67 18.9-33.24 15-.64 19.55.66 21.51 3.26 22.81-2-3.91-18.25-3.91-18.25 23.46-3.91 22.82-31.28c-7.17.65-14.34-10.43-21.51-10.43s-13.69 2.61-13.69-.65-10.43-21.5-13-17.6-5.37 4.89-5.37 4.89-13.2 2.45-20 14.18c2.93-9.29 2.44-34.22-6.36-49.37s-35.68-37.15-35.68-37.15A38.54 38.54 0 0 1 96.48 0c-9.78 0-22 17.6-23 30.31s10.78 24.92 10.78 24.92-8.8 3.91-9.78 12.22S85.24 83.1 85.24 83.1 95 87 109.68 86c0 7.33-9.78 19.55-9.78 19.55s-12.71 14.67-18.58 54.75c-3.91-2-12.22-14.18-12.22-14.18s1-5.86-5.86-13.68-23-7.83-23-4.89-2.94 18.08-4.89 16.62-15.16-1-19.06 4.4-18.06 9.8-16.11 10.78 3.91 11.73 3.91 11.73S7 183.3 23.16 188.68c-2.94 4.4-1.47 19.06-1.47 19.06l17.6 2.44a64.8 64.8 0 0 0 20-6.35c10.3 2.44 15.71 13.17 19.1 22.48s0 12.23-4.89 8.32-12.22-2.45-12.22-2.45L60.8 239s-5.38 1-7.34 10.27c-2.93-3.91-16.13-4.4-22-1.47-5.43 2.71-15.75.85-17.29.55 0 1.76-.24 5.64-.8 13.63-1.45 21.02 15.63 22.5 18.1 26.9-4.4 3.91-4.4 17.6-4.4 17.6l6 2.77s6.84 9.77 31 3.26C52.31 323.26 34.39 344.44 34.39 378s22.81 71.38 22.81 71.38 0 6.84.33 19.55 18.57 24.44 18.57 24.44 20.53-2.28 26.72-23.79c4.56 3.91 14.34 6.84 14.34 6.84s15.32-1 19.88 1.31c-5.87 3.26-7.5 12.7-7.5 12.7s-1.3 16.63 16.3 16.95c21.18.33 21.51-19.22 21.51-19.22a211.3 211.3 0 0 0 11.08 39.75c-4.56-6.53-17.92-8.15-17.92-8.15s-9.45-2.93-17.6 10.43c-4.56 13-27 34.86-27 34.86s-7.5 3.27-8.15 11.09 5.87 12.06 5.54 16-1.31 2.28-1.31 2.28S88.5 571.25 76.77 566s-18.58-3.59-18.58-3.59-15.64 5.87-2.61 16c14 14.34 14 23.13 24.44 46.93s43 23.13 43 23.13 24.44 0 31.61-6.2c63.56 61.11 149.1 57.73 149.1 57.73s84.56.48 140.78-58.17c18.08 5.37 28.35 4.88 28.35 4.88s37.63 3.43 45.94-22.48c10.27-29.33 24.44-44 24.44-44s4.4-2.93 4.4-7.33-7.33-10.27-15.15-9.78-29.82 9.78-35.2 19.55-9.77 9.78-9.77 9.78-4.4-2.45-1-5.87 4.4-11.24 4.4-11.24 2-10.76-14.66-19.55c-11.73-6.85-18.09-20.53-23-27.86s-15.64-8.8-15.64-8.8a48.4 48.4 0 0 0-18.57 4.4c11.73-18.09 14.66-62.57 14.66-62.57V298.17c20.53 8.31 25.91 27.86 18.58 31.77s-15.65 12.71-15.65 12.71v6.84l7.83 11.25a14.47 14.47 0 0 1-3.92 7.82c-3.91 7.82-.48 28.35-.48 28.35s3.91 1 13.19 1.46c10.76-.48 15.65-7.82 15.65-7.82l12.21 11.24a32.2 32.2 0 0 0 13.73-7.79c6.84-6.35 6.84-40.08 6.84-40.08s20.05 22 23 35.68c-1 13.2-10.27 25.42-14.66 24s-14.18-8.31-14.18-8.31-19.07-2-27.37 2.93c-3.91 8.8 2.44 23.46 2.44 23.46s-8.31 2-22 10.27-14.67 28.84-14.67 32.75c1 26.88 26.39 25.41 26.39 25.41s18.09 0 10.76-16.13c8.31-1 24.93-6.35 24.93-6.35s-4.89 6.84-1 10.75c33.73 1.47 39.1-8.8 39.1-8.8s7.34-4.88 5.38-32.26c25.42-34.21 23-77.23 23-77.23s5.87-33.72-30.3-80.65c25.42 13.69 44.48 2.45 44.48 2.45s.49-13.2-5.86-20.54c10.26-7.33 16.61-32.26 13.68-30.79s-13.2-1.47-13.2-1.47-16.13-5.86-24.92-6.35c2.44-6.36-2.94-14.17-2.94-14.17s-.49 4.88-9.77 6.84 0 0-19.07 11.73-24.44 9.29-24.44 9.29c1.47-4.89 27.37-39.6 32.75-44s14.18-4.88 14.18-4.88a17.12 17.12 0 0 0 14.6 7.75c15.64 1.95 23.46-2.94 23.46-2.94s-12.67-18.08-5.82-18.08M162 460s-17.6-17.59-34.71-23.95a24 24 0 0 0 7.82-16.13s2-9.29 3.42-9.78-11.73-6.35-21-6.35-21 6.84-21 6.84-8.31 5.38-18.09-1.95-10.75-23.95-10.75-23.95a35.34 35.34 0 0 1 17.6-25.42c-.49 30.3 12.7 27.86 12.7 27.86s11.25-.49 15.16-6.35c3.91 14.66 25.41 15.64 25.41 15.64s17.11-2.93 19.07-6.85-2-5.86-2-11.24-4.89-18.08-6.35-20.53 12.22-9.28 12.71-13.68Zm.49-123.66s-12.71-9.29-15.16-10.76-6.84-5.37-1.46-12.71 16.62-13.68 16.62-13.68ZM207 276.17s-1 10.76 11.73 9.29 20-9.29 19.55-7.82 2.44 13.69 2.44 13.69H181c5.42-1.47 26-15.16 26-15.16m-10.32 332.88s11.73-8.31 16.62-25.42c24.93 36.17 82.61 65 82.61 65s-42.04 5.37-99.23-39.58m107.54 39.59c54.25-31.28 81.63-64.52 81.63-64.52a55.7 55.7 0 0 0 16.62 24.93c-45.47 39.1-98.25 39.59-98.25 39.59" class="cls-1"/><path d="m277.9 148.64 33.24-4.4v-2.93l-32.75 3.91 1.47-4.89 25.42-1.96-2.94-2.93-43.99 3.42-14.66 18.58-7.34 2.93 6.85-15.64-6.36 1.95-6.35 20.04 43.5-7.33z" class="cls-2"/><path d="m280.84 157.44 53.76-7.82-1-4.4c-10.76 1-53.28 8.79-53.28 8.79ZM296.48 160.86v-2.94l-3.91.49-.98 2.94zM307.23 159.88v-3.42h-4.4v3.91zM327.27 158.41l.49-5.37-5.38.48-.97 4.89z" class="cls-2"/><path d="m344.38 145.22-4.4.49s-1 11.24-1.46 16.13c-79.68 1.95-124.65 21.5-124.65 21.5s-9.29 6.85 0 5.87c61.59-23.46 130.51-23.46 130.51-23.46ZM268.62 256.66c22.48-9.28 34.7-23 34.7-23l-10.26-7.82-1-4.89-.49-5.38v-4.39l2-3.91-5.37-1v-2l6.35-3.42-1-2-7.33 1-1.95-2s7.33-2 5.86-4.4c-7.33 0-17.1 3.91-17.1 3.91s-5.87.49-2-2.45c7.33-4.39 24.44-4.39 24.44-4.39s2.44-1.47-1-2.45c-11.24-.49-25.41 3.91-25.41 3.91s-6.36 1.47-1.47-2.44 23-3.42 23-3.42 3.91-1.47-.49-3.92c-4.88-.48-28.35 5.38-28.35 5.38l-1-2 14.66-4.4v-2.45l-36.66 8.8 1.95 4.89 7.34 1 .49 2.93-5.38 2 1 2.94 5.86-1 .49 2.93-4.89 1 .49 2.94 5.87-.49 1 2.44-4.39 2.44 1 2.93 6.36-1.46 1 2.93-3.94 1.61.49 2.44 5.38 1.47-4.4 2.44 1.47 2.45h5.86l1 2.93-4.89 2 .49 2.44h5.87l.49 2.44-3.43 2v2.44l4.4-1 2 2.45-3.51 1.94 1 3.43h3.92l1.46 3.42s-7.36 5.32-1.98 5.81m24.92-23.46 1 2.93-4.4 2.94-1.95-2.94Zm-5.37 0-2.93-4.4 5.86-.49Zm.49-12.71v3.91l-4.89 1-1-3.42Zm-2.45-4.4-3.91 2-1.46-2.94 4.88-2Zm-1.46-7.33-5.38 2-2.44-2.94 6.35-1.95Zm-3.42-9.76.48 3.43-6.35 2-1.46-3.49Z" class="cls-2"/><path d="M258.35 294.3s16.62 0 35.19-16.62c12.23-9.77 35.69-26.39 35.69-26.39l-1.47-2-9.29 3.91-1-2 6.35-4.4-2.93-2.45-5.87 4.89-2.44-2 5.86-5.38-2-2.45-6.84 4.89-1.47-1.95 6.84-6.85-3.42-1s-21 20.53-49.86 30.79c-3.91-49.37-38.61-74.3-38.61-74.3l-4.4 2c14.66 8.31 33.24 39.1 36.66 53.28s3.01 48.03 3.01 48.03m51.82-37.64 1.95 2.45-6.84 4.89-2-2Zm-1-2-6.85 5.37-2.44-3.42 7.33-4.88Zm-6.36-8.8 2.45 2.93-7.82 5.87-1.44-2.88Z" class="cls-2"/><path d="M317 268.4c3.91-3.92 20.53-14.18 29.81-14.18s26.89 7.33 26.89 7.33 8.31 0 2.44-3.91-28.35-7.82-35.19-7.33-28.83 16.62-46.95 32.26-40 17.11-40 17.11l1-30.31-7.33 2.93v-9.77l6.35-4.89-8.31-4.89c-7.08 27.86 7.82 52.79 7.82 52.79S300.88 289.9 317 268.4M363.44 231.98l-11.73-4.64-.73 4.39 11.73 3.43zM366.87 239.8l-17.6-5.14-1.47 4.65 18.58 4.89zM343.89 246.15l26.64 6.36 1.22-3.67a105.3 105.3 0 0 0-27.86-6.6Z" class="cls-2"/><path d="M299.9 290.14h19.31l-4.89-10.99zM326.3 271.08l-4.16.74-2.93 3.42.24 4.15 2.69 3.18 3.91.49 2.45-1.47 1.95-2.69.24-3.17-.97-3.43zM324.83 290.39l2.44-.25v-2.44l-2.69.25zM343.16 279.88l-2.69-1.46h-2.93l-2.93 1.95-1.96 2.69.24 3.17.74 2.45 2.2 1.95H339l3.43-.73 1.71-1.95.49-2.45-.25-2.69zM344.87 266.19l-1-2.19-1.95-2H339l-2.93 1.22-2.93 2.2-.25 3.42.49 2.69 2 2.2 3.18.73 3.17-.73s1.71-1.47 2.69-2.2a2.45 2.45 0 0 0 .73-2.2ZM353.91 266l3.18-1.47V262a31 31 0 0 1-2.93-1.47 5.6 5.6 0 0 0-2.69-.24l-3.67-1.22-1.22 2.44 1 2 2.44 1.95ZM367.6 272.55l2.93-1.47 2-1.95-1-2.2a12.8 12.8 0 0 0-2.93-1.23c-1.23-.24-3.42-.73-3.42-.73l-3.91-1.71-.25 4.16.73 2.44 2 2.2ZM383.97 277.93l3.18-1.47 1.47-1.96.49-2.44-.49-3.18-2.2-2.44-2.94-.74-2.68.25-2.2 1.71-1.22 2.93v3.67l2.68 2.93zM398.15 280.61l-1.71-3.42-.73-3.91-2.45 2.2s-.24 2.94-.24 3.67a6.3 6.3 0 0 0 1 2.2l2 1.46 2.44.49ZM399.61 288.44h-2.68v2.19l2.93-.24zM386.91 282.57h-4.16l-2.69 1.95-1.46 2.2-.74 2.45.25 1.71h12.95l.25-1.71-1.47-4.16zM372 277.93l-3.67-1.23-3.42 1.23-2 2.93a22 22 0 0 1-.48 2.69c-.25.73 1 2.93 1 2.93l2 1.71 2.69.49 3.18.24 2.19-1.95 1.72-2v-2.2l-.49-2.93ZM353.67 286.23l-3.18.25-1.47 2.2-.48 1.22 9.77-.73-1.22-2.2zM355.38 269.37h-2.45l-3.17 1.22-1.71 2.2-.25 3.67 1.71 3.67 4.16 1.71 2.93-.74 2.44-1.46.49-2.2.25-2.94-1.22-2.93zM168.75 298.17h16.62l.49 227.83s-14.67-20.53-18.09-70.39c.98-49.91.98-157.44.98-157.44M222 298.17h20.65l1.47 3.67 2.32 5V610S224 586.56 222 582.16ZM310.99 634.95l-12.22 6.85-12.71-6.85V298.17h24.44zM345.69 298.17h25.91V591s-18.08 17.11-26.39 21.51c.97-16.17.48-314.34.48-314.34M407.77 537.68V298.17h20v166.68s1.51 22.97-20 72.83" class="cls-2"/><path d="M480.11 568.48c-14.17-6.85-21.5-22.49-21.5-22.49s-4.4-19.06-20.53-19.55-26.89 21-26.89 21l2.94 6.35-5.87-.49.49 5.87-4.4-1 2 5.38-4.4-2-2.95 3.5 2.94 3.91-5.87-.48 1 6.84s-5.87-5.87-4.89 5.38c2 13.19 16.62 23.95 16.62 23.95l2.44-2-2.44-4.88 4.89 2.44 2.44-1.47-2.44-5.86 4.89 3.42 2-2.45-2-4.88 3.42 2 1.95-1.47-2.44-5.37 5.38 2 2.44-2-3.91-5.38 6.84 1.47-2.93-5.87h4.89s-10.76-20.53-10.76-27.86 6.85-15.15 8.8-12.22 1 10.26 1 10.26l-3.91 2.94 2.93 2.93-2.44 3.91 3.91 1-2.44 3.91 8.3 5.37-1-4.88 4.4-.49-4.4-3.91 5.86-1.47-3.91-3.91 4.4-1.95-4.4-2.94 4.89-2.44-4.4-4.4s-.49-4.89 3.42-3.91 6.85 14.18 6.85 14.18 2.44 22.48-33.24 57.67c-61.1 56.21-121.23 48.4-121.23 48.4s-60.12 4.4-119.26-51.82c-30.31-31.28-28.84-51.32-28.84-51.32 0-13.2 4.89-17.6 6.84-17.6s2.44 5.38 2.44 5.38l-2.93 2.93L158 545l-3.91 4.4 4.4.49-3.42 5.87 5.38-.49-4.4 5.86 6.35-1-4.89 5.87 2.49 1.5 8.8-9.29-2.45-3.42 3.43-2.93-2.45-2.45 2-3.42-2.94-2.44 2.94-3.42-2.45-6.36s9.78 1.47 9.29 16.13-14.18 22.49-14.18 22.49l5.87.49-2.93 4.88 6.84-1.46-3.42 5.37h7.33l-4.89 3.42 2.94 2.94 4.88-2.45-2.44 6.36 6.35-2-3.52 4.93 2.45 1.47 4.89-2.45-2.94 4.4 2 2.45 5.86-2s-1.46 3.91-2.93 5.38c2.93 2.44 6.36-2 6.36-2s8.79-12.71 12.22-19.55-2.94-10.75-2.94-10.75l-4.4 1.46 3.43-5.78-2-1.5-5.87 2 3.42-5.87-1.46-2-5.87 2.93 3.43-6.35-1.47-2.45-5.87 3.91a26.2 26.2 0 0 0 3.91-6.84c-12.71-24-30.3-24.93-30.3-24.93s-4.89-5.38-17.11 14.17c-13.69 22-23.46 26.4-28.35 30.31s-.49 13.69-.49 13.69 23.46 37.63 51.32 62.56c56.22 50.35 137.36 48.88 137.36 48.88s76.74-.48 128.55-47.9c33.73-27.37 51.33-65 51.33-65s7.34-6.32-3.42-14.63M140.89 634v-4.4l-3.91.49.48-3.92-3.91-1v-3.91l-4.4-.49 2-3.42-4.89-1 1.47-3.42h-3.91v-4.89l-3.42-.49-.49-3.42-2.93-4.89-5.55 2.28s4.57 7.83 1 8.8c-15 1-14.34 10.11-14.34 10.11s0 8.14 19.23 15.64c-18.25.33-27.7-12.39-27.05-19.23s10.59-9.78 10.59-9.78 7.83 2.93 3.92-6.84C88.58 573.36 63.66 569 63.66 569s-13.2-2.93-3.43 8.8c21 28.35 19.07 35.69 23 45.46s18.08 19.06 39.1 19.06 26.89-2.93 26.89-2.93l-5.4-5.39Zm-76.1-59.15 3.91 2.93h-3.58Zm3.91 5.55 2.94 2.6H69Zm3.91 4.88h2.94l-.65 2.94h-3.26Zm1.64 6.19 2.6-2 1.63 2-2.6 2ZM77.5 595l2.94-1.63 1.3 2-3.26 2Zm2.61 4.56L83.7 598l1 2-3.58 2Zm2.28 5.54 4.61-3.22 1.63 2.61-5.21 3.26Zm2.61 9.16-.33-2.6 6.19-4.89 1.31 2ZM536.14 569s-24.92 4.4-41.05 31.29c-3.92 9.77 3.91 6.84 3.91 6.84s9.94 2.93 10.58 9.78-8.8 19.56-27 19.23c19.22-7.5 19.22-15.64 19.22-15.64s.66-9.13-14.34-10.11c-3.58-1 1-8.8 1-8.8l-5.54-2.28-2.93 4.89-.49 3.42-3.42.49V613h-3.91l1.47 3.42-4.89 1 1.95 3.42-4.4.49v3.91l-3.91 1 .49 3.92-3.91-.49V634H456l-5.38 5.37s5.87 2.93 26.89 2.93 35.19-9.28 39.1-19.06 2-17.11 23-45.46c9.73-11.78-3.47-8.78-3.47-8.78m-21.34 45.3-7.17-5.53 1.3-2 6.2 4.89Zm1.62-6.51-5.2-3.26 1.62-2.61 4.56 3.26Zm2.29-5.87-3.58-2 1-2 3.59 1.63Zm2.6-4.56-3.25-2 1.3-2 2.93 1.63Zm2.61-3.91-2.61-2 1.63-2 2.61 2Zm1-5.21-.66-2.94h2.94l1 2.94Zm5.87-5.22h-2.61l2.93-2.6Zm3.91-5.22h-3.59l3.91-2.93Z" class="cls-2"/><path d="m215.19 79.67 13.68 3.43 2.44 6.35.49 22.97-2.44.49zM246.96 78.7l6.84-14.67L267 75.76l-.49 29.33-8.8 1.47zM285.57 73.32l10.27-14.66 11.24 13.2-4.89 32.74-10.26.49zM328.59 74.3l10.75-10.76 9.29 11.25-7.33 33.72-11.25-.97zM365.74 80.65l16.62-5.86-14.67 37.15-5.38-1.47zM258.69 111.45l7.33-1.47.98 6.84-3.42 2.45zM292.42 109.98l8.31.49v3.42l-2.45 4.4-3.42-.98zM229.85 117.8l6.35-1.47.49 9.78-2.93 1.47zM330.54 111.45l10.27.49-.49 6.84-4.4 2.44-5.38-4.4zM360.36 113.4l5.87 1.96-2.94 9.28h-4.4zM237.67 109l13.2-4.4 1.95 4.4-14.17 4.4zM272.37 102.16l13.69-.49.98 4.89h-16.13zM307.57 100.2l-1.47 5.38 19.55.98-.97-5.87zM345.21 103.63l-.98 4.4 13.68 3.91.98-5.38zM238.65 119.27l17.1-5.87 5.38 7.82-.49 2.45-21.99 6.35zM271.4 110.96l-2.94 10.26h23.96l-3.43-9.77zM305.61 110.96l-4.4 9.29 27.86 2.44-1.46-11.24z" class="cls-3"/><path d="m342.76 112.91-2.93 9.78 16.13 4.89.98-11.73-16.13-3.91M235.23 135.89s23-10.27 59.63-11.25 65 10.76 65 10.76l-.49 4.89s-32.75-10.27-63.54-9.78-60.13 10.75-60.13 10.75ZM485.72 46.44c7.82-4.89 22.48-22 22.48-22s2 3.91 3.91 8.31c3.42-13.69-5.86-19.06-5.86-19.06-1 7.82-2 12.22-20 26.39S464.7 67.45 464.7 67.45s13.2-16.13 21.02-21.01M491.09 54.26l6.36-.98 6.35-3.42-13.19.49zM498.91 55.72l1.47 3.91 11.25 6.85.97 3.91 3.91-3.91-3.42-3.42-8.8-6.85zM478.35 249.26c-1.26 1-2.49 2-3.87 3a13.1 13.1 0 0 0 3.87-3M471.63 248.34c-.85.64-1.65 1.31-2.53 1.93a12 12 0 0 0 2.53-1.93" class="cls-3"/><path d="M575.17 151.53s-14.67-6.36-24.44 0c5.86-6.36 4.89-20.53 4.89-20.53a20.64 20.64 0 0 0-18.09 5.38c-8.31 7.82-25.91 28.35-25.91 28.35l-4.4 1-2.93-3.91a65.7 65.7 0 0 0 4.89-21c1-12.7-12.71-40.57-27.86-53.76l1 6.84-6.87-4.9 2.93 9.29-8.3-4.89 4.4 7.82-5.87-2 2.44 7.33-4.89-2 2.94 6.85-3.91-2 2.44 9.78s-8.31-5.87-7.82-21 7.33-17.11 10.75-17.6 15.65 1.47 21.51 1a18.32 18.32 0 0 0 13.69-7.33s-10.75 2-17.11 2.93-10.75-2.44-22.49 1c-9.28 3.42-10.26 21.51-10.26 21.51s1 15.64 9.29 24.43 5.86 22.49 5.86 22.49l-5.86 2.93-2-7.82-5.37-7.33-6.36-5.87-8.31-5.86-5.86-3.91-4.89-5.38-3.91-9.29-3.42-4.88-4.4-4.4-9.29-1.47-1.38 3.94-2.44 4.89V108l1.95 4.89 5.38 3.91 5.87 3.43 3.91 4.88-5.38-1.46-5.38-2.45-5.91-2.91-5.38-.49-5.38 1-4.39 3.42-3.92 3.91-2.44 3.42-2.93 4.89-4.4 2.93 6.84 8.8 5.87 2.45h6.35l6.36-.49 6.35-1.47 6.84-.49 5.38 1 4.85 1.43 2.44 3.42-3.91 1.46-7.82-1h-7.33l-3.87 1.52-3.91 3.91-2 3.91v5.87l.49 3.91H408l7.33-2.93 5.38-2.94 4.4-2.44h12.7l4.89 2.93 4.4 4.89 5.87 6.36 3.42 5.86 1.95 6.36s6.85 19.55-10.75 46.43c-3.91 7.82 15.64-19.06 15.64-19.06s-5.37 16.13-16.62 26.88c12.71-5.86 24.44-27.86 24.44-27.86s-10.26 23.95-21.5 34.22c10.75-3.91 26.39-32.75 26.39-32.75a105.1 105.1 0 0 1-18.08 32.26c11.73-8.31 24.92-31.77 24.92-31.77s-2.44 12.22-19.55 32.26c6.85-3.43 28.35-30.31 28.35-30.31s-12.4 21.31-19.95 28.38c14.73-11.12 24.84-25.94 24.84-25.94s-10.47 19.1-18.12 26.83a81.4 81.4 0 0 0 21-24.9s20.53-30.3 33.24-30.79c2-.08 3.39-.12 4.46-.13l.43-4.27 4.89.49 1.46 4.88 2.45 4.4 4.4 1h5.38l6.35-.49h3.91l-2.93-4.4-1-5.86 1-6.36 4.4-3.42s18.08-12.71 20-21c-8.71-3.95-12.62-6.88-12.62-6.88m-135.89 9.77-1.47-4.39 7.34 4.39Zm7.82-2-5.87-5.3 1.47-2 6.85 4.89Zm3.91-5.87-5.86-3.91 1.46-2.93 6.85 3.91Zm.49-10.26 2.45-2.93 4.39 8.31Zm20.5 38.17h-3.91l.49-3.41H472Zm-4.4-5.86v-2.93h3.91V175Zm4.89-5.87h-6.36l1.47-2.93 4.89-.49Zm-5.87-6.35-.49-4.89 6.85 1 .49 3.42Zm-1.46-6.84v-2.94H474l.49 3.43Zm11.73-12.71-2.44-.49-.49-6.84 3.42 1.46Zm23.46-16.13 3.45 2.42-1 18.09h-3.91Zm-9.77 7.82h2.93l-.49 8.31h-2.93Zm-9.29 8.31.49-7.82h2.93v7.82Zm6.84 59.63h-3.42l.49-2.93h2.93Zm2.93-4.89-3.39-1.45v-2.45l4.4 1Zm2.45-5.37-3.91-2.45 1.46-2.44 4.4 1.95Zm4.4-5.38-4.89-3.91 2.44-2.93 5.87 3.91Zm4.88-5.87-6.35-5.37 1-3.42 9.29 5.37Zm4.4-7.33-6.84-4.4 1-3.42 8.31 5.38Zm19.07-20 3.91-3.91 3.42 1.47-5.87 4.4Zm4.4 3.42 3.42-3.91 2.93.49-3.42 5.38Zm13.19 28.35H537v-3.42h6.84Zm-.49-8.3-6.84 1V175l7.33-.49Zm-5.86-8.32-1-2.44 6.84-2.93 1 3.42Zm-1.47-5.86-1.46-2L541 155l3.42 2.93Zm11.73 19.55v-3.42l3.92 3.42Zm11.24 3.38-3.42-.49v-5.86H559Z" class="cls-3"/><path d="m537.1 193.44-.06.62s5.88-.7.06-.62M450.52 208.23s1-4.89-3.42-2c-5.87 27.38-33.24 26.4-33.24 26.4s-7.33 3.42 4.4 3.42c30.8.53 32.26-27.82 32.26-27.82" class="cls-3"/><path d="M574.19 248.31c-15.15-9.29-33.73-2.93-33.73-2.93s3.42-5.87 1-11.73c-2.44 1.46-8.8 1.95-8.8 1.95l-11.24 6.84-8.8 5.38-7.33 4.4-6.36 2.45-6.84 2-8.31 2h-18.59l-8.8-2-8.31-3.42-7.33-3.42-6.36-5.38A32.94 32.94 0 0 0 451 220s-7.82 20.53-34.21 22c-3.91 2.44 3.91 3.91 3.91 3.91l8.31 1 7.33 4.89 4.4 2.45 4.88 1.95 6.36 2.94 7.33 2.93 7.82.48 9.78.49h10.75l10.76-2.44 5.86-2.44 6.36-2.45 5.37-3.91 4.89-2.93 5.87-5.87 5.37-2.93h4.4l1 2.93-1.95 3.91-3.43 4.89 2 2 7.82-2.93 8.31-2h7.33l6.35 1.47 4.89 1.46-.49 6.85-2.93 5.86a45 45 0 0 0-3.91 4.4c-1 1.47-6.84 4.4-6.84 4.4l2.93 2.93 4.4 2.45 2.88 4.31.49 3.92-8.31 1-8.8-.49-10.75-2.43s2.93 6.36 18.09 6.85 15.15-3.92 15.15-3.92-4.89-12.22-8.8-14.17 13.69-3.45 12.22-25.45" class="cls-3"/><path d="m555.13 353.89-2-8.31-2.44-7.82-2.94-7.82-3.91-7.82-3.84-7.82-4.39-5.38-4.89-6.84-4.4-5.38-9.78-8.31 9.78-.49 2.44-3.42s-20 1-25.42-1.47c-2.93 2 5.87 5.87 5.87 5.87s34.7 22.49 42 67.95c4.89 41.06-5.87 59.63-5.87 59.63s.49-24.44-25.91-55.72-34.21-45.95-34.21-45.95l5.86 16.62 2 5.86.49 7.82-.49 11.74v9.77s-1.47 6.36-1 8.31-.49 6.84-.49 6.84l-1.95 5.38-3.43 3.87-4.4 2-4.89-4.4-2.44-5.87-1-12.71-4.4 8.31-4.4 5.38-5.87 3.91-5.81 1.95h-5.9v-13.68l2.93-5.38 4.89-4.4 3.91-4.4 5.38-7.82-9.78 1.47-5.37-2.93-5.38-6.85 3.42-3.42 4.4-3.42 6.84-1 4.89-3.42 3.42-4.89 1-5.86-.49-6.36-3.91-6.84-5.39-6.37-5.38-4.88-5.87-4.4-6.84-3.91-5.86-3.43-6.36-4.4-6.36-2.93-8.79-5.86-5.87-3.42-6.84-4.4-6.36-5.37-8.8-8.8s-23.95-27.86-27.37-87.49l-2.93 2c0 3.91.49 30.8.49 30.8l-2 5.86-3.42 4.89-2.93 4.89-2 4.89-1.95 5.37-1 5.87-2.44 4.89-2.45 3.91-3.42 2.44-4.89-1-1.46-4.4 1-8.31V218l-3.91 3.42-7.33 4.4h-7.82l-6.84-3.43 1.46-7.82 2-7.33 3.42-4.4 4.89-2.93 6.37-3.41 6.85-3.42-7.33-2-4.89-3.91-2.94-4.89 1-5.86 2.44-2.45 3.43 1 5.37 3.42 6.36 1.47 2.44-2.44-6.35-2-4.4-3.42-5.87-1.47-4.88 1-2.94 5.87v7.33l1.47 4.4 6.84 4.4-4.4 2.93-5.86 2.93-4.89 6.35-2.93 5.87-2 11.73 4.4 2.93 4.89 2.45 7.82 1 9.77-2.45-.48 7.82v4.4l4.4 3.91 4.88 1 5.38-2 5.38-4.39 2.93-4.89 1.47-6.85 1.46-8.3 2.94-4.89 3.91-6.36 1-6.35 2.93 13.2 3.4 10.3 2.44 6.84 3.91 7.34 5.38 7.82 8.8 10.26 6.84 7.33 9.29 6.85 6.84 4.89 8.31 4.4 6.35 3.9 7.34 4.4 9.28 5.38 7.34 5.38 5.37 3.91s2 3.42 3.43 3.91 3.91 4.89 3.91 4.89l2.44 5.86.49 4.4.49 4.4-2.45 4.4-5.37 3.42-4.89 1-4.89 3.42-2.93 3.91-2 3.42 2.93 3.91 2.45 4.4 3.42 2.94 5.87 1.95-2.94 2.93-2.93 3.42-2.86 3.85-1.47 4.89-1 5.87v12.71l5.38 1 5.43.53 6.84-.48 4.89-3.43 5.38-6.84 1.95 3.91 3.42 4.89 3.42 3.91 2.45 1 5.86-1.47 4.89-3.91 2.94-5.38 1-5.86 2-37.15 4.88 4.4 3.92 5.86 4.4 4.89 3.42 4.89 2.44 3.91 4.4 4.4 4.4 6.35 2.93 5.38 3.42 4.4 2.94 4.89 2.44 5.38 2 5.86 1 5.38 1 7.33-.49 6.35-1 5.87-3.42 7.82 1-12.22v-8.8l-1-6.35-2.44-7.34-3.59-6.84-2.45 5.38-2.93 6.35-2.93 4.4L519 415l-3.91 2.94-5.87.48-5.38-2-4.4-4.4-5.44-2.89-6.85-1h-7.33l-7.82.49v9.29l1 3.91 1.95 4.39 2.94 3.43 5.86 5.86-5.86.49H472l-6.35 2.93-6.36 2-4.4 3.91-5.86 3.91-3.43 3.42-3.91 3.91-2 4.89-2 4.89-1 6.35.49 5.87 1.46 5.37 3.91 4.89 4.4 3.42v-6.35l1.47-4.89 4.4-3.42 6.84-1.47 7.33 1 6.85.49h7.33l6.84-1.95 5.87-1.47 7.33-3.42-1 5.37-1.47 7.82h12.71l6.36-1 6.35-2.45 4.89-4.4 3.42-5.37 2-6.36 1.46-8.31 1-7.33 1-7.33 5.37-8.31 3.92-7.33 2.44-6.85 2.44-7.33 2.45-7.82 1-7.82 1.46-14.17.49-9.29-1-8.31Zm-93.37 94.83 4.89-3.91 6.36-1.47 6.84-.49 1 3.91-6.84 1-5.87 1.47-4.89 1.47Zm6.85 4.89 4.4-1.47 4.89-.49 2.44.49v2.94l-6.35.48-4.4 1.47h-4.4Zm-2 12.22.49-3.42 5.38-1.47 4.4-1h3.91v2.45l-5.38 1-5.37 2Zm13.69 4.4-3.42 1.46-3.91-1 1.47-2.45 4.39-1 4.4-.49Zm10.27-40.57h-7.34v-3.43h7.34Zm0-8.31-3.92 1.46-5.86-1 2.93-2.94 4.4-.49-2-2.44h-4.89l1-3.91 5.87 1 3.42 2.93 2 2.44Zm10.75 45.94.49-2.93 2.93-.49Zm11.73 12.22-5.87-1.95.49-2.93 5.38 1ZM109.34 55.23c6.84.49 12.22 8.8 12.22 8.8s-9.29.49-12.22.49-6.84-2.44-12.71-4.89-11.73 6.85-11.73 6.85-8.8 5.86 6.84 12.71 18.58 0 18.58 0 6.84-3.91 12.22-3.91 13.68 7.33 13.68 7.33l2.45 6.84 1 9.78-1.49 9.77-2.45 10.76-3.42 8.79-3.91 8.8-4.89 7.33-2 6.36.49 6.84 5.86 1s27.87-25.91 27.87-27.37.48-3.91 1-10.76 16.13-11.24 16.13-11.24l.49 12.71-2.44 6.35 10.75-3.42 5.87-.49 6.84 1 15.15 10.76-12.22 10.26-8.31 2-5.35 3.32 6.84 16.62-6.35.48a39 39 0 0 0-18.58-4.39c-11.24 0-16.62 14.66-16.62 14.66s11.73-10.75 19.07-10.75 13.19 5.38 20 5.38 8.8-2.93 8.8-2.93-7.34-15.15-5.38-18.57c11.73-1 27.37-19.07 22-19.56s-13.19-10.26-22-12.22-14.67 3.91-14.18 0-2.44-15.15-2.44-15.15l-4.4-1s-13.69 6.85-18.57 10.27-2.41 16.16-2.41 16.16L126 155s-4.89 1.47 3.91-13.69c14.66-20.53 12.22-50.34 12.22-50.34s-2-28.35-40.57-55.24c-7.33-5.86-11.73-23.46-11.73-23.46-12.75 8.26-7.83 27.81-2.49 37.59s15.16 4.89 22 5.37M82.46 168.15l-16.13-18.58-.49 5.87 15.15 15.15zM47.75 137.35h4.89l7.82 6.36s-1-10.27-9.29-10.27-10.75 11.73-10.75 11.73l2.93-.49ZM35.53 154.46l2.93-.98-3.42-4.89-4.4-.48-6.35 2.44 6.84.98zM36.51 182.81 36 178.9l-8.8-.49-6.35-1-5.85-3.88-4.89-9.29 8.8-5.87-.49-3.91s-7.33 4.89-10.75 5.87 1.47 20 16.62 22.48c12.71 1.96 12.22 0 12.22 0M53.62 196l-5.38 2.93-4.89 2.44-4.89.49-4.4-1-2.93-5.38v-8.31l-2.93 2-1.47 4.89v5.37l1 3.91 4.89 1.47 7.33 1 6.84-1 3.91-2.45 4.4-2.44 5.87-.49 4.89 2.44 7.33 5.87L80 217l7.33 12.22 4.89 7.82 4.89 7.33 4.89 5.38 5.37 4.89 5.38 3.42 5.87 3.42L126 263l8.8 2 10.75-.49-11.24-3.91 12.22-1 10.75-1.46 7.82-3.42 12.71-5.38s-7.82 12.22-20 14.66c10.76 3.42 21.51-8.31 21.51-8.31l2.93 4.89 3.91 2.44h6.36l4.88-2s24-15.15 27.87-45c1-7.82-2.45-2.93-2.45-2.93s-7.82 35.68-30.79 45c-7.82-.49-3.91-10.76-3.91-10.76l5.37-6.35 6.85-8.31 5.86-6.36L210 220l4.4-10.75h-4.89l-3.91 3.91s-18.08 35.19-67.94 42c-16.13.48-23-5.38-23-5.38l-15.1-10.27-5.37-7.82-4.89-7.82-5.38-6.87-4.4-6.85-4.4-6.84-4.4-3.42-4.88-3.42L60 195Z" class="cls-3"/><path d="m209.54 226.8-3.91 6.36-3.42 3.91-2.44 3.91v2.93l3.91-.49 3.91-4.4 3.91-4.88 3.91-8.32 2.93-8.79-.49-5.38-3.42 7.33z" class="cls-3"/><path d="m236.43 248.8-4.89 2-3.42 2-3.42 3.42-2.45 4.78-3.91 2.44-2-.49v-3.42l2.93-3.91 3.91-4.88 2.44-3.92 3.92-4.4 2.93-5.37 2.44-7.33 2-6.85-1-3.42h-3.42l-1 4.89-1.95 5.87-3.43 5.37-3.37 6.42-5.37 5.37-5.37 5.34-4.89 5.87-5.39 5.42-4.4 4.4-4.88 4.4-4.89 3.91-6.36 4.4-5.37 2.89-6.36 3.91-5.86 2.45h-4.89l27.37-19.55-32.26 15.64 21-17.6-25.42 12.71L169 266.4l-21 9.77 3.42-6.35-17.6-.49h-6.84l-8.8-1-9.78-2.44-8.31-2.45-4.93-1.44-4.39-3.42-5.38-3.42-3.39-5.38-3.42-4.4-5.41-3.38-5.38-2.45h-3.42l-2.44 7.82-1.47 6.85.49 5.37 2.44 3.41s-2 2-3.91 1.47a2.58 2.58 0 0 1-1.95-2.47l-1-2.45-2.93-3.42-4.4-2.44-3.42-1.47h-5.36l-4.4 1-5.87 2.44-6.84 1.47-3.42-1.47v16.62l4.89 4.89 3.91 3.42 5.86 3.41 5.87 1.47-2.42 3.9-2.44 4.4-1 6.35-1.95 4.4 8.8 4.4 5.86 1 6.84.49 6.85-1 5.38-2.93 5.86-2 3.42.49-1.46 4.89S55.08 326 45.8 351.45s-2.45 50.83-2.45 50.83l2 9.29 1.46 6.36 2 6.84 3.91 6.35 2.85 5.88 3.43 5.37 2 5.86 1.46 5.87v6.84l.49 8.31.49 5.87 4.4 5.37 3.91 4.89 5.38 3.42 4.87-1.95 4.4-3.43 3.42-1.95 2.44-4.4 3.91-4.89 2.45-5.38 1-5.37 4.4 3.91 4.4 3.42 6.85 3.42 6.84 1h24l6.35 1.47-4.88-4.89-6.85-1-8.31-.49h-6.84l-8.8-2.44-6.35-2-6.43-2.89-5.37-4.4-5.87-4.89-6.84-1.95 6.84 6.84 2 4.89v6.35l-2.45 4.4-4.89 4.89-5.94 2.93-4.4 2.45-3.42-3.91-3.91-3.42-2.94-3.92.49-4.4.49-4.39-.49-6.36-.49-4.89-1.46-5.37-2.45-5.38-2.44-4.41-3.91-5.38-2.45-5.37-1.46-5.87-2-7.82-1-6.84.49-7.33 1.95-5.87 2-5.87 2.45-5.86 4.4-5.87 4.4-4.4 3.91-3.91 4.89-3.91 4.87-3.41 3.91-3.91 4.4-4.4 2.94-4.89 3.91-4.39 2.93-5.38 5.38-4.89a9.58 9.58 0 0 1 6.35-2.44c3.91 0 .49 6.35.49 6.35s-13.2 9.78-16.62 21.51c-5.87 25.9 6.36 26.39 6.36 26.39s10.75 3.42 16.13-10.75c2.44 8.31 10.75 19.55 23 19.55s15.64-4.4 15.64-4.4l-2.44-9.28a49.25 49.25 0 0 0-8.31-22c13.19-5.87 15.64-15.64 15.64-15.64s-3.42-3.91-11.73-7.33-8.31-10.76-8.31-10.76-1-14.17 23.46-25.41S211 267.37 211 267.37s-5.86 15.63 10.76 12.23c22-1.47 20-35.69 20-35.69ZM47.26 288.88l-2.93.49.49-4.4 3.42-.49Zm7.33 1h-3.42V285l3.42.49Zm14.67-22-2.93-2.44 3.91-2Zm52.3 14.67h3.91v3.91h-3.91Zm-5.38 2.45 3.43 4.4h-3.92Zm-16.62 12.68-4.4 1-1-5.87 3.42 1.47Zm-2.93-30.31h-4.89L90.28 264Zm-11.24 2 9.77 1v3.42l-9.77-1.47ZM82 276.66l11.73-.49v2.45l-11.73.49Zm9.74 5.34v3.42L80.5 285l-.5-3.45Zm0 19.55-3.42-1-.49-3.91 2.94.49Zm-14.17-32.22h-4.89l.49-3.42h4.4Zm1 21.51 10.75-2.45 1 3.91-8.8 1.47Zm6.84 12.22-4.4.48-1.47-3.9h3.42ZM79 311.37l7.85-5.37 2.45 1.95-7.82 5.38Zm5.38 7.82-2-2.93 8.31-4.4 2.44 2.93Zm5.41 6.81-2.45-2.44 5.38-4.89 3.42 2.44Zm6.35 3.91-2.93-1.47 4.89-4.4 2.44 1Zm9.29-34.21-3.42-1v-4.4l3.42 1.95Zm3.91-3.43-1-4.89h2.94l1.46 3.43Zm1 29.82 4.89 3.42-2.94 1Zm2.44 19.06-3.42-1.95 5.38-6.36 1 2.45Zm1.47-22 .49-3.42 6.35 4.88-2.93 1.47Zm8.31 23.46h-3.91l.49-8.31 4.88.49Zm-1.47-28.35.49-2.93 5.87 2.44-2.94 3.91Zm10.27 25.42-4.89.49 1.46-7.34 3.43 1Zm-1.47-28.84-2.44-1.47-.49-2.93 4.88 1.95Zm1.93-28.84h-2.93l-.49-2.93 3.91-.49Zm1.47 20 4.4 2.44-4.4 1Zm4.89 29.82v4.89h-3.42l-.49-5.38Zm1.95 19.18-1.95 4.89-3.42-2.45 2-4.4Z" class="cls-3"/><path d="m163.11 469.25-1.96-3.91-2.93-4.4-5.38-5.38-4.4-4.4-4.4-3.42-6.35-4.4-6.84-2.44-8.31-2.93-5.87-2.45 6.84-3.42 4.4-4.4 2.45-4.4 1.46-5.37 1.47-5.87-6.35-1.95-3.43-.98h-11.24l-5.86 1.46-4.89 1.47-4.4 2.93-5.87.98-4.88.49-6.36-2.44-7.33-3.91v3.91l4.89 2.93 5.37 2.44 5.87.49 7.33-.98 5.38-1.46 4.89-2.94 4.4-1.46h12.22l4.88.98-.49 6.84-3.42 5.86-6.35 4.4-6.35 3.43-7.34 2.44 11.24 2.44 6.85 1.96 6.35 2.44 6.36 3.42 6.35 2.45 5.38 3.91 5.86 6.35 4.89 7.82 2.94 7.83.48 7.33-2.93 5.86-3.42 3.91-3.42-2.44-2.45-2.94v-4.39l-.48-3.43-4.89.49-3.42 1.96-2.45 4.4-1.95 8.8 3.42 5.37 5.37-1.46 5.38-1.96 1.96 3.91 5.86-3.91 3.91-2.93 2.45-4.89 1.46-4.89v-5.37l-.49-5.38z" class="cls-3"/><path d="m188.6 133.44-4.89-1.46h-4.88l-4.4 1.46-2.45 2.45-3.91 2.44-3.42.98v-4.4l1.95-4.89 1.47-4.89 1.47-4.88-1.96-3.43-2.93.49-2.44 3.91-.49 4.89-.49 4.89-.49 3.42-2.44 2.93-5.38 3.42-4.4 4.4-3.91 3.91-3.42 3.43-3.42 4.4-3.91 4.88-1.96 4.4-1.95 4.4-3.43 11.73 8.8-15.64-4.88 14.18 11.24-14.18-6.36 14.66 5.87-6.35 3.91-4.89 4.4-3.42 5.37-3.42 4.89-1.96 6.84-.97h4.89l4.4.97 4.4 2.94 1.47-4.89-2.45-3.91-4.88-4.4 1.46-2.93 4.4-1.47 4.89-.98 4.89-2.44 3.91-1.96 2.93-3.91-4.4-1.95zM97.69 127.58l2.93-5.87 3.42-4.89 3.91-5.86 4.4-5.87 2.44-5.37 1.96-4.4-1.96-5.38-.97 2.93-2.45 5.38-1.95 3.91-2.45 4.89-2.93 4.4-1.96 3.91-1.95 2.44-1.96 3.91-2.44 3.91-1.47 4.4-1.95 4.89v1.96l2.44-2.45zM94.26 162.28l1.96 4.4-.49 5.38-.49 5.38v3.42l4.4.48.49-5.86.98-8.31 1.46-4.4 1.47 1.95-.49 6.85.49 3.91 2.93 1.96v-11.25l1.47-3.42 1.47 2.44v3.92l.48 5.86 2.94.49 1.46-7.33.49-5.87 1.96-5.86 1.46-5.87 1.96-4.89 2.44-4.4 1.47-4.39 3.42-4.4 1.96-4.41 2.44-8.79h-2.44l-3.92 5.37-2.93 5.87v-7.82l3.91-8.31-3.42-.49-5.86 16.62-3.43-.98 6.36-17.59-10.27 18.08 6.36-18.08-11.25 17.1 6.85-18.08-4.4 4.89-3.42 3.91-1.96 3.91-2.44 5.37-1.96 5.38-2.44 4.4-1.96 6.35-1.95 5.87-.98 5.87-.49 5.37-.49 4.4.98 4.89zM95.73 190.14l1.96 1.47 2.44-2.44-3.91-1.96zM102.57 190.63h2.93l.49-7.33h-2.93zM109.91 190.14h2.93v-6.84h-2.45zM119.68 199.92c1 1.46 2.45 4.4 2.45 4.4l.48 5.86 2 2v-13.73l-1-6.35-2-5.38v-6.84l1.46-5.38 1-5.86-1-6.36-1.95 3.42-1.47 4.89-1 5.38-.49 6.35v9.78l1 4.4a4.78 4.78 0 0 0 .52 3.42M131.9 191.61l.98-5.87-2.44 1.47-2.45 4.89-.49 5.87-.98 6.35.98 5.38.98 4.4 1.47 3.42 1.46 3.42 1.96 4.4 1.46-2.94-2.44-7.33-.98-9.29v-7.33zM86.93 188.68l3.42 4.89.49-5.87v-5.87l-.49-5.86h-4.4l-.48 2.93.48 4.89zM79.11 202.36l4.89-.98 2.93-2.93-.49-3.42-4.88.98-2.45 3.42z" class="cls-4"/><path d="M139.23 246.36c-16.13-14.67-24.44-53.28-24.44-53.28l-3.91 1 2.94 8.79 2 6.36 2 7.33v6.84l-5.38-10.75-2-5.87-2.44-5.88-2.49-5.9-2.45.49 2.94 10.29 2.94 6.36 3.91 6.84 1.46 6.85-5.38-7.83-3.42-5.38-2.94-7.33-4.4-9.29-2 2 2.93 8.79 2.45 4.89 2.93 6.36 3.91 4.39 3.91 5.38 3.91 4.4 3.91 5.38 6.84 3.91 5.87 4.4ZM92.8 209.21l-2.94-.49L104 233.16l-18.54-19.55 14.67 20L105 239l5.37 4.89 7.34 3.42 8.79 1c-15.13-6.84-33.7-39.1-33.7-39.1M62.49 185.74l14.66 8.32-9.77-14.67 13.2 10.27-7.82-13.2 7.82 5.86-1.47-6.32-6.35-8.31-5.87-6.36L63 155l-2.93-5.38-3.91-2.44-3.42-.49h-5.4l-1.47 2.93-1 2 3.91 2.93 3.43 2.45 3.42 3.42 2.93 3.91-3.91 1-4.89-2-4.89-3.91L40 157.4h-4.88l-4.4 1.95-3.42 2-2.94 2.94-3.91.49v3.42l3.43 3.91 4.39 1 5.87 1a15.7 15.7 0 0 1 3.91.49 44 44 0 0 0 5.38 1l3.42 1 4.4 2.93 1 2-3.91 1-4.4 1.47-2.94 2-2 3.66-1 5.37 5.38.49 5.86-2 5.38-2 4.89-.49L73.73 198ZM78.62 425.26l9.29 2.93 6.35 1 6.85 1h13.19l3.43-2 2.44-2.93 1.47-4.4-5.38-2.93-6.35-.49-5.38 2.44s-4.4 2-5.87 2H81.55l-8.79-.49ZM83.51 438.46l-23-13.69s32.75 29.33 53.76 36.17c8.31-.49 5.87-9.29 5.87-9.29l-7.82-3.91 11.24 1.47.49-2.93s-47.9-15.65-55.23-22.49 14.69 14.67 14.69 14.67M81.56 450.68l-3.92-3.92-4.88-2.93-3.43-1.46 1.47 5.37 1.96 6.85v9.280000000000001l.97 4.4 2.45 2.45 3.91 2.93 3.42-1.47 3.42-3.91.49-7.33-2.44-5.87zM132.88 455.56l6.84 1.96.49-2.93-7.82-2.94zM127.99 465.34l7.82-.49v-3.42l-8.31-1.47zM489.21 72.83l1-9.29-5.86 1-3.42-1.46 4.88-4.4v-4.91s-23.46 19.06-21 19.06ZM348.93 189.17l-9.78 11.73 5.85-14.18 1-5.86-5.38 1.46-3.91 1-4.89.49-4.4-.49-3.91-1.47-4.4-2-2.44 2.44.49 3.42 2.93 1.47 4.89 1 4.89.49 9.77-1-1.47 4.4-3.9 2.93-3.92 2a31 31 0 0 1-3.42 1.46 43 43 0 0 1-5.37 1l-4.4 2.44-2.45 3.43-1.95 4.4v4.4l-.49 2.44h7.82l4.89-1 4.4-2.93 2.93-2.45 4.4-4.4-2 5.87v10.26l.49 4.89 2 2.45 1.95-4.4 2.45-5.86 1.95-5.86 2-3.91 4.4-6.85-8.8 3.42 8.8-13.19ZM551.78 254.67h-4.89l-6.35.49-3.42 1.95-3.91 2.44v5.38h7.82l-1.96 3.42-4.4 1.47v2.93l3.91.49 5.38-1.47 5.87-2.44 4.89-4.89 3.42-3.91.49-4.89zM523.43 274.71l4.89-2.45v-2.44l-4.89.49zM523.43 280.08h6.36l.97-2.93-7.33.98zM463.31 347.54l3.42-2.45-1.47-4.39-4.88.48-4.89 1.47s-2.45 0-2.93 1.47 1 4.88 1 4.88l2 1.47h2.93ZM461.35 364.64l-3.42 5.38-.98 4.4.98 4.4h3.42l3.91-1.95 3.91-5.38 1.47-7.33v-8.31l-4.89 3.42zM480.42 356.34l-2.45 4.88v10.27l1.96 3.91 4.4 2.93 3.91-1.46 1.95-6.36.98-7.33-.98-5.38zM534.19 337.27l-2.45 2L538.1 350l-11.25-9.28-1.46 1.95 8.31 13.2-11.25-8.31-3.91-.49 1 4.4s20.53 18.08 22 23.46 5.86-17.11 2.44-27.86-9.79-9.8-9.79-9.8M528.81 321.14l4.4 3.91-.49-4.88-3.91-2.94zM530.27 327.5l-6.35-4.4 1.47 3.91 3.42 3.91zM521.96 333.36l3.91 2.94.98-3.42-5.86-2.94zM518.54 335.32l-4.88-.49 1.95 3.42 2.44 2.93 3.43-1.46zM509.25 342.16l2.45-2.44-3.91-2.45z" class="cls-4"/><path d="m501.43 300.12 16.14 15.16 3.42-2.45-17.11-18.08 8.8 4.4 3.91 3.91 3.91 4.88 3.42-1.46s-18.09-23.48-52.79-29.33c4.4-1 45.46.49 45.46.49v-3.91l-15.16-1s21-4.89 23.47-8.31a5.68 5.68 0 0 0 .49-6.35s-11.73 11.24-27.86 11.24c-1.47.49 2-2.93 2-2.93l26.88-12.22-.49-3.91s-14.71 14.68-46.92 15.66c-18.57 1-30.31-4.89-30.31-4.89l17.6 9.29s-15.64-2-42.53-21c-3.42-2.45-5.37-.49-5.37-.49l-1 2.93-8.31-7.33-4.89-.49 12.22 12.22-17.62-11.75h-2.94L413 261l-22-16.6-3.92-.49 3.43 4.4L411 264.44l-17.11-7.33s14.66 13.69 43.5 28.35c37.15 15.15 35.2 47.41 35.2 47.41l2.44.49.49-16.13 2.48 18.58 3.91-.49v-14.18l3.42 12.71 3.43-.49-6.85-18.08-4.4-6.85-3.91-7.33-4.88-6.84-5.38-5.87 5.38-.49 4.4 4.89 6.35 6.36 3.42 4.88 2.44 3.43 4.89 6.84 12.22 19.06 2.93-1.95-14.17-22.49 17.11 20 2.93-1.95-17.14-23.91 19.07 19.55 2.93-2.44Zm-49.36-12.22-29.82-14.66 1.95-2.44s24.44 13.68 28.8 14.2-.93 2.9-.93 2.9m3.91-5.37-29.82-14.67 1.95-2.44s24.45 13.69 28.89 14.18-1 2.93-1 2.93Zm3.91-5.87L430.07 262l2-2.45s24.44 13.69 28.83 14.18-1.01 2.93-1.01 2.93M254.45 309.66l21.22-9.17 4.85-1.95-.65 333.65s-24.77-13.69-26.07-21.51c.65-7.17.65-301.02.65-301.02M192.46 299.15h22.89l-.57 275S193 544.85 191.89 537c.57-7.15.57-237.85.57-237.85M318.21 299.15h21.62l-.54 316.74s-19 16.3-21.62 13.69c.54-7.17.54-330.43.54-330.43M378.17 299.15h24.23l-.55 253.52s-21.61 32.59-24.21 30c.53-7.19.53-283.52.53-283.52" class="cls-4"/><path d="m390 292.73-3.09 1.94-1.93 2.7-.39 3.86-.77 3.48-.39 3.86-.38 3.87v3.48l-.78 2.7-1.93 2.7-3.09 2.32-3.09-5.41-3.48-5.79-2.7-3.87-1.55-4.63-2.32-2.71-3.47-5-1.16 4.64v4.63l.39 4.64V314l1.54 1.94 1.55 3.47 1.93 4.64v3.86l.77 2.7.77 2.71-.39 3.09-.77 2.31-2.31 1.55-4.26-1.93-3.08-3.48-2.32-3.48-2.71-4.24-1.93-6.18-2.31 2.7-1.16 3.86-.78 4.25v3.87l.78 3.08 2.7 2.32 2.32 2.71 1.93 3.09 1.55 2.31 1.54 2.33 1.93 1.93.77 3.08V360l-1.54 2.7L354 365l-2.32 2.71-1.93 3.47-1.93 3.49-1.89 2.33-1.55 2.7-1.93 3.49-1.93 3.08-1.16 3.48-1.54 2.7-1.94 2.32-1.88 3.43-2.7-4.25-3.87-4.64-4.63-3.86-3.48-5-3.47-4.25-2.71-5.41-1.93-5.8-.77-6.94-1.16-6.57.38-5.41v-17l-.77-5.79-1.93-5.42-3.09-2.7-1.6 3.84-.38 6.18-1.89 2.71-1.16 5.41v3.47l-3.09-5.41-4.64-5.79-4.25-1.16-4.25-1.93 1.93 3.86 1.16 3.48a11.7 11.7 0 0 1 1.16 3.48c0 1.15.39 4.25.39 4.25l2.7 1.54 2.71 2.32 1.54 2.32.39 4.25H284.5l-2.7.77.77 3.09 1.16 3.86 1.93 1.55 5.41.78 4.64 1.15 2.29 2.32 2.71 2.7 1.54 2.32.39 3.09-4.64-1.16-4.63-3.86-3.87-1.93-3.86-.77.39 3.86.77 2.32 1.93 1.93 2.32 2.7 3.09 1.55 3.48 3.09 3.09 1.93 2.7 2.71 3.1 2.7 4.24 3.09 4.25 1.93 2.7 2.32L320 394l1.55 2.7 1.16 3.1.77 4.25-1.48 3.42h-2.32v-5.41l-2.68-6.57-4.25-3.09-4.24-1.54-3.48-.38-3.48-.39.39 3.09.77 3.86 2.32 3.09 2.32 3.47 2.31 3.1 1.55 3.09-2.32 2.7-2.7-2.32-3.87-3.86-4.32-3.48-.77-3.86v-3.86l2.32-3.09.77-5s-1.93-1.92-1.93-3.08-2.7-5-2.7-5l-1.16 4.64v5l-2.71 3.86-3.09 1.93-2.7 3.49-1.16 3.85-.39 4.26.78 3.47 2.32 3.09 2.31 4.25 3.09 3.48 1.94 3.48v3.86l-1.55 3.09-.77 3.48-1.14 3.83-1.55 3.47-3.09 3.87-3.09 2.7-2.7 2.71-3.1 3.09-2.7 3.09-1.16 3.07-1.16 3.09v9.66l1.16 2.32 4.25 1.16 3.48-.39 3.48-1.55 1.93 1.94h2.31l3.1-1.94 3.86-3.47 3.09-3.09 1.93-2.33 2.32-3.47 1.93-1.93h4.64l1.54 1.55v2.7l-2.32 3.48-3.08 3.09-2.32 2.32-2.71 3.47-3.5 4.65-2.31 5-1.94 4.25-1.15 4.25-.39 4.64v3.47l.77 3.48.77 3.09.78 3.09.77 4.63V523l-3.86-2.71-2.32-3.09-3.86-3.47-3.1-3.09-2.7-3.48-3.09-3.09-3.09-2.32-4.64-1.93h-7l-3.41 1.18-3.47 1.93-3.48 2.32-3.09 2.32-3.48 1.93-3.09 2.71-3.09 1.93-2.7 2.31-2.32 2.71-3.51 3.05-1.16 2.7-1.54 4.64-.39 3.86-.77 3.87-.77 3.47-.39 3.48-.77 4.25-.78 3.47-1.12 3.05-.39 3.87v2.7l.77 3.09 2.71.77 4.63-2.7 4.25-3.86 2.71-3.1 1.16-5 .38-4.64-.77-3.48.39-4.25 1.15-3.4 3.09-3.1 1.93-4.64 2.71-2.7 4.25-2.7 2.7-1.93 3.1-1.55 5.4-2.7 3.87.77 3.86 1.54 2.32 3.48 2.7 2.32 2.32 3.47 2.32 1.94 1.54 1.93 1.94 3.87h-8.12l-3.47.38-3.87 3.09-3.09 2.7-3.09 3.1-1.54 3.86-1.17 4.21-.38 4.63v4.25l.77 5s-.39 3.47-.39 5.4v5l-.77 4.63.39 7.73-.39 5.79a30 30 0 0 0-.38 3.87c0 1.54-.39.77 1.15 3.47a21.6 21.6 0 0 0 3.1 4.25l3.47 4.25 3.09 3.48 2.71 1.93 4.25-.77 1.93-3.87.77-5.79-.39-5-.77-3.86-1.54-2.71-1.16-4.63-.39-4.64-.77-5.41-.77-7.34.77-8.5 2.32-5 1.54-4.64 1.16-3.09 3.48-1.16h8.11l4.25.39h14.3l3.85-.39h3.49l4.24.78 2.33.38.77 3.47v3.87l.77 3.86.77 2.71 1.54 2.32 1.55 2.31 2.71 2.32 3.09 3.09 2.31 1.93 2.71 2.32 2.7 2.32L344 584l2.33 2.7 1.93 2.71 2.7 2.7 3.48 3.48 2.31 3.48 2.33 3.47 1.93 2.71 4.63-1.93 7.34-8.11 9.27-8.51 10.44-10 2.31-6.95 3.09-5 5.8-9.28-2.32-2.7-3.09-2.7-2.32-1.16-3.47-3.48-1.55-2.7-3.09-3.1-3.47-2.7-2.33-3.09-4.25-1.98-3.09-3.86-4.64-3.48-3.1-2.32-2.7-5-1.54-3.86-1.93-3.89-.78-3.86-1.93-4.59-1.54-4.24-1.55-3.87-1.93-3.89-.38-5v-4.3l1.54-3.86v-11.2l.77-5-2.31-2.71-2.71-5-1.54-4.25-.78-4.25.39-17 2.31-3.09 3.49-3.86 2.31-3.09.39-3.47.38-5.42-4.24-1.15-5.41.38 1.16-5 1.92-3.86 1.94-4.26 2.7-3.47 1.93-5.41 2.32-2.32 3.09-3.09 3.47-3.09 3.87-2.7 3.86-1.55 4.64-3.86 5.41-2.7 4.25-5 2.31-3.47 1.17-4.64.38-6.57-.77-6.95-3.09-.39-2.7 3.87-2.71 6.18-3.09 4.25-3.48 2.7.39-5.79 1.54-4.64.39-5 5.41-3.48 3.47-4.25 2.71-4.25 2.71-6.57.38-7.72v-11.2l-.38-5.8Z" style="fill:#1c1920"/><path d="m306.14 326.72.78 5.79v4.64l.38 7-.38 8.11v4.64l.38 3.86.78 4.25 1.16 3.09 2.31 4.64 1.54 3.09 1.16 3.09 3.1 3.86 1.93 1.93 1.93 2.71 2.71 2.7 1.92 1.55 1.93 2.71 2.32 2.7.78 2.31v7l-.78 6.18 4.25-5.41 2.71-4.25 2.32-3.86.77-3.48 1.54-4.25 1.93-3.47 2.33-4.64 2.31-4.25 1.93-3.48 2.71-4.24 2.32-3.1 2.31-2.7 1.55-2.7 1.15-3.48.4-4.26-1.17-3.47-3.09-3.53-1.93-2.7-2.71-3.48-2.7-3.47-1.54-3.48v-3.48l.77-4.63 1.54 4.25 1.55 4.63 2.32 3.09L356 341l3.09 1.94h3.09l3.47-1.17 3.1-3.86v-5.8l-.39-5.4-.78-3.48-1.58-3.85-1.54-3.1-1.93-4.63-.78-8.11 2.71 3.86 2.7 5 1.55 3.86 1.54 3.49 1.55 2.31 1.2 2.34 1.55 2.32 2.71.77 3.08-2.32 3.09-3.86 1.94-3.48.39-4.63.38-3.87.77-5.41v-3.86l2.32-3.86.77 23.95-.77 2.32-2.7 3.09-2.32 2.7-2.32 3.09-3.48 1.55-2.32 1.54-1.15 3.48-.78 3.48-.39 3.47v3.48l-1.15 3.48-1.16 2.7-1.54 2.32-1.55 4.63v2.71h1.55l6.17-1.54 2.71-3.48 3.09-3.09 2.32-3.48 1.55-2.7 3.08-8.5.77 5v3.86l-1.15 4.25-2.7 3.48-1.55 2.31-3.48 2.33-3.86 3.09-4.25 1.93-3.86 2.7-5 2.32a24 24 0 0 1-3.48 2.32 17.6 17.6 0 0 0-3.47 2.7l-1.54 3.09-1.94 3.86-2.33 4.28-2 3.86-2.31 3.48-1.55 4.24-1.93 3.1-.78 3.85-1.93 3.1-1.92 3.86-5.8 6.95 5.8-2.7 3.85-2.32 3.1-2.32 4.24-1.54v1.93l-1.93 2.71-3.09 3.09-2.32 2.7-2.7 2.32-3.48 1.93-3.47.77-4.64 1.16 1.16 3.87 2.32 2.7 3.47 2.32 2.71 4.25.78 3.85.38 4.64.77 4.64v17l-.38 3.47-.77 3.87-1.17 3.86-1.53 3.44-.77 3.86v2.32l.77 1.93h3.49l3.08 2.32 2.32.77 1.94 3.1 1.54 4.63.77 3.48.39 3.86-.77 3.09v3.09l1.15 2.7-.38 4.64-1.55 3.47-2.31 1.94-4.25 2.32.38 2.31h3.09l3.48-2.31 2.7-2.71 2.71-1.55 3.09-.38 2.32 1.15 2.32 3.49 3.09 2.31 2.31 2.32 3.1 2.71 2.31 2.31 2.32 2.71.77 2.71 3.09 1.15 3.09 1.55 2.32 2.32v2.7l.39 2.7 1.55 1.93 1.92 1.56 1.93 1.92 2.71 1.93-.39 3.1-1.9 3.12-3.47 3.48-2.71 3.48-4.25 3.86-3.86 4.25-4.25 3.86-3.87 4.25-1.93 2.32-2.31 1.55-4.25-3.1-3.86-4.63-3.1-3.86-2.31-3.48-3.09-3.09-3.1-3.09-2.7-2.32-3.12-3.05-3.09-2.32-3.09-3.09-2.71-3.48-2.31-3.86-1.16-7.73 2.31 2.32 1.93 3.48 3.1 3.47 3.86 2.32 3.48 3.09 3.09 1.93 4.64 2.33 3.47 3.08 3.09 3.48 2.71 2.7 2.7 3.87 3.86 3.09-1.54-4.68-3.48-3.86-3.47-3.87-3.1-3.08-3.47-3.48-4.26-3.09-3.47-1.93-4.64-3.48-3.09-3.09-1.92-4.25.77-4.25-1.16-3.48-2.71-1.14-3.86 1.16-1.54 1.17h-8.9l-3.08-1.17h-4.64l-5 1.17-3.48.38-6.56-.38-3.48-.4-3.48-.77h-4.64l-2.31 1.94-2.32 3.47-1.93 4.25-2.71 4.63-.38 5-.39 8.11.77 4.64.39 4.25v3.47l.77 3.48.77 2.7 1.55 3.87.77 3.09.39 3.86.77 3.86-.77 3.1-1.16 2.31-3.48-1.92-2.32-3.49 1.55-3.47 1.55-4.25-1.57-3.06-1.55 2.31-1.15 1.93-1.55 3.1-3.47-3.1-.78-3.47v-16.63l1.16-9.27v-12.36l.39-5.8 2.32-4.63 2.7-3.87 3.48-3.09 3.86-1.93 6.57-.78 11.2-.77 7.73-.38 5-.39 3.1-3.47 1.54-4.64.77-5.41v-6.56l.39-5 1.15-3.86 2.71-2.71 6.18-4.25-5-.38s-3.09-.39-4.25.77a30.7 30.7 0 0 0-3.09 4.63l-1.55 3.87-.38 4.63v7.73l-.78 3.48v4.25L305 533l-3.48-.77-1.52-3.86-1.54-3.08-.77-7.35.38-5.79-1.54-3.87-1.55-5-.39-5.41 1.16-5.41 1.94-5 2.31-5 3.09-3.47 2.32-3.1 2.71-3.09 3.47-1.93 2.7-1.93h2.33l1.16 2.71-3.87 2.31 4.64-.38 3.08-2.71.78-5-.78-3.87-.77-2.31 3.48-2.7 3.09-3.49 1.54-3.08v-8.89l-2.31 5.41-2.32 4.25-3.09 3.09-4.25 1.08h-4.64l-4.63.39-3.09.77-2.71 2.7-2.32 2.7-1.92 1.94-2.32 2.7-1.55 2.7-3.09 2.33-2.31.38.38-3.09 1.93-1.93 1.16-3.48-2.7.78-3.09 1.92-1.55 3.09-1.93 1.94-2.32 1.16-3.86.38-.39-3.08-.39-3.87 1.16-3.48 1.16-3.48 2.71-3.08 3.09-3.1 3.09-3.47 3.86-3.1 1.93-3.08 4.25-.39h4.64l1.93-2.71 1.16-3.09-2.71-1.93-3.47-.77-1.93-2.7 1.54-3.87 1.93-1.16 3.48-.38 3.86.77 3.48.39 3.09-.39 2.32-1.16 3.47-1.54 3.1-1.94.38-3.86-.38-3.87v-3.85l2.32-3.48 1.15-3.48V399l-1.54-2.7-2.32-3.09-3.48-3.09-5.41-3.86-3.52-1.99-4.64-3.86-3.86-3.87-4.25-2.7-3.09-3.08-2.32-2.71 5.8 1.93 2.7 1.55 6.18 1.93-.77-4.64-1.16-4.63-1.55-3.87-3.86-3.47-4.25-1.94-3.86-.77-4.64-1.93 3.48-1.55h4.25l4.63-.38-.79-3.48-1.54-4.25-2.32-3.48-2.32-2.31-1.55-2.7-2.27-6.19 3.09 3.09 3.09 3.87 1.93 3.09L298 341l2 3.1 1.93-3.48 1.55-5.41.77-5.41Z" class="cls-6"/><path d="m304.99 393.16 1.54 3.86 3.09 4.25 2.32 3.48 2.7 1.93 2.71-.77v-3.48l-1.54-4.25-2.33-3.09-3.47-1.54zM293.01 400.11l.39 3.48 1.93 3.86 2.32 4.25 2.31 2.7 3.48 2.33v2.7h-3.48l-2.7-2.7-1.93-4.26-2.32-3.85-3.09-3.1-1.93.39.77 3.86 2.32 3.09 1.93 2.7 1.93 3.1 2.32 1.93 3.86 1.93 5.02.77h8.5l2.71-1.55.39-3.08-2.71-1.16-4.64-.39h-2.7l-2.32-1.55-1.16-3.09-2.7-3.08-3.09-3.09-2.71-2.32zM294.94 436.43l-1.16 3.47 3.48.39 2.7-1.54 1.93-1.94zM292.24 524.9l-3.48 1.15-5.02-.38-3.09-1.16-2.71-2.71-1.93-4.24-2.7-3.48-3.09-1.55h-8.89l-3.86.39-3.48 2.31-3.09 1.94-4.64 2.7-2.7 3.48-1.93 2.32-1.54 1.93-1.16 3.09-2.32 2.7-.77 2.71-.39 2.31-3.09 3.1 2.32 3.47.77 2.71v3.86l-2.32 3.48-1.93 2.7-2.7 2.7-3.1.77v-5.01l1.94-4.26 1.16-4.63.77-5.02v-3.87l.38-4.24.39-4.26 1.55-4.63 2.31-3.09 3.87-4.25 4.64-3.09 3.47-2.71 4.63-2.31 3.48-3.09 4.25-2.71 4.25-1.93h3.48l4.25 1.16 3.48 2.32 2.7 3.09 4.25 3.47 2.7 3.49 2.71 2.7 3.09 2.7z" class="cls-6"/><path d="m138.13 594.47 5.41 6.21a6.26 6.26 0 0 0-1.76 2.73 4.61 4.61 0 0 0 1 4.07 4.27 4.27 0 0 0 2.42 1.73 2.61 2.61 0 0 0 2.21-.42 2.56 2.56 0 0 0 1-1.95c.07-.86-.4-2.35-1.4-4.51-1.63-3.52-2.37-6.37-2.23-8.5a6.86 6.86 0 0 1 2.81-5.23 7.3 7.3 0 0 1 4-1.47 8.26 8.26 0 0 1 4.68 1.14 17.6 17.6 0 0 1 5.06 4.81q3.26 4.24 3.38 7.7c.09 2.31-.92 4.48-3 6.52l-5.33-6.19a3.81 3.81 0 0 0 .29-5.55 3.47 3.47 0 0 0-1.89-1.42 2 2 0 0 0-1.7.33 1.55 1.55 0 0 0-.57 1.25 7 7 0 0 0 .94 2.93 36 36 0 0 1 3 8 8.53 8.53 0 0 1-.29 4.72 7.8 7.8 0 0 1-2.61 3.4 8.83 8.83 0 0 1-4.85 1.84 9.33 9.33 0 0 1-5.27-1.21 16.9 16.9 0 0 1-5-4.65q-4.34-5.66-3.82-9.52a10.8 10.8 0 0 1 3.52-6.76M169.56 604.57l19 18.15-4.77 5-6.38-6.09-14.56 15.24-6.25-6 14.55-15.24-6.38-6.1ZM191.23 624.7l19.06 13.19-3.4 4.92-11.89-8.26-2.53 3.66 11.06 7.66-3.25 4.69-11.06-7.66-3.22 4.54 12.28 8.5-3.61 5.2-19.37-13.42ZM211.48 638.88l8.17 3.86-2.93 20.91L231 648.1l7.94 3.76-21.37 20.85-8.48-4ZM240.89 652.27l22.29 6.38-1.65 5.75-13.95-4-1.22 4.27 12.94 3.7-1.57 5.49-12.94-3.71-1.52 5.31 14.36 4.11-1.75 6.09-22.69-6.49ZM267.36 659.58l8 .91 8.79 16.51 1.72-15.39 8.1.91-3.09 27.81-8.11-.9-8.72-16.43-1.7 15.28-8.08-.9ZM317.07 684.9l-9.81.58-1.09 4.7-8.81.52 8.85-28.57 9.42-.56 12.15 27.33-9 .53Zm-2.15-5.9-3.68-9.86-2.46 10.23ZM345 674.79l-1.33-5.67 13-3 2.72 11.62a27.3 27.3 0 0 1-5.79 5 23.3 23.3 0 0 1-6.6 2.52 17 17 0 0 1-8.3.19 11.5 11.5 0 0 1-5.89-3.8 16.7 16.7 0 0 1-3.45-7.12 16.2 16.2 0 0 1 0-8.19 12.1 12.1 0 0 1 4.2-6.27 18 18 0 0 1 7.16-3.07 21.2 21.2 0 0 1 6.94-.77 9 9 0 0 1 4.32 1.67 11.4 11.4 0 0 1 3.24 3.84l-7.69 3.26a4.6 4.6 0 0 0-2.26-2 5.45 5.45 0 0 0-3.27 0 5.66 5.66 0 0 0-4 3c-.81 1.53-.87 3.69-.21 6.47q1 4.43 3.13 5.92a6 6 0 0 0 5.09.82 8.7 8.7 0 0 0 2.59-1 15 15 0 0 0 2.62-2.07l-.6-2.57ZM358 652.81l21.37-9 2.33 5.51-13.38 5.64 1.74 4.1 12.4-5.23 2.21 5.25-12.39 5.24 2.15 5.09 13.76-5.81 2.46 5.83-21.74 9.19ZM394.76 634.88l17.33-12.54 3.52 4.88-10.28 7.44 2.86 4 8.79-6.35 3.31 4.57-8.79 6.36 6.69 9.26-7 5.09ZM423.65 638.56l6.34-5.38 5 5.94-6.34 5.38ZM445.57 612.31l6.83-4a13.8 13.8 0 0 1 2.27 5.37 10.4 10.4 0 0 1-.4 5.19 15 15 0 0 1-3.4 5.28 17.9 17.9 0 0 1-6 4.58 11.8 11.8 0 0 1-6.81.5 15.94 15.94 0 0 1-7.7-4.26q-5.1-4.72-5.33-10t4.36-10.22q3.58-3.87 7.21-4.65a12.65 12.65 0 0 1 7.88 1.16l-3.94 6.76a6.9 6.9 0 0 0-1.95-.65 5 5 0 0 0-2.32.27 5 5 0 0 0-2 1.36 5.08 5.08 0 0 0-1.33 4.91c.32 1.38 1.41 2.91 3.24 4.61 2.28 2.1 4.17 3.21 5.64 3.3a4.88 4.88 0 0 0 4-1.75 4.77 4.77 0 0 0 1.52-3.69 8.67 8.67 0 0 0-1.77-4.07M457.18 603.63l4.81-6.75 6.34 4.52-4.82 6.76Z" class="cls-4"/></g></g></svg>