<svg xmlns="http://www.w3.org/2000/svg" width="796.157" height="933.333" viewBox="0 0 796.157 933.333"><defs><clipPath id="a" clipPathUnits="userSpaceOnUse"><path d="M0 1080h1080V0H0Z"/></clipPath></defs><g clip-path="url(#a)" transform="matrix(1.33333 0 0 -1.33333 -321.922 1186.667)"><path d="m0 0-57.83 48.335s-12.947 6.042-20.715.864c0 0 6.905 47.472 6.905 75.955 0 28.484-1.726 362.516-1.726 362.516h-445.547s-1.726-334.032-1.726-362.516c0-28.483 6.905-75.955 6.905-75.955-7.768 5.178-20.715-.864-20.715-.864L-592.279 0c-12.084-31.936 25.031-49.199 25.031-49.199l16.4 12.084c23.304 1.727 21.578-25.03 21.578-25.03l-12.084-10.358s77.206-138.957 244.437-139.817v-.01q.389.002.778.005.388-.003.778-.005v.01c167.23.86 244.436 139.817 244.436 139.817l-12.084 10.358s-1.726 26.757 21.579 25.03l16.399-12.084S12.084-31.936 0 0" style="fill:#fff;fill-opacity:1;fill-rule:nonzero;stroke:none" transform="translate(836.14 402.33)"/><path d="m0 0 8.044-8.609c8.69 9.958 18.221 18.781 27.974 27.839l6.7-7.723 4.741 4.345c-8.145 6.941-15.039 14.921-23.202 23.43.101-3.366-2.147-3.84-3.095-5.524 2.232-2.685 5.509-4.234 7.224-7.2C19.587 16.762 10.106 7.971 0 0m247.451-92.682c-2.946 13.067-5.379 25.816-7.062 38.996l10.303 1.308-1.087 6.21c-10.401-2.293-20.642-3.889-31.565-5.487 1.636-2.206.418-4.467 2.061-6.093 3.274.46 6.262 2.204 9.77 1.752 3.032-12.706 4.784-25.585 6.481-38.504zm8.838 48.653 2.136-5.991c3.289.988 6.108 3.125 9.634 3.637 5.419-12.076 8.765-24.704 12.59-37.22l10.869 3.783a445 445 0 0 0-13.335 36.913c3.166 2.007 6.82 1.868 9.925 3.395l-2.137 5.892a334 334 0 0 0-29.682-10.409m112.367 76.316c-3.625-.984-6.217-2.564-8.575-5.053-5.934-6.264-5.94-13.775-2.786-19.136 3.55-6.035 10.715-6.72 16.394-4.889 3.272 1.055 6.463 2.401 9.783 3.257 3.879 1.001 7.601-2.077 7.646-6.005.057-4.85-5.439-9.05-10.157-7.848-1.474.375-2.707 1.719-4.852 1.05l7.059-8.672c5.22 2.458 8.955 5.947 11.52 10.553 2.636 4.733 3.316 9.668.262 14.576-3.009 4.836-6.961 7.703-13.074 7.198-4.43-.365-8.226-2.399-12.291-3.716-2.731-.885-5.347-1.537-7.551.923-1.835 2.049-2.019 4.397-.621 6.768 1.66 2.813 4.072 4.429 7.45 4.095 1.477-.145 2.928-.551 4.936-.946zm-35.762-83.873c-3.751-2.115-6.908-4.811-11.005-6.425l-7.563 13.651 11.413 5.861-3.212 5.196-10.692-6.357c-2.154 3.809-4.496 7.367-5.882 11.694l11.139 5.858-2.815 4.981-20.746-11.307c7.525-13.549 15.441-26.219 21.743-39.981 6.648 4.577 13.986 7.458 20.693 11.6zM91.469-21.279C84.92-35.378 77.845-48.352 70.108-60.968L90.89-72.321l2.766 5.449c-3.79 2.136-7.908 3.096-11.294 5.927l7.242 13.698 10.922-6.457 2.871 5.287-11.399 5.809c1.702 3.105 3.317 5.915 4.794 8.795.954 1.861 1.625 2.225 3.829 1.069 3.034-1.593 5.592-4.571 9.479-4.469.596 1.845 2.082 3.008 2.129 4.833zm48.56-49.073c5.16-2.962 9.959-2.808 14.61-.328 5.615 2.993 7.201 8.348 7.342 14.129.132 5.39-3.435 8.423-8.137 9.825-5.818 1.735-11.794 2.944-17.833 4.413-3.166-14.835-6.855-29.265-11.274-43.674l10.868-2.897c1.118 6.127 2.274 12.121 4.424 18.532m226.344 37.108 9.453 7.484c-8.144 3.278-15.939 5.924-23.241 9.743 3.812 7.033 2.947 12.413-2.555 17.084-4.45 3.778-9.145 3.532-15.19-1.142-4.413-3.412-8.608-7.105-13.03-10.781 10.651-10.766 18.609-23.636 28.109-35.57 2.523 2.68 5.256 4.498 8.076 6.44l-11.788 14.605c7.355-1.223 13.632-4.594 20.166-7.863M168.882-74.849c.091-7.96 1.817-15.396 9.202-19.686 8.411-4.885 17.448-4.737 25.887-.225 8.802 4.705 10.756 13.343 10.537 22.486-.273 11.349-5.265 18.689-14.413 20.964-14.915 3.709-31.326-2.012-31.213-23.539M53.576 8.409c-9.345-11.959-18.321-23.95-28.735-34.87l8.339-6.969 13.548 16.675c4.559-3.408 8.646-6.485 12.306-10.317L45.328-43.425l8.484-6.87c8.734 12.502 18.629 23.616 28.751 35.155-3.526 1.732-5.825 4.491-8.711 6.693-3.634-4.656-6.822-9.409-11.011-13.548-4.512 2.879-8.332 6.248-12.211 10.001L62.005 1.543c-3.105 2.031-5.768 4.169-8.429 6.866M4.332 547.141v-5.894c0-108.313.059-216.627-.054-324.941-.02-19.286.485-38.502 3.51-57.577 3.719-23.454 9.976-46.092 21.185-67.225 12.472-23.513 27.894-44.772 47.215-63.121 23.014-21.855 49.383-37.975 80.527-45.15 52-11.978 100.447-3.648 144.252 27.382 33.747 23.906 58.174 55.726 75.039 93.198 14.562 32.357 18.903 66.95 18.954 102.067.165 111.909.031 223.819.013 335.728v5.521c-130.328.395-260.282.381-390.641.012M376.319 63.032c19.39-17.943 39.898-34.241 60.191-52.171-51.284-72.525-117.791-121.017-208.017-129.63C114.079-129.692 27.596-80.977-38.088 10.756l60.353 52.359c-19.897 30.864-30.97 64.38-35.411 100.288-2.265 18.304-2.634 36.629-2.609 55.044.16 114.356.081 228.713.081 343.07v5.348h429.49c.844-1.571.382-3.318.383-4.982.026-114.5-.085-229.001.124-343.501.038-20.73-.474-41.35-3.575-61.866-4.103-27.155-11.797-53.143-25.067-77.314-2.924-5.325-6.083-10.521-9.362-16.17" style="fill:#0d3980;fill-opacity:1;fill-rule:nonzero;stroke:none" transform="translate(340.377 316.709)"/><path d="M0 0c-11.549 1.498-15.374-2.711-21.07-22.178l-39.868 34.404c10.672 17.306 18.561 35.503 24.147 54.708 2.809 9.658 2.836 9.65 13.049 9.897 10.83.262 19.539-5.76 23.213-16.05 4.56-12.773.671-20.855-12.481-25.858-3.897-1.483-7.955-2.417-12.068-3.01-3.944-.569-7.923-.894-13.018-1.45z" style="fill:#ce3639;fill-opacity:1;fill-rule:nonzero;stroke:none" transform="translate(789.379 369.396)"/><path d="m0 0 37.324 29.802c-8.266.85-15.826 1.357-22.97 3.816C7.519 35.971.589 38.563-1.331 46.763c-3.657 15.611 11.489 32.46 27.417 29.773 7.494-1.264 8.577-4.744 10.087-10.199 5.342-19.303 13.443-37.442 24.045-54.698l-39.88-34.454C17.129-12.144 16.148.23 0 0" style="fill:#ce3639;fill-opacity:1;fill-rule:nonzero;stroke:none" transform="translate(291.294 369.564)"/><path d="M0 0c-4.628-18.411.109-31.424 30.172-35.019l-45.829-35.964c-7.046 4.578-13.498 9.657-17.934 16.943-5.785 9.502-4.887 19.435 3.489 27.372C-20.633-17.695-10.589-9.33 0 0" style="fill:#0d3980;fill-opacity:1;fill-rule:nonzero;stroke:none" transform="translate(283.713 430.917)"/><path d="M0 0c1.683.419 2.458-.523 3.311-1.273C11.83-8.77 20.439-16.167 28.835-23.799c8.833-8.03 10.889-17.911 5.599-27.092-4.482-7.778-10.819-13.8-18.89-18.339L-30.19-33.39c3.597.616 6.467.978 9.276 1.612 7.843 1.769 15.208 4.437 19.731 11.768C2.74-13.65 2.091-6.966 0 0" style="fill:#0d3980;fill-opacity:1;fill-rule:nonzero;stroke:none" transform="translate(796.253 429.642)"/><path d="M0 0c.737-1.846.737-3.837.691-5.815C.469-15.411.221-25.006-.721-34.57c-.129-1.312-1.011-3.06.59-3.926 4.927-2.666 9.837-5.424 15.385-7.081-.504 7.337-1.235 14.18-1.384 21.036-.237 10.896-.103 21.801-.082 32.702.004 1.997-.156 4.554-2.741 3.351C4.979 8.689-1.5 6.997-7.898 4.602-6.34 2.469-5.569.397-3.851-.857-2.46-.809-1.507.507 0 0m47.929 322.333c-3.074 17.805-3.138 35.399.125 53.067H30.436c2.58-17.785 2.444-35.373.105-53.067zm19.738-.012h18.401c-4.396 14.845-1.435 29.809-2.489 44.66 4.947.469 8.884-1.387 13.12-2.819 2.045 3.683 3.864 7.271 5.275 11.457-14.908 0-29.272-.006-43.635.01-1.204.001-2.372-.02-2.794-1.4-1.112-3.635-2.168-7.287-3.49-11.754 6.19 2.496 11.631 4.509 18.038 4.571-1.177-15.01 1.887-29.972-2.426-44.725M108.34-15.965c1.544 0 2.945-.033 4.343.009 1.431.043 2.866.287 4.289.219 4.34-.207 6.783-2.285 7.279-6.421.501-4.184.104-8.33-1.653-12.224-2.638-5.846-8.011-7.053-12.949-2.945-.852.708-1.433 1.931-3.331.974-.409-4.171-1.977-8.35-4.387-12.635 3.627.374 6.795.514 9.893 1.056 8.774 1.534 17.072 4.171 22.838 11.604 7.966 10.267 5.258 23.551-5.973 28.178 4.47 2.854 6.225 6.734 4.635 11.768-1.75 5.545-5.91 8.262-11.345 9.32-4.204.819-8.305.117-12.288-1.26-6.243-2.158-7.526-6.204-3.7-12.585 1.287 1.832 2.315 3.681 3.709 5.192 2.339 2.534 5.367 3.487 8.578 2.002s3.086-4.527 2.627-7.467c-.671-4.291-3.502-6.353-7.538-7.149-1.641-.324-3.451.039-5.027-1.172zm33.043 338.29c-3.696 8.006-2.233 15.995-2.608 23.832-.11 2.299.611 4.144 1.929 5.952 5.611 7.694 9.997 16.273 17.587 23.328h-17.398c-.622-6.8-5.475-11.321-8.463-17.52-3.522 6.218-8.835 10.699-9.903 17.52h-19.028c5.885-6.013 9.447-13.031 14.606-18.647 7.592-8.266 7.757-17.635 6.152-27.628-.359-2.233-1.129-4.4-1.773-6.837zm-119.236 51.58c-14.873 3.747-28.864 3.094-41.022-7.366-11.328-9.746-11.781-27.084-1.189-37.051 8.938-8.411 30.224-11.139 40.337-5.202.815.479 1.274 1.011 1.405 1.968.512 3.737 1.09 7.466 1.711 11.66-11.463-8.607-23.016-9.412-30.621-2.503-6.062 5.509-7.998 16.06-2.964 22.895 9.719 13.197 21.127 8.851 32.343 1.536zM96.417 9.314c-18.043 6.385-27.154.701-31.217-14.259-2.889-10.639-3.485-21.55-2.035-32.453 1.862-13.997 10.996-19.469 24.379-15 11.045 3.689 16.138 14.876 12.696 27.887-2.215 8.373-8.414 12.496-16.783 10.927-2.152-.404-4.179-1.478-6.53-2.342.351 5.823.488 11.451 3.273 16.51 2.768 5.026 7.763 5.514 11.712 1.363.831-.873 1.036-2.491 2.952-2.446 1.213 3.044.631 6.421 1.553 9.813M49.143-16.489c6.775 4.73 8.993 10.991 6.8 18.592-1.735 6.016-7.025 9.456-14.728 9.577-9.815.155-15.831-3.18-18.117-10.042-2.347-7.041-.079-13.136 6.86-18.257-7.683-3.265-9.729-9.752-9.678-17.239.047-7.071 3.144-12.456 9.729-15.456 5.159-2.35 10.575-3.603 16.296-3.185 5.962.436 9.852 3.549 11.572 9.264 2.833 9.416-.734 20.49-8.734 26.746M-7.49 392.747c-2.165 5.422-3.647 10.407-3.698 15.596-.165 16.825-.136 33.652-.156 50.477-.001.527.277 1.053.432 1.605 7.156.255 13.677-1.776 20.251-4.523l7.485 15.624h-70.209l-5.624-17.578c9.369 3.558 18.075 6.548 28.102 6.407-1.736-22.842 2.671-45.472-3.867-67.608zm-56.921 57.825 1.035.428c0 2.107.121 4.222-.02 6.319-1.022 15.192 3.153 12.828-13.438 14.695-11.613 1.307-23.034-.211-32.119-8.971-7.941-7.659-6.925-21.688 1.874-28.329 7.095-5.355 15.074-9.137 22.755-13.468 3.31-1.866 6.099-4.589 5.379-9.001-.644-3.951-4.527-7.208-9.275-7.809-2.979-.377-5.886-.141-8.806 1.022-5.98 2.381-10.46 6.675-15.046 11.431v-22.135c13.068-3.396 25.929-4.489 38.584.744 9.223 3.813 14.889 10.721 15.45 20.915.525 9.534-5.601 14.827-13.139 19.017-6.646 3.695-13.55 6.956-19.743 11.424-2.68 1.934-4.795 4.311-3.863 7.97.914 3.587 3.57 5.517 6.997 6.271 5.015 1.103 9.678-.168 14.062-2.64 3.586-2.022 6.668-4.682 9.313-7.883m302.846-12.594h-27.151v21.414c7.303.202 14.105-1.313 20.874-3.323l8.937 15.553h-54.017c5.704-12.902 3.745-26.261 3.643-39.36-.104-13.146 2.465-26.675-3.812-39.285.154-.073.402-.29.65-.291 16.671-.06 33.341-.101 50.012-.15 1.176-.003 2.361-.001 2.967 1.253 2.214 4.581 4.403 9.174 7.092 14.787-12.52-3.783-24.236-4.745-36.255-3.94v21.996c4.933.271 9.519.28 13.7-2.034 2.245-1.243 3.595-.666 4.938 1.366 2.522 3.816 5.24 7.501 8.422 12.014m-226.348-6.502c.007-24.196 16.175-39.807 41.191-39.774 24.568.033 41.061 16.057 41.239 40.067.164 22.185-18.452 40.48-41.232 40.522-23.098.042-41.204-17.896-41.198-40.815m140.022 39.997c-6.997-13.776-19.035-22.974-28.584-35.634-.164 12.789-.99 24.374 3.765 35.554h-26.45c4.151-26.293 4.202-52.276-.011-78.46h26.454c-5.513 13.327-3.476 26.83-3.898 41.325 8.616-10.366 16.428-19.864 24.363-29.257 2.947-3.489 5.251-7.137 4.895-11.991h30.292c-14.406 13.442-25.444 29.063-38.388 43.341 12.139 12.049 21.611 26.199 36.391 35.122zM99.834 306.487H27.981V24.678h71.853zm68.359-319.872c1.948 1.711 3.344 2.851 4.643 4.093 16.515 15.779 30.322 33.679 41.298 53.687 6.35 11.574 11.436 23.633 15.213 36.43 4.798 16.252 7.325 32.735 9.076 49.47 1.441 13.773.826 27.555.819 41.342-.031 66.46-.014 132.92-.014 199.38v5.033h-71.035zm-208.689.089v389.549H-111.5v-5.168c0-68.174.054-136.349-.047-204.523-.02-13.024-.308-26.027.914-39.031 1.124-11.961 3.08-23.73 5.716-35.459 6.735-29.98 21.033-56.079 40.047-79.83 7.225-9.024 14.917-17.64 24.374-25.538m-90.583 508.953c130.359.369 260.313.383 390.641-.012v-5.521c.018-111.909.152-223.819-.012-335.728-.052-35.117-4.393-69.709-18.955-102.066-16.864-37.472-41.292-69.293-75.039-93.199-43.805-31.03-92.252-39.36-144.252-27.381C-9.84-61.076-36.209-44.956-59.223-23.1c-19.321 18.348-34.743 39.607-47.215 63.12-11.209 21.133-17.466 43.771-21.185 67.225-3.025 19.075-3.53 38.291-3.51 57.577.113 108.314.054 216.628.054 324.941z" style="fill:#fff;fill-opacity:1;fill-rule:nonzero;stroke:none" transform="translate(475.788 368.193)"/><path d="M0 0c2.66-2.697 5.324-4.835 8.429-6.866L-2.946-20.403c3.878-3.753 7.699-7.122 12.211-10.001 4.189 4.139 7.377 8.892 11.011 13.548 2.886-2.202 5.184-4.961 8.711-6.693C18.865-35.088 8.97-46.202.235-58.704l-8.483 6.87L5.457-35.481c-3.659 3.832-7.746 6.909-12.305 10.317l-13.548-16.675-8.339 6.969C-18.322-23.95-9.346-11.959 0 0" style="fill:#fff;fill-opacity:1;fill-rule:nonzero;stroke:none" transform="translate(393.954 325.118)"/><path d="M0 0c-.037 4.853-.598 9.25-2.645 13.29-1.861 3.674-4.641 6.02-9.096 6.06-4.451.04-7.519-2.15-9.185-5.895-3.848-8.651-3.888-17.525-.027-26.183 1.67-3.743 4.837-5.98 9.189-5.961 4.19.019 6.977 2.349 8.891 5.781C-.582-8.802-.076-4.249 0 0m-34.675-.377C-34.789 21.15-18.379 26.87-3.463 23.161c9.148-2.274 14.139-9.614 14.412-20.964.22-9.142-1.735-17.78-10.536-22.486-8.439-4.512-17.477-4.66-25.887.226-7.385 4.289-9.111 11.726-9.201 19.686" style="fill:#fff;fill-opacity:1;fill-rule:nonzero;stroke:none" transform="translate(543.936 242.238)"/><path d="M0 0c5.429 4.692 5.798 8.142 1.836 12.85-3.55 4.218-6.369 4.256-11.601-.118zm23.978-12.833C17.443-9.564 11.166-6.192 3.811-4.97L15.6-19.574c-2.82-1.943-5.554-3.761-8.077-6.441-9.5 11.934-17.457 24.804-28.109 35.57 4.422 3.676 8.618 7.369 13.03 10.781 6.045 4.674 10.74 4.92 15.191 1.142 5.501-4.67 6.366-10.051 2.554-17.084C17.491.576 25.286-2.07 33.43-5.349z" style="fill:#fff;fill-opacity:1;fill-rule:nonzero;stroke:none" transform="translate(682.773 296.298)"/><path d="M0 0c3.202-1.603 5.895-1.08 7.769 1.092 2.613 3.025 3.773 6.806 2.593 10.776-.825 2.778-3.233 3.723-6.337 3.749zm-1.075-4.95c-2.15-6.411-3.306-12.405-4.425-18.532l-10.868 2.897c4.42 14.409 8.109 28.839 11.275 43.674C.946 21.62 6.922 20.411 12.74 18.676c4.702-1.402 8.268-4.435 8.137-9.825-.141-5.781-1.727-11.136-7.342-14.129-4.651-2.48-9.45-2.633-14.61.328" style="fill:#fff;fill-opacity:1;fill-rule:nonzero;stroke:none" transform="translate(481.482 251.307)"/><path d="m0 0 20.759-11.102c-.046-1.824-1.533-2.987-2.128-4.833-3.887-.102-6.445 2.877-9.48 4.469-2.203 1.157-2.874.793-3.828-1.068-1.477-2.881-3.092-5.69-4.794-8.795l11.399-5.809-2.872-5.287-10.922 6.456-7.242-13.697c3.387-2.832 7.505-3.792 11.294-5.927l-2.765-5.449-20.782 11.353C-13.624-27.073-6.549-14.099 0 0" style="fill:#fff;fill-opacity:1;fill-rule:nonzero;stroke:none" transform="translate(431.847 295.43)"/><path d="m0 0 3.073-5.229c-6.707-4.142-14.045-7.023-20.693-11.6-6.302 13.762-14.218 26.432-21.743 39.982l20.746 11.306 2.814-4.981-11.138-5.858c1.386-4.327 3.728-7.885 5.882-11.694l10.692 6.357 3.212-5.196-11.413-5.861 7.563-13.651C-6.909-4.811-3.751-2.115 0 0" style="fill:#fff;fill-opacity:1;fill-rule:nonzero;stroke:none" transform="translate(673.271 265.123)"/><path d="m0 0 5.143-7.845c-2.007.395-3.458.801-4.936.946-3.377.333-5.789-1.282-7.449-4.095-1.399-2.371-1.215-4.719.621-6.768 2.203-2.46 4.819-1.808 7.551-.923 4.065 1.317 7.861 3.351 12.29 3.716 6.114.505 10.065-2.363 13.074-7.198 3.054-4.909 2.374-9.843-.261-14.576-2.565-4.606-6.3-8.095-11.521-10.553l-7.059 8.672c2.146.669 3.379-.675 4.852-1.05 4.718-1.202 10.214 2.998 10.158 7.848-.046 3.928-3.767 7.005-7.646 6.005-3.321-.856-6.512-2.202-9.784-3.257-5.679-1.831-12.843-1.147-16.394 4.889-3.153 5.361-3.147 12.872 2.786 19.136C-6.217-2.564-3.625-.984 0 0" style="fill:#fff;fill-opacity:1;fill-rule:nonzero;stroke:none" transform="translate(709.033 348.996)"/><path d="M0 0a334 334 0 0 1 29.682 10.408l2.138-5.891c-3.106-1.527-6.76-1.389-9.926-3.395a445 445 0 0 1 13.335-36.913L24.36-39.575c-3.824 12.516-7.171 25.144-12.59 37.221-3.526-.512-6.345-2.65-9.634-3.637z" style="fill:#fff;fill-opacity:1;fill-rule:nonzero;stroke:none" transform="translate(596.666 272.68)"/><path d="m0 0-11.099-1.818c-1.698 12.919-3.449 25.798-6.482 38.504-3.507.452-6.495-1.292-9.769-1.751-1.643 1.625-.425 3.886-2.061 6.092 10.923 1.599 21.164 3.195 31.565 5.487l1.087-6.21-10.303-1.307C-5.38 25.816-2.946 13.068 0 0" style="fill:#fff;fill-opacity:1;fill-rule:nonzero;stroke:none" transform="translate(587.829 224.027)"/><path d="M0 0c10.106 7.971 19.587 16.762 28.386 26.558-1.715 2.966-4.992 4.515-7.224 7.2.948 1.684 3.196 2.158 3.095 5.524 8.163-8.509 15.057-16.489 23.202-23.43l-4.741-4.345-6.7 7.723C26.265 10.172 16.734 1.349 8.044-8.609z" style="fill:#fff;fill-opacity:1;fill-rule:nonzero;stroke:none" transform="translate(340.377 316.709)"/><path d="M0 0c-9.456 7.897-17.148 16.513-24.373 25.538-19.015 23.751-33.313 49.85-40.048 79.829-2.635 11.73-4.591 23.499-5.716 35.46-1.222 13.004-.933 26.006-.914 39.031.101 68.174.047 136.348.047 204.523v5.167H0Z" style="fill:#ce3639;fill-opacity:1;fill-rule:nonzero;stroke:none" transform="translate(435.292 354.897)"/><path d="M0 0v389.436h71.035v-5.034c0-66.46-.017-132.919.014-199.379.007-13.788.622-27.57-.819-41.343-1.751-16.734-4.278-33.218-9.076-49.469-3.777-12.798-8.863-24.857-15.213-36.431C34.965 37.773 21.158 19.873 4.643 4.093 3.344 2.852 1.948 1.712 0 0" style="fill:#ce3639;fill-opacity:1;fill-rule:nonzero;stroke:none" transform="translate(643.981 354.807)"/><path d="M575.622 392.871h-71.853V674.68h71.853z" style="fill:#ce3639;fill-opacity:1;fill-rule:nonzero;stroke:none"/><path d="M0 0h28.829C14.049-8.923 4.576-23.073-7.562-35.122 5.381-49.4 16.419-65.021 30.826-78.463H.534c.356 4.854-1.949 8.502-4.895 11.991-7.935 9.393-15.747 18.891-24.363 29.257.422-14.495-1.615-27.998 3.898-41.326h-26.455c4.214 26.184 4.162 52.168.012 78.46h26.45c-4.755-11.179-3.929-22.764-3.765-35.553C-19.035-22.974-6.998-13.777 0 0" style="fill:#ce3639;fill-opacity:1;fill-rule:nonzero;stroke:none" transform="translate(627.897 839.666)"/><path d="M0 0c-.057 9.655-1.054 16.431-4.229 22.708-2.97 5.873-7.338 9.904-14.382 9.894-7.066-.011-11.565-4.052-14.25-10.025-5.886-13.099-5.911-26.443-.239-39.605 2.717-6.305 7.302-10.571 14.819-10.474 7.554.097 11.698 4.784 14.565 10.925C-.883-10.509.063-3.985 0 0m-59.611 1.611c-.007 22.92 18.1 40.858 41.198 40.815 22.78-.041 41.395-18.336 41.231-40.521-.177-24.011-16.67-40.035-41.239-40.067-25.016-.034-41.183 15.578-41.19 39.773" style="fill:#ce3639;fill-opacity:1;fill-rule:nonzero;stroke:none" transform="translate(547.487 798.057)"/><path d="M0 0c-3.182-4.513-5.9-8.199-8.422-12.014-1.343-2.032-2.693-2.609-4.938-1.366-4.182 2.313-8.767 2.305-13.7 2.033v-21.995c12.019-.805 23.735.156 36.255 3.94-2.689-5.614-4.878-10.207-7.092-14.787-.606-1.255-1.791-1.256-2.967-1.253-16.671.048-33.341.089-50.012.149-.248.001-.496.219-.65.291 6.277 12.61 3.708 26.14 3.811 39.286.103 13.098 2.062 26.457-3.642 39.359H2.66l-8.937-15.552c-6.769 2.01-13.571 3.524-20.874 3.322V0Z" style="fill:#ce3639;fill-opacity:1;fill-rule:nonzero;stroke:none" transform="translate(714.223 806.171)"/><path d="M0 0c-2.645 3.2-5.727 5.86-9.313 7.882-4.384 2.472-9.047 3.744-14.062 2.641-3.427-.754-6.083-2.684-6.997-6.271-.932-3.659 1.183-6.036 3.863-7.97 6.193-4.469 13.097-7.729 19.743-11.424C.772-19.333 6.898-24.626 6.374-34.16 5.813-44.353.146-51.261-9.076-55.074c-12.656-5.233-25.517-4.14-38.585-.744v22.134c4.587-4.756 9.067-9.05 15.046-11.431 2.92-1.163 5.827-1.398 8.806-1.022 4.748.601 8.631 3.858 9.275 7.81.72 4.412-2.069 7.135-5.378 9.001-7.682 4.331-15.661 8.113-22.756 13.467-8.799 6.642-9.815 20.67-1.873 28.329 9.084 8.761 20.506 10.278 32.118 8.971C4.168 19.574-.007 21.938 1.015 6.747c.142-2.098.02-4.213.02-6.32z" style="fill:#ce3639;fill-opacity:1;fill-rule:nonzero;stroke:none" transform="translate(411.377 818.765)"/><path d="M0 0h-27.285c6.539 22.136 2.131 44.766 3.867 67.608-10.026.141-18.732-2.849-28.101-6.407l5.624 17.578h70.209l-7.486-15.623c-6.573 2.747-13.094 4.777-20.25 4.523-.155-.552-.433-1.079-.433-1.605.021-16.826-.009-33.653.157-50.477C-3.647 10.408-2.165 5.422 0 0" style="fill:#ce3639;fill-opacity:1;fill-rule:nonzero;stroke:none" transform="translate(468.299 760.94)"/><path d="M0 0c-.356 2.103-.585 4.239-1.106 6.301-.493 1.949-1.795 3.181-3.955 3.322-2.097.137-3.739-.662-4.497-2.579-1.855-4.689-1.831-9.468-.063-14.183.667-1.781 2.187-2.571 4.065-2.605 2.127-.039 3.525 1.087 4.243 2.983C-.498-4.608-.176-2.341 0 0m-11.238-29.315c-.204-2.658.208-5.768 1.225-8.775.697-2.063 2.073-3.407 4.405-3.438 2.187-.029 3.524 1.322 4.185 3.129 2.341 6.398 2.21 12.885.087 19.304-.616 1.861-2.079 3.098-4.212 3.08-2.118-.018-3.422-1.247-4.203-3.109-1.299-3.097-1.568-6.358-1.487-10.191M4.088-12.476c8-6.255 11.567-17.33 8.734-26.746-1.72-5.715-5.61-8.828-11.572-9.264-5.721-.418-11.137.835-16.296 3.185-6.585 3-9.682 8.385-9.729 15.456-.051 7.487 1.995 13.975 9.678 17.239-6.939 5.121-9.207 11.216-6.86 18.257 2.286 6.863 8.302 10.197 18.117 10.042 7.703-.121 12.993-3.561 14.728-9.576 2.193-7.601-.025-13.862-6.8-18.593" style="fill:#22479d;fill-opacity:1;fill-rule:nonzero;stroke:none" transform="translate(520.843 364.18)"/><path d="M0 0c.236 2.903.079 6.057-.996 9.074-.657 1.844-1.799 3.337-4.037 3.246-1.974-.08-3.109-1.307-3.678-3.094-2.116-6.64-1.848-13.277.203-19.862.533-1.712 1.633-3.036 3.715-3.011 2.134.025 2.973 1.562 3.579 3.199C-.002-7.169.211-3.737 0 0m9.305 42.945c-.922-3.392-.34-6.769-1.553-9.813-1.917-.045-2.121 1.573-2.952 2.446-3.949 4.151-8.944 3.663-11.712-1.363-2.786-5.059-2.923-10.687-3.273-16.51 2.35.864 4.377 1.938 6.53 2.342 8.369 1.569 14.568-2.554 16.783-10.927C16.57-3.891 11.477-15.078.432-18.766c-13.384-4.47-22.517 1.002-24.379 14.999-1.45 10.903-.854 21.814 2.035 32.454C-17.85 43.646-8.738 49.33 9.305 42.945" style="fill:#22479d;fill-opacity:1;fill-rule:nonzero;stroke:none" transform="translate(562.9 334.562)"/><path d="M0 0v-14.063c-11.216 7.316-22.623 11.662-32.343-1.536-5.033-6.835-3.098-17.386 2.965-22.895 7.604-6.909 19.157-6.104 30.621 2.504-.622-4.195-1.2-7.924-1.711-11.661-.131-.957-.591-1.489-1.406-1.967-10.113-5.937-31.399-3.21-40.337 5.201-10.592 9.967-10.138 27.305 1.19 37.051C-28.864 3.094-14.873 3.747 0 0" style="fill:#ce3639;fill-opacity:1;fill-rule:nonzero;stroke:none" transform="translate(497.935 742.098)"/><path d="M0 0h-18.898c.644 2.437 1.413 4.604 1.772 6.837 1.605 9.993 1.44 19.363-6.152 27.628-5.158 5.616-8.721 12.635-14.606 18.647h19.028c1.068-6.82 6.381-11.302 9.903-17.52 2.988 6.2 7.841 10.721 8.464 17.52h17.397C9.318 46.057 4.932 37.478-.679 29.784c-1.318-1.808-2.039-3.652-1.929-5.952C-2.233 15.995-3.696 8.006 0 0" style="fill:#ce3639;fill-opacity:1;fill-rule:nonzero;stroke:none" transform="translate(617.171 690.518)"/><path d="M0 0v6.465c1.577 1.21 3.386.847 5.028 1.171 4.036.796 6.866 2.858 7.537 7.15.459 2.939.584 5.981-2.626 7.466s-6.24.532-8.578-2.002c-1.395-1.511-2.423-3.36-3.71-5.191-3.826 6.381-2.542 10.427 3.701 12.585 3.982 1.376 8.083 2.078 12.287 1.26 5.435-1.059 9.595-3.776 11.346-9.321 1.589-5.033-.166-8.913-4.635-11.768 11.231-4.627 13.939-17.91 5.972-28.178-5.766-7.432-14.064-10.07-22.838-11.604-3.098-.541-6.266-.682-9.893-1.056 2.41 4.285 3.978 8.465 4.388 12.636 1.898.957 2.478-.266 3.331-.975 4.938-4.107 10.31-2.901 12.949 2.946 1.757 3.893 2.154 8.039 1.652 12.223C15.416-2.057 12.973.022 8.632.228 7.209.296 5.774.052 4.343.009 2.945-.033 1.544 0 0 0" style="fill:#22479d;fill-opacity:1;fill-rule:nonzero;stroke:none" transform="translate(584.128 352.228)"/><path d="M0 0c4.313 14.754 1.248 29.716 2.425 44.725-6.407-.061-11.847-2.075-18.038-4.571 1.322 4.467 2.378 8.119 3.49 11.754.422 1.381 1.591 1.402 2.794 1.4 14.364-.016 28.728-.01 43.635-.01-1.411-4.185-3.229-7.774-5.274-11.457-4.237 1.433-8.174 3.288-13.12 2.819C16.966 29.81 14.005 14.846 18.401 0Z" style="fill:#ce3639;fill-opacity:1;fill-rule:nonzero;stroke:none" transform="translate(543.456 690.513)"/><path d="M0 0h-17.388c2.339 17.693 2.475 35.282-.105 53.067H.125C-3.139 35.398-3.075 17.805 0 0" style="fill:#ce3639;fill-opacity:1;fill-rule:nonzero;stroke:none" transform="translate(523.717 690.526)"/><path d="M0 0c-1.507.507-2.46-.809-3.851-.857C-5.569.397-6.34 2.469-7.898 4.602c6.398 2.395 12.877 4.087 18.945 6.91 2.585 1.203 2.745-1.354 2.741-3.351-.021-10.901-.155-21.806.082-32.702.149-6.856.88-13.699 1.384-21.036C9.706-43.92 4.796-41.162-.131-38.496c-1.601.866-.719 2.614-.59 3.926C.221-25.006.469-15.411.691-5.815.737-3.837.737-1.846 0 0" style="fill:#22479d;fill-opacity:1;fill-rule:nonzero;stroke:none" transform="translate(475.788 368.193)"/><path d="M0 0c-.076-4.249-.582-8.802-2.873-12.908-1.914-3.432-4.701-5.762-8.891-5.781-4.352-.019-7.519 2.218-9.189 5.961-3.861 8.658-3.821 17.532.027 26.183 1.666 3.745 4.734 5.935 9.185 5.895 4.455-.04 7.235-2.386 9.096-6.06C-.598 9.25-.037 4.853 0 0" style="fill:#0d3980;fill-opacity:1;fill-rule:nonzero;stroke:none" transform="translate(543.936 242.238)"/><path d="m0 0-9.765 12.732c5.232 4.374 8.051 4.336 11.601.118C5.798 8.142 5.429 4.692 0 0" style="fill:#0d3980;fill-opacity:1;fill-rule:nonzero;stroke:none" transform="translate(682.773 296.298)"/><path d="m0 0 4.025 15.617c3.104-.026 5.512-.971 6.337-3.749 1.18-3.97.02-7.751-2.593-10.776C5.895-1.08 3.202-1.603 0 0" style="fill:#0d3980;fill-opacity:1;fill-rule:nonzero;stroke:none" transform="translate(481.482 251.307)"/><path d="M0 0c.063-3.985-.883-10.509-3.716-16.577-2.867-6.141-7.011-10.828-14.565-10.925-7.517-.097-12.102 4.169-14.819 10.474-5.672 13.162-5.647 26.506.239 39.605 2.685 5.973 7.184 10.014 14.25 10.025 7.044.01 11.412-4.021 14.382-9.894C-1.054 16.431-.057 9.655 0 0" style="fill:#fff;fill-opacity:1;fill-rule:nonzero;stroke:none" transform="translate(547.487 798.057)"/><path d="M0 0c-.081 3.833.188 7.094 1.487 10.191.781 1.862 2.085 3.091 4.204 3.109 2.132.018 3.595-1.219 4.211-3.08 2.124-6.419 2.254-12.906-.087-19.304-.661-1.807-1.997-3.158-4.185-3.129-2.331.03-3.708 1.375-4.405 3.438C.209-5.768-.203-2.658 0 0" style="fill:#fff;fill-opacity:1;fill-rule:nonzero;stroke:none" transform="translate(509.605 334.865)"/><path d="M0 0c-.176-2.341-.498-4.608-1.313-6.761-.718-1.896-2.116-3.022-4.243-2.983-1.878.034-3.398.824-4.065 2.605-1.768 4.715-1.792 9.494.063 14.183.758 1.917 2.4 2.716 4.497 2.579 2.16-.141 3.462-1.373 3.955-3.322C-.585 4.239-.356 2.103 0 0" style="fill:#fff;fill-opacity:1;fill-rule:nonzero;stroke:none" transform="translate(520.843 364.18)"/><path d="M0 0c.211-3.737-.002-7.169-1.214-10.448-.606-1.637-1.445-3.174-3.579-3.199-2.082-.025-3.182 1.299-3.715 3.011-2.051 6.585-2.319 13.222-.203 19.862.569 1.787 1.704 3.014 3.678 3.094 2.238.091 3.38-1.402 4.037-3.246C.079 6.057.236 2.903 0 0" style="fill:#fff;fill-opacity:1;fill-rule:nonzero;stroke:none" transform="translate(562.9 334.562)"/></g></svg>