<svg xmlns="http://www.w3.org/2000/svg" viewBox="0 0 563.26 700"><defs><style>.cls-1{fill:#ce9931}.cls-1,.cls-10,.cls-11,.cls-14,.cls-15,.cls-2,.cls-3,.cls-4,.cls-5,.cls-6,.cls-8,.cls-9{fill-rule:evenodd}.cls-2{fill:#000034}.cls-4{fill:#006698}.cls-5{fill:#cd9932}.cls-6{fill:#999}.cls-8{fill:#00669d}.cls-9{fill:#fff}.cls-10{fill:#cc0102}.cls-11{fill:#57ad01}.cls-14{fill:#006599}.cls-15{fill:#0f4106}</style></defs><g id="Layer_2" data-name="Layer 2"><g id="Layer_1-2" data-name="Layer 1"><path d="M273.46 633.78c-67.34-3.12-115.24-36.66-150.5-86.58 9.55-9.66 11.7-22 9-30.08-5.8-17.73-45.33-20.83-54.11-13-8.37 8.41-15.8 17.91-29.15 20.63-9.59 8.72 3.63 23.35 13.43 23.62l9.22-5.19c10.08 1.73 16 6.3 18.09 12.95l-28.55 19.62a207.14 207.14 0 0 0 68.31 79.47C179.17 689.9 250.57 700 281.87 700c40.42 0 165.8-15.4 216.25-122.85a158 158 0 0 1-22.91-9.55c3.57-5.47 6.91-11.12 9-17.7l17.1 9.78c5.13-8.07 7.15-17.15 2.76-28.62-12.16 0-23.86-5.15-35.33-12.92-11.78-8.64-34-1.3-40.68 12.16-4.9 10-3.42 19.18 3.62 27.47-42.49 56.49-103.12 73.43-139.29 75.9-2.85.17-5.06 1.56-7.39 2.52l-2.32 1.26-2.48-1.06c-2.24-.92-3.94-2.5-6.78-2.61Zm-163-89.46C134 578.46 157 596.1 180.24 611.56c30.94 20.61 71.37 27.66 102.52 27.72s68.78-9.17 101.25-29.17c23.75-14.63 43.9-35.55 59.84-58.84 13.58 12.1 28.08 22.13 44.92 26.89-48.93 86.27-133.09 112.34-206 112.38-70.56 1.08-167.07-25.84-211.67-116.19a254.6 254.6 0 0 0 39.36-30Zm4.54-9.14a233 233 0 0 1-21.52 17.5c-4.39-6.44-9.25-12.17-17.57-12.47l20-12.1c-10.06-2.33-16-8.22-18.81-17.94 9.54-8.16 40.69-7.37 49.12 5.46 5.06 7.72 3.92 14-1.06 21.2a63 63 0 0 1-10.16-1.65m356.19 30.27c-11-6.15-21.09-13.28-29.41-22.15-2.59 1.61-10.34 3.13-11.2.63-3.33-9.65 4.67-18.09 13.45-22.21 4.78-2.25 22.05-4.15 23.87 3 1.24 4.88-3.1 9.8-6.52 12.31 6.15 3.44 12.52 7.2 18.67 10.63a86.2 86.2 0 0 1-8.89 17.79Z" class="cls-1"/><path d="M182 573.57c23.14 18.65 48 32.58 72.49 44v-339H138.35l.39 228c-.23 18.28 21.55 49.51 43.26 67" class="cls-2"/><path d="M343.36 206.7a2.29 2.29 0 0 1-2.28-2.31 2.31 2.31 0 0 1 2.32-2.29 12.3 12.3 0 0 1 3.05.5 80 80 0 0 1-.45-7.35c0-4.86.49-9.69 2.09-13.5 1.78-4.24 4.79-7.27 9.62-8a13 13 0 0 1 1.87-.13 17.5 17.5 0 0 1 3.56.32 13.94 13.94 0 0 1 9.79 7.58 24.4 24.4 0 0 1 2.36 7.46 27 27 0 0 1 3.65-1.86c-5.62-11.47-10.69-23-12.59-35.29-2.06-13.24-.39-27.12 8.29-42.17a2.31 2.31 0 0 1 2.83-1l13.28 5.14a71.7 71.7 0 0 1 7.43-15.62c11-17.14 29.92-28.68 61.22-31.29a2.32 2.32 0 0 1 2.49 2.12v.08c.56 7.31.19 12-1.17 15.79a24.6 24.6 0 0 1-5.34 8.31c8.23 6.11 17.68 13.43 14.13 23.52-1.81 5.16-6.81 6.47-13.8 5.25-5.71-1-12.89-3.7-20.72-7.29a6.28 6.28 0 0 0-2.08 4.24 7.73 7.73 0 0 0 2.2 4.9c.31.37.63.73 1 1.08l1.07 1.07c3.32 3.29 6.41 6.37 5.85 11.25-.18 4.34-3.11 7.37-7.15 9.44a33.3 33.3 0 0 1-7.66 2.64c.62.37 1.22.77 1.82 1.19a37.2 37.2 0 0 1 8.81 9 67 67 0 0 1 3.64-9c2.53-4.91 5.78-8.42 10.11-7.79 9.73 1.4 12.62 18.79 14.25 31.76 14.18-17.15 27.55-33.12 41.1-33.23 4.12 0 7.56 2.34 10 7.07 1.81 3.56 3 8.55 3.5 14.94a38.4 38.4 0 0 1 16.92 2.39 22.9 22.9 0 0 1 12.18 11.1c2.88 5.82 4.71 15.32 4 24-.62 7.17-3 13.89-7.94 17.82a2.32 2.32 0 0 1-3.06-.17 22.65 22.65 0 0 0-9.66-5.22 31.9 31.9 0 0 0-13.27-.93 19.85 19.85 0 0 0-11.27 5.29 16.2 16.2 0 0 0-3.24 4.65 66 66 0 0 1 17.15 2.86c6.47 2.2 11.27 5.89 11.21 11.88v.22c-.35 11.54-16.23 17.49-29.58 22.16.64.66 1.27 1.35 1.9 2.07 6.13 7 12 16.67 16.35 27.12a95.2 95.2 0 0 1 6.81 24.83 32.58 32.58 0 0 0 10.82 20.72c5.85 5.44 13.48 9.67 21.34 13.8a2.31 2.31 0 0 1 1 3c-3.62 9.26-8.71 16.14-15.46 20-5.41 3.14-11.81 4.34-19.28 3.27a43 43 0 0 1 3.06 17.21c-.31 7.49-3 13.57-6.89 17a5.2 5.2 0 0 1-2 1.12 4.62 4.62 0 0 1-3.32-.31 7.5 7.5 0 0 1-2.45-1.93c-1.86-2.13-3.55-5.8-4.79-10.15a32.2 32.2 0 0 0-6.16-11.83 26.1 26.1 0 0 0-7.05-6 31.3 31.3 0 0 1-3.95 10.77c-2.44 3.85-5.63 6.06-9.21 6.17a13.2 13.2 0 0 1-6.88-2 23.7 23.7 0 0 1-3.36-2.33 30.4 30.4 0 0 1-4.9 12.35c3.65 3.85 7.37 7.09 11.34 8.15 4.21 1.12 9-.27 14.91-6.21a2.31 2.31 0 0 1 3.26 0l.09.09c8.79 9.77 4.43 16.67-.25 23.5a67.8 67.8 0 0 1 4.87 15.38 28.53 28.53 0 0 1-2 17 27.3 27.3 0 0 1-13 13l-.23.12-.77.37c-6 2.82-13.28 4.27-21.18 4.82a2.31 2.31 0 0 1-1.85-3.87 46.4 46.4 0 0 0 5.52-7.79c2.06-3.74 3-7.2 2.68-10.31a12.5 12.5 0 0 0-4.76-8.26 25 25 0 0 0-3-2.16 35.7 35.7 0 0 1-10.54 7.48c-4.29 1.79-8.52 1.86-12.67-.47a12.4 12.4 0 0 1-6-8.62c-.8-3.62-.58-8.06.5-13-.66-6.84-1.2-13.15-1.31-19.48a111.3 111.3 0 0 1 1.32-19.9 89 89 0 0 1 4.45-17.2 85 85 0 0 1 6.6-13.8 16.3 16.3 0 0 1-6.46-3.73c-2.55-2.5-4.1-6-4.1-11.08a18.3 18.3 0 0 1 4.5-12.7 21.5 21.5 0 0 1 8.25-5.51 24 24 0 0 1-2.37-2.39 20.66 20.66 0 0 1-4.69-9 15.32 15.32 0 0 1 1.5-10.75 17 17 0 0 1 1.18-1.88 49 49 0 0 1-5.06-1.51 36 36 0 0 1-8.21-4 2.31 2.31 0 1 1 2.63-3.79 31.8 31.8 0 0 0 7.13 3.48 41 41 0 0 0 5.91 1.65 40.9 40.9 0 0 1 .54-12.54c1-4.35 3.11-7.54 6.42-9.52a2.32 2.32 0 0 1 2.76.29c.59.56 1.23 1.12 1.91 1.69a45.6 45.6 0 0 0 19.07 9.37c6 1.24 11.43.65 14.35-2.46a5 5 0 0 0 .31-.36 9.6 9.6 0 0 0 1-1.52c1.77-3.2 2.72-8.18 2-13.46a23.77 23.77 0 0 0-8.44-15.08 27.6 27.6 0 0 0-4.26-2.89 2.3 2.3 0 0 1 .23-4.15 10.8 10.8 0 0 1 2.82-.74c4.26-.5 9 1.55 13.64 5.39l.81-.29c12.3-4.28 27.72-9.66 28-18.46v-.11c0-3.52-3.42-5.91-8.09-7.49-5.34-1.82-12.11-2.54-17.61-2.7h-1.36a2.29 2.29 0 0 1-2.28-2.32 2.1 2.1 0 0 1 .09-.61 21.6 21.6 0 0 1 5.47-9.46 24.5 24.5 0 0 1 13.85-6.61 36.4 36.4 0 0 1 15.22 1.07 29.2 29.2 0 0 1 10 4.9c2.9-3.17 4.37-8 4.81-13.28.68-7.87-.94-16.41-3.49-21.57a18.34 18.34 0 0 0-9.8-8.88c-4.58-1.89-10.35-2.57-17.11-1.88a2.3 2.3 0 0 1-2.52-2.06v-.17c-.28-6.82-1.4-12-3.15-15.39-1.55-3-3.55-4.58-5.81-4.56-11.56.09-24.43 15.66-38.1 32.2l-2.94 3.45a2.31 2.31 0 0 1-4.05-1.2l-.23-1.9c-1.4-11.72-3.62-30.15-10.73-31.18-1.86-.26-3.7 2.09-5.37 5.34a89 89 0 0 0-4.9 13.08 2.31 2.31 0 0 1-2.89 1.52 2.34 2.34 0 0 1-1.44-1.31 32.6 32.6 0 0 0-10-11.66c-3.72-2.64-7.8-4.18-11.59-3.89a36.5 36.5 0 0 0-14.82 4.35 58.9 58.9 0 0 0-12.2 9.09 2.31 2.31 0 0 1-3.88-1.77c-.34-15.79.77-30.68 4.51-43.82l-11.7-4.53c-7.24 13.35-8.6 25.68-6.77 37.45s7 23.35 12.56 34.75a9 9 0 0 1 6.44 1.5c3.55 2.52 4 8.68 2.65 15.87a89.4 89.4 0 0 1-4.32 15.09c7.23 1.73 9 6.64 8.19 12.42-.74 5.2-3.9 11.07-6.74 15.49a30.8 30.8 0 0 1 1.57 12.77 39.2 39.2 0 0 1-3.88 13.23 2.3 2.3 0 1 1-4.17-1.95 34.7 34.7 0 0 0 3.46-11.7 26.5 26.5 0 0 0-1.7-11.86 2.32 2.32 0 0 1 .24-2.07c2.72-4.1 6-9.81 6.66-14.56.49-3.46-.69-6.4-5.38-7.42-.92 2.13-1.85 4.11-2.77 5.84a2.31 2.31 0 1 1-4.08-2.15c1.08-2 2.19-4.44 3.25-7 0-.06.05-.12.08-.19a88.3 88.3 0 0 0 5-16.75c1-5.52 1-10-.79-11.3-1.38-1-3.28-.87-5.32-.21a25.7 25.7 0 0 0-6.18 3.25v.4a52 52 0 0 1-1.09 10.76 2.3 2.3 0 1 1-4.51-.92 48.6 48.6 0 0 0 1-9.8v-1.6600000000000001a22.8 22.8 0 0 0-2.23-9.28 9.47 9.47 0 0 0-6.63-5.21 12 12 0 0 0-2.61-.24 9 9 0 0 0-1.25.1c-3 .42-4.85 2.38-6 5.16-1.34 3.19-1.78 7.39-1.74 11.69a76.5 76.5 0 0 0 .8 9.91v.34a2.3 2.3 0 0 1-2.32 2.29 13.4 13.4 0 0 1-3.43-.6 11.4 11.4 0 0 0-2.32-.45Zm109 99.35-.13.12a14.9 14.9 0 0 0-3.07 3.86 10.84 10.84 0 0 0-1.05 7.59 16.2 16.2 0 0 0 3.66 7 18.6 18.6 0 0 0 5.11 4.16 2.3 2.3 0 0 1-.55 4.26c-4.75 1.15-8.23 3-10.49 5.55a13.9 13.9 0 0 0-3.33 9.63c0 3.67 1 6.13 2.73 7.8a14.43 14.43 0 0 0 7.27 3.32 2.2 2.2 0 0 1 .77.31 2.31 2.31 0 0 1 .71 3.18 82 82 0 0 0-7.82 15.7 85.5 85.5 0 0 0-4.23 16.31 108 108 0 0 0-1.29 19.16c.07 3.66.28 7.35.58 11.17 4.2-6.93 9.35-10.67 14.29-14l.24-.17.65-.44c7.11-4.84 13.58-9.24 14.95-23.52a2.24 2.24 0 0 1 .73-1.47 2.28 2.28 0 0 1 3.24.12 24.4 24.4 0 0 0 5.61 4.64 8.84 8.84 0 0 0 4.49 1.36c1.94-.06 3.84-1.51 5.43-4a29.7 29.7 0 0 0 3.76-12 2.4 2.4 0 0 1 .14-.57 2.32 2.32 0 0 1 3-1.31 29.4 29.4 0 0 1 11.54 8.58 36.75 36.75 0 0 1 7.07 13.53c1.06 3.72 2.42 6.75 3.83 8.38a3.4 3.4 0 0 0 .92.8h.11a.8.8 0 0 0 .24-.16c3-2.63 5.07-7.51 5.32-13.68a40.14 40.14 0 0 0-4.41-19.11 2.3 2.3 0 0 1 2.62-3.24c8.16 2 14.87 1.22 20.29-1.92s9.57-8.64 12.71-15.99c-7.48-4-14.69-8.14-20.48-13.52-6.44-6-11-13.4-12.26-23.56a90.8 90.8 0 0 0-6.49-23.6c-4.16-10-9.74-19.25-15.55-25.84a49 49 0 0 0-4.16-4.23l-.23-.21a25 25 0 0 0-5.75-3.95 28.3 28.3 0 0 1 8.45 16.55c.91 6.3-.28 12.35-2.48 16.33a14 14 0 0 1-1.5 2.24l-.51.58c-4.13 4.4-11.1 5.36-18.64 3.81a50.25 50.25 0 0 1-21.08-10.33l-.69-.59a10.83 10.83 0 0 0-3 5.63c-.81 3.46-.83 8-.19 13.44a2.27 2.27 0 0 1-.78 2l-.37.33Zm15.07 101.76a54.4 54.4 0 0 1-7.83 6.11 41.5 41.5 0 0 0 5.49 11.58 40.4 40.4 0 0 0 9.91 10.41c7.89 5.54 12.87 11.29 15.36 17.54a27.94 27.94 0 0 1 1.55 14.94 21.65 21.65 0 0 0 6.51-8.1 24.14 24.14 0 0 0 1.66-14.38 66.4 66.4 0 0 0-5-15.3 2.31 2.31 0 0 1 .15-2.36l.35-.52c3.45-5 6.91-10.06 2.46-16.48-6.49 5.82-12.21 7.05-17.49 5.65-4.87-1.3-9.11-4.86-13.16-9.09Zm-11.81 8.87a36.17 36.17 0 0 0-13.7 17.65 26.9 26.9 0 0 0-.53 11.24 8 8 0 0 0 3.72 5.57 9.43 9.43 0 0 0 8.64.25c3.3-1.38 6.73-4.11 10.23-7.65a2.31 2.31 0 0 1 2.82-.48 30.8 30.8 0 0 1 5.23 3.56c3.87 3.3 5.92 7.1 6.35 11.29s-.71 8.44-3.21 13a44 44 0 0 1-2.73 4.31 49.3 49.3 0 0 0 14.11-3.8c1.61-6 1.57-11.42-.44-16.46-2.16-5.39-6.61-10.47-13.75-15.48a45.4 45.4 0 0 1-11.1-11.62 46.8 46.8 0 0 1-5.64-11.38m-40.230000000000004-270.84000000000003a16.8 16.8 0 0 1 3.68.12c4.32-.19 10.37-1.12 14.67-3.32 2.66-1.36 4.58-3.19 4.65-5.58a2 2 0 0 1 0-.21c.35-2.71-2-5-4.52-7.54l-1.1-1.1q-.69-.69-1.23-1.35a12.08 12.08 0 0 1-3.26-7.92 10.83 10.83 0 0 1 3.65-7.66c.33-.32.67-.64 1-.94a2.31 2.31 0 0 1 2.56-.41c8 3.75 15.37 6.61 20.94 7.58 4.62.8 7.8.29 8.69-2.23 2.51-7.15-6-13.48-13.16-18.76l-1.45-1.08-.21-.18a2.31 2.31 0 0 1-.08-3.26c3-3.12 5-5.5 6.1-8.58 1-2.77 1.33-6.28 1.05-11.62-28.27 2.83-45.42 13.43-55.38 29-9.6 15-12.68 34.61-12.65 56.37a55.7 55.7 0 0 1 9.35-6.41 41 41 0 0 1 16.65-4.89Zm-55.08 47.86c.06 13.58 3.18 24.71 6.09 35.14.4 1.43.8 2.84 1.35 4.9a64 64 0 0 1 2.12 20.62c-.41 5.88-1.79 11.45-4.48 15.77a2.31 2.31 0 1 0 3.92 2.44c3.11-5 4.71-11.31 5.16-17.91a68.8 68.8 0 0 0-2.26-22.11c-.32-1.2-.84-3.06-1.37-4.94-2.84-10.15-5.87-21-5.93-33.92a2.3 2.3 0 1 0-4.6 0ZM158 259.21a2.3 2.3 0 1 1 3.16 3.34q-2 1.93-4 3.61c2.14 3.35 4.82 4.57 7.34 4.76a14.65 14.65 0 0 0 7.28-1.61c.27-.13.51-.26.71-.37 5.92-3.36 10.59-6.56 15.09-9.65 2.17-1.48 4.29-2.93 6.64-4.46a2.31 2.31 0 0 1 3.37 2.84 7.7 7.7 0 0 0-.43 5.43 9 9 0 0 0 3.49 4.46 15.34 15.34 0 0 0 6.27 2.53 12.92 12.92 0 0 0 9.1-1.54 49.3 49.3 0 0 0 11.59-10.86 70.7 70.7 0 0 0 9.3-15.59 2.3 2.3 0 0 1 4.22 1.82 75.5 75.5 0 0 1-9.91 16.63 54 54 0 0 1-12.71 11.88 17.56 17.56 0 0 1-12.35 2.21 20.06 20.06 0 0 1-8.18-3.33 13.55 13.55 0 0 1-5.2-6.81 11.5 11.5 0 0 1-.53-2.81l-2.07 1.41c-4.56 3.13-9.29 6.37-15.42 9.84-.28.16-.59.33-.94.5a19.24 19.24 0 0 1-9.66 2.08 13.65 13.65 0 0 1-10.63-6.52c-4.54 3.35-8.83 5.5-12.79 6-5.61.78-10.4-1.42-14.1-7.53-.24.47-.46.94-.67 1.4-2.15 4.76-3 9.47-2.24 13.64a15.23 15.23 0 0 0 7.21 10.3 23 23 0 0 0 3 1.63 2.31 2.31 0 0 1-1.38 4.37c-10.94-1.5-18.14-6.1-23.2-12.51a46.2 46.2 0 0 1-6.59-11.95 44 44 0 0 1-2.21 8.05 32 32 0 0 1-7.34 11.4l2.11.54c14.39 3.66 35.54 9 33.34 30.73-.61 6-2.88 9.65-5.92 12a16.8 16.8 0 0 1-5.66 2.78c14.54 16.19 13.5 38 6.22 59.49-7.49 22.08-21.6 43.71-31.82 58a40.6 40.6 0 0 0 .59 9.95 43.7 43.7 0 0 0 4.48 12.36 2.3 2.3 0 0 1-2 3.38c-13.44.76-21.49-5.62-26.59-14.54-4.45-7.79-6.53-17.44-8-25.76a26.7 26.7 0 0 0-11.08 5.55 21.3 21.3 0 0 1 6.42 3.77c3.09 2.7 4.46 5.95 3.94 8.57a11.55 11.55 0 0 1-4.58 7.64c-2.32 1.64-5.45 2.47-9.58 2.52a15.4 15.4 0 0 1-3-.26 16 16 0 0 1-2.78-.8l-.27-.11a21 21 0 0 1-8.72-7 23.77 23.77 0 0 1-4.78-13.5 18 18 0 0 1 .3-3.53 36.16 36.16 0 0 1 6.64-14.46 55 55 0 0 1 10.53-10.66A22.1 22.1 0 0 1 38 415a17 17 0 0 1-2.64-9.56c.38-17.16 24.45-18.56 39.33-18.23 1.72 0 3.25.09 4.6.15-1.51-4.86-3.11-9.7-4.73-14.59l-.56-1.56a15 15 0 0 1-1.9 2.62 9.73 9.73 0 0 1-7.46 3.45 11.2 11.2 0 0 1-2.35-.3c-4.6-1.14-7.91-5.31-10-10.85a50 50 0 0 1-2.74-17.61v-1.64c-3.12 3.07-7.42 4.75-15.79 2.76a2.31 2.31 0 1 1 1.06-4.49c9.3 2.21 11.94-1.63 14.94-6 .49-.71 1-1.44 1.38-2a2.3 2.3 0 0 1 4.1 1.91 43.3 43.3 0 0 0-1.13 9.49 45 45 0 0 0 2.46 15.92c1.57 4.18 3.84 7.28 6.77 8a5.09 5.09 0 0 0 5.3-1.77A16.1 16.1 0 0 0 72 364a2.3 2.3 0 0 1 4.44-.2c1.2 3.67 1.83 5.58 2.47 7.49 2 5.94 3.91 11.8 5.69 17.72l.06.2c5.4 18 9.28 36.45 7.75 58.93 9.34-13.68 20.35-31.83 26.58-50.19 7.22-21.28 8-42.85-8-57.73a2.31 2.31 0 0 1 1.26-4 16.1 16.1 0 0 0 7.78-2.73c2.1-1.63 3.69-4.32 4.14-8.81C125.9 307 107 302.17 94.22 298.9c-2.35-.6-4.51-1.15-6.44-1.75a2.27 2.27 0 0 1-1.16-.83 2.3 2.3 0 0 1 .47-3.22 27 27 0 0 0 9.2-12.27A45.8 45.8 0 0 0 99 267.12a53.9 53.9 0 0 1-18.58 3.95 27.7 27.7 0 0 1-8.36-.93 11 11 0 0 1-6.26-4.22 8.57 8.57 0 0 1-1.4-4.69v-.07a10.54 10.54 0 0 1 1.26-5.41 105.3 105.3 0 0 0-19 8.53 84 84 0 0 0-22.47 18.56l-.07.08a91.6 91.6 0 0 0-12.75 19.65 51.5 51.5 0 0 0-5 21.14c-.19 15.43 3.66 25 9.89 31.12s15.09 9.06 24.71 11a2.3 2.3 0 0 1-.92 4.51c-10.38-2.12-20-5.3-27-12.25S1.5 340.52 1.7 323.65a56.1 56.1 0 0 1 5.45-23 95 95 0 0 1 12.92-20.07c-.44-15.61 2.25-30 9.1-41.9 6.36-11.08 16.26-20 30.52-25.95a35.1 35.1 0 0 0 9.07-5.2 11.6 11.6 0 0 0 3.52-4.53 5.6 5.6 0 0 0-.08-4.31 10.1 10.1 0 0 0-1.62-2.58c-1.41-1.68-6.35.77-10.59 2.87-1.6.79-3.12 1.55-4.46 2.08l-1.42.56c-9.68 3.83-20 7.92-22.53 1.69-2.21-5.44 6.53-15.27 14.61-24.35 1.77-2 3.51-3.95 5-5.74-7.81-4.53-16.78-7.68-25.33-7.29a108 108 0 0 0-4.11 13.5c-1.19 5-2.05 10-2.73 14.89a2.31 2.31 0 0 1-2.6 2c-5.39-.56-9.39-2.64-12.13-5.85-2.86-3.4-4.24-7.96-4.29-13.23v-.31c0-10.2.21-24 3.49-35.83 3.45-12.42 10.24-22.6 23.51-24.43 4.58-.62 9.36.84 14.13 3.39a80 80 0 0 1 11.07 7.45 54.5 54.5 0 0 1 8-12c3.75-4.06 8.09-6.83 13.3-7.74a2.31 2.31 0 0 1 2.67 1.88 2.7 2.7 0 0 1 0 .64C75.8 124 79 135.16 84.05 144a59.4 59.4 0 0 0 21.44 21.67c0-2.51.11-5 .36-7.56a41.8 41.8 0 0 1 2.8-11.69 2.32 2.32 0 0 1 2.44-1.41c5.71.78 11.08 4.93 16.41 9.51l.25-.72c2.14-6.08 4.65-13.18 11.78-21.55-3 1.37-5.93 2.56-8.74 3.52-8.31 2.82-15.66 3.67-20.22 1.61-7-3.16-5.36-11.63-3.86-19.17v-.17a76 76 0 0 1-8.24 1.07c-8 .45-14.7-1.61-15.33-12.76-.67-12 11-13.81 20.16-14.54a32.5 32.5 0 0 1-1.83-5.91c-.7-3.71-.14-6.88 3-8.23a25.3 25.3 0 0 1 3.83-1.29c8-2 17.5-.32 26.29 5s16.65 13.91 21.87 26a72 72 0 0 1 3.57 10.5 18.9 18.9 0 0 1 5.39 8 21 21 0 0 1 1 8.62c7.65-1.14 13.74-.47 18.7 1.51a27.76 27.76 0 0 1 13.07 11.2 2.3 2.3 0 0 1-.68 3.18h-.07a60.5 60.5 0 0 0-14.9 12c-3.4 3.94-5.23 7.69-5.27 10.82a9.06 9.06 0 0 0 3.73 7.85c2.91 2.14 7.33 3.3 12.75 3.62a2.3 2.3 0 0 1-.26 4.6c-6.29-.37-11.56-1.81-15.23-4.52a13.45 13.45 0 0 1-5.6-11.6c.07-4.24 2.28-9 6.38-13.77a55 55 0 0 1 8-7.47c-11.91 1.42-21.46 5.83-28.84 12.42-10 8.94-16.12 21.95-18.82 37a2.29 2.29 0 0 1-2 1.89c-7.49.81-14.53 2.42-19.23 5.41-4.22 2.69-6.49 6.63-5.23 12.36a8 8 0 0 0 1.72 3.69c1.6 1.8 4.2 2.34 7.29 2a36 36 0 0 0 11.63-3.79c8.1-4 15.89-10.14 19-14.5a2.29 2.29 0 0 1 3.2-.55 2.26 2.26 0 0 1 1 1.89v3.88c-.18 13.93-.27 20.86 6.67 22.05 2.3.13 5.1-2.08 7.87-5.24 4.58-5.22 8.77-12.86 11-17.73a2.3 2.3 0 0 1 4.19 0 42.3 42.3 0 0 0 4 7.55c1 1.32 2.07 2.08 3.34 2 3.37-.3 6.5-2.65 9-5.86a27.13 27.13 0 0 0 5.34-13.39 2.3 2.3 0 0 1 4.59.42 31.94 31.94 0 0 1-6.39 15.78c-3.2 4.14-7.42 7.19-12.2 7.63-3.15.28-5.45-1.17-7.43-3.76a26.6 26.6 0 0 1-2.49-4.1 79 79 0 0 1-9.59 14.51c-3.68 4.19-7.73 7.09-11.72 6.79a1.5 1.5 0 0 1-.3 0c-10.42-1.72-10.79-9.32-10.62-24.47a72 72 0 0 1-16.44 11.28 40.5 40.5 0 0 1-13.22 4.24c-4.52.46-8.48-.5-11.18-3.54a12.5 12.5 0 0 1-2.79-5.78c-1.76-8 1.4-13.48 7.27-17.22 5-3.19 12-5 19.51-5.92 3-15.32 9.52-28.61 20-37.94 9.24-8.26 21.52-13.38 37.15-14a22 22 0 0 0-8.86-6.64c-4.79-1.91-11-2.37-19.1-.75a2.3 2.3 0 0 1-1 0 2.3 2.3 0 0 1-1.83-2.7 18.3 18.3 0 0 0-.37-9.49 14.1 14.1 0 0 0-3.46-5.44c-18.68 14-22.49 24.79-25.53 33.41-.47 1.32-.91 2.59-1.4 3.84a2.2 2.2 0 0 1-.45.79 2.3 2.3 0 0 1-3.26.23l-.28-.25c-4.93-4.28-9.85-8.57-14.47-10a38.8 38.8 0 0 0-1.8 8.61 95 95 0 0 0-.33 11 2.31 2.31 0 0 1-3.33 2.07A64.1 64.1 0 0 1 80 146.27 66.6 66.6 0 0 1 71.61 113a20.5 20.5 0 0 0-8 5.57 54.6 54.6 0 0 0-8.54 13.49 2 2 0 0 1-.28.45 2.31 2.31 0 0 1-3.24.36A85 85 0 0 0 39 124.12c-4-2.12-7.84-3.36-11.34-2.88-11 1.51-16.73 10.32-19.72 21.09-2.51 9-3.13 19.45-3.28 28.34a30.7 30.7 0 0 1 19.71-9.25c10.82-.92 22.19 3.35 31.58 9.28l.22.16a2.3 2.3 0 0 1 .34 3.24c-2.07 2.54-4.44 5.21-6.88 7.94-7.16 8.05-14.9 16.77-13.77 19.55.78 2 8.94-1.25 16.56-4.27l1.42-.55c1.19-.47 2.61-1.18 4.11-1.92 5.73-2.84 12.4-6.15 16.15-1.7a15 15 0 0 1 2.36 3.77 10.12 10.12 0 0 1 .13 7.73 16 16 0 0 1-4.87 6.35 39.5 39.5 0 0 1-10.26 6c-13.25 5.47-22.46 13.75-28.28 24-5.68 9.9-8.3 21.65-8.53 34.49a90.8 90.8 0 0 1 19.68-15.16 116.9 116.9 0 0 1 31.12-12.14 2.31 2.31 0 0 1 2 4.14c-.69.43-1.39.84-2.11 1.25-3 1.73-6.35 3.64-6.3 7.6a4.2 4.2 0 0 0 .64 2.23 6.55 6.55 0 0 0 3.74 2.35 23.3 23.3 0 0 0 7 .75c7.4-.16 15.94-2.54 20-5.2a2.2 2.2 0 0 1 .58-.31 2.31 2.31 0 0 1 2.82 1.64c2.1 7.88 4.67 15.28 9.14 21a27 27 0 0 0 9.48 7.67 19.1 19.1 0 0 1-3.27-7.78c-.94-5.13 0-10.78 2.57-16.36a42 42 0 0 1 3-5.5 2.31 2.31 0 0 1 4.12.24c2.93 6.83 6.75 9.33 11.23 8.71 3.59-.49 7.69-2.75 12.18-6.3a2.2 2.2 0 0 1 .86-.74l.13-.06c1.54-1.26 3.12-2.67 4.74-4.21ZM20.72 166.65c-5.91 1.4-11.47 4.84-16.1 11.16.12 3.93 1.16 7.25 3.2 9.65a12.34 12.34 0 0 0 7 3.92c.65-4.33 1.44-8.67 2.47-13a112 112 0 0 1 3.43-11.72Zm134.14-48.43h.06l.2-.13.18-.13a66 66 0 0 0-3-8.7C147.45 98 140.13 90 132.25 85.3s-16-6.16-22.79-4.45a21 21 0 0 0-3.13 1.05c-.61.27-.59 1.53-.29 3.14a37 37 0 0 0 2.79 7.86 2.3 2.3 0 0 1-1.13 3 2.1 2.1 0 0 1-.8.2l-1 .07c-7.51.55-18.59 1.35-18.11 9.86.41 7.37 5 8.72 10.47 8.41a76 76 0 0 0 8-1.06l3-.49a2.31 2.31 0 0 1 2.63 1.94 2.5 2.5 0 0 1 0 .86c-.2 1.16-.42 2.23-.64 3.33-1.16 5.86-2.47 12.44 1.2 14.09 3.44 1.54 9.6.69 16.87-1.78a110 110 0 0 0 25.55-13.17ZM80.66 392c-1.74-.07-3.87-.17-6.11-.22-13.12-.29-34.35.7-34.64 13.72a12.47 12.47 0 0 0 2 7 19.2 19.2 0 0 0 6.34 6 2.3 2.3 0 0 1 .75 3.17 2.25 2.25 0 0 1-.63.67 52.2 52.2 0 0 0-12.08 11.55 31.6 31.6 0 0 0-5.83 12.58 13.7 13.7 0 0 0-.23 2.63 19.15 19.15 0 0 0 3.84 10.9 18.5 18.5 0 0 0 3.63 3.7 26.25 26.25 0 0 1 5.1-15.43 2.5 2.5 0 0 1 .2-.27c4.07-5.16 10.27-8.49 18.22-10.14l.22-.05a2.3 2.3 0 0 1 2.66 1.88c1.47 8.45 3.4 18.78 7.91 26.66 3.84 6.65 9.63 11.65 18.84 12.19a46 46 0 0 1-3.28-10.3 45.2 45.2 0 0 1-.63-11.63 2.2 2.2 0 0 1 0-.44c3.11-24.93-.66-44.89-6.33-64.17Zm-38.35 74c.22.05.45.11.68.15a10.5 10.5 0 0 0 2.08.19c3.17 0 5.45-.59 7-1.67a7.23 7.23 0 0 0 2.7-4.77c.21-1.07-.64-2.65-2.44-4.23a17.75 17.75 0 0 0-6.64-3.47c-2.36 3.54-3.54 8.12-3.38 13.8M238.26 12.38a18.1 18.1 0 0 1 6.51-9C248 1.11 252.2 0 257.51 0c5.43 0 10.69 1.17 15.2 4.28 4.31 3 7.89 7.67 10.2 14.8a12.9 12.9 0 0 1 6.31 3.39 13.2 13.2 0 0 1 3.48 7.31c10.53 7.69 14.87 15.43 18.61 22.58l.06.1.5 1c5.19 10 9.7 18.61 30.85 23.82a1.73 1.73 0 0 1 .45 3.18c-1.57.89-3.32 2.07-5.12 3.29-1.49 1-3 2-4.54 3 1 1 2.07 2 3.16 3 1.75 1.65 3.49 3.29 4.83 4.78a1.74 1.74 0 0 1-.13 2.45 1.77 1.77 0 0 1-1 .44c-1.33.14-3 .26-4.54.38l-1 .08A33.5 33.5 0 0 1 337 110c-.21 4.1-1.75 7.2-4.72 9.21a15.63 15.63 0 0 1-11.69 2.29 20.27 20.27 0 0 1-11.09-6.41 65 65 0 0 1-5-6.12l-.45-.62c0 .56 0 1.1-.08 1.6a1.72 1.72 0 0 1-3 .94 42 42 0 0 1-2.68-3.69l-.55-.8a22.6 22.6 0 0 0 .34 8.24c.79 2.71 2.72 4.75 6.75 5.42a17.6 17.6 0 0 1 6.35 2 8 8 0 0 1 4 7 1.2 1.2 0 0 1 0 .32 1.71 1.71 0 0 1-1.89 1.54c-10.25-1.08-19.42-1.81-27.21-2.05a95.5 95.5 0 0 0-18.73.86 1.75 1.75 0 0 1-2-.9 6.6 6.6 0 0 1-.65-2.13 4.8 4.8 0 0 1 .94-3.45 7.3 7.3 0 0 1 2.65-2.12 14.8 14.8 0 0 1 4.88-1.34c3.9-.42 6.69-2 8.36-4.65a15.36 15.36 0 0 0 2-7.55 25 25 0 0 1-3.16 3.34 1.73 1.73 0 0 1-2.83-1.57c.53-5.48.58-9.22-.35-11.91a8.1 8.1 0 0 0-2.26-3.42c-2.07 2.19-4 4.48-5.89 6.82a128 128 0 0 0-6 8.24 1.68 1.68 0 0 1-1 .82 1.72 1.72 0 0 1-2.12-1.22 13 13 0 0 1-.23-4.81c-2.39.64-4.78 1.36-7.17 2.14-2.87.93-5.75 2-8.67 3.06a26.3 26.3 0 0 1-1 8c-.94 2.7-2.58 4.28-5.3 4.7a1.72 1.72 0 0 1-1.9-1.18l-.4-1.14c-2.1-6.13-4.07-11.85-7-16.37a1.73 1.73 0 1 1 2.9-1.88c3.1 4.77 5.1 10.49 7.21 16.61a3.8 3.8 0 0 0 1.14-1.82 26.4 26.4 0 0 0 .84-7.92 1.72 1.72 0 0 1 1.11-1.75 196 196 0 0 1 9.93-3.54c3-1 5.94-1.84 8.93-2.61.07-.27.13-.55.2-.82l-7.19-.15a1.69 1.69 0 0 1-1.35-.6 1.73 1.73 0 0 1 0-2.23L245.35 98a1.73 1.73 0 0 1-.85-3.36l11.3-2.89-1.22-.56a38 38 0 0 1-5.67-3A1.73 1.73 0 0 1 250 85a31.4 31.4 0 0 0 6.47.2 17 17 0 0 0 3.88-.82c-.48-.49-1-1-1.46-1.56a50.25 50.25 0 0 1-10.76-18.77 41.7 41.7 0 0 1-1.06-19.66 18.6 18.6 0 0 1-2.95-6.53 26.2 26.2 0 0 1-.56-6.95 9.27 9.27 0 0 0-7.19-1.05c-2.54.74-5 2.76-7.15 6.14a1.73 1.73 0 0 1-2.39.53 1.75 1.75 0 0 1-.77-1.15c-1.26-6-1.37-11.44.5-15.54 1.86-4.08 5.51-6.79 11.67-7.48Zm8.5-6.16a14.8 14.8 0 0 0-5.27 7.41 25.6 25.6 0 0 1 4.1 7.13 23.4 23.4 0 0 1 1.53 7.75 40.8 40.8 0 0 0 15.91-.9 52 52 0 0 0 16.49-7.74c-2-6.19-5.12-10.24-8.77-12.75a23 23 0 0 0-13.26-3.67c-4.55 0-8.07.91-10.72 2.77Zm40 18.67a9.7 9.7 0 0 0-4.82-2.49 55.7 55.7 0 0 1-18.06 8.6A44.1 44.1 0 0 1 247 32a21.9 21.9 0 0 0 .5 5.12 15.1 15.1 0 0 0 2.33 5.21A63.7 63.7 0 0 0 270 39.74 62.3 62.3 0 0 0 289.23 30a9.64 9.64 0 0 0-2.47-5.11m20.85 27.85c-3.37-6.35-7.51-13.15-16.5-19.84A65.9 65.9 0 0 1 271 43.06a67.2 67.2 0 0 1-20.61 2.73 38.25 38.25 0 0 0 1.09 17.3 46.7 46.7 0 0 0 10 17.46 27.4 27.4 0 0 0 4.89 4.45 48 48 0 0 0 6.36 3.56c4.17 2 6.53 4.33 7.72 7.79a23 23 0 0 1 .87 8.48q.65-.82 1.26-1.65c.73-1 1.43-1.89 2.16-2.74a1.7 1.7 0 0 1 .31-.28 1.73 1.73 0 0 1 2.41.41 40 40 0 0 1 2.3 3.81c.34.61.68 1.23 1 1.82l.93-.85c1.36-1.25 2.79-2.55 4.18-3.87a.6.6 0 0 0 .08-.08 1.74 1.74 0 0 1 2.44.21 36 36 0 0 1 2.16 2.92c0-.64 0-1.27.08-1.83a1.75 1.75 0 0 1 .82-1.4 1.73 1.73 0 0 1 2.38.56c.92 1.47 2.08 3.27 3.43 5.14a62 62 0 0 0 4.7 5.79 16.82 16.82 0 0 0 9.18 5.35 12.15 12.15 0 0 0 9.12-1.76c2-1.36 3.05-3.56 3.21-6.52.18-3.39-.77-7.72-2.73-12.92a1.7 1.7 0 0 1-.1-.44 1.74 1.74 0 0 1 1.55-1.89c1.14-.1 2.22-.19 3.33-.27l.86-.07c-.68-.66-1.4-1.33-2.12-2-1.75-1.64-3.49-3.29-4.83-4.78a1.4 1.4 0 0 1-.23-.32 1.73 1.73 0 0 1 .68-2.35c2-1.09 4.11-2.53 6.2-3.93l1.92-1.33c-12.36-3.61-18.71-8.51-23-14.2a17 17 0 0 0 .92 5.11 31.1 31.1 0 0 0 4.77 8.61 1.72 1.72 0 0 1-1.25 2.83c-8.41.4-14-3.78-19.17-8.18l.73 5.34a2 2 0 0 1 0 .21 1.72 1.72 0 0 1-1.7 1.74c-7.82.11-12.87-6.62-17.92-13.35l-.24-.32a1.73 1.73 0 1 1 2.76-2.07l.24.32c4 5.35 8 10.71 13.13 11.78l-1-7.69a1.73 1.73 0 0 1 2.9-1.48c.8.67 1.38 1.17 2 1.68 4.31 3.72 8.79 7.59 14.86 8.42a30.8 30.8 0 0 1-3.32-6.74 19.26 19.26 0 0 1-.71-10.68c-1-1.64-1.87-3.33-2.78-5.07-3.22 2.1-6 1.8-8.41.36-2.95 3.66-5.76 4.09-8.5 2.64a6 6 0 0 1-.58-.34c-3.51 3.44-6.72 3.7-9.63 2.08l-.08-.05a12.8 12.8 0 0 1-2.8 2.13 6.74 6.74 0 0 1-6.29.33 11.33 11.33 0 0 1-4.4-4c-.3-.44-.59-.9-.86-1.37a22 22 0 0 0 5.75 15.72c4.74 5.17 11.95 8.62 19.4 11.9a1.73 1.73 0 0 1-1.4 3.16c-7.78-3.42-15.33-7.05-20.54-12.74s-8.08-13.6-6-25.15a1.73 1.73 0 0 1 3.36-.18 24.8 24.8 0 0 0 3.14 6.69 8 8 0 0 0 3 2.8 3.51 3.51 0 0 0 3.23-.22 8.5 8.5 0 0 0 1.76-1.31 29.5 29.5 0 0 1-4.37-6.84 1.72 1.72 0 0 1 3.1-1.51c1.42 2.9 3 5.47 4.72 6.92l.12.09a6 6 0 0 0 .84.57c1.49.83 3.26.6 5.38-1.38a39.5 39.5 0 0 1-3.77-5.46 1.72 1.72 0 1 1 3-1.77 28.8 28.8 0 0 0 4.27 5.87l.06.05.12.12a5.8 5.8 0 0 0 1.12.79c1.2.64 2.57.26 4.24-1.81a28 28 0 0 1-4.2-6.54 1.73 1.73 0 1 1 3.11-1.5c1 2 2.57 5.08 4.67 6.78 1.52 1.23 3.45 1.68 5.82.09Zm-13.49 55.06-.06.06c-.88.81-1.74 1.59-2.43 2.24a1.72 1.72 0 0 1-2.44-.1 1 1 0 0 1-.14-.17 34 34 0 0 1-2.05-3.36q0 6.47-2.55 10.52c-2.25 3.61-5.9 5.72-10.93 6.26a11.2 11.2 0 0 0-3.7 1 3.8 3.8 0 0 0-1.4 1.06 1.5 1.5 0 0 0-.3.81 108 108 0 0 1 18-.68c7.32.22 15.78.87 25.16 1.82a4.6 4.6 0 0 0-2-2.23 14.8 14.8 0 0 0-5.11-1.55c-5.63-.94-8.36-3.89-9.52-7.85a23 23 0 0 1-.6-7.83ZM272 92.07l-.83-.42a52 52 0 0 1-6.81-3.83c-.4-.28-.78-.56-1.15-.85a19.8 19.8 0 0 1-6 1.66 34 34 0 0 1 3.46 1.8 1.73 1.73 0 0 1 .58 2.38 1.8 1.8 0 0 1-.38.44l-1 .82a1 1 0 0 1-.18.15l-1.86 1.59 4.91.1a1.73 1.73 0 0 1 1.69 1.76 1.4 1.4 0 0 1-.06.41c-.41 1.52-.82 3.09-1.1 4.61q1.45-2 3-4c1.8-2.26 3.7-4.49 5.72-6.65Zm-28.46-65a20.3 20.3 0 0 0-1.19-5.07 22 22 0 0 0-3.54-6.18c-4.88.51-7.71 2.5-9.07 5.5-1.15 2.54-1.35 5.84-.9 9.6a14.6 14.6 0 0 1 6.6-4.32 12.14 12.14 0 0 1 8.14.51Z" class="cls-3"/><path d="m308.78 271-.33.27h4.34l3.89-3.27 2.93 2.82-.51.45h4.34l-.23-.21 4.14-3.58L330 270l-1.52 1.34H335l-1-.89 4.11-3.8 2.89 2.65-2.14 2h14.77c9.32-15.89 5.78-27.22-4.29-34.77-9-6.77-8.12-21.26-7-26.56 5.06-24.48 3.88-45.17-5.27-57.06 2.32-2.73 5.26-5 5.34-8.88.13-6.39-6-10.66-12-10.78a12.93 12.93 0 0 0-9.39 3.69c-2-3.74-6.08-5.7-10.47-5.79a12.94 12.94 0 0 0-9.14 3.44c-2.15-2.92-6.07-4.5-10.06-4.58a12.32 12.32 0 0 0-9 3.54c-1.41-2.44-4.94-4.74-10-4.69a13.85 13.85 0 0 0-8.71 3 12.49 12.49 0 0 0-10-5.05 12.72 12.72 0 0 0-8.74 2.9c-2.12-3.42-6.24-5.29-10.45-5.38a12.9 12.9 0 0 0-6.2 1.48 12.1 12.1 0 0 0-3 2.26 9.25 9.25 0 0 0-2.72 6.13 6.33 6.33 0 0 0 1 4.28c-7.81 8.54-12.74 18.92-15.6 30.31a36.67 36.67 0 0 0-16.5 15.9c4.91 5.16 10.4 10 15.71 15.19a172.7 172.7 0 0 1 30.68 40.28c-4.17 9.24-6.3 19.83-7.41 31.1h4.31c0-8.52 2.42-16.45 5.87-24.11a79 79 0 0 1 4.12 13.85c.4 2.3 2.74 2.89 5 3.15 23.17 2.67 39.67-6.85 54.62-20.05l7.83 7.06a186.5 186.5 0 0 1-28.9 20.15h18.81l4-3.33 2.75 3Zm5.88-4.94-4.09 3.43-2.71-3 3.91-3.24 2.89 2.78Zm5.85-4.92-4.08 3.43-2.89-2.77 4.06-3.36zm6.19-5.2-4.28 3.6-2.89-2.7 4.31-3.56 2.86 2.72Zm6-5.05-4.28 3.6-2.84-2.67 4.36-3.62zm-.87-4.25 4.05-3.35 2.67 2.68-4 3.33-2.76-2.66Zm4.77 4.6 3.92-3.29 2.5 2.51-3.8 3.31zm4.51 4.35 3.77-3.26 2.4 2.41-3.67 3.26-2.49-2.39Zm4.37 4.2 3.55-3.29 2.74 2.75-3.48 3.24zm-15-3.39 4.23-3.56 2.64 2.57-4.12 3.59-2.76-2.59Zm4.66 4.36 4.08-3.52 2.48 2.42-4 3.51zm-18.34-41.23c-15.23-11.79-21-52.05-17.71-64.17.53-2 1.93-3.06 5.15-3.44 3-.35 5 1.78 6.31 6.11q2.91 10 6 19.87a45.8 45.8 0 0 1 2.2 10.79c.65 10.39 1.35 20.12-.2 30.24a1.15 1.15 0 0 1-1.76.6Zm1.2-62.14c-1.21-2.92 1.5-6.36 6.17-4.45 1.9 1.7 4.43 2.64 8.93 1.92 8.21 14.88 9.26 32 5.16 49.17-1.64 6.84-2.81 12.93-2.1 18.62.11.61-.47 1-.81.39-7.3-10.75-7.35-25.94-10.22-40.35-1.35-6.79-3.41-16.4-7.13-25.3m6.43 104.09 4.29-3.6 2.79 2.6-4.22 3.67zm15.28 3.64 3.86-3.56 2.8 2.73-3.78 3.52zm-10.54.79 4.24-3.66 2.59 2.41-4.21 3.7zm-10.74.62 4.11-3.45 2.9 2.68-4.1 3.56Z" class="cls-1"/><path d="M210 173.17c12.39 7 26.67 7.34 41.63 5.92 2-.19 4-.75 3.92-3.06l-.19-14.51 34.95.38q1.14 11.83 2.29 23.68c-35.22 4.25-68.21 5.51-94.25-2.48 3.41-4.52 7.24-7.95 11.65-9.93" class="cls-4"/><path d="M265.59 169.47a5.8 5.8 0 1 0 5.8 5.8 5.81 5.81 0 0 0-5.8-5.8M281.34 169a5.8 5.8 0 1 0 5.8 5.8 5.82 5.82 0 0 0-5.8-5.8" class="cls-5"/><path d="M274.78 156.79a11.86 11.86 0 0 0-10.89-9.07l-15.18-.19c-8.91-.11-10.43 9-10.12 16.23l.48 11.18 11.79-.51-.53-14.3c-.09-2.44 1.35-3.44 3.44-3.43h2.77ZM226.32 142.56c-6.4 7.44-10.73 16.51-13.56 26.74l9.36 3.92a62.7 62.7 0 0 1 9.26-23.78l-.29-3.92ZM253.55 131.76c-3.9-.08-7.11 2.39-7.18 5.51s3 5.71 6.95 5.79 7.12-2.39 7.19-5.51-3.05-5.71-6.96-5.79M234.45 129.4c-3.91-.08-7.12 2.38-7.18 5.5s3 5.71 6.95 5.79 7.12-2.39 7.18-5.5-3.05-5.72-6.95-5.79M272.27 133.77c-3.9-.08-7.12 2.38-7.18 5.5s3.05 5.71 7 5.79 7.12-2.38 7.18-5.5-3.1-5.71-7-5.79M291.27 134.91c-3.9-.08-7.11 2.39-7.18 5.51s3.05 5.71 7 5.79 7.12-2.39 7.19-5.51-3.1-5.7-7.01-5.79M310.47 136.06c-3.91-.08-7.12 2.38-7.18 5.5s3 5.71 6.95 5.79 7.12-2.38 7.18-5.5-3.05-5.71-6.95-5.79M330.33 138.16c-3.9-.08-7.12 2.38-7.18 5.5s3.05 5.71 7 5.79 7.12-2.38 7.18-5.5-3.1-5.71-7-5.79" class="cls-4"/><path d="M299.09 155.36c.53-2 1.93-3.06 5.15-3.44 3-.35 5 1.78 6.31 6.11q2.91 10 6 19.87a45.8 45.8 0 0 1 2.2 10.79c.65 10.39 1.35 20.12-.2 30.24a1.15 1.15 0 0 1-1.76.6c-15.22-11.79-20.99-52.05-17.7-64.17M324.2 152.94c-4.67-1.91-7.38 1.53-6.17 4.45 3.72 8.9 5.78 18.51 7.13 25.3 2.87 14.41 2.92 29.6 10.22 40.35.34.59.92.22.81-.39-.71-5.69.46-11.78 2.1-18.62 4.1-17.13 3-34.29-5.16-49.17-4.5.72-7.03-.22-8.93-1.92" class="cls-6"/><path d="M138.35 278.52H254.5v339c-24.44-11.41-49.35-25.34-72.49-44-21.7-17.49-43.48-48.72-43.25-67l-.39-228Zm169 0v340.73c-8.3 3.8-16.53 7.32-24.6 10.65-7.86-3.24-15.87-6.67-23.95-10.35v-341h48.49Zm4.34 338.73V278.52h115.43l-.38 228c.23 18.29-21.55 49.52-43.26 67-22.92 18.48-47.6 32.33-71.83 43.68ZM282.74 271.3H131.12l.4 235.22c-.19 17.55 14.83 39.72 25.71 52.64a150 150 0 0 0 20.23 20c31 25 65.89 42.28 102.53 57.38l2.75 1.13 2.75-1.13C322.13 621.47 357 604.2 388 579.19a149.7 149.7 0 0 0 20.24-20c10.88-12.92 25.9-35.08 25.71-52.63l.39-235.22Z" class="cls-1"/><circle cx="196.31" cy="411.07" r="46.41" style="fill:#fcd604" transform="rotate(-45 196.31 411.066)"/><path d="M181.13 383.88h12.52a3.57 3.57 0 0 0 3.1-3.33v-2.21c1.78-2 3.92-1.84 5.83 0v42.22q-.09 3 2.1 3.84c2.94 1.16 9.27 4.4 9.27 10.64s-6.64 11.28-14.82 11.28-14.83-5.05-14.83-11.28 5.86-9.38 10.5-10.81c1.92-.58 2-1.77 2-3.56v-16c0-2-1.24-3.7-3.09-3.69l-12.73.08v-6.54h5.71v-4.86h-5.59v-5.79Zm26.53 36.79-.13-44.28c-5-4.54-10.38-5.05-15.9.34v1.93h-12.7c-1.84 0-2.91.94-2.92 2.77v22c0 1.53 1.43 2.35 3.26 2.35h12.46v14.44c-5.17 1.72-12.11 6.18-12.11 15.11s8.76 16.19 19.57 16.19 19.76-7.06 19.56-16.19-7.38-13.41-11.09-14.66" class="cls-8"/><path d="M199.17 430.39c-3.56 0-6.45 2.18-6.45 4.87s2.89 4.87 6.45 4.87 6.44-2.18 6.44-4.87-2.88-4.87-6.44-4.87" class="cls-8"/><path d="M202.62 420.55v-42.22c-1.91-1.85-4.05-2-5.83 0v2.21a3.57 3.57 0 0 1-3.1 3.33h-12.52v5.79h5.59v4.86H181v6.54l12.73-.08c1.85 0 3.09 1.73 3.09 3.69v16c0 1.79-.09 3-2 3.56-4.64 1.43-10.5 4.57-10.5 10.81s6.64 11.28 14.83 11.28S214 441.26 214 435s-6.33-9.48-9.27-10.64q-2.19-.88-2.1-3.84Zm-9.9 14.71c0-2.69 2.89-4.87 6.45-4.87s6.44 2.18 6.44 4.87-2.88 4.87-6.44 4.87-6.45-2.13-6.45-4.87" class="cls-9"/><path d="M240.6 247.19a79 79 0 0 1 4.11 13.81c.4 2.3 2.74 2.89 5 3.15 23.17 2.67 39.67-6.85 54.62-20.05l7.83 7.06c-21.24 17.91-43.94 29.91-73.72 38.39-6.44-15.88-3.64-29.49 2.16-42.36" class="cls-4"/><path d="M311.63 278.52v338.73c24.23-11.35 48.91-25.2 71.83-43.68 21.71-17.49 43.49-48.72 43.26-67l.38-228Z" class="cls-2"/><path d="M368.53 430.39c-3.55 0-6.45 2.18-6.45 4.87s2.9 4.87 6.45 4.87 6.44-2.19 6.44-4.87-2.89-4.87-6.44-4.87" class="cls-10"/><path d="M365.07 420.55v-42.22c1.91-1.85 4.05-2 5.83 0v2.21a3.57 3.57 0 0 0 3.1 3.33h12.52v5.79h-5.59v4.86h5.71v6.54l-12.7-.06c-1.85 0-3.09 1.73-3.09 3.69v16c0 1.79.09 3 2 3.56 4.64 1.43 10.5 4.57 10.5 10.81s-6.64 11.28-14.82 11.28-14.83-5.08-14.83-11.34 6.34-9.48 9.27-10.64c1.47-.59 2.16-1.87 2.1-3.84Zm-4.91-44.16-.16 44.28c-3.7 1.25-10.88 5.46-11.07 14.58s8.76 16.19 19.57 16.19 19.57-7.25 19.57-16.19-7-13.39-12.12-15.11V405.7h12.46c1.83 0 3.26-.82 3.26-2.35v-22c0-1.83-1.07-2.77-2.92-2.77h-12.7v-1.93c-5.51-5.31-10.87-4.8-15.89-.26" class="cls-10"/><path d="M323.22 410.88a46.22 46.22 0 1 1 46.22 46.22 46.22 46.22 0 0 1-46.22-46.22m46.22-51.71a51.71 51.71 0 1 0 51.7 51.71 51.71 51.71 0 0 0-51.7-51.71" class="cls-1"/><path d="M369.44 364.66a46.22 46.22 0 1 0 46.22 46.22 46.22 46.22 0 0 0-46.22-46.22m-9.41 56 .13-44.28c5-4.54 10.38-5.05 15.9.34v1.93h12.7c1.85 0 2.92.94 2.92 2.77v22c0 1.53-1.43 2.35-3.26 2.35H376v14.44c5.17 1.72 12.12 6.18 12.12 15.11s-8.77 16.19-19.57 16.19-19.76-7.06-19.57-16.19 7.35-13.4 11.02-14.65Z" class="cls-9"/><path d="M365.11 378.33v42.22c.06 2-.63 3.25-2.1 3.84-2.93 1.16-9.27 4.4-9.27 10.64s6.64 11.28 14.83 11.28 14.82-5.05 14.82-11.28-5.86-9.38-10.5-10.81c-1.92-.58-2-1.77-2-3.56v-16c0-2 1.24-3.7 3.09-3.69l12.73.08v-6.54H381v-4.86h5.59v-5.79h-12.52a3.57 3.57 0 0 1-3.1-3.33v-2.21c-1.78-2-3.92-1.84-5.83 0Zm-3 56.93c0-2.69 2.89-4.87 6.45-4.87s6.44 2.18 6.44 4.87-2.88 4.87-6.44 4.87-6.48-2.13-6.48-4.87Z" class="cls-9"/><path d="M282.8 290.07h12.12c-4.92 4.34-6.83 9.85-7.54 15.47 5.19-.34 10-2.47 14.58-6.88v21.39c-4.58-3.44-9.17-7.2-15.93-6-1.62 14-2.16 30.22-3.3 45.4-1.15-15.18-1.66-31.37-3.29-45.4-6.76-1.19-11.35 2.57-15.92 6v-21.41c4.55 4.41 9.4 6.56 14.59 6.9-.72-5.62-2.49-11.12-7.41-15.46ZM282.8 375.24h12.12c-4.92 4.35-6.83 9.85-7.54 15.47 5.19-.34 10-2.46 14.58-6.88v21.4c-4.58-3.45-9.17-7.2-15.93-6-1.62 14-2.16 30.23-3.3 45.41-1.15-15.18-1.66-31.37-3.29-45.41-6.76-1.18-11.35 2.57-15.92 6v-21.41c4.55 4.41 9.4 6.55 14.59 6.89-.72-5.62-2.49-11.11-7.41-15.46ZM282.8 463.16h12.12c-4.92 4.35-6.83 9.85-7.54 15.47 5.19-.34 10-2.46 14.58-6.88v21.4c-4.58-3.45-9.17-7.2-15.93-6-1.62 14-2.16 30.23-3.3 45.41-1.15-15.18-1.66-31.37-3.29-45.41-6.76-1.18-11.35 2.57-15.92 6v-21.41c4.55 4.41 9.4 6.55 14.59 6.89-.72-5.62-2.49-11.11-7.41-15.46ZM282.8 552.38h12.12c-4.92 4.35-6.83 9.85-7.54 15.47 5.19-.34 10-2.47 14.58-6.88v21.4c-4.58-3.45-9.17-7.2-15.93-6-1.62 14-2.16 30.22-3.3 45.41-1.15-15.19-1.66-31.37-3.29-45.41-6.76-1.18-11.35 2.57-15.92 6V561c4.55 4.42 9.4 6.56 14.59 6.9-.72-5.62-2.49-11.11-7.41-15.46Z" class="cls-1"/><path d="m325.47 265.76-2.9-2.68-4.12 3.45 2.92 2.79zM308.78 271.02l-2.75-2.96-3.91 3.24h6.33zM307.86 266.55l2.71 2.97 4.09-3.43-2.89-2.78zM313.54 261.83l2.89 2.77 4.08-3.43-2.91-2.7zM319.53 256.87l2.89 2.7 4.28-3.6-2.87-2.66zM325.58 251.85l2.85 2.67 4.28-3.6-2.76-2.68zM331.84 246.67l2.76 2.66 3.96-3.33-2.67-2.68zM340.53 247.98l-3.92 3.29 2.62 2.53 3.8-3.31zM344.89 252.36l-3.77 3.26 2.49 2.39 3.68-3.24zM343.6 261.56l-3.86 3.56 2.88 2.69 3.78-3.52zM337.69 263.2l4-3.51-2.48-2.42-4.08 3.52zM327.32 264.15l4.22-3.67-2.79-2.6-4.29 3.6zM333.44 262.25l-4.24 3.66 2.62 2.45 4.21-3.7zM338.13 266.61l-4.11 3.8.95.89h3.9l2.14-2zM329.99 269.96l-2.64-2.45-4.14 3.58.23.21h5.03zM319.61 270.86l-2.93-2.83-3.89 3.27h6.31zM330.47 256.43l2.76 2.59 4.11-3.58-2.64-2.57zM349.04 256.53l-3.55 3.29 2.81 2.7 3.48-3.24z" class="cls-10"/><path d="M238.4 289.59a50.4 50.4 0 0 1-3.11-11.07h-4.62a52.2 52.2 0 0 0 5.4 18.06 172 172 0 0 0 18.6-6.37v-5.86c-5.14 1.87-10.67 3.65-16.27 5.24M258.66 282.86v5.7c7-3 14.58-6.58 21.61-10.2h-10.85c-3.32 1.49-7.26 3.14-10.76 4.5M228.26 125.85l1.79-31.59a20.5 20.5 0 0 1 14.89 6.74l-.07-24c-4.55 4.41-8.77 6.7-14 7.07 0-6 1.87-8.34 7.18-11.92h-23.380000000000003c5.49 3 8 5.49 8.15 11.57-5.92.16-9.66-2.56-14.21-7l.15 24.5c3.51-3.33 6.73-6.73 14.53-6.77l1.93 33.61a12 12 0 0 1 3.04-2.21" class="cls-1"/><path d="M286.16 125.44c7.32.22 15.78.87 25.16 1.82a4.6 4.6 0 0 0-2-2.23 14.8 14.8 0 0 0-5.11-1.55c-5.63-.94-8.36-3.89-9.52-7.85a23 23 0 0 1-.6-7.83l-.06.06-2.43 2.24a1.72 1.72 0 0 1-2.44-.1l-.14-.17a34 34 0 0 1-2.05-3.36q0 6.47-2.55 10.52c-2.25 3.61-5.9 5.72-10.93 6.26a11.2 11.2 0 0 0-3.7 1 3.8 3.8 0 0 0-1.4 1.06 1.5 1.5 0 0 0-.3.81 108 108 0 0 1 18.07-.68M241.45 106.29a196 196 0 0 1 9.93-3.54c3-1 5.94-1.84 8.93-2.61l.2-.82-7.19-.15a1.69 1.69 0 0 1-1.35-.6 1.73 1.73 0 0 1 0-2.23L245.35 98a1.5 1.5 0 0 1-.42 0v3a20.5 20.5 0 0 0-14.89-6.74l-.35 6.18a1.73 1.73 0 0 1 1.35.79c3.1 4.77 5.1 10.49 7.21 16.61a3.8 3.8 0 0 0 1.25-1.84 26.4 26.4 0 0 0 .84-7.92 1.72 1.72 0 0 1 1.11-1.79M249.85 42.32A63.7 63.7 0 0 0 270 39.74 62.3 62.3 0 0 0 289.23 30a9.64 9.64 0 0 0-2.47-5.11 9.7 9.7 0 0 0-4.82-2.49 55.7 55.7 0 0 1-18.06 8.6A44.1 44.1 0 0 1 247 32a21.9 21.9 0 0 0 .5 5.12 15.1 15.1 0 0 0 2.35 5.2M235.44 26.57a12.14 12.14 0 0 1 8.14.54 20.3 20.3 0 0 0-1.23-5.11 22 22 0 0 0-3.54-6.18c-4.88.51-7.71 2.5-9.07 5.49-1.15 2.54-1.35 5.84-.9 9.6a14.6 14.6 0 0 1 6.6-4.34" class="cls-10"/><path d="M250.49 13.56a7.63 7.63 0 0 1 10.54.23.74.74 0 0 1 .2 1c-1.41 1.91-3 3.42-5.63 3.51s-4.26-1.78-5.55-3.66c-.32-.46 0-.75.44-1.11Zm-3.73-7.34a14.8 14.8 0 0 0-5.27 7.41 25.6 25.6 0 0 1 4.1 7.13 23.4 23.4 0 0 1 1.53 7.75 40.8 40.8 0 0 0 15.91-.9 52 52 0 0 0 16.49-7.74c-2-6.19-5.12-10.24-8.77-12.75a23 23 0 0 0-13.26-3.67c-4.56-.04-8.08.91-10.73 2.77" class="cls-11"/><path d="M250.49 13.56a7.63 7.63 0 0 1 10.54.23.74.74 0 0 1 .2 1c-1.41 1.91-3 3.42-5.63 3.51s-4.26-1.78-5.55-3.66c-.32-.43.02-.72.44-1.08Z" style="fill-rule:evenodd;fill:none;stroke:#9e5b12;stroke-miterlimit:22.93;stroke-width:.58px"/><path d="M261 13.79a7.63 7.63 0 0 0-10.54-.23c-.42.36-.76.65-.44 1.11 1.29 1.88 3 3.75 5.55 3.66s4.22-1.6 5.63-3.51a.74.74 0 0 0-.2-1.03" class="cls-10"/><path d="M271 43.06a67.2 67.2 0 0 1-20.61 2.73 38.25 38.25 0 0 0 1.09 17.3 46.7 46.7 0 0 0 10 17.46 27.4 27.4 0 0 0 4.89 4.45 48 48 0 0 0 6.36 3.56c4.17 2 6.53 4.33 7.72 7.79a23 23 0 0 1 .87 8.48q.65-.82 1.26-1.65c.73-1 1.43-1.89 2.16-2.74a1.7 1.7 0 0 1 .31-.28 1.73 1.73 0 0 1 2.41.41 40 40 0 0 1 2.3 3.81c.34.61.68 1.23 1 1.82l.93-.85c1.36-1.25 2.79-2.55 4.18-3.87l.08-.08a1.74 1.74 0 0 1 2.44.21 36 36 0 0 1 2.16 2.92c0-.64 0-1.27.08-1.83a1.75 1.75 0 0 1 .82-1.4 1.73 1.73 0 0 1 2.38.56c.92 1.47 2.08 3.27 3.43 5.14a62 62 0 0 0 4.7 5.79 16.82 16.82 0 0 0 9.18 5.35 12.15 12.15 0 0 0 9.12-1.76c2-1.36 3.05-3.56 3.21-6.52.18-3.39-.77-7.72-2.73-12.92a1.7 1.7 0 0 1-.1-.44 1.74 1.74 0 0 1 1.55-1.89c1.14-.1 2.22-.19 3.33-.27l.86-.07c-.68-.66-1.4-1.33-2.12-2-1.75-1.64-3.49-3.29-4.83-4.78a1.4 1.4 0 0 1-.23-.32 1.73 1.73 0 0 1 .68-2.35c2-1.09 4.11-2.53 6.2-3.93l1.92-1.33c-12.36-3.61-18.71-8.51-23-14.2a17 17 0 0 0 .92 5.11 31.1 31.1 0 0 0 4.77 8.61 1.72 1.72 0 0 1-1.25 2.83c-8.41.4-14-3.78-19.17-8.18l.73 5.34v.21a1.72 1.72 0 0 1-1.7 1.74c-7.82.11-12.87-6.62-17.92-13.35l-.24-.32a1.73 1.73 0 1 1 2.76-2.07l.24.32c4 5.35 8 10.71 13.13 11.78l-1-7.69a1.73 1.73 0 0 1 2.9-1.48c.8.67 1.38 1.17 2 1.68 4.31 3.72 8.79 7.59 14.86 8.42a30.8 30.8 0 0 1-3.32-6.74 19.26 19.26 0 0 1-.71-10.68c-1-1.64-1.87-3.33-2.78-5.07-3.22 2.1-6 1.8-8.41.36-2.95 3.66-5.76 4.09-8.5 2.64a6 6 0 0 1-.58-.34c-3.51 3.44-6.72 3.7-9.63 2.08l-.08-.05a12.8 12.8 0 0 1-2.8 2.13 6.74 6.74 0 0 1-6.29.33 11.33 11.33 0 0 1-4.4-4c-.3-.44-.59-.9-.86-1.37a22 22 0 0 0 5.75 15.72c4.74 5.17 11.95 8.62 19.4 11.9a1.73 1.73 0 0 1-1.4 3.16c-7.78-3.42-15.33-7.05-20.54-12.74s-8.08-13.6-6-25.15a1.73 1.73 0 0 1 3.36-.18 24.8 24.8 0 0 0 3.14 6.69 8 8 0 0 0 3 2.8 3.51 3.51 0 0 0 3.23-.22 8.5 8.5 0 0 0 1.76-1.31 29.5 29.5 0 0 1-4.37-6.84 1.72 1.72 0 0 1 3.1-1.51c1.42 2.9 3 5.47 4.72 6.92l.12.09a6 6 0 0 0 .84.57c1.49.83 3.26.6 5.38-1.38a39.5 39.5 0 0 1-3.77-5.46 1.72 1.72 0 1 1 3-1.77 28.8 28.8 0 0 0 4.27 5.87l.06.05.12.12a5.8 5.8 0 0 0 1.12.79c1.2.64 2.57.26 4.24-1.81a28 28 0 0 1-4.2-6.54 1.73 1.73 0 1 1 3.11-1.5c1 2 2.57 5.08 4.67 6.78 1.52 1.23 3.45 1.68 5.82.09-3.37-6.35-7.51-13.15-16.5-19.84A65.9 65.9 0 0 1 271 43.06" class="cls-11"/><path d="M251.82 14.37a17.3 17.3 0 0 0 7.79-.08c-1 1-1.73 1.17-3.57 1.27a6.43 6.43 0 0 1-4.22-1.19" style="fill-rule:evenodd;fill:#ac0e00"/><path d="m266.88 193 7.07-.38c7.78 17.15 15.12 34.53 20.86 52.71-13.58 10.59-28.37 16.27-45.26 13.37-1.08-10.18-6-19.11-11.43-27.9-9.69-15.6-23.19-29.64-34.9-41.45 6.43 1.05 12.87 1.93 19.3 3 17.32 18.77 31.68 38 42.12 57.77-2.91-17.94-10.66-37-20.44-56.43l12.89-.2c8.23 10.7 14.5 21.94 18.15 33.9-.24-12.77-3.76-23.85-8.36-34.39" class="cls-4"/><path d="M503.82 172.51c-20.55 37.32-52.58 63.68-91.06 83.88 24.82-6.42 42.38-6.59 55.39-2.83-6-7.12-13.73-9.55-22.16-10.16 34.56-20.66 52.61-44.53 57.83-70.89M283.4 271.3c-.81.46-1.63.91-2.45 1.35-3.85 2.08-7.85 4-11.91 5.87zm-.66 7.22h24.57v340.73c-8.3 3.8-16.53 7.32-24.6 10.65-7.86-3.24-15.87-6.67-23.95-10.35v-331l-4.31 1.78V617.6c-24.44-11.41-49.35-25.34-72.49-44-21.7-17.49-43.48-48.72-43.25-67l-.39-228h96.94a45 45 0 0 1-.56-7.22H131.12l.4 235.22c-.19 17.55 14.83 39.72 25.71 52.64a150 150 0 0 0 20.23 20c31 25 65.89 42.28 102.53 57.38l2.75 1.13 2.75-1.13C322.13 621.47 357 604.2 388 579.19a149.7 149.7 0 0 0 20.24-20c10.88-12.92 25.9-35.08 25.71-52.63l.39-235.22H302.12l-19.38 7.22Zm28.89 0h115.49l-.38 228c.23 18.29-21.55 49.52-43.26 67-22.92 18.48-47.6 32.33-71.83 43.68ZM402.91 256.54c13-16.07 23.84-33.21 24-55 .12-16.37-7.49-26.68-16.95-35.3C417.6 177 421 190.7 419.26 208c-1.26 12.17-6.53 28.18-16.35 48.54M102.93 411.52c4.86-24.87 1.24-56.41-27.38-88.24-13.95-15.52-28.87-38.36-29.4-58.73-.69.41-1.38.82-2.07 1.25 0 15.29 6 30.85 13.29 43.17 6.34 10.75 12.66 16.3 16.24 20.54 17.28 20.43 30.03 49.42 29.32 82.01" class="cls-1"/><path d="M112.44 133.17c3.44 1.54 9.6.69 16.87-1.78a110 110 0 0 0 25.55-13.17h.06l.2-.13.18-.13a66 66 0 0 0-3-8.7C147.45 98 140.13 90 132.25 85.3s-16-6.16-22.79-4.45a21 21 0 0 0-3.13 1.05c-.61.27-.59 1.53-.29 3.14a37 37 0 0 0 2.79 7.86 2.3 2.3 0 0 1-1.13 3 2.1 2.1 0 0 1-.8.2l-1 .07c-7.51.55-18.59 1.35-18.11 9.86.41 7.37 5 8.72 10.47 8.41a76 76 0 0 0 8-1.06l3-.49a2.31 2.31 0 0 1 2.63 1.94 2.5 2.5 0 0 1 0 .86c-.2 1.16-.42 2.23-.64 3.33-1.17 5.92-2.48 12.5 1.19 14.15" class="cls-14"/><path d="M41.26 312.62c-7.64 12.74-13 28.36-14.08 49.25a69.6 69.6 0 0 0 12 3.61 63 63 0 0 1-2.45-15.27c-.91-.14-1.87-.33-2.89-.57a2.31 2.31 0 1 1 1.06-4.49c.61.14 1.19.26 1.74.35q.08-14.41 4.62-32.88M46.49 237.22c18.84-7.86 40.32-11 62.83-12.35a15.2 15.2 0 0 1-.93-2.88 19.4 19.4 0 0 1-.47-3.56c-21.74.94-42.54 5.83-61.43 18.79M49.31 148.38c25.79 14.52 48.16 33.45 68.24 55.3a38.6 38.6 0 0 1 7.22-2.79c-21.4-23.14-45.09-42.83-75.46-52.51M86 414.13a39.1 39.1 0 0 0-21.27 15.57c7.49-5.94 14.81-8.45 22.08-10.1-.25-1.84-.53-3.67-.81-5.47M508.53 271.26c1.91 25.91-5.33 49.18-20.34 68.05C479 350.87 472 364 469.66 376.48a458 458 0 0 1 26.47-38.54c12.47-16.29 20-34.63 18.63-56.3a101 101 0 0 0-6.23-10.38" class="cls-3"/><path d="M120 333.52c2.1-1.63 3.69-4.32 4.14-8.81C125.9 307 107 302.17 94.22 298.9c-2.35-.6-4.51-1.15-6.44-1.75a2.27 2.27 0 0 1-1.16-.83 2.3 2.3 0 0 1 .47-3.22 27 27 0 0 0 9.2-12.27A45.8 45.8 0 0 0 99 267.12a53.9 53.9 0 0 1-18.58 3.95 27.7 27.7 0 0 1-8.36-.93 11 11 0 0 1-6.26-4.22 8.57 8.57 0 0 1-1.4-4.69v-.06a10.54 10.54 0 0 1 1.26-5.41 105.3 105.3 0 0 0-19 8.53l-.48.27c.53 20.37 15.45 43.21 29.4 58.73 28.62 31.83 32.24 63.37 27.38 88.24.71-32.59-12-61.58-29.32-82-3.58-4.24-9.9-9.79-16.24-20.54-7.26-12.32-13.31-27.88-13.29-43.17a83.4 83.4 0 0 0-19.92 17l-.07.08a91.6 91.6 0 0 0-12.75 19.65 51.5 51.5 0 0 0-5 21.14c-.19 15.43 3.66 25 9.89 31.12a34 34 0 0 0 11 7c1.11-20.89 6.44-36.51 14.08-49.25q-4.53 18.45-4.65 32.88c7.91 1.35 10.39-2.27 13.2-6.34.49-.71 1-1.44 1.38-2a2.3 2.3 0 0 1 4.1 1.91 43.3 43.3 0 0 0-1.13 9.49 45 45 0 0 0 2.46 15.92c1.57 4.18 3.84 7.28 6.77 8a5.09 5.09 0 0 0 5.3-1.77A16.1 16.1 0 0 0 72 364a2.3 2.3 0 0 1 4.44-.2c1.2 3.67 1.83 5.58 2.47 7.49 2 5.94 3.91 11.8 5.69 17.72l.06.2c5.4 18 9.28 36.45 7.75 58.93 9.34-13.68 20.35-31.83 26.58-50.19 7.22-21.28 8-42.85-8-57.73a2.31 2.31 0 0 1 1.26-4 16.1 16.1 0 0 0 7.75-2.7M426.89 201.54c-.14 21.79-11 38.93-24 55 9.82-20.36 15.11-36.37 16.35-48.59 1.74-17.25-1.66-31-9.32-41.71 9.46 8.62 17.07 18.93 16.95 35.3Zm-38.66 16.83c7.23 1.73 9 6.64 8.19 12.42-.74 5.2-3.9 11.07-6.74 15.49a30.8 30.8 0 0 1 1.57 12.77 38.3 38.3 0 0 1-3.43 12.25h46.53v24.92a2.3 2.3 0 0 1 1.31.42 31.8 31.8 0 0 0 7.13 3.48 41 41 0 0 0 5.91 1.65 40.9 40.9 0 0 1 .54-12.54c1-4.35 3.11-7.54 6.42-9.52a2.32 2.32 0 0 1 2.76.29c.59.56 1.23 1.12 1.91 1.69a45.6 45.6 0 0 0 19.07 9.37c6 1.24 11.43.65 14.35-2.46l.31-.36a9.6 9.6 0 0 0 1-1.52c1.77-3.2 2.72-8.18 2-13.46a23.77 23.77 0 0 0-8.44-15.08 27.6 27.6 0 0 0-4.26-2.89 2.3 2.3 0 0 1 .23-4.15 10.8 10.8 0 0 1 2.82-.74c4.26-.5 9 1.55 13.64 5.39l.81-.29c12.3-4.28 27.72-9.66 28-18.46v-.11c0-3.52-3.42-5.91-8.09-7.49-5.34-1.82-12.11-2.54-17.61-2.7h-1.36a2.29 2.29 0 0 1-2.28-2.32 2.1 2.1 0 0 1 .09-.61 21.6 21.6 0 0 1 5.47-9.46 24.5 24.5 0 0 1 13.85-6.61 36.4 36.4 0 0 1 15.22 1.07 29.2 29.2 0 0 1 10 4.9c2.9-3.17 4.37-8 4.81-13.28.68-7.87-.94-16.41-3.49-21.57a18.34 18.34 0 0 0-9.8-8.88c-4.58-1.89-10.35-2.57-17.11-1.88a2.3 2.3 0 0 1-2.52-2.06v-.17c-.28-6.82-1.4-12-3.15-15.39-1.55-3-3.55-4.58-5.81-4.56-11.56.09-24.43 15.66-38.1 32.2l-2.98 3.47a2.31 2.31 0 0 1-4.05-1.2l-.23-1.9c-1.4-11.72-3.62-30.15-10.73-31.18-1.86-.26-3.7 2.09-5.37 5.34a89 89 0 0 0-4.9 13.08 2.31 2.31 0 0 1-2.89 1.52 2.34 2.34 0 0 1-1.44-1.31 32.6 32.6 0 0 0-10-11.66c-3.72-2.64-7.8-4.18-11.59-3.89a36.5 36.5 0 0 0-14.82 4.35 58.9 58.9 0 0 0-12.2 9.09 2.31 2.31 0 0 1-3.88-1.77c-.34-15.79.77-30.68 4.51-43.82l-11.7-4.53c-7.24 13.35-8.6 25.68-6.77 37.45s7 23.35 12.56 34.75a9 9 0 0 1 6.44 1.5c3.55 2.52 4 8.68 2.65 15.87a89.4 89.4 0 0 1-4.32 15.09Zm24.53 38c24.82-6.42 42.38-6.59 55.39-2.83-6-7.12-13.73-9.55-22.16-10.16 34.56-20.66 52.61-44.53 57.83-70.89-20.55 37.34-52.58 63.7-91.06 83.9ZM480.57 416.9c-4.87-1.3-9.11-4.86-13.16-9.09a54.4 54.4 0 0 1-7.83 6.11 41.5 41.5 0 0 0 5.49 11.58 40.4 40.4 0 0 0 9.93 10.41c7.89 5.54 12.87 11.29 15.36 17.54a27.94 27.94 0 0 1 1.55 14.94 21.65 21.65 0 0 0 6.51-8.1 24.14 24.14 0 0 0 1.66-14.38 66.4 66.4 0 0 0-5-15.3 2.31 2.31 0 0 1 .15-2.36l.35-.52c3.45-5 6.91-10.06 2.46-16.48-6.47 5.82-12.19 7.05-17.47 5.65" class="cls-14"/><path d="M135.17 198.85c3-15.32 9.52-28.61 20-37.94 9.24-8.26 21.52-13.38 37.15-14a22 22 0 0 0-8.86-6.64c-4.79-1.91-11-2.37-19.1-.75a2.3 2.3 0 0 1-1 0 2.3 2.3 0 0 1-1.83-2.7 18.3 18.3 0 0 0-.37-9.49 14.1 14.1 0 0 0-3.46-5.44c-18.68 14-22.49 24.79-25.53 33.41-.47 1.32-.91 2.59-1.4 3.84a2.2 2.2 0 0 1-.45.79 2.3 2.3 0 0 1-3.26.23l-.28-.25c-4.93-4.28-9.85-8.57-14.47-10a38.8 38.8 0 0 0-1.8 8.61 95 95 0 0 0-.33 11 2.31 2.31 0 0 1-3.33 2.07A64.1 64.1 0 0 1 80 146.27 66.6 66.6 0 0 1 71.61 113a20.5 20.5 0 0 0-8 5.57 55 55 0 0 0-8.55 13.49 2 2 0 0 1-.28.45 2.31 2.31 0 0 1-3.24.36A85 85 0 0 0 39 124.12c-4-2.12-7.84-3.36-11.34-2.88-11 1.51-16.73 10.32-19.72 21.09-2.51 9-3.13 19.45-3.28 28.34a30.7 30.7 0 0 1 19.71-9.25c10.82-.92 22.19 3.35 31.58 9.28l.22.16a2.3 2.3 0 0 1 .34 3.24c-2.07 2.54-4.44 5.21-6.88 7.94-7.16 8.05-14.9 16.77-13.77 19.55.78 2 8.94-1.25 16.56-4.27l1.42-.55c1.19-.47 2.61-1.18 4.11-1.92 5.73-2.84 12.4-6.15 16.15-1.7a15 15 0 0 1 2.36 3.77 10.12 10.12 0 0 1 .13 7.73 16 16 0 0 1-4.87 6.35 39.5 39.5 0 0 1-10.26 6c-13.25 5.47-22.46 13.75-28.28 24-5.68 9.9-8.3 21.65-8.53 34.49a90.8 90.8 0 0 1 19.68-15.16 116.9 116.9 0 0 1 31.12-12.14 2.31 2.31 0 0 1 2 4.14c-.69.43-1.39.84-2.11 1.25-3 1.73-6.35 3.64-6.3 7.6a4.2 4.2 0 0 0 .64 2.23 6.55 6.55 0 0 0 3.74 2.35 23.3 23.3 0 0 0 7 .75c7.4-.16 15.94-2.54 20-5.2a2.2 2.2 0 0 1 .58-.31 2.31 2.31 0 0 1 2.82 1.64c2.1 7.88 4.67 15.28 9.14 21a27 27 0 0 0 9.48 7.67 19.1 19.1 0 0 1-3.27-7.78c-.94-5.13 0-10.78 2.57-16.36a42 42 0 0 1 3-5.5 2.31 2.31 0 0 1 4.12.24c2.93 6.83 6.75 9.33 11.23 8.71 3.59-.49 7.69-2.75 12.18-6.3a2.2 2.2 0 0 1 .86-.74l.13-.06c1.54-1.26 3.12-2.67 4.74-4.21a2.3 2.3 0 1 1 3.16 3.34q-2 1.93-4 3.61c2.14 3.35 4.82 4.57 7.34 4.76a14.65 14.65 0 0 0 7.28-1.61c.27-.13.51-.26.71-.37 5.92-3.36 10.59-6.56 15.09-9.65 2.17-1.48 4.29-2.93 6.64-4.46a2.31 2.31 0 0 1 3.37 2.84 7.7 7.7 0 0 0-.43 5.43 9 9 0 0 0 3.49 4.46 15.34 15.34 0 0 0 6.27 2.53 12.92 12.92 0 0 0 9.1-1.54 49.3 49.3 0 0 0 11.59-10.86 70.7 70.7 0 0 0 9.3-15.59 2 2 0 0 1 .32-.54c.2-.46.39-.91.6-1.36a173.5 173.5 0 0 0-25.33-34.84 32.6 32.6 0 0 1-6.13 13.86c-3.2 4.14-7.42 7.19-12.2 7.63-3.15.28-5.45-1.17-7.43-3.76a26.6 26.6 0 0 1-2.49-4.1 79 79 0 0 1-9.59 14.51c-3.68 4.19-7.73 7.09-11.72 6.79h-.3c-10.42-1.72-10.79-9.32-10.62-24.47a72 72 0 0 1-16.44 11.28 40.5 40.5 0 0 1-13.22 4.24c-4.52.46-8.48-.5-11.18-3.54a11.2 11.2 0 0 1-1.86-2.9c-22.51 1.34-44 4.49-62.83 12.35 18.89-13 39.69-17.85 61.43-18.79-.24-6.1 2.79-10.5 7.74-13.66.6-.38 1.23-.74 1.89-1.09-20.08-21.85-42.45-40.78-68.24-55.3 30.37 9.68 54.06 29.37 75.46 52.51a71 71 0 0 1 10.4-2.17M74.55 391.78c-13.12-.29-34.35.7-34.64 13.72a12.47 12.47 0 0 0 2 7 19.2 19.2 0 0 0 6.34 6 2.3 2.3 0 0 1 .75 3.17 2.25 2.25 0 0 1-.63.67 52.2 52.2 0 0 0-12.08 11.55 31.6 31.6 0 0 0-5.83 12.58 13.7 13.7 0 0 0-.23 2.63 19.15 19.15 0 0 0 3.84 10.9 18.5 18.5 0 0 0 3.63 3.7 26.25 26.25 0 0 1 5.1-15.43 2.5 2.5 0 0 1 .2-.27c4.07-5.16 10.27-8.49 18.22-10.14l.22-.05a2.3 2.3 0 0 1 2.66 1.88c1.47 8.45 3.4 18.78 7.91 26.66 3.84 6.65 9.63 11.65 18.84 12.19a46 46 0 0 1-3.28-10.3 45.2 45.2 0 0 1-.63-11.63 2.2 2.2 0 0 1 0-.44 138.7 138.7 0 0 0-.18-36.57c-7.27 1.65-14.59 4.16-22.08 10.1A39.1 39.1 0 0 1 86 414.13 200 200 0 0 0 80.66 392c-1.74-.07-3.87-.17-6.11-.22M442.49 348.23c0 3.67 1 6.13 2.73 7.8a14.43 14.43 0 0 0 7.27 3.32 2.2 2.2 0 0 1 .77.31 2.31 2.31 0 0 1 .71 3.18 82 82 0 0 0-7.82 15.7 85.5 85.5 0 0 0-4.23 16.31 108 108 0 0 0-1.27 19.15c.07 3.66.28 7.35.58 11.17 4.2-6.93 9.35-10.67 14.29-14l.24-.17.65-.44c7.11-4.84 13.58-9.24 14.95-23.52a2.24 2.24 0 0 1 .73-1.47 2.28 2.28 0 0 1 3.24.12 24.4 24.4 0 0 0 5.61 4.64 8.84 8.84 0 0 0 4.49 1.36c1.94-.06 3.84-1.51 5.43-4a29.7 29.7 0 0 0 3.76-12 2.4 2.4 0 0 1 .14-.57 2.32 2.32 0 0 1 3-1.31 29.4 29.4 0 0 1 11.54 8.58 36.75 36.75 0 0 1 7.07 13.53c1.06 3.72 2.42 6.75 3.83 8.38a3.4 3.4 0 0 0 .92.8h.11a.8.8 0 0 0 .24-.16c3-2.63 5.07-7.51 5.32-13.68a40.3 40.3 0 0 0-4.4-19.12 2.3 2.3 0 0 1 2.62-3.24c8.16 2 14.87 1.22 20.29-1.92s9.56-8.63 12.7-15.98c-7.48-4-14.69-8.14-20.48-13.52-6.44-6-11-13.4-12.26-23.56a90.8 90.8 0 0 0-6.49-23.6c-1.23-3-2.59-5.86-4-8.65 1.37 21.67-6.16 40-18.63 56.3a458 458 0 0 0-26.47 38.54c2.33-12.51 9.33-25.64 18.52-37.2 15-18.87 22.25-42.14 20.34-68.05a72 72 0 0 0-5.28-6.81 49 49 0 0 0-4.16-4.23l-.23-.21a25 25 0 0 0-5.75-3.95 28.3 28.3 0 0 1 8.45 16.55c.91 6.3-.28 12.35-2.48 16.33a14 14 0 0 1-1.5 2.24l-.51.58c-4.13 4.4-11.1 5.36-18.64 3.81a50.25 50.25 0 0 1-21.08-10.33l-.69-.59a10.83 10.83 0 0 0-3 5.63c-.81 3.46-.83 8-.19 13.44a2.27 2.27 0 0 1-.78 2l-.37.33-.13.12a14.9 14.9 0 0 0-3.07 3.86 10.84 10.84 0 0 0-1.05 7.59 16.2 16.2 0 0 0 3.66 7 18.9 18.9 0 0 0 5.11 4.17 2.3 2.3 0 0 1-.55 4.26c-4.75 1.15-8.23 3-10.49 5.55a13.9 13.9 0 0 0-3.31 9.63M369.89 254.31a64 64 0 0 0-2.12-20.62c-.55-2.06-.95-3.47-1.35-4.9-2.91-10.43-6-21.56-6.09-35.14a2.3 2.3 0 1 1 4.6 0c.06 12.94 3.09 23.77 5.93 33.92.53 1.88 1.05 3.74 1.37 4.94a68.8 68.8 0 0 1 2.26 22.11A40.5 40.5 0 0 1 370 271.3h13a2.35 2.35 0 0 1 .21-1 34.7 34.7 0 0 0 3.46-11.7 26.5 26.5 0 0 0-1.7-11.86 2.32 2.32 0 0 1 .24-2.07c2.72-4.1 6-9.81 6.66-14.56.49-3.46-.69-6.4-5.38-7.42-.92 2.13-1.85 4.11-2.77 5.84a2.31 2.31 0 1 1-4.08-2.15c1.08-2 2.19-4.44 3.25-7l.08-.19a88.3 88.3 0 0 0 5.03-16.72c1-5.52 1-10-.79-11.3-1.38-1-3.28-.87-5.32-.21a25.7 25.7 0 0 0-6.18 3.25v.4a52 52 0 0 1-1.09 10.76 2.3 2.3 0 1 1-4.51-.92 48.6 48.6 0 0 0 1-9.8v-1.6600000000000001a22.8 22.8 0 0 0-2.23-9.28 9.47 9.47 0 0 0-6.63-5.21 12 12 0 0 0-2.61-.24 9 9 0 0 0-1.25.1c-3 .42-4.85 2.38-6 5.16-1.34 3.19-1.78 7.39-1.74 11.69a76.5 76.5 0 0 0 .8 9.91v.34a2.3 2.3 0 0 1-2.32 2.29 13.4 13.4 0 0 1-3.43-.6 11.4 11.4 0 0 0-2.32-.45 2.6 2.6 0 0 1-.39 0c-.2 1.09-.42 2.19-.64 3.3-1.1 5.3-2 19.79 7 26.56 10.07 7.55 13.61 18.88 4.29 34.77h11.42a2.27 2.27 0 0 1 .35-1.22c2.69-4.35 4.07-9.92 4.48-15.8M389.41 157.09a55.7 55.7 0 0 1 9.35-6.41 41 41 0 0 1 16.65-4.89 16.8 16.8 0 0 1 3.68.12c4.32-.19 10.37-1.12 14.67-3.32 2.66-1.36 4.58-3.19 4.66-5.58v-.21c.35-2.71-2-5-4.52-7.54l-1.1-1.1q-.69-.69-1.23-1.35a12.08 12.08 0 0 1-3.26-7.92 10.83 10.83 0 0 1 3.65-7.66c.33-.32.67-.64 1-.94a2.31 2.31 0 0 1 2.56-.41c8 3.75 15.37 6.61 20.94 7.58 4.62.8 7.8.29 8.69-2.23 2.51-7.15-6-13.48-13.16-18.76l-1.45-1.08-.21-.18a2.31 2.31 0 0 1-.08-3.26c3-3.12 5-5.5 6.1-8.58 1-2.77 1.33-6.28 1.05-11.62-28.27 2.83-45.42 13.43-55.38 29-9.56 14.93-12.64 34.58-12.61 56.34" class="cls-6"/><path d="M471.16 565.45a86.2 86.2 0 0 0 8.84-17.74c-6.15-3.43-12.52-7.19-18.67-10.63 3.42-2.51 7.76-7.43 6.52-12.31-1.82-7.2-19.09-5.3-23.87-3-8.78 4.12-16.78 12.56-13.45 22.21.86 2.5 8.61 1 11.2-.63 8.34 8.82 18.4 15.95 29.43 22.1M75.88 540.21l20-12.1c-10.06-2.33-16-8.22-18.81-17.94 9.54-8.16 40.69-7.37 49.12 5.46 5.06 7.72 3.92 14-1.06 21.2a63 63 0 0 1-10.13-1.65 233 233 0 0 1-21.52 17.5c-4.42-6.44-9.28-12.17-17.6-12.47" class="cls-15"/><path d="M45.07 466.29c3.17 0 5.45-.59 7-1.67a7.23 7.23 0 0 0 2.7-4.77c.21-1.07-.64-2.65-2.44-4.23a17.75 17.75 0 0 0-6.64-3.47c-2.34 3.59-3.52 8.17-3.36 13.8.22.05.45.11.68.15a10.5 10.5 0 0 0 2.06.19M7.82 187.46a12.34 12.34 0 0 0 7 3.92c.65-4.33 1.44-8.67 2.47-13a112 112 0 0 1 3.43-11.72c-5.91 1.4-11.47 4.84-16.1 11.16.12 3.92 1.16 7.24 3.2 9.64M139.38 201.35a2.29 2.29 0 0 1-2 1.89c-7.49.81-14.53 2.42-19.23 5.41-4.22 2.69-6.49 6.63-5.23 12.36a8 8 0 0 0 1.72 3.69c1.6 1.8 4.2 2.34 7.29 2a36 36 0 0 0 11.63-3.79c8.1-4 15.89-10.14 19-14.5a2.3 2.3 0 0 1 4.18 1.34v3.88c-.18 13.93-.27 20.86 6.67 22.05 2.3.13 5.1-2.08 7.87-5.24 4.58-5.22 8.77-12.86 11-17.73a2.3 2.3 0 0 1 4.19 0 42.3 42.3 0 0 0 4 7.55c1 1.32 2.07 2.08 3.34 2 3.37-.3 6.5-2.65 9-5.86a27.13 27.13 0 0 0 5.36-13.4 2.27 2.27 0 0 1 .68-1.43l-1.7-1.67c-4-3.85-8-7.54-11.88-11.32a2.3 2.3 0 0 1-1.77.68c-6.29-.37-11.56-1.81-15.23-4.52a13.45 13.45 0 0 1-5.6-11.6c.07-4.24 2.28-9 6.38-13.77a55 55 0 0 1 8-7.47c-11.91 1.42-21.46 5.83-28.84 12.42-10.02 8.96-16.13 21.97-18.83 37.03M455.6 416.68a36.17 36.17 0 0 0-13.7 17.65 26.9 26.9 0 0 0-.53 11.24 8 8 0 0 0 3.72 5.57 9.43 9.43 0 0 0 8.64.25c3.3-1.38 6.73-4.11 10.23-7.65a2.31 2.31 0 0 1 2.82-.48 30.8 30.8 0 0 1 5.23 3.56c3.87 3.3 5.92 7.1 6.35 11.29s-.71 8.44-3.21 13a44 44 0 0 1-2.73 4.31 49.3 49.3 0 0 0 14.11-3.8c1.61-6 1.57-11.42-.44-16.46-2.16-5.39-6.61-10.47-13.75-15.48a45.4 45.4 0 0 1-11.1-11.62 46.8 46.8 0 0 1-5.64-11.38" class="cls-14"/><path d="M266.32 98.72c1.8-2.26 3.7-4.49 5.72-6.65l-.83-.42a52 52 0 0 1-6.81-3.83c-.4-.28-.78-.56-1.15-.85a19.8 19.8 0 0 1-6 1.66 34 34 0 0 1 3.46 1.8 1.73 1.73 0 0 1 .58 2.38 1.8 1.8 0 0 1-.38.44l-1 .82-.18.15-1.86 1.59 4.91.1a1.73 1.73 0 0 1 1.69 1.76 2 2 0 0 1 0 .41c-.41 1.52-.82 3.09-1.1 4.61q1.4-2.01 2.95-3.97" class="cls-11"/><path d="m228.26 125.85 1.16-20.6.28-4.81.35-6.18a20.5 20.5 0 0 1 14.89 6.74V77.05c-4.55 4.41-8.77 6.7-14 7.07 0-6 1.87-8.34 7.18-11.92h-23.45c5.49 3 8 5.49 8.15 11.57-5.92.16-9.66-2.56-14.21-7l.15 24.5c3.51-3.33 6.73-6.73 14.53-6.77l1.93 33.61a19 19 0 0 1 3.04-2.26" class="cls-1"/><path d="M180.24 611.56C157 596.1 134 578.46 110.43 544.32a254.6 254.6 0 0 1-39.36 30c44.6 90.35 141.11 117.27 211.67 116.19 72.94 0 157.1-26.11 206-112.38-16.84-4.76-31.34-14.79-44.92-26.89-15.94 23.29-36.09 44.21-59.84 58.84-32.47 20-70.1 29.11-101.25 29.17s-71.55-7.08-102.49-27.69" class="cls-15"/><path d="m435.64 612.11 5.36-4.98 4.99 5.25-5.46 4.99zM90.35 566.88l4.51 6.37a8.46 8.46 0 0 0-2.32 3.75 5.4 5.4 0 0 0 1.13 4.17A6.44 6.44 0 0 0 95.9 583a3.31 3.31 0 0 0 3.57-.34 3.25 3.25 0 0 0 1.31-3 11.6 11.6 0 0 0-1-4.66c-1.51-3.59-2-5-1.67-7.17s.77-4 2.7-5.47a7.4 7.4 0 0 1 4-1.49 8.5 8.5 0 0 1 4.9 1c1.64.87 2.49 1.64 4.23 4a13.48 13.48 0 0 1 2.75 7.9 8 8 0 0 1-3.54 7.29l-4.34-6a5 5 0 0 0 1.63-2.9 4.28 4.28 0 0 0-.88-3 3.28 3.28 0 0 0-1.92-1.4 2.22 2.22 0 0 0-1.82.41 2.43 2.43 0 0 0-.82 1.27c-.18.58-.34 1 .22 2.42a38.6 38.6 0 0 1 2.38 7.94 10.5 10.5 0 0 1-.36 5.08 6.9 6.9 0 0 1-2.77 3.23 9.73 9.73 0 0 1-5.47 1.72 8.5 8.5 0 0 1-5-1 14.5 14.5 0 0 1-5-4.47 13.16 13.16 0 0 1-2.89-9.65 12.48 12.48 0 0 1 4.24-7.83M132.09 591.59l5.68 5.94L126 608.84a12.9 12.9 0 0 1-3.71 2.6 9.15 9.15 0 0 1-4.25.85 11.1 11.1 0 0 1-4.09-.8 16.4 16.4 0 0 1-5.11-3.28 27 27 0 0 1-2.93-3.47 10.5 10.5 0 0 1-1.71-3.74 8.9 8.9 0 0 1-.21-3.64 8.4 8.4 0 0 1 1-3.52 13.1 13.1 0 0 1 2.8-3.46l12.1-11.38 5.5 5.65-12.06 11.55a3.58 3.58 0 0 0-1.1 3.12 4.92 4.92 0 0 0 4.83 4.95 3.34 3.34 0 0 0 3-1.09ZM271.68 652.29l8.23.24-.28 16.63a11.4 11.4 0 0 1-1 4.41 9.55 9.55 0 0 1-2.58 3.6 14 14 0 0 1-4.6 2.29 19.4 19.4 0 0 1-5.64.79 15 15 0 0 1-4.83-.69 13.3 13.3 0 0 1-3.34-1.33 7.6 7.6 0 0 1-2.58-2.77 10.2 10.2 0 0 1-1.33-3.07 18 18 0 0 1-.54-4.84l.51-16.15 8.42.39-.56 16.52a5.64 5.64 0 0 0 1.43 3.83c.81.92 2 1.07 3.55 1.16a4 4 0 0 0 3.25-1.17 3.8 3.8 0 0 0 1.44-3.13ZM139.82 599.97l19.07 15.68-4.46 5.32-6.36-5.4-12.97 15.28-6.3-5.3 13.07-14.81-6.66-5.6zM160.32 616.59l20.86 13.75-3.8 5.71-6.92-4.76-11.39 16.75-6.62-4.75 11.27-16.13-7.46-5.19zM325.5 648.4l23.98-7.03 2 6.4-8.13 2.38 5.58 19.51-7.8 2.33-5.59-19.5-8.04 2.3zM175.24 643.34c1.84-4.17 4.07-6.9 7.36-8.35a14.38 14.38 0 0 1 11.68-.28 14.18 14.18 0 0 1 7.84 8.66c1.07 3.3.16 6.89-1.68 11a16.7 16.7 0 0 1-4.62 6.1 12.84 12.84 0 0 1-5.57 3.23 13.54 13.54 0 0 1-8.35-.75 18.6 18.6 0 0 1-6.5-5.14c-1.48-1.75-1.79-4.08-1.89-6.6a16.8 16.8 0 0 1 1.73-7.86Zm6.86 3c-1.14 2.58-1.39 4.87-.92 6.42a5.87 5.87 0 0 0 3.3 3.71 6 6 0 0 0 5-.15c1.42-.69 3.06-2.45 4.33-5.31 1.06-2.4 1.41-4.59.93-6.13a6.64 6.64 0 0 0-3.44-3.92 6.38 6.38 0 0 0-5.07.21c-1.45.69-2.98 2.56-4.13 5.16ZM207.79 641.64l8.48 2.31 5.8 16.92 4.12-13.91 8.1 2.34-7.56 26.14-8.1-2.34-6.49-15.71-3.85 12.72-8.06-2.33zM284.52 652.13l7.84-.16 11.09 13.54-.98-14.31 8.27-.4 1.22 26.72-7.26.46-11.27-12.29.35 13.48-8.07.15zM314.18 650.38l8.22-1.55 4.61 26.19-8.22 1.55zM353.04 640.23l19.55-8.61 2.38 5.67-12.57 5.51 1.86 4.21 11.56-5.07 2.38 5.38-11.57 5.07 1.85 3.94 12.97-5.69 2.37 5.38-19.95 8.78zM376.17 629.55l8.64-5.28a11.36 11.36 0 0 1 5.06-1.61 13.36 13.36 0 0 1 9.94 3 19.6 19.6 0 0 1 3.42 4.18 15 15 0 0 1 2.25 6.67 14.1 14.1 0 0 1-.1 4.91 8.05 8.05 0 0 1-2 3.52 16.7 16.7 0 0 1-2.38 1.86l-11.73 6.76-13.05-24Zm9 1.6 8.09 13.53 1.88-1.12a8.2 8.2 0 0 0 3.06-2.75 4.8 4.8 0 0 0 .53-2.64 11.14 11.14 0 0 0-1.39-5.32 7.62 7.62 0 0 0-5.12-4 7.15 7.15 0 0 0-5.14 1.11ZM408.68 608.96l15.57-13.41 4.05 4.71-9.23 7.93 3.29 3.82 7.36-6.33 3.61 3.97-7.79 6.38 6.71 8.39-6.55 5.39zM460.62 583.01l3.23-6.27 6.18 3.06-3.33 6.46zM452.39 588.3l4.87-5a12.64 12.64 0 0 1 3.1 5.28 12.9 12.9 0 0 1 .17 5 11.35 11.35 0 0 1-2.7 5.74 14.84 14.84 0 0 1-5.79 4.44 10.13 10.13 0 0 1-6.22.8 17.6 17.6 0 0 1-8.29-4.36c-3.47-3.09-5.47-6.72-5.72-9.29a13.64 13.64 0 0 1 3.16-9.42 13.35 13.35 0 0 1 6.9-4.63c2.29-.59 4-.41 7.23.17l-2.42 6.23a5.6 5.6 0 0 0-2.5-.29 5 5 0 0 0-1.86.51 7 7 0 0 0-2.26 2 6 6 0 0 0-.91 4.79 9.38 9.38 0 0 0 3.46 4.68c2.44 1.9 4.38 2.71 5.86 2.66a6.2 6.2 0 0 0 4.31-1.72 5 5 0 0 0 1.45-3.82 7.94 7.94 0 0 0-1.84-3.77" class="cls-1"/></g></g></svg>