<svg xmlns="http://www.w3.org/2000/svg" width="981.623" height="898.628" viewBox="0 0 981.623 898.628"><defs><clipPath id="a" clipPathUnits="userSpaceOnUse"><path d="M0 1080h1080V0H0Z"/></clipPath></defs><g clip-path="url(#a)" transform="matrix(1.33333 0 0 -1.33333 -229.189 1169.314)"><path d="M0 0c-39.335-64.285-122.841-68.676-207.239-36.025 0 0 33.671.956 63.33 17.121 26.096 14.257 28.642 22.214 54.42 53.592C-15.658 124.75 51.3 165.294 119.786 100.437c0 0-61.611-5.347-119.786-100.437" style="fill:#000;fill-opacity:1;fill-rule:nonzero;stroke:none" transform="translate(445.58 527.493)"/><path d="M0 0c-39.335-64.348-122.841-68.676-207.238-36.025 0 0 33.606.956 63.329 17.185 26.033 14.194 28.642 22.15 54.356 53.592 73.832 89.999 140.79 130.543 209.275 65.685 0 0-61.611-5.283-119.722-100.437" style="fill:#000;fill-opacity:1;fill-rule:nonzero;stroke:none" transform="translate(535.133 471.992)"/><path d="M0 0c3.566-36.343-19.095-69.058-93.054-112.53 0 0 113.612 95.854-25.714 163.257-86.879 42.072-152.5 78.351-175.796 132.325-16.103 37.234-.637 99.991 46.655 121.122 0 0 52.191 25.268 146.581-9.293 0 0 52.382-18.394 24.059-54.037 0 0 7.319-12.22 14.639-27.241 5.601-11.584.042-16.039-8.211-9.993-8.21 6.047-137.734 117.304-173.504 48.818 0 0-13.176-24.95 3.884-55.501 14.067-18.585 25.141-23.741 47.163-36.279 33.797-17.758 56.71-29.851 98.91-53.019 0 0 88.216-42.899 94.39-107.629" style="fill:#000;fill-opacity:1;fill-rule:nonzero;stroke:none" transform="translate(826.578 563.9)"/><path d="M0 0c-39.334-64.348-122.841-68.676-207.238-36.025 0 0 33.606.956 63.266 17.186 26.096 14.193 28.705 22.149 54.419 53.591 73.768 89.998 140.726 130.542 209.211 65.685 0 0-61.547-5.347-119.658-100.437" style="fill:#000;fill-opacity:1;fill-rule:nonzero;stroke:none" transform="translate(632.323 420.946)"/><path d="M0 0c-.37 4.582-.762 7.001-2.674 10.947-2.037 4.263-5.983 8.466-11.585 5.792-10.247-4.901 3.247-26.477-14.257-34.942-11.329-5.474-20.049 1.08-25.268 11.647-1.782 3.691-2.482 7.893-3.055 11.839l7.447 2.738c.189-3.117.828-8.401 2.8-12.22 2.1-4.328 7.511-9.229 13.685-6.174 11.902 5.728-2.482 26.796 14.066 34.815 9.42 4.582 18.076-.461 22.786-9.929 1.653-3.501 3.057-7.955 3.566-12.156Z" style="fill:#000;fill-opacity:1;fill-rule:nonzero;stroke:none" transform="translate(228.73 439.34)"/><path d="m0 0 5.537-7.383-32.015-41.371.185-.139L21.698-28.78l7.256-9.547-32.906-40.29.138-.138 49.009 18.903 5.41-7.128-58.238-20.75-6.555 8.72 33.606 40.99-.139.042-49.073-20.431-6.81 8.974z" style="fill:#000;fill-opacity:1;fill-rule:nonzero;stroke:none" transform="translate(239.997 432.657)"/><path d="m0 0 6.747-5.728-19.667-60.657-7.002 5.983 5.155 15.085-21.894 18.776-14.321-7.32-6.747 5.792zm-2.037-8.656-28.068-14.385 17.884-15.275z" style="fill:#000;fill-opacity:1;fill-rule:nonzero;stroke:none" transform="translate(312.555 348.26)"/><path d="m0 0 9.929-5.728-1.274-53.783.138-.139 23.869 40.862 7.319-4.198-29.66-50.728-9.356 5.347L2.24-13.312l-.139.042-24.441-41.689-7.319 4.203z" style="fill:#000;fill-opacity:1;fill-rule:nonzero;stroke:none" transform="translate(347.498 320.51)"/><path d="M0 0c-3.372 3.118-5.283 4.646-9.356 6.238-4.457 1.718-10.311 2.101-12.539-3.631C-25.969-7.831-1.336-14.514-8.402-32.527c-4.517-11.711-15.402-12.856-26.477-8.592-3.884 1.464-7.256 4.074-10.375 6.62l3.626 6.937c2.226-2.101 6.365-5.474 10.375-7.001 4.517-1.718 11.838-1.654 14.321 4.773 4.773 12.221-20.241 17.949-13.621 34.943 3.82 9.738 13.557 11.903 23.55 8.083 3.63-1.399 7.701-3.69 10.947-6.492z" style="fill:#000;fill-opacity:1;fill-rule:nonzero;stroke:none" transform="translate(424.958 273.028)"/><path d="m0 0 32.206-7.702-1.783-7.192L6.491-9.165 2.417-25.841l21.832-5.22-1.718-7.192L.7-32.97l-4.517-18.84 23.932-5.728-1.719-7.192-32.206 7.701z" style="fill:#000;fill-opacity:1;fill-rule:nonzero;stroke:none" transform="translate(445.007 275.892)"/><path d="m0 0 8.847-.637 20.559-60.339-9.166.702-4.901 15.148-28.896 2.167-7.065-14.385-8.847.702zm3.566-8.211L-10.31-36.343l23.423-1.654z" style="fill:#000;fill-opacity:1;fill-rule:nonzero;stroke:none" transform="translate(511.263 263.99)"/><path d="M0 0c-4.074 1.529-8.338 1.848-12.603 1.145-13.429-2.29-20.749-13.429-18.458-26.414 2.356-13.557 13.749-20.94 25.842-18.903 4.203.761 9.611 2.739 12.156 5.028L8.91-47.1c-4.139-2.61-9.547-3.755-12.985-4.328-18.394-3.118-32.715 6.492-35.897 24.886C-43.025-8.72-32.08 5.346-14.259 8.338c4.457.762 9.039.891 13.494-.231z" style="fill:#000;fill-opacity:1;fill-rule:nonzero;stroke:none" transform="translate(622.203 261.954)"/><path d="m0 0 8.083 2.355L24.632-53.91l-8.083-2.42Z" style="fill:#000;fill-opacity:1;fill-rule:nonzero;stroke:none" transform="translate(632.387 275.192)"/><path d="m0 0-17.057-6.938-2.799 6.874L21.96 16.994l2.864-6.81L7.766 3.182l19.667-47.354-7.892-3.182z" style="fill:#000;fill-opacity:1;fill-rule:nonzero;stroke:none" transform="translate(670.003 279.966)"/><path d="m0 0-37.616 17.249 8.529 5.155L-.318 8.975l.956 31.314 8.465 5.093-1.848-40.99 12.858-21.004-7.256-4.327z" style="fill:#000;fill-opacity:1;fill-rule:nonzero;stroke:none" transform="translate(733.206 281.111)"/><path d="m0 0 6.238 6.301L65.94-17.185l-6.492-6.556-14.83 6.11L24.25-38.062l6.429-14.639-6.238-6.238zm8.593-2.61 12.602-28.705 16.549 16.676z" style="fill:#000;fill-opacity:1;fill-rule:nonzero;stroke:none" transform="translate(782.851 361.881)"/><path d="m0 0 18.267 25.332 6.047-4.328L11.011 2.483l14.003-9.93 12.793 17.695 6.11-4.264-12.793-17.757 21.895-15.531-4.901-6.81z" style="fill:#000;fill-opacity:1;fill-rule:nonzero;stroke:none" transform="translate(812.193 394.341)"/><path d="M0 0a23.34 23.34 0 0 1-8.529-9.229c-6.301-12.03-1.718-24.441 10.12-30.551 12.348-6.365 25.077-1.718 30.742 9.101 1.908 3.691 3.566 9.23 3.372 12.666l7.51-3.311c-.37-4.837-2.739-9.802-4.328-12.857-8.593-16.485-24.95-21.958-41.626-13.366-16.167 8.274-20.877 25.459-12.666 41.308 2.162 4.073 4.837 7.701 8.402 10.565z" style="fill:#000;fill-opacity:1;fill-rule:nonzero;stroke:none" transform="translate(864.894 462.445)"/></g></svg>