<svg xmlns="http://www.w3.org/2000/svg" viewBox="0 0 667.37 715.05"><defs><style>.cls-1,.cls-11,.cls-14,.cls-15,.cls-16,.cls-18,.cls-23,.cls-5,.cls-7{fill:#fff}.cls-2,.cls-26,.cls-8{fill:none}.cls-2{stroke:#b38c2f}.cls-2,.cls-8{stroke-width:5.08px}.cls-3{fill:#b38c2f}.cls-4{fill:#ed1c24}.cls-4,.cls-5{stroke:#c4952d}.cls-10,.cls-4{stroke-miterlimit:11.47;stroke-width:7.47px}.cls-11,.cls-5{stroke-width:5.61px}.cls-14,.cls-15,.cls-16,.cls-23,.cls-26,.cls-7{stroke:#fff}.cls-7{stroke-width:1.23px}.cls-10,.cls-11,.cls-8{stroke:#ac8505}.cls-9{fill:#ac8505}.cls-10,.cls-13{fill:#ed3424}.cls-14{stroke-width:.61px}.cls-15{stroke-width:.21px}.cls-16{stroke-width:.15px}.cls-18{stroke:#ed3424;stroke-width:1.76px}.cls-23{stroke-width:1.64px}.cls-26{stroke-width:4.68px}</style></defs><g id="Layer_2" data-name="Layer 2"><g id="Layer_2-2" data-name="Layer 2"><path d="M597.29 145.54c-59.59-27.45-69.74-111-69.74-111-138.92 28.1-193.66-24.2-193.66-24.2S279.14 62.69 140.21 34.6c0 0-10.15 83.51-69.74 111 0 0 89.91 135.6 20.17 262.28-58.64 106.53 8 189 88.78 163 74.49-24 63-41.79 154.46 10.58 91.5-52.37 80-34.58 154.45-10.58 80.8 26 147.43-56.46 88.78-163-69.74-126.68 20.17-262.28 20.17-262.28Z" class="cls-1"/><path d="M333.81 659.08s-23.71-72-120.24-44.87" class="cls-2"/><path d="M307.22 623.5s-16.28-8.92-8.12-30.28c0 0 17.58 15.62 8.12 30.28" class="cls-3"/><path d="M304.68 619.73s-6.44 17.41-28.76 12.48c0 0 12.87-19.69 28.76-12.48M293.67 616s-20.67-5-18-31.11c-.01.04 24.1 12.11 18 31.11" class="cls-3"/><path d="M283.47 612.25s-6.79 20.16-32.54 15.27c0 0 14.07-22.98 32.54-15.27M272.55 608.49s-21.23 1.41-26.55-24.25c0 0 26.64 4.24 26.55 24.25M257.32 608.36s-4.39 18-27.14 15.73c0 0 10.52-21.03 27.14-15.73" class="cls-3"/><path d="M250.1 609.23s-18.51 1.42-23.35-20.93c0 0 23.25 3.48 23.35 20.93M232.76 609.63s-4.38 18-27.13 15.73c0 0 10.51-21.04 27.13-15.73" class="cls-3"/><path d="M230.66 609.24s-17.33 6.69-28.39-13.33c0 0 23.28-3.36 28.39 13.33" class="cls-3"/><path d="M216.5 612.45s-12.91 13.34-31.36-.17c0 0 19.72-12.83 31.36.17" class="cls-3"/><path d="M333.75 659.08s23.71-72 120.24-44.87" class="cls-2"/><path d="M360.34 623.5s16.28-8.92 8.12-30.28c0 0-17.58 15.62-8.12 30.28" class="cls-3"/><path d="M362.88 619.73s6.43 17.41 28.76 12.48c0 0-12.88-19.69-28.76-12.48M373.88 616s20.67-5 18-31.11c.02.04-24.1 12.11-18 31.11" class="cls-3"/><path d="M384.08 612.25s6.8 20.16 32.54 15.27c0 0-14.07-22.98-32.54-15.27M395 608.49s21.21 1.41 26.51-24.25c.02 0-26.59 4.24-26.51 24.25M410.24 608.36s4.38 18 27.13 15.73c0 0-10.5-21.03-27.13-15.73" class="cls-3"/><path d="M417.45 609.23s18.53 1.42 23.36-20.93c0 0-23.26 3.48-23.36 20.93M434.79 609.63s4.39 18 27.14 15.73c0 0-10.51-21.04-27.14-15.73" class="cls-3"/><path d="M436.9 609.24s17.32 6.69 28.39-13.33c0 0-23.29-3.36-28.39 13.33" class="cls-3"/><path d="M451.05 612.45s12.93 13.34 31.36-.17c0 0-19.71-12.83-31.36.17" class="cls-3"/><path d="M56.52 579.61s19.15 9.82 55.27 22.6c16 5.67 64.55 17.59 59.17 22.45C168.5 632.22 150 685 150 685s-45.55-18.55-75.11-29.74C53 647 18.41 634.55 18.41 634.55l69.83-4.18z" class="cls-4"/><path d="M125.58 621.49c-1.64-6.22 53.08 7.13 46.23 1.18 4.32 3.75-2.29 15.71-4.63 20.81-13.31 29-38.21 42.3-65.86 34.92 1.63-18.74 19-37.91 23.69-53.92Z" class="cls-5"/><path d="M610.86 579.61s-19.16 9.82-55.27 22.6c-16 5.67-64.55 17.59-59.17 22.45 2.46 7.56 21 60.32 21 60.32s45.55-18.55 75.11-29.74C614.42 647 649 634.55 649 634.55l-69.83-4.18 31.72-50.76Z" class="cls-4"/><path d="M541.89 621.49c1.64-6.22-53.07 7.13-46.23 1.18-4.32 3.75 2.29 15.71 4.63 20.81 13.31 29 38.22 42.3 65.86 34.92-1.64-18.74-19-37.91-23.69-53.92Z" class="cls-5"/><path d="M335 710.34c129 1.23 229-23.25 230.93-32.26 3.5-16.54-5-38.89-25.39-56 .26 14-114.93 32.06-206.65 30.87h-.21c-91.72 1.19-206.92-16.82-206.66-30.87-20.34 17.08-28.89 39.43-25.38 56 1.91 9 101.92 33.49 230.93 32.26Z" style="fill:#ed1c24;stroke:#c4952d;stroke-miterlimit:2.37;stroke-width:9.34px"/><path d="m149 660.08-1.21-.28c.55-1.59.93-2.81 1.13-3.64a4.13 4.13 0 0 0-.3-3.07 3.53 3.53 0 0 0-2.38-1.66 6.45 6.45 0 0 0-4.92.79 5.83 5.83 0 0 0-2.89 3.72 4.9 4.9 0 0 0 0 2.37 14.2 14.2 0 0 0 1.66 3.34 27 27 0 0 1 3.13 6.06 7.4 7.4 0 0 1 .19 3.79 9.05 9.05 0 0 1-2.71 4.53 11.85 11.85 0 0 1-5.49 2.81 14.35 14.35 0 0 1-6.74 0 9.24 9.24 0 0 1-5.19-3q-1.86-2.26-1.41-4.18a2.5 2.5 0 0 1 1-1.56 1.82 1.82 0 0 1 1.52-.36 1.67 1.67 0 0 1 1.16.94 4.7 4.7 0 0 1 .26 1.84 6.7 6.7 0 0 0 .36 2.51 4.2 4.2 0 0 0 1.21 1.52 5.1 5.1 0 0 0 2 .94 8.65 8.65 0 0 0 6.37-.88 6.83 6.83 0 0 0 3.68-4.39 6.1 6.1 0 0 0 .12-1.92 8.9 8.9 0 0 0-.66-2.36 33 33 0 0 0-1.93-3.42 28 28 0 0 1-1.87-3.27 8.9 8.9 0 0 1-.57-2.37 6.9 6.9 0 0 1 .15-2.19 7.83 7.83 0 0 1 2.43-3.93 10.84 10.84 0 0 1 4.5-2.54 10.54 10.54 0 0 1 5.47-.05 17.6 17.6 0 0 1 3.47 1.28c.77.35 1.44.63 2 .84a23 23 0 0 0-1.47 2.68c-.48.81-1.16 2.53-2.07 5.11ZM167.36 662.42h1.62l-2.92 5.58c-1.17 2.22-2.37 4.82-3.6 7.78a24 24 0 0 0-1.16 3.15c-.09.48.06.76.45.85a3 3 0 0 0 1.3-.27 15.4 15.4 0 0 0 3.22-1.62l.57 1.07c-2.11 1.28-3.44 2-4 2.29a12.9 12.9 0 0 1-3.17 1 5 5 0 0 1-1.81 0 1.37 1.37 0 0 1-.86-.46 1.13 1.13 0 0 1-.14-.89 3.9 3.9 0 0 1 .37-.92l1.57-3a20.1 20.1 0 0 1-5.64 3.22 6.17 6.17 0 0 1-3.36.47 2.53 2.53 0 0 1-1.9-1.38 5.52 5.52 0 0 1-.33-3.57 14.3 14.3 0 0 1 2.42-5.29 20.6 20.6 0 0 1 4.65-4.86 15.6 15.6 0 0 1 5.41-2.75 11.8 11.8 0 0 1 5.07.07 12 12 0 0 1 1.51.39Zm-3.62 3a10 10 0 0 0-2.08-.67 6.07 6.07 0 0 0-3.92.44 10.4 10.4 0 0 0-3.75 3.61 15 15 0 0 0-2.53 5.76 3.9 3.9 0 0 0 .09 2.42 1.74 1.74 0 0 0 1.27 1 5.4 5.4 0 0 0 3.83-1.07 10.7 10.7 0 0 0 3.71-4.51ZM179.35 679.4l.66 1a23.6 23.6 0 0 1-5 3.06 8.16 8.16 0 0 1-4.44 1 1.56 1.56 0 0 1-1.11-.76 2.3 2.3 0 0 1-.21-1.6 43 43 0 0 1 2.79-7.6l4.31-9.94a46 46 0 0 1 3.62-7.14 11.17 11.17 0 0 1 10.85-4.42 2.48 2.48 0 0 1 1.51.76 1.5 1.5 0 0 1 .38 1.27 1.61 1.61 0 0 1-.78 1.14 2.6 2.6 0 0 1-1.74.2 12 12 0 0 1-2-.58 14.6 14.6 0 0 0-2.07-.55 2.4 2.4 0 0 0-1.53.16 5.24 5.24 0 0 0-1.64 2.18q-.87 1.73-3 6.87l-4 9.51c-2 4.76-3 7.25-3.06 7.46-.09.51 0 .79.41.86a3.4 3.4 0 0 0 1.62-.37 24 24 0 0 0 4.43-2.51Z" class="cls-7"/><path d="m199.87 668.53 3.37.49-3.44 7.98a69 69 0 0 0-3.17 7.92 1 1 0 0 0 .11.72.59.59 0 0 0 .44.3 1.75 1.75 0 0 0 1-.21 27 27 0 0 0 3.37-2.31l.65 1q-5.49 4.27-7.74 3.94a1.72 1.72 0 0 1-1.21-.77 2.38 2.38 0 0 1-.29-1.72 14.3 14.3 0 0 1 1-3.23 20.9 20.9 0 0 1-5.84 3.48 7.5 7.5 0 0 1-3.75.7 1.71 1.71 0 0 1-1.23-.74 2.66 2.66 0 0 1-.22-1.81 10.4 10.4 0 0 1 .51-2q.52-1.44 2.44-5.76a43.7 43.7 0 0 0 2.59-6.63c.06-.44-.06-.69-.38-.73a2.4 2.4 0 0 0-1.22.27 18 18 0 0 0-2.83 1.75l-.92-1a29.3 29.3 0 0 1 5.39-3 6.1 6.1 0 0 1 2.82-.49 1.18 1.18 0 0 1 .87.55 2 2 0 0 1 .16 1.34c-.15 1.09-1.12 3.69-2.88 7.79a56 56 0 0 0-2.47 6.34 1.28 1.28 0 0 0 .19.92 1 1 0 0 0 .65.45q1.33.19 4.09-1.65a10.4 10.4 0 0 0 3.93-4.52ZM213.37 673.76a14.6 14.6 0 0 1 4.16-2.64 7.4 7.4 0 0 1 3.42-.6 3.17 3.17 0 0 1 2.5 1.65 6.7 6.7 0 0 1 .52 4.15 17.3 17.3 0 0 1-2.74 7.41 15.1 15.1 0 0 1-5.22 5.15 9.1 9.1 0 0 1-5.5 1.32 4.85 4.85 0 0 1-3.35-1.71 4.46 4.46 0 0 1-.9-3.49 22.7 22.7 0 0 1 1.18-4.48l4.32-12.26a22.5 22.5 0 0 1 3.41-6.72 11.75 11.75 0 0 1 4.53-3.37 9.76 9.76 0 0 1 5-.86 3.3 3.3 0 0 1 1.93.7 1.54 1.54 0 0 1-.24 2.44 2.48 2.48 0 0 1-1.67.29 20.5 20.5 0 0 1-2.67-.68 7.2 7.2 0 0 0-1.5-.35 2.2 2.2 0 0 0-2.08 1 26.6 26.6 0 0 0-2.11 4.88Zm4.86-.89a4.64 4.64 0 0 0-2.94 1.08 13.2 13.2 0 0 0-3.63 4.6 18.7 18.7 0 0 0-2.26 6.81 3 3 0 0 0 .56 2.25 2.57 2.57 0 0 0 1.81 1.1c1.76.2 3.5-1 5.21-3.61A18.5 18.5 0 0 0 220 677a5.43 5.43 0 0 0-.41-3.17 1.75 1.75 0 0 0-1.36-.96ZM230 691.63l-3.56-.36 2.31-6.25c1.13-3.07 2.13-6 3-8.76a10 10 0 0 0 .34-1.29c0-.38-.12-.59-.47-.62a2.26 2.26 0 0 0-1.14.38 21.6 21.6 0 0 0-2.91 2.16l-.66-.92a18 18 0 0 1 4.93-3.22 8.3 8.3 0 0 1 3.62-.88 1.1 1.1 0 0 1 .66.27.64.64 0 0 1 .2.53 11 11 0 0 1-.48 1.63l-1.45 4.16a30.2 30.2 0 0 1 6.09-5.94 4.1 4.1 0 0 1 2.56-1 1.52 1.52 0 0 1 1.14.58 1.42 1.42 0 0 1 .37 1.12 1.47 1.47 0 0 1-.57 1.06 7 7 0 0 1-2.43.84 10.3 10.3 0 0 0-3 1.14 13.8 13.8 0 0 0-2.69 2.31 13.1 13.1 0 0 0-2.14 2.81 47 47 0 0 0-2.19 5.77ZM243.13 678.18l-1-.9a19.1 19.1 0 0 1 4.68-3.36 7.3 7.3 0 0 1 3.45-.82 1.87 1.87 0 0 1 1.14.43 1.13 1.13 0 0 1 .33.94 45 45 0 0 1-2.06 5.75q-3.25 8.25-3.41 10a.9.9 0 0 0 .13.57.43.43 0 0 0 .34.26q.75.06 4.16-2.62l.85 1a31 31 0 0 1-5.11 3.53 5.36 5.36 0 0 1-2.53.65 1.72 1.72 0 0 1-1.28-.64 2.07 2.07 0 0 1-.37-1.5q.27-3 4.84-14.28a3.3 3.3 0 0 0 .25-1c0-.32-.11-.49-.39-.52a2.1 2.1 0 0 0-1.12.3 25 25 0 0 0-2.9 2.21Zm10.76-15a1.6 1.6 0 0 1 1.18.6 1.7 1.7 0 0 1 .37 1.28 2.64 2.64 0 0 1-.89 1.79 2.2 2.2 0 0 1-1.7.67 1.62 1.62 0 0 1-1.15-.61 1.83 1.83 0 0 1-.36-1.36 2.6 2.6 0 0 1 .84-1.76 2.2 2.2 0 0 1 1.71-.6ZM262.11 670.39l3.9-1.18-2.2 6.56 4.95.36-.51 1.66-4.95-.35-2.67 7.85a22.4 22.4 0 0 0-1.34 5 1.25 1.25 0 0 0 .21.94 1 1 0 0 0 .73.35 5.4 5.4 0 0 0 2.33-.73 29 29 0 0 0 4-2.37l.83 1.17a61 61 0 0 1-7.34 4.32 7 7 0 0 1-2.91.68 1.73 1.73 0 0 1-1.36-.75 3.4 3.4 0 0 1-.36-2.14 24 24 0 0 1 1.29-5.19l3.14-9.34-3.87-.27.55-1.67 3.85.28ZM287.75 675.17l1.6-.24-2.13 6c-.85 2.37-1.67 5.11-2.48 8.22a23 23 0 0 0-.71 3.27c0 .5.16.76.56.77a3 3 0 0 0 1.25-.43 16.5 16.5 0 0 0 3-2.05l.71 1a46 46 0 0 1-3.65 2.83 13.1 13.1 0 0 1-3 1.4 5.3 5.3 0 0 1-1.78.24 1.37 1.37 0 0 1-.93-.34 1.14 1.14 0 0 1-.26-.86 3.6 3.6 0 0 1 .24-1l1.14-3.2a20 20 0 0 1-5.14 4 6.16 6.16 0 0 1-3.26.93 2.51 2.51 0 0 1-2.08-1.09A5.65 5.65 0 0 1 270 691a14.3 14.3 0 0 1 1.66-5.57 20.7 20.7 0 0 1 3.93-5.45 15.7 15.7 0 0 1 5-3.48 11.8 11.8 0 0 1 5-.64 14 14 0 0 1 1.55.19Zm-3.17 3.51a10.5 10.5 0 0 0-2.16-.38 6.07 6.07 0 0 0-3.82 1 10.65 10.65 0 0 0-3.21 4.1 15 15 0 0 0-1.71 6.07 4 4 0 0 0 .43 2.37 1.7 1.7 0 0 0 1.39.79 5.35 5.35 0 0 0 3.64-1.58 10.66 10.66 0 0 0 3.05-5ZM303 676.1a5.6 5.6 0 0 1 3.27.95 2.37 2.37 0 0 1 1.09 2 1.56 1.56 0 0 1-.54 1.11 1.62 1.62 0 0 1-1.2.43 1.43 1.43 0 0 1-.78-.23 4.6 4.6 0 0 1-.92-1 3.12 3.12 0 0 0-2.27-1.65 2.42 2.42 0 0 0-1.76.69 2.56 2.56 0 0 0-.83 1.85 4.25 4.25 0 0 0 .41 1.93 17 17 0 0 0 2.31 3.06q2.56 2.93 2.46 5.46a5.77 5.77 0 0 1-2.31 4.37 8.05 8.05 0 0 1-5.63 1.7 6.52 6.52 0 0 1-4.2-1.32 3.62 3.62 0 0 1-1.29-2.91 2 2 0 0 1 .59-1.38 1.7 1.7 0 0 1 1.31-.49 1.6 1.6 0 0 1 1.13.48 1.43 1.43 0 0 1 .45 1.06c0 .16 0 .37-.08.62s0 .38 0 .54a1.69 1.69 0 0 0 .62 1.36 2.66 2.66 0 0 0 1.75.62 5.9 5.9 0 0 0 2.29-.37 3.35 3.35 0 0 0 1.59-1.28 3.4 3.4 0 0 0 .61-1.77 3.3 3.3 0 0 0-.45-1.74 22.7 22.7 0 0 0-2.21-2.94 8.2 8.2 0 0 1-2.29-5.42 5.46 5.46 0 0 1 2-4 6.82 6.82 0 0 1 4.88-1.73ZM347.36 673.86h-1.28a12 12 0 0 0 .2-1.94 1.18 1.18 0 0 0-.79-1.26 29.4 29.4 0 0 0-6.05-.33h-3.5l-2.71 10.58h5a7 7 0 0 0 2.89-.33 2.56 2.56 0 0 0 .78-1.74h1.37c-.52 1.94-1 4.06-1.4 6.38h-1.22c.08-.75.13-1.34.13-1.75a1.06 1.06 0 0 0-1-.92 12 12 0 0 0-2-.12h-4.91a68.7 68.7 0 0 1-4.5 12.75 13.9 13.9 0 0 1 4-.67 34 34 0 0 1 7 .94 16 16 0 0 0 3 .52 2.53 2.53 0 0 0 1.71-.52 1.53 1.53 0 0 0 .65-1.19 4.4 4.4 0 0 0-.3-1.25 3.3 3.3 0 0 1-.19-1.12 1.34 1.34 0 0 1 .45-1 1.46 1.46 0 0 1 1.07-.43 1.55 1.55 0 0 1 1.24.54 2.3 2.3 0 0 1 .48 1.53 4.63 4.63 0 0 1-1.8 3.57 7 7 0 0 1-4.72 1.51 36 36 0 0 1-3.88-.28 75 75 0 0 0-7.86-.62 68 68 0 0 0-8.29.53l.38-1.32a15.3 15.3 0 0 0 3.35-1.14 2.86 2.86 0 0 0 .84-1.08 58 58 0 0 0 3-9.13q1.86-6.83 3.8-14.45a11.3 11.3 0 0 0-5.45 1.34 10.8 10.8 0 0 0-4 3.54 8.3 8.3 0 0 0-1.46 4.61 6.9 6.9 0 0 0 .19 1.79 12 12 0 0 0 .92 2.16 3 3 0 0 1 .44 1.37 1.23 1.23 0 0 1-.44.93 1.54 1.54 0 0 1-1.09.41 1.67 1.67 0 0 1-1.49-.95 7.2 7.2 0 0 1-.79-3.72 12.76 12.76 0 0 1 3.85-9q3.82-4 11.12-4h8.22a26.5 26.5 0 0 0 6.3-.51c-.62 2.77-1.09 4.64-1.26 5.77ZM357.66 672.72l3.79-1.52-1.61 6.74 5-.09-.36 1.71-5 .09-2 8.06a23.7 23.7 0 0 0-.9 5 1.37 1.37 0 0 0 .3.93 1 1 0 0 0 .76.28 5.5 5.5 0 0 0 2.26-.93 30 30 0 0 0 3.79-2.73l.94 1.1a62 62 0 0 1-6.95 5 6.9 6.9 0 0 1-2.84.93 1.66 1.66 0 0 1-1.41-.62 3.43 3.43 0 0 1-.56-2.1 24 24 0 0 1 .83-5.28l2.3-9.59-3.88.07.4-1.72h3.86ZM397.38 666.78l-.35 1.31a9.7 9.7 0 0 0-3.57.83 2.8 2.8 0 0 0-.91 1.05c-.28.58-1 3.67-2.25 9.26q-.6 2.76-3 15.08a12.4 12.4 0 0 0 4.26.29l-.33 1.16a29 29 0 0 1-3.07 0h-3.86a30.6 30.6 0 0 0-5.56.7l.23-1.28a15.4 15.4 0 0 0 3.95-1.23 1.5 1.5 0 0 0 .51-.44 5.6 5.6 0 0 0 .7-1.76q.36-1.34 2.38-10.79c.41-1.83 1.2-5.81 2.4-12a17.3 17.3 0 0 0-4 .64l.4-1.34a12.3 12.3 0 0 1 2-.46c.69-.11 2.28-.25 4.75-.42a45 45 0 0 0 5.32-.6ZM398.78 680.45l-.87-.79a25 25 0 0 1 4.63-4.18 6.9 6.9 0 0 1 3-1.17 1.4 1.4 0 0 1 .8.17.61.61 0 0 1 .32.48 5 5 0 0 1-.07.77l-.76 4.88a30 30 0 0 1 5.79-5.45 6.76 6.76 0 0 1 3.15-1.43 1.88 1.88 0 0 1 1.5.5 2.53 2.53 0 0 1 .63 1.69 7.8 7.8 0 0 1-.1 1.69c-.19 1-.71 3.36-1.57 6.9a27.9 27.9 0 0 0-1.1 6.58 1.4 1.4 0 0 0 .19.71.44.44 0 0 0 .42.21c.46 0 1.16-.53 2.09-1.49.65-.68 1.32-1.31 2-1.9l.65.82a22 22 0 0 1-4.31 4.22 5 5 0 0 1-2.42 1.12 1.67 1.67 0 0 1-1.46-.56 3.56 3.56 0 0 1-.64-2.11q-.15-2.13 2-10.77a26 26 0 0 0 .59-3.56c0-.5-.35-.72-.94-.69a5 5 0 0 0-2.4 1.16 15.4 15.4 0 0 0-3.53 3.74 11.3 11.3 0 0 0-1.32 4.22l-1.4 8.47-3.56.24q.77-3.64 1.29-7l1.54-9.22a4 4 0 0 0 .07-.8c0-.43-.21-.64-.52-.61a2.2 2.2 0 0 0-1.07.56 15.2 15.2 0 0 0-2.62 2.6ZM440.41 686.78l.75.84a37 37 0 0 1-4.42 4 7.6 7.6 0 0 1-3.29 1.51 1.34 1.34 0 0 1-1-.23.93.93 0 0 1-.42-.7 5.3 5.3 0 0 1 .14-1.36l.58-3a22.7 22.7 0 0 1-4.41 4.61 7.1 7.1 0 0 1-3.33 1.41 2.62 2.62 0 0 1-2.23-.93 5.32 5.32 0 0 1-1.15-3.18 17.3 17.3 0 0 1 1.62-8 19.1 19.1 0 0 1 4.61-7 9 9 0 0 1 5-2.58 11 11 0 0 1 1.58 0 38 38 0 0 1 1.54-7 12.4 12.4 0 0 1 2.33-3.92 11.4 11.4 0 0 1 3.49-2.73 10.6 10.6 0 0 1 3.83-1.2 2.3 2.3 0 0 1 1.58.37A1.57 1.57 0 0 1 448 659a1.56 1.56 0 0 1-.41 1.25 2.1 2.1 0 0 1-1.39.6 22 22 0 0 1-2.25-.05 17.5 17.5 0 0 0-2.24 0 2.25 2.25 0 0 0-1.43.64 5.1 5.1 0 0 0-1 2.31q-.28 1.11-1.13 7L436 685.44a17.7 17.7 0 0 0-.29 3.44c0 .6.31.89.77.84a2.2 2.2 0 0 0 1-.39 36 36 0 0 0 2.93-2.55Zm-6.16-11.87a15.6 15.6 0 0 0-2.73-.2 5 5 0 0 0-3 1.54 12.25 12.25 0 0 0-2.52 5.12 17.7 17.7 0 0 0-.86 6.41 3 3 0 0 0 .84 1.93 1.93 1.93 0 0 0 1.56.65 4.34 4.34 0 0 0 2.22-1.09 9.9 9.9 0 0 0 2.62-3.46 30.5 30.5 0 0 0 1.22-6Z" class="cls-7"/><path d="m458.67 670 3.38-.39-1.27 8.57a62 62 0 0 0-1 8.46 1 1 0 0 0 .29.67.63.63 0 0 0 .5.17 1.74 1.74 0 0 0 .91-.46 29 29 0 0 0 2.66-3.1l.89.79q-4.22 5.53-6.47 5.78a1.7 1.7 0 0 1-1.37-.43 2.38 2.38 0 0 1-.73-1.59 14.7 14.7 0 0 1 .14-3.37 21.1 21.1 0 0 1-4.74 4.86 7.7 7.7 0 0 1-3.45 1.64 1.68 1.68 0 0 1-1.38-.4 2.7 2.7 0 0 1-.68-1.69 11.3 11.3 0 0 1 0-2c.1-1 .39-3.09.89-6.19a43 43 0 0 0 .8-7.07c-.06-.44-.24-.65-.56-.62a2.6 2.6 0 0 0-1.11.58 17.5 17.5 0 0 0-2.28 2.43l-1.14-.72a28.4 28.4 0 0 1 4.44-4.31 6.3 6.3 0 0 1 2.59-1.21 1.2 1.2 0 0 1 1 .32 2 2 0 0 1 .51 1.26 45.3 45.3 0 0 1-.79 8.26 61 61 0 0 0-.77 6.77 1.3 1.3 0 0 0 .43.82 1 1 0 0 0 .74.28q1.34-.17 3.53-2.64a10.37 10.37 0 0 0 2.64-5.38ZM475.79 667a5.6 5.6 0 0 1 3.38.36 2.33 2.33 0 0 1 1.41 1.74 1.5 1.5 0 0 1-.33 1.17 1.54 1.54 0 0 1-1.1.64 1.5 1.5 0 0 1-.82-.09 4.3 4.3 0 0 1-1.09-.88 3.15 3.15 0 0 0-2.51-1.22 2.37 2.37 0 0 0-1.62 1 2.54 2.54 0 0 0-.49 2 3.9 3.9 0 0 0 .74 1.81 16 16 0 0 0 2.81 2.63c2 1.62 3.14 3.28 3.38 4.95a5.78 5.78 0 0 1-1.52 4.7 8.07 8.07 0 0 1-5.24 2.66 6.6 6.6 0 0 1-4.37-.56 3.61 3.61 0 0 1-1.78-2.64 2 2 0 0 1 .34-1.45 1.73 1.73 0 0 1 2.41-.45 1.39 1.39 0 0 1 .61 1 5 5 0 0 1 0 .62v.54a1.65 1.65 0 0 0 .85 1.22 2.58 2.58 0 0 0 1.83.31 5.6 5.6 0 0 0 2.2-.75 3.61 3.61 0 0 0 1.63-3.39 3.4 3.4 0 0 0-.75-1.64 23.4 23.4 0 0 0-2.68-2.51 8.2 8.2 0 0 1-3.22-4.94 5.45 5.45 0 0 1 1.31-4.33 6.78 6.78 0 0 1 4.62-2.5ZM487.32 661.41l3.52-2-.62 6.9 4.9-.81-.11 1.76-4.89.79-.8 8.27a23.4 23.4 0 0 0-.18 5.12 1.3 1.3 0 0 0 .44.87 1 1 0 0 0 .78.17 5.36 5.36 0 0 0 2.11-1.25 29 29 0 0 0 3.35-3.23l1.08.95a62 62 0 0 1-6.16 5.9 6.76 6.76 0 0 1-2.67 1.32 1.71 1.71 0 0 1-1.49-.41 3.36 3.36 0 0 1-.84-2 23.3 23.3 0 0 1 .05-5.35l.92-9.81-3.83.62.14-1.75 3.81-.62ZM505.2 682.47l-3.51.65.48-6.64q.33-4.9.45-9.25a9 9 0 0 0 0-1.34c-.07-.37-.27-.53-.61-.47a2.5 2.5 0 0 0-1 .68 23.4 23.4 0 0 0-2.19 2.88l-.88-.68a18.5 18.5 0 0 1 3.83-4.48A8.3 8.3 0 0 1 505 662a1 1 0 0 1 .71.08.58.58 0 0 1 .34.46 10 10 0 0 1 0 1.68l-.22 4.41a30.2 30.2 0 0 1 4.19-7.41 4.07 4.07 0 0 1 2.17-1.72 1.6 1.6 0 0 1 1.25.24 1.5 1.5 0 0 1 .67 1 1.47 1.47 0 0 1-.25 1.17 7 7 0 0 1-2.11 1.49 10.7 10.7 0 0 0-2.58 1.94 16.9 16.9 0 0 0-3.21 6.26 51 51 0 0 0-.49 6.15ZM513.94 665.89l-1.2-.59a18.7 18.7 0 0 1 3.51-4.55 7.14 7.14 0 0 1 3.08-1.78 1.78 1.78 0 0 1 1.21.08 1.12 1.12 0 0 1 .58.82 43 43 0 0 1-.32 6.09c-.5 5.9-.64 9.42-.4 10.55a.93.93 0 0 0 .27.52.49.49 0 0 0 .41.15q.74-.15 3.24-3.72l1.1.71a31.2 31.2 0 0 1-3.89 4.85 5.44 5.44 0 0 1-2.24 1.35 1.73 1.73 0 0 1-1.41-.25 2 2 0 0 1-.77-1.33c-.42-2-.23-7 .54-15.07a4 4 0 0 0 0-1c-.06-.32-.24-.45-.52-.39a2.2 2.2 0 0 0-1 .6 25 25 0 0 0-2.19 2.96Zm6-17.45a1.54 1.54 0 0 1 1.28.23 1.76 1.76 0 0 1 .74 1.13 2.8 2.8 0 0 1-.34 2 2.24 2.24 0 0 1-1.45 1.12 1.6 1.6 0 0 1-1.28-.25 1.84 1.84 0 0 1-.73-1.19 2.6 2.6 0 0 1 .31-1.94 2.15 2.15 0 0 1 1.53-1.1ZM539.72 653.9l1.46-.69-.35 6.32c-.13 2.51-.16 5.37-.05 8.58a20.6 20.6 0 0 0 .26 3.34c.11.48.36.67.75.58a2.65 2.65 0 0 0 1.07-.77 16 16 0 0 0 2.26-2.8l1 .72c-1.38 2-2.28 3.3-2.69 3.76a13.9 13.9 0 0 1-2.49 2.19 5.3 5.3 0 0 1-1.65.74 1.4 1.4 0 0 1-1-.07 1.1 1.1 0 0 1-.51-.74 4.3 4.3 0 0 1 0-1l.18-3.39a19.9 19.9 0 0 1-3.8 5.26 6 6 0 0 1-2.87 1.82 2.48 2.48 0 0 1-2.29-.46 5.46 5.46 0 0 1-1.78-3.13 14.4 14.4 0 0 1 0-5.82 20.7 20.7 0 0 1 2.23-6.33 15.2 15.2 0 0 1 3.79-4.75 11.6 11.6 0 0 1 4.64-2 13 13 0 0 1 1.54-.26Zm-2 4.26a11 11 0 0 0-2.18.24 6.15 6.15 0 0 0-3.39 2 10.5 10.5 0 0 0-1.92 4.84 14.8 14.8 0 0 0 .09 6.3 3.92 3.92 0 0 0 1.07 2.16 1.76 1.76 0 0 0 1.57.36 5.36 5.36 0 0 0 3-2.55 10.57 10.57 0 0 0 1.53-5.65Z" class="cls-7"/><path d="M333.81 659.08s-23.71-72-120.24-44.87" class="cls-8"/><path d="M307.22 623.5s-16.28-8.92-8.12-30.28c0 0 17.58 15.62 8.12 30.28" class="cls-9"/><path d="M304.68 619.73s-6.44 17.41-28.76 12.48c0 0 12.87-19.69 28.76-12.48M293.67 616s-20.67-5-18-31.11c-.01.04 24.1 12.11 18 31.11" class="cls-9"/><path d="M283.47 612.25s-6.79 20.16-32.54 15.27c0 0 14.07-22.98 32.54-15.27M272.55 608.49s-21.23 1.41-26.55-24.25c0 0 26.64 4.24 26.55 24.25M257.32 608.36s-4.39 18-27.14 15.73c0 0 10.52-21.03 27.14-15.73" class="cls-9"/><path d="M250.1 609.23s-18.51 1.42-23.35-20.93c0 0 23.25 3.48 23.35 20.93M232.76 609.63s-4.38 18-27.13 15.73c0 0 10.51-21.04 27.13-15.73" class="cls-9"/><path d="M230.66 609.24s-17.33 6.69-28.39-13.33c0 0 23.28-3.36 28.39 13.33" class="cls-9"/><path d="M216.5 612.45s-12.91 13.34-31.36-.17c0 0 19.72-12.83 31.36.17" class="cls-9"/><path d="M333.75 659.08s23.71-72 120.24-44.87" class="cls-8"/><path d="M360.34 623.5s16.28-8.92 8.12-30.28c0 0-17.58 15.62-8.12 30.28" class="cls-9"/><path d="M362.88 619.73s6.43 17.41 28.76 12.48c0 0-12.88-19.69-28.76-12.48M373.88 616s20.67-5 18-31.11c.02.04-24.1 12.11-18 31.11" class="cls-9"/><path d="M384.08 612.25s6.8 20.16 32.54 15.27c0 0-14.07-22.98-32.54-15.27M395 608.49s21.21 1.41 26.51-24.25c.02 0-26.59 4.24-26.51 24.25M410.24 608.36s4.38 18 27.13 15.73c0 0-10.5-21.03-27.13-15.73" class="cls-9"/><path d="M417.45 609.23s18.53 1.42 23.36-20.93c0 0-23.26 3.48-23.36 20.93M434.79 609.63s4.39 18 27.14 15.73c0 0-10.51-21.04-27.14-15.73" class="cls-9"/><path d="M436.9 609.24s17.32 6.69 28.39-13.33c0 0-23.29-3.36-28.39 13.33" class="cls-9"/><path d="M451.05 612.45s12.93 13.34 31.36-.17c0 0-19.71-12.83-31.36.17" class="cls-9"/><path d="M56.52 579.61s19.15 9.82 55.27 22.6c16 5.67 64.55 17.59 59.17 22.45C168.5 632.22 150 685 150 685s-45.55-18.55-75.11-29.74C53 647 18.41 634.55 18.41 634.55l69.83-4.18z" class="cls-10"/><path d="M125.58 621.49c-1.64-6.22 53.08 7.13 46.23 1.18 4.32 3.75-2.29 15.71-4.63 20.81-13.31 29-38.21 42.3-65.86 34.92 1.63-18.74 19-37.91 23.69-53.92Z" class="cls-11"/><path d="M610.86 579.61s-19.16 9.82-55.27 22.6c-16 5.67-64.55 17.59-59.17 22.45 2.46 7.56 21 60.32 21 60.32s45.55-18.55 75.11-29.74C614.42 647 649 634.55 649 634.55l-69.83-4.18 31.72-50.76Z" class="cls-10"/><path d="M541.89 621.49c1.64-6.22-53.07 7.13-46.23 1.18-4.32 3.75 2.29 15.71 4.63 20.81 13.31 29 38.22 42.3 65.86 34.92-1.64-18.74-19-37.91-23.69-53.92Z" class="cls-11"/><path d="M335 710.34c129 1.23 229-23.25 230.93-32.26 3.5-16.54-5-38.89-25.39-56 .26 14-114.93 32.06-206.65 30.87h-.21c-91.72 1.19-206.92-16.82-206.66-30.87-20.34 17.08-28.89 39.43-25.38 56 1.91 9 101.92 33.49 230.93 32.26Z" style="stroke-miterlimit:2.37;stroke-width:9.34px;stroke:#ac8505;fill:#ed3424"/><path d="m149 660.08-1.21-.28c.55-1.59.93-2.81 1.13-3.64a4.13 4.13 0 0 0-.3-3.07 3.53 3.53 0 0 0-2.38-1.66 6.45 6.45 0 0 0-4.92.79 5.83 5.83 0 0 0-2.89 3.72 4.9 4.9 0 0 0 0 2.37 14.2 14.2 0 0 0 1.66 3.34 27 27 0 0 1 3.13 6.06 7.4 7.4 0 0 1 .19 3.79 9.05 9.05 0 0 1-2.71 4.53 11.85 11.85 0 0 1-5.49 2.81 14.35 14.35 0 0 1-6.74 0 9.24 9.24 0 0 1-5.19-3q-1.86-2.26-1.41-4.18a2.5 2.5 0 0 1 1-1.56 1.82 1.82 0 0 1 1.52-.36 1.67 1.67 0 0 1 1.16.94 4.7 4.7 0 0 1 .26 1.84 6.7 6.7 0 0 0 .36 2.51 4.2 4.2 0 0 0 1.21 1.52 5.1 5.1 0 0 0 2 .94 8.65 8.65 0 0 0 6.37-.88 6.83 6.83 0 0 0 3.68-4.39 6.1 6.1 0 0 0 .12-1.92 8.9 8.9 0 0 0-.66-2.36 33 33 0 0 0-1.93-3.42 28 28 0 0 1-1.87-3.27 8.9 8.9 0 0 1-.57-2.37 6.9 6.9 0 0 1 .15-2.19 7.83 7.83 0 0 1 2.43-3.93 10.84 10.84 0 0 1 4.5-2.54 10.54 10.54 0 0 1 5.47-.05 17.6 17.6 0 0 1 3.47 1.28c.77.35 1.44.63 2 .84a23 23 0 0 0-1.47 2.68c-.48.81-1.16 2.53-2.07 5.11ZM167.36 662.42h1.62l-2.92 5.58c-1.17 2.22-2.37 4.82-3.6 7.78a24 24 0 0 0-1.16 3.15c-.09.48.06.76.45.85a3 3 0 0 0 1.3-.27 15.4 15.4 0 0 0 3.22-1.62l.57 1.07c-2.11 1.28-3.44 2-4 2.29a12.9 12.9 0 0 1-3.17 1 5 5 0 0 1-1.81 0 1.37 1.37 0 0 1-.86-.46 1.13 1.13 0 0 1-.14-.89 3.9 3.9 0 0 1 .37-.92l1.57-3a20.1 20.1 0 0 1-5.64 3.22 6.17 6.17 0 0 1-3.36.47 2.53 2.53 0 0 1-1.9-1.38 5.52 5.52 0 0 1-.33-3.57 14.3 14.3 0 0 1 2.42-5.29 20.6 20.6 0 0 1 4.65-4.86 15.6 15.6 0 0 1 5.41-2.75 11.8 11.8 0 0 1 5.07.07 12 12 0 0 1 1.51.39Zm-3.62 3a10 10 0 0 0-2.08-.67 6.07 6.07 0 0 0-3.92.44 10.4 10.4 0 0 0-3.75 3.61 15 15 0 0 0-2.53 5.76 3.9 3.9 0 0 0 .09 2.42 1.74 1.74 0 0 0 1.27 1 5.4 5.4 0 0 0 3.83-1.07 10.7 10.7 0 0 0 3.71-4.51ZM179.35 679.4l.66 1a23.6 23.6 0 0 1-5 3.06 8.16 8.16 0 0 1-4.44 1 1.56 1.56 0 0 1-1.11-.76 2.3 2.3 0 0 1-.21-1.6 43 43 0 0 1 2.79-7.6l4.31-9.94a46 46 0 0 1 3.62-7.14 11.17 11.17 0 0 1 10.85-4.42 2.48 2.48 0 0 1 1.51.76 1.5 1.5 0 0 1 .38 1.27 1.61 1.61 0 0 1-.78 1.14 2.6 2.6 0 0 1-1.74.2 12 12 0 0 1-2-.58 14.6 14.6 0 0 0-2.07-.55 2.4 2.4 0 0 0-1.53.16 5.24 5.24 0 0 0-1.64 2.18q-.87 1.73-3 6.87l-4 9.51c-2 4.76-3 7.25-3.06 7.46-.09.51 0 .79.41.86a3.4 3.4 0 0 0 1.62-.37 24 24 0 0 0 4.43-2.51Z" class="cls-7"/><path d="m199.87 668.53 3.37.49-3.44 7.98a69 69 0 0 0-3.17 7.92 1 1 0 0 0 .11.72.59.59 0 0 0 .44.3 1.75 1.75 0 0 0 1-.21 27 27 0 0 0 3.37-2.31l.65 1q-5.49 4.27-7.74 3.94a1.72 1.72 0 0 1-1.21-.77 2.38 2.38 0 0 1-.29-1.72 14.3 14.3 0 0 1 1-3.23 20.9 20.9 0 0 1-5.84 3.48 7.5 7.5 0 0 1-3.75.7 1.71 1.71 0 0 1-1.23-.74 2.66 2.66 0 0 1-.22-1.81 10.4 10.4 0 0 1 .51-2q.52-1.44 2.44-5.76a43.7 43.7 0 0 0 2.59-6.63c.06-.44-.06-.69-.38-.73a2.4 2.4 0 0 0-1.22.27 18 18 0 0 0-2.83 1.75l-.92-1a29.3 29.3 0 0 1 5.39-3 6.1 6.1 0 0 1 2.82-.49 1.18 1.18 0 0 1 .87.55 2 2 0 0 1 .16 1.34c-.15 1.09-1.12 3.69-2.88 7.79a56 56 0 0 0-2.47 6.34 1.28 1.28 0 0 0 .19.92 1 1 0 0 0 .65.45q1.33.19 4.09-1.65a10.4 10.4 0 0 0 3.93-4.52ZM213.37 673.76a14.6 14.6 0 0 1 4.16-2.64 7.4 7.4 0 0 1 3.42-.6 3.17 3.17 0 0 1 2.5 1.65 6.7 6.7 0 0 1 .52 4.15 17.3 17.3 0 0 1-2.74 7.41 15.1 15.1 0 0 1-5.22 5.15 9.1 9.1 0 0 1-5.5 1.32 4.85 4.85 0 0 1-3.35-1.71 4.46 4.46 0 0 1-.9-3.49 22.7 22.7 0 0 1 1.18-4.48l4.32-12.26a22.5 22.5 0 0 1 3.41-6.72 11.75 11.75 0 0 1 4.53-3.37 9.76 9.76 0 0 1 5-.86 3.3 3.3 0 0 1 1.93.7 1.54 1.54 0 0 1-.24 2.44 2.48 2.48 0 0 1-1.67.29 20.5 20.5 0 0 1-2.67-.68 7.2 7.2 0 0 0-1.5-.35 2.2 2.2 0 0 0-2.08 1 26.6 26.6 0 0 0-2.11 4.88Zm4.86-.89a4.64 4.64 0 0 0-2.94 1.08 13.2 13.2 0 0 0-3.63 4.6 18.7 18.7 0 0 0-2.26 6.81 3 3 0 0 0 .56 2.25 2.57 2.57 0 0 0 1.81 1.1c1.76.2 3.5-1 5.21-3.61A18.5 18.5 0 0 0 220 677a5.43 5.43 0 0 0-.41-3.17 1.75 1.75 0 0 0-1.36-.96ZM230 691.63l-3.56-.36 2.31-6.25c1.13-3.07 2.13-6 3-8.76a10 10 0 0 0 .34-1.29c0-.38-.12-.59-.47-.62a2.26 2.26 0 0 0-1.14.38 21.6 21.6 0 0 0-2.91 2.16l-.66-.92a18 18 0 0 1 4.93-3.22 8.3 8.3 0 0 1 3.62-.88 1.1 1.1 0 0 1 .66.27.64.64 0 0 1 .2.53 11 11 0 0 1-.48 1.63l-1.45 4.16a30.2 30.2 0 0 1 6.09-5.94 4.1 4.1 0 0 1 2.56-1 1.52 1.52 0 0 1 1.14.58 1.42 1.42 0 0 1 .37 1.12 1.47 1.47 0 0 1-.57 1.06 7 7 0 0 1-2.43.84 10.3 10.3 0 0 0-3 1.14 13.8 13.8 0 0 0-2.69 2.31 13.1 13.1 0 0 0-2.14 2.81 47 47 0 0 0-2.19 5.77ZM243.13 678.18l-1-.9a19.1 19.1 0 0 1 4.68-3.36 7.3 7.3 0 0 1 3.45-.82 1.87 1.87 0 0 1 1.14.43 1.13 1.13 0 0 1 .33.94 45 45 0 0 1-2.06 5.75q-3.25 8.25-3.41 10a.9.9 0 0 0 .13.57.43.43 0 0 0 .34.26q.75.06 4.16-2.62l.85 1a31 31 0 0 1-5.11 3.53 5.36 5.36 0 0 1-2.53.65 1.72 1.72 0 0 1-1.28-.64 2.07 2.07 0 0 1-.37-1.5q.27-3 4.84-14.28a3.3 3.3 0 0 0 .25-1c0-.32-.11-.49-.39-.52a2.1 2.1 0 0 0-1.12.3 25 25 0 0 0-2.9 2.21Zm10.76-15a1.6 1.6 0 0 1 1.18.6 1.7 1.7 0 0 1 .37 1.28 2.64 2.64 0 0 1-.89 1.79 2.2 2.2 0 0 1-1.7.67 1.62 1.62 0 0 1-1.15-.61 1.83 1.83 0 0 1-.36-1.36 2.6 2.6 0 0 1 .84-1.76 2.2 2.2 0 0 1 1.71-.6ZM262.11 670.39l3.9-1.18-2.2 6.56 4.95.36-.51 1.66-4.95-.35-2.67 7.85a22.4 22.4 0 0 0-1.34 5 1.25 1.25 0 0 0 .21.94 1 1 0 0 0 .73.35 5.4 5.4 0 0 0 2.33-.73 29 29 0 0 0 4-2.37l.83 1.17a61 61 0 0 1-7.34 4.32 7 7 0 0 1-2.91.68 1.73 1.73 0 0 1-1.36-.75 3.4 3.4 0 0 1-.36-2.14 24 24 0 0 1 1.29-5.19l3.14-9.34-3.87-.27.55-1.67 3.85.28ZM287.75 675.17l1.6-.24-2.13 6c-.85 2.37-1.67 5.11-2.48 8.22a23 23 0 0 0-.71 3.27c0 .5.16.76.56.77a3 3 0 0 0 1.25-.43 16.5 16.5 0 0 0 3-2.05l.71 1a46 46 0 0 1-3.65 2.83 13.1 13.1 0 0 1-3 1.4 5.3 5.3 0 0 1-1.78.24 1.37 1.37 0 0 1-.93-.34 1.14 1.14 0 0 1-.26-.86 3.6 3.6 0 0 1 .24-1l1.14-3.2a20 20 0 0 1-5.14 4 6.16 6.16 0 0 1-3.26.93 2.51 2.51 0 0 1-2.08-1.09A5.65 5.65 0 0 1 270 691a14.3 14.3 0 0 1 1.66-5.57 20.7 20.7 0 0 1 3.93-5.45 15.7 15.7 0 0 1 5-3.48 11.8 11.8 0 0 1 5-.64 14 14 0 0 1 1.55.19Zm-3.17 3.51a10.5 10.5 0 0 0-2.16-.38 6.07 6.07 0 0 0-3.82 1 10.65 10.65 0 0 0-3.21 4.1 15 15 0 0 0-1.71 6.07 4 4 0 0 0 .43 2.37 1.7 1.7 0 0 0 1.39.79 5.35 5.35 0 0 0 3.64-1.58 10.66 10.66 0 0 0 3.05-5ZM303 676.1a5.6 5.6 0 0 1 3.27.95 2.37 2.37 0 0 1 1.09 2 1.56 1.56 0 0 1-.54 1.11 1.62 1.62 0 0 1-1.2.43 1.43 1.43 0 0 1-.78-.23 4.6 4.6 0 0 1-.92-1 3.12 3.12 0 0 0-2.27-1.65 2.42 2.42 0 0 0-1.76.69 2.56 2.56 0 0 0-.83 1.85 4.25 4.25 0 0 0 .41 1.93 17 17 0 0 0 2.31 3.06q2.56 2.93 2.46 5.46a5.77 5.77 0 0 1-2.31 4.37 8.05 8.05 0 0 1-5.63 1.7 6.52 6.52 0 0 1-4.2-1.32 3.62 3.62 0 0 1-1.29-2.91 2 2 0 0 1 .59-1.38 1.7 1.7 0 0 1 1.31-.49 1.6 1.6 0 0 1 1.13.48 1.43 1.43 0 0 1 .45 1.06c0 .16 0 .37-.08.62s0 .38 0 .54a1.69 1.69 0 0 0 .62 1.36 2.66 2.66 0 0 0 1.75.62 5.9 5.9 0 0 0 2.29-.37 3.35 3.35 0 0 0 1.59-1.28 3.4 3.4 0 0 0 .61-1.77 3.3 3.3 0 0 0-.45-1.74 22.7 22.7 0 0 0-2.21-2.94 8.2 8.2 0 0 1-2.29-5.42 5.46 5.46 0 0 1 2-4 6.82 6.82 0 0 1 4.88-1.73ZM347.36 673.86h-1.28a12 12 0 0 0 .2-1.94 1.18 1.18 0 0 0-.79-1.26 29.4 29.4 0 0 0-6.05-.33h-3.5l-2.71 10.58h5a7 7 0 0 0 2.89-.33 2.56 2.56 0 0 0 .78-1.74h1.37c-.52 1.94-1 4.06-1.4 6.38h-1.22c.08-.75.13-1.34.13-1.75a1.06 1.06 0 0 0-1-.92 12 12 0 0 0-2-.12h-4.91a68.7 68.7 0 0 1-4.5 12.75 13.9 13.9 0 0 1 4-.67 34 34 0 0 1 7 .94 16 16 0 0 0 3 .52 2.53 2.53 0 0 0 1.71-.52 1.53 1.53 0 0 0 .65-1.19 4.4 4.4 0 0 0-.3-1.25 3.3 3.3 0 0 1-.19-1.12 1.34 1.34 0 0 1 .45-1 1.46 1.46 0 0 1 1.07-.43 1.55 1.55 0 0 1 1.24.54 2.3 2.3 0 0 1 .48 1.53 4.63 4.63 0 0 1-1.8 3.57 7 7 0 0 1-4.72 1.51 36 36 0 0 1-3.88-.28 75 75 0 0 0-7.86-.62 68 68 0 0 0-8.29.53l.38-1.32a15.3 15.3 0 0 0 3.35-1.14 2.86 2.86 0 0 0 .84-1.08 58 58 0 0 0 3-9.13q1.86-6.83 3.8-14.45a11.3 11.3 0 0 0-5.45 1.34 10.8 10.8 0 0 0-4 3.54 8.3 8.3 0 0 0-1.46 4.61 6.9 6.9 0 0 0 .19 1.79 12 12 0 0 0 .92 2.16 3 3 0 0 1 .44 1.37 1.23 1.23 0 0 1-.44.93 1.54 1.54 0 0 1-1.09.41 1.67 1.67 0 0 1-1.49-.95 7.2 7.2 0 0 1-.79-3.72 12.76 12.76 0 0 1 3.85-9q3.82-4 11.12-4h8.22a26.5 26.5 0 0 0 6.3-.51c-.62 2.77-1.09 4.64-1.26 5.77ZM357.66 672.72l3.79-1.52-1.61 6.74 5-.09-.36 1.71-5 .09-2 8.06a23.7 23.7 0 0 0-.9 5 1.37 1.37 0 0 0 .3.93 1 1 0 0 0 .76.28 5.5 5.5 0 0 0 2.26-.93 30 30 0 0 0 3.79-2.73l.94 1.1a62 62 0 0 1-6.95 5 6.9 6.9 0 0 1-2.84.93 1.66 1.66 0 0 1-1.41-.62 3.43 3.43 0 0 1-.56-2.1 24 24 0 0 1 .83-5.28l2.3-9.59-3.88.07.4-1.72h3.86ZM397.38 666.78l-.35 1.31a9.7 9.7 0 0 0-3.57.83 2.8 2.8 0 0 0-.91 1.05c-.28.58-1 3.67-2.25 9.26q-.6 2.76-3 15.08a12.4 12.4 0 0 0 4.26.29l-.33 1.16a29 29 0 0 1-3.07 0h-3.86a30.6 30.6 0 0 0-5.56.7l.23-1.28a15.4 15.4 0 0 0 3.95-1.23 1.5 1.5 0 0 0 .51-.44 5.6 5.6 0 0 0 .7-1.76q.36-1.34 2.38-10.79c.41-1.83 1.2-5.81 2.4-12a17.3 17.3 0 0 0-4 .64l.4-1.34a12.3 12.3 0 0 1 2-.46c.69-.11 2.28-.25 4.75-.42a45 45 0 0 0 5.32-.6ZM398.78 680.45l-.87-.79a25 25 0 0 1 4.63-4.18 6.9 6.9 0 0 1 3-1.17 1.4 1.4 0 0 1 .8.17.61.61 0 0 1 .32.48 5 5 0 0 1-.07.77l-.76 4.88a30 30 0 0 1 5.79-5.45 6.76 6.76 0 0 1 3.15-1.43 1.88 1.88 0 0 1 1.5.5 2.53 2.53 0 0 1 .63 1.69 7.8 7.8 0 0 1-.1 1.69c-.19 1-.71 3.36-1.57 6.9a27.9 27.9 0 0 0-1.1 6.58 1.4 1.4 0 0 0 .19.71.44.44 0 0 0 .42.21c.46 0 1.16-.53 2.09-1.49.65-.68 1.32-1.31 2-1.9l.65.82a22 22 0 0 1-4.31 4.22 5 5 0 0 1-2.42 1.12 1.67 1.67 0 0 1-1.46-.56 3.56 3.56 0 0 1-.64-2.11q-.15-2.13 2-10.77a26 26 0 0 0 .59-3.56c0-.5-.35-.72-.94-.69a5 5 0 0 0-2.4 1.16 15.4 15.4 0 0 0-3.53 3.74 11.3 11.3 0 0 0-1.32 4.22l-1.4 8.47-3.56.24q.77-3.64 1.29-7l1.54-9.22a4 4 0 0 0 .07-.8c0-.43-.21-.64-.52-.61a2.2 2.2 0 0 0-1.07.56 15.2 15.2 0 0 0-2.62 2.6ZM440.41 686.78l.75.84a37 37 0 0 1-4.42 4 7.6 7.6 0 0 1-3.29 1.51 1.34 1.34 0 0 1-1-.23.93.93 0 0 1-.42-.7 5.3 5.3 0 0 1 .14-1.36l.58-3a22.7 22.7 0 0 1-4.41 4.61 7.1 7.1 0 0 1-3.33 1.41 2.62 2.62 0 0 1-2.23-.93 5.32 5.32 0 0 1-1.15-3.18 17.3 17.3 0 0 1 1.62-8 19.1 19.1 0 0 1 4.61-7 9 9 0 0 1 5-2.58 11 11 0 0 1 1.58 0 38 38 0 0 1 1.54-7 12.4 12.4 0 0 1 2.33-3.92 11.4 11.4 0 0 1 3.49-2.73 10.6 10.6 0 0 1 3.83-1.2 2.3 2.3 0 0 1 1.58.37A1.57 1.57 0 0 1 448 659a1.56 1.56 0 0 1-.41 1.25 2.1 2.1 0 0 1-1.39.6 22 22 0 0 1-2.25-.05 17.5 17.5 0 0 0-2.24 0 2.25 2.25 0 0 0-1.43.64 5.1 5.1 0 0 0-1 2.31q-.28 1.11-1.13 7L436 685.44a17.7 17.7 0 0 0-.29 3.44c0 .6.31.89.77.84a2.2 2.2 0 0 0 1-.39 36 36 0 0 0 2.93-2.55Zm-6.16-11.87a15.6 15.6 0 0 0-2.73-.2 5 5 0 0 0-3 1.54 12.25 12.25 0 0 0-2.52 5.12 17.7 17.7 0 0 0-.86 6.41 3 3 0 0 0 .84 1.93 1.93 1.93 0 0 0 1.56.65 4.34 4.34 0 0 0 2.22-1.09 9.9 9.9 0 0 0 2.62-3.46 30.5 30.5 0 0 0 1.22-6Z" class="cls-7"/><path d="m458.67 670 3.38-.39-1.27 8.57a62 62 0 0 0-1 8.46 1 1 0 0 0 .29.67.63.63 0 0 0 .5.17 1.74 1.74 0 0 0 .91-.46 29 29 0 0 0 2.66-3.1l.89.79q-4.22 5.53-6.47 5.78a1.7 1.7 0 0 1-1.37-.43 2.38 2.38 0 0 1-.73-1.59 14.7 14.7 0 0 1 .14-3.37 21.1 21.1 0 0 1-4.74 4.86 7.7 7.7 0 0 1-3.45 1.64 1.68 1.68 0 0 1-1.38-.4 2.7 2.7 0 0 1-.68-1.69 11.3 11.3 0 0 1 0-2c.1-1 .39-3.09.89-6.19a43 43 0 0 0 .8-7.07c-.06-.44-.24-.65-.56-.62a2.6 2.6 0 0 0-1.11.58 17.5 17.5 0 0 0-2.28 2.43l-1.14-.72a28.4 28.4 0 0 1 4.44-4.31 6.3 6.3 0 0 1 2.59-1.21 1.2 1.2 0 0 1 1 .32 2 2 0 0 1 .51 1.26 45.3 45.3 0 0 1-.79 8.26 61 61 0 0 0-.77 6.77 1.3 1.3 0 0 0 .43.82 1 1 0 0 0 .74.28q1.34-.17 3.53-2.64a10.37 10.37 0 0 0 2.64-5.38ZM475.79 667a5.6 5.6 0 0 1 3.38.36 2.33 2.33 0 0 1 1.41 1.74 1.5 1.5 0 0 1-.33 1.17 1.54 1.54 0 0 1-1.1.64 1.5 1.5 0 0 1-.82-.09 4.3 4.3 0 0 1-1.09-.88 3.15 3.15 0 0 0-2.51-1.22 2.37 2.37 0 0 0-1.62 1 2.54 2.54 0 0 0-.49 2 3.9 3.9 0 0 0 .74 1.81 16 16 0 0 0 2.81 2.63c2 1.62 3.14 3.28 3.38 4.95a5.78 5.78 0 0 1-1.52 4.7 8.07 8.07 0 0 1-5.24 2.66 6.6 6.6 0 0 1-4.37-.56 3.61 3.61 0 0 1-1.78-2.64 2 2 0 0 1 .34-1.45 1.73 1.73 0 0 1 2.41-.45 1.39 1.39 0 0 1 .61 1 5 5 0 0 1 0 .62v.54a1.65 1.65 0 0 0 .85 1.22 2.58 2.58 0 0 0 1.83.31 5.6 5.6 0 0 0 2.2-.75 3.61 3.61 0 0 0 1.63-3.39 3.4 3.4 0 0 0-.75-1.64 23.4 23.4 0 0 0-2.68-2.51 8.2 8.2 0 0 1-3.22-4.94 5.45 5.45 0 0 1 1.31-4.33 6.78 6.78 0 0 1 4.62-2.5ZM487.32 661.41l3.52-2-.62 6.9 4.9-.81-.11 1.76-4.89.79-.8 8.27a23.4 23.4 0 0 0-.18 5.12 1.3 1.3 0 0 0 .44.87 1 1 0 0 0 .78.17 5.36 5.36 0 0 0 2.11-1.25 29 29 0 0 0 3.35-3.23l1.08.95a62 62 0 0 1-6.16 5.9 6.76 6.76 0 0 1-2.67 1.32 1.71 1.71 0 0 1-1.49-.41 3.36 3.36 0 0 1-.84-2 23.3 23.3 0 0 1 .05-5.35l.92-9.81-3.83.62.14-1.75 3.81-.62ZM505.2 682.47l-3.51.65.48-6.64q.33-4.9.45-9.25a9 9 0 0 0 0-1.34c-.07-.37-.27-.53-.61-.47a2.5 2.5 0 0 0-1 .68 23.4 23.4 0 0 0-2.19 2.88l-.88-.68a18.5 18.5 0 0 1 3.83-4.48A8.3 8.3 0 0 1 505 662a1 1 0 0 1 .71.08.58.58 0 0 1 .34.46 10 10 0 0 1 0 1.68l-.22 4.41a30.2 30.2 0 0 1 4.19-7.41 4.07 4.07 0 0 1 2.17-1.72 1.6 1.6 0 0 1 1.25.24 1.5 1.5 0 0 1 .67 1 1.47 1.47 0 0 1-.25 1.17 7 7 0 0 1-2.11 1.49 10.7 10.7 0 0 0-2.58 1.94 16.9 16.9 0 0 0-3.21 6.26 51 51 0 0 0-.49 6.15ZM513.94 665.89l-1.2-.59a18.7 18.7 0 0 1 3.51-4.55 7.14 7.14 0 0 1 3.08-1.78 1.78 1.78 0 0 1 1.21.08 1.12 1.12 0 0 1 .58.82 43 43 0 0 1-.32 6.09c-.5 5.9-.64 9.42-.4 10.55a.93.93 0 0 0 .27.52.49.49 0 0 0 .41.15q.74-.15 3.24-3.72l1.1.71a31.2 31.2 0 0 1-3.89 4.85 5.44 5.44 0 0 1-2.24 1.35 1.73 1.73 0 0 1-1.41-.25 2 2 0 0 1-.77-1.33c-.42-2-.23-7 .54-15.07a4 4 0 0 0 0-1c-.06-.32-.24-.45-.52-.39a2.2 2.2 0 0 0-1 .6 25 25 0 0 0-2.19 2.96Zm6-17.45a1.54 1.54 0 0 1 1.28.23 1.76 1.76 0 0 1 .74 1.13 2.8 2.8 0 0 1-.34 2 2.24 2.24 0 0 1-1.45 1.12 1.6 1.6 0 0 1-1.28-.25 1.84 1.84 0 0 1-.73-1.19 2.6 2.6 0 0 1 .31-1.94 2.15 2.15 0 0 1 1.53-1.1ZM539.72 653.9l1.46-.69-.35 6.32c-.13 2.51-.16 5.37-.05 8.58a20.6 20.6 0 0 0 .26 3.34c.11.48.36.67.75.58a2.65 2.65 0 0 0 1.07-.77 16 16 0 0 0 2.26-2.8l1 .72c-1.38 2-2.28 3.3-2.69 3.76a13.9 13.9 0 0 1-2.49 2.19 5.3 5.3 0 0 1-1.65.74 1.4 1.4 0 0 1-1-.07 1.1 1.1 0 0 1-.51-.74 4.3 4.3 0 0 1 0-1l.18-3.39a19.9 19.9 0 0 1-3.8 5.26 6 6 0 0 1-2.87 1.82 2.48 2.48 0 0 1-2.29-.46 5.46 5.46 0 0 1-1.78-3.13 14.4 14.4 0 0 1 0-5.82 20.7 20.7 0 0 1 2.23-6.33 15.2 15.2 0 0 1 3.79-4.75 11.6 11.6 0 0 1 4.64-2 13 13 0 0 1 1.54-.26Zm-2 4.26a11 11 0 0 0-2.18.24 6.15 6.15 0 0 0-3.39 2 10.5 10.5 0 0 0-1.92 4.84 14.8 14.8 0 0 0 .09 6.3 3.92 3.92 0 0 0 1.07 2.16 1.76 1.76 0 0 0 1.57.36 5.36 5.36 0 0 0 3-2.55 10.57 10.57 0 0 0 1.53-5.65Z" class="cls-7"/><path d="M558.54 358.5s14.84 43.7 24.2 60.08 25.76 90.54 5.47 114-50 51.51-75.71 45.27-60.88-22.64-74.92-26.54-58.54 3.9-67.9 9.37-34.35 18.73-34.35 18.73l-.78-220.1Z" class="cls-13"/><path d="M109 360.05s18-58 2.06-117l-36.4-91.37 260.68 3.12-.78 206Z" class="cls-13"/><path d="m231.16 260.83 1.5 3 .2.43.42.88-8.39 22.59s-1.59 1.65-1 2.28l-.48.68a1.84 1.84 0 0 0-.63 1.22 3 3 0 0 0-.56.6 2.5 2.5 0 0 0-.12 1.66l-3.21 4.14s-.58 2.32.26 1.93a41 41 0 0 0 4.35.26s2.37-1.37 2.6-2l.18-2.83a8.55 8.55 0 0 1 .18-4.55 25 25 0 0 0 1.13-2.45l1.16-4.19 6.41-16.07a26 26 0 0 1 1.62-3.23 1 1 0 0 0 .39-.49l.14-.41v-.46s1.47-2.62.64-4.38c-.11-.53-2.12-3.16-4.05-1.28Z" class="cls-14"/><path d="M206.22 304.31s-1.24-2.73.78-4.26a9.3 9.3 0 0 1 1-1.17 2.52 2.52 0 0 1 1.88-1.09 33 33 0 0 1 3.27 0l2.17-.23 1.28-.12.63-.12.37-.21.07-.29.28-.16 1-.13h.45s.31 0 .38.15.33.58.33.58l.15.25.23.4.07.24.09.32v.4l-.2.15-.34.2a2.7 2.7 0 0 1-.74.06c-.19-.05-.67-.23-.82-.27l-.48-.13-6.46 1.24s-1.31 1.21-2.35.63c-.21-.1-3.77 1.7-3.04 3.56Z" class="cls-15"/><path d="M209.18 306.56s-1.57-2.55.22-4.32a10 10 0 0 1 .83-1.29 2.45 2.45 0 0 1 1.72-1.32 29 29 0 0 1 3.24-.43l2.12-.51 1.26-.29.61-.2.33-.27v-.29l.26-.19 1-.26.45-.12s.3 0 .38.1l.42.54.17.22.28.37.09.25.14.29v.41l-.18.18-.31.23a2.5 2.5 0 0 1-.72.16c-.21 0-.69-.14-.84-.16l-.5-.07-6.25 2.07s-1.14 1.37-2.25.92c-.14-.02-3.43 2.23-2.47 3.98Z" class="cls-15"/><path d="M213.25 309.29s-2-2.21-.57-4.29a10.4 10.4 0 0 1 .58-1.41 2.5 2.5 0 0 1 1.45-1.61 28 28 0 0 1 3.12-1l2-.88 1.19-.51.56-.31.29-.32v-.3l.21-.23.92-.43.42-.2s.29-.06.4 0l.5.45.21.19.35.31.13.21.19.27.07.4-.14.21-.26.28a2.2 2.2 0 0 1-.69.29h-1.35l-5.83 3.21s-.88 1.56-2 1.31c-.19.01-3 2.82-1.75 4.36Z" class="cls-15"/><path d="M233 303.91s.46-2.8-.63-4.19a10 10 0 0 0-.56-1.1s-.29-.84-1-.94a7.2 7.2 0 0 0-1.63.23l-1.09-.07h-.64l-.33-.07-.19-.19v-.29l-.15-.14-.5-.05h-.23a.32.32 0 0 0-.18.19c0 .12-.13.6-.13.6l-.06.26-.09.41v.57l.05.4.11.14.18.17s.28.08.37 0 .32-.28.39-.33l.23-.16 3.29.76s.72 1.11 1.2.45a4 4 0 0 1 1.59 3.35Z" class="cls-16"/><path d="M212.61 287.42s-1.59 1.64-1 2.28l-.47.67a1.87 1.87 0 0 0-.65 1.22 2.8 2.8 0 0 0-.54.6 2.44 2.44 0 0 0-.13 1.66l-3.23 4.15s-.57 2.33.26 1.93c-.24.13 4.35.25 4.35.25s2.37-1.36 2.59-2l.19-2.83a8.66 8.66 0 0 1 .18-4.55 24 24 0 0 0 1.13-2.45l1.16-4.19 6.41-16.06a24.4 24.4 0 0 1 1.62-3.24 1 1 0 0 0 .39-.49l.13-.37v-.46s1.48-2.61.64-4.38c-.1-.53-2.12-3.16-4.05-1.27l-2.73 2.61 1.51 3 .2.43.42.87" class="cls-14"/><path d="M193.94 304s-1.23-2.72.77-4.26a10 10 0 0 1 1-1.16 2.49 2.49 0 0 1 1.88-1.09 30 30 0 0 1 3.28 0l2.16-.23 1.28-.13.63-.12.37-.21.08-.29.28-.15 1-.13.46-.07s.3 0 .37.16l.34.59.14.24.23.4.07.24.1.32-.06.4-.2.15-.33.2a3.2 3.2 0 0 1-.75.07c-.19-.06-.67-.24-.81-.27l-.49-.13-6.46 1.24s-1.31 1.21-2.35.62c-.16-.09-3.72 1.71-2.99 3.61Z" class="cls-15"/><path d="M196.91 306.21s-1.58-2.55.22-4.32a9 9 0 0 1 .82-1.28 2.51 2.51 0 0 1 1.72-1.33 32 32 0 0 1 3.25-.43l2.12-.51 1.25-.29.61-.2.34-.26v-.3l.25-.19 1-.26.45-.11s.3 0 .39.1.41.53.41.53l.17.23.28.37.1.24.14.3v.4l-.17.18-.31.23a2.8 2.8 0 0 1-.73.17c-.2 0-.69-.15-.84-.17l-.5-.06-6.25 2.06s-1.14 1.38-2.25.92c-.15-.02-3.44 2.22-2.47 3.98Z" class="cls-15"/><path d="M201 309s-2-2.22-.57-4.29a10 10 0 0 1 .58-1.42 2.44 2.44 0 0 1 1.45-1.6 28 28 0 0 1 3.11-1l2-.88 1.18-.52.56-.3.29-.32v-.3l.21-.24.91-.42.42-.2s.3-.06.4 0l.5.45.22.19.34.31.14.22.18.27.07.39-.13.21-.26.3a2.7 2.7 0 0 1-.69.28h-1.36l-5.77 3.17s-.88 1.55-2 1.31c-.24-.01-3.08 2.79-1.78 4.39Z" class="cls-15"/><path d="M220.75 303.56s.45-2.8-.63-4.19a12 12 0 0 0-.57-1.08s-.28-.86-1-1a7.2 7.2 0 0 0-1.63.23l-1.09-.08h-.65l-.31-.07-.2-.19-.06-.29-.14-.14h-.74a.29.29 0 0 0-.18.18l-.13.6-.06.26-.09.42v.57l.05.39.11.14.18.17s.28.08.38 0 .31-.28.38-.33l.24-.16 3.28.77s.73 1.11 1.21.45a4 4 0 0 1 1.65 3.35Z" class="cls-16"/><path d="M163.11 210.19a20 20 0 0 1 1.8-4.92 19.1 19.1 0 0 1 8-6.05s7.73-3.17 13.18-2.14a54.2 54.2 0 0 1 16.52 5.85s8.12 4.25 13.18 5.4c-.16-.17 18.1 5.92 25.4 10.79-.24 0 1.24.43 1.24.43s20.72-9.17 32.18-12.6c0 0 13.84-4.4 18.33-4.4l7.45-.1s1.24 0 1.24 1c0 0-.48 1-5 1.91 0 0-1.77.29-1.77 1.77 0 0 2 2.43-4.82 3 0 0-14.71 4.68-19.1 7l-10.79 12.41s-8.5 13-11 19.77a8.77 8.77 0 0 1-2.86 7.06l-3.73 7-6.93 1.94s-.67-3.38-2.74-2.73l-2.65.79S189.9 277.65 174.57 245c0 0-4.15-9-2.58-14.47 0 0 .51-3.61-3.36-8.25 0 .23-3.88-5.18-4.78-5.72s-2.24-3.82-.74-6.37Z" style="fill:#fff;stroke:#fff;stroke-width:.29px"/><path d="M239.49 220c4.67-.71 13.23 3.86 13.23 3.86a1.86 1.86 0 0 0 .95.52c.43 0 3.46 3.46 2.69 3.46 9.63 5.13 6.6 5.9 6.6 5.9-.66-.65-1.94-.35-2.76-.35s.66.66.66.66a29 29 0 0 0 3.65 1.25c.47 0 2.45 2.44 2.45 2.44s5.09 5.09 5.79 5.09a109 109 0 0 1-11-1.16c-5.28 1.71-17.7 1.5-17.17 1.32-3.18 1.32-13.59.4-13.28.39a42.4 42.4 0 0 1-23.22-6.06s-4.59-3.19-4.59-7.93" class="cls-18"/><path d="M237.48 241.94c6.53-2.41-2.8-9.4-2.8-9.4s21.6 1.31 27.89 3.26" class="cls-18"/><path d="M153.53 215.73s.14-4 8.29-5.1l2.24-.43a3.08 3.08 0 0 1 2.71 1.06s1.29 1.09 5.35.61a20.7 20.7 0 0 0-5.25 2.86 11.5 11.5 0 0 1-6.39 1.19l-6.57-.57Z" style="fill:#fff;stroke:#ed3424;stroke-width:.88px"/><path d="M185.64 207.18a3.4 3.4 0 1 1-3.36-2.89 3.15 3.15 0 0 1 3.36 2.89" class="cls-13"/><path d="M79.95 154.29h512.07" style="fill:none;stroke:#ac8505;stroke-width:14.05px"/><path d="M109.63 359.06h447.96" style="fill:none;stroke:#ac8505;stroke-width:12.58px"/><path d="M334.47 154.29v424.7" style="fill:none;stroke:#ac8505;stroke-width:12.25px"/><path d="m591.3 155.56-28.91 68.92-437.95 347.25-35.07-23.65-14.6-32.46 455.39-361.33z" class="cls-9"/><path d="M106.64 545.77c2.5 1.61 8 4.16 11.47 1.39 1.86-1.48 2.27-3.91.32-6.39-1.78-2.24-4.18-2.39-7.21-1.74l-.75.17c-4.09.88-9 1.53-12.21-2.55-3.41-4.3-3.24-10.14 2.39-14.59a15 15 0 0 1 3.65-2.15c1-.42 1.71-.73 2.3-.95 1.32 1.38 3.05 3 5.49 5.33l-1.37 1.52c-2.78-1.9-6.17-3.61-9-1.37a4 4 0 0 0-.51 5.78c1.52 1.9 3.78 1.9 7 1.2l1.08-.24c4.57-1 8.94-1.31 12.47 3.15 3.7 4.69 2.87 10.93-2.68 15.33a16.2 16.2 0 0 1-4.39 2.41 23 23 0 0 1-3 .86c-1.67-1.5-3.76-3.21-6.21-5.42ZM121.06 509.25l-1 1.06c-1.18 1.25-1.07 1.59.6 2.82l13.53 10.12.07-.07-8.15-20 2.52-2 18.29 11.94.07-.06c-2.27-5.45-5.19-11.88-6.44-14.49s-1.69-2.88-3.39-1.85l-1.48.93-1.17-1.49 8.57-6.78 1.17 1.48c-1.77 1.91-2 2.27-.56 6.59.2.64 4.38 11.58 9.84 24.39l-2.77 2.18-17.51-11.3-.07.05 7.44 19.27-2.76 2.2L116 519.08c-3.47-2.42-4.24-2-6.07-1l-1.18-1.5 11.19-8.85ZM167.62 500.38c3.25 4.12 3.75 4.15 6.41 2.43l1.17 1.48-11.61 9.18-1.18-1.47c2.29-2.19 2.37-2.68-.89-6.79l-10-12.59c-3.26-4.12-3.75-4.15-6.41-2.42l-1.11-1.5 11.61-9.18 1.17 1.49c-2.29 2.18-2.36 2.67.9 6.79ZM199 485.92l-3.08 2.44-27.5-7.49-.08.05 5.55 7a80 80 0 0 0 6 7.05c1.24 1.2 2.59.91 5.05-.83l1.18 1.48-8.93 7.06-1.19-1.45c1.52-1.35 2-2.61 1.15-4.08a80 80 0 0 0-5.46-7.51l-5.55-7c-2.23-2.83-2.69-3.26-4.26-3.76-1.17-.38-2.27.06-3.66 1l-1.17-1.47 7.92-6.27 24.45 6.38.08-.06-4.05-5.12a83 83 0 0 0-6-7.05c-1.24-1.19-2.6-.93-5.06.84l-1.17-1.49 9.14-7.23 1.18 1.49c-1.73 1.49-2.24 2.76-1.37 4.24a87 87 0 0 0 5.47 7.5ZM194.47 448.78c4.42-3.5 8.8-5.47 13.16-4.9a14.44 14.44 0 0 1 9.26 5.39c7.51 9.48 4 18.91-4.32 25.46l-9.26 7.33-1.17-1.49c2.43-2.31 2.51-2.8-.74-6.91l-10-12.58c-3.26-4.12-3.75-4.16-6.27-2.55l-1.13-1.47Zm13.05 20.09c2.68 3.4 4 3.42 5.71 2.06 3.08-2.44 3.33-8.53-2-15.27-6.48-8.2-12.2-7.39-15.24-5a4 4 0 0 0-1.34 1.47c-.12.22.54 1.13 1.29 2.08ZM244.41 428.92c6.45 8.15 5.25 17.4-1.64 22.85-7.23 5.73-16.37 3.85-21.91-3.16-4.89-6.18-6.65-16.38 1.92-23.16 6.57-5.18 15.65-4.07 21.63 3.47M226.5 442c5.46 6.9 11.87 10 15.39 7.22 3.08-2.44 2.26-6.94-3.19-13.84-6.06-7.66-12-9.85-15.07-7.4-2.76 2.21-2.41 7.37 2.87 14.02M278.25 423.22l-3.08 2.43-27.51-7.49h-.06l5.54 7a82 82 0 0 0 6 7.06c1.25 1.19 2.61.93 5.07-.84l1.17 1.48-8.89 7.14-1.17-1.5c1.51-1.32 2-2.58 1.14-4.07a79 79 0 0 0-5.46-7.49l-5.55-7c-2.23-2.82-2.7-3.26-4.26-3.76-1.17-.36-2.28.07-3.66 1l-1.18-1.49 7.93-6.27 24.45 6.38.07-.05-4-5.12a79 79 0 0 0-6-7c-1.23-1.2-2.59-.93-5.05.83l-1.18-1.49 9.15-7.23 1.17 1.48c-1.74 1.49-2.24 2.78-1.37 4.24a82 82 0 0 0 5.47 7.51ZM412.65 305.79c3.26 4.11 3.76 4.14 7 2l1.16 1.49-12.54 9.92-1.27-1.48c2.69-2.51 2.77-3-.48-7.12l-13.2-16.69-.61.48c-2.41 1.9-3 3.13-3.05 4.27a12.35 12.35 0 0 0 1.6 4.74l-1.49 1.2c-2.4-3.32-4.27-6.12-5.73-8.12l1.1-.88c1.24.45 1.64.25 2.64-.52l14.28-11.32c.95-.74.93-1.11.93-2.29l1.12-.87c1.31 1.57 4 4.67 6.45 7.34l-1.48 1.37c-2.34-1.86-3.52-2.54-4.59-2.77s-2.5.51-4.22 1.86l-.87.69ZM439.46 273.86c6.45 8.16 5.24 17.41-1.63 22.86-7.25 5.73-16.37 3.84-21.92-3.18-4.89-6.18-6.65-16.37 1.92-23.14 6.56-5.19 15.65-4.09 21.63 3.46M421.56 287c5.44 6.91 11.86 10 15.38 7.23 3.1-2.44 2.27-6.93-3.19-13.83-6.06-7.66-12-9.85-15.08-7.41-2.75 2.15-2.39 7.31 2.89 14.01M442.06 254.59l-1 1c-1.17 1.25-1.06 1.61.59 2.82l13.54 10.11.08-.05-8.14-19.95 2.5-2 18.29 11.93.08-.05c-2.27-5.46-5.2-11.88-6.44-14.49s-1.71-2.88-3.39-1.85l-1.49.93-1.17-1.49 8.58-6.78 1.16 1.49c-1.77 1.89-2 2.26-.56 6.58.21.64 4.39 11.58 9.84 24.37l-2.76 2.18-17.52-11.3-.06.06 7.43 19.27-2.76 2.19-21.9-15.22c-3.47-2.4-4.24-2-6.06-1l-1.21-1.34 11.18-8.84ZM506.11 242.22l-3.11 2.43-27.5-7.5v.06l5.53 7a78 78 0 0 0 6 7.05c1.23 1.19 2.61.93 5.07-.83l1.16 1.48-8.9 7.09-1.19-1.49c1.54-1.32 2-2.59 1.15-4.07a81 81 0 0 0-5.45-7.5l-5.56-7c-2.23-2.82-2.69-3.26-4.26-3.76-1.16-.37-2.28.06-3.65 1l-1.17-1.48 7.9-6.27 24.47 6.38.07-.06-4.05-5.11a79 79 0 0 0-6-7.05c-1.22-1.2-2.59-.93-5 .83l-1.18-1.48 9.13-7.24 1.19 1.49c-1.73 1.49-2.26 2.76-1.38 4.24a81 81 0 0 0 5.48 7.51ZM515.8 211.87l2.45-1.94c3.09-2.44 3-2.75 1.22-5.74l1.58-1.25 6.69 8.47-1.57 1.24c-2.74-2.72-3-2.86-6.12-.43l-2.44 1.93 4.19 5.3c3.25 4.12 3.74 4.15 6.89 2.05l1.17 1.5-12 9.47-1.17-1.47c2.19-2.1 2.29-2.59-1-6.71l-10-12.58c-3.26-4.12-3.75-4.16-6.31-2.51l-1.17-1.49 17.4-13.71c.54.61 2.91 3.27 5.42 6l-1.48 1.37c-1.9-1.67-3.15-2.41-4.2-2.57s-2.46.5-4.36 2l-1.66 1.33c-.65.5-.73.56.38 2ZM543 184.2c-4.82-3.74-8-3.2-10.56-1.19-4.3 3.4-3 10.45 1.31 16 5.53 7 12.33 8.95 16 6 3.11-2.47 3.22-6 1.73-11.66l1.78-1a61 61 0 0 1 3.6 8.51 37 37 0 0 1-5.69 6.23c-9.64 7.63-18.57 4.16-23.43-2-6.23-7.89-4.71-17.89 3.57-24.45a32.2 32.2 0 0 1 7.18-4.05c1.94 1.87 3.41 3.44 5.88 6.12Z" class="cls-1"/><path d="M420.41 437.12h1.3l-5.37 20.78-4.45 19.3a15.3 15.3 0 0 0-.66 3.24 1.24 1.24 0 0 0 .65 1.06 8.7 8.7 0 0 0 3 .62c1.16.11 2.28.26 3.38.46l-.75 2q-8.3-.88-11.56-.88a66.6 66.6 0 0 0-10.37.88l.66-2c1.34-.35 2.86-.72 4.58-1.07a6.3 6.3 0 0 0 3.47-1.53q1.28-1.33 2.66-6.44l4.16-15.91c1.35-6 2.05-9.46 2.05-10.25S412.75 446 412 446q-.84 0-7.74 3.08l-.77-2a124 124 0 0 0 12.26-6.31 56 56 0 0 0 4.66-3.65ZM450.65 457.79q6.54 6.52 6.54 12.3 0 5.57-4.71 10.06a16.14 16.14 0 0 1-11.5 4.48q-5.55 0-8.41-3a9.35 9.35 0 0 1-2.87-6.63 11.1 11.1 0 0 1 1.19-4.86 16.3 16.3 0 0 1 3.74-4.83 68 68 0 0 1 9-6.15q-4.14-4.67-4.13-9.53a11.4 11.4 0 0 1 3.81-8.56 13.15 13.15 0 0 1 9.37-3.59 9.77 9.77 0 0 1 6.65 2.23 6.8 6.8 0 0 1 2.57 5.27 9.4 9.4 0 0 1-2.35 5.95 27 27 0 0 1-8.9 6.86Zm-5.37 3.12q-6.13 4.3-8.23 7.46a11.56 11.56 0 0 0-2.09 6.46 7.27 7.27 0 0 0 2.18 5.35 7.42 7.42 0 0 0 5.41 2.17 8.83 8.83 0 0 0 4.54-1.3 9.5 9.5 0 0 0 3.51-3.65 9.6 9.6 0 0 0 1.33-4.75 10.8 10.8 0 0 0-1.28-4.76 35 35 0 0 0-5.37-6.98Zm3.64-5.15q5.38-3.74 7-6a7.26 7.26 0 0 0 1.63-4.2 5.25 5.25 0 0 0-1.67-3.9 5.7 5.7 0 0 0-4.18-1.64 6.86 6.86 0 0 0-5 2.08 6.78 6.78 0 0 0-2.08 5c-.01 2.71 1.38 5.58 4.3 8.66ZM473.33 448.18h-1.95c.1-.36.41-1.35.92-2.94q1.45-4.67 2-7.26a96 96 0 0 0 13.48.65q6.36 0 12.36-.16-12.82 16.38-16.14 21.26a89 89 0 0 0-7.71 13.14 25.2 25.2 0 0 0-1.49 6.23c-.37 2.71-.83 4.42-1.4 5.17a2.62 2.62 0 0 1-2.18 1.11 2.73 2.73 0 0 1-2.09-1 3.6 3.6 0 0 1-.89-2.46c0-2.41.9-5.26 2.7-8.51q3.86-7 17.46-23.76l5-6.19H479a6.17 6.17 0 0 0-3.45.67q-.91.67-2.22 4.05ZM497.16 484.63l.46-2.34a28.1 28.1 0 0 0 10.86-2.37 22 22 0 0 0 7.61-5.9 29 29 0 0 0 5.06-10.14 16.3 16.3 0 0 1-4.32 2.62 12.2 12.2 0 0 1-4.49.88 9 9 0 0 1-7.1-3.1c-1.81-2-2.71-5-2.71-8.84a19.53 19.53 0 0 1 4.67-13.26 13 13 0 0 1 10.32-4.69 10.89 10.89 0 0 1 8.72 4.05q3.42 4 3.41 11.22a31.77 31.77 0 0 1-4.4 16.14 31 31 0 0 1-11.63 11.73 32.1 32.1 0 0 1-16.46 4Zm24.72-23.72a59 59 0 0 0 1-9.88c0-4.07-.61-7-1.85-8.76a5.42 5.42 0 0 0-9.44.19q-2.37 3.77-2.37 11c0 4 .54 6.79 1.63 8.43a4.72 4.72 0 0 0 4 2.46 7.3 7.3 0 0 0 3.26-.86 19 19 0 0 0 3.77-2.58Z" class="cls-23"/><path d="M173.92 122.85a8 8 0 1 1 8.08 8.05 8.05 8.05 0 0 1-8.08-8.05M342.5 122.8a8.05 8.05 0 1 1 8.05 8 8.06 8.06 0 0 1-8.05-8M243.38 114.52a16.19 16.19 0 1 0-16.19 16.2 16.18 16.18 0 0 0 16.19-16.2M280.55 114.52a16.2 16.2 0 1 0-16.2 16.2 16.19 16.19 0 0 0 16.2-16.2M318.26 114.52a16.2 16.2 0 1 0-16.19 16.2 16.18 16.18 0 0 0 16.19-16.2" class="cls-13"/><path d="M376.62 109.09v.67h-9v-12.7c0-4.54 4.57-6.62 4.57-6.62V70.9h-3.48v6.32h-13.85c-5.86 0-5.38-5.69-5.38-5.69v-8h-42.11v7.37h-32.23c-1.83 0-1.61 1.92-1.61 1.92h-6.88a2.29 2.29 0 0 1-2.6-2.18v-3.3h.6v-1.25h-7.07v1.28h.67v3.25a2.78 2.78 0 0 1-2.49 3l-23.54 2.63h-24.06a3.24 3.24 0 0 1-3.45-3.46v-6.2h.49v-1.66H197v1.69h.55v6.17c0 4.24-3.72 3.69-3.72 3.69h-8.14v.59s-2.83 3-2.83 11.56 2.79 11.37 2.79 11.37v.8h6.06v2.2h-6.06c0 7-5.35 6.72-5.35 6.72H168v1.07h-7.61v-1H159v6.58h1.46v-1.13H168v1.13h5.43v3.6h156.16a4.23 4.23 0 0 1-1.68 3v1.14h11.58v-1.14a5 5 0 0 1-1.6-3h28.2a1.18 1.18 0 0 0 1.33-1.34v-3.1c1.51 0 1.26-1.72 1.26-1.72h7.95v.6h1.07v-5.29ZM320.24 103s-3.39-11-18.38-11-18.39 11-18.39 11H283s-3.42-11-18.41-11-18.39 11-18.39 11h-.49s-3.41-11-18.4-11-18.39 11-18.39 11H196.7v-2.3h10.51a17.5 17.5 0 0 1 .87-2s4.23-9.34 19.23-9.4c15 .06 18.4 9 18.4 9h.49s3.4-8.92 18.39-9c15 .06 18.4 8.87 18.4 8.87h.48s3.4-8.81 18.39-8.87c15 .06 19.12 9.4 19.12 9.4a16.2 16.2 0 0 1 1.44 4.26Zm16.37 16.31h-5.72v-4.28h5.72Zm0-6.07h-5.72V109h5.72Zm0-6.21h-5.72v-4.28h5.72Zm7.05-27.16a3.8 3.8 0 0 1-4.06 3.74h-2.53V101h-6.72V83.65h-5.88s-4.05.26-4.05-3.76v-4.65a3.76 3.76 0 0 1 4.05-3.43h15.13s4.06 0 4.06 3.43ZM397 120.19a10.66 10.66 0 1 1 10.65 10.66A10.66 10.66 0 0 1 397 120.19M425.48 120.19a10.67 10.67 0 1 1 10.67 10.66 10.67 10.67 0 0 1-10.67-10.66M454 120.19a10.67 10.67 0 1 1 10.66 10.66A10.66 10.66 0 0 1 454 120.19" class="cls-13"/><path d="M482.8 85.41v34.48h-93.49V85.41s7.08 0 7.08-7.08h79.28s.03 7.08 7.13 7.08" class="cls-13"/><path d="M482.8 109.73h9v-.67h1.1v5.3h-1.07v-.61h-8s.25 1.72-1.27 1.72M389.55 109.73h-9v-.67h-1.09v5.3h1.07v-.61h8s-.26 1.72 1.26 1.72" class="cls-13"/><path d="M597.29 145.54c-59.59-27.45-69.74-111-69.74-111-138.92 28.1-193.66-24.2-193.66-24.2S279.14 62.69 140.21 34.6c0 0-10.15 83.51-69.74 111 0 0 89.91 135.6 20.17 262.28-58.64 106.53 8 189 88.78 163 74.49-24 63-41.79 154.46 10.58 91.5-52.37 80-34.58 154.45-10.58 80.8 26 147.43-56.46 88.78-163-69.74-126.68 20.17-262.28 20.17-262.28Z" style="fill:none;stroke:#ac8505;stroke-width:15.3px"/><path d="M400.76 357.37a66.92 66.92 0 1 1-66.92-66.93 66.92 66.92 0 0 1 66.92 66.93Z" style="stroke:#ac8505;fill:#ac8505;stroke-width:9.37px"/><path d="M378.81 329.7c-44.12-17-89.95 0-89.95 0s-17 25.9 0 55.59c0 0 45.83 17 89.95 0 0 0 16.99-28.86 0-55.59Z" class="cls-26"/><path d="M282.27 348.66s53.49-12.07 103.39.15M282.34 366.23s53 12.28 102.93 0M299.1 305.35s-8.1 14.42-10.24 24.35M368.09 305.05s8.43 14.52 10.54 24.44M298.88 409.39s-7.75-14-9.88-23.92M368.47 409.54s8.13-14.21 10.23-24.15M319.59 322.83s0-16.55 3.05-27.25M348.49 322.47s.12-16.19-2.94-26.89M319.58 392.08s0 16.14 3.08 26.82M348.64 392.28s-.1 15.87-3.15 26.55" class="cls-26"/><path d="M396.47 357.36a62.64 62.64 0 1 1-62.63-62.62 62.63 62.63 0 0 1 62.63 62.62Z" class="cls-26"/></g></g></svg>