<svg xmlns="http://www.w3.org/2000/svg" xml:space="preserve" id="Layer_1" x="0" y="0" version="1.1" viewBox="0 0 174.9 360"><style>.st0{fill:#132257}</style><path d="M52.1 226.3c-1.2-.2-2.3.3-3.1 1.2-2 2.3-3 5.4-2.7 8.4 0 .7.2 1.4.4 2.1.4 1.1 1.2 1.9 2.3 2.3 1.2 0 2.3-.5 3-1.5 2.2-2.9 3-6.7 2-10.3-.1-1.1-.9-1.9-1.9-2.2m71.4 31.2c.5-2 .2-4.1-.7-6-.8-1.5-2.2-2.6-3.9-3l-1.8-.4c-1.6-.3-4-.8-7.6-1.7-4.8-1.2-9 1-11.3 6 2.4.7 4.7 1.3 7 1.9.2-1 .4-2 .4-3 0-.7.7-1.3 1.4-1.3.8 0 1.4.6 1.4 1.4v.1c-.1 1.2-.3 2.3-.5 3.5.4.1.9.2 1.3.3.5.1.9.2 1.3.3.4-2 .6-3.6.7-3.6.1-.7.7-1.2 1.4-1.2.8 0 1.4.6 1.4 1.4v.2c0 .1-.3 1.8-.7 3.8.9.2 1.8.3 2.6.5.2-1 .3-2 .4-3 0-.7.6-1.3 1.4-1.3s1.4.6 1.4 1.4v.1c-.1 1.1-.2 2.2-.4 3.3q2.85.15 4.8.3m-25.7 3.3c.9 1.9 2.4 3.4 4.4 4.2 3.5 1 7.1 1.7 10.7 2.1 4.4.5 7.8-2 9.8-6.9-1.5-.1-3.1-.3-4.7-.5-.3 1-.7 2-1.2 2.9-.2.4-.7.7-1.2.7-.8 0-1.4-.6-1.4-1.4 0-.2.1-.5.2-.7.3-.6.6-1.3.8-1.9-.9-.1-1.7-.3-2.6-.5-.2 1-.6 2.1-1 3.1-.2.5-.7.8-1.3.8-.8 0-1.4-.6-1.4-1.4 0-.2 0-.4.1-.6.3-.8.6-1.7.8-2.5-.4-.1-.9-.2-1.3-.3-.5-.1-.9-.2-1.4-.3-.3.8-.6 1.7-.9 2.5-.2.5-.7.8-1.3.8-.8 0-1.4-.6-1.4-1.4 0-.2 0-.4.1-.5.3-.7.5-1.4.8-2.1-2.3-.6-4.7-1.3-7.2-2-.4 2-.2 4.1.6 5.9m30.9-35.3c-2.1-5.5-9.1-9.4-18.4-11.5-17.1-3.9-39.6 2.5-53.8 14.5.5 2.4.4 4.9-.4 7.2 12.6 6.5 25.8 11.8 39.4 15.8 3.3-7.6 9.7-9.1 14.7-7.9 3.6.9 5.8 1.4 7.5 1.7l1.8.4c2.4.6 4.5 2.1 5.7 4.3s1.6 4.8 1.1 7.4c1 .1 1.9-.2 2.8-.6 3.6-10.1 3.4-21.2-.4-31.3m-16.1 44.4c-3.8-.4-7.6-1.2-11.3-2.2-2.7-1-4.8-3-6-5.6-.6-1.4-1-2.8-1-4.3 0-1.2.1-2.3.4-3.5-13.6-4.1-26.9-9.4-39.6-15.9-.4.7-.8 1.3-1.3 1.9-.7.9-1.6 1.5-2.6 2 1 8.8 4 17.2 8.8 24.6 6.4 9.8 15 16.6 24.4 18.7 3.3.8 7.7 1.7 11.5.8 14.2-3.2 26.1-12.9 31.9-26.3-.7.1-1.5.2-2.2.2-3.3 9.6-10.2 9.9-13 9.6m-66.9-40.6c.4-1 1-2 1.8-2.9.5-.6 1.1-1.2 1.8-1.6 1.5-7.6 5.1-14.6 10.4-20.3-7.8 5.5-13.7 13.4-16.8 22.4.8 1 1.8 1.7 2.8 2.4m-.9 2.7c-1-.7-1.9-1.4-2.8-2.2-1.2 4.5-1.7 9.2-1.5 13.8 0 1 .1 1.9.2 2.9.8-3.1 2.2-6.1 4-8.8-.4-1.9-.3-3.8.1-5.7m3.7 10.4c-1-.3-1.9-.9-2.5-1.8-3.4 5.2-4.8 9.9-3.6 14.1 5.3 17.8 21 30.7 39.5 32.4-17.9-5.3-31.1-23.9-33.4-44.7m21.9-216c0-2.3-.2-4.6-.8-6.9s4.1-.2 4.1-5.2c0-4.1-2.7-6.9-3.5-6.9-.6 0-.7.6-2 .6-3.1 0-3.4-4-3.4-4h1.4c9 0 17.3 2.7 17.3 22.4-.1 6.5-.5 13-1.3 19.5-.7 5.3-1 10.7-1 16s-15.6-1.8-15.6-13.6c.1-7.6 4.8-9.5 4.8-21.9m24.9 130.2c0 15.4-6.6 28-10.4 31.8-11.8 11.8-21.5 3.2-21.6 15-5.3 4.8-9.2 12.2-11.1 20.6h.3c1.1.2 2.1.9 2.8 1.8 15-12.2 38-18.6 55.6-14.6 5.1 1 9.9 3.2 13.9 6.5-5.4-8.8-13.7-15.5-23.5-19-2.3-.8-6.4-1.8-6.4-9.3 0-14 15.4-3.1 25.5-18.4.5-.8-.2-1.4-.8-.8-3.1 3.1-10.6 5.2-14.6 5.2-1.9.1-3.8-.2-5.5-.9 2.5-4.8 5.3-9.4 8.4-13.9-9.4-9.4 6.4-61.1 48.3-61.1.1-9.5-.8-19-2.8-28.3-1 .2-8.9 2.1-9.2.4-.3-1.5 5.8-4.7 7.9-5.7-.9-3.7-2.3-7.2-4.1-10.5-35.9 11.3-28.7 41-37.4 41-5.7 0-10.2-4.4-11.8-6-21.3-21.4-11.3-35.6-11.3-64C87.5 7.2 80.1 0 66.3 0S47.6 6 47.6 6s18.9.6 18.9 20.4c0 20.7-23.3 26.5-23.3 52.7-.1 43.8 52.1 43 52.1 77.5M16.3 281.7c3.5 2.3 7.2 4.4 7.2 4.4l-1.3 3.4c-.5-2-2.5-3.1-5.1-4.8L8.5 297c-1.4 1.8-2.5 3.9-3.2 6-.8 2.2-1.4-.9-2.7-1.8-1.3-1-2.6-1.9-2.6-1.9 1.3-.3 3.5-3.6 4.8-5.3l8.3-11.9c-3.1-2.4-4.3-2.9-6.5-3l3-2.2c-.1-.1 2.8 2.2 6.7 4.8M31.6 291.8c-3.8-1.8-6.8 2.5-9 7.2s-3.7 9.8.1 11.6 6.8-2.5 9-7.2c2.2-4.8 3.7-9.8-.1-11.6m-9.8 20.5c-5.9-2.8-6.7-9.4-3.8-15.5s8.5-9.6 14.4-6.8 6.7 9.3 3.8 15.5c-2.9 6.1-8.5 9.6-14.4 6.8M48.3 296.3c4 1.1 7.3 1.9 7.3 1.9l-.3 3.6c-1.1-1.5-1.6-1.9-5-2.8l-4.1 14c-.3 1.3-2 6.1-1.5 7 0 0-1.2-.2-3-.8-2.1-.6-3.1-1-3.1-1 1.1-.7 2.4-4.8 2.9-6.5l4.2-14c-3.5-1.2-4.4-1.3-6.1-.5l2.1-3.1c-.1 0 2.2 1 6.6 2.2M64.8 300c4 .6 7.7.9 7.7.9l.1 3.6c-1.5-1.3-2-1.7-5.9-2.2l-2.3 14.3c-.2 1.3-1 6.3-.3 7.1 0 0-1.4-.1-3.3-.4s-3.1-.5-3.1-.5c.9-.7 1.7-5.4 1.8-6.8l2.3-14.5c-3.4-.7-4.1-.4-5.7.5l1.5-3.4c.2.1 3.3.8 7.2 1.4M79.5 313.7l-.3 9.6c5 .1 8.5-.3 10-2.4l-.8 4.4s-2.8.1-6.9 0c-4.5-.1-8-.4-8-.4.7-.7.9-5.4.9-6.8l.4-9.4c0-2.5.2-6.6-.6-7.4 3.7.3 3.2.2 6.5.4 4.4.2 6.9 0 6.9 0l.6 3.6c-1.7-1.4-4.3-1.6-8.5-1.6l-.2 8.1H86c.6 0 .6.3.6 1 0 .6 0 1-.6 1zM107.7 316.6c.4 3.5.7 6 1.5 6.5-.4.5-1 .9-1.7.9-1 .1-1.9-.4-2.5-1.2l-11.4-13.1.4 8.3c.1 1.3.3 6.3 1.1 7l-3.8.2c.7-.8.5-5.6.3-6.9l-.5-9.4c-.1-1.3-.4-6.5-1.2-7.2l3.5-.1 11.7 13.9-1-8c-.1-1.3-.9-6.1-1.6-6.8 0 0 .4 0 1.8-.2s1.9-.3 1.9-.3c-.7.8.1 5.7.2 7zM129.2 311.6c.4 1.6 1.2 5.8 2.4 6.6 0 0-1.8.5-2.9.9-1 .3-3.2.9-3.2.9.5-.9-.6-5.9-.9-7.2l-1.1-4.4-7.3 1.8.8 4.4c.2 1.4 1 6.3 2 6.9 0 0-1 .2-3.1.6-1.8.4-3 .6-3 .6.5-.9-.2-5.4-.4-6.8l-1.8-9.4c-.3-1.8-1.1-6.2-2.1-6.7 0 0 .9-.2 3-.6s3.1-.7 3.1-.7c-.5 1.1.4 5.3.6 6.8l.6 3 7.2-1.7-.8-3c-.4-1.6-1.3-5.5-2.3-6.2 0 0 1-.3 3-.8s2.9-.9 2.9-.9c-.4 1.1.7 4.8 1.2 6.8zM141.2 304.5l-6.3-8.7.4 11zm1.3 1.5-7.1 2.8.2 3.9c0 1.1.2 2.2.5 3.2.1.3.3.5.6.7s-.7.3-2 .7c-1.2.4-1.9.6-1.9.6.4-.9.6-2 .5-3l-.6-18.5c0-.6-.2-1.2-.4-1.8-.2-.4-.4-.7-.8-.9.9-.6 1.9-1.1 2.8-1.5 1.6-.7 2.3-.7 3.5.7l10.4 12.9c1.9 2.5 3.6 4.1 4.7 4.5 0 0-1.1.5-3.1 1.4s-3.3 1.4-3.3 1.4c.1-.5.1-1-.1-1.5-.6-1-1.2-2-2-2.9zM172.2 299.3c-1.4 1-2.5 1.7-2.5 1.7-.1-1.4-2.8-4.9-3.6-5.9l-6.1-8 4.9 15.7c-.2.4-.5.7-.9 1-.8.7-2 .6-2.8-.1l-11.6-9.7 4.1 7.5c1 1.9 2.9 5.9 4.2 6.2l-1.8.9-1.6.8c.2-1.1-1.7-4.4-2.8-6.5l-4.5-8.5c-1.4-2.6-2.9-5.2-4.2-5.7 1-.5 1.3-.6 2.8-1.3 1.2-.6 2.3-1.2 2.3-1.2l13.1 11.2-5.2-15.8s.7-.5 2-1.3c1.3-.9 2.5-1.7 2.5-1.7.1 1.4 2.8 5 3.8 6.3l5.6 7.3c1.2 1.5 3.4 4.8 5 5.2 0-.1-1.3 1-2.7 1.9M38 328c1.2.4 2.8 1 2.8 1-1.3 1-2.5 4.8-3.3 6.8l-3 8.4c-.8 2.3-2.2 5.6-1.7 6.8 0 0-1.7-.6-3-1.1-1.2-.4-1.8-.6-3-1.2 1.5-.4 2.9-5.4 3.4-6.6l1.4-3.9-7.3-3-2.1 4.5c-.7 1.6-2.3 5.1-1.9 6.2 0 0-1.3-.5-3.2-1.4-2.2-1-2.7-1.3-2.7-1.3 1.6-.8 2.5-3.3 3.7-5.8l3.8-8.5c1.3-2.9 2.5-5.4 2.4-7 0 0 .7.4 2.6 1.3 1.5.7 2.3 1 3.1 1.3-1.2.5-2.8 4.7-3.7 6.7l-1.1 2.4 7.1 2.9 1.1-2.7c.5-1.4 2.3-5.5 1.9-6.9-.3 0 1.1.5 2.7 1.1M51.9 334c-4.1-1.1-6.2 3.6-7.5 8.5s-1.8 10.1 2.3 11.1c4.1 1.1 6.2-3.6 7.5-8.6 1.3-4.9 1.8-10-2.3-11m-5.6 21.4c-6.4-1.7-8.4-7.8-6.7-14.2s6.5-10.8 12.8-9.1 8.4 7.8 6.7 14.2c-1.7 6.5-6.5 10.8-12.8 9.1M63.5 357.7c.3-.4.5-.8.7-1.3.4-1.8.7-3.7.9-5.5l1.8-13.8c-3.8-.5-4.8-.2-6.4.8l1.6-3.5c1.2.3 3.8.5 7 .9 2.1.3 8.5.8 8.5.8l.2 3.5c-1.4-1.6-2.9-1.8-6-2L70 351.4c-.2 1.3-.9 5.7-.2 7.1-.8-.1-2-.2-3.1-.3s-2.6-.4-3.2-.5M93.7 352.9c0 4.1-3.3 7.1-8.5 7.1-2.5.1-5-.8-6.9-2.4l.8-3.9c.9 2.4 3.1 4.1 5.7 4.4h.5c2.1 0 3.9-1.7 3.9-3.8 0-1.8-.9-2.8-5-4.9-3.9-2-5.3-4-5.3-7 0-4.1 3.5-6.1 7.7-6.2 2.3 0 4.5.6 6.5 1.7l-.9 3.6c-1.9-2.5-3.5-3.4-5.6-3.4h-.4c-1.6 0-3 1.4-3 3v.2c0 2.2 2.5 3.4 5.8 5.3 3.8 1.9 4.7 4 4.7 6.3M112.6 340.2l.3 1.5c0 .5.1 1 0 1.5-.1 1.5-.8 2.9-1.8 4-1.7 1.7-4.1 2.7-6.5 2.6-1.1.1-1.3-.3-1.4-1v-.2s0-.3.2-.3h.3c1.2-.1 2.3-.6 3-1.5.9-1.3 1.3-3 1.1-4.6 0-1.6-.7-3.1-1.9-4.1-1-.8-2.3-1.1-3.6-1s-.5 0-1.1.1c-.2 0-.3.2-.3.3l1.4 14.3c.1 1.3.5 5.7 1.5 6.6 0 0-1.2.1-3.4.3-1.7.1-3 .2-3 .2.4-1.5.5-3.1.3-4.6L96.6 343c-.1-1.3-.3-5.7-1.4-6.8 0 0 2.8-.4 8.1-.9 2.4-.4 4.8.1 6.9 1.4 1.1 1 2 2.2 2.4 3.5M133.9 344.8q.3 1.2.3 2.4c0 3.9-2.8 7.3-6.7 8.1-3.6.9-8.8-.4-10.3-6.8l-1.8-7.5c-.5-2.1-1.2-5.8-2.4-6.8 0 0 1.4-.2 3.5-.6s3.1-.6 3.1-.6c-.6.9 0 4.3.6 6.9l2.3 9.5c.2 1.4.9 2.7 2 3.6.8.5 1.8.7 2.7.5 1-.2 1.9-.8 2.4-1.6.5-1.3.6-2.8.1-4.1l-2.5-9.5c-.7-2.6-1.5-5.9-2.3-6.4 0 0 1-.3 3-.8 1.5-.4 2.4-.7 3-.9-.6 1.4.8 5.8 1.1 7.1zM157 342.9c.5.2 1 .3 1.5.1-.1.5-.4 1-.8 1.4-1.1 1.4-3 2-4.7 1.5-3.7-1.8-7-4.3-9.8-7.3v-.1c0-.1 0-.1.1-.2l.2-.1c1.7-.8 2.9-2.6 2.9-4.5 0-.8-.2-1.6-.6-2.3-.5-1.4-1.6-2.5-2.9-3-1-.3-2.2-.3-3.1.2-.4.1-.8.3-1.1.6-.3.2-.2.1 0 .7l4.5 12.9c.7 1.9 1.9 5.6 3 6.2 0 0-1.2.5-3.1 1.2s-3 1-3 1c.4-1.4-1-5.4-1.4-6.5l-2.9-8.7c-.7-2.1-2.1-5.9-3.2-6.5 2.4-.7 4.7-1.6 6.9-2.6 2.3-1.1 4.8-1.4 7.3-.9 1.2.3 2.3 1.1 3 2.2.3.4.5.8.7 1.3.2.4.3.8.4 1.3.3 1.4 0 2.8-.7 4.1-.5.9-1.3 1.8-2.2 2.4 2.7 2.3 5.8 4.2 9 5.6" class="st0"/></svg>