<svg xmlns="http://www.w3.org/2000/svg" viewBox="0 0 655.22 704.07"><defs><style>.cls-1,.cls-3,.cls-4{fill:#164194}.cls-1,.cls-3{stroke:#fff}.cls-1{stroke-width:4.07px}.cls-2{fill:#fff}.cls-3{stroke-width:8.14px}.cls-5{fill:none;stroke:#164194;stroke-width:5.09px}</style></defs><g id="Layer_2" data-name="Layer 2"><g id="Layer_1-2" data-name="Layer 1"><path d="M72.23 2.04h507.2v428.34L327.61 555.52 72.23 433.43z" class="cls-1"/><path d="M174.43 255.91c-14.82 3.28-48.27 1.5-38.88-13.54 3.24-5.19 9.55-3.53 9.56-10.33 0-3.5-4.67-5.73-7.66-5.74-9.64-.05-22.36 18.52-15.43 27.4 15.14 19.4 58.13 19.67 75.8.23 9-9.87-2.35-27.17-13.73-27.19-5.41 0-8.08 1.93-8.06 5.31 0 6.54 6.43 5 9.44 10.53 4.15 7.58-3.7 11.7-11.04 13.33M496.38 137.23c-3.43-.89-5.85.89-4.2 2 6.23.38 6.62 3.31 11.71 2.08 4.32-1 2.65-4.2 2.74-8.51.05-2.47-3-4.63-4.05-1.09-1.17 3.98-7.85.05-6.2 5.52M424.78 279.29h143.46V419.7L361.7 523.47V345.93s51.89-13.23 63.08-66.64M232 214.68H90V18.82h198.4v136.85s-40.66 10.68-56.4 59.01" class="cls-2"/><path d="M228.41 282.34H83.93v140.41l202 97.16V345.42s-49.93-17.3-57.52-63.08ZM425.29 211.63h141.93V14.25h-202v139.38s45.31 13.74 60.07 58Z" class="cls-3"/><path d="M462.86 126.26c-2.65-4.46-15.86-2.74-13.06-8.81 3.85-8.33 5 6 7.35 3.72 3.87-3.91 5.19-3.42 7-.08 4.51 8.38 19.23 13 32.16 8.49 5.8-2 6.95-2.65 6.15-11.57-.12-1.38 5.12-4.82 6.09-2.61 1.22 2.78-3.81 4.09-1.85 11.48.12.43 13.12 1.51 13.81-1.67 3.1-14.44-9-12.78-9.75-15.84.38-4.32 5.6-1.78 10.59-6 3.27-2.77.67-10.82-1.1-11.08-8.47-1.23-20.68-5.68-17.63-12.17 3.69-2 8.27 10.95 18.2 8.44 3.68-.93-10-15.81-9.86-24.7.05-3.83-11.58-3.07-16.61-1.8C498 52.14 489.17 49 483.06 47.5c-7.67-1.84-17.66 3.11-17.44 4.71 1 7.31 11.05 2 10.28 9.73-5-1.32-12.46 2.54-16.28 1.91 9.29-5.86-.83-15.68-3.86-14.27-12 5.62-13.81-8.63-27.14 7.6-5.11 6.22-7 15.82-1.68 16.84-.25 6.23-10.42-.15-13.95 10.61-4.49 13.68 4 16.73 16.07 16.23.69 0-3.65 5.21-2.25 5.59-.76 1.27 12.21 4.7 12.72 8.14-15.64 1.15-14.75-10.68-24.28-5.36-8.83 4.93 3.56 18.48 5.46 19.87 10.55 7.75 13.22-.26 14.62-3.95 4.58.38 2.1 9 6.22 10.51 2.4.89 5.15-1.74 8.44.32 3 1.88 5.12 7.17 7.08 3.71 2.68-4.75 13.12 1.48 13-7.63-.02-3.06-4.85-1.83-7.21-5.8" class="cls-2"/><path d="M435.51 72.11c.28-.18.59 3.31-3.89 1.8-.91-.31-1-4.42.13-5.63.79-.87 10.32-.49 3.76 3.83M449.18 60.91c.4-2 5.88-.5 6.52 1.76 2.4 8.42-13.63.28-16.17 5.37 0-1.36 0-5.81.39-6 3.71-1.18 8.47 2.96 9.26-1.13M498.46 82.7c.42 1.94.72 4-2.34 3.78-.12 3.31 7.76 3.69 6.75 14.63-6.75.89-3.45-4.4-9-7.93-13.64-8.6 2.89-18.4 4.59-10.48M494.12 111.54c2.13-3.67 6-5.53 9.46-4.75 1.62.37 3.82 4.77 2.46 5.81s-5.06-.28-6.64.54c-7.22 3.74-.86 8.7-14.85 7.33-1.28-.12-1.53-9.32 3.06-9.82.14 2.21-.23 6.69 2.45 6.29 2.35-.36 2.62-2.94 4.06-5.4" class="cls-4"/><path d="M482.55 136.78c-2.27-4.27-8.68-5-10.45-3.4-2.18 2 12.83 15.29 16.59 6.69.85-1.95-4.27.21-6.14-3.29M326.85 527.8a66.2 66.2 0 0 0 9.15-36.63V350.76h-9.15v177Z" class="cls-2"/><path d="M326.85 527.8a66.3 66.3 0 0 1-9.16-36.63V350.76H330V517.7ZM319.22 73.76h16.28v77.58h-16.28z" class="cls-2"/><path d="M319.22 82.92S297.86 73 297.34 53.67c-.51-19.08 9.92-25.44 12-26.71a27.88 27.88 0 0 1 17-5.34c9.92 0 23.66 5.85 23.66 19.84 0 6.61-2 9.16-2 9.16s-3.31 7.12.51 11.7c0 0-11.84-3.07-9.41-12 1.52-5.59.76-11.44-3.82-13.22a16 16 0 0 0-15.77 1c-7.37 4.58-6.61 13-6.61 14s-.76 13 12.84 17.68l9.8 3.94ZM499.88 255.91c-14.82 3.28-48.27 1.5-38.88-13.54 3.24-5.19 9.56-3.53 9.56-10.33 0-3.5-4.66-5.73-7.65-5.74-9.65-.05-22.36 18.52-15.44 27.4 15.15 19.4 58.13 19.67 75.8.23 9-9.87-2.34-27.17-13.72-27.19-5.41 0-8.08 1.93-8.06 5.31 0 6.54 6.42 5 9.43 10.53 4.16 7.58-3.7 11.7-11.04 13.33M146 329.75c-2.23 11.91 4.08 25.38-4.07 34.4-5.6 6.2-20.6 4.16-24.17-7.54-.76 2.29-2.3 6.32-2.32 7.61-.44 25.71 23.69 21.78 33.25 39.48 3.41 6.33-5 18.79-16.68 18.79 23.4 18.57 35.72 4.26 52-3.08 15.17-6.84 24.33 4.61 25 13.36.5 6.34-.68 11.34-6.08 16.72 0 0 13.68 0 20.32-8.43 10-12.72 8.22-21.11 4-42.66-1.65-8.38 6.52-16.61 13.36-16.95 10.74-.55 16.56 8.32 16.56 8.32 5.73-13-8.39-28.07-24.22-29.72-9.2-1-16.36-10.05-15-20.17 1.55-11.25 8.16-15.57 21.13-16.33-17-15.52-39.17-4.07-49.62 9.17-4.34 5.5-15.65 2-18-2.81-3.38-6.81-4.07-13-.18-22.51l1.81-4c-14.63 5.39-24.29 11.5-27.09 26.35M453.65 171.82h24.54s.64-4.2-.12-6.1-1.15.38-2-1.28.89-17.8.13-20.35-3.31-3.43-4.2-4.7-3.25-.87-4.2-.13c-3.56 2.8-3.32 8.92-3.68 12.21-.13 1.15-5 .26-6.11-1.27s-2.16-2.42-2.29 2.67 1.15 13.23-.25 12.21-1.78-.25-1.91 1.14.09 5.6.09 5.6" class="cls-2"/><path d="M166.86 153.51s-5.22 1.14-6.24.12-2-5.72-6-6.1c0 0-.72-4.11-3.31-4.2-3.69-.12-3.18 1.4-3.82 2.17s-2.79-.26-3.43 2c0 0 2.29-.25 2.29 1.27s.13 1.53 1.14 2.16a2.14 2.14 0 0 1-2.28.89c-1.66-.25-4.33.26-5 2.93a2.75 2.75 0 0 0-2.41 3.05s2.73-1.38 2.29.51c-.51 2.16 1.4 5.21 5 2.16 0 0 2 1.78 1 3.56s-3.18 1.66-3.06 4.07c0 0-2.16 1.91-.63 3.18 0 0 1.4-1.91 2.67-.12s5.59 1.9 7.25.38 5.47-5.6 17.17-3.69 21.49 4.19 20.09-.76c-.64-2.29-4.8-8.37-4.71-10.31.13-2.67 1-3.33 2-3.3 4.33.12 5.09 6.74 6 10.93 0 0-.31 2.72 7.25 5.6 0 0 10.43 10.05-7.89 3.94-1.91-.63-8.39-2.41-9.41 2 0 0-5.09.25-4.58 4.07 0 0 3.94-2.42 4.45.25s.26 1.78 2 2.42c0 0-6.61-.38-5 5.47 0 0-3.43 2.41-.77 4.83 0 0 1.28-3.05 3.57-.89s4.7 2.8 7.63-2.16c0 0-1.66 5.72 2.8 6.36 0 0-.64 3.56 2.79 4.07 0 0-1-3.44 1.91-4.07s5.65-5.28 6.36-7.76c1-3.56 7.88-6.61 10.43 1a13.76 13.76 0 0 0 1-8.65 4.62 4.62 0 0 1 3.95-5.6l.89 2.67s6.87-11.57-2.93-16.53c0 0 1.66-3.05 4.2.13 0 0 3-8.06-9.16-5.85-1.4.25-2-4.84 1-6.11 0 0 2.93 4.71 12.21 4.07s11.57-5.21 12.34-11.83-2.55-21.49 4.07-32.68c0 0-5 3.56-5.73 1.4s.51-5.09 3.56-3.82c0 0-3.68-8.14-11.57-3.43 0 0-4.67-14 5.6-15.14 3.43-.38 7.59 1.36 8 3.95.51 3.18-1.53 4.45-5-.64 0 0-4.2 6.49 1.27 10.17 1.84 1.25 4.9 3.27 10.56 1.15 5.09-1.91 9.66-10.43-.77-18.19 0 0 12.09-2.67 5.73-18.56 0 0-3.69 6.35-9.67 3.94 0 0 1.27-3.69-1.91-9s-2.79-15.26 1-21.5a5.28 5.28 0 0 0-3.31 2 10.8 10.8 0 0 1 1.28-6.11s-12.85 7.13-8.52 18.57c0 0-4.33-2-5.09-5.85 0 0-2.42 7-.26 12.21s3.44 7 2 10.81c0 0-7.63-4.32-9.92 1.65 0 0 6.61 2.29 4.2 6.74s-8.91 10.44-6.24 25.31c1.85 10.3 10.41 18.19 10.18 30-.13 6.61-2.16 11.06-5.85 6s-4.2-4.07-4.2-4.07 2.16-6.24-4.32-11.7-17.55-16.92-9.16-19.46c1.38-.42-.38 2.29 3.56 4.07a10.3 10.3 0 0 1 .38-8.14c.64-1.27 2.29-5.6-.51-8.65 0 0 3.82 2.42 7.51-1.65a4.79 4.79 0 0 0-1.4-4.58s1.65-5.35-2.16-8.14c0 0 4.45 1.91 6.86-2.16 0 0-2-.26-2.67-4.07s-1.14-8.52-4.58-10.69c0 0 2.93 1.91 4.08-1 0 0-4.46-.9-4.2-3.57 0 0-.38-2.28-3.44-3.3 0 0 4.2.89 5.35-3.18 0 0-5.22-.13-6.36-2.8 0 0 1.87-3.6-2.8-6.87-1.27-.89-4.45-1.65-4.45-6 0 0-7.89 0-8.4 8.26a9.9 9.9 0 0 1-5.08.77c-2.68-.39-8.33-1.91-12 2.92-1.52 2-7.76 3.94-11.32 5.09a22.9 22.9 0 0 0 .13 6.61c.64 2.42.89 3.82 2 1.91s2.42 3.31 2.42 3.31-7.5 1.65-8.65-2 2.29-7.76 2.29-7.76-5.72 2-5.6 7.51c0 2 2.64 6.74 7.25 5.72 0 0 1.66-1.53 5.22-1.14 0 0 1.78 1.65.76 2.16s-3-.38-3.56 1-.76 3.56 1.78 2.55 5.47-1.78 6.23-.77.26 4.46-4.32 4.84-7.89 2.16-10.3-3.44c0 0-.64-3.94-3.56-4.32a3.84 3.84 0 0 1-2-3.94c.25-1.79-2.28-3.06-3.81-3.06-.64 0-4.33-2.41-.64-8.13s3.05-12.47-.13-13.49c0 0-1.14-2.41-3.18-1.4 0 0 1.4.89.51 1.66s-1.56-.85-3.05.51-1.4 4.07.38 7.37a3.88 3.88 0 0 1-4.2-1.9c-1.27-2.55-4.32-7.13-7.63-2.55 0 0-3.56 1.4-2.92 4.2 0 0 3.49-1.48 3.05 0-.63 2.16-1.91 3.94 2.16 5.09 0 0-.25 1.78-3.05 1.52s-6.1 1.27-5.34 4.2c0 0-2.93 2.67-.64 4.58a1.64 1.64 0 0 1 2.55-.77c1.78 1.15 1.52 4.08 8 1.53 0 0 1.52-.64 1.78.64s3.12 7.86 2.1 13.86.13 4.33.13 4.33a5 5 0 0 1 2.8-2.93s-1.28 5.47 1.27 8.9a3.3 3.3 0 0 1 1.9-2.67s.77 5.09 3.06 6.87a3.26 3.26 0 0 1 1.27-2.92s.13 5.85 3.69 6.86c0 0-7.15 11.14-11.45 10.68a6.12 6.12 0 0 1-4.71-3.3c-1.77-3.18-9-6.23-10.55-1.14 0 0-3.56.88-2.8 3.68 0 0 2.93-2 2.8.39s1.4 5 4.71 4.06c0 0 2.54-.5 1.9 1.66 0 0-11.7-1.78-9.28 6.23 0 0-3.31 1.65-1.65 4.07 0 0 1.68-2.72 3.18-.76 1.65 2.16 5.21 3.3 9.15-1.15 0 0-3.94 8.39 2.29 9.41 0 0-.38 2.55 1.53 3.05 0 0-.38-1.9 1.27-2.41s5.21-1.66 3.81-7.89a7.23 7.23 0 0 1 7.64 3.69s8.15-11.74 15.51-9.54c0 0 1.53.26 1.78 3.56s5.34 8.65 10.94 10.31c0 0-15.77-2.16-16.66 6.1-.78 7.23 1.14 9.79 4.83 13 0 0 2.8 1.91 1 2.93s-.74.44-.74.44M393.87 393.88s-3.68.13-3.05 5.72c.26 2.33 2.35 4.17 5.09 2.8 2.29-1.15 2.8-1.4 5.08-.51 0 0 .89 3.05-1.14 3.05a4 4 0 0 1-3.05-1.27s-2.17 4.45.76 4.2 4.2.12 5.09 1.14c0 0-3.56-.12-4.45 2.16a5.3 5.3 0 0 0 3.3 1.66l-4.58 1.4s.51 1.52 2.93 1.65c0 0-3.56 2.42-6.1.89s-5.22-7-5.22-7 3.44-.38 2.54-2.67a1.7 1.7 0 0 0 .77-2.41 1.2 1.2 0 0 1-1.78.51c-1.15-.77-1.84-3.32-4.07-1.53-.64.51-1.53.51-1.66 2.29 0 0-.89-4.2-4.32-2.42a3.26 3.26 0 0 0-4.58 0s3.69 1.53 1.91 2.16c-2.85 1-2.16 3.06 1.53 4.84 0 0-4.08-.51-4.84 1.52 0 0-3.43.13-2 3.57 0 0 2-2.68 2.29-.77s.76 4.07 3.94 3.31a7.26 7.26 0 0 0 1 4.32 3 3 0 0 0 1.27-2.41 12.73 12.73 0 0 0 .89 7.25 4.34 4.34 0 0 0 1.27-2.29s.64 9.54 3.69 11.7c0 0 2.16-1.53 2.54-6 0 0 .21 5.66 3.69 6.74 3.69 1.14 5.83-1.5 6.49 1.78.25 1.27-2.28 8.88-6.24 11.7-.88.64-1.9 1.4-2.54-.13s-1.27-3.3-3.81-2.67c0 0-.89-2.54-3.18-1.78a2.4 2.4 0 0 1 .76 2.55s-4.07 1.52-.26 4.45c0 0-5.08-.26-4.7 2.92 0 0-2.29.51-1.4 2.42 0 0 1.65-1.4 2.54-.13s.39 2.93 3.18 2.29c0 0-1.91 2.8 1 4.07a1.79 1.79 0 0 0 .76 1.53 4.2 4.2 0 0 0 1.29-1.48s4.19.13 2-4.32c0 0 4.07 3.81 8.65 2.16 0 0-1.65 0-2-2.29 0 0 3.44 1.78 5.73.63a3.12 3.12 0 0 1-1.78-1.9 4.12 4.12 0 0 0 4.83-.64s-2.54.38-2.8-1.65c0 0 6.23 2.41 10.05-2.67 0 0-3.94-.51-1.78-4s6.87-7.88 2.67-11.82a6.35 6.35 0 0 0 3.82 2.16 2.46 2.46 0 0 1 2.28 2.42 4.1 4.1 0 0 1 2-1.91c1.27-.38 2.42 0 3.81-1.27a5.42 5.42 0 0 0 1.53 3.81 3.17 3.17 0 0 1 1.65-2.92s-.89 2.67.77 4.32c0 0 0-2.16 1.39-3.05a3.75 3.75 0 0 0 1.79 4.32s2 5.34-1.4 5.85-7.25 1.27-8.27.26-.51-3.18-2.8-2.67c0 0-.38-2-1.65-1.91a3.38 3.38 0 0 1 .13 2.16s-3.82.13-.77 4.07c0 0-4.7.76-3.3 3.43 0 0-2.8.64-2.17 2.42 0 0 1.78-1 2.29.26.17.42 1.15 3.56 5.47.5 0 0-3.43 2.8-1.14 4.71 0 0 2.16 1.14 1.27 3 0 0 1.4-.25 1.4-2.16 0 0 3.94-.76 2.54-4.07a5.81 5.81 0 0 0 5.47.38c3.31-1.27 3.05-.63 4.71.13a2.5 2.5 0 0 0-2.16-2.93s5.72-1 8.52 1.15c0 0 .38-2.93-1.66-3.69 0 0 4.07-.51 5.73.89a3.51 3.51 0 0 0-2-4.58s4.45-2.41 6.49.38a5.22 5.22 0 0 0-1.91-5.72 3.71 3.71 0 0 1-.38-5.21s1.52 4.45 11.82 4.45c3.06 0 4.84 4.07 2.42 5.08s-4.32 1.53-5.34.13.26-2.8-2.67-1.4a4.76 4.76 0 0 0-1.91-1 4.45 4.45 0 0 1 .89 2.29s-3.05 1.79 1.15 3.18c0 0-.89 2-2.8 1.91s-4.58.13-3.56 3c0 0-2.55.89-1.66 2.42 0 0 1-1.65 2.29-.63s.77 2.16 3.82.5a3.21 3.21 0 0 0 1.91 4.2s-.51 1 1.27 2a2.39 2.39 0 0 0 .76-2.29 2.76 2.76 0 0 0 1.78-3.82s6.11 1.14 10.94-.76a4.26 4.26 0 0 1-3.18-1.66s5.34 1.53 7.25-1a5.6 5.6 0 0 1-3.82-1.53c-1.78-1.65 3.56.51 5-1.14 0 0-2.54-.89-2.79-2.55 0 0 2-2.16 4.95.13 0 0 1.15-6.23-2.66-7 0 0-.9-3.3 1.27-2.79 0 0 1.65-4.2-8.4-4.33a11.88 11.88 0 0 0-6.23-4.32 11.78 11.78 0 0 0-3.56-12.59s12.36 3.64 18.06-3.69c1.78-2.29.51-6.49 4.58-9a4.62 4.62 0 0 1-2.8-2.67s-2-4.33-6.36-4.45c-5.22-.16-22 2.29-28.23-.26s-6.08-9.14-2.55-11.82c2.68-2 5.34-3.57 10.94-1a4.64 4.64 0 0 1 2 4.7c-.64 3.05-5.09 2-4.71-.76s1-2.42 1-2.42-3.69.64-4.33 2.29-1.34 4.29 1.66 5.85a9.2 9.2 0 0 0 8.14.38c4.47-1.84 4.19-7.63 1-9 0 0 14.49 12.84 20 .12 0 0 4.83-9.28-8.27-10.93 0 0 8 14.11-5.59 8.64 0 0 3.81-7.5-.13-10.93-3.12-2.72-8.9-2.93-12.08 2.67 0 0 5.07-1.38 7.12-.26 2.8 1.53 2 4.58-.89 6.11a15 15 0 0 0-11.7-1.78c-4.07 1.14-7.89 3.18-9.28 6.1a11.63 11.63 0 0 0 .63 11.83c2.67 4.19 8.78 6.23 20.48 5.47 0 0-2.42 2.29-1.4 5s5 3 6.74 3c0 0 7.5.13 5.09-4.71 0 0-3.95 3.18-7-.38-1.85-2.16 2.54-3.61 4.07-3.69 2.67-.12 6.87-1.14 9 2.42 0 0 .51 3.69-1.27 6.23s-4.32 3.06-6.23 3.44-7-.51-10.56-2.16l-3.56-1.66a11.5 11.5 0 0 0-11.83-1.14s-3.81 1.52-5.59-1.53c0 0 3.69 1.65 5.47-1a6 6 0 0 1-3.69-1.52c-1.65-1.53-2.67-1.15-3.56-.77a2.93 2.93 0 0 1 2.79-2.67s-.88-2.54-5.46-1.91c0 0 .76-3.05 3.17-2 0 0-2.16-4.58-8.13-2.42 0 0 1.52-5.08 5.85-3.56 0 0 .63-2.67-2.8-2.67a10.33 10.33 0 0 0 3.56-8s-4.83-2.42-9.29 2.54c0 0-6.74-2-12.2 1.78 0 0-8.91-.76-9.42.77s0 5.59 0 5.59 3.69-1.52 4.07 0-.12 1.91-.12 1.91a7.57 7.57 0 0 0-4.71.13s-3.81 1.52-3.18-2.16a14.7 14.7 0 0 1 .91-3.68M458.73 299.76s-3.68.13-3.05 5.73c.27 2.33 2.35 4.16 5.09 2.79 2.29-1.14 2.8-1.39 5.09-.5 0 0 .89 3.05-1.15 3.05a4 4 0 0 1-3-1.27s-2.16 4.45.76 4.19 4.2.13 5.09 1.15c0 0-3.56-.13-4.45 2.16a5.25 5.25 0 0 0 3.3 1.65l-4.57 1.4s.5 1.53 2.92 1.66c0 0-3.56 2.41-6.1.89s-5.22-7-5.22-7 3.44-.38 2.55-2.67a1.71 1.71 0 0 0 .76-2.42 1.2 1.2 0 0 1-1.78.51c-1.15-.76-1.84-3.31-4.07-1.52-.64.5-1.53.5-1.65 2.28 0 0-.9-4.19-4.33-2.41a3.26 3.26 0 0 0-4.58 0s3.69 1.53 1.91 2.16c-2.84 1-2.16 3.05 1.53 4.84 0 0-4.07-.51-4.84 1.52 0 0-3.43.13-2 3.56 0 0 2-2.67 2.29-.76s.76 4.07 3.94 3.31a7.35 7.35 0 0 0 1 4.32 3 3 0 0 0 1.27-2.42 12.83 12.83 0 0 0 .89 7.25 4.34 4.34 0 0 0 1.27-2.29s.64 9.54 3.69 11.7c0 0 2.16-1.52 2.54-6 0 0 .21 5.66 3.69 6.74 3.69 1.14 5.83-1.5 6.49 1.78.25 1.27-2.28 8.87-6.23 11.7-.89.63-1.91 1.4-2.55-.13s-1.27-3.31-3.81-2.67c0 0-.89-2.54-3.18-1.78a2.37 2.37 0 0 1 .76 2.54s-4.07 1.53-.25 4.45c0 0-5.09-.25-4.71 2.93 0 0-2.29.51-1.4 2.42 0 0 1.65-1.4 2.55-.13s.38 2.92 3.17 2.29c0 0-1.9 2.8 1 4.07a1.79 1.79 0 0 0 .77 1.52 4.2 4.2 0 0 0 1.27-1.52s4.19.12 2-4.33c0 0 4.07 3.82 8.65 2.17 0 0-1.65 0-2-2.29 0 0 3.43 1.78 5.72.63a3.12 3.12 0 0 1-1.78-1.91 4.11 4.11 0 0 0 4.83-.63s-2.54.38-2.8-1.65c0 0 6.23 2.41 10-2.68 0 0-3.94-.5-1.78-3.94s6.87-7.88 2.67-11.82a6.4 6.4 0 0 0 3.82 2.16A2.45 2.45 0 0 1 483 349a4.14 4.14 0 0 1 2-1.91c1.27-.38 2.42 0 3.82-1.27a5.4 5.4 0 0 0 1.52 3.82 3.19 3.19 0 0 1 1.65-2.93s-.88 2.67.77 4.33c0 0 0-2.17 1.4-3a3.74 3.74 0 0 0 1.78 4.32s2 5.34-1.4 5.85-7.25 1.27-8.27.25-.51-3.17-2.8-2.67c0 0-.38-2-1.65-1.91A3.4 3.4 0 0 1 482 356s-3.82.12-.77 4.07c0 0-4.7.76-3.3 3.43 0 0-2.8.64-2.16 2.42 0 0 1.78-1 2.29.25.17.43 1.14 3.56 5.46.51 0 0-3.43 2.8-1.14 4.71 0 0 2.16 1.14 1.27 3.05a2 2 0 0 0 1.4-2.16s3.94-.77 2.55-4.07a5.79 5.79 0 0 0 5.46.38c3.31-1.27 3.05-.64 4.71.13a2.49 2.49 0 0 0-2.16-2.93s5.72-1 8.52 1.14c0 0 .38-2.92-1.66-3.68 0 0 4.07-.51 5.73.89a3.51 3.51 0 0 0-2-4.58s4.45-2.42 6.49.38a5.22 5.22 0 0 0-1.91-5.72 3.73 3.73 0 0 1-.38-5.22s1.53 4.45 11.83 4.45c3 0 4.83 4.07 2.41 5.09s-4.32 1.53-5.34.13.26-2.8-2.67-1.4a4.76 4.76 0 0 0-1.91-1 4.45 4.45 0 0 1 .89 2.29s-3.05 1.78 1.15 3.18c0 0-.89 2-2.8 1.91s-4.58.13-3.56 3.05c0 0-2.54.89-1.66 2.42 0 0 1-1.66 2.29-.64s.77 2.16 3.82.51a3.22 3.22 0 0 0 1.91 4.2s-.51 1 1.27 2a2.37 2.37 0 0 0 .76-2.29 2.75 2.75 0 0 0 1.78-3.81s6.11 1.14 10.94-.77a4.28 4.28 0 0 1-3.18-1.65s5.34 1.53 7.25-1a5.55 5.55 0 0 1-3.81-1.52c-1.78-1.66 3.56.51 5-1.15 0 0-2.55-.89-2.8-2.54 0 0 2-2.16 5 .13 0 0 1.14-6.24-2.67-7 0 0-.89-3.31 1.27-2.8 0 0 1.65-4.19-8.4-4.32a11.82 11.82 0 0 0-6.23-4.32 11.8 11.8 0 0 0-3.56-12.6s12.36 3.64 18.06-3.68c1.78-2.29.51-6.49 4.58-9a4.65 4.65 0 0 1-2.8-2.67s-2-4.33-6.36-4.46c-5.21-.15-22 2.29-28.23-.25s-6.07-9.14-2.54-11.83c2.67-2 5.34-3.56 10.93-1a4.64 4.64 0 0 1 2 4.7c-.64 3-5.09 2-4.71-.76s1-2.42 1-2.42-3.69.64-4.33 2.29-1.34 4.29 1.66 5.85a9.27 9.27 0 0 0 8.14.38c4.48-1.84 4.2-7.63 1-9 0 0 14.5 12.85 20 .13 0 0 4.84-9.28-8.26-10.94 0 0 8 14.12-5.6 8.65 0 0 3.82-7.5-.13-10.94-3.12-2.72-8.9-2.92-12.08 2.67 0 0 5.07-1.37 7.12-.25 2.8 1.53 2 4.58-.89 6.1a15.08 15.08 0 0 0-11.7-1.78c-4.07 1.15-7.88 3.18-9.28 6.11a11.63 11.63 0 0 0 .63 11.83c2.67 4.19 8.78 6.23 20.48 5.46 0 0-2.42 2.29-1.4 5s5 3.06 6.74 3.06c0 0 7.5.12 5.09-4.71 0 0-3.94 3.18-7-.38-1.85-2.16 2.54-3.62 4.07-3.69 2.68-.13 6.87-1.14 9 2.42 0 0 .51 3.69-1.27 6.23s-4.32 3.05-6.23 3.43-7-.51-10.56-2.16l-3.56-1.65a11.51 11.51 0 0 0-11.87-1.29s-3.81 1.53-5.59-1.52c0 0 3.69 1.65 5.47-1a5.94 5.94 0 0 1-3.69-1.53c-1.65-1.52-2.67-1.14-3.56-.76a2.92 2.92 0 0 1 2.8-2.67s-.89-2.54-5.47-1.91c0 0 .76-3 3.18-2 0 0-2.17-4.58-8.14-2.42 0 0 1.53-5.09 5.85-3.56 0 0 .63-2.67-2.8-2.67a10.3 10.3 0 0 0 3.56-8s-4.83-2.42-9.28 2.54c0 0-6.74-2-12.21 1.78 0 0-8.91-.76-9.41.76s0 5.6 0 5.6 3.69-1.53 4.07 0-.13 1.91-.13 1.91a7.5 7.5 0 0 0-4.71.13s-3.81 1.52-3.18-2.17a15.6 15.6 0 0 1 .89-3.75" class="cls-4"/><path d="M328 342.28a92.63 92.63 0 1 0-92.63-92.63A92.63 92.63 0 0 0 328 342.28" class="cls-2"/><path d="M327.36 333.34a83.82 83.82 0 1 0-83.82-83.81 83.81 83.81 0 0 0 83.82 83.81Z" class="cls-5"/><path d="M248.76 221.29s5.59 11.2 25.44 3.57c0 0 5.08 14.24 26.45 13.73M338.8 166.86s-28.49 5.6-56.47 46.8" class="cls-5"/><path d="M310.82 170.93s8.65 2 18.83 9.67M296.58 181.61s10.17.51 22.38 9.16M286.41 192.3a35.6 35.6 0 0 1 19.83 10.17M247.23 274.71s3.06 25.94 67.16 17.81c0 0 6.1 7.63 4.57 30M354.06 231.47s6.11-7.12 24.93-5.6c0 0 2-14.24 19.33-20.35" class="cls-5"/><path d="M387.64 307.78s9.16-63.59-8.65-81.91" class="cls-5"/><path d="M327.87 611.48c23 .65 44-32.05 74-44.76 25.56-10.83 10.69-4.08 89-29s101.79-76.82 101.79-76.82 23.91 18.32 21.87 51.38c0 0 14.75 5.09 37.65 3.56 0 0-23.41 60.54-102.26 88.52s-88.79 31.95-117 45.79C380 676.09 365.51 702 327.87 702c-38.16 0-52.66-25.94-105.56-51.88-28.22-13.84-38.16-17.81-117-45.79S3.05 515.84 3.05 515.84c22.89 1.53 37.64-3.56 37.64-3.56-2-33.06 21.88-51.38 21.88-51.38S86 512.79 164.31 537.72s63.47 18.17 89 29c30.04 12.71 51.08 44.11 74.56 44.76Z" class="cls-1"/><path d="M327.87 624c23 .64 49.23-30.47 74-43.5 19.84-10.43 34.54-15 89-30.52 72.49-20.61 102.51-73 102.51-73s13 10.68 10.94 43.75c0 0 7.37 4.32 30.26 4.57 0 0-13.73 37.9-81.65 66.65-55 23.29-91.84 32-120 45.78-52.91 26-67.41 51.89-105 51.89-38.16 0-47.82-24.16-105.56-51.89-28.33-13.6-38.41-17.11-117-45.78C46 570.28 19.2 525.38 19.2 525.38c23.91 1.4 31.67-5.85 31.67-5.85-2-33.07 11.44-41.84 11.44-41.84S81.64 524 163.8 549.16c64.58 19.8 68.43 21.37 89.54 31.54 29.36 14.16 51.05 42.59 74.53 43.3" class="cls-2"/><path d="m43.53 538.49.62-.69c1.42 1.08 1.94.82 2.41.31L66 516.66l-9.07-8.2c-.58-.53-1-.43-2.4.74l-.63-.57 9.23-10.21.63.58c-1 1.46-1.08 1.94-.5 2.46L89.28 525c.58.52 1 .42 2.4-.75l.64.57-9.24 10.21-.63-.57c1-1.47 1.08-1.94.5-2.47l-9.07-8.21-19.41 21.48c-.46.52-.67 1.07.54 2.37l-.62.69ZM82.32 566c-.37.6-.48 1.17 1 2.24l-.49.79-12.46-7.72.48-.79c1.6.81 2.06.46 2.43-.13l19-30.64c.37-.59.47-1.16-1-2.23l.49-.79 22.14 13.7c8.95 5.55 10.65 11.33 6 18.82-3.75 6-9.37 7-15.33 5.43l.39 15.33a2.38 2.38 0 0 0 1 2.27l-.49.79-12.58-7.79.49-.79c.88.46 1.57.43 2.06-.36.36-.59-.43-13.63-.36-15.5l-5.93-3.67Zm11.14-18 10.17 6.29c3.56 2.21 5.71 1.18 6.89-.73s1.15-4.29-2.42-6.5l-10.16-6.29ZM121.67 580.05c-3.71 4.65-4.46 5.44-4.63 5.87s0 .83.93 1.17l-.32.87-11.8-4.4.33-.87a2.16 2.16 0 0 0 2.35-1c1.22-1.44 24.39-29.11 24.55-29.54s-.48-.93-1.06-1.23l.33-.87 17.39 6.5-.33.87c-.76-.2-1.28-.23-1.55.5s-.11 25.3-.09 37.85c0 2 .25 2.58 1 2.87l-.32.87-13.13-4.9.33-.87c1 .27 1.42 0 1.59-.4s.08-6.32.17-7.36Zm3.83-5.17 12.39 4.63v-19.65ZM163.5 563.9c.23-.66.2-1.24-1.44-2l.3-.88 16.23 5.53-.3.88c-1.57-.46-2.06-.13-2.21.3-.27.81 6.78 18.25 9.58 25.49l6.66-19.54c.3-.88-.12-1.43-1-1.8l.3-.88 12.32 4.2-.3.88c-1.73-.43-2.11 0-2.33.67l-11.6 34.15c-.22.65-.19 1.23 1.44 2l-.3.87-12.79-4.36.3-.87c1.21.41 1.65.23 1.82-.28.33-1-1-2.48-11.45-30.12l-7.83 23c-.23.65-.2 1.24 1.43 2l-.3.87-12.79-4.36.3-.88c1.73.43 2.11 0 2.33-.67ZM222.28 628.33l.4-.84c1.67.61 2.1.21 2.39-.43l12-25.8-.07-.2-24.13 21.87 1.43-32.76-.13-.06L202 616.33c-.3.63-.33 1.21 1.22 2.1l-.4.84-11.37-5.27.39-.84c1.68.61 2.1.21 2.4-.42l15.19-32.68c.29-.63.33-1.21-1.22-2.1l.39-.84 16.84 7.83-.4.84c-1.06-.41-1.74-.3-2.13.55-.23.48-.71 15.69-.95 17.89 6.2-5.56 13-11.17 13.46-12.08s0-1.43-1-2l.39-.84 17.49 8.13-.4.84c-1.67-.61-2.1-.21-2.39.42l-15.19 32.67c-.3.64-.33 1.21 1.22 2.11l-.39.84ZM267.88 636.52l-.74-.43a2 2 0 0 0-.94-2.62l-11.4-6.7-3.64 6.2 19.68 11.57c.68.4 1.12.21 2.28-1.35l.74.43-6.86 11.6-.73-.43c.48-1.24.43-1.72-.24-2.11l-30.61-18 .47-.8c1.61.77 2.07.41 2.42-.19l18.25-31.07c.35-.6.45-1.17-1-2.21l.47-.8 30.61 18c.67.4 1.12.21 2.2-1.22l.74.44-6.82 11.6-.74-.44c.72-1.64.67-2.11 0-2.51l-19.66-11.58-3.25 5.54 11.41 6.7a2 2 0 0 0 2.74-.45l.73.43ZM282.14 659.09c-.33.62-.4 1.19 1.09 2.18l-.44.81-12.89-7 .44-.82c1.64.71 2.08.34 2.41-.28l17.13-31.7c.33-.61.4-1.19-1.09-2.17l.44-.82 22.91 12.38c9.26 5 11.29 10.67 7.1 18.43-3.38 6.26-8.93 7.56-15 6.32l1.28 15.28a2.41 2.41 0 0 0 1.16 2.21l-.44.81-13-7 .44-.82c.91.41 1.59.34 2-.48.33-.61-1.24-13.58-1.28-15.45l-6.13-3.31Zm10.07-18.63 10.52 5.68c3.69 2 5.77.83 6.84-1.14s.89-4.35-2.8-6.35L296.25 633Z" class="cls-4"/><path d="M351 659.73h-.85a1.94 1.94 0 0 0-2.23-1.65l-13.21.76.41 7.18 22.8-1.31c.78 0 1-.45 1.15-2.39h.85l.77 13.43h-.85c-.29-1.3-.6-1.67-1.38-1.62l-35.44 2-.05-.92c1.76-.26 1.94-.81 1.9-1.51l-2.06-36c0-.69-.29-1.22-2.07-1.27l-.06-.93 35.45-2c.78 0 1-.44 1.15-2.23l.85-.05.78 13.43h-.86c-.31-1.76-.62-2.13-1.4-2.08L333.81 644l.37 6.4 13.21-.76a2 2 0 0 0 2-1.89h.85ZM396.15 643.75c.38.57.87.9 2.46 0l.52.76-12.41 8.37-.52-.77c1.42-1.14 1.29-1.71.91-2.29L367 620c-.38-.57-.87-.9-2.46 0l-.52-.77L386 604.31c8.92-6 15-5.24 19.89 2.07 4 5.9 2.48 11.48-1.53 16.32l14.29 5.85a2.43 2.43 0 0 0 2.52 0l.52.77-12.54 8.45-.51-.77c.8-.63 1.06-1.28.54-2.05-.38-.57-12.74-5.12-14.43-5.93l-5.9 4Zm-11.85-17.57 10.13-6.83c3.55-2.39 3.51-4.79 2.26-6.65s-3.46-2.8-7-.4l-10.12 6.83Z" class="cls-4"/><path d="M452.42 593.49c5.61 12.31-.77 23.21-12 28.33s-23.65 2.79-29.26-9.53.77-23.2 12-28.32 23.66-2.79 29.26 9.52m-31.48 14.34c3 6.62 9.8 8 15.56 5.4s9.15-8.67 6.13-15.28-9.8-8-15.56-5.4-9.15 8.67-6.13 15.28M469.94 610.13l-.32-.87c.77-.45.89-.75.79-1-.24-.66-23.24-25.49-26.12-28.71-1.2-1.37-1.61-1.63-2.32-1.46l-.32-.87 14-5.14.32.87c-1.06.48-1.23.86-1 1.37s1.88 2 17.66 18.55c1.08-22.14 1.39-24.65 1.07-25.52-.18-.51-.47-.65-1.31-.42L472 566l11.73-4.32.32.87a1.27 1.27 0 0 0-.68 1.32c.18 2.58-1.3 38.8-.93 39.81.14.36.59.53 1.2.3l.35 1ZM521.08 575.17l-.81.31a2 2 0 0 0-2.67-.89L505 579.4l2.56 6.72 21.8-8.3c.75-.29.89-.75.4-2.64l.82-.31 4.79 12.58-.82.31c-.67-1.16-1.08-1.41-1.83-1.13l-33.89 12.92-.33-.87c1.64-.79 1.65-1.38 1.41-2L487 563c-.25-.65-.64-1.07-2.4-.57l-.33-.87 33.9-12.91c.74-.29.88-.75.45-2.49l.81-.31 4.79 12.57-.81.31c-.84-1.59-1.25-1.84-2-1.56l-21.8 8.31 2.29 6 12.63-4.82a2 2 0 0 0 1.4-2.44l.82-.31Z" class="cls-4"/><path d="M549.24 575.65c.33.62.78 1 2.45.28l.44.82-13.24 7-.43-.82c1.53-1 1.47-1.57 1.15-2.18l-16.84-31.86c-.32-.62-.77-1-2.45-.28l-.43-.83 23.52-12.43c9.51-5 15.43-3.61 19.55 4.18 3.32 6.29 1.24 11.68-3.26 16.07l13.58 7.4a2.44 2.44 0 0 0 2.51.24l.43.82-13.36 7.07-.43-.82c.86-.55 1.19-1.16.76-2-.33-.62-12.12-6.45-13.72-7.44l-6.3 3.32Zm-9.89-18.73 10.79-5.71c3.79-2 4-4.39 3-6.37s-3.14-3.15-6.93-1.15l-10.8 5.71ZM573.83 545.54l.81-.15a5.2 5.2 0 0 0 .89 1.37c1.29 1.64 9.56-.42 15.51-5.09 5.71-4.48 7.14-8 5-10.64-3.53-4.5-23.18 19-32.39 7.23-4.77-6.08-2.57-14.59 5.83-21.18 7.84-6.15 15.51-8 17.05-9.25a2.44 2.44 0 0 0 .83-2.12l.82-.25L590.9 517l-1 .17-.52-.67c-1.2-1.52-9 1.89-14.43 6.11-5 3.91-5.54 6.71-4.45 8.11 4.25 5.42 22.73-19.79 33.7-5.8 4.11 5.24 4.92 13.93-7.49 23.67-9.55 7.49-16 8-17.29 9-.46.36-.47 1.06-.52 1.69l-.84.36Z" class="cls-4"/></g></g></svg>