<svg xmlns="http://www.w3.org/2000/svg" xml:space="preserve" id="Layer_1" x="0" y="0" version="1.1" viewBox="0 0 242.7 270"><style>.st2{fill:#d6a93a}.st3{fill:#f8d742}.st4{fill:#cda938}.st5{fill:#fff}</style><path d="M242.7 8.8C202.6 2.8 162-.1 121.4 0 80.8-.1 40.2 2.8 0 8.7V110c0 85.6 49.7 133.7 119.4 159.3l2 .6 2-.6c69.7-25.6 119.4-73.7 119.4-159.3zM121.5 130.4l-.2-.2z" style="fill:#2dafe5"/><path d="M234.4 17.1c-37.4-5.5-75.2-8.3-113-8.1-37.8-.1-75.6 2.6-113 8.1v96c0 79.7 46.2 124.5 111.1 148.3l1.8.6 1.8-.6c64.9-23.8 111.1-68.6 111.1-148.3z" style="fill:#7c2c3b"/><path d="M177.1 218.1c1.8 1.8 4.7-.1 7.6-3s4.8-5.8 3-7.6L75.7 98.2c-1.8-1.8-5-1.5-7.1.7-2.2 2.2-2.5 5.4-.7 7.1z" class="st2"/><path d="m79.2 96.5 9.2-10.8s.9-1.2-.5-2.8c-3.3-3.7-6.9-7.3-10.6-10.6-1-.8-1.7-.6-2.9.5-5.6 5.5-19.9 19.3-20.7 20.2-1.1.9-1.6 2.4-1.2 3.8.3 1.9 1.4 5.1-.4 8.2l-9.6 15.2c-1.2 1.9-1.6 3.5-.6 4.4.5.5 1.7 1 4.2-.7 1.2-.8 14.3-9.7 18.5-13.1 2.4-2 4.3-3.8 4.3-3.8l7.9-7.8c-.1-.1 1.5-1.7 2.4-2.7" class="st3"/><path d="M46 122.8c-2.7 1.9-2.7 2.1-2.4 2.1.8-.2 1.6-.6 2.3-1.1 1.2-.8 14.3-9.7 18.5-13.1 1.7-1.4 3.2-2.7 3.9-3.4-2.4.5-4.6 1.5-6.6 2.9-2.2 1.9-11.8 10-15.7 12.6M79.2 96.5l9.2-10.8c.3-.6.4-1.2.1-1.8s-.8-.9-3.4 2.2c-2.2 2.6-3.3 3.6-5.1 5.8-1.5 2-2.5 4.3-2.9 6.8.4-.4 1.5-1.5 2.1-2.2M65.9 218.1c-1.8 1.8-4.7-.1-7.6-3s-4.8-5.8-3-7.6l112-109.3c1.8-1.8 5-1.5 7.1.7 2.2 2.2 2.5 5.4.7 7.1z" class="st2"/><path d="m64.8 217 104.6-107.4c1.8-1.8 1.5-5-.7-7.1-1-1.1-2.4-1.7-3.9-1.8L55.2 207.4c-1.7 1.7-.1 4.4 2.6 7.2 2.8 2.6 5.3 4 7 2.4M163.8 96.5l-9.2-10.8s-.9-1.2.5-2.8c3.3-3.7 6.9-7.3 10.6-10.6 1-.8 1.7-.6 2.9.5 5.6 5.4 19.9 19.2 20.7 20.1 1.1.9 1.6 2.4 1.2 3.8-.3 1.9-1.4 5.1.4 8.2l9.6 15.2c1.2 1.9 1.6 3.5.6 4.4-.5.5-1.7 1-4.2-.7-1.2-.8-14.3-9.7-18.5-13.1-2.4-2-4.3-3.8-4.3-3.8l-7.9-7.8c.2 0-1.5-1.7-2.4-2.6" class="st3"/><path d="M197 122.8c2.7 1.9 2.7 2.1 2.3 2.1-.8-.2-1.6-.6-2.3-1.1-1.2-.8-14.3-9.7-18.5-13.1-1.7-1.4-3.2-2.7-3.9-3.4 2.4.5 4.6 1.5 6.6 2.9 2.4 1.8 11.9 9.9 15.8 12.6M163.8 96.5l-9.2-10.8c-.3-.6-.4-1.2-.1-1.8s.8-.9 3.4 2.2c2.2 2.6 3.3 3.6 5.1 5.8 1.5 2 2.5 4.3 2.9 6.8-.4-.5-1.4-1.5-2.1-2.2M181.5 99.6c-.9.9-2.3.9-3.1 0l-4.7-4.7c-.4-.4-.6-1-.6-1.6 0-1.2 1-2.2 2.2-2.2.6 0 1.1.2 1.6.6l4.7 4.7c.4.4.6 1 .6 1.6-.1.6-.3 1.2-.7 1.6" class="st2"/><path d="M174.3 94.9c-.4-.4-.6-1-.6-1.6 0-1.1.8-2 1.9-2.2h-.3c-1.2 0-2.2 1-2.2 2.2 0 .6.2 1.1.6 1.6l4.7 4.7c.5.5 1.2.7 1.9.6q-.75-.15-1.2-.6z" class="st4"/><path d="M176.4 96.6s-.1.1-.2.1-.2-.1-.2-.2 0-.1.1-.2l2.2-2.2s.1-.1.2-.1.2.1.2.2 0 .1-.1.2zM177.1 97.4s-.1.1-.2.1-.1 0-.2-.1c0 0-.1-.1-.1-.2s.1-.2.2-.2.2.1.2.2c.1.1.1.1.1.2M175.6 95.9s-.1.1-.2.1-.2-.1-.2-.2.1-.2.2-.2.1 0 .2.1c.1-.1.1.1 0 .2M177.3 93l-.7-.7s-.1-.1-.2-.1-.2.1-.2.2 0 .1.1.2l.1.1v.2l-1.9 1.9s-.1.1-.1.2.1.2.2.2.1 0 .2-.1l1.9-1.9h.1l.1.1s.1.1.2.1.2-.1.2-.2c.1-.1.1-.2 0-.2M181.3 96.9c0-.1-.1-.1-.2-.1h-.1l-1.2.9h-.2v-.1l.3-.5v-.3q-.15-.15-.3 0l-.5.3h-.2s-.1-.1 0-.2l.9-1.2c.1-.1.1-.3-.1-.3h-.1c-.1 0-.1 0-.2.1l-1.8 2.5q-.15.15 0 .3t.3 0l.9-.4h.1c.1 0 .1.1.1.1v.1l-.4.9v.3q.15.15.3 0l2.5-1.8c.1 0 .1-.1.1-.2-.2-.3-.2-.3-.2-.4" class="st2"/><path d="M78.9 101.3c-1.5 0-2.9.6-4 1.7-2 2-2.3 5-.6 6.6l44.8 45.9 7.6-7.6zM187.8 207.4l-56.5-55c-2.9 1.3-4.8 4.2-4.8 7.5 0 1.8.6 3.6 1.7 5l50.5 51.8c1.7 1.7 4.3-.1 7.1-2.8.5-.5.9-.9 1.3-1.4 1.4-2 1.9-3.8.7-5.1M176.3 96.5s-.1.1-.2.1-.2-.1-.2-.2 0-.1.1-.2l2.2-2.2s.1-.1.2-.1.2.1.2.2 0 .1-.1.2zM177 97.3s-.1.1-.2.1-.1 0-.2-.1-.1-.1-.1-.2.1-.2.2-.2.2.1.2.2c.1.1.1.1.1.2M175.5 95.8s-.1.1-.2.1-.2-.1-.2-.2.1-.2.2-.2.1 0 .2.1c.1-.1.1.1 0 .2M177.2 92.9l-.7-.7q-.15-.15-.3 0s-.1.1-.1.2 0 .1.1.2l.1.1v.2l-1.9 1.9s-.1.1-.1.2.1.2.2.2.1 0 .2-.1l1.9-1.9h.2l.1.1s.1.1.2.1.2-.1.2-.2c0-.2 0-.3-.1-.3M181.2 96.8c0-.1-.1-.1-.2-.1h-.1l-1.2.9h-.1c-.1 0-.1-.1-.1-.1v-.1l.3-.5v-.3q-.15-.15-.3 0l-.5.3h-.2s-.1-.1 0-.2l.9-1.2c.1-.1.1-.3-.1-.3h-.1c-.1 0-.1 0-.2.1l-1.8 2.5q-.15.15 0 .3t.3 0l.9-.4h.1c.1 0 .1.1.1.1v.1l-.4.9v.3q.15.15.3 0l2.5-1.8c.1 0 .1-.1.1-.2-.2-.2-.2-.2-.2-.3" class="st3"/><path d="M69.4 91.8c.9.9.9 2.3 0 3.1l-4.7 4.7c-.4.4-1 .6-1.6.6-1.2 0-2.2-1-2.2-2.2 0-.6.2-1.1.6-1.6l4.7-4.7c.4-.4 1-.6 1.6-.6.6.1 1.2.3 1.6.7" class="st2"/><path d="m61.9 96.9 4.7-4.7c.8-.8 2-.9 2.9-.2l-.2-.2c-.9-.9-2.3-.9-3.1 0l-4.7 4.7c-.4.4-.6 1-.6 1.6s.2 1.1.6 1.6l.2.2c-.6-.9-.5-2.2.2-3" class="st4"/><path d="M66.3 97.3s.1.1.1.2-.1.2-.2.2-.1 0-.2-.1l-2.2-2.2s-.1-.1-.1-.2.1-.2.2-.2.1 0 .2.1zM67 96.6s.1.1.1.2-.1.2-.2.2-.2-.1-.2-.2 0-.1.1-.2c0-.1.1-.1.2 0M65.5 98.1s.1.1.1.2-.1.2-.2.2-.1 0-.2-.1q-.15-.15 0-.3s.1-.1.2-.1c0 0 .1 0 .1.1M62.6 96.3l-.7.7s-.1.1-.1.2.1.2.2.2.1 0 .2-.1l.1-.1h.2l1.9 1.9s.1.1.2.1.2-.1.2-.2 0-.1-.1-.2l-1.9-1.9v-.2l.1-.1s.1-.1.1-.2-.1-.2-.2-.2c-.1.1-.1.1-.2.1M66.6 92.4c-.1 0-.1.1-.1.2v.1l.9 1.2v.2h-.2l-.5-.3h-.3q-.15.15 0 .3l.3.5v.1c0 .1-.1.1-.1.1h-.1l-1.2-.8h-.1c-.1 0-.2.1-.2.2s0 .1.1.2l2.5 1.8q.15.15.3 0t0-.3l-.5-.9v-.1c0-.1.1-.1.1-.1h.1l.9.4h.3q.15-.15 0-.3L67 92.4c-.2-.1-.3-.1-.4 0" class="st2"/><path d="M66.3 97.1s.1.1.1.2-.1.2-.2.2-.1 0-.2-.1l-2.2-2.2s-.1-.1-.1-.2.1-.2.2-.2.1 0 .2.1zM67 96.4s.1.1.1.2-.1.2-.2.2-.2-.1-.2-.2 0-.1.1-.2c0-.1.1-.1.2 0M65.5 97.8s.1.1.1.2-.1.2-.2.2-.2-.1-.2-.2 0-.1.1-.2c0-.1.1-.1.2 0M62.6 96.1l-.7.7s-.1.1-.1.2.1.2.2.2.1 0 .2-.1l.1-.1h.2l1.9 1.9s.1.1.2.1.2-.1.2-.2 0-.1-.1-.2l-1.9-1.9v-.2l.1-.1q.15-.15 0-.3s-.1-.1-.2-.1c0 0 0 .1-.1.1M66.6 92.2c-.1 0-.1.1-.1.2v.1l.9 1.2v.2h-.2l-.5-.3h-.3q-.15.15 0 .3l.3.5v.2s-.1.1-.2 0l-1.2-.9h-.1c-.1 0-.2.1-.2.2s0 .1.1.2l2.5 1.8q.15.15.3 0t0-.3l-.4-.9v-.1c0-.1.1-.1.1-.1h.1l.9.4h.3q.15-.15 0-.3l-1.8-2.5c0-.1-.1-.1-.2-.1-.2.1-.3.1-.3.2" class="st3"/><path d="M77.3 65c-.3 0-.7.1-1 .1-3.9 0-7.1-3.1-7.4-7-.1-4.1-.3-8.2-.4-12.3 1.9-.2 2.9-.2 4.8-.4.1 4.1.2 8.2.4 12.3v.1c0 1.6 1.3 2.9 2.9 2.9.2 0 .4 0 .6-.1h.8999999999999999c1.7 0 3.1-1.4 3.1-3.1v-.2L80.9 45c1.9-.1 2.9-.2 4.8-.3L86 57c0 4.3-3.6 7.9-7.9 8-.4-.1-.5-.1-.8 0M89.4 44.5c2.2-.1 3.4-.2 5.6-.2 2.5 4 5 8.1 7.5 12.2h.1c0-4.1-.1-8.3-.1-12.4 1.9-.1 2.9-.1 4.8-.1.1 6.5.1 13 .2 19.5-2.2 0-3.3.1-5.5.1-2.5-4.1-5-8.1-7.5-12.1h-.1c.1 4.1.1 8.3.2 12.4-1.9.1-2.9.1-4.8.2-.2-6.6-.3-13.1-.4-19.6M110.8 43.9c1.9 0 2.9 0 4.8-.1 0 6.5 0 13 .1 19.5-1.9 0-2.9 0-4.8.1-.1-6.6-.1-13.1-.1-19.5M125.3 47.9h-6.2v-4.1c5.8 0 11.5 0 17.3.2v4.1c-2.5-.1-3.7-.1-6.2-.1 0 5.1-.1 10.2-.1 15.4h-4.8zM139.8 44c4.4.1 8.7.3 13.1.5 0 1.6 0 2.4-.1 4.1-3.3-.2-4.9-.2-8.2-.3v3.5c2.7.1 4 .1 6.7.3 0 1.6 0 2.4-.1 4.1-2.7-.1-4-.2-6.7-.3 0 1.5 0 2.2-.1 3.7 3.4.1 5.1.2 8.5.3 0 1.6 0 2.4-.1 4.1-4.4-.2-8.9-.4-13.3-.5q.3-9.75.3-19.5M156.5 44.6c3.1.2 4.6.2 7.7.4 5.5.2 10 4.8 9.8 10.4-.1 5-4.3 9.1-9.3 9.1-.3 0-.7 0-1-.1-3-.2-4.6-.3-7.6-.4.2-6.4.3-12.9.4-19.4m7.2 15.8c3.3.2 5.4-1.6 5.5-5.3s-2-5.8-5.2-6c-1.1-.1-1.6-.1-2.7-.2l-.3 11.4c1.1 0 1.6.1 2.7.1M28.2 21.9c2.5-.3 3.8-.5 6.3-.8 1.1 5.5 2.2 11 3.4 16.6h.1l3.9-17.4c2.2-.2 3.2-.3 5.4-.6 1.3 5.5 2.5 11.1 3.8 16.6h.1c1.2-5.8 2.4-11.5 3.7-17.3 2.5-.2 3.7-.3 6.2-.5-2.1 8.3-4.1 16.6-6.2 25-2.9.3-4.4.4-7.3.7-1-4.7-2-9.3-3-14h-.1c-1 4.9-2 9.8-3 14.6-2.9.3-4.4.5-7.3.8zM185.7 18.8c2.7.2 4 .4 6.7.6 1.8 5.2 3.6 10.5 5.3 15.7h.1c1.8-4.9 3.5-9.8 5.3-14.6 2.7.3 4 .4 6.6.8 1.5 8.3 2.9 16.7 4.4 25-2.5-.3-3.7-.5-6.2-.8-.7-5.4-1.4-10.9-2.2-16.3h-.1c-1.7 5.2-3.5 10.3-5.2 15.5-2.2-.2-3.2-.3-5.4-.6-1.8-5.5-3.6-11.1-5.4-16.6h-.1c-.6 5.3-1.3 10.6-1.9 15.9-2.5-.2-3.8-.3-6.3-.5 1.6-8 3-16 4.4-24.1M63.3 18.4c5.5-.4 11-.8 16.5-1.1-.1 2.1-.2 3.1-.3 5.1l-10.2.6v4.4c3.3-.2 5-.3 8.3-.5V32c-3.3.2-5 .3-8.3.5v4.6c3.6-.2 7.1-.5 10.7-.7v5.1c-5.6.3-11.1.7-16.7 1.1zM107.9 21.4c-3.1.1-4.6.1-7.7.2v-5.1c7.2-.2 14.3-.3 21.5-.3v5.1H114v19.3c-2.4 0-3.6 0-6 .1zM131.6 16.3c2.4 0 3.6 0 6 .1v9.8l10.4.3v-9.8c2.4.1 3.6.1 6 .2v24.4c-2.4-.1-3.6-.2-6-.2v-9.6l-10.4-.3v9.6c-2.4 0-3.6-.1-6-.1zM171.9 37.2c-3.3-.2-4.9-.3-8.2-.5l-1.5 5c-2.5-.1-3.7-.2-6.2-.3 2.5-8 4.9-16 7.4-24.1 3.2.2 4.8.3 8.1.5 2.7 8.3 5.3 16.7 8 25-2.5-.2-3.7-.3-6.2-.5-.5-2-.8-3-1.4-5.1m-4.1-14c-.9 2.9-1.8 5.9-2.7 8.8 2.2.1 3.3.2 5.4.3-.9-3-1.8-6.1-2.7-9.1M91.1 16.3c-4.5.2-9.5 2.9-9.6 7.9-.1 7.7 11.5 5.6 12.2 9.8.2 1.2-1.1 2.1-2.8 2.1-2.8.1-5.5-.6-8-1.9-.1 2.1-.2 3.2-.3 5.1 2.4 1.5 5.3 2.3 8.2 2.2 4.3.1 9.5-2.9 9.5-7.9.1-7.6-11.3-5.9-12.2-9.8-.2-1 1-2 2.9-2.1 2.2-.1 4.4.3 6.4 1.2.1-2.4.2-2.8.3-5.1-2-1.1-4.3-1.6-6.6-1.5M86 218.3l2.9 1.3-4.1 9.4 4.9 2.1-1.1 2.5-7.8-3.4zM100.4 223.5c2.9.7 5 3.4 5 6.4q0 .9-.3 1.8c-.8 2.9-3.5 5-6.5 5-3.7 0-6.8-3.1-6.8-6.8 0-.6.1-1.2.2-1.8.8-2.9 3.4-4.9 6.3-4.9.8 0 1.4.1 2.1.3m-2.8 10.1c.3.1.5.1.8.1 1.7 0 3.2-1.2 3.6-2.9.1-.4.2-.7.2-1.1 0-1.9-1.6-3.5-3.5-3.5-1.7 0-3.1 1.2-3.4 2.8-.1.4-.2.8-.2 1.2-.1 1.5 1 2.9 2.5 3.4M108.2 225.6l3.2.3 3 6.4c.3.8.6 1.5.9 2.3 0 0 0-1.4.1-2.2l.6-6 3.2.3-1.3 12.9-3.2-.3-3-6.4c-.3-.8-.6-1.5-.9-2.3 0 0 0 1.4-.1 2.2l-.6 6-3.2-.3zM121.3 226.7l4.6-.2c4.1-.2 6.8 2 7 6.1s-2.3 6.7-6.3 6.9l-4.6.2zm5.1 10c1.9-.2 3.3-1.8 3.3-3.8 0-2.1-1.7-3.8-3.7-3.8l-1.3.1.4 7.5zM139.8 224.5c.5-.1 1.1-.2 1.6-.2 3.1 0 5.8 2.2 6.4 5.2.1.5.2 1 .2 1.5 0 3.7-3.1 6.8-6.8 6.8-3.2 0-6-2.2-6.6-5.3-.1-.5-.2-1-.2-1.5 0-3.2 2.3-6 5.4-6.5m2.2 10.2c1.6-.4 2.7-1.9 2.7-3.5 0-.3 0-.7-.1-1-.3-1.7-1.7-3-3.5-3-1.9 0-3.5 1.6-3.5 3.5 0 .3 0 .6.1 1 .3 1.8 1.8 3.1 3.6 3.1.3 0 .5 0 .7-.1M147.7 222.7l3-1.2 5.6 4.3c.6.5 1.3 1.1 1.8 1.6 0 0-.7-1.2-1-2l-2.3-5.6 2.9-1.2 4.9 12-3 1.2-5.6-4.3c-.6-.5-1.3-1.1-1.8-1.6 0 0 .7 1.2 1 2l2.3 5.6-2.9 1.2z" class="st5"/></svg>