<svg xmlns="http://www.w3.org/2000/svg" xml:space="preserve" id="Layer_1" x="0" y="0" version="1.1" viewBox="0 0 270 233.9"><style>.st0{fill:#231f20}.st2{fill:#fff}</style><path d="M67.5 233.9 0 117 67.5 0h135L270 117l-67.5 117h-135z" class="st0"/><path d="M80.5 211.4 25.9 117l54.5-94.4h109.1L244 117l-54.5 94.4z" style="fill:#fdb913"/><path d="M81.6 209.5h106.8l53.4-92.5-53.4-92.5H81.6L28.2 117zm109 3.9H79.4L23.7 117l.6-1 55.1-95.4h111.3l.6 1 55.1 95.4z" class="st2"/><path d="M119.3 72.9h31.2l16.7-41.8 45.1 91.7-48.8 28.8-15.7 51.3h-25.7l-15.6-51.4-48.8-28.7 45-91.7z" class="st0"/><path d="m125.8 129.3-23-24.7v24.7zm41.4-24.7v24.7h-23z" class="st2"/></svg>