<svg xmlns="http://www.w3.org/2000/svg" width="959.164" height="959.171"><defs><clipPath id="a" clipPathUnits="userSpaceOnUse"><path d="M0 1080h1080V0H0Z"/></clipPath></defs><g clip-path="url(#a)" transform="matrix(1.33333 0 0 -1.33333 -240.418 1199.585)"><path d="M0 0c0 193.303 156.696 350.001 349.999 350.001 193.3 0 349.996-156.698 349.996-350.001S543.299-349.999 349.999-349.999C156.696-349.999 0-193.303 0 0" style="fill:#003263;fill-opacity:1;fill-rule:nonzero;stroke:none" transform="translate(190.002 539.999)"/><path d="M0 0c0 193.303 156.696 350.001 349.999 350.001 193.3 0 349.996-156.698 349.996-350.001S543.299-349.999 349.999-349.999C156.696-349.999 0-193.303 0 0Z" style="fill:none;stroke:#38b5e8;stroke-width:19.378;stroke-linecap:butt;stroke-linejoin:miter;stroke-miterlimit:3.864;stroke-dasharray:none;stroke-opacity:1" transform="translate(190.002 539.999)"/><path d="M0 0c0 130.321 105.644 235.968 235.968 235.968 130.326 0 235.968-105.647 235.968-235.968 0-130.319-105.642-235.966-235.968-235.966C105.644-235.966 0-130.319 0 0" style="fill:#38b5e8;fill-opacity:1;fill-rule:nonzero;stroke:none" transform="translate(304.033 539.999)"/><path d="M0 0c0 130.321 105.644 235.968 235.968 235.968 130.326 0 235.968-105.647 235.968-235.968 0-130.319-105.642-235.966-235.968-235.966C105.644-235.966 0-130.319 0 0Z" style="fill:none;stroke:#fff;stroke-width:10.133;stroke-linecap:butt;stroke-linejoin:miter;stroke-miterlimit:3.864;stroke-dasharray:none;stroke-opacity:1" transform="translate(304.033 539.999)"/><path d="M0 0c3.797-12.183 7.591-24.369 12.302-37.889l-.112-.074C1.75-28.259-7.909-20.056-17.549-11.761l-6.521-4.073c3.231-12.3 6.426-24.544 10.574-38.178l-.115-.072c-10.032 10.199-19.204 19.022-28.435 27.809l-7.236-6.11 35.819-32.505 8.296 5.185c-3.016 11.318-6.126 22.659-10.059 35.317l.115.069c9.712-9.045 18.655-16.739 27.564-24.376l8.236 5.149L7.293 2.968Z" style="fill:#fff;fill-opacity:1;fill-rule:nonzero;stroke:none" transform="translate(393.87 819.616)"/><path d="m0 0-7.837-1.27c-1.225-7.63-2.517-15.278-3.303-24.183-5.783 6.641-11.063 12.031-16.407 17.394l-9.638-4.745 22.432-20.6 6.433-18.688 8.996 3.097-6.436 18.688z" style="fill:#fff;fill-opacity:1;fill-rule:nonzero;stroke:none" transform="translate(453.026 840.694)"/><path d="M0 0c-9.129-1.445-17.823 3.871-19.576 14.932-1.679 10.592 4.186 18.42 13.781 19.939 3.596.571 7.615-.227 10.072-1.067l2.032 6.127c-3.494 1.359-8.298 2.374-13.16 1.605-16.39-2.596-24.758-15.326-22.74-28.054C-27.416-.244-15.533-9.289.654-6.724c4.53.716 9.287 3.042 11.888 5.16L9.026 3.82C6.77 2.099 3.599.571 0 0" style="fill:#fff;fill-opacity:1;fill-rule:nonzero;stroke:none" transform="translate(500.93 809.061)"/><path d="M0 0c-9.913.172-13.258 9.542-13.103 18.578.153 8.702 4.277 16.928 13.721 16.764 9.44-.165 13.28-8.53 13.127-17.232C13.582 9.074 9.914-.174 0 0m.736 42.087c-13.557.237-23.722-10.113-23.954-23.332C-23.464 4.662-14.619-6.492-.117-6.743 14.385-6.999 23.612 3.838 23.86 17.933c.229 13.22-9.566 23.916-23.124 24.154" style="fill:#fff;fill-opacity:1;fill-rule:nonzero;stroke:none" transform="translate(545.792 811.702)"/><path d="m0 0-.129.031C-.43 6.364-3.553 26.19-5.454 38.622l-11.39 2.842-11.424-45.818 7.398-1.843 8.911 35.738.125-.033C-10.23 15.552-8.133 2.792-6.079-9.886l4.971-1.239C6.925-.96 15.03 9.253 23.254 20.761l.129-.034-8.912-35.738 9.227-2.302 11.424 45.818-10.732 2.676C16.353 21.231 3.697 5.614 0 0" style="fill:#fff;fill-opacity:1;fill-rule:nonzero;stroke:none" transform="translate(609.272 808.109)"/><path d="m0 0-2.67 1.301L3.419 13.79l4.423-2.158c3.706-1.806 5.693-4.802 3.859-8.561C9.781-.87 4.905-2.395 0 0m3.993-17.189c-2.302-4.73-7.093-5.47-11.825-3.163l-4.36 2.127 6.977 14.311 4.308-2.101c4.67-2.276 7.331-6.202 4.9-11.174M6.93-5.636l.057.122c3.358-.661 10.235-.561 13.549 6.228 2.809 5.76-.63 11.488-7.785 14.977l-15.335 7.482-20.703-42.441 14.07-6.861c10.001-4.879 18.668-2.65 22.246 4.683 3.166 6.49-.946 12.995-6.099 15.81" style="fill:#fff;fill-opacity:1;fill-rule:nonzero;stroke:none" transform="translate(669.143 804.092)"/><path d="m0 0 3.639 5.194-20.779 14.547-27.084-38.679 23.153-16.214 3.634 5.193L-32.8-19.201l8.749 12.489 12.709-8.9 3.634 5.194-12.709 8.902 7.427 10.609z" style="fill:#fff;fill-opacity:1;fill-rule:nonzero;stroke:none" transform="translate(729.127 782.7)"/><path d="M0 0c-9.984-7.88-19.963-15.76-30.861-24.978l-.108.081C-25.67-11.72-21.489.201-17.212 12.131l-6.118 4.609C-33.622 9.342-43.869 1.996-55.075-6.734l-.108.086c5.906 12.971 10.839 24.662 15.72 36.387l-8.271 4.551-17.447-44.935 7.782-5.87c9.457 6.853 18.898 13.793 29.267 21.969l.107-.076c-4.948-12.265-8.911-23.335-12.837-34.348l7.732-5.832L5.363-5.721z" style="fill:#fff;fill-opacity:1;fill-rule:nonzero;stroke:none" transform="translate(399.538 314.22)"/><path d="m0 0-11.481 5.606c4.704 4.585 9.205 8.75 14.139 14.419l.122-.062C1.59 12.465.898 6.447 0 0m-33.601-4.327 7.372-3.592 9.979 9.418 14.985-7.306-1.701-13.459 9.545-4.661 4.738 50.051-7.069 3.448z" style="fill:#fff;fill-opacity:1;fill-rule:nonzero;stroke:none" transform="translate(418.317 271.706)"/><path d="m0 0-.129.038c-5.44 13.984-11.312 26.621-17.229 39.344l-6.688 1.796-12.181-45.462 7.337-1.963 8.736 32.595.131-.033C-14.602 12.264-8.683-.458-2.785-13.243l6.625-1.782 12.178 45.462-7.338 1.962Z" style="fill:#fff;fill-opacity:1;fill-rule:nonzero;stroke:none" transform="translate(476.284 246.565)"/><path d="m0 0-5.769.401 2.402 34.339 6.839-.483c9.926-.692 15.139-7.121 14.459-16.844C17.014 4.336 10.796-.755 0 0m3.847 40.566-16.229 1.137-3.283-46.947 15.359-1.07c16.63-1.165 27.209 7.46 28.29 22.953.793 11.333-5.024 22.59-24.137 23.927" style="fill:#fff;fill-opacity:1;fill-rule:nonzero;stroke:none" transform="translate(517.056 233.49)"/><path d="m0 0-1.853 15.082 15.35 1.882-.774 6.275-15.35-1.882-1.566 12.809 15.674 1.925-.764 6.271-25.093-3.081 5.732-46.703 27.957 3.429-.763 6.276z" style="fill:#fff;fill-opacity:1;fill-rule:nonzero;stroke:none" transform="translate(570.932 234.578)"/><path d="m0 0-3.701-.993-4.041 15.062 4.738 1.271c3.639.974 7.746.196 9.122-4.938C7.006 7.092 6.295 1.686 0 0m14.982 13.964C12.909 21.692 5.951 24.28-2.756 21.95l-15.779-4.232 12.188-45.451 9.15 2.45-4.871 18.186 5.454 1.461 14.304-16.49 9.136 4.326-15.98 16.529c3.61 3.678 5.941 8.482 4.136 15.235" style="fill:#fff;fill-opacity:1;fill-rule:nonzero;stroke:none" transform="translate(612.133 260.922)"/><path d="m0 0-6.185 13.878 14.127 6.285-2.569 5.775-14.127-6.291-5.249 11.797L.43 37.867l-2.57 5.775-23.096-10.287L-6.094-9.633 19.638 1.824l-2.569 5.77Z" style="fill:#fff;fill-opacity:1;fill-rule:nonzero;stroke:none" transform="translate(659.209 257.32)"/><path d="m0 0-3.247-2.035-8.268 13.229 4.16 2.599c3.191 2 7.351 2.454 10.164-2.054C4.623 8.835 5.531 3.458 0 0m10.24 17.732c-4.236 6.787-11.653 7.231-19.29 2.46l-13.855-8.663 24.94-39.907 8.042 5.024L.1-7.393l4.786 2.994 18.497-11.586 7.479 6.815L10.746 1.958c2.374 4.575 3.2 9.848-.506 15.774" style="fill:#fff;fill-opacity:1;fill-rule:nonzero;stroke:none" transform="translate(690.758 294.935)"/><path d="M0 0c-3.868 4.298-9.021 4.996-17.093 4.518-7.02-.444-11.041-.898-13.114 1.399-1.844 2.049-1.729 5.139 1.223 7.79 2.043 1.843 4.947 2.741 7.44 3.085l-.783 5.898c-3.085.115-7.593-1.313-11.586-4.914-6.347-5.712-7.675-13.783-3.448-18.483 4.188-4.647 8.969-4.227 14.843-3.916 4.776.325 11.768 1.996 15.225-1.843 2.971-3.296 1.815-7.145-1.079-9.753-3.147-2.837-6.6-3.314-9.667-3.634l1.056-6.29c4.757-.057 9.791 2.483 13.439 5.769C4.351-13.267 3.959-4.394 0 0" style="fill:#fff;fill-opacity:1;fill-rule:nonzero;stroke:none" transform="translate(747.49 322.673)"/><path d="M0 0c0 6.624 5.37 11.994 11.992 11.994 6.627 0 11.997-5.37 11.997-11.994s-5.37-11.995-11.997-11.995C5.37-11.995 0-6.624 0 0m6.732 0a5.263 5.263 0 1 1 10.526 0A5.263 5.263 0 0 1 6.732 0" style="fill:#fcb745;fill-opacity:1;fill-rule:nonzero;stroke:none" transform="translate(380.671 551.518)"/><path d="M0 0a5.263 5.263 0 1 1 10.526 0A5.263 5.263 0 0 1 0 0Z" style="fill:none;stroke:#231f20;stroke-width:3.26;stroke-linecap:butt;stroke-linejoin:miter;stroke-miterlimit:3.864;stroke-dasharray:none;stroke-opacity:1" transform="translate(387.403 551.518)"/><path d="M0 0c0 6.624 5.37 11.994 11.992 11.994 6.627 0 11.997-5.37 11.997-11.994s-5.37-11.995-11.997-11.995C5.37-11.995 0-6.624 0 0Z" style="fill:none;stroke:#231f20;stroke-width:3.26;stroke-linecap:butt;stroke-linejoin:miter;stroke-miterlimit:3.864;stroke-dasharray:none;stroke-opacity:1" transform="translate(380.671 551.518)"/><path d="M0 0c0 6.629 2.579-4.179 9.208-4.179 6.62 0 14.299 12.651 14.299 6.032 0-6.629-5.368-11.997-11.997-11.997C4.886-10.144 0-6.619 0 0" style="fill:#fcb745;fill-opacity:1;fill-rule:nonzero;stroke:none" transform="translate(640.506 469.98)"/><path d="M0 0c0 6.629 2.579-4.179 9.208-4.179 6.62 0 14.299 12.651 14.299 6.032 0-6.629-5.368-11.997-11.997-11.997C4.886-10.144 0-6.619 0 0Z" style="fill:none;stroke:#231f20;stroke-width:3.26;stroke-linecap:butt;stroke-linejoin:miter;stroke-miterlimit:3.864;stroke-dasharray:none;stroke-opacity:1" transform="translate(640.506 469.98)"/><path d="M0 0c0 6.627 5.37 11.995 11.997 11.995 6.622 0 11.992-5.368 11.992-11.995 0-6.624-5.37-11.994-11.992-11.994C5.37-11.994 0-6.624 0 0m6.734 0a5.264 5.264 0 0 1 5.263-5.263 5.263 5.263 0 0 1 0 10.526A5.263 5.263 0 0 1 6.734 0" style="fill:#fcb745;fill-opacity:1;fill-rule:nonzero;stroke:none" transform="translate(410.177 626.884)"/><path d="M0 0a5.264 5.264 0 0 1 5.263-5.263 5.263 5.263 0 0 1 0 10.526A5.263 5.263 0 0 1 0 0Z" style="fill:none;stroke:#231f20;stroke-width:3.26;stroke-linecap:butt;stroke-linejoin:miter;stroke-miterlimit:3.864;stroke-dasharray:none;stroke-opacity:1" transform="translate(416.91 626.884)"/><path d="M0 0c0 6.627 5.37 11.995 11.997 11.995 6.622 0 11.992-5.368 11.992-11.995 0-6.624-5.37-11.994-11.992-11.994C5.37-11.994 0-6.624 0 0Z" style="fill:none;stroke:#231f20;stroke-width:3.26;stroke-linecap:butt;stroke-linejoin:miter;stroke-miterlimit:3.864;stroke-dasharray:none;stroke-opacity:1" transform="translate(410.177 626.884)"/><path d="M0 0c-7.395-6.846-12.809-11.52-20.925-17.494-1.292-.95.045-1.724-1.388-2.441-3.101-1.549-5.427-1.846-8.818-1.124L-17.05 1.194c-3.906.578-6.406 5.578-4.532 9.048 1.115 2.058 2.725 3.087 5.06 3.23.545 3.857 1.116 5.932 2.4 9.691 5.081 14.848 33.756 31.055 51.106 31.895C80.581 57.172 93.065 25.35 95.84 11.507c2.701-13.484-1.421-22.561-8.468-34.369C80.246-34.8 46.84-47.269 46.183-48.354l12.601-5.494c8.348 1.237 14.227 1.743 21.608 1.223 28.947-2.037 45.667-15.087 74.733-29.668 32.409-16.255 83.004-49.303 83.004-49.303 4.017-2.388-14.39-6.066-28.636-9.032l61.255-32.991c-.172-1.442.573-2.995-.726-3.644-14.485-7.245-30.016-12.456-44.577-2.88-2.274 1.495-3.324 2.66-5.445 4.36l9.609-6.915c0-1.481.315-2.35 0-3.792-.745-3.372-2.904-4.958-5.979-6.524-3.582-1.834-6.314-1.008-10.316-.549-19.022 2.183-36.984 11.954-60.348 27.188l4.719-3.247c10.525-5.043 18.85-18.482 20.292-21.405 2.894-5.865-4.36-47.467-4.36-47.467 1.953-6.3 16.849-13.321 9.805-13.77-11.247-.716-31.535-9.045-29.013-40.938 0 0-14.806 5.139-23.46 2.063-9.494-3.371-9.785-6.524-20.405-19.113-2.968-3.524 2.319 27.414 2.319 27.414-4.883 2.97-7.192 1.49-17.885 3.037 0 0 27.537 17.375 61.269 41.665 4.494 8.501 4.494 16.151 0 24.652-3.228 6.104-7.713 7.585-13.047 11.969-3.243 2.665-5.965 4.78-8.654 6.715-.846-3.262.119-6.037-.645-9.777-1.461-7.111-4.886-10.258-8.329-16.653-3.487-6.476-6.505-9.58-9.442-16.324-1.094-2.502-2.531-3.801-2.517-6.523 0 0 6.514-2.522 12.685-9.046 0 0-10.24-1.848-16.331-4.365-5.38-2.221-8.387-3.759-13.048-7.24-11.237-8.396-20.29-29.697-20.29-29.697-1.944 11.443-1.791 18.98-3.603 21.731-1.593 2.407-8.941-1.318-30.143-10.288-6.811-2.885 5.709 11.415 8.155 17.122 2.237 5.22-13.863 5.707-13.863 5.707s5.28 6.485 9.757 9.189c6.813 4.107 12.208 2.454 19.93 4.365 9.989 2.474 16.723 1.667 25.372 7.24 8.592 5.531 14.457 10.039 17.011 19.935.887 3.419 2.028 5.664.911 9.016-2.446 7.336-14.364 9.275-22.282 16.716-9.444 8.869-14.209 14.704-21.012 25.732-5.363 1.089-10.053 1.705-18.27 3.381-63.306 14.882-75.019 32.734-84.181 49.478-2.706 7.739-3.143 11.706-3.616 19.381-.659 10.647-1.894 5.986 2.992 27.193 2.587 11.238 15.016 25.976 24.269 34.138 0 0 25.211 9.105 41.781 15.197 14.271 4.076 22.394 7.575 28.171 13.972 4.339 4.812 6.633 11.388 2.548 16.417-7.964 9.802-19.569 7.243-29.608 1.452l-43.96-29.952c-9.057-4.217-6.559-2.753-10.521-3.24C-27.796-21.069 0 0 0 0" style="fill:#fff;fill-opacity:1;fill-rule:evenodd;stroke:none" transform="translate(436.534 658.849)"/><path d="M0 0c-7.395-6.846-12.809-11.52-20.925-17.494-1.292-.95.045-1.724-1.388-2.441-3.101-1.549-5.427-1.846-8.818-1.124L-17.05 1.194c-3.906.578-6.406 5.578-4.532 9.048 1.115 2.058 2.725 3.087 5.06 3.23.545 3.857 1.116 5.932 2.4 9.691 5.081 14.848 33.756 31.055 51.106 31.895C80.581 57.172 93.065 25.35 95.84 11.507c2.701-13.484-1.421-22.561-8.468-34.369C80.246-34.8 46.84-47.269 46.183-48.354l12.601-5.494c8.348 1.237 14.227 1.743 21.608 1.223 28.947-2.037 45.667-15.087 74.733-29.668 32.409-16.255 83.004-49.303 83.004-49.303 4.017-2.388-14.39-6.066-28.636-9.032l61.255-32.991c-.172-1.442.573-2.995-.726-3.644-14.485-7.245-30.016-12.456-44.577-2.88-2.274 1.495-3.324 2.66-5.445 4.36l9.609-6.915c0-1.481.315-2.35 0-3.792-.745-3.372-2.904-4.958-5.979-6.524-3.582-1.834-6.314-1.008-10.316-.549-19.022 2.183-36.984 11.954-60.348 27.188l4.719-3.247c10.525-5.043 18.85-18.482 20.292-21.405 2.894-5.865-4.36-47.467-4.36-47.467 1.953-6.3 16.849-13.321 9.805-13.77-11.247-.716-31.535-9.045-29.013-40.938 0 0-14.806 5.139-23.46 2.063-9.494-3.371-9.785-6.524-20.405-19.113-2.968-3.524 2.319 27.414 2.319 27.414-4.883 2.97-7.192 1.49-17.885 3.037 0 0 27.537 17.375 61.269 41.665 4.494 8.501 4.494 16.151 0 24.652-3.228 6.104-7.713 7.585-13.047 11.969-3.243 2.665-5.965 4.78-8.654 6.715-.846-3.262.119-6.037-.645-9.777-1.461-7.111-4.886-10.258-8.329-16.653-3.487-6.476-6.505-9.58-9.442-16.324-1.094-2.502-2.531-3.801-2.517-6.523 0 0 6.514-2.522 12.685-9.046 0 0-10.24-1.848-16.331-4.365-5.38-2.221-8.387-3.759-13.048-7.24-11.237-8.396-20.29-29.697-20.29-29.697-1.944 11.443-1.791 18.98-3.603 21.731-1.593 2.407-8.941-1.318-30.143-10.288-6.811-2.885 5.709 11.415 8.155 17.122 2.237 5.22-13.863 5.707-13.863 5.707s5.28 6.485 9.757 9.189c6.813 4.107 12.208 2.454 19.93 4.365 9.989 2.474 16.723 1.667 25.372 7.24 8.592 5.531 14.457 10.039 17.011 19.935.887 3.419 2.028 5.664.911 9.016-2.446 7.336-14.364 9.275-22.282 16.716-9.444 8.869-14.209 14.704-21.012 25.732-5.363 1.089-10.053 1.705-18.27 3.381-63.306 14.882-75.019 32.734-84.181 49.478-2.706 7.739-3.143 11.706-3.616 19.381-.659 10.647-1.894 5.986 2.992 27.193 2.587 11.238 15.016 25.976 24.269 34.138 0 0 25.211 9.105 41.781 15.197 14.271 4.076 22.394 7.575 28.171 13.972 4.339 4.812 6.633 11.388 2.548 16.417-7.964 9.802-19.569 7.243-29.608 1.452l-43.96-29.952c-9.057-4.217-6.559-2.753-10.521-3.24C-27.796-21.069 0 0 0 0" style="fill:none;stroke:#231f20;stroke-width:3.668;stroke-linecap:round;stroke-linejoin:round;stroke-miterlimit:3.864;stroke-dasharray:none;stroke-opacity:1" transform="translate(436.534 658.849)"/><path d="M0 0c4.859 3.037 11.008 11.008 11.008 11.008 1.775 4.601.248 7.711.409 12.639l6.93 4.893c1.112-.16 1.838.077 2.853-.408 3.355-1.61-1.989-5.473-3.262-8.972 3.658 1.591 7.001 7.133 9.786 4.079 2.779-3.049-2.854-5.301-4.893-9.378 3.023 1.431 5.117 5.732 7.746 3.668 2.773-2.17-.814-4.484-2.853-8.56 1.908.635 3.02 2.368 4.893 1.63 2.872-1.134-4.005-5.776-1.631-7.746 2.617-2.173 3.723 6.433 6.929 5.299 1.385-.487 2.154-1.158 2.856-2.445 1.603-2.935-5.723-5.108-3.67-7.746 2.135-2.742 5.471 4.028 8.563 2.447.908-.466 1.404-.836 2.04-1.633 2.82-3.532-10.794-6.054-7.341-8.969 2.068-1.748 4.869 1.347 6.932-.409 2.211-1.879-1.012-5.487 1.223-7.338 2.791-2.312 6.724 5.294 8.969 2.448 2.249-2.849-7.692-6.457-4.484-8.155 2.402-1.271 4.033 3.532 6.523 2.445.934-.406 1.438-.807 2.04-1.631 2.158-2.956-7.663-4.95-5.302-7.746 1.954-2.309 6.398 3.116 7.747.408.432-.864.248-1.492.408-2.445l-1.225 5.299c.795-2.228 2.422-3.374 2.04-5.707-.399-2.453-1.732-4.074-4.077-4.893-1.502-.523-2.576-.523-4.078 0l-10.6.408-5.708-1.631-7.056-4.155c-2.448-1.306-3.792-4.585-6.28-3.352-1.161.575-1.352 1.513-2.195 2.5-5.936 6.944-8.137 11.746-13.415 19.204A1711 1711 0 0 1-3.009-4.253z" style="fill:#fcb745;fill-opacity:1;fill-rule:evenodd;stroke:none" transform="translate(432.938 631.91)"/><path d="M0 0c-2.46-.511-4.786-.998-6.863-1.457-24.271-5.358-38.613-4.833-63.433-6.16-24.844-1.328-32.941-3.1-63.791-.631-13.769 1.103-30.623 7.412-44.225 20.56-10.846 10.483-11.447 26.728-.625 37.507 9.805 9.767 13.224 10.545 23.912 13.865" style="fill:none;stroke:#231f20;stroke-width:3.668;stroke-linecap:butt;stroke-linejoin:miter;stroke-miterlimit:3.864;stroke-dasharray:none;stroke-opacity:1" transform="translate(646.028 518.221)"/><path d="M0 0c0 11.319 9.175 20.493 20.493 20.493 11.314 0 20.489-9.174 20.489-20.493s-9.175-20.489-20.489-20.489C9.175-20.489 0-11.319 0 0m11.414 0c0-5.005 4.064-9.074 9.079-9.074 5.01 0 9.069 4.069 9.069 9.074a9.07 9.07 0 0 1-9.069 9.074c-5.015 0-9.079-4.059-9.079-9.074" style="fill:#fcb745;fill-opacity:1;fill-rule:nonzero;stroke:none" transform="translate(624.278 385.734)"/><path d="M0 0c0-5.005 4.064-9.074 9.079-9.074 5.01 0 9.069 4.069 9.069 9.074a9.07 9.07 0 0 1-9.069 9.074C4.064 9.074 0 5.015 0 0Z" style="fill:none;stroke:#231f20;stroke-width:3.668;stroke-linecap:butt;stroke-linejoin:miter;stroke-miterlimit:3.864;stroke-dasharray:none;stroke-opacity:1" transform="translate(635.693 385.734)"/><path d="M0 0c0 11.319 9.175 20.493 20.493 20.493 11.314 0 20.489-9.174 20.489-20.493s-9.175-20.489-20.489-20.489C9.175-20.489 0-11.319 0 0Z" style="fill:none;stroke:#231f20;stroke-width:3.668;stroke-linecap:butt;stroke-linejoin:miter;stroke-miterlimit:3.864;stroke-dasharray:none;stroke-opacity:1" transform="translate(624.278 385.734)"/><path d="M0 0c8.205-1.662 15.096-3.047 26.876-5.425 11.341-2.298 16.83-6.849 26.812-12.69 5.148-3.013 8.921-5.387 12.756-8.133" style="fill:none;stroke:#231f20;stroke-width:3.26;stroke-linecap:butt;stroke-linejoin:miter;stroke-miterlimit:3.864;stroke-dasharray:none;stroke-opacity:1" transform="translate(504.636 490.296)"/><path d="M0 0c0 6.624 5.368 11.997 11.997 11.997 6.62 0 11.987-5.373 11.987-11.997s-5.367-11.992-11.987-11.992C5.368-11.992 0-6.624 0 0m6.729 0a5.26 5.26 0 0 1 5.268-5.258A5.256 5.256 0 0 1 17.256 0a5.256 5.256 0 0 1-5.259 5.258A5.257 5.257 0 0 1 6.729 0" style="fill:#fcb745;fill-opacity:1;fill-rule:nonzero;stroke:none" transform="translate(625.835 415.511)"/><path d="M0 0a5.26 5.26 0 0 1 5.268-5.258A5.255 5.255 0 0 1 10.526 0a5.255 5.255 0 0 1-5.258 5.258A5.257 5.257 0 0 1 0 0Z" style="fill:none;stroke:#231f20;stroke-width:3.26;stroke-linecap:butt;stroke-linejoin:miter;stroke-miterlimit:3.864;stroke-dasharray:none;stroke-opacity:1" transform="translate(632.564 415.511)"/><path d="M0 0c0 6.624 5.368 11.997 11.997 11.997 6.62 0 11.987-5.373 11.987-11.997s-5.367-11.992-11.987-11.992C5.368-11.992 0-6.624 0 0Z" style="fill:none;stroke:#231f20;stroke-width:3.26;stroke-linecap:butt;stroke-linejoin:miter;stroke-miterlimit:3.864;stroke-dasharray:none;stroke-opacity:1" transform="translate(625.835 415.511)"/><path d="M0 0c0 6.624 5.371 11.997 11.997 11.997 6.624 0 11.992-5.373 11.992-11.997s-5.368-11.992-11.992-11.992C5.371-11.992 0-6.624 0 0m6.734 0a5.264 5.264 0 1 1 10.528.002A5.264 5.264 0 0 1 6.734 0" style="fill:#fcb745;fill-opacity:1;fill-rule:nonzero;stroke:none" transform="translate(369.799 583.596)"/><path d="M0 0a5.264 5.264 0 1 1 10.528.002A5.264 5.264 0 0 1 0 0Z" style="fill:none;stroke:#231f20;stroke-width:3.26;stroke-linecap:butt;stroke-linejoin:miter;stroke-miterlimit:3.864;stroke-dasharray:none;stroke-opacity:1" transform="translate(376.533 583.596)"/><path d="M0 0c0 6.624 5.371 11.997 11.997 11.997 6.624 0 11.992-5.373 11.992-11.997s-5.368-11.992-11.992-11.992C5.371-11.992 0-6.624 0 0Z" style="fill:none;stroke:#231f20;stroke-width:3.26;stroke-linecap:butt;stroke-linejoin:miter;stroke-miterlimit:3.864;stroke-dasharray:none;stroke-opacity:1" transform="translate(369.799 583.596)"/><path d="M0 0c0 6.622 5.371 11.99 11.997 11.99 6.622 0 11.992-5.368 11.992-11.99 0-6.626-5.37-11.997-11.992-11.997C5.371-11.997 0-6.626 0 0m6.732 0a5.262 5.262 0 1 1 10.525-.001A5.262 5.262 0 0 1 6.732 0" style="fill:#fcb745;fill-opacity:1;fill-rule:nonzero;stroke:none" transform="translate(383.212 613.392)"/><path d="M0 0a5.263 5.263 0 1 1 10.526 0A5.263 5.263 0 0 1 0 0Z" style="fill:none;stroke:#231f20;stroke-width:3.26;stroke-linecap:butt;stroke-linejoin:miter;stroke-miterlimit:3.864;stroke-dasharray:none;stroke-opacity:1" transform="translate(389.944 613.392)"/><path d="M0 0c0 6.622 5.371 11.99 11.997 11.99 6.622 0 11.992-5.368 11.992-11.99 0-6.626-5.37-11.997-11.992-11.997C5.371-11.997 0-6.626 0 0Z" style="fill:none;stroke:#231f20;stroke-width:3.26;stroke-linecap:butt;stroke-linejoin:miter;stroke-miterlimit:3.864;stroke-dasharray:none;stroke-opacity:1" transform="translate(383.212 613.392)"/><path d="M0 0c0 6.629 5.373 11.997 11.997 11.997 6.628 0 11.997-5.368 11.997-11.997 0-6.619-5.369-11.987-11.997-11.987C5.373-11.987 0-6.619 0 0m6.734 0A5.263 5.263 0 1 1 17.26.01 5.263 5.263 0 0 1 6.734 0" style="fill:#fcb745;fill-opacity:1;fill-rule:nonzero;stroke:none" transform="translate(630.44 441.554)"/><path d="M0 0a5.263 5.263 0 1 1 10.526.01A5.263 5.263 0 0 1 0 0Z" style="fill:none;stroke:#231f20;stroke-width:3.26;stroke-linecap:butt;stroke-linejoin:miter;stroke-miterlimit:3.864;stroke-dasharray:none;stroke-opacity:1" transform="translate(637.173 441.554)"/><path d="M0 0c0 6.629 5.373 11.997 11.997 11.997 6.628 0 11.997-5.368 11.997-11.997 0-6.619-5.369-11.987-11.997-11.987C5.373-11.987 0-6.619 0 0Z" style="fill:none;stroke:#231f20;stroke-width:3.26;stroke-linecap:butt;stroke-linejoin:miter;stroke-miterlimit:3.864;stroke-dasharray:none;stroke-opacity:1" transform="translate(630.44 441.554)"/><path d="M0 0c3.148-2.708 6.409-3.135 8.067-6.94 1.021-2.351 1.021-3.951.907-6.516-.205-4.425-2.221-6.581-4.084-10.6-2.058-4.458-4.589-6.34-6.113-11.009-1.299-3.978-1.389-6.423-1.633-10.597-.145-2.546-.731-4.088 0-6.524.853-2.837 2.746-3.73 4.485-6.113 2.082-2.856 3.233-4.48 5.301-7.345" style="fill:none;stroke:#231f20;stroke-width:3.26;stroke-linecap:round;stroke-linejoin:miter;stroke-miterlimit:3.864;stroke-dasharray:none;stroke-opacity:1" transform="translate(547.506 575.646)"/><path d="M0 0c8.568.836 13.416 1.843 21.606 4.485 4.217 1.361 6.82 1.771 10.603 4.078 2.034 1.239 2.984 2.238 4.89 3.668" style="fill:none;stroke:#231f20;stroke-width:3.668;stroke-linecap:round;stroke-linejoin:miter;stroke-miterlimit:3.864;stroke-dasharray:none;stroke-opacity:1" transform="translate(549.545 567.083)"/><path d="M0 0c3.658-.32 5.712-.683 9.379-.817 14.5-.522 21.597.917 36.698 6.116 1.83.63 2.36 1.896 3.868 3.106" style="fill:none;stroke:#231f20;stroke-width:3.668;stroke-linecap:round;stroke-linejoin:miter;stroke-miterlimit:3.864;stroke-dasharray:none;stroke-opacity:1" transform="translate(551.58 561.784)"/><path d="M0 0c1.958-1.538 3.305-2.211 5.707-2.854 2.311-.618 3.73-.308 6.118-.408 10.187-.43 15.966.447 26.09 1.633 13.506 1.577 20.971 3.59 34.248 6.522 1.59.351 2.479.556 4.069.912" style="fill:none;stroke:#231f20;stroke-width:3.668;stroke-linecap:round;stroke-linejoin:miter;stroke-miterlimit:3.864;stroke-dasharray:none;stroke-opacity:1" transform="translate(545.467 552.812)"/><path d="M0 0c4.771-.798 7.402-2.295 12.231-2.042C43.222-.408 69.412 1.32 98.669 12.636" style="fill:none;stroke:#231f20;stroke-width:3.668;stroke-linecap:round;stroke-linejoin:miter;stroke-miterlimit:3.864;stroke-dasharray:none;stroke-opacity:1" transform="translate(538.943 537.728)"/><path d="M0 0c2.225-.635 3.412-1.323 5.707-1.629 2.051-.267 3.228-.009 5.301 0 29.2.153 45.925.698 74.609 6.114 9.289 1.757 14.872 1.8 23.649 5.301 2.933 1.175 4.49 2.072 7.355 3.395" style="fill:none;stroke:#231f20;stroke-width:3.668;stroke-linecap:round;stroke-linejoin:miter;stroke-miterlimit:3.864;stroke-dasharray:none;stroke-opacity:1" transform="translate(539.76 524.678)"/><path d="M0 0c1.815-1.239 2.648-2.285 4.654-3.178 1.889-.839 3.067-1.299 5.132-1.309 2.866-.012 4.229 1.495 6.932 2.448" style="fill:none;stroke:#231f20;stroke-width:3.668;stroke-linecap:round;stroke-linejoin:miter;stroke-miterlimit:3.864;stroke-dasharray:none;stroke-opacity:1" transform="translate(410.513 548.736)"/><path d="M0 0c2.066-.32 3.314-1.471 5.299-.821C6.598-.391 7.04.423 8.152 1.221" style="fill:none;stroke:#231f20;stroke-width:3.668;stroke-linecap:round;stroke-linejoin:miter;stroke-miterlimit:3.864;stroke-dasharray:none;stroke-opacity:1" transform="translate(425.192 536.507)"/><path d="M0 0c1.59-.162 2.529-.803 4.079-.411 1.241.31 1.74.993 2.853 1.629" style="fill:none;stroke:#231f20;stroke-width:3.668;stroke-linecap:round;stroke-linejoin:miter;stroke-miterlimit:3.864;stroke-dasharray:none;stroke-opacity:1" transform="translate(432.122 529.984)"/><path d="m0 0 1.225 2.45" style="fill:none;stroke:#231f20;stroke-width:3.668;stroke-linecap:round;stroke-linejoin:miter;stroke-miterlimit:3.864;stroke-dasharray:none;stroke-opacity:1" transform="translate(439.868 523.861)"/><path d="M0 0c2.386-.477 3.728-1.676 6.116-1.223 1.958.371 2.736 1.491 4.487 2.446" style="fill:none;stroke:#231f20;stroke-width:3.668;stroke-linecap:round;stroke-linejoin:miter;stroke-miterlimit:3.864;stroke-dasharray:none;stroke-opacity:1" transform="translate(510.403 555.26)"/><path d="M0 0c2.4-1.055 3.907-1.432 6.524-1.631 3.362-.258 5.222.745 8.561 1.223" style="fill:none;stroke:#231f20;stroke-width:3.668;stroke-linecap:round;stroke-linejoin:miter;stroke-miterlimit:3.864;stroke-dasharray:none;stroke-opacity:1" transform="translate(508.366 549.144)"/><path d="M0 0c4.136-.158 6.478-.738 10.6-.406 4.539.365 6.963 1.492 11.417 2.447" style="fill:none;stroke:#231f20;stroke-width:3.668;stroke-linecap:round;stroke-linejoin:miter;stroke-miterlimit:3.864;stroke-dasharray:none;stroke-opacity:1" transform="translate(504.695 540.988)"/><path d="M0 0c6.202-.478 9.688-1.528 15.899-1.228 5.798.282 8.955 1.495 14.679 2.451" style="fill:none;stroke:#231f20;stroke-width:3.668;stroke-linecap:round;stroke-linejoin:miter;stroke-miterlimit:3.864;stroke-dasharray:none;stroke-opacity:1" transform="translate(501.842 532.43)"/><path d="M0 0c6.996-.798 10.898-2.14 17.94-2.044 4.793.067 7.58.057 12.231 1.222 2.438.617 3.73 1.252 6.116 2.04" style="fill:none;stroke:#231f20;stroke-width:3.668;stroke-linecap:round;stroke-linejoin:miter;stroke-miterlimit:3.864;stroke-dasharray:none;stroke-opacity:1" transform="translate(496.95 523.46)"/><path d="M0 0c.953-.637 1.359-1.268 2.448-1.631 1.664-.556 2.734.248 4.484.408" style="fill:none;stroke:#231f20;stroke-width:3.668;stroke-linecap:round;stroke-linejoin:miter;stroke-miterlimit:3.864;stroke-dasharray:none;stroke-opacity:1" transform="translate(465.147 549.959)"/><path d="M0 0c.955-.317 1.442-.814 2.448-.814 1.003 0 1.49.497 2.445.814" style="fill:none;stroke:#231f20;stroke-width:3.668;stroke-linecap:round;stroke-linejoin:miter;stroke-miterlimit:3.864;stroke-dasharray:none;stroke-opacity:1" transform="translate(466.778 543.843)"/><path d="M0 0c.795-.32 1.187-.731 2.039-.821C3.191-.936 3.78-.32 4.893 0" style="fill:none;stroke:#231f20;stroke-width:3.668;stroke-linecap:round;stroke-linejoin:miter;stroke-miterlimit:3.864;stroke-dasharray:none;stroke-opacity:1" transform="translate(471.262 536.507)"/><path d="M0 0c.953-.478 1.397-1.419 2.445-1.228.784.144.996.75 1.631 1.228" style="fill:none;stroke:#231f20;stroke-width:3.668;stroke-linecap:butt;stroke-linejoin:miter;stroke-miterlimit:3.864;stroke-dasharray:none;stroke-opacity:1" transform="translate(474.932 532.43)"/><path d="M0 0c1.586-1.115 2.484-1.741 4.079-2.856" style="fill:none;stroke:#231f20;stroke-width:3.26;stroke-linecap:round;stroke-linejoin:miter;stroke-miterlimit:3.864;stroke-dasharray:none;stroke-opacity:1" transform="translate(549.545 557.3)"/><path d="m0 0 6.111-1.631" style="fill:none;stroke:#231f20;stroke-width:3.26;stroke-linecap:round;stroke-linejoin:miter;stroke-miterlimit:3.864;stroke-dasharray:none;stroke-opacity:1" transform="translate(542.614 547.105)"/><path d="M0 0c2.225-.955 3.482-1.492 5.709-2.445" style="fill:none;stroke:#231f20;stroke-width:3.26;stroke-linecap:round;stroke-linejoin:miter;stroke-miterlimit:3.864;stroke-dasharray:none;stroke-opacity:1" transform="translate(540.574 542.212)"/><path d="M0 0c2.543-.157 3.978-.244 6.521-.406" style="fill:none;stroke:#231f20;stroke-width:3.26;stroke-linecap:round;stroke-linejoin:miter;stroke-miterlimit:3.864;stroke-dasharray:none;stroke-opacity:1" transform="translate(538.13 531.202)"/><path d="M0 0c2.546.325 3.98.497 6.524.817" style="fill:none;stroke:#231f20;stroke-width:3.26;stroke-linecap:round;stroke-linejoin:miter;stroke-miterlimit:3.864;stroke-dasharray:none;stroke-opacity:1" transform="translate(540.166 518.97)"/><path d="M0 0c3.018.955 4.723 1.49 7.744 2.445" style="fill:none;stroke:#231f20;stroke-width:3.26;stroke-linecap:round;stroke-linejoin:miter;stroke-miterlimit:3.864;stroke-dasharray:none;stroke-opacity:1" transform="translate(541.391 514.08)"/><path d="m0 0 3.84-15.015" style="fill:none;stroke:#231f20;stroke-width:3.26;stroke-linecap:round;stroke-linejoin:miter;stroke-miterlimit:3.864;stroke-dasharray:none;stroke-opacity:1" transform="translate(558.515 456.593)"/><path d="m0 0 5.712-7.747" style="fill:none;stroke:#231f20;stroke-width:3.26;stroke-linecap:round;stroke-linejoin:miter;stroke-miterlimit:3.864;stroke-dasharray:none;stroke-opacity:1" transform="translate(562.994 459.855)"/><path d="M0 0c-.201-2.942-1.165-5.44 1.29-6.982 3.372-2.13 7.421-.22 12.159-.354" style="fill:none;stroke:#231f20;stroke-width:3.26;stroke-linecap:round;stroke-linejoin:miter;stroke-miterlimit:3.864;stroke-dasharray:none;stroke-opacity:1" transform="translate(600.103 449.252)"/><path d="M0 0c-.855-2.608-.472-4.771 1.223-6.925 1.538-1.962 3.486-1.748 5.712-2.856" style="fill:none;stroke:#231f20;stroke-width:3.26;stroke-linecap:round;stroke-linejoin:miter;stroke-miterlimit:3.864;stroke-dasharray:none;stroke-opacity:1" transform="translate(606.216 452.92)"/><path d="M0 0c2.231-.64 3.448-2.116 5.707-1.633 2.217.473 2.737 2.235 4.49 3.667" style="fill:none;stroke:#231f20;stroke-width:3.26;stroke-linecap:butt;stroke-linejoin:miter;stroke-miterlimit:3.864;stroke-dasharray:none;stroke-opacity:1" transform="translate(607.844 481.872)"/><path d="M0 0c2.627-2.178 4.461-3.143 7.746-4.079 2.317-.659 3.831-1.576 6.114-.812 1.723.574 2.426 1.538 3.672 2.857.702.735.674 1.685 1.629 2.034 1.089.401 1.743-.497 2.856-.817" style="fill:none;stroke:#231f20;stroke-width:3.26;stroke-linecap:round;stroke-linejoin:miter;stroke-miterlimit:3.864;stroke-dasharray:none;stroke-opacity:1" transform="translate(611.517 487.985)"/><path d="M0 0a872 872 0 0 0 4.079-4.079" style="fill:none;stroke:#231f20;stroke-width:3.26;stroke-linecap:round;stroke-linejoin:miter;stroke-miterlimit:3.864;stroke-dasharray:none;stroke-opacity:1" transform="translate(625.377 490.841)"/><path d="M0 0c7.317-3.181 11.438-4.977 18.755-8.157" style="fill:none;stroke:#231f20;stroke-width:3.668;stroke-linecap:round;stroke-linejoin:miter;stroke-miterlimit:3.864;stroke-dasharray:none;stroke-opacity:1" transform="translate(672.266 483.505)"/><path d="M0 0c2.225-1.743 3.338-2.928 5.702-4.485 5.187-3.405 8.96-3.73 14.681-6.113" style="fill:none;stroke:#231f20;stroke-width:3.668;stroke-linecap:round;stroke-linejoin:miter;stroke-miterlimit:3.864;stroke-dasharray:none;stroke-opacity:1" transform="translate(680.423 490.024)"/><path d="m0 0 .614-.301a2.04 2.04 0 0 0 .938-2.727l-9.105-18.669a2.04 2.04 0 0 0-2.725-.938l-.611.301a2.04 2.04 0 0 0-.941 2.727L-2.724-.941A2.04 2.04 0 0 0 0 0" style="fill:#fcb745;fill-opacity:1;fill-rule:nonzero;stroke:none" transform="translate(391.775 609.695)"/><path d="m0 0 .614-.301a2.04 2.04 0 0 0 .938-2.727l-9.105-18.669a2.04 2.04 0 0 0-2.725-.938l-.611.301a2.04 2.04 0 0 0-.941 2.727L-2.724-.941A2.04 2.04 0 0 0 0 0Z" style="fill:none;stroke:#231f20;stroke-width:2.446;stroke-linecap:butt;stroke-linejoin:miter;stroke-miterlimit:3.864;stroke-dasharray:none;stroke-opacity:1" transform="translate(391.775 609.695)"/><path d="m0 0 .299-.616A2.033 2.033 0 0 0-.64-3.338l-18.666-9.103a2.04 2.04 0 0 0-2.725.939l-.301.613a2.043 2.043 0 0 0 .941 2.725L-2.724.941A2.043 2.043 0 0 0 0 0" style="fill:#fcb745;fill-opacity:1;fill-rule:nonzero;stroke:none" transform="translate(419.382 624.644)"/><path d="m0 0 .299-.616A2.033 2.033 0 0 0-.64-3.338l-18.666-9.103a2.04 2.04 0 0 0-2.725.939l-.301.613a2.043 2.043 0 0 0 .941 2.725L-2.724.941A2.043 2.043 0 0 0 0 0Z" style="fill:none;stroke:#231f20;stroke-width:2.446;stroke-linecap:butt;stroke-linejoin:miter;stroke-miterlimit:3.864;stroke-dasharray:none;stroke-opacity:1" transform="translate(419.382 624.644)"/><path d="m0 0 .657.189a2.033 2.033 0 0 0 2.519-1.395l5.731-19.968a2.035 2.035 0 0 0-1.397-2.519l-.656-.189a2.04 2.04 0 0 0-2.52 1.4L-1.397-2.517A2.033 2.033 0 0 0 0 0" style="fill:#fcb745;fill-opacity:1;fill-rule:nonzero;stroke:none" transform="translate(382.293 578.13)"/><path d="m0 0 .657.189a2.033 2.033 0 0 0 2.519-1.395l5.731-19.968a2.035 2.035 0 0 0-1.397-2.519l-.656-.189a2.04 2.04 0 0 0-2.52 1.4L-1.397-2.517A2.033 2.033 0 0 0 0 0Z" style="fill:none;stroke:#231f20;stroke-width:2.446;stroke-linecap:butt;stroke-linejoin:miter;stroke-miterlimit:3.864;stroke-dasharray:none;stroke-opacity:1" transform="translate(382.293 578.13)"/><path d="m0 0 .616-.296a2.043 2.043 0 0 0 .936-2.727l-9.108-18.674c-.487-1.008-1.71-1.423-2.722-.936l-.611.301a2.035 2.035 0 0 0-.936 2.727L-2.727-.941A2.044 2.044 0 0 0 0 0" style="fill:#fcb745;fill-opacity:1;fill-rule:nonzero;stroke:none" transform="translate(652.303 465.362)"/><path d="m0 0 .616-.296a2.043 2.043 0 0 0 .936-2.727l-9.108-18.674c-.487-1.008-1.71-1.423-2.722-.936l-.611.301a2.035 2.035 0 0 0-.936 2.727L-2.727-.941A2.044 2.044 0 0 0 0 0Z" style="fill:none;stroke:#231f20;stroke-width:3.26;stroke-linecap:butt;stroke-linejoin:miter;stroke-miterlimit:3.864;stroke-dasharray:none;stroke-opacity:1" transform="translate(652.303 465.362)"/><path d="m0 0 .764-.053a2.04 2.04 0 0 0 1.892-2.173L1.357-20.842a2.033 2.033 0 0 0-2.169-1.891l-.769.057a2.033 2.033 0 0 0-1.891 2.168l1.294 18.617A2.04 2.04 0 0 0 0 0" style="fill:#fcb745;fill-opacity:1;fill-rule:nonzero;stroke:none" transform="translate(640.125 438.488)"/><path d="m0 0 .764-.053a2.04 2.04 0 0 0 1.892-2.173L1.357-20.842a2.033 2.033 0 0 0-2.169-1.891l-.769.057a2.033 2.033 0 0 0-1.891 2.168l1.294 18.617A2.04 2.04 0 0 0 0 0Z" style="fill:none;stroke:#231f20;stroke-width:3.26;stroke-linecap:butt;stroke-linejoin:miter;stroke-miterlimit:3.864;stroke-dasharray:none;stroke-opacity:1" transform="translate(640.125 438.488)"/><path d="M0 0c1.542-.124 2.409-.394 3.954-.318 1.452.072 2.283.215 3.678.635 1.217.366 1.831.772 3.004 1.264" style="fill:none;stroke:#231f20;stroke-width:3.26;stroke-linecap:round;stroke-linejoin:miter;stroke-miterlimit:3.864;stroke-dasharray:none;stroke-opacity:1" transform="translate(418.943 659.866)"/><path d="M0 0c1.11-1.311 1.421-2.4 2.849-3.36 1.113-.747 1.901-.929 3.2-1.265 2.049-.531 3.307-.495 5.415-.318.872.074 1.352.193 2.217.318" style="fill:none;stroke:#231f20;stroke-width:3.668;stroke-linecap:round;stroke-linejoin:miter;stroke-miterlimit:3.864;stroke-dasharray:none;stroke-opacity:1" transform="translate(419.733 671.963)"/><path d="M0 0c-8.694-1.297-31.086-3.133-22.296-3.324 1.125-.024 1.798.294 2.885 0 .795-.213 1.208-.475 1.898-.922 1.631-1.065 1.693-2.605 3.2-3.835.585-.477.862-.898 1.583-1.108 1.237-.363 2.161.139 3.164.95.805.65 1.027 1.273 1.459 2.214.54 1.17 1.137 1.963.793 3.2-.169.607-.482.855-.793 1.402" style="fill:none;stroke:#231f20;stroke-width:3.668;stroke-linecap:round;stroke-linejoin:miter;stroke-miterlimit:3.864;stroke-dasharray:none;stroke-opacity:1" transform="translate(451.717 683.05)"/><path d="M0 0c4.592-1.605 8.061-.974 11.78-4.114 1.848-1.562 2.97-2.572 3.956-4.783 1.483-3.338 0-5.717 0-9.37" style="fill:none;stroke:#231f20;stroke-width:3.668;stroke-linecap:round;stroke-linejoin:miter;stroke-miterlimit:3.864;stroke-dasharray:none;stroke-opacity:1" transform="translate(470.498 704.068)"/><path d="m0 0 .75.191a2.04 2.04 0 0 0 2.469-1.49L7.737-19.4a2.05 2.05 0 0 0-1.485-2.474l-.745-.181a2.034 2.034 0 0 0-2.47 1.481L-1.48-2.464A2.026 2.026 0 0 0 0 0" style="fill:#fcb745;fill-opacity:1;fill-rule:nonzero;stroke:none" transform="translate(638.458 410.712)"/><path d="m0 0 .75.191a2.04 2.04 0 0 0 2.469-1.49L7.737-19.4a2.05 2.05 0 0 0-1.485-2.474l-.745-.181a2.034 2.034 0 0 0-2.47 1.481L-1.48-2.464A2.026 2.026 0 0 0 0 0Z" style="fill:none;stroke:#231f20;stroke-width:3.26;stroke-linecap:butt;stroke-linejoin:miter;stroke-miterlimit:3.864;stroke-dasharray:none;stroke-opacity:1" transform="translate(638.458 410.712)"/><path d="M0 0c6.526-7.89 10.633-12.009 16.735-20.231C23.466-29.298 26.422-35 32.617-44.442" style="fill:none;stroke:#231f20;stroke-width:3.26;stroke-linecap:butt;stroke-linejoin:miter;stroke-miterlimit:3.864;stroke-dasharray:none;stroke-opacity:1" transform="translate(434.57 633.133)"/><path d="M0 0c6.679-7.474 11.13-11.13 17.124-19.165 7.292-9.767 11.416-15.491 15.901-26.908" style="fill:none;stroke:#231f20;stroke-width:3.26;stroke-linecap:butt;stroke-linejoin:miter;stroke-miterlimit:3.864;stroke-dasharray:none;stroke-opacity:1" transform="translate(439.384 638.434)"/><path d="M0 0c7.66-6.788 11.67-11.068 17.938-19.163 7.949-10.261 12.233-17.124 17.124-28.538" style="fill:none;stroke:#231f20;stroke-width:3.26;stroke-linecap:butt;stroke-linejoin:miter;stroke-miterlimit:3.864;stroke-dasharray:none;stroke-opacity:1" transform="translate(443.947 642.51)"/><path d="M0 0c.473 1.39 1.769 2.388 3.295 2.388 1.925 0 3.484-1.585 3.484-3.539 0-1.562-.993-2.887-2.318-3.358" style="fill:none;stroke:#231f20;stroke-width:3.26;stroke-linecap:butt;stroke-linejoin:miter;stroke-miterlimit:3.864;stroke-dasharray:none;stroke-opacity:1" transform="translate(444.923 641.33)"/><path d="M0 0c4.859 3.037 11.008 11.008 11.008 11.008 1.775 4.601.248 7.711.409 12.639l6.93 4.893c1.112-.16 1.853.101 2.853-.408 3.064-1.564-1.671-4.817-2.944-8.315 3.658 1.59 6.703 6.209 9.468 3.422 2.909-2.927-2.854-5.301-4.893-9.378 3.023 1.431 5.117 5.732 7.746 3.668 2.773-2.17-.814-4.484-2.853-8.56 1.908.635 3.916 2.636 5.838 1.316 2.529-1.739-4.255-4.865-2.576-7.432 2.063-3.157 5.63 8.375 9.1 3.272 1.906-2.803-3.759-6.98-2.985-8.164 1.094-1.67 5.884 4.656 8.563 2.447 6.524-5.38-8.926-7.735-5.301-10.602 2.123-1.679 4.869 1.347 6.932-.409 2.211-1.879-1.012-5.487 1.223-7.338 2.791-2.312 6.192 6.132 8.969 2.448 3.809-5.055-7.205-5.75-4.484-8.155 2.215-1.961 5.549 5.413 7.44 1.474 3.429-7.143-6.905-5.963-4.179-8.406 2.063-1.848 6.918 1.573 7.078.621 0 0 1.387-1.211 1.734-2.266.845-2.56-1.388-4.772-3.919-5.693-1.495-.545-2.584-.545-4.078 0l-10.6.408-5.708-1.631-7.056-4.155c-2.448-1.306-3.792-4.585-6.28-3.352-1.161.575-1.361 1.506-2.195 2.5-6.118 7.261-7.18 13.033-12.598 20.835-5.59 8.049-9.06 12.407-15.651 19.662z" style="fill:none;stroke:#231f20;stroke-width:3.26;stroke-linecap:butt;stroke-linejoin:round;stroke-miterlimit:3.864;stroke-dasharray:none;stroke-opacity:1" transform="translate(432.938 631.91)"/><path d="M0 0c.468 1.39 1.767 2.388 3.293 2.388 1.922 0 3.482-1.583 3.482-3.539 0-1.559-.993-2.885-2.319-3.355" style="fill:none;stroke:#231f20;stroke-width:3.26;stroke-linecap:butt;stroke-linejoin:miter;stroke-miterlimit:3.864;stroke-dasharray:none;stroke-opacity:1" transform="translate(453.08 633.176)"/><path d="M0 0c.47 1.387 1.77 2.388 3.296 2.388 1.922 0 3.481-1.586 3.481-3.542 0-1.561-.991-2.884-2.318-3.357" style="fill:none;stroke:#231f20;stroke-width:3.26;stroke-linecap:butt;stroke-linejoin:miter;stroke-miterlimit:3.864;stroke-dasharray:none;stroke-opacity:1" transform="translate(461.233 624.55)"/><path d="M0 0c.683 1.299 2.121 2.085 3.627 1.844C5.526 1.543 6.82-.265 6.512-2.197c-.244-1.54-1.43-2.694-2.815-2.951" style="fill:none;stroke:#231f20;stroke-width:3.26;stroke-linecap:butt;stroke-linejoin:miter;stroke-miterlimit:3.864;stroke-dasharray:none;stroke-opacity:1" transform="translate(468.413 613.392)"/><path d="M0 0c.876 1.177 2.419 1.726 3.871 1.253C5.698.661 6.694-1.33 6.089-3.191c-.485-1.482-1.836-2.435-3.243-2.473" style="fill:none;stroke:#231f20;stroke-width:3.26;stroke-linecap:butt;stroke-linejoin:miter;stroke-miterlimit:3.864;stroke-dasharray:none;stroke-opacity:1" transform="translate(474.543 602.646)"/></g></svg>