<?xml version="1.0" encoding="utf-8"?>
<svg version="1.1" xmlns="http://www.w3.org/2000/svg" width="222.064" height="191.568" viewBox="0 0 222.064 191.568">
<title>Yeovil Town FC</title>
<g>
<path fill="#00AD4D" d="M197.5,172.007c0,0,6.456,0,9.09-5.737c0,0,4.48-9.281-8.564-12.327c0,0-14.297-1.855-13.57,7.363"/>
<path fill="#F9D729" d="M197.14,172.326l1.99-8.229c0,0-1.969,1.245-4.533,1.172c0,0-6.946,0.264-10.143-3.964l-0.594,11.083 L197.14,172.326"/>
<path fill="none" stroke="#00A650" stroke-width="0.246" stroke-linecap="round" stroke-linejoin="round" d="M197.14,172.326 l1.99-8.229c0,0-1.969,1.245-4.533,1.172c0,0-6.946,0.264-10.143-3.964l-0.594,11.083L197.14,172.326z"/>
<path fill="#00AD4D" d="M23.188,171.839c0,0-6.46,0-9.097-5.74c0,0-4.476-9.279,8.567-12.327c0,0,14.3-1.853,13.573,7.364"/>
<path fill="#F9D729" d="M23.98,172.326l-2.423-8.396c0,0,1.963,1.244,4.527,1.171c0,0,6.952,0.263,10.147-3.963l0.632,11.188H23.98 "/>
<path fill="none" stroke="#00A650" stroke-width="0.246" stroke-linecap="round" stroke-linejoin="round" d="M23.98,172.326 l-2.423-8.396c0,0,1.963,1.244,4.527,1.171c0,0,6.952,0.263,10.147-3.963l0.632,11.188H23.98z"/>
<path fill="#F9D729" d="M23.817,172.302c0,0-4.252-0.174-7.146-2.677l5.145,14.983c0,0,1.871,6.715,14.98,6.835h150.157 c0,0,8.513,0.183,11.633-5.614l5.725-16.35c0,0-0.205,2.09-7.695,2.821L23.817,172.302"/>
<path fill="none" stroke="#00A650" stroke-width="0.246" stroke-linecap="round" stroke-linejoin="round" d="M23.817,172.302 c0,0-4.252-0.174-7.146-2.677l5.145,14.983c0,0,1.871,6.715,14.98,6.835h150.157c0,0,8.513,0.183,11.633-5.614l5.725-16.35 c0,0-0.205,2.09-7.695,2.821L23.817,172.302L23.817,172.302z"/>
<path fill="#F9D729" d="M13.998,149.067l-6.48-16.006c0,0-1.777-2.666-1.013-3.302l5.588-4.954c0,0,2.286-1.649,0.254-5.462 l-2.162-5.081c0,0-12.573-2.284-8.891-17.149c0,0,0.89-4.828,2.286-5.59c0,0,2.158-3.556-0.763-5.842c0,0-2.797-5.208-1.523-9.652 c0,0,0.763,3.936,2.667,4.571c0,0,1.396,1.272,1.271,2.795H5.74c0,0-2.413-5.08,0.766-10.543c0,0,2.664-4.32,3.045-4.701 c0,0-0.762,6.857,0.635,9.655c0,0,2.925,6.604-0.381,11.178c0,0-8.129,15.369-2.921,19.814l1.778,0.127 c0,0-1.018-9.271,3.432-18.163c0,0,5.97-8.383,6.224-10.418c0,0,0.509-3.428,0-4.827c0,0-1.907,3.051-3.557-1.396 c0,0,2.41-5.336,2.283-5.717c0,0-2.791,3.558-4.188,2.543c0,0-1.399-3.687,0.127-5.59l2.282-2.668c0,0-1.267,1.397-2.918,0.76 c0,0-1.398-2.412,1.145-4.571l2.536-2.922c0,0-3.3-0.889-3.681-0.254l-0.765,0.762c0,0,0.254-4.828,1.653-5.59 c0,0,2.283-2.158,2.918-2.285c0,0-2.663-2.542-2.155-5.209c0,0-0.381-4.573,1.521-4.191c0,0,6.734,3.176,6.734,4.828l7.623-2.032 c0,0,3.3,1.777,3.427,3.048c0,0,1.904,1.907,3.686,1.273c0,0,4.063-0.639,3.555,2.284l-0.381,3.686c0,0-2.029-0.766-4.699,3.682 c0,0,2.035-1.269,5.207,0.508c0,0,0.381,3.051-0.891,3.051c0,0-5.461,0.381-5.715,1.65c0,0-1.144,2.158,4.448,1.777 c0,0,2.537,2.162,2.664,3.685c0,0-2.664-0.888-3.68,0.127l4.571,4.574c0,0,4.063-1.269,5.843-6.73c0,0,5.207-7.116,6.987-7.116 c0,0,1.521-1.271,1.648,2.668l-0.759,1.144c0,0,0.886,2.795-0.381,4.065c0,0,1.773,2.539,0.127,3.174c0,0-8.26,2.543-8.768,7.242 l8.768,9.271c0,0,1.013,1.144,1.013,3.178c0,0,0,5.971-0.381,7.113c0,0,0.635,2.792-1.775,1.143c0,0-1.399-2.539-1.272-2.666 l-1.65-0.254c0,0-1.397-0.512-1.144-2.416l-0.382-3.302l-6.604-5.079c0,0-3.434,6.096-6.479,5.969c0,0,2.286,6.225-9.273,13.718 v0.889c0,0,1.396,1.523,3.687,1.017c0,0,5.715,0,8.762,4.7c0,0,5.718,7.623,4.32,12.193c0,0-2.541,6.479-4.698,8.513 c0,0,0.378,2.159,3.048,2.411c0,0,7.747,3.053,10.287,7.75c0,0,1.146,4.319-0.509,4.065c0,0-1.65-0.255-2.286-1.778l-2.663,0.127 c0,0-0.766-0.381-0.512-1.396c0,0-1.017-0.382-1.144,0.254l-2.921-0.127l-0.127-1.907c0,0-4.318-3.555-5.844-3.301 c0,0-6.35-0.508-6.478-3.813c0,0,0.636-3.813,1.395-4.192l0.128-3.048c0,0-1.141-1.903-1.648-1.522c0,0-5.21,5.715-8.004,6.097 c0,0-5.719,4.443-5.973,6.479c0,0-1.145,3.174,0.762,5.97c0,0,6.86,1.65,8.64,3.937c0,0,4.067,3.304,2.159,4.446 c0,0-1.523,0-2.794-1.017l-3.43,0.509l-1.523-1.017l-0.89,0.889L13.998,149.067"/>
<path fill="none" stroke="#231F20" stroke-width="0.246" stroke-linecap="round" stroke-linejoin="round" d="M13.998,149.067 l-6.48-16.006c0,0-1.777-2.666-1.013-3.302l5.588-4.954c0,0,2.286-1.649,0.254-5.462l-2.162-5.081c0,0-12.573-2.284-8.891-17.149 c0,0,0.89-4.828,2.286-5.59c0,0,2.158-3.556-0.763-5.842c0,0-2.797-5.208-1.523-9.652c0,0,0.763,3.936,2.667,4.571 c0,0,1.396,1.272,1.271,2.795H5.74c0,0-2.413-5.08,0.766-10.543c0,0,2.664-4.32,3.045-4.701c0,0-0.762,6.857,0.635,9.655 c0,0,2.925,6.604-0.381,11.178c0,0-8.129,15.369-2.921,19.814l1.778,0.127c0,0-1.018-9.271,3.432-18.163 c0,0,5.97-8.383,6.224-10.418c0,0,0.509-3.428,0-4.827c0,0-1.907,3.051-3.557-1.396c0,0,2.41-5.336,2.283-5.717 c0,0-2.791,3.558-4.188,2.543c0,0-1.399-3.687,0.127-5.59l2.282-2.668c0,0-1.267,1.397-2.918,0.76c0,0-1.398-2.412,1.145-4.571 l2.536-2.922c0,0-3.3-0.889-3.681-0.254l-0.765,0.762c0,0,0.254-4.828,1.653-5.59c0,0,2.283-2.158,2.918-2.285 c0,0-2.663-2.542-2.155-5.209c0,0-0.381-4.573,1.521-4.191c0,0,6.734,3.176,6.734,4.828l7.623-2.032c0,0,3.3,1.777,3.427,3.048 c0,0,1.904,1.907,3.686,1.273c0,0,4.063-0.639,3.555,2.284l-0.381,3.686c0,0-2.029-0.766-4.699,3.682c0,0,2.035-1.269,5.207,0.508 c0,0,0.381,3.051-0.891,3.051c0,0-5.461,0.381-5.715,1.65c0,0-1.144,2.158,4.448,1.777c0,0,2.537,2.162,2.664,3.685 c0,0-2.664-0.888-3.68,0.127l4.571,4.574c0,0,4.063-1.269,5.843-6.73c0,0,5.207-7.116,6.987-7.116c0,0,1.521-1.271,1.648,2.668 l-0.759,1.144c0,0,0.886,2.795-0.381,4.065c0,0,1.773,2.539,0.127,3.174c0,0-8.26,2.543-8.768,7.242l8.768,9.271 c0,0,1.013,1.144,1.013,3.178c0,0,0,5.971-0.381,7.113c0,0,0.635,2.792-1.775,1.143c0,0-1.399-2.539-1.272-2.666l-1.65-0.254 c0,0-1.397-0.512-1.144-2.416l-0.382-3.302l-6.604-5.079c0,0-3.434,6.096-6.479,5.969c0,0,2.286,6.225-9.273,13.718v0.889 c0,0,1.396,1.523,3.687,1.017c0,0,5.715,0,8.762,4.7c0,0,5.718,7.623,4.32,12.193c0,0-2.541,6.479-4.698,8.513 c0,0,0.378,2.159,3.048,2.411c0,0,7.747,3.053,10.287,7.75c0,0,1.146,4.319-0.509,4.065c0,0-1.65-0.255-2.286-1.778l-2.663,0.127 c0,0-0.766-0.381-0.512-1.396c0,0-1.017-0.382-1.144,0.254l-2.921-0.127l-0.127-1.907c0,0-4.318-3.555-5.844-3.301 c0,0-6.35-0.508-6.478-3.813c0,0,0.636-3.813,1.395-4.192l0.128-3.048c0,0-1.141-1.903-1.648-1.522c0,0-5.21,5.715-8.004,6.097 c0,0-5.719,4.443-5.973,6.479c0,0-1.145,3.174,0.762,5.97c0,0,6.86,1.65,8.64,3.937c0,0,4.067,3.304,2.159,4.446 c0,0-1.523,0-2.794-1.017l-3.43,0.509l-1.523-1.017l-0.89,0.889L13.998,149.067z"/>
<path fill="#F9D729" d="M18.407,46.967c0,0-1.928-4.212-1.666-4.14c0,0,2.829,2.021,2.898,2.592c0,0,0.523,0.929,0.097,1.38 C19.737,46.8,19.096,47.727,18.407,46.967"/>
<path fill="none" stroke="#231F20" stroke-width="0.246" stroke-linecap="round" stroke-linejoin="round" d="M18.407,46.967 c0,0-1.928-4.212-1.666-4.14c0,0,2.829,2.021,2.898,2.592c0,0,0.523,0.929,0.097,1.38C19.737,46.8,19.096,47.727,18.407,46.967z"/>
<path fill="#F9D729" d="M14.077,98.169c0,0,0-1.435,0.665-2.148c0,0,2.51-2.974,2.865-4.199c0,0,1.383-4.301,1.846-4.917 c0,0,1.481-2.815,1.738-2.917"/>
<path fill="none" stroke="#231F20" stroke-width="0.246" stroke-linecap="round" stroke-linejoin="round" d="M14.077,98.169 c0,0,0-1.435,0.665-2.148c0,0,2.51-2.974,2.865-4.199c0,0,1.383-4.301,1.846-4.917c0,0,1.481-2.815,1.738-2.917"/>
<path fill="#F9D729" d="M22.879,54.854l2.513,2.562c0,0,3.212,3.697,8.827,3.647"/>
<path fill="none" stroke="#231F20" stroke-width="0.246" stroke-linecap="round" stroke-linejoin="round" d="M22.879,54.854 l2.513,2.562c0,0,3.212,3.697,8.827,3.647"/>
<path fill="#231F20" d="M27.104,49.927l2.688-2.69c0,0,1.507,0.186,1.477,1.504c0,0-0.157,1.105-0.554,1.158L27.104,49.927"/>
<path fill="none" stroke="#231F20" stroke-width="0.246" stroke-linecap="round" stroke-linejoin="round" d="M27.104,49.927 l2.688-2.69c0,0,1.507,0.186,1.477,1.504c0,0-0.157,1.105-0.554,1.158L27.104,49.927z"/>
<path fill="#F9D729" d="M33.149,89.416c0,0,2.113,0.021,3.713-0.685"/>
<path fill="none" stroke="#231F20" stroke-width="0.246" stroke-linecap="round" stroke-linejoin="round" d="M33.149,89.416 c0,0,2.113,0.021,3.713-0.685"/>
<line fill="#F9D729" x1="43.339" y1="82.76" x2="46.648" y2="75.874"/>
<line fill="none" stroke="#231F20" stroke-width="0.246" stroke-linecap="round" stroke-linejoin="round" x1="43.339" y1="82.76" x2="46.648" y2="75.874"/>
<path fill="#F9D729" d="M31.035,79.292c0,0,1.171-2.475,5.041-4.633c0,0,3.641-1.214,6.117-3.238"/>
<path fill="none" stroke="#231F20" stroke-width="0.246" stroke-linecap="round" stroke-linejoin="round" d="M31.035,79.292 c0,0,1.171-2.475,5.041-4.633c0,0,3.641-1.214,6.117-3.238"/>
<path fill="#F9D729" d="M18.437,75.335c0,0,2.742-2.927,2.742-4.546c0,0-0.674,2.88,3.557,5.266c0,0,0.992-2.385,1.755-3.014 c0,0,0.945-2.251,0.811-3.104c0,0,0.811,1.35,2.204,1.485c0,0,2.114,1.393,2.341,1.842c0,0,1.213,0.315,0.943-1.304 c0,0-1.17-4.093-0.766-4.272c0,0,1.666,0.222,3.105-0.36c0,0,1.754-0.361,2.204-0.361"/>
<path fill="none" stroke="#231F20" stroke-width="0.246" stroke-linecap="round" stroke-linejoin="round" d="M18.437,75.335 c0,0,2.742-2.927,2.742-4.546c0,0-0.674,2.88,3.557,5.266c0,0,0.992-2.385,1.755-3.014c0,0,0.945-2.251,0.811-3.104 c0,0,0.811,1.35,2.204,1.485c0,0,2.114,1.393,2.341,1.842c0,0,1.213,0.315,0.943-1.304c0,0-1.17-4.093-0.766-4.272 c0,0,1.666,0.222,3.105-0.36c0,0,1.754-0.361,2.204-0.361"/>
<path fill="#F9D729" d="M27.436,102.42c0,0-1.522,0.282-1.861-0.732c0,0,1.751,4.623,4.114,7.61c0,0,3.101,4.79,2.818,7.44 c0,0,0.935,3.956-2.123,6.544"/>
<path fill="none" stroke="#231F20" stroke-width="0.246" stroke-linecap="round" stroke-linejoin="round" d="M27.436,102.42 c0,0-1.522,0.282-1.861-0.732c0,0,1.751,4.623,4.114,7.61c0,0,3.101,4.79,2.818,7.44c0,0,0.935,3.956-2.123,6.544"/>
<g>
<path fill="#F9D729" d="M207.038,149.321l6.478-16.006c0,0,1.778-2.665,1.018-3.301l-5.59-4.954c0,0-2.289-1.65-0.254-5.462 l2.156-5.082c0,0,12.577-2.286,8.894-17.149c0,0-0.889-4.828-2.288-5.589c0,0-2.156-3.555,0.762-5.842 c0,0,2.797-5.209,1.526-9.653c0,0-0.762,3.936-2.667,4.571c0,0-1.396,1.272-1.271,2.796h-0.508c0,0,2.41-5.081-0.763-10.543 c0,0-2.671-4.32-3.052-4.701c0,0,0.763,6.858-0.635,9.655c0,0-2.918,6.604,0.381,11.179c0,0,8.132,15.368,2.924,19.814 l-1.779,0.127c0,0,1.019-9.271-3.428-18.164c0,0-5.973-8.383-6.227-10.417c0,0-0.508-3.429,0-4.825c0,0,1.905,3.048,3.557-1.398 c0,0-2.413-5.336-2.286-5.717c0,0,2.798,3.558,4.194,2.542c0,0,1.395-3.685-0.127-5.588l-2.289-2.67c0,0,1.272,1.399,2.924,0.765 c0,0,1.395-2.415-1.144-4.574l-2.543-2.923c0,0,3.306-0.889,3.687-0.254l0.759,0.762c0,0-0.254-4.824-1.646-5.59 c0,0-2.29-2.156-2.925-2.285c0,0,2.67-2.538,2.162-5.207c0,0,0.381-4.574-1.527-4.193c0,0-6.73,3.177-6.73,4.828l-7.62-2.032 c0,0-3.306,1.778-3.433,3.048c0,0-1.905,1.907-3.681,1.273c0,0-4.067-0.639-3.561,2.285l0.382,3.685c0,0,2.031-0.765,4.699,3.682 c0,0-2.028-1.27-5.208,0.509c0,0-0.381,3.05,0.891,3.05c0,0,5.461,0.381,5.715,1.65c0,0,1.144,2.157-4.445,1.776 c0,0-2.54,2.162-2.667,3.685c0,0,2.667-0.887,3.688,0.127l-4.575,4.574c0,0-4.064-1.269-5.843-6.73c0,0-5.207-7.116-6.985-7.116 c0,0-1.527-1.271-1.654,2.669l0.763,1.143c0,0-0.89,2.795,0.382,4.065c0,0-1.778,2.539-0.127,3.174c0,0,8.258,2.542,8.767,7.243 l-8.767,9.271c0,0-1.018,1.144-1.018,3.178c0,0,0,5.971,0.381,7.113c0,0-0.635,2.793,1.781,1.143c0,0,1.397-2.539,1.271-2.666 l1.646-0.254c0,0,1.397-0.512,1.145-2.417l0.381-3.301l6.606-5.082c0,0,3.431,6.098,6.48,5.971c0,0-2.289,6.225,9.269,13.718 v0.889c0,0-1.395,1.526-3.68,1.017c0,0-5.716,0-8.768,4.7c0,0-5.716,7.624-4.32,12.193c0,0,2.543,6.479,4.702,8.514 c0,0-0.382,2.156-3.049,2.41c0,0-7.75,3.053-10.287,7.75c0,0-1.145,4.319,0.505,4.065c0,0,1.65-0.254,2.286-1.778l2.67,0.127 c0,0,0.763-0.381,0.508-1.396c0,0,1.017-0.381,1.144,0.254l2.921-0.127l0.128-1.907c0,0,4.317-3.555,5.846-3.3 c0,0,6.351-0.509,6.478-3.814c0,0-0.635-3.807-1.399-4.19L189,125.063c0,0,1.146-1.904,1.653-1.523c0,0,5.207,5.715,8.001,6.097 c0,0,5.717,4.444,5.971,6.479c0,0,1.144,3.173-0.763,5.969c0,0-6.857,1.65-8.637,3.938c0,0-4.063,3.301-2.162,4.443 c0,0,1.524,0,2.797-1.017l3.431,0.509l1.522-1.017l0.891,0.89L207.038,149.321"/>
<path fill="none" stroke="#231F20" stroke-width="0.246" stroke-linecap="round" stroke-linejoin="round" d="M207.038,149.321 l6.478-16.006c0,0,1.778-2.665,1.018-3.301l-5.59-4.954c0,0-2.289-1.65-0.254-5.462l2.156-5.082c0,0,12.577-2.286,8.894-17.149 c0,0-0.889-4.828-2.288-5.589c0,0-2.156-3.555,0.762-5.842c0,0,2.797-5.209,1.526-9.653c0,0-0.762,3.936-2.667,4.571 c0,0-1.396,1.272-1.271,2.796h-0.508c0,0,2.41-5.081-0.763-10.543c0,0-2.671-4.32-3.052-4.701c0,0,0.763,6.858-0.635,9.655 c0,0-2.918,6.604,0.381,11.179c0,0,8.132,15.368,2.924,19.814l-1.779,0.127c0,0,1.019-9.271-3.428-18.164 c0,0-5.973-8.383-6.227-10.417c0,0-0.508-3.429,0-4.825c0,0,1.905,3.048,3.557-1.398c0,0-2.413-5.336-2.286-5.717 c0,0,2.798,3.558,4.194,2.542c0,0,1.395-3.685-0.127-5.588l-2.289-2.67c0,0,1.272,1.399,2.924,0.765c0,0,1.395-2.415-1.144-4.574 l-2.543-2.923c0,0,3.306-0.889,3.687-0.254l0.759,0.762c0,0-0.254-4.824-1.646-5.59c0,0-2.29-2.156-2.925-2.285 c0,0,2.67-2.538,2.162-5.207c0,0,0.381-4.574-1.527-4.193c0,0-6.73,3.177-6.73,4.828l-7.62-2.032c0,0-3.306,1.778-3.433,3.048 c0,0-1.905,1.907-3.681,1.273c0,0-4.067-0.639-3.561,2.285l0.382,3.685c0,0,2.031-0.765,4.699,3.682c0,0-2.028-1.27-5.208,0.509 c0,0-0.381,3.05,0.891,3.05c0,0,5.461,0.381,5.715,1.65c0,0,1.144,2.157-4.445,1.776c0,0-2.54,2.162-2.667,3.685 c0,0,2.667-0.887,3.688,0.127l-4.575,4.574c0,0-4.064-1.269-5.843-6.73c0,0-5.207-7.116-6.985-7.116c0,0-1.527-1.271-1.654,2.669 l0.763,1.143c0,0-0.89,2.795,0.382,4.065c0,0-1.778,2.539-0.127,3.174c0,0,8.258,2.542,8.767,7.243l-8.767,9.271 c0,0-1.018,1.144-1.018,3.178c0,0,0,5.971,0.381,7.113c0,0-0.635,2.793,1.781,1.143c0,0,1.397-2.539,1.271-2.666l1.646-0.254 c0,0,1.397-0.512,1.145-2.417l0.381-3.301l6.606-5.082c0,0,3.431,6.098,6.48,5.971c0,0-2.289,6.225,9.269,13.718v0.889 c0,0-1.395,1.526-3.68,1.017c0,0-5.716,0-8.768,4.7c0,0-5.716,7.624-4.32,12.193c0,0,2.543,6.479,4.702,8.514 c0,0-0.382,2.156-3.049,2.41c0,0-7.75,3.053-10.287,7.75c0,0-1.145,4.319,0.505,4.065c0,0,1.65-0.254,2.286-1.778l2.67,0.127 c0,0,0.763-0.381,0.508-1.396c0,0,1.017-0.381,1.144,0.254l2.921-0.127l0.128-1.907c0,0,4.317-3.555,5.846-3.3 c0,0,6.351-0.509,6.478-3.814c0,0-0.635-3.807-1.399-4.19L189,125.063c0,0,1.146-1.904,1.653-1.523c0,0,5.207,5.715,8.001,6.097 c0,0,5.717,4.444,5.971,6.479c0,0,1.144,3.173-0.763,5.969c0,0-6.857,1.65-8.637,3.938c0,0-4.063,3.301-2.162,4.443 c0,0,1.524,0,2.797-1.017l3.431,0.509l1.522-1.017l0.891,0.89L207.038,149.321z"/>
</g>
<path fill="#F9D729" d="M202.625,47.222c0,0,1.93-4.213,1.663-4.141c0,0-2.827,2.021-2.899,2.592c0,0-0.522,0.929-0.097,1.381 C201.292,47.054,201.936,47.98,202.625,47.222"/>
<path fill="none" stroke="#231F20" stroke-width="0.246" stroke-linecap="round" stroke-linejoin="round" d="M202.625,47.222 c0,0,1.93-4.213,1.663-4.141c0,0-2.827,2.021-2.899,2.592c0,0-0.522,0.929-0.097,1.381 C201.292,47.054,201.936,47.98,202.625,47.222z"/>
<path fill="#F9D729" d="M206.957,98.422c0,0,0-1.433-0.666-2.147c0,0-2.507-2.974-2.866-4.199c0,0-1.385-4.302-1.845-4.917 c0,0-1.485-2.815-1.739-2.917"/>
<path fill="none" stroke="#231F20" stroke-width="0.246" stroke-linecap="round" stroke-linejoin="round" d="M206.957,98.422 c0,0,0-1.433-0.666-2.147c0,0-2.507-2.974-2.866-4.199c0,0-1.385-4.302-1.845-4.917c0,0-1.485-2.815-1.739-2.917"/>
<path fill="#F9D729" d="M198.15,55.108l-2.51,2.562c0,0-3.211,3.697-8.827,3.647"/>
<path fill="none" stroke="#231F20" stroke-width="0.246" stroke-linecap="round" stroke-linejoin="round" d="M198.15,55.108 l-2.51,2.562c0,0-3.211,3.697-8.827,3.647"/>
<path fill="#231F20" d="M193.929,50.182l-2.691-2.691c0,0-1.5,0.186-1.476,1.504c0,0,0.156,1.105,0.553,1.158L193.929,50.182"/>
<path fill="none" stroke="#231F20" stroke-width="0.246" stroke-linecap="round" stroke-linejoin="round" d="M193.929,50.182 l-2.691-2.691c0,0-1.5,0.186-1.476,1.504c0,0,0.156,1.105,0.553,1.158L193.929,50.182z"/>
<path fill="#F9D729" d="M187.88,89.672c0,0-2.11,0.021-3.707-0.688"/>
<path fill="none" stroke="#231F20" stroke-width="0.246" stroke-linecap="round" stroke-linejoin="round" d="M187.88,89.672 c0,0-2.11,0.021-3.707-0.688"/>
<line fill="#F9D729" x1="177.693" y1="83.014" x2="174.384" y2="76.128"/>
<line fill="none" stroke="#231F20" stroke-width="0.246" stroke-linecap="round" stroke-linejoin="round" x1="177.693" y1="83.014" x2="174.384" y2="76.128"/>
<path fill="#F9D729" d="M189.998,79.546c0,0-1.17-2.475-5.038-4.633c0,0-3.646-1.214-6.12-3.238"/>
<path fill="none" stroke="#231F20" stroke-width="0.246" stroke-linecap="round" stroke-linejoin="round" d="M189.998,79.546 c0,0-1.17-2.475-5.038-4.633c0,0-3.646-1.214-6.12-3.238"/>
<path fill="#F9D729" d="M202.592,75.59c0,0-2.742-2.927-2.742-4.547c0,0,0.674,2.88-3.554,5.266c0,0-0.988-2.386-1.757-3.015 c0,0-0.943-2.251-0.809-3.104c0,0-0.813,1.35-2.204,1.485c0,0-2.116,1.394-2.341,1.842c0,0-1.216,0.315-0.946-1.304 c0,0,1.171-4.093,0.766-4.272c0,0-1.663,0.225-3.104-0.36c0,0-1.757-0.361-2.204-0.361"/>
<path fill="none" stroke="#231F20" stroke-width="0.246" stroke-linecap="round" stroke-linejoin="round" d="M202.592,75.59 c0,0-2.742-2.927-2.742-4.547c0,0,0.674,2.88-3.554,5.266c0,0-0.988-2.386-1.757-3.015c0,0-0.943-2.251-0.809-3.104 c0,0-0.813,1.35-2.204,1.485c0,0-2.116,1.394-2.341,1.842c0,0-1.216,0.315-0.946-1.304c0,0,1.171-4.093,0.766-4.272 c0,0-1.663,0.225-3.104-0.36c0,0-1.757-0.361-2.204-0.361"/>
<path fill="#F9D729" d="M193.596,102.674c0,0,1.521,0.282,1.859-0.732c0,0-1.744,4.623-4.115,7.61c0,0-3.101,4.79-2.818,7.44 c0,0-0.932,3.954,2.129,6.544"/>
<path fill="none" stroke="#231F20" stroke-width="0.246" stroke-linecap="round" stroke-linejoin="round" d="M193.596,102.674 c0,0,1.521,0.282,1.859-0.732c0,0-1.744,4.623-4.115,7.61c0,0-3.101,4.79-2.818,7.44c0,0-0.932,3.954,2.129,6.544"/>
<path fill="#00AD4D" d="M59.303,38.089h102.299V89.41c0,0-2.032,66.053-51.149,76.891c0,0-42.513-2.88-51.148-74.688L59.303,38.089 "/>
<path fill="none" stroke="#F6D72B" stroke-width="0.41" stroke-linecap="round" stroke-linejoin="round" d="M59.303,38.089h102.299 V89.41c0,0-2.032,66.053-51.149,76.891c0,0-42.513-2.88-51.148-74.688L59.303,38.089L59.303,38.089z"/>
<path fill="#fff" d="M70.903,124.199l0.256-40.881c0,0-0.878-1.743-0.132-4.734l1.745-7.479c0,0,1.37-4.239-1.125-5.859 c0,0-2.239-0.873-4.855,1.871c0,0-1.249,1.743,0.372,3.362l1.996,1.373c0,0-0.499,1.992-1.869,2.244v3.489 c0,0,0.623,1.37-2.12,3.614l-2.243,1.994c0,0,1.617-3.613,1.369-5.36c0,0-3.737-10.593,1.621-13.46l1.748-1.246 c0,0,3.736-1.496,5.98,0.124c0,0,3.613,1.87,4.484,5.735c0,0,0.375,3.985-0.998,5.48c0,0-1.865,2.369-1.865,3.617 c0,0-0.499,3.862-0.874,4.859v41.627c0,0-0.499,3.366-1.246,3.987C73.147,128.558,72.022,129.184,70.903,124.199"/>
<path fill="none" stroke="#231F20" stroke-width="0.246" stroke-linecap="round" stroke-linejoin="round" d="M71.158,83.317h3.11 M71.278,85.563l3.021-0.003 M71.151,101.015h2.991 M71.278,103.016h2.991 M70.903,124.199l0.256-40.881 c0,0-0.878-1.743-0.132-4.734l1.745-7.479c0,0,1.37-4.239-1.125-5.859c0,0-2.239-0.873-4.855,1.871c0,0-1.249,1.743,0.372,3.362 l1.996,1.373c0,0-0.499,1.992-1.869,2.244v3.489c0,0,0.623,1.37-2.12,3.614l-2.243,1.994c0,0,1.617-3.613,1.369-5.36 c0,0-3.737-10.593,1.621-13.46l1.748-1.246c0,0,3.736-1.496,5.98,0.124c0,0,3.613,1.87,4.484,5.735c0,0,0.375,3.985-0.998,5.48 c0,0-1.865,2.369-1.865,3.617c0,0-0.499,3.862-0.874,4.859v41.627c0,0-0.499,3.366-1.246,3.987 C73.147,128.558,72.022,129.184,70.903,124.199z"/>
<path fill="#fff" d="M150.456,124.338l-0.254-40.882c0,0,0.88-1.743,0.13-4.733l-1.741-7.479c0,0-1.373-4.24,1.118-5.859 c0,0,2.244-0.873,4.862,1.87c0,0,1.245,1.744-0.375,3.363l-1.992,1.373c0,0,0.499,1.994,1.869,2.244v3.49 c0,0-0.627,1.369,2.118,3.614l2.241,1.994c0,0-1.618-3.613-1.37-5.36c0,0,3.738-10.594-1.621-13.46l-1.743-1.246 c0,0-3.741-1.496-5.981,0.124c0,0-3.614,1.869-4.488,5.734c0,0-0.375,3.985,0.998,5.481c0,0,1.869,2.369,1.869,3.617 c0,0,0.499,3.861,0.871,4.858v41.627c0,0,0.499,3.365,1.249,3.988C148.215,128.699,149.336,129.324,150.456,124.338"/>
<path fill="none" stroke="#231F20" stroke-width="0.246" stroke-linecap="round" stroke-linejoin="round" d="M150.202,83.457 h-3.108 M150.083,85.702h-3.117 M150.208,101.155h-2.99 M150.083,103.155h-2.99 M150.456,124.338l-0.254-40.882 c0,0,0.88-1.743,0.13-4.733l-1.741-7.479c0,0-1.373-4.24,1.118-5.859c0,0,2.244-0.873,4.862,1.87c0,0,1.245,1.744-0.375,3.363 l-1.992,1.373c0,0,0.499,1.994,1.869,2.244v3.49c0,0-0.627,1.369,2.118,3.614l2.241,1.994c0,0-1.618-3.613-1.37-5.36 c0,0,3.738-10.594-1.621-13.46l-1.743-1.246c0,0-3.741-1.496-5.981,0.124c0,0-3.614,1.869-4.488,5.734c0,0-0.375,3.985,0.998,5.481 c0,0,1.869,2.369,1.869,3.617c0,0,0.499,3.861,0.871,4.858v41.627c0,0,0.499,3.365,1.249,3.988 C148.215,128.699,149.336,129.324,150.456,124.338z"/>
<path fill="#F6D72B" d="M64.444,58.616l-2.49-15.052l0.335-0.22c0,0,1.437,1.771,3.039,2.047c0,0,2.771,1.328,6.091-3.319 c0,0,2.654,3.65,4.868,3.319c0,0,2.104,0.499,4.261-2.158l0.445,0.222l-2.326,15.161H64.444"/>
<path fill="none" stroke="#231F20" stroke-width="0.246" stroke-linecap="round" stroke-linejoin="round" d="M64.444,58.616 l-2.49-15.052l0.335-0.22c0,0,1.437,1.771,3.039,2.047c0,0,2.771,1.328,6.091-3.319c0,0,2.654,3.65,4.868,3.319 c0,0,2.104,0.499,4.261-2.158l0.445,0.222l-2.326,15.161H64.444z"/>
<line fill="#F6D72B" x1="63.836" y1="54.192" x2="79.165" y2="54.192"/>
<line fill="none" stroke="#231F20" stroke-width="0.246" stroke-linecap="round" stroke-linejoin="round" x1="63.836" y1="54.192" x2="79.165" y2="54.192"/>
<path fill="#F6D72B" d="M69.534,50.15c0,0.824-0.669,1.492-1.494,1.492s-1.494-0.668-1.494-1.492s0.669-1.493,1.494-1.493 S69.534,49.326,69.534,50.15"/>
<circle fill="none" stroke="#231F20" stroke-width="0.246" stroke-linecap="round" stroke-linejoin="round" cx="68.04" cy="50.15" r="1.494"/>
<path fill="#F6D72B" d="M77.598,49.99c0,0.827-0.671,1.496-1.497,1.496c-0.822,0-1.493-0.668-1.493-1.496 c0-0.824,0.671-1.492,1.493-1.492C76.927,48.498,77.598,49.166,77.598,49.99"/>
<path fill="none" stroke="#231F20" stroke-width="0.246" stroke-linecap="round" stroke-linejoin="round" d="M77.598,49.99 c0,0.827-0.671,1.496-1.497,1.496c-0.822,0-1.493-0.668-1.493-1.496c0-0.824,0.671-1.492,1.493-1.492 C76.927,48.498,77.598,49.166,77.598,49.99z"/>
<path fill="#F6D72B" d="M157.115,58.633l2.487-15.054l-0.329-0.222c0,0-1.441,1.771-3.045,2.05c0,0-2.768,1.324-6.088-3.324 c0,0-2.658,3.655-4.868,3.324c0,0-2.104,0.494-4.261-2.159l-0.442,0.221l2.323,15.164H157.115"/>
<path fill="none" stroke="#231F20" stroke-width="0.246" stroke-linecap="round" stroke-linejoin="round" d="M143.96,50.002 c0,0.827,0.668,1.496,1.493,1.496s1.493-0.668,1.493-1.496c0-0.824-0.668-1.492-1.493-1.492S143.96,49.177,143.96,50.002z M152.022,50.166c0,0.824,0.672,1.492,1.494,1.492c0.825,0,1.497-0.668,1.497-1.492c0-0.827-0.672-1.496-1.497-1.496 C152.694,48.67,152.022,49.338,152.022,50.166z M157.722,54.204h-15.328 M157.115,58.633l2.487-15.054l-0.329-0.222 c0,0-1.441,1.771-3.045,2.05c0,0-2.768,1.324-6.088-3.324c0,0-2.658,3.655-4.868,3.324c0,0-2.104,0.494-4.261-2.159l-0.442,0.221 l2.323,15.164H157.115z"/>
<path fill="#fff" d="M96.487,140.391l3.688-12.967c0,0-4.877-2.499-4.877-7.613l0.238-5.59c0,0-0.359-5.471-1.191-5.827 c0,0-0.596-3.211,0.596-5.232c0,0-0.237-8.805,4.043-10.587l3.927-2.5c0,0,0.354-1.188-0.597-3.447c0,0-2.615-4.164-0.593-4.876 c0,0,2.021-2.499,1.901-3.211c0,0-0.238-4.044,3.212-4.282l7.255-0.359c0,0,2.141,0.597,2.021,2.26c0,0-0.116,2.5,1.902,4.284 l0.121,6.065c0,0,0.239,1.311-0.356,2.379l0.476,0.715c0,0,4.639-1.548,7.614,2.021c0,0,4.929,4.813,0.472,10.583 c0,0-1.307,1.906-2.259,2.021c0,0,0.831,8.09,0.121,12.491c0,0,0.116,7.373-3.213,7.373c0,0,3.092,9.277,2.023,17.249 c0,0-1.905,1.782-4.047-0.117c0,0-1.548,2.14-5.353,0c0,0-1.546,3.091-5.353,0.117c0,0-0.593,1.07-1.31,0.596h-9.87 C97.083,141.937,95.77,141.224,96.487,140.391"/>
<path fill="none" stroke="#231F20" stroke-width="0.246" stroke-linecap="round" stroke-linejoin="round" d="M118.891,141.122 c0,0-1.046-11.894-1.334-11.985 M113.324,141.502v-10.273 M108.262,141.342v-7.31 M114.812,85.513c0,0-0.551-0.595-2.368-0.977 M107.53,85.977l1.82-1.481c0,0,0.72,0.891,1.482,0.721c0,0,1.143,0.338,1.438-0.762c0,0-0.082-1.61-0.509-1.693 M115.489,83.479 l0.428-0.68 M106.514,88.517c0,0,1.144,0.805,1.905,0.467c0,0,1.354-1.439,1.776-1.483c0,0,1.821-0.296,2.247,0.467 c0,0,1.018,0.974,1.521,0.719c0,0,1.27-0.296,1.396-0.592 M115.027,79.543c0,0-2.501-0.044-2.417,0.337l-0.254,0.381 c0,0-0.635,0.297-0.593,0.551c0,0,0.17,0.762,0.593,0.806c0,0,1.271,0.083,1.439-0.213c0,0,0.509-0.552,0.297-0.762 c0,0-0.466-0.553-1.313-0.553 M105.498,79.583c0,0,2.202-0.083,2.544,0.254c0,0,0.801,0.468,1.055,0.763 c0,0,0.17,0.806-0.423,0.848c0,0-1.271,0.171-1.439-0.083c0,0-0.763-0.257-0.339-0.765c0,0,0.593-0.675,1.229-0.509 M111.679,74.081c0,0,1.754,3.52,5.187,5.295 M106.641,77.508c0,0,1.14-1.313,2.032-1.015 M103.974,83.776l0.974,0.635 M104.482,85.977l0.763,0.72 M102.87,90.298c0,0,1.738,1.016,2.201,1.016c0,0,1.104,0.171,1.23,0.591c0,0,1.605,2.035,2.498,2.035 c0,0,0.55,0.928,2.625-0.298c0,0,1.653-0.509,2.794-1.396 M115.362,103c0,0-3.172-2.288-2.536-6.774c0,0,0.509-4.87,5.204-6.562 M118.833,103.21l-3.006-0.127 M119.257,109.141c0,0-3.896-1.146-3.77-2.583c0,0-0.589-2.881-0.381-3.433 c0,0,1.358,1.101,2.202,1.061c0,0,1.442-0.381,1.82-1.271c0,0,1.143-0.213,1.396,0.041 M121.839,104.904 c0,0,1.569,0.043,2.501-0.718 M121.334,101.433l-0.809,1.522c0,0,1.781,2.837,1.781,3.854 M124.637,98.806l0.039,2.416 c0,0,0.127,0.592-0.886,0.548c0,0-1.609-0.676-2.329-0.421l-1.063-1.482 M117.945,101.516l0.216-2.075 M116.759,93.726 c0,0,1.527-0.168,1.866,1.142c0,0,1.819,1.693,3.429,1.737c0,0,2.964,0,3.638,0.594c0,0,1.654,1.229,0.381,1.692 c0,0-3.384-0.254-3.344,0c0,0-2.113,0.677-2.202,1.103c0,0-0.55-0.807-1.098-0.889c0,0-1.399,0.209-1.27,0.463 c0,0-1.863-1.733-2.035-1.479c0,0-0.972,0.381-0.891,0.931 M120.742,93.558v2.411 M120.615,90.381v1.016 c0,0-2.498,0.723-0.343,2.119c0,0,1.358,0.337,1.781-0.762c0,0-0.042-1.396-1.313-1.357 M104.013,109.986 c0,0,2.628,0.253,2.797,0.424c0,0,4.826,3.047,7.451,1.947c0,0,9.317-5.672,9.825-6.351 M100.175,100.937 c0,0,2.658-1.133,5.107-0.526c0,0,1.605-1.028,2.423-1.238l3.847-0.023c0,0,1.466,0.053,0.511,1.522l-3.726,0.161 c0,0,2.187,0.157,1.555,0.923c0,0-0.896,0.341-0.79,0.656c0,0,0.578,1.421-0.45,2.003c0,0-1.763,0.919-2.631-0.372 c0,0-0.765,2.556-1.898,3.004c0,0-1.79,0.159-2.054,0.79c-0.394,0.395-0.763,1.238-0.684,1.79c0,0-0.581-1.66-0.105-3.345 c0,0,2.266-4.554,2.527-4.633c0,0,0.314-1.104,0.264-1.425 M121.229,122.548l-3.45-10.823 M100.412,125.522l3.567-9.277 M96.487,140.391l3.688-12.967c0,0-4.877-2.499-4.877-7.613l0.238-5.59c0,0-0.359-5.471-1.191-5.827c0,0-0.596-3.211,0.596-5.232 c0,0-0.237-8.805,4.043-10.587l3.927-2.5c0,0,0.354-1.188-0.597-3.447c0,0-2.615-4.164-0.593-4.876c0,0,2.021-2.499,1.901-3.211 c0,0-0.238-4.044,3.212-4.282l7.255-0.359c0,0,2.141,0.597,2.021,2.26c0,0-0.116,2.5,1.902,4.284l0.121,6.065 c0,0,0.239,1.311-0.356,2.379l0.476,0.715c0,0,4.639-1.548,7.614,2.021c0,0,4.929,4.813,0.472,10.583c0,0-1.307,1.906-2.259,2.021 c0,0,0.831,8.09,0.121,12.491c0,0,0.116,7.373-3.213,7.373c0,0,3.092,9.277,2.023,17.249c0,0-1.905,1.782-4.047-0.117 c0,0-1.548,2.14-5.353,0c0,0-1.546,3.091-5.353,0.117c0,0-0.593,1.07-1.31,0.596h-9.87 C97.083,141.937,95.77,141.224,96.487,140.391z"/>
<path fill="#F6D72B" d="M82.434,147.521v-13.363l1.672-1.168V85.882l-1.813-0.222c0,0-0.623-1.642,0.176-2.041 c0,0,0.71-0.712,0.935-0.712c0,0-3.33-1.817-3.153-3.283c0,0-0.399-2.13,1.688-2.484l2.482-1.243v-9.364h7.369v9.142 c0,0,3.949,1.688,4.216,2.131c0,0,1.108,1.244,0.398,2.264c0,0-2.087,2.529-2.575,2.795l-0.442,0.31c0,0,1.198,0.355,1.198,1.066 c0,0,0.133,1.108-0.176,1.331c0,0-1.82,0-1.953,0.49c0,0-0.18,0.975-0.623,1.33v45.796l1.464,0.933l0.09,13.397L82.434,147.521"/>
<path fill="none" stroke="#231F20" stroke-width="0.246" stroke-linecap="round" stroke-linejoin="round" d="M84.72,75.719 c0,0,3.039,0.059,3.39,0.35c0,0,3.378-0.44,3.678-0.396 M92.803,79.878c0,0-2.269-1.537-4.669,0c0,0-0.167,0.951,1.001,1.067 c0,0,0.378,0.443,2.189,0.208c0,0,0.756-0.7,0.348-0.877c0,0-0.193-0.7-1.07-0.936 M83.202,79.927c0,0,3.672-1.354,4.666,0.284 c0,0-0.636,1.001-1.102,1.001l-2.223,0.172c0,0-1.229-0.522,0.351-1.812 M87.874,84.369c0,0,1.053-0.059,1.579-1.169 M87.874,86.414v-1.87c0,0-1.342-1.052-0.988-1.461 M84.251,85.711c0,0,3.16-0.585,3.45,1.113c0,0,1.461-2.28,4.5-0.644 M84.37,86.765c0,0,2.219,2.511,3.622,2.919c0,0,3.097-0.877,4.03-2.57 M84.136,92.43h7.597 M84.37,102.367h7.245 M84.312,133.108 h7.421 M82.5,135.619h10.691 M82.5,143.218h10.871 M82.434,147.521v-13.363l1.672-1.168V85.882l-1.813-0.222 c0,0-0.623-1.642,0.176-2.041c0,0,0.71-0.712,0.935-0.712c0,0-3.33-1.817-3.153-3.283c0,0-0.399-2.13,1.688-2.484l2.482-1.243 v-9.364h7.369v9.142c0,0,3.949,1.688,4.216,2.131c0,0,1.108,1.244,0.398,2.264c0,0-2.087,2.529-2.575,2.795l-0.442,0.31 c0,0,1.198,0.355,1.198,1.066c0,0,0.133,1.108-0.176,1.331c0,0-1.82,0-1.953,0.49c0,0-0.18,0.975-0.623,1.33v45.796l1.464,0.933 l0.09,13.397L82.434,147.521z"/>
<path fill="#fff" d="M84.417,66.531c0,0-0.688-1.799-0.42-2.13c0,0-7.403-1.403-4.872-3.669c0,0,2.474-2.536,2.74-0.733 c0,0,0.863-2.604,2.265-2.803c0,0,0.868,0.198,1.27-3.003c0,0,1.198-3.403,2.734-3.67c0,0,2.937,1.269,3.202,5.472 c0,0,0.267,1.398,1.467,1.398c0,0,1.603,1.602,1.533,2.604c0,0,0.336-1.068,1.203-0.469c0,0,2.736,1.935,1.67,2.803 c0,0-4.004,1.867-4.474,1.867c0,0-0.734,0.334-0.531,0.666c0,0-0.104,1.666-0.418,1.666H84.417"/>
<path fill="none" stroke="#231F20" stroke-width="0.246" stroke-linecap="round" stroke-linejoin="round" d="M85.467,60.796 c0,0,1.998-0.064,2.201,0.068c0,0,0.665,0.6,1.264,0.065c0,0,1.403-0.198,1.47,0.334 M84.417,66.531c0,0-0.688-1.799-0.42-2.13 c0,0-7.403-1.403-4.872-3.669c0,0,2.474-2.536,2.74-0.733c0,0,0.863-2.604,2.265-2.803c0,0,0.868,0.198,1.27-3.003 c0,0,1.198-3.403,2.734-3.67c0,0,2.937,1.269,3.202,5.472c0,0,0.267,1.398,1.467,1.398c0,0,1.603,1.602,1.533,2.604 c0,0,0.336-1.068,1.203-0.469c0,0,2.736,1.935,1.67,2.803c0,0-4.004,1.867-4.474,1.867c0,0-0.734,0.334-0.531,0.666 c0,0-0.104,1.666-0.418,1.666H84.417z"/>
<path fill="#F6D72B" d="M138.934,148.124V134.76l-1.669-1.169V86.482l1.814-0.223c0,0,0.623-1.642-0.177-2.041 c0,0-0.714-0.712-0.932-0.712c0,0,3.327-1.816,3.148-3.281c0,0,0.398-2.13-1.686-2.486l-2.484-1.241v-9.366h-7.37v9.143 c0,0-3.946,1.688-4.212,2.131c0,0-1.11,1.244-0.399,2.263c0,0,2.087,2.53,2.573,2.797l0.444,0.309c0,0-1.197,0.356-1.197,1.065 c0,0-0.134,1.111,0.176,1.333c0,0,1.82,0,1.95,0.488c0,0,0.182,0.975,0.623,1.332v45.795l-1.465,0.932l-0.087,13.402 L138.934,148.124"/>
<path fill="none" stroke="#231F20" stroke-width="0.246" stroke-linecap="round" stroke-linejoin="round" d="M136.648,76.32 c0,0-3.036,0.059-3.387,0.35c0,0-3.378-0.439-3.681-0.396 M128.568,80.478c0,0,2.266-1.536,4.669,0c0,0,0.167,0.951-1.001,1.068 c0,0-0.378,0.443-2.188,0.208c0,0-0.756-0.699-0.348-0.877c0,0,0.189-0.698,1.069-0.932 M138.169,80.528 c0,0-3.671-1.354-4.666,0.284c0,0,0.635,1.001,1.101,1.001l2.224,0.174c0,0,1.225-0.524-0.352-1.813 M133.494,84.969 c0,0-1.053-0.059-1.575-1.167 M133.494,87.014v-1.869c0,0,1.343-1.055,0.994-1.462 M137.117,86.313c0,0-3.157-0.585-3.447,1.11 c0,0-1.461-2.278-4.5-0.645 M136.999,87.365c0,0-2.22,2.511-3.622,2.919c0,0-3.098-0.875-4.031-2.57 M137.235,93.032h-7.6 M136.999,102.969h-7.245 M137.056,133.708h-7.421 M138.868,136.219h-10.689 M138.868,143.819H128 M138.934,148.124V134.76 l-1.669-1.169V86.482l1.814-0.223c0,0,0.623-1.642-0.177-2.041c0,0-0.714-0.712-0.932-0.712c0,0,3.327-1.816,3.148-3.281 c0,0,0.398-2.13-1.686-2.486l-2.484-1.241v-9.366h-7.37v9.143c0,0-3.946,1.688-4.212,2.131c0,0-1.11,1.244-0.399,2.263 c0,0,2.087,2.53,2.573,2.797l0.444,0.309c0,0-1.197,0.356-1.197,1.065c0,0-0.134,1.111,0.176,1.333c0,0,1.82,0,1.95,0.488 c0,0,0.182,0.975,0.623,1.332v45.795l-1.465,0.932l-0.087,13.402L138.934,148.124z"/>
<path fill="#fff" d="M136.951,67.131c0,0,0.688-1.799,0.42-2.133c0,0,7.405-1.397,4.872-3.667c0,0-2.472-2.536-2.737-0.732 c0,0-0.864-2.604-2.269-2.803c0,0-0.867,0.198-1.267-3.004c0,0-1.201-3.402-2.734-3.669c0,0-2.937,1.271-3.201,5.472 c0,0-0.271,1.4-1.468,1.4c0,0-1.603,1.602-1.535,2.604c0,0-0.337-1.069-1.203-0.468c0,0-2.734,1.937-1.667,2.803 c0,0,4.001,1.867,4.47,1.867c0,0,0.735,0.334,0.535,0.665c0,0,0.1,1.666,0.414,1.666h7.37"/>
<path fill="none" stroke="#231F20" stroke-width="0.246" stroke-linecap="round" stroke-linejoin="round" d="M135.904,61.398 c0,0-2.002-0.066-2.2,0.065c0,0-0.668,0.6-1.268,0.067c0,0-1.399-0.2-1.47,0.334 M136.951,67.131c0,0,0.688-1.799,0.42-2.133 c0,0,7.405-1.397,4.872-3.667c0,0-2.472-2.536-2.737-0.732c0,0-0.864-2.604-2.269-2.803c0,0-0.867,0.198-1.267-3.004 c0,0-1.201-3.402-2.734-3.669c0,0-2.937,1.271-3.201,5.472c0,0-0.271,1.4-1.468,1.4c0,0-1.603,1.602-1.535,2.604 c0,0-0.337-1.069-1.203-0.468c0,0-2.734,1.937-1.667,2.803c0,0,4.001,1.867,4.47,1.867c0,0,0.735,0.334,0.535,0.665 c0,0,0.1,1.666,0.414,1.666h7.37V67.131z"/>
<path fill="#F6D72B" d="M91.887,70.275l15.014-16.369h7.803l14.761,15.944v6.109l-0.851,0.422c0,0-4.921-3.475-8.481-3.22 c0,0-1.103-10.855-9.16-17.475c0,0-8.141,4.583-9.329,16.963c0,0-6.022,1.102-8.229,3.73l-1.696-0.933L91.887,70.275"/>
<path fill="none" stroke="#231F20" stroke-width="0.246" stroke-linecap="round" stroke-linejoin="round" d="M91.887,70.275 l15.014-16.369h7.803l14.761,15.944v6.109l-0.851,0.422c0,0-4.921-3.475-8.481-3.22c0,0-1.103-10.855-9.16-17.475 c0,0-8.141,4.583-9.329,16.963c0,0-6.022,1.102-8.229,3.73l-1.696-0.933L91.887,70.275z"/>
<path fill="#fff" d="M106.901,53.737l-1.016-4.157c0,0-0.342-0.166-1.697-0.591c0,0-3.142-1.188-1.356-3.141 c0,0,0.932-0.849,3.055-0.849c0,0,2.204-0.677,2.37-2.034c0,0,1.02-3.224,2.547-3.137c0,0,1.611,0.425,2.374,2.629 c0,0,0.254,1.694,1.526,2.205c0,0,3.646,0.171,4.242,1.439c0,0,1.271,2.038-0.85,2.629l-2.205,0.682l-1.104,4.323L106.901,53.737" />
<path fill="none" stroke="#231F20" stroke-width="0.246" stroke-linecap="round" stroke-linejoin="round" d="M108.428,47.801 c0,0,2.628,2.716,4.666,0.087 M106.901,53.737l-1.016-4.157c0,0-0.342-0.166-1.697-0.591c0,0-3.142-1.188-1.356-3.141 c0,0,0.932-0.849,3.055-0.849c0,0,2.204-0.677,2.37-2.034c0,0,1.02-3.224,2.547-3.137c0,0,1.611,0.425,2.374,2.629 c0,0,0.254,1.694,1.526,2.205c0,0,3.646,0.171,4.242,1.439c0,0,1.271,2.038-0.85,2.629l-2.205,0.682l-1.104,4.323L106.901,53.737 L106.901,53.737z"/>
<g>
<path fill="#00AD4D" d="M42.958,187.92h-2.65l-1.054-2.733h-4.818l-1.002,2.733h-2.585l4.684-12.016h2.6L42.958,187.92z M38.482,183.155l-1.673-4.453l-1.631,4.453H38.482z"/>
<path fill="#00AD4D" d="M51.976,183.483l2.359,0.733c-0.362,1.321-0.965,2.304-1.809,2.944c-0.843,0.641-1.911,0.962-3.207,0.962 c-1.604,0-2.921-0.546-3.952-1.637c-1.032-1.091-1.549-2.583-1.549-4.477c0-2.002,0.52-3.557,1.558-4.663 c1.037-1.107,2.401-1.661,4.094-1.661c1.477,0,2.676,0.435,3.599,1.303c0.55,0.514,0.961,1.251,1.235,2.213l-2.406,0.578 c-0.143-0.623-0.44-1.114-0.895-1.475c-0.454-0.361-1.004-0.541-1.652-0.541c-0.895,0-1.621,0.318-2.18,0.959 c-0.558,0.64-0.836,1.676-0.836,3.106c0,1.521,0.273,2.604,0.823,3.247c0.549,0.646,1.263,0.968,2.142,0.968 c0.646,0,1.204-0.206,1.671-0.618C51.438,185.014,51.773,184.368,51.976,183.483z"/>
<path fill="#00AD4D" d="M56.433,187.92v-12.016h2.438v4.734h4.766v-4.734h2.438v12.016h-2.438v-5.25h-4.766v5.25H56.433z"/>
<path fill="#00AD4D" d="M68.53,187.92v-12.016h2.438v12.016H68.53z"/>
<path fill="#00AD4D" d="M73.292,187.92v-12.016h8.938v2.031h-6.5v2.655h6.047v2.031H75.73v3.267h6.734v2.03L73.292,187.92 L73.292,187.92z"/>
<path fill="#00AD4D" d="M87.612,187.92l-4.309-12.016h2.642l3.055,8.891l2.948-8.891h2.591l-4.3,12.016H87.612z"/>
<path fill="#00AD4D" d="M95.783,187.92v-12.016h8.938v2.031h-6.5v2.655h6.047v2.031H98.22v3.267h6.734v2.03L95.783,187.92 L95.783,187.92z"/>
</g>
<g>
<path fill="#00AD4D" d="M111.686,175.795h4.823c0.955,0,1.667,0.04,2.137,0.119s0.89,0.245,1.26,0.496 c0.37,0.252,0.68,0.587,0.927,1.005c0.246,0.418,0.37,0.887,0.37,1.406c0,0.563-0.152,1.08-0.456,1.55 c-0.305,0.471-0.717,0.823-1.236,1.059c0.734,0.214,1.3,0.576,1.694,1.09s0.592,1.116,0.592,1.811 c0,0.546-0.128,1.077-0.383,1.594s-0.604,0.929-1.046,1.236c-0.441,0.309-0.986,0.499-1.635,0.569 c-0.405,0.044-1.386,0.07-2.938,0.082h-4.108L111.686,175.795L111.686,175.795z M114.124,177.795v2.781h1.595 c0.949,0,1.538-0.014,1.768-0.041c0.417-0.049,0.744-0.192,0.983-0.431c0.238-0.237,0.357-0.552,0.357-0.939 c0-0.371-0.104-0.674-0.31-0.906c-0.205-0.231-0.511-0.373-0.917-0.423c-0.24-0.026-0.935-0.041-2.08-0.041H114.124z M114.124,182.577v3.203h2.257c0.879,0,1.436-0.024,1.672-0.073c0.362-0.064,0.658-0.225,0.886-0.478 c0.229-0.254,0.342-0.594,0.342-1.019c0-0.358-0.088-0.665-0.264-0.915c-0.176-0.251-0.43-0.434-0.762-0.548 c-0.333-0.114-1.054-0.172-2.162-0.172L114.124,182.577L114.124,182.577z"/>
<path fill="#00AD4D" d="M127.017,187.811v-5.058l-4.414-6.959h2.855l2.836,4.764l2.771-4.764h2.804l-4.414,6.977v5.04H127.017 L127.017,187.811z"/>
</g>
<g>
<path fill="#00AD4D" d="M139.684,175.88h2.438v6.515c0,1.032,0.029,1.704,0.091,2.01c0.104,0.492,0.353,0.888,0.744,1.186 c0.393,0.299,0.93,0.447,1.609,0.447c0.691,0,1.212-0.141,1.563-0.423c0.352-0.281,0.563-0.627,0.634-1.037 s0.107-1.092,0.107-2.043v-6.653h2.438v6.318c0,1.444-0.064,2.464-0.198,3.061c-0.131,0.597-0.374,1.101-0.729,1.511 s-0.827,0.736-1.42,0.979s-1.367,0.365-2.322,0.365c-1.152,0-2.026-0.133-2.622-0.398c-0.596-0.265-1.065-0.608-1.412-1.032 c-0.346-0.425-0.572-0.869-0.683-1.334c-0.16-0.688-0.239-1.706-0.239-3.053V175.88L139.684,175.88z"/>
<path fill="#00AD4D" d="M151.89,187.896V175.88h2.357l4.985,8.076v-8.076h2.25v12.017h-2.433L154.14,180v7.896H151.89z"/>
<path fill="#00AD4D" d="M163.988,187.896V175.88h2.438v12.017H163.988z"/>
<path fill="#00AD4D" d="M171.468,187.896v-9.984h-3.578v-2.031h9.578v2.031h-3.563v9.984H171.468z"/>
<path fill="#00AD4D" d="M182.205,187.896v-5.059l-4.414-6.958h2.854l2.836,4.764l2.771-4.764h2.803l-4.414,6.976v5.041H182.205z" />
</g>
<g>
<g>
<path d="M12.339,33.506l-2.518-6.984L0.252,19.11l3.944-1.421l6.304,5.167l1.473-7.969l3.876-1.396l-2.652,11.84l2.509,6.962 L12.339,33.506z"/>
</g>
<g>
<path stroke="#231F20" stroke-width="0.246" d="M12.339,33.506l-2.518-6.984L0.252,19.11l3.944-1.421l6.304,5.167l1.473-7.969 l3.876-1.396l-2.652,11.84l2.509,6.962L12.339,33.506z"/>
</g>
<g>
<path d="M23.25,29.754l-4.673-17.01l12.655-3.477l0.791,2.878l-9.206,2.528l1.035,3.768l8.559-2.352l0.791,2.877l-8.559,2.352 l1.268,4.609l9.536-2.619l0.791,2.877L23.25,29.754z"/>
</g>
<g>
<path stroke="#231F20" stroke-width="0.246" d="M23.25,29.754l-4.673-17.01l12.655-3.477l0.791,2.878l-9.206,2.528l1.035,3.768 l8.559-2.352l0.791,2.877l-8.559,2.352l1.268,4.609l9.536-2.619l0.791,2.877L23.25,29.754z"/>
</g>
<g>
<path d="M36.462,17.141c-0.359-1.761-0.397-3.291-0.112-4.594c0.215-0.961,0.592-1.859,1.132-2.698 c0.54-0.84,1.183-1.512,1.927-2.016c0.988-0.676,2.188-1.159,3.603-1.448c2.558-0.522,4.766-0.151,6.625,1.114 c1.858,1.266,3.075,3.305,3.65,6.117c0.569,2.789,0.254,5.126-0.948,7.013c-1.201,1.887-3.077,3.09-5.627,3.611 c-2.582,0.528-4.795,0.164-6.64-1.092C38.228,21.893,37.024,19.89,36.462,17.141z M40.051,16.284 c0.399,1.955,1.157,3.344,2.271,4.167c1.115,0.824,2.372,1.092,3.771,0.806c1.399-0.285,2.444-1.021,3.137-2.205 c0.692-1.184,0.833-2.777,0.424-4.778c-0.403-1.979-1.143-3.366-2.215-4.162c-1.072-0.794-2.332-1.044-3.777-0.749 c-1.446,0.295-2.512,1.026-3.195,2.193S39.646,14.298,40.051,16.284z"/>
</g>
<g>
<path stroke="#231F20" stroke-width="0.246" d="M36.462,17.141c-0.359-1.761-0.397-3.291-0.112-4.594 c0.215-0.961,0.592-1.859,1.132-2.698c0.54-0.84,1.183-1.512,1.927-2.016c0.988-0.676,2.188-1.159,3.603-1.448 c2.558-0.522,4.766-0.151,6.625,1.114c1.858,1.266,3.075,3.305,3.65,6.117c0.569,2.789,0.254,5.126-0.948,7.013 c-1.201,1.887-3.077,3.09-5.627,3.611c-2.582,0.528-4.795,0.164-6.64-1.092C38.228,21.893,37.024,19.89,36.462,17.141z M40.051,16.284c0.399,1.955,1.157,3.344,2.271,4.167c1.115,0.824,2.372,1.092,3.771,0.806c1.399-0.285,2.444-1.021,3.137-2.205 c0.692-1.184,0.833-2.777,0.424-4.778c-0.403-1.979-1.143-3.366-2.215-4.162c-1.072-0.794-2.332-1.044-3.777-0.749 c-1.446,0.295-2.512,1.026-3.195,2.193S39.646,14.298,40.051,16.284z"/>
</g>
<g>
<path d="M62.005,21.237L53.271,4.664l3.839-0.548l6.273,12.299l2.443-13.543l3.763-0.537l-3.771,18.357L62.005,21.237z"/>
</g>
<g>
<path stroke="#231F20" stroke-width="0.246" d="M62.005,21.237L53.271,4.664l3.839-0.548l6.273,12.299l2.443-13.543l3.763-0.537 l-3.771,18.357L62.005,21.237z"/>
</g>
<g>
<path d="M73.637,19.729L71.798,2.184l3.559-0.373l1.839,17.544L73.637,19.729z"/>
</g>
<g>
<path stroke="#231F20" stroke-width="0.246" d="M73.637,19.729L71.798,2.184l3.559-0.373l1.839,17.544L73.637,19.729z"/>
</g>
<g>
<path d="M80.534,18.998L79.306,1.541l3.569-0.251l1.02,14.48l8.884-0.625l0.209,2.977L80.534,18.998z"/>
</g>
<g>
<path stroke="#231F20" stroke-width="0.246" d="M80.534,18.998L79.306,1.541l3.569-0.251l1.02,14.48l8.884-0.625l0.209,2.977 L80.534,18.998z"/>
</g>
<g>
<path d="M105.675,17.811l-0.077-14.656l-5.25,0.028l-0.016-2.984l14.078-0.074l0.016,2.984l-5.25,0.028l0.077,14.655 L105.675,17.811z"/>
</g>
<g>
<path stroke="#231F20" stroke-width="0.246" d="M105.675,17.811l-0.077-14.656l-5.25,0.028l-0.016-2.984l14.078-0.074 l0.016,2.984l-5.25,0.028l0.077,14.655L105.675,17.811z"/>
</g>
<g>
<path d="M115.799,9.042c0.079-1.794,0.415-3.289,1.007-4.482c0.442-0.879,1.027-1.66,1.753-2.343 c0.729-0.683,1.516-1.178,2.358-1.485c1.123-0.416,2.404-0.593,3.847-0.53c2.607,0.115,4.66,1.012,6.154,2.69 c1.496,1.68,2.181,3.952,2.055,6.819c-0.125,2.845-0.999,5.036-2.624,6.573c-1.623,1.538-3.735,2.25-6.336,2.136 c-2.633-0.115-4.69-1.006-6.174-2.673C116.356,14.081,115.676,11.844,115.799,9.042z M119.489,9.083 c-0.088,1.994,0.311,3.525,1.191,4.595s2.034,1.636,3.461,1.698c1.427,0.063,2.619-0.396,3.579-1.377 c0.959-0.979,1.484-2.492,1.573-4.533c0.089-2.018-0.29-3.542-1.138-4.573c-0.848-1.032-2.008-1.58-3.482-1.646 c-1.474-0.063-2.687,0.386-3.631,1.352C120.095,5.562,119.578,7.058,119.489,9.083z"/>
</g>
<g>
<path stroke="#231F20" stroke-width="0.246" d="M115.799,9.042c0.079-1.794,0.415-3.289,1.007-4.482 c0.442-0.879,1.027-1.66,1.753-2.343c0.729-0.683,1.516-1.178,2.358-1.485c1.123-0.416,2.404-0.593,3.847-0.53 c2.607,0.115,4.66,1.012,6.154,2.69c1.496,1.68,2.181,3.952,2.055,6.819c-0.125,2.845-0.999,5.036-2.624,6.573 c-1.623,1.538-3.735,2.25-6.336,2.136c-2.633-0.115-4.69-1.006-6.174-2.673C116.356,14.081,115.676,11.844,115.799,9.042z M119.489,9.083c-0.088,1.994,0.311,3.525,1.191,4.595s2.034,1.636,3.461,1.698c1.427,0.063,2.619-0.396,3.579-1.377 c0.959-0.979,1.484-2.492,1.573-4.533c0.089-2.018-0.29-3.542-1.138-4.573c-0.848-1.032-2.008-1.58-3.482-1.646 c-1.474-0.063-2.687,0.386-3.631,1.352C120.095,5.562,119.578,7.058,119.489,9.083z"/>
</g>
<g>
<path d="M137.583,18.913l-2.334-17.983l3.658,0.385l1.373,12.329l4.486-11.712l4.236,0.445l1.807,12.581l3.994-11.97l3.582,0.377 l-6.116,17.094l-3.792-0.398l-2.127-13.485l-4.883,12.747L137.583,18.913z"/>
</g>
<g>
<path stroke="#231F20" stroke-width="0.246" d="M137.583,18.913l-2.334-17.983l3.658,0.385l1.373,12.329l4.486-11.712 l4.236,0.445l1.807,12.581l3.994-11.97l3.582,0.377l-6.116,17.094l-3.792-0.398l-2.127-13.485l-4.883,12.747L137.583,18.913z"/>
</g>
<g>
<path d="M158.119,21.258l2.853-17.408l3.424,0.561l5.262,12.825l1.908-11.65l3.27,0.536l-2.854,17.408l-3.531-0.579 l-5.195-12.543l-1.865,11.387L158.119,21.258z"/>
</g>
<g>
<path stroke="#231F20" stroke-width="0.246" d="M158.119,21.258l2.853-17.408l3.424,0.561l5.262,12.825l1.908-11.65l3.27,0.536 l-2.854,17.408l-3.531-0.579l-5.195-12.543l-1.865,11.387L158.119,21.258z"/>
</g>
<g>
<path d="M182.182,25.579l3.947-17.193l11.863,2.725l-0.668,2.909l-8.376-1.923l-0.935,4.065l7.234,1.661l-0.668,2.909 l-7.233-1.661l-1.679,7.31L182.182,25.579z"/>
</g>
<g>
<path stroke="#231F20" stroke-width="0.246" d="M182.182,25.579l3.947-17.193l11.863,2.725l-0.668,2.909l-8.376-1.923 l-0.935,4.065l7.234,1.661l-0.668,2.909l-7.233-1.661l-1.679,7.31L182.182,25.579z"/>
</g>
<g>
<path d="M194.096,28.364l0.827-3.272l3.287,0.831l-0.827,3.272L194.096,28.364z"/>
</g>
<g>
<path stroke="#231F20" stroke-width="0.246" d="M194.096,28.364l0.827-3.272l3.287,0.831l-0.827,3.272L194.096,28.364z"/>
</g>
<g>
<path d="M213.367,26.879l3.031,2.01c-1.044,1.706-2.289,2.84-3.736,3.398c-1.447,0.56-3.085,0.575-4.913,0.05 c-2.264-0.649-3.9-1.953-4.915-3.907c-1.016-1.956-1.14-4.269-0.372-6.935c0.81-2.82,2.171-4.801,4.084-5.94 c1.912-1.141,4.062-1.368,6.447-0.683c2.084,0.6,3.601,1.697,4.551,3.295c0.565,0.946,0.849,2.153,0.847,3.62l-3.642-0.168 c0.051-0.935-0.171-1.748-0.663-2.438c-0.493-0.691-1.197-1.168-2.11-1.432c-1.263-0.362-2.416-0.207-3.46,0.469 c-1.046,0.676-1.856,2.022-2.437,4.04c-0.615,2.143-0.667,3.777-0.152,4.909c0.513,1.131,1.39,1.875,2.629,2.231 c0.914,0.263,1.783,0.199,2.608-0.191C211.99,28.818,212.722,28.041,213.367,26.879z"/>
</g>
<g>
<path stroke="#231F20" stroke-width="0.246" d="M213.367,26.879l3.031,2.01c-1.044,1.706-2.289,2.84-3.736,3.398 c-1.447,0.56-3.085,0.575-4.913,0.05c-2.264-0.649-3.9-1.953-4.915-3.907c-1.016-1.956-1.14-4.269-0.372-6.935 c0.81-2.82,2.171-4.801,4.084-5.94c1.912-1.141,4.062-1.368,6.447-0.683c2.084,0.6,3.601,1.697,4.551,3.295 c0.565,0.946,0.849,2.153,0.847,3.62l-3.642-0.168c0.051-0.935-0.171-1.748-0.663-2.438c-0.493-0.691-1.197-1.168-2.11-1.432 c-1.263-0.362-2.416-0.207-3.46,0.469c-1.046,0.676-1.856,2.022-2.437,4.04c-0.615,2.143-0.667,3.777-0.152,4.909 c0.513,1.131,1.39,1.875,2.629,2.231c0.914,0.263,1.783,0.199,2.608-0.191C211.99,28.818,212.722,28.041,213.367,26.879z"/>
</g>
<g>
<path d="M217.649,35.02l1.033-3.213l3.229,1.039l-1.034,3.212L217.649,35.02z"/>
</g>
<g>
<path stroke="#231F20" stroke-width="0.246" d="M217.649,35.02l1.033-3.213l3.229,1.039l-1.034,3.212L217.649,35.02z"/>
</g>
</g>
</g>
</svg>
