<?xml version="1.0" encoding="UTF-8"?>
<svg id="Layer_2" data-name="Layer 2" xmlns="http://www.w3.org/2000/svg" viewBox="0 0 160.24 160.24">
  <defs>
    <style>
      .cls-1 {
        fill: #ed2129;
      }

      .cls-1, .cls-2, .cls-3 {
        fill-rule: evenodd;
        stroke-width: 0px;
      }

      .cls-2 {
        fill: #231f20;
      }

      .cls-3 {
        fill: #fff;
      }
    </style>
  </defs>
  <g id="Layer_1-2" data-name="Layer 1">
    <g>
      <path class="cls-1" d="M80.12,0C124.36,0,160.24,35.88,160.24,80.12s-35.88,80.12-80.12,80.12S0,124.36,0,80.12,35.88,0,80.12,0h0Z"/>
      <path class="cls-2" d="M14.68,33.99l5.75,14.64c4.11-1.39,8.21-2.63,12.32-3.57,4.49-1.03,8.98-1.7,13.48-1.84,5.72-10.63,13.26-19.17,22.31-25.97l-3.94-10.75c-4.33-1.05-9.74-1.04-14.28-.7C58.65,2.29,69.19.1,78.55,0c-4.47,1.2-8.69,2.95-12.06,6.64l3.76,10.23c11.47,1.23,22.09,5.31,31.49,13.44.87-.22,1.75-.44,2.64-.64,1.39-.31,2.78-.59,4.15-.82,5.87-1.01,11.96-1.46,17.68-1.33.16-5.8-.2-9.65-2.97-14.86,13.37,9.03,26.18,21.71,33.42,43.77-2.41-1.39-4.86-2.32-7.28-2.06-.29,4.74-.74,9.43-1.38,14.05-.66,4.73-1.53,9.39-2.64,13.96,3.98,6.07,5.16,15.16,4.98,25.72l5.42-1.57c-.21.72-.46,1.4-.77,2.02l-5.17,1.46c-4.79,10.49-11.37,17.69-19.75,21.62-2,9.26-5.5,15.08-9.95,17.9-1.85,1.07-3.71,2-5.56,2.88,7.5-5.85,12.13-12.23,13.51-20.42-7.08-2.23-13.12-6.22-18.26-11.69-7.44,3.29-15.56,5.46-24.28,6.53-1.75.21-3.54.39-5.37.51-1.04.07-2.1.13-3.18.17-1.72,7.28-5.9,12.32-11.27,16.27,4.96,9.22,14.56,14.06,25.73,15.65l-4.77.54c-10.27-1.79-17.76-7.04-22.48-15.76-9.25.12-18.75-3.13-26.41-9.57-4.27,2.62-8.33,4.03-12.71,3.65l-1.77-1.77c4.38.66,8.89-.64,13.31-3.2-4.97-7.72-8.18-16.41-9.61-26.06-4.12-3.52-7.41-7.46-10.08-11.7-2.46-3.91-4.4-8.08-5.99-12.41-4.15,1.99-7.32,5.43-9.88,9.63-3.22-20.83,1.04-40.54,13.65-58.81h0ZM101.79,62.66h0c-.33-.27-.65-.53-.98-.78-11.96,4.48-24.22,7.28-36.69,8.94-2.47,4.68-4.22,9.63-5.46,14.78-1.34,5.58-2.09,11.4-2.5,17.35,3.08,6.08,8.91,13.33,20.12,22.87,1.25-.04,2.51-.11,3.77-.19,1.77-.12,3.53-.29,5.28-.51,8.54-1.05,16.49-3.17,23.75-6.38,5.03-11.29,9-22.57,11.15-33.85-2.7-4.87-5.68-9.15-8.91-12.94-2.06-2.42-4.22-4.63-6.47-6.67h0s-3.06-2.61-3.06-2.61h0ZM102.86,61.29h0s.28.23.28.23c.75.61,1.49,1.24,2.22,1.88l.15.12h0c2.49,2.21,4.87,4.63,7.13,7.28,3.38,3.96,6.49,8.45,9.29,13.56,7.29.62,14.57.06,21.86-2.86,1.05-4.38,1.87-8.83,2.5-13.33.69-4.88,1.15-9.84,1.43-14.86-5.03-10.52-11.62-18.53-19.79-24-6.1-.28-12.72.15-19.08,1.25-1.4.24-2.76.51-4.07.8-.7.16-1.4.32-2.1.5,1.1,9.09.66,18.51-1.3,28.26.5.38,1,.77,1.49,1.17h0ZM46.37,44.96c-4.4.13-8.81.79-13.23,1.8-4.35.99-8.7,2.33-13.05,3.82-4.92,9.58-7.34,19.94-7.96,30.85,1.63,4.64,3.63,9.09,6.23,13.22,2.44,3.88,5.41,7.48,9.08,10.74,9.72.15,19.72.21,27.07-3.73.44-5.62,1.18-11.14,2.46-16.46,1.31-5.46,3.19-10.72,5.87-15.68-7.05-7.54-12.66-15.51-16.48-24.56h0Z"/>
      <path class="cls-3" d="M147.1,54.06c-1.38,5.96-6.79,12.31-12.97,13.22-1.54.28-3.2.4-4.86.23,1.27-1.93,2.37-3.86,3.92-5.62,5.74.23,10.04-3.46,13.85-7.83h.06Z"/>
      <path class="cls-3" d="M41.04,56.22c.94,2.21.11,4.71-1.55,6.35-.61.57-1.55,1.02-2.37.62-.72-.4-1.16-1.13-1.1-2.04.11-1.36,1.16-2.61,2.37-3.12.33-.11.72-.17,1.1-.23-.06-.4-.33-.79-.66-1.02-.61-.34-1.32-.06-1.88.23-5.52,3.12-9.55,9.02-12.53,14.35-2.65,5.16-5.13,10.55-4.8,16.96.28,2.44,1.21,5.05,3.59,6.24,1.38.62,2.87.85,4.41.91,1.99,0,3.86-.51,5.68-.96,8.17-2.38,16.44-5.73,25.71-4.2,5.02.85,9.82,3.69,12.69,8.45-4.75-1.7-11.37-2.72-16.06-.17-1.88-3.01-4.91-4.82-8.33-4.76-4.25.17-8.17,1.25-12.08,2.33-4.69,1.3-9.44,2.89-14.68,2.04-3.86-.68-7.06-4.76-7.78-8.51-.83-3.63-.11-7.54,1.05-10.78,2.76-7.32,7.01-14.18,13.35-19.74,3.03-2.44,6.24-4.42,10.04-4.76,1.55-.06,3.09.34,3.81,1.81h0Z"/>
      <path class="cls-3" d="M80.72,69.89c-.39.68-1.05.79-1.82.74l-3.64-.06,2.1-4.37c.39-.51.94-.79,1.54-.79h4.08l-2.26,4.48h0Z"/>
      <path class="cls-3" d="M3.24,102.64c37.86,7.61,69.93,6.64,91.6-6.86l2.9,3.96c-24.69,16.65-53.62,23.48-86.06,21.83-3.84-5.62-6.6-12.03-8.45-18.93h0Z"/>
      <path class="cls-3" d="M123.61,76.77c11.03-8.04,22.4-13.53,34.05-16.89,1.05,4.05,1.87,8.1,2.11,12.14-14.5-2.58-25.56,1.02-35.37,6.86l-.79-2.11h0Z"/>
      <path class="cls-3" d="M143.79,89.62c.73,0,1.45.19,2.15.56.7.38,1.24.92,1.63,1.62.39.7.59,1.43.59,2.19s-.19,1.48-.58,2.17c-.38.7-.92,1.24-1.62,1.62-.69.39-1.42.58-2.18.58s-1.48-.19-2.18-.58c-.69-.38-1.23-.92-1.62-1.62-.39-.69-.58-1.42-.58-2.17s.2-1.49.59-2.19c.39-.7.94-1.24,1.64-1.62.7-.38,1.42-.56,2.15-.56h0ZM143.79,90.35c-.62,0-1.21.16-1.79.47-.58.31-1.04.77-1.37,1.35-.33.59-.49,1.2-.49,1.83s.16,1.23.48,1.81c.32.58.77,1.03,1.35,1.35.58.32,1.18.49,1.81.49s1.24-.16,1.81-.49c.58-.32,1.03-.77,1.35-1.35.32-.58.48-1.18.48-1.81s-.16-1.24-.49-1.83c-.33-.58-.78-1.04-1.37-1.35-.58-.31-1.18-.47-1.79-.47h0ZM141.87,96.42v-4.71h1.62c.55,0,.95.04,1.2.13.25.09.44.24.59.46.15.22.22.45.22.69,0,.34-.12.64-.37.9-.25.25-.57.4-.98.43.17.07.3.15.4.25.19.19.42.5.7.93l.57.92h-.93l-.42-.74c-.33-.58-.59-.95-.79-1.09-.14-.11-.34-.16-.61-.16h-.45v2h-.76ZM142.63,93.77h.92c.44,0,.74-.07.9-.2.16-.13.24-.3.24-.52,0-.14-.04-.26-.12-.37-.08-.11-.18-.19-.32-.25-.14-.05-.39-.08-.76-.08h-.86v1.42h0Z"/>
      <path class="cls-3" d="M138.05,55.42c.44,1.08-.05,2.16-.77,3.01-.33.17-.61.62-.99.4.05-.45.55-.79.72-1.19.11-.28.17-.62.06-.85-.11-.23-.28-.06-.44-.06-2.43,1.93-4.3,4.48-6.13,6.92-5.19,7.43-9.38,15.31-11.75,23.93-.33,1.42-.77,2.89-.72,4.48.11.28.17.57.5.74.55.11.94-.34,1.38-.74,1.05-1.19,1.93-2.5,2.87-3.8l3.86-6.01c1.71-2.61,4.19-5.45,7.17-6.07,1.16-.17,2.15.23,2.98.96l.66-.91,4.91.06-7.67,15.48c0,.11-.11.34,0,.51.11.17.33.17.5.06,1.27-.79,2.1-2.16,2.98-3.35.55-.85,1.21-1.99,1.32-2.67h1.77c-.66,2.95-2.48,5.45-4.47,7.83-1.54,1.59-3.09,3.06-5.02,3.57-.66.11-1.38.06-1.88-.34-.66-.62-.88-1.47-1.05-2.27-1.49,1.42-2.98,2.78-5.08,2.61-.88-.11-1.66-1.02-1.93-1.82-.28-.74-.33-1.53-.44-2.33-.77,1.36-2.1,2.61-3.37,3.57-.88.57-2.32.79-3.31.28-2.48-1.25-2.15-4.37-2.04-6.86.22-1.47.61-2.78.94-4.2-.72.23-1.49.28-2.32.23-1.77,3.46-3.42,7.09-6.62,9.81-1.44,1.25-3.53,1.93-5.41,1.19-1.27-.4-1.77-1.82-1.82-3.12-.05-3.86,1.44-7.2,3.2-10.32,2.04-3.23,5.02-7.03,8.72-8,1.32-.23,2.54.23,3.26,1.36,1.1,2.16.28,4.88-.33,7.03.28.11.61,0,.88,0,.39-.11.72-.23,1.05-.45,3.15-10.04,8.88-19.06,16.67-27.11,1.49-1.3,3.09-2.33,4.97-2.67.94,0,1.82.23,2.21,1.08h0Z"/>
      <path class="cls-1" d="M111.18,79.42c.33,1.47-.28,2.84-.72,4.14-.06.11-.11.23-.22.34-.94-.06-1.77-.62-2.32-1.47-.39-.74-.11-1.7.33-2.33.55-.79,1.32-1.42,2.26-1.19.28.06.55.28.66.51h0Z"/>
      <path class="cls-1" d="M135.46,79.02c.5.51.11,1.3-.16,1.99l-3.31,6.64c-1.21,1.93-1.99,4.2-3.97,5.62-.17.11-.5.17-.72,0-.44-.34-.39-1.02-.28-1.59.83-4.08,2.98-7.6,5.57-10.89.66-.79,1.43-1.59,2.32-1.93.22,0,.39,0,.55.17h0Z"/>
      <path class="cls-1" d="M109.3,85.99c-.83,2.21-2.1,4.25-3.75,6.13-.72.62-1.49,1.42-2.48,1.02-.72-.57-.5-1.76-.33-2.61.61-2.55,1.71-4.93,3.31-7.09.83,1.25,2.1,1.93,3.26,2.55h0Z"/>
      <path class="cls-3" d="M40.77,66.6c1.32,1.99.88,4.99.11,7.03,3.09.62,4.58-2.84,6.62-4.65,2.04-2.04,4.14-4.08,7.12-3.8.94.17,1.88.85,2.26,1.81.77,2.1-.11,4.37-1.54,5.9-.5.51-1.21.79-1.93.45-.44-.17-.83-.62-.88-1.13-.11-1.08.22-2.04.99-2.72.5-.4,1.16-.62,1.88-.57.06-.4-.28-.74-.61-.96-.94-.28-1.6.57-2.26,1.19-2.59,3.06-4.41,6.41-5.79,10.04-.33,1.3-.77,3.18.22,4.31.99.62,2.04-.06,2.87-.51,3.7-2.44,5.79-6.52,8.17-9.98,2.48-3.23,5.35-8.45,10.1-7.66.55.17,1.05.51,1.43,1.02l.5-.96h5.08l-7.84,16.28c-.06.17-.11.4,0,.51.33.28.66-.06.94-.23,1.82-1.7,3.04-3.69,3.92-5.79h2.21c-1.38,3.57-3.7,6.86-6.84,9.53-1.32,1.13-2.92,2.04-4.8,1.59-.55-.23-1.05-.85-1.16-1.42-.06-.34-.11-.68-.11-1.02-1.38,1.76-3.2,2.78-5.35,2.55-.94-.17-1.93-.91-2.26-1.87-.44-.96-.28-2.27-.11-3.35h-.06c-2.48,2.5-5.08,4.76-8.39,5.16-1.6.06-3.04-.51-3.92-1.93-1.32-2.27-.5-5.39.39-7.54l.72-1.82c-.83.06-1.71,0-2.48-.23-1.49,3.12-3.15,6.18-5.68,8.79-1.71,2.04-4.14,3.46-6.68,2.44-1.82-.91-2.1-3.01-1.93-4.93.61-4.93,3.04-9.07,6.13-12.93,1.82-2.04,3.75-3.86,6.35-4.08,1.05,0,1.99.51,2.65,1.47h0Z"/>
      <path class="cls-1" d="M39.66,68.81c.33.96,0,1.99-.17,2.84-.22.57-.39,1.19-.66,1.7-.99.06-1.82-.62-2.37-1.42-.44-.68-.11-1.59.22-2.27.55-.79,1.38-1.53,2.37-1.25.22.06.44.17.61.4h0Z"/>
      <path class="cls-1" d="M37.79,75.45c-.66,2.1-1.88,3.91-3.31,5.73-.72.79-1.49,1.59-2.59,1.53-.22-.06-.5-.23-.61-.45-.39-.91-.05-2.04.17-2.95.61-2.33,1.66-4.42,3.14-6.35.83,1.19,2.04,1.93,3.2,2.5h0Z"/>
      <path class="cls-1" d="M68.08,68.19c.33.62.17,1.3-.17,1.99-1.82,3.63-3.48,7.32-5.74,10.78-.61.68-1.32,1.87-2.32,1.47-.44-.57-.28-1.42-.17-2.04.94-3.8,2.98-7.15,5.41-10.32.72-.79,1.49-1.7,2.43-2.04.22,0,.44,0,.55.17h0Z"/>
      <path class="cls-3" d="M126.91,59.68c-1.38,1.64-2.76,3.23-3.86,4.93-4.41-1.59-7.34-7.09-12.42-7.09-.83,0-1.66.06-2.43.17.22,5.45-1.6,10.21-5.57,13.84-1.27,1.02-2.81,1.93-4.47,1.25-1.49-.74-1.71-2.44-1.54-4.03.77-4.65,3.92-8.68,7.78-11.57-1.05-.28-1.93.34-2.81.79-7.01,4.88-11.7,12.36-15.34,19.45-1.71,3.69-3.31,7.43-3.64,11.68-.05,1.93.11,3.8,1.6,4.99,1.38,1.02,3.37.51,4.69-.28,4.19-3.06,6.68-7.6,7.45-12.42.11-.85.11-1.81-.55-2.32-1.05-.28-1.93.57-2.65,1.3-1.16,1.64-1.54,3.63-1.77,5.61-2.26.91-4.41,2.89-5.85,5.05-.55-3.63.61-6.92,2.21-9.81,1.66-2.61,4.3-5.67,7.67-5.1,1.05.23,2.1.96,2.48,1.99.88,2.27,0,4.82-.5,6.98-1.27,4.54-4.47,8.73-8.5,11.63-2.43,1.59-6.07,2.1-8.77.79-3.48-1.76-4.19-5.67-3.92-9.42.77-7.49,4.08-13.95,8.28-20.02,4.3-6.01,10.15-11.46,16.72-13.44,2.04-.51,4.52-.62,6.01,1.08,3.75-1.64,9.16-2.33,12.97-.28,2.37,1.08,4.41,2.95,6.73,4.25h0Z"/>
      <path class="cls-1" d="M106.16,58.77c.17,2.78-.66,5.27-1.82,7.6-.94,1.7-2.26,3.52-4.03,4.59-.28.11-.55.34-.94.23-1.05-.23-.72-2.55-.39-3.63.77-2.27,2.21-4.2,3.75-6.12.99-1.19,2.15-2.1,3.42-2.67h0Z"/>
    </g>
  </g>
</svg>