<svg width="206" height="303" viewBox="0 0 206 303" fill="none" xmlns="http://www.w3.org/2000/svg">
<g clip-path="url(#clip0_1478_183759)">
<path d="M185.894 302.5V284.752H161.819V225.545H142.49V290.626C142.49 297.19 147.862 302.5 154.489 302.5H185.894ZM23.2922 290.626C23.2922 297.19 28.6687 302.5 35.2964 302.5H70.0833V284.752H42.6312V272.798H67.8707V254.88H42.6312V243.394H70.2054V225.545H23.2871V290.626H23.2922ZM95.338 302.5C88.7103 302.5 83.3338 297.185 83.3338 290.626V225.545H130.486V243.394H102.678V254.89H127.917V272.798H102.678V302.5H95.338Z" fill="#BB1731"/>
<path d="M169.499 134.648C164.616 134.648 160.659 138.564 160.659 143.391C160.659 148.218 164.616 152.139 169.499 152.139C174.383 152.139 178.335 148.223 178.335 143.391C178.335 138.559 174.372 134.648 169.499 134.648ZM173.833 156.881C169.169 156.881 165.384 160.625 165.384 165.241C165.384 169.856 169.169 173.601 173.833 173.601C178.498 173.601 182.282 169.856 182.282 165.241C182.282 160.625 178.498 156.881 173.833 156.881ZM156.32 168.477C150.74 168.477 146.213 172.957 146.213 178.479C146.213 184 150.735 188.48 156.32 188.48C161.905 188.48 166.432 184 166.432 178.479C166.432 172.957 161.905 168.477 156.32 168.477ZM133.95 178.297C127.953 178.297 123.085 183.104 123.085 189.039C123.085 194.973 127.948 199.79 133.95 199.79C139.952 199.79 144.804 194.978 144.804 189.039C144.804 183.099 139.942 178.297 133.95 178.297ZM107.973 181.77C101.528 181.77 96.299 186.94 96.299 193.322C96.299 199.704 101.528 204.873 107.973 204.873C114.417 204.873 119.646 199.704 119.646 193.322C119.646 186.94 114.422 181.77 107.973 181.77ZM93.3183 154.877C85.8869 154.877 79.8542 160.842 79.8542 168.195C79.8542 175.549 85.8818 181.519 93.3183 181.519C100.755 181.519 106.782 175.554 106.782 168.195C106.782 160.837 100.75 154.877 93.3183 154.877ZM149.611 144.68C143.711 144.68 138.934 149.411 138.934 155.25C138.934 161.088 143.716 165.82 149.611 165.82C155.506 165.82 160.293 161.088 160.293 155.25C160.293 149.411 155.511 144.68 149.611 144.68ZM197.175 65.3896C195.548 65.3896 194.23 66.6983 194.23 68.309C194.23 69.9197 195.548 71.2233 197.175 71.2233C198.803 71.2233 200.126 69.9146 200.126 68.309C200.126 66.7033 198.808 65.3896 197.175 65.3896ZM198.198 74.948C195.761 74.948 193.788 76.9059 193.788 79.3169C193.788 81.7278 195.761 83.6808 198.198 83.6808C200.634 83.6808 202.608 81.7278 202.608 79.3169C202.608 76.9059 200.634 74.948 198.198 74.948ZM191.656 85.8552C188.518 85.8552 185.985 88.3668 185.985 91.4673C185.985 94.5679 188.523 97.0795 191.656 97.0795C194.79 97.0795 197.328 94.5628 197.328 91.4673C197.328 88.3718 194.785 85.8552 191.656 85.8552ZM202.262 87.2192C200.461 87.2192 199.007 88.6588 199.007 90.4405C199.007 92.2224 200.461 93.6619 202.262 93.6619C204.063 93.6619 205.512 92.2224 205.512 90.4405C205.512 88.6588 204.057 87.2192 202.262 87.2192ZM202.486 108.928C200.543 108.928 198.966 110.488 198.966 112.416C198.966 114.344 200.538 115.894 202.486 115.894C204.434 115.894 206.011 114.334 206.011 112.416C206.011 110.498 204.439 108.928 202.486 108.928ZM199.576 97.2355C196.972 97.2355 194.866 99.3244 194.866 101.896C194.866 104.468 196.972 106.562 199.576 106.562C202.181 106.562 204.286 104.473 204.286 101.896C204.286 99.3193 202.175 97.2355 199.576 97.2355ZM192.13 111.45C189.286 111.45 186.987 113.73 186.987 116.543C186.987 119.357 189.286 121.632 192.13 121.632C194.973 121.632 197.272 119.352 197.272 116.543C197.272 113.735 194.968 111.45 192.13 111.45ZM198.442 122.276C195.797 122.276 193.661 124.395 193.661 127.013C193.661 129.63 195.802 131.749 198.442 131.749C201.082 131.749 203.223 129.63 203.223 127.013C203.223 124.395 201.082 122.276 198.442 122.276ZM193.961 133.954C191.051 133.954 188.686 136.289 188.686 139.173C188.686 142.057 191.046 144.388 193.961 144.388C196.875 144.388 199.23 142.052 199.23 139.173C199.23 136.294 196.875 133.954 193.961 133.954ZM186.056 145.108C182.374 145.108 179.383 148.067 179.383 151.711C179.383 155.355 182.374 158.315 186.056 158.315C189.739 158.315 192.73 155.36 192.73 151.711C192.73 148.062 189.744 145.108 186.056 145.108ZM183.33 123.993C179.581 123.993 176.539 127.003 176.539 130.712C176.539 134.422 179.581 137.427 183.33 137.427C187.079 137.427 190.115 134.417 190.115 130.712C190.115 127.008 187.079 123.993 183.33 123.993ZM183.233 98.0006C179.322 98.0006 176.148 101.136 176.148 105.007C176.148 108.878 179.322 112.013 183.233 112.013C187.145 112.013 190.319 108.878 190.319 105.007C190.319 101.136 187.15 98.0006 183.233 98.0006ZM170.502 109.758C165.557 109.758 161.544 113.73 161.544 118.622C161.544 123.515 165.552 127.486 170.502 127.486C175.451 127.486 179.464 123.52 179.464 118.622C179.464 113.725 175.446 109.758 170.502 109.758ZM151.239 119.322C145.242 119.322 140.384 124.129 140.384 130.058C140.384 135.987 145.242 140.799 151.239 140.799C157.236 140.799 162.088 135.992 162.088 130.058C162.088 124.124 157.231 119.322 151.239 119.322ZM123.573 151.46C116.508 151.46 110.78 157.127 110.78 164.113C110.78 171.1 116.508 176.772 123.573 176.772C130.638 176.772 136.361 171.1 136.361 164.113C136.361 157.127 130.638 151.46 123.573 151.46ZM124.718 122.08C117.495 122.08 111.635 127.878 111.635 135.031C111.635 142.183 117.495 147.982 124.718 147.982C131.94 147.982 137.81 142.188 137.81 135.031C137.81 127.873 131.951 122.08 124.718 122.08ZM107.571 136.118C107.571 144.126 101.004 150.624 92.9114 150.624C84.8187 150.624 78.252 144.131 78.252 136.118C78.252 128.105 84.8136 121.612 92.9114 121.612C101.009 121.612 107.571 128.11 107.571 136.118Z" fill="#283270"/>
<path d="M105.277 16.7881C100.399 16.7881 96.4368 20.704 96.4368 25.531C96.4368 30.3579 100.394 34.2789 105.277 34.2789C110.16 34.2789 114.113 30.363 114.113 25.531C114.113 20.704 110.155 16.7881 105.277 16.7881ZM122.226 2.53365C117.561 2.53365 113.777 6.27845 113.777 10.894C113.777 15.5096 117.561 19.2544 122.226 19.2544C126.89 19.2544 130.669 15.5096 130.669 10.894C130.669 6.27845 126.885 2.53365 122.22 2.53365M142.562 9.27329C136.977 9.27329 132.45 13.7479 132.45 19.2745C132.45 24.8011 136.977 29.2808 142.562 29.2808C148.147 29.2808 152.674 24.8062 152.669 19.2745C152.669 13.753 148.142 9.27329 142.562 9.27329ZM162.989 22.4254C156.992 22.4254 152.129 27.2373 152.129 33.1716C152.129 39.1059 156.992 43.9177 162.989 43.9177C168.986 43.9177 173.854 39.1059 173.854 33.1716C173.854 27.2373 168.991 22.4254 162.989 22.4254ZM179.724 41.7433C173.279 41.7433 168.05 46.9176 168.05 53.2948C168.05 59.6721 173.279 64.8514 179.724 64.8514C186.169 64.8514 191.403 59.6771 191.403 53.2948C191.403 46.9126 186.179 41.7433 179.724 41.7433ZM165.064 65.0929C157.633 65.0929 151.605 71.0625 151.605 78.4162C151.605 85.7699 157.633 91.7394 165.064 91.7394C172.496 91.7394 178.529 85.7749 178.529 78.4162C178.529 71.0574 172.501 65.0929 165.064 65.0929ZM125.588 26.0796C119.687 26.0796 114.911 30.8109 114.911 36.6446C114.911 42.4782 119.687 47.2146 125.588 47.2146C131.488 47.2146 136.27 42.4832 136.27 36.6446C136.27 30.8059 131.488 26.0746 125.588 26.0796ZM25.7185 36.4432C24.0909 36.4432 22.7734 37.7469 22.7734 39.3575C22.7734 40.9682 24.0909 42.2769 25.7185 42.2769C27.3462 42.2769 28.6637 40.9682 28.6637 39.3575C28.6637 37.7469 27.3462 36.4432 25.7185 36.4432ZM34.8438 28.6164C32.4023 28.6164 30.4287 30.5693 30.4287 32.9803C30.4287 35.3913 32.4023 37.3492 34.8438 37.3492C37.2854 37.3492 39.2538 35.3963 39.2538 32.9803C39.2538 30.5643 37.2803 28.6164 34.8438 28.6164ZM48.7555 26.9C45.6171 26.9 43.0789 29.4167 43.0789 32.5122C43.0789 35.6077 45.6171 38.1244 48.7555 38.1244C51.8939 38.1244 54.427 35.6127 54.427 32.5122C54.427 29.4117 51.8837 26.9 48.7555 26.9ZM42.5499 20.7141C40.7544 20.7141 39.2996 22.1536 39.2996 23.9304C39.2996 25.7071 40.7544 27.1517 42.5499 27.1517C44.3455 27.1517 45.8053 25.7122 45.8053 23.9304C45.8053 22.1486 44.3557 20.7141 42.5499 20.7141ZM61.7364 9.38402C59.7933 9.38402 58.2165 10.9444 58.2165 12.8671C58.2165 14.7898 59.7933 16.3502 61.7364 16.3502C63.6794 16.3502 65.2512 14.7898 65.2512 12.8671C65.2512 10.9444 63.6794 9.38402 61.7364 9.38402ZM53.9184 15.8418C51.314 15.8418 49.2082 17.9256 49.2082 20.5027C49.2082 23.0797 51.314 25.1686 53.9184 25.1686C56.5227 25.1686 58.6285 23.0797 58.6285 20.5077C58.6285 17.9357 56.5227 15.8468 53.9184 15.8468M70.4547 14.4828C67.6164 14.4828 65.3071 16.7629 65.3071 19.5715C65.3071 22.3801 67.6113 24.6602 70.4547 24.6602C73.2981 24.6602 75.5972 22.3851 75.5972 19.5715C75.5972 16.7579 73.2981 14.4828 70.4547 14.4828ZM76.4619 4.18962C73.8169 4.18962 71.6755 6.30865 71.6755 8.92599C71.6755 11.5383 73.8169 13.6573 76.4619 13.6573C79.1069 13.6573 81.2433 11.5383 81.2433 8.92599C81.2433 6.31369 79.1018 4.18962 76.4619 4.18962ZM89.3411 1.46659C86.4265 1.46659 84.0663 3.80205 84.0663 6.68112C84.0663 9.56019 86.4265 11.8957 89.3411 11.8957C92.2557 11.8957 94.6107 9.56019 94.6107 6.68112C94.6158 3.80205 92.2506 1.46659 89.3411 1.46659ZM104.265 0.510254C100.577 0.510254 97.5864 3.46985 97.5864 7.11399C97.5864 10.7581 100.577 13.7177 104.265 13.7177C107.953 13.7177 110.939 10.7581 110.939 7.11399C110.939 3.46985 107.948 0.510254 104.265 0.510254ZM87.2505 13.31C83.4966 13.31 80.4599 16.32 80.4599 20.0295C80.4599 23.7391 83.4966 26.744 87.2505 26.744C91.0044 26.744 94.0309 23.7391 94.0309 20.0295C94.0309 16.32 90.9942 13.31 87.2505 13.31ZM64.7985 25.9538C60.8869 25.9538 57.718 29.0946 57.718 32.9602C57.718 36.8258 60.8869 39.9716 64.8036 39.9716C68.7202 39.9716 71.884 36.8358 71.884 32.9602C71.884 29.0845 68.7151 25.9538 64.7985 25.9538ZM83.0795 28.1986C78.1303 28.1986 74.1221 32.1699 74.1221 37.0623C74.1221 41.9598 78.1303 45.926 83.0795 45.926C88.0287 45.926 92.0369 41.9547 92.0369 37.0623C92.0369 32.1699 88.0287 28.1986 83.0795 28.1986ZM102.719 37.1177C96.7267 37.1177 91.8691 41.9296 91.8691 47.8588C91.8691 53.7881 96.7267 58.6 102.719 58.6C108.711 58.6 113.568 53.7931 113.568 47.8588C113.568 41.9245 108.711 37.1177 102.719 37.1177ZM146.356 41.8843C139.291 41.8843 133.569 47.5468 133.569 54.5381C133.569 61.5243 139.291 67.1918 146.356 67.1918C153.421 67.1918 159.144 61.5243 159.149 54.5381C159.149 47.5468 153.421 41.8792 146.356 41.8843ZM120.328 55.1471C113.1 55.1471 107.241 60.9455 107.241 68.0979C107.241 75.2502 113.1 81.0486 120.328 81.0486C127.556 81.0486 133.421 75.2502 133.416 68.0979C133.416 60.9455 127.556 55.1471 120.328 55.1471ZM137.18 80.3087C129.087 80.3087 122.526 86.8067 122.526 94.8198C122.526 102.833 129.087 109.321 137.18 109.321C145.273 109.321 151.839 102.823 151.839 94.8198C151.839 86.8168 145.273 80.3087 137.18 80.3087Z" fill="#283270"/>
<path d="M34.2332 130.753C29.3501 130.753 25.3928 134.668 25.3928 139.495C25.3928 144.322 29.3501 148.243 34.2332 148.243C39.1112 148.243 43.0736 144.327 43.0736 139.495C43.0736 134.663 39.1163 130.753 34.2383 130.753M12.9511 123.932C8.28676 123.932 4.50237 127.672 4.50237 132.293C4.50237 136.913 8.28676 140.653 12.9511 140.653C17.6155 140.653 21.3999 136.913 21.3999 132.293C21.3999 127.672 17.6155 123.932 12.9511 123.932ZM10.1179 100.663C4.53289 100.663 0.00585938 105.143 0.00585938 110.664C0.00585938 116.186 4.53289 120.671 10.1179 120.671C15.7029 120.671 20.2249 116.196 20.2249 110.664C20.2249 105.133 15.6979 100.663 10.1179 100.663ZM12.061 75.4664C6.06393 75.4664 1.2012 80.2783 1.2012 86.2126C1.2012 92.1469 6.06393 96.9587 12.061 96.9587C18.058 96.9587 22.9258 92.1469 22.9207 86.2126C22.9207 80.2783 18.058 75.4664 12.061 75.4664ZM21.3032 50.2595C14.8535 50.2595 9.62452 55.4337 9.62452 61.816C9.62452 68.1983 14.8535 73.3675 21.3032 73.3675C27.753 73.3675 32.9768 68.1932 32.9768 61.816C32.9768 55.4388 27.7479 50.2595 21.3032 50.2595ZM50.6221 48.4978C43.1906 48.4978 37.158 54.4623 37.158 61.816C37.158 69.1697 43.1855 75.1392 50.6272 75.1392C58.0688 75.1392 64.0862 69.1747 64.0862 61.816C64.0862 54.4573 58.0586 48.4978 50.6221 48.4978ZM33.806 105.963C27.9056 105.963 23.1242 110.7 23.1242 116.533C23.1242 122.367 27.9056 127.103 33.806 127.103C39.7063 127.103 44.4877 122.372 44.4877 116.533C44.4877 110.695 39.7013 105.963 33.806 105.963ZM86.116 197.847C84.4832 197.847 83.1658 199.156 83.1658 200.766C83.1658 202.377 84.4883 203.68 86.1109 203.68C87.7335 203.68 89.0611 202.377 89.0611 200.766C89.0611 199.156 87.7437 197.847 86.116 197.847ZM75.9734 191.767C73.5319 191.767 71.5583 193.72 71.5583 196.13C71.5583 198.541 73.5319 200.499 75.9734 200.499C78.415 200.499 80.3835 198.546 80.3835 196.13C80.3835 193.714 78.4048 191.767 75.9734 191.767ZM68.6081 178.831C65.4748 178.831 62.9366 181.348 62.9366 184.448C62.9366 187.549 65.4799 190.06 68.6081 190.06C71.7363 190.06 74.2796 187.549 74.2796 184.448C74.2796 181.348 71.7414 178.831 68.6081 178.831ZM64.2032 190.835C62.4025 190.835 60.9478 192.27 60.9478 194.052C60.9478 195.834 62.4025 197.273 64.2032 197.273C66.0038 197.273 67.4585 195.828 67.4585 194.052C67.4585 192.275 66.0038 190.835 64.2082 190.835M44.9302 179.661C42.9821 179.661 41.4053 181.227 41.4053 183.15C41.4053 185.077 42.9821 186.633 44.9302 186.633C46.8784 186.633 48.4501 185.072 48.4501 183.15C48.4501 181.227 46.8733 179.661 44.9302 179.661ZM55.5204 181.368C52.9161 181.368 50.8103 183.457 50.8103 186.029C50.8103 188.601 52.9161 190.689 55.5204 190.689C58.1247 190.689 60.2306 188.606 60.2306 186.029C60.2306 183.452 58.1247 181.368 55.5204 181.368ZM46.4257 167.234C43.5874 167.234 41.2883 169.509 41.2883 172.323C41.2883 175.136 43.5874 177.412 46.4308 177.412C49.2741 177.412 51.5733 175.131 51.5733 172.323C51.5733 169.514 49.2741 167.234 46.4257 167.234ZM34.1061 167.763C31.4611 167.763 29.3196 169.887 29.3196 172.499C29.3196 175.116 31.4611 177.23 34.1061 177.23C36.7511 177.23 38.8925 175.111 38.8874 172.499C38.8874 169.887 36.746 167.763 34.1061 167.763ZM25.7031 157.364C22.7936 157.364 20.4283 159.704 20.4283 162.588C20.4283 165.472 22.7885 167.803 25.7031 167.803C28.6177 167.803 30.9728 165.467 30.9728 162.588C30.9728 159.709 28.6126 157.364 25.7031 157.364ZM18.6786 142.933C14.9908 142.933 12.005 145.893 12.005 149.537C12.005 153.181 14.9959 156.141 18.6786 156.141C22.3612 156.141 25.3521 153.181 25.3521 149.537C25.3521 145.893 22.3612 142.933 18.6786 142.933ZM38.4245 150.981C34.6758 150.981 31.634 153.986 31.634 157.696C31.634 161.406 34.6758 164.41 38.4245 164.41C42.1733 164.41 45.21 161.406 45.21 157.696C45.21 153.986 42.1733 150.981 38.4245 150.981ZM60.9681 163.459C57.0566 163.459 53.8826 166.595 53.8826 170.466C53.8826 174.336 57.0566 177.472 60.9681 177.472C64.8797 177.472 68.0486 174.336 68.0435 170.466C68.0435 166.595 64.8746 163.459 60.9681 163.459ZM55.4136 143.89C50.4695 143.89 46.4562 147.856 46.4562 152.753C46.4562 157.651 50.4644 161.622 55.4136 161.622C60.3628 161.622 64.371 157.651 64.371 152.753C64.371 147.856 60.3628 143.89 55.4136 143.89ZM55.0423 119.79C49.0503 119.79 44.1927 124.597 44.1927 130.526C44.1927 136.455 49.0503 141.267 55.0423 141.267C61.0342 141.267 65.8919 136.46 65.8919 130.526C65.8919 124.592 61.0342 119.79 55.0423 119.79ZM39.0705 77.1375C32.0104 77.1375 26.2779 82.805 26.2779 89.7913C26.2779 96.7775 32.0053 102.445 39.0705 102.445C46.1307 102.445 51.8581 96.7775 51.8632 89.7913C51.8632 82.8 46.1357 77.1324 39.0705 77.1375ZM63.9488 92.3683C56.7208 92.3683 50.8611 98.1667 50.8611 105.319C50.8611 112.471 56.7208 118.27 63.9488 118.27C71.1768 118.27 77.0416 112.471 77.0416 105.319C77.0416 98.1667 71.1768 92.3683 63.9488 92.3683ZM78.9033 63.0089C70.8055 63.0089 64.2489 69.5069 64.2489 77.515C64.2489 85.523 70.8106 92.016 78.9033 92.016C86.996 92.016 93.5627 85.523 93.5627 77.515C93.5627 69.5069 87.0011 63.0089 78.9033 63.0089Z" fill="#283270"/>
</g>
<defs>
<clipPath id="clip0_1478_183759">
<rect width="206" height="302" fill="white" transform="translate(0 0.5)"/>
</clipPath>
</defs>
</svg>
