<?xml version="1.0" encoding="UTF-8"?>
<svg xmlns="http://www.w3.org/2000/svg" xmlns:xlink="http://www.w3.org/1999/xlink" width="115px" height="150px" viewBox="0 0 115 149" version="1.1">
<defs>
<linearGradient id="linear0" gradientUnits="userSpaceOnUse" x1="209.9763" y1="224.3" x2="209.9763" y2="296.4184" gradientTransform="matrix(0.376764,0,0,0.375031,0.0434181,-71.214649)">
<stop offset="0.4" style="stop-color:rgb(100%,0%,0%);stop-opacity:1;"/>
<stop offset="1" style="stop-color:rgb(83.137255%,13.72549%,12.941176%);stop-opacity:1;"/>
</linearGradient>
<filter id="alpha" filterUnits="objectBoundingBox" x="0%" y="0%" width="100%" height="100%">
  <feColorMatrix type="matrix" in="SourceGraphic" values="0 0 0 0 1 0 0 0 0 1 0 0 0 0 1 0 0 0 1 0"/>
</filter>
<mask id="mask0">
  <g filter="url(#alpha)">
<rect x="0" y="0" width="115" height="149" style="fill:rgb(0%,0%,0%);fill-opacity:0.4;stroke:none;"/>
  </g>
</mask>
<linearGradient id="linear1" gradientUnits="userSpaceOnUse" x1="210.4199" y1="259.0797" x2="209.1655" y2="223.1588" gradientTransform="matrix(0.376764,0,0,0.375031,0.0434181,-71.214649)">
<stop offset="0" style="stop-color:rgb(100%,100%,100%);stop-opacity:1;"/>
<stop offset="1" style="stop-color:rgb(100%,100%,100%);stop-opacity:0.25098;"/>
</linearGradient>
<clipPath id="clip1">
  <rect x="0" y="0" width="115" height="149"/>
</clipPath>
<g id="surface5" clip-path="url(#clip1)">
<path style=" stroke:none;fill-rule:nonzero;fill:url(#linear1);" d="M 56.144531 26.328125 C 56.144531 26.328125 56.21875 26.328125 56.292969 26.328125 C 61.644531 26.140625 102.070312 24.753906 102.070312 24.753906 C 102.75 24.714844 103.425781 24.226562 103.425781 23.363281 L 103.425781 14.703125 C 103.425781 13.726562 102.597656 12.902344 101.617188 12.902344 L 56.671875 12.902344 C 55.691406 12.902344 54.863281 13.726562 54.863281 14.703125 L 54.863281 27.714844 C 54.863281 27.601562 54.898438 26.441406 56.144531 26.328125 Z M 56.144531 26.328125 "/>
</g>
<linearGradient id="linear2" gradientUnits="userSpaceOnUse" x1="82.4667" y1="228.4512" x2="82.4667" y2="292.2704" gradientTransform="matrix(0.376764,0,0,0.375031,0.0434181,-71.214649)">
<stop offset="0" style="stop-color:rgb(0%,16.470588%,56.862745%);stop-opacity:1;"/>
<stop offset="0.8" style="stop-color:rgb(0%,14.901961%,44.705882%);stop-opacity:1;"/>
</linearGradient>
<mask id="mask1">
  <g filter="url(#alpha)">
<rect x="0" y="0" width="115" height="149" style="fill:rgb(0%,0%,0%);fill-opacity:0.25098;stroke:none;"/>
  </g>
</mask>
<linearGradient id="linear3" gradientUnits="userSpaceOnUse" x1="83.0079" y1="262.2621" x2="82.1643" y2="238.1042" gradientTransform="matrix(0.376764,0,0,0.375031,0.0434181,-71.214649)">
<stop offset="0" style="stop-color:rgb(100%,100%,100%);stop-opacity:1;"/>
<stop offset="1" style="stop-color:rgb(100%,100%,100%);stop-opacity:0.25098;"/>
</linearGradient>
<clipPath id="clip2">
  <rect x="0" y="0" width="115" height="149"/>
</clipPath>
<g id="surface8" clip-path="url(#clip2)">
<path style=" stroke:none;fill-rule:nonzero;fill:url(#linear3);" d="M 50.792969 19.726562 L 48.003906 25.914062 C 47.929688 26.066406 47.589844 26.628906 46.835938 26.628906 C 46.648438 26.628906 44.277344 26.703125 44.277344 26.703125 C 43.824219 26.703125 43.671875 27.152344 43.671875 27.152344 L 46.085938 21.488281 C 46.914062 19.5 48.230469 19.3125 49.210938 19.3125 C 49.777344 19.390625 50.453125 19.578125 50.792969 19.726562 Z M 43.484375 27.113281 L 38.773438 19.5 C 38.472656 19.425781 37.71875 19.277344 37.15625 19.277344 C 35.421875 19.277344 34.480469 19.914062 33.5 20.964844 L 28.789062 26.066406 L 29.167969 26.628906 C 29.316406 26.851562 29.65625 27.191406 30.296875 27.191406 C 30.523438 27.191406 32.785156 27.113281 32.972656 27.113281 C 33.539062 27.113281 33.953125 27.339844 34.140625 27.640625 L 33.3125 26.402344 L 36.515625 22.988281 L 38.660156 26.363281 C 39.078125 26.851562 39.640625 26.890625 39.753906 26.890625 C 39.867188 26.890625 42.730469 26.777344 42.84375 26.777344 C 43.109375 26.777344 43.296875 26.890625 43.484375 27.113281 Z M 27.699219 14.476562 C 25.210938 14.476562 24.796875 15.789062 24.796875 17.027344 L 24.796875 28.351562 C 24.796875 27.902344 25.136719 27.414062 25.738281 27.378906 C 26.152344 27.378906 27.320312 27.300781 27.621094 27.300781 C 28 27.300781 28.566406 27.039062 28.601562 26.328125 L 28.601562 14.550781 C 28.339844 14.476562 28 14.476562 27.699219 14.476562 Z M 19.445312 24.976562 L 16.660156 24.453125 C 15.753906 24.300781 15.1875 24.078125 15.1875 23.589844 C 15.1875 23.101562 15.792969 22.726562 17.222656 22.726562 C 18.617188 22.726562 19.859375 22.875 20.652344 22.875 C 21.667969 22.875 22.761719 22.425781 22.761719 20.402344 C 22.761719 20.140625 22.726562 19.875 22.6875 19.613281 C 21.140625 19.425781 18.355469 19.125 16.054688 19.390625 C 13.003906 19.726562 11.460938 21.527344 11.460938 23.703125 C 11.460938 24.828125 11.949219 25.878906 12.929688 26.664062 C 13.683594 27.152344 14.398438 27.339844 15.1875 27.488281 C 15.828125 27.601562 17.261719 27.675781 18.316406 27.640625 C 18.65625 27.640625 21.105469 27.566406 21.667969 27.527344 C 22.914062 27.488281 23.589844 28.539062 23.554688 29.628906 C 23.554688 29.628906 23.554688 29.589844 23.554688 29.589844 C 23.554688 29.441406 23.554688 29.328125 23.554688 29.175781 C 23.589844 27.113281 22.347656 25.503906 19.445312 24.976562 Z M 19.445312 24.976562 "/>
</g>
</defs>
<g id="surface1">
<path style=" stroke:none;fill-rule:nonzero;fill:rgb(100%,100%,100%);fill-opacity:1;" d="M 57.5 149 C 25.8125 149 0.0429688 122.933594 0.0429688 90.945312 C 0.0429688 90.570312 0.0429688 23.140625 0.0429688 8.964844 L 0.0429688 0 L 114.917969 0 L 114.917969 8.964844 C 114.917969 23.0625 114.917969 90.421875 114.917969 90.945312 C 114.957031 122.933594 89.1875 149 57.5 149 "/>
<path style=" stroke:none;fill-rule:nonzero;fill:rgb(71.372549%,60.784314%,25.098039%);fill-opacity:1;" d="M 111.679688 8.964844 L 111.679688 3.226562 L 3.320312 3.226562 L 3.320312 8.964844 C 3.320312 23.289062 3.320312 90.570312 3.320312 90.945312 C 3.320312 121.171875 27.621094 145.738281 57.539062 145.738281 C 87.453125 145.738281 111.753906 121.171875 111.753906 90.945312 C 111.714844 90.421875 111.679688 22.953125 111.679688 8.964844 M 57.5 142.511719 C 29.394531 142.511719 6.5625 119.371094 6.5625 90.945312 C 6.5625 89.933594 6.5625 19.988281 6.5625 6.488281 L 108.4375 6.488281 C 108.4375 19.988281 108.4375 89.933594 108.4375 90.945312 C 108.4375 119.371094 85.605469 142.511719 57.5 142.511719 "/>
<path style=" stroke:none;fill-rule:nonzero;fill:rgb(71.372549%,60.784314%,25.098039%);fill-opacity:1;" d="M 11.421875 52.46875 L 11.421875 49.277344 C 11.421875 46.992188 12.550781 45.902344 15.039062 45.902344 C 15.792969 45.902344 16.660156 46.015625 17.1875 46.203125 C 17.375 46.277344 17.414062 46.355469 17.414062 46.542969 L 17.414062 47.554688 C 17.414062 47.777344 17.335938 47.816406 17.035156 47.742188 C 16.582031 47.628906 15.867188 47.515625 15.265625 47.515625 C 13.871094 47.515625 13.34375 48.117188 13.34375 49.503906 L 13.34375 52.316406 C 13.34375 53.703125 13.871094 54.265625 15.300781 54.265625 C 16.019531 54.265625 16.734375 54.078125 17.261719 53.890625 C 17.375 53.855469 17.601562 53.890625 17.523438 54.117188 L 17.335938 55.203125 C 17.300781 55.429688 17.222656 55.503906 17.035156 55.542969 C 16.507812 55.730469 15.792969 55.84375 14.964844 55.84375 C 12.4375 55.84375 11.421875 54.867188 11.421875 52.46875 "/>
<path style=" stroke:none;fill-rule:nonzero;fill:rgb(71.372549%,60.784314%,25.098039%);fill-opacity:1;" d="M 25.699219 46.277344 L 25.699219 55.503906 C 25.699219 55.65625 25.625 55.730469 25.476562 55.730469 L 25.25 55.730469 C 24.269531 55.730469 23.742188 55.242188 23.742188 54.15625 L 23.742188 51.605469 L 20.804688 51.605469 L 20.804688 55.503906 C 20.804688 55.65625 20.726562 55.730469 20.578125 55.730469 L 20.351562 55.730469 C 19.410156 55.730469 18.84375 55.242188 18.84375 54.15625 L 18.84375 46.316406 C 18.84375 46.128906 18.882812 46.089844 19.070312 46.089844 L 20.578125 46.089844 C 20.726562 46.089844 20.804688 46.167969 20.804688 46.316406 L 20.804688 50.105469 L 23.742188 50.105469 L 23.742188 46.316406 C 23.742188 46.167969 23.816406 46.089844 23.96875 46.089844 L 25.476562 46.089844 C 25.664062 46.054688 25.699219 46.128906 25.699219 46.277344 "/>
<path style=" stroke:none;fill-rule:nonzero;fill:rgb(71.372549%,60.784314%,25.098039%);fill-opacity:1;" d="M 26.757812 55.503906 C 27.621094 52.203125 28.453125 48.980469 29.28125 46.429688 C 29.355469 46.167969 29.507812 46.054688 29.808594 46.054688 L 31.429688 46.054688 C 31.765625 46.054688 31.917969 46.167969 31.992188 46.429688 C 32.820312 48.980469 33.6875 52.203125 34.554688 55.503906 C 34.59375 55.65625 34.515625 55.730469 34.328125 55.730469 L 32.859375 55.730469 C 32.671875 55.730469 32.519531 55.65625 32.519531 55.503906 L 32.144531 53.816406 L 29.203125 53.816406 C 29.054688 54.378906 28.941406 54.941406 28.828125 55.542969 C 28.789062 55.65625 28.675781 55.730469 28.527344 55.730469 L 26.980469 55.730469 C 26.792969 55.730469 26.71875 55.65625 26.757812 55.503906 M 31.804688 52.316406 C 31.539062 50.890625 31.089844 49.128906 30.710938 47.667969 L 30.636719 47.667969 C 30.261719 49.128906 29.808594 50.890625 29.542969 52.316406 Z M 31.804688 52.316406 "/>
<path style=" stroke:none;fill-rule:nonzero;fill:rgb(71.372549%,60.784314%,25.098039%);fill-opacity:1;" d="M 35.535156 55.503906 C 35.535156 52.917969 35.648438 49.277344 35.835938 46.277344 C 35.835938 46.128906 35.910156 46.054688 36.0625 46.054688 L 37.570312 46.054688 C 37.757812 46.054688 37.832031 46.089844 37.910156 46.242188 L 40.246094 51.003906 L 40.28125 51.003906 L 42.46875 46.242188 C 42.542969 46.089844 42.617188 46.054688 42.804688 46.054688 L 44.3125 46.054688 C 44.464844 46.054688 44.5 46.128906 44.539062 46.277344 C 44.765625 49.277344 44.917969 52.917969 44.917969 55.503906 C 44.917969 55.65625 44.839844 55.730469 44.691406 55.730469 L 43.257812 55.730469 C 43.109375 55.730469 43.03125 55.65625 43.03125 55.503906 C 43.03125 53.21875 42.996094 50.742188 42.917969 49.015625 L 42.84375 49.015625 L 40.960938 53.105469 C 40.882812 53.253906 40.773438 53.367188 40.582031 53.367188 L 39.980469 53.367188 C 39.792969 53.367188 39.714844 53.253906 39.605469 53.105469 L 37.605469 49.015625 L 37.53125 49.015625 C 37.492188 50.777344 37.492188 53.105469 37.492188 55.503906 C 37.492188 55.65625 37.417969 55.730469 37.269531 55.730469 L 35.835938 55.730469 C 35.609375 55.730469 35.535156 55.65625 35.535156 55.503906 "/>
<path style=" stroke:none;fill-rule:nonzero;fill:rgb(71.372549%,60.784314%,25.098039%);fill-opacity:1;" d="M 52.714844 49.054688 L 52.714844 49.203125 C 52.714844 50.328125 52.414062 51.152344 51.734375 51.679688 C 51.171875 52.128906 50.378906 52.355469 49.285156 52.355469 L 48.34375 52.355469 L 48.34375 55.578125 C 48.34375 55.730469 48.269531 55.804688 48.117188 55.804688 L 47.890625 55.804688 C 46.914062 55.804688 46.386719 55.316406 46.386719 54.230469 L 46.386719 46.390625 C 46.386719 46.203125 46.460938 46.128906 46.648438 46.128906 L 49.25 46.128906 C 50.453125 46.128906 51.207031 46.316406 51.734375 46.730469 C 52.375 47.105469 52.714844 47.777344 52.714844 49.054688 M 50.757812 49.054688 C 50.757812 48.453125 50.605469 48.117188 50.378906 47.929688 C 50.117188 47.703125 49.777344 47.628906 49.097656 47.628906 L 48.382812 47.628906 L 48.382812 50.777344 L 48.984375 50.777344 C 49.777344 50.777344 50.117188 50.703125 50.378906 50.441406 C 50.605469 50.214844 50.71875 49.839844 50.71875 49.167969 Z M 50.757812 49.054688 "/>
<path style=" stroke:none;fill-rule:nonzero;fill:rgb(71.372549%,60.784314%,25.098039%);fill-opacity:1;" d="M 53.394531 55.503906 L 53.394531 54.53125 C 53.394531 54.378906 53.46875 54.304688 53.621094 54.304688 L 54.597656 54.304688 L 54.597656 47.441406 L 53.621094 47.441406 C 53.46875 47.441406 53.394531 47.367188 53.394531 47.214844 L 53.394531 46.242188 C 53.394531 46.089844 53.46875 46.015625 53.621094 46.015625 L 57.613281 46.015625 C 57.765625 46.015625 57.875 46.054688 57.839844 46.242188 L 57.6875 47.253906 C 57.652344 47.402344 57.574219 47.480469 57.425781 47.480469 L 56.558594 47.480469 L 56.558594 54.34375 L 57.539062 54.34375 C 57.6875 54.34375 57.726562 54.378906 57.726562 54.566406 L 57.726562 55.542969 C 57.726562 55.691406 57.652344 55.765625 57.5 55.765625 L 53.582031 55.765625 C 53.46875 55.730469 53.355469 55.65625 53.394531 55.503906 "/>
<path style=" stroke:none;fill-rule:nonzero;fill:rgb(71.372549%,60.784314%,25.098039%);fill-opacity:1;" d="M 59.875 55.054688 C 59.269531 54.53125 58.933594 53.703125 58.933594 52.65625 L 58.933594 49.167969 C 58.933594 47.964844 59.382812 47.066406 60.175781 46.542969 C 60.777344 46.128906 61.570312 45.941406 62.472656 45.941406 C 63.378906 45.941406 64.28125 46.167969 64.882812 46.617188 C 65.601562 47.140625 66.050781 48.003906 66.050781 49.167969 L 66.050781 52.65625 C 66.050781 53.816406 65.636719 54.679688 64.882812 55.242188 C 64.28125 55.691406 63.453125 55.917969 62.472656 55.917969 C 61.378906 55.878906 60.476562 55.578125 59.875 55.054688 M 63.640625 53.890625 C 63.941406 53.59375 64.09375 53.066406 64.09375 52.46875 L 64.09375 49.390625 C 64.09375 48.679688 63.90625 48.230469 63.605469 47.964844 C 63.339844 47.703125 62.925781 47.589844 62.472656 47.589844 C 62.019531 47.589844 61.570312 47.703125 61.304688 47.964844 C 61.003906 48.265625 60.851562 48.679688 60.851562 49.390625 L 60.851562 52.46875 C 60.851562 53.066406 61.003906 53.59375 61.304688 53.890625 C 61.570312 54.15625 61.984375 54.265625 62.472656 54.265625 C 62.964844 54.265625 63.414062 54.117188 63.640625 53.890625 "/>
<path style=" stroke:none;fill-rule:nonzero;fill:rgb(71.372549%,60.784314%,25.098039%);fill-opacity:1;" d="M 74.679688 46.277344 L 74.679688 55.503906 C 74.679688 55.65625 74.566406 55.730469 74.453125 55.730469 L 73.476562 55.730469 C 73.210938 55.730469 73.058594 55.617188 72.984375 55.46875 L 69.519531 49.503906 L 69.445312 49.503906 L 69.445312 55.503906 C 69.445312 55.65625 69.367188 55.730469 69.21875 55.730469 L 69.140625 55.730469 C 68.238281 55.730469 67.746094 55.242188 67.746094 54.15625 L 67.746094 46.277344 C 67.746094 46.128906 67.785156 46.054688 67.9375 46.054688 L 69.027344 46.054688 C 69.253906 46.054688 69.367188 46.128906 69.445312 46.316406 L 72.871094 52.203125 L 72.949219 52.203125 L 72.949219 46.277344 C 72.949219 46.128906 73.023438 46.054688 73.136719 46.054688 L 74.417969 46.054688 C 74.605469 46.054688 74.679688 46.128906 74.679688 46.277344 "/>
<path style=" stroke:none;fill-rule:nonzero;fill:rgb(71.372549%,60.784314%,25.098039%);fill-opacity:1;" d="M 76.601562 55.542969 C 76.375 55.46875 76.339844 55.355469 76.300781 55.203125 L 76.074219 53.96875 C 76.035156 53.78125 76.1875 53.742188 76.375 53.816406 C 76.867188 54.042969 77.730469 54.265625 78.449219 54.265625 C 79.539062 54.265625 80.105469 53.816406 80.105469 53.105469 L 80.105469 53.03125 C 80.105469 52.355469 79.804688 51.941406 78.863281 51.605469 L 78.257812 51.378906 C 76.980469 50.929688 76.226562 50.066406 76.226562 48.640625 L 76.226562 48.566406 C 76.226562 46.804688 77.582031 45.902344 79.539062 45.902344 C 80.105469 45.902344 80.785156 46.015625 81.234375 46.128906 C 81.460938 46.203125 81.5 46.316406 81.5 46.464844 L 81.5 47.480469 C 81.5 47.703125 81.347656 47.742188 81.125 47.703125 C 80.671875 47.589844 80.179688 47.515625 79.617188 47.515625 C 78.75 47.515625 78.148438 47.777344 78.148438 48.566406 L 78.148438 48.605469 C 78.148438 49.277344 78.449219 49.652344 79.238281 49.917969 L 79.917969 50.179688 C 81.425781 50.742188 82.066406 51.492188 82.066406 52.878906 L 82.066406 52.992188 C 82.066406 54.71875 80.820312 55.84375 78.710938 55.84375 C 77.996094 55.878906 77.167969 55.730469 76.601562 55.542969 "/>
<path style=" stroke:none;fill-rule:nonzero;fill:rgb(71.372549%,60.784314%,25.098039%);fill-opacity:1;" d="M 90.164062 46.277344 L 90.164062 55.503906 C 90.164062 55.65625 90.089844 55.730469 89.9375 55.730469 L 89.714844 55.730469 C 88.734375 55.730469 88.207031 55.242188 88.207031 54.15625 L 88.207031 51.605469 L 85.265625 51.605469 L 85.265625 55.503906 C 85.265625 55.65625 85.191406 55.730469 85.042969 55.730469 L 84.816406 55.730469 C 83.835938 55.730469 83.308594 55.242188 83.308594 54.15625 L 83.308594 46.316406 C 83.308594 46.128906 83.347656 46.089844 83.535156 46.089844 L 85.042969 46.089844 C 85.191406 46.089844 85.265625 46.167969 85.265625 46.316406 L 85.265625 50.105469 L 88.207031 50.105469 L 88.207031 46.316406 C 88.207031 46.167969 88.28125 46.089844 88.433594 46.089844 L 89.9375 46.089844 C 90.089844 46.054688 90.164062 46.128906 90.164062 46.277344 "/>
<path style=" stroke:none;fill-rule:nonzero;fill:rgb(71.372549%,60.784314%,25.098039%);fill-opacity:1;" d="M 91.523438 55.503906 L 91.523438 54.53125 C 91.523438 54.378906 91.597656 54.304688 91.746094 54.304688 L 92.726562 54.304688 L 92.726562 47.441406 L 91.746094 47.441406 C 91.597656 47.441406 91.523438 47.367188 91.523438 47.214844 L 91.523438 46.242188 C 91.523438 46.089844 91.597656 46.015625 91.746094 46.015625 L 95.742188 46.015625 C 95.890625 46.015625 96.003906 46.054688 95.96875 46.242188 L 95.855469 47.214844 C 95.816406 47.367188 95.742188 47.441406 95.589844 47.441406 L 94.6875 47.441406 L 94.6875 54.304688 L 95.667969 54.304688 C 95.816406 54.304688 95.855469 54.34375 95.855469 54.53125 L 95.855469 55.503906 C 95.855469 55.65625 95.777344 55.730469 95.628906 55.730469 L 91.710938 55.730469 C 91.597656 55.730469 91.523438 55.65625 91.523438 55.503906 "/>
<path style=" stroke:none;fill-rule:nonzero;fill:rgb(71.372549%,60.784314%,25.098039%);fill-opacity:1;" d="M 103.578125 49.054688 L 103.578125 49.203125 C 103.578125 50.328125 103.277344 51.152344 102.636719 51.679688 C 102.070312 52.128906 101.28125 52.355469 100.1875 52.355469 L 99.246094 52.355469 L 99.246094 55.578125 C 99.246094 55.730469 99.171875 55.804688 99.019531 55.804688 L 98.753906 55.804688 C 97.8125 55.804688 97.25 55.316406 97.25 54.230469 L 97.25 46.390625 C 97.25 46.203125 97.324219 46.128906 97.511719 46.128906 L 100.148438 46.128906 C 101.355469 46.128906 102.109375 46.316406 102.636719 46.730469 C 103.203125 47.105469 103.578125 47.777344 103.578125 49.054688 M 101.582031 49.054688 C 101.582031 48.453125 101.429688 48.117188 101.203125 47.929688 C 100.941406 47.703125 100.601562 47.628906 99.921875 47.628906 L 99.207031 47.628906 L 99.207031 50.777344 L 99.8125 50.777344 C 100.5625 50.777344 100.941406 50.703125 101.203125 50.441406 C 101.429688 50.214844 101.542969 49.839844 101.542969 49.167969 L 101.542969 49.054688 Z M 101.582031 49.054688 "/>
<path style=" stroke:none;fill-rule:nonzero;fill:rgb(71.372549%,60.784314%,25.098039%);fill-opacity:1;" d="M 11.421875 60.566406 C 11.421875 60.941406 11.722656 61.28125 12.136719 61.28125 L 102.863281 61.28125 C 103.238281 61.28125 103.578125 60.941406 103.578125 60.566406 C 103.578125 60.191406 103.277344 59.855469 102.863281 59.855469 L 12.136719 59.855469 C 11.761719 59.855469 11.421875 60.191406 11.421875 60.566406 "/>
<path style=" stroke:none;fill-rule:nonzero;fill:rgb(15.686275%,19.607843%,44.313725%);fill-opacity:1;" d="M 55.917969 130.511719 C 54.5625 130.511719 53.429688 129.421875 53.429688 128.035156 L 53.429688 114.535156 L 63.152344 114.535156 L 63.152344 118.246094 L 57.425781 118.246094 L 57.425781 120.648438 L 62.625 120.648438 L 62.625 124.359375 L 57.425781 124.359375 L 57.425781 130.511719 Z M 41.074219 128.035156 C 41.074219 129.386719 42.164062 130.511719 43.558594 130.511719 L 50.71875 130.511719 L 50.71875 126.835938 L 45.066406 126.835938 L 45.066406 124.359375 L 50.265625 124.359375 L 50.265625 120.648438 L 45.066406 120.648438 L 45.066406 118.246094 L 50.757812 118.246094 L 50.757812 114.535156 L 41.074219 114.535156 Z M 74.566406 130.511719 L 74.566406 126.835938 L 69.59375 126.835938 L 69.59375 114.570312 L 65.601562 114.570312 L 65.601562 128.074219 C 65.601562 129.421875 66.691406 130.546875 68.085938 130.546875 L 74.566406 130.546875 Z M 74.566406 130.511719 "/>
<path style=" stroke:none;fill-rule:nonzero;fill:rgb(71.372549%,60.784314%,25.098039%);fill-opacity:1;" d="M 64.546875 84.34375 C 62.886719 84.34375 61.53125 85.695312 61.53125 87.34375 C 61.53125 88.996094 62.886719 90.34375 64.546875 90.34375 C 66.203125 90.34375 67.558594 88.996094 67.558594 87.34375 C 67.558594 85.695312 66.242188 84.34375 64.546875 84.34375 "/>
<path style=" stroke:none;fill-rule:nonzero;fill:rgb(71.372549%,60.784314%,25.098039%);fill-opacity:1;" d="M 61.078125 79.09375 C 59.570312 79.09375 58.367188 80.292969 58.367188 81.792969 C 58.367188 83.292969 59.570312 84.496094 61.078125 84.496094 C 62.585938 84.496094 63.792969 83.292969 63.792969 81.792969 C 63.792969 80.292969 62.585938 79.09375 61.078125 79.09375 "/>
<path style=" stroke:none;fill-rule:nonzero;fill:rgb(71.372549%,60.784314%,25.098039%);fill-opacity:1;" d="M 66.46875 76.355469 C 64.996094 76.355469 63.828125 77.519531 63.828125 78.980469 C 63.828125 80.445312 64.996094 81.605469 66.46875 81.605469 C 67.9375 81.605469 69.105469 80.445312 69.105469 78.980469 C 69.105469 77.519531 67.898438 76.355469 66.46875 76.355469 "/>
<path style=" stroke:none;fill-rule:nonzero;fill:rgb(71.372549%,60.784314%,25.098039%);fill-opacity:1;" d="M 57.460938 75.34375 C 56.21875 75.34375 55.238281 76.355469 55.238281 77.554688 C 55.238281 78.757812 56.257812 79.769531 57.460938 79.769531 C 58.667969 79.769531 59.683594 78.757812 59.683594 77.554688 C 59.683594 76.355469 58.667969 75.34375 57.460938 75.34375 "/>
<path style=" stroke:none;fill-rule:nonzero;fill:rgb(71.372549%,60.784314%,25.098039%);fill-opacity:1;" d="M 53.394531 73.507812 C 52.375 73.507812 51.546875 74.332031 51.546875 75.34375 C 51.546875 76.355469 52.375 77.179688 53.394531 77.179688 C 54.410156 77.179688 55.238281 76.355469 55.238281 75.34375 C 55.238281 74.332031 54.410156 73.507812 53.394531 73.507812 "/>
<path style=" stroke:none;fill-rule:nonzero;fill:rgb(71.372549%,60.784314%,25.098039%);fill-opacity:1;" d="M 49.625 73.054688 C 48.835938 73.054688 48.15625 73.695312 48.15625 74.519531 C 48.15625 75.34375 48.796875 75.980469 49.625 75.980469 C 50.453125 75.980469 51.09375 75.34375 51.09375 74.519531 C 51.09375 73.695312 50.417969 73.054688 49.625 73.054688 "/>
<path style=" stroke:none;fill-rule:nonzero;fill:rgb(71.372549%,60.784314%,25.098039%);fill-opacity:1;" d="M 54.261719 70.394531 C 53.46875 70.394531 52.867188 71.03125 52.867188 71.78125 C 52.867188 72.53125 53.507812 73.167969 54.261719 73.167969 C 55.011719 73.167969 55.652344 72.53125 55.652344 71.78125 C 55.652344 71.03125 55.011719 70.394531 54.261719 70.394531 "/>
<path style=" stroke:none;fill-rule:nonzero;fill:rgb(71.372549%,60.784314%,25.098039%);fill-opacity:1;" d="M 57.765625 67.730469 C 57.011719 67.730469 56.371094 68.332031 56.371094 69.117188 C 56.371094 69.90625 56.972656 70.507812 57.765625 70.507812 C 58.554688 70.507812 59.15625 69.90625 59.15625 69.117188 C 59.15625 68.332031 58.515625 67.730469 57.765625 67.730469 "/>
<path style=" stroke:none;fill-rule:nonzero;fill:rgb(71.372549%,60.784314%,25.098039%);fill-opacity:1;" d="M 54.675781 67.957031 C 54.070312 67.957031 53.582031 68.441406 53.582031 69.042969 C 53.582031 69.644531 54.070312 70.132812 54.675781 70.132812 C 55.277344 70.132812 55.765625 69.644531 55.765625 69.042969 C 55.765625 68.441406 55.277344 67.957031 54.675781 67.957031 "/>
<path style=" stroke:none;fill-rule:nonzero;fill:rgb(71.372549%,60.784314%,25.098039%);fill-opacity:1;" d="M 52 68.519531 C 51.472656 68.519531 51.019531 68.96875 51.019531 69.492188 C 51.019531 70.019531 51.472656 70.46875 52 70.46875 C 52.527344 70.46875 52.980469 70.019531 52.980469 69.492188 C 52.980469 68.96875 52.5625 68.519531 52 68.519531 "/>
<path style=" stroke:none;fill-rule:nonzero;fill:rgb(71.372549%,60.784314%,25.098039%);fill-opacity:1;" d="M 50.757812 70.65625 C 50.152344 70.65625 49.699219 71.144531 49.699219 71.707031 C 49.699219 72.269531 50.191406 72.757812 50.757812 72.757812 C 51.320312 72.757812 51.8125 72.269531 51.8125 71.707031 C 51.8125 71.144531 51.359375 70.65625 50.757812 70.65625 "/>
<path style=" stroke:none;fill-rule:nonzero;fill:rgb(71.372549%,60.784314%,25.098039%);fill-opacity:1;" d="M 47.363281 70.917969 C 46.835938 70.917969 46.386719 71.367188 46.386719 71.894531 C 46.386719 72.417969 46.835938 72.867188 47.363281 72.867188 C 47.890625 72.867188 48.34375 72.417969 48.34375 71.894531 C 48.34375 71.367188 47.890625 70.957031 47.363281 70.917969 "/>
<path style=" stroke:none;fill-rule:nonzero;fill:rgb(71.372549%,60.784314%,25.098039%);fill-opacity:1;" d="M 48.984375 69.605469 C 48.570312 69.605469 48.269531 69.945312 48.269531 70.320312 C 48.269531 70.695312 48.609375 71.03125 48.984375 71.03125 C 49.363281 71.03125 49.699219 70.695312 49.699219 70.320312 C 49.699219 69.945312 49.363281 69.605469 48.984375 69.605469 "/>
<path style=" stroke:none;fill-rule:nonzero;fill:rgb(71.372549%,60.784314%,25.098039%);fill-opacity:1;" d="M 44.992188 71.96875 C 44.613281 71.96875 44.3125 72.269531 44.3125 72.644531 C 44.3125 73.019531 44.613281 73.320312 44.992188 73.320312 C 45.367188 73.320312 45.667969 73.019531 45.667969 72.644531 C 45.667969 72.269531 45.367188 71.96875 44.992188 71.96875 "/>
<path style=" stroke:none;fill-rule:nonzero;fill:rgb(71.372549%,60.784314%,25.098039%);fill-opacity:1;" d="M 46.308594 73.242188 C 45.667969 73.242188 45.140625 73.769531 45.140625 74.40625 C 45.140625 75.042969 45.667969 75.570312 46.308594 75.570312 C 46.949219 75.570312 47.476562 75.042969 47.476562 74.40625 C 47.476562 73.769531 46.949219 73.242188 46.308594 73.242188 "/>
<path style=" stroke:none;fill-rule:nonzero;fill:rgb(71.372549%,60.784314%,25.098039%);fill-opacity:1;" d="M 43.410156 73.582031 C 42.917969 73.582031 42.503906 73.992188 42.503906 74.480469 C 42.503906 74.96875 42.917969 75.382812 43.410156 75.382812 C 43.898438 75.382812 44.3125 74.96875 44.3125 74.480469 C 44.3125 73.992188 43.9375 73.582031 43.410156 73.582031 "/>
<path style=" stroke:none;fill-rule:nonzero;fill:rgb(71.372549%,60.784314%,25.098039%);fill-opacity:1;" d="M 41.523438 75.230469 C 41.1875 75.230469 40.921875 75.492188 40.921875 75.832031 C 40.921875 76.167969 41.1875 76.429688 41.523438 76.429688 C 41.863281 76.429688 42.128906 76.167969 42.128906 75.832031 C 42.128906 75.492188 41.863281 75.230469 41.523438 75.230469 "/>
<path style=" stroke:none;fill-rule:nonzero;fill:rgb(71.372549%,60.784314%,25.098039%);fill-opacity:1;" d="M 62.171875 73.054688 C 60.964844 73.054688 59.949219 74.03125 59.949219 75.269531 C 59.949219 76.507812 60.929688 77.480469 62.171875 77.480469 C 63.414062 77.480469 64.394531 76.507812 64.394531 75.269531 C 64.394531 74.03125 63.378906 73.054688 62.171875 73.054688 "/>
<path style=" stroke:none;fill-rule:nonzero;fill:rgb(71.372549%,60.784314%,25.098039%);fill-opacity:1;" d="M 70.308594 81.15625 C 68.765625 81.15625 67.523438 82.394531 67.523438 83.933594 C 67.523438 85.46875 68.765625 86.707031 70.308594 86.707031 C 71.855469 86.707031 73.097656 85.46875 73.097656 83.933594 C 73.097656 82.394531 71.855469 81.15625 70.308594 81.15625 "/>
<path style=" stroke:none;fill-rule:nonzero;fill:rgb(71.372549%,60.784314%,25.098039%);fill-opacity:1;" d="M 73.363281 76.320312 C 72.042969 76.320312 70.949219 77.40625 70.949219 78.71875 C 70.949219 80.03125 72.042969 81.121094 73.363281 81.121094 C 74.679688 81.121094 75.773438 80.03125 75.773438 78.71875 C 75.773438 77.40625 74.679688 76.320312 73.363281 76.320312 "/>
<path style=" stroke:none;fill-rule:nonzero;fill:rgb(71.372549%,60.784314%,25.098039%);fill-opacity:1;" d="M 69.894531 72.304688 C 68.652344 72.304688 67.636719 73.320312 67.636719 74.554688 C 67.636719 75.792969 68.652344 76.804688 69.894531 76.804688 C 71.140625 76.804688 72.15625 75.792969 72.15625 74.554688 C 72.15625 73.320312 71.140625 72.304688 69.894531 72.304688 "/>
<path style=" stroke:none;fill-rule:nonzero;fill:rgb(71.372549%,60.784314%,25.098039%);fill-opacity:1;" d="M 65.675781 69.566406 C 64.507812 69.566406 63.605469 70.507812 63.605469 71.632812 C 63.605469 72.757812 64.546875 73.695312 65.675781 73.695312 C 66.804688 73.695312 67.746094 72.757812 67.746094 71.632812 C 67.746094 70.507812 66.84375 69.566406 65.675781 69.566406 "/>
<path style=" stroke:none;fill-rule:nonzero;fill:rgb(71.372549%,60.784314%,25.098039%);fill-opacity:1;" d="M 61.457031 68.179688 C 60.476562 68.179688 59.722656 68.96875 59.722656 69.90625 C 59.722656 70.84375 60.515625 71.632812 61.457031 71.632812 C 62.398438 71.632812 63.1875 70.84375 63.1875 69.90625 C 63.1875 68.96875 62.4375 68.179688 61.457031 68.179688 "/>
<path style=" stroke:none;fill-rule:nonzero;fill:rgb(71.372549%,60.784314%,25.098039%);fill-opacity:1;" d="M 57.953125 71.144531 C 56.933594 71.144531 56.105469 71.96875 56.105469 72.980469 C 56.105469 73.992188 56.933594 74.820312 57.953125 74.820312 C 58.96875 74.820312 59.796875 73.992188 59.796875 72.980469 C 59.796875 71.96875 58.96875 71.144531 57.953125 71.144531 "/>
<path style=" stroke:none;fill-rule:nonzero;fill:rgb(15.686275%,19.607843%,44.313725%);fill-opacity:1;" d="M 58.441406 95.933594 C 58.441406 97.582031 57.085938 98.933594 55.429688 98.933594 C 53.769531 98.933594 52.414062 97.582031 52.414062 95.933594 C 52.414062 94.28125 53.769531 92.933594 55.429688 92.933594 C 57.085938 92.933594 58.441406 94.28125 58.441406 95.933594 "/>
<path style=" stroke:none;fill-rule:nonzero;fill:rgb(15.686275%,19.607843%,44.313725%);fill-opacity:1;" d="M 61.984375 93.007812 C 60.476562 93.007812 59.269531 94.207031 59.269531 95.707031 C 59.269531 97.207031 60.476562 98.410156 61.984375 98.410156 C 63.492188 98.410156 64.695312 97.207031 64.695312 95.707031 C 64.695312 94.207031 63.492188 93.007812 61.984375 93.007812 "/>
<path style=" stroke:none;fill-rule:nonzero;fill:rgb(15.686275%,19.607843%,44.313725%);fill-opacity:1;" d="M 61.757812 99.121094 C 60.289062 99.121094 59.121094 100.285156 59.121094 101.746094 C 59.121094 103.207031 60.289062 104.371094 61.757812 104.371094 C 63.226562 104.371094 64.394531 103.207031 64.394531 101.746094 C 64.394531 100.285156 63.1875 99.121094 61.757812 99.121094 "/>
<path style=" stroke:none;fill-rule:nonzero;fill:rgb(15.686275%,19.607843%,44.313725%);fill-opacity:1;" d="M 67.445312 92.445312 C 66.203125 92.445312 65.222656 93.457031 65.222656 94.65625 C 65.222656 95.859375 66.242188 96.871094 67.445312 96.871094 C 68.652344 96.871094 69.667969 95.859375 69.667969 94.65625 C 69.667969 93.457031 68.691406 92.445312 67.445312 92.445312 "/>
<path style=" stroke:none;fill-rule:nonzero;fill:rgb(15.686275%,19.607843%,44.313725%);fill-opacity:1;" d="M 71.441406 90.457031 C 70.421875 90.457031 69.59375 91.28125 69.59375 92.296875 C 69.59375 93.308594 70.421875 94.132812 71.441406 94.132812 C 72.457031 94.132812 73.285156 93.308594 73.285156 92.296875 C 73.285156 91.28125 72.457031 90.457031 71.441406 90.457031 "/>
<path style=" stroke:none;fill-rule:nonzero;fill:rgb(15.686275%,19.607843%,44.313725%);fill-opacity:1;" d="M 74.078125 88.019531 C 73.285156 88.019531 72.609375 88.65625 72.609375 89.484375 C 72.609375 90.308594 73.25 90.945312 74.078125 90.945312 C 74.90625 90.945312 75.546875 90.308594 75.546875 89.484375 C 75.546875 88.65625 74.867188 88.019531 74.078125 88.019531 "/>
<path style=" stroke:none;fill-rule:nonzero;fill:rgb(15.686275%,19.607843%,44.313725%);fill-opacity:1;" d="M 74.117188 93.421875 C 73.324219 93.421875 72.722656 94.058594 72.722656 94.808594 C 72.722656 95.558594 73.363281 96.195312 74.117188 96.195312 C 74.867188 96.195312 75.507812 95.558594 75.507812 94.808594 C 75.507812 94.058594 74.867188 93.421875 74.117188 93.421875 "/>
<path style=" stroke:none;fill-rule:nonzero;fill:rgb(15.686275%,19.607843%,44.313725%);fill-opacity:1;" d="M 74.679688 97.808594 C 73.925781 97.808594 73.285156 98.410156 73.285156 99.195312 C 73.285156 99.984375 73.890625 100.582031 74.679688 100.582031 C 75.472656 100.582031 76.074219 99.984375 76.074219 99.195312 C 76.074219 98.410156 75.433594 97.808594 74.679688 97.808594 "/>
<path style=" stroke:none;fill-rule:nonzero;fill:rgb(15.686275%,19.607843%,44.313725%);fill-opacity:1;" d="M 76.300781 95.484375 C 75.699219 95.484375 75.207031 95.96875 75.207031 96.570312 C 75.207031 97.171875 75.699219 97.65625 76.300781 97.65625 C 76.902344 97.65625 77.394531 97.171875 77.394531 96.570312 C 77.394531 95.96875 76.902344 95.484375 76.300781 95.484375 "/>
<path style=" stroke:none;fill-rule:nonzero;fill:rgb(15.686275%,19.607843%,44.313725%);fill-opacity:1;" d="M 77.203125 93.046875 C 76.675781 93.046875 76.226562 93.496094 76.226562 94.019531 C 76.226562 94.546875 76.675781 94.996094 77.203125 94.996094 C 77.730469 94.996094 78.183594 94.546875 78.183594 94.019531 C 78.183594 93.496094 77.769531 93.046875 77.203125 93.046875 "/>
<path style=" stroke:none;fill-rule:nonzero;fill:rgb(15.686275%,19.607843%,44.313725%);fill-opacity:1;" d="M 75.921875 90.796875 C 75.320312 90.796875 74.867188 91.28125 74.867188 91.84375 C 74.867188 92.40625 75.359375 92.894531 75.921875 92.894531 C 76.488281 92.894531 76.980469 92.40625 76.980469 91.84375 C 76.980469 91.28125 76.488281 90.796875 75.921875 90.796875 "/>
<path style=" stroke:none;fill-rule:nonzero;fill:rgb(15.686275%,19.607843%,44.313725%);fill-opacity:1;" d="M 77.46875 87.871094 C 76.941406 87.871094 76.488281 88.320312 76.488281 88.84375 C 76.488281 89.371094 76.902344 89.820312 77.46875 89.820312 C 78.035156 89.820312 78.449219 89.371094 78.449219 88.84375 C 78.449219 88.320312 77.996094 87.871094 77.46875 87.871094 "/>
<path style=" stroke:none;fill-rule:nonzero;fill:rgb(15.686275%,19.607843%,44.313725%);fill-opacity:1;" d="M 78.070312 90.269531 C 77.65625 90.269531 77.355469 90.609375 77.355469 90.984375 C 77.355469 91.359375 77.695312 91.695312 78.070312 91.695312 C 78.449219 91.695312 78.789062 91.359375 78.789062 90.984375 C 78.789062 90.609375 78.449219 90.269531 78.070312 90.269531 "/>
<path style=" stroke:none;fill-rule:nonzero;fill:rgb(15.686275%,19.607843%,44.313725%);fill-opacity:1;" d="M 77.996094 85.769531 C 77.621094 85.769531 77.316406 86.070312 77.316406 86.445312 C 77.316406 86.820312 77.621094 87.121094 77.996094 87.121094 C 78.371094 87.121094 78.675781 86.820312 78.675781 86.445312 C 78.675781 86.070312 78.371094 85.769531 77.996094 85.769531 "/>
<path style=" stroke:none;fill-rule:nonzero;fill:rgb(15.686275%,19.607843%,44.313725%);fill-opacity:1;" d="M 75.8125 85.46875 C 75.171875 85.46875 74.644531 85.996094 74.644531 86.632812 C 74.644531 87.269531 75.171875 87.792969 75.8125 87.792969 C 76.453125 87.792969 76.980469 87.269531 76.980469 86.632812 C 76.980469 85.996094 76.453125 85.46875 75.8125 85.46875 "/>
<path style=" stroke:none;fill-rule:nonzero;fill:rgb(15.686275%,19.607843%,44.313725%);fill-opacity:1;" d="M 77.167969 83.21875 C 76.675781 83.21875 76.261719 83.632812 76.261719 84.121094 C 76.261719 84.605469 76.675781 85.019531 77.167969 85.019531 C 77.65625 85.019531 78.070312 84.605469 78.070312 84.121094 C 78.070312 83.632812 77.65625 83.21875 77.167969 83.21875 "/>
<path style=" stroke:none;fill-rule:nonzero;fill:rgb(15.686275%,19.607843%,44.313725%);fill-opacity:1;" d="M 76.941406 81.230469 C 76.601562 81.230469 76.339844 81.496094 76.339844 81.832031 C 76.339844 82.167969 76.601562 82.433594 76.941406 82.433594 C 77.28125 82.433594 77.542969 82.167969 77.542969 81.832031 C 77.542969 81.496094 77.28125 81.230469 76.941406 81.230469 "/>
<path style=" stroke:none;fill-rule:nonzero;fill:rgb(15.686275%,19.607843%,44.313725%);fill-opacity:1;" d="M 67.144531 97.734375 C 65.941406 97.734375 64.921875 98.707031 64.921875 99.945312 C 64.921875 101.183594 65.902344 102.160156 67.144531 102.160156 C 68.386719 102.160156 69.367188 101.183594 69.367188 99.945312 C 69.367188 98.707031 68.351562 97.734375 67.144531 97.734375 "/>
<path style=" stroke:none;fill-rule:nonzero;fill:rgb(15.686275%,19.607843%,44.313725%);fill-opacity:1;" d="M 55.503906 99.832031 C 53.957031 99.832031 52.714844 101.070312 52.714844 102.609375 C 52.714844 104.144531 53.957031 105.382812 55.503906 105.382812 C 57.046875 105.382812 58.292969 104.144531 58.292969 102.609375 C 58.292969 101.070312 57.046875 99.832031 55.503906 99.832031 "/>
<path style=" stroke:none;fill-rule:nonzero;fill:rgb(15.686275%,19.607843%,44.313725%);fill-opacity:1;" d="M 58.515625 105.421875 C 57.199219 105.421875 56.105469 106.507812 56.105469 107.820312 C 56.105469 109.132812 57.199219 110.222656 58.515625 110.222656 C 59.835938 110.222656 60.929688 109.132812 60.929688 107.820312 C 60.929688 106.507812 59.875 105.421875 58.515625 105.421875 "/>
<path style=" stroke:none;fill-rule:nonzero;fill:rgb(15.686275%,19.607843%,44.313725%);fill-opacity:1;" d="M 63.90625 104.707031 C 62.660156 104.707031 61.644531 105.722656 61.644531 106.957031 C 61.644531 108.195312 62.660156 109.210938 63.90625 109.210938 C 65.148438 109.210938 66.164062 108.195312 66.164062 106.957031 C 66.164062 105.722656 65.148438 104.707031 63.90625 104.707031 "/>
<path style=" stroke:none;fill-rule:nonzero;fill:rgb(15.686275%,19.607843%,44.313725%);fill-opacity:1;" d="M 68.5 102.683594 C 67.332031 102.683594 66.429688 103.621094 66.429688 104.746094 C 66.429688 105.871094 67.371094 106.808594 68.5 106.808594 C 69.632812 106.808594 70.574219 105.871094 70.574219 104.746094 C 70.574219 103.621094 69.667969 102.683594 68.5 102.683594 "/>
<path style=" stroke:none;fill-rule:nonzero;fill:rgb(15.686275%,19.607843%,44.313725%);fill-opacity:1;" d="M 72.117188 100.246094 C 71.140625 100.246094 70.386719 101.035156 70.386719 101.972656 C 70.386719 102.910156 71.175781 103.695312 72.117188 103.695312 C 73.058594 103.695312 73.851562 102.910156 73.851562 101.972656 C 73.851562 101.035156 73.097656 100.246094 72.117188 100.246094 "/>
<path style=" stroke:none;fill-rule:nonzero;fill:rgb(15.686275%,19.607843%,44.313725%);fill-opacity:1;" d="M 71.25 95.632812 C 70.234375 95.632812 69.40625 96.457031 69.40625 97.46875 C 69.40625 98.484375 70.234375 99.308594 71.25 99.308594 C 72.269531 99.308594 73.097656 98.484375 73.097656 97.46875 C 73.097656 96.457031 72.230469 95.632812 71.25 95.632812 "/>
<path style=" stroke:none;fill-rule:nonzero;fill:rgb(15.686275%,19.607843%,44.313725%);fill-opacity:1;" d="M 52.527344 80.746094 C 50.867188 80.746094 49.511719 82.09375 49.511719 83.746094 C 49.511719 85.394531 50.867188 86.746094 52.527344 86.746094 C 54.183594 86.746094 55.539062 85.394531 55.539062 83.746094 C 55.539062 82.09375 54.183594 80.746094 52.527344 80.746094 M 49.4375 86.855469 C 47.929688 86.855469 46.722656 88.058594 46.722656 89.558594 C 46.722656 91.058594 47.929688 92.257812 49.4375 92.257812 C 50.945312 92.257812 52.148438 91.058594 52.148438 89.558594 C 52.113281 88.058594 50.90625 86.855469 49.4375 86.855469 M 44.277344 83.667969 C 42.804688 83.667969 41.636719 84.832031 41.636719 86.292969 C 41.636719 87.757812 42.804688 88.921875 44.277344 88.921875 C 45.746094 88.921875 46.914062 87.757812 46.914062 86.292969 C 46.914062 84.832031 45.746094 83.667969 44.277344 83.667969 M 47.589844 92.558594 C 46.347656 92.558594 45.367188 93.570312 45.367188 94.769531 C 45.367188 95.96875 46.386719 97.019531 47.589844 97.019531 C 48.796875 97.019531 49.8125 96.007812 49.8125 94.808594 C 49.8125 93.609375 48.835938 92.558594 47.589844 92.558594 M 47.667969 97.546875 C 46.648438 97.546875 45.820312 98.371094 45.820312 99.382812 C 45.820312 100.394531 46.648438 101.222656 47.667969 101.222656 C 48.683594 101.222656 49.511719 100.394531 49.511719 99.382812 C 49.511719 98.371094 48.683594 97.546875 47.667969 97.546875 M 48.796875 101.632812 C 47.96875 101.632812 47.328125 102.269531 47.328125 103.097656 C 47.328125 103.921875 47.96875 104.558594 48.796875 104.558594 C 49.589844 104.558594 50.265625 103.921875 50.265625 103.097656 C 50.265625 102.269531 49.625 101.632812 48.796875 101.632812 M 44.164062 99.046875 C 43.371094 99.046875 42.769531 99.683594 42.769531 100.433594 C 42.769531 101.183594 43.410156 101.820312 44.164062 101.820312 C 44.917969 101.820312 45.554688 101.183594 45.554688 100.433594 C 45.554688 99.644531 44.917969 99.046875 44.164062 99.046875 M 40.054688 97.359375 C 39.300781 97.359375 38.660156 97.957031 38.660156 98.746094 C 38.660156 99.535156 39.265625 100.132812 40.054688 100.132812 C 40.847656 100.132812 41.449219 99.535156 41.449219 98.746094 C 41.449219 97.957031 40.847656 97.359375 40.054688 97.359375 M 41.523438 100.359375 C 40.921875 100.359375 40.433594 100.847656 40.433594 101.445312 C 40.433594 102.046875 40.921875 102.535156 41.523438 102.535156 C 42.128906 102.535156 42.617188 102.046875 42.617188 101.445312 C 42.617188 100.847656 42.128906 100.359375 41.523438 100.359375 M 43.257812 102.535156 C 42.730469 102.535156 42.277344 102.984375 42.277344 103.507812 C 42.277344 104.035156 42.730469 104.484375 43.257812 104.484375 C 43.785156 104.484375 44.238281 104.035156 44.238281 103.507812 C 44.238281 102.984375 43.824219 102.535156 43.257812 102.535156 M 45.820312 102.421875 C 45.21875 102.421875 44.765625 102.910156 44.765625 103.472656 C 44.765625 104.035156 45.253906 104.519531 45.820312 104.519531 C 46.386719 104.519531 46.875 104.035156 46.875 103.472656 C 46.875 102.910156 46.386719 102.421875 45.820312 102.421875 M 47.703125 105.347656 C 47.175781 105.347656 46.722656 105.757812 46.722656 106.320312 C 46.722656 106.882812 47.175781 107.296875 47.703125 107.296875 C 48.230469 107.296875 48.683594 106.847656 48.683594 106.320312 C 48.683594 105.757812 48.230469 105.347656 47.703125 105.347656 M 45.519531 104.972656 C 45.105469 104.972656 44.804688 105.308594 44.804688 105.683594 C 44.804688 106.058594 45.140625 106.394531 45.519531 106.394531 C 45.894531 106.394531 46.234375 106.058594 46.234375 105.683594 C 46.234375 105.308594 45.894531 104.972656 45.519531 104.972656 M 49.476562 107.296875 C 49.097656 107.296875 48.796875 107.597656 48.796875 107.972656 C 48.796875 108.347656 49.097656 108.648438 49.476562 108.648438 C 49.851562 108.648438 50.152344 108.347656 50.152344 107.972656 C 50.152344 107.597656 49.851562 107.296875 49.476562 107.296875 M 50.378906 104.820312 C 49.738281 104.820312 49.210938 105.347656 49.210938 105.984375 C 49.210938 106.621094 49.738281 107.148438 50.378906 107.148438 C 51.019531 107.148438 51.546875 106.621094 51.546875 105.984375 C 51.546875 105.347656 51.058594 104.820312 50.378906 104.820312 M 51.925781 107.523438 C 51.433594 107.523438 51.019531 107.933594 51.019531 108.421875 C 51.019531 108.910156 51.433594 109.320312 51.925781 109.320312 C 52.414062 109.320312 52.828125 108.910156 52.828125 108.421875 C 52.828125 107.933594 52.414062 107.523438 51.925781 107.523438 M 53.996094 108.757812 C 53.65625 108.757812 53.394531 109.023438 53.394531 109.359375 C 53.394531 109.695312 53.65625 109.960938 53.996094 109.960938 C 54.335938 109.960938 54.597656 109.695312 54.597656 109.359375 C 54.597656 109.023438 54.335938 108.757812 53.996094 108.757812 M 43.21875 89.671875 C 42.015625 89.671875 40.996094 90.644531 40.996094 91.882812 C 40.996094 93.121094 41.976562 94.09375 43.21875 94.09375 C 44.464844 94.09375 45.445312 93.121094 45.445312 91.882812 C 45.445312 90.644531 44.425781 89.671875 43.21875 89.671875 M 46.6875 77.742188 C 45.140625 77.742188 43.898438 78.980469 43.898438 80.519531 C 43.898438 82.058594 45.140625 83.292969 46.6875 83.292969 C 48.230469 83.292969 49.476562 82.058594 49.476562 80.519531 C 49.476562 78.980469 48.195312 77.742188 46.6875 77.742188 M 40.621094 78.082031 C 39.300781 78.082031 38.210938 79.167969 38.210938 80.480469 C 38.210938 81.792969 39.300781 82.882812 40.621094 82.882812 C 41.941406 82.882812 43.03125 81.792969 43.03125 80.480469 C 43.03125 79.167969 41.941406 78.082031 40.621094 78.082031 M 38.699219 83.332031 C 37.457031 83.332031 36.4375 84.34375 36.476562 85.542969 C 36.476562 86.78125 37.492188 87.792969 38.699219 87.792969 C 39.90625 87.792969 40.960938 86.78125 40.960938 85.542969 C 40.960938 84.308594 39.941406 83.332031 38.699219 83.332031 M 38.324219 88.582031 C 37.15625 88.582031 36.25 89.519531 36.25 90.644531 C 36.25 91.769531 37.191406 92.707031 38.324219 92.707031 C 39.453125 92.707031 40.394531 91.769531 40.394531 90.644531 C 40.394531 89.519531 39.453125 88.582031 38.324219 88.582031 M 38.886719 93.421875 C 37.910156 93.421875 37.15625 94.207031 37.15625 95.144531 C 37.15625 96.082031 37.945312 96.871094 38.886719 96.871094 C 39.828125 96.871094 40.621094 96.082031 40.621094 95.144531 C 40.621094 94.207031 39.867188 93.421875 38.886719 93.421875 M 43.296875 94.808594 C 42.277344 94.808594 41.488281 95.632812 41.488281 96.609375 C 41.488281 97.621094 42.316406 98.445312 43.296875 98.445312 C 44.277344 98.445312 45.105469 97.621094 45.105469 96.609375 C 45.105469 95.632812 44.3125 94.808594 43.296875 94.808594 "/>
<path style=" stroke:none;fill-rule:nonzero;fill:url(#linear0);" d="M 101.65625 12.902344 L 56.671875 12.902344 C 55.691406 12.902344 54.863281 13.726562 54.863281 14.703125 L 54.863281 38.140625 C 54.863281 39.117188 55.691406 39.941406 56.671875 39.941406 L 101.65625 39.941406 C 102.636719 39.941406 103.464844 39.117188 103.464844 38.140625 L 103.464844 14.703125 C 103.464844 13.726562 102.636719 12.902344 101.65625 12.902344 Z M 101.65625 12.902344 "/>
<use xlink:href="#surface5" mask="url(#mask0)"/>
<path style=" stroke:none;fill-rule:nonzero;fill:url(#linear2);" d="M 38.585938 38.027344 C 38.925781 38.179688 39.566406 38.402344 40.394531 38.402344 C 41.828125 38.441406 42.582031 37.914062 43.144531 36.640625 L 50.757812 19.765625 C 50.453125 19.613281 49.738281 19.425781 49.171875 19.390625 C 48.195312 19.390625 46.875 19.578125 46.046875 21.5625 L 43.558594 27.339844 L 38.738281 19.539062 C 38.4375 19.464844 37.683594 19.3125 37.117188 19.3125 C 35.382812 19.3125 34.441406 19.953125 33.460938 21 L 28.789062 26.101562 L 32.558594 32.027344 C 33.273438 33.117188 34.179688 33.679688 35.683594 33.679688 C 36.664062 33.679688 37.492188 33.453125 37.871094 33.265625 L 33.3125 26.441406 L 36.515625 23.027344 L 41.789062 31.277344 Z M 28.640625 31.613281 C 28.640625 32.851562 28.148438 33.566406 25.699219 33.566406 C 25.363281 33.566406 25.097656 33.566406 24.835938 33.492188 L 24.835938 16.988281 C 24.835938 15.75 25.25 14.4375 27.734375 14.4375 C 28.035156 14.4375 28.375 14.476562 28.640625 14.515625 Z M 23.589844 29.140625 C 23.589844 31.464844 22.085938 33.152344 18.957031 33.492188 C 16.734375 33.753906 13.457031 33.453125 11.910156 33.265625 C 11.875 33.003906 11.835938 32.703125 11.835938 32.441406 C 11.835938 30.414062 12.929688 29.964844 13.984375 29.964844 C 15.039062 29.964844 16.734375 30.152344 18.015625 30.152344 C 19.410156 30.152344 19.824219 29.664062 19.824219 29.253906 C 19.824219 28.691406 19.257812 28.425781 18.203125 28.238281 L 15.265625 27.675781 C 12.816406 27.226562 11.496094 25.539062 11.496094 23.738281 C 11.496094 21.5625 13.042969 19.765625 16.09375 19.425781 C 18.390625 19.164062 21.179688 19.464844 22.726562 19.652344 C 22.761719 19.914062 22.800781 20.140625 22.800781 20.4375 C 22.800781 22.464844 21.746094 22.914062 20.691406 22.914062 C 19.898438 22.914062 18.65625 22.765625 17.261719 22.765625 C 15.828125 22.765625 15.226562 23.175781 15.226562 23.628906 C 15.226562 24.113281 15.792969 24.339844 16.695312 24.488281 L 19.484375 25.015625 C 22.347656 25.503906 23.589844 27.113281 23.589844 29.140625 Z M 23.589844 29.140625 "/>
<use xlink:href="#surface8" mask="url(#mask1)"/>
<path style=" stroke:none;fill-rule:nonzero;fill:rgb(100%,100%,100%);fill-opacity:1;" d="M 73.476562 26.589844 C 73.476562 30.753906 70.535156 33.226562 67.296875 33.226562 C 65.375 33.226562 63.792969 32.328125 62.851562 31.050781 L 62.851562 32.253906 C 62.851562 32.777344 62.546875 33.078125 61.683594 33.078125 C 61.304688 33.078125 60.890625 33.003906 60.664062 32.964844 L 60.664062 16.464844 C 60.664062 15.976562 60.964844 15.640625 61.832031 15.640625 C 62.210938 15.640625 62.625 15.714844 62.851562 15.75 L 62.851562 22.125 C 63.792969 20.851562 65.335938 19.953125 67.296875 19.953125 C 70.535156 19.988281 73.476562 22.425781 73.476562 26.589844 Z M 71.25 26.589844 C 71.25 23.816406 69.367188 21.902344 66.882812 21.902344 C 65.1875 21.902344 63.605469 22.875 62.886719 24.300781 L 62.886719 28.878906 C 63.605469 30.300781 65.1875 31.277344 66.882812 31.277344 C 69.367188 31.316406 71.25 29.402344 71.25 26.589844 Z M 87.679688 27.378906 L 77.769531 27.378906 C 78.070312 29.851562 79.765625 31.238281 82.292969 31.238281 C 83.382812 31.238281 84.25 31.015625 85.042969 30.753906 C 85.605469 30.566406 85.832031 30.488281 86.058594 30.488281 C 86.660156 30.488281 87.074219 30.976562 86.964844 32.175781 C 85.796875 32.664062 84.0625 33.226562 82.214844 33.226562 C 78.222656 33.226562 75.507812 30.527344 75.507812 26.550781 C 75.507812 22.726562 78.371094 19.988281 81.839844 19.988281 C 85.796875 19.988281 87.714844 23.027344 87.714844 26.140625 C 87.753906 26.476562 87.714844 26.925781 87.679688 27.378906 Z M 77.769531 25.691406 L 85.644531 25.691406 C 85.570312 23.515625 84.175781 21.828125 81.875 21.828125 C 79.917969 21.789062 78.109375 23.140625 77.769531 25.691406 Z M 98.152344 32.328125 C 97.023438 32.851562 95.742188 33.191406 94.460938 33.191406 C 91.9375 33.191406 90.390625 31.726562 90.390625 29.253906 L 90.390625 18.265625 C 90.390625 17.703125 90.730469 17.328125 91.558594 17.328125 C 91.9375 17.328125 92.351562 17.402344 92.578125 17.476562 L 92.578125 20.25 L 97.550781 20.25 C 97.585938 20.4375 97.625 20.8125 97.625 21.113281 C 97.625 21.902344 97.285156 22.164062 96.835938 22.164062 L 92.578125 22.164062 L 92.578125 29.101562 C 92.578125 30.566406 93.253906 31.316406 94.6875 31.316406 C 95.96875 31.316406 96.683594 30.753906 97.285156 30.753906 C 97.964844 30.753906 98.265625 31.277344 98.152344 32.328125 Z M 98.152344 32.328125 "/>
</g>
</svg>
