<?xml version="1.0" encoding="UTF-8" standalone="no"?>
<!-- Created with Inkscape (http://www.inkscape.org/) -->

<svg
   xmlns:dc="http://purl.org/dc/elements/1.1/"
   xmlns:cc="http://creativecommons.org/ns#"
   xmlns:rdf="http://www.w3.org/1999/02/22-rdf-syntax-ns#"
   xmlns:svg="http://www.w3.org/2000/svg"
   xmlns="http://www.w3.org/2000/svg"
   xmlns:sodipodi="http://sodipodi.sourceforge.net/DTD/sodipodi-0.dtd"
   xmlns:inkscape="http://www.inkscape.org/namespaces/inkscape"
   width="141.11111mm"
   height="54.858219mm"
   viewBox="0 0 500.00001 194.37952"
   id="svg11709"
   version="1.1"
   inkscape:version="0.91 r13725"
   sodipodi:docname="EFL Cup.svg">
  <defs
     id="defs11711">
    <clipPath
       clipPathUnits="userSpaceOnUse"
       id="clipPath6762">
      <path
         d="m 1189.738,287.456 165.435,0 0,58.663 -165.435,0 0,-58.663 z"
         id="path6764"
         inkscape:connector-curvature="0" />
    </clipPath>
  </defs>
  <sodipodi:namedview
     id="base"
     pagecolor="#ffffff"
     bordercolor="#666666"
     borderopacity="1.0"
     inkscape:pageopacity="0.0"
     inkscape:pageshadow="2"
     inkscape:zoom="2.2599999"
     inkscape:cx="250.00001"
     inkscape:cy="97.189758"
     inkscape:document-units="px"
     inkscape:current-layer="layer1"
     showgrid="false"
     fit-margin-top="0"
     fit-margin-left="0"
     fit-margin-right="0"
     fit-margin-bottom="0"
     inkscape:window-width="1600"
     inkscape:window-height="838"
     inkscape:window-x="-8"
     inkscape:window-y="-8"
     inkscape:window-maximized="1" />
  <metadata
     id="metadata11714">
    <rdf:RDF>
      <cc:Work
         rdf:about="">
        <dc:format>image/svg+xml</dc:format>
        <dc:type
           rdf:resource="http://purl.org/dc/dcmitype/StillImage" />
        <dc:title></dc:title>
      </cc:Work>
    </rdf:RDF>
  </metadata>
  <g
     inkscape:label="Calque 1"
     inkscape:groupmode="layer"
     id="layer1"
     transform="translate(-79.95703,-265.12554)">
    <g
       style="clip-rule:evenodd;fill-rule:evenodd;image-rendering:optimizeQuality;shape-rendering:geometricPrecision;text-rendering:geometricPrecision"
       transform="matrix(3.6759671,0,0,-3.6759671,-4345.7766,1535.4994)"
       id="g6758">
      <g
         id="g6760"
         clip-path="url(#clipPath6762)">
        <g
           id="g6766"
           transform="matrix(0.0983788,0,0,-0.101679,1271.9739,326.59778)">
          <g
             id="g6768"
             transform="translate(-431.2751,333.2766)">
            <path
               d="m 0,0 c -69.456,0 -134.755,-27.047 -183.866,-76.16 -49.113,-49.111 -76.161,-114.41 -76.161,-183.866 0,-69.457 27.048,-134.755 76.161,-183.867 49.111,-49.112 114.41,-76.16 183.866,-76.16 l 862.554,0 c 69.45,0 134.75,27.048 183.86,76.16 49.12,49.112 76.16,114.411 76.16,183.867 0,69.456 -27.04,134.754 -76.16,183.866 C 997.304,-27.047 932.004,0 862.554,0 L 0,0 Z"
               style="fill:#ffffff;fill-opacity:1;fill-rule:nonzero;stroke:none"
               id="path6770"
               inkscape:connector-curvature="0" />
          </g>
        </g>
        <g
           id="g6772"
           transform="matrix(0.0983788,0,0,-0.101679,1271.9739,326.59778)">
          <g
             id="g6774"
             transform="translate(431.2788,310.5996)">
            <path
               d="m 0,0 -862.554,0 c -131.085,0 -237.35,-106.265 -237.35,-237.349 0,-131.085 106.265,-237.35 237.35,-237.35 l 862.554,0 c 131.08,0 237.35,106.265 237.35,237.35 C 237.35,-106.265 131.08,0 0,0 M 175.85,-413.198 C 128.87,-460.17 66.42,-486.037 0,-486.037 l -862.554,0 c -66.427,0 -128.878,25.867 -175.849,72.839 -46.972,46.97 -72.839,109.421 -72.839,175.849 0,66.427 25.867,128.878 72.839,175.848 46.971,46.972 109.422,72.84 175.849,72.84 L 0,11.339 c 66.42,0 128.87,-25.868 175.85,-72.84 46.97,-46.97 72.83,-109.421 72.83,-175.848 0,-66.428 -25.86,-128.879 -72.83,-175.849"
               style="fill:#293f9c;fill-opacity:1;fill-rule:nonzero;stroke:none"
               id="path6776"
               inkscape:connector-curvature="0" />
          </g>
        </g>
        <g
           id="g6778"
           transform="matrix(0.0983788,0,0,-0.101679,1271.9739,326.59778)">
          <g
             id="g6780"
             transform="translate(189.8989,99.2896)">
            <path
               d="m 0,0 0,-52.694 c 0,-37.673 18.94,-55.791 59.9,-55.791 12.35,0 26.55,1.855 35.61,4.742 3.1,1.033 3.71,2.482 3.71,5.564 l 0,16.878 c 0,3.702 -1.45,4.525 -5.97,3.291 -7.41,-1.854 -19.35,-3.708 -29.02,-3.708 -22.86,0 -31.91,9.875 -31.91,32.732 l 0,46.513 c 0,23.052 8.45,32.321 32.31,32.321 11.74,0 23.89,-2.873 32.32,-6.165 2.06,-0.822 5.35,0.209 4.53,3.703 l -3.29,18.313 c -0.62,3.509 -2.07,4.743 -4.73,5.769 -8.65,3.088 -20.38,4.939 -34.38,4.939 C 16.47,56.407 0,40.142 0,0"
               style="fill:#cf123c;fill-opacity:1;fill-rule:nonzero;stroke:none"
               id="path6782"
               inkscape:connector-curvature="0" />
          </g>
        </g>
        <g
           id="g6784"
           transform="matrix(0.0983788,0,0,-0.101679,1271.9739,326.59778)">
          <g
             id="g6786"
             transform="translate(320.8188,142.9396)">
            <path
               d="m 0,0 c -9.67,-8.851 -14.41,-22.854 -14.41,-41.991 l 0,-104.369 c 0,-2.065 1.04,-3.497 3.71,-3.497 l 24.91,0 c 2.46,0 3.7,1.224 3.7,3.497 l 0,101.482 c 0,9.883 1.03,18.111 5.34,23.461 3.73,4.742 10.1,7.42 18.95,7.42 9.06,0 15.44,-2.678 19.14,-7.42 4.33,-5.35 5.15,-13.578 5.15,-23.461 l 0,-101.482 c 0,-2.273 1.44,-3.497 3.91,-3.497 l 24.71,0 c 2.67,0 3.7,1.432 3.7,3.497 l 0,104.369 c 0,19.752 -5.15,33.963 -15.64,42.82 C 73.69,8.855 60.11,12.757 42.2,12.757 23.25,12.757 9.27,8.64 0,0"
               style="fill:#cf123c;fill-opacity:1;fill-rule:nonzero;stroke:none"
               id="path6788"
               inkscape:connector-curvature="0" />
          </g>
        </g>
        <g
           id="g6790"
           transform="matrix(0.0983788,0,0,-0.101679,1271.9739,326.59778)">
          <g
             id="g6792"
             transform="translate(482.8289,70.8916)">
            <path
               d="m 0,0 c 12.76,0 18.52,-1.24 23.06,-5.559 3.9,-3.708 5.76,-10.09 5.76,-20.998 l 0,-1.645 c 0,-9.678 -2.27,-15.44 -6.17,-18.942 -4.53,-3.911 -9.89,-4.942 -21.21,-4.942 l -11.72,0 L -10.28,0 0,0 Z m -42.61,56.398 0,-130.096 c 0,-3.09 1.03,-4.111 4.54,-4.111 l 43.22,0 c 19.76,0 32.53,3.084 41.16,9.877 9.27,7.198 15.24,18.94 15.24,39.521 l 0,2.267 C 61.55,-7.406 56.41,6.173 45.7,14.618 36.44,22.017 23.06,25.732 5.15,25.732 l -15.43,0 0,53.31 c 0,2.469 -1.25,3.507 -3.92,3.507 l -3.5,0 c -15.85,0 -24.91,-8.237 -24.91,-26.151"
               style="fill:#cf123c;fill-opacity:1;fill-rule:nonzero;stroke:none"
               id="path6794"
               inkscape:connector-curvature="0" />
          </g>
        </g>
        <g
           id="g6796"
           transform="matrix(0.0983788,0,0,-0.101679,1271.9739,326.59778)">
          <g
             id="g6798"
             transform="translate(168.5589,154.5566)">
            <path
               d="m 0,0 0,-37.5 -50.339,0 0,-125.112 -40.416,0 0,137.511 C -90.755,-11.237 -79.521,0 -65.661,0 L 0,0 Z m -339.992,-25.101 c 0,13.864 11.236,25.101 25.101,25.101 l 72.738,0 0,-37.5 -57.404,0 0,-25.267 52.776,0 0,-37.86 -52.776,0 0,-24.272 57.654,0 0,-37.713 -98.089,0 0,137.511 z M -189.351,0 c -13.861,0 -25.094,-11.237 -25.094,-25.101 l 0,-137.511 98.587,0 0,37.713 -58.141,0 0,24.289 52.769,0 0,37.843 -52.769,0 L -174.02,0 -189.351,0 Z"
               style="fill:#293f9c;fill-opacity:1;fill-rule:nonzero;stroke:none"
               id="path6800"
               inkscape:connector-curvature="0" />
          </g>
        </g>
        <g
           id="g6802"
           transform="matrix(0.0983788,0,0,-0.101679,1271.9739,326.59778)">
          <g
             id="g6804"
             transform="translate(-525.6551,112.1766)">
            <path
               d="m 0,0 c -6.699,0 -12.131,5.43 -12.131,12.125 0,6.699 5.432,12.132 12.131,12.132 6.695,0 12.131,-5.433 12.131,-12.132 C 12.131,5.43 6.695,0 0,0 m -29.218,-9.464 c -6.402,0 -11.595,5.197 -11.595,11.596 0,6.404 5.193,11.598 11.595,11.598 6.401,0 11.595,-5.194 11.595,-11.598 0,-6.399 -5.191,-11.592 -11.595,-11.596 m -3.888,-32.271 c -7.665,0 -13.878,6.207 -13.878,13.869 0,7.664 6.213,13.873 13.878,13.873 7.66,0 13.876,-6.209 13.876,-13.873 0,-7.662 -6.216,-13.869 -13.876,-13.869 m 2.667,-34.954 c -8.223,0 -14.906,6.676 -14.906,14.904 0,8.232 6.683,14.905 14.906,14.905 8.232,0 14.909,-6.673 14.909,-14.905 0,-8.228 -6.677,-14.904 -14.909,-14.904 m 12.685,-34.961 c -8.846,0 -16.024,7.174 -16.024,16.026 0,8.847 7.178,16.019 16.024,16.019 8.851,0 16.025,-7.172 16.025,-16.019 0,-8.852 -7.174,-16.026 -16.025,-16.026 m 40.243,-2.449 c -10.209,0 -18.48,8.274 -18.48,18.479 0,10.205 8.271,18.478 18.48,18.478 10.203,0 18.477,-8.273 18.477,-18.478 0,-10.205 -8.274,-18.479 -18.477,-18.479 M -0.588,-34.39 c -8.099,0 -14.663,6.562 -14.663,14.66 0,8.095 6.559,14.661 14.663,14.661 8.095,0 14.653,-6.566 14.653,-14.661 0,-8.098 -6.558,-14.66 -14.653,-14.66 M 71.204,93.05 c -2.239,0 -4.047,1.813 -4.047,4.045 0,2.236 1.808,4.045 4.043,4.045 2.234,0 4.048,-1.812 4.042,-4.045 0.006,-2.24 -1.808,-4.045 -4.038,-4.045 M 57.279,84.62 c -3.353,0 -6.058,2.711 -6.058,6.052 0,3.348 2.705,6.054 6.058,6.054 3.342,0.008 6.049,-2.704 6.049,-6.054 0,-3.341 -2.707,-6.052 -6.049,-6.052 M 47.173,66.678 c -4.306,0 -7.785,3.486 -7.785,7.791 0,4.292 3.483,7.779 7.785,7.779 4.3,0 7.779,-3.487 7.779,-7.779 0,-4.305 -3.479,-7.791 -7.779,-7.791 m -6.047,16.645 c -2.47,0 -4.47,1.996 -4.47,4.465 0,2.463 2,4.467 4.47,4.467 2.466,0 4.465,-2.004 4.465,-4.467 0,-2.469 -1.999,-4.465 -4.465,-4.465 M 14.669,67.822 c -2.674,0 -4.837,2.167 -4.837,4.837 0,2.669 2.163,4.832 4.837,4.832 2.671,0 4.832,-2.163 4.826,-4.832 0.006,-2.67 -2.155,-4.837 -4.826,-4.837 M 29.2,70.191 c -3.568,-0.008 -6.466,2.894 -6.466,6.46 0,3.57 2.898,6.467 6.466,6.467 3.572,0 6.468,-2.893 6.468,-6.467 0,-3.566 -2.896,-6.468 -6.468,-6.46 M 16.727,50.588 c -3.901,0 -7.064,3.159 -7.064,7.059 0,3.898 3.163,7.059 7.064,7.059 3.898,0 7.055,-3.161 7.055,-7.059 0,-3.9 -3.157,-7.059 -7.055,-7.059 M -0.187,51.33 c -3.627,0 -6.57,2.935 -6.57,6.561 0.004,3.628 2.943,6.566 6.57,6.566 3.625,0 6.565,-2.938 6.565,-6.566 0,-3.623 -2.94,-6.561 -6.565,-6.561 M -11.719,36.899 c -3.999,0 -7.239,3.24 -7.239,7.236 0,3.995 3.24,7.235 7.239,7.235 3.996,0 7.231,-3.24 7.236,-7.235 0,-3.996 -3.24,-7.236 -7.236,-7.236 m -9.64,-20.014 c -5.058,0 -9.159,4.102 -9.159,9.16 0,5.06 4.101,9.159 9.159,9.159 5.061,0 9.16,-4.099 9.16,-9.159 0,-5.058 -4.101,-9.16 -9.16,-9.16 M 5.743,28.047 c -5.145,0 -9.317,4.168 -9.317,9.32 0,5.146 4.172,9.316 9.317,9.316 5.149,0 9.314,-4.17 9.314,-9.316 0,-5.152 -4.169,-9.32 -9.314,-9.32 m 30.941,17.305 c -5.372,0 -9.723,4.354 -9.723,9.726 0,5.364 4.351,9.718 9.723,9.718 5.368,0 9.719,-4.354 9.719,-9.718 0,-5.372 -4.351,-9.726 -9.719,-9.726 M 29.063,18.208 c -6.791,0 -12.294,5.505 -12.294,12.297 0,6.791 5.503,12.292 12.294,12.292 6.789,0 12.296,-5.501 12.296,-12.292 0,-6.792 -5.507,-12.297 -12.296,-12.297 m -0.517,-33.42 c -8.22,0 -14.891,6.661 -14.891,14.889 0,8.228 6.671,14.896 14.891,14.896 8.228,0 14.895,-6.668 14.895,-14.896 0,-8.228 -6.667,-14.889 -14.895,-14.889 M 6.627,-74.374 c -9.694,0 -17.553,7.861 -17.553,17.555 0,9.691 7.859,17.55 17.555,17.55 9.687,0 17.553,-7.859 17.553,-17.55 0,-9.694 -7.866,-17.555 -17.555,-17.555 m 34.147,21.125 c -9.918,0 -17.966,8.045 -17.966,17.961 0,9.919 8.048,17.961 17.966,17.961 9.921,0 17.959,-8.042 17.965,-17.961 -0.006,-9.916 -8.048,-17.961 -17.965,-17.961 m 20.524,-40.716 c -11.114,0 -20.119,9.01 -20.119,20.12 0,11.11 9.005,20.117 20.119,20.117 11.11,0 20.117,-9.007 20.117,-20.117 0,-11.11 -9.007,-20.12 -20.117,-20.12 m 36.206,-64.108 c -6.697,0 -12.127,5.434 -12.127,12.133 0,6.695 5.43,12.129 12.127,12.129 6.695,0 12.131,-5.434 12.135,-12.129 -0.004,-6.699 -5.44,-12.133 -12.135,-12.133 m 23.263,-19.763 c -6.401,0 -11.594,5.185 -11.594,11.591 0,6.405 5.193,11.593 11.597,11.593 6.4,0 11.595,-5.188 11.595,-11.593 0,-6.406 -5.195,-11.591 -11.598,-11.591 m 27.921,9.345 c -7.66,0 -13.874,6.213 -13.874,13.878 0,7.657 6.214,13.869 13.874,13.869 7.665,0 13.881,-6.209 13.876,-13.869 0.005,-7.665 -6.211,-13.878 -13.876,-13.878 m 28.038,18.243 c -8.229,0 -14.902,6.677 -14.902,14.904 0,8.226 6.673,14.904 14.902,14.904 8.235,0 14.909,-6.678 14.909,-14.904 0,-8.227 -6.674,-14.904 -14.909,-14.904 m 22.967,26.789 c -8.845,-0.003 -16.019,7.171 -16.019,16.018 0,8.851 7.174,16.022 16.019,16.022 8.852,0 16.025,-7.171 16.025,-16.022 0,-8.847 -7.173,-16.021 -16.025,-16.018 m -20.12,32.388 c -10.209,0 -18.48,8.275 -18.48,18.481 0.002,10.201 8.275,18.474 18.48,18.474 10.203,0 18.477,-8.273 18.477,-18.474 0,-10.206 -8.274,-18.481 -18.477,-18.481 m -54.186,-54.108 c -8.095,0 -14.654,6.559 -14.654,14.651 0,8.099 6.559,14.662 14.659,14.662 8.093,0 14.656,-6.563 14.656,-14.662 0,-8.092 -6.563,-14.658 -14.661,-14.651 m -137.066,14.367 c -2.231,0 -4.049,1.813 -4.049,4.049 0,2.232 1.818,4.042 4.049,4.042 2.235,0 4.048,-1.81 4.048,-4.042 0,-2.236 -1.813,-4.049 -4.048,-4.049 m 12.523,-10.855 c -3.348,-0.003 -6.057,2.711 -6.057,6.057 0.002,3.341 2.709,6.052 6.057,6.052 3.343,0 6.056,-2.711 6.056,-6.052 0,-3.346 -2.713,-6.06 -6.056,-6.057 m 19.09,-2.379 c -4.3,0 -7.785,3.489 -7.785,7.79 0,4.299 3.485,7.786 7.785,7.786 4.3,0 7.78,-3.487 7.78,-7.786 0,-4.301 -3.48,-7.79 -7.78,-7.79 m -8.509,-8.572 c -2.471,0 -4.471,1.998 -4.467,4.461 0,2.468 1.996,4.463 4.467,4.463 2.462,0 4.464,-1.995 4.464,-4.463 0,-2.463 -1.997,-4.461 -4.464,-4.461 m 26.326,-15.717 c -2.669,0 -4.832,2.167 -4.832,4.832 0,2.67 2.163,4.829 4.832,4.829 2.667,0 4.831,-2.159 4.831,-4.829 0,-2.665 -2.158,-4.832 -4.831,-4.832 m -10.728,8.955 c -3.572,0 -6.464,2.896 -6.464,6.463 0,3.573 2.892,6.471 6.464,6.471 3.571,0 6.466,-2.898 6.466,-6.466 0,-3.572 -2.895,-6.468 -6.466,-6.468 m 22.7,-1.895 c -3.902,0 -7.061,3.16 -7.061,7.057 0,3.899 3.159,7.061 7.061,7.061 3.898,0 7.054,-3.162 7.054,-7.061 0,-3.897 -3.156,-7.057 -7.054,-7.057 m 8.244,-14.273 c -3.627,0 -6.568,2.937 -6.568,6.562 0,3.628 2.941,6.567 6.568,6.567 3.628,0 6.564,-2.939 6.564,-6.567 0,-3.625 -2.94,-6.562 -6.564,-6.562 m 17.68,-3.783 c -3.998,0 -7.241,3.239 -7.241,7.231 0,4 3.243,7.237 7.241,7.237 3.994,0 7.234,-3.237 7.234,-7.237 0,-3.992 -3.24,-7.231 -7.234,-7.231 m 20.482,-1.328 c -5.059,0 -9.159,4.104 -9.159,9.164 0,5.057 4.1,9.16 9.159,9.16 5.062,0 9.16,-4.103 9.16,-9.16 0,-5.06 -4.101,-9.164 -9.16,-9.164 m -23.351,17.757 c -5.148,0 -9.319,4.172 -9.319,9.316 0,5.143 4.171,9.316 9.319,9.316 5.145,0 9.314,-4.173 9.314,-9.316 0,-5.144 -4.169,-9.316 -9.314,-9.316 M 41.97,-145.37 c -5.371,0 -9.724,4.353 -9.724,9.725 0,5.368 4.353,9.718 9.724,9.718 5.367,0 9.717,-4.35 9.717,-9.718 0,-5.372 -4.35,-9.725 -9.717,-9.725 m 25.085,3.114 c -6.79,0 -12.293,5.505 -12.293,12.295 0,6.791 5.503,12.292 12.293,12.296 6.792,0 12.299,-5.505 12.293,-12.296 0,-6.79 -5.501,-12.295 -12.293,-12.295 m 26.959,12.367 c -8.227,0 -14.898,6.669 -14.898,14.893 0,8.228 6.671,14.893 14.892,14.893 8.227,0 14.894,-6.665 14.894,-14.893 0,-8.224 -6.667,-14.893 -14.888,-14.893 m 59.888,6.604 c -9.697,0 -17.554,7.859 -17.554,17.555 0,9.692 7.857,17.551 17.554,17.551 9.695,0 17.553,-7.859 17.553,-17.551 0,-9.696 -7.864,-17.555 -17.553,-17.555 m -35.72,18.399 c -9.924,0 -17.965,8.046 -17.965,17.961 0,9.921 8.041,17.963 17.965,17.963 9.917,0 17.958,-8.042 17.958,-17.963 0,-9.915 -8.041,-17.961 -17.958,-17.961 m 23.128,34.896 c -11.11,0 -20.117,9.012 -20.117,20.12 0,11.111 9.007,20.118 20.117,20.118 11.114,0 20.121,-9.007 20.121,-20.118 0,-11.108 -9.007,-20.12 -20.121,-20.12 m 44.33,75.396 c -6.697,0 -12.125,5.43 -12.125,12.125 0,6.708 5.428,12.129 12.125,12.129 6.703,0 12.131,-5.421 12.131,-12.129 0,-6.695 -5.428,-12.125 -12.131,-12.125 m 5.956,30.833 c -6.402,0 -11.595,5.192 -11.595,11.596 0,6.404 5.193,11.594 11.595,11.594 6.402,0 11.593,-5.19 11.593,-11.594 0,-6.404 -5.191,-11.596 -11.593,-11.596 m -24.031,16.086 c -7.665,0 -13.876,6.213 -13.876,13.879 0,7.657 6.211,13.869 13.876,13.869 7.66,0 13.87,-6.212 13.87,-13.869 0,-7.666 -6.21,-13.879 -13.87,-13.879 m -30.712,13.623 c -8.229,0 -14.908,6.674 -14.908,14.9 0,8.232 6.679,14.905 14.908,14.905 8.231,0 14.906,-6.673 14.906,-14.905 0,-8.226 -6.675,-14.9 -14.906,-14.9 m -35.648,4.817 c -8.854,0 -16.026,7.173 -16.026,16.018 0,8.852 7.172,16.023 16.026,16.023 8.846,0 16.018,-7.171 16.018,-16.023 0,-8.845 -7.172,-16.018 -16.018,-16.018 M 81.09,33.456 c -10.205,0 -18.481,8.274 -18.481,18.477 0,10.202 8.276,18.479 18.481,18.479 10.203,0 18.478,-8.277 18.478,-18.479 0,-10.203 -8.275,-18.477 -18.478,-18.477 m 77.259,-14.137 c -8.098,0 -14.661,6.558 -14.661,14.656 0,8.096 6.563,14.662 14.661,14.662 8.099,0 14.66,-6.566 14.66,-14.662 0,-8.098 -6.561,-14.656 -14.66,-14.656 m 65.279,-109.973 c -2.239,0 -4.047,1.809 -4.047,4.041 0,2.236 1.808,4.051 4.047,4.051 2.232,0 4.04,-1.815 4.04,-4.051 0,-2.232 -1.808,-4.041 -4.04,-4.041 m 1.399,13.258 c -3.342,0 -6.056,2.71 -6.056,6.052 0,3.346 2.714,6.054 6.056,6.054 3.348,0 6.057,-2.708 6.057,-6.054 0,-3.342 -2.709,-6.052 -6.057,-6.052 m -8.982,15.126 c -4.3,0 -7.785,3.482 -7.785,7.783 0,4.299 3.485,7.789 7.785,7.789 4.3,0 7.783,-3.49 7.783,-7.789 0,-4.301 -3.483,-7.783 -7.783,-7.783 m 14.564,1.896 c -2.473,0 -4.469,2 -4.469,4.463 0,2.468 1.996,4.473 4.469,4.473 2.464,0 4.46,-2.005 4.46,-4.473 0,-2.463 -1.996,-4.463 -4.46,-4.463 m 0.308,30.109 c -2.673,0 -4.834,2.16 -4.834,4.832 0,2.67 2.161,4.832 4.834,4.832 2.665,0 4.827,-2.162 4.827,-4.832 0,-2.672 -2.162,-4.832 -4.827,-4.832 m -3.992,-16.224 c -3.577,0 -6.466,2.901 -6.466,6.471 0,3.571 2.889,6.465 6.466,6.465 3.57,0 6.464,-2.894 6.464,-6.465 0,-3.57 -2.894,-6.471 -6.464,-6.471 m -10.221,19.719 c -3.9,0 -7.061,3.163 -7.061,7.06 0,3.9 3.161,7.06 7.061,7.06 3.895,0 7.056,-3.16 7.056,-7.06 0,-3.897 -3.161,-7.06 -7.056,-7.06 m 8.666,15.017 c -3.628,0 -6.566,2.936 -6.566,6.567 0,3.631 2.938,6.566 6.566,6.566 3.625,0 6.563,-2.935 6.563,-6.566 0,-3.631 -2.938,-6.567 -6.563,-6.567 m -6.145,16.198 c -3.996,0 -7.235,3.243 -7.235,7.236 0,3.996 3.239,7.234 7.235,7.234 3.995,0 7.234,-3.238 7.234,-7.234 0,-3.993 -3.239,-7.236 -7.234,-7.236 m -10.847,15.467 c -5.059,0 -9.163,4.11 -9.163,9.163 0,5.062 4.104,9.16 9.163,9.16 5.06,0 9.159,-4.098 9.159,-9.16 0,-5.053 -4.099,-9.163 -9.159,-9.163 m -3.747,-29.288 c -5.149,0 -9.32,4.172 -9.32,9.318 0,5.146 4.171,9.32 9.32,9.32 5.144,0 9.313,-4.174 9.313,-9.32 0,-5.146 -4.169,-9.318 -9.313,-9.318 M 204.5,-45.428 c -5.373,0 -9.725,4.354 -9.725,9.718 0,5.369 4.352,9.723 9.725,9.723 5.366,0 9.718,-4.354 9.718,-9.723 0,-5.364 -4.352,-9.718 -9.718,-9.718 m -17.475,16.308 c -6.791,0 -12.295,5.509 -12.295,12.296 0,6.789 5.504,12.297 12.295,12.297 6.788,0 12.296,-5.508 12.296,-12.297 0,-6.787 -5.508,-12.296 -12.296,-12.296 m -26.438,13.261 c -8.224,0 -14.891,6.67 -14.891,14.897 0,8.219 6.667,14.893 14.891,14.893 8.227,0 14.894,-6.674 14.894,-14.893 0,-8.227 -6.667,-14.897 -14.894,-14.897 m -37.966,44.577 c -9.696,0 -17.555,7.858 -17.555,17.554 0,9.691 7.859,17.55 17.555,17.55 9.693,0 17.552,-7.859 17.552,-17.55 0,-9.696 -7.859,-17.554 -17.552,-17.554 m 1.571,-40.748 c -9.917,0 -17.959,8.037 -17.959,17.961 0,9.923 8.042,17.962 17.959,17.962 9.924,0 17.966,-8.039 17.966,-17.962 0,-9.924 -8.042,-17.961 -17.966,-17.961 M 100.657,7.438 c 0,11.109 -9.007,20.116 -20.117,20.116 -11.109,0 -20.118,-9.007 -20.118,-20.116 0,-11.11 9.009,-20.122 20.118,-20.122 11.11,0 20.117,9.012 20.117,20.122"
               style="fill:#293f9c;fill-opacity:1;fill-rule:nonzero;stroke:none"
               id="path6806"
               inkscape:connector-curvature="0" />
          </g>
        </g>
        <g
           id="g6808"
           transform="matrix(0.0983788,0,0,-0.101679,1271.9739,326.59778)">
          <g
             id="g6810"
             transform="translate(-417.1021,-116.2904)">
            <path
               d="m 0,0 c 0,7.828 -6.346,14.173 -14.174,14.173 -7.827,0 -14.173,-6.345 -14.173,-14.173 0,-7.827 6.346,-14.172 14.173,-14.172 C -6.346,-14.172 0,-7.827 0,0"
               style="fill:#cf123c;fill-opacity:1;fill-rule:evenodd;stroke:none"
               id="path6812"
               inkscape:connector-curvature="0" />
          </g>
        </g>
        <g
           id="g6814"
           transform="matrix(0.0983788,0,0,-0.101679,1271.9739,326.59778)">
          <g
             id="g6816"
             transform="translate(-445.4491,262.7906)">
            <path
               d="m 0,0 c 0,-7.827 6.346,-14.173 14.173,-14.173 7.828,0 14.174,6.346 14.174,14.173 0,7.828 -6.346,14.174 -14.174,14.174 C 6.346,14.174 0,7.828 0,0"
               style="fill:#cf123c;fill-opacity:1;fill-rule:evenodd;stroke:none"
               id="path6818"
               inkscape:connector-curvature="0" />
          </g>
        </g>
        <g
           id="g6820"
           transform="matrix(0.0983788,0,0,-0.101679,1271.9739,326.59778)">
          <g
             id="g6822"
             transform="translate(-476.3681,-111.3934)">
            <path
               d="M 0,0 C 2.419,7.445 -1.654,15.44 -9.1,17.859 -16.544,20.278 -24.54,16.204 -26.959,8.76 -29.378,1.316 -25.303,-6.68 -17.858,-9.099 -10.414,-11.518 -2.419,-7.444 0,0"
               style="fill:#cf123c;fill-opacity:1;fill-rule:evenodd;stroke:none"
               id="path6824"
               inkscape:connector-curvature="0" />
          </g>
        </g>
        <g
           id="g6826"
           transform="matrix(0.0983788,0,0,-0.101679,1271.9739,326.59778)">
          <g
             id="g6828"
             transform="translate(-386.1841,257.8936)">
            <path
               d="m 0,0 c -2.419,-7.444 1.655,-15.44 9.099,-17.859 7.445,-2.419 15.441,1.655 17.86,9.1 2.418,7.445 -1.656,15.44 -9.1,17.859 C 10.415,11.519 2.419,7.445 0,0"
               style="fill:#cf123c;fill-opacity:1;fill-rule:evenodd;stroke:none"
               id="path6830"
               inkscape:connector-curvature="0" />
          </g>
        </g>
        <g
           id="g6832"
           transform="matrix(0.0983788,0,0,-0.101679,1271.9739,326.59778)">
          <g
             id="g6834"
             transform="translate(-531.2192,-88.4224)">
            <path
               d="m 0,0 c 4.601,6.333 3.198,15.196 -3.135,19.797 -6.333,4.601 -15.197,3.198 -19.797,-3.134 -4.601,-6.334 -3.197,-15.196 3.136,-19.797 C -13.463,-7.735 -4.601,-6.332 0,0"
               style="fill:#cf123c;fill-opacity:1;fill-rule:evenodd;stroke:none"
               id="path6836"
               inkscape:connector-curvature="0" />
          </g>
        </g>
        <g
           id="g6838"
           transform="matrix(0.0983788,0,0,-0.101679,1271.9739,326.59778)">
          <g
             id="g6840"
             transform="translate(-331.3331,234.9226)">
            <path
               d="m 0,0 c -4.6,-6.332 -3.197,-15.195 3.135,-19.797 6.334,-4.601 15.197,-3.197 19.798,3.135 4.601,6.333 3.197,15.197 -3.136,19.797 C 13.464,7.736 4.601,6.334 0,0"
               style="fill:#cf123c;fill-opacity:1;fill-rule:evenodd;stroke:none"
               id="path6842"
               inkscape:connector-curvature="0" />
          </g>
        </g>
        <g
           id="g6844"
           transform="matrix(0.0983788,0,0,-0.101679,1271.9739,326.59778)">
          <g
             id="g6846"
             transform="translate(-576.2871,-49.6254)">
            <path
               d="M 0,0 C 6.333,4.601 7.737,13.464 3.136,19.798 -1.465,26.13 -10.328,27.534 -16.661,22.933 -22.993,18.332 -24.396,9.469 -19.796,3.136 -15.194,-3.197 -6.333,-4.601 0,0"
               style="fill:#cf123c;fill-opacity:1;fill-rule:evenodd;stroke:none"
               id="path6848"
               inkscape:connector-curvature="0" />
          </g>
        </g>
        <g
           id="g6850"
           transform="matrix(0.0983788,0,0,-0.101679,1271.9739,326.59778)">
          <g
             id="g6852"
             transform="translate(-286.2651,196.1256)">
            <path
               d="m 0,0 c -6.333,-4.601 -7.736,-13.464 -3.136,-19.796 4.602,-6.334 13.466,-7.737 19.798,-3.137 6.333,4.601 7.736,13.465 3.135,19.798 C 15.196,3.197 6.333,4.602 0,0"
               style="fill:#cf123c;fill-opacity:1;fill-rule:evenodd;stroke:none"
               id="path6854"
               inkscape:connector-curvature="0" />
          </g>
        </g>
        <g
           id="g6856"
           transform="matrix(0.0983788,0,0,-0.101679,1271.9739,326.59778)">
          <g
             id="g6858"
             transform="translate(-607.1601,1.1996)">
            <path
               d="M 0,0 C 7.445,2.419 11.519,10.415 9.1,17.859 6.681,25.305 -1.313,29.379 -8.759,26.96 -16.203,24.541 -20.276,16.546 -17.858,9.101 -15.438,1.656 -7.445,-2.419 0,0"
               style="fill:#cf123c;fill-opacity:1;fill-rule:evenodd;stroke:none"
               id="path6860"
               inkscape:connector-curvature="0" />
          </g>
        </g>
        <g
           id="g6862"
           transform="matrix(0.0983788,0,0,-0.101679,1271.9739,326.59778)">
          <g
             id="g6864"
             transform="translate(-255.3911,145.3016)">
            <path
               d="m 0,0 c -7.445,-2.419 -11.518,-10.415 -9.101,-17.859 2.421,-7.445 10.416,-11.519 17.859,-9.1 7.446,2.418 11.52,10.415 9.101,17.859 C 15.44,-1.655 7.444,2.419 0,0"
               style="fill:#cf123c;fill-opacity:1;fill-rule:evenodd;stroke:none"
               id="path6866"
               inkscape:connector-curvature="0" />
          </g>
        </g>
        <g
           id="g6868"
           transform="matrix(0.0983788,0,0,-0.101679,1271.9739,326.59778)">
          <g
             id="g6870"
             transform="translate(-620.8162,59.0776)">
            <path
               d="m 0,0 c 7.828,0 14.173,6.345 14.173,14.173 0,7.829 -6.344,14.174 -14.172,14.174 -7.828,0 -14.173,-6.345 -14.173,-14.173 C -14.172,6.346 -7.828,0.001 0,0"
               style="fill:#cf123c;fill-opacity:1;fill-rule:evenodd;stroke:none"
               id="path6872"
               inkscape:connector-curvature="0" />
          </g>
        </g>
        <g
           id="g6874"
           transform="matrix(0.0983788,0,0,-0.101679,1271.9739,326.59778)">
          <g
             id="g6876"
             transform="translate(-241.7351,87.4246)">
            <path
               d="m 0,0 c -7.827,0 -14.172,-6.345 -14.173,-14.173 10e-4,-7.829 6.346,-14.174 14.173,-14.174 7.828,0 14.174,6.346 14.174,14.173 C 14.174,-6.345 7.828,0 0,0"
               style="fill:#cf123c;fill-opacity:1;fill-rule:evenodd;stroke:none"
               id="path6878"
               inkscape:connector-curvature="0" />
          </g>
        </g>
        <g
           id="g6880"
           transform="matrix(0.0983788,0,0,-0.101679,1271.9739,326.59778)">
          <g
             id="g6882"
             transform="translate(-615.9201,118.3436)">
            <path
               d="M 0,0 C 7.446,-2.419 15.441,1.654 17.86,9.099 20.279,16.544 16.206,24.54 8.762,26.958 1.316,29.377 -6.678,25.303 -9.098,17.859 -11.516,10.414 -7.444,2.419 0,0"
               style="fill:#cf123c;fill-opacity:1;fill-rule:evenodd;stroke:none"
               id="path6884"
               inkscape:connector-curvature="0" />
          </g>
        </g>
        <g
           id="g6886"
           transform="matrix(0.0983788,0,0,-0.101679,1271.9739,326.59778)">
          <g
             id="g6888"
             transform="translate(-246.6321,28.1596)">
            <path
               d="m 0,0 c -7.445,2.418 -15.439,-1.655 -17.859,-9.099 -2.418,-7.446 1.655,-15.441 9.099,-17.86 7.445,-2.419 15.442,1.656 17.861,9.099 C 11.52,-10.414 7.446,-2.419 0,0"
               style="fill:#cf123c;fill-opacity:1;fill-rule:evenodd;stroke:none"
               id="path6890"
               inkscape:connector-curvature="0" />
          </g>
        </g>
        <g
           id="g6892"
           transform="matrix(0.0983788,0,0,-0.101679,1271.9739,326.59778)">
          <g
             id="g6894"
             transform="translate(-592.9481,173.1956)">
            <path
               d="M 0,0 C 6.333,-4.602 15.195,-3.198 19.797,3.134 24.398,9.468 22.996,18.33 16.663,22.931 10.329,27.532 1.467,26.128 -3.135,19.796 -7.735,13.462 -6.333,4.601 0,0"
               style="fill:#cf123c;fill-opacity:1;fill-rule:evenodd;stroke:none"
               id="path6896"
               inkscape:connector-curvature="0" />
          </g>
        </g>
        <g
           id="g6898"
           transform="matrix(0.0983788,0,0,-0.101679,1271.9739,326.59778)">
          <g
             id="g6900"
             transform="translate(-269.6031,-26.6914)">
            <path
               d="m 0,0 c -6.333,4.6 -15.196,3.197 -19.797,-3.135 -4.601,-6.335 -3.198,-15.196 3.134,-19.797 6.334,-4.601 15.198,-3.197 19.799,3.134 C 7.737,-13.464 6.334,-4.601 0,0"
               style="fill:#cf123c;fill-opacity:1;fill-rule:evenodd;stroke:none"
               id="path6902"
               inkscape:connector-curvature="0" />
          </g>
        </g>
        <g
           id="g6904"
           transform="matrix(0.0983788,0,0,-0.101679,1271.9739,326.59778)">
          <g
             id="g6906"
             transform="translate(-554.1511,218.2636)">
            <path
               d="M 0,0 C 4.601,-6.333 13.463,-7.737 19.797,-3.136 26.13,1.465 27.535,10.327 22.933,16.66 18.332,22.993 9.469,24.396 3.136,19.796 -3.197,15.194 -4.602,6.333 0,0"
               style="fill:#cf123c;fill-opacity:1;fill-rule:evenodd;stroke:none"
               id="path6908"
               inkscape:connector-curvature="0" />
          </g>
        </g>
        <g
           id="g6910"
           transform="matrix(0.0983788,0,0,-0.101679,1271.9739,326.59778)">
          <g
             id="g6912"
             transform="translate(-308.399,-71.7584)">
            <path
               d="m 0,0 c -4.603,6.332 -13.465,7.735 -19.798,3.135 -6.333,-4.603 -7.736,-13.464 -3.137,-19.795 4.603,-6.334 13.466,-7.738 19.799,-3.139 C 3.197,-15.196 4.601,-6.334 0,0"
               style="fill:#cf123c;fill-opacity:1;fill-rule:evenodd;stroke:none"
               id="path6914"
               inkscape:connector-curvature="0" />
          </g>
        </g>
        <g
           id="g6916"
           transform="matrix(0.0983788,0,0,-0.101679,1271.9739,326.59778)">
          <g
             id="g6918"
             transform="translate(-503.3261,249.1376)">
            <path
               d="M 0,0 C 2.419,-7.446 10.413,-11.52 17.858,-9.1 25.304,-6.681 29.379,1.312 26.959,8.758 24.54,16.203 16.545,20.276 9.1,17.858 1.655,15.438 -2.419,7.445 0,0"
               style="fill:#cf123c;fill-opacity:1;fill-rule:evenodd;stroke:none"
               id="path6920"
               inkscape:connector-curvature="0" />
          </g>
        </g>
        <g
           id="g6922"
           transform="matrix(0.0983788,0,0,-0.101679,1271.9739,326.59778)">
          <g
             id="g6924"
             transform="translate(-359.2241,-102.6304)">
            <path
               d="m 0,0 c -2.42,7.443 -10.416,11.516 -17.86,9.098 -7.445,-2.42 -11.518,-10.414 -9.1,-17.857 2.42,-7.446 10.416,-11.52 17.86,-9.103 C -1.655,-15.442 2.419,-7.447 0,0"
               style="fill:#cf123c;fill-opacity:1;fill-rule:evenodd;stroke:none"
               id="path6926"
               inkscape:connector-curvature="0" />
          </g>
        </g>
      </g>
    </g>
  </g>
</svg>
