<?xml version="1.0" encoding="utf-8"?>
<!-- Generator: Adobe Illustrator 27.7.0, SVG Export Plug-In . SVG Version: 6.00 Build 0)  -->
<svg version="1.1" id="Layer_2_00000044875584267425460990000015866604477387741319_"
	 xmlns="http://www.w3.org/2000/svg" xmlns:xlink="http://www.w3.org/1999/xlink" x="0px" y="0px" viewBox="0 0 500 149.5"
	 style="enable-background:new 0 0 500 149.5;" xml:space="preserve">
<style type="text/css">
	.st0{fill:#FFFFFF;}
	.st1{fill:#B69B40;}
	.st2{fill:#283271;}
	.st3{fill:url(#Plinth_00000116228776098823569400000005061114898105152943_);}
	.st4{opacity:0.4;fill:url(#p40_00000007424918119337763380000006022140622639788176_);enable-background:new    ;}
	.st5{fill:url(#Sky_x5F_Logo_00000121969221151122133570000017289690417088534934_);}
	.st6{opacity:0.25;fill:url(#s25_00000147221963935229003820000014167903262947752119_);enable-background:new    ;}
</style>
<g id="Layer_1-2">
	<path class="st0" d="M74.8,149.5c-20,0-38.7-7.8-52.8-21.9C7.8,113.5,0,94.7,0,74.8S7.8,36,21.9,21.9C36,7.8,54.8,0,74.8,0h350.5
		c20,0,38.7,7.8,52.9,21.9C492.2,36,500,54.8,500,74.7s-7.8,38.7-21.9,52.9c-14.1,14.1-32.9,21.9-52.9,21.9L74.8,149.5L74.8,149.5z"
		/>
	<path class="st1" d="M475.8,24.2c-13.5-13.5-31.4-20.9-50.5-20.9H74.8c-19.1,0-37,7.4-50.5,20.9C10.7,37.7,3.3,55.7,3.3,74.8
		s7.4,37,20.9,50.5s31.4,20.9,50.5,20.9h350.5c19.1,0,37-7.4,50.5-20.9s20.9-31.4,20.9-50.5S489.3,37.7,475.8,24.2 M425.3,142.9
		H74.8c-37.7,0-68.2-30.5-68.2-68.2S37.1,6.6,74.8,6.6h350.5c37.6,0,68.2,30.5,68.2,68.2S462.9,142.9,425.3,142.9"/>
	<path class="st1" d="M58.9,123v-9.3c0-6.6,3.3-9.8,10.5-9.8c2.2,0,4.7,0.3,6.3,0.8c0.5,0.2,0.7,0.4,0.7,1v3c0,0.7-0.2,0.8-1.1,0.6
		c-1.3-0.3-3.4-0.7-5.1-0.7c-4,0-5.6,1.7-5.6,5.8v8.2c0,4.1,1.5,5.7,5.7,5.7c2.1,0,4.2-0.5,5.7-1.1c0.4-0.1,0.9,0,0.8,0.7l-0.6,3.2
		c-0.1,0.6-0.4,0.8-0.8,1c-1.5,0.5-3.6,0.9-6,0.9C61.8,132.9,58.9,130,58.9,123"/>
	<path class="st1" d="M100.3,104.9v26.9c0,0.4-0.2,0.6-0.7,0.6H99c-2.8,0-4.4-1.4-4.4-4.6v-7.4h-8.6v11.3c0,0.4-0.2,0.6-0.7,0.6
		h-0.6c-2.8,0-4.4-1.4-4.4-4.6V105c0-0.6,0.2-0.7,0.7-0.7h4.4c0.4,0,0.6,0.2,0.6,0.6V116h8.6v-11.1c0-0.4,0.2-0.6,0.6-0.6h4.4
		C100.1,104.3,100.3,104.5,100.3,104.9"/>
	<path class="st1" d="M103.4,131.8c2.5-9.6,4.9-19,7.3-26.4c0.2-0.7,0.7-1.1,1.6-1.1h4.7c1,0,1.4,0.3,1.6,1.1
		c2.3,7.4,4.9,16.8,7.4,26.5c0.1,0.5-0.1,0.6-0.6,0.6h-4.2c-0.6,0-0.9-0.2-1-0.6l-1.1-4.9h-8.6c-0.4,1.7-0.7,3.3-1.1,5
		c-0.1,0.3-0.4,0.5-0.9,0.5H104C103.4,132.5,103.3,132.2,103.4,131.8 M118,122.5c-0.8-4.2-2.1-9.3-3.2-13.6h-0.2
		c-1.1,4.3-2.4,9.4-3.2,13.6H118z"/>
	<path class="st1" d="M128.8,131.9c0-7.6,0.3-18.1,0.9-26.9c0-0.4,0.2-0.7,0.6-0.7h4.3c0.5,0,0.7,0.1,1,0.5l6.8,13.8h0.1l6.4-13.8
		c0.2-0.5,0.4-0.5,1-0.5h4.3c0.4,0,0.6,0.2,0.6,0.7c0.6,8.8,1.1,19.3,1.1,26.9c0,0.4-0.2,0.6-0.6,0.6h-4.2c-0.5,0-0.7-0.2-0.7-0.6
		c0-6.7-0.1-13.8-0.3-18.9h-0.2l-5.5,11.9c-0.2,0.4-0.5,0.7-1.1,0.7h-1.8c-0.5,0-0.8-0.3-1.1-0.7l-5.8-11.9h-0.2
		c-0.1,5.1-0.1,11.9-0.1,18.9c0,0.4-0.2,0.6-0.7,0.6h-4.2C129,132.5,128.8,132.2,128.8,131.9"/>
	<path class="st1" d="M178.7,113v0.4c0,3.3-0.9,5.7-2.8,7.2c-1.6,1.3-4,1.9-7.1,1.9h-2.7v9.4c0,0.4-0.2,0.6-0.7,0.6h-0.6
		c-2.8,0-4.4-1.4-4.4-4.6V105c0-0.5,0.2-0.7,0.8-0.7h7.6c3.5,0,5.7,0.5,7.2,1.7C177.6,107.3,178.7,109.4,178.7,113 M172.9,113
		c0-1.7-0.4-2.7-1.1-3.3c-0.8-0.7-1.7-0.9-3.7-0.9h-2.1v9.2h1.8c2.2,0,3.2-0.2,4.1-1c0.7-0.7,1-1.8,1-3.7V113L172.9,113z"/>
	<path class="st1" d="M180.6,131.9V129c0-0.4,0.2-0.6,0.6-0.6h2.9v-20h-2.9c-0.4,0-0.6-0.2-0.6-0.6V105c0-0.4,0.2-0.7,0.6-0.7h11.6
		c0.4,0,0.7,0.1,0.6,0.7l-0.4,2.8c-0.1,0.5-0.3,0.6-0.8,0.6h-2.6v20h2.8c0.4,0,0.6,0.1,0.6,0.6v2.9c0,0.4-0.2,0.6-0.6,0.6h-11.3
		C180.8,132.5,180.6,132.2,180.6,131.9"/>
	<path class="st1" d="M199.4,130.5c-1.8-1.6-2.8-3.9-2.8-7v-10.2c0-3.5,1.3-6.1,3.6-7.7c1.7-1.2,4-1.7,6.7-1.7s5.2,0.7,7,1.9
		c2.1,1.6,3.4,4.1,3.4,7.5v10.2c0,3.4-1.2,5.9-3.4,7.5c-1.7,1.3-4.1,1.9-7,1.9C203.8,132.9,201.2,132.1,199.4,130.5 M210.3,127.1
		c0.9-0.9,1.3-2.4,1.3-4.2v-9c0-2.1-0.5-3.3-1.4-4.2c-0.7-0.7-1.9-1.1-3.3-1.1s-2.6,0.4-3.4,1.1c-0.9,0.9-1.3,2.1-1.3,4.2v9
		c0,1.8,0.5,3.3,1.3,4.2c0.7,0.7,1.9,1.1,3.4,1.1S209.6,127.8,210.3,127.1"/>
	<path class="st1" d="M242.3,104.9v26.9c0,0.4-0.3,0.6-0.7,0.6h-2.8c-0.8,0-1.2-0.3-1.4-0.8l-10.1-17.4h-0.2v17.5
		c0,0.4-0.2,0.6-0.7,0.6h-0.2c-2.6,0-4.1-1.4-4.1-4.6v-23c0-0.4,0.1-0.6,0.6-0.6h3.2c0.6,0,1,0.2,1.2,0.8l10,17.2h0.2v-17.3
		c0-0.4,0.2-0.6,0.6-0.6h3.8C242.1,104.3,242.3,104.5,242.3,104.9"/>
	<path class="st1" d="M247.9,132c-0.6-0.2-0.8-0.5-0.9-1l-0.7-3.7c-0.1-0.5,0.3-0.7,0.9-0.4c1.4,0.6,4,1.3,6,1.3
		c3.1,0,4.8-1.3,4.8-3.4v-0.2c0-1.9-0.9-3.1-3.6-4.1l-1.7-0.6c-3.7-1.3-5.9-3.8-5.9-7.9v-0.2c0-5.1,4-7.7,9.6-7.7
		c1.7,0,3.6,0.3,4.9,0.7c0.6,0.2,0.7,0.5,0.7,1v2.9c0,0.6-0.4,0.8-1.1,0.6c-1.3-0.3-2.8-0.5-4.3-0.5c-2.5,0-4.2,0.8-4.2,3.1v0.1
		c0,2,0.9,3,3.1,3.8l1.9,0.7c4.3,1.6,6.2,3.9,6.2,7.9v0.4c0,5-3.6,8.3-9.7,8.3C252,132.9,249.5,132.5,247.9,132"/>
	<path class="st1" d="M287.2,104.9v26.9c0,0.4-0.2,0.6-0.7,0.6h-0.6c-2.8,0-4.4-1.4-4.4-4.6v-7.4H273v11.3c0,0.4-0.2,0.6-0.7,0.6
		h-0.6c-2.8,0-4.4-1.4-4.4-4.6V105c0-0.6,0.1-0.7,0.6-0.7h4.4c0.4,0,0.6,0.2,0.6,0.6V116h8.6v-11.1c0-0.4,0.2-0.6,0.6-0.6h4.4
		C287,104.3,287.2,104.5,287.2,104.9"/>
	<path class="st1" d="M291.2,131.9V129c0-0.4,0.2-0.6,0.6-0.6h2.9v-20h-2.9c-0.4,0-0.6-0.2-0.6-0.6V105c0-0.4,0.2-0.7,0.6-0.7h11.6
		c0.4,0,0.7,0.1,0.6,0.7l-0.4,2.8c-0.1,0.5-0.3,0.6-0.8,0.6h-2.6v20h2.8c0.4,0,0.6,0.1,0.6,0.6v2.9c0,0.4-0.2,0.6-0.6,0.6h-11.3
		C291.4,132.5,291.2,132.2,291.2,131.9"/>
	<path class="st1" d="M326.1,113v0.4c0,3.3-0.9,5.7-2.8,7.2c-1.6,1.3-4,1.9-7.1,1.9h-2.7v9.4c0,0.4-0.2,0.6-0.7,0.6h-0.6
		c-2.8,0-4.4-1.4-4.4-4.6V105c0-0.5,0.2-0.7,0.8-0.7h7.6c3.5,0,5.7,0.5,7.2,1.7C325.1,107.3,326.1,109.4,326.1,113 M320.4,113
		c0-1.7-0.4-2.7-1.1-3.3c-0.8-0.7-1.7-0.9-3.7-0.9h-2.1v9.2h1.8c2.2,0,3.2-0.2,4-1c0.7-0.7,1-1.8,1-3.7V113L320.4,113z"/>
	<path class="st1" d="M346,15.6c-0.7,0-1.3,0.6-1.3,1.3v115.7c0,0.7,0.6,1.3,1.3,1.3s1.3-0.6,1.3-1.3V16.9
		C347.3,16.2,346.7,15.6,346,15.6"/>
	<path class="st2" d="M398.5,132.4c-2.5,0-4.5-2-4.5-4.5V103h17.8v6.8h-10.5v4.4h9.5v6.8h-9.5v11.4H398.5L398.5,132.4z M371.3,127.9
		c0,2.5,2,4.5,4.5,4.5H389v-6.8h-10.4v-4.6h9.5v-6.8h-9.5v-4.4H389V103h-17.7V127.9z M432.8,132.4v-6.8h-9.1V103h-7.3v24.9
		c0,2.5,2,4.5,4.5,4.5H432.8z"/>
	<path class="st2" d="M403.2,68.8c0,3.1-2.5,5.5-5.5,5.5s-5.5-2.5-5.5-5.5s2.5-5.5,5.5-5.5S403.2,65.8,403.2,68.8 M409.6,63.5
		c-2.7,0-5,2.2-5,4.9s2.2,4.9,5,4.9s5-2.2,5-4.9S412.4,63.5,409.6,63.5 M409.2,74.7c-2.7,0-4.8,2.2-4.8,4.8s2.2,4.8,4.8,4.8
		s4.8-2.2,4.8-4.8S411.9,74.7,409.2,74.7 M419.7,62.4c-2.3,0-4.1,1.8-4.1,4.1s1.8,4.1,4.1,4.1s4.1-1.8,4.1-4.1
		S421.9,62.4,419.7,62.4 M427,58.8c-1.9,0-3.4,1.5-3.4,3.4c0,1.9,1.5,3.4,3.4,3.4s3.4-1.5,3.4-3.4S428.8,58.8,427,58.8 M431.8,54.3
		c-1.5,0-2.7,1.2-2.7,2.7s1.2,2.7,2.7,2.7s2.7-1.2,2.7-2.7S433.2,54.3,431.8,54.3 M431.8,64.2c-1.4,0-2.6,1.2-2.6,2.6
		s1.1,2.6,2.6,2.6s2.6-1.2,2.6-2.6S433.2,64.2,431.8,64.2 M432.8,72.3c-1.4,0-2.5,1.1-2.5,2.5s1.1,2.5,2.5,2.5s2.5-1.1,2.5-2.5
		S434.2,72.3,432.8,72.3 M435.8,68c-1.1,0-2,0.9-2,2s0.9,2,2,2s2-0.9,2-2S436.9,68,435.8,68 M437.5,63.6c-1,0-1.8,0.8-1.8,1.8
		s0.8,1.8,1.8,1.8s1.8-0.8,1.8-1.8S438.5,63.6,437.5,63.6 M435.1,59.4c-1.1,0-1.9,0.9-1.9,2s0.9,1.9,1.9,1.9s1.9-0.9,1.9-1.9
		S436.2,59.4,435.1,59.4 M437.9,54c-1,0-1.8,0.8-1.8,1.8s0.8,1.8,1.8,1.8s1.8-0.8,1.8-1.8S438.9,54,437.9,54 M439,58.5
		c-0.7,0-1.3,0.6-1.3,1.3s0.6,1.3,1.3,1.3s1.3-0.6,1.3-1.3S439.8,58.5,439,58.5 M439,50.2c-0.7,0-1.2,0.5-1.2,1.2s0.5,1.2,1.2,1.2
		s1.2-0.5,1.2-1.2S439.6,50.2,439,50.2 M434.9,49.7c-1.2,0-2.1,1-2.1,2.1s1,2.1,2.1,2.1s2.1-1,2.1-2.1S436.1,49.7,434.9,49.7
		 M437.4,45.5c-0.9,0-1.7,0.8-1.7,1.7s0.8,1.7,1.7,1.7s1.7-0.8,1.7-1.7S438.3,45.5,437.4,45.5 M437,41.8c-0.6,0-1.1,0.5-1.1,1.1
		s0.5,1.1,1.1,1.1s1.1-0.5,1.1-1.1S437.6,41.8,437,41.8 M419.1,72.1c-2.2,0-4,1.8-4,4s1.8,4,4,4s4-1.8,4-4S421.3,72.1,419.1,72.1
		 M397.8,76c-2.8,0-5.1,2.3-5.1,5.1s2.3,5.1,5.1,5.1s5.1-2.3,5.1-5.1S400.6,76,397.8,76 M403.3,86.3c-2.4,0-4.4,2-4.4,4.4
		s2,4.4,4.4,4.4s4.4-2,4.4-4.4S405.8,86.3,403.3,86.3 M413.1,85c-2.3,0-4.1,1.8-4.1,4.1s1.8,4.1,4.1,4.1s4.1-1.8,4.1-4.1
		S415.4,85,413.1,85 M421.6,81.2c-2.1,0-3.8,1.7-3.8,3.8s1.7,3.8,3.8,3.8s3.8-1.7,3.8-3.8S423.7,81.2,421.6,81.2 M428.2,76.8
		c-1.8,0-3.2,1.4-3.2,3.2s1.4,3.2,3.2,3.2s3.2-1.4,3.2-3.2S430,76.8,428.2,76.8 M426.6,68.3c-1.9,0-3.3,1.5-3.3,3.3s1.5,3.3,3.3,3.3
		s3.3-1.5,3.3-3.3S428.4,68.3,426.6,68.3"/>
	<path class="st1" d="M414.4,47.5c-3.1,0-5.5,2.5-5.5,5.5s2.5,5.5,5.5,5.5s5.5-2.5,5.5-5.5S417.4,47.5,414.4,47.5 M408,37.9
		c-2.7,0-5,2.2-5,5s2.2,5,5,5s5-2.2,5-5C412.9,40.1,410.7,37.9,408,37.9 M417.8,32.8c-2.7,0-4.8,2.2-4.8,4.8s2.2,4.8,4.8,4.8
		s4.8-2.2,4.8-4.8C422.7,35,420.5,32.8,417.8,32.8 M401.3,31c-2.3,0-4.1,1.8-4.1,4.1s1.8,4.1,4.1,4.1s4.1-1.8,4.1-4.1
		S403.6,31,401.3,31 M393.9,27.6c-1.9,0-3.4,1.5-3.4,3.4c0,1.9,1.5,3.4,3.4,3.4s3.4-1.5,3.4-3.4S395.8,27.6,393.9,27.6 M387,26.8
		c-1.5,0-2.7,1.2-2.7,2.7s1.2,2.7,2.7,2.7s2.7-1.2,2.7-2.7S388.5,26.8,387,26.8 M395.5,21.9c-1.4,0-2.6,1.1-2.6,2.6s1.1,2.6,2.6,2.6
		s2.6-1.1,2.6-2.6S396.9,21.9,395.5,21.9 M401.9,17c-1.4,0-2.5,1.1-2.5,2.5s1.1,2.5,2.5,2.5s2.5-1.1,2.5-2.5S403.3,17,401.9,17
		 M396.3,17.4c-1.1,0-2,0.9-2,2s0.9,2,2,2s2-0.9,2-2S397.4,17.4,396.3,17.4 M391.4,18.4c-1,0-1.8,0.8-1.8,1.8s0.8,1.8,1.8,1.8
		s1.8-0.8,1.8-1.8S392.4,18.4,391.4,18.4 M389.1,22.4c-1.1,0-1.9,0.9-1.9,2s0.9,1.9,1.9,1.9s1.9-0.9,1.9-1.9S390.2,22.4,389.1,22.4
		 M382.9,22.9c-1,0-1.8,0.8-1.8,1.8s0.8,1.8,1.8,1.8s1.8-0.8,1.8-1.8S383.9,22.9,382.9,22.9 M385.8,20.4c-0.7,0-1.3,0.6-1.3,1.3
		s0.6,1.3,1.3,1.3s1.3-0.6,1.3-1.3S386.6,20.4,385.8,20.4 M378.6,24.8c-0.7,0-1.2,0.5-1.2,1.2s0.5,1.2,1.2,1.2s1.2-0.5,1.2-1.2
		S379.3,24.8,378.6,24.8 M380.9,27.1c-1.2,0-2.1,1-2.1,2.1s1,2.1,2.1,2.1s2.1-1,2.1-2.1S382.1,27.1,380.9,27.1 M375.7,27.8
		c-0.9,0-1.7,0.8-1.7,1.7s0.8,1.7,1.7,1.7s1.7-0.8,1.7-1.7S376.6,27.8,375.7,27.8 M372.2,30.8c-0.6,0-1.1,0.5-1.1,1.1
		s0.5,1.1,1.1,1.1s1.1-0.5,1.1-1.1S372.8,30.8,372.2,30.8 M410,26.8c-2.2,0-4,1.8-4,4s1.8,4,4,4s4-1.8,4-4S412.2,26.8,410,26.8
		 M424.9,41.7c-2.8,0-5.1,2.3-5.1,5.1s2.3,5.1,5.1,5.1s5.1-2.3,5.1-5.1S427.7,41.7,424.9,41.7 M430.4,32.8c-2.4,0-4.4,2-4.4,4.4
		s2,4.4,4.4,4.4s4.4-2,4.4-4.4S432.9,32.8,430.4,32.8 M424.1,25.4c-2.3,0-4.1,1.8-4.1,4.1s1.8,4.1,4.1,4.1s4.1-1.8,4.1-4.1
		S426.4,25.4,424.1,25.4 M416.4,20.4c-2.1,0-3.8,1.7-3.8,3.8s1.7,3.8,3.8,3.8s3.8-1.7,3.8-3.8S418.5,20.4,416.4,20.4 M408.7,17.8
		c-1.8,0-3.2,1.4-3.2,3.2s1.4,3.2,3.2,3.2s3.2-1.4,3.2-3.2S410.5,17.8,408.7,17.8 M402.3,23.3c-1.9,0-3.3,1.5-3.3,3.3
		s1.5,3.3,3.3,3.3s3.3-1.5,3.3-3.3S404.1,23.3,402.3,23.3"/>
	<path class="st2" d="M392.3,40.9c-3.1,0-5.5,2.5-5.5,5.5s2.5,5.5,5.5,5.5s5.5-2.5,5.5-5.5S395.4,40.9,392.3,40.9 M386.7,52.1
		c-2.7,0-5,2.2-5,5s2.2,5,5,5s5-2.2,5-5S389.4,52.1,386.7,52.1 M377.3,46.3c-2.7,0-4.8,2.2-4.8,4.8s2.2,4.8,4.8,4.8s4.8-2.2,4.8-4.8
		S379.9,46.3,377.3,46.3 M383.3,62.6c-2.3,0-4.1,1.8-4.1,4.1s1.8,4.1,4.1,4.1s4.1-1.8,4.1-4.1S385.6,62.6,383.3,62.6 M383.4,71.8
		c-1.9,0-3.4,1.5-3.4,3.4s1.5,3.4,3.4,3.4s3.4-1.5,3.4-3.4S385.3,71.8,383.4,71.8 M385.5,79.3c-1.5,0-2.7,1.2-2.7,2.7
		s1.2,2.7,2.7,2.7s2.7-1.2,2.7-2.7S387,79.3,385.5,79.3 M377,74.5c-1.4,0-2.6,1.2-2.6,2.6s1.1,2.6,2.6,2.6s2.6-1.2,2.6-2.6
		S378.4,74.5,377,74.5 M369.6,71.4c-1.4,0-2.5,1.1-2.5,2.5s1.1,2.5,2.5,2.5s2.5-1.1,2.5-2.5S371,71.4,369.6,71.4 M372.2,77
		c-1.1,0-2,0.9-2,2s0.9,2,2,2s2-0.9,2-2S373.3,77,372.2,77 M375.4,80.9c-1,0-1.8,0.8-1.8,1.8s0.8,1.8,1.8,1.8s1.8-0.8,1.8-1.8
		S376.4,80.9,375.4,80.9 M380.1,80.7c-1.1,0-1.9,0.9-1.9,1.9s0.9,1.9,1.9,1.9s2-0.9,2-1.9S381.1,80.7,380.1,80.7 M383.5,86.1
		c-1,0-1.8,0.8-1.8,1.8s0.8,1.8,1.8,1.8s1.8-0.8,1.8-1.8S384.5,86.1,383.5,86.1 M379.5,85.5c-0.7,0-1.3,0.6-1.3,1.3
		c0,0.7,0.6,1.3,1.3,1.3s1.3-0.6,1.3-1.3S380.2,85.5,379.5,85.5 M386.8,89.7c-0.7,0-1.2,0.6-1.2,1.2s0.5,1.2,1.2,1.2
		s1.2-0.6,1.2-1.2S387.5,89.7,386.8,89.7 M388.5,85.2c-1.2,0-2.1,1-2.1,2.2s1,2.1,2.1,2.1s2.1-1,2.1-2.1S389.6,85.2,388.5,85.2
		 M391.2,90.1c-0.9,0-1.7,0.8-1.7,1.7s0.8,1.7,1.7,1.7s1.7-0.8,1.7-1.7S392.2,90.1,391.2,90.1 M395.1,92.4c-0.6,0-1.1,0.5-1.1,1.1
		s0.5,1.1,1.1,1.1s1.1-0.5,1.1-1.1S395.7,92.4,395.1,92.4 M375.3,57.3c-2.2,0-4,1.8-4,4s1.8,4,4,4s4-1.8,4-4S377.5,57.3,375.3,57.3
		 M381.6,35.4c-2.8,0-5.1,2.3-5.1,5.1s2.3,5.1,5.1,5.1s5.1-2.3,5.1-5.1S384.5,35.4,381.6,35.4 M370.6,36c-2.4,0-4.4,2-4.4,4.4
		s2,4.4,4.4,4.4s4.4-2,4.4-4.4S373,36,370.6,36 M367.1,45.7c-2.3,0-4.1,1.8-4.1,4.1s1.8,4.1,4.1,4.1s4.1-1.8,4.1-4.1
		S369.3,45.7,367.1,45.7 M366.3,55.3c-2.1,0-3.8,1.7-3.8,3.8s1.7,3.8,3.8,3.8s3.8-1.7,3.8-3.8S368.4,55.3,366.3,55.3 M367.4,64.2
		c-1.8,0-3.2,1.4-3.2,3.2s1.4,3.2,3.2,3.2s3.2-1.4,3.2-3.2S369.2,64.2,367.4,64.2 M375.5,66.8c-1.9,0-3.3,1.5-3.3,3.3
		s1.5,3.3,3.3,3.3c1.9,0,3.3-1.5,3.3-3.3S377.3,66.8,375.5,66.8"/>
</g>
<g>
	
		<linearGradient id="Plinth_00000139270511643522059310000004338733359899467139_" gradientUnits="userSpaceOnUse" x1="255.6384" y1="206.0656" x2="255.6384" y2="284.9993" gradientTransform="matrix(1 0 0 1 0 -189.8898)">
		<stop  offset="0.4" style="stop-color:#FF0000"/>
		<stop  offset="1" style="stop-color:#D42321"/>
	</linearGradient>
	<path id="Plinth" style="fill:url(#Plinth_00000139270511643522059310000004338733359899467139_);" d="M321,16.2H190.3
		c-2.9,0-5.3,2.4-5.3,5.3v68.4c0,2.9,2.4,5.3,5.3,5.3H321c2.9,0,5.3-2.4,5.3-5.3V21.4C326.2,18.5,323.9,16.2,321,16.2z"/>
	
		<linearGradient id="p40_00000087379438570064631020000003124731729263795611_" gradientUnits="userSpaceOnUse" x1="256.1239" y1="244.132" x2="254.751" y2="204.8166" gradientTransform="matrix(1 0 0 1 0 -189.8898)">
		<stop  offset="0" style="stop-color:#FFFFFF"/>
		<stop  offset="1" style="stop-color:#FFFFFF;stop-opacity:0.25"/>
	</linearGradient>
	
		<path id="p40" style="opacity:0.4;fill:url(#p40_00000087379438570064631020000003124731729263795611_);enable-background:new    ;" d="
		M188.8,55.3c0,0,0.2,0,0.5,0c15.5-0.5,133-4.6,133-4.6c2-0.1,3.9-1.6,3.9-4V21.4c0-2.9-2.4-5.3-5.3-5.3H190.3
		c-2.9,0-5.3,2.4-5.3,5.3v38C185.1,59,185.2,55.7,188.8,55.3z"/>
	
		<linearGradient id="Sky_x5F_Logo_00000042732426037263034050000010659818404108292282_" gradientUnits="userSpaceOnUse" x1="116.079" y1="210.6092" x2="116.079" y2="280.4593" gradientTransform="matrix(1 0 0 1 0 -189.8898)">
		<stop  offset="0" style="stop-color:#002A91"/>
		<stop  offset="0.8" style="stop-color:#002672"/>
	</linearGradient>
	<path id="Sky_x5F_Logo" style="fill:url(#Sky_x5F_Logo_00000042732426037263034050000010659818404108292282_);" d="M137.8,89.5
		c0.9,0.5,2.9,1.1,5.3,1.1c4.1,0.1,6.4-1.5,8-5.2l22.1-49.2c-0.9-0.5-2.9-1-4.6-1.1c-2.9,0-6.7,0.5-9.1,6.3l-7.2,16.9l-14-22.8
		c-0.9-0.3-3.1-0.7-4.7-0.7c-5,0-7.8,1.8-10.6,4.9l-13.6,14.9l11,17.3c2,3.2,4.7,4.8,9,4.8c2.9,0,5.2-0.7,6.3-1.2l-13.2-19.9
		l9.4-9.9l15.4,24.1L137.8,89.5z M108.8,70.8c0,3.7-1.4,5.7-8.5,5.7c-0.9,0-1.7,0-2.5-0.2V28.2c0-3.7,1.2-7.5,8.4-7.5
		c0.9,0,1.8,0.1,2.7,0.3L108.8,70.8L108.8,70.8z M94.2,63.5c0,6.8-4.4,11.7-13.5,12.7c-6.5,0.7-15.9-0.1-20.4-0.6
		C60.2,74.9,60,74,60,73.2c0-5.9,3.2-7.3,6.2-7.3c3.1,0,8,0.5,11.7,0.5c4.1,0,5.3-1.4,5.3-2.7c0-1.7-1.6-2.4-4.7-3l-8.6-1.6
		C62.7,57.9,59,52.9,59,47.7c0-6.3,4.5-11.6,13.3-12.6c6.7-0.7,14.8,0.1,19.2,0.6c0.1,0.8,0.2,1.5,0.2,2.3c0,5.9-3.1,7.2-6.1,7.2
		c-2.3,0-5.9-0.4-10-0.4c-4.1,0-5.9,1.2-5.9,2.5c0,1.5,1.6,2.1,4.2,2.5l8.2,1.5C90.6,52.9,94.2,57.7,94.2,63.5z"/>
	
		<linearGradient id="s25_00000075879547910079945410000013471234460424515506_" gradientUnits="userSpaceOnUse" x1="116.6713" y1="247.6152" x2="115.7479" y2="221.1743" gradientTransform="matrix(1 0 0 1 0 -189.8898)">
		<stop  offset="0" style="stop-color:#FFFFFF"/>
		<stop  offset="1" style="stop-color:#FFFFFF;stop-opacity:0.25"/>
	</linearGradient>
	
		<path id="s25_11_" style="opacity:0.25;fill:url(#s25_00000075879547910079945410000013471234460424515506_);enable-background:new    ;" d="
		M173.3,36.1l-8.1,18c-0.2,0.5-1.2,2-3.4,2.1c-0.5,0-7.4,0.3-7.4,0.3c-1.3,0-1.8,1.3-1.8,1.3l0,0l7-16.5c2.4-5.8,6.2-6.4,9.1-6.3
		C170.3,35.1,172.3,35.6,173.3,36.1z M152,57.7l-13.7-22.2c-0.9-0.3-3.1-0.7-4.7-0.7c-5,0-7.8,1.8-10.6,4.9l-13.7,14.9l1.1,1.7
		c0.4,0.6,1.4,1.7,3.3,1.6c0.7,0,7.3-0.3,7.8-0.3c1.7,0,2.8,0.7,3.4,1.6l0,0l-2.4-3.7l9.4-9.9l6.3,9.9l0,0c1.2,1.5,2.9,1.5,3.2,1.5
		c0.3,0,8.6-0.3,9-0.3C150.9,56.7,151.5,57,152,57.7z M106.2,20.7c-7.2,0-8.4,3.8-8.4,7.5v33c0-1.3,1-2.7,2.7-2.8
		c1.2,0,4.5-0.2,5.5-0.2c1.1,0,2.8-0.8,2.8-2.8V21C108,20.8,107.1,20.7,106.2,20.7z M82.2,51.4l-8.2-1.5c-2.6-0.4-4.2-1.1-4.2-2.5
		c0-1.4,1.7-2.5,5.9-2.5c4.1,0,7.7,0.4,10,0.4c3,0,6.1-1.3,6.1-7.2c0-0.8-0.1-1.5-0.2-2.3c-4.5-0.5-12.6-1.4-19.2-0.6
		c-8.8,1-13.3,6.3-13.3,12.6c0,3.3,1.5,6.4,4.3,8.6c2.1,1.4,4.3,2,6.5,2.4c1.8,0.3,6,0.6,9.1,0.5c1,0,8.2-0.3,9.8-0.4
		c3.7-0.1,5.6,3,5.4,6.1c0,0,0-0.1,0-0.1v0c0-0.4,0-0.8,0-1.2C94.2,57.7,90.6,52.9,82.2,51.4z"/>
	<path class="st0" d="M239.1,56.1c0,12.2-8.5,19.4-17.9,19.4c-5.6,0-10.2-2.6-12.9-6.4v3.6c0,1.6-0.8,2.4-3.4,2.4
		c-1.1,0-2.3-0.2-2.9-0.3V26.6c0-1.5,0.8-2.4,3.4-2.4c1.1,0,2.3,0.2,2.9,0.3v18.7c2.7-3.7,7.3-6.4,12.9-6.4
		C230.6,36.8,239.1,44,239.1,56.1z M232.7,56.1c0-8.2-5.4-13.7-12.7-13.7c-4.9,0-9.5,2.9-11.6,7v13.4c2.1,4.2,6.7,7,11.6,7
		C227.2,69.9,232.7,64.3,232.7,56.1z M280.4,58.4h-28.8c0.8,7.2,5.8,11.2,13.2,11.2c3.2,0,5.7-0.6,8-1.4c1.6-0.5,2.3-0.8,2.9-0.8
		c1.8,0,2.9,1.5,2.6,4.9c-3.3,1.5-8.5,3.1-13.8,3.1c-11.6,0-19.5-7.8-19.5-19.5c0-11.1,8.3-19.2,18.4-19.2
		c11.4,0,17.1,8.9,17.1,17.9C280.7,55.8,280.6,57.1,280.4,58.4z M251.6,53.5h22.9c-0.2-6.4-4.3-11.3-10.9-11.3
		C257.8,42.1,252.6,46.1,251.6,53.5z M310.9,72.9c-3.3,1.6-7,2.5-10.7,2.5c-7.3,0-11.8-4.3-11.8-11.5v-32c0-1.6,0.9-2.7,3.4-2.7
		c1.1,0,2.3,0.2,2.9,0.4v8.1h14.5c0.1,0.5,0.2,1.6,0.2,2.5c0,2.3-0.9,3-2.3,3h-12.4v20.2c0,4.3,2,6.4,6.1,6.4c3.7,0,5.8-1.6,7.6-1.6
		C310.3,68.2,311.2,69.8,310.9,72.9z"/>
</g>
</svg>
