<?xml version="1.0" encoding="utf-8"?>
<!-- Generator: Adobe Illustrator 25.0.1, SVG Export Plug-In . SVG Version: 6.00 Build 0)  -->
<svg version="1.0" id="Layer_1" xmlns="http://www.w3.org/2000/svg" xmlns:xlink="http://www.w3.org/1999/xlink" x="0px" y="0px"
	 viewBox="0 0 322.8 244.5" style="enable-background:new 0 0 322.8 244.5;" xml:space="preserve">
<style type="text/css">
	.st0{fill:#FFFFFF;}
	.st1{fill:#B59A42;}
	.st2{fill:#1F419A;}
	.st3{fill:#0D3295;}
	.st4{fill:#FA1616;}
	.st5{fill:#FEFEFE;}
</style>
<path class="st0" d="M89,29h144.7c0,37.2,0,74.3,0,111.5c0.2,17-5.3,33.5-15.7,46.9c-9.3,12.1-22.3,21-37,25.3
	c-17.3,5-35.8,3.2-51.8-5c-19.1-9.8-32.9-27.5-38-48.3c-1.4-5.6-2.1-11.3-2.2-17C89,104.6,89,66.8,89,29"/>
<path class="st0" d="M93,33.1c0.1,35.8,0.1,71.6,0,107.5c-0.2,16.8,5.6,33.1,16.2,46c4.3,5.2,9.3,9.8,14.9,13.5
	c14,9.4,31,13.1,47.7,10.5c15.5-2.5,29.6-10.3,40-22.1c11.7-13.2,18-30.3,17.9-47.9c-0.1-35.8,0.1-71.6,0-107.4
	C184.2,33.1,138.6,33.1,93,33.1"/>
<path class="st0" d="M97.2,37.2c39,0.1,78,0,117,0.1c3.8,0,7.6,0,11.4,0c0,32.2,0,64.4,0,96.6c0,5.5,0.2,11.1-0.6,16.6
	c-1.9,14-8.2,27-18,37.1c-16.3,17.4-41.1,23.9-63.9,17c-14.5-4.5-27-14-35.2-26.9c-6.9-10.7-10.7-23.2-10.8-35.9
	c0-29.1,0-58.2,0-87.4C97.1,48.7,97,43,97.2,37.2"/>
<path class="st1" d="M93,33.1c45.6,0,91.1,0,136.7,0c0.1,35.8,0,71.6,0,107.4c0.2,17.6-6.2,34.7-17.9,47.9
	c-10.4,11.8-24.5,19.6-40,22.1c-16.7,2.7-33.7-1.1-47.7-10.5c-5.6-3.8-10.6-8.3-14.9-13.5c-10.7-12.9-16.4-29.2-16.2-46
	C93,104.7,93,68.9,93,33.1 M97.2,37.2c-0.1,5.7,0,11.4-0.1,17.1c0,29.1,0,58.3,0,87.4c0.1,12.8,3.9,25.2,10.8,35.9
	c8.2,12.8,20.7,22.3,35.2,26.9c22.8,6.9,47.6,0.4,63.9-17c9.8-10.2,16.1-23.2,18-37.1c0.8-5.5,0.6-11,0.6-16.6c0-32.2,0-64.4,0-96.6
	c-3.8,0.1-7.6,0-11.4,0C175.2,37.2,136.2,37.3,97.2,37.2"/>
<path class="st1" d="M159.8,113.7c1-0.3,2,0.3,2.2,1.3c0,0,0,0,0,0c0.1,1-0.5,1.9-1.5,2c-1,0.1-1.9-0.5-2-1.5
	c-0.1-0.4,0-0.7,0.2-1.1C158.9,114.1,159.3,113.8,159.8,113.7 M156,113.9c0.7-0.2,1.5,0.2,1.7,0.9c0.1,0.3,0.1,0.7-0.1,1
	c-0.3,0.7-1.1,1-1.8,0.8c-0.2-0.1-0.3-0.2-0.5-0.3c-0.5-0.5-0.6-1.4,0-1.9C155.6,114.1,155.8,114,156,113.9 M164.5,114.2
	c1.2-0.2,2.3,0.6,2.5,1.8c0,0.2,0,0.3,0,0.5c-0.1,1.2-1.1,2.2-2.3,2.1c-0.3,0-0.5-0.1-0.8-0.2c-1.1-0.5-1.6-1.8-1.1-2.9
	c0.1-0.1,0.1-0.2,0.2-0.3C163.4,114.6,163.9,114.3,164.5,114.2 M152.9,114.5c0.7-0.1,1.3,0.4,1.4,1.1c0,0.1,0,0.2,0,0.3
	c0,0.7-0.6,1.2-1.2,1.2c-0.1,0-0.1,0-0.2,0c-0.7-0.1-1.1-0.8-1-1.4C152,115.1,152.5,114.7,152.9,114.5 M149,116c0.4-0.2,1,0,1.2,0.4
	c0,0,0,0,0,0.1c0.2,0.5,0,1-0.5,1.2c-0.3,0.1-0.6,0.1-0.8,0c-0.4-0.3-0.5-1-0.2-1.4C148.8,116.2,148.9,116.1,149,116 M169.6,116
	c1.4-0.3,2.8,0.6,3.1,2c0.3,1.4-0.6,2.8-2,3.1c-0.2,0-0.5,0.1-0.7,0c-1.4-0.2-2.4-1.3-2.5-2.7C167.6,117.3,168.4,116.3,169.6,116
	 M155.4,117c0.9-0.3,1.9,0.3,2.2,1.2c0.3,0.9-0.3,1.9-1.2,2.2c-0.5,0.1-1.1,0-1.5-0.3c-0.8-0.5-1-1.6-0.5-2.4
	C154.6,117.4,155,117.1,155.4,117 M151.2,117.3c0.7-0.2,1.4,0.3,1.6,1c0.1,0.3,0,0.6-0.1,0.8c-0.3,0.7-1.1,1-1.8,0.7
	c-0.3-0.1-0.6-0.4-0.7-0.7c-0.3-0.7,0-1.4,0.6-1.8C151,117.3,151.1,117.3,151.2,117.3 M146.1,118.8c0-0.7,0.6-1.2,1.2-1.2
	c0.3,0,0.5,0.1,0.7,0.3c0.9,0.5,0.4,1.7-0.1,2.3C147.1,120.2,145.9,119.9,146.1,118.8 M160.1,117.9c1.1-0.2,2.2,0.3,2.6,1.4
	c0.5,1.2-0.1,2.6-1.4,3c-0.1,0-0.2,0.1-0.2,0.1c-1.3,0.3-2.5-0.5-2.8-1.8c0-0.1,0-0.1,0-0.2C158.1,119.3,158.9,118.2,160.1,117.9
	 M144.1,118.9c0.9-0.4,1.4,0.8,0.9,1.5c-0.4,0.3-0.9,0.3-1.3,0c-0.3-0.3-0.3-0.9,0-1.2C143.8,119.1,144,119,144.1,118.9
	 M175.1,119.4c1.6-0.1,2.9,1,3.1,2.5c0.1,1.4-0.8,2.7-2.2,3c-1.5,0.4-3-0.5-3.3-2c-0.1-0.2-0.1-0.4-0.1-0.6
	C172.5,120.8,173.6,119.5,175.1,119.4 M150,120.2c1-0.1,1.9,0.7,2,1.8c0,0.2,0,0.4-0.1,0.6c-0.3,1-1.3,1.6-2.3,1.3
	c-1-0.3-1.6-1.3-1.3-2.3C148.5,120.8,149.2,120.3,150,120.2 M165.2,120.4c1.5-0.4,3,0.5,3.3,2c0.3,1.2-0.2,2.4-1.2,3
	c-1.2,0.9-2.9,0.6-3.7-0.6c0-0.1-0.1-0.1-0.1-0.2c-0.8-1.3-0.5-3,0.8-3.8C164.5,120.6,164.8,120.5,165.2,120.4 M145.7,120.5
	c0.8-0.1,1.6,0.5,1.7,1.3c0.1,0.8-0.5,1.6-1.3,1.7c-0.6,0.1-1.2-0.2-1.5-0.7c-0.4-0.7-0.2-1.7,0.5-2.1
	C145.3,120.6,145.5,120.5,145.7,120.5 M154.4,120.9c1.3-0.2,2.5,0.6,2.7,1.9c0,0.2,0,0.3,0,0.5c0,1.2-1.1,2.2-2.3,2.2
	c-0.9,0.1-1.7-0.4-2.1-1.2c-0.6-1.1-0.2-2.6,0.9-3.2C153.9,121,154.1,120.9,154.4,120.9 M142,121c1.1-0.5,2,1,1.3,1.8
	c-0.4,0.5-1.1,0.6-1.7,0.2c-0.1-0.1-0.3-0.2-0.3-0.4c-0.3-0.6-0.1-1.3,0.5-1.6C141.9,121.1,141.9,121,142,121 M139.7,123
	c1-0.5,1.6,1.1,0.7,1.5S138.8,123.3,139.7,123 M159.4,123.2c1.5-0.3,3,0.8,3.3,2.3c0.3,1.5-0.8,3-2.3,3.3c-0.2,0-0.3,0-0.5,0
	c-1.3,0-2.5-1-2.8-2.3C156.8,125,157.8,123.5,159.4,123.2C159.4,123.2,159.4,123.2,159.4,123.2 M179.4,124.4c1.7-0.2,3.2,1,3.4,2.6
	c0.2,1.7-1,3.2-2.6,3.4c-1.7,0.2-3.2-1-3.4-2.6C176.5,126.2,177.7,124.6,179.4,124.4 M170.4,124.5c1.5-0.4,3,0.3,3.7,1.6
	c0.9,1.6,0.3,3.6-1.3,4.5c-1.4,0.8-3.1,0.5-4.1-0.7c-0.9-1.1-1.1-2.6-0.4-3.9C168.7,125.3,169.5,124.7,170.4,124.5 M164.2,127.9
	c1.9-0.1,3.5,1.3,3.7,3.2c0.1,1.8-1.2,3.4-3.1,3.6c0,0-0.1,0-0.1,0c-1.1,0.1-2.2-0.3-2.8-1.2c-1.2-1.4-1.1-3.6,0.4-4.8
	c0.1-0.1,0.2-0.2,0.3-0.2C163,128.1,163.6,127.9,164.2,127.9 M175.2,130.6c1.9-0.4,3.8,0.7,4.2,2.6c0.4,1.5-0.3,3.1-1.6,3.8
	c-1.7,1-3.8,0.4-4.8-1.3c-1-1.7-0.4-3.8,1.3-4.8C174.5,130.8,174.8,130.7,175.2,130.6 M168.5,134.4c2.1-0.2,4,1.3,4.2,3.4
	c0,0.2,0,0.5,0,0.7c-0.1,1.2-0.8,2.2-1.8,2.9c-1.1,0.7-2.4,0.8-3.6,0.3c-1.8-0.8-2.7-2.9-2-4.8C165.8,135.6,167,134.6,168.5,134.4
	L168.5,134.4z"/>
<path class="st2" d="M145.9,126.2c1.4-0.2,2.8,0.4,3.5,1.6c0.8,1.2,0.7,2.7-0.1,3.8c-0.6,0.9-1.6,1.4-2.6,1.5
	c-1.9,0.1-3.6-1.3-3.7-3.3c0-0.1,0-0.2,0-0.3C142.9,127.9,144.1,126.4,145.9,126.2 M138.1,126.7c1.6-0.4,3.2,0.5,3.7,2.1
	c0,0,0,0.1,0,0.1c0.4,1.6-0.7,3.2-2.3,3.6c-1.6,0.4-3.2-0.7-3.6-2.3C135.6,128.7,136.5,127.1,138.1,126.7 M153.4,129.9
	c1.9-0.2,3.5,1.1,3.9,2.9c0.5,2-0.8,4.1-2.8,4.6c-1.4,0.3-2.9-0.2-3.8-1.3c-1.1-1.4-1.1-3.4,0-4.8
	C151.4,130.5,152.4,130,153.4,129.9 M183.5,130.9c0.3-0.6,1.1-0.2,1.6,0c-0.2,0.3,0,1-0.5,1.2C183.9,132.4,183,131.6,183.5,130.9
	 M184,133.1c0.6-0.3,1.3,0,1.6,0.6c0.3,0.6,0,1.3-0.6,1.6c-0.3,0.1-0.7,0.1-1,0c-0.6-0.3-0.8-1-0.5-1.6
	C183.6,133.4,183.8,133.2,184,133.1 M135.8,133.2c1.3-0.4,2.8,0.3,3.3,1.6c0.6,1.4,0,3.1-1.5,3.7s-3.1,0-3.7-1.5
	c-0.6-1.4,0-3.1,1.5-3.7C135.5,133.3,135.7,133.3,135.8,133.2 M142.8,133.6c0.9-0.2,1.8,0.1,2.6,0.6c0.8,0.6,1.3,1.6,1.4,2.6
	c0,1.6-1.1,3-2.7,3.3c-1.5,0.3-3-0.4-3.7-1.7c-0.4-1-0.4-2.1,0-3.1C140.9,134.5,141.7,133.8,142.8,133.6 M182.1,136
	c0.7-0.4,1.6,0,2,0.7c0.2,0.4,0.2,0.9,0,1.3c-0.3,0.8-1.1,1.1-1.9,0.8c-0.2-0.1-0.3-0.2-0.5-0.3c-0.6-0.5-0.7-1.5-0.1-2.1
	C181.8,136.2,182,136.1,182.1,136 M185.4,136.2c0.5-0.1,0.9,0.3,1,0.8c0,0.4-0.1,0.7-0.5,0.9c-0.4,0.2-1,0.1-1.2-0.4
	c-0.1-0.1-0.1-0.3-0.1-0.5C184.6,136.7,185,136.3,185.4,136.2 M149.1,137.6c1.6-0.4,3.3,0.5,3.9,2c0.7,1.7,0,3.7-1.8,4.5
	c-1.1,0.5-2.4,0.3-3.4-0.4c-1.5-1.1-1.9-3.2-0.8-4.8C147.6,138.3,148.3,137.8,149.1,137.6 M184.4,138.9c0.6-0.2,1.4,0.1,1.6,0.7
	c0.2,0.6-0.1,1.4-0.7,1.6c0,0,0,0-0.1,0c-0.8,0.4-1.6-0.5-1.6-1.2C183.6,139.6,183.9,139,184.4,138.9 M180.2,139.1
	c1-0.2,2,0.5,2.2,1.5c0,0,0,0,0,0.1c0.2,1-0.5,2-1.5,2.2c-1,0.2-1.9-0.4-2.1-1.4c-0.3-1,0.3-2,1.2-2.3
	C180.1,139.1,180.2,139.1,180.2,139.1 M135.2,139.8c1.4-0.4,2.8,0.4,3.2,1.8c0.1,0.2,0.1,0.5,0.1,0.7c0,1.5-1.2,2.7-2.7,2.7
	c0,0,0,0,0,0c-1.2-0.1-2.2-1-2.5-2.2C133.1,141.5,134,140.2,135.2,139.8 M141.7,141.1c1.6-0.2,3,1,3.1,2.5c0,0.1,0,0.2,0,0.4
	c-0.1,1.1-0.8,2-1.8,2.5c-1.4,0.6-3.1-0.1-3.6-1.6c-0.1-0.1-0.1-0.3-0.1-0.4c-0.3-1.5,0.7-3,2.3-3.3
	C141.7,141.2,141.7,141.1,141.7,141.1 M184.7,143.1c-0.2-0.5,0.1-1.1,0.7-1.2c0.1,0,0.2,0,0.3,0c0.4,0,0.7,0.2,0.8,0.6
	c0.1,0.5-0.2,1-0.4,1.5C185.6,143.7,184.8,143.7,184.7,143.1 M176.9,142.1c1.3-0.2,2.5,0.6,2.7,1.9s-0.6,2.5-1.9,2.7
	c-0.4,0.1-0.9,0-1.3-0.1c-0.9-0.4-1.4-1.2-1.5-2.1C175,143.3,175.8,142.3,176.9,142.1 M182.7,142.5c0.8-0.1,1.5,0.5,1.6,1.3
	c0,0,0,0.1,0,0.1c0,0.8-0.6,1.4-1.4,1.4c-0.8,0-1.4-0.6-1.4-1.4C181.5,143.2,182,142.6,182.7,142.5 M172.1,144.6
	c1.5-0.2,2.9,0.9,3.1,2.4c0,0.1,0,0.2,0,0.4c0.1,1.5-1.1,2.7-2.5,2.8c0,0-0.1,0-0.1,0c-1.4,0.1-2.7-0.9-2.9-2.4
	C169.4,146.3,170.5,144.8,172.1,144.6 M147.2,144.7c1.4-0.2,2.7,0.6,3.1,1.9c0.5,1.5-0.4,3.1-1.9,3.5c-1.5,0.5-3.1-0.4-3.5-1.9
	c-0.2-0.6-0.2-1.2,0.1-1.8C145.3,145.5,146.2,144.9,147.2,144.7 M156.6,145.2c1.3-0.3,2.6,0.2,3.5,1.1c1.5,1.5,1.4,3.9-0.1,5.4
	c-1.5,1.5-3.9,1.5-5.4,0c-1.5-1.5-1.5-3.9,0-5.4c0.1-0.1,0.1-0.1,0.2-0.2C155.3,145.7,155.9,145.4,156.6,145.2 M164.8,145.4
	c1.8-0.4,3.6,0.8,4,2.6c0.4,1.8-0.8,3.6-2.6,4c-1.8,0.4-3.5-0.7-4-2.4c-0.3-1.2,0-2.5,0.9-3.4C163.7,145.8,164.3,145.5,164.8,145.4
	 M184.4,145.4c0.7-0.1,1.3,0.5,1.4,1.2c0.1,0.7-0.5,1.3-1.2,1.4c-0.5,0-1-0.2-1.2-0.7c-0.3-0.6-0.1-1.4,0.5-1.8
	C184,145.4,184.2,145.4,184.4,145.4 M136,145.9c1-0.3,2.1,0.1,2.6,1.1c0.5,1.1,0.1,2.4-1,2.9c-1.1,0.5-2.4,0.1-2.9-1
	c-0.2-0.4-0.2-0.8-0.2-1.2C134.5,146.9,135.2,146.1,136,145.9 M180.1,145.9c0.9-0.3,1.9,0.2,2.2,1.1c0.1,0.2,0.1,0.5,0.1,0.8
	c-0.1,1-1,1.7-1.9,1.6c-1-0.1-1.7-1-1.6-1.9C178.9,146.7,179.4,146.1,180.1,145.9 M142,147.5c1.1-0.1,2.1,0.6,2.4,1.7
	c0.3,1.2-0.4,2.5-1.6,2.8c-0.2,0.1-0.4,0.1-0.6,0.1c-1.1,0-2.1-0.8-2.3-1.9c-0.2-1.3,0.6-2.5,1.9-2.7
	C141.9,147.5,141.9,147.5,142,147.5 M182.9,148.4c0.8-0.2,1.6,0.3,1.8,1c0,0.1,0,0.2,0,0.3c-0.1,0.7-0.6,1.3-1.3,1.4
	c-0.8,0.1-1.5-0.5-1.5-1.3c0-0.1,0-0.3,0-0.4C182.1,149,182.5,148.6,182.9,148.4 M176.8,148.6c1.2-0.2,2.4,0.7,2.6,1.9
	c0,0,0,0,0,0.1c0.2,1.3-0.7,2.4-2,2.6s-2.4-0.7-2.6-2C174.6,149.9,175.5,148.7,176.8,148.6 M137.8,150.8c0.9-0.2,1.9,0.3,2.1,1.3
	c0.1,0.4,0.1,0.7-0.1,1.1c-0.3,0.9-1.4,1.4-2.3,1c-0.9-0.3-1.4-1.4-1-2.3C136.7,151.3,137.2,150.9,137.8,150.8 M147.1,151
	c1.2-0.3,2.4,0.4,2.8,1.6c0.3,1.2-0.4,2.5-1.6,2.9s-2.5-0.4-2.9-1.6c-0.1-0.3-0.1-0.6-0.1-1C145.5,152,146.2,151.2,147.1,151
	 M171.2,151.3c1.3-0.4,2.8,0.3,3.3,1.6c0.6,1.4-0.1,3-1.5,3.6c-1.4,0.6-3-0.1-3.6-1.5c-0.6-1.4,0-3,1.4-3.6
	C171,151.3,171.1,151.3,171.2,151.3 M181.2,151.3c1,0,1.7,0.8,1.7,1.7c0,1-0.8,1.7-1.7,1.7c-1,0-1.7-0.8-1.7-1.7
	c0-0.6,0.3-1.1,0.7-1.4C180.5,151.3,180.9,151.2,181.2,151.3 M143,152.8c0.9-0.1,1.8,0.4,2,1.3c0.3,0.9-0.2,1.9-1.1,2.2
	c-0.1,0-0.1,0-0.2,0.1c-0.9,0.2-1.9-0.3-2.1-1.3c-0.1-0.2-0.1-0.5,0-0.7C141.6,153.5,142.2,152.9,143,152.8 M164.9,152.9
	c1.8-0.2,3.5,1.1,3.6,3s-1.1,3.5-3,3.6c-0.1,0-0.2,0-0.2,0c-1.8,0.1-3.4-1.4-3.4-3.2C161.9,154.6,163.2,153.1,164.9,152.9
	 M157.1,153.8c1.9-0.2,3.7,1.2,3.9,3.1c0.1,0.9-0.1,1.7-0.6,2.4c-1.2,1.5-3.4,1.8-4.9,0.6c-1.5-1.2-1.8-3.4-0.6-4.9c0,0,0,0,0,0
	C155.3,154.3,156.2,153.9,157.1,153.8 M177.9,154.4c1.2-0.1,2.3,0.7,2.4,1.9c0,0.4,0,0.8-0.2,1.1c-0.4,1.1-1.5,1.6-2.6,1.3
	c-1.2-0.3-1.9-1.5-1.6-2.7c0,0,0-0.1,0-0.1C176.4,155,177.1,154.5,177.9,154.4 M139.8,154.4c0.8-0.1,1.5,0.5,1.6,1.2
	c0,0.2,0,0.4-0.1,0.7c-0.3,0.7-1.1,1.1-1.8,0.8c-0.7-0.3-1.1-1.1-0.8-1.8C138.9,154.9,139.3,154.5,139.8,154.4 M148.4,156.1
	c0.8-0.3,1.6,0,2.1,0.6c0.6,0.8,0.5,1.9-0.3,2.6c-0.2,0.2-0.5,0.3-0.7,0.4c-1,0.3-2-0.3-2.2-1.2c0,0,0-0.1,0-0.1
	C147.1,157.4,147.6,156.5,148.4,156.1 M145.1,157c0.7-0.1,1.5,0.4,1.6,1.1c0,0.2,0,0.5-0.1,0.7c-0.3,0.7-1,1.1-1.7,0.8
	c-0.2-0.1-0.5-0.2-0.6-0.5c-0.5-0.6-0.3-1.4,0.2-1.9C144.7,157.2,144.9,157.1,145.1,157 M142,157.1c0.7-0.1,1.3,0.4,1.4,1.1
	c0,0.3,0,0.6-0.2,0.9c-0.4,0.6-1.2,0.7-1.8,0.3c-0.4-0.3-0.6-0.7-0.5-1.2C140.9,157.7,141.5,157.3,142,157.1 M173.1,157.4
	c1.2-0.3,2.5,0.3,3,1.5c0.5,1.1,0.2,2.4-0.8,3.2c-1.2,0.9-2.8,0.6-3.7-0.5c-0.2-0.3-0.4-0.6-0.5-1
	C170.8,159.1,171.6,157.8,173.1,157.4 M167.2,160c1.2-0.3,2.4,0.2,3,1.2c0.8,1.3,0.5,3-0.8,3.8c-0.2,0.1-0.3,0.2-0.5,0.3
	c-1.4,0.6-3,0-3.6-1.4c-0.1-0.3-0.2-0.7-0.2-1C164.9,161.5,165.8,160.3,167.2,160 M150.5,160.2c0.8-0.3,1.6,0.1,1.9,0.9
	c0.3,0.8-0.1,1.6-0.9,1.9c-0.4,0.2-0.9,0.1-1.3-0.2c-0.7-0.5-0.8-1.4-0.3-2.1C150,160.5,150.2,160.3,150.5,160.2 M144.8,160.3
	c0.6,0,1,0.4,1,1c0,0.1,0,0.2,0,0.3c-0.2,0.5-0.7,0.7-1.2,0.6c-0.2-0.1-0.3-0.2-0.4-0.3c-0.3-0.5-0.2-1.1,0.2-1.4
	C144.6,160.4,144.7,160.4,144.8,160.3 M147.2,160.9c0.7-0.2,1.2,0.3,1.8,0.6c-0.1,0.5-0.1,1.2-0.5,1.6c-0.6,0.4-1.4,0.4-1.8-0.2
	c-0.1-0.1-0.1-0.2-0.2-0.3c-0.3-0.6,0-1.3,0.6-1.6C147.2,160.9,147.2,160.9,147.2,160.9 M160.5,161c1.6-0.2,3.2,0.9,3.4,2.5
	s-0.9,3.2-2.5,3.4c-0.3,0-0.5,0-0.8,0c-1-0.2-1.8-0.9-2.2-1.8c-0.7-1.5,0-3.3,1.5-4C160.1,161.1,160.3,161,160.5,161 M149.6,163.2
	c0.8-0.4,1.6,0.8,1,1.4c-0.3,0.4-0.9,0.4-1.3,0.1c-0.1-0.1-0.2-0.3-0.3-0.4C148.8,163.8,149.2,163.5,149.6,163.2 M152.6,163.5
	c1-0.5,2.1,0.9,1.4,1.8c-0.4,0.5-1.1,0.7-1.6,0.3s-0.7-1.1-0.3-1.6C152.2,163.7,152.4,163.6,152.6,163.5 M155.2,165.1
	c0.4-0.2,0.8-0.1,1,0.2c0,0.1,0.1,0.1,0.1,0.2c0.2,0.5-0.2,0.9-0.6,1c-0.3-0.1-0.7-0.1-1-0.3C154.9,165.9,154.8,165.3,155.2,165.1
	 M139.4,172.2h12.1v4.8h-7.1c0,1,0,2,0,3h6.6c0,1.6,0,3.1,0,4.6h-6.6c0,1,0,2.1,0,3.1h7.1v4.6c-3,0-6,0-9,0
	c-1.2,0.1-2.4-0.6-2.8-1.8c-0.2-0.8-0.3-1.6-0.3-2.4C139.4,182.9,139.4,177.6,139.4,172.2 M154.8,172.3c4.1,0,8.2,0,12.2,0
	c0,1.6,0,3.2,0,4.8h-7.2c0,1,0,2,0,3h6.5v4.6h-6.5c0,2.6,0,5.2,0,7.8c-1.1-0.1-2.4,0.2-3.5-0.4c-1.1-0.6-1.7-1.8-1.5-3
	C154.8,183.4,154.8,177.9,154.8,172.3 M170,172.3h5.1v15.5h6.2v4.6c-2.8,0-5.6,0.1-8.4,0c-1.6,0-2.9-1.4-2.9-3
	C170,183.7,170.1,178,170,172.3L170,172.3z"/>
<path class="st1" d="M142.4,91l-1.7,3.7c-0.2,0.4-0.3,0.7-0.5,1.1s-0.6,0.4-0.9,0.4c-0.4,0.1-0.7-0.1-0.9-0.5
	c-0.7-1.5-1.5-3-2.2-4.5c-0.1-0.1-0.1-0.2-0.2-0.3c-0.1,0.1-0.1,0.3-0.1,0.5v7.1c0,0.6-0.1,0.7-0.7,0.7c-0.4,0-0.9,0-1.3,0
	s-0.5-0.1-0.5-0.5c0-1.4,0-2.7,0-4.1s0.1-2.9,0.1-4.3c0-0.9,0.1-1.9,0.1-2.8c0-0.3,0.2-0.5,0.5-0.5h1.7c0.3,0,0.5,0.2,0.6,0.4
	c0.9,1.8,1.7,3.5,2.6,5.3c0,0.1,0.1,0.3,0.2,0.4l0.9-2l1.7-3.7c0.1-0.2,0.3-0.4,0.5-0.3h1.6c0.3,0,0.4,0.1,0.5,0.4
	c0.1,0.5,0,1,0.1,1.5c0.1,0.7,0.1,1.3,0.1,2c0.1,1.5,0.1,3,0.2,4.6c0,1.1,0,2.1,0,3.2c0,0.3-0.1,0.5-0.4,0.5c-0.5,0-1,0-1.5,0
	c-0.2,0-0.4-0.1-0.4-0.3c0,0,0-0.1,0-0.1c0-0.1,0-0.1,0-0.2c0.1-2.3-0.1-4.7-0.1-7C142.5,91.4,142.5,91.2,142.4,91L142.4,91z"/>
<path class="st1" d="M179.9,94.6v-0.4c0-2.1,0-4.2,0-6.4c0-0.7,0.1-0.7,0.7-0.7h1c0.4,0,0.5,0.1,0.5,0.5v11c0,0.6-0.1,0.6-0.7,0.7
	c-0.8,0.2-1.7-0.3-2-1.1c-1.2-2.2-2.5-4.3-3.7-6.5c0-0.1-0.1-0.1-0.1-0.2c0,0.1,0,0.3,0,0.4c0,2.2,0,4.5,0,6.7
	c0,0.5-0.2,0.6-0.7,0.5c-0.9-0.1-1.6-0.9-1.5-1.7c0,0,0,0,0,0c0-3.3,0-6.7,0-10c0-0.3,0.1-0.4,0.4-0.4h1.1c0.3,0,0.6,0.1,0.7,0.4
	c1.4,2.3,2.7,4.7,4.1,7c0,0,0,0.1,0.1,0.1L179.9,94.6z"/>
<path class="st1" d="M162.4,93.3c0-0.9,0-1.7,0-2.4c-0.2-2,1.3-3.8,3.3-4c0,0,0.1,0,0.1,0c1.1-0.2,2.2-0.1,3.3,0.3
	c1.3,0.4,2.2,1.6,2.2,3c0.1,1.8,0.2,3.6,0.1,5.4c0,1.1-0.4,2.1-1.2,2.8c-0.6,0.5-1.3,0.9-2.1,1c-1.1,0.2-2.3,0.1-3.4-0.3
	c-1.2-0.4-2.1-1.5-2.2-2.8C162.4,95.3,162.4,94.3,162.4,93.3z M164.9,93.1c0,0.7,0,1.5,0,2.2c0.1,1.3,0.4,1.8,1.7,2
	c0.9,0.2,1.8-0.3,2.1-1.2c0.1-0.4,0.2-0.7,0.2-1.1c0-1.2,0-2.5,0-3.7c0-0.4-0.1-0.8-0.2-1.2c-0.5-0.9-1.7-1.3-2.7-0.8
	c-0.7,0.3-1.1,1-1,1.8C164.9,91.7,164.9,92.4,164.9,93.1z"/>
<path class="st1" d="M201.4,93.2c0,1.8,0,3.6,0,5.4c0,0.6-0.3,0.7-0.8,0.7c-1.3-0.2-1.7-0.8-1.8-2.1c0-0.9,0-1.8,0-2.6
	c0-0.3-0.1-0.4-0.4-0.4c-0.9,0-1.8,0-2.7,0c-0.4,0-0.5,0.1-0.4,0.5c0,1.4,0,2.7,0,4.1c0,0.5-0.2,0.6-0.7,0.6c-1,0-1.8-0.8-1.8-1.8
	c0-0.1,0-0.1,0-0.2c0-3.2,0-6.4,0-9.6c0-0.4,0.1-0.5,0.5-0.5h1.5c0.4,0,0.5,0.1,0.5,0.5c0,1.4,0,2.7,0,4.1c0,0.3,0.1,0.5,0.4,0.5
	c0.9,0,1.8,0,2.7,0c0.4,0,0.4-0.1,0.4-0.5c0-1.3,0-2.6,0-3.9c0-0.6,0.1-0.7,0.6-0.7h1.4c0.5,0,0.6,0.1,0.6,0.6L201.4,93.2z"/>
<path class="st1" d="M121.2,93.2c0,1.8,0,3.7,0,5.5c0,0.5-0.1,0.6-0.7,0.6c-1,0-1.9-0.8-1.9-1.9c0,0,0-0.1,0-0.1c0-0.9,0-1.8,0-2.7
	c0-0.3-0.1-0.4-0.4-0.4c-0.9,0-1.8,0-2.8,0c-0.3,0-0.4,0.1-0.4,0.4c0,1.4,0,2.8,0,4.2c0,0.5-0.2,0.6-0.6,0.6c-1,0-1.8-0.8-1.9-1.8
	c0-0.1,0-0.2,0-0.2v-9.6c0-0.6,0-0.6,0.6-0.6h1.4c0.5,0,0.5,0,0.5,0.5v4c0,0.5,0,0.5,0.5,0.5c0.9,0,1.7,0,2.6,0
	c0.4,0,0.5-0.1,0.5-0.5c0-1.3,0-2.6,0-3.9c0-0.5,0.1-0.6,0.6-0.6h1.4c0.4,0,0.5,0.1,0.5,0.5C121.2,89.4,121.2,91.3,121.2,93.2z"/>
<path class="st1" d="M127.4,87.1h0.9c0.4-0.1,0.8,0.2,0.8,0.6c0.7,2.5,1.4,4.9,2.1,7.4c0.3,1.2,0.6,2.4,0.9,3.6
	c0.1,0.5,0,0.6-0.4,0.6s-1,0-1.4,0c-0.3,0-0.7-0.2-0.7-0.6c-0.1-0.5-0.2-1-0.3-1.5c0-0.2-0.2-0.4-0.4-0.4c0,0,0,0,0,0
	c-1,0-1.9,0-2.9,0c-0.2,0-0.4,0.1-0.4,0.3c0,0,0,0,0,0c-0.1,0.5-0.2,1-0.3,1.6c0,0.3-0.3,0.5-0.5,0.4c-0.6,0-1.1,0-1.7,0
	c-0.4,0-0.5-0.2-0.4-0.6c0.6-2.3,1.2-4.7,1.9-7c0.4-1.3,0.8-2.7,1.2-4c0.1-0.4,0.4-0.7,0.8-0.6c0,0,0,0,0,0L127.4,87.1z M127.3,89.2
	l-0.2,0.8l-1,4.4c-0.1,0.3-0.1,0.5,0.3,0.5c0.6,0,1.3,0,1.9,0c0.3,0,0.4-0.1,0.3-0.4C128.3,92.7,127.8,91,127.3,89.2z"/>
<path class="st1" d="M146.9,92.4c0-1.6,0-3.2,0-4.7c0-0.5,0.1-0.6,0.6-0.6c1.1,0,2.3,0,3.4,0c0.8,0,1.5,0.1,2.2,0.4
	c0.9,0.4,1.5,1.3,1.6,2.3c0.2,0.9,0.1,1.8-0.1,2.7c-0.3,1.2-1.3,2.1-2.6,2.3c-0.7,0.1-1.5,0.2-2.2,0.1c-0.4,0-0.5,0.1-0.5,0.5
	c0,1.1,0,2.2,0,3.3c0,0.5-0.1,0.6-0.7,0.6c-1,0-1.9-0.8-1.8-1.9c0-0.1,0-0.1,0-0.2C146.9,95.6,146.9,94,146.9,92.4z M149.4,91
	c0,0.5,0,1,0,1.6c0,0.2,0.1,0.4,0.3,0.3c0.3,0,0.7,0,1,0c0.8,0,1.2-0.3,1.4-0.9c0.2-0.5,0.2-1.1,0.1-1.6c0-0.6-0.5-1.2-1.2-1.2
	c-0.4-0.1-0.9,0-1.3,0c-0.3,0-0.4,0.1-0.4,0.4C149.4,90,149.4,90.5,149.4,91z"/>
<path class="st1" d="M210.1,92.5v-4.8c0-0.5,0.1-0.6,0.6-0.6c1.1,0,2.3,0,3.4,0c0.6,0,1.2,0.1,1.8,0.3c1,0.3,1.8,1.1,2,2.2
	c0.2,0.9,0.2,1.8,0,2.7c-0.3,1.5-1.6,2.6-3.1,2.7c-0.6,0.1-1.2,0.1-1.7,0.1c-0.4,0-0.5,0.1-0.5,0.5c0,1.1,0,2.2,0,3.3
	c0,0.5-0.1,0.6-0.6,0.6c-1,0.1-1.8-0.7-1.9-1.7c0-0.1,0-0.2,0-0.3L210.1,92.5z M212.6,91c0,0.5,0,1.1,0,1.6c0,0.2,0.1,0.4,0.3,0.3
	s0.7,0,1,0c0.6-0.1,1.2-0.2,1.4-0.9c0.2-0.7,0.2-1.3,0-2c-0.1-0.4-0.5-0.7-0.9-0.8c-0.5-0.1-1-0.1-1.5-0.1c-0.3,0-0.4,0.1-0.4,0.4
	C212.6,90,212.6,90.5,212.6,91z"/>
<path class="st1" d="M190.6,88.2c0,1,0,1-1,0.9c-0.7-0.2-1.5-0.2-2.2,0c-0.7,0.2-1.1,0.9-0.9,1.6c0,0.1,0.1,0.2,0.1,0.3
	c0.3,0.4,0.7,0.7,1.1,0.9c0.7,0.2,1.4,0.5,2.1,0.9c0.7,0.4,1.2,1.2,1.4,2c0.2,1,0.1,2-0.4,2.8c-0.4,0.8-1.2,1.4-2.1,1.6
	c-1.3,0.3-2.6,0.3-3.9-0.1c-0.4,0-0.8-0.4-0.8-0.8c0-0.4-0.1-0.7-0.2-1.1c-0.1-0.4,0-0.6,0.5-0.4c0.6,0.2,1.3,0.4,2,0.5
	c0.6,0.1,1.1,0,1.7-0.2c0.7-0.4,1-1.2,0.6-2c-0.1-0.1-0.1-0.2-0.2-0.3c-0.4-0.4-0.8-0.6-1.3-0.7c-0.9-0.2-1.6-0.7-2.3-1.3
	c-0.7-0.7-1-1.7-0.9-2.7c0-0.9,0.5-1.8,1.2-2.3c0.6-0.4,1.2-0.6,1.9-0.7c1-0.1,2-0.1,3,0.2c0.3,0,0.6,0.3,0.5,0.7
	C190.6,88,190.6,88.1,190.6,88.2z"/>
<path class="st1" d="M106,93.2v2c-0.1,1,0.7,1.9,1.8,2c0.1,0,0.2,0,0.2,0c0.8,0,1.7-0.1,2.5-0.4c0.6-0.2,0.7,0,0.6,0.5
	c-0.1,0.3-0.1,0.7-0.2,1c0,0.3-0.3,0.6-0.6,0.6c-1.4,0.4-3,0.4-4.4,0.1c-1.2-0.3-2.1-1.2-2.3-2.4c-0.2-0.8-0.2-1.6-0.2-2.4
	c0-1.3-0.1-2.7,0.1-4c0-1.6,1.2-3,2.7-3.3c1.4-0.3,2.9-0.3,4.2,0.1c0.4,0.1,0.5,0.3,0.5,0.6c0,0.4,0,0.7,0,1s-0.1,0.5-0.5,0.4
	c-0.8-0.2-1.6-0.3-2.4-0.3c-1.1-0.1-2,0.7-2.1,1.8c0,0.1,0,0.2,0,0.2C106,91.8,106,92.5,106,93.2z"/>
<path class="st1" d="M205.8,87.1h2.2c0.5,0,0.5,0,0.5,0.5c0,0.3,0,0.6-0.1,0.8c0,0.2-0.2,0.5-0.4,0.5c0,0,0,0-0.1,0c-1,0-1,0-1,0.9
	c0,2.4,0,4.7,0,7.1c0,0.4,0.1,0.5,0.5,0.5c1.1,0,1,0,1,1c0,0.1,0,0.3,0,0.4c0,0.2-0.2,0.4-0.4,0.4c0,0,0,0,0,0h-4.6
	c-0.2,0-0.4-0.1-0.4-0.4c0,0,0,0,0-0.1c0-0.3,0-0.7,0-1c0-0.2,0.1-0.4,0.3-0.4c0,0,0,0,0.1,0c0.3,0,0.5,0,0.8,0
	c0.3,0,0.4-0.1,0.4-0.4c0-0.9,0-1.8,0-2.8c0-1.6,0-3.3,0-4.9c0-0.4-0.1-0.5-0.5-0.4s-0.5,0-0.7,0c-0.2,0-0.3-0.1-0.4-0.3
	c0,0,0-0.1,0-0.1c0-0.3,0-0.6,0-1s0.1-0.5,0.5-0.5H205.8z"/>
<path class="st1" d="M158.4,87.1h2.2c0.5,0,0.6,0.1,0.5,0.6c0,0.3-0.1,0.5-0.1,0.8c0,0.3-0.2,0.4-0.5,0.4c-0.2,0-0.3,0-0.5,0
	c-0.4,0-0.5,0.1-0.5,0.5c0,1.7,0,3.5,0,5.2c0,0.8,0,1.6,0,2.4c0,0.3,0.1,0.5,0.4,0.4c0.3,0,0.4,0,0.7,0s0.4,0.1,0.4,0.4
	c0,0.2,0,0.6,0,1s-0.1,0.5-0.5,0.5c-0.7,0-1.4,0-2,0h-2.2c-0.6,0-0.7,0-0.7-0.6c0-0.3,0-0.6,0-0.8s0.1-0.4,0.4-0.4h0.8
	c0.2,0,0.3-0.1,0.3-0.3s0-0.7,0-1c0-2.2,0-4.5,0-6.7c0-0.4-0.1-0.5-0.5-0.5c-1,0-1,0-1-1c0-0.8,0-0.8,0.8-0.8L158.4,87.1z"/>
<path class="st1" d="M160.2,105.7h-55.5c-0.4,0.1-0.7,0.1-1.1,0c-0.3-0.1-0.7-0.4-0.7-0.5c0.1-0.3,0.3-0.6,0.6-0.8
	c0.3-0.1,0.7-0.2,1.1-0.2h111.2c0.4,0,0.8,0,1.2,0.1c0.3,0.1,0.5,0.4,0.5,0.7c0,0.2-0.4,0.5-0.6,0.6c-0.4,0.1-0.7,0.1-1.1,0
	L160.2,105.7z"/>
<path class="st3" d="M122.2,47.9c1-0.3,2-0.4,2.9-0.2c0,7.1,0,14.1,0,21.1c0.1,0.8-0.3,1.6-1,2c-1.2,0.4-2.4,0.5-3.7,0.4V50.8
	c-0.1-0.8,0.2-1.6,0.7-2.2C121.4,48.3,121.8,48.1,122.2,47.9"/>
<path class="st3" d="M109.5,53.8c2.1-0.2,4.1-0.2,6.2,0c0.7,0,1.4,0.1,2.1,0.2c0.2,0.8,0.1,1.7-0.1,2.5c-0.2,0.7-0.9,1.2-1.6,1.4
	c-1.1,0.1-2.3,0.1-3.4-0.1c-1.1-0.1-2.2-0.1-3.3,0.2c-0.3,0.2-0.6,0.3-0.7,0.6c-0.2,0.6,0.4,1,0.9,1.1c1.7,0.4,3.4,0.6,5.1,1
	c1.2,0.3,2.3,0.9,3.1,1.8c0.7,0.8,1.1,1.8,1.1,2.9c0.2,1.7-0.6,3.5-2,4.5c-1.4,0.9-3,1.3-4.6,1.3c-2.6,0.1-5.2,0-7.7-0.3
	c-0.2-0.9-0.2-1.8,0.2-2.7c0.3-0.7,1-1.3,1.8-1.3c1.9-0.2,3.8,0.2,5.7,0.2c0.6,0,1.1-0.1,1.6-0.4c0.4-0.2,0.6-0.8,0.3-1.2
	c0,0,0,0,0,0c-0.4-0.4-0.9-0.6-1.4-0.7c-1.5-0.3-3-0.5-4.5-0.9c-1.8-0.3-3.3-1.5-4-3.2c-0.7-2-0.1-4.2,1.5-5.5
	C106.9,54.4,108.2,53.9,109.5,53.8"/>
<path class="st3" d="M133.8,53.9c1.1-0.3,2.2-0.3,3.3-0.1c0.2,0.1,0.5,0,0.6,0.2c0.3,0.4,0.5,0.9,0.8,1.3c1.3,2.1,2.6,4.2,3.8,6.2
	c0.4,0.7,0.8,1.3,1.3,2c1-2.2,1.9-4.4,2.8-6.6c0.3-1,1-2,1.8-2.6c0.8-0.5,1.6-0.7,2.5-0.5c0.6,0,1.1,0.2,1.7,0.4
	c-0.8,1.8-1.6,3.6-2.4,5.3c-2.2,4.9-4.4,9.7-6.6,14.6c-0.2,0.5-0.4,1-0.7,1.5c-0.4,0.7-1,1.2-1.7,1.5c-1.2,0.3-2.5,0.2-3.7-0.3
	c1.3-2.8,2.6-5.6,4-8.3c-2.2-3.4-4.3-6.8-6.5-10.2c-1.3,1.2-2.4,2.5-3.6,3.8c-0.1,0.1-0.2,0.2-0.3,0.4c0,0.3,0.2,0.5,0.4,0.7
	c1.3,1.9,2.6,3.9,3.9,5.8c0.4,0.7,0.9,1.3,1.3,2c-0.9,0.4-1.9,0.5-2.9,0.5c-1.2,0-2.3-0.5-3.1-1.4c-0.6-0.8-1.1-1.7-1.6-2.5
	c-1.2-1.8-2.3-3.7-3.5-5.5c1.9-2.1,3.8-4.1,5.6-6.2C131.7,55,132.7,54.3,133.8,53.9"/>
<path class="st4" d="M159.3,45.8c0.9-0.1,1.9,0,2.8,0h52.9c1-0.1,1.9,0.5,2.3,1.4c0.2,0.7,0.3,1.5,0.2,2.3c0,3.1,0,6.1-0.1,9.2
	c0.1,2.3,0,4.7,0,7c0,3.6,0,7.2,0,10.9c0,0.6-0.1,1.2-0.4,1.7c-0.4,0.6-0.9,0.9-1.6,1c-0.7,0.1-1.4,0-2.2,0h-53.5
	c-0.9,0-1.8-0.6-2.1-1.5c-0.1-0.5-0.2-1-0.1-1.5c0-9.4,0-18.9,0-28.3C157.4,46.9,158.2,45.9,159.3,45.8"/>
<path class="st5" d="M165.2,49.3c0.7-0.2,1.5-0.2,2.2-0.1c0,2.6,0,5.2,0,7.8c2.5-3,6.9-3.5,9.9-1.1c1.5,1.1,2.6,2.8,2.9,4.7
	c0.4,2.1,0.2,4.2-0.7,6.2c-0.8,1.6-2.1,2.8-3.7,3.5c-2.2,0.9-4.7,0.8-6.7-0.5c-0.6-0.4-1.2-1-1.7-1.6c0,0.5,0,1.1,0,1.6
	c0,0.4-0.3,0.7-0.7,0.8c-0.7,0.1-1.3,0.1-2,0c0-2.6,0-5.2,0-7.8c-0.1-1.6-0.1-3.2-0.1-4.7c0.1-2.6,0-5.3,0.1-7.9
	C164.6,49.8,164.9,49.5,165.2,49.3"/>
<path class="st5" d="M171.8,56.9c-0.8,0.1-1.7,0.3-2.4,0.8c-0.9,0.5-1.6,1.3-2,2.2c-0.1,1.6,0,3.1,0,4.7c0,0.4-0.1,0.8,0.2,1.2
	c1.1,1.8,3.1,2.8,5.2,2.7c2.3-0.2,4.2-1.8,4.7-4c0.4-1.6,0.3-3.3-0.4-4.8C176.1,57.8,174,56.6,171.8,56.9"/>
<path class="st5" d="M201.6,51.6c0.7-0.4,1.6-0.4,2.4-0.2c0,1.1,0,2.3,0,3.4c2.1,0,4.1,0,6.1,0c0.2,0.7,0.2,1.4-0.1,2
	c-0.2,0.5-0.9,0.4-1.4,0.4H204c0,2.9-0.1,5.8-0.1,8.7c0,0.7,0.2,1.4,0.7,1.9c0.5,0.5,1.2,0.7,1.9,0.6c0.8,0,1.6-0.1,2.4-0.5
	c0.4-0.2,0.9-0.3,1.4-0.1c0.6,0.3,0.6,1.2,0.6,1.8c-0.4,0.3-0.8,0.5-1.3,0.6c-1.1,0.4-2.3,0.6-3.5,0.6c-1.4,0-2.7-0.5-3.6-1.5
	c-0.5-0.6-0.9-1.4-1-2.2c-0.1-0.6-0.1-1.1-0.1-1.7c0-4.1,0-8.3,0-12.4C201.3,52.5,201.2,52,201.6,51.6"/>
<path class="st5" d="M188.4,54.8c2-0.6,4.2-0.4,6.1,0.6c2.2,1.4,3.5,3.8,3.5,6.4c0,0.6,0,1.2-0.1,1.9c-4.1,0-8.2,0-12.2,0
	c0.1,0.8,0.4,1.7,0.8,2.4c0.6,1,1.5,1.7,2.6,2c1.9,0.5,3.9,0.4,5.7-0.3c0.6-0.2,1.3-0.5,1.8-0.1s0.5,1.2,0.5,1.8
	c-1.8,0.8-3.7,1.3-5.6,1.3c-2.3,0.1-4.5-0.7-6.1-2.2c-1.3-1.3-2.2-3.1-2.3-5c-0.1-1.1-0.1-2.2,0.2-3.3
	C183.8,57.8,185.8,55.7,188.4,54.8"/>
<path class="st5" d="M189,57.1c-1.1,0.4-2,1.2-2.5,2.2c-0.3,0.7-0.6,1.4-0.7,2.2h9.7c-0.1-0.9-0.3-1.7-0.7-2.5
	c-0.5-1-1.5-1.8-2.6-2.1C191,56.7,189.9,56.7,189,57.1L189,57.1z"/>
<path class="st0" d="M165.2,49.3c-0.4,0.2-0.6,0.5-0.5,0.9c0,2.6,0.1,5.3-0.1,7.9c0,1.6,0,3.2,0.1,4.7c0,2.6,0,5.2,0,7.8
	c0.7,0.1,1.3,0.1,2,0c0.4-0.1,0.6-0.4,0.7-0.8c0-0.5,0-1.1,0-1.6c0.5,0.6,1.1,1.1,1.7,1.6c2,1.3,4.5,1.5,6.7,0.5
	c1.6-0.7,2.9-1.9,3.7-3.5c0.9-1.9,1.2-4.1,0.7-6.2c-0.3-1.9-1.4-3.6-2.9-4.7c-3.1-2.4-7.4-1.9-9.9,1.1c0-2.6,0-5.2,0-7.8
	C166.7,49.1,165.9,49.1,165.2,49.3"/>
<path class="st0" d="M201.6,51.6c-0.4,0.4-0.3,1-0.3,1.4c0,4.2,0,8.3,0,12.4c0,0.6,0,1.1,0.1,1.7c0.1,0.8,0.5,1.6,1.1,2.2
	c1,1,2.3,1.5,3.6,1.5c1.2,0,2.4-0.2,3.5-0.6c0.4-0.1,0.9-0.3,1.3-0.6c0.1-0.6,0.1-1.5-0.6-1.8c-0.5-0.1-1-0.1-1.4,0.1
	c-0.7,0.3-1.5,0.5-2.4,0.4c-0.7,0.1-1.4-0.2-1.9-0.6c-0.5-0.5-0.7-1.2-0.7-1.9c-0.1-2.9,0.1-5.8,0.1-8.7h4.7c0.5,0,1.1,0.1,1.4-0.4
	c0.2-0.6,0.3-1.3,0.1-2c-2.1,0-4.1,0-6.1,0c0-1.1,0-2.3,0-3.4C203.2,51.1,202.3,51.2,201.6,51.6"/>
<path class="st0" d="M188.4,54.8c-2.6,0.8-4.5,2.9-5.2,5.6c-0.3,1.1-0.3,2.2-0.2,3.3c0.1,1.9,1,3.7,2.3,5c1.7,1.5,3.9,2.3,6.1,2.2
	c1.9-0.1,3.9-0.5,5.6-1.3c0-0.6,0-1.4-0.5-1.8c-0.5-0.4-1.2-0.1-1.8,0.1c-1.8,0.7-3.8,0.8-5.7,0.3c-1.1-0.3-2-1-2.6-2
	c-0.4-0.7-0.7-1.6-0.8-2.4c4.1,0,8.2,0,12.2,0c0.1-0.6,0.1-1.2,0.1-1.9c0-2.6-1.3-5-3.5-6.4C192.6,54.4,190.4,54.2,188.4,54.8"/>
<path class="st4" d="M189,57.1c1-0.4,2.1-0.4,3.1-0.2c1.1,0.3,2.1,1.1,2.6,2.1c0.4,0.8,0.6,1.6,0.7,2.5h-9.7
	c0.2-0.8,0.4-1.5,0.7-2.2C187,58.3,187.9,57.5,189,57.1"/>
<path class="st4" d="M171.8,56.9c2.2-0.2,4.2,0.9,5.2,2.8c0.7,1.5,0.9,3.2,0.4,4.8c-0.5,2.2-2.4,3.8-4.7,4c-2.1,0.2-4.1-0.8-5.2-2.7
	c-0.2-0.3-0.1-0.8-0.2-1.2c0-1.6,0-3.1,0-4.7c0.4-0.9,1.1-1.7,2-2.2C170.1,57.3,170.9,57,171.8,56.9L171.8,56.9z"/>
</svg>
