<?xml version="1.0" encoding="UTF-8"?>
<svg id="Layer_2" data-name="Layer 2" xmlns="http://www.w3.org/2000/svg" viewBox="0 0 253.63 368.1">
  <defs>
    <style>
      .cls-1 {
        fill: #1f4490;
      }

      .cls-1, .cls-2 {
        stroke-width: 0px;
      }

      .cls-2 {
        fill: #c12126;
      }
    </style>
  </defs>
  <g id="Layer_1-2" data-name="Layer 1">
    <g id="g3297">
      <g id="g3044">
        <path id="path2995" class="cls-1" d="M40.8,76.46c0,8.28-6.49,15-14.5,15s-14.5-6.72-14.5-15,6.49-15,14.5-15,14.5,6.72,14.5,15Z"/>
        <path id="path2998" class="cls-1" d="M79.95,75.57c0,9.71-7.61,17.58-16.99,17.58s-16.99-7.87-16.99-17.58,7.61-17.58,16.99-17.58,16.99,7.87,16.99,17.58Z"/>
        <path id="path3000" class="cls-1" d="M114.03,95.18c0,10.29-8.06,18.64-18.01,18.64s-18.01-8.34-18.01-18.64,8.06-18.64,18.01-18.64,18.01,8.34,18.01,18.64Z"/>
        <path id="path3002" class="cls-1" d="M64.3,109.35c0,9.22-7.22,16.69-16.13,16.69s-16.13-7.47-16.13-16.69,7.22-16.69,16.13-16.69,16.13,7.47,16.13,16.69Z"/>
        <path id="path3004" class="cls-1" d="M28.67,105.77c0,7.47-5.95,13.53-13.28,13.53s-13.28-6.06-13.28-13.53,5.95-13.53,13.28-13.53,13.28,6.06,13.28,13.53Z"/>
        <path id="path3006" class="cls-1" d="M94.45,128.8c0,9.01-7.17,16.32-16.02,16.32s-16.02-7.31-16.02-16.32,7.17-16.32,16.02-16.32,16.02,7.31,16.02,16.32Z"/>
        <path id="path3008" class="cls-1" d="M25.33,135.71c0,7.24-5.67,13.1-12.66,13.1s-12.66-5.87-12.66-13.1,5.67-13.1,12.66-13.1,12.66,5.87,12.66,13.1Z"/>
        <path id="path3010" class="cls-1" d="M55.24,142.45c0,7.47-5.85,13.53-13.07,13.53s-13.07-6.06-13.07-13.53,5.85-13.53,13.07-13.53,13.07,6.06,13.07,13.53Z"/>
        <path id="path3012" class="cls-1" d="M80.96,158.9c0,7.47-5.85,13.53-13.07,13.53s-13.07-6.06-13.07-13.53,5.85-13.53,13.07-13.53,13.07,6.06,13.07,13.53Z"/>
        <path id="path3014" class="cls-1" d="M79.28,186.8c0,6.27-5,11.34-11.17,11.34s-11.17-5.08-11.17-11.34,5-11.34,11.17-11.34,11.17,5.08,11.17,11.34Z"/>
        <path id="path3016" class="cls-1" d="M53.5,170.87c0,6.31-5,11.43-11.17,11.43s-11.17-5.12-11.17-11.43,5-11.43,11.17-11.43,11.17,5.12,11.17,11.43Z"/>
        <path id="path3018" class="cls-1" d="M27.43,162.21c0,6.31-5,11.43-11.17,11.43s-11.17-5.12-11.17-11.43,5-11.43,11.17-11.43,11.17,5.12,11.17,11.43Z"/>
        <path id="path3020" class="cls-1" d="M31.94,182.83c0,4.75-3.79,8.61-8.47,8.61s-8.47-3.85-8.47-8.61,3.79-8.61,8.47-8.61,8.47,3.85,8.47,8.61Z"/>
        <path id="path3022" class="cls-1" d="M55.57,193.02c0,4.75-3.79,8.61-8.47,8.61s-8.47-3.85-8.47-8.61,3.79-8.61,8.47-8.61,8.47,3.85,8.47,8.61Z"/>
        <path id="path3024" class="cls-1" d="M38.43,198.93c0,3.88-3.09,7.03-6.91,7.03s-6.91-3.15-6.91-7.03,3.09-7.03,6.91-7.03,6.91,3.15,6.91,7.03Z"/>
        <path id="path3026" class="cls-1" d="M48.19,211.47c0,3.63-2.9,6.57-6.47,6.57s-6.47-2.94-6.47-6.57,2.9-6.57,6.47-6.57,6.47,2.94,6.47,6.57Z"/>
        <path id="path3028" class="cls-1" d="M63.97,210.07c0,3.61-2.88,6.53-6.42,6.53s-6.42-2.92-6.42-6.53,2.88-6.53,6.42-6.53,6.42,2.92,6.42,6.53Z"/>
        <path id="path3030" class="cls-1" d="M83.62,208.36c0,4.75-3.79,8.61-8.47,8.61s-8.47-3.85-8.47-8.61,3.79-8.61,8.47-8.61,8.47,3.85,8.47,8.61Z"/>
        <path id="path3032" class="cls-1" d="M74.79,227.12c0,3.61-2.88,6.53-6.42,6.53s-6.42-2.92-6.42-6.53,2.88-6.53,6.42-6.53,6.42,2.92,6.42,6.53Z"/>
        <path id="path3034" class="cls-1" d="M91.39,225.64c0,3.83-3.06,6.94-6.83,6.94s-6.83-3.11-6.83-6.94,3.06-6.94,6.83-6.94,6.83,3.11,6.83,6.94Z"/>
        <path id="path3036" class="cls-1" d="M59.91,223.71c0,2.72-2.17,4.93-4.85,4.93s-4.85-2.21-4.85-4.93,2.17-4.93,4.85-4.93,4.85,2.21,4.85,4.93Z"/>
        <path id="path3038" class="cls-1" d="M83.01,237.33c0,2.52-2.01,4.56-4.49,4.56s-4.49-2.04-4.49-4.56,2.01-4.56,4.49-4.56,4.49,2.04,4.49,4.56Z"/>
        <path id="path3040" class="cls-1" d="M99.14,238.7c0,3.33-2.65,6.03-5.93,6.03s-5.93-2.7-5.93-6.03,2.65-6.02,5.93-6.02,5.93,2.7,5.93,6.02Z"/>
        <path id="path3042" class="cls-1" d="M109.89,244.85c0,2.34-1.87,4.24-4.18,4.24s-4.18-1.9-4.18-4.24,1.87-4.24,4.18-4.24,4.18,1.9,4.18,4.24Z"/>
      </g>
      <g id="g3194">
        <g id="g3168">
          <path id="path3072" class="cls-1" d="M214.67,78.14c-7.62-3.26-11.24-11.86-8.1-19.23,3.15-7.36,11.87-10.69,19.49-7.44,7.62,3.26,11.24,11.86,8.1,19.23-3.15,7.36-11.87,10.69-19.49,7.44Z"/>
          <path id="path3074" class="cls-1" d="M195.06,111.24c-8.93-3.82-13.18-13.91-9.49-22.53,3.69-8.63,13.92-12.53,22.85-8.72s13.18,13.91,9.49,22.53c-3.69,8.63-13.92,12.53-22.85,8.72Z"/>
          <path id="path3076" class="cls-1" d="M161.83,131.63c-9.46-4.05-13.97-14.74-10.06-23.89,3.91-9.15,14.75-13.28,24.22-9.24s13.97,14.74,10.06,23.89c-3.91,9.15-14.75,13.28-24.22,9.24Z"/>
          <path id="path3078" class="cls-1" d="M172.3,81.05c-8.47-3.62-12.51-13.2-9.01-21.39,3.5-8.19,13.21-11.89,21.68-8.27,8.47,3.62,12.51,13.2,9.01,21.39-3.5,8.19-13.21,11.89-21.68,8.27Z"/>
          <path id="path3080" class="cls-1" d="M193.93,52.94c-6.87-2.94-10.1-10.78-7.22-17.53s10.79-9.83,17.66-6.9c6.87,2.94,10.1,10.78,7.22,17.53-2.88,6.75-10.79,9.83-17.66,6.9Z"/>
          <path id="path3082" class="cls-1" d="M141.85,97.16c-8.29-3.54-12.18-13.01-8.71-21.15,3.48-8.14,13.01-11.86,21.3-8.32,8.29,3.54,12.18,13.01,8.71,21.15-3.48,8.14-13.01,11.86-21.3,8.32Z"/>
          <path id="path3084" class="cls-1" d="M170.24,35.21c-6.65-2.84-9.82-10.36-7.07-16.8,2.75-6.43,10.37-9.34,17.03-6.5s9.82,10.36,7.07,16.8-10.37,9.34-17.03,6.5Z"/>
          <path id="path3086" class="cls-1" d="M148.67,56.46c-6.87-2.94-10.14-10.7-7.3-17.34,2.84-6.64,10.71-9.64,17.57-6.71,6.87,2.94,10.14,10.7,7.3,17.34-2.84,6.64-10.71,9.64-17.57,6.71Z"/>
          <path id="path3088" class="cls-1" d="M120.56,70.04c-6.87-2.94-10.14-10.7-7.3-17.34,2.84-6.64,10.71-9.64,17.57-6.71,6.87,2.94,10.14,10.7,7.3,17.34s-10.71,9.64-17.57,6.71Z"/>
          <path id="path3090" class="cls-1" d="M98.09,55.72c-5.76-2.46-8.46-9.06-6.04-14.73s9.06-8.28,14.82-5.82,8.46,9.06,6.04,14.73c-2.43,5.68-9.06,8.28-14.82,5.82Z"/>
          <path id="path3092" class="cls-1" d="M124.31,41.16c-5.81-2.48-8.55-9.09-6.12-14.77s9.1-8.26,14.91-5.78c5.81,2.48,8.55,9.09,6.12,14.77-2.43,5.68-9.1,8.26-14.91,5.78Z"/>
          <path id="path3094" class="cls-1" d="M145.04,23.48c-5.81-2.48-8.55-9.09-6.12-14.77,2.43-5.68,9.1-8.26,14.91-5.78,5.81,2.48,8.55,9.09,6.12,14.77-2.43,5.68-9.1,8.26-14.91,5.78Z"/>
          <path id="path3096" class="cls-1" d="M125.03,16.28c-4.37-1.87-6.42-6.87-4.59-11.17,1.84-4.3,6.87-6.27,11.24-4.41,4.37,1.87,6.42,6.87,4.59,11.17-1.84,4.3-6.87,6.27-11.24,4.41Z"/>
          <path id="path3098" class="cls-1" d="M103.85,32.92c-4.37-1.87-6.42-6.87-4.59-11.17,1.84-4.3,6.87-6.27,11.24-4.41,4.37,1.87,6.42,6.87,4.59,11.17-1.84,4.3-6.87,6.27-11.24,4.41Z"/>
          <path id="path3100" class="cls-1" d="M106.95,14.84c-3.57-1.52-5.24-5.61-3.74-9.12,1.5-3.51,5.61-5.12,9.18-3.6,3.57,1.52,5.24,5.61,3.74,9.12-1.5,3.51-5.61,5.12-9.18,3.6Z"/>
          <path id="path3102" class="cls-1" d="M90.51,16.72c-3.34-1.43-4.91-5.25-3.5-8.53,1.4-3.29,5.25-4.79,8.59-3.36,3.34,1.43,4.91,5.25,3.5,8.53-1.4,3.29-5.25,4.79-8.59,3.36Z"/>
          <path id="path3104" class="cls-1" d="M83.79,29.98c-3.32-1.42-4.87-5.21-3.48-8.47,1.39-3.26,5.21-4.76,8.53-3.34,3.32,1.42,4.87,5.21,3.48,8.47s-5.21,4.76-8.53,3.34Z"/>
          <path id="path3106" class="cls-1" d="M75.48,48c-4.37-1.87-6.42-6.87-4.59-11.17s6.87-6.27,11.24-4.41c4.37,1.87,6.42,6.87,4.59,11.17s-6.87,6.27-11.24,4.41Z"/>
          <path id="path3108" class="cls-1" d="M63.5,31.43c-3.32-1.42-4.87-5.21-3.48-8.47,1.39-3.26,5.21-4.76,8.53-3.34,3.32,1.42,4.87,5.21,3.48,8.47-1.39,3.26-5.21,4.76-8.53,3.34Z"/>
          <path id="path3110" class="cls-1" d="M57.26,45.83c-3.53-1.51-5.18-5.54-3.7-9.01s5.54-5.06,9.07-3.55c3.53,1.51,5.18,5.54,3.7,9.01-1.48,3.47-5.54,5.06-9.07,3.55Z"/>
          <path id="path3112" class="cls-1" d="M73.56,19.81c-2.5-1.07-3.68-3.93-2.62-6.39,1.05-2.46,3.93-3.59,6.43-2.52,2.5,1.07,3.68,3.93,2.62,6.39s-3.93,3.59-6.43,2.52Z"/>
          <path id="path3114" class="cls-1" d="M50.52,33.17c-2.32-.99-3.41-3.64-2.43-5.92.97-2.28,3.64-3.33,5.96-2.34,2.32.99,3.41,3.64,2.43,5.92-.97,2.28-3.64,3.33-5.96,2.34Z"/>
          <path id="path3116" class="cls-1" d="M40.75,46.02c-3.06-1.31-4.5-4.81-3.21-7.82,1.29-3.01,4.81-4.39,7.87-3.08,3.06,1.31,4.5,4.81,3.21,7.82s-4.81,4.39-7.87,3.08Z"/>
          <path id="path3118" class="cls-1" d="M30.15,52.4c-2.16-.92-3.17-3.39-2.26-5.51.91-2.12,3.39-3.09,5.54-2.17s3.17,3.39,2.26,5.51c-.91,2.12-3.39,3.09-5.54,2.17Z"/>
        </g>
      </g>
      <g id="g3221">
        <g id="g3223">
          <path id="path3225" class="cls-1" d="M123.89,224.03c6.68-4.9,15.93-3.65,20.67,2.8,4.74,6.45,3.17,15.66-3.51,20.56-6.68,4.9-15.93,3.65-20.67-2.8-4.74-6.45-3.17-15.66,3.51-20.56Z"/>
          <path id="path3227" class="cls-1" d="M105.36,190.31c7.83-5.75,18.67-4.28,24.23,3.29,5.56,7.56,3.72,18.35-4.11,24.1-7.83,5.75-18.67,4.28-24.23-3.29-5.56-7.56-3.72-18.35,4.11-24.1Z"/>
          <path id="path3229" class="cls-1" d="M104.7,151.33c8.3-6.09,19.79-4.53,25.68,3.48,5.89,8.02,3.94,19.46-4.36,25.55s-19.79,4.53-25.68-3.48c-5.89-8.02-3.94-19.46,4.36-25.55Z"/>
          <path id="path3231" class="cls-1" d="M142.92,186.07c7.43-5.46,17.72-4.06,23,3.12,5.27,7.18,3.53,17.42-3.9,22.88-7.43,5.46-17.72,4.06-23-3.12-5.27-7.18-3.53-17.42,3.9-22.88Z"/>
          <path id="path3233" class="cls-1" d="M156.13,218.98c6.02-4.42,14.42-3.21,18.76,2.7s2.98,14.29-3.04,18.71c-6.02,4.42-14.42,3.21-18.76-2.7-4.34-5.91-2.98-14.29,3.04-18.71Z"/>
          <path id="path3235" class="cls-1" d="M144.53,151.65c7.26-5.33,17.4-3.88,22.64,3.25,5.24,7.13,3.6,17.24-3.66,22.57-7.26,5.33-17.4,3.88-22.64-3.25-5.24-7.13-3.6-17.24,3.66-22.57Z"/>
          <path id="path3237" class="cls-1" d="M183.44,207.59c5.83-4.28,13.92-3.19,18.06,2.45,4.14,5.64,2.77,13.68-3.06,17.96-5.83,4.28-13.92,3.19-18.06-2.45s-2.77-13.68,3.06-17.96Z"/>
          <path id="path3239" class="cls-1" d="M176.11,178.22c6.02-4.42,14.37-3.29,18.64,2.53,4.27,5.82,2.86,14.12-3.16,18.54-6.02,4.42-14.37,3.29-18.64-2.53-4.27-5.82-2.86-14.12,3.16-18.54Z"/>
          <path id="path3241" class="cls-1" d="M178.71,147.1c6.02-4.42,14.37-3.29,18.64,2.53,4.27,5.82,2.86,14.12-3.16,18.54-6.02,4.42-14.37,3.29-18.64-2.53s-2.86-14.12,3.16-18.54Z"/>
          <path id="path3243" class="cls-1" d="M202.47,135.03c5.05-3.71,12.1-2.68,15.76,2.29,3.65,4.97,2.52,12.01-2.53,15.72-5.05,3.71-12.1,2.68-15.76-2.29-3.65-4.97-2.52-12.01,2.53-15.72Z"/>
          <path id="path3245" class="cls-1" d="M201.67,165.02c5.09-3.74,12.18-2.74,15.83,2.24s2.49,12.04-2.6,15.78c-5.09,3.74-12.18,2.74-15.83-2.24-3.65-4.97-2.49-12.04,2.6-15.78Z"/>
          <path id="path3247" class="cls-1" d="M206.35,191.86c5.09-3.74,12.18-2.74,15.83,2.24,3.65,4.97,2.49,12.04-2.6,15.78-5.09,3.74-12.18,2.74-15.83-2.24-3.65-4.97-2.49-12.04,2.6-15.78Z"/>
          <path id="path3249" class="cls-1" d="M222.73,178.29c3.83-2.81,9.18-2.04,11.95,1.73,2.77,3.77,1.91,9.11-1.92,11.92-3.83,2.81-9.18,2.04-11.95-1.73-2.77-3.77-1.91-9.11,1.92-11.92Z"/>
          <path id="path3251" class="cls-1" d="M219.17,151.59c3.83-2.81,9.18-2.04,11.95,1.73,2.77,3.77,1.91,9.11-1.92,11.92-3.83,2.81-9.18,2.04-11.95-1.73-2.77-3.77-1.91-9.11,1.92-11.92Z"/>
          <path id="path3253" class="cls-1" d="M233.16,163.45c3.13-2.3,7.49-1.66,9.75,1.41,2.26,3.08,1.56,7.43-1.57,9.73-3.13,2.3-7.49,1.66-9.75-1.41-2.26-3.08-1.56-7.43,1.57-9.73Z"/>
          <path id="path3255" class="cls-1" d="M239.91,148.34c2.93-2.15,7.01-1.56,9.13,1.32,2.12,2.88,1.46,6.96-1.47,9.11-2.93,2.15-7.01,1.56-9.13-1.32-2.12-2.88-1.46-6.96,1.47-9.11Z"/>
          <path id="path3257" class="cls-1" d="M231.91,135.81c2.91-2.13,6.96-1.55,9.07,1.31,2.1,2.86,1.45,6.91-1.46,9.04-2.91,2.13-6.96,1.55-9.07-1.31s-1.45-6.91,1.46-9.04Z"/>
          <path id="path3259" class="cls-1" d="M220.61,119.49c3.83-2.81,9.18-2.04,11.95,1.73s1.91,9.11-1.92,11.92c-3.83,2.81-9.18,2.04-11.95-1.73s-1.91-9.11,1.92-11.92Z"/>
          <path id="path3261" class="cls-1" d="M240.97,117.6c2.91-2.13,6.96-1.55,9.07,1.31,2.1,2.86,1.45,6.91-1.46,9.04-2.91,2.13-6.96,1.55-9.07-1.31-2.1-2.86-1.45-6.91,1.46-9.04Z"/>
          <path id="path3263" class="cls-1" d="M231.75,104.91c3.09-2.27,7.4-1.64,9.64,1.4,2.23,3.04,1.54,7.34-1.55,9.61-3.09,2.27-7.4,1.64-9.64-1.4-2.23-3.04-1.54-7.34,1.55-9.61Z"/>
          <path id="path3265" class="cls-1" d="M245.86,132.18c2.19-1.61,5.25-1.17,6.84.99,1.58,2.16,1.09,5.21-1.1,6.82-2.19,1.61-5.25,1.17-6.84-.99s-1.09-5.21,1.1-6.82Z"/>
          <path id="path3267" class="cls-1" d="M246.07,105.54c2.03-1.49,4.87-1.08,6.34.92,1.47,2,1.01,4.83-1.02,6.32-2.03,1.49-4.87,1.08-6.34-.92-1.47-2-1.01-4.83,1.02-6.32Z"/>
          <path id="path3269" class="cls-1" d="M239.97,90.6c2.68-1.97,6.43-1.43,8.37,1.21,1.94,2.64,1.34,6.37-1.35,8.34-2.68,1.97-6.43,1.43-8.37-1.21s-1.34-6.37,1.35-8.34Z"/>
          <path id="path3271" class="cls-1" d="M239.87,78.22c1.89-1.39,4.53-1.01,5.89.85,1.37,1.86.94,4.49-.95,5.88s-4.53,1.01-5.89-.85c-1.37-1.86-.94-4.49.95-5.88Z"/>
        </g>
      </g>
      <path id="rect3275" class="cls-2" d="M29.29,275.14v77.47h.25c.81,7.47,4.93,15.49,14.54,15.49h41.71v-20.59h-34.95v-15.18h33.06v-21.73h-33.06v-13.73h35.65v-21.73H29.29Z"/>
      <path id="path3289" class="cls-2" d="M104.06,356.01c1.66,7.52,5.53,12.1,12.93,11.97h9.34v-36.63h29.92v-20.11h-29.92v-16.04h33.51v-20.35h-56.5l.72,81.15Z"/>
      <path id="rect3291" class="cls-2" d="M176.35,275.08v72.55c0,9.93,1.01,19.9,13.51,19.9h37v-19.9h-29.22v-72.55h-21.29Z"/>
    </g>
  </g>
</svg>