<?xml version="1.0" encoding="UTF-8"?>
<!-- Generated by Pixelmator Pro 3.6.5 -->
<svg width="601" height="601" viewBox="0 0 601 601" xmlns="http://www.w3.org/2000/svg">
    <g id="Layer1-2">
        <path id="Path" fill="#e30613" stroke="none" d="M 290.390015 3.690002 C 292.529999 1.969971 294.269989 -0.73999 297.26001 -0.919983 C 299.459991 -1.23999 301.670013 -0.400024 303.119995 1.289978 C 304.679993 3.049988 307.540009 4.23999 307.320007 7.02002 C 306.700012 9.869995 305.75 12.900024 306.940002 15.75 C 308.25 20.609985 313.459991 23.159973 314.420013 28.179993 C 315.070007 32.5 312.579987 36.929993 308.899994 39.179993 C 307.339996 40.280029 305.290009 40.580017 303.899994 41.950012 C 304.329987 43.969971 304.5 46.039978 304.420013 48.099976 C 312.5 48.630005 320.730011 50.710022 327.420013 55.369995 C 330.670013 57.48999 332.899994 60.859985 333.570007 64.690002 C 319.640015 60.840027 305.179993 59.289978 290.75 60.099976 C 281.230011 60.48999 271.800018 62.02002 262.649994 64.669983 C 262.809998 60.669983 265.540009 57.440002 268.649994 55.320007 C 275.399994 50.76001 283.529999 48.630005 291.580017 48.099976 C 291.839996 45.799988 291.839996 43.469971 291.580017 41.169983 C 286.52002 39.880005 281.75 35.650024 281.580017 30.169983 C 281.380005 26.890015 283.240021 24 285.429993 21.73999 C 288.309998 18.73999 290.690002 14.299988 289.369995 10.039978 C 288.929993 7.960022 288.210022 5.150024 290.309998 3.73999 M 236.009995 84.01001 C 252.429993 75.900024 270.649994 72.01001 288.839996 70.710022 C 297.76001 70.559998 306.790009 70.150024 315.630005 71.590027 C 307.73999 74.98999 299.700012 78.97998 294.269989 85.880005 C 291.559998 88.880005 290.210022 93.200012 286.369995 95.059998 C 271.029999 95.970001 255.960007 99.73999 241.550003 104.980011 C 239.460007 98.329987 237.550003 91.570007 234.550003 85.23999 L 236.009995 84.01001 M 173.009995 114.48999 C 174.259995 108.769989 176.550003 103.329987 179.759995 98.429993 C 181.990005 103.51001 184.339996 108.540009 186.710007 113.559998 C 186.710007 115.889984 185.759995 118.109985 185.479996 120.410004 C 182.949997 136.070007 186.419998 152.119995 195.190002 165.339996 C 200.229996 173.070007 207.960007 178.649994 216.880005 181.01001 C 217.509995 185.209991 217.740005 189.459991 217.570007 193.709991 L 215.5 194.149994 C 212.610001 193.959991 209.800003 193.119995 207.279999 191.690002 C 203.839996 189.75 200.169998 188.170013 196.970001 185.820007 C 193.970001 183.720001 191.630005 180.75 188.330002 179.040009 L 187.800003 178.730011 C 187.740005 178.429993 187.610001 177.830017 187.550003 177.540009 C 182.289993 171.200012 178.220001 163.950012 175.550003 156.160004 C 175.240005 155.299988 174.949997 154.440002 174.690002 153.570007 C 170.770004 140.910004 170.190002 127.459991 172.990005 114.51001 M 246.929993 115.339996 C 258.929993 110.920013 271.470001 107.690002 284.240021 106.959991 C 280.52002 126.730011 284.5 146.790009 287.350006 166.399994 C 290.050018 184.089996 293.579987 201.660004 295.790009 219.399994 C 284.429993 219.26001 273.179993 221.119995 262.050018 223.160004 C 263.050018 218.769989 262.050018 214.269989 261.559998 209.869995 C 259.820007 199.5 256.619995 189.070007 250.389999 180.5 C 251.440002 172.429993 251.039993 164.269989 251.059998 156.160004 C 250.380005 142.920013 248.960007 129.580017 245.059998 116.869995 C 244.770004 115.73999 246.320007 115.769989 246.949997 115.320007 M 405.01001 138.73999 C 409.200012 148.910004 410.369995 160.390015 407.380005 171.049988 C 403.329987 185.48999 393.559998 198.589996 380.070007 205.470001 C 380.25 200.559998 378.549988 195.029999 381.149994 190.559998 C 393.399994 180.880005 400.48999 163.860016 395.880005 148.559998 C 398.329987 144.769989 402.209991 142.269989 405.01001 138.790009 M 278.550018 232.160004 C 282.839996 231.51001 287.75 231.709991 291.26001 234.570007 C 293.540009 236.410004 294.070007 239.519989 294 242.299988 L 294 292.529999 C 293.959991 293.809998 293.829987 295.089996 293.619995 296.350006 C 290.880005 296.350006 288.140015 296.430023 285.420013 296.710022 C 282.309998 297.380005 279.100006 297.430023 276 298.170013 C 267.920013 285.01001 265.170013 269.369995 263.850006 254.170013 C 263.790009 248.869995 263.110016 243.059998 266.170013 238.380005 C 268.920013 234.290009 273.929993 232.809998 278.559998 232.130005 M 275.880005 320.430023 C 282.570007 320.130005 289.220001 319.210022 295.929993 319.200012 C 295.279999 325.800018 294.059998 332.309998 293 338.839996 C 288.070007 338.720001 283.140015 338.930023 278.240021 339.470001 C 278.240021 333.25 278.470001 327.050018 278.240021 320.839996 L 276.550018 320.720001 L 275.890015 320.430023 M 274.27002 351.710022 L 275.860016 351.179993 C 278.100006 351.109985 280.339996 350.97998 282.589996 350.890015 C 285.190002 350.789978 287.790009 350.859985 290.380005 351.119995 C 287.029999 366.119995 282.690002 380.880005 277.380005 395.309998 C 273.720001 395.51001 270.070007 395.830017 266.380005 396.080017 C 271.410004 381.710022 274.910004 366.859985 276.820007 351.76001 L 274.220001 351.76001 M 261.640015 409.109985 C 265.029999 408.789978 268.390015 408.380005 271.77002 408.029968 C 268.26001 416.150024 263.77002 423.779968 259.660004 431.580017 L 262.279999 431.669983 C 258.540009 432.080017 254.770004 432.26001 251.039993 432.76001 C 254.660004 424.909973 258.540009 417.179993 261.640015 409.109985 L 261.640015 409.109985 Z"/>
        <path id="path1" fill="#b71a23" stroke="none" d="M 315.630005 71.580017 C 324.070007 71.830017 332.420013 73.820007 340.549988 76.039978 C 337.779999 78.330017 334.890015 80.559998 332.75 83.47998 C 330.609985 86.400024 327.75 88.710022 325.890015 91.839996 C 324.920013 93.76001 323.549988 95.470001 321.890015 96.839996 C 319.700012 96.279999 317.459991 95.950012 315.209991 95.839996 C 312.420013 94.839996 309.399994 95.440002 306.519989 94.950012 C 300.910004 94.139984 295.209991 94.139984 289.600006 94.950012 C 288.52002 94.950012 287.440002 95.01001 286.369995 95.029999 C 290.210022 93.170013 291.559998 88.849976 294.269989 85.849976 C 299.700012 79.01001 307.73999 75.01001 315.630005 71.580017 Z"/>
        <path id="path2" fill="#cd101b" stroke="none" d="M 340.549988 76.01001 C 345.540009 77.380005 350.429993 79.080017 355.200012 81.080017 C 356.200012 81.549988 357.540009 81.77002 358.059998 82.929993 C 356.959991 86.929993 353.619995 89.549988 351.73999 93.089996 C 349.929993 96.380005 347.390015 99.209991 345.630005 102.549988 L 345.040009 102.720001 C 337.420013 100.440002 329.809998 97.790009 321.890015 96.799988 C 323.549988 95.429993 324.920013 93.720001 325.890015 91.799988 C 327.73999 88.669983 330.630005 86.380005 332.75 83.440002 C 334.869995 80.5 337.75 78.289978 340.549988 76 L 340.549988 76 Z"/>
        <path id="path3" fill="#e00714" stroke="none" d="M 358.059998 83.01001 L 358.309998 82.26001 C 362.910004 85.200012 367.929993 87.440002 372.309998 90.76001 C 367.700012 93.889984 366.23999 99.76001 364.959991 104.839996 C 364.450012 107.480011 362.450012 109.429993 360.76001 111.389984 C 356.109985 108.049988 351.070007 105.290009 345.76001 103.170013 L 345.700012 102.630005 C 347.459991 99.290009 350 96.459991 351.809998 93.170013 C 353.690002 89.630005 357.029999 86.960022 358.130005 83.01001 L 358.059998 83.01001 Z"/>
        <path id="path4" fill="#c91a21" stroke="none" d="M 185.669998 91.940002 C 192.179993 87.469971 199.919998 85.150024 207.809998 85.279968 C 213.630005 85.630005 219.289993 87.27002 224.399994 90.070007 C 227.020004 97.179993 229.899994 104.269989 231.570007 111.670013 C 230.809998 114.570007 228.630005 116.73999 226.880005 119.070007 C 224.720001 121.829987 223.190002 125.01001 221.059998 127.790009 C 218.649994 131 215.389999 133.5 213.220001 136.910004 C 211.699997 139.390015 210.029999 141.769989 208.220001 144.040009 C 200.960007 126.570007 193.389999 109.200012 185.669998 91.940002 L 185.669998 91.940002 Z"/>
        <path id="path5" fill="#ea0210" stroke="none" d="M 364.929993 104.790009 C 366.209991 99.679993 367.670013 93.790009 372.279999 90.709991 C 378.059998 95.089996 383.429993 100.529999 385.910004 107.48999 C 380.76001 114.329987 377.470001 122.320007 374.570007 130.309998 C 366.899994 153.149994 363.720001 177.26001 365.209991 201.309998 C 366.299988 214.920013 369.209991 228.809998 376.529999 240.51001 C 374.73999 240.029999 373.320007 238.799988 371.790009 237.839996 C 367.420013 235.140015 362.839996 232.799988 358.100006 230.839996 C 357.399994 229.559998 356.850006 228.190002 356.470001 226.779999 C 355.470001 219.149994 353.320007 211.720001 352.470001 204.080017 C 352.320007 203.160004 352.980011 202.410004 353.26001 201.610016 C 353.470001 202.390015 353.880005 203.940002 354.079987 204.709991 C 353.200012 199.410004 353.899994 194.019989 353.23999 188.709991 C 353.059998 185.559998 353.149994 182.399994 353.529999 179.269989 C 353.660004 165.140015 355.600006 151.089996 359.299988 137.450012 C 359.690002 136.070007 360.059998 134.670013 360.529999 133.299988 C 360.98999 131.580017 361.480011 129.869995 361.98999 128.160004 C 363.339996 124.160004 364.649994 120.160004 366.070007 116.220001 C 364.410004 114.48999 362.630005 112.869995 360.76001 111.369995 C 362.450012 109.369995 364.450012 107.459991 364.959991 104.820007 L 364.929993 104.790009 Z"/>
        <path id="path6" fill="#b81923" stroke="none" d="M 284.309998 106.350006 C 288.910004 106.230011 293.51001 106.040009 298.089996 105.609985 C 305.380005 106.290009 312.820007 106.019989 319.950012 107.839996 C 318.75 108.389984 317.619995 109.089996 316.600006 109.920013 C 314.549988 114.559998 314.230011 119.709991 313.209991 124.619995 C 311.690002 131.380005 309.769989 138.279999 310.519989 145.269989 C 311.140015 154.190002 310.290009 163.149994 311.119995 172.049988 C 311.309998 175.559998 310.890015 179.049988 311.309998 182.589996 C 312.209991 189.910004 311.559998 197.320007 312.779999 204.589996 C 313.649994 209.320007 313.410004 214.190002 314.570007 218.880005 C 314.290009 219.23999 313.709991 219.940002 313.429993 220.290009 C 307.589996 219.290009 301.679993 219.290009 295.790009 219.369995 C 293.579987 201.610016 290.049988 184.040009 287.350006 166.369995 C 284.5 146.76001 280.52002 126.700012 284.23999 106.929993 L 284.309998 106.350006 L 284.309998 106.350006 Z"/>
        <path id="path7" fill="#c8121d" stroke="none" d="M 316.600006 109.920013 C 317.619995 109.089996 318.75 108.389984 319.950012 107.839996 C 322.779999 107.839996 325.429993 109.190002 328.279999 109.049988 L 328.630005 110.049988 C 326.940002 118.829987 322.980011 127.170013 322.630005 136.209991 C 322.429993 144.519989 321.170013 152.769989 321.450012 161.089996 C 320.529999 178.610016 322.970001 196.01001 324.119995 213.459991 C 324.329987 216.130005 324.890015 218.769989 325.779999 221.299988 C 321.600006 221.48999 317.600006 219.929993 313.440002 220.299988 C 313.720001 219.950012 314.299988 219.25 314.579987 218.890015 C 313.420013 214.200012 313.660004 209.330017 312.790009 204.600006 C 311.570007 197.309998 312.220001 189.899994 311.320007 182.600006 C 310.899994 179.100006 311.320007 175.600006 311.130005 172.059998 C 310.299988 163.160004 311.130005 154.200012 310.529999 145.279999 C 309.779999 138.279999 311.700012 131.390015 313.220001 124.630005 C 314.220001 119.720001 314.559998 114.570007 316.609985 109.929993 L 316.600006 109.929993 Z"/>
        <path id="path8" fill="#d70b17" stroke="none" d="M 328.630005 110.089996 C 330.26001 109.170013 332.179993 110.76001 333.899994 110.980011 C 339.73999 112.679993 345.369995 115.019989 350.690002 117.980011 C 348.089996 120.389984 348.339996 124.179993 346.690002 127.119995 C 344.160004 131.570007 343.98999 136.809998 342.929993 141.700012 C 340.76001 150.330017 341.119995 159.330017 339.98999 168.110016 C 339.079987 174.110016 340.579987 180.059998 339.799988 186.040009 C 338.799988 197.130005 341.290009 208.040009 342.700012 218.970001 C 343.089996 221.26001 343.640015 223.519989 344.149994 225.790009 C 341.320007 224.920013 338.450012 224.200012 335.540009 223.630005 C 332.450012 222.630005 329.220001 222.089996 325.970001 222.019989 C 325.920013 221.850006 325.799988 221.5 325.75 221.330017 C 324.859985 218.799988 324.299988 216.160004 324.089996 213.48999 C 322.940002 196.040009 320.5 178.640015 321.420013 161.119995 C 321.140015 152.799988 322.420013 144.549988 322.600006 136.23999 C 322.959991 127.23999 326.920013 118.859985 328.600006 110.079987 L 328.630005 110.079987 Z"/>
        <path id="path9" fill="#c01b21" stroke="none" d="M 231.570007 111.670013 L 231.800003 110.920013 C 236.25 127.339996 239.619995 144.200012 239.800003 161.290009 C 240.139999 181.440002 237.149994 202.190002 227.800003 220.290009 C 219.149994 236.450012 204.300003 247.890015 190.240005 259.110016 C 190.440002 258.430023 190.779999 257.800018 191.240005 257.26001 C 198.380005 249.369995 204.839996 240.720001 209.240005 230.980011 C 214.179993 219.610016 217.089996 207.459991 217.839996 195.080017 L 215.559998 194.149994 L 217.630005 193.709991 C 217.800003 189.459991 217.570007 185.209991 216.940002 181.01001 L 217.619995 180.01001 C 216.259995 167.649994 212.619995 155.660004 208.279999 144.01001 C 210.089996 141.73999 211.759995 139.360016 213.279999 136.880005 C 215.449997 133.470001 218.710007 130.970001 221.119995 127.76001 C 223.25 124.980011 224.779999 121.76001 226.940002 119.040009 C 228.690002 116.709991 230.869995 114.540009 231.630005 111.639984 L 231.570007 111.670013 Z"/>
        <path id="path10" fill="#e40512" stroke="none" d="M 346.709991 127.130005 C 348.339996 124.190002 348.089996 120.399994 350.709991 117.98999 C 351.649994 118.899994 354.01001 119.369995 353.200012 121.130005 C 350.190002 135.75 348.779999 150.660004 348.970001 165.589996 C 349.570007 176.809998 350.940002 187.980011 353.059998 199.01001 C 353.130005 199.830017 353.630005 200.75 353.230011 201.570007 C 352.829987 202.390015 352.290009 203.119995 352.440002 204.040009 C 353.320007 211.679993 355.440002 219.110016 356.440002 226.73999 C 356.829987 228.160004 357.399994 229.529999 358.119995 230.809998 C 353.559998 228.910004 348.910004 227.23999 344.190002 225.809998 C 343.679993 223.540009 343.130005 221.279999 342.73999 218.98999 C 341.329987 208.049988 338.850006 197.149994 339.839996 186.059998 C 340.619995 180.059998 339.119995 174.059998 340.029999 168.130005 C 341.160004 159.350006 340.799988 150.350006 342.970001 141.720001 C 344.029999 136.830017 344.200012 131.589996 346.730011 127.140015 L 346.709991 127.140015 Z"/>
        <path id="path11" fill="#ae1d22" stroke="none" d="M 374.570007 164.360016 C 377.220001 149.360016 380.570007 134.190002 387.570007 120.540009 C 395.329987 124.290009 401.220001 131.080017 404.980011 138.730011 C 402.179993 142.209991 398.299988 144.730011 395.850006 148.5 C 386.679993 160.839996 381.720001 175.910004 380.390015 191.140015 L 381.119995 190.549988 C 378.519989 195.019989 380.220001 200.549988 380.040009 205.459991 C 378.019989 206.600006 375.820007 207.390015 373.529999 207.779999 C 372.380005 202.019989 372.529999 196.149994 372.529999 190.309998 C 372.269989 181.600006 373.440002 172.959991 374.529999 164.309998 L 374.570007 164.360016 Z"/>
        <path id="path12" fill="#c11b21" stroke="none" d="M 188.330002 179.01001 C 191.630005 180.720001 193.960007 183.690002 196.970001 185.790009 C 200.169998 188.140015 203.839996 189.720001 207.279999 191.660004 C 206.190002 193.830017 206.479996 196.360016 206.009995 198.660004 C 205.369995 204.470001 204.289993 210.230011 202.770004 215.880005 C 200.460007 223.799988 197.850006 231.76001 193.770004 238.970001 C 196.279999 218.839996 192.979996 198.540009 188.309998 178.970001 L 188.330002 179.01001 Z"/>
        <path id="path13" fill="#b51a25" stroke="none" d="M 250.389999 180.48999 C 256.619995 189.059998 259.820007 199.48999 261.559998 209.860016 C 262.080017 214.26001 263.029999 218.76001 262.050018 223.149994 C 262.050018 223.320007 261.960022 223.660004 261.920013 223.830017 C 258.100006 223.830017 254.639999 225.670013 250.919998 225.98999 C 250.589996 220.700012 249.649994 215.470001 248.119995 210.390015 C 247.649994 209.080017 246.690002 208.01001 245.449997 207.390015 C 247.740005 198.540009 249.410004 189.540009 250.449997 180.450012 L 250.389999 180.48999 Z"/>
        <path id="path14" fill="#c01521" stroke="none" d="M 245.119995 207.179993 L 245.470001 207.429993 C 246.710007 208.049988 247.669998 209.119995 248.139999 210.429993 C 249.669998 215.51001 250.610001 220.73999 250.940002 226.029999 L 250.940002 226.440002 C 244.369995 228.089996 237.949997 230.290009 231.740005 233.01001 C 237.889999 225.390015 242.449997 216.600006 245.119995 207.179993 Z"/>
        <path id="path15" fill="#c2141f" stroke="none" d="M 308.119995 232.330017 C 313.799988 231.149994 319.709991 231.809998 324.98999 234.200012 C 329.329987 236.390015 332.029999 240.890015 331.920013 245.75 C 332.140015 251.119995 331.75 256.490021 331.480011 261.850006 C 329.649994 274.400024 326.420013 286.960022 320.290009 298.170013 L 318.440002 297.640015 C 319.440002 294.740021 316.910004 292.230011 317.149994 289.350006 C 317.459991 286.080017 316.149994 283 316.01001 279.779999 C 314.839996 265.440002 311.25 251.429993 310.01001 237.100006 C 309.869995 235.339996 308.880005 233.839996 308.089996 232.330017 L 308.119995 232.330017 Z"/>
        <path id="path16" fill="#b51a24" stroke="none" d="M 301.850006 239.670013 C 301.790009 236.01001 305.040009 233.519989 308.149994 232.330017 C 308.940002 233.839996 309.929993 235.330017 310.070007 237.100006 C 311.279999 251.429993 314.869995 265.440002 316.070007 279.779999 C 316.23999 283 317.519989 286.080017 317.209991 289.350006 C 316.970001 292.230011 319.5 294.740021 318.5 297.640015 L 320.350006 298.170013 C 314.190002 297.700012 308.079987 296.230011 301.859985 296.440002 C 301.910004 277.51001 301.859985 258.589996 301.859985 239.670013 M 262.059998 323.070007 C 266.869995 322.190002 271.609985 320.790009 276.539978 320.75 L 278.22998 320.869995 C 278.470001 327.080017 278.22998 333.279999 278.22998 339.5 C 274.940002 339.820007 271.660004 340.320007 268.429993 341.02002 C 266.009979 341.619995 263.519989 341.920013 261.029999 341.920013 L 260.380005 340.980011 C 261.220001 337.910004 262.029999 334.77002 261.73999 331.570007 C 261.519989 329.570007 261.820007 327.550018 262.630005 325.710022 C 262.380005 324.980011 262.149994 324.26001 261.929993 323.52002 C 261.97998 323.369995 262.019989 323.220001 262.049988 323.070007 L 262.049988 323.070007 Z"/>
        <path id="path17" fill="#c21420" stroke="none" d="M 236.779999 243.51001 C 240.149994 241.700012 243.960007 240.880005 247.779999 241.140015 C 250.889999 240.799988 254.869995 242.040009 255.550003 245.48999 C 255.479996 250.690002 256.300018 255.830017 256.550018 261.01001 C 257.690002 274.450012 261.429993 287.540009 267.550018 299.559998 L 267.089996 300.559998 C 264.170013 301.360016 261.360016 302.480011 258.700012 303.920013 C 253.050003 300.380005 248.5 295.339996 244.300003 290.25 C 243.990005 289.610016 243.070007 289.119995 243.179993 288.380005 C 244.600006 285.01001 243.449997 281.380005 242.979996 277.940002 C 242.100006 273.850006 243.130005 269.570007 241.729996 265.570007 C 239.600006 258.360016 240.529999 250.25 236.800003 243.570007 L 236.779999 243.51001 Z"/>
        <path id="path18" fill="#d50c18" stroke="none" d="M 340.850006 244.01001 C 341.589996 242.51001 343.339996 242.01001 344.670013 241.190002 C 345.100006 243.01001 345.290009 245.190002 347.040009 246.279999 L 345.040009 246.610016 C 353.880005 245.540009 344.429993 247.679993 347.779999 248.660004 C 347.429993 250.660004 349.089996 252.279999 349.109985 254.26001 C 349.549988 259.540009 351.98999 264.360016 352.660004 269.600006 C 353.390015 274.350006 354.720001 278.980011 355.899994 283.600006 C 351.140015 291.52002 344.850006 298.410004 337.380005 303.860016 C 334.48999 302.529999 331.529999 301.380005 328.51001 300.390015 C 327.570007 299.700012 328.820007 298.540009 329.029999 297.75 C 329.899994 296.070007 330.75 294.380005 331.570007 292.660004 C 337.01001 279.660004 339.299988 265.610016 339.929993 251.660004 C 340.089996 249.119995 339.390015 246.309998 340.820007 244.019989 M 214.020004 421.059998 C 218.440002 418.890015 223.050003 417.130005 227.800003 415.799988 C 227.419998 419.950012 225.619995 423.799988 224.649994 427.799988 C 223.649994 431.099976 223.550003 434.570007 222.720001 437.890015 L 222.559998 438.599976 C 221.559998 438.690002 220.610001 438.809998 219.639999 438.950012 C 216.240005 440.22998 212.809998 441.429993 209.360001 442.559998 C 210.740005 435.469971 212.710007 428.559998 213.949997 421.429993 L 214.020004 421.089966 L 214.020004 421.059998 Z"/>
        <path id="path19" fill="#e30512" stroke="none" d="M 344.670013 241.170013 C 349.890015 240.980011 355.609985 240.910004 359.920013 244.369995 C 364.309998 247.48999 365.329987 253.369995 365.019989 258.369995 C 363.609985 267.279999 360.529999 275.839996 355.929993 283.600006 C 354.75 278.950012 353.420013 274.320007 352.690002 269.600006 C 352.019989 264.360016 349.579987 259.540009 349.140015 254.26001 C 349.140015 252.26001 347.459991 250.630005 347.809998 248.660004 C 344.459991 247.660004 353.910004 245.540009 345.070007 246.610016 L 347.070007 246.279999 C 345.320007 245.149994 345.130005 243.01001 344.700012 241.190002 M 214.119995 262.210022 C 216.369995 259.869995 220.380005 257.410004 223.119995 260.420013 L 222.889999 261.070007 C 221.130005 264.559998 222.789993 268.400024 223.380005 271.960022 C 225.289993 279.839996 225.479996 287.960022 226.479996 295.960022 C 226.610001 298.01001 226.449997 300.080017 225.979996 302.080017 C 219.119995 297.160004 212.639999 290.860016 210.110001 282.580017 C 208.110001 275.720001 209.110001 267.52002 214.110001 262.200012 M 208.110001 424.419983 C 209.970001 423.23999 211.929993 422.23999 213.970001 421.419983 C 212.729996 428.529968 210.759995 435.419983 209.380005 442.549988 L 209.309998 442.859985 C 205.529999 444.159973 202.429993 446.76001 198.800003 448.309998 C 200.020004 442.97998 200.940002 437.589966 202.169998 432.309998 C 202.830002 428.900024 205.529999 426.539978 208.110001 424.48999 L 208.110001 424.419983 Z"/>
        <path id="path20" fill="#ce0e1b" stroke="none" d="M 231.720001 250.01001 C 232.710007 247.390015 234.479996 245.119995 236.779999 243.519989 C 240.509995 250.230011 239.580002 258.339996 241.710007 265.52002 C 243.110001 269.52002 242.080002 273.800018 242.960007 277.890015 C 243.429993 281.330017 244.580002 284.960022 243.160004 288.330017 C 237.929993 281.869995 234.889999 273.980011 232.479996 266.119995 C 230.729996 260.930023 230.130005 255.279999 231.720001 249.980011 L 231.720001 250.01001 Z"/>
        <path id="path21" fill="#a01e22" stroke="none" d="M 389.799988 254.440002 L 390.040009 253.549988 C 400.040009 266.75 408.670013 281.470001 412.089996 297.850006 C 416.959991 319.600006 412.570007 342.610016 403.040009 362.47998 C 400.040009 357.960022 396.700012 353.659973 393.779999 349.080017 C 387.869995 348.830017 381.959991 349.080017 376.049988 348.900024 C 385.589996 338.75 393.459991 326.75 397.130005 313.200012 C 402.839996 293.690002 399.869995 272.029999 389.799988 254.440002 M 424.529999 308.580017 C 425.209991 309.619995 425.76001 310.740021 426.160004 311.920013 C 431.220001 327.390015 435.48999 343.460022 435.089996 359.859985 C 435.320007 376.299988 429.5 392.01001 422.890015 406.799988 C 419.679993 402.200012 416.950012 397.289978 413.98999 392.52002 C 408.440002 392.52002 402.910004 391.809998 397.369995 391.52002 C 407.98999 380 415.980011 366.289978 420.769989 351.369995 C 425.100006 337.540009 426.390015 322.940002 424.529999 308.570007 L 424.529999 308.570007 Z"/>
        <path id="path22" fill="#ea0310" stroke="none" d="M 373.049988 260.240021 C 375.049988 257.660004 378.630005 259.480011 380.570007 261.240021 C 384.910004 264.650024 386.309998 270.240021 386.959991 275.5 C 386.540009 282.230011 383.880005 288.630005 379.390015 293.660004 C 374.959991 298.529999 369.730011 302.619995 363.929993 305.730011 C 363.130005 300.660004 361.059998 295.860016 360.600006 290.730011 C 365.26001 283.700012 368.730011 275.950012 370.880005 267.790009 C 371.609985 265.27002 371.880005 262.580017 373.049988 260.220001 L 373.049988 260.240021 Z"/>
        <path id="path23" fill="#d80a17" stroke="none" d="M 223.330002 272.01001 C 222.740005 268.450012 221.080002 264.610016 222.839996 261.119995 C 223.949997 262.900024 224.119995 265.040009 224.649994 267.029999 C 227.309998 277.420013 232.089996 287.140015 238.699997 295.589996 C 238.259995 300.110016 239.339996 304.589996 238.770004 309.119995 C 234.160004 307.559998 230.059998 304.700012 225.929993 302.119995 C 226.399994 300.119995 226.559998 298.050018 226.429993 296 C 225.429993 288 225.240005 279.869995 223.330002 272 L 223.330002 272 Z"/>
        <path id="path24" fill="#b91c22" stroke="none" d="M 175.789993 271.670013 C 176.410004 271.110016 177.130005 270.690002 177.919998 270.420013 C 165.589996 286.619995 160.300003 307.420013 161.570007 327.619995 C 162 330.700012 162.230011 333.790009 162.51001 336.880005 C 164.040009 345.630005 166.220001 354.26001 169.039993 362.690002 C 166.240005 366.26001 164.449997 370.599976 161.040009 373.690002 C 156.25 377.830017 154.169998 384.059998 149.690002 388.460022 C 147.130005 379.719971 145.350006 370.77002 144.37001 361.710022 C 144.01001 357.710022 144.300003 353.710022 143.660004 349.710022 C 144.100006 341.360016 144.470001 332.970001 146.240005 324.76001 L 146.62001 324.200012 C 150.730011 304.200012 161.62001 286.200012 175.830002 271.720001 L 175.789993 271.670013 Z"/>
        <path id="path25" fill="#b61c22" stroke="none" d="M 174.380005 305.360016 C 175.460007 299.850006 177.460007 294.550018 180.309998 289.710022 C 178.789993 304.600006 184.020004 319.350006 191.360001 332.110016 C 196.559998 341.420013 203.679993 349.48999 211.429993 356.789978 C 205.910004 356.789978 200.429993 357.309998 194.910004 357.219971 C 191.610001 361.059998 188.720001 365.219971 185.529999 369.130005 L 184.360001 369.130005 C 178.940002 357.630005 175.360001 345.339966 173.770004 332.720001 C 172.559998 323.640015 172.770004 314.420013 174.380005 305.400024 L 174.380005 305.360016 Z"/>
        <path id="path26" fill="#db0916" stroke="none" d="M 344.269989 308.550018 C 350.450012 303.339996 355.940002 297.360016 360.600006 290.75 C 361.059998 295.860016 363.130005 300.660004 363.929993 305.75 C 358.730011 308.619995 353.269989 311.440002 347.5 312.809998 C 346.450012 311.380005 345.429993 309.920013 344.269989 308.570007 M 348.470001 356.330017 C 355.869995 358.169983 363.040009 360.799988 369.880005 364.169983 C 370.540009 364.609985 371.579987 365.059998 371.579987 366.02002 C 372.579987 380.76001 373.440002 396.48999 381.779999 409.23999 C 379.480011 408.779968 377.660004 407.23999 375.529999 406.369995 C 365.649994 402.099976 354.980011 400.150024 344.440002 398.369995 C 342.869995 397.929993 341.269989 397.599976 339.649994 397.369995 C 341.369995 392.369995 342.649994 387.140015 344.980011 382.369995 C 345.420013 378.27002 346.980011 374.429993 347.920013 370.460022 C 348.51001 365.779968 347.76001 361.029968 348.470001 356.339966 L 348.470001 356.339966 Z"/>
        <path id="path27" fill="#cc0f1c" stroke="none" d="M 238.699997 295.540009 C 242.330002 300.25 246.580002 304.440002 251.339996 308.01001 C 250.550003 309.600006 249.619995 311.119995 248.740005 312.670013 C 246.220001 312.930023 244.089996 311.300018 241.740005 310.670013 C 240.649994 310.320007 239.639999 309.77002 238.740005 309.059998 C 239.309998 304.550018 238.229996 300.059998 238.669998 295.529999 L 238.699997 295.529999 Z"/>
        <path id="path28" fill="#b01d26" stroke="none" d="M 295.920013 319.230011 C 301.470001 319.230011 307.230011 318.75 312.630005 320 C 313.630005 325 312.5 330.059998 312.109985 335.059998 C 311.859985 336.470001 313.170013 337.350006 313.890015 338.369995 C 313.059998 338.640015 312.23999 338.920013 311.420013 339.210022 C 305.290009 338.630005 299.130005 339.02002 292.98999 338.869995 C 294.049988 332.339996 295.269989 325.869995 295.920013 319.230011 L 295.920013 319.230011 Z"/>
        <path id="path29" fill="#b91922" stroke="none" d="M 312.630005 320.01001 C 317.089996 320.070007 321.529999 320.610016 325.880005 321.630005 C 325.429993 325.630005 324.390015 329.5 324.609985 333.51001 C 324.609985 335.790009 325.290009 338.27002 324.01001 340.350006 C 319.829987 339.77002 315.609985 339.700012 311.420013 339.220001 C 312.23999 338.930023 313.059998 338.650024 313.890015 338.380005 C 313.170013 337.380005 311.890015 336.480011 312.109985 335.070007 C 312.5 330.070007 313.600006 325.070007 312.630005 320.01001 Z"/>
        <path id="path30" fill="#c5131e" stroke="none" d="M 325.880005 321.619995 C 332.079987 322.400024 337.970001 324.619995 343.880005 326.619995 L 343.880005 327.040009 C 344.190002 332.779999 345.769989 338.540009 344.320007 344.26001 C 340.899994 343.390015 337.399994 342.920013 333.980011 342.110016 C 330.720001 341.160004 327.369995 340.559998 323.980011 340.339996 C 325.26001 338.26001 324.589996 335.779999 324.579987 333.5 C 324.359985 329.5 325.399994 325.580017 325.850006 321.619995 M 238.389999 358.820007 C 244.119995 356.869995 249.990005 355.349976 255.949997 354.279968 C 255.949997 359.640015 254.339996 364.820007 254.089996 370.159973 C 253.940002 374.76001 251.839996 379 251.460007 383.570007 C 251.080002 388.140015 251.009995 393.640015 246.929993 396.5 C 247.830002 397.27002 248.779999 397.98999 249.770004 398.650024 C 242.880005 399.659973 236.059998 401.089966 229.350006 402.940002 C 231.610001 391.940002 236.070007 381.419983 236.899994 370.150024 C 237.149994 366.339966 237.820007 362.580017 238.389999 358.820007 L 238.389999 358.820007 Z"/>
        <path id="path31" fill="#bf1520" stroke="none" d="M 251.589996 327.119995 C 254.800003 325.330017 258.300018 324.119995 261.929993 323.52002 C 262.149994 324.26001 262.380005 324.980011 262.630005 325.710022 C 261.820007 327.550018 261.52002 329.570007 261.740021 331.570007 C 262.029999 334.77002 261.220001 337.910004 260.380005 340.980011 L 261.029999 341.920013 L 261.390015 342.460022 C 257.890015 342.790009 254.429993 343.410004 251.029999 344.290009 C 249.910004 338.589996 251.639999 332.860016 251.589996 327.119995 L 251.589996 327.119995 Z"/>
        <path id="path32" fill="#ca101c" stroke="none" d="M 238.330002 336.790009 C 241.729996 332.360016 246.330002 329 251.589996 327.119995 C 251.589996 332.860016 249.910004 338.589996 251.029999 344.290009 C 245.839996 345.289978 240.860001 347.150024 235.669998 348.210022 C 237.009995 344.470001 235.839996 340.110016 238.330002 336.790009 L 238.330002 336.790009 Z"/>
        <path id="path33" fill="#d30c18" stroke="none" d="M 343.890015 327.01001 C 349.140015 328.890015 353.75 332.220001 357.179993 336.619995 C 359.820007 339.900024 358.709991 344.350006 359.290009 348.22998 C 354.290009 346.809998 349.359985 345.349976 344.290009 344.230011 C 345.73999 338.51001 344.160004 332.75 343.850006 327.01001 L 343.890015 327.01001 Z"/>
        <path id="path34" fill="#6d0a10" stroke="none" d="M 278.230011 339.5 C 283.130005 338.960022 288.059998 338.75 292.990021 338.869995 C 299.130005 339.02002 305.290009 338.630005 311.420013 339.210022 C 315.609985 339.690002 319.829987 339.76001 324.01001 340.339996 C 327.399994 340.559998 330.75 341.160004 334.01001 342.110016 C 328.269989 341.809998 322.579987 340.700012 316.859985 340.110016 C 312.880005 340.110016 308.910004 339.820007 304.970001 339.25 C 295.309998 338.920013 285.649994 339.309998 276.050018 340.430023 C 273.550018 340.940002 271 341.130005 268.450012 341 C 271.679993 340.300018 274.960022 339.800018 278.25 339.480011 L 278.230011 339.5 Z"/>
        <path id="path35" fill="#b31b25" stroke="none" d="M 282.570007 350.919983 C 290.639984 350.549988 298.700012 349.919983 306.769989 350.419983 C 310.079987 351.089966 313.470001 350.72998 316.820007 350.950012 C 322.51001 351.72998 328.220001 352.200012 333.899994 353.049988 L 333.079987 353.26001 C 330.730011 353.309998 328.299988 352.880005 326.019989 353.609985 C 324.799988 355.299988 324.170013 357.330017 324.209991 359.409973 C 323.869995 365.690002 322.100006 371.799988 320.130005 377.73999 C 319.23999 380.849976 316.769989 383.159973 315.73999 386.200012 C 314.709991 389.23999 313.549988 392.089966 312.429993 395.02002 C 300.73999 395.210022 289.039978 394.839966 277.369995 395.339966 C 282.679993 380.909973 287.019989 366.150024 290.369995 351.150024 C 287.779999 350.890015 285.179993 350.820007 282.579987 350.919983 M 240.460007 412.219971 C 245.550003 411.130005 250.639999 409.820007 255.860001 409.529968 C 257.779999 409.400024 259.720001 409.27002 261.649994 409.109985 C 258.549988 417.179993 254.649994 424.909973 251.050003 432.76001 L 250.910004 433.049988 C 246.479996 433.23999 242.149994 434.599976 237.729996 434.589966 C 237.229996 433.799988 236.210007 433.080017 236.550003 432.029968 C 237.440002 427.409973 238.740005 422.880005 240.440002 418.5 C 241.169998 416.5 240.639999 414.289978 240.440002 412.219971 L 240.460007 412.219971 Z"/>
        <path id="path36" fill="#b41b24" stroke="none" d="M 268.289978 352.01001 C 270.279999 351.73999 272.279999 351.640015 274.289978 351.700012 L 276.890015 351.700012 C 274.97998 366.799988 271.47998 381.650024 266.450012 396.02002 L 266.130005 396.73999 C 260.640015 396.809998 255.259995 397.909973 249.839996 398.559998 C 248.850006 397.900024 247.899994 397.179993 247 396.409973 C 251.080002 393.549988 251.110001 387.940002 251.529999 383.47998 C 251.949997 379.02002 254.009995 374.669983 254.160004 370.070007 C 254.410004 364.72998 256.029999 359.549988 256.02002 354.190002 C 260.02002 352.960022 264.279999 352.919983 268.330017 351.960022 L 268.289978 352.01001 Z"/>
        <path id="path37" fill="#c7121d" stroke="none" d="M 326.019989 353.609985 C 328.299988 352.880005 330.730011 353.309998 333.079987 353.26001 C 338.279999 353.890015 343.420013 354.909973 348.470001 356.309998 C 347.76001 361 348.470001 365.75 347.920013 370.429993 C 346.920013 374.429993 345.420013 378.23999 344.980011 382.339966 C 342.630005 387.130005 341.369995 392.339966 339.649994 397.339966 C 330.649994 396.169983 321.5 395.76001 312.429993 395 C 313.549988 392.070007 314.640015 389.119995 315.73999 386.179993 C 316.839996 383.23999 319.23999 380.830017 320.130005 377.719971 C 322.130005 371.779968 323.869995 365.669983 324.209991 359.390015 C 324.170013 357.309998 324.799988 355.279968 326.019989 353.589966 L 326.019989 353.609985 Z"/>
        <path id="path38" fill="#d60b17" stroke="none" d="M 223.869995 365.77002 C 227.869995 362.049988 233.470001 360.820007 238.419998 358.820007 C 237.850006 362.580017 237.179993 366.339966 236.929993 370.150024 C 236.100006 381.419983 231.639999 391.960022 229.380005 402.940002 C 224.509995 404.26001 219.839996 406.200012 215.470001 408.710022 L 213.860001 408.890015 C 217.720001 404.080017 219.550003 398.049988 221.020004 392.159973 C 222.839996 383.47998 223.800003 374.640015 223.869995 365.77002 L 223.869995 365.77002 Z"/>
        <path id="path39" fill="#b21c22" stroke="none" d="M 169.039993 362.690002 L 169.149994 362.529968 C 175.539993 379.900024 184.990005 396.279968 197.710007 409.799988 C 190.779999 409.640015 183.910004 410.390015 177 410.630005 C 172.820007 415.849976 169.25 421.630005 164.639999 426.47998 C 158.559998 414.26001 153.110001 401.619995 149.639999 388.419983 C 154.12001 384.02002 156.199997 377.789978 160.990005 373.650024 C 164.440002 370.599976 166.229996 366.26001 168.990005 362.650024 L 169.039993 362.690002 Z"/>
        <path id="path40" fill="#64080d" stroke="none" d="M 266.410004 396.109985 C 270.059998 395.859985 273.710022 395.539978 277.410004 395.339966 C 289.080017 394.839966 300.779999 395.210022 312.470001 395.02002 C 321.540009 395.779968 330.649994 396.190002 339.690002 397.359985 C 341.309998 397.589966 342.910004 397.919983 344.480011 398.359985 C 339.76001 398.589966 335.220001 397.070007 330.529999 397.119995 C 326.320007 396.119995 322 396.409973 317.720001 396.119995 C 306.98999 394.719971 296.130005 395.52002 285.350006 395.339966 C 278.980011 396.339966 272.51001 395.940002 266.130005 396.789978 L 266.450012 396.070007 L 266.410004 396.109985 Z"/>
        <path id="path41" fill="#72090f" stroke="none" d="M 275.929993 406.919983 C 281.630005 407.219971 287.25 406.080017 292.929993 406.080017 C 298.75 406.299988 304.579987 405.779968 310.380005 406.529968 C 315.109985 407.330017 319.970001 406.359985 324.670013 407.529968 C 331.429993 407.900024 338.140015 408.839966 344.850006 409.809998 L 345.850006 410.52002 C 342.01001 410.22998 338.220001 409.52002 334.399994 409.109985 C 325.040009 407.869995 315.619995 407.159973 306.179993 406.98999 C 301.26001 406.380005 296.279999 406.320007 291.339996 406.809998 C 284.820007 407.5 278.22998 406.919983 271.759979 408.070007 C 268.380005 408.419983 265.019989 408.830017 261.630005 409.150024 C 259.699982 409.309998 257.759979 409.440002 255.839996 409.570007 C 257.209991 408.48999 258.98999 408.76001 260.609985 408.570007 C 265.709991 408.049988 270.820007 407.570007 275.919983 406.950012 L 275.919983 406.919983 Z"/>
        <path id="path42" fill="#b61a24" stroke="none" d="M 271.77002 408.01001 C 278.240021 406.859985 284.830017 407.440002 291.350006 406.75 C 296.290009 406.26001 301.269989 406.320007 306.190002 406.929993 C 299.299988 413.159973 295.519989 422.029968 288.580017 428.23999 C 288.820007 430.380005 291.730011 429.659973 293.290009 430.119995 C 286.690002 430.75 280.029999 430.119995 273.450012 430.969971 C 269.740021 431.320007 266.01001 431.400024 262.279999 431.650024 L 259.660004 431.559998 C 263.800018 423.76001 268.26001 416.130005 271.77002 408.01001 L 271.77002 408.01001 Z"/>
        <path id="path43" fill="#ca111c" stroke="none" d="M 306.190002 406.950012 C 315.630005 407.119995 325.049988 407.830017 334.410004 409.070007 C 333.320007 411.719971 330.630005 412.76001 328.269989 413.969971 C 324.519989 415.700012 322.519989 419.549988 319.269989 421.900024 C 316.420013 424.619995 312.390015 425.799988 309.98999 429.029968 C 313.390015 429.839966 316.98999 429.599976 320.339996 430.559998 C 311.339996 430.73999 302.339996 429.960022 293.339996 430.140015 C 291.779999 429.679993 288.869995 430.400024 288.630005 428.26001 C 295.570007 422.049988 299.350006 413.179993 306.23999 406.950012 L 306.190002 406.950012 Z"/>
        <path id="path44" fill="#dd0814" stroke="none" d="M 334.410004 409.070007 C 338.230011 409.469971 342.019989 410.190002 345.859985 410.47998 C 355.709991 411.940002 365.369995 414.469971 374.670013 418.01001 C 371.410004 421.130005 371.109985 425.929993 368.429993 429.429993 C 366.799988 431.48999 365.390015 433.719971 364.230011 436.070007 C 354.470001 434.169983 344.619995 432.77002 334.709991 431.900024 C 329.929993 431.080017 325.01001 431.700012 320.290009 430.580017 C 316.899994 429.580017 313.339996 429.859985 309.940002 429.049988 C 312.339996 425.820007 316.369995 424.640015 319.220001 421.919983 C 322.519989 419.570007 324.519989 415.719971 328.220001 413.98999 C 330.579987 412.779968 333.269989 411.73999 334.359985 409.089966 L 334.410004 409.070007 Z"/>
        <path id="path45" fill="#c4131e" stroke="none" d="M 227.820007 415.580017 C 232.020004 414.400024 236.169998 413.049988 240.449997 412.219971 C 240.630005 414.289978 241.160004 416.469971 240.449997 418.5 C 238.740005 422.880005 237.429993 427.400024 236.539993 432.01001 C 236.199997 433.059998 237.220001 433.779968 237.720001 434.570007 L 238.100006 435.059998 C 232.839996 435.130005 227.919998 437.419983 222.720001 437.839966 C 223.550003 434.52002 223.639999 431.049988 224.649994 427.75 C 225.649994 423.75 227.419998 419.929993 227.800003 415.75 L 227.800003 415.529968 L 227.820007 415.580017 Z"/>
        <path id="path46" fill="#eb020f" stroke="none" d="M 368.429993 429.409973 C 371.109985 425.909973 371.429993 421.109985 374.670013 417.98999 C 379.670013 420.119995 384.75 422.299988 389.100006 425.619995 C 391.640015 427.589966 393.339996 430.450012 393.859985 433.619995 C 394.769989 438.559998 395.920013 443.469971 396.600006 448.450012 C 386.980011 441.789978 375.51001 438.589966 364.230011 436.089966 C 365.390015 433.73999 366.799988 431.51001 368.429993 429.450012 L 368.429993 429.409973 Z"/>
        <path id="path47" fill="#d71921" stroke="none" d="M 280.630005 485.900024 C 293.059998 480.650024 307.170013 479.950012 320.269989 482.830017 C 331.660004 485.320007 341.570007 492.200012 349.350006 500.720001 C 343.480011 506.490021 337.410004 512.080017 331.350006 517.609985 C 327.709991 514.080017 324.01001 510.420013 319.220001 508.490021 C 309.829987 504.119995 298.290009 504.369995 289.399994 509.839996 C 280.559998 514.97998 275.330017 524.780029 273.890015 534.700012 C 273.220001 542.650024 273.460022 550.97998 277.070007 558.27002 C 281.279999 567.690002 290.27002 575.179993 300.679993 576.350037 C 312.149994 578.280029 324.019989 573.090027 331.309998 564.190002 C 337.26001 570 343.709991 575.380005 349.309998 581.48999 C 343.429993 587.48999 336.820007 593.01001 329.029999 596.359985 C 318.570007 600.900024 306.809998 601.830017 295.579987 600.359985 C 283.210022 598.619995 271.25 593 262.630005 583.850037 C 254.970001 576.419983 250.300003 566.460022 247.699997 556.220032 C 246.619995 550.549988 246.059998 544.790039 246 539.01001 C 246.729996 531.570007 247.589996 524.01001 250.600006 517.01001 C 256.02002 503.040009 266.830017 491.839996 280.600006 485.920013 M 37 483.920013 C 63.440002 483.970001 89.870003 483.970001 116.300003 483.920013 C 116.300003 491.920013 116.440002 499.920013 116.230003 507.920013 C 98.520004 507.820007 80.810005 507.920013 63.100002 507.869995 C 63.200001 515.530029 62.970001 523.200012 63.23 530.869995 C 74.340004 530.77002 85.450005 530.809998 96.550003 530.869995 C 96.5 538.669983 96.550003 546.470032 96.550003 554.26001 L 63.190002 554.26001 C 63.080002 568.960022 63.190002 583.669983 63.190002 598.380005 C 54.470001 598.540039 45.740002 598.380005 37.02 598.460022 L 37.02 484.01001 M 147.199997 484.300018 C 154.199997 483.700012 161.26001 484.200012 168.289993 484.050018 C 184.509995 522.169983 200.850006 560.25 216.919998 598.429993 C 207.589996 598.429993 198.259995 598.580017 188.919998 598.330017 C 185.539993 590.040039 182.059998 581.780029 178.320007 573.650024 C 164.62001 573.780029 150.900009 573.650024 137.199997 573.650024 C 133.680008 581.900024 130.199997 590.160034 126.629997 598.410034 C 117.339996 598.359985 108.050003 598.410034 98.760002 598.350037 C 111.209999 569.51001 123.349998 540.549988 135.76001 511.679993 C 139.51001 502.52002 143.76001 493.51001 147.220001 484.25 M 157.430008 521 C 153.740005 530.679993 149.880005 540.309998 145.669998 549.780029 C 153.800003 550.109985 161.949997 549.919983 170.080002 549.880005 C 166.279999 540.140015 161.87001 530.630005 158.430008 520.780029 L 157.430008 521 M 360.809998 483.930023 C 369.529999 484.130005 378.26001 483.830017 386.98999 484.089996 C 386.929993 504.089996 386.98999 524.169983 386.98999 544.220032 C 386.98999 551.929993 386.269989 560.090027 389.98999 567.160034 C 392.440002 572.570007 397.98999 575.890015 403.76001 576.76001 C 411.100006 577.840027 419.549988 577.01001 425.059998 571.52002 C 430 566.280029 430.769989 558.77002 431.329987 551.929993 L 431.329987 483.930023 C 439.929993 483.990021 448.540009 483.930023 457.149994 483.930023 C 457.149994 508.27002 457.209991 532.609985 457.149994 556.929993 C 456.910004 568.429993 453.269989 580.400024 444.769989 588.51001 C 435.940002 597.040039 423.369995 600.410034 411.369995 600.679993 C 399.579987 601.059998 387.200012 598.919983 377.429993 591.940002 C 370.309998 586.690002 365.170013 579.200012 362.809998 570.669983 C 362.540009 569.47998 362.290009 568.320007 361.929993 567.169983 C 360.209991 558.460022 360.859985 549.580017 360.75 540.76001 C 360.75 521.76001 360.679993 502.830017 360.799988 483.869995 M 473.420013 484.01001 C 488.570007 483.740021 503.730011 484.01001 518.880005 483.900024 C 529.73999 484.190002 541.140015 485.950012 550.210022 492.339996 C 557.210022 497.040009 561.809998 504.960022 563.210022 513.22998 C 563.820007 516.100037 563.630005 519.049988 564.210022 521.940002 C 563.719971 529.369995 562.52002 537.100037 558.210022 543.369995 C 552.690002 551.790039 543.02002 556.369995 533.410034 558.280029 C 522.340027 560.640015 510.950012 559.77002 499.720001 559.950012 C 499.660004 572.73999 499.720001 585.52002 499.720001 598.309998 C 490.98999 598.22998 482.269989 598.419983 473.549988 598.200012 L 473.549988 484.01001 M 499.709991 507.800018 L 499.709991 536.220032 C 509.660004 535.77002 520.210022 537.790039 529.650024 533.710022 C 537.650024 530.070007 539.090027 518.179993 532.940002 512.26001 C 529.130005 508.950012 523.940002 507.910004 519 507.790009 L 499.709991 507.790009 Z"/>
    </g>
</svg>
