<?xml version="1.0" encoding="UTF-8"?>
<svg id="Layer_2" data-name="Layer 2" xmlns="http://www.w3.org/2000/svg" viewBox="0 0 527.21 601.99">
  <defs>
    <style>
      .cls-1 {
        fill: #c4131e;
      }

      .cls-1, .cls-2, .cls-3, .cls-4, .cls-5, .cls-6, .cls-7, .cls-8, .cls-9, .cls-10, .cls-11, .cls-12, .cls-13, .cls-14, .cls-15, .cls-16, .cls-17, .cls-18, .cls-19, .cls-20, .cls-21, .cls-22, .cls-23, .cls-24, .cls-25, .cls-26, .cls-27, .cls-28, .cls-29, .cls-30, .cls-31, .cls-32, .cls-33, .cls-34, .cls-35, .cls-36, .cls-37, .cls-38, .cls-39, .cls-40, .cls-41, .cls-42, .cls-43, .cls-44, .cls-45, .cls-46, .cls-47, .cls-48 {
        stroke-width: 0px;
      }

      .cls-2 {
        fill: #b21c22;
      }

      .cls-3 {
        fill: #b91c22;
      }

      .cls-4 {
        fill: #b51a24;
      }

      .cls-5 {
        fill: #e00714;
      }

      .cls-6 {
        fill: #b61a24;
      }

      .cls-7 {
        fill: #6d0a10;
      }

      .cls-8 {
        fill: #ca101c;
      }

      .cls-9 {
        fill: #ea0210;
      }

      .cls-10 {
        fill: #d70b17;
      }

      .cls-11 {
        fill: #cc0f1c;
      }

      .cls-12 {
        fill: #b31b25;
      }

      .cls-13 {
        fill: #b41b24;
      }

      .cls-14 {
        fill: #e30613;
      }

      .cls-15 {
        fill: #e30512;
      }

      .cls-16 {
        fill: #ae1d22;
      }

      .cls-17 {
        fill: #d60b17;
      }

      .cls-18 {
        fill: #c91a21;
      }

      .cls-19 {
        fill: #cd101b;
      }

      .cls-20 {
        fill: #d71921;
      }

      .cls-21 {
        fill: #c21420;
      }

      .cls-22 {
        fill: #c11b21;
      }

      .cls-23 {
        fill: #c2141f;
      }

      .cls-24 {
        fill: #b51a25;
      }

      .cls-25 {
        fill: #eb020f;
      }

      .cls-26 {
        fill: #a01e22;
      }

      .cls-27 {
        fill: #b71a23;
      }

      .cls-28 {
        fill: #c8121d;
      }

      .cls-29 {
        fill: #64080d;
      }

      .cls-30 {
        fill: #ea0310;
      }

      .cls-31 {
        fill: #b01d26;
      }

      .cls-32 {
        fill: #72090f;
      }

      .cls-33 {
        fill: #ce0e1b;
      }

      .cls-34 {
        fill: #e40512;
      }

      .cls-35 {
        fill: #b81923;
      }

      .cls-36 {
        fill: #c5131e;
      }

      .cls-37 {
        fill: #dd0814;
      }

      .cls-38 {
        fill: #c7121d;
      }

      .cls-39 {
        fill: #ca111c;
      }

      .cls-40 {
        fill: #d50c18;
      }

      .cls-41 {
        fill: #b91922;
      }

      .cls-42 {
        fill: #c01b21;
      }

      .cls-43 {
        fill: #bf1520;
      }

      .cls-44 {
        fill: #b61c22;
      }

      .cls-45 {
        fill: #d30c18;
      }

      .cls-46 {
        fill: #c01521;
      }

      .cls-47 {
        fill: #db0916;
      }

      .cls-48 {
        fill: #d80a17;
      }
    </style>
  </defs>
  <g id="Layer_1-2" data-name="Layer 1">
    <path class="cls-14" d="M253.39,4.68c2.14-1.72,3.88-4.43,6.87-4.61,2.2-.32,4.41.52,5.86,2.21,1.56,1.76,4.42,2.95,4.2,5.73-.62,2.85-1.57,5.88-.38,8.73,1.31,4.86,6.52,7.41,7.48,12.43.65,4.32-1.84,8.75-5.52,11-1.56,1.1-3.61,1.4-5,2.77.43,2.02.6,4.09.52,6.15,8.08.53,16.31,2.61,23,7.27,3.25,2.12,5.48,5.49,6.15,9.32-13.93-3.85-28.39-5.4-42.82-4.59-9.52.39-18.95,1.92-28.1,4.57.16-4,2.89-7.23,6-9.35,6.75-4.56,14.88-6.69,22.93-7.22.26-2.3.26-4.63,0-6.93-5.06-1.29-9.83-5.52-10-11-.2-3.28,1.66-6.17,3.85-8.43,2.88-3,5.26-7.44,3.94-11.7-.44-2.08-1.16-4.89.94-6.3M199.01,85c16.42-8.11,34.64-12,52.83-13.3,8.92-.15,17.95-.56,26.79.88-7.89,3.4-15.93,7.39-21.36,14.29-2.71,3-4.06,7.32-7.9,9.18-15.34.91-30.41,4.68-44.82,9.92-2.09-6.65-4-13.41-7-19.74l1.46-1.23M136.01,115.48c1.25-5.72,3.54-11.16,6.75-16.06,2.23,5.08,4.58,10.11,6.95,15.13,0,2.33-.95,4.55-1.23,6.85-2.53,15.66.94,31.71,9.71,44.93,5.04,7.73,12.77,13.31,21.69,15.67.63,4.2.86,8.45.69,12.7l-2.07.44c-2.89-.19-5.7-1.03-8.22-2.46-3.44-1.94-7.11-3.52-10.31-5.87-3-2.1-5.34-5.07-8.64-6.78l-.53-.31c-.06-.3-.19-.9-.25-1.19-5.26-6.34-9.33-13.59-12-21.38-.31-.86-.6-1.72-.86-2.59-3.92-12.66-4.5-26.11-1.7-39.06M209.93,116.33c12-4.42,24.54-7.65,37.31-8.38-3.72,19.77.26,39.83,3.11,59.44,2.7,17.69,6.23,35.26,8.44,53-11.36-.14-22.61,1.72-33.74,3.76,1-4.39,0-8.89-.49-13.29-1.74-10.37-4.94-20.8-11.17-29.37,1.05-8.07.65-16.23.67-24.34-.68-13.24-2.1-26.58-6-39.29-.29-1.13,1.26-1.1,1.89-1.55M368.01,139.73c4.19,10.17,5.36,21.65,2.37,32.31-4.05,14.44-13.82,27.54-27.31,34.42.18-4.91-1.52-10.44,1.08-14.91,12.25-9.68,19.34-26.7,14.73-42,2.45-3.79,6.33-6.29,9.13-9.77M241.55,233.15c4.29-.65,9.2-.45,12.71,2.41,2.28,1.84,2.81,4.95,2.74,7.73v50.23c-.04,1.28-.17,2.56-.38,3.82-2.74,0-5.48.08-8.2.36-3.11.67-6.32.72-9.42,1.46-8.08-13.16-10.83-28.8-12.15-44-.06-5.3-.74-11.11,2.32-15.79,2.75-4.09,7.76-5.57,12.39-6.25M238.88,321.42c6.69-.3,13.34-1.22,20.05-1.23-.65,6.6-1.87,13.11-2.93,19.64-4.93-.12-9.86.09-14.76.63,0-6.22.23-12.42,0-18.63l-1.69-.12-.66-.29M237.27,352.7l1.59-.53c2.24-.07,4.48-.2,6.73-.29,2.6-.1,5.2-.03,7.79.23-3.35,15-7.69,29.76-13,44.19-3.66.2-7.31.52-11,.77,5.03-14.37,8.53-29.22,10.44-44.32h-2.6M224.64,410.1c3.39-.32,6.75-.73,10.13-1.08-3.51,8.12-8,15.75-12.11,23.55l2.62.09c-3.74.41-7.51.59-11.24,1.09,3.62-7.85,7.5-15.58,10.6-23.65h0Z"/>
    <path class="cls-27" d="M278.63,72.57c8.44.25,16.79,2.24,24.92,4.46-2.77,2.29-5.66,4.52-7.8,7.44s-5,5.23-6.86,8.36c-.97,1.92-2.34,3.63-4,5-2.19-.56-4.43-.89-6.68-1-2.79-1-5.81-.4-8.69-.89-5.61-.81-11.31-.81-16.92,0-1.08,0-2.16.06-3.23.08,3.84-1.86,5.19-6.18,7.9-9.18,5.43-6.84,13.47-10.84,21.36-14.27Z"/>
    <path class="cls-19" d="M303.55,77c4.99,1.37,9.88,3.07,14.65,5.07,1,.47,2.34.69,2.86,1.85-1.1,4-4.44,6.62-6.32,10.16-1.81,3.29-4.35,6.12-6.11,9.46l-.59.17c-7.62-2.28-15.23-4.93-23.15-5.92,1.66-1.37,3.03-3.08,4-5,1.85-3.13,4.74-5.42,6.86-8.36s5-5.15,7.8-7.44h0Z"/>
    <path class="cls-5" d="M321.06,84l.25-.75c4.6,2.94,9.62,5.18,14,8.5-4.61,3.13-6.07,9-7.35,14.08-.51,2.64-2.51,4.59-4.2,6.55-4.65-3.34-9.69-6.1-15-8.22l-.06-.54c1.76-3.34,4.3-6.17,6.11-9.46,1.88-3.54,5.22-6.21,6.32-10.16h-.07Z"/>
    <path class="cls-18" d="M148.67,92.93c6.51-4.47,14.25-6.79,22.14-6.66,5.82.35,11.48,1.99,16.59,4.79,2.62,7.11,5.5,14.2,7.17,21.6-.76,2.9-2.94,5.07-4.69,7.4-2.16,2.76-3.69,5.94-5.82,8.72-2.41,3.21-5.67,5.71-7.84,9.12-1.52,2.48-3.19,4.86-5,7.13-7.26-17.47-14.83-34.84-22.55-52.1h0Z"/>
    <path class="cls-9" d="M327.93,105.78c1.28-5.11,2.74-11,7.35-14.08,5.78,4.38,11.15,9.82,13.63,16.78-5.15,6.84-8.44,14.83-11.34,22.82-7.67,22.84-10.85,46.95-9.36,71,1.09,13.61,4,27.5,11.32,39.2-1.79-.48-3.21-1.71-4.74-2.67-4.37-2.7-8.95-5.04-13.69-7-.7-1.28-1.25-2.65-1.63-4.06-1-7.63-3.15-15.06-4-22.7-.15-.92.51-1.67.79-2.47.21.78.62,2.33.82,3.1-.88-5.3-.18-10.69-.84-16-.18-3.15-.09-6.31.29-9.44.13-14.13,2.07-28.18,5.77-41.82.39-1.38.76-2.78,1.23-4.15.46-1.72.95-3.43,1.46-5.14,1.35-4,2.66-8,4.08-11.94-1.66-1.73-3.44-3.35-5.31-4.85,1.69-2,3.69-3.91,4.2-6.55l-.03-.03Z"/>
    <path class="cls-35" d="M247.31,107.34c4.6-.12,9.2-.31,13.78-.74,7.29.68,14.73.41,21.86,2.23-1.2.55-2.33,1.25-3.35,2.08-2.05,4.64-2.37,9.79-3.39,14.7-1.52,6.76-3.44,13.66-2.69,20.65.62,8.92-.23,17.88.6,26.78.19,3.51-.23,7,.19,10.54.9,7.32.25,14.73,1.47,22,.87,4.73.63,9.6,1.79,14.29-.28.36-.86,1.06-1.14,1.41-5.84-1-11.75-1-17.64-.92-2.21-17.76-5.74-35.33-8.44-53-2.85-19.61-6.83-39.67-3.11-59.44l.07-.58h0Z"/>
    <path class="cls-28" d="M279.6,110.91c1.02-.83,2.15-1.53,3.35-2.08,2.83,0,5.48,1.35,8.33,1.21l.35,1c-1.69,8.78-5.65,17.12-6,26.16-.2,8.31-1.46,16.56-1.18,24.88-.92,17.52,1.52,34.92,2.67,52.37.21,2.67.77,5.31,1.66,7.84-4.18.19-8.18-1.37-12.34-1,.28-.35.86-1.05,1.14-1.41-1.16-4.69-.92-9.56-1.79-14.29-1.22-7.29-.57-14.7-1.47-22-.42-3.5,0-7-.19-10.54-.83-8.9,0-17.86-.6-26.78-.75-7,1.17-13.89,2.69-20.65,1-4.91,1.34-10.06,3.39-14.7h-.01Z"/>
    <path class="cls-10" d="M291.63,111.08c1.63-.92,3.55.67,5.27.89,5.84,1.7,11.47,4.04,16.79,7-2.6,2.41-2.35,6.2-4,9.14-2.53,4.45-2.7,9.69-3.76,14.58-2.17,8.63-1.81,17.63-2.94,26.41-.91,6,.59,11.95-.19,17.93-1,11.09,1.49,22,2.9,32.93.39,2.29.94,4.55,1.45,6.82-2.83-.87-5.7-1.59-8.61-2.16-3.09-1-6.32-1.54-9.57-1.61-.05-.17-.17-.52-.22-.69-.89-2.53-1.45-5.17-1.66-7.84-1.15-17.45-3.59-34.85-2.67-52.37-.28-8.32,1-16.57,1.18-24.88.36-9,4.32-17.38,6-26.16h.03Z"/>
    <path class="cls-42" d="M194.57,112.66l.23-.75c4.45,16.42,7.82,33.28,8,50.37.34,20.15-2.65,40.9-12,59-8.65,16.16-23.5,27.6-37.56,38.82.2-.68.54-1.31,1-1.85,7.14-7.89,13.6-16.54,18-26.28,4.94-11.37,7.85-23.52,8.6-35.9l-2.28-.93,2.07-.44c.17-4.25-.06-8.5-.69-12.7l.68-1c-1.36-12.36-5-24.35-9.34-36,1.81-2.27,3.48-4.65,5-7.13,2.17-3.41,5.43-5.91,7.84-9.12,2.13-2.78,3.66-6,5.82-8.72,1.75-2.33,3.93-4.5,4.69-7.4l-.06.03Z"/>
    <path class="cls-34" d="M309.71,128.12c1.63-2.94,1.38-6.73,4-9.14.94.91,3.3,1.38,2.49,3.14-3.01,14.62-4.42,29.53-4.23,44.46.6,11.22,1.97,22.39,4.09,33.42.07.82.57,1.74.17,2.56s-.94,1.55-.79,2.47c.88,7.64,3,15.07,4,22.7.39,1.42.96,2.79,1.68,4.07-4.56-1.9-9.21-3.57-13.93-5-.51-2.27-1.06-4.53-1.45-6.82-1.41-10.94-3.89-21.84-2.9-32.93.78-6-.72-12,.19-17.93,1.13-8.78.77-17.78,2.94-26.41,1.06-4.89,1.23-10.13,3.76-14.58h-.02Z"/>
    <path class="cls-16" d="M337.57,165.35c2.65-15,6-30.17,13-43.82,7.76,3.75,13.65,10.54,17.41,18.19-2.8,3.48-6.68,6-9.13,9.77-9.17,12.34-14.13,27.41-15.46,42.64l.73-.59c-2.6,4.47-.9,10-1.08,14.91-2.02,1.14-4.22,1.93-6.51,2.32-1.15-5.76-1-11.63-1-17.47-.26-8.71.91-17.35,2-26l.04.05Z"/>
    <path class="cls-22" d="M151.33,180c3.3,1.71,5.63,4.68,8.64,6.78,3.2,2.35,6.87,3.93,10.31,5.87-1.09,2.17-.8,4.7-1.27,7-.64,5.81-1.72,11.57-3.24,17.22-2.31,7.92-4.92,15.88-9,23.09,2.51-20.13-.79-40.43-5.46-60l.02.04Z"/>
    <path class="cls-24" d="M213.39,181.48c6.23,8.57,9.43,19,11.17,29.37.52,4.4,1.47,8.9.49,13.29,0,.17-.09.51-.13.68-3.82,0-7.28,1.84-11,2.16-.33-5.29-1.27-10.52-2.8-15.6-.47-1.31-1.43-2.38-2.67-3,2.29-8.85,3.96-17.85,5-26.94l-.06.04Z"/>
    <path class="cls-46" d="M208.12,208.17l.35.25c1.24.62,2.2,1.69,2.67,3,1.53,5.08,2.47,10.31,2.8,15.6v.41c-6.57,1.65-12.99,3.85-19.2,6.57,6.15-7.62,10.71-16.41,13.38-25.83Z"/>
    <path class="cls-23" d="M271.12,233.32c5.68-1.18,11.59-.52,16.87,1.87,4.34,2.19,7.04,6.69,6.93,11.55.22,5.37-.17,10.74-.44,16.1-1.83,12.55-5.06,25.11-11.19,36.32l-1.85-.53c1-2.9-1.53-5.41-1.29-8.29.31-3.27-1-6.35-1.14-9.57-1.17-14.34-4.76-28.35-6-42.68-.14-1.76-1.13-3.26-1.92-4.77h.03Z"/>
    <path class="cls-4" d="M264.85,240.66c-.06-3.66,3.19-6.15,6.3-7.34.79,1.51,1.78,3,1.92,4.77,1.21,14.33,4.8,28.34,6,42.68.17,3.22,1.45,6.3,1.14,9.57-.24,2.88,2.29,5.39,1.29,8.29l1.85.53c-6.16-.47-12.27-1.94-18.49-1.73.05-18.93,0-37.85,0-56.77M225.06,324.06c4.81-.88,9.55-2.28,14.48-2.32l1.69.12c.24,6.21,0,12.41,0,18.63-3.29.32-6.57.82-9.8,1.52-2.42.6-4.91.9-7.4.9l-.65-.94c.84-3.07,1.65-6.21,1.36-9.41-.22-2,.08-4.02.89-5.86-.25-.73-.48-1.45-.7-2.19.05-.15.09-.3.12-.45h0Z"/>
    <path class="cls-21" d="M199.78,244.5c3.37-1.81,7.18-2.63,11-2.37,3.11-.34,7.09.9,7.77,4.35-.07,5.2.75,10.34,1,15.52,1.14,13.44,4.88,26.53,11,38.55l-.46,1c-2.92.8-5.73,1.92-8.39,3.36-5.65-3.54-10.2-8.58-14.4-13.67-.31-.64-1.23-1.13-1.12-1.87,1.42-3.37.27-7-.2-10.44-.88-4.09.15-8.37-1.25-12.37-2.13-7.21-1.2-15.32-4.93-22l-.02-.06Z"/>
    <path class="cls-40" d="M303.85,245c.74-1.5,2.49-2,3.82-2.82.43,1.82.62,4,2.37,5.09l-2,.33c8.84-1.07-.61,1.07,2.74,2.05-.35,2,1.31,3.62,1.33,5.6.44,5.28,2.88,10.1,3.55,15.34.73,4.75,2.06,9.38,3.24,14-4.76,7.92-11.05,14.81-18.52,20.26-2.89-1.33-5.85-2.48-8.87-3.47-.94-.69.31-1.85.52-2.64.87-1.68,1.72-3.37,2.54-5.09,5.44-13,7.73-27.05,8.36-41,.16-2.54-.54-5.35.89-7.64M177.02,422.05c4.42-2.17,9.03-3.93,13.78-5.26-.38,4.15-2.18,8-3.15,12-1,3.3-1.1,6.77-1.93,10.09l-.16.71c-1,.09-1.95.21-2.92.35-3.4,1.28-6.83,2.48-10.28,3.61,1.38-7.09,3.35-14,4.59-21.13l.07-.34v-.03Z"/>
    <path class="cls-15" d="M307.67,242.16c5.22-.19,10.94-.26,15.25,3.2,4.39,3.12,5.41,9,5.1,14-1.41,8.91-4.49,17.47-9.09,25.23-1.18-4.65-2.51-9.28-3.24-14-.67-5.24-3.11-10.06-3.55-15.34,0-2-1.68-3.63-1.33-5.6-3.35-1,6.1-3.12-2.74-2.05l2-.33c-1.75-1.13-1.94-3.27-2.37-5.09M177.12,263.2c2.25-2.34,6.26-4.8,9-1.79l-.23.65c-1.76,3.49-.1,7.33.49,10.89,1.91,7.88,2.1,16,3.1,24,.13,2.05-.03,4.12-.5,6.12-6.86-4.92-13.34-11.22-15.87-19.5-2-6.86-1-15.06,4-20.38M171.11,425.41c1.86-1.18,3.82-2.18,5.86-3-1.24,7.11-3.21,14-4.59,21.13l-.07.31c-3.78,1.3-6.88,3.9-10.51,5.45,1.22-5.33,2.14-10.72,3.37-16,.66-3.41,3.36-5.77,5.94-7.82v-.07Z"/>
    <path class="cls-33" d="M194.72,251c.99-2.62,2.76-4.89,5.06-6.49,3.73,6.71,2.8,14.82,4.93,22,1.4,4,.37,8.28,1.25,12.37.47,3.44,1.62,7.07.2,10.44-5.23-6.46-8.27-14.35-10.68-22.21-1.75-5.19-2.35-10.84-.76-16.14v.03Z"/>
    <path class="cls-26" d="M352.8,255.43l.24-.89c10,13.2,18.63,27.92,22.05,44.3,4.87,21.75.48,44.76-9.05,64.63-3-4.52-6.34-8.82-9.26-13.4-5.91-.25-11.82,0-17.73-.18,9.54-10.15,17.41-22.15,21.08-35.7,5.71-19.51,2.74-41.17-7.33-58.76M387.53,309.57c.68,1.04,1.23,2.16,1.63,3.34,5.06,15.47,9.33,31.54,8.93,47.94.23,16.44-5.59,32.15-12.2,46.94-3.21-4.6-5.94-9.51-8.9-14.28-5.55,0-11.08-.71-16.62-1,10.62-11.52,18.61-25.23,23.4-40.15,4.33-13.83,5.62-28.43,3.76-42.8h0Z"/>
    <path class="cls-30" d="M336.05,261.23c2-2.58,5.58-.76,7.52,1,4.34,3.41,5.74,9,6.39,14.26-.42,6.73-3.08,13.13-7.57,18.16-4.43,4.87-9.66,8.96-15.46,12.07-.8-5.07-2.87-9.87-3.33-15,4.66-7.03,8.13-14.78,10.28-22.94.73-2.52,1-5.21,2.17-7.57v.02Z"/>
    <path class="cls-48" d="M186.33,273c-.59-3.56-2.25-7.4-.49-10.89,1.11,1.78,1.28,3.92,1.81,5.91,2.66,10.39,7.44,20.11,14.05,28.56-.44,4.52.64,9,.07,13.53-4.61-1.56-8.71-4.42-12.84-7,.47-2,.63-4.07.5-6.12-1-8-1.19-16.13-3.1-24h0Z"/>
    <path class="cls-3" d="M138.79,272.66c.62-.56,1.34-.98,2.13-1.25-12.33,16.2-17.62,37-16.35,57.2.43,3.08.66,6.17.94,9.26,1.53,8.75,3.71,17.38,6.53,25.81-2.8,3.57-4.59,7.91-8,11-4.79,4.14-6.87,10.37-11.35,14.77-2.56-8.74-4.34-17.69-5.32-26.75-.36-4-.07-8-.71-12,.44-8.35.81-16.74,2.58-24.95l.38-.56c4.11-20,15-38,29.21-52.48l-.04-.05Z"/>
    <path class="cls-44" d="M137.38,306.35c1.08-5.51,3.08-10.81,5.93-15.65-1.52,14.89,3.71,29.64,11.05,42.4,5.2,9.31,12.32,17.38,20.07,24.68-5.52,0-11,.52-16.52.43-3.3,3.84-6.19,8-9.38,11.91h-1.17c-5.42-11.5-9-23.79-10.59-36.41-1.21-9.08-1-18.3.61-27.32v-.04Z"/>
    <path class="cls-47" d="M307.27,309.54c6.18-5.21,11.67-11.19,16.33-17.8.46,5.11,2.53,9.91,3.33,15-5.2,2.87-10.66,5.69-16.43,7.06-1.05-1.43-2.07-2.89-3.23-4.24M311.47,357.32c7.4,1.84,14.57,4.47,21.41,7.84.66.44,1.7.89,1.7,1.85,1,14.74,1.86,30.47,10.2,43.22-2.3-.46-4.12-2-6.25-2.87-9.88-4.27-20.55-6.22-31.09-8-1.57-.44-3.17-.77-4.79-1,1.72-5,3-10.23,5.33-15,.44-4.1,2-7.94,2.94-11.91.59-4.68-.16-9.43.55-14.12h0Z"/>
    <path class="cls-11" d="M201.7,296.53c3.63,4.71,7.88,8.9,12.64,12.47-.79,1.59-1.72,3.11-2.6,4.66-2.52.26-4.65-1.37-7-2-1.09-.35-2.1-.9-3-1.61.57-4.51-.51-9-.07-13.53h.03Z"/>
    <path class="cls-31" d="M258.92,320.22c5.55,0,11.31-.48,16.71.77,1,5-.13,10.06-.52,15.06-.25,1.41,1.06,2.29,1.78,3.31-.83.27-1.65.55-2.47.84-6.13-.58-12.29-.19-18.43-.34,1.06-6.53,2.28-13,2.93-19.64h0Z"/>
    <path class="cls-41" d="M275.63,321c4.46.06,8.9.6,13.25,1.62-.45,4-1.49,7.87-1.27,11.88,0,2.28.68,4.76-.6,6.84-4.18-.58-8.4-.65-12.59-1.13.82-.29,1.64-.57,2.47-.84-.72-1-2-1.9-1.78-3.31.39-5,1.49-10,.52-15.06Z"/>
    <path class="cls-36" d="M288.88,322.61c6.2.78,12.09,3,18,5v.42c.31,5.74,1.89,11.5.44,17.22-3.42-.87-6.92-1.34-10.34-2.15-3.26-.95-6.61-1.55-10-1.77,1.28-2.08.61-4.56.6-6.84-.22-4,.82-7.92,1.27-11.88M201.39,359.81c5.73-1.95,11.6-3.47,17.56-4.54,0,5.36-1.61,10.54-1.86,15.88-.15,4.6-2.25,8.84-2.63,13.41s-.45,10.07-4.53,12.93c.9.77,1.85,1.49,2.84,2.15-6.89,1.01-13.71,2.44-20.42,4.29,2.26-11,6.72-21.52,7.55-32.79.25-3.81.92-7.57,1.49-11.33h0Z"/>
    <path class="cls-43" d="M214.59,328.11c3.21-1.79,6.71-3,10.34-3.6.22.74.45,1.46.7,2.19-.81,1.84-1.11,3.86-.89,5.86.29,3.2-.52,6.34-1.36,9.41l.65.94.36.54c-3.5.33-6.96.95-10.36,1.83-1.12-5.7.61-11.43.56-17.17h0Z"/>
    <path class="cls-8" d="M201.33,337.78c3.4-4.43,8-7.79,13.26-9.67,0,5.74-1.68,11.47-.56,17.17-5.19,1-10.17,2.86-15.36,3.92,1.34-3.74.17-8.1,2.66-11.42h0Z"/>
    <path class="cls-45" d="M306.89,328c5.25,1.88,9.86,5.21,13.29,9.61,2.64,3.28,1.53,7.73,2.11,11.61-5-1.42-9.93-2.88-15-4,1.45-5.72-.13-11.48-.44-17.22h.04Z"/>
    <path class="cls-7" d="M241.23,340.49c4.9-.54,9.83-.75,14.76-.63,6.14.15,12.3-.24,18.43.34,4.19.48,8.41.55,12.59,1.13,3.39.22,6.74.82,10,1.77-5.74-.3-11.43-1.41-17.15-2-3.98,0-7.95-.29-11.89-.86-9.66-.33-19.32.06-28.92,1.18-2.5.51-5.05.7-7.6.57,3.23-.7,6.51-1.2,9.8-1.52l-.02.02Z"/>
    <path class="cls-12" d="M245.57,351.91c8.07-.37,16.13-1,24.2-.5,3.31.67,6.7.31,10.05.53,5.69.78,11.4,1.25,17.08,2.1l-.82.21c-2.35.05-4.78-.38-7.06.35-1.22,1.69-1.85,3.72-1.81,5.8-.34,6.28-2.11,12.39-4.08,18.33-.89,3.11-3.36,5.42-4.39,8.46s-2.19,5.89-3.31,8.82c-11.69.19-23.39-.18-35.06.32,5.31-14.43,9.65-29.19,13-44.19-2.59-.26-5.19-.33-7.79-.23M203.46,413.21c5.09-1.09,10.18-2.4,15.4-2.69,1.92-.13,3.86-.26,5.79-.42-3.1,8.07-7,15.8-10.6,23.65l-.14.29c-4.43.19-8.76,1.55-13.18,1.54-.5-.79-1.52-1.51-1.18-2.56.89-4.62,2.19-9.15,3.89-13.53.73-2,.2-4.21,0-6.28h.02Z"/>
    <path class="cls-13" d="M231.29,353c1.99-.27,3.99-.37,6-.31h2.6c-1.91,15.1-5.41,29.95-10.44,44.32l-.32.72c-5.49.07-10.87,1.17-16.29,1.82-.99-.66-1.94-1.38-2.84-2.15,4.08-2.86,4.11-8.47,4.53-12.93s2.48-8.81,2.63-13.41c.25-5.34,1.87-10.52,1.86-15.88,4-1.23,8.26-1.27,12.31-2.23l-.04.05Z"/>
    <path class="cls-38" d="M289.02,354.6c2.28-.73,4.71-.3,7.06-.35,5.2.63,10.34,1.65,15.39,3.05-.71,4.69,0,9.44-.55,14.12-1,4-2.5,7.81-2.94,11.91-2.35,4.79-3.61,10-5.33,15-9-1.17-18.15-1.58-27.22-2.34,1.12-2.93,2.21-5.88,3.31-8.82s3.5-5.35,4.39-8.46c2-5.94,3.74-12.05,4.08-18.33-.04-2.08.59-4.11,1.81-5.8v.02Z"/>
    <path class="cls-17" d="M186.87,366.76c4-3.72,9.6-4.95,14.55-6.95-.57,3.76-1.24,7.52-1.49,11.33-.83,11.27-5.29,21.81-7.55,32.79-4.87,1.32-9.54,3.26-13.91,5.77l-1.61.18c3.86-4.81,5.69-10.84,7.16-16.73,1.82-8.68,2.78-17.52,2.85-26.39h0Z"/>
    <path class="cls-2" d="M132.04,363.68l.11-.16c6.39,17.37,15.84,33.75,28.56,47.27-6.93-.16-13.8.59-20.71.83-4.18,5.22-7.75,11-12.36,15.85-6.08-12.22-11.53-24.86-15-38.06,4.48-4.4,6.56-10.63,11.35-14.77,3.45-3.05,5.24-7.39,8-11l.05.04Z"/>
    <path class="cls-29" d="M229.41,397.1c3.65-.25,7.3-.57,11-.77,11.67-.5,23.37-.13,35.06-.32,9.07.76,18.18,1.17,27.22,2.34,1.62.23,3.22.56,4.79,1-4.72.23-9.26-1.29-13.95-1.24-4.21-1-8.53-.71-12.81-1-10.73-1.4-21.59-.6-32.37-.78-6.37,1-12.84.6-19.22,1.45l.32-.72-.04.04Z"/>
    <path class="cls-32" d="M238.93,407.91c5.7.3,11.32-.84,17-.84,5.82.22,11.65-.3,17.45.45,4.73.8,9.59-.17,14.29,1,6.76.37,13.47,1.31,20.18,2.28l1,.71c-3.84-.29-7.63-1-11.45-1.41-9.36-1.24-18.78-1.95-28.22-2.12-4.92-.61-9.9-.67-14.84-.18-6.52.69-13.11.11-19.58,1.26-3.38.35-6.74.76-10.13,1.08-1.93.16-3.87.29-5.79.42,1.37-1.08,3.15-.81,4.77-1,5.1-.52,10.21-1,15.31-1.62v-.03Z"/>
    <path class="cls-6" d="M234.77,409c6.47-1.15,13.06-.57,19.58-1.26,4.94-.49,9.92-.43,14.84.18-6.89,6.23-10.67,15.1-17.61,21.31.24,2.14,3.15,1.42,4.71,1.88-6.6.63-13.26,0-19.84.85-3.71.35-7.44.43-11.17.68l-2.62-.09c4.14-7.8,8.6-15.43,12.11-23.55h0Z"/>
    <path class="cls-39" d="M269.19,407.94c9.44.17,18.86.88,28.22,2.12-1.09,2.65-3.78,3.69-6.14,4.9-3.75,1.73-5.75,5.58-9,7.93-2.85,2.72-6.88,3.9-9.28,7.13,3.4.81,7,.57,10.35,1.53-9,.18-18-.6-27-.42-1.56-.46-4.47.26-4.71-1.88,6.94-6.21,10.72-15.08,17.61-21.31h-.05Z"/>
    <path class="cls-37" d="M297.41,410.06c3.82.4,7.61,1.12,11.45,1.41,9.85,1.46,19.51,3.99,28.81,7.53-3.26,3.12-3.56,7.92-6.24,11.42-1.63,2.06-3.04,4.29-4.2,6.64-9.76-1.9-19.61-3.3-29.52-4.17-4.78-.82-9.7-.2-14.42-1.32-3.39-1-6.95-.72-10.35-1.53,2.4-3.23,6.43-4.41,9.28-7.13,3.3-2.35,5.3-6.2,9-7.93,2.36-1.21,5.05-2.25,6.14-4.9l.05-.02Z"/>
    <path class="cls-1" d="M190.82,416.57c4.2-1.18,8.35-2.53,12.63-3.36.18,2.07.71,4.25,0,6.28-1.71,4.38-3.02,8.9-3.91,13.51-.34,1.05.68,1.77,1.18,2.56l.38.49c-5.26.07-10.18,2.36-15.38,2.78.83-3.32.92-6.79,1.93-10.09,1-4,2.77-7.82,3.15-12v-.22l.02.05Z"/>
    <path class="cls-25" d="M331.43,430.4c2.68-3.5,3-8.3,6.24-11.42,5,2.13,10.08,4.31,14.43,7.63,2.54,1.97,4.24,4.83,4.76,8,.91,4.94,2.06,9.85,2.74,14.83-9.62-6.66-21.09-9.86-32.37-12.36,1.16-2.35,2.57-4.58,4.2-6.64v-.04Z"/>
    <path class="cls-20" d="M243.63,486.89c12.43-5.25,26.54-5.95,39.64-3.07,11.39,2.49,21.3,9.37,29.08,17.89-5.87,5.77-11.94,11.36-18,16.89-3.64-3.53-7.34-7.19-12.13-9.12-9.39-4.37-20.93-4.12-29.82,1.35-8.84,5.14-14.07,14.94-15.51,24.86-.67,7.95-.43,16.28,3.18,23.57,4.21,9.42,13.2,16.91,23.61,18.08,11.47,1.93,23.34-3.26,30.63-12.16,5.95,5.81,12.4,11.19,18,17.3-5.88,6-12.49,11.52-20.28,14.87-10.46,4.54-22.22,5.47-33.45,4-12.37-1.74-24.33-7.36-32.95-16.51-7.66-7.43-12.33-17.39-14.93-27.63-1.08-5.67-1.64-11.43-1.7-17.21.73-7.44,1.59-15,4.6-22,5.42-13.97,16.23-25.17,30-31.09M0,484.91c26.44.05,52.87.05,79.3,0,0,8,.14,16-.07,24-17.71-.1-35.42,0-53.13-.05.1,7.66-.13,15.33.13,23,11.11-.1,22.22-.06,33.32,0-.05,7.8,0,15.6,0,23.39H26.19c-.11,14.7,0,29.41,0,44.12-8.72.16-17.45,0-26.17.08v-114.45M110.2,485.29c7-.6,14.06-.1,21.09-.25,16.22,38.12,32.56,76.2,48.63,114.38-9.33,0-18.66.15-28-.1-3.38-8.29-6.86-16.55-10.6-24.68-13.7.13-27.42,0-41.12,0-3.52,8.25-7,16.51-10.57,24.76-9.29-.05-18.58,0-27.87-.06,12.45-28.84,24.59-57.8,37-86.67,3.75-9.16,8-18.17,11.46-27.43M120.43,521.99c-3.69,9.68-7.55,19.31-11.76,28.78,8.13.33,16.28.14,24.41.1-3.8-9.74-8.21-19.25-11.65-29.1l-1,.22M323.81,484.92c8.72.2,17.45-.1,26.18.16-.06,20,0,40.08,0,60.13,0,7.71-.72,15.87,3,22.94,2.45,5.41,8,8.73,13.77,9.6,7.34,1.08,15.79.25,21.3-5.24,4.94-5.24,5.71-12.75,6.27-19.59v-68c8.6.06,17.21,0,25.82,0,0,24.34.06,48.68,0,73-.24,11.5-3.88,23.47-12.38,31.58-8.83,8.53-21.4,11.9-33.4,12.17-11.79.38-24.17-1.76-33.94-8.74-7.12-5.25-12.26-12.74-14.62-21.27-.27-1.19-.52-2.35-.88-3.5-1.72-8.71-1.07-17.59-1.18-26.41,0-19-.07-37.93.05-56.89M436.42,485c15.15-.27,30.31,0,45.46-.11,10.86.29,22.26,2.05,31.33,8.44,7,4.7,11.6,12.62,13,20.89.61,2.87.42,5.82,1,8.71-.49,7.43-1.69,15.16-6,21.43-5.52,8.42-15.19,13-24.8,14.91-11.07,2.36-22.46,1.49-33.69,1.67-.06,12.79,0,25.57,0,38.36-8.73-.08-17.45.11-26.17-.11v-114.19M462.71,508.79v28.42c9.95-.45,20.5,1.57,29.94-2.51,8-3.64,9.44-15.53,3.29-21.45-3.81-3.31-9-4.35-13.94-4.47h-19.29Z"/>
  </g>
</svg>