<?xml version="1.0" encoding="UTF-8"?>
<!-- Generated by Pixelmator Pro 3.6.5 -->
<svg width="368" height="368" viewBox="0 0 368 368" xmlns="http://www.w3.org/2000/svg">
    <g id="Layer1-2">
        <g id="g3297">
            <g id="g3044">
                <path id="path2995" fill="#1f4490" stroke="none" d="M 97.800003 76.359985 C 97.800003 84.639984 91.310005 91.359985 83.300003 91.359985 C 75.290001 91.359985 68.800003 84.639984 68.800003 76.359985 C 68.800003 68.079987 75.290001 61.359985 83.300003 61.359985 C 91.310005 61.359985 97.800003 68.079987 97.800003 76.359985 Z"/>
                <path id="path2998" fill="#1f4490" stroke="none" d="M 136.949997 75.470001 C 136.949997 85.179993 129.339996 93.049988 119.959999 93.049988 C 110.580002 93.049988 102.970001 85.179993 102.970001 75.470001 C 102.970001 65.76001 110.580002 57.890015 119.959999 57.890015 C 129.339996 57.890015 136.949997 65.76001 136.949997 75.470001 Z"/>
                <path id="path3000" fill="#1f4490" stroke="none" d="M 171.029999 95.079987 C 171.029999 105.369995 162.970001 113.720001 153.019989 113.720001 C 143.069992 113.720001 135.009995 105.380005 135.009995 95.079987 C 135.009995 84.779999 143.069992 76.440002 153.019989 76.440002 C 162.970001 76.440002 171.029999 84.779999 171.029999 95.079987 Z"/>
                <path id="path3002" fill="#1f4490" stroke="none" d="M 121.300003 109.25 C 121.300003 118.470001 114.080002 125.940002 105.169998 125.940002 C 96.259995 125.940002 89.040001 118.470001 89.040001 109.25 C 89.040001 100.029999 96.259995 92.559998 105.169998 92.559998 C 114.080002 92.559998 121.300003 100.029999 121.300003 109.25 Z"/>
                <path id="path3004" fill="#1f4490" stroke="none" d="M 85.669998 105.669983 C 85.669998 113.139999 79.720001 119.199997 72.389999 119.199997 C 65.059998 119.199997 59.110001 113.139999 59.110001 105.669983 C 59.110001 98.200012 65.059998 92.139984 72.389999 92.139984 C 79.720001 92.139984 85.669998 98.200012 85.669998 105.669983 Z"/>
                <path id="path3006" fill="#1f4490" stroke="none" d="M 151.449997 128.699997 C 151.449997 137.709991 144.279999 145.019989 135.430008 145.019989 C 126.580002 145.019989 119.410004 137.709991 119.410004 128.699997 C 119.410004 119.690002 126.580002 112.380005 135.430008 112.380005 C 144.279999 112.380005 151.449997 119.690002 151.449997 128.699997 Z"/>
                <path id="path3008" fill="#1f4490" stroke="none" d="M 82.330002 135.610001 C 82.330002 142.849991 76.660004 148.709991 69.669998 148.709991 C 62.68 148.709991 57.009998 142.839996 57.009998 135.610001 C 57.009998 128.37999 62.68 122.509995 69.669998 122.509995 C 76.660004 122.509995 82.330002 128.37999 82.330002 135.610001 Z"/>
                <path id="path3010" fill="#1f4490" stroke="none" d="M 112.240005 142.349991 C 112.240005 149.819992 106.389999 155.87999 99.169998 155.87999 C 91.950005 155.87999 86.099998 149.819992 86.099998 142.349991 C 86.099998 134.87999 91.950005 128.819992 99.169998 128.819992 C 106.389999 128.819992 112.240005 134.87999 112.240005 142.349991 Z"/>
                <path id="path3012" fill="#1f4490" stroke="none" d="M 137.960007 158.799988 C 137.960007 166.269989 132.110001 172.329987 124.889999 172.329987 C 117.669998 172.329987 111.82 166.269989 111.82 158.799988 C 111.82 151.329987 117.669998 145.269989 124.889999 145.269989 C 132.110001 145.269989 137.960007 151.329987 137.960007 158.799988 Z"/>
                <path id="path3014" fill="#1f4490" stroke="none" d="M 136.279999 186.699997 C 136.279999 192.970001 131.279999 198.039993 125.110001 198.039993 C 118.940002 198.039993 113.940002 192.959991 113.940002 186.699997 C 113.940002 180.439987 118.940002 175.360001 125.110001 175.360001 C 131.279999 175.360001 136.279999 180.439987 136.279999 186.699997 Z"/>
                <path id="path3016" fill="#1f4490" stroke="none" d="M 110.5 170.769989 C 110.5 177.079987 105.5 182.199997 99.330002 182.199997 C 93.160004 182.199997 88.160004 177.079987 88.160004 170.769989 C 88.160004 164.459991 93.160004 159.339996 99.330002 159.339996 C 105.5 159.339996 110.5 164.459991 110.5 170.769989 Z"/>
                <path id="path3018" fill="#1f4490" stroke="none" d="M 84.43 162.110001 C 84.43 168.419998 79.43 173.539993 73.260002 173.539993 C 67.090004 173.539993 62.09 168.419998 62.09 162.110001 C 62.09 155.799988 67.090004 150.679993 73.260002 150.679993 C 79.43 150.679993 84.43 155.799988 84.43 162.110001 Z"/>
                <path id="path3020" fill="#1f4490" stroke="none" d="M 88.940002 182.729996 C 88.940002 187.479996 85.150002 191.339996 80.470001 191.339996 C 75.790001 191.339996 72 187.48999 72 182.729996 C 72 177.970001 75.790001 174.119995 80.470001 174.119995 C 85.150002 174.119995 88.940002 177.970001 88.940002 182.729996 Z"/>
                <path id="path3022" fill="#1f4490" stroke="none" d="M 112.57 192.919998 C 112.57 197.669998 108.779999 201.529999 104.099998 201.529999 C 99.419998 201.529999 95.630005 197.679993 95.630005 192.919998 C 95.630005 188.159988 99.419998 184.309998 104.099998 184.309998 C 108.779999 184.309998 112.57 188.159988 112.57 192.919998 Z"/>
                <path id="path3024" fill="#1f4490" stroke="none" d="M 95.43 198.829987 C 95.43 202.709991 92.339996 205.860001 88.519997 205.860001 C 84.699997 205.860001 81.610001 202.709991 81.610001 198.829987 C 81.610001 194.949997 84.699997 191.799988 88.519997 191.799988 C 92.339996 191.799988 95.43 194.949997 95.43 198.829987 Z"/>
                <path id="path3026" fill="#1f4490" stroke="none" d="M 105.190002 211.369995 C 105.190002 215 102.290001 217.939987 98.720001 217.939987 C 95.150002 217.939987 92.25 215 92.25 211.369995 C 92.25 207.73999 95.150002 204.799988 98.720001 204.799988 C 102.290001 204.799988 105.190002 207.73999 105.190002 211.369995 Z"/>
                <path id="path3028" fill="#1f4490" stroke="none" d="M 120.970001 209.970001 C 120.970001 213.579987 118.090004 216.5 114.550003 216.5 C 111.010002 216.5 108.130005 213.579987 108.130005 209.970001 C 108.130005 206.360001 111.010002 203.439987 114.550003 203.439987 C 118.090004 203.439987 120.970001 206.360001 120.970001 209.970001 Z"/>
                <path id="path3030" fill="#1f4490" stroke="none" d="M 140.62001 208.259995 C 140.62001 213.009995 136.830002 216.869995 132.150009 216.869995 C 127.470001 216.869995 123.68 213.019989 123.68 208.259995 C 123.68 203.5 127.470001 199.649994 132.150009 199.649994 C 136.830002 199.649994 140.62001 203.5 140.62001 208.259995 Z"/>
                <path id="path3032" fill="#1f4490" stroke="none" d="M 131.790009 227.019989 C 131.790009 230.62999 128.910004 233.549988 125.370003 233.549988 C 121.830002 233.549988 118.950005 230.62999 118.950005 227.019989 C 118.950005 223.409988 121.830002 220.48999 125.370003 220.48999 C 128.910004 220.48999 131.790009 223.409988 131.790009 227.019989 Z"/>
                <path id="path3034" fill="#1f4490" stroke="none" d="M 148.389999 225.539993 C 148.389999 229.369995 145.330002 232.479996 141.559998 232.479996 C 137.790009 232.479996 134.730011 229.369995 134.730011 225.539993 C 134.730011 221.709991 137.790009 218.599991 141.559998 218.599991 C 145.330002 218.599991 148.389999 221.709991 148.389999 225.539993 Z"/>
                <path id="path3036" fill="#1f4490" stroke="none" d="M 116.909996 223.610001 C 116.909996 226.329987 114.739998 228.539993 112.059998 228.539993 C 109.379997 228.539993 107.209999 226.329987 107.209999 223.610001 C 107.209999 220.889999 109.379997 218.679993 112.059998 218.679993 C 114.739998 218.679993 116.909996 220.889999 116.909996 223.610001 Z"/>
                <path id="path3038" fill="#1f4490" stroke="none" d="M 140.009995 237.229996 C 140.009995 239.75 138 241.790009 135.519989 241.790009 C 133.039993 241.790009 131.029999 239.75 131.029999 237.229996 C 131.029999 234.709991 133.039993 232.669998 135.519989 232.669998 C 138 232.669998 140.009995 234.709991 140.009995 237.229996 Z"/>
                <path id="path3040" fill="#1f4490" stroke="none" d="M 156.139999 238.599991 C 156.139999 241.929993 153.48999 244.630005 150.209991 244.630005 C 146.929993 244.630005 144.279999 241.929993 144.279999 238.599991 C 144.279999 235.269989 146.929993 232.579987 150.209991 232.579987 C 153.48999 232.579987 156.139999 235.279999 156.139999 238.599991 Z"/>
                <path id="path3042" fill="#1f4490" stroke="none" d="M 166.889999 244.75 C 166.889999 247.089996 165.019989 248.98999 162.709991 248.98999 C 160.399994 248.98999 158.529999 247.089996 158.529999 244.75 C 158.529999 242.410004 160.399994 240.51001 162.709991 240.51001 C 165.019989 240.51001 166.889999 242.410004 166.889999 244.75 Z"/>
            </g>
            <g id="g3194">
                <g id="g3168">
                    <path id="path3072" fill="#1f4490" stroke="none" d="M 271.670013 78.040009 C 264.050018 74.779999 260.429993 66.179993 263.570007 58.809998 C 266.720001 51.450012 275.440002 48.119995 283.059998 51.369995 C 290.679993 54.630005 294.300018 63.230011 291.160004 70.600006 C 288.01001 77.959991 279.290009 81.290009 271.670013 78.040009 Z"/>
                    <path id="path3074" fill="#1f4490" stroke="none" d="M 252.059998 111.139984 C 243.130005 107.320007 238.880005 97.230011 242.570007 88.609985 C 246.259995 79.980011 256.48999 76.079987 265.419983 79.889984 C 274.350006 83.700012 278.600006 93.799988 274.910004 102.419983 C 271.220001 111.049988 260.98999 114.949997 252.059998 111.139984 Z"/>
                    <path id="path3076" fill="#1f4490" stroke="none" d="M 218.830002 131.529999 C 209.369995 127.479996 204.860001 116.789993 208.770004 107.639984 C 212.679993 98.48999 223.520004 94.359985 232.990005 98.399994 C 242.460007 102.440002 246.960007 113.139999 243.050003 122.289993 C 239.139999 131.439987 228.300003 135.569992 218.830002 131.529999 Z"/>
                    <path id="path3078" fill="#1f4490" stroke="none" d="M 229.300003 80.950012 C 220.830002 77.329987 216.789993 67.75 220.289993 59.559998 C 223.789993 51.369995 233.5 47.670013 241.970001 51.290009 C 250.440002 54.910004 254.479996 64.48999 250.979996 72.679993 C 247.479996 80.869995 237.770004 84.570007 229.300003 80.950012 Z"/>
                    <path id="path3080" fill="#1f4490" stroke="none" d="M 250.929993 52.839996 C 244.059998 49.899994 240.830002 42.059998 243.710007 35.309998 C 246.589996 28.559998 254.5 25.480011 261.369995 28.410004 C 268.240021 31.350006 271.470001 39.190002 268.589996 45.940002 C 265.710022 52.690002 257.800018 55.769989 250.929993 52.839996 Z"/>
                    <path id="path3082" fill="#1f4490" stroke="none" d="M 198.850006 97.059998 C 190.559998 93.519989 186.669998 84.049988 190.139999 75.910004 C 193.619995 67.769989 203.149994 64.049988 211.440002 67.589996 C 219.729996 71.130005 223.619995 80.600006 220.149994 88.73999 C 216.669998 96.880005 207.139999 100.600006 198.850006 97.059998 Z"/>
                    <path id="path3084" fill="#1f4490" stroke="none" d="M 227.240005 35.109985 C 220.589996 32.269989 217.419998 24.75 220.169998 18.309998 C 222.919998 11.880005 230.539993 8.970001 237.199997 11.809998 C 243.860001 14.649994 247.020004 22.170013 244.270004 28.609985 C 241.520004 35.049988 233.899994 37.950012 227.240005 35.109985 Z"/>
                    <path id="path3086" fill="#1f4490" stroke="none" d="M 205.669998 56.359985 C 198.800003 53.420013 195.529999 45.660004 198.369995 39.019989 C 201.210007 32.380005 209.080002 29.380005 215.940002 32.309998 C 222.809998 35.25 226.080002 43.01001 223.240005 49.649994 C 220.399994 56.290009 212.529999 59.290009 205.669998 56.359985 Z"/>
                    <path id="path3088" fill="#1f4490" stroke="none" d="M 177.559998 69.940002 C 170.690002 67 167.419998 59.23999 170.259995 52.600006 C 173.099991 45.959991 180.970001 42.959991 187.830002 45.890015 C 194.699997 48.829987 197.970001 56.589996 195.130005 63.230011 C 192.289993 69.869995 184.419998 72.869995 177.559998 69.940002 Z"/>
                    <path id="path3090" fill="#1f4490" stroke="none" d="M 155.089996 55.619995 C 149.330002 53.160004 146.630005 46.559998 149.050003 40.890015 C 151.470001 35.220001 158.110001 32.609985 163.87001 35.070007 C 169.630005 37.529999 172.330002 44.130005 169.910004 49.799988 C 167.480011 55.480011 160.850006 58.079987 155.089996 55.619995 Z"/>
                    <path id="path3092" fill="#1f4490" stroke="none" d="M 181.309998 41.059998 C 175.5 38.579987 172.76001 31.970001 175.190002 26.290009 C 177.62001 20.609985 184.290009 18.029999 190.100006 20.51001 C 195.910004 22.98999 198.649994 29.600006 196.220001 35.279999 C 193.789993 40.959991 187.119995 43.540009 181.309998 41.059998 Z"/>
                    <path id="path3094" fill="#1f4490" stroke="none" d="M 202.039993 23.380005 C 196.229996 20.899994 193.490005 14.290009 195.919998 8.609985 C 198.350006 2.929993 205.020004 0.350006 210.830002 2.829987 C 216.639999 5.309998 219.380005 11.920013 216.949997 17.600006 C 214.520004 23.279999 207.850006 25.859985 202.039993 23.380005 Z"/>
                    <path id="path3096" fill="#1f4490" stroke="none" d="M 182.029999 16.179993 C 177.660004 14.309998 175.610001 9.309998 177.440002 5.01001 C 179.279999 0.709991 184.309998 -1.26001 188.679993 0.600006 C 193.050003 2.470001 195.100006 7.470001 193.270004 11.769989 C 191.429993 16.070007 186.399994 18.040009 182.029999 16.179993 Z"/>
                    <path id="path3098" fill="#1f4490" stroke="none" d="M 160.849991 32.820007 C 156.479996 30.950012 154.429993 25.950012 156.259995 21.649994 C 158.099991 17.350006 163.12999 15.380005 167.5 17.23999 C 171.869995 19.109985 173.919998 24.109985 172.089996 28.410004 C 170.25 32.709991 165.220001 34.679993 160.849991 32.820007 Z"/>
                    <path id="path3100" fill="#1f4490" stroke="none" d="M 163.949997 14.73999 C 160.380005 13.220001 158.710007 9.130005 160.210007 5.619995 C 161.710007 2.109985 165.820007 0.5 169.389999 2.019989 C 172.960007 3.540009 174.630005 7.630005 173.130005 11.140015 C 171.630005 14.649994 167.520004 16.26001 163.949997 14.73999 Z"/>
                    <path id="path3102" fill="#1f4490" stroke="none" d="M 147.509995 16.619995 C 144.169998 15.190002 142.599991 11.369995 144.009995 8.089996 C 145.410004 4.799988 149.259995 3.299988 152.599991 4.730011 C 155.940002 6.160004 157.509995 9.980011 156.099991 13.26001 C 154.699997 16.549988 150.849991 18.049988 147.509995 16.619995 Z"/>
                    <path id="path3104" fill="#1f4490" stroke="none" d="M 140.790009 29.880005 C 137.470001 28.459991 135.919998 24.670013 137.309998 21.410004 C 138.699997 18.149994 142.520004 16.649994 145.839996 18.070007 C 149.160004 19.48999 150.710007 23.279999 149.320007 26.540009 C 147.930008 29.799988 144.110001 31.299988 140.790009 29.880005 Z"/>
                    <path id="path3106" fill="#1f4490" stroke="none" d="M 132.480011 47.899994 C 128.110001 46.029999 126.059998 41.029999 127.889999 36.730011 C 129.720001 32.429993 134.76001 30.459991 139.130005 32.320007 C 143.5 34.190002 145.550003 39.190002 143.720001 43.48999 C 141.889999 47.790009 136.850006 49.76001 132.480011 47.899994 Z"/>
                    <path id="path3108" fill="#1f4490" stroke="none" d="M 120.5 31.329987 C 117.18 29.910004 115.630005 26.119995 117.020004 22.859985 C 118.410004 19.600006 122.230003 18.100006 125.550003 19.519989 C 128.87001 20.940002 130.419998 24.730011 129.029999 27.98999 C 127.639999 31.25 123.82 32.75 120.5 31.329987 Z"/>
                    <path id="path3110" fill="#1f4490" stroke="none" d="M 114.259995 45.730011 C 110.729996 44.220001 109.080002 40.190002 110.559998 36.720001 C 112.040001 33.25 116.099998 31.660004 119.629997 33.170013 C 123.160004 34.679993 124.809998 38.709991 123.330002 42.179993 C 121.849998 45.649994 117.790001 47.23999 114.259995 45.730011 Z"/>
                    <path id="path3112" fill="#1f4490" stroke="none" d="M 130.559998 19.709991 C 128.059998 18.640015 126.879997 15.779999 127.940002 13.320007 C 128.990005 10.859985 131.87001 9.730011 134.37001 10.799988 C 136.87001 11.869995 138.050003 14.730011 136.990005 17.190002 C 135.930008 19.649994 133.059998 20.779999 130.559998 19.709991 Z"/>
                    <path id="path3114" fill="#1f4490" stroke="none" d="M 107.520004 33.070007 C 105.200005 32.079987 104.110001 29.429993 105.090004 27.149994 C 106.060005 24.869995 108.730003 23.820007 111.050003 24.809998 C 113.370003 25.799988 114.459999 28.450012 113.480003 30.730011 C 112.510002 33.01001 109.840004 34.059998 107.520004 33.070007 Z"/>
                    <path id="path3116" fill="#1f4490" stroke="none" d="M 97.75 45.920013 C 94.690002 44.609985 93.25 41.109985 94.540001 38.100006 C 95.830002 35.089996 99.349998 33.709991 102.410004 35.019989 C 105.470001 36.329987 106.910004 39.829987 105.620003 42.839996 C 104.330002 45.850006 100.810005 47.230011 97.75 45.920013 Z"/>
                    <path id="path3118" fill="#1f4490" stroke="none" d="M 87.150002 52.299988 C 84.989998 51.380005 83.980003 48.910004 84.889999 46.790009 C 85.800003 44.670013 88.279999 43.700012 90.43 44.619995 C 92.580002 45.540009 93.599998 48.01001 92.690002 50.130005 C 91.779999 52.25 89.300003 53.220001 87.150002 52.299988 Z"/>
                </g>
            </g>
            <g id="g3221">
                <g id="g3223">
                    <path id="path3225" fill="#1f4490" stroke="none" d="M 180.889999 223.929993 C 187.570007 219.029999 196.820007 220.279999 201.559998 226.729996 C 206.300003 233.179993 204.729996 242.390015 198.050003 247.290009 C 191.369995 252.190002 182.12001 250.940002 177.380005 244.48999 C 172.639999 238.039993 174.210007 228.829987 180.889999 223.929993 Z"/>
                    <path id="path3227" fill="#1f4490" stroke="none" d="M 162.360001 190.209991 C 170.190002 184.459991 181.029999 185.929993 186.589996 193.5 C 192.149994 201.059998 190.309998 211.849991 182.480011 217.599991 C 174.650009 223.349991 163.809998 221.87999 158.25 214.309998 C 152.690002 206.75 154.529999 195.959991 162.360001 190.209991 Z"/>
                    <path id="path3229" fill="#1f4490" stroke="none" d="M 161.699997 151.229996 C 170 145.139999 181.490005 146.699997 187.380005 154.709991 C 193.270004 162.729996 191.320007 174.169998 183.020004 180.259995 C 174.720001 186.349991 163.230011 184.789993 157.339996 176.779999 C 151.449997 168.759995 153.400009 157.319992 161.699997 151.229996 Z"/>
                    <path id="path3231" fill="#1f4490" stroke="none" d="M 199.919998 185.970001 C 207.350006 180.509995 217.639999 181.909988 222.919998 189.089996 C 228.190002 196.269989 226.449997 206.509995 219.020004 211.970001 C 211.589996 217.429993 201.300003 216.029999 196.020004 208.849991 C 190.75 201.669998 192.490005 191.429993 199.919998 185.970001 Z"/>
                    <path id="path3233" fill="#1f4490" stroke="none" d="M 213.130005 218.87999 C 219.149994 214.459991 227.550003 215.669998 231.889999 221.579987 C 236.229996 227.48999 234.869995 235.869995 228.850006 240.290009 C 222.830002 244.709991 214.429993 243.5 210.089996 237.589996 C 205.75 231.679993 207.110001 223.299988 213.130005 218.87999 Z"/>
                    <path id="path3235" fill="#1f4490" stroke="none" d="M 201.529999 151.549988 C 208.789993 146.220001 218.929993 147.669998 224.169998 154.799988 C 229.410004 161.929993 227.770004 172.039993 220.509995 177.369995 C 213.25 182.699997 203.110001 181.25 197.869995 174.119995 C 192.630005 166.98999 194.270004 156.87999 201.529999 151.549988 Z"/>
                    <path id="path3237" fill="#1f4490" stroke="none" d="M 240.440002 207.48999 C 246.270004 203.209991 254.360001 204.299988 258.5 209.939987 C 262.640015 215.579987 261.27002 223.619995 255.440002 227.899994 C 249.610001 232.179993 241.520004 231.089996 237.380005 225.449997 C 233.240005 219.809998 234.610001 211.769989 240.440002 207.48999 Z"/>
                    <path id="path3239" fill="#1f4490" stroke="none" d="M 233.110001 178.119995 C 239.130005 173.699997 247.479996 174.829987 251.75 180.649994 C 256.019989 186.470001 254.610001 194.769989 248.589996 199.189987 C 242.570007 203.610001 234.220001 202.479996 229.949997 196.659988 C 225.679993 190.839996 227.089996 182.539993 233.110001 178.119995 Z"/>
                    <path id="path3241" fill="#1f4490" stroke="none" d="M 235.710007 147 C 241.729996 142.579987 250.080002 143.709991 254.350006 149.529999 C 258.619995 155.349991 257.210022 163.649994 251.190002 168.069992 C 245.169998 172.48999 236.820007 171.360001 232.550003 165.539993 C 228.279999 159.720001 229.690002 151.419998 235.710007 147 Z"/>
                    <path id="path3243" fill="#1f4490" stroke="none" d="M 259.470001 134.929993 C 264.52002 131.220001 271.570007 132.25 275.230011 137.220001 C 278.880005 142.189987 277.75 149.229996 272.700012 152.939987 C 267.649994 156.649994 260.600006 155.619995 256.940002 150.649994 C 253.289993 145.679993 254.419998 138.639999 259.470001 134.929993 Z"/>
                    <path id="path3245" fill="#1f4490" stroke="none" d="M 258.670013 164.919998 C 263.76001 161.179993 270.850006 162.179993 274.5 167.159988 C 278.149994 172.139999 276.990021 179.199997 271.899994 182.939987 C 266.809998 186.679993 259.720001 185.679993 256.070007 180.699997 C 252.419998 175.729996 253.580002 168.659988 258.670013 164.919998 Z"/>
                    <path id="path3247" fill="#1f4490" stroke="none" d="M 263.350006 191.759995 C 268.440002 188.019989 275.529999 189.019989 279.179993 194 C 282.830017 198.970001 281.670013 206.039993 276.580017 209.779999 C 271.490021 213.519989 264.399994 212.519989 260.75 207.539993 C 257.100006 202.569992 258.26001 195.5 263.350006 191.759995 Z"/>
                    <path id="path3249" fill="#1f4490" stroke="none" d="M 279.730011 178.189987 C 283.559998 175.37999 288.910004 176.149994 291.679993 179.919998 C 294.450012 183.689987 293.589996 189.029999 289.76001 191.839996 C 285.929993 194.649994 280.580017 193.87999 277.809998 190.110001 C 275.040009 186.339996 275.899994 181 279.730011 178.189987 Z"/>
                    <path id="path3251" fill="#1f4490" stroke="none" d="M 276.170013 151.48999 C 280 148.679993 285.350006 149.449997 288.119995 153.220001 C 290.890015 156.98999 290.029999 162.329987 286.200012 165.139999 C 282.369995 167.949997 277.02002 167.179993 274.25 163.409988 C 271.480011 159.639999 272.339996 154.299988 276.170013 151.48999 Z"/>
                    <path id="path3253" fill="#1f4490" stroke="none" d="M 290.160004 163.349991 C 293.289978 161.049988 297.649994 161.689987 299.910004 164.759995 C 302.169983 167.839996 301.470001 172.189987 298.339996 174.48999 C 295.209991 176.789993 290.850006 176.149994 288.589996 173.079987 C 286.329987 170 287.029999 165.649994 290.160004 163.349991 Z"/>
                    <path id="path3255" fill="#1f4490" stroke="none" d="M 296.910004 148.23999 C 299.839996 146.089996 303.920013 146.679993 306.040009 149.559998 C 308.160004 152.439987 307.5 156.519989 304.570007 158.669998 C 301.640015 160.819992 297.559998 160.229996 295.440002 157.349991 C 293.320007 154.470001 293.980011 150.389999 296.910004 148.23999 Z"/>
                    <path id="path3257" fill="#1f4490" stroke="none" d="M 288.910004 135.709991 C 291.820007 133.579987 295.869995 134.159988 297.97998 137.019989 C 300.079987 139.87999 299.429993 143.929993 296.519989 146.059998 C 293.609985 148.189987 289.559998 147.610001 287.449982 144.75 C 285.339996 141.889999 286 137.839996 288.910004 135.709991 Z"/>
                    <path id="path3259" fill="#1f4490" stroke="none" d="M 277.610016 119.389999 C 281.440002 116.580002 286.790009 117.349991 289.559998 121.119995 C 292.330017 124.889999 291.470001 130.229996 287.640015 133.039993 C 283.809998 135.849991 278.460022 135.079987 275.690002 131.309998 C 272.920013 127.539993 273.779999 122.199997 277.610016 119.389999 Z"/>
                    <path id="path3261" fill="#1f4490" stroke="none" d="M 297.970001 117.5 C 300.880005 115.369995 304.929993 115.949997 307.040009 118.809998 C 309.140015 121.669998 308.490021 125.720001 305.580017 127.849991 C 302.670013 129.979996 298.619995 129.399994 296.51001 126.539993 C 294.410004 123.679993 295.059998 119.630005 297.970001 117.5 Z"/>
                    <path id="path3263" fill="#1f4490" stroke="none" d="M 288.75 104.809998 C 291.839996 102.540009 296.149994 103.169983 298.389984 106.209991 C 300.619995 109.25 299.929993 113.550003 296.839996 115.819992 C 293.75 118.089996 289.440002 117.459991 287.199982 114.419998 C 284.970001 111.380005 285.660004 107.079987 288.75 104.809998 Z"/>
                    <path id="path3265" fill="#1f4490" stroke="none" d="M 302.860016 132.079987 C 305.050018 130.470001 308.110016 130.909988 309.700012 133.069992 C 311.279999 135.229996 310.790009 138.279999 308.600006 139.889999 C 306.410004 141.5 303.350006 141.059998 301.76001 138.899994 C 300.170013 136.73999 300.670013 133.689987 302.860016 132.079987 Z"/>
                    <path id="path3267" fill="#1f4490" stroke="none" d="M 303.070007 105.440002 C 305.100006 103.950012 307.940002 104.359985 309.410004 106.359985 C 310.880005 108.359985 310.419983 111.190002 308.389984 112.679993 C 306.359985 114.169998 303.519989 113.759995 302.049988 111.76001 C 300.579987 109.76001 301.039978 106.929993 303.070007 105.440002 Z"/>
                    <path id="path3269" fill="#1f4490" stroke="none" d="M 296.970001 90.5 C 299.649994 88.529999 303.399994 89.070007 305.339996 91.709991 C 307.279999 94.350006 306.679993 98.079987 303.990021 100.049988 C 301.309998 102.019989 297.559998 101.480011 295.619995 98.839996 C 293.679993 96.200012 294.279999 92.470001 296.970001 90.5 Z"/>
                    <path id="path3271" fill="#1f4490" stroke="none" d="M 296.869995 78.119995 C 298.76001 76.730011 301.399994 77.109985 302.76001 78.970001 C 304.130005 80.829987 303.700012 83.459991 301.809998 84.850006 C 299.920013 86.23999 297.279999 85.859985 295.920013 84 C 294.550018 82.139984 294.980011 79.51001 296.869995 78.119995 Z"/>
                </g>
            </g>
            <path id="rect3275" fill="#c12126" stroke="none" d="M 86.290001 275.040009 L 86.290001 352.509979 L 86.540001 352.509979 C 87.349998 359.97998 91.470001 368 101.080002 368 L 142.790009 368 L 142.790009 347.410004 L 107.840004 347.410004 L 107.840004 332.22998 L 140.900009 332.22998 L 140.900009 310.5 L 107.840004 310.5 L 107.840004 296.769989 L 143.490005 296.769989 L 143.490005 275.040009 L 86.290001 275.040009 Z"/>
            <path id="path3289" fill="#c12126" stroke="none" d="M 161.059998 355.910004 C 162.720001 363.429993 166.589996 368.009979 173.990005 367.880005 L 183.330002 367.880005 L 183.330002 331.25 L 213.25 331.25 L 213.25 311.139984 L 183.330002 311.139984 L 183.330002 295.100006 L 216.839996 295.100006 L 216.839996 274.75 L 160.339996 274.75 L 161.059998 355.899994 Z"/>
            <path id="rect3291" fill="#c12126" stroke="none" d="M 233.350006 274.97998 L 233.350006 347.529999 C 233.350006 357.459991 234.360001 367.429993 246.860001 367.429993 L 283.860016 367.429993 L 283.860016 347.529999 L 254.639999 347.529999 L 254.639999 274.97998 L 233.350006 274.97998 Z"/>
        </g>
    </g>
</svg>
