<?xml version="1.0" encoding="UTF-8" standalone="no"?>
<!-- Created with Inkscape (http://www.inkscape.org/) -->

<svg
   xmlns:dc="http://purl.org/dc/elements/1.1/"
   xmlns:cc="http://creativecommons.org/ns#"
   xmlns:rdf="http://www.w3.org/1999/02/22-rdf-syntax-ns#"
   xmlns:svg="http://www.w3.org/2000/svg"
   xmlns="http://www.w3.org/2000/svg"
   xmlns:sodipodi="http://sodipodi.sourceforge.net/DTD/sodipodi-0.dtd"
   xmlns:inkscape="http://www.inkscape.org/namespaces/inkscape"
   version="1.1"
   width="118"
   height="141"
   id="svg2"
   xml:space="preserve"
   inkscape:version="0.48.4 r9939"
   sodipodi:docname="The_Football_League_1988_2004_.svg"><sodipodi:namedview
     pagecolor="#ffffff"
     bordercolor="#666666"
     borderopacity="1"
     objecttolerance="10"
     gridtolerance="10"
     guidetolerance="10"
     inkscape:pageopacity="0"
     inkscape:pageshadow="2"
     inkscape:window-width="1024"
     inkscape:window-height="714"
     id="namedview78"
     showgrid="false"
     inkscape:zoom="1"
     inkscape:cx="56.881248"
     inkscape:cy="79.816586"
     inkscape:window-x="-4"
     inkscape:window-y="-4"
     inkscape:window-maximized="1"
     inkscape:current-layer="svg2" /><metadata
     id="metadata8"><rdf:RDF><cc:Work
         rdf:about=""><dc:format>image/svg+xml</dc:format><dc:type
           rdf:resource="http://purl.org/dc/dcmitype/StillImage" /></cc:Work></rdf:RDF></metadata><defs
     id="defs6" /><g
     id="g3271"
     transform="translate(2,1.8500061)"><g
       id="g3198"><path
         d="m 101.56987,69.9825 c 0,24.68025 -20.00737,44.6875 -44.687495,44.6875 -24.68075,0 -44.688038,-20.00725 -44.688038,-44.6875 0,-24.680625 20.007288,-44.688 44.688038,-44.688 24.680125,0 44.687495,20.007375 44.687495,44.688"
         inkscape:connector-curvature="0"
         id="path14"
         style="fill:#214ca1;fill-opacity:1;fill-rule:nonzero;stroke:none" /><path
         d="m 46.330625,42.0015 14.6875,-16.40625 c 0,0 10.364625,1.25 14.427125,4.0625 l -11.041875,11.875 -18.07275,0.46875"
         inkscape:connector-curvature="0"
         id="path16"
         style="fill:#ed1c24;fill-opacity:1;fill-rule:nonzero;stroke:none" /><path
         d="m 83.674375,57.99125 17.499995,16.6665 c 0,0 -1.45762,10.5225 -4.16662,14.48 l -12.708375,-12.3965 -0.625,-18.75"
         inkscape:connector-curvature="0"
         id="path18"
         style="fill:#ed1c24;fill-opacity:1;fill-rule:nonzero;stroke:none" /><path
         d="m 70.44525,95.90775 -17.604,18.23 c 0,0 -10.729375,-2.08487 -14.375,-3.855 l 12.2915,-12.9165 19.6875,-1.4585"
         inkscape:connector-curvature="0"
         id="path20"
         style="fill:#ed1c24;fill-opacity:1;fill-rule:nonzero;stroke:none" /><path
         d="m 31.90375,83.20025 -18.9585,-18.4375 c 0,0 0.3125,-8.334375 3.75,-14.1675 l 13.125,12.396 2.0835,20.209"
         inkscape:connector-curvature="0"
         id="path22"
         style="fill:#ed1c24;fill-opacity:1;fill-rule:nonzero;stroke:none" /><path
         d="m 28.46625,59.03275 0,-23.5415 3.958125,-3.021 0,20.7295 -3.958125,5.833"
         inkscape:connector-curvature="0"
         id="path24"
         style="fill:#ed1c24;fill-opacity:1;fill-rule:nonzero;stroke:none" /><path
         d="m 69.924375,42.67875 28.958375,11.4585 1.5625,5.729 -22.5,-8.9585 -8.020875,-8.229"
         inkscape:connector-curvature="0"
         id="path26"
         style="fill:#ed1c24;fill-opacity:1;fill-rule:nonzero;stroke:none" /><path
         d="m 85.13275,79.13775 0.834,24.791 -4.479875,3.4375 0,-23.4375 3.645875,-4.791"
         inkscape:connector-curvature="0"
         id="path28"
         style="fill:#ed1c24;fill-opacity:1;fill-rule:nonzero;stroke:none" /><path
         d="m 41.486875,95.90775 -26.25,-10.2075 -1.458125,-5 25.9375,9.5825 1.770625,5.625"
         inkscape:connector-curvature="0"
         id="path30"
         style="fill:#ed1c24;fill-opacity:1;fill-rule:nonzero;stroke:none" /><path
         d="m 32.84125,53.82475 0,-21.875 -2.083875,1.458 0,21.9795 2.083875,-1.5625"
         inkscape:connector-curvature="0"
         id="path32"
         style="fill:#ffffff;fill-opacity:1;fill-rule:nonzero;stroke:none" /><path
         d="m 80.653375,85.80375 0,21.979 2.5,-1.6665 -0.520625,-22.8125 -1.979375,2.5"
         inkscape:connector-curvature="0"
         id="path34"
         style="fill:#ffffff;fill-opacity:1;fill-rule:nonzero;stroke:none" /><path
         d="m 13.77875,80.386375 21.5625,7.8125 0.416125,1.979875 -21.978625,-8.229875 0,-1.5625"
         inkscape:connector-curvature="0"
         id="path36"
         style="fill:#ffffff;fill-opacity:1;fill-rule:nonzero;stroke:none" /><path
         d="m 80.028375,51.84525 20.624995,8.3335 -0.4165,-2.1875 -22.708495,-9.1665 2.5,3.0205"
         inkscape:connector-curvature="0"
         id="path38"
         style="fill:#ffffff;fill-opacity:1;fill-rule:nonzero;stroke:none" /><path
         d="m 28.049375,35.490875 0,24.583"
         inkscape:connector-curvature="0"
         id="path40"
         style="fill:none;stroke:#ffffff;stroke-width:0.9375;stroke-linecap:butt;stroke-linejoin:miter;stroke-miterlimit:4;stroke-opacity:1;stroke-dasharray:none" /><path
         d="m 85.236875,78.92875 1.0415,24.7915"
         inkscape:connector-curvature="0"
         id="path42"
         style="fill:none;stroke:#ffffff;stroke-width:0.9375;stroke-linecap:butt;stroke-linejoin:miter;stroke-miterlimit:4;stroke-opacity:1;stroke-dasharray:none" /><path
         d="M 28.77875,61.74125 16.59125,50.07475"
         inkscape:connector-curvature="0"
         id="path44"
         style="fill:none;stroke:#ffffff;stroke-width:0.9375;stroke-linecap:butt;stroke-linejoin:miter;stroke-miterlimit:4;stroke-opacity:1;stroke-dasharray:none" /><path
         d="M 29.507375,80.49125 12.319825,64.448875"
         inkscape:connector-curvature="0"
         id="path46"
         style="fill:none;stroke:#ffffff;stroke-width:0.9375;stroke-linecap:butt;stroke-linejoin:miter;stroke-miterlimit:4;stroke-opacity:1;stroke-dasharray:none" /><path
         d="M 15.236875,85.70025 43.46625,96.636375"
         inkscape:connector-curvature="0"
         id="path48"
         style="fill:none;stroke:#ffffff;stroke-width:0.9375;stroke-linecap:butt;stroke-linejoin:miter;stroke-miterlimit:4;stroke-opacity:1;stroke-dasharray:none" /><path
         d="M 38.15375,110.38638 49.819875,98.30375"
         inkscape:connector-curvature="0"
         id="path50"
         style="fill:none;stroke:#ffffff;stroke-width:0.9375;stroke-linecap:butt;stroke-linejoin:miter;stroke-miterlimit:4;stroke-opacity:1;stroke-dasharray:none" /><path
         d="M 52.632375,114.44888 70.44525,95.90775"
         inkscape:connector-curvature="0"
         id="path52"
         style="fill:none;stroke:#ffffff;stroke-width:0.9375;stroke-linecap:butt;stroke-linejoin:miter;stroke-miterlimit:4;stroke-opacity:1;stroke-dasharray:none" /><path
         d="M 97.424375,89.448875 84.611875,77.15775"
         inkscape:connector-curvature="0"
         id="path54"
         style="fill:none;stroke:#ffffff;stroke-width:0.9375;stroke-linecap:butt;stroke-linejoin:miter;stroke-miterlimit:4;stroke-opacity:1;stroke-dasharray:none" /><path
         d="m 101.69525,74.761375 -18.75,-17.1875"
         inkscape:connector-curvature="0"
         id="path56"
         style="fill:none;stroke:#ffffff;stroke-width:0.9375;stroke-linecap:butt;stroke-linejoin:miter;stroke-miterlimit:4;stroke-opacity:1;stroke-dasharray:none" /><path
         d="M 68.778375,42.365875 99.19525,54.44975"
         inkscape:connector-curvature="0"
         id="path58"
         style="fill:none;stroke:#ffffff;stroke-width:0.9375;stroke-linecap:butt;stroke-linejoin:miter;stroke-miterlimit:4;stroke-opacity:1;stroke-dasharray:none" /><path
         d="m 76.07025,29.240875 -11.979375,12.5"
         inkscape:connector-curvature="0"
         id="path60"
         style="fill:none;stroke:#ffffff;stroke-width:0.9375;stroke-linecap:butt;stroke-linejoin:miter;stroke-miterlimit:4;stroke-opacity:1;stroke-dasharray:none" /><path
         d="m 61.486875,24.865875 -15.625,17.8125"
         inkscape:connector-curvature="0"
         id="path62"
         style="fill:none;stroke:#ffffff;stroke-width:0.9375;stroke-linecap:butt;stroke-linejoin:miter;stroke-miterlimit:4;stroke-opacity:1;stroke-dasharray:none" /><path
         d="m 86.799375,69.97025 c 0,16.5675 -13.432625,30 -30,30 -16.569375,0 -30,-13.4325 -30,-30 0,-16.567375 13.430625,-30 30,-30 16.567375,0 30,13.432625 30,30"
         inkscape:connector-curvature="0"
         id="path64"
         style="fill:#ffffff;fill-opacity:1;fill-rule:nonzero;stroke:none" /><path
         d="m 101.69525,69.65775 c 0,24.68025 -20.00675,44.6875 -44.6875,44.6875 -24.680625,0 -44.687925,-20.00725 -44.687925,-44.6875 0,-24.680125 20.0073,-44.6875 44.687925,-44.6875 24.68075,0 44.6875,20.007375 44.6875,44.6875 z"
         inkscape:connector-curvature="0"
         id="path66"
         style="fill:none;stroke:#ffffff;stroke-width:1.25;stroke-linecap:butt;stroke-linejoin:miter;stroke-miterlimit:4;stroke-opacity:1;stroke-dasharray:none" /><path
         d="m 44.40375,66.01275 11.770625,-8.75 12.2915,8.645 -4.0625,14.1675 -15.312125,0 -4.6875,-14.0625"
         inkscape:connector-curvature="0"
         id="path68"
         style="fill:#231f20;fill-opacity:1;fill-rule:nonzero;stroke:none" /><path
         d="m 32.632375,52.36625 2.5,10.4165 -8.4375,8.021 c 0,0 0.1045,-13.541 5.9375,-18.4375"
         inkscape:connector-curvature="0"
         id="path70"
         style="fill:#231f20;fill-opacity:1;fill-rule:nonzero;stroke:none" /><path
         d="m 56.382375,46.74125 -9.8955,-5.2085 c 0,0 9.6875,-3.4375 20.104,0 l -10.2085,5.2085"
         inkscape:connector-curvature="0"
         id="path72"
         style="fill:#231f20;fill-opacity:1;fill-rule:nonzero;stroke:none" /><path
         d="m 86.69525,70.38775 -8.125,-7.605 1.354125,-11.875 c 0,0 6.354875,6.7725 6.770875,19.48"
         inkscape:connector-curvature="0"
         id="path74"
         style="fill:#231f20;fill-opacity:1;fill-rule:nonzero;stroke:none" /><path
         d="m 65.549375,98.40775 4.895875,-10.625 11.666625,-1.979 c 0,0 -5.729125,9.479 -16.5625,12.604"
         inkscape:connector-curvature="0"
         id="path76"
         style="fill:#231f20;fill-opacity:1;fill-rule:nonzero;stroke:none" /><path
         d="m 49.507375,98.92875 -5.625,-10.8335 -11.458,-0.9375 c 0,0 4.479,8.021 17.083,11.771"
         inkscape:connector-curvature="0"
         id="path78"
         style="fill:#231f20;fill-opacity:1;fill-rule:nonzero;stroke:none" /><path
         d="m 34.507375,62.67875 10.9375,3.75"
         inkscape:connector-curvature="0"
         id="path80"
         style="fill:none;stroke:#231f20;stroke-width:0.9375;stroke-linecap:butt;stroke-linejoin:miter;stroke-miterlimit:4;stroke-opacity:1;stroke-dasharray:none" /><path
         d="m 56.278375,45.80375 0.104,12.3965"
         inkscape:connector-curvature="0"
         id="path82"
         style="fill:none;stroke:#231f20;stroke-width:0.9375;stroke-linecap:butt;stroke-linejoin:miter;stroke-miterlimit:4;stroke-opacity:1;stroke-dasharray:none" /><path
         d="m 79.299375,62.47025 -11.666625,3.855"
         inkscape:connector-curvature="0"
         id="path84"
         style="fill:none;stroke:#231f20;stroke-width:0.9375;stroke-linecap:butt;stroke-linejoin:miter;stroke-miterlimit:4;stroke-opacity:1;stroke-dasharray:none" /><path
         d="M 70.965875,88.30375 63.88275,79.34525"
         inkscape:connector-curvature="0"
         id="path86"
         style="fill:none;stroke:#231f20;stroke-width:0.9375;stroke-linecap:butt;stroke-linejoin:miter;stroke-miterlimit:4;stroke-opacity:1;stroke-dasharray:none" /><path
         d="m 49.611875,79.34525 -6.3545,9.7925"
         inkscape:connector-curvature="0"
         id="path88"
         style="fill:none;stroke:#231f20;stroke-width:0.9375;stroke-linecap:butt;stroke-linejoin:miter;stroke-miterlimit:4;stroke-opacity:1;stroke-dasharray:none" /><path
         d="m 86.799375,69.97025 c 0,16.5675 -13.432625,30 -30,30 -16.569375,0 -30,-13.4325 -30,-30 0,-16.567375 13.430625,-30 30,-30 16.567375,0 30,13.432625 30,30 z"
         inkscape:connector-curvature="0"
         id="path90"
         style="fill:none;stroke:#ffffff;stroke-width:1.25;stroke-linecap:butt;stroke-linejoin:miter;stroke-miterlimit:4;stroke-opacity:1;stroke-dasharray:none" /><path
         d="M 58.9575,0.54375 C 57.11275,0.66 55.868625,2.10625 55.816375,2.1675 54.8935,2.73625 54.316375,4.3925 54.63425,5.76875 54.8145,6.5475 55.4365,7.8925 57.577625,8.145 59.9145,8.42 63.55475,7.31375 67.07525,6.24375 69.061,5.64 70.936,5.07 72.40375,4.80625 c 2.0875,-0.375 2.8785,-0.08875 3.173375,0.21625 0.26275,0.2725 0.305625,0.73875 0.13825,1.51625 -0.175875,0.8225 -2.03525,1.7025 -4.736375,2.2425 L 66.503875,9.09375 63.81,9.50625 60.548375,10.035 l -2.003,0.16625 -0.9795,0.035 -2.019,0.0087 c 0,0 -0.09275,-0.0037 -0.183125,-0.0062 C 55.2685,10.01 55.15625,9.3925 55.15625,8.695 c 0,-0.185 0.0078,-0.3725 0.02638,-0.5525 0.0054,-0.05625 0.0082,-0.11125 0.0082,-0.16625 C 55.190875,7.1125 54.502,6.47875 53.99125,6.01 L 53.555625,5.5625 C 53.32325,5.17625 53.306625,5.0425 53.2285,4.40125 L 53.20163,4.18375 C 53.185,4.045 53.17775,3.91 53.17775,3.7775 c 0,-0.47125 0.09375,-0.905 0.172375,-1.27 l 0.05412,-0.25875 c 0.01075,-0.05 0.01563,-0.1 0.01563,-0.1475 0,-0.2425 -0.1215,-0.45875 -0.336875,-0.585 -0.567875,-0.33125 -1.67625,0.04875 -2.318375,0.5975 -0.4985,0.4275 -0.747,0.4225 -1.29,0.4125 l -0.27975,-0.00375 -1.99425,0.1225 -1.0625,0.0875 C 44.9395,2.825 44.587375,2.66375 43.5405,2.1875 c -0.73625,-0.33375 -1.04,-0.03 -1.139125,0.115 -0.086,0.12375 -0.121625,0.27625 -0.121625,0.44625 0,0.79625 0.7925,1.97 1.063,2.24 l 0.21975,0.33375 0.193875,0.75 c 0.02825,0.0775 0.04638,0.1375 0.04638,0.195 0,0.13875 -0.1045,0.26 -0.40525,0.55375 l -0.61875,0.68 c -0.229875,0.30625 -0.376375,0.56 -0.376375,0.81625 0,0.05 0.0054,0.1 0.017,0.15125 0.07287,0.3175 0.334,0.45375 0.544,0.5625 L 43.374,9.28875 43.527375,9.44 C 43.474125,9.50125 43.31,10.49125 43.31,10.49125 c 0,0.47 -0.1435,0.64625 -0.40425,0.96625 0,0 -0.5,0.7755 -0.562,0.87225 -0.09087,-0.1295 -0.181625,-0.258875 -0.181625,-0.258875 L 41.766625,11.4725 C 41.2695,10.76375 40.78275,8.815 40.461,7.5275 l -0.2955,-1.13 C 39.8315,5.2875 38.5815,3.71625 37.71,3.57 37.09125,3.4675 35.851125,3.34375 34.498,3.6825 33.587375,3.91 33.26075,4.485 33.022,4.905 c -0.1705,0.3 -0.277375,0.475 -0.494625,0.58375 -0.333,0.16625 -0.789625,0.395 -0.789625,0.84 0,0.4375 0.375,0.625 0.998125,0.93625 -10e-4,0 -10e-4,0 -10e-4,0 0,0.00125 0.559125,0.36875 0.796875,0.525 -0.0039,0.01875 -0.163125,0.71875 -0.163125,0.71875 l 0.1905,0.2725 c 0.271875,0.3175 0.8095,0.31125 1.378875,0.305 0,0 0.0205,0 0.02787,0 -0.002,0.0125 -0.0415,0.31125 -0.0415,0.31125 l -0.0665,0.5875 0.15675,0.29125 c 0.231,0.255 0.585,0.21875 0.92725,0.18375 l 0.28463,-0.02125 c 0.03175,0.0087 0.1085,0.0675 0.256375,0.36375 l 0,0 c 0,0.0225 0.108375,1.04275 0.108375,1.04275 l -0.106875,0.520125 c -0.06,0.119125 -0.081,0.2255 -0.081,0.318375 0,0.139125 0.04925,0.246 0.08925,0.31 0.164625,0.26025 0.45225,0.30025 0.724625,0.306125 -0.0063,0.1495 -0.01362,0.3135 -0.01362,0.3135 L 37.164,14.240875 37.061,16.398 c -0.0029,0.0645 -0.0044,0.1275 -0.0044,0.1895 0,0.714875 0.185625,1.264625 0.55275,1.6455 0.611875,0.63625 1.52925,0.631375 2.19925,0.6275 l 0.474625,0.01213 c 0.419875,0.05275 0.690375,0.6905 0.751875,0.90975 0.03912,0.1 0.298375,0.67475 -0.03363,1.148375 -0.2745,0.392125 -1.18125,1.01275 -4.162625,0.76025 -1.9995,-0.169875 -3.4365,0.423875 -4.273,1.764125 C 31.2065,25.635375 32.03275,29.11675 32.1265,29.274 l 0.31925,0.53125 c 0,0 2.74025,-2.9175 3.2945,-3.50725 0,0.01313 0.0029,0.01025 0.0029,0.02388 0,0.15725 -0.0097,0.349625 -0.03462,0.575625 -0.0049,0.043 -0.0074,0.08312 -0.0074,0.121125 0,0.3565 0.196875,0.507875 0.321875,0.567375 0.46825,0.224625 0.9135,-0.222625 1.80175,-1.11425 0,0 0.25725,-0.23575 0.4995,-0.4565 0.0078,0.158625 0.0405,0.40775 0.30275,0.547875 0.338375,0.183125 0.628375,-0.0089 1.11325,-0.327625 l 1.23725,-0.747125 c 1.525,-0.813 4.05575,-1.330625 5.07225,-1.514625 0.737375,-0.13425 1.74375,-0.0815 2.631875,-0.03513 l 1.13825,0.04238 c 0.240125,0 0.584875,-0.03125 0.805625,-0.29925 0.244125,-0.296375 0.172375,-0.665 0.103,-1.0225 -0.06487,-0.333 -0.1455,-0.749 -0.03512,-1.229 0.34125,-1.4785 1.03225,-3.062 1.284625,-3.273875 0.287625,-0.187 1.92675,-0.3125 2.807625,-0.380375 l 0.59475,-0.04687 c 1.224125,-0.102125 5.537625,-10e-4 6.471125,0.103 0.49225,0.05513 0.90625,0.575625 1.122125,0.941875 -0.32075,0.101125 -0.8945,0.207 -1.278375,0.207 L 59.5215,18.747125 58.940375,18.672 c -1.164,-0.146 -2.260625,1.38175 -2.3925,2.04 -0.09087,0.453125 -0.1685,0.69975 -0.53075,1.152875 -0.160625,0.200125 -0.192375,0.452625 -0.086,0.67625 0.44,0.914 3.752,1.022875 3.785125,1.022875 1.287125,0 1.6875,-0.2665 2.655875,-0.912 0.67625,-0.45025 4.712875,0.2915 5.398875,0.565875 0.1465,0.05862 0.6045,0.335 1.6895,1.63625 0.31825,0.38225 0.61025,0.370625 0.79825,0.293 0.32225,-0.131875 0.42725,-0.445375 0.42725,-1.067 0,-0.36275 -0.03563,-0.8305 -0.08538,-1.42725 -0.06112,-0.73675 -0.17825,-1.244125 -0.3565,-1.666875 0.06588,0.019 0.21825,0.061 0.21825,0.061 l 2.417,0.637125 2.7105,0.11825 c 0,0 0.108375,-0.0025 0.213375,-0.0049 0.0024,0.105 0.01462,0.556125 0.01462,0.556125 0.07075,0.354 0.329625,0.793875 0.56,1.141625 -0.118125,0.04438 -0.272875,0.102 -0.272875,0.102 L 75.234375,24.365375 74.751,24.84725 c -0.390625,0.15575 -0.4395,0.4375 -0.4395,0.567375 0,0.0059 0,0.01125 0.0015,0.01713 0.01412,0.46675 0.5185,0.667 1.229,0.898375 0.368625,0.132375 2.860375,1.5225 3.71675,2.058625 l 1.26375,1.101625 0.671375,0.638125 c 0.44425,0.3545 0.777375,0.24275 0.9365,0.1445 0.26125,-0.161125 0.389125,-0.46525 0.389125,-0.960875 0,-0.318875 -0.05362,-0.71775 -0.157625,-1.21 -0.001,-10e-4 -0.04013,-0.329625 -0.06937,-0.57375 0.318875,0.02787 0.751,-0.01112 0.979,-0.339375 0.05763,-0.0815 0.123,-0.21475 0.123,-0.396375 0,-0.13725 -0.03762,-0.30175 -0.147375,-0.49225 0,-0.001 -0.173375,-0.30225 -0.173375,-0.30225 L 82.03463,23.98888 c 0,0 -0.228,-0.722625 -0.411125,-1.305625 0.2725,0.02238 1.061125,0.08837 1.061125,0.08837 l 0,-0.509375 c 0,-0.102 -0.03663,-0.647875 -0.76325,-1.3735 -0.24563,-0.2465 -0.25238,-0.370625 -0.25238,-0.3715 l 0.1035,-0.1705 -0.0415,-0.183625 C 81.278375,18.442 79.215375,17.167625 77.983375,16.405875 L 77.308625,15.9645 76.604,15.415625 C 75.891125,14.873625 74.9155,14.1315 74.577625,13.656875 74.298375,13.26625 74.190375,12.2955 74.165,11.60625 75.73825,10.96375 78.4985,9.0675 79.02925,6.73 c 0.05763,-0.25125 0.086,-0.49875 0.086,-0.7425 0,-0.90875 -0.392125,-1.76125 -1.15625,-2.5 C 74.847125,0.48 66.92475,3.5025 63.942875,4.64125 L 63.40825,4.8425 c -1.88725,0.69625 -3.6675,0.79375 -5.4415,0.30125 -0.44775,-0.125 -0.54,-0.23625 -0.5415,-0.2375 0.0445,0.03375 0.2315,-0.09 0.405375,-0.1875 4.46825,0.66 5.554125,-1.17375 6.19375,-2.28375 l 0.3155,-0.48875 C 64.638625,1.60375 64.534625,1.29 64.4765,1.17125 64.361875,0.9375 64.01275,0.2275 58.9575,0.54375"
         inkscape:connector-curvature="0"
         id="path92"
         style="fill:#ed1c24;fill-opacity:1;fill-rule:nonzero;stroke:none" /><path
         d="m 75.463875,26.798875 c -0.0015,0 -0.0064,-0.0014 -0.01125,-0.0039 l 0.0097,0.0039 c 0.0015,0 0.0015,0 0.0015,0 l 0,0 z m -0.01713,-0.0062 c -0.0064,-0.002 -0.01312,-0.004 -0.01212,-0.004 8.75e-4,0 8.75e-4,0 0.0024,0 0.0034,10e-4 0.0064,0.003 0.0097,0.004 l 0,0 z M 74.555625,24.4235 c 0,0 10e-4,-5e-4 0.004,-0.002 -0.0015,5e-4 -0.003,0.0015 -0.004,0.002 l 0,0 z m 0.01225,-0.0069 c 0.0024,-5e-4 0.0049,-0.002 0.0074,-0.003 -0.0025,0.001 -0.005,0.0025 -0.0074,0.003 l 0,0 z m 7.54975,-4.0235 c -8.75e-4,-8.75e-4 -8.75e-4,-0.0019 -8.75e-4,-0.0024 0,0.0015 8.75e-4,0.0019 8.75e-4,0.0024 l 0,0 z m -29.92475,-1.81925 c 0,0 10e-4,0 10e-4,-5e-4 -10e-4,5e-4 -10e-4,5e-4 -10e-4,5e-4 l 0,0 z m 0.109375,-0.07863 c 0.002,-0.002 0.0034,-0.0044 0.0064,-0.0069 0,5e-4 -0.003,0.0029 -0.0064,0.0069 l 0,0 z M 41.816875,12.317 c 0,0 10e-4,-5e-4 0.0015,-10e-4 -5e-4,5e-4 -0.0015,10e-4 -0.0015,10e-4 l 0,0 z m -5.78075,-1.367 c -5e-4,-0.0025 -5e-4,-0.0038 -5e-4,-0.0038 0,0.0013 5e-4,0.0025 5e-4,0.0038 l 0,0 z M 32.525375,7.685 C 32.5195,7.6825 32.514125,7.67875 32.50825,7.67625 32.514125,7.67875 32.52,7.6825 32.525375,7.685 l 0,0 z M 32.4975,7.67 c -0.0057,-0.00375 -0.01213,-0.00625 -0.018,-0.01 0.0059,0.00375 0.01225,0.00625 0.018,0.01 l 0,0 z M 58.353,8.6575 c 2.394125,0 5.67925,-0.99875 8.8555,-1.96375 1.973625,-0.6 3.837375,-1.16625 5.276875,-1.425 0.631375,-0.1125 1.17825,-0.17 1.6235,-0.17 0.861875,0 1.09525,0.20625 1.1465,0.26875 0.084,0.10375 0.152375,0.37375 0.0024,1.07375 -0.08688,0.4075 -1.3515,1.2775 -4.3715,1.8825 -0.69,0.1375 -1.334,0.1375 -2.015125,0.1375 -0.754375,0 -1.53475,0 -2.452625,0.1725 -0.72025,0.135 -1.713875,0.275 -2.674875,0.41 -1.2885,0.18125 -2.50825,0.3525 -3.30175,0.535 -0.601,0.14 -1.106375,0.15875 -1.522875,0.15875 -0.120625,0 -0.237375,-0.00125 -0.34875,-0.00375 l -0.02488,0 c -0.11325,-0.00125 -0.224125,-0.0025 -0.33,-0.0025 -0.19725,0 -0.456125,0.005 -0.7125,0.04 C 57.377875,9.78875 57.1465,9.81 56.728,9.81 56.378875,9.81 56.01225,9.79625 55.715375,9.78375 55.6445,9.385 55.59325,8.745 55.6485,8.18875 55.65475,8.12 55.65875,8.05125 55.659125,7.985 56.17475,8.3125 56.80325,8.52625 57.522,8.61125 c 0.251875,0.03 0.533125,0.04625 0.831,0.04625 l 0,0 z m -3.338375,-3.68 c 5e-4,-1.04 0.493125,-2.0775 1.15975,-2.50625 0,0 1.145875,-1.35375 2.8125,-1.45875 0.553625,-0.03375 1.3735,-0.06875 2.19475,-0.06875 1.4395,0 2.878375,0.10625 2.892125,0.50375 10e-4,0.0575 -0.02587,0.12 -0.08688,0.19 -0.63087,0.72125 -0.951245,2.7675 -4.39512,2.7675 -0.5385,0 -1.15225,-0.04875 -1.854875,-0.1625 0,0 -0.754,0.35375 -0.757375,0.745 -0.002,0.20875 0.2095,0.4275 0.861375,0.60875 0.77975,0.2175 1.561,0.32625 2.3495,0.32625 1.1045,0 2.225125,-0.2125 3.379875,-0.63875 1.424875,-0.525 6.47375,-2.6175 10.354125,-2.6175 1.505375,0 2.834375,0.315 3.708375,1.15875 0.72025,0.69625 1.01475,1.43125 1.01475,2.15875 -0.0025,2.43 -3.290125,4.78 -4.973125,5.34125 0,0 0,1.87575 0.520875,2.60475 0.520625,0.7285 2.1875,1.875 2.8125,2.395 0.625,0.521 3.749125,1.978625 4.270625,3.9585 l 0,0 c 0,0 -0.07813,0.07813 -0.07813,0.234375 0,0.15625 0.07813,0.390625 0.390625,0.703125 0.625,0.625 0.625,1.0415 0.625,1.0415 l 0,0 -1.25,-0.104 c 0,0 0.127875,0.4175 0.27775,0.8955 l 0,0 c 0.0079,0.023 0.01463,0.0465 0.0225,0.06938 l 0,0 c 0.11325,0.36475 0.23775,0.753 0.32475,1.014125 0.2085,0.625 0.8325,1.666125 1.25,2.396 0.05712,0.102125 0.08388,0.185625 0.08388,0.254 0.005,0.244125 -0.302625,0.294875 -0.562875,0.294875 -0.1905,0 -0.354125,-0.02738 -0.354125,-0.02738 0,0 -0.0385,-0.02775 -0.083,-0.02775 -0.062,0 -0.137625,0.05712 -0.137625,0.332 0,0.138625 0.018,0.3325 0.06838,0.6025 l 0,0 c 0.0014,0.0069 0.0024,0.01275 0.0034,0.01912 l 0,0 c 0.01275,0.06825 0.02738,0.1415 0.0445,0.219125 0.09862,0.4615 0.145,0.828625 0.146,1.102125 0.0029,0.400375 -0.09287,0.600625 -0.26375,0.600625 -0.083,0 -0.184125,-0.0465 -0.29875,-0.14025 -0.521,-0.4165 -1.145125,-1.249 -1.979125,-1.77 -0.833375,-0.5215 -3.4375,-1.98 -3.75,-2.084 -0.250875,-0.083 -0.975,-0.302625 -0.9775,-0.493125 0,-0.04638 0.043,-0.09075 0.144125,-0.131875 0.4955,-0.19825 0.80075,-0.959875 1.27675,-1.213875 l 0,0 c 0.01075,-0.0063 0.022,-0.01163 0.03425,-0.017 l 0,0 c 0.01313,-0.0069 0.02775,-0.01275 0.043,-0.01913 0.521,-0.2085 0.8335,-0.3125 0.8335,-0.3125 0,0 -0.73,-0.9375 -0.8335,-1.4585 -0.01863,-0.08925 -0.0235,-0.17575 -0.0235,-0.25725 0.0015,-0.15625 0.0235,-0.295375 0.0235,-0.40625 0,-0.17 -0.05275,-0.274 -0.3125,-0.274 -0.26025,0 -0.650875,0.02587 -1.15875,0.02587 -0.50775,0 -1.13275,-0.02587 -1.861875,-0.129875 -1.19325,-0.169875 -3.223625,-0.96725 -3.637125,-0.96725 -0.04937,0 -0.07625,0.01175 -0.07475,0.03613 0,0.0215 0.022,0.05375 0.066,0.09763 0.202625,0.20275 0.357875,0.405375 0.4785,0.65 l 0,0 c 0.04875,0.102 0.09275,0.210875 0.13175,0.33 l 0,0 c 0.1085,0.334 0.17675,0.7495 0.223125,1.3125 0.04162,0.51075 0.0845,1.021 0.0845,1.403875 0,0.38225 -0.0415,0.637625 -0.169375,0.637625 -0.05763,0 -0.132375,-0.05125 -0.227625,-0.1665 -0.520875,-0.625 -1.3535,-1.563875 -1.875,-1.7715 -0.3955,-0.157125 -2.994125,-0.732375 -4.643,-0.732375 -0.52975,0 -0.963375,0.0605 -1.190375,0.211375 -0.9375,0.625 -1.25,0.8335 -2.396,0.8335 -1.066,0 -3.391125,-0.36075 -3.3785,-0.8295 5e-4,-0.03525 0.01512,-0.07137 0.0445,-0.108 0.4175,-0.521 0.5215,-0.8325 0.625,-1.3535 0.1,-0.5 0.96725,-1.672375 1.774875,-1.672375 0.03363,0 0.06638,10e-4 0.100125,0.0049 0.834,0.105 2.2925,0.3125 2.813375,0.3125 0.5045,0 1.88875,-0.19475 1.880375,-0.490625 0,-0.0098 -0.0014,-0.01963 -0.0054,-0.02938 -0.104375,-0.3125 -0.729375,-1.459 -1.666875,-1.5625 -0.664625,-0.07412 -3.047875,-0.147375 -4.828625,-0.147375 -0.736875,0 -1.369125,0.01213 -1.733875,0.04238 -1.25,0.105 -3.23,0.2085 -3.6465,0.521 -0.416,0.3125 -1.145,2.1875 -1.4575,3.5415 -0.04887,0.2115 -0.0675,0.41075 -0.0675,0.59575 -3.75e-4,0.545875 0.15725,0.97025 0.15725,1.243125 0,0.226625 -0.108875,0.348625 -0.50725,0.348625 -0.695375,0 -1.666,-0.09125 -2.577625,-0.09125 -0.454625,0 -0.894625,0.023 -1.275875,0.09125 -1.1465,0.2085 -3.6465,0.73 -5.209,1.5625 -1.12013,0.59723 -1.65088,1.088855 -1.86288,1.088855 -0.0835,0 -0.115625,-0.07763 -0.115625,-0.255375 0,-0.08587 0.0175,-0.178125 0.04638,-0.271 l 0,0 c 0.108875,-0.35975 0.3745,-0.73525 0.369625,-0.84175 -0.001,-0.0195 -0.01025,-0.02975 -0.03125,-0.02975 -0.05125,0 -0.1675,0.0605 -0.38475,0.205 -0.78275,0.5215 -2.144125,2.20175 -2.51425,2.20175 -0.06,0 -0.09375,-0.044 -0.09425,-0.144125 -5e-4,-0.02338 0.0015,-0.04925 0.0045,-0.07862 0.0175,-0.163 0.02925,-0.32325 0.03413,-0.473125 l 0,0 C 36.21,26.4435 36.2105,26.41175 36.211,26.38 l 0,0 c 0,-0.01512 0,-0.03075 0,-0.04637 8.75e-4,-0.48688 -0.07775,-0.84763 -0.257375,-0.84763 -0.05712,0 -0.121625,0.03462 -0.19675,0.10975 -0.416,0.4165 -3.2285,3.4375 -3.2285,3.4375 0,0 -0.267625,-1.052625 -0.269625,-2.336375 -0.0044,-2.002 0.63675,-4.565 3.9395,-4.565 0.190875,0 0.391125,0.0094 0.601125,0.02637 0.48775,0.043 0.927625,0.06162 1.323625,0.06162 3,0 3.517625,-1.089875 3.51475,-1.84825 -0.0015,-0.40325 -0.150875,-0.713375 -0.150875,-0.713375 0,0 -0.3125,-1.146 -1.146,-1.25 -0.109875,-0.01212 -0.24125,-0.01462 -0.38525,-0.01462 -0.05037,0 -0.102625,0 -0.155375,0 -0.04875,0.001 -0.09862,0.001 -0.147875,0.001 -0.9205,0 -2.1285,-0.0845 -2.128,-1.794 0,-0.05562 10e-4,-0.11275 0.004,-0.170875 0,0 0.104375,-1.563875 0.104375,-2.188875 0,-0.351625 0.0665,-0.7525 0.06788,-1.03575 0.0015,-0.221125 -0.03613,-0.3705 -0.17225,-0.3705 -0.07912,0 -0.1675,0.0039 -0.2545,0.0039 -0.2065,0 -0.400375,-0.01912 -0.40175,-0.152375 -5e-4,-0.03025 0.0093,-0.06688 0.03125,-0.111375 0.15625,-0.3125 0.15625,-0.46875 0.15625,-0.729 0,-0.26075 -0.05187,-1.042 -0.15625,-1.2495 -0.104,-0.20875 -0.311625,-0.625 -0.676875,-0.625 -0.198625,0 -0.458375,0.04625 -0.645875,0.04625 -0.143125,0 -0.24375,-0.0275 -0.24325,-0.12 0,-0.01 5e-4,-0.02 0.0035,-0.03125 0.04925,-0.24375 0.05225,-0.25875 0.05225,-0.4325 0,-0.0025 0,-0.005 0,-0.00875 0,-0.0025 0,-0.00625 0,-0.00875 0,-0.0025 0,-0.00625 0,-0.01 0,-0.0025 0,-0.005 0,-0.00875 0,-0.10375 0.06538,-0.29875 0.06538,-0.46875 C 35.459,8.76 35.3935,8.61625 35.13275,8.61625 35.002,8.61625 34.854,8.62 34.707,8.62 c -0.4165,0 -0.82425,-0.02625 -0.826125,-0.2325 0,-0.01 5e-4,-0.02125 0.0019,-0.03125 0.05187,-0.3125 0.15625,-0.5725 0.15625,-0.72875 0,-0.15625 -1.094625,-0.78125 -1.094625,-0.78125 -0.46825,-0.23375 -0.73925,-0.37 -0.73875,-0.5175 0.0014,-0.11625 0.1665,-0.2375 0.53125,-0.42 C 33.5694,5.4925 33.3619,4.45 34.6119,4.1375 35.236875,3.98125 35.8355,3.93 36.3555,3.93 c 0.5215,0 0.963875,0.05125 1.276375,0.10375 0.625,0.10375 1.7715,1.4575 2.084,2.5 0.3125,1.04125 0.9375,4.1675 1.666,5.2085 0.492625,0.704625 0.7475,1.266125 0.99025,1.266125 0.115625,0 0.2285,-0.129875 0.36475,-0.433625 0.4165,-0.93725 1.0415,-1.041 1.0415,-2.08225 0,-0.65125 0.2035,-0.89625 0.2035,-1.115 0,-0.13 -0.07313,-0.2525 -0.3075,-0.4475 C 43.2495,8.57625 42.8725,8.5575 42.871125,8.3225 c -5e-4,-0.1125 0.0815,-0.2725 0.28225,-0.53875 0.521875,-0.6975 1.117125,-0.9575 1.115125,-1.51 0,-0.10875 -0.02288,-0.22875 -0.07413,-0.365 -0.3125,-0.83375 0,-0.73 -0.52,-1.25 -0.352125,-0.35125 -0.942,-1.415 -0.935625,-1.90875 0.002,-0.1575 0.0645,-0.2575 0.215375,-0.2575 0.07763,0 0.17625,0.02625 0.30275,0.0825 0.954125,0.435 1.40225,0.6525 2.307625,0.6525 0.182625,0 0.38225,-0.00875 0.609875,-0.0275 1.354,-0.10375 2.2915,-0.2075 3.02,-0.2075 0.181125,0 0.34375,0.0075 0.496,0.0075 0.4605,0 0.831625,-0.05875 1.379,-0.52875 0.44475,-0.38125 1.084,-0.6075 1.48975,-0.6075 0.23575,0 0.393,0.075 0.3915,0.24125 -8.75e-4,0.01625 -0.0024,0.03375 -0.0063,0.05375 C 52.860375,2.5825 52.706,3.1425 52.708,3.785 c 0.001,0.14875 0.0093,0.30125 0.02887,0.4575 0.104,0.8325 0.104,1.04125 0.4165,1.5625 0.30025,0.49875 1.562875,1.1925 1.567875,2.17125 3.75e-4,0.03875 -0.0015,0.08 -0.0054,0.12 -0.01912,0.1875 -0.02787,0.39125 -0.02687,0.6 10e-4,0.9525 0.1865,2.00375 0.442875,2.00375 0.2075,0 0.92525,0.0475 1.596125,0.0475 0.3365,0 0.660125,-0.0125 0.903875,-0.0475 0.180125,-0.025 0.3735,-0.03125 0.5835,-0.03125 0.107375,0 0.21925,0.0013 0.334875,0.0025 0.11825,0.0025 0.23975,0.0038 0.36875,0.0038 0.491125,0 1.0615,-0.02625 1.734375,-0.1825 1.354375,-0.3125 4.27,-0.625 5.9375,-0.9375 1.666875,-0.3125 2.916875,0 4.479375,-0.3125 1.5625,-0.3125 4.791625,-1.14625 5.104125,-2.605 0.0625,-0.29125 0.108875,-0.58625 0.108875,-0.86625 0.0019,-0.8775 -0.433625,-1.61 -2.174375,-1.61 -0.48675,0 -1.076625,0.0575 -1.788625,0.185 C 68.517125,5.02875 62.067875,7.72 58.353,7.72 58.099625,7.72 57.858375,7.7075 57.631875,7.68 55.7095,7.45375 55.014625,6.21375 55.014625,4.9775 l 0,0 z m 6.167,-4.97125 c -0.98875,0 -1.90375,0.04875 -2.251875,0.07 C 57.164,0.1875 55.900875,1.39125 55.55375,1.76 54.522,2.5025 53.931125,4.05 54.106875,5.4775 54.036125,5.41 53.976125,5.34875 53.952125,5.315 c -0.17675,-0.29375 -0.184,-0.3575 -0.25775,-0.97 L 53.667,4.12625 c -0.06887,-0.55 0.042,-1.06375 0.141125,-1.51875 0.02,-0.0925 0.039,-0.1825 0.05613,-0.26625 0.06887,-0.34875 -0.01613,-0.69875 -0.23238,-0.96125 -0.17,-0.2075 -0.494125,-0.45375 -1.07275,-0.45375 -0.674875,0 -1.518625,0.335 -2.099625,0.8325 -0.354,0.30375 -0.5015,0.30375 -0.769125,0.30375 -0.06638,0 -0.13375,-0.00125 -0.205,-0.00375 -0.09225,-0.00125 -0.1885,-0.00375 -0.291,-0.00375 -0.557125,0 -1.204625,0.055 -2.025,0.12375 C 46.84575,2.20625 46.49175,2.235 46.103,2.265 45.898,2.2825 45.724625,2.29 45.5645,2.29 44.890625,2.29 44.598125,2.15625 43.7295,1.76 L 43.6455,1.7225 C 43.391625,1.60875 43.1685,1.555 42.954125,1.555 42.4795,1.555 42.07475,1.8225 41.897,2.2525 c -0.459,1.11125 0.90425,2.86 1.11525,3.07 0.04,0.04 0.06875,0.07125 0.08888,0.0925 0.02237,0.15875 0.0625,0.415 0.21425,0.8175 -0.058,0.06875 -0.1635,0.17375 -0.246,0.25375 -0.192875,0.1875 -0.43125,0.42125 -0.6665,0.735 -0.20125,0.2675 -0.57475,0.76625 -0.4415,1.35125 0.121625,0.53125 0.55475,0.755 0.786125,0.875 0.07475,0.03875 0.145625,0.07625 0.215875,0.12125 -0.061,0.21625 -0.1225,0.51625 -0.1225,0.92375 0,0.3025 -0.05762,0.3725 -0.299375,0.67 C 42.473625,11.24625 42.397,11.34 42.316375,11.45 42.264125,11.37125 42.2095,11.28875 42.150875,11.205 41.702625,10.56625 41.209,8.59375 40.9155,7.415 40.798375,6.94875 40.69825,6.54625 40.61275,6.26375 40.277375,5.13875 38.976125,3.30625 37.785625,3.10875 37.47075,3.05625 36.964375,2.9925 36.3555,2.9925 c -0.682125,0 -1.34625,0.07875 -1.97125,0.235 -1.105,0.2775 -1.506375,0.98125 -1.77,1.4475 -0.142625,0.25 -0.205125,0.34875 -0.295875,0.395 -0.36675,0.1825 -1.048875,0.52375 -1.05025,1.25875 0,0.71875 0.597625,1.025 1.23625,1.345 C 32.67575,7.7725 32.8545,7.8825 33.0025,7.9775 c -0.01612,0.07125 -0.03125,0.14625 -0.045,0.2275 -0.05375,0.31125 0.03475,0.6325 0.23925,0.87625 0.314,0.3725 0.775875,0.455 1.25,0.4725 -0.0059,0.0325 -0.01513,0.08 -0.02488,0.1275 -0.064,0.31375 0.01362,0.63125 0.211375,0.8725 0.21825,0.26625 0.537125,0.40125 0.947375,0.40125 0.140125,0 0.27725,-0.01375 0.408625,-0.0275 0.0093,-0.0013 0.019,-0.0025 0.02887,-0.0025 0.0087,0.015 0.0165,0.03125 0.02388,0.04625 0.0395,0.1675 0.08012,0.6425 0.08012,0.8745 0,0.195375 0,0.195375 -0.05762,0.310125 -0.182625,0.36525 -0.172875,0.75875 0.02637,1.0805 0.167375,0.271 0.406625,0.405875 0.63275,0.47275 -0.01512,0.168375 -0.02837,0.35 -0.02837,0.53175 0,0.586375 -0.101,2.10975 -0.1025,2.126375 l -10e-4,0.0098 0,0.01175 c -0.0415,0.92725 0.186125,1.65675 0.673875,2.167 0.743125,0.776375 1.8525,0.776375 2.38675,0.776375 0.05712,0 0.11575,0 0.171875,-10e-4 -0.0074,0 -0.01563,0 -0.024,0 l 0.155375,0 c 0.09275,0 0.208375,10e-4 0.27875,0.0089 0.06587,0.0083 0.267625,0.2895 0.349625,0.57225 l 0.019,0.06537 0.03513,0.08113 c 0.021,0.05262 0.13575,0.366125 -0.01262,0.59225 -0.09625,0.1475 -0.564,0.631375 -2.5025,0.631375 -0.38525,0 -0.80275,-0.02012 -1.242625,-0.05712 -0.23825,-0.02013 -0.466375,-0.03087 -0.682125,-0.03087 -1.65525,0 -2.92475,0.55425 -3.774875,1.647 -1.8145,2.331125 -0.84675,6.257375 -0.80425,6.421875 l 0.422375,1.6675 1.172875,-1.25825 c 0.546875,-0.587875 1.3945,-1.496625 2.086875,-2.235375 0.04537,0.123 0.11275,0.234375 0.201625,0.334 0.192875,0.214875 0.46975,0.338875 0.76125,0.338875 0.590375,0 1.05275,-0.463875 1.891125,-1.30625 0.003,-0.0024 0.0049,-0.0049 0.0069,-0.0072 0.229,0.228 0.52975,0.304625 0.731875,0.304625 0.38625,0 0.671375,-0.188875 1.104,-0.472625 0.28525,-0.1885 0.676375,-0.44725 1.20025,-0.726 1.463375,-0.780375 3.9385,-1.28625 4.9345,-1.467375 0.28375,-0.05125 0.6475,-0.07662 1.109,-0.07662 0.462875,0 0.94475,0.02538 1.411125,0.04887 0.419875,0.02288 0.817875,0.04238 1.1665,0.04238 0.192375,0 0.78025,0 1.1675,-0.470125 0.38525,-0.466375 0.27925,-1.01125 0.201125,-1.40875 -0.0625,-0.32075 -0.126,-0.651375 -0.03763,-1.035125 0.28275,-1.225625 0.84475,-2.605 1.112375,-2.98825 0.4365,-0.13975 1.79825,-0.244625 2.55175,-0.30275 0.212375,-0.01663 0.4165,-0.03225 0.604875,-0.04887 0.215875,-0.0175 0.68125,-0.0385 1.655375,-0.0385 1.856875,0 4.150875,0.07763 4.724625,0.141125 0.10975,0.01262 0.2285,0.0825 0.34175,0.180125 -0.166,0.0205 -0.326125,0.03363 -0.445875,0.03363 -0.357375,0 -1.429125,-0.140125 -2.139625,-0.233875 C 59.353,18.252 59.1645,18.228125 58.999,18.207625 l -0.0072,-0.0015 -0.0059,0 c -0.0655,-0.0078 -0.131375,-0.01125 -0.204125,-0.01125 -1.348625,0 -2.527375,1.592375 -2.693375,2.425875 -0.081,0.407625 -0.13375,0.57125 -0.438,0.951625 -0.2725,0.339875 -0.326125,0.788625 -0.142625,1.172375 0.246625,0.512625 0.839375,0.817375 2.0455,1.054625 0.722625,0.143125 1.57075,0.233875 2.162625,0.233875 1.420875,0 1.919875,-0.326625 2.896375,-0.977 0.0415,-0.01462 0.224625,-0.06787 0.69,-0.06787 1.504875,0 3.952125,0.539125 4.29925,0.668 0.01175,0.0049 0.401375,0.183625 1.499125,1.498 0.274375,0.334 0.595125,0.504375 0.94725,0.504375 0.29,0 0.56,-0.119125 0.75875,-0.334875 0.42625,-0.462875 0.388625,-1.15925 0.263625,-2.69 l -0.0034,-0.03075 C 71.039,22.26225 71.001,21.961 70.952125,21.691 c 0.632375,0.191375 1.312,0.379875 1.860375,0.4585 0.659125,0.09425 1.312,0.138625 1.994625,0.138625 0.191375,0 0.36725,-0.0034 0.524875,-0.0083 0.0059,0.05375 0.01463,0.109375 0.02538,0.166 0.05275,0.26175 0.183125,0.55525 0.3375,0.833 -0.361375,0.212 -0.61525,0.529875 -0.82675,0.795 C 74.773875,24.192 74.63275,24.36875 74.563,24.419 c -0.546875,0.22275 -0.73,0.67625 -0.71875,1.027375 0.02688,0.8325 0.909125,1.121125 1.55375,1.331125 l 0.05363,0.017 c 0.3775,0.164125 2.694375,1.45175 3.558125,1.99275 0.43025,0.2675 0.826625,0.67375 1.17675,1.03175 0.245625,0.2495 0.476625,0.48575 0.715875,0.67575 0.27775,0.2275 0.577125,0.34525 0.88325,0.34525 0.341875,0 0.663125,-0.153875 0.881875,-0.424375 0.371125,-0.457 0.416,-1.17825 0.152375,-2.412125 -0.0025,-0.0087 -0.0049,-0.0175 -0.0059,-0.02587 0.499,-0.102 0.75925,-0.368125 0.893,-0.599125 0.130875,-0.226 0.298375,-0.69475 -0.05125,-1.308625 -0.05712,-0.1 -0.11675,-0.202625 -0.17925,-0.31 -0.356375,-0.618625 -0.845625,-1.46775 -0.997,-1.919875 -0.05613,-0.1695 -0.129375,-0.394625 -0.204125,-0.632375 l 0.878,0.07325 0,-1.018625 c 0,-0.23875 -0.0845,-0.8725 -0.862375,-1.665 L 82.32175,20.566 82.184125,20.0445 C 81.684625,18.14225 79.5215,16.80625 78.23,16.008375 c -0.249,-0.15525 -0.53375,-0.33 -0.621625,-0.40325 C 77.424375,15.45125 77.17625,15.26375 76.891125,15.046 76.27925,14.580625 75.256375,13.803375 74.96,13.384375 74.808625,13.174375 74.690875,12.55425 74.639625,11.943 76.361375,11.13875 78.94625,9.2075 79.48725,6.835 79.700625,5.89125 79.667,4.48625 78.28375,3.15125 77.307125,2.2075 75.84125,1.72875 73.924375,1.72875 c -3.66075,0 -8.209,1.735 -10.15,2.47625 -0.209,0.07875 -0.38575,0.1475 -0.52725,0.19875 C 63.065,4.47 62.88575,4.53125 62.7075,4.5875 63.662125,4.0025 64.1225,3.205 64.431125,2.67125 64.526375,2.50375 64.6265,2.33 64.692375,2.255 l 0.0015,0 c 0.32425,-0.3725 0.40625,-0.8425 0.21825,-1.2575 C 64.57525,0.25625 63.63375,0.00625 61.181625,0.00625 l 0,0"
         inkscape:connector-curvature="0"
         id="path94"
         style="fill:#ffffff;fill-opacity:1;fill-rule:nonzero;stroke:none" /><path
         d="m 45.65375,7.47 c 0,0 1.353625,0.10375 2.083125,0 l 0.208375,1.14625 c 0,0 -1.0415,-0.20875 -2.2915,-1.14625"
         inkscape:connector-curvature="0"
         id="path96"
         style="fill:#ffffff;fill-opacity:1;fill-rule:nonzero;stroke:none" /><path
         d="m 51.76275,6.82625 c 0,0 -1.2915,0.41875 -2.0255,0.48875 l 0.0665,1.16375 c 0,0 0.962875,-0.4475 1.959,-1.6525"
         inkscape:connector-curvature="0"
         id="path98"
         style="fill:#ffffff;fill-opacity:1;fill-rule:nonzero;stroke:none" /><path
         d="m 8.792975,67.946375 0.3378875,7.8965 -2.640625,0.126 -0.017087,-0.376 c 0.9414,-0.165 1.5649375,-0.546875 1.8740125,-1.1465 0.169925,-0.336875 0.249025,-0.831 0.2378,-1.48675 L 1.67725,73.255 C 1.1938475,73.276 0.876465,73.373625 0.7265625,73.549375 0.575195,73.72525 0.51025375,74.080125 0.53369125,74.61625 L 0.200195,74.631 0,69.936125 0.3344725,69.9215 c 0.0219725,0.52 0.1171875,0.860375 0.28320375,1.023875 0.16748,0.165125 0.49072245,0.236875 0.96923625,0.216375 L 8.4961,70.86725 C 8.4506875,70.226625 8.3315375,69.739375 8.1308625,69.406375 7.7622125,68.792125 7.1079125,68.465 6.1669875,68.4235 L 6.15235,68.0465 8.792975,67.946375"
         inkscape:connector-curvature="0"
         id="path100"
         style="fill:#231f20;fill-opacity:1;fill-rule:nonzero;stroke:none" /><path
         d="m 0.78125,78.211 c 0.0976563,0.338375 0.20263625,0.568875 0.313965,0.692375 0.18896,0.206125 0.4687475,0.266125 0.83936,0.17825 L 8.1191375,77.63 C 8.479,77.546 8.698725,77.382375 8.77685,77.13925 8.8208,76.99275 8.8169,76.725625 8.7661125,76.3375 l 0.324225,-0.07563 1.0156255,4.327125 -0.325688,0.07712 C 9.67285,80.296 9.5629875,80.0485 9.449225,79.9215 c -0.1875,-0.21 -0.4672875,-0.271 -0.83595,-0.184625 l -2.6513625,0.621625 0.7119125,3.035625 2.65235,-0.6225 C 9.6933625,82.685125 9.9160125,82.51275 9.9902375,82.253 10.03565,82.091875 10.025875,81.816 9.9585,81.4215 l 0.3247,-0.07662 1.024413,4.356375 -0.326163,0.07712 C 10.864263,85.41075 10.750975,85.166625 10.641113,85.0485 10.457525,84.84925 10.18555,84.793125 9.821775,84.8785 l -6.18505,1.451625 c -0.3759875,0.0865 -0.601075,0.2735 -0.6738375,0.559125 -0.046387,0.163625 -0.034663,0.4185 0.0337,0.76175 L 2.6709,87.727625 1.64795,83.372125 1.9736375,83.2955 c 0.099113,0.36375 0.2099625,0.61275 0.3334875,0.747125 0.188975,0.206 0.467775,0.267 0.8339875,0.180625 l 2.93945,-0.69 -0.7119125,-3.034625 -2.9409125,0.69 c -0.3794,0.08888 -0.6040125,0.27825 -0.67725,0.566375 -0.039063,0.167 -0.02295,0.42825 0.046388,0.783625 L 1.4711875,82.615375 0.45556625,78.288125 0.78125,78.211"
         inkscape:connector-curvature="0"
         id="path102"
         style="fill:#231f20;fill-opacity:1;fill-rule:nonzero;stroke:none" /><path
         d="M 3.3081,89.426875 3.615725,89.28775 c 0.1660125,0.338375 0.3222625,0.5615 0.46875,0.670375 0.2246125,0.166 0.5087875,0.173375 0.85205,0.0195 L 10.734862,87.3785 c 0.3501,-0.15625 0.533688,-0.376 0.549313,-0.660125 0.01368,-0.166 -0.04882,-0.42725 -0.184563,-0.78375 l 0.309075,-0.138125 3.097188,6.913125 -2.413588,1.0815 -0.135262,-0.30425 c 0.7026,-0.498 1.115225,-0.993625 1.23635,-1.484375 0.122,-0.493125 -0.03325,-1.220625 -0.465375,-2.1835 -0.166,-0.36625 -0.307588,-0.5835 -0.426725,-0.6485 -0.1211,-0.0645 -0.2959,-0.04637 -0.52295,0.05512 l -2.7807625,1.24513 c 0.300775,0.6885 0.632325,1.09725 0.996575,1.226625 C 10.35645,91.82575 10.905763,91.80375 11.640625,91.629 l 0.135737,0.30425 -4.0322245,1.806625 -0.134275,-0.30525 C 8.250975,93.045 8.648925,92.655875 8.8086,92.26625 8.9682625,91.878 8.8940375,91.340875 8.586425,90.654875 l -2.8994125,1.30025 C 5.4336,92.0675 5.290525,92.21 5.25635,92.382375 c -0.030763,0.171875 0.043937,0.4615 0.2255875,0.86775 0.3422875,0.766625 0.7719625,1.324625 1.2832,1.67725 C 7.27685,95.280375 8.023925,95.461 9.0039,95.47325 l 0.1489375,0.332 L 6.446775,96.43275 3.3081,89.426875"
         inkscape:connector-curvature="0"
         id="path104"
         style="fill:#231f20;fill-opacity:1;fill-rule:nonzero;stroke:none" /><path
         d="m 9.974125,101.7135 c 0.243163,0.289 0.446775,0.46725 0.615725,0.538 0.2583,0.1075 0.534175,0.0455 0.83105,-0.1855 l 5.00735,-3.90725 C 16.7285,97.924375 16.8555,97.6715 16.813,97.4005 16.787125,97.236875 16.664,96.990375 16.441375,96.664625 l 0.26125,-0.204125 4.591375,5.879 -2.0865,1.62988 -0.203625,-0.26275 c 0.5405,-0.62838 0.82275,-1.19475 0.842375,-1.69925 0.02187,-0.50288 -0.286625,-1.163 -0.923875,-1.9775 C 18.6865,99.726125 18.501,99.560125 18.36675,99.531875 18.233375,99.504 18.07225,99.563625 17.88425,99.71 l -2.399375,1.87413 c 0.42725,0.56975 0.84325,0.85787 1.242125,0.86425 0.3995,0.007 0.90875,-0.149 1.525,-0.46638 l 0.205,0.26225 -3.4775,2.71488 -0.204125,-0.26225 c 0.5005,-0.50688 0.7935,-0.96588 0.879875,-1.37938 0.08787,-0.41412 -0.08788,-0.89987 -0.523375,-1.459 l -2.40725,1.87988 c -0.318862,0.249 -0.449238,0.5005 -0.389662,0.75587 0.06104,0.25388 0.244662,0.56975 0.552287,0.94975 l -0.26275,0.2035 -2.9125875,-3.73037 0.2622125,-0.20363"
         inkscape:connector-curvature="0"
         id="path106"
         style="fill:#231f20;fill-opacity:1;fill-rule:nonzero;stroke:none" /><path
         d="m 21.92975,112.36288 c 0.566875,-0.34175 1.188875,-0.8935 1.865125,-1.65525 0.92775,-1.04488 1.47125,-1.97263 1.629875,-2.78075 0.15875,-0.80813 -0.03075,-1.45025 -0.566375,-1.92538 -0.744625,-0.66012 -1.647,-0.66987 -2.7075,-0.0292 -0.5615,0.34175 -1.17675,0.88875 -1.84475,1.63962 -0.67725,0.76426 -1.149375,1.44638 -1.419375,2.04838 -0.503,1.11425 -0.383375,2.002 0.360375,2.66213 0.73975,0.65575 1.63175,0.66887 2.682625,0.0405 z m 4.84375,-3.53663 c 0.09325,1.25388 -0.318375,2.3965 -1.234875,3.42925 -0.918,1.03263 -2.0035,1.57713 -3.259875,1.63325 -1.225,0.0537 -2.3325,-0.35787 -3.32125,-1.23537 -1.047375,-0.93013 -1.59325,-2.04 -1.63425,-3.32763 -0.03225,-1.206 0.36475,-2.27537 1.193875,-3.208 0.912625,-1.02925 1.98575,-1.58837 3.21975,-1.67625 1.248,-0.0913 2.387625,0.31988 3.416875,1.23437 0.99125,0.87888 1.529875,1.92976 1.61975,3.15038"
         inkscape:connector-curvature="0"
         id="path108"
         style="fill:#231f20;fill-opacity:1;fill-rule:nonzero;stroke:none" /><path
         d="m 31.19525,118.54213 c 0.485375,-0.44925 0.984,-1.11475 1.49425,-1.99463 0.699125,-1.211 1.043375,-2.22812 1.0385,-3.04937 -0.0072,-0.82275 -0.318875,-1.4135 -0.9375,-1.77 -0.857875,-0.49713 -1.743125,-0.32475 -2.65375,0.51762 -0.481,0.44675 -0.97275,1.10588 -1.474625,1.975 -0.51175,0.88488 -0.838375,1.648 -0.982375,2.29113 -0.269125,1.19137 0.02625,2.03612 0.88475,2.53162 0.852,0.49225 1.729875,0.32475 2.63075,-0.50137 z M 35.228,114.1095 c 0.340875,1.2085 0.169,2.40963 -0.521,3.6025 -0.690875,1.19488 -1.644,1.94575 -2.86125,2.25337 -1.189,0.29888 -2.3545,0.11825 -3.496125,-0.541 -1.213375,-0.70062 -1.96875,-1.67725 -2.265625,-2.92812 -0.274375,-1.17437 -0.09862,-2.30138 0.523375,-3.38037 0.6885,-1.19001 1.6275,-1.95175 2.8155,-2.28526 1.203625,-0.34175 2.399375,-0.167 3.589875,0.52 1.146,0.66163 1.88375,1.58113 2.21525,2.75888"
         inkscape:connector-curvature="0"
         id="path110"
         style="fill:#231f20;fill-opacity:1;fill-rule:nonzero;stroke:none" /><path
         d="m 37.401375,113.99125 7.461875,2.5865 -0.856875,2.50975 -0.357875,-0.123 c 0.19275,-0.939 0.07125,-1.66162 -0.372125,-2.1695 -0.249,-0.28175 -0.680125,-0.53712 -1.29,-0.7675 l -2.267125,6.539 c -0.15875,0.4565 -0.183125,0.78763 -0.07575,0.99263 0.109,0.20512 0.414125,0.39562 0.9205,0.56987 l -0.108375,0.31495 -4.44,-1.53907 0.109875,-0.314 c 0.48975,0.1685 0.839875,0.20512 1.05375,0.10987 0.21425,-0.0951 0.400375,-0.371 0.556625,-0.82275 L 40.0025,115.34 c -0.610375,-0.19387 -1.1075,-0.25887 -1.489375,-0.19637 -0.7055,0.11962 -1.249,0.61137 -1.635625,1.47312 l -0.358,-0.1245 0.881875,-2.501"
         inkscape:connector-curvature="0"
         id="path112"
         style="fill:#231f20;fill-opacity:1;fill-rule:nonzero;stroke:none" /><path
         d="m 49.50925,121.0055 c 0.316375,-0.21975 0.525875,-0.66163 0.632375,-1.32962 0.07662,-0.49413 0.05363,-0.92388 -0.07175,-1.29 -0.124625,-0.36625 -0.442375,-0.58988 -0.953625,-0.6705 -0.267125,-0.0424 -0.4625,-0.0267 -0.5825,0.0479 -0.120625,0.0733 -0.19875,0.2295 -0.235375,0.46638 l -0.4605,2.91349 c 0.80075,0.12701 1.357375,0.0806 1.671375,-0.13762 z m -2.222625,4.28805 c 0.07662,0.20264 0.263125,0.32764 0.564,0.375 0.61225,0.0967 1.06875,-0.002 1.369625,-0.29736 0.29975,-0.29345 0.4975,-0.75 0.595125,-1.36669 0.1465,-0.92037 -0.02875,-1.57575 -0.52675,-1.96637 -0.300875,-0.23825 -0.80475,-0.40525 -1.51275,-0.50438 l -0.51275,3.24369 c -0.03163,0.22804 -0.02287,0.39991 0.0235,0.51611 z m -3.352,-0.15087 c 0.349125,0.041 0.606375,0.0347 0.769,-0.0215 0.27825,-0.0947 0.44625,-0.33154 0.505375,-0.71143 l 0.992125,-6.28276 c 0.06012,-0.37737 -0.021,-0.64937 -0.23825,-0.81687 -0.128875,-0.1025 -0.379375,-0.19288 -0.748,-0.27338 l 0.05125,-0.32962 3.995625,0.63137 c 0.77,0.122 1.3965,0.311 1.878375,0.56888 0.90725,0.48437 1.29,1.16937 1.150875,2.05074 -0.084,0.53563 -0.346125,0.93113 -0.785625,1.18413 -0.44,0.25238 -0.8935,0.38562 -1.361375,0.39788 l -0.0195,0.11962 c 0.46725,0.1695 0.859375,0.39163 1.17925,0.6665 0.625,0.5405 0.8755,1.19388 0.754375,1.96389 -0.112375,0.71728 -0.535625,1.24756 -1.268625,1.58837 -0.7295,0.34034 -1.6455,0.4253 -2.744125,0.25 l -4.162625,-0.65625 0.05187,-0.32959"
         inkscape:connector-curvature="0"
         id="path114"
         style="fill:#231f20;fill-opacity:1;fill-rule:nonzero;stroke:none" /><path
         d="m 58.69625,123.68375 -1.347625,-2.99475 -0.11225,0.004 -1.102625,3.059 2.5625,-0.0682 z m -4.858375,2.89496 c 0.317375,-0.0298 0.566375,-0.17871 0.751,-0.4502 0.119625,-0.16991 0.285125,-0.54247 0.5015,-1.11718 l 2.71575,-7.25533 0.372625,-0.01 3.117625,6.81 c 0.347625,0.76514 0.607,1.25733 0.776375,1.47754 0.1685,0.21972 0.402875,0.32129 0.70075,0.30517 l 0.0098,0.3335 -4.2515,0.11377 -0.0098,-0.33252 c 0.42825,-0.0298 0.709,-0.0737 0.84325,-0.13379 0.13275,-0.0586 0.19625,-0.20117 0.1895,-0.42871 -0.0025,-0.10107 -0.03963,-0.25732 -0.113875,-0.46485 -0.04775,-0.12157 -0.108875,-0.27001 -0.187,-0.44286 l -0.355,-0.78614 -2.951625,0.0796 c -0.17825,0.52735 -0.292,0.87061 -0.34425,1.0293 -0.105,0.34131 -0.15625,0.5874 -0.150375,0.74121 0.0039,0.18896 0.133375,0.32129 0.38725,0.40137 0.150375,0.0425 0.376,0.0625 0.672875,0.0586 l 0.01075,0.33252 -2.675875,0.0728 -0.0098,-0.33399"
         inkscape:connector-curvature="0"
         id="path116"
         style="fill:#231f20;fill-opacity:1;fill-rule:nonzero;stroke:none" /><path
         d="m 64.51075,126.10753 c 0.347625,-0.085 0.588375,-0.1836 0.722125,-0.29493 0.227625,-0.1875 0.300875,-0.47021 0.22275,-0.8462 L 64.147,118.74713 c -0.07813,-0.3735 -0.252,-0.59813 -0.5215,-0.67625 -0.15775,-0.0503 -0.42575,-0.0454 -0.80075,0.0108 l -0.06938,-0.32563 4.493125,-0.94387 0.06987,0.32612 c -0.5215,0.127 -0.8535,0.2735 -1.0015,0.438 -0.145,0.165 -0.1645,0.5005 -0.05862,1.00738 l 1.275875,6.07516 c 0.06112,0.2832 0.174875,0.45606 0.341875,0.51757 0.168375,0.061 0.46725,0.0459 0.8975,-0.0439 0.773875,-0.16212 1.38525,-0.46973 1.84025,-0.92139 0.451625,-0.45166 0.765625,-1.21091 0.939,-2.27929 l 0.3735,-0.0781 0.09375,3.01756 -7.439875,1.5625 -0.06937,-0.32616"
         inkscape:connector-curvature="0"
         id="path118"
         style="fill:#231f20;fill-opacity:1;fill-rule:nonzero;stroke:none" /><path
         d="m 74.223625,123.91663 c 0.32575,-0.145 0.545375,-0.28425 0.65825,-0.4175 0.188,-0.22313 0.210875,-0.51363 0.06838,-0.87013 l -2.3795,-5.8935 c -0.1425,-0.354 -0.3515,-0.546 -0.63075,-0.57525 -0.163625,-0.0205 -0.425375,0.0307 -0.78525,0.15138 l -0.126,-0.30863 4.258375,-1.71875 0.126875,0.31013 c -0.492125,0.21575 -0.794875,0.41987 -0.911125,0.60787 -0.116625,0.188 -0.07663,0.5225 0.11775,1.002 l 2.32125,5.75438 c 0.108875,0.2685 0.2505,0.41887 0.42625,0.44912 0.17675,0.0309 0.467875,-0.0351 0.8765,-0.20112 0.732375,-0.29438 1.28325,-0.70463 1.648875,-1.228 0.36625,-0.5225 0.541125,-1.32475 0.5255,-2.40388 l 0.355875,-0.144 0.624,2.95163 -7.04925,2.84428 -0.126,-0.31003"
         inkscape:connector-curvature="0"
         id="path120"
         style="fill:#231f20;fill-opacity:1;fill-rule:nonzero;stroke:none" /><path
         d="m 86.215875,118.45425 c 0.285625,-0.21975 0.46775,-0.40675 0.546875,-0.563 0.13325,-0.26125 0.08787,-0.54937 -0.13525,-0.86287 l -3.684125,-5.17963 c -0.222125,-0.3125 -0.47175,-0.45025 -0.7495,-0.415 -0.166,0.0195 -0.411625,0.12938 -0.733875,0.3335 l -0.193875,-0.2735 3.73875,-2.65875 0.194375,0.272 c -0.422375,0.32225 -0.6695,0.58838 -0.736375,0.79738 -0.06838,0.21 0.04788,0.52487 0.34675,0.94587 l 3.601,5.06338 c 0.17,0.23687 0.34275,0.35062 0.52,0.33937 0.17825,-0.0108 0.44775,-0.144 0.80575,-0.39887 0.6445,-0.458 1.084875,-0.98538 1.318375,-1.582 0.23525,-0.59475 0.21625,-1.4185 -0.05375,-2.46838 l 0.314,-0.22362 1.2915,2.73925 -6.195375,4.40675 -0.19525,-0.27188"
         inkscape:connector-curvature="0"
         id="path122"
         style="fill:#231f20;fill-opacity:1;fill-rule:nonzero;stroke:none" /><path
         d="m 94.47025,112.80825 -0.24175,-0.23787 c 0.254875,-0.27725 0.40625,-0.50438 0.454125,-0.68013 0.07475,-0.2695 -0.022,-0.53462 -0.2895,-0.79687 l -4.529875,-4.45213 c -0.271,-0.26612 -0.541,-0.355 -0.8105,-0.26712 -0.159625,0.0474 -0.380875,0.20025 -0.664125,0.4575 l -0.241625,-0.23925 5.297875,-5.38913 1.88375,1.8515 -0.233375,0.23688 c -0.71775,-0.47363 -1.328125,-0.67725 -1.828625,-0.61138 -0.5005,0.0645 -1.119125,0.47225 -1.857,1.22075 -0.28075,0.28563 -0.428125,0.49563 -0.44525,0.63088 -0.01713,0.13662 0.0635,0.2905 0.24075,0.46525 l 2.167375,2.129 c 0.530375,-0.52738 0.790125,-0.98388 0.776375,-1.36963 -0.01313,-0.38487 -0.234375,-0.88775 -0.6635,-1.50887 l 0.234375,-0.23675 3.15675,3.103 -0.233375,0.23775 c -0.600625,-0.4565 -1.1085,-0.68938 -1.530875,-0.69675 -0.421375,-0.009 -0.891,0.25487 -1.417,0.78862 l 2.267625,2.23 c 0.19775,0.19525 0.38475,0.27588 0.555625,0.2455 0.171875,-0.0318 0.414125,-0.2065 0.72375,-0.52237 0.586375,-0.59725 0.949625,-1.19875 1.08875,-1.80325 0.13975,-0.6055 0.03575,-1.36725 -0.314375,-2.28513 l 0.254875,-0.25975 1.575625,2.2885 -5.376875,5.47125"
         inkscape:connector-curvature="0"
         id="path124"
         style="fill:#231f20;fill-opacity:1;fill-rule:nonzero;stroke:none" /><path
         d="m 101.63725,99.719875 -3.224125,-0.655375 -0.05862,0.084 1.849615,2.6895 1.43313,-2.118125 z m -0.47363,5.627375 c 0.15813,-0.27337 0.184,-0.564 0.0718,-0.87162 -0.0684,-0.19525 -0.2735,-0.54775 -0.61375,-1.058 l -4.31787,-6.440505 0.204,-0.30175 7.35362,1.438 c 0.82463,0.161125 1.3755,0.235875 1.65225,0.227 0.27738,-0.0082 0.49563,-0.139125 0.65575,-0.3915 l 0.27688,0.1865 -2.38225,3.522005 -0.27588,-0.18713 c 0.22463,-0.36462 0.351,-0.61762 0.38088,-0.76162 0.0316,-0.14163 -0.0489,-0.27688 -0.23588,-0.40388 -0.084,-0.0576 -0.23287,-0.11612 -0.44587,-0.17725 -0.12538,-0.0341 -0.28163,-0.0692 -0.46575,-0.10737 l -0.84525,-0.168505 -1.65138,2.440505 c 0.32325,0.45162 0.53475,0.74462 0.63475,0.87887 0.21488,0.28413 0.38575,0.46975 0.51275,0.55512 0.15625,0.10651 0.33938,0.0781 0.55175,-0.083 0.12213,-0.0976 0.2685,-0.26849 0.44038,-0.51362 l 0.27587,0.1865 -1.50087,2.21925 -0.27588,-0.188"
         inkscape:connector-curvature="0"
         id="path126"
         style="fill:#231f20;fill-opacity:1;fill-rule:nonzero;stroke:none" /><path
         d="m 100.92137,92.136875 c -0.50737,-1.163125 -0.4975,-2.36825 0.0284,-3.61825 0.21087,-0.501375 0.51413,-0.960375 0.91062,-1.379375 0.3955,-0.4185 0.61763,-0.6895 0.66888,-0.8105 0.0553,-0.130375 0.0537,-0.254875 -0.005,-0.372125 -0.0595,-0.117125 -0.17087,-0.241625 -0.33687,-0.3725 l 0.144,-0.340375 2.82625,1.191375 -0.13088,0.310125 c -0.73337,0.03262 -1.34275,0.127875 -1.82525,0.283125 -0.88812,0.293 -1.48537,0.796875 -1.788,1.51475 -0.32962,0.78025 -0.2305,1.493125 0.29538,2.136125 0.52738,0.644625 1.40475,1.225625 2.63425,1.744625 1.00925,0.424875 1.9785,0.63725 2.90925,0.63575 0.93013,0 1.59663,-0.4785 2.00038,-1.434 0.21737,-0.517625 0.25637,-0.910625 0.11475,-1.18075 -0.079,-0.15375 -0.24313,-0.283125 -0.49063,-0.386625 l -1.27687,-0.539625 c -0.36863,-0.15525 -0.65925,-0.1455 -0.86675,0.02938 -0.13425,0.115625 -0.29788,0.3915 -0.49163,0.8325 l -0.31062,-0.130875 1.74125,-4.127 0.30862,0.130375 c -0.15725,0.419 -0.189,0.727625 -0.0952,0.925375 0.0952,0.19775 0.3515,0.385625 0.769,0.5615 l 1.54938,0.65325 c 0.0536,0.337875 0.0366,0.84325 -0.0494,1.51375 -0.0849,0.669875 -0.28412,1.376875 -0.59512,2.117625 -0.56888,1.34675 -1.44688,2.24275 -2.63188,2.6905 -1.1075,0.4165 -2.25975,0.3725 -3.45512,-0.130375 -1.20363,-0.507875 -2.05413,-1.32475 -2.55125,-2.44775"
         inkscape:connector-curvature="0"
         id="path128"
         style="fill:#231f20;fill-opacity:1;fill-rule:nonzero;stroke:none" /><path
         d="m 103.86725,79.66275 0.32225,0.06437 c -0.084,0.5005 -0.0757,0.848625 0.0278,1.044 0.104,0.19525 0.40337,0.34275 0.895,0.442875 l 4.30912,0.877875 c 0.65425,0.132875 1.17675,0.15875 1.564,0.07575 0.71875,-0.1455 1.16063,-0.61775 1.32325,-1.413625 0.20113,-0.98875 -0.0299,-1.732375 -0.69137,-2.2305 -0.36088,-0.273375 -0.90588,-0.484375 -1.63038,-0.63225 l -3.93125,-0.800875 c -0.46387,-0.09375 -0.80025,-0.07412 -1.00925,0.06012 -0.21,0.13275 -0.38325,0.441875 -0.5215,0.92775 l -0.32225,-0.066 0.57613,-2.826125 0.32275,0.065 c -0.005,0.428125 0.0366,0.721125 0.12462,0.877375 0.0879,0.15525 0.34025,0.275875 0.75438,0.360375 l 4.11075,0.837375 c 1.09287,0.22225 1.88287,0.65775 2.36975,1.307125 0.48725,0.6485 0.61612,1.538125 0.38325,2.67 -0.30025,1.478 -0.94725,2.400875 -1.94188,2.764625 -0.52787,0.19425 -1.16362,0.21475 -1.90337,0.06488 l -4.3033,-0.87637 c -0.48338,-0.09913 -0.80175,-0.09675 -0.954,0.0057 -0.1505,0.102625 -0.29688,0.372625 -0.437,0.810625 l -0.32138,-0.066 0.88388,-4.344125"
         inkscape:connector-curvature="0"
         id="path130"
         style="fill:#231f20;fill-opacity:1;fill-rule:nonzero;stroke:none" /><path
         d="m 113.63187,75.1925 -0.3345,-0.0064 c -0.008,-0.3745 -0.0542,-0.640625 -0.14062,-0.80075 -0.13425,-0.244125 -0.38825,-0.369625 -0.76513,-0.377 L 106.04,73.8995 c -0.38175,-0.0072 -0.643,0.11375 -0.78025,0.36275 -0.0815,0.142625 -0.13763,0.403875 -0.1645,0.78225 l -0.336,-0.0049 0.12937,-7.5635 2.65038,0.04637 -0.006,0.3345 c -0.84963,0.151375 -1.43313,0.423875 -1.7535,0.816875 -0.31838,0.393125 -0.48538,1.11575 -0.50538,2.168 -0.005,0.400375 0.0307,0.654375 0.11288,0.765125 0.0815,0.109875 0.246,0.1675 0.4955,0.170875 l 3.03962,0.05275 c 0.022,-0.747 -0.1055,-1.254875 -0.38137,-1.524875 -0.27438,-0.2695 -0.78125,-0.481 -1.522,-0.63475 l 0.005,-0.3345 4.42138,0.07575 -0.005,0.334375 c -0.74462,0.08063 -1.27187,0.26375 -1.5835,0.546 -0.3075,0.283125 -0.46962,0.79925 -0.48187,1.546375 l 3.18112,0.05513 c 0.27738,0.0049 0.46875,-0.0635 0.57038,-0.2065 0.105,-0.140125 0.15812,-0.433125 0.167,-0.8775 0.0161,-0.838875 -0.13675,-1.524875 -0.45263,-2.0605 -0.314,-0.536125 -0.91612,-1.017125 -1.80187,-1.441875 l 0.006,-0.36475 2.71975,0.578625 -0.13275,7.670875"
         inkscape:connector-curvature="0"
         id="path132"
         style="fill:#231f20;fill-opacity:1;fill-rule:nonzero;stroke:none" /><path
         d="m 24.94625,128.22226 c 0.214375,0.0977 0.379375,0.14405 0.49325,0.13916 0.17525,-0.009 0.316875,-0.11913 0.42275,-0.33153 l 1.800375,-3.57471 c 0.106875,-0.21484 0.11275,-0.39305 0.01563,-0.53468 -0.05812,-0.0869 -0.194375,-0.19287 -0.40725,-0.31887 l 0.09525,-0.18888 4.189375,2.10736 -0.7495,1.48878 -0.181125,-0.0903 c 0.139125,-0.50487 0.1465,-0.90234 0.0225,-1.19482 -0.124,-0.29492 -0.477125,-0.58643 -1.059625,-0.87939 -0.21625,-0.1084 -0.36625,-0.15235 -0.450125,-0.13281 -0.0835,0.0195 -0.16025,0.0962 -0.227125,0.23193 l -0.86125,1.71143 c 0.395875,0.20751 0.709875,0.26122 0.938375,0.15625 0.2305,-0.10353 0.477125,-0.33009 0.74325,-0.67628 l 0.186,0.0928 -1.253,2.49219 -0.187,-0.0937 c 0.15,-0.42383 0.194875,-0.76758 0.133375,-1.02588 -0.0615,-0.26026 -0.292,-0.49024 -0.69,-0.69044 l -0.865625,1.72169 c -0.11575,0.22851 -0.121125,0.40722 -0.01863,0.53612 0.103,0.12745 0.293,0.25978 0.569375,0.39258 l -0.09425,0.18849 -2.660125,-1.33888 0.09512,-0.1875"
         inkscape:connector-curvature="0"
         id="path134"
         style="fill:#231f20;fill-opacity:1;fill-rule:nonzero;stroke:none" /><path
         d="m 34.348625,131.37119 c 0.26075,-0.32764 0.507375,-0.79004 0.74125,-1.38623 0.32025,-0.81885 0.438875,-1.48486 0.355375,-1.99853 -0.0815,-0.5127 -0.333,-0.8501 -0.752875,-1.01417 -0.5835,-0.22705 -1.119125,-0.0371 -1.607375,0.57374 -0.256375,0.32519 -0.5015,0.78125 -0.731,1.37157 -0.234375,0.59864 -0.36475,1.10597 -0.3935,1.52003 -0.05375,0.76757 0.210875,1.26611 0.794375,1.49365 0.579125,0.22608 1.109875,0.04 1.59375,-0.56006 z m 2.089875,-3.14747 c 0.329125,0.7212 0.335,1.48634 0.0185,2.29738 -0.316375,0.80761 -0.839375,1.3662 -1.56925,1.67285 -0.713,0.30126 -1.456625,0.30126 -2.2315,-0.001 -0.82275,-0.32226 -1.38675,-0.85986 -1.691375,-1.61132 -0.28175,-0.70507 -0.279875,-1.42382 0.0059,-2.15625 0.314375,-0.80859 0.827625,-1.37109 1.536625,-1.69385 0.71725,-0.32616 1.4795,-0.33105 2.2875,-0.0147 0.777375,0.30225 1.32575,0.8047 1.643625,1.50732"
         inkscape:connector-curvature="0"
         id="path136"
         style="fill:#231f20;fill-opacity:1;fill-rule:nonzero;stroke:none" /><path
         d="m 40.6015,128.78135 -0.05613,0.20215 c -0.3105,-0.0747 -0.52925,-0.085 -0.65725,-0.0283 -0.125875,0.0571 -0.231875,0.2373 -0.317375,0.54102 l -0.740125,2.67236 c -0.112375,0.40625 -0.151375,0.73291 -0.11725,0.97999 0.061,0.45898 0.337375,0.75781 0.831,0.89501 0.613375,0.17041 1.090375,0.0576 1.432125,-0.33838 0.189,-0.21386 0.34525,-0.54882 0.47075,-0.99756 l 0.67625,-2.43896 c 0.07912,-0.28466 0.08113,-0.49755 0.0059,-0.63379 -0.07425,-0.13721 -0.26175,-0.25732 -0.56,-0.36719 l 0.05512,-0.20166 1.752,0.48634 -0.05662,0.20019 c -0.268625,-0.0215 -0.453125,-0.006 -0.55525,0.0425 -0.101,0.0498 -0.1885,0.20362 -0.25975,0.46143 l -0.7065,2.5498 c -0.188,0.67725 -0.497125,1.15381 -0.925875,1.43115 -0.429125,0.27784 -0.994625,0.31885 -1.69575,0.12646 -0.917,-0.25536 -1.46775,-0.7041 -1.65325,-1.34521 -0.09913,-0.34229 -0.0845,-0.74219 0.04338,-1.20118 l 0.73975,-2.67137 c 0.084,-0.29884 0.09625,-0.49854 0.03963,-0.59864 -0.05812,-0.1001 -0.22075,-0.20263 -0.48975,-0.31104 l 0.05613,-0.2002 2.688875,0.74513"
         inkscape:connector-curvature="0"
         id="path138"
         style="fill:#231f20;fill-opacity:1;fill-rule:nonzero;stroke:none" /><path
         d="m 42.78225,134.92735 c 0.30325,0.0464 0.50725,0.0215 0.61375,-0.0698 0.1065,-0.0913 0.17775,-0.24267 0.214375,-0.45019 L 44.28075,130.546 c -0.200625,-0.3208 -0.326125,-0.51221 -0.376,-0.57228 -0.05025,-0.06 -0.125,-0.10351 -0.223125,-0.13378 l 0.03663,-0.20997 1.726625,0.30128 2.211375,3.89014 0.0395,0.009 0.4165,-2.39502 c 0.04737,-0.27539 0.03175,-0.47998 -0.04775,-0.61523 -0.07963,-0.13623 -0.267125,-0.24121 -0.5645,-0.31641 l 0.03663,-0.20849 1.7505,0.3037 -0.03613,0.20997 c -0.26325,-0.004 -0.442875,0.0249 -0.5405,0.0815 -0.09963,0.0537 -0.1705,0.20702 -0.213875,0.45215 l -0.8355,4.8037 -0.226125,-0.0386 -2.8285,-4.97998 -0.05575,-0.0103 -0.556125,3.19775 c -0.0435,0.24854 -0.0395,0.43115 0.01125,0.54638 0.07912,0.18848 0.286125,0.31593 0.620125,0.38722 l -0.03663,0.20995 -1.84375,-0.32129 0.03663,-0.20995"
         inkscape:connector-curvature="0"
         id="path140"
         style="fill:#231f20;fill-opacity:1;fill-rule:nonzero;stroke:none" /><path
         d="m 51.309125,135.98496 c 0.04925,0.0786 0.164,0.12403 0.34375,0.13867 0.48825,0.0361 0.901875,-0.10742 1.241125,-0.42871 0.340375,-0.32227 0.546375,-0.97509 0.619625,-1.95507 0.0435,-0.5835 -0.0044,-1.09131 -0.1415,-1.52246 -0.22275,-0.69483 -0.65925,-1.06739 -1.308625,-1.11719 -0.214875,-0.0142 -0.357,0.021 -0.42825,0.10741 -0.04738,0.0562 -0.07713,0.16847 -0.08987,0.33741 l -0.303125,4.06494 c -0.0045,0.17139 0.0175,0.29492 0.06688,0.375 z m -2.129375,0.0239 c 0.208,0.002 0.35925,-0.0151 0.455,-0.0562 0.1675,-0.0713 0.25975,-0.21778 0.275875,-0.44044 l 0.30375,-4.06738 c 0.01563,-0.21387 -0.04988,-0.36718 -0.19725,-0.46387 -0.085,-0.0547 -0.235375,-0.0996 -0.452125,-0.13622 l 0.01513,-0.20606 2.52,0.1875 c 1.018,0.0752 1.772375,0.40478 2.2675,0.98974 0.44875,0.52882 0.642125,1.21143 0.580625,2.04395 -0.05613,0.74511 -0.348125,1.35987 -0.8755,1.84229 -0.59375,0.5415 -1.36175,0.77783 -2.30325,0.70751 l -2.605,-0.19482 0.01525,-0.20605"
         inkscape:connector-curvature="0"
         id="path142"
         style="fill:#231f20;fill-opacity:1;fill-rule:nonzero;stroke:none" /><path
         d="m 55.689,136.65 -0.004,-0.20996 c 0.235875,-0.0127 0.403375,-0.0474 0.502,-0.10645 0.151375,-0.0898 0.225625,-0.25244 0.22075,-0.48974 L 56.3315,131.8375 c -0.0049,-0.24024 -0.08787,-0.40235 -0.2475,-0.48145 -0.09225,-0.0474 -0.258375,-0.0772 -0.497625,-0.0874 l -0.0044,-0.21094 4.764625,-0.0889 0.03175,1.66747 -0.202625,0.004 C 60.061,132.1085 59.8755,131.74765 59.619625,131.55625 59.36375,131.36386 58.90375,131.275 58.23825,131.2877 c -0.252875,0.005 -0.4135,0.0337 -0.481875,0.0874 -0.06687,0.0547 -0.09962,0.15966 -0.09725,0.31494 l 0.03712,1.91748 c 0.47075,-0.002 0.788125,-0.0937 0.95175,-0.27491 0.1635,-0.17871 0.285125,-0.5039 0.365625,-0.97362 l 0.2105,-0.004 0.05275,2.78858 -0.211,0.004 c -0.06737,-0.46875 -0.19475,-0.79884 -0.379875,-0.98486 -0.1855,-0.19141 -0.513125,-0.28028 -0.983875,-0.27149 l 0.03762,2.00244 c 0.0029,0.17774 0.05075,0.29395 0.141625,0.35645 0.09225,0.0601 0.27775,0.0898 0.557625,0.085 0.52775,-0.0103 0.957,-0.1211 1.286625,-0.33399 0.33,-0.20849 0.618625,-0.59716 0.866125,-1.16747 l 0.231,-0.003 -0.305125,1.72999 L 55.689,136.65"
         inkscape:connector-curvature="0"
         id="path144"
         style="fill:#231f20;fill-opacity:1;fill-rule:nonzero;stroke:none" /><path
         d="m 63.789,135.88633 c 0.0635,0.0674 0.184125,0.0923 0.363875,0.0713 0.48575,-0.0537 0.866625,-0.27002 1.140125,-0.64893 0.274875,-0.3789 0.356375,-1.05761 0.2475,-2.03515 -0.06537,-0.58253 -0.2045,-1.0708 -0.419375,-1.46973 -0.348125,-0.64259 -0.84475,-0.9253 -1.49225,-0.85499 -0.213375,0.0249 -0.346125,0.0859 -0.401375,0.1836 -0.03562,0.064 -0.04487,0.18018 -0.02687,0.34765 l 0.453125,4.04981 c 0.02787,0.16748 0.07275,0.28613 0.13525,0.35645 z m -2.088375,0.41504 c 0.203625,-0.0361 0.34875,-0.0825 0.434125,-0.13867 0.151875,-0.1001 0.213875,-0.26124 0.1895,-0.47999 l -0.452625,-4.05517 c -0.025,-0.2124 -0.11625,-0.35108 -0.278875,-0.41748 -0.09225,-0.0376 -0.2485,-0.0552 -0.46725,-0.0503 l -0.0235,-0.20996 2.51125,-0.27734 c 1.01325,-0.11377 1.8155,0.0688 2.40725,0.5498 0.5395,0.44044 0.856,1.0752 0.94875,1.90528 0.083,0.74365 -0.09087,1.40136 -0.519,1.97266 -0.4825,0.64111 -1.1925,1.01611 -2.132375,1.11962 l -2.59425,0.29004 -0.023,-0.20849"
         inkscape:connector-curvature="0"
         id="path146"
         style="fill:#231f20;fill-opacity:1;fill-rule:nonzero;stroke:none" /><path
         d="m 70.9805,134.97861 c 0.408625,-0.0962 0.657625,-0.21484 0.748,-0.35253 0.08938,-0.13966 0.09763,-0.36476 0.02438,-0.67628 l -0.729,-3.10497 c -0.04637,-0.19629 -0.1025,-0.33253 -0.167875,-0.40479 -0.0665,-0.0728 -0.16025,-0.0952 -0.28375,-0.0664 -0.06538,0.0151 -0.160625,0.0615 -0.288125,0.13768 -0.08,0.0464 -0.187875,0.11719 -0.323125,0.20851 l -0.04887,-0.20508 1.830125,-1.35353 0.141,-0.0337 1.07725,4.58985 c 0.06825,0.29393 0.162,0.48143 0.28175,0.56396 0.118625,0.0825 0.3725,0.0786 0.76025,-0.0127 l 0.04387,0.19141 -3.021,0.70996 -0.04487,-0.19141"
         inkscape:connector-curvature="0"
         id="path148"
         style="fill:#231f20;fill-opacity:1;fill-rule:nonzero;stroke:none" /><path
         d="m 76.03175,133.19492 c 0.228,0.29394 0.502375,0.39014 0.826125,0.29004 0.181625,-0.0562 0.321375,-0.17382 0.414125,-0.35254 0.09275,-0.17725 0.08887,-0.42627 -0.0098,-0.74853 -0.09525,-0.31153 -0.28075,-0.54785 -0.55325,-0.70753 -0.1685,-0.10009 -0.477125,-0.21386 -0.92525,-0.34032 -0.07913,0.27538 -0.123625,0.47997 -0.131875,0.61523 -0.01563,0.20606 0.01462,0.43115 0.09037,0.67724 0.06825,0.22169 0.165,0.41016 0.2895,0.56641 z m 0.357375,-3.46142 c 0.01862,-0.15968 -0.0049,-0.34229 -0.06588,-0.5459 -0.08938,-0.2837 -0.214875,-0.50245 -0.3775,-0.65381 -0.161125,-0.15234 -0.3735,-0.18896 -0.63175,-0.10743 -0.188,0.0571 -0.32225,0.16749 -0.401875,0.32715 -0.08062,0.15919 -0.09188,0.33155 -0.03425,0.51759 0.08888,0.29248 0.32325,0.52539 0.70225,0.69629 0.21925,0.10008 0.451625,0.16747 0.69525,0.20263 0.06737,-0.19238 0.1055,-0.33741 0.11375,-0.43652 z M 74.935,131.85264 c 0.11625,-0.18018 0.309125,-0.36378 0.57775,-0.55518 l -0.022,-0.0737 c -0.06688,0.004 -0.214875,-0.041 -0.444375,-0.13476 -0.2295,-0.0937 -0.40675,-0.1914 -0.53225,-0.28661 -0.151375,-0.11475 -0.263625,-0.22853 -0.338375,-0.34229 -0.07175,-0.11377 -0.129375,-0.24023 -0.171875,-0.375 -0.118125,-0.38526 -0.05462,-0.75879 0.192875,-1.12989 0.246625,-0.36913 0.63575,-0.63525 1.1685,-0.80127 0.495625,-0.15282 0.90825,-0.15869 1.24025,-0.0166 0.333,0.1416 0.545375,0.36378 0.639625,0.66749 0.09613,0.31152 0.0415,0.61376 -0.165,0.90381 -0.112375,0.16405 -0.286625,0.33154 -0.520125,0.50634 l 0.01712,0.0527 c 0.459,0.15382 0.78375,0.29493 0.975625,0.41993 0.325625,0.2163 0.547875,0.51514 0.6665,0.89746 0.15625,0.50634 0.102,0.95605 -0.160125,1.34619 -0.26275,0.39111 -0.665625,0.66992 -1.2085,0.83886 -0.404375,0.12354 -0.814,0.12745 -1.227125,0.009 -0.4145,-0.12011 -0.690375,-0.39648 -0.826125,-0.83789 -0.123,-0.40234 -0.07963,-0.76611 0.137625,-1.08837"
         inkscape:connector-curvature="0"
         id="path150"
         style="fill:#231f20;fill-opacity:1;fill-rule:nonzero;stroke:none" /><path
         d="m 80.36625,131.74864 c 0.2475,0.27782 0.52975,0.35253 0.84475,0.23241 0.179125,-0.0698 0.3085,-0.19726 0.389625,-0.37988 0.08,-0.18603 0.0595,-0.43506 -0.06162,-0.74756 -0.118125,-0.30469 -0.317375,-0.52734 -0.6,-0.66846 -0.175875,-0.0879 -0.49225,-0.18164 -0.94725,-0.27636 -0.06162,0.28125 -0.09037,0.48975 -0.09037,0.625 -0.0029,0.20606 0.04387,0.42871 0.13675,0.66992 0.083,0.21631 0.192875,0.39746 0.328125,0.54493 z m 0.118625,-3.48097 c 0.0074,-0.16015 -0.02837,-0.34131 -0.104,-0.54003 C 80.2725,127.4498 80.13275,127.23985 79.961,127.1002 c -0.173375,-0.14014 -0.38575,-0.1626 -0.63975,-0.0625 -0.183125,0.0698 -0.3085,0.18848 -0.376875,0.35351 -0.06987,0.1665 -0.06987,0.33887 0,0.52002 0.11075,0.28516 0.359875,0.49999 0.748,0.64648 0.227,0.0859 0.462375,0.13624 0.7095,0.15235 0.05375,-0.19531 0.08,-0.34277 0.083,-0.44239 z m -1.30425,2.21485 c 0.105,-0.1875 0.28475,-0.38526 0.538625,-0.59375 l -0.02688,-0.0713 c -0.06687,0.007 -0.21725,-0.0273 -0.452625,-0.10497 -0.235875,-0.0762 -0.419,-0.16114 -0.55075,-0.24854 -0.15875,-0.104 -0.276875,-0.20899 -0.358875,-0.31885 -0.08212,-0.10741 -0.1475,-0.229 -0.19875,-0.36278 -0.1455,-0.37354 -0.107875,-0.75489 0.11325,-1.13965 0.21975,-0.38525 0.589875,-0.67774 1.108375,-0.88038 0.4825,-0.18602 0.893625,-0.22119 1.235375,-0.10107 0.340875,0.11767 0.568875,0.3252 0.682625,0.62256 0.118125,0.30225 0.0855,0.60742 -0.09913,0.9126 -0.101625,0.16992 -0.26275,0.35107 -0.483375,0.53857 l 0.021,0.0537 c 0.46875,0.12012 0.80325,0.23779 1.001875,0.35108 0.340875,0.1914 0.582625,0.4751 0.726625,0.8501 0.191375,0.49414 0.170375,0.9453 -0.065,1.354 -0.234375,0.40869 -0.617625,0.71484 -1.147375,0.91992 -0.3955,0.15234 -0.80325,0.18505 -1.224125,0.0937 -0.422375,-0.0889 -0.715875,-0.34863 -0.881375,-0.77881 -0.152875,-0.39356 -0.132375,-0.75732 0.0605,-1.09619"
         inkscape:connector-curvature="0"
         id="path152"
         style="fill:#231f20;fill-opacity:1;fill-rule:nonzero;stroke:none" /><path
         d="m 84.6045,129.99229 c 0.266125,0.25781 0.55175,0.31542 0.856,0.17285 0.17275,-0.0825 0.292375,-0.21778 0.35975,-0.40528 0.0675,-0.18994 0.02938,-0.43604 -0.11375,-0.74121 -0.137625,-0.29345 -0.3525,-0.50098 -0.6455,-0.62354 -0.180625,-0.0752 -0.501375,-0.14501 -0.961875,-0.20897 -0.03912,0.28369 -0.05375,0.49267 -0.044,0.62744 0.01375,0.20409 0.07575,0.42382 0.185625,0.65771 0.09613,0.2085 0.21875,0.38232 0.36375,0.521 z m -0.126,-3.47608 c -0.0044,-0.16113 -0.05225,-0.33886 -0.1425,-0.52978 -0.127,-0.27149 -0.279875,-0.47022 -0.4615,-0.59619 -0.181625,-0.12794 -0.397,-0.13379 -0.643,-0.0191 -0.17725,0.085 -0.296,0.21142 -0.353125,0.37891 -0.05763,0.17139 -0.04387,0.34375 0.03762,0.51855 0.129375,0.27881 0.3945,0.4751 0.791,0.59131 0.2325,0.0698 0.47175,0.10498 0.71775,0.10498 0.04062,-0.20019 0.05862,-0.35009 0.05375,-0.44873 z m -1.146,2.29737 c 0.09038,-0.19239 0.254875,-0.40382 0.493125,-0.62744 l -0.03163,-0.0688 c -0.066,0.0127 -0.218375,-0.0137 -0.458,-0.0747 -0.24025,-0.0615 -0.42925,-0.12889 -0.5675,-0.20897 -0.165,-0.0913 -0.2905,-0.1875 -0.379875,-0.29102 -0.08788,-0.104 -0.162125,-0.21875 -0.224625,-0.34863 -0.169375,-0.36377 -0.157125,-0.74415 0.03575,-1.14649 0.192875,-0.39892 0.542,-0.71728 1.046375,-0.95117 0.46725,-0.22119 0.876375,-0.28466 1.225125,-0.19091 0.349,0.0952 0.59075,0.28466 0.725,0.57226 0.13975,0.2959 0.1275,0.60351 -0.0375,0.9209 -0.08888,0.17382 -0.239375,0.36524 -0.445875,0.56885 l 0.02438,0.0513 c 0.476625,0.0889 0.817,0.18115 1.0245,0.28125 0.353,0.16749 0.61425,0.43409 0.783625,0.79639 0.226125,0.47998 0.234375,0.93115 0.02937,1.35498 -0.206625,0.42237 -0.5665,0.75634 -1.080625,0.99609 -0.38275,0.18115 -0.787125,0.24024 -1.213375,0.18018 -0.42725,-0.0615 -0.73675,-0.29883 -0.932625,-0.71632 -0.17912,-0.38144 -0.18412,-0.74619 -0.01562,-1.09775"
         inkscape:connector-curvature="0"
         id="path154"
         style="fill:#231f20;fill-opacity:1;fill-rule:nonzero;stroke:none" /></g></g></svg>