<?xml version="1.0" encoding="UTF-8"?>
<svg id="Layer_2" data-name="Layer 2" xmlns="http://www.w3.org/2000/svg" viewBox="0 0 196.91 190.17">
  <defs>
    <style>
      .cls-1 {
        fill: #000944;
      }

      .cls-1, .cls-2 {
        fill-rule: evenodd;
        stroke-width: 0px;
      }

      .cls-2 {
        fill: #7fcb28;
      }
    </style>
  </defs>
  <g id="svg2403">
    <g>
      <path id="path2426" class="cls-2" d="M185.11,177.94V8.01H9.7v169.93h175.41Z"/>
      <path id="path2572" class="cls-1" d="M172.88,98.67c-2.95,1.69-1.26-2.53-2.95-3.37-.84-.42-2.53-.84-3.79-.42-.42.42-1.27.84-1.69,1.69-.42,1.26-.42,2.11,0,2.95h1.26c.42.84,0,2.53,0,2.53,2.11,1.26,4.64-.42,6.32.84.84.42,0,1.69,0,2.11-.84,1.26-.42,2.53-1.26,3.37-.84.42-2.53.42-3.37,0,0,0,.42-.84,0-1.69-.42-.84-1.69-.84-1.69,0-1.26.84-2.95,1.69-1.69,2.95,0,.42.84.42.84.42.84,1.69,1.69,2.95,1.69,4.22-.84-.42-.84.42-1.26.42.42,2.11-.42,2.53-2.53,2.53,0,.42-.84.84-.42.84h-2.11v43.85H36.26v-43.43q-.42.42-.42.84h-2.11c-.42-.42,0-1.27,0-1.69-1.26-.42-2.53.42-3.79-.42,0,0,.42-1.26,0-1.69-.84-.42-2.53,0-2.95-.42-.42-.42,0-2.11-.42-2.95-.42-.42-1.69,0-2.95,0v-2.53c-.42,0-.84,0-1.26-.42-.42-1.26.42-2.11.42-3.37-1.26.42-.84-.84-.84-2.11,1.26.42,2.53,0,3.37,1.26,0,.84.42,1.69.42,2.53h.84c.42-.84.84-.84.42-1.69,1.26,0,2.11,0,2.53.42.42.42-.42,1.69,0,1.69.84.42,2.11.42,2.53.42.84-2.11,0-4.22,0-6.32-2.53-.42-5.9.42-7.17-1.69-.42-.84,0-2.11-.42-2.95-.84-1.26-2.95-.42-4.64-.42.42-2.11-.84-3.79,0-5.9.42-.84,2.11-1.69,2.11-.84.84,1.26,0,3.37.84,3.79,1.26,1.26,5.48,0,4.64-2.53h1.69c1.26-1.69-.42-2.53-1.69-3.37-2.11-1.26-4.64-2.11-7.17-1.69-1.26-2.95,2.11-3.37,3.37-5.48,0,0,1.26,0,1.69.42,0,.84-.84,2.53,0,2.95,1.26.84,2.95,0,4.64.42v.84c.42.42,1.26,0,2.11,0-.42-2.11.42-4.64-.42-6.32-.42-.84-2.53.42-3.79-.42-1.26-.84-1.69-1.69-1.26-2.95.42-.84.84-2.11,1.69-2.95,1.69-.84,4.22.84,5.9-.42,0,0-.42-1.26,0-2.11.42-.84,1.26-.84,2.11-1.26v-25.3h16.02c1.69-.84,3.37-.42,5.06-1.26.42-.42,1.26-.42,1.26-.84.42-1.26-.42-2.11,0-2.95h.84c.42-1.26-.84-2.53,0-3.37.42-.42,1.69,0,2.53-.42,0,0-.42-.84,0-1.69h.84c0-.42,0-.84.42-1.26,1.27-.42,3.37.84,4.64-.42.42-.42,0-2.11.42-2.11,2.11-1.26,4.64-2.11,7.17-.84,0,0-.42,1.26,0,1.69.84.84,2.53.84,2.95.42.84-.84.84-2.11.42-3.37-.84-1.26-2.53-1.69-3.37-2.95v-1.26c2.53-.42,5.48,0,8.43,0,0-2.11,2.11-1.69,3.79-2.11v3.37c2.11-.42,0,2.95,2.11,3.79,1.27.42,3.37.84,3.79,0,1.69-2.53-2.53-3.79-3.79-5.48v-1.26c0,.42.84-.42.84-.42,0-2.11,1.69-2.11,3.37-2.11-.42.84,0,2.11.84,2.11.42.84.84-.42,1.69-.84.84-.42,2.53-.84,3.79-.42.84,0,1.69,2.11,2.53.84.42-.84-.42-1.69,0-2.53.42-.84,2.11-.84,2.95,0,.84.84,2.11.84,3.37.84v-.84h9.28c0,2.11.42,3.79-1.69,5.48-.42,0-.42.84,0,1.26.42.42,1.27-.42,1.69,0,0,.42-.42,1.69,0,1.69.42.42,1.69.42,2.53,0,.84-.84,1.26-2.11,2.53-1.27.42.42,0,1.69.84,2.11,1.69.84,3.79,0,5.48.84.84,0,.84,1.26.84,1.69-2.53.84-6.32-.84-7.59,1.69-.42.84-1.26,2.11-1.69,3.37,0,0-.42,1.26,0,1.26.42.42,1.69.42,2.11,0,.84-1.26,2.95-1.69,2.95-3.37.84.42,1.69-.42,2.11-.42v.84c1.26,0,2.11.42,2.53,1.69.42.42,2.11-.42,2.53.42.42,1.26,0,2.53,0,3.79h2.95c-.42,1.69,0,3.37.84,4.64h22.77v25.3s.42.42.84.84c1.26.84.84,2.53,1.69,3.37,0,.42,1.27,0,1.27.42.84.84,0,2.53.84,3.37.84,0,1.69-.42,2.53,0,.42.84,1.69,1.69,2.11,2.53.42,1.26,0,2.53,0,3.79h.42c.42.42.84,1.26.84,1.69-.84.42-1.69,0-2.53-.84-1.26,0-2.53,0-3.37.42-.42,0-.42,1.26,0,1.26,1.69.84,2.53,2.95,2.53,4.64.84,0,1.69-.42,2.53,0,2.11,1.69.84,4.22,2.95,6.32v1.69ZM0,0v190.17h196.91V0H0Z"/>
      <path id="path2428" class="cls-1" d="M79.69,94.45h7.17v-7.59h-7.17v7.59ZM79.69,104.99h7.17v-7.59h-7.17v7.59ZM79.69,115.11h7.17v-7.59h-7.17v7.59ZM79.69,73.79h7.17v-7.17h-7.17v7.17ZM100.35,153.48h7.17v-6.75h-7.17v6.75ZM79.69,125.23h7.17v-7.17h-7.17v7.17ZM45.96,118.06h-7.17v7.17h7.17v-7.17ZM79.69,133.24h7.17v-5.06h-7.17v5.06ZM45.96,97.4h-7.17v7.59h7.17v-7.59ZM45.96,107.52h-7.17v7.59h7.17v-7.59ZM79.69,63.67h7.17v-7.59h-7.17v7.59ZM45.96,86.86h-7.17v7.59h7.17v-7.59ZM76.74,136.2v-8.01h-17.71v8.01h-13.07v-8.01h-7.17v31.2h48.07v-23.19h-10.12ZM89.81,104.99h7.59v-7.59h-7.59v7.59ZM89.81,73.79h7.59v-7.17h-7.59v7.17ZM45.96,76.74h-7.17v7.59h7.17v-7.59ZM89.81,94.45h7.59v-7.59h-7.59v7.59ZM89.81,84.33h7.59v-7.59h-7.59v7.59ZM89.81,63.67h7.59v-7.59h-7.59v7.59ZM89.81,53.13h7.59v-6.32h-7.59v6.32ZM89.81,153.48h7.59v-6.75h-7.59v6.75ZM89.81,143.79h7.59v-7.59h-7.59v7.59ZM79.69,53.13h7.17v-6.32h-7.17v6.32ZM89.81,133.24h7.59v-5.06h-7.59v5.06ZM89.81,125.23h7.59v-7.17h-7.59v7.17ZM89.81,115.11h7.59v-7.59h-7.59v7.59ZM79.69,84.33h7.17v-7.59h-7.17v7.59ZM66.62,46.8h-7.59v6.32h7.59v-6.32ZM76.74,118.06h-7.59v7.17h7.59v-7.17ZM66.62,56.08h-7.59v7.59h7.59v-7.59ZM76.74,107.52h-7.59v7.59h7.59v-7.59ZM66.62,66.62h-7.59v7.17h7.59v-7.17ZM66.62,76.74h-7.59v7.59h7.59v-7.59ZM76.74,86.86h-7.59v7.59h7.59v-7.59ZM76.74,97.4h-7.59v7.59h7.59v-7.59ZM76.74,66.62h-7.59v7.17h7.59v-7.17ZM76.74,46.8h-7.59v6.32h7.59v-6.32ZM76.74,56.08h-7.59v7.59h7.59v-7.59ZM66.62,86.86h-7.59v7.59h7.59v-7.59ZM76.74,76.74h-7.59v7.59h7.59v-7.59ZM56.08,56.08h-7.17v7.59h7.17v-7.59ZM56.08,118.06h-7.17v7.17h7.17v-7.17ZM56.08,107.52h-7.17v7.59h7.17v-7.59ZM56.08,86.86h-7.17v7.59h7.17v-7.59ZM56.08,97.4h-7.17v7.59h7.17v-7.59ZM56.08,128.18h-7.17v5.06h7.17v-5.06ZM48.91,53.13h7.17v-6.32h-17.29v16.87h7.17v-10.54h2.95ZM56.08,76.74h-7.17v7.59h7.17v-7.59ZM66.62,118.06h-7.59v7.17h7.59v-7.17ZM66.62,97.4h-7.59v7.59h7.59v-7.59ZM66.62,107.52h-7.59v7.59h7.59v-7.59ZM45.96,66.62h-7.17v7.17h7.17v-7.17ZM56.08,66.62h-7.17v7.17h7.17v-7.17ZM100.35,125.23h7.17v-7.17h-7.17v7.17ZM118.06,66.62h-7.59v7.17h7.59v-7.17ZM128.18,118.06h-7.17v7.17h7.17v-7.17ZM118.06,97.4h-7.59v7.59h7.59v-7.59ZM118.06,56.08h-7.59v7.59h7.59v-7.59ZM118.06,76.74h-7.59v7.59h7.59v-7.59ZM118.06,86.86h-7.59v7.59h7.59v-7.59ZM118.06,46.8h-7.59v6.32h7.59v-6.32ZM128.18,76.74h-7.17v7.59h7.17v-7.59ZM128.18,66.62h-7.17v7.17h7.17v-7.17ZM128.18,56.08h-7.17v7.59h7.17v-7.59ZM128.18,107.52h-7.17v7.59h7.17v-7.59ZM128.18,86.86h-7.17v7.59h7.17v-7.59ZM128.18,97.4h-7.17v7.59h7.17v-7.59ZM100.35,143.79h7.17v-7.59h-7.17v7.59ZM151.8,73.79h5.48v-7.17h-5.48v7.17ZM128.18,46.8h-7.17v6.32h7.17v-6.32ZM151.8,104.99h5.48v-7.59h-5.48v7.59ZM151.8,94.45h5.48v-7.59h-5.48v7.59ZM118.06,128.18h-7.59v5.06h7.59v-5.06ZM151.8,115.11h5.48v-7.59h-5.48v7.59ZM118.06,107.52h-7.59v7.59h7.59v-7.59ZM118.06,118.06h-7.59v7.17h7.59v-7.17ZM151.8,135.35v1.26h-13.07v-8.43h-17.71v8.01h-10.54v23.19h46.8v-31.2h-5.48v7.17ZM151.8,125.23h5.48v-7.17h-5.48v7.17ZM151.8,84.33h5.48v-7.59h-5.48v7.59ZM100.35,73.79h7.17v-7.17h-7.17v7.17ZM100.35,53.13h7.17v-6.32h-7.17v6.32ZM100.35,63.67h7.17v-7.59h-7.17v7.59ZM148.85,53.13h-7.17v-6.32h15.6v16.87h-5.48v-10.54h-2.95ZM148.85,66.62h-7.17v7.17h7.17v-7.17ZM148.85,56.08h-7.17v7.59h7.17v-7.59ZM148.85,76.74h-7.17v7.59h7.17v-7.59ZM100.35,133.24h7.17v-5.06h-7.17v5.06ZM138.73,118.06h-7.59v7.17h7.59v-7.17ZM100.35,115.11h7.17v-7.59h-7.17v7.59ZM100.35,94.45h7.17v-7.59h-7.17v7.59ZM100.35,104.99h7.17v-7.59h-7.17v7.59ZM100.35,84.33h7.17v-7.59h-7.17v7.59ZM138.73,76.74h-7.59v7.59h7.59v-7.59ZM138.73,86.86h-7.59v7.59h7.59v-7.59ZM138.73,66.62h-7.59v7.17h7.59v-7.17ZM138.73,56.08h-7.59v7.59h7.59v-7.59ZM138.73,107.52h-7.59v7.59h7.59v-7.59ZM148.85,86.86h-7.17v7.59h7.17v-7.59ZM138.73,97.4h-7.59v7.59h7.59v-7.59ZM148.85,97.4h-7.17v7.59h7.17v-7.59ZM148.85,107.52h-7.17v7.59h7.17v-7.59ZM148.85,128.18h-7.17v5.48h7.17v-5.48ZM138.73,46.8h-7.59v6.32h7.59v-6.32ZM148.85,118.06h-7.17v7.17h7.17v-7.17Z"/>
    </g>
  </g>
</svg>